G04 #@! TF.GenerationSoftware,KiCad,Pcbnew,9.0.0*
G04 #@! TF.CreationDate,2025-09-01T10:59:56+03:00*
G04 #@! TF.ProjectId,OV24-RV_V1.0,4f563234-2d52-4565-9f56-312e302e6b69,rev?*
G04 #@! TF.SameCoordinates,Original*
G04 #@! TF.FileFunction,Copper,L1,Top*
G04 #@! TF.FilePolarity,Positive*
%FSLAX46Y46*%
G04 Gerber Fmt 4.6, Leading zero omitted, Abs format (unit mm)*
G04 Created by KiCad (PCBNEW 9.0.0) date 2025-09-01 10:59:56*
%MOMM*%
%LPD*%
G01*
G04 APERTURE LIST*
G04 Aperture macros list*
%AMRoundRect*
0 Rectangle with rounded corners*
0 $1 Rounding radius*
0 $2 $3 $4 $5 $6 $7 $8 $9 X,Y pos of 4 corners*
0 Add a 4 corners polygon primitive as box body*
4,1,4,$2,$3,$4,$5,$6,$7,$8,$9,$2,$3,0*
0 Add four circle primitives for the rounded corners*
1,1,$1+$1,$2,$3*
1,1,$1+$1,$4,$5*
1,1,$1+$1,$6,$7*
1,1,$1+$1,$8,$9*
0 Add four rect primitives between the rounded corners*
20,1,$1+$1,$2,$3,$4,$5,0*
20,1,$1+$1,$4,$5,$6,$7,0*
20,1,$1+$1,$6,$7,$8,$9,0*
20,1,$1+$1,$8,$9,$2,$3,0*%
G04 Aperture macros list end*
G04 #@! TA.AperFunction,SMDPad,CuDef*
%ADD10R,2.100000X1.600000*%
G04 #@! TD*
G04 #@! TA.AperFunction,SMDPad,CuDef*
%ADD11R,1.300000X0.350000*%
G04 #@! TD*
G04 #@! TA.AperFunction,SMDPad,CuDef*
%ADD12R,0.300000X1.100000*%
G04 #@! TD*
G04 #@! TA.AperFunction,SMDPad,CuDef*
%ADD13RoundRect,0.200000X-0.275000X0.200000X-0.275000X-0.200000X0.275000X-0.200000X0.275000X0.200000X0*%
G04 #@! TD*
G04 #@! TA.AperFunction,SMDPad,CuDef*
%ADD14RoundRect,0.150000X-0.512500X-0.150000X0.512500X-0.150000X0.512500X0.150000X-0.512500X0.150000X0*%
G04 #@! TD*
G04 #@! TA.AperFunction,SMDPad,CuDef*
%ADD15RoundRect,0.250000X0.250000X0.475000X-0.250000X0.475000X-0.250000X-0.475000X0.250000X-0.475000X0*%
G04 #@! TD*
G04 #@! TA.AperFunction,ComponentPad*
%ADD16R,1.350000X1.350000*%
G04 #@! TD*
G04 #@! TA.AperFunction,ComponentPad*
%ADD17O,1.350000X1.350000*%
G04 #@! TD*
G04 #@! TA.AperFunction,SMDPad,CuDef*
%ADD18RoundRect,0.200000X0.275000X-0.200000X0.275000X0.200000X-0.275000X0.200000X-0.275000X-0.200000X0*%
G04 #@! TD*
G04 #@! TA.AperFunction,ViaPad*
%ADD19C,0.400000*%
G04 #@! TD*
G04 #@! TA.AperFunction,ViaPad*
%ADD20C,0.508000*%
G04 #@! TD*
G04 #@! TA.AperFunction,ViaPad*
%ADD21C,0.500000*%
G04 #@! TD*
G04 #@! TA.AperFunction,Conductor*
%ADD22C,0.200000*%
G04 #@! TD*
G04 #@! TA.AperFunction,Conductor*
%ADD23C,0.600000*%
G04 #@! TD*
G04 #@! TA.AperFunction,Conductor*
%ADD24C,0.381000*%
G04 #@! TD*
G04 #@! TA.AperFunction,Conductor*
%ADD25C,0.152400*%
G04 #@! TD*
G04 #@! TA.AperFunction,Conductor*
%ADD26C,0.508000*%
G04 #@! TD*
G04 APERTURE END LIST*
D10*
X85793750Y-80866250D03*
D11*
X85393750Y-81841250D03*
X70193750Y-81841250D03*
D10*
X69793750Y-80866250D03*
D12*
X83543750Y-79916250D03*
X83043750Y-79916250D03*
X82543750Y-79916250D03*
X82043750Y-79916250D03*
X81543750Y-79916250D03*
X81043750Y-79916250D03*
X80543750Y-79916250D03*
X80043750Y-79916250D03*
X79543750Y-79916250D03*
X79043750Y-79916250D03*
X78543750Y-79916250D03*
X78043750Y-79916250D03*
X77543750Y-79916250D03*
X77043750Y-79916250D03*
X76543750Y-79916250D03*
X76043750Y-79916250D03*
X75543750Y-79916250D03*
X75043750Y-79916250D03*
X74543750Y-79916250D03*
X74043750Y-79916250D03*
X73543750Y-79916250D03*
X73043750Y-79916250D03*
X72543750Y-79916250D03*
X72043750Y-79916250D03*
X81553750Y-66399250D03*
X81053750Y-66399250D03*
X80553750Y-66399250D03*
X80053750Y-66399250D03*
X79553750Y-66399250D03*
X79053750Y-66399250D03*
X78553750Y-66399250D03*
X78053750Y-66399250D03*
X77553750Y-66399250D03*
X77053750Y-66399250D03*
X76553750Y-66399250D03*
X76053750Y-66399250D03*
X75553750Y-66399250D03*
X75053750Y-66399250D03*
X74553750Y-66399250D03*
X74053750Y-66399250D03*
X73553750Y-66399250D03*
X73053750Y-66399250D03*
X72553750Y-66399250D03*
X72053750Y-66399250D03*
D10*
X83803750Y-65449250D03*
D11*
X83403750Y-64474250D03*
X70203750Y-64474250D03*
D10*
X69803750Y-65449250D03*
D13*
X63513750Y-70241250D03*
X63513750Y-68591250D03*
X63513750Y-76491250D03*
X63513750Y-74841250D03*
D14*
X58786250Y-74601250D03*
X58786250Y-75551250D03*
X58786250Y-76501250D03*
X61061250Y-76501250D03*
X61061250Y-74601250D03*
D15*
X57103750Y-78401250D03*
X55203750Y-78401250D03*
D14*
X58736250Y-80711250D03*
X58736250Y-81661250D03*
X58736250Y-82611250D03*
X61011250Y-82611250D03*
X61011250Y-80711250D03*
D15*
X57092500Y-72446250D03*
X55192500Y-72446250D03*
X61503750Y-66541250D03*
X59603750Y-66541250D03*
D16*
X67583750Y-70301250D03*
D17*
X69583750Y-70301250D03*
X67583750Y-72301250D03*
X69583750Y-72301250D03*
X67583750Y-74301250D03*
X69583750Y-74301250D03*
X67583750Y-76301250D03*
X69583750Y-76301250D03*
D14*
X58772500Y-68636250D03*
X58772500Y-69586250D03*
X58772500Y-70536250D03*
X61047500Y-70536250D03*
X61047500Y-68636250D03*
D15*
X61412500Y-72446250D03*
X59512500Y-72446250D03*
D18*
X66053750Y-65716250D03*
X66053750Y-64066250D03*
D13*
X57013750Y-74846250D03*
X57013750Y-76496250D03*
X57057500Y-68881250D03*
X57057500Y-70531250D03*
X63483750Y-80558750D03*
X63483750Y-82208750D03*
X57003750Y-80966250D03*
X57003750Y-82616250D03*
D15*
X61443750Y-78411250D03*
X59543750Y-78411250D03*
X57103750Y-66601250D03*
X55203750Y-66601250D03*
D19*
X79043750Y-77931250D03*
X79973750Y-71311250D03*
X81283750Y-64941250D03*
X82303750Y-81231250D03*
X80553750Y-80961250D03*
X78553750Y-81031250D03*
X77543750Y-81031250D03*
X76053750Y-81031250D03*
X74543750Y-81031250D03*
X73043750Y-81031250D03*
X72033750Y-81041250D03*
X80303750Y-64921250D03*
X79053750Y-64941250D03*
X77553750Y-64941250D03*
X76043750Y-64931250D03*
X74563750Y-64931250D03*
X73053750Y-64931250D03*
X72053750Y-64941250D03*
X72533750Y-78911250D03*
X83253750Y-78481250D03*
X81283750Y-78551250D03*
X79223750Y-71451250D03*
X78053750Y-68471250D03*
X74067250Y-75991250D03*
X73530250Y-77401250D03*
X72543750Y-67671250D03*
X78043750Y-77941250D03*
X76530250Y-77391250D03*
X77067250Y-75951250D03*
X75567250Y-75971250D03*
X75030250Y-77441250D03*
D20*
X63513750Y-77711250D03*
X63513750Y-71526250D03*
X63483750Y-83653750D03*
D19*
X66053750Y-62731250D03*
D21*
X58833750Y-78411250D03*
X59923750Y-75551250D03*
X59937500Y-69586250D03*
X58633750Y-66541250D03*
X58462500Y-72446250D03*
X59913750Y-81681250D03*
D19*
X56673750Y-80151250D03*
X57392500Y-74046250D03*
X56823750Y-68081250D03*
X56792500Y-74076250D03*
X57273750Y-80121250D03*
X57423750Y-68051250D03*
D22*
X80543750Y-80951250D02*
X80543750Y-79916250D01*
X80553750Y-80961250D02*
X80543750Y-80951250D01*
D23*
X66053750Y-66921250D02*
X66053750Y-65716250D01*
X67583750Y-68451250D02*
X66053750Y-66921250D01*
X67583750Y-70301250D02*
X67583750Y-68451250D01*
D22*
X81553750Y-65211250D02*
X81553750Y-66399250D01*
X81283750Y-64941250D02*
X81553750Y-65211250D01*
X81053750Y-65171250D02*
X81053750Y-66399250D01*
X81283750Y-64941250D02*
X81053750Y-65171250D01*
X79043750Y-79916250D02*
X79043750Y-77931250D01*
X79553750Y-70891250D02*
X79973750Y-71311250D01*
X79553750Y-66399250D02*
X79553750Y-70891250D01*
X80553750Y-66399250D02*
X80553750Y-65171250D01*
X80553750Y-65171250D02*
X80303750Y-64921250D01*
X80053750Y-65171250D02*
X80303750Y-64921250D01*
X80053750Y-66399250D02*
X80053750Y-65171250D01*
D24*
X66053750Y-62731250D02*
X66053750Y-64066250D01*
D22*
X82543750Y-80991250D02*
X82303750Y-81231250D01*
X82543750Y-79916250D02*
X82543750Y-80991250D01*
X82043750Y-80961250D02*
X82043750Y-79916250D01*
X82303750Y-81221250D02*
X82043750Y-80961250D01*
X82303750Y-81231250D02*
X82303750Y-81221250D01*
X78543750Y-81021250D02*
X78553750Y-81031250D01*
X78543750Y-79916250D02*
X78543750Y-81021250D01*
X77543750Y-79916250D02*
X77543750Y-81031250D01*
X76043750Y-81021250D02*
X76053750Y-81031250D01*
X76043750Y-79916250D02*
X76043750Y-81021250D01*
X74543750Y-79916250D02*
X74543750Y-81031250D01*
X73043750Y-79916250D02*
X73043750Y-81031250D01*
X72043750Y-81031250D02*
X72033750Y-81041250D01*
X72043750Y-79916250D02*
X72043750Y-81031250D01*
X79053750Y-66399250D02*
X79053750Y-64941250D01*
X77553750Y-66399250D02*
X77553750Y-64941250D01*
X76053750Y-64941250D02*
X76043750Y-64931250D01*
X76053750Y-66399250D02*
X76053750Y-64941250D01*
X74553750Y-64941250D02*
X74563750Y-64931250D01*
X74553750Y-66399250D02*
X74553750Y-64941250D01*
X73053750Y-66399250D02*
X73053750Y-64931250D01*
X72053750Y-66399250D02*
X72053750Y-64941250D01*
X72543750Y-78921250D02*
X72533750Y-78911250D01*
X72543750Y-79916250D02*
X72543750Y-78921250D01*
X83543750Y-78771250D02*
X83253750Y-78481250D01*
X83543750Y-79916250D02*
X83543750Y-78771250D01*
X83043750Y-78691250D02*
X83253750Y-78481250D01*
X83043750Y-79916250D02*
X83043750Y-78691250D01*
X81043750Y-78791250D02*
X81283750Y-78551250D01*
X81043750Y-79916250D02*
X81043750Y-78791250D01*
X81543750Y-78811250D02*
X81283750Y-78551250D01*
X81543750Y-79916250D02*
X81543750Y-78811250D01*
X79543750Y-72481250D02*
X79543750Y-79916250D01*
X78553750Y-71491250D02*
X79543750Y-72481250D01*
X78553750Y-66399250D02*
X78553750Y-71491250D01*
X78053750Y-68471250D02*
X78053750Y-66399250D01*
X80043750Y-79916250D02*
X80043750Y-72271250D01*
X80043750Y-72271250D02*
X79223750Y-71451250D01*
D25*
X77053750Y-67224251D02*
X77053750Y-66399250D01*
X76943450Y-67334551D02*
X77053750Y-67224251D01*
X76943450Y-75827450D02*
X76943450Y-67334551D01*
X77067250Y-75951250D02*
X76943450Y-75827450D01*
X76933450Y-78980949D02*
X77043750Y-79091249D01*
X77043750Y-79091249D02*
X77043750Y-79916250D01*
X76933450Y-76920950D02*
X76933450Y-78980949D01*
X76664050Y-76651550D02*
X76933450Y-76920950D01*
X76664050Y-73413020D02*
X76664050Y-76651550D01*
X76543750Y-79091249D02*
X76543750Y-79916250D01*
X76654050Y-77515050D02*
X76654050Y-78980949D01*
X76530250Y-77391250D02*
X76654050Y-77515050D01*
X76654050Y-78980949D02*
X76543750Y-79091249D01*
X75443450Y-67334551D02*
X75553750Y-67224251D01*
X75443450Y-75847450D02*
X75443450Y-67334551D01*
X75567250Y-75971250D02*
X75443450Y-75847450D01*
X75553750Y-67224251D02*
X75553750Y-66399250D01*
X75433450Y-78980949D02*
X75543750Y-79091249D01*
X75433450Y-77060950D02*
X75433450Y-78980949D01*
X75164050Y-76791550D02*
X75433450Y-77060950D01*
X75164050Y-73084259D02*
X75164050Y-76791550D01*
X75543750Y-79091249D02*
X75543750Y-79916250D01*
X75154050Y-78980949D02*
X75043750Y-79091249D01*
X75043750Y-79091249D02*
X75043750Y-79916250D01*
X75154050Y-77565050D02*
X75154050Y-78980949D01*
X75030250Y-77441250D02*
X75154050Y-77565050D01*
X74053750Y-67224251D02*
X74053750Y-66399250D01*
X73943450Y-67334551D02*
X74053750Y-67224251D01*
X73943450Y-75867450D02*
X73943450Y-67334551D01*
X74067250Y-75991250D02*
X73943450Y-75867450D01*
X74043750Y-79091249D02*
X74043750Y-79916250D01*
X73933450Y-77120950D02*
X73933450Y-78980949D01*
X73664050Y-76851550D02*
X73933450Y-77120950D01*
X73933450Y-78980949D02*
X74043750Y-79091249D01*
X73664050Y-73113472D02*
X73664050Y-76851550D01*
X73543750Y-79091249D02*
X73543750Y-79916250D01*
X73530250Y-77401250D02*
X73654050Y-77525050D01*
X73654050Y-77525050D02*
X73654050Y-78980949D01*
X73654050Y-78980949D02*
X73543750Y-79091249D01*
D22*
X72553750Y-67661250D02*
X72543750Y-67671250D01*
X72553750Y-66399250D02*
X72553750Y-67661250D01*
X78043750Y-79916250D02*
X78043750Y-77941250D01*
D25*
X75971121Y-72448478D02*
G75*
G03*
X76271121Y-72748479I299979J-22D01*
G01*
X76664050Y-69448478D02*
G75*
G02*
X76364050Y-69748550I-300050J-22D01*
G01*
X76271137Y-70948478D02*
G75*
G03*
X75971078Y-71248478I-37J-300022D01*
G01*
X76664050Y-71848478D02*
G75*
G02*
X76364050Y-72148550I-300050J-22D01*
G01*
X75971137Y-70048478D02*
G75*
G03*
X76271137Y-70348463I299963J-22D01*
G01*
X75971137Y-68848478D02*
G75*
G03*
X76271137Y-69148463I299963J-22D01*
G01*
X76271137Y-68548478D02*
G75*
G03*
X75971078Y-68848478I-37J-300022D01*
G01*
X76271121Y-72148478D02*
G75*
G03*
X75971078Y-72448478I-21J-300022D01*
G01*
X76271137Y-69748478D02*
G75*
G03*
X75971078Y-70048478I-37J-300022D01*
G01*
X75971137Y-71248478D02*
G75*
G03*
X76271137Y-71548463I299963J-22D01*
G01*
X76364050Y-69148478D02*
G75*
G02*
X76664022Y-69448478I-50J-300022D01*
G01*
X76664050Y-68248478D02*
G75*
G02*
X76364050Y-68548550I-300050J-22D01*
G01*
X76364050Y-72748478D02*
G75*
G02*
X76664022Y-73048478I-50J-300022D01*
G01*
X76364050Y-71548478D02*
G75*
G02*
X76664022Y-71848478I-50J-300022D01*
G01*
X76664050Y-70648478D02*
G75*
G02*
X76364050Y-70948550I-300050J-22D01*
G01*
X76364050Y-70348478D02*
G75*
G02*
X76664022Y-70648478I-50J-300022D01*
G01*
X76271137Y-70348478D02*
X76364050Y-70348478D01*
X76271137Y-69148478D02*
X76364050Y-69148478D01*
X76364050Y-68548478D02*
X76271137Y-68548478D01*
X76664050Y-67334551D02*
X76664050Y-68248478D01*
X76271137Y-71548478D02*
X76364050Y-71548478D01*
X76364050Y-72148478D02*
X76271121Y-72148478D01*
X76553750Y-67224251D02*
X76664050Y-67334551D01*
X76553750Y-66399250D02*
X76553750Y-67224251D01*
X76364050Y-70948478D02*
X76271137Y-70948478D01*
X76664050Y-73048478D02*
X76664050Y-73413020D01*
X76271121Y-72748478D02*
X76364050Y-72748478D01*
X76364050Y-69748478D02*
X76271137Y-69748478D01*
X75164050Y-71860433D02*
G75*
G02*
X74864050Y-72160450I-300050J33D01*
G01*
X75164050Y-68260433D02*
G75*
G02*
X74864050Y-68560450I-300050J33D01*
G01*
X75164050Y-70660433D02*
G75*
G02*
X74864050Y-70960450I-300050J33D01*
G01*
X74771045Y-69760433D02*
G75*
G03*
X74471033Y-70060433I-45J-299967D01*
G01*
X74471040Y-68860433D02*
G75*
G03*
X74771040Y-69160360I299960J33D01*
G01*
X74864050Y-72760433D02*
G75*
G02*
X75163967Y-73060433I-50J-299967D01*
G01*
X74864050Y-69160433D02*
G75*
G02*
X75163967Y-69460433I-50J-299967D01*
G01*
X74864050Y-70360433D02*
G75*
G02*
X75163967Y-70660433I-50J-299967D01*
G01*
X74864050Y-71560433D02*
G75*
G02*
X75163967Y-71860433I-50J-299967D01*
G01*
X74471050Y-72460433D02*
G75*
G03*
X74771050Y-72760450I300050J33D01*
G01*
X74771050Y-72160433D02*
G75*
G03*
X74471133Y-72460433I50J-299967D01*
G01*
X74471048Y-71260433D02*
G75*
G03*
X74771048Y-71560352I299952J33D01*
G01*
X74471045Y-70060433D02*
G75*
G03*
X74771045Y-70360355I299955J33D01*
G01*
X74771048Y-70960433D02*
G75*
G03*
X74471033Y-71260433I-48J-299967D01*
G01*
X75164050Y-69460433D02*
G75*
G02*
X74864050Y-69760450I-300050J33D01*
G01*
X74771040Y-68560433D02*
G75*
G03*
X74471033Y-68860433I-40J-299967D01*
G01*
X74771045Y-70360433D02*
X74864050Y-70360433D01*
X74771048Y-71560433D02*
X74864050Y-71560433D01*
X74771040Y-69160433D02*
X74864050Y-69160433D01*
X75164050Y-67334551D02*
X75164050Y-68260433D01*
X75164050Y-73060433D02*
X75164050Y-73084259D01*
X74864050Y-72160433D02*
X74771050Y-72160433D01*
X74864050Y-68560433D02*
X74771040Y-68560433D01*
X74864050Y-69760433D02*
X74771045Y-69760433D01*
X74771050Y-72760433D02*
X74864050Y-72760433D01*
X75053750Y-66399250D02*
X75053750Y-67224251D01*
X75053750Y-67224251D02*
X75164050Y-67334551D01*
X74864050Y-70960433D02*
X74771048Y-70960433D01*
X73364050Y-68589647D02*
X73271024Y-68589647D01*
X73553750Y-66399250D02*
X73553750Y-67224251D01*
X73664050Y-73089647D02*
X73664050Y-73113472D01*
X73553750Y-67224251D02*
X73664050Y-67334551D01*
X73271024Y-71589647D02*
X73364050Y-71589647D01*
X73271024Y-70389647D02*
X73364050Y-70389647D01*
X73364050Y-69789647D02*
X73271024Y-69789647D01*
X73271024Y-69189647D02*
X73364050Y-69189647D01*
X73364050Y-72189647D02*
X73271024Y-72189647D01*
X73664050Y-67334551D02*
X73664050Y-68289647D01*
X73364050Y-70989647D02*
X73271024Y-70989647D01*
X73271024Y-72789647D02*
X73364050Y-72789647D01*
X73364050Y-72789647D02*
G75*
G02*
X73663953Y-73089647I-50J-299953D01*
G01*
X73271024Y-68589647D02*
G75*
G03*
X72971047Y-68889647I-24J-299953D01*
G01*
X73271024Y-72189647D02*
G75*
G03*
X72971047Y-72489647I-24J-299953D01*
G01*
X73271024Y-69789647D02*
G75*
G03*
X72971047Y-70089647I-24J-299953D01*
G01*
X73271024Y-70989647D02*
G75*
G03*
X72971047Y-71289647I-24J-299953D01*
G01*
X72971024Y-72489647D02*
G75*
G03*
X73271024Y-72789576I299976J47D01*
G01*
X73664050Y-71889647D02*
G75*
G02*
X73364050Y-72189650I-300050J47D01*
G01*
X73364050Y-70389647D02*
G75*
G02*
X73663953Y-70689647I-50J-299953D01*
G01*
X73664050Y-69489647D02*
G75*
G02*
X73364050Y-69789650I-300050J47D01*
G01*
X73664050Y-68289647D02*
G75*
G02*
X73364050Y-68589650I-300050J47D01*
G01*
X72971024Y-70089647D02*
G75*
G03*
X73271024Y-70389576I299976J47D01*
G01*
X72971024Y-68889647D02*
G75*
G03*
X73271024Y-69189576I299976J47D01*
G01*
X73364050Y-71589647D02*
G75*
G02*
X73663953Y-71889647I-50J-299953D01*
G01*
X73364050Y-69189647D02*
G75*
G02*
X73663953Y-69489647I-50J-299953D01*
G01*
X72971024Y-71289647D02*
G75*
G03*
X73271024Y-71589576I299976J47D01*
G01*
X73664050Y-70689647D02*
G75*
G02*
X73364050Y-70989650I-300050J47D01*
G01*
D26*
X63513750Y-76491250D02*
X63513750Y-77711250D01*
X63513750Y-70241250D02*
X63513750Y-71526250D01*
X63483750Y-82208750D02*
X63483750Y-83653750D01*
X58723750Y-78411250D02*
X59543750Y-78411250D01*
X59512500Y-72446250D02*
X58462500Y-72446250D01*
X59937500Y-69586250D02*
X58772500Y-69586250D01*
X59923750Y-75551250D02*
X58786250Y-75551250D01*
X58756250Y-81681250D02*
X58736250Y-81661250D01*
X58633750Y-66541250D02*
X59603750Y-66541250D01*
X59913750Y-81681250D02*
X58756250Y-81681250D01*
X58781250Y-76496250D02*
X58786250Y-76501250D01*
X57013750Y-76496250D02*
X58781250Y-76496250D01*
X57057500Y-70531250D02*
X58767500Y-70531250D01*
X58767500Y-70531250D02*
X58772500Y-70536250D01*
X58731250Y-82616250D02*
X58736250Y-82611250D01*
X57003750Y-82616250D02*
X58731250Y-82616250D01*
G04 #@! TA.AperFunction,Conductor*
G36*
X57579398Y-77635602D02*
G01*
X57593750Y-77670250D01*
X57593750Y-79821250D01*
X59374750Y-79821250D01*
X59409398Y-79835602D01*
X59423750Y-79870250D01*
X59423750Y-81002250D01*
X59409398Y-81036898D01*
X59374750Y-81051250D01*
X57513750Y-81051250D01*
X57513750Y-81332250D01*
X57499398Y-81366898D01*
X57464750Y-81381250D01*
X56362750Y-81381250D01*
X56328102Y-81366898D01*
X56313750Y-81332250D01*
X56313750Y-77670250D01*
X56328102Y-77635602D01*
X56362750Y-77621250D01*
X57544750Y-77621250D01*
X57579398Y-77635602D01*
G37*
G04 #@! TD.AperFunction*
G04 #@! TA.AperFunction,Conductor*
G36*
X57718148Y-71590602D02*
G01*
X57732500Y-71625250D01*
X57732500Y-73776250D01*
X59513500Y-73776250D01*
X59548148Y-73790602D01*
X59562500Y-73825250D01*
X59562500Y-74957250D01*
X59548148Y-74991898D01*
X59513500Y-75006250D01*
X57652500Y-75006250D01*
X57652500Y-75287250D01*
X57638148Y-75321898D01*
X57603500Y-75336250D01*
X56501500Y-75336250D01*
X56466852Y-75321898D01*
X56452500Y-75287250D01*
X56452500Y-71625250D01*
X56466852Y-71590602D01*
X56501500Y-71576250D01*
X57683500Y-71576250D01*
X57718148Y-71590602D01*
G37*
G04 #@! TD.AperFunction*
G04 #@! TA.AperFunction,Conductor*
G36*
X57729398Y-65585602D02*
G01*
X57743750Y-65620250D01*
X57743750Y-67771250D01*
X59524750Y-67771250D01*
X59559398Y-67785602D01*
X59573750Y-67820250D01*
X59573750Y-68952250D01*
X59559398Y-68986898D01*
X59524750Y-69001250D01*
X57663750Y-69001250D01*
X57663750Y-69282250D01*
X57649398Y-69316898D01*
X57614750Y-69331250D01*
X56512750Y-69331250D01*
X56478102Y-69316898D01*
X56463750Y-69282250D01*
X56463750Y-65620250D01*
X56478102Y-65585602D01*
X56512750Y-65571250D01*
X57694750Y-65571250D01*
X57729398Y-65585602D01*
G37*
G04 #@! TD.AperFunction*
G04 #@! TA.AperFunction,Conductor*
G36*
X61879398Y-65625602D02*
G01*
X61893750Y-65660250D01*
X61893750Y-67821250D01*
X65054750Y-67821250D01*
X65089398Y-67835602D01*
X65103750Y-67870250D01*
X65103750Y-71391250D01*
X68484750Y-71391250D01*
X68519398Y-71405602D01*
X68533750Y-71440250D01*
X68533750Y-73022250D01*
X68519398Y-73056898D01*
X68484750Y-73071250D01*
X64242750Y-73071250D01*
X64208102Y-73056898D01*
X64193750Y-73022250D01*
X64193750Y-69151250D01*
X60352750Y-69151250D01*
X60318102Y-69136898D01*
X60303750Y-69102250D01*
X60303750Y-67078141D01*
X60303964Y-67073565D01*
X60304249Y-67070523D01*
X60304250Y-67070516D01*
X60304250Y-66011984D01*
X60303964Y-66008934D01*
X60303750Y-66004359D01*
X60303750Y-65660250D01*
X60318102Y-65625602D01*
X60352750Y-65611250D01*
X61844750Y-65611250D01*
X61879398Y-65625602D01*
G37*
G04 #@! TD.AperFunction*
G04 #@! TA.AperFunction,Conductor*
G36*
X62089398Y-71635602D02*
G01*
X62103750Y-71670250D01*
X62103750Y-73341250D01*
X68484750Y-73341250D01*
X68519398Y-73355602D01*
X68533750Y-73390250D01*
X68533750Y-75252250D01*
X68519398Y-75286898D01*
X68484750Y-75301250D01*
X60332515Y-75301250D01*
X60297867Y-75286898D01*
X60296465Y-75285438D01*
X60292792Y-75281448D01*
X60287441Y-75272180D01*
X60247372Y-75232111D01*
X60246700Y-75231381D01*
X60240565Y-75214647D01*
X60233750Y-75198193D01*
X60233750Y-71670250D01*
X60248102Y-71635602D01*
X60282750Y-71621250D01*
X62054750Y-71621250D01*
X62089398Y-71635602D01*
G37*
G04 #@! TD.AperFunction*
G04 #@! TA.AperFunction,Conductor*
G36*
X68479398Y-75535602D02*
G01*
X68493750Y-75570250D01*
X68493750Y-81132250D01*
X68479398Y-81166898D01*
X68444750Y-81181250D01*
X60352750Y-81181250D01*
X60318102Y-81166898D01*
X60303750Y-81132250D01*
X60303750Y-77660250D01*
X60318102Y-77625602D01*
X60352750Y-77611250D01*
X62064750Y-77611250D01*
X62099398Y-77625602D01*
X62113750Y-77660250D01*
X62113750Y-79891250D01*
X66663750Y-79891250D01*
X66663750Y-75570250D01*
X66678102Y-75535602D01*
X66712750Y-75521250D01*
X68444750Y-75521250D01*
X68479398Y-75535602D01*
G37*
G04 #@! TD.AperFunction*
G04 #@! TA.AperFunction,Conductor*
G36*
X58063446Y-77106991D02*
G01*
X58166267Y-77145341D01*
X58225877Y-77151750D01*
X58787900Y-77151749D01*
X58846090Y-77170656D01*
X58882054Y-77220156D01*
X58882054Y-77281342D01*
X58846090Y-77330842D01*
X58839873Y-77335008D01*
X58825413Y-77343927D01*
X58825410Y-77343929D01*
X58701430Y-77467909D01*
X58609393Y-77617125D01*
X58554243Y-77783556D01*
X58543750Y-77886262D01*
X58543750Y-78161249D01*
X58543751Y-78161250D01*
X59444750Y-78161250D01*
X59502941Y-78180157D01*
X59538905Y-78229657D01*
X59543750Y-78260250D01*
X59543750Y-78562250D01*
X59524843Y-78620441D01*
X59475343Y-78656405D01*
X59444750Y-78661250D01*
X58543752Y-78661250D01*
X58543751Y-78661251D01*
X58543751Y-78936236D01*
X58554242Y-79038937D01*
X58554245Y-79038949D01*
X58609392Y-79205372D01*
X58676874Y-79314777D01*
X58691330Y-79374231D01*
X58668080Y-79430826D01*
X58616004Y-79462947D01*
X58592613Y-79465750D01*
X58048250Y-79465750D01*
X57990059Y-79446843D01*
X57954095Y-79397343D01*
X57949250Y-79366750D01*
X57949250Y-78960078D01*
X57950097Y-78947156D01*
X57954250Y-78915611D01*
X57954249Y-77886890D01*
X57950097Y-77855349D01*
X57949250Y-77842428D01*
X57949250Y-77670234D01*
X57948567Y-77648226D01*
X57948567Y-77648218D01*
X57948566Y-77648214D01*
X57948566Y-77648211D01*
X57934438Y-77587151D01*
X57922188Y-77534203D01*
X57907836Y-77499555D01*
X57888489Y-77459980D01*
X57820953Y-77376813D01*
X57814718Y-77369135D01*
X57814717Y-77369134D01*
X57715447Y-77307165D01*
X57715445Y-77307164D01*
X57713120Y-77306201D01*
X57680797Y-77292812D01*
X57679558Y-77292343D01*
X57679444Y-77292252D01*
X57679379Y-77292225D01*
X57679386Y-77292205D01*
X57631824Y-77254067D01*
X57615705Y-77195043D01*
X57637357Y-77137817D01*
X57688511Y-77104247D01*
X57714593Y-77100750D01*
X58028852Y-77100750D01*
X58063446Y-77106991D01*
G37*
G04 #@! TD.AperFunction*
G04 #@! TA.AperFunction,Conductor*
G36*
X59850962Y-75309711D02*
G01*
X59877516Y-75316378D01*
X59879768Y-75319071D01*
X59883110Y-75320157D01*
X59916768Y-75363309D01*
X59918527Y-75367681D01*
X59921142Y-75374183D01*
X59921144Y-75374187D01*
X59975861Y-75457937D01*
X59985148Y-75472152D01*
X59985820Y-75472882D01*
X59994300Y-75481719D01*
X59995993Y-75483484D01*
X60016250Y-75503742D01*
X60026015Y-75515112D01*
X60031235Y-75522215D01*
X60031243Y-75522223D01*
X60034918Y-75526216D01*
X60039994Y-75531615D01*
X60041461Y-75533142D01*
X60062543Y-75553362D01*
X60062550Y-75553368D01*
X60161811Y-75615331D01*
X60161815Y-75615333D01*
X60161820Y-75615336D01*
X60196468Y-75629688D01*
X60217084Y-75637488D01*
X60332515Y-75656750D01*
X60458372Y-75656750D01*
X60516563Y-75675657D01*
X60552527Y-75725157D01*
X60552527Y-75786343D01*
X60516563Y-75835843D01*
X60468953Y-75854182D01*
X60464259Y-75854687D01*
X60441269Y-75857158D01*
X60441264Y-75857159D01*
X60306420Y-75907452D01*
X60191208Y-75993700D01*
X60191200Y-75993708D01*
X60104952Y-76108920D01*
X60054660Y-76243761D01*
X60054658Y-76243772D01*
X60048250Y-76303379D01*
X60048250Y-76699116D01*
X60048251Y-76699120D01*
X60054658Y-76758730D01*
X60054659Y-76758735D01*
X60104952Y-76893579D01*
X60155230Y-76960741D01*
X60191204Y-77008796D01*
X60298576Y-77089175D01*
X60306283Y-77094944D01*
X60317323Y-77110605D01*
X60331789Y-77123168D01*
X60334529Y-77135013D01*
X60341536Y-77144952D01*
X60341262Y-77164112D01*
X60345581Y-77182779D01*
X60340835Y-77193972D01*
X60340662Y-77206132D01*
X60329178Y-77221472D01*
X60321701Y-77239111D01*
X60311282Y-77245377D01*
X60303995Y-77255113D01*
X60269270Y-77270649D01*
X60217301Y-77282673D01*
X60156346Y-77277369D01*
X60143014Y-77270483D01*
X60112873Y-77251892D01*
X59946443Y-77196743D01*
X59843737Y-77186250D01*
X59716692Y-77186250D01*
X59658501Y-77167343D01*
X59622537Y-77117843D01*
X59622537Y-77056657D01*
X59652408Y-77014921D01*
X59651289Y-77013802D01*
X59656288Y-77008801D01*
X59656296Y-77008796D01*
X59742546Y-76893581D01*
X59746006Y-76884306D01*
X59779175Y-76795374D01*
X59792841Y-76758733D01*
X59799250Y-76699123D01*
X59799249Y-76303378D01*
X59792841Y-76243767D01*
X59789508Y-76234831D01*
X59783191Y-76217893D01*
X59780571Y-76156764D01*
X59805948Y-76113290D01*
X59816431Y-76102806D01*
X59816434Y-76102803D01*
X59900031Y-75961447D01*
X59945848Y-75803743D01*
X59945850Y-75803736D01*
X59946046Y-75801250D01*
X58885250Y-75801250D01*
X58827059Y-75782343D01*
X58791095Y-75732843D01*
X58786250Y-75702250D01*
X58786250Y-75460750D01*
X58805157Y-75402559D01*
X58854657Y-75366595D01*
X58885250Y-75361750D01*
X59513516Y-75361750D01*
X59527600Y-75361312D01*
X59535532Y-75361067D01*
X59535535Y-75361066D01*
X59535538Y-75361066D01*
X59573795Y-75352214D01*
X59649547Y-75334688D01*
X59684195Y-75320336D01*
X59702658Y-75311309D01*
X59746140Y-75301250D01*
X59824919Y-75301250D01*
X59850962Y-75309711D01*
G37*
G04 #@! TD.AperFunction*
G04 #@! TA.AperFunction,Conductor*
G36*
X69833750Y-75985564D02*
G01*
X69829356Y-75981170D01*
X69738144Y-75928509D01*
X69636411Y-75901250D01*
X69531089Y-75901250D01*
X69429356Y-75928509D01*
X69338144Y-75981170D01*
X69333750Y-75985564D01*
X69333750Y-74616936D01*
X69338144Y-74621330D01*
X69429356Y-74673991D01*
X69531089Y-74701250D01*
X69636411Y-74701250D01*
X69738144Y-74673991D01*
X69829356Y-74621330D01*
X69833750Y-74616936D01*
X69833750Y-75985564D01*
G37*
G04 #@! TD.AperFunction*
G04 #@! TA.AperFunction,Conductor*
G36*
X69833750Y-73985564D02*
G01*
X69829356Y-73981170D01*
X69738144Y-73928509D01*
X69636411Y-73901250D01*
X69531089Y-73901250D01*
X69429356Y-73928509D01*
X69338144Y-73981170D01*
X69333750Y-73985564D01*
X69333750Y-72616936D01*
X69338144Y-72621330D01*
X69429356Y-72673991D01*
X69531089Y-72701250D01*
X69636411Y-72701250D01*
X69738144Y-72673991D01*
X69829356Y-72621330D01*
X69833750Y-72616936D01*
X69833750Y-73985564D01*
G37*
G04 #@! TD.AperFunction*
G04 #@! TA.AperFunction,Conductor*
G36*
X58049696Y-71141991D02*
G01*
X58152517Y-71180341D01*
X58212127Y-71186750D01*
X58756650Y-71186749D01*
X58814840Y-71205656D01*
X58850804Y-71255156D01*
X58850804Y-71316342D01*
X58814840Y-71365842D01*
X58808623Y-71370008D01*
X58794163Y-71378927D01*
X58794160Y-71378929D01*
X58670180Y-71502909D01*
X58578143Y-71652125D01*
X58522993Y-71818556D01*
X58512500Y-71921262D01*
X58512500Y-72196249D01*
X58512501Y-72196250D01*
X59413500Y-72196250D01*
X59471691Y-72215157D01*
X59507655Y-72264657D01*
X59512500Y-72295250D01*
X59512500Y-72597250D01*
X59493593Y-72655441D01*
X59444093Y-72691405D01*
X59413500Y-72696250D01*
X58512502Y-72696250D01*
X58512501Y-72696251D01*
X58512501Y-72971236D01*
X58522992Y-73073937D01*
X58522995Y-73073949D01*
X58578143Y-73240374D01*
X58596279Y-73269778D01*
X58610735Y-73329232D01*
X58587484Y-73385827D01*
X58535408Y-73417947D01*
X58512018Y-73420750D01*
X58187000Y-73420750D01*
X58128809Y-73401843D01*
X58092845Y-73352343D01*
X58088000Y-73321750D01*
X58088000Y-71625234D01*
X58087317Y-71603226D01*
X58087317Y-71603218D01*
X58087316Y-71603214D01*
X58087316Y-71603211D01*
X58068927Y-71523735D01*
X58060938Y-71489203D01*
X58046586Y-71454555D01*
X58027239Y-71414980D01*
X57953467Y-71324134D01*
X57944809Y-71318729D01*
X57942484Y-71315960D01*
X57939044Y-71314843D01*
X57923002Y-71292764D01*
X57905460Y-71271876D01*
X57905206Y-71268269D01*
X57903080Y-71265343D01*
X57903080Y-71238054D01*
X57901165Y-71210841D01*
X57903080Y-71207773D01*
X57903080Y-71204157D01*
X57919118Y-71182082D01*
X57933566Y-71158939D01*
X57936918Y-71157582D01*
X57939044Y-71154657D01*
X57964995Y-71146225D01*
X57990287Y-71135994D01*
X57997235Y-71135750D01*
X58015102Y-71135750D01*
X58049696Y-71141991D01*
G37*
G04 #@! TD.AperFunction*
G04 #@! TA.AperFunction,Conductor*
G36*
X59970109Y-69336250D02*
G01*
X59975599Y-69336250D01*
X59975599Y-69336898D01*
X60019974Y-69342139D01*
X60055402Y-69369648D01*
X60082783Y-69403366D01*
X60182055Y-69465336D01*
X60216703Y-69479688D01*
X60237319Y-69487488D01*
X60352750Y-69506750D01*
X62753870Y-69506750D01*
X62812061Y-69525657D01*
X62848025Y-69575157D01*
X62848025Y-69636343D01*
X62832756Y-69665565D01*
X62754389Y-69768908D01*
X62754388Y-69768910D01*
X62754387Y-69768910D01*
X62698873Y-69909684D01*
X62688250Y-69998143D01*
X62688250Y-70484356D01*
X62698873Y-70572815D01*
X62754387Y-70713589D01*
X62754388Y-70713591D01*
X62754389Y-70713592D01*
X62845828Y-70834172D01*
X62845831Y-70834174D01*
X62870069Y-70852554D01*
X62905011Y-70902780D01*
X62909250Y-70931438D01*
X62909250Y-71605834D01*
X62950446Y-71759578D01*
X63030030Y-71897422D01*
X63142578Y-72009970D01*
X63280422Y-72089554D01*
X63434166Y-72130750D01*
X63434167Y-72130750D01*
X63593335Y-72130750D01*
X63593335Y-72130749D01*
X63713627Y-72098517D01*
X63774728Y-72101718D01*
X63822278Y-72140223D01*
X63838250Y-72194143D01*
X63838250Y-72886750D01*
X63819343Y-72944941D01*
X63769843Y-72980905D01*
X63739250Y-72985750D01*
X62558250Y-72985750D01*
X62500059Y-72966843D01*
X62464095Y-72917343D01*
X62459250Y-72886750D01*
X62459250Y-71670234D01*
X62458567Y-71648226D01*
X62458567Y-71648218D01*
X62458566Y-71648214D01*
X62458566Y-71648211D01*
X62444438Y-71587151D01*
X62432188Y-71534203D01*
X62417836Y-71499555D01*
X62398489Y-71459980D01*
X62361603Y-71414557D01*
X62324718Y-71369135D01*
X62324717Y-71369134D01*
X62225447Y-71307165D01*
X62225445Y-71307164D01*
X62218297Y-71304203D01*
X62190797Y-71292812D01*
X62179945Y-71288706D01*
X62170182Y-71285012D01*
X62054750Y-71265750D01*
X61918498Y-71265750D01*
X61860307Y-71246843D01*
X61824343Y-71197343D01*
X61824343Y-71136157D01*
X61859169Y-71087497D01*
X61886934Y-71066712D01*
X61917546Y-71043796D01*
X62003796Y-70928581D01*
X62028326Y-70862814D01*
X62054089Y-70793738D01*
X62054090Y-70793735D01*
X62054091Y-70793733D01*
X62060500Y-70734123D01*
X62060499Y-70338378D01*
X62054091Y-70278767D01*
X62044441Y-70252893D01*
X62003797Y-70143920D01*
X61917549Y-70028708D01*
X61917548Y-70028707D01*
X61917546Y-70028704D01*
X61914073Y-70026104D01*
X61802329Y-69942452D01*
X61667488Y-69892160D01*
X61667483Y-69892159D01*
X61667481Y-69892158D01*
X61667477Y-69892158D01*
X61636249Y-69888800D01*
X61607873Y-69885750D01*
X61607870Y-69885750D01*
X60487133Y-69885750D01*
X60487129Y-69885750D01*
X60487128Y-69885751D01*
X60479949Y-69886522D01*
X60427519Y-69892158D01*
X60427514Y-69892159D01*
X60292670Y-69942452D01*
X60177458Y-70028700D01*
X60177450Y-70028708D01*
X60091202Y-70143920D01*
X60040910Y-70278761D01*
X60040908Y-70278772D01*
X60034500Y-70338379D01*
X60034500Y-70734116D01*
X60034501Y-70734120D01*
X60040908Y-70793730D01*
X60040909Y-70793735D01*
X60091202Y-70928579D01*
X60177450Y-71043791D01*
X60177454Y-71043796D01*
X60177457Y-71043798D01*
X60177458Y-71043799D01*
X60253741Y-71100905D01*
X60264780Y-71116565D01*
X60279247Y-71129129D01*
X60281987Y-71140975D01*
X60288994Y-71150914D01*
X60288720Y-71170073D01*
X60293039Y-71188739D01*
X60288293Y-71199933D01*
X60288120Y-71212093D01*
X60276636Y-71227432D01*
X60269159Y-71245072D01*
X60258739Y-71251339D01*
X60251452Y-71261074D01*
X60216728Y-71276610D01*
X60144926Y-71293223D01*
X60087261Y-71288205D01*
X60087096Y-71288706D01*
X60084988Y-71288007D01*
X60083971Y-71287919D01*
X60081779Y-71286944D01*
X59915193Y-71231743D01*
X59812487Y-71221250D01*
X59702942Y-71221250D01*
X59644751Y-71202343D01*
X59608787Y-71152843D01*
X59608787Y-71091657D01*
X59638658Y-71049921D01*
X59637539Y-71048802D01*
X59642538Y-71043801D01*
X59642546Y-71043796D01*
X59728796Y-70928581D01*
X59753326Y-70862814D01*
X59779089Y-70793738D01*
X59779090Y-70793735D01*
X59779091Y-70793733D01*
X59785500Y-70734123D01*
X59785499Y-70338378D01*
X59779091Y-70278767D01*
X59769441Y-70252893D01*
X59766821Y-70191764D01*
X59792198Y-70148290D01*
X59802681Y-70137806D01*
X59802684Y-70137803D01*
X59886281Y-69996447D01*
X59932098Y-69838743D01*
X59932100Y-69838736D01*
X59932296Y-69836250D01*
X58871500Y-69836250D01*
X58813309Y-69817343D01*
X58777345Y-69767843D01*
X58772500Y-69737250D01*
X58772500Y-69455750D01*
X58791407Y-69397559D01*
X58840907Y-69361595D01*
X58871500Y-69356750D01*
X59524766Y-69356750D01*
X59538850Y-69356312D01*
X59546782Y-69356067D01*
X59546785Y-69356066D01*
X59546788Y-69356066D01*
X59621422Y-69338798D01*
X59643738Y-69336250D01*
X59956914Y-69336250D01*
X59959211Y-69334963D01*
X59970109Y-69336250D01*
G37*
G04 #@! TD.AperFunction*
G04 #@! TA.AperFunction,Conductor*
G36*
X69833750Y-71985564D02*
G01*
X69829356Y-71981170D01*
X69738144Y-71928509D01*
X69636411Y-71901250D01*
X69531089Y-71901250D01*
X69429356Y-71928509D01*
X69338144Y-71981170D01*
X69333750Y-71985564D01*
X69333750Y-70616936D01*
X69338144Y-70621330D01*
X69429356Y-70673991D01*
X69531089Y-70701250D01*
X69636411Y-70701250D01*
X69738144Y-70673991D01*
X69829356Y-70621330D01*
X69833750Y-70616936D01*
X69833750Y-71985564D01*
G37*
G04 #@! TD.AperFunction*
G04 #@! TA.AperFunction,Conductor*
G36*
X80499195Y-66250547D02*
G01*
X80542460Y-66293812D01*
X80553250Y-66338757D01*
X80553250Y-66459743D01*
X80534343Y-66517934D01*
X80484843Y-66553898D01*
X80423657Y-66553898D01*
X80416072Y-66549250D01*
X80190240Y-66549250D01*
X80183843Y-66553898D01*
X80175854Y-66553898D01*
X80168737Y-66557524D01*
X80145842Y-66553898D01*
X80122657Y-66553898D01*
X80116194Y-66549202D01*
X80108305Y-66547953D01*
X80091913Y-66531561D01*
X80073157Y-66517934D01*
X80070688Y-66510336D01*
X80065040Y-66504688D01*
X80054250Y-66459743D01*
X80054250Y-66338757D01*
X80073157Y-66280566D01*
X80122657Y-66244602D01*
X80183843Y-66244602D01*
X80191428Y-66249250D01*
X80422524Y-66249250D01*
X80438763Y-66240976D01*
X80499195Y-66250547D01*
G37*
G04 #@! TD.AperFunction*
G04 #@! TA.AperFunction,Conductor*
G36*
X88812441Y-59970657D02*
G01*
X88848405Y-60020157D01*
X88853250Y-60050750D01*
X88853250Y-86621750D01*
X88834343Y-86679941D01*
X88784843Y-86715905D01*
X88754250Y-86720750D01*
X53935750Y-86720750D01*
X53877559Y-86701843D01*
X53841595Y-86652343D01*
X53836750Y-86621750D01*
X53836750Y-78651251D01*
X54203751Y-78651251D01*
X54203751Y-78926236D01*
X54214242Y-79028937D01*
X54214245Y-79028949D01*
X54269393Y-79195374D01*
X54361430Y-79344590D01*
X54485409Y-79468569D01*
X54634625Y-79560606D01*
X54801056Y-79615756D01*
X54903763Y-79626249D01*
X54953750Y-79626248D01*
X54953750Y-78651251D01*
X54953749Y-78651250D01*
X54203752Y-78651250D01*
X54203751Y-78651251D01*
X53836750Y-78651251D01*
X53836750Y-77876262D01*
X54203750Y-77876262D01*
X54203750Y-78151249D01*
X54203751Y-78151250D01*
X54953749Y-78151250D01*
X54953750Y-78151249D01*
X54953750Y-77176249D01*
X54903765Y-77176250D01*
X54903762Y-77176251D01*
X54801062Y-77186742D01*
X54801050Y-77186745D01*
X54634625Y-77241893D01*
X54485409Y-77333930D01*
X54361430Y-77457909D01*
X54269393Y-77607125D01*
X54214243Y-77773556D01*
X54203750Y-77876262D01*
X53836750Y-77876262D01*
X53836750Y-72696251D01*
X54192501Y-72696251D01*
X54192501Y-72971236D01*
X54202992Y-73073937D01*
X54202995Y-73073949D01*
X54258143Y-73240374D01*
X54350180Y-73389590D01*
X54474159Y-73513569D01*
X54623375Y-73605606D01*
X54789806Y-73660756D01*
X54892513Y-73671249D01*
X54942500Y-73671248D01*
X54942500Y-72696251D01*
X54942499Y-72696250D01*
X54192502Y-72696250D01*
X54192501Y-72696251D01*
X53836750Y-72696251D01*
X53836750Y-71921262D01*
X54192500Y-71921262D01*
X54192500Y-72196249D01*
X54192501Y-72196250D01*
X54942499Y-72196250D01*
X54942500Y-72196249D01*
X54942500Y-71221251D01*
X55442500Y-71221251D01*
X55442500Y-73671248D01*
X55442501Y-73671249D01*
X55492486Y-73671249D01*
X55595187Y-73660757D01*
X55595199Y-73660754D01*
X55761624Y-73605606D01*
X55910840Y-73513569D01*
X55927996Y-73496414D01*
X55982513Y-73468637D01*
X56042945Y-73478208D01*
X56086210Y-73521473D01*
X56097000Y-73566418D01*
X56097000Y-75287265D01*
X56097682Y-75309273D01*
X56097683Y-75309288D01*
X56124062Y-75423298D01*
X56124063Y-75423300D01*
X56138410Y-75457937D01*
X56157761Y-75497520D01*
X56203112Y-75553368D01*
X56231533Y-75588366D01*
X56330805Y-75650336D01*
X56365453Y-75664688D01*
X56386069Y-75672488D01*
X56386082Y-75672490D01*
X56386110Y-75672498D01*
X56386129Y-75672510D01*
X56390618Y-75674209D01*
X56390245Y-75675193D01*
X56437370Y-75705906D01*
X56459204Y-75763063D01*
X56443271Y-75822138D01*
X56420151Y-75846966D01*
X56345833Y-75903323D01*
X56345825Y-75903331D01*
X56254390Y-76023906D01*
X56254387Y-76023910D01*
X56198873Y-76164684D01*
X56188250Y-76253143D01*
X56188250Y-76739356D01*
X56198873Y-76827815D01*
X56254387Y-76968589D01*
X56254388Y-76968591D01*
X56254389Y-76968592D01*
X56345828Y-77089172D01*
X56345832Y-77089175D01*
X56355346Y-77096390D01*
X56390288Y-77146616D01*
X56389034Y-77207789D01*
X56352063Y-77256541D01*
X56317842Y-77271725D01*
X56226701Y-77292812D01*
X56226699Y-77292813D01*
X56192062Y-77307160D01*
X56152479Y-77326511D01*
X56090535Y-77376813D01*
X56033444Y-77398817D01*
X55974322Y-77383062D01*
X55958124Y-77369964D01*
X55922090Y-77333930D01*
X55772874Y-77241893D01*
X55606443Y-77186743D01*
X55503737Y-77176250D01*
X55453751Y-77176250D01*
X55453750Y-77176251D01*
X55453750Y-79626248D01*
X55453751Y-79626249D01*
X55503736Y-79626249D01*
X55606437Y-79615757D01*
X55606449Y-79615754D01*
X55772875Y-79560606D01*
X55807277Y-79539387D01*
X55866730Y-79524930D01*
X55923326Y-79548180D01*
X55955447Y-79600255D01*
X55958250Y-79623647D01*
X55958250Y-81332265D01*
X55958932Y-81354273D01*
X55958933Y-81354288D01*
X55985312Y-81468298D01*
X55985313Y-81468300D01*
X55999660Y-81502937D01*
X56019011Y-81542520D01*
X56069875Y-81605157D01*
X56092783Y-81633366D01*
X56192055Y-81695336D01*
X56226703Y-81709688D01*
X56247319Y-81717488D01*
X56362750Y-81736750D01*
X56430339Y-81736750D01*
X56488530Y-81755657D01*
X56524494Y-81805157D01*
X56524494Y-81866343D01*
X56488530Y-81915843D01*
X56466661Y-81927845D01*
X56456408Y-81931889D01*
X56456407Y-81931889D01*
X56456406Y-81931890D01*
X56335831Y-82023325D01*
X56335825Y-82023331D01*
X56244390Y-82143906D01*
X56244387Y-82143910D01*
X56188873Y-82284684D01*
X56178250Y-82373143D01*
X56178250Y-82859356D01*
X56188873Y-82947815D01*
X56244387Y-83088589D01*
X56244388Y-83088591D01*
X56244389Y-83088592D01*
X56335828Y-83209172D01*
X56456408Y-83300611D01*
X56456409Y-83300611D01*
X56456410Y-83300612D01*
X56526797Y-83328369D01*
X56597186Y-83356127D01*
X56685648Y-83366750D01*
X56685650Y-83366750D01*
X57321850Y-83366750D01*
X57321852Y-83366750D01*
X57410314Y-83356127D01*
X57551092Y-83300611D01*
X57610789Y-83255341D01*
X57629878Y-83240866D01*
X57687669Y-83220771D01*
X57689697Y-83220750D01*
X58005663Y-83220750D01*
X58040259Y-83226992D01*
X58116261Y-83255339D01*
X58116262Y-83255339D01*
X58116267Y-83255341D01*
X58175877Y-83261750D01*
X59296622Y-83261749D01*
X59356233Y-83255341D01*
X59448920Y-83220771D01*
X59491079Y-83205047D01*
X59491079Y-83205046D01*
X59491081Y-83205046D01*
X59606296Y-83118796D01*
X59692546Y-83003581D01*
X59742841Y-82868733D01*
X59749250Y-82809123D01*
X59749249Y-82413379D01*
X59998250Y-82413379D01*
X59998250Y-82809116D01*
X59998251Y-82809120D01*
X60004658Y-82868730D01*
X60004659Y-82868735D01*
X60054952Y-83003579D01*
X60118591Y-83088589D01*
X60141204Y-83118796D01*
X60141207Y-83118798D01*
X60141208Y-83118799D01*
X60256420Y-83205047D01*
X60391261Y-83255339D01*
X60391262Y-83255339D01*
X60391267Y-83255341D01*
X60450877Y-83261750D01*
X61571622Y-83261749D01*
X61631233Y-83255341D01*
X61723920Y-83220771D01*
X61766079Y-83205047D01*
X61766079Y-83205046D01*
X61766081Y-83205046D01*
X61881296Y-83118796D01*
X61967546Y-83003581D01*
X62017841Y-82868733D01*
X62024250Y-82809123D01*
X62024249Y-82413378D01*
X62017841Y-82353767D01*
X62008191Y-82327893D01*
X61967547Y-82218920D01*
X61881299Y-82103708D01*
X61881298Y-82103707D01*
X61881296Y-82103704D01*
X61881291Y-82103700D01*
X61766079Y-82017452D01*
X61631238Y-81967160D01*
X61631233Y-81967159D01*
X61631231Y-81967158D01*
X61631227Y-81967158D01*
X61599999Y-81963800D01*
X61571623Y-81960750D01*
X61571620Y-81960750D01*
X60450883Y-81960750D01*
X60450879Y-81960750D01*
X60450878Y-81960751D01*
X60443699Y-81961522D01*
X60391269Y-81967158D01*
X60391264Y-81967159D01*
X60256420Y-82017452D01*
X60141208Y-82103700D01*
X60141200Y-82103708D01*
X60054952Y-82218920D01*
X60004660Y-82353761D01*
X60004658Y-82353772D01*
X59998250Y-82413379D01*
X59749249Y-82413379D01*
X59749249Y-82413378D01*
X59742841Y-82353767D01*
X59733191Y-82327893D01*
X59730571Y-82266764D01*
X59755948Y-82223290D01*
X59766431Y-82212806D01*
X59766434Y-82212803D01*
X59850031Y-82071447D01*
X59895848Y-81913743D01*
X59895850Y-81913736D01*
X59896046Y-81911250D01*
X58835250Y-81911250D01*
X58777059Y-81892343D01*
X58741095Y-81842843D01*
X58736250Y-81812250D01*
X58736250Y-81510250D01*
X58755157Y-81452059D01*
X58804657Y-81416095D01*
X58835250Y-81411250D01*
X59896046Y-81411250D01*
X59908355Y-81397935D01*
X59961739Y-81368039D01*
X60022500Y-81375231D01*
X60057904Y-81402729D01*
X60064823Y-81411250D01*
X60082783Y-81433366D01*
X60182055Y-81495336D01*
X60216703Y-81509688D01*
X60237319Y-81517488D01*
X60352750Y-81536750D01*
X62676474Y-81536750D01*
X62734665Y-81555657D01*
X62770629Y-81605157D01*
X62770629Y-81666343D01*
X62755358Y-81695569D01*
X62724390Y-81736406D01*
X62724387Y-81736410D01*
X62668873Y-81877184D01*
X62658250Y-81965643D01*
X62658250Y-82451856D01*
X62668873Y-82540315D01*
X62724387Y-82681089D01*
X62724388Y-82681091D01*
X62724389Y-82681092D01*
X62815828Y-82801672D01*
X62825652Y-82809122D01*
X62840069Y-82820054D01*
X62875011Y-82870280D01*
X62879250Y-82898938D01*
X62879250Y-83574166D01*
X62879250Y-83733334D01*
X62920446Y-83887078D01*
X63000030Y-84024922D01*
X63112578Y-84137470D01*
X63250422Y-84217054D01*
X63404166Y-84258250D01*
X63404167Y-84258250D01*
X63563333Y-84258250D01*
X63563334Y-84258250D01*
X63717078Y-84217054D01*
X63854922Y-84137470D01*
X63967470Y-84024922D01*
X64047054Y-83887078D01*
X64088250Y-83733334D01*
X64088250Y-83574166D01*
X64088250Y-82898938D01*
X64107157Y-82840747D01*
X64127431Y-82820054D01*
X64151672Y-82801672D01*
X64243111Y-82681092D01*
X64298627Y-82540314D01*
X64309250Y-82451852D01*
X64309250Y-81965648D01*
X64298627Y-81877186D01*
X64243111Y-81736408D01*
X64212142Y-81695569D01*
X64192047Y-81637778D01*
X64209758Y-81579212D01*
X64258511Y-81542242D01*
X64291026Y-81536750D01*
X68144750Y-81536750D01*
X68202941Y-81555657D01*
X68238905Y-81605157D01*
X68243750Y-81635750D01*
X68243750Y-81714074D01*
X68243749Y-81714074D01*
X68250151Y-81773620D01*
X68250153Y-81773631D01*
X68300396Y-81908338D01*
X68300397Y-81908340D01*
X68386557Y-82023434D01*
X68386565Y-82023442D01*
X68501659Y-82109602D01*
X68501661Y-82109603D01*
X68636368Y-82159846D01*
X68636379Y-82159848D01*
X68695926Y-82166250D01*
X68997313Y-82166250D01*
X69055504Y-82185157D01*
X69090072Y-82230655D01*
X69100397Y-82258341D01*
X69186557Y-82373434D01*
X69186565Y-82373442D01*
X69301659Y-82459602D01*
X69301661Y-82459603D01*
X69436368Y-82509846D01*
X69436379Y-82509848D01*
X69495926Y-82516250D01*
X70018749Y-82516250D01*
X70018750Y-82516249D01*
X70018750Y-82016251D01*
X70368750Y-82016251D01*
X70368750Y-82516249D01*
X70368751Y-82516250D01*
X70891574Y-82516250D01*
X70951120Y-82509848D01*
X70951131Y-82509846D01*
X71085838Y-82459603D01*
X71085840Y-82459602D01*
X71200934Y-82373442D01*
X71200942Y-82373434D01*
X71287102Y-82258340D01*
X71287103Y-82258338D01*
X71337346Y-82123631D01*
X71337348Y-82123620D01*
X71343750Y-82064074D01*
X84243749Y-82064074D01*
X84250151Y-82123620D01*
X84250153Y-82123631D01*
X84300396Y-82258338D01*
X84300397Y-82258340D01*
X84386557Y-82373434D01*
X84386565Y-82373442D01*
X84501659Y-82459602D01*
X84501661Y-82459603D01*
X84636368Y-82509846D01*
X84636379Y-82509848D01*
X84695926Y-82516250D01*
X85218749Y-82516250D01*
X85218750Y-82516249D01*
X85218750Y-82016251D01*
X85218749Y-82016250D01*
X84243751Y-82016250D01*
X84243750Y-82016251D01*
X84243750Y-82064074D01*
X84243749Y-82064074D01*
X71343750Y-82064074D01*
X71343750Y-82016251D01*
X71343749Y-82016250D01*
X70368751Y-82016250D01*
X70368750Y-82016251D01*
X70018750Y-82016251D01*
X70018750Y-81940250D01*
X70037657Y-81882059D01*
X70087157Y-81846095D01*
X70117750Y-81841250D01*
X70193749Y-81841250D01*
X70193750Y-81841249D01*
X70193750Y-81765250D01*
X70212657Y-81707059D01*
X70262157Y-81671095D01*
X70292750Y-81666250D01*
X71343749Y-81666250D01*
X71343750Y-81666249D01*
X71343750Y-81116251D01*
X84243750Y-81116251D01*
X84243750Y-81666249D01*
X84243751Y-81666250D01*
X85294750Y-81666250D01*
X85352941Y-81685157D01*
X85388905Y-81734657D01*
X85393750Y-81765250D01*
X85393750Y-81841249D01*
X85393751Y-81841250D01*
X85469750Y-81841250D01*
X85527941Y-81860157D01*
X85563905Y-81909657D01*
X85568750Y-81940250D01*
X85568750Y-82516249D01*
X85568751Y-82516250D01*
X86091574Y-82516250D01*
X86151120Y-82509848D01*
X86151131Y-82509846D01*
X86285838Y-82459603D01*
X86285840Y-82459602D01*
X86400934Y-82373442D01*
X86400942Y-82373434D01*
X86487102Y-82258341D01*
X86497428Y-82230655D01*
X86535478Y-82182740D01*
X86590187Y-82166250D01*
X86891574Y-82166250D01*
X86951120Y-82159848D01*
X86951131Y-82159846D01*
X87085838Y-82109603D01*
X87085840Y-82109602D01*
X87200934Y-82023442D01*
X87200942Y-82023434D01*
X87287102Y-81908340D01*
X87287103Y-81908338D01*
X87337346Y-81773631D01*
X87337348Y-81773620D01*
X87343750Y-81714074D01*
X87343750Y-81116251D01*
X87343749Y-81116250D01*
X84243751Y-81116250D01*
X84243750Y-81116251D01*
X71343750Y-81116251D01*
X71343749Y-81116250D01*
X69892750Y-81116250D01*
X69834559Y-81097343D01*
X69798595Y-81047843D01*
X69793750Y-81017250D01*
X69793750Y-80866251D01*
X69793749Y-80866250D01*
X69642750Y-80866250D01*
X69584559Y-80847343D01*
X69548595Y-80797843D01*
X69543750Y-80767250D01*
X69543750Y-79566251D01*
X70043750Y-79566251D01*
X70043750Y-80616249D01*
X70043751Y-80616250D01*
X71350195Y-80616250D01*
X71408386Y-80635157D01*
X71444350Y-80684657D01*
X71447621Y-80697669D01*
X71448748Y-80703918D01*
X71450398Y-80708340D01*
X71536557Y-80823434D01*
X71536565Y-80823442D01*
X71651659Y-80909602D01*
X71651661Y-80909603D01*
X71786368Y-80959846D01*
X71786379Y-80959848D01*
X71845926Y-80966250D01*
X71893749Y-80966250D01*
X71893750Y-80966249D01*
X71893750Y-80669450D01*
X71912657Y-80611259D01*
X71962157Y-80575295D01*
X72023343Y-80575295D01*
X72071414Y-80609342D01*
X72077377Y-80617146D01*
X72104552Y-80672733D01*
X72169413Y-80737594D01*
X72173414Y-80742830D01*
X72181487Y-80765775D01*
X72192531Y-80787451D01*
X72193515Y-80799964D01*
X72193721Y-80800547D01*
X72193595Y-80800969D01*
X72193750Y-80802938D01*
X72193750Y-80966249D01*
X72193751Y-80966250D01*
X72241574Y-80966250D01*
X72301120Y-80959848D01*
X72301131Y-80959846D01*
X72435836Y-80909604D01*
X72484421Y-80873234D01*
X72542335Y-80853497D01*
X72600790Y-80871571D01*
X72603079Y-80873234D01*
X72651663Y-80909604D01*
X72651662Y-80909604D01*
X72786368Y-80959846D01*
X72786379Y-80959848D01*
X72845926Y-80966250D01*
X72893749Y-80966250D01*
X72893750Y-80966249D01*
X72893750Y-80802938D01*
X72896218Y-80795340D01*
X72894969Y-80787451D01*
X72905493Y-80766795D01*
X72912657Y-80744747D01*
X72922740Y-80732940D01*
X72973748Y-80681932D01*
X73028263Y-80654157D01*
X73088695Y-80663728D01*
X73113750Y-80681931D01*
X73164755Y-80732936D01*
X73192531Y-80787451D01*
X73193750Y-80802938D01*
X73193750Y-80966249D01*
X73193751Y-80966250D01*
X73241574Y-80966250D01*
X73301120Y-80959848D01*
X73301131Y-80959846D01*
X73435838Y-80909603D01*
X73435840Y-80909602D01*
X73533497Y-80836497D01*
X73591412Y-80816760D01*
X73592826Y-80816750D01*
X73727010Y-80816750D01*
X73779476Y-80809105D01*
X73808024Y-80809105D01*
X73860490Y-80816750D01*
X73994674Y-80816750D01*
X74052865Y-80835657D01*
X74054003Y-80836497D01*
X74151659Y-80909602D01*
X74151661Y-80909603D01*
X74286368Y-80959846D01*
X74286379Y-80959848D01*
X74345926Y-80966250D01*
X74393749Y-80966250D01*
X74393750Y-80966249D01*
X74393750Y-80802938D01*
X74396218Y-80795340D01*
X74394969Y-80787451D01*
X74405493Y-80766795D01*
X74412657Y-80744747D01*
X74422740Y-80732940D01*
X74473748Y-80681932D01*
X74528263Y-80654157D01*
X74588695Y-80663728D01*
X74613750Y-80681931D01*
X74664755Y-80732936D01*
X74692531Y-80787451D01*
X74693750Y-80802938D01*
X74693750Y-80966249D01*
X74693751Y-80966250D01*
X74741574Y-80966250D01*
X74801120Y-80959848D01*
X74801131Y-80959846D01*
X74935838Y-80909603D01*
X74935840Y-80909602D01*
X75033497Y-80836497D01*
X75091412Y-80816760D01*
X75092826Y-80816750D01*
X75227010Y-80816750D01*
X75279476Y-80809105D01*
X75308024Y-80809105D01*
X75360490Y-80816750D01*
X75494674Y-80816750D01*
X75552865Y-80835657D01*
X75554003Y-80836497D01*
X75651659Y-80909602D01*
X75651661Y-80909603D01*
X75786368Y-80959846D01*
X75786379Y-80959848D01*
X75845926Y-80966250D01*
X75893749Y-80966250D01*
X75893750Y-80966249D01*
X75893750Y-80802938D01*
X75896218Y-80795340D01*
X75894969Y-80787451D01*
X75905493Y-80766795D01*
X75912657Y-80744747D01*
X75922740Y-80732940D01*
X75973748Y-80681932D01*
X76028263Y-80654157D01*
X76088695Y-80663728D01*
X76113750Y-80681931D01*
X76164755Y-80732936D01*
X76192531Y-80787451D01*
X76193750Y-80802938D01*
X76193750Y-80966249D01*
X76193751Y-80966250D01*
X76241574Y-80966250D01*
X76301120Y-80959848D01*
X76301131Y-80959846D01*
X76435838Y-80909603D01*
X76435840Y-80909602D01*
X76533497Y-80836497D01*
X76591412Y-80816760D01*
X76592826Y-80816750D01*
X76727010Y-80816750D01*
X76779476Y-80809105D01*
X76808024Y-80809105D01*
X76860490Y-80816750D01*
X76994674Y-80816750D01*
X77052865Y-80835657D01*
X77054003Y-80836497D01*
X77151659Y-80909602D01*
X77151661Y-80909603D01*
X77286368Y-80959846D01*
X77286379Y-80959848D01*
X77345926Y-80966250D01*
X77393749Y-80966250D01*
X77393750Y-80966249D01*
X77393750Y-80802938D01*
X77396218Y-80795340D01*
X77394969Y-80787451D01*
X77405493Y-80766795D01*
X77412657Y-80744747D01*
X77422740Y-80732940D01*
X77473748Y-80681932D01*
X77528263Y-80654157D01*
X77588695Y-80663728D01*
X77613750Y-80681931D01*
X77664755Y-80732936D01*
X77692531Y-80787451D01*
X77693750Y-80802938D01*
X77693750Y-80966249D01*
X77693751Y-80966250D01*
X77741574Y-80966250D01*
X77801120Y-80959848D01*
X77801131Y-80959846D01*
X77935836Y-80909604D01*
X77984421Y-80873234D01*
X78042335Y-80853497D01*
X78100790Y-80871571D01*
X78103079Y-80873234D01*
X78151663Y-80909604D01*
X78151662Y-80909604D01*
X78286368Y-80959846D01*
X78286379Y-80959848D01*
X78345926Y-80966250D01*
X78393749Y-80966250D01*
X78393750Y-80966249D01*
X78393750Y-80802938D01*
X78396218Y-80795340D01*
X78394969Y-80787451D01*
X78405493Y-80766795D01*
X78412657Y-80744747D01*
X78422740Y-80732940D01*
X78473748Y-80681932D01*
X78528263Y-80654157D01*
X78588695Y-80663728D01*
X78613750Y-80681931D01*
X78664755Y-80732936D01*
X78692531Y-80787451D01*
X78693750Y-80802938D01*
X78693750Y-80966249D01*
X78693751Y-80966250D01*
X78741574Y-80966250D01*
X78801120Y-80959848D01*
X78801131Y-80959846D01*
X78935838Y-80909603D01*
X78935840Y-80909602D01*
X79033497Y-80836497D01*
X79091412Y-80816760D01*
X79092826Y-80816750D01*
X79227010Y-80816750D01*
X79279476Y-80809105D01*
X79308024Y-80809105D01*
X79360490Y-80816750D01*
X79727010Y-80816750D01*
X79779476Y-80809105D01*
X79808024Y-80809105D01*
X79860490Y-80816750D01*
X79994674Y-80816750D01*
X80052865Y-80835657D01*
X80054003Y-80836497D01*
X80151659Y-80909602D01*
X80151661Y-80909603D01*
X80286368Y-80959846D01*
X80286379Y-80959848D01*
X80345926Y-80966250D01*
X80393749Y-80966250D01*
X80393750Y-80966249D01*
X80393750Y-80802938D01*
X80396218Y-80795340D01*
X80394969Y-80787451D01*
X80405493Y-80766795D01*
X80412657Y-80744747D01*
X80422740Y-80732940D01*
X80473748Y-80681932D01*
X80528263Y-80654157D01*
X80588695Y-80663728D01*
X80613750Y-80681931D01*
X80664755Y-80732936D01*
X80692531Y-80787451D01*
X80693750Y-80802938D01*
X80693750Y-80966249D01*
X80693751Y-80966250D01*
X80741574Y-80966250D01*
X80801120Y-80959848D01*
X80801131Y-80959846D01*
X80935838Y-80909603D01*
X80935840Y-80909602D01*
X81033497Y-80836497D01*
X81091412Y-80816760D01*
X81092826Y-80816750D01*
X81227010Y-80816750D01*
X81279476Y-80809105D01*
X81308024Y-80809105D01*
X81360490Y-80816750D01*
X81494674Y-80816750D01*
X81552865Y-80835657D01*
X81554003Y-80836497D01*
X81651659Y-80909602D01*
X81651661Y-80909603D01*
X81786368Y-80959846D01*
X81786379Y-80959848D01*
X81845926Y-80966250D01*
X81893749Y-80966250D01*
X81893750Y-80966249D01*
X81893750Y-80802938D01*
X81894137Y-80801746D01*
X81893779Y-80800547D01*
X81896874Y-80793321D01*
X81912657Y-80744747D01*
X81914086Y-80742830D01*
X81918086Y-80737594D01*
X81982948Y-80672733D01*
X82010122Y-80617146D01*
X82016086Y-80609342D01*
X82033577Y-80597268D01*
X82048353Y-80581996D01*
X82058205Y-80580267D01*
X82066440Y-80574584D01*
X82087685Y-80575097D01*
X82108618Y-80571426D01*
X82117606Y-80575820D01*
X82127608Y-80576062D01*
X82144494Y-80588964D01*
X82163587Y-80598299D01*
X82168275Y-80607136D01*
X82176225Y-80613211D01*
X82182301Y-80633573D01*
X82192262Y-80652348D01*
X82193750Y-80669450D01*
X82193750Y-80966249D01*
X82193751Y-80966250D01*
X82241574Y-80966250D01*
X82283166Y-80961778D01*
X82304334Y-80961778D01*
X82345926Y-80966250D01*
X82393749Y-80966250D01*
X82393750Y-80966249D01*
X82393750Y-80669450D01*
X82412657Y-80611259D01*
X82462157Y-80575295D01*
X82523343Y-80575295D01*
X82571414Y-80609342D01*
X82577377Y-80617146D01*
X82604552Y-80672733D01*
X82669413Y-80737594D01*
X82673414Y-80742830D01*
X82681487Y-80765775D01*
X82692531Y-80787451D01*
X82693515Y-80799964D01*
X82693721Y-80800547D01*
X82693595Y-80800969D01*
X82693750Y-80802938D01*
X82693750Y-80966249D01*
X82693751Y-80966250D01*
X82741574Y-80966250D01*
X82801120Y-80959848D01*
X82801131Y-80959846D01*
X82935838Y-80909603D01*
X82935840Y-80909602D01*
X83033497Y-80836497D01*
X83091412Y-80816760D01*
X83092826Y-80816750D01*
X83227010Y-80816750D01*
X83279476Y-80809105D01*
X83308024Y-80809105D01*
X83360490Y-80816750D01*
X83727007Y-80816750D01*
X83727010Y-80816750D01*
X83795143Y-80806823D01*
X83900233Y-80755448D01*
X83982948Y-80672733D01*
X84034323Y-80567643D01*
X84044250Y-80499510D01*
X84044250Y-80018425D01*
X84243750Y-80018425D01*
X84243750Y-80616249D01*
X84243751Y-80616250D01*
X85543749Y-80616250D01*
X85543750Y-80616249D01*
X85543750Y-79566251D01*
X86043750Y-79566251D01*
X86043750Y-80616249D01*
X86043751Y-80616250D01*
X87343749Y-80616250D01*
X87343750Y-80616249D01*
X87343750Y-80018425D01*
X87337348Y-79958879D01*
X87337346Y-79958868D01*
X87287103Y-79824161D01*
X87287102Y-79824159D01*
X87200942Y-79709065D01*
X87200934Y-79709057D01*
X87085840Y-79622897D01*
X87085838Y-79622896D01*
X86951131Y-79572653D01*
X86951120Y-79572651D01*
X86891574Y-79566250D01*
X86043751Y-79566250D01*
X86043750Y-79566251D01*
X85543750Y-79566251D01*
X85543749Y-79566250D01*
X84695926Y-79566250D01*
X84636379Y-79572651D01*
X84636368Y-79572653D01*
X84501661Y-79622896D01*
X84501659Y-79622897D01*
X84386565Y-79709057D01*
X84386557Y-79709065D01*
X84300397Y-79824159D01*
X84300396Y-79824161D01*
X84250153Y-79958868D01*
X84250151Y-79958879D01*
X84243750Y-80018425D01*
X84044250Y-80018425D01*
X84044250Y-79332990D01*
X84034323Y-79264857D01*
X84031395Y-79258868D01*
X84004309Y-79203461D01*
X83994250Y-79159981D01*
X83994250Y-78711942D01*
X83991135Y-78700318D01*
X83963549Y-78597364D01*
X83963549Y-78597363D01*
X83963549Y-78597362D01*
X83904242Y-78494640D01*
X83904238Y-78494635D01*
X83817835Y-78408231D01*
X83792212Y-78363851D01*
X83785489Y-78338760D01*
X83766734Y-78268765D01*
X83766732Y-78268761D01*
X83766732Y-78268760D01*
X83694262Y-78143239D01*
X83694260Y-78143237D01*
X83694259Y-78143235D01*
X83591765Y-78040741D01*
X83591762Y-78040739D01*
X83591760Y-78040737D01*
X83466238Y-77968267D01*
X83466239Y-77968267D01*
X83436646Y-77960337D01*
X83326225Y-77930750D01*
X83181275Y-77930750D01*
X83129673Y-77944577D01*
X83041260Y-77968267D01*
X82915739Y-78040737D01*
X82813237Y-78143239D01*
X82740767Y-78268761D01*
X82740765Y-78268765D01*
X82715286Y-78363853D01*
X82689667Y-78408229D01*
X82683261Y-78414635D01*
X82623950Y-78517362D01*
X82623950Y-78517363D01*
X82623951Y-78517364D01*
X82593250Y-78631941D01*
X82593250Y-79159981D01*
X82583190Y-79203461D01*
X82583189Y-79203465D01*
X82581689Y-79206533D01*
X82539144Y-79250505D01*
X82478878Y-79261072D01*
X82423911Y-79234198D01*
X82395238Y-79180147D01*
X82393750Y-79163049D01*
X82393750Y-78866251D01*
X82393749Y-78866250D01*
X82345923Y-78866250D01*
X82304331Y-78870721D01*
X82283169Y-78870721D01*
X82241576Y-78866250D01*
X82193751Y-78866250D01*
X82193750Y-78866251D01*
X82193750Y-79163049D01*
X82191027Y-79171426D01*
X82192262Y-79180147D01*
X82181765Y-79199932D01*
X82174843Y-79221240D01*
X82167716Y-79226417D01*
X82163589Y-79234198D01*
X82143467Y-79244035D01*
X82125343Y-79257204D01*
X82116533Y-79257204D01*
X82108622Y-79261072D01*
X82086562Y-79257204D01*
X82064157Y-79257204D01*
X82057029Y-79252025D01*
X82048356Y-79250505D01*
X82032782Y-79234408D01*
X82014657Y-79221240D01*
X82005811Y-79206533D01*
X82004311Y-79203465D01*
X82004310Y-79203461D01*
X81994250Y-79159981D01*
X81994250Y-78751942D01*
X81983532Y-78711942D01*
X81963549Y-78637364D01*
X81960421Y-78631946D01*
X81960419Y-78631940D01*
X81960419Y-78631941D01*
X81904240Y-78534637D01*
X81847835Y-78478231D01*
X81822212Y-78433851D01*
X81815347Y-78408231D01*
X81796734Y-78338765D01*
X81796732Y-78338761D01*
X81796732Y-78338760D01*
X81724262Y-78213239D01*
X81724260Y-78213237D01*
X81724259Y-78213235D01*
X81621765Y-78110741D01*
X81621762Y-78110739D01*
X81621760Y-78110737D01*
X81496238Y-78038267D01*
X81496239Y-78038267D01*
X81466646Y-78030337D01*
X81356225Y-78000750D01*
X81211275Y-78000750D01*
X81162852Y-78013725D01*
X81071260Y-78038267D01*
X80945739Y-78110737D01*
X80843237Y-78213239D01*
X80770767Y-78338761D01*
X80770765Y-78338765D01*
X80745286Y-78433852D01*
X80724086Y-78473510D01*
X80721941Y-78475954D01*
X80683261Y-78514636D01*
X80674110Y-78530485D01*
X80667676Y-78537821D01*
X80649356Y-78548717D01*
X80633516Y-78562980D01*
X80623632Y-78564018D01*
X80615090Y-78569100D01*
X80593861Y-78567147D01*
X80572666Y-78569375D01*
X80564060Y-78564406D01*
X80554162Y-78563496D01*
X80538136Y-78549438D01*
X80519678Y-78538782D01*
X80515635Y-78529702D01*
X80508164Y-78523149D01*
X80503461Y-78502358D01*
X80494792Y-78482886D01*
X80494250Y-78472539D01*
X80494250Y-72211942D01*
X80490045Y-72196250D01*
X80463549Y-72097364D01*
X80463549Y-72097363D01*
X80463549Y-72097362D01*
X80404242Y-71994640D01*
X80404240Y-71994638D01*
X80404239Y-71994636D01*
X80306484Y-71896881D01*
X80278709Y-71842367D01*
X80288280Y-71781935D01*
X80308482Y-71757653D01*
X80307176Y-71756347D01*
X80311762Y-71751760D01*
X80311765Y-71751759D01*
X80414259Y-71649265D01*
X80414859Y-71648226D01*
X80486732Y-71523739D01*
X80486732Y-71523737D01*
X80486734Y-71523735D01*
X80524250Y-71383725D01*
X80524250Y-71238775D01*
X80486734Y-71098765D01*
X80486732Y-71098762D01*
X80486732Y-71098760D01*
X80414262Y-70973239D01*
X80414260Y-70973237D01*
X80414259Y-70973235D01*
X80311765Y-70870741D01*
X80311762Y-70870739D01*
X80311760Y-70870737D01*
X80186238Y-70798267D01*
X80186234Y-70798265D01*
X80091145Y-70772785D01*
X80046763Y-70747160D01*
X80033244Y-70733640D01*
X80005468Y-70679122D01*
X80004250Y-70663639D01*
X80004250Y-67155517D01*
X80014311Y-67112033D01*
X80015811Y-67108965D01*
X80058356Y-67064993D01*
X80118622Y-67054426D01*
X80173589Y-67081300D01*
X80202262Y-67135351D01*
X80203750Y-67152449D01*
X80203750Y-67449249D01*
X80203751Y-67449250D01*
X80251574Y-67449250D01*
X80293166Y-67444778D01*
X80314334Y-67444778D01*
X80355926Y-67449250D01*
X80403749Y-67449250D01*
X80403750Y-67449249D01*
X80403750Y-67152450D01*
X80422657Y-67094259D01*
X80472157Y-67058295D01*
X80533343Y-67058295D01*
X80581414Y-67092342D01*
X80587377Y-67100146D01*
X80614552Y-67155733D01*
X80679413Y-67220594D01*
X80683414Y-67225830D01*
X80691487Y-67248775D01*
X80702531Y-67270451D01*
X80703515Y-67282964D01*
X80703721Y-67283547D01*
X80703595Y-67283969D01*
X80703750Y-67285938D01*
X80703750Y-67449249D01*
X80703751Y-67449250D01*
X80751574Y-67449250D01*
X80811120Y-67442848D01*
X80811131Y-67442846D01*
X80945838Y-67392603D01*
X80945840Y-67392602D01*
X81043497Y-67319497D01*
X81101412Y-67299760D01*
X81102826Y-67299750D01*
X81237010Y-67299750D01*
X81289476Y-67292105D01*
X81318024Y-67292105D01*
X81370490Y-67299750D01*
X81737007Y-67299750D01*
X81737010Y-67299750D01*
X81805143Y-67289823D01*
X81910233Y-67238448D01*
X81992948Y-67155733D01*
X82044323Y-67050643D01*
X82054250Y-66982510D01*
X82054250Y-66297074D01*
X82253749Y-66297074D01*
X82260151Y-66356620D01*
X82260153Y-66356631D01*
X82310396Y-66491338D01*
X82310397Y-66491340D01*
X82396557Y-66606434D01*
X82396565Y-66606442D01*
X82511659Y-66692602D01*
X82511661Y-66692603D01*
X82646368Y-66742846D01*
X82646379Y-66742848D01*
X82705926Y-66749250D01*
X83553749Y-66749250D01*
X83553750Y-66749249D01*
X83553750Y-65699251D01*
X84053750Y-65699251D01*
X84053750Y-66749249D01*
X84053751Y-66749250D01*
X84901574Y-66749250D01*
X84961120Y-66742848D01*
X84961131Y-66742846D01*
X85095838Y-66692603D01*
X85095840Y-66692602D01*
X85210934Y-66606442D01*
X85210942Y-66606434D01*
X85297102Y-66491340D01*
X85297103Y-66491338D01*
X85347346Y-66356631D01*
X85347348Y-66356620D01*
X85353750Y-66297074D01*
X85353750Y-65699251D01*
X85353749Y-65699250D01*
X84053751Y-65699250D01*
X84053750Y-65699251D01*
X83553750Y-65699251D01*
X83553749Y-65699250D01*
X82253751Y-65699250D01*
X82253750Y-65699251D01*
X82253750Y-66297074D01*
X82253749Y-66297074D01*
X82054250Y-66297074D01*
X82054250Y-65815990D01*
X82044323Y-65747857D01*
X82043965Y-65747125D01*
X82021770Y-65701723D01*
X82014309Y-65686461D01*
X82004250Y-65642981D01*
X82004250Y-65151942D01*
X81973550Y-65037368D01*
X81973549Y-65037364D01*
X81973549Y-65037363D01*
X81914240Y-64934636D01*
X81914237Y-64934633D01*
X81847835Y-64868230D01*
X81822212Y-64823851D01*
X81796734Y-64728765D01*
X81796731Y-64728759D01*
X81755730Y-64657743D01*
X81750827Y-64649251D01*
X82253750Y-64649251D01*
X82253750Y-65199249D01*
X82253751Y-65199250D01*
X85353749Y-65199250D01*
X85353750Y-65199249D01*
X85353750Y-64601425D01*
X85347348Y-64541879D01*
X85347346Y-64541868D01*
X85297103Y-64407161D01*
X85297102Y-64407159D01*
X85210942Y-64292065D01*
X85210934Y-64292057D01*
X85095840Y-64205897D01*
X85095838Y-64205896D01*
X84961131Y-64155653D01*
X84961120Y-64155651D01*
X84901574Y-64149250D01*
X84600187Y-64149250D01*
X84541996Y-64130343D01*
X84507428Y-64084845D01*
X84497102Y-64057158D01*
X84410942Y-63942065D01*
X84410934Y-63942057D01*
X84295840Y-63855897D01*
X84295838Y-63855896D01*
X84161131Y-63805653D01*
X84161120Y-63805651D01*
X84101574Y-63799250D01*
X83578751Y-63799250D01*
X83578750Y-63799251D01*
X83578750Y-64375250D01*
X83559843Y-64433441D01*
X83510343Y-64469405D01*
X83479750Y-64474250D01*
X83403751Y-64474250D01*
X83403750Y-64474251D01*
X83403750Y-64550250D01*
X83384843Y-64608441D01*
X83335343Y-64644405D01*
X83304750Y-64649250D01*
X82253751Y-64649250D01*
X82253750Y-64649251D01*
X81750827Y-64649251D01*
X81724262Y-64603239D01*
X81724260Y-64603237D01*
X81724259Y-64603235D01*
X81621765Y-64500741D01*
X81621762Y-64500739D01*
X81621760Y-64500737D01*
X81496238Y-64428267D01*
X81496239Y-64428267D01*
X81417471Y-64407161D01*
X81356225Y-64390750D01*
X81211275Y-64390750D01*
X81154948Y-64405843D01*
X81071260Y-64428267D01*
X80945739Y-64500737D01*
X80843237Y-64603239D01*
X80770767Y-64728761D01*
X80770765Y-64728765D01*
X80745286Y-64823852D01*
X80719666Y-64868229D01*
X80693260Y-64894635D01*
X80633950Y-64997362D01*
X80633950Y-64997363D01*
X80633951Y-64997364D01*
X80603250Y-65111942D01*
X80603250Y-65642981D01*
X80593190Y-65686461D01*
X80593189Y-65686465D01*
X80591689Y-65689533D01*
X80549144Y-65733505D01*
X80488878Y-65744072D01*
X80433911Y-65717198D01*
X80405238Y-65663147D01*
X80403750Y-65646049D01*
X80403750Y-65349251D01*
X80403749Y-65349250D01*
X80355923Y-65349250D01*
X80314331Y-65353721D01*
X80293169Y-65353721D01*
X80251576Y-65349250D01*
X80203751Y-65349250D01*
X80203750Y-65349251D01*
X80203750Y-65646049D01*
X80184843Y-65704240D01*
X80135343Y-65740204D01*
X80074157Y-65740204D01*
X80026086Y-65706157D01*
X80020120Y-65698350D01*
X79992948Y-65642767D01*
X79928086Y-65577905D01*
X79924086Y-65572670D01*
X79916012Y-65549724D01*
X79904969Y-65528049D01*
X79903984Y-65515535D01*
X79903779Y-65514953D01*
X79903904Y-65514530D01*
X79903750Y-65512562D01*
X79903750Y-65349251D01*
X79903749Y-65349250D01*
X79855926Y-65349250D01*
X79796379Y-65355651D01*
X79796368Y-65355653D01*
X79661662Y-65405895D01*
X79613079Y-65442265D01*
X79555164Y-65462002D01*
X79496709Y-65443928D01*
X79494421Y-65442265D01*
X79445837Y-65405895D01*
X79311131Y-65355653D01*
X79311120Y-65355651D01*
X79251574Y-65349250D01*
X79203751Y-65349250D01*
X79203750Y-65349251D01*
X79203750Y-65512562D01*
X79201281Y-65520159D01*
X79202531Y-65528049D01*
X79192006Y-65548704D01*
X79184843Y-65570753D01*
X79174759Y-65582559D01*
X79123751Y-65633567D01*
X79069237Y-65661343D01*
X79008805Y-65651772D01*
X78983749Y-65633568D01*
X78932744Y-65582563D01*
X78904969Y-65528049D01*
X78903750Y-65512562D01*
X78903750Y-65349251D01*
X78903749Y-65349250D01*
X78855926Y-65349250D01*
X78796379Y-65355651D01*
X78796368Y-65355653D01*
X78661661Y-65405896D01*
X78661659Y-65405897D01*
X78564003Y-65479003D01*
X78506088Y-65498740D01*
X78504674Y-65498750D01*
X78370490Y-65498750D01*
X78318022Y-65506394D01*
X78289478Y-65506394D01*
X78247639Y-65500298D01*
X78237010Y-65498750D01*
X78102826Y-65498750D01*
X78044635Y-65479843D01*
X78043497Y-65479003D01*
X77945840Y-65405897D01*
X77945838Y-65405896D01*
X77811131Y-65355653D01*
X77811120Y-65355651D01*
X77751574Y-65349250D01*
X77703751Y-65349250D01*
X77703750Y-65349251D01*
X77703750Y-65512562D01*
X77701281Y-65520159D01*
X77702531Y-65528049D01*
X77692006Y-65548704D01*
X77684843Y-65570753D01*
X77674759Y-65582559D01*
X77623751Y-65633567D01*
X77569237Y-65661343D01*
X77508805Y-65651772D01*
X77483749Y-65633568D01*
X77432744Y-65582563D01*
X77404969Y-65528049D01*
X77403750Y-65512562D01*
X77403750Y-65349251D01*
X77403749Y-65349250D01*
X77355926Y-65349250D01*
X77296379Y-65355651D01*
X77296368Y-65355653D01*
X77161661Y-65405896D01*
X77161659Y-65405897D01*
X77064003Y-65479003D01*
X77006088Y-65498740D01*
X77004674Y-65498750D01*
X76870490Y-65498750D01*
X76818022Y-65506394D01*
X76789478Y-65506394D01*
X76747639Y-65500298D01*
X76737010Y-65498750D01*
X76602826Y-65498750D01*
X76544635Y-65479843D01*
X76543497Y-65479003D01*
X76445840Y-65405897D01*
X76445838Y-65405896D01*
X76311131Y-65355653D01*
X76311120Y-65355651D01*
X76251574Y-65349250D01*
X76203751Y-65349250D01*
X76203750Y-65349251D01*
X76203750Y-65512562D01*
X76201281Y-65520159D01*
X76202531Y-65528049D01*
X76192006Y-65548704D01*
X76184843Y-65570753D01*
X76174759Y-65582559D01*
X76123751Y-65633567D01*
X76069237Y-65661343D01*
X76008805Y-65651772D01*
X75983749Y-65633568D01*
X75932744Y-65582563D01*
X75904969Y-65528049D01*
X75903750Y-65512562D01*
X75903750Y-65349251D01*
X75903749Y-65349250D01*
X75855926Y-65349250D01*
X75796379Y-65355651D01*
X75796368Y-65355653D01*
X75661661Y-65405896D01*
X75661659Y-65405897D01*
X75564003Y-65479003D01*
X75506088Y-65498740D01*
X75504674Y-65498750D01*
X75370490Y-65498750D01*
X75318022Y-65506394D01*
X75289478Y-65506394D01*
X75247639Y-65500298D01*
X75237010Y-65498750D01*
X75102826Y-65498750D01*
X75044635Y-65479843D01*
X75043497Y-65479003D01*
X74945840Y-65405897D01*
X74945838Y-65405896D01*
X74811131Y-65355653D01*
X74811120Y-65355651D01*
X74751574Y-65349250D01*
X74703751Y-65349250D01*
X74703750Y-65349251D01*
X74703750Y-65512562D01*
X74701281Y-65520159D01*
X74702531Y-65528049D01*
X74692006Y-65548704D01*
X74684843Y-65570753D01*
X74674759Y-65582559D01*
X74623751Y-65633567D01*
X74569237Y-65661343D01*
X74508805Y-65651772D01*
X74483749Y-65633568D01*
X74432744Y-65582563D01*
X74404969Y-65528049D01*
X74403750Y-65512562D01*
X74403750Y-65349251D01*
X74403749Y-65349250D01*
X74355926Y-65349250D01*
X74296379Y-65355651D01*
X74296368Y-65355653D01*
X74161661Y-65405896D01*
X74161659Y-65405897D01*
X74064003Y-65479003D01*
X74006088Y-65498740D01*
X74004674Y-65498750D01*
X73870490Y-65498750D01*
X73818022Y-65506394D01*
X73789478Y-65506394D01*
X73747639Y-65500298D01*
X73737010Y-65498750D01*
X73602826Y-65498750D01*
X73544635Y-65479843D01*
X73543497Y-65479003D01*
X73445840Y-65405897D01*
X73445838Y-65405896D01*
X73311131Y-65355653D01*
X73311120Y-65355651D01*
X73251574Y-65349250D01*
X73203751Y-65349250D01*
X73203750Y-65349251D01*
X73203750Y-65512562D01*
X73201281Y-65520159D01*
X73202531Y-65528049D01*
X73192006Y-65548704D01*
X73184843Y-65570753D01*
X73174759Y-65582559D01*
X73123751Y-65633567D01*
X73069237Y-65661343D01*
X73008805Y-65651772D01*
X72983749Y-65633568D01*
X72932744Y-65582563D01*
X72904969Y-65528049D01*
X72903750Y-65512562D01*
X72903750Y-65349251D01*
X72903749Y-65349250D01*
X72855926Y-65349250D01*
X72796379Y-65355651D01*
X72796368Y-65355653D01*
X72661662Y-65405895D01*
X72613079Y-65442265D01*
X72555164Y-65462002D01*
X72496709Y-65443928D01*
X72494421Y-65442265D01*
X72445837Y-65405895D01*
X72311131Y-65355653D01*
X72311120Y-65355651D01*
X72251574Y-65349250D01*
X72203751Y-65349250D01*
X72203750Y-65349251D01*
X72203750Y-65512562D01*
X72203362Y-65513753D01*
X72203721Y-65514953D01*
X72200625Y-65522178D01*
X72184843Y-65570753D01*
X72183414Y-65572670D01*
X72179413Y-65577905D01*
X72114552Y-65642767D01*
X72087379Y-65698350D01*
X72081414Y-65706157D01*
X72063924Y-65718228D01*
X72049147Y-65733504D01*
X72039291Y-65735232D01*
X72031059Y-65740915D01*
X72009815Y-65740401D01*
X71988881Y-65744073D01*
X71979892Y-65739678D01*
X71969892Y-65739437D01*
X71953006Y-65726534D01*
X71933913Y-65717200D01*
X71929224Y-65708362D01*
X71921275Y-65702288D01*
X71915198Y-65681923D01*
X71905238Y-65663150D01*
X71903750Y-65646049D01*
X71903750Y-65349251D01*
X71903749Y-65349250D01*
X71855926Y-65349250D01*
X71796379Y-65355651D01*
X71796368Y-65355653D01*
X71661661Y-65405896D01*
X71661659Y-65405897D01*
X71546565Y-65492057D01*
X71546557Y-65492065D01*
X71460397Y-65607159D01*
X71458750Y-65611573D01*
X71457622Y-65617830D01*
X71428681Y-65671739D01*
X71373582Y-65698341D01*
X71360195Y-65699250D01*
X70053751Y-65699250D01*
X70053750Y-65699251D01*
X70053750Y-66749249D01*
X70053751Y-66749250D01*
X70901574Y-66749250D01*
X70961120Y-66742848D01*
X70961131Y-66742846D01*
X71095838Y-66692603D01*
X71095840Y-66692602D01*
X71210934Y-66606442D01*
X71210942Y-66606434D01*
X71225497Y-66586992D01*
X71275505Y-66551739D01*
X71336684Y-66552613D01*
X71385666Y-66589280D01*
X71403750Y-66646321D01*
X71403750Y-66997074D01*
X71403749Y-66997074D01*
X71410151Y-67056620D01*
X71410153Y-67056631D01*
X71460396Y-67191338D01*
X71460397Y-67191340D01*
X71546557Y-67306434D01*
X71546565Y-67306442D01*
X71661659Y-67392602D01*
X71661661Y-67392603D01*
X71796368Y-67442846D01*
X71796379Y-67442848D01*
X71855926Y-67449250D01*
X71904296Y-67449250D01*
X71962487Y-67468157D01*
X71998451Y-67517657D01*
X71999922Y-67573874D01*
X71993250Y-67598772D01*
X71993250Y-67598775D01*
X71993250Y-67743725D01*
X72021247Y-67848211D01*
X72030767Y-67883739D01*
X72103237Y-68009260D01*
X72103239Y-68009262D01*
X72103241Y-68009265D01*
X72205735Y-68111759D01*
X72205737Y-68111760D01*
X72205739Y-68111762D01*
X72331261Y-68184232D01*
X72331262Y-68184232D01*
X72331265Y-68184234D01*
X72471275Y-68221750D01*
X72471276Y-68221750D01*
X72616225Y-68221750D01*
X72662251Y-68209417D01*
X72723352Y-68212618D01*
X72770903Y-68251122D01*
X72786739Y-68310223D01*
X72764813Y-68367345D01*
X72757882Y-68375043D01*
X72706533Y-68426395D01*
X72706527Y-68426403D01*
X72627002Y-68545438D01*
X72627000Y-68545442D01*
X72572224Y-68677717D01*
X72544315Y-68818123D01*
X72544314Y-68818140D01*
X72544314Y-68823470D01*
X72544315Y-68828359D01*
X72544314Y-68828364D01*
X72544316Y-68841688D01*
X72544317Y-68848635D01*
X72544247Y-68848850D01*
X72544253Y-68889714D01*
X72544263Y-68952250D01*
X72544264Y-68961285D01*
X72544264Y-68961291D01*
X72556300Y-69021750D01*
X72569917Y-69090157D01*
X72572213Y-69101687D01*
X72627012Y-69233931D01*
X72627013Y-69233933D01*
X72695399Y-69336250D01*
X72706556Y-69352943D01*
X72773265Y-69419637D01*
X72801048Y-69474150D01*
X72791484Y-69534583D01*
X72773276Y-69559649D01*
X72706529Y-69626401D01*
X72706527Y-69626403D01*
X72627002Y-69745438D01*
X72627000Y-69745442D01*
X72572224Y-69877717D01*
X72544315Y-70018123D01*
X72544314Y-70018140D01*
X72544314Y-70023470D01*
X72544315Y-70028359D01*
X72544314Y-70028364D01*
X72544316Y-70041688D01*
X72544317Y-70048635D01*
X72544247Y-70048850D01*
X72544264Y-70161285D01*
X72544264Y-70161291D01*
X72558157Y-70231080D01*
X72569517Y-70288148D01*
X72572213Y-70301687D01*
X72627012Y-70433931D01*
X72627013Y-70433933D01*
X72705424Y-70551250D01*
X72706556Y-70552943D01*
X72773265Y-70619637D01*
X72801048Y-70674150D01*
X72791484Y-70734583D01*
X72773276Y-70759649D01*
X72706529Y-70826401D01*
X72706527Y-70826403D01*
X72627002Y-70945438D01*
X72627000Y-70945442D01*
X72572224Y-71077717D01*
X72544315Y-71218123D01*
X72544314Y-71218140D01*
X72544314Y-71223470D01*
X72544315Y-71228359D01*
X72544314Y-71228364D01*
X72544315Y-71231742D01*
X72544317Y-71248635D01*
X72544247Y-71248850D01*
X72544253Y-71289714D01*
X72544263Y-71355281D01*
X72544264Y-71361285D01*
X72544264Y-71361291D01*
X72548256Y-71381343D01*
X72571788Y-71499555D01*
X72572213Y-71501687D01*
X72594230Y-71554819D01*
X72614288Y-71603226D01*
X72627012Y-71633931D01*
X72627013Y-71633933D01*
X72706553Y-71752939D01*
X72706556Y-71752943D01*
X72773265Y-71819637D01*
X72801048Y-71874150D01*
X72791484Y-71934583D01*
X72773276Y-71959649D01*
X72706529Y-72026401D01*
X72706527Y-72026403D01*
X72627002Y-72145438D01*
X72627000Y-72145442D01*
X72572224Y-72277717D01*
X72544315Y-72418123D01*
X72544314Y-72418140D01*
X72544314Y-72423470D01*
X72544315Y-72428359D01*
X72544314Y-72428364D01*
X72544316Y-72441688D01*
X72544317Y-72448635D01*
X72544247Y-72448850D01*
X72544264Y-72561285D01*
X72544264Y-72561291D01*
X72556216Y-72621330D01*
X72571130Y-72696251D01*
X72572213Y-72701687D01*
X72627012Y-72833931D01*
X72627013Y-72833933D01*
X72706555Y-72952942D01*
X72706556Y-72952943D01*
X72807790Y-73054154D01*
X72926823Y-73133670D01*
X73059082Y-73188438D01*
X73128641Y-73202268D01*
X73157656Y-73208037D01*
X73211042Y-73237929D01*
X73236663Y-73293491D01*
X73237350Y-73305136D01*
X73237350Y-76877536D01*
X73218443Y-76935727D01*
X73196431Y-76955551D01*
X73197383Y-76956791D01*
X73192237Y-76960739D01*
X73089737Y-77063239D01*
X73017267Y-77188760D01*
X72982348Y-77319080D01*
X72979750Y-77328775D01*
X72979750Y-77473725D01*
X72986671Y-77499555D01*
X73017267Y-77613739D01*
X73089737Y-77739260D01*
X73089739Y-77739262D01*
X73089741Y-77739265D01*
X73192235Y-77841759D01*
X73192237Y-77841760D01*
X73196824Y-77846347D01*
X73194959Y-77848211D01*
X73223273Y-77889407D01*
X73227350Y-77917525D01*
X73227350Y-78642127D01*
X73208443Y-78700318D01*
X73158943Y-78736282D01*
X73097757Y-78736282D01*
X73048257Y-78700318D01*
X73042614Y-78691627D01*
X72974262Y-78573239D01*
X72974260Y-78573237D01*
X72974259Y-78573235D01*
X72871765Y-78470741D01*
X72871762Y-78470739D01*
X72871760Y-78470737D01*
X72746238Y-78398267D01*
X72746239Y-78398267D01*
X72617805Y-78363853D01*
X72606225Y-78360750D01*
X72461275Y-78360750D01*
X72449695Y-78363853D01*
X72321260Y-78398267D01*
X72195739Y-78470737D01*
X72093237Y-78573239D01*
X72020767Y-78698760D01*
X72020766Y-78698765D01*
X71999373Y-78778606D01*
X71995550Y-78792873D01*
X71962225Y-78844188D01*
X71905104Y-78866114D01*
X71899923Y-78866250D01*
X71845926Y-78866250D01*
X71786379Y-78872651D01*
X71786368Y-78872653D01*
X71651661Y-78922896D01*
X71651659Y-78922897D01*
X71536565Y-79009057D01*
X71536557Y-79009065D01*
X71450397Y-79124159D01*
X71450396Y-79124161D01*
X71400153Y-79258868D01*
X71400151Y-79258879D01*
X71393750Y-79318425D01*
X71393750Y-79669178D01*
X71374843Y-79727369D01*
X71325343Y-79763333D01*
X71264157Y-79763333D01*
X71215498Y-79728508D01*
X71200943Y-79709066D01*
X71200934Y-79709057D01*
X71085840Y-79622897D01*
X71085838Y-79622896D01*
X70951131Y-79572653D01*
X70951120Y-79572651D01*
X70891574Y-79566250D01*
X70043751Y-79566250D01*
X70043750Y-79566251D01*
X69543750Y-79566251D01*
X69543749Y-79566250D01*
X68948250Y-79566250D01*
X68890059Y-79547343D01*
X68854095Y-79497843D01*
X68849250Y-79467250D01*
X68849250Y-77407290D01*
X68868157Y-77349099D01*
X68917657Y-77313135D01*
X68978843Y-77313135D01*
X68993195Y-77319080D01*
X69132708Y-77390165D01*
X69308599Y-77447315D01*
X69333750Y-77451298D01*
X69333750Y-76616936D01*
X69338144Y-76621330D01*
X69429356Y-76673991D01*
X69531089Y-76701250D01*
X69636411Y-76701250D01*
X69738144Y-76673991D01*
X69829356Y-76621330D01*
X69833750Y-76616936D01*
X69833750Y-77451298D01*
X69858900Y-77447315D01*
X70034791Y-77390165D01*
X70199581Y-77306201D01*
X70349212Y-77197487D01*
X70479987Y-77066712D01*
X70588701Y-76917081D01*
X70672665Y-76752291D01*
X70729817Y-76576395D01*
X70729818Y-76576389D01*
X70733800Y-76551250D01*
X69899436Y-76551250D01*
X69903830Y-76546856D01*
X69956491Y-76455644D01*
X69983750Y-76353911D01*
X69983750Y-76248589D01*
X69956491Y-76146856D01*
X69903830Y-76055644D01*
X69899436Y-76051250D01*
X70733800Y-76051250D01*
X70733800Y-76051249D01*
X70729818Y-76026110D01*
X70729817Y-76026104D01*
X70672665Y-75850208D01*
X70588701Y-75685418D01*
X70479987Y-75535787D01*
X70349209Y-75405009D01*
X70316635Y-75381343D01*
X70280671Y-75331843D01*
X70280670Y-75270658D01*
X70316634Y-75221158D01*
X70316635Y-75221157D01*
X70349209Y-75197490D01*
X70479987Y-75066712D01*
X70588701Y-74917081D01*
X70672665Y-74752291D01*
X70729817Y-74576395D01*
X70729818Y-74576389D01*
X70733800Y-74551250D01*
X69899436Y-74551250D01*
X69903830Y-74546856D01*
X69956491Y-74455644D01*
X69983750Y-74353911D01*
X69983750Y-74248589D01*
X69956491Y-74146856D01*
X69903830Y-74055644D01*
X69899436Y-74051250D01*
X70733800Y-74051250D01*
X70733800Y-74051249D01*
X70729818Y-74026110D01*
X70729817Y-74026104D01*
X70672665Y-73850208D01*
X70588701Y-73685418D01*
X70479987Y-73535787D01*
X70349209Y-73405009D01*
X70316635Y-73381343D01*
X70280671Y-73331843D01*
X70280670Y-73270658D01*
X70316634Y-73221158D01*
X70316635Y-73221157D01*
X70349209Y-73197490D01*
X70479987Y-73066712D01*
X70588701Y-72917081D01*
X70672665Y-72752291D01*
X70729817Y-72576395D01*
X70729818Y-72576389D01*
X70733800Y-72551250D01*
X69899436Y-72551250D01*
X69903830Y-72546856D01*
X69956491Y-72455644D01*
X69983750Y-72353911D01*
X69983750Y-72248589D01*
X69956491Y-72146856D01*
X69903830Y-72055644D01*
X69899436Y-72051250D01*
X70733800Y-72051250D01*
X70733800Y-72051249D01*
X70729818Y-72026110D01*
X70729817Y-72026104D01*
X70672665Y-71850208D01*
X70588701Y-71685418D01*
X70479987Y-71535787D01*
X70349209Y-71405009D01*
X70316635Y-71381343D01*
X70280671Y-71331843D01*
X70280670Y-71270658D01*
X70316634Y-71221158D01*
X70316635Y-71221157D01*
X70349209Y-71197490D01*
X70479987Y-71066712D01*
X70588701Y-70917081D01*
X70672665Y-70752291D01*
X70729817Y-70576395D01*
X70729818Y-70576389D01*
X70733800Y-70551250D01*
X69899436Y-70551250D01*
X69903830Y-70546856D01*
X69956491Y-70455644D01*
X69983750Y-70353911D01*
X69983750Y-70248589D01*
X69956491Y-70146856D01*
X69903830Y-70055644D01*
X69899436Y-70051250D01*
X70733800Y-70051250D01*
X70733800Y-70051249D01*
X70729818Y-70026110D01*
X70729817Y-70026104D01*
X70672665Y-69850208D01*
X70588701Y-69685418D01*
X70479987Y-69535787D01*
X70349212Y-69405012D01*
X70199581Y-69296298D01*
X70034791Y-69212334D01*
X69858895Y-69155182D01*
X69858889Y-69155181D01*
X69833750Y-69151199D01*
X69833750Y-69985564D01*
X69829356Y-69981170D01*
X69738144Y-69928509D01*
X69636411Y-69901250D01*
X69531089Y-69901250D01*
X69429356Y-69928509D01*
X69338144Y-69981170D01*
X69333750Y-69985564D01*
X69333750Y-69151200D01*
X69333749Y-69151199D01*
X69308610Y-69155181D01*
X69308604Y-69155182D01*
X69132708Y-69212334D01*
X68967918Y-69296298D01*
X68818284Y-69405014D01*
X68729914Y-69493384D01*
X68675397Y-69521161D01*
X68614965Y-69511589D01*
X68571701Y-69468325D01*
X68570970Y-69466860D01*
X68570225Y-69465336D01*
X68547948Y-69419767D01*
X68465233Y-69337052D01*
X68463593Y-69336250D01*
X68360141Y-69285676D01*
X68360144Y-69285676D01*
X68318975Y-69279678D01*
X68264119Y-69252578D01*
X68235668Y-69198410D01*
X68234250Y-69181713D01*
X68234250Y-68387182D01*
X68234250Y-68387181D01*
X68209251Y-68261506D01*
X68160215Y-68143123D01*
X68158502Y-68140559D01*
X68089027Y-68036581D01*
X66733246Y-66680800D01*
X66705469Y-66626283D01*
X66704250Y-66610796D01*
X66704250Y-66365439D01*
X66723157Y-66307248D01*
X66724366Y-66305620D01*
X66730847Y-66297074D01*
X68253749Y-66297074D01*
X68260151Y-66356620D01*
X68260153Y-66356631D01*
X68310396Y-66491338D01*
X68310397Y-66491340D01*
X68396557Y-66606434D01*
X68396565Y-66606442D01*
X68511659Y-66692602D01*
X68511661Y-66692603D01*
X68646368Y-66742846D01*
X68646379Y-66742848D01*
X68705926Y-66749250D01*
X69553749Y-66749250D01*
X69553750Y-66749249D01*
X69553750Y-65699251D01*
X69553749Y-65699250D01*
X68253751Y-65699250D01*
X68253750Y-65699251D01*
X68253750Y-66297074D01*
X68253749Y-66297074D01*
X66730847Y-66297074D01*
X66770637Y-66244602D01*
X66813111Y-66188592D01*
X66868627Y-66047814D01*
X66879250Y-65959352D01*
X66879250Y-65473148D01*
X66868627Y-65384686D01*
X66813111Y-65243908D01*
X66721672Y-65123328D01*
X66601092Y-65031889D01*
X66601091Y-65031888D01*
X66601089Y-65031887D01*
X66477999Y-64983347D01*
X66430802Y-64944411D01*
X66415505Y-64885168D01*
X66437951Y-64828249D01*
X66477999Y-64799153D01*
X66601089Y-64750612D01*
X66601088Y-64750612D01*
X66601092Y-64750611D01*
X66721672Y-64659172D01*
X66765463Y-64601425D01*
X68253750Y-64601425D01*
X68253750Y-65199249D01*
X68253751Y-65199250D01*
X71353749Y-65199250D01*
X71353750Y-65199249D01*
X71353750Y-64649251D01*
X71353749Y-64649250D01*
X70302750Y-64649250D01*
X70244559Y-64630343D01*
X70208595Y-64580843D01*
X70203750Y-64550250D01*
X70203750Y-64474251D01*
X70203749Y-64474250D01*
X70127750Y-64474250D01*
X70069559Y-64455343D01*
X70033595Y-64405843D01*
X70028750Y-64375250D01*
X70028750Y-63799251D01*
X70378750Y-63799251D01*
X70378750Y-64299249D01*
X70378751Y-64299250D01*
X71353749Y-64299250D01*
X71353750Y-64299249D01*
X71353750Y-64251425D01*
X82253750Y-64251425D01*
X82253750Y-64299249D01*
X82253751Y-64299250D01*
X83228749Y-64299250D01*
X83228750Y-64299249D01*
X83228750Y-63799251D01*
X83228749Y-63799250D01*
X82705926Y-63799250D01*
X82646379Y-63805651D01*
X82646368Y-63805653D01*
X82511661Y-63855896D01*
X82511659Y-63855897D01*
X82396565Y-63942057D01*
X82396557Y-63942065D01*
X82310397Y-64057159D01*
X82310396Y-64057161D01*
X82260153Y-64191868D01*
X82260151Y-64191879D01*
X82253750Y-64251425D01*
X71353750Y-64251425D01*
X71347348Y-64191879D01*
X71347346Y-64191868D01*
X71297103Y-64057161D01*
X71297102Y-64057159D01*
X71210942Y-63942065D01*
X71210934Y-63942057D01*
X71095840Y-63855897D01*
X71095838Y-63855896D01*
X70961131Y-63805653D01*
X70961120Y-63805651D01*
X70901574Y-63799250D01*
X70378751Y-63799250D01*
X70378750Y-63799251D01*
X70028750Y-63799251D01*
X70028749Y-63799250D01*
X69505926Y-63799250D01*
X69446379Y-63805651D01*
X69446368Y-63805653D01*
X69311661Y-63855896D01*
X69311659Y-63855897D01*
X69196565Y-63942057D01*
X69196557Y-63942065D01*
X69110397Y-64057158D01*
X69100072Y-64084845D01*
X69062022Y-64132760D01*
X69007313Y-64149250D01*
X68705926Y-64149250D01*
X68646379Y-64155651D01*
X68646368Y-64155653D01*
X68511661Y-64205896D01*
X68511659Y-64205897D01*
X68396565Y-64292057D01*
X68396557Y-64292065D01*
X68310397Y-64407159D01*
X68310396Y-64407161D01*
X68260153Y-64541868D01*
X68260151Y-64541879D01*
X68253750Y-64601425D01*
X66765463Y-64601425D01*
X66813111Y-64538592D01*
X66868627Y-64397814D01*
X66879250Y-64309352D01*
X66879250Y-63823148D01*
X66868627Y-63734686D01*
X66813111Y-63593908D01*
X66721672Y-63473328D01*
X66721667Y-63473324D01*
X66721666Y-63473323D01*
X66633930Y-63406790D01*
X66598988Y-63356564D01*
X66594750Y-63327907D01*
X66594750Y-62852213D01*
X66598123Y-62826590D01*
X66604250Y-62803724D01*
X66604250Y-62658775D01*
X66566734Y-62518765D01*
X66566732Y-62518762D01*
X66566732Y-62518760D01*
X66494262Y-62393239D01*
X66494260Y-62393237D01*
X66494259Y-62393235D01*
X66391765Y-62290741D01*
X66391762Y-62290739D01*
X66391760Y-62290737D01*
X66266238Y-62218267D01*
X66266239Y-62218267D01*
X66236646Y-62210337D01*
X66126225Y-62180750D01*
X65981275Y-62180750D01*
X65919540Y-62197291D01*
X65841260Y-62218267D01*
X65715739Y-62290737D01*
X65613237Y-62393239D01*
X65540767Y-62518760D01*
X65503250Y-62658775D01*
X65503250Y-62803724D01*
X65509377Y-62826590D01*
X65512750Y-62852213D01*
X65512750Y-63327907D01*
X65493843Y-63386098D01*
X65473570Y-63406790D01*
X65385833Y-63473323D01*
X65385825Y-63473331D01*
X65294390Y-63593906D01*
X65294387Y-63593910D01*
X65238873Y-63734684D01*
X65228250Y-63823143D01*
X65228250Y-64309356D01*
X65238873Y-64397815D01*
X65294387Y-64538589D01*
X65294388Y-64538591D01*
X65294389Y-64538592D01*
X65385828Y-64659172D01*
X65506408Y-64750611D01*
X65506409Y-64750611D01*
X65506410Y-64750612D01*
X65629500Y-64799153D01*
X65676697Y-64838089D01*
X65691994Y-64897332D01*
X65669548Y-64954251D01*
X65629500Y-64983347D01*
X65506410Y-65031887D01*
X65506406Y-65031890D01*
X65385831Y-65123325D01*
X65385825Y-65123331D01*
X65294390Y-65243906D01*
X65294387Y-65243910D01*
X65238873Y-65384684D01*
X65228250Y-65473143D01*
X65228250Y-65959356D01*
X65238873Y-66047815D01*
X65294387Y-66188589D01*
X65294390Y-66188593D01*
X65383134Y-66305620D01*
X65403229Y-66363411D01*
X65403250Y-66365439D01*
X65403250Y-66985319D01*
X65418016Y-67059551D01*
X65419099Y-67064993D01*
X65428249Y-67110994D01*
X65477284Y-67229376D01*
X65548470Y-67335915D01*
X65548473Y-67335919D01*
X66904255Y-68691701D01*
X66932031Y-68746216D01*
X66933250Y-68761703D01*
X66933250Y-69181713D01*
X66914343Y-69239904D01*
X66864843Y-69275868D01*
X66848525Y-69279678D01*
X66807357Y-69285676D01*
X66702268Y-69337051D01*
X66619551Y-69419768D01*
X66568177Y-69524854D01*
X66568177Y-69524857D01*
X66559653Y-69583366D01*
X66558250Y-69592993D01*
X66558250Y-70936750D01*
X66539343Y-70994941D01*
X66489843Y-71030905D01*
X66459250Y-71035750D01*
X65558250Y-71035750D01*
X65500059Y-71016843D01*
X65464095Y-70967343D01*
X65459250Y-70936750D01*
X65459250Y-67870234D01*
X65458567Y-67848226D01*
X65458567Y-67848218D01*
X65458566Y-67848214D01*
X65458566Y-67848211D01*
X65444438Y-67787151D01*
X65432188Y-67734203D01*
X65417836Y-67699555D01*
X65398489Y-67659980D01*
X65324717Y-67569134D01*
X65272946Y-67536816D01*
X65225447Y-67507165D01*
X65225445Y-67507164D01*
X65215281Y-67502954D01*
X65190797Y-67492812D01*
X65187068Y-67491401D01*
X65170182Y-67485012D01*
X65054750Y-67465750D01*
X62365086Y-67465750D01*
X62306895Y-67446843D01*
X62270931Y-67397343D01*
X62270931Y-67336157D01*
X62275850Y-67325106D01*
X62275803Y-67325087D01*
X62338792Y-67173016D01*
X62338794Y-67173012D01*
X62354250Y-67055611D01*
X62354249Y-66026890D01*
X62338794Y-65909488D01*
X62278286Y-65763409D01*
X62269706Y-65752227D01*
X62249284Y-65694550D01*
X62249250Y-65691962D01*
X62249250Y-65660234D01*
X62248567Y-65638226D01*
X62248567Y-65638218D01*
X62248566Y-65638214D01*
X62248566Y-65638211D01*
X62234438Y-65577151D01*
X62222188Y-65524203D01*
X62207836Y-65489555D01*
X62188489Y-65449980D01*
X62114717Y-65359134D01*
X62098885Y-65349251D01*
X62015447Y-65297165D01*
X62015445Y-65297164D01*
X61980799Y-65282813D01*
X61980797Y-65282812D01*
X61979427Y-65282293D01*
X61960182Y-65275012D01*
X61844750Y-65255750D01*
X60352750Y-65255750D01*
X60352734Y-65255750D01*
X60330726Y-65256432D01*
X60330711Y-65256433D01*
X60216701Y-65282812D01*
X60216699Y-65282813D01*
X60182062Y-65297160D01*
X60142479Y-65316511D01*
X60136191Y-65321618D01*
X60079099Y-65343621D01*
X60042645Y-65338739D01*
X60006450Y-65326745D01*
X60006439Y-65326742D01*
X59903737Y-65316250D01*
X59853751Y-65316250D01*
X59853750Y-65316251D01*
X59853750Y-66442250D01*
X59834843Y-66500441D01*
X59785343Y-66536405D01*
X59754750Y-66541250D01*
X59603751Y-66541250D01*
X59603750Y-66541251D01*
X59603750Y-66692250D01*
X59584843Y-66750441D01*
X59535343Y-66786405D01*
X59504750Y-66791250D01*
X58603752Y-66791250D01*
X58603751Y-66791251D01*
X58603751Y-67066236D01*
X58614242Y-67168937D01*
X58614245Y-67168949D01*
X58652903Y-67285610D01*
X58653259Y-67346794D01*
X58617584Y-67396503D01*
X58559504Y-67415748D01*
X58558928Y-67415750D01*
X58198250Y-67415750D01*
X58140059Y-67396843D01*
X58104095Y-67347343D01*
X58099250Y-67316750D01*
X58099250Y-66016262D01*
X58603750Y-66016262D01*
X58603750Y-66291249D01*
X58603751Y-66291250D01*
X59353749Y-66291250D01*
X59353750Y-66291249D01*
X59353750Y-65316249D01*
X59303765Y-65316250D01*
X59303762Y-65316251D01*
X59201062Y-65326742D01*
X59201050Y-65326745D01*
X59034625Y-65381893D01*
X58885409Y-65473930D01*
X58761430Y-65597909D01*
X58669393Y-65747125D01*
X58614243Y-65913556D01*
X58603750Y-66016262D01*
X58099250Y-66016262D01*
X58099250Y-65620234D01*
X58098567Y-65598226D01*
X58098567Y-65598218D01*
X58098566Y-65598214D01*
X58098566Y-65598211D01*
X58082332Y-65528049D01*
X58072188Y-65484203D01*
X58057836Y-65449555D01*
X58038489Y-65409980D01*
X57964717Y-65319134D01*
X57929524Y-65297165D01*
X57865447Y-65257165D01*
X57865445Y-65257164D01*
X57862031Y-65255750D01*
X57830797Y-65242812D01*
X57829427Y-65242293D01*
X57810182Y-65235012D01*
X57694750Y-65215750D01*
X56512750Y-65215750D01*
X56512734Y-65215750D01*
X56490726Y-65216432D01*
X56490711Y-65216433D01*
X56376701Y-65242812D01*
X56376699Y-65242813D01*
X56342062Y-65257160D01*
X56302479Y-65276511D01*
X56211635Y-65350281D01*
X56211634Y-65350282D01*
X56149665Y-65449552D01*
X56149664Y-65449554D01*
X56135309Y-65484210D01*
X56127512Y-65504817D01*
X56125627Y-65516112D01*
X56097395Y-65570395D01*
X56042649Y-65597717D01*
X55982299Y-65587642D01*
X55957974Y-65569814D01*
X55922090Y-65533930D01*
X55772874Y-65441893D01*
X55606443Y-65386743D01*
X55503737Y-65376250D01*
X55453751Y-65376250D01*
X55453750Y-65376251D01*
X55453750Y-67826248D01*
X55453751Y-67826249D01*
X55503736Y-67826249D01*
X55606437Y-67815757D01*
X55606449Y-67815754D01*
X55772874Y-67760606D01*
X55922090Y-67668569D01*
X55939246Y-67651414D01*
X55993763Y-67623637D01*
X56054195Y-67633208D01*
X56097460Y-67676473D01*
X56108250Y-67721418D01*
X56108250Y-69282265D01*
X56108932Y-69304273D01*
X56108933Y-69304288D01*
X56135312Y-69418298D01*
X56135313Y-69418300D01*
X56149660Y-69452937D01*
X56169011Y-69492520D01*
X56236116Y-69575157D01*
X56242783Y-69583366D01*
X56342055Y-69645336D01*
X56376703Y-69659688D01*
X56397319Y-69667488D01*
X56457232Y-69677485D01*
X56511516Y-69705713D01*
X56538842Y-69760457D01*
X56528771Y-69820808D01*
X56500756Y-69854018D01*
X56389582Y-69938324D01*
X56389575Y-69938331D01*
X56298140Y-70058906D01*
X56298137Y-70058910D01*
X56242623Y-70199684D01*
X56232000Y-70288143D01*
X56232000Y-70774356D01*
X56242623Y-70862815D01*
X56298137Y-71003589D01*
X56298138Y-71003591D01*
X56298139Y-71003592D01*
X56377659Y-71108455D01*
X56397754Y-71166244D01*
X56380043Y-71224810D01*
X56336672Y-71259733D01*
X56330807Y-71262163D01*
X56291229Y-71281511D01*
X56200385Y-71355281D01*
X56200384Y-71355282D01*
X56145952Y-71442479D01*
X56099099Y-71481829D01*
X56038064Y-71486124D01*
X55991968Y-71460058D01*
X55910840Y-71378930D01*
X55761624Y-71286893D01*
X55595193Y-71231743D01*
X55492487Y-71221250D01*
X55442501Y-71221250D01*
X55442500Y-71221251D01*
X54942500Y-71221251D01*
X54942500Y-71221249D01*
X54892515Y-71221250D01*
X54892512Y-71221251D01*
X54789812Y-71231742D01*
X54789800Y-71231745D01*
X54623375Y-71286893D01*
X54474159Y-71378930D01*
X54350180Y-71502909D01*
X54258143Y-71652125D01*
X54202993Y-71818556D01*
X54192500Y-71921262D01*
X53836750Y-71921262D01*
X53836750Y-66851251D01*
X54203751Y-66851251D01*
X54203751Y-67126236D01*
X54214242Y-67228937D01*
X54214245Y-67228949D01*
X54269393Y-67395374D01*
X54361430Y-67544590D01*
X54485409Y-67668569D01*
X54634625Y-67760606D01*
X54801056Y-67815756D01*
X54903763Y-67826249D01*
X54953750Y-67826248D01*
X54953750Y-66851251D01*
X54953749Y-66851250D01*
X54203752Y-66851250D01*
X54203751Y-66851251D01*
X53836750Y-66851251D01*
X53836750Y-66076262D01*
X54203750Y-66076262D01*
X54203750Y-66351249D01*
X54203751Y-66351250D01*
X54953749Y-66351250D01*
X54953750Y-66351249D01*
X54953750Y-65376249D01*
X54903765Y-65376250D01*
X54903762Y-65376251D01*
X54801062Y-65386742D01*
X54801050Y-65386745D01*
X54634625Y-65441893D01*
X54485409Y-65533930D01*
X54361430Y-65657909D01*
X54269393Y-65807125D01*
X54214243Y-65973556D01*
X54203750Y-66076262D01*
X53836750Y-66076262D01*
X53836750Y-60050750D01*
X53855657Y-59992559D01*
X53905157Y-59956595D01*
X53935750Y-59951750D01*
X88754250Y-59951750D01*
X88812441Y-59970657D01*
G37*
G04 #@! TD.AperFunction*
M02*
