%TF.GenerationSoftware,KiCad,Pcbnew,8.0.0-rc1*%
%TF.CreationDate,2025-03-12T12:31:09+03:00*%
%TF.ProjectId,IMX219_V2.0,494d5832-3139-45f5-9632-2e302e6b6963,rev?*%
%TF.SameCoordinates,Original*%
%TF.FileFunction,Legend,Bot*%
%TF.FilePolarity,Positive*%
%FSLAX46Y46*%
G04 Gerber Fmt 4.6, Leading zero omitted, Abs format (unit mm)*
G04 Created by KiCad (PCBNEW 8.0.0-rc1) date 2025-03-12 12:31:09*
%MOMM*%
%LPD*%
G01*
G04 APERTURE LIST*
G04 Aperture macros list*
%AMRoundRect*
0 Rectangle with rounded corners*
0 $1 Rounding radius*
0 $2 $3 $4 $5 $6 $7 $8 $9 X,Y pos of 4 corners*
0 Add a 4 corners polygon primitive as box body*
4,1,4,$2,$3,$4,$5,$6,$7,$8,$9,$2,$3,0*
0 Add four circle primitives for the rounded corners*
1,1,$1+$1,$2,$3*
1,1,$1+$1,$4,$5*
1,1,$1+$1,$6,$7*
1,1,$1+$1,$8,$9*
0 Add four rect primitives between the rounded corners*
20,1,$1+$1,$2,$3,$4,$5,0*
20,1,$1+$1,$4,$5,$6,$7,0*
20,1,$1+$1,$6,$7,$8,$9,0*
20,1,$1+$1,$8,$9,$2,$3,0*%
G04 Aperture macros list end*
%ADD10C,0.200000*%
%ADD11C,0.100000*%
%ADD12C,0.120000*%
%ADD13R,1.200000X1.400000*%
%ADD14C,4.300000*%
%ADD15C,3.600000*%
%ADD16C,0.700000*%
%ADD17R,0.850000X0.850000*%
%ADD18O,0.850000X0.850000*%
%ADD19RoundRect,0.140000X-0.170000X0.140000X-0.170000X-0.140000X0.170000X-0.140000X0.170000X0.140000X0*%
%ADD20RoundRect,0.140000X0.140000X0.170000X-0.140000X0.170000X-0.140000X-0.170000X0.140000X-0.170000X0*%
%ADD21R,0.300000X0.700000*%
%ADD22RoundRect,0.250000X0.250000X0.475000X-0.250000X0.475000X-0.250000X-0.475000X0.250000X-0.475000X0*%
%ADD23R,0.340000X0.700000*%
%ADD24R,0.700000X0.750000*%
%ADD25RoundRect,0.135000X0.185000X-0.135000X0.185000X0.135000X-0.185000X0.135000X-0.185000X-0.135000X0*%
%ADD26RoundRect,0.140000X-0.140000X-0.170000X0.140000X-0.170000X0.140000X0.170000X-0.140000X0.170000X0*%
%ADD27RoundRect,0.135000X-0.135000X-0.185000X0.135000X-0.185000X0.135000X0.185000X-0.135000X0.185000X0*%
%ADD28RoundRect,0.135000X-0.185000X0.135000X-0.185000X-0.135000X0.185000X-0.135000X0.185000X0.135000X0*%
%ADD29R,1.050000X0.600000*%
%ADD30RoundRect,0.150000X0.512500X0.150000X-0.512500X0.150000X-0.512500X-0.150000X0.512500X-0.150000X0*%
%ADD31RoundRect,0.140000X0.170000X-0.140000X0.170000X0.140000X-0.170000X0.140000X-0.170000X-0.140000X0*%
%ADD32RoundRect,0.250000X0.375000X0.850000X-0.375000X0.850000X-0.375000X-0.850000X0.375000X-0.850000X0*%
%ADD33RoundRect,0.150000X0.700000X-0.150000X0.700000X0.150000X-0.700000X0.150000X-0.700000X-0.150000X0*%
%ADD34RoundRect,0.250000X1.100000X-0.250000X1.100000X0.250000X-1.100000X0.250000X-1.100000X-0.250000X0*%
%ADD35R,0.750000X0.700000*%
%ADD36RoundRect,0.225000X0.250000X-0.225000X0.250000X0.225000X-0.250000X0.225000X-0.250000X-0.225000X0*%
G04 APERTURE END LIST*
D10*
X174645000Y-69615000D02*
X174645000Y-68265000D01*
X174645000Y-68265000D02*
X173225000Y-68265000D01*
D11*
X174345000Y-72355000D02*
X171275000Y-72355000D01*
X171275000Y-68575000D01*
X174345000Y-68575000D01*
X174345000Y-72355000D01*
D12*
X175360000Y-80937836D02*
X175360000Y-80722164D01*
X176080000Y-80937836D02*
X176080000Y-80722164D01*
X184722164Y-68480000D02*
X184937836Y-68480000D01*
X184722164Y-69200000D02*
X184937836Y-69200000D01*
D11*
X172622303Y-87636279D02*
X174190000Y-87636279D01*
X174190000Y-90090000D01*
X172622303Y-90090000D01*
X172622303Y-87636279D01*
D12*
X168538748Y-78425000D02*
X169061252Y-78425000D01*
X168538748Y-79895000D02*
X169061252Y-79895000D01*
D11*
X170022303Y-87636279D02*
X171590000Y-87636279D01*
X171590000Y-90090000D01*
X170022303Y-90090000D01*
X170022303Y-87636279D01*
D12*
X183000000Y-76940000D02*
X183000000Y-75390000D01*
X184800000Y-75640000D02*
X184800000Y-76940000D01*
D10*
X168260000Y-76250000D02*
X167660000Y-76250000D01*
D11*
X168400000Y-77440000D02*
X167530000Y-77440000D01*
X167530000Y-75070000D01*
X168400000Y-75070000D01*
X168400000Y-77440000D01*
D12*
X180300000Y-80696359D02*
X180300000Y-81003641D01*
X181060000Y-80696359D02*
X181060000Y-81003641D01*
X183157836Y-82660000D02*
X182942164Y-82660000D01*
X183157836Y-83380000D02*
X182942164Y-83380000D01*
X184722164Y-69510000D02*
X184937836Y-69510000D01*
X184722164Y-70230000D02*
X184937836Y-70230000D01*
X174123641Y-72830000D02*
X173816359Y-72830000D01*
X174123641Y-73590000D02*
X173816359Y-73590000D01*
X182942164Y-83640000D02*
X183157836Y-83640000D01*
X182942164Y-84360000D02*
X183157836Y-84360000D01*
X181300000Y-88633641D02*
X181300000Y-88326359D01*
X182060000Y-88633641D02*
X182060000Y-88326359D01*
X169697836Y-80330000D02*
X169482164Y-80330000D01*
X169697836Y-81050000D02*
X169482164Y-81050000D01*
D11*
X180255000Y-71730000D02*
X180255000Y-71950000D01*
X180265000Y-68930000D02*
X180265000Y-68700000D01*
X180285000Y-70725000D02*
X180285000Y-69895000D01*
X183255000Y-71700000D02*
X183255000Y-71950000D01*
X183255000Y-71950000D02*
X180255000Y-71950000D01*
X183265000Y-68700000D02*
X180265000Y-68700000D01*
X183265000Y-68930000D02*
X183265000Y-68700000D01*
D12*
X171790000Y-74500000D02*
X172590000Y-74500000D01*
X171790000Y-77620000D02*
X172590000Y-77620000D01*
X173390000Y-77620000D02*
X172590000Y-77620000D01*
X174390000Y-74500000D02*
X172590000Y-74500000D01*
X183223641Y-84610000D02*
X182916359Y-84610000D01*
X183223641Y-85370000D02*
X182916359Y-85370000D01*
X183020000Y-73756359D02*
X183020000Y-74063641D01*
X183780000Y-73756359D02*
X183780000Y-74063641D01*
X176360000Y-80722164D02*
X176360000Y-80937836D01*
X177080000Y-80722164D02*
X177080000Y-80937836D01*
X181310000Y-80696359D02*
X181310000Y-81003641D01*
X182070000Y-80696359D02*
X182070000Y-81003641D01*
X172388748Y-78410000D02*
X172911252Y-78410000D01*
X172388748Y-80630000D02*
X172911252Y-80630000D01*
X186390000Y-74140000D02*
X186390000Y-93820000D01*
X190660000Y-72870000D02*
X189210000Y-72870000D01*
X190660000Y-74670000D02*
X190660000Y-72870000D01*
X190660000Y-93290000D02*
X190660000Y-95090000D01*
X190660000Y-95090000D02*
X189210000Y-95090000D01*
X191650000Y-93290000D02*
X190660000Y-93290000D01*
D11*
X175470000Y-71730000D02*
X175470000Y-71950000D01*
X175480000Y-68930000D02*
X175480000Y-68700000D01*
X175500000Y-70725000D02*
X175500000Y-69895000D01*
X178470000Y-71700000D02*
X178470000Y-71950000D01*
X178470000Y-71950000D02*
X175470000Y-71950000D01*
X178480000Y-68700000D02*
X175480000Y-68700000D01*
X178480000Y-68930000D02*
X178480000Y-68700000D01*
D10*
X185395000Y-71470000D02*
X185395000Y-70870000D01*
D11*
X184205000Y-71610000D02*
X186575000Y-71610000D01*
X186575000Y-70740000D01*
X184205000Y-70740000D01*
X184205000Y-71610000D01*
D12*
X178330000Y-80722164D02*
X178330000Y-80937836D01*
X179050000Y-80722164D02*
X179050000Y-80937836D01*
X180300000Y-88633641D02*
X180300000Y-88326359D01*
X181060000Y-88633641D02*
X181060000Y-88326359D01*
X179300000Y-80993641D02*
X179300000Y-80686359D01*
X180060000Y-80993641D02*
X180060000Y-80686359D01*
D11*
X167122303Y-87636276D02*
X168690000Y-87636276D01*
X168690000Y-90089997D01*
X167122303Y-90089997D01*
X167122303Y-87636276D01*
D12*
X177350000Y-80937836D02*
X177350000Y-80722164D01*
X178070000Y-80937836D02*
X178070000Y-80722164D01*
X183223641Y-85610000D02*
X182916359Y-85610000D01*
X183223641Y-86370000D02*
X182916359Y-86370000D01*
X184100000Y-73756359D02*
X184100000Y-74063641D01*
X184860000Y-73756359D02*
X184860000Y-74063641D01*
X169010000Y-76099420D02*
X169010000Y-76380580D01*
X170030000Y-76099420D02*
X170030000Y-76380580D01*
X172143641Y-72830000D02*
X171836359Y-72830000D01*
X172143641Y-73590000D02*
X171836359Y-73590000D01*
%LPC*%
D13*
X171955000Y-69375000D03*
X171955000Y-71575000D03*
X173655000Y-71575000D03*
X173655000Y-69375000D03*
D14*
X168090000Y-97490000D03*
D15*
X179090000Y-94790000D03*
X179090000Y-74790000D03*
D14*
X168090000Y-70490000D03*
D16*
X177710000Y-83630000D03*
X177710000Y-84390000D03*
X177710000Y-85190000D03*
X177710000Y-85950000D03*
X178600000Y-83630000D03*
X178600000Y-84390000D03*
X178600000Y-85190000D03*
X178600000Y-85950000D03*
X179580000Y-83630000D03*
X179580000Y-84390000D03*
X179580000Y-85190000D03*
X179580000Y-85950000D03*
X180470000Y-83630000D03*
X180470000Y-84390000D03*
X180470000Y-85190000D03*
X180470000Y-85950000D03*
D14*
X190090000Y-97490000D03*
X190090000Y-70490000D03*
D17*
X183515000Y-98515000D03*
D18*
X184765000Y-98515000D03*
D19*
X175720000Y-80350000D03*
X175720000Y-81310000D03*
D20*
X185310000Y-68840000D03*
X184350000Y-68840000D03*
D21*
X173690000Y-89490000D03*
X173690000Y-88240000D03*
X173140000Y-88240000D03*
X173140000Y-89490000D03*
D22*
X169750000Y-79160000D03*
X167850000Y-79160000D03*
D21*
X171090000Y-89490000D03*
X171090000Y-88240000D03*
X170540000Y-88240000D03*
X170540000Y-89490000D03*
D23*
X183400000Y-75540000D03*
X183900000Y-75540000D03*
X184400000Y-75540000D03*
X184400000Y-77040000D03*
X183900000Y-77040000D03*
X183400000Y-77040000D03*
D24*
X167960000Y-75525000D03*
X167960000Y-76975000D03*
D25*
X180680000Y-81360000D03*
X180680000Y-80340000D03*
D26*
X182570000Y-83020000D03*
X183530000Y-83020000D03*
D20*
X185310000Y-69870000D03*
X184350000Y-69870000D03*
D27*
X173460000Y-73210000D03*
X174480000Y-73210000D03*
D20*
X183530000Y-84000000D03*
X182570000Y-84000000D03*
D28*
X181680000Y-87970000D03*
X181680000Y-88990000D03*
D26*
X169110000Y-80690000D03*
X170070000Y-80690000D03*
D29*
X183095000Y-69370000D03*
X183105000Y-70320000D03*
X183105000Y-71270000D03*
X180415000Y-71270000D03*
X180395000Y-69370000D03*
D30*
X173727500Y-75110000D03*
X173727500Y-76060000D03*
X173727500Y-77010000D03*
X171452500Y-77010000D03*
X171452500Y-75110000D03*
D27*
X182560000Y-84990000D03*
X183580000Y-84990000D03*
D25*
X183400000Y-74420000D03*
X183400000Y-73400000D03*
D31*
X176720000Y-81310000D03*
X176720000Y-80350000D03*
D25*
X181690000Y-81360000D03*
X181690000Y-80340000D03*
D32*
X173725000Y-79520000D03*
X171575000Y-79520000D03*
D33*
X190800000Y-92730000D03*
X190800000Y-91480000D03*
X190800000Y-90230000D03*
X190800000Y-88980000D03*
X190800000Y-87730000D03*
X190800000Y-86480000D03*
X190800000Y-85230000D03*
X190800000Y-83980000D03*
X190800000Y-82730000D03*
X190800000Y-81480000D03*
X190800000Y-80230000D03*
X190800000Y-78980000D03*
D34*
X187600000Y-94580000D03*
D33*
X190800000Y-77730000D03*
D34*
X187600000Y-73380000D03*
D33*
X190800000Y-76480000D03*
X190800000Y-75230000D03*
D29*
X178310000Y-69370000D03*
X178320000Y-70320000D03*
X178320000Y-71270000D03*
X175630000Y-71270000D03*
X175610000Y-69370000D03*
D35*
X186120000Y-71170000D03*
X184670000Y-71170000D03*
D31*
X178690000Y-81310000D03*
X178690000Y-80350000D03*
D28*
X180680000Y-87970000D03*
X180680000Y-88990000D03*
X179680000Y-80330000D03*
X179680000Y-81350000D03*
D21*
X168190000Y-89489997D03*
X168190000Y-88239997D03*
X167640000Y-88239997D03*
X167640000Y-89489997D03*
D19*
X177710000Y-80350000D03*
X177710000Y-81310000D03*
D27*
X182560000Y-85990000D03*
X183580000Y-85990000D03*
D25*
X184480000Y-74420000D03*
X184480000Y-73400000D03*
D36*
X169520000Y-77015000D03*
X169520000Y-75465000D03*
D27*
X171480000Y-73210000D03*
X172500000Y-73210000D03*
%LPD*%
M02*
