G04 #@! TF.GenerationSoftware,KiCad,Pcbnew,8.0.0-rc1*
G04 #@! TF.CreationDate,2024-10-18T14:45:25+03:00*
G04 #@! TF.ProjectId,Movita_3568_XV_Router_V4.1,4d6f7669-7461-45f3-9335-36385f58565f,REV1*
G04 #@! TF.SameCoordinates,Original*
G04 #@! TF.FileFunction,Paste,Bot*
G04 #@! TF.FilePolarity,Positive*
%FSLAX46Y46*%
G04 Gerber Fmt 4.6, Leading zero omitted, Abs format (unit mm)*
G04 Created by KiCad (PCBNEW 8.0.0-rc1) date 2024-10-18 14:45:25*
%MOMM*%
%LPD*%
G01*
G04 APERTURE LIST*
G04 Aperture macros list*
%AMRoundRect*
0 Rectangle with rounded corners*
0 $1 Rounding radius*
0 $2 $3 $4 $5 $6 $7 $8 $9 X,Y pos of 4 corners*
0 Add a 4 corners polygon primitive as box body*
4,1,4,$2,$3,$4,$5,$6,$7,$8,$9,$2,$3,0*
0 Add four circle primitives for the rounded corners*
1,1,$1+$1,$2,$3*
1,1,$1+$1,$4,$5*
1,1,$1+$1,$6,$7*
1,1,$1+$1,$8,$9*
0 Add four rect primitives between the rounded corners*
20,1,$1+$1,$2,$3,$4,$5,0*
20,1,$1+$1,$4,$5,$6,$7,0*
20,1,$1+$1,$6,$7,$8,$9,0*
20,1,$1+$1,$8,$9,$2,$3,0*%
G04 Aperture macros list end*
%ADD10RoundRect,0.200000X0.275000X-0.200000X0.275000X0.200000X-0.275000X0.200000X-0.275000X-0.200000X0*%
%ADD11R,2.400000X0.900000*%
%ADD12R,1.120000X2.170000*%
%ADD13R,0.850000X0.850000*%
%ADD14RoundRect,0.200000X-0.275000X0.200000X-0.275000X-0.200000X0.275000X-0.200000X0.275000X0.200000X0*%
%ADD15R,1.800000X1.200000*%
%ADD16R,0.700000X1.600000*%
%ADD17R,1.200000X1.400000*%
%ADD18R,1.200000X2.200000*%
%ADD19R,1.600000X1.400000*%
%ADD20R,1.550000X0.300000*%
%ADD21R,2.750000X1.200000*%
G04 APERTURE END LIST*
D10*
X142920000Y-43015000D03*
X142920000Y-41365000D03*
D11*
X176480000Y-99315000D03*
X176480000Y-98035000D03*
X176480000Y-96765000D03*
X175980000Y-95495000D03*
X176480000Y-94225000D03*
X176480000Y-92955000D03*
X176480000Y-91685000D03*
X176480000Y-90415000D03*
X176480000Y-89145000D03*
X176480000Y-87875000D03*
X176480000Y-86605000D03*
X175980000Y-85335000D03*
X176480000Y-84065000D03*
X176480000Y-82795000D03*
X176480000Y-81525000D03*
X176480000Y-113275000D03*
X176480000Y-112005000D03*
X176480000Y-110735000D03*
X176480000Y-109465000D03*
X176480000Y-108195000D03*
X176480000Y-106925000D03*
X176480000Y-105655000D03*
D12*
X149435000Y-30562500D03*
D13*
X149435000Y-33242500D03*
D14*
X163600000Y-41410000D03*
X163600000Y-43060000D03*
D12*
X146625000Y-30562500D03*
D13*
X146625000Y-33242500D03*
D14*
X118590000Y-41395000D03*
X118590000Y-43045000D03*
X115490000Y-41415000D03*
X115490000Y-43065000D03*
X192780000Y-79590000D03*
X192780000Y-81240000D03*
D10*
X168160000Y-43050000D03*
X168160000Y-41400000D03*
D14*
X180260000Y-41450000D03*
X180260000Y-43100000D03*
X133240000Y-41545000D03*
X133240000Y-43195000D03*
D10*
X193280000Y-43130000D03*
X193280000Y-41480000D03*
X162060000Y-43060000D03*
X162060000Y-41410000D03*
X134770000Y-43195000D03*
X134770000Y-41545000D03*
D14*
X194800000Y-41480000D03*
X194800000Y-43130000D03*
X188160000Y-79625000D03*
X188160000Y-81275000D03*
D15*
X129037500Y-42137500D03*
X129037500Y-39237500D03*
D16*
X188580000Y-85130000D03*
X189680000Y-85130000D03*
X190780000Y-85130000D03*
X191880000Y-85130000D03*
X192980000Y-85130000D03*
X194080000Y-85130000D03*
X195180000Y-85130000D03*
X196280000Y-85130000D03*
X197380000Y-85130000D03*
D17*
X198580000Y-85630000D03*
D18*
X198580000Y-95230000D03*
X183080000Y-95230000D03*
D19*
X183980000Y-85630000D03*
D14*
X149055000Y-41355000D03*
X149055000Y-43005000D03*
X109340000Y-41405000D03*
X109340000Y-43055000D03*
X175680000Y-41440000D03*
X175680000Y-43090000D03*
X181820000Y-41450000D03*
X181820000Y-43100000D03*
D12*
X178190000Y-30480000D03*
D13*
X178190000Y-33160000D03*
D14*
X166640000Y-41415000D03*
X166640000Y-43065000D03*
D20*
X200184900Y-153715000D03*
X192634900Y-153465000D03*
X200184900Y-153215000D03*
X192634900Y-152965000D03*
X200184900Y-152715000D03*
X192634900Y-152465000D03*
X200184900Y-152215000D03*
X192634900Y-151965000D03*
X200184900Y-151715000D03*
X192634900Y-151465000D03*
X200184900Y-151215000D03*
X192634900Y-150965000D03*
X200184900Y-150715000D03*
X192634900Y-150465000D03*
X200184900Y-150215000D03*
X192634900Y-149965000D03*
X200184900Y-149715000D03*
X192634900Y-149465000D03*
X200184900Y-149215000D03*
X192634900Y-148965000D03*
X200184900Y-148715000D03*
X192634900Y-148465000D03*
X200184900Y-148215000D03*
X192634900Y-147965000D03*
X200184900Y-147715000D03*
X192634900Y-147465000D03*
X200184900Y-147215000D03*
X192634900Y-146965000D03*
X200184900Y-146715000D03*
X192634900Y-146465000D03*
X200184900Y-146215000D03*
X192634900Y-145965000D03*
X200184900Y-145715000D03*
X192634900Y-145465000D03*
X200184900Y-145215000D03*
X192634900Y-144965000D03*
X200184900Y-144715000D03*
X192634900Y-144465000D03*
X200184900Y-144215000D03*
X192634900Y-143965000D03*
X200184900Y-143715000D03*
X192634900Y-143465000D03*
X200184900Y-143215000D03*
X192634900Y-142965000D03*
X200184900Y-142715000D03*
X192634900Y-142465000D03*
X200184900Y-142215000D03*
X192634900Y-141965000D03*
X200184900Y-141715000D03*
X192634900Y-141465000D03*
X200184900Y-141215000D03*
X192634900Y-140965000D03*
X200184900Y-140715000D03*
X192634900Y-140465000D03*
X200184900Y-140215000D03*
X192634900Y-139965000D03*
X200184900Y-139715000D03*
X192634900Y-139465000D03*
X200184900Y-137215000D03*
X192634900Y-136965000D03*
X200184900Y-136715000D03*
X192634900Y-136465000D03*
X200184900Y-136215000D03*
X192634900Y-135965000D03*
X200184900Y-135715000D03*
X192634900Y-135465000D03*
X200184900Y-135215000D03*
D21*
X199409900Y-154815000D03*
X199409900Y-134115000D03*
D14*
X165120000Y-41410000D03*
X165120000Y-43060000D03*
X191750000Y-41480000D03*
X191750000Y-43130000D03*
X194330000Y-79590000D03*
X194330000Y-81240000D03*
X160540000Y-41400000D03*
X160540000Y-43050000D03*
X195870000Y-79590000D03*
X195870000Y-81240000D03*
X113940000Y-41405000D03*
X113940000Y-43055000D03*
X131710000Y-41530000D03*
X131710000Y-43180000D03*
X104050000Y-41480000D03*
X104050000Y-43130000D03*
X178730000Y-41440000D03*
X178730000Y-43090000D03*
D10*
X145995000Y-43020000D03*
X145995000Y-41370000D03*
X112410000Y-43045000D03*
X112410000Y-41395000D03*
D14*
X189700000Y-79615000D03*
X189700000Y-81265000D03*
X120150000Y-41395000D03*
X120150000Y-43045000D03*
D12*
X109545000Y-30622500D03*
D13*
X109545000Y-33302500D03*
D12*
X181050000Y-30460000D03*
D13*
X181050000Y-33140000D03*
D14*
X102490000Y-41490000D03*
X102490000Y-43140000D03*
X144465000Y-41370000D03*
X144465000Y-43020000D03*
D10*
X117050000Y-43045000D03*
X117050000Y-41395000D03*
D14*
X141380000Y-41365000D03*
X141380000Y-43015000D03*
X197400000Y-79585000D03*
X197400000Y-81235000D03*
X169710000Y-41400000D03*
X169710000Y-43050000D03*
D12*
X112580000Y-30610000D03*
D13*
X112580000Y-33290000D03*
D14*
X147515000Y-41355000D03*
X147515000Y-43005000D03*
D10*
X177190000Y-43090000D03*
X177190000Y-41440000D03*
D14*
X110880000Y-41405000D03*
X110880000Y-43055000D03*
X191230000Y-79605000D03*
X191230000Y-81255000D03*
D10*
X180420000Y-85755000D03*
X180420000Y-84105000D03*
M02*
