G04 #@! TF.GenerationSoftware,KiCad,Pcbnew,8.0.0-rc1*
G04 #@! TF.CreationDate,2024-10-18T14:45:25+03:00*
G04 #@! TF.ProjectId,Movita_3568_XV_Router_V4.1,4d6f7669-7461-45f3-9335-36385f58565f,REV1*
G04 #@! TF.SameCoordinates,Original*
G04 #@! TF.FileFunction,Other,User*
%FSLAX46Y46*%
G04 Gerber Fmt 4.6, Leading zero omitted, Abs format (unit mm)*
G04 Created by KiCad (PCBNEW 8.0.0-rc1) date 2024-10-18 14:45:25*
%MOMM*%
%LPD*%
G01*
G04 APERTURE LIST*
%ADD10C,0.050000*%
%ADD11C,0.100000*%
G04 APERTURE END LIST*
D10*
X191830000Y-141970000D02*
X194790000Y-141970000D01*
X191830000Y-143430000D02*
X191830000Y-141970000D01*
X194790000Y-141970000D02*
X194790000Y-143430000D01*
X194790000Y-143430000D02*
X191830000Y-143430000D01*
X191710000Y-75720000D02*
X192630000Y-75720000D01*
X191710000Y-77540000D02*
X191710000Y-75720000D01*
X192630000Y-75720000D02*
X192630000Y-77540000D01*
X192630000Y-77540000D02*
X191710000Y-77540000D01*
X181810000Y-89650000D02*
X182730000Y-89650000D01*
X181810000Y-91470000D02*
X181810000Y-89650000D01*
X182730000Y-89650000D02*
X182730000Y-91470000D01*
X182730000Y-91470000D02*
X181810000Y-91470000D01*
X103510000Y-77435000D02*
X106470000Y-77435000D01*
X103510000Y-78895000D02*
X103510000Y-77435000D01*
X106470000Y-77435000D02*
X106470000Y-78895000D01*
X106470000Y-78895000D02*
X103510000Y-78895000D01*
X103500000Y-70810000D02*
X105320000Y-70810000D01*
X103500000Y-71730000D02*
X103500000Y-70810000D01*
X105320000Y-70810000D02*
X105320000Y-71730000D01*
X105320000Y-71730000D02*
X103500000Y-71730000D01*
X165760000Y-139720000D02*
X166700000Y-139720000D01*
X165760000Y-141580000D02*
X165760000Y-139720000D01*
X166700000Y-139720000D02*
X166700000Y-141580000D01*
X166700000Y-141580000D02*
X165760000Y-141580000D01*
X103510000Y-73310000D02*
X105330000Y-73310000D01*
X103510000Y-74230000D02*
X103510000Y-73310000D01*
X105330000Y-73310000D02*
X105330000Y-74230000D01*
X105330000Y-74230000D02*
X103510000Y-74230000D01*
X88060000Y-59920711D02*
X89520000Y-59920711D01*
X88060000Y-62880711D02*
X88060000Y-59920711D01*
X89520000Y-59920711D02*
X89520000Y-62880711D01*
X89520000Y-62880711D02*
X88060000Y-62880711D01*
X191170000Y-63540000D02*
G75*
G02*
X190110000Y-63540000I-530000J0D01*
G01*
X190110000Y-63540000D02*
G75*
G02*
X191170000Y-63540000I530000J0D01*
G01*
X192540000Y-91860000D02*
X195500000Y-91860000D01*
X192540000Y-93320000D02*
X192540000Y-91860000D01*
X195500000Y-91860000D02*
X195500000Y-93320000D01*
X195500000Y-93320000D02*
X192540000Y-93320000D01*
X88710000Y-131520000D02*
X90170000Y-131520000D01*
X88710000Y-134480000D02*
X88710000Y-131520000D01*
X90170000Y-131520000D02*
X90170000Y-134480000D01*
X90170000Y-134480000D02*
X88710000Y-134480000D01*
X98930000Y-44640000D02*
X119520000Y-44640000D01*
X119520000Y-55040000D01*
X98930000Y-55040000D01*
X98930000Y-44640000D01*
X64140000Y-36720000D02*
X64140000Y-38720000D01*
X64140000Y-36720000D02*
X66140000Y-36720000D01*
X66140000Y-38720000D02*
X64140000Y-38720000D01*
X66140000Y-38720000D02*
X66140000Y-36720000D01*
X86040000Y-116270000D02*
X87500000Y-116270000D01*
X86040000Y-119230000D02*
X86040000Y-116270000D01*
X87500000Y-116270000D02*
X87500000Y-119230000D01*
X87500000Y-119230000D02*
X86040000Y-119230000D01*
X186580000Y-135930000D02*
X188440000Y-135930000D01*
X186580000Y-136870000D02*
X186580000Y-135930000D01*
X188440000Y-135930000D02*
X188440000Y-136870000D01*
X188440000Y-136870000D02*
X186580000Y-136870000D01*
X183810000Y-91540000D02*
X184730000Y-91540000D01*
X183810000Y-93360000D02*
X183810000Y-91540000D01*
X184730000Y-91540000D02*
X184730000Y-93360000D01*
X184730000Y-93360000D02*
X183810000Y-93360000D01*
X87755000Y-86210000D02*
X90715000Y-86210000D01*
X87755000Y-87670000D02*
X87755000Y-86210000D01*
X90715000Y-86210000D02*
X90715000Y-87670000D01*
X90715000Y-87670000D02*
X87755000Y-87670000D01*
X91140000Y-59920000D02*
X92600000Y-59920000D01*
X91140000Y-62880000D02*
X91140000Y-59920000D01*
X92600000Y-59920000D02*
X92600000Y-62880000D01*
X92600000Y-62880000D02*
X91140000Y-62880000D01*
X83610000Y-98105000D02*
X85070000Y-98105000D01*
X83610000Y-101065000D02*
X83610000Y-98105000D01*
X85070000Y-98105000D02*
X85070000Y-101065000D01*
X85070000Y-101065000D02*
X83610000Y-101065000D01*
D11*
X187190000Y-50490000D02*
X196890000Y-50490000D01*
X187190000Y-56190000D02*
X187190000Y-50490000D01*
X196890000Y-50490000D02*
X196890000Y-56190000D01*
X196890000Y-56190000D02*
X187190000Y-56190000D01*
D10*
X70090000Y-111940000D02*
X73050000Y-111940000D01*
X70090000Y-113400000D02*
X70090000Y-111940000D01*
X73050000Y-111940000D02*
X73050000Y-113400000D01*
X73050000Y-113400000D02*
X70090000Y-113400000D01*
X69940000Y-125095000D02*
X71400000Y-125095000D01*
X69940000Y-128055000D02*
X69940000Y-125095000D01*
X71400000Y-125095000D02*
X71400000Y-128055000D01*
X71400000Y-128055000D02*
X69940000Y-128055000D01*
D11*
X66527500Y-117870000D02*
X73452500Y-117870000D01*
X66527500Y-121520000D02*
X66527500Y-117870000D01*
X73452500Y-117870000D02*
X73452500Y-121520000D01*
X73452500Y-121520000D02*
X66527500Y-121520000D01*
D10*
X179940000Y-74780000D02*
G75*
G02*
X178880000Y-74780000I-530000J0D01*
G01*
X178880000Y-74780000D02*
G75*
G02*
X179940000Y-74780000I530000J0D01*
G01*
X66890000Y-61480000D02*
X66890000Y-63480000D01*
X66890000Y-61480000D02*
X68890000Y-61480000D01*
X68890000Y-63480000D02*
X66890000Y-63480000D01*
X68890000Y-63480000D02*
X68890000Y-61480000D01*
X192540000Y-115720000D02*
X195500000Y-115720000D01*
X192540000Y-117180000D02*
X192540000Y-115720000D01*
X195500000Y-115720000D02*
X195500000Y-117180000D01*
X195500000Y-117180000D02*
X192540000Y-117180000D01*
X170342500Y-133170000D02*
X170342500Y-141410000D01*
X170342500Y-141410000D02*
X178582500Y-141410000D01*
X178582500Y-133170000D02*
X170342500Y-133170000D01*
X178582500Y-141410000D02*
X178582500Y-133170000D01*
X71480000Y-125095000D02*
X72940000Y-125095000D01*
X71480000Y-128055000D02*
X71480000Y-125095000D01*
X72940000Y-125095000D02*
X72940000Y-128055000D01*
X72940000Y-128055000D02*
X71480000Y-128055000D01*
X193800000Y-76040000D02*
X196800000Y-76040000D01*
X193800000Y-77540000D02*
X193800000Y-76040000D01*
X196800000Y-76040000D02*
X196800000Y-77540000D01*
X196800000Y-77540000D02*
X193800000Y-77540000D01*
X112470000Y-120850000D02*
X115430000Y-120850000D01*
X112470000Y-122310000D02*
X112470000Y-120850000D01*
X115430000Y-120850000D02*
X115430000Y-122310000D01*
X115430000Y-122310000D02*
X112470000Y-122310000D01*
X188980000Y-120320000D02*
X190840000Y-120320000D01*
X188980000Y-121260000D02*
X188980000Y-120320000D01*
X190840000Y-120320000D02*
X190840000Y-121260000D01*
X190840000Y-121260000D02*
X188980000Y-121260000D01*
X67590000Y-130080000D02*
X67590000Y-132080000D01*
X67590000Y-130080000D02*
X69590000Y-130080000D01*
X69590000Y-132080000D02*
X67590000Y-132080000D01*
X69590000Y-132080000D02*
X69590000Y-130080000D01*
X84540000Y-35540000D02*
X87500000Y-35540000D01*
X84540000Y-37000000D02*
X84540000Y-35540000D01*
X87500000Y-35540000D02*
X87500000Y-37000000D01*
X87500000Y-37000000D02*
X84540000Y-37000000D01*
X84570000Y-37090000D02*
X87530000Y-37090000D01*
X84570000Y-38550000D02*
X84570000Y-37090000D01*
X87530000Y-37090000D02*
X87530000Y-38550000D01*
X87530000Y-38550000D02*
X84570000Y-38550000D01*
X119680000Y-61870000D02*
X121140000Y-61870000D01*
X119680000Y-64830000D02*
X119680000Y-61870000D01*
X121140000Y-61870000D02*
X121140000Y-64830000D01*
X121140000Y-64830000D02*
X119680000Y-64830000D01*
X103515000Y-71790000D02*
X106475000Y-71790000D01*
X103515000Y-73250000D02*
X103515000Y-71790000D01*
X106475000Y-71790000D02*
X106475000Y-73250000D01*
X106475000Y-73250000D02*
X103515000Y-73250000D01*
X73020000Y-125125000D02*
X74480000Y-125125000D01*
X73020000Y-128085000D02*
X73020000Y-125125000D01*
X74480000Y-125125000D02*
X74480000Y-128085000D01*
X74480000Y-128085000D02*
X73020000Y-128085000D01*
X183390000Y-81150000D02*
X184850000Y-81150000D01*
X183390000Y-84110000D02*
X183390000Y-81150000D01*
X184850000Y-81150000D02*
X184850000Y-84110000D01*
X184850000Y-84110000D02*
X183390000Y-84110000D01*
X103380000Y-63925000D02*
X104840000Y-63925000D01*
X103380000Y-66885000D02*
X103380000Y-63925000D01*
X104840000Y-63925000D02*
X104840000Y-66885000D01*
X104840000Y-66885000D02*
X103380000Y-66885000D01*
D11*
X187220000Y-44500000D02*
X196920000Y-44500000D01*
X187220000Y-50200000D02*
X187220000Y-44500000D01*
X196920000Y-44500000D02*
X196920000Y-50200000D01*
X196920000Y-50200000D02*
X187220000Y-50200000D01*
D10*
X68615000Y-81600000D02*
X71575000Y-81600000D01*
X68615000Y-83060000D02*
X68615000Y-81600000D01*
X71575000Y-81600000D02*
X71575000Y-83060000D01*
X71575000Y-83060000D02*
X68615000Y-83060000D01*
X154050000Y-144645000D02*
X155510000Y-144645000D01*
X154050000Y-147605000D02*
X154050000Y-144645000D01*
X155510000Y-144645000D02*
X155510000Y-147605000D01*
X155510000Y-147605000D02*
X154050000Y-147605000D01*
X179541507Y-132760000D02*
G75*
G02*
X178478493Y-132760000I-531507J0D01*
G01*
X178478493Y-132760000D02*
G75*
G02*
X179541507Y-132760000I531507J0D01*
G01*
X86830000Y-120730000D02*
X97830000Y-120730000D01*
X86830000Y-130730000D02*
X86830000Y-120730000D01*
X97830000Y-120730000D02*
X97830000Y-130730000D01*
X97830000Y-130730000D02*
X86830000Y-130730000D01*
X169230000Y-124425000D02*
X170690000Y-124425000D01*
X169230000Y-127385000D02*
X169230000Y-124425000D01*
X170690000Y-124425000D02*
X170690000Y-127385000D01*
X170690000Y-127385000D02*
X169230000Y-127385000D01*
X96890000Y-106095000D02*
X98350000Y-106095000D01*
X96890000Y-109055000D02*
X96890000Y-106095000D01*
X98350000Y-106095000D02*
X98350000Y-109055000D01*
X98350000Y-109055000D02*
X96890000Y-109055000D01*
X86550000Y-56665711D02*
X86550000Y-59815711D01*
X86550000Y-56665711D02*
X89550000Y-56665711D01*
X86550000Y-59815711D02*
X89550000Y-59815711D01*
X89550000Y-56665711D02*
X89550000Y-59815711D01*
X98930000Y-93460000D02*
X101890000Y-93460000D01*
X98930000Y-94920000D02*
X98930000Y-93460000D01*
X101890000Y-93460000D02*
X101890000Y-94920000D01*
X101890000Y-94920000D02*
X98930000Y-94920000D01*
X188600000Y-75740000D02*
X189520000Y-75740000D01*
X188600000Y-77560000D02*
X188600000Y-75740000D01*
X189520000Y-75740000D02*
X189520000Y-77560000D01*
X189520000Y-77560000D02*
X188600000Y-77560000D01*
X70135000Y-113510000D02*
X70135000Y-116510000D01*
X73285000Y-113510000D02*
X70135000Y-113510000D01*
X73285000Y-113510000D02*
X73285000Y-116510000D01*
X73285000Y-116510000D02*
X70135000Y-116510000D01*
X193340000Y-85152500D02*
X192540000Y-85152500D01*
X192540000Y-86752500D01*
X193340000Y-86752500D01*
X193340000Y-85152500D01*
X104875000Y-63925000D02*
X106335000Y-63925000D01*
X104875000Y-66885000D02*
X104875000Y-63925000D01*
X106335000Y-63925000D02*
X106335000Y-66885000D01*
X106335000Y-66885000D02*
X104875000Y-66885000D01*
X90285000Y-111687500D02*
X91745000Y-111687500D01*
X90285000Y-114647500D02*
X90285000Y-111687500D01*
X91745000Y-111687500D02*
X91745000Y-114647500D01*
X91745000Y-114647500D02*
X90285000Y-114647500D01*
X151000000Y-144645000D02*
X152460000Y-144645000D01*
X151000000Y-147605000D02*
X151000000Y-144645000D01*
X152460000Y-144645000D02*
X152460000Y-147605000D01*
X152460000Y-147605000D02*
X151000000Y-147605000D01*
X157090000Y-144645000D02*
X158550000Y-144645000D01*
X157090000Y-147605000D02*
X157090000Y-144645000D01*
X158550000Y-144645000D02*
X158550000Y-147605000D01*
X158550000Y-147605000D02*
X157090000Y-147605000D01*
X191830000Y-140440000D02*
X194790000Y-140440000D01*
X191830000Y-141900000D02*
X191830000Y-140440000D01*
X194790000Y-140440000D02*
X194790000Y-141900000D01*
X194790000Y-141900000D02*
X191830000Y-141900000D01*
X66790000Y-114010000D02*
X68250000Y-114010000D01*
X66790000Y-116970000D02*
X66790000Y-114010000D01*
X68250000Y-114010000D02*
X68250000Y-116970000D01*
X68250000Y-116970000D02*
X66790000Y-116970000D01*
X199800000Y-72190000D02*
X201260000Y-72190000D01*
X199800000Y-75150000D02*
X199800000Y-72190000D01*
X201260000Y-72190000D02*
X201260000Y-75150000D01*
X201260000Y-75150000D02*
X199800000Y-75150000D01*
X103510000Y-75885000D02*
X106470000Y-75885000D01*
X103510000Y-77345000D02*
X103510000Y-75885000D01*
X106470000Y-75885000D02*
X106470000Y-77345000D01*
X106470000Y-77345000D02*
X103510000Y-77345000D01*
X160540000Y-125260000D02*
X161480000Y-125260000D01*
X160540000Y-127120000D02*
X160540000Y-125260000D01*
X161480000Y-125260000D02*
X161480000Y-127120000D01*
X161480000Y-127120000D02*
X160540000Y-127120000D01*
X164650000Y-124430000D02*
X166110000Y-124430000D01*
X164650000Y-127390000D02*
X164650000Y-124430000D01*
X166110000Y-124430000D02*
X166110000Y-127390000D01*
X166110000Y-127390000D02*
X164650000Y-127390000D01*
X99782500Y-82590000D02*
X101242500Y-82590000D01*
X99782500Y-85550000D02*
X99782500Y-82590000D01*
X101242500Y-82590000D02*
X101242500Y-85550000D01*
X101242500Y-85550000D02*
X99782500Y-85550000D01*
X87630000Y-89630000D02*
X75430000Y-89630000D01*
X75430000Y-94730000D01*
X87630000Y-94730000D01*
X87630000Y-89630000D01*
X156630000Y-139700000D02*
X158090000Y-139700000D01*
X156630000Y-142660000D02*
X156630000Y-139700000D01*
X158090000Y-139700000D02*
X158090000Y-142660000D01*
X158090000Y-142660000D02*
X156630000Y-142660000D01*
X74560000Y-125130000D02*
X76020000Y-125130000D01*
X74560000Y-128090000D02*
X74560000Y-125130000D01*
X76020000Y-125130000D02*
X76020000Y-128090000D01*
X76020000Y-128090000D02*
X74560000Y-128090000D01*
X183800000Y-89640000D02*
X184720000Y-89640000D01*
X183800000Y-91460000D02*
X183800000Y-89640000D01*
X184720000Y-89640000D02*
X184720000Y-91460000D01*
X184720000Y-91460000D02*
X183800000Y-91460000D01*
X128865000Y-40570000D02*
X94215000Y-40570000D01*
X94215000Y-24820000D01*
X128865000Y-24820000D01*
X128865000Y-40570000D01*
X170440848Y-141840000D02*
G75*
G02*
X169379152Y-141840000I-530848J0D01*
G01*
X169379152Y-141840000D02*
G75*
G02*
X170440848Y-141840000I530848J0D01*
G01*
X100320000Y-63955000D02*
X101780000Y-63955000D01*
X100320000Y-66915000D02*
X100320000Y-63955000D01*
X101780000Y-63955000D02*
X101780000Y-66915000D01*
X101780000Y-66915000D02*
X100320000Y-66915000D01*
X195630000Y-119710000D02*
X195630000Y-130610000D01*
X195630000Y-130610000D02*
X201130000Y-130610000D01*
X201130000Y-119710000D02*
X195630000Y-119710000D01*
X201130000Y-130610000D02*
X201130000Y-119710000D01*
X182810000Y-89650000D02*
X183730000Y-89650000D01*
X182810000Y-91470000D02*
X182810000Y-89650000D01*
X183730000Y-89650000D02*
X183730000Y-91470000D01*
X183730000Y-91470000D02*
X182810000Y-91470000D01*
X49940000Y-134220000D02*
X49940000Y-155220000D01*
X49940000Y-155220000D02*
X52940000Y-155220000D01*
X52940000Y-134220000D02*
X49940000Y-134220000D01*
X52940000Y-155220000D02*
X52940000Y-134220000D01*
X90730000Y-36140000D02*
X93690000Y-36140000D01*
X90730000Y-37600000D02*
X90730000Y-36140000D01*
X93690000Y-36140000D02*
X93690000Y-37600000D01*
X93690000Y-37600000D02*
X90730000Y-37600000D01*
X112470000Y-122380000D02*
X112470000Y-124380000D01*
X112470000Y-122380000D02*
X114470000Y-122380000D01*
X114470000Y-124380000D02*
X112470000Y-124380000D01*
X114470000Y-124380000D02*
X114470000Y-122380000D01*
X87840000Y-82730000D02*
X90800000Y-82730000D01*
X87840000Y-84190000D02*
X87840000Y-82730000D01*
X90800000Y-82730000D02*
X90800000Y-84190000D01*
X90800000Y-84190000D02*
X87840000Y-84190000D01*
X111460000Y-70100000D02*
G75*
G02*
X109960000Y-70100000I-750000J0D01*
G01*
X109960000Y-70100000D02*
G75*
G02*
X111460000Y-70100000I750000J0D01*
G01*
X98142500Y-82847500D02*
X97342500Y-82847500D01*
X97342500Y-84447500D01*
X98142500Y-84447500D01*
X98142500Y-82847500D01*
X186420000Y-108170000D02*
X189380000Y-108170000D01*
X186420000Y-109630000D02*
X186420000Y-108170000D01*
X189380000Y-108170000D02*
X189380000Y-109630000D01*
X189380000Y-109630000D02*
X186420000Y-109630000D01*
X173850000Y-156590000D02*
X185850000Y-156590000D01*
X185850000Y-167270000D01*
X173850000Y-167270000D01*
X173850000Y-156590000D01*
X177380000Y-83110000D02*
X179200000Y-83110000D01*
X177380000Y-84030000D02*
X177380000Y-83110000D01*
X179200000Y-83110000D02*
X179200000Y-84030000D01*
X179200000Y-84030000D02*
X177380000Y-84030000D01*
X197070000Y-75730000D02*
X197990000Y-75730000D01*
X197070000Y-77550000D02*
X197070000Y-75730000D01*
X197990000Y-75730000D02*
X197990000Y-77550000D01*
X197990000Y-77550000D02*
X197070000Y-77550000D01*
X68600000Y-80050000D02*
X71560000Y-80050000D01*
X68600000Y-81510000D02*
X68600000Y-80050000D01*
X71560000Y-80050000D02*
X71560000Y-81510000D01*
X71560000Y-81510000D02*
X68600000Y-81510000D01*
X102850000Y-83955000D02*
X103770000Y-83955000D01*
X102850000Y-85775000D02*
X102850000Y-83955000D01*
X103770000Y-83955000D02*
X103770000Y-85775000D01*
X103770000Y-85775000D02*
X102850000Y-85775000D01*
D11*
X165615000Y-123450000D02*
X167345000Y-123450000D01*
X165615000Y-124280000D02*
X165615000Y-123450000D01*
X167345000Y-123450000D02*
X167345000Y-124280000D01*
X167345000Y-124280000D02*
X165615000Y-124280000D01*
D10*
X193610000Y-113690000D02*
X195470000Y-113690000D01*
X193610000Y-114630000D02*
X193610000Y-113690000D01*
X195470000Y-113690000D02*
X195470000Y-114630000D01*
X195470000Y-114630000D02*
X193610000Y-114630000D01*
X68585000Y-87710000D02*
X71545000Y-87710000D01*
X68585000Y-89170000D02*
X68585000Y-87710000D01*
X71545000Y-87710000D02*
X71545000Y-89170000D01*
X71545000Y-89170000D02*
X68585000Y-89170000D01*
X121240000Y-61890000D02*
X122700000Y-61890000D01*
X121240000Y-64850000D02*
X121240000Y-61890000D01*
X122700000Y-61890000D02*
X122700000Y-64850000D01*
X122700000Y-64850000D02*
X121240000Y-64850000D01*
X90650000Y-107855000D02*
X92110000Y-107855000D01*
X90650000Y-110815000D02*
X90650000Y-107855000D01*
X92110000Y-107855000D02*
X92110000Y-110815000D01*
X92110000Y-110815000D02*
X90650000Y-110815000D01*
X167700000Y-124425000D02*
X169160000Y-124425000D01*
X167700000Y-127385000D02*
X167700000Y-124425000D01*
X169160000Y-124425000D02*
X169160000Y-127385000D01*
X169160000Y-127385000D02*
X167700000Y-127385000D01*
X171460000Y-70100000D02*
G75*
G02*
X169960000Y-70100000I-750000J0D01*
G01*
X169960000Y-70100000D02*
G75*
G02*
X171460000Y-70100000I750000J0D01*
G01*
X159720000Y-139695000D02*
X161180000Y-139695000D01*
X159720000Y-142655000D02*
X159720000Y-139695000D01*
X161180000Y-139695000D02*
X161180000Y-142655000D01*
X161180000Y-142655000D02*
X159720000Y-142655000D01*
X101170000Y-100155000D02*
X104130000Y-100155000D01*
X101170000Y-101615000D02*
X101170000Y-100155000D01*
X104130000Y-100155000D02*
X104130000Y-101615000D01*
X104130000Y-101615000D02*
X101170000Y-101615000D01*
X190992500Y-125610000D02*
X192592500Y-125610000D01*
X192592500Y-126410000D01*
X190992500Y-126410000D01*
X190992500Y-125610000D01*
X181810000Y-91550000D02*
X182730000Y-91550000D01*
X181810000Y-93370000D02*
X181810000Y-91550000D01*
X182730000Y-91550000D02*
X182730000Y-93370000D01*
X182730000Y-93370000D02*
X181810000Y-93370000D01*
X90700000Y-68840000D02*
X90700000Y-77080000D01*
X90700000Y-77080000D02*
X98940000Y-77080000D01*
X98940000Y-68840000D02*
X90700000Y-68840000D01*
X98940000Y-77080000D02*
X98940000Y-68840000D01*
X106680000Y-113020000D02*
X106680000Y-115020000D01*
X106680000Y-113020000D02*
X108680000Y-113020000D01*
X108680000Y-115020000D02*
X106680000Y-115020000D01*
X108680000Y-115020000D02*
X108680000Y-113020000D01*
X95130000Y-106095000D02*
X96590000Y-106095000D01*
X95130000Y-109055000D02*
X95130000Y-106095000D01*
X96590000Y-106095000D02*
X96590000Y-109055000D01*
X96590000Y-109055000D02*
X95130000Y-109055000D01*
X199180000Y-75790000D02*
X199180000Y-77790000D01*
X199180000Y-75790000D02*
X201180000Y-75790000D01*
X201180000Y-77790000D02*
X199180000Y-77790000D01*
X201180000Y-77790000D02*
X201180000Y-75790000D01*
X191820000Y-145010000D02*
X194780000Y-145010000D01*
X191820000Y-146470000D02*
X191820000Y-145010000D01*
X194780000Y-145010000D02*
X194780000Y-146470000D01*
X194780000Y-146470000D02*
X191820000Y-146470000D01*
X88920000Y-50070000D02*
X86650000Y-50070000D01*
X86650000Y-56410000D01*
X88920000Y-56410000D01*
X88920000Y-50070000D01*
X72220000Y-91360000D02*
X73680000Y-91360000D01*
X72220000Y-94320000D02*
X72220000Y-91360000D01*
X73680000Y-91360000D02*
X73680000Y-94320000D01*
X73680000Y-94320000D02*
X72220000Y-94320000D01*
X74320000Y-149950000D02*
X78910000Y-149950000D01*
X78910000Y-152070000D01*
X74320000Y-152070000D01*
X74320000Y-149950000D01*
X171680000Y-122440000D02*
X174640000Y-122440000D01*
X171680000Y-123900000D02*
X171680000Y-122440000D01*
X174640000Y-122440000D02*
X174640000Y-123900000D01*
X174640000Y-123900000D02*
X171680000Y-123900000D01*
X95070000Y-102365000D02*
X96530000Y-102365000D01*
X95070000Y-105325000D02*
X95070000Y-102365000D01*
X96530000Y-102365000D02*
X96530000Y-105325000D01*
X96530000Y-105325000D02*
X95070000Y-105325000D01*
X192500000Y-112150000D02*
X195460000Y-112150000D01*
X192500000Y-113610000D02*
X192500000Y-112150000D01*
X195460000Y-112150000D02*
X195460000Y-113610000D01*
X195460000Y-113610000D02*
X192500000Y-113610000D01*
X171460000Y-115100000D02*
G75*
G02*
X169960000Y-115100000I-750000J0D01*
G01*
X169960000Y-115100000D02*
G75*
G02*
X171460000Y-115100000I750000J0D01*
G01*
X96560000Y-42460000D02*
X96560000Y-44460000D01*
X96560000Y-42460000D02*
X98560000Y-42460000D01*
X98560000Y-44460000D02*
X96560000Y-44460000D01*
X98560000Y-44460000D02*
X98560000Y-42460000D01*
X103490000Y-78955000D02*
X106450000Y-78955000D01*
X103490000Y-80415000D02*
X103490000Y-78955000D01*
X106450000Y-78955000D02*
X106450000Y-80415000D01*
X106450000Y-80415000D02*
X103490000Y-80415000D01*
X84530000Y-34000000D02*
X87490000Y-34000000D01*
X84530000Y-35460000D02*
X84530000Y-34000000D01*
X87490000Y-34000000D02*
X87490000Y-35460000D01*
X87490000Y-35460000D02*
X84530000Y-35460000D01*
D11*
X49750000Y-42460000D02*
X49750000Y-51460000D01*
X49750000Y-51460000D02*
X72250000Y-51460000D01*
X72250000Y-42460000D02*
X49750000Y-42460000D01*
X72250000Y-51460000D02*
X72250000Y-42460000D01*
D10*
X85460000Y-72680000D02*
X88420000Y-72680000D01*
X85460000Y-74140000D02*
X85460000Y-72680000D01*
X88420000Y-72680000D02*
X88420000Y-74140000D01*
X88420000Y-74140000D02*
X85460000Y-74140000D01*
X190220000Y-74360000D02*
X179820000Y-74360000D01*
X179820000Y-63960000D01*
X190220000Y-63960000D01*
X190220000Y-74360000D01*
X194255000Y-69630000D02*
X194255000Y-73830000D01*
X194255000Y-73830000D02*
X197655000Y-73830000D01*
X197655000Y-69630000D02*
X194255000Y-69630000D01*
X197655000Y-73830000D02*
X197655000Y-69630000D01*
X78115000Y-84910000D02*
X78115000Y-88510000D01*
X78115000Y-88510000D02*
X84265000Y-88510000D01*
X84265000Y-84910000D02*
X78115000Y-84910000D01*
X84265000Y-88510000D02*
X84265000Y-84910000D01*
X100090000Y-57900000D02*
X103050000Y-57900000D01*
X100090000Y-59360000D02*
X100090000Y-57900000D01*
X103050000Y-57900000D02*
X103050000Y-59360000D01*
X103050000Y-59360000D02*
X100090000Y-59360000D01*
X53900000Y-155070000D02*
X55360000Y-155070000D01*
X53900000Y-158030000D02*
X53900000Y-155070000D01*
X55360000Y-155070000D02*
X55360000Y-158030000D01*
X55360000Y-158030000D02*
X53900000Y-158030000D01*
X112485000Y-119320000D02*
X115445000Y-119320000D01*
X112485000Y-120780000D02*
X112485000Y-119320000D01*
X115445000Y-119320000D02*
X115445000Y-120780000D01*
X115445000Y-120780000D02*
X112485000Y-120780000D01*
X151510000Y-139730000D02*
X151510000Y-141730000D01*
X151510000Y-139730000D02*
X153510000Y-139730000D01*
X153510000Y-141730000D02*
X151510000Y-141730000D01*
X153510000Y-141730000D02*
X153510000Y-139730000D01*
X188790000Y-125550000D02*
X190650000Y-125550000D01*
X188790000Y-126490000D02*
X188790000Y-125550000D01*
X190650000Y-125550000D02*
X190650000Y-126490000D01*
X190650000Y-126490000D02*
X188790000Y-126490000D01*
X175840000Y-124370000D02*
X177300000Y-124370000D01*
X175840000Y-127330000D02*
X175840000Y-124370000D01*
X177300000Y-124370000D02*
X177300000Y-127330000D01*
X177300000Y-127330000D02*
X175840000Y-127330000D01*
X70720000Y-69710000D02*
X70720000Y-72710000D01*
X70720000Y-72710000D02*
X77720000Y-72710000D01*
X77720000Y-69710000D02*
X70720000Y-69710000D01*
X77720000Y-72710000D02*
X77720000Y-69710000D01*
X178630000Y-76095000D02*
X180090000Y-76095000D01*
X178630000Y-79055000D02*
X178630000Y-76095000D01*
X180090000Y-76095000D02*
X180090000Y-79055000D01*
X180090000Y-79055000D02*
X178630000Y-79055000D01*
X78485000Y-80325000D02*
X81445000Y-80325000D01*
X78485000Y-81785000D02*
X78485000Y-80325000D01*
X81445000Y-80325000D02*
X81445000Y-81785000D01*
X81445000Y-81785000D02*
X78485000Y-81785000D01*
X91810000Y-111705000D02*
X93270000Y-111705000D01*
X91810000Y-114665000D02*
X91810000Y-111705000D01*
X93270000Y-111705000D02*
X93270000Y-114665000D01*
X93270000Y-114665000D02*
X91810000Y-114665000D01*
X84510000Y-116270000D02*
X85970000Y-116270000D01*
X84510000Y-119230000D02*
X84510000Y-116270000D01*
X85970000Y-116270000D02*
X85970000Y-119230000D01*
X85970000Y-119230000D02*
X84510000Y-119230000D01*
X60660000Y-99000000D02*
X64760000Y-99000000D01*
X60660000Y-108650000D02*
X60660000Y-99000000D01*
X61810000Y-109800000D02*
X60660000Y-108650000D01*
X61810000Y-109800000D02*
X64760000Y-109800000D01*
X64760000Y-97450000D02*
X67360000Y-97450000D01*
X64760000Y-99000000D02*
X64760000Y-97450000D01*
X64760000Y-109800000D02*
X64760000Y-111350000D01*
X64760000Y-111350000D02*
X67360000Y-111350000D01*
X67360000Y-97450000D02*
X67360000Y-99000000D01*
X67360000Y-99000000D02*
X71460000Y-99000000D01*
X67360000Y-109800000D02*
X70310000Y-109800000D01*
X67360000Y-111350000D02*
X67360000Y-109800000D01*
X70310000Y-109800000D02*
X71460000Y-108650000D01*
X71460000Y-108650000D02*
X71460000Y-99000000D01*
X158610000Y-144645000D02*
X160070000Y-144645000D01*
X158610000Y-147605000D02*
X158610000Y-144645000D01*
X160070000Y-144645000D02*
X160070000Y-147605000D01*
X160070000Y-147605000D02*
X158610000Y-147605000D01*
X76525000Y-104230000D02*
X77985000Y-104230000D01*
X76525000Y-107190000D02*
X76525000Y-104230000D01*
X77985000Y-104230000D02*
X77985000Y-107190000D01*
X77985000Y-107190000D02*
X76525000Y-107190000D01*
X52220000Y-158510000D02*
X52220000Y-168510000D01*
X52220000Y-158510000D02*
X61020000Y-158510000D01*
X61020000Y-168510000D02*
X52220000Y-168510000D01*
X61020000Y-168510000D02*
X61020000Y-158510000D01*
X191090000Y-85092500D02*
X190290000Y-85092500D01*
X190290000Y-86692500D01*
X191090000Y-86692500D01*
X191090000Y-85092500D01*
X186465000Y-112360000D02*
X189425000Y-112360000D01*
X186465000Y-113820000D02*
X186465000Y-112360000D01*
X189425000Y-112360000D02*
X189425000Y-113820000D01*
X189425000Y-113820000D02*
X186465000Y-113820000D01*
X55920000Y-79445000D02*
X57620000Y-79445000D01*
X55920000Y-82045000D02*
X55920000Y-79445000D01*
X57620000Y-79445000D02*
X57620000Y-76345000D01*
X57620000Y-82045000D02*
X55920000Y-82045000D01*
X57620000Y-85145000D02*
X57620000Y-82045000D01*
X65270000Y-76345000D02*
X57620000Y-76345000D01*
X65270000Y-85145000D02*
X57620000Y-85145000D01*
X66420000Y-77495000D02*
X65270000Y-76345000D01*
X66420000Y-79445000D02*
X66420000Y-77495000D01*
X66420000Y-82045000D02*
X68120000Y-82045000D01*
X66420000Y-83995000D02*
X65270000Y-85145000D01*
X66420000Y-83995000D02*
X66420000Y-82045000D01*
X68120000Y-79445000D02*
X66420000Y-79445000D01*
X68120000Y-82045000D02*
X68120000Y-79445000D01*
X155080000Y-136600000D02*
X156540000Y-136600000D01*
X155080000Y-139560000D02*
X155080000Y-136600000D01*
X156540000Y-136600000D02*
X156540000Y-139560000D01*
X156540000Y-139560000D02*
X155080000Y-139560000D01*
X77395000Y-111230000D02*
X80355000Y-111230000D01*
X77395000Y-112690000D02*
X77395000Y-111230000D01*
X80355000Y-111230000D02*
X80355000Y-112690000D01*
X80355000Y-112690000D02*
X77395000Y-112690000D01*
X161580000Y-124445000D02*
X163040000Y-124445000D01*
X161580000Y-127405000D02*
X161580000Y-124445000D01*
X163040000Y-124445000D02*
X163040000Y-127405000D01*
X163040000Y-127405000D02*
X161580000Y-127405000D01*
X186580000Y-143600000D02*
X189540000Y-143600000D01*
X186580000Y-145060000D02*
X186580000Y-143600000D01*
X189540000Y-143600000D02*
X189540000Y-145060000D01*
X189540000Y-145060000D02*
X186580000Y-145060000D01*
X112490000Y-117800000D02*
X115450000Y-117800000D01*
X112490000Y-119260000D02*
X112490000Y-117800000D01*
X115450000Y-117800000D02*
X115450000Y-119260000D01*
X115450000Y-119260000D02*
X112490000Y-119260000D01*
X88730000Y-111685000D02*
X90190000Y-111685000D01*
X88730000Y-114645000D02*
X88730000Y-111685000D01*
X90190000Y-111685000D02*
X90190000Y-114645000D01*
X90190000Y-114645000D02*
X88730000Y-114645000D01*
X180170000Y-76080000D02*
X181630000Y-76080000D01*
X180170000Y-79040000D02*
X180170000Y-76080000D01*
X181630000Y-76080000D02*
X181630000Y-79040000D01*
X181630000Y-79040000D02*
X180170000Y-79040000D01*
X102220000Y-93440000D02*
X105180000Y-93440000D01*
X102220000Y-94900000D02*
X102220000Y-93440000D01*
X105180000Y-93440000D02*
X105180000Y-94900000D01*
X105180000Y-94900000D02*
X102220000Y-94900000D01*
X115702500Y-119660000D02*
X117302500Y-119660000D01*
X117302500Y-120460000D01*
X115702500Y-120460000D01*
X115702500Y-119660000D01*
X55320000Y-126750000D02*
X57020000Y-126750000D01*
X55320000Y-129350000D02*
X55320000Y-126750000D01*
X57020000Y-126750000D02*
X57020000Y-123650000D01*
X57020000Y-129350000D02*
X55320000Y-129350000D01*
X57020000Y-132450000D02*
X57020000Y-129350000D01*
X64670000Y-123650000D02*
X57020000Y-123650000D01*
X64670000Y-132450000D02*
X57020000Y-132450000D01*
X65820000Y-124800000D02*
X64670000Y-123650000D01*
X65820000Y-126750000D02*
X65820000Y-124800000D01*
X65820000Y-129350000D02*
X67520000Y-129350000D01*
X65820000Y-131300000D02*
X64670000Y-132450000D01*
X65820000Y-131300000D02*
X65820000Y-129350000D01*
X67520000Y-126750000D02*
X65820000Y-126750000D01*
X67520000Y-129350000D02*
X67520000Y-126750000D01*
X158180000Y-139705000D02*
X159640000Y-139705000D01*
X158180000Y-142665000D02*
X158180000Y-139705000D01*
X159640000Y-139705000D02*
X159640000Y-142665000D01*
X159640000Y-142665000D02*
X158180000Y-142665000D01*
X180810000Y-91540000D02*
X181730000Y-91540000D01*
X180810000Y-93360000D02*
X180810000Y-91540000D01*
X181730000Y-91540000D02*
X181730000Y-93360000D01*
X181730000Y-93360000D02*
X180810000Y-93360000D01*
X192535000Y-90330000D02*
X195495000Y-90330000D01*
X192535000Y-91790000D02*
X192535000Y-90330000D01*
X195495000Y-90330000D02*
X195495000Y-91790000D01*
X195495000Y-91790000D02*
X192535000Y-91790000D01*
X192410000Y-161308750D02*
X201210000Y-161308750D01*
X192410000Y-167408750D02*
X192410000Y-161308750D01*
X192410000Y-167408750D02*
X201210000Y-167408750D01*
X201210000Y-161308750D02*
X201210000Y-167408750D01*
X78495000Y-75720000D02*
X81455000Y-75720000D01*
X78495000Y-77180000D02*
X78495000Y-75720000D01*
X81455000Y-75720000D02*
X81455000Y-77180000D01*
X81455000Y-77180000D02*
X78495000Y-77180000D01*
X186420000Y-109730000D02*
X189380000Y-109730000D01*
X186420000Y-111190000D02*
X186420000Y-109730000D01*
X189380000Y-109730000D02*
X189380000Y-111190000D01*
X189380000Y-111190000D02*
X186420000Y-111190000D01*
X73830000Y-112710000D02*
X75290000Y-112710000D01*
X73830000Y-115670000D02*
X73830000Y-112710000D01*
X75290000Y-112710000D02*
X75290000Y-115670000D01*
X75290000Y-115670000D02*
X73830000Y-115670000D01*
X195360000Y-67520000D02*
X198320000Y-67520000D01*
X195360000Y-68980000D02*
X195360000Y-67520000D01*
X198320000Y-67520000D02*
X198320000Y-68980000D01*
X198320000Y-68980000D02*
X195360000Y-68980000D01*
X195720000Y-109480000D02*
X195720000Y-118380000D01*
X195720000Y-118380000D02*
X201220000Y-118380000D01*
X201220000Y-109480000D02*
X195720000Y-109480000D01*
X201220000Y-118380000D02*
X201220000Y-109480000D01*
X190630000Y-75720000D02*
X191550000Y-75720000D01*
X190630000Y-77540000D02*
X190630000Y-75720000D01*
X191550000Y-75720000D02*
X191550000Y-77540000D01*
X191550000Y-77540000D02*
X190630000Y-77540000D01*
X155110000Y-139705000D02*
X156570000Y-139705000D01*
X155110000Y-142665000D02*
X155110000Y-139705000D01*
X156570000Y-139705000D02*
X156570000Y-142665000D01*
X156570000Y-142665000D02*
X155110000Y-142665000D01*
X187465000Y-93160000D02*
X190465000Y-93160000D01*
X187465000Y-94660000D02*
X187465000Y-93160000D01*
X190465000Y-93160000D02*
X190465000Y-94660000D01*
X190465000Y-94660000D02*
X187465000Y-94660000D01*
X49710000Y-100150000D02*
X49710000Y-109800000D01*
X50860000Y-99000000D02*
X49710000Y-100150000D01*
X53810000Y-97450000D02*
X53810000Y-99000000D01*
X53810000Y-99000000D02*
X50860000Y-99000000D01*
X53810000Y-109800000D02*
X49710000Y-109800000D01*
X53810000Y-111350000D02*
X53810000Y-109800000D01*
X56410000Y-97450000D02*
X53810000Y-97450000D01*
X56410000Y-99000000D02*
X56410000Y-97450000D01*
X56410000Y-109800000D02*
X56410000Y-111350000D01*
X56410000Y-111350000D02*
X53810000Y-111350000D01*
X59360000Y-99000000D02*
X56410000Y-99000000D01*
X59360000Y-99000000D02*
X60510000Y-100150000D01*
X60510000Y-100150000D02*
X60510000Y-109800000D01*
X60510000Y-109800000D02*
X56410000Y-109800000D01*
X102845000Y-82080000D02*
X103765000Y-82080000D01*
X102845000Y-83900000D02*
X102845000Y-82080000D01*
X103765000Y-82080000D02*
X103765000Y-83900000D01*
X103765000Y-83900000D02*
X102845000Y-83900000D01*
X182810000Y-91550000D02*
X183730000Y-91550000D01*
X182810000Y-93370000D02*
X182810000Y-91550000D01*
X183730000Y-91550000D02*
X183730000Y-93370000D01*
X183730000Y-93370000D02*
X182810000Y-93370000D01*
X153590000Y-139700000D02*
X155050000Y-139700000D01*
X153590000Y-142660000D02*
X153590000Y-139700000D01*
X155050000Y-139700000D02*
X155050000Y-142660000D01*
X155050000Y-142660000D02*
X153590000Y-142660000D01*
X198810000Y-40880000D02*
X129450000Y-40880000D01*
X129450000Y-24560000D01*
X198810000Y-24560000D01*
X198810000Y-40880000D01*
X170750000Y-123985000D02*
X170750000Y-127385000D01*
X170750000Y-127385000D02*
X174950000Y-127385000D01*
X174950000Y-123985000D02*
X170750000Y-123985000D01*
X174950000Y-127385000D02*
X174950000Y-123985000D01*
X104820000Y-83950000D02*
X105740000Y-83950000D01*
X104820000Y-85770000D02*
X104820000Y-83950000D01*
X105740000Y-83950000D02*
X105740000Y-85770000D01*
X105740000Y-85770000D02*
X104820000Y-85770000D01*
X87530000Y-107830000D02*
X88990000Y-107830000D01*
X87530000Y-110790000D02*
X87530000Y-107830000D01*
X88990000Y-107830000D02*
X88990000Y-110790000D01*
X88990000Y-110790000D02*
X87530000Y-110790000D01*
X194860000Y-85172500D02*
X194060000Y-85172500D01*
X194060000Y-86772500D01*
X194860000Y-86772500D01*
X194860000Y-85172500D01*
X49600000Y-60970000D02*
X49600000Y-73870000D01*
X49600000Y-73870000D02*
X55100000Y-73870000D01*
X55100000Y-60970000D02*
X49600000Y-60970000D01*
X55100000Y-73870000D02*
X55100000Y-60970000D01*
X179970000Y-124395000D02*
X181430000Y-124395000D01*
X179970000Y-127355000D02*
X179970000Y-124395000D01*
X181430000Y-124395000D02*
X181430000Y-127355000D01*
X181430000Y-127355000D02*
X179970000Y-127355000D01*
X152520000Y-144645000D02*
X153980000Y-144645000D01*
X152520000Y-147605000D02*
X152520000Y-144645000D01*
X153980000Y-144645000D02*
X153980000Y-147605000D01*
X153980000Y-147605000D02*
X152520000Y-147605000D01*
X105870000Y-101550000D02*
X105870000Y-103550000D01*
X105870000Y-101550000D02*
X107870000Y-101550000D01*
X107870000Y-103550000D02*
X105870000Y-103550000D01*
X107870000Y-103550000D02*
X107870000Y-101550000D01*
X163120000Y-124450000D02*
X164580000Y-124450000D01*
X163120000Y-127410000D02*
X163120000Y-124450000D01*
X164580000Y-124450000D02*
X164580000Y-127410000D01*
X164580000Y-127410000D02*
X163120000Y-127410000D01*
X83835000Y-102220000D02*
X86795000Y-102220000D01*
X83835000Y-103680000D02*
X83835000Y-102220000D01*
X86795000Y-102220000D02*
X86795000Y-103680000D01*
X86795000Y-103680000D02*
X83835000Y-103680000D01*
X51020000Y-37070000D02*
X51020000Y-39070000D01*
X51020000Y-37070000D02*
X53020000Y-37070000D01*
X53020000Y-39070000D02*
X51020000Y-39070000D01*
X53020000Y-39070000D02*
X53020000Y-37070000D01*
X103510000Y-74350000D02*
X106470000Y-74350000D01*
X103510000Y-75810000D02*
X103510000Y-74350000D01*
X106470000Y-74350000D02*
X106470000Y-75810000D01*
X106470000Y-75810000D02*
X103510000Y-75810000D01*
X156600000Y-136595000D02*
X158060000Y-136595000D01*
X156600000Y-139555000D02*
X156600000Y-136595000D01*
X158060000Y-136595000D02*
X158060000Y-139555000D01*
X158060000Y-139555000D02*
X156600000Y-139555000D01*
X191820000Y-148090000D02*
X194780000Y-148090000D01*
X191820000Y-149550000D02*
X191820000Y-148090000D01*
X194780000Y-148090000D02*
X194780000Y-149550000D01*
X194780000Y-149550000D02*
X191820000Y-149550000D01*
X49762500Y-25627500D02*
X49762500Y-33877500D01*
X49762500Y-33877500D02*
X66002500Y-33877500D01*
X66002500Y-25627500D02*
X49762500Y-25627500D01*
X66002500Y-33877500D02*
X66002500Y-25627500D01*
X186580000Y-138460000D02*
X188440000Y-138460000D01*
X186580000Y-139400000D02*
X186580000Y-138460000D01*
X188440000Y-138460000D02*
X188440000Y-139400000D01*
X188440000Y-139400000D02*
X186580000Y-139400000D01*
D11*
X49710000Y-51780000D02*
X49710000Y-60780000D01*
X49710000Y-60780000D02*
X72210000Y-60780000D01*
X72210000Y-51780000D02*
X49710000Y-51780000D01*
X72210000Y-60780000D02*
X72210000Y-51780000D01*
D10*
X94925000Y-42460000D02*
X96385000Y-42460000D01*
X94925000Y-45420000D02*
X94925000Y-42460000D01*
X96385000Y-42460000D02*
X96385000Y-45420000D01*
X96385000Y-45420000D02*
X94925000Y-45420000D01*
X161862500Y-130640000D02*
X164822500Y-130640000D01*
X161862500Y-132100000D02*
X161862500Y-130640000D01*
X164822500Y-130640000D02*
X164822500Y-132100000D01*
X164822500Y-132100000D02*
X161862500Y-132100000D01*
X68605000Y-84635000D02*
X71565000Y-84635000D01*
X68605000Y-86095000D02*
X68605000Y-84635000D01*
X71565000Y-84635000D02*
X71565000Y-86095000D01*
X71565000Y-86095000D02*
X68605000Y-86095000D01*
X185455000Y-89720000D02*
X185455000Y-91720000D01*
X185455000Y-91720000D02*
X186375000Y-91720000D01*
X186375000Y-89720000D02*
X185455000Y-89720000D01*
X186375000Y-89720000D02*
X187275000Y-88820000D01*
X186375000Y-91720000D02*
X187275000Y-92620000D01*
X187275000Y-88820000D02*
X190105000Y-88820000D01*
X187275000Y-92620000D02*
X190105000Y-92620000D01*
X190105000Y-88820000D02*
X190105000Y-89720000D01*
X190105000Y-89720000D02*
X190955000Y-89720000D01*
X190105000Y-91720000D02*
X190105000Y-92620000D01*
X190955000Y-89720000D02*
X190955000Y-91720000D01*
X190955000Y-91720000D02*
X190105000Y-91720000D01*
X75460000Y-115890000D02*
X75460000Y-121840000D01*
X76610000Y-114740000D02*
X75460000Y-115890000D01*
X77960000Y-113590000D02*
X77960000Y-114740000D01*
X77960000Y-114740000D02*
X76610000Y-114740000D01*
X77960000Y-121840000D02*
X75460000Y-121840000D01*
X77960000Y-122990000D02*
X77960000Y-121840000D01*
X80060000Y-113590000D02*
X77960000Y-113590000D01*
X80060000Y-114740000D02*
X80060000Y-113590000D01*
X80060000Y-121840000D02*
X80060000Y-122990000D01*
X80060000Y-122990000D02*
X77960000Y-122990000D01*
X81410000Y-114740000D02*
X80060000Y-114740000D01*
X81410000Y-114740000D02*
X82560000Y-115890000D01*
X82560000Y-115890000D02*
X82560000Y-121840000D01*
X82560000Y-121840000D02*
X80060000Y-121840000D01*
X133600000Y-65330000D02*
X136560000Y-65330000D01*
X133600000Y-66790000D02*
X133600000Y-65330000D01*
X136560000Y-65330000D02*
X136560000Y-66790000D01*
X136560000Y-66790000D02*
X133600000Y-66790000D01*
X192770000Y-75720000D02*
X193690000Y-75720000D01*
X192770000Y-77540000D02*
X192770000Y-75720000D01*
X193690000Y-75720000D02*
X193690000Y-77540000D01*
X193690000Y-77540000D02*
X192770000Y-77540000D01*
X161260000Y-139705000D02*
X162200000Y-139705000D01*
X161260000Y-141565000D02*
X161260000Y-139705000D01*
X162200000Y-139705000D02*
X162200000Y-141565000D01*
X162200000Y-141565000D02*
X161260000Y-141565000D01*
X172810000Y-73520000D02*
X175770000Y-73520000D01*
X172810000Y-74980000D02*
X172810000Y-73520000D01*
X175770000Y-73520000D02*
X175770000Y-74980000D01*
X175770000Y-74980000D02*
X172810000Y-74980000D01*
X90730000Y-34620000D02*
X93690000Y-34620000D01*
X90730000Y-36080000D02*
X90730000Y-34620000D01*
X93690000Y-34620000D02*
X93690000Y-36080000D01*
X93690000Y-36080000D02*
X90730000Y-36080000D01*
X78500000Y-77250000D02*
X81460000Y-77250000D01*
X78500000Y-78710000D02*
X78500000Y-77250000D01*
X81460000Y-77250000D02*
X81460000Y-78710000D01*
X81460000Y-78710000D02*
X78500000Y-78710000D01*
X49767500Y-112270000D02*
X49767500Y-123570000D01*
X49767500Y-123570000D02*
X66417500Y-123570000D01*
X66417500Y-112270000D02*
X49767500Y-112270000D01*
X66417500Y-123570000D02*
X66417500Y-112270000D01*
X66810000Y-112260000D02*
X69770000Y-112260000D01*
X66810000Y-113720000D02*
X66810000Y-112260000D01*
X69770000Y-112260000D02*
X69770000Y-113720000D01*
X69770000Y-113720000D02*
X66810000Y-113720000D01*
X82970000Y-116270000D02*
X84430000Y-116270000D01*
X82970000Y-119230000D02*
X82970000Y-116270000D01*
X84430000Y-116270000D02*
X84430000Y-119230000D01*
X84430000Y-119230000D02*
X82970000Y-119230000D01*
X98610000Y-101640000D02*
X98610000Y-99340000D01*
X98610000Y-101640000D02*
X100710000Y-101640000D01*
X100710000Y-99340000D02*
X98610000Y-99340000D01*
X100710000Y-99340000D02*
X100710000Y-101640000D01*
X103820000Y-82075000D02*
X104740000Y-82075000D01*
X103820000Y-83895000D02*
X103820000Y-82075000D01*
X104740000Y-82075000D02*
X104740000Y-83895000D01*
X104740000Y-83895000D02*
X103820000Y-83895000D01*
X98780000Y-63950000D02*
X100240000Y-63950000D01*
X98780000Y-66910000D02*
X98780000Y-63950000D01*
X100240000Y-63950000D02*
X100240000Y-66910000D01*
X100240000Y-66910000D02*
X98780000Y-66910000D01*
X63160000Y-148580000D02*
X63160000Y-154080000D01*
X63160000Y-154080000D02*
X70060000Y-154080000D01*
X70060000Y-148580000D02*
X63160000Y-148580000D01*
X70060000Y-154080000D02*
X70060000Y-148580000D01*
X81130000Y-104215000D02*
X82590000Y-104215000D01*
X81130000Y-107175000D02*
X81130000Y-104215000D01*
X82590000Y-104215000D02*
X82590000Y-107175000D01*
X82590000Y-107175000D02*
X81130000Y-107175000D01*
X92200000Y-107845000D02*
X93660000Y-107845000D01*
X92200000Y-110805000D02*
X92200000Y-107845000D01*
X93660000Y-107845000D02*
X93660000Y-110805000D01*
X93660000Y-110805000D02*
X92200000Y-110805000D01*
X97920000Y-127710000D02*
X99380000Y-127710000D01*
X97920000Y-130670000D02*
X97920000Y-127710000D01*
X99380000Y-127710000D02*
X99380000Y-130670000D01*
X99380000Y-130670000D02*
X97920000Y-130670000D01*
X84540000Y-38600000D02*
X87500000Y-38600000D01*
X84540000Y-40060000D02*
X84540000Y-38600000D01*
X87500000Y-38600000D02*
X87500000Y-40060000D01*
X87500000Y-40060000D02*
X84540000Y-40060000D01*
X97910000Y-120750000D02*
X99370000Y-120750000D01*
X97910000Y-123710000D02*
X97910000Y-120750000D01*
X99370000Y-120750000D02*
X99370000Y-123710000D01*
X99370000Y-123710000D02*
X97910000Y-123710000D01*
X68600000Y-86160000D02*
X71560000Y-86160000D01*
X68600000Y-87620000D02*
X68600000Y-86160000D01*
X71560000Y-86160000D02*
X71560000Y-87620000D01*
X71560000Y-87620000D02*
X68600000Y-87620000D01*
X105800000Y-83950000D02*
X106720000Y-83950000D01*
X105800000Y-85770000D02*
X105800000Y-83950000D01*
X106720000Y-83950000D02*
X106720000Y-85770000D01*
X106720000Y-85770000D02*
X105800000Y-85770000D01*
X78485000Y-78775000D02*
X81445000Y-78775000D01*
X78485000Y-80235000D02*
X78485000Y-78775000D01*
X81445000Y-78775000D02*
X81445000Y-80235000D01*
X81445000Y-80235000D02*
X78485000Y-80235000D01*
X191840000Y-151160000D02*
X194800000Y-151160000D01*
X191840000Y-152620000D02*
X191840000Y-151160000D01*
X194800000Y-151160000D02*
X194800000Y-152620000D01*
X194800000Y-152620000D02*
X191840000Y-152620000D01*
X100617500Y-102095000D02*
X100617500Y-105495000D01*
X100617500Y-105495000D02*
X104457500Y-105495000D01*
X104457500Y-102095000D02*
X100617500Y-102095000D01*
X104457500Y-105495000D02*
X104457500Y-102095000D01*
X93260000Y-42480000D02*
X94720000Y-42480000D01*
X93260000Y-45440000D02*
X93260000Y-42480000D01*
X94720000Y-42480000D02*
X94720000Y-45440000D01*
X94720000Y-45440000D02*
X93260000Y-45440000D01*
X160130000Y-144645000D02*
X161590000Y-144645000D01*
X160130000Y-147605000D02*
X160130000Y-144645000D01*
X161590000Y-144645000D02*
X161590000Y-147605000D01*
X161590000Y-147605000D02*
X160130000Y-147605000D01*
X119940000Y-59950000D02*
X120880000Y-59950000D01*
X119940000Y-61810000D02*
X119940000Y-59950000D01*
X120880000Y-59950000D02*
X120880000Y-61810000D01*
X120880000Y-61810000D02*
X119940000Y-61810000D01*
X98710000Y-111730000D02*
X98710000Y-114730000D01*
X98710000Y-114730000D02*
X105710000Y-114730000D01*
X105710000Y-111730000D02*
X98710000Y-111730000D01*
X105710000Y-114730000D02*
X105710000Y-111730000D01*
X186970000Y-147250000D02*
X187910000Y-147250000D01*
X186970000Y-149110000D02*
X186970000Y-147250000D01*
X187910000Y-147250000D02*
X187910000Y-149110000D01*
X187910000Y-149110000D02*
X186970000Y-149110000D01*
X189620000Y-75740000D02*
X190540000Y-75740000D01*
X189620000Y-77560000D02*
X189620000Y-75740000D01*
X190540000Y-75740000D02*
X190540000Y-77560000D01*
X190540000Y-77560000D02*
X189620000Y-77560000D01*
X104800000Y-82075000D02*
X105720000Y-82075000D01*
X104800000Y-83895000D02*
X104800000Y-82075000D01*
X105720000Y-82075000D02*
X105720000Y-83895000D01*
X105720000Y-83895000D02*
X104800000Y-83895000D01*
X89620000Y-56650711D02*
X89620000Y-59800711D01*
X89620000Y-56650711D02*
X92620000Y-56650711D01*
X89620000Y-59800711D02*
X92620000Y-59800711D01*
X92620000Y-56650711D02*
X92620000Y-59800711D01*
X79950000Y-72470000D02*
X82910000Y-72470000D01*
X79950000Y-73930000D02*
X79950000Y-72470000D01*
X82910000Y-72470000D02*
X82910000Y-73930000D01*
X82910000Y-73930000D02*
X79950000Y-73930000D01*
X77610000Y-125125000D02*
X79070000Y-125125000D01*
X77610000Y-128085000D02*
X77610000Y-125125000D01*
X79070000Y-125125000D02*
X79070000Y-128085000D01*
X79070000Y-128085000D02*
X77610000Y-128085000D01*
D11*
X186885000Y-121400000D02*
X192585000Y-121400000D01*
X186885000Y-125450000D02*
X186885000Y-121400000D01*
X192585000Y-121400000D02*
X192585000Y-125450000D01*
X192585000Y-125450000D02*
X186885000Y-125450000D01*
D10*
X100650000Y-105827500D02*
X100650000Y-109227500D01*
X100650000Y-109227500D02*
X104490000Y-109227500D01*
X104490000Y-105827500D02*
X100650000Y-105827500D01*
X104490000Y-109227500D02*
X104490000Y-105827500D01*
X177740000Y-84167500D02*
X179200000Y-84167500D01*
X177740000Y-87127500D02*
X177740000Y-84167500D01*
X179200000Y-84167500D02*
X179200000Y-87127500D01*
X179200000Y-87127500D02*
X177740000Y-87127500D01*
X158150000Y-136595000D02*
X159610000Y-136595000D01*
X158150000Y-139555000D02*
X158150000Y-136595000D01*
X159610000Y-136595000D02*
X159610000Y-139555000D01*
X159610000Y-139555000D02*
X158150000Y-139555000D01*
X69020000Y-76380000D02*
X69020000Y-78380000D01*
X69020000Y-76380000D02*
X71020000Y-76380000D01*
X71020000Y-78380000D02*
X69020000Y-78380000D01*
X71020000Y-78380000D02*
X71020000Y-76380000D01*
X91720000Y-50050000D02*
X89450000Y-50050000D01*
X89450000Y-56390000D01*
X91720000Y-56390000D01*
X91720000Y-50050000D01*
X153560000Y-136600000D02*
X155020000Y-136600000D01*
X153560000Y-139560000D02*
X153560000Y-136600000D01*
X155020000Y-136600000D02*
X155020000Y-139560000D01*
X155020000Y-139560000D02*
X153560000Y-139560000D01*
X87860000Y-91630000D02*
X90820000Y-91630000D01*
X87860000Y-93090000D02*
X87860000Y-91630000D01*
X90820000Y-91630000D02*
X90820000Y-93090000D01*
X90820000Y-93090000D02*
X87860000Y-93090000D01*
X183260000Y-76085000D02*
X184720000Y-76085000D01*
X183260000Y-79045000D02*
X183260000Y-76085000D01*
X184720000Y-76085000D02*
X184720000Y-79045000D01*
X184720000Y-79045000D02*
X183260000Y-79045000D01*
X91665000Y-91640000D02*
X94625000Y-91640000D01*
X91665000Y-93100000D02*
X91665000Y-91640000D01*
X94625000Y-91640000D02*
X94625000Y-93100000D01*
X94625000Y-93100000D02*
X91665000Y-93100000D01*
X68605000Y-83120000D02*
X71565000Y-83120000D01*
X68605000Y-84580000D02*
X68605000Y-83120000D01*
X71565000Y-83120000D02*
X71565000Y-84580000D01*
X71565000Y-84580000D02*
X68605000Y-84580000D01*
X186590000Y-136930000D02*
X189550000Y-136930000D01*
X186590000Y-138390000D02*
X186590000Y-136930000D01*
X189550000Y-136930000D02*
X189550000Y-138390000D01*
X189550000Y-138390000D02*
X186590000Y-138390000D01*
X162280000Y-139707500D02*
X162280000Y-143807500D01*
X162280000Y-143807500D02*
X165680000Y-143807500D01*
X165680000Y-139707500D02*
X162280000Y-139707500D01*
X165680000Y-143807500D02*
X165680000Y-139707500D01*
X56205000Y-64435000D02*
X69925000Y-64435000D01*
X69925000Y-76065000D01*
X56205000Y-76065000D01*
X56205000Y-64435000D01*
X74680000Y-76790000D02*
X76140000Y-76790000D01*
X74680000Y-79750000D02*
X74680000Y-76790000D01*
X76140000Y-76790000D02*
X76140000Y-79750000D01*
X76140000Y-79750000D02*
X74680000Y-79750000D01*
X91650000Y-89910000D02*
X94610000Y-89910000D01*
X91650000Y-91370000D02*
X91650000Y-89910000D01*
X94610000Y-89910000D02*
X94610000Y-91370000D01*
X94610000Y-91370000D02*
X91650000Y-91370000D01*
X103150140Y-61182362D02*
X115350140Y-61182362D01*
X115350140Y-56082362D01*
X103150140Y-56082362D01*
X103150140Y-61182362D01*
X87760000Y-87760000D02*
X90720000Y-87760000D01*
X87760000Y-89220000D02*
X87760000Y-87760000D01*
X90720000Y-87760000D02*
X90720000Y-89220000D01*
X90720000Y-89220000D02*
X87760000Y-89220000D01*
X89080000Y-107845000D02*
X90540000Y-107845000D01*
X89080000Y-110805000D02*
X89080000Y-107845000D01*
X90540000Y-107845000D02*
X90540000Y-110805000D01*
X90540000Y-110805000D02*
X89080000Y-110805000D01*
X186960000Y-81150000D02*
X187880000Y-81150000D01*
X186960000Y-82970000D02*
X186960000Y-81150000D01*
X187880000Y-81150000D02*
X187880000Y-82970000D01*
X187880000Y-82970000D02*
X186960000Y-82970000D01*
X97250000Y-63940000D02*
X98710000Y-63940000D01*
X97250000Y-66900000D02*
X97250000Y-63940000D01*
X98710000Y-63940000D02*
X98710000Y-66900000D01*
X98710000Y-66900000D02*
X97250000Y-66900000D01*
X78070000Y-104230000D02*
X79530000Y-104230000D01*
X78070000Y-107190000D02*
X78070000Y-104230000D01*
X79530000Y-104230000D02*
X79530000Y-107190000D01*
X79530000Y-107190000D02*
X78070000Y-107190000D01*
X134770000Y-44530000D02*
X155360000Y-44530000D01*
X155360000Y-54930000D01*
X134770000Y-54930000D01*
X134770000Y-44530000D01*
X193640000Y-114700000D02*
X195500000Y-114700000D01*
X193640000Y-115640000D02*
X193640000Y-114700000D01*
X195500000Y-114700000D02*
X195500000Y-115640000D01*
X195500000Y-115640000D02*
X193640000Y-115640000D01*
X191825000Y-149630000D02*
X194785000Y-149630000D01*
X191825000Y-151090000D02*
X191825000Y-149630000D01*
X194785000Y-149630000D02*
X194785000Y-151090000D01*
X194785000Y-151090000D02*
X191825000Y-151090000D01*
X186590000Y-139490000D02*
X188450000Y-139490000D01*
X186590000Y-140430000D02*
X186590000Y-139490000D01*
X188450000Y-139490000D02*
X188450000Y-140430000D01*
X188450000Y-140430000D02*
X186590000Y-140430000D01*
X107330000Y-62350000D02*
X107330000Y-68070000D01*
X107330000Y-68070000D02*
X116630000Y-68070000D01*
X116630000Y-62350000D02*
X107330000Y-62350000D01*
X116630000Y-68070000D02*
X116630000Y-62350000D01*
X93345000Y-111690000D02*
X94805000Y-111690000D01*
X93345000Y-114650000D02*
X93345000Y-111690000D01*
X94805000Y-111690000D02*
X94805000Y-114650000D01*
X94805000Y-114650000D02*
X93345000Y-114650000D01*
X77375000Y-109650000D02*
X80335000Y-109650000D01*
X77375000Y-111110000D02*
X77375000Y-109650000D01*
X80335000Y-109650000D02*
X80335000Y-111110000D01*
X80335000Y-111110000D02*
X77375000Y-111110000D01*
X193450000Y-93420000D02*
X195270000Y-93420000D01*
X193450000Y-94340000D02*
X193450000Y-93420000D01*
X195270000Y-93420000D02*
X195270000Y-94340000D01*
X195270000Y-94340000D02*
X193450000Y-94340000D01*
X55450000Y-155060000D02*
X56910000Y-155060000D01*
X55450000Y-158020000D02*
X55450000Y-155060000D01*
X56910000Y-155060000D02*
X56910000Y-158020000D01*
X56910000Y-158020000D02*
X55450000Y-158020000D01*
X87840000Y-81190000D02*
X90800000Y-81190000D01*
X87840000Y-82650000D02*
X87840000Y-81190000D01*
X90800000Y-81190000D02*
X90800000Y-82650000D01*
X90800000Y-82650000D02*
X87840000Y-82650000D01*
X161862500Y-132160000D02*
X164822500Y-132160000D01*
X161862500Y-133620000D02*
X161862500Y-132160000D01*
X164822500Y-132160000D02*
X164822500Y-133620000D01*
X164822500Y-133620000D02*
X161862500Y-133620000D01*
X200080000Y-70210000D02*
X201000000Y-70210000D01*
X200080000Y-72030000D02*
X200080000Y-70210000D01*
X201000000Y-70210000D02*
X201000000Y-72030000D01*
X201000000Y-72030000D02*
X200080000Y-72030000D01*
X195700000Y-78890000D02*
X196550000Y-78890000D01*
X195700000Y-80890000D02*
X195700000Y-78890000D01*
X196550000Y-78890000D02*
X196550000Y-77990000D01*
X196550000Y-80890000D02*
X195700000Y-80890000D01*
X196550000Y-81790000D02*
X196550000Y-80890000D01*
X199380000Y-77990000D02*
X196550000Y-77990000D01*
X199380000Y-81790000D02*
X196550000Y-81790000D01*
X200280000Y-78890000D02*
X199380000Y-77990000D01*
X200280000Y-80890000D02*
X199380000Y-81790000D01*
X200280000Y-80890000D02*
X201200000Y-80890000D01*
X201200000Y-78890000D02*
X200280000Y-78890000D01*
X201200000Y-80890000D02*
X201200000Y-78890000D01*
X82720000Y-109392679D02*
X82720000Y-114592679D01*
X87120000Y-109392679D02*
X82720000Y-109392679D01*
X87120000Y-109392679D02*
X87120000Y-114592679D01*
X87120000Y-114592679D02*
X82720000Y-114592679D01*
X186465000Y-113910000D02*
X189425000Y-113910000D01*
X186465000Y-115370000D02*
X186465000Y-113910000D01*
X189425000Y-113910000D02*
X189425000Y-115370000D01*
X189425000Y-115370000D02*
X186465000Y-115370000D01*
X73810000Y-91390000D02*
X75270000Y-91390000D01*
X73810000Y-94350000D02*
X73810000Y-91390000D01*
X75270000Y-91390000D02*
X75270000Y-94350000D01*
X75270000Y-94350000D02*
X73810000Y-94350000D01*
X49760000Y-85240000D02*
X49760000Y-96540000D01*
X49760000Y-96540000D02*
X66410000Y-96540000D01*
X66410000Y-85240000D02*
X49760000Y-85240000D01*
X66410000Y-96540000D02*
X66410000Y-85240000D01*
X186570000Y-140510000D02*
X189530000Y-140510000D01*
X186570000Y-141970000D02*
X186570000Y-140510000D01*
X189530000Y-140510000D02*
X189530000Y-141970000D01*
X189530000Y-141970000D02*
X186570000Y-141970000D01*
X60110000Y-155065000D02*
X61570000Y-155065000D01*
X60110000Y-158025000D02*
X60110000Y-155065000D01*
X61570000Y-155065000D02*
X61570000Y-158025000D01*
X61570000Y-158025000D02*
X60110000Y-158025000D01*
X58550000Y-155060000D02*
X60010000Y-155060000D01*
X58550000Y-158020000D02*
X58550000Y-155060000D01*
X60010000Y-155060000D02*
X60010000Y-158020000D01*
X60010000Y-158020000D02*
X58550000Y-158020000D01*
X78490000Y-81875000D02*
X81450000Y-81875000D01*
X78490000Y-83335000D02*
X78490000Y-81875000D01*
X81450000Y-81875000D02*
X81450000Y-83335000D01*
X81450000Y-83335000D02*
X78490000Y-83335000D01*
X72435000Y-97645000D02*
X81085000Y-97645000D01*
X72435000Y-101195000D02*
X72435000Y-97645000D01*
X81085000Y-97645000D02*
X81085000Y-101195000D01*
X81085000Y-101195000D02*
X72435000Y-101195000D01*
X111460000Y-115100000D02*
G75*
G02*
X109960000Y-115100000I-750000J0D01*
G01*
X109960000Y-115100000D02*
G75*
G02*
X111460000Y-115100000I750000J0D01*
G01*
X100090140Y-56354862D02*
X103050140Y-56354862D01*
X100090140Y-57814862D02*
X100090140Y-56354862D01*
X103050140Y-56354862D02*
X103050140Y-57814862D01*
X103050140Y-57814862D02*
X100090140Y-57814862D01*
X186580000Y-142060000D02*
X189540000Y-142060000D01*
X186580000Y-143520000D02*
X186580000Y-142060000D01*
X189540000Y-142060000D02*
X189540000Y-143520000D01*
X189540000Y-143520000D02*
X186580000Y-143520000D01*
X100080000Y-59440000D02*
X103040000Y-59440000D01*
X100080000Y-60900000D02*
X100080000Y-59440000D01*
X103040000Y-59440000D02*
X103040000Y-60900000D01*
X103040000Y-60900000D02*
X100080000Y-60900000D01*
X85440000Y-71150000D02*
X88400000Y-71150000D01*
X85440000Y-72610000D02*
X85440000Y-71150000D01*
X88400000Y-71150000D02*
X88400000Y-72610000D01*
X88400000Y-72610000D02*
X85440000Y-72610000D01*
X82080000Y-98105000D02*
X83540000Y-98105000D01*
X82080000Y-101065000D02*
X82080000Y-98105000D01*
X83540000Y-98105000D02*
X83540000Y-101065000D01*
X83540000Y-101065000D02*
X82080000Y-101065000D01*
X197750000Y-69605000D02*
X199210000Y-69605000D01*
X197750000Y-72565000D02*
X197750000Y-69605000D01*
X199210000Y-69605000D02*
X199210000Y-72565000D01*
X199210000Y-72565000D02*
X197750000Y-72565000D01*
X98700000Y-106075000D02*
X100160000Y-106075000D01*
X98700000Y-109035000D02*
X98700000Y-106075000D01*
X100160000Y-106075000D02*
X100160000Y-109035000D01*
X100160000Y-109035000D02*
X98700000Y-109035000D01*
X191820000Y-143490000D02*
X194780000Y-143490000D01*
X191820000Y-144950000D02*
X191820000Y-143490000D01*
X194780000Y-143490000D02*
X194780000Y-144950000D01*
X194780000Y-144950000D02*
X191820000Y-144950000D01*
X166180000Y-124430000D02*
X167640000Y-124430000D01*
X166180000Y-127390000D02*
X166180000Y-124430000D01*
X167640000Y-124430000D02*
X167640000Y-127390000D01*
X167640000Y-127390000D02*
X166180000Y-127390000D01*
X95680000Y-52840000D02*
X95680000Y-54840000D01*
X95680000Y-52840000D02*
X97680000Y-52840000D01*
X97680000Y-54840000D02*
X95680000Y-54840000D01*
X97680000Y-54840000D02*
X97680000Y-52840000D01*
X181740000Y-76075000D02*
X183200000Y-76075000D01*
X181740000Y-79035000D02*
X181740000Y-76075000D01*
X183200000Y-76075000D02*
X183200000Y-79035000D01*
X183200000Y-79035000D02*
X181740000Y-79035000D01*
X99870865Y-68430000D02*
G75*
G02*
X98829135Y-68430000I-520865J0D01*
G01*
X98829135Y-68430000D02*
G75*
G02*
X99870865Y-68430000I520865J0D01*
G01*
X57000000Y-155060000D02*
X58460000Y-155060000D01*
X57000000Y-158020000D02*
X57000000Y-155060000D01*
X58460000Y-155060000D02*
X58460000Y-158020000D01*
X58460000Y-158020000D02*
X57000000Y-158020000D01*
X101845000Y-63940000D02*
X103305000Y-63940000D01*
X101845000Y-66900000D02*
X101845000Y-63940000D01*
X103305000Y-63940000D02*
X103305000Y-66900000D01*
X103305000Y-66900000D02*
X101845000Y-66900000D01*
X91680000Y-88300000D02*
X94640000Y-88300000D01*
X91680000Y-89760000D02*
X91680000Y-88300000D01*
X94640000Y-88300000D02*
X94640000Y-89760000D01*
X94640000Y-89760000D02*
X91680000Y-89760000D01*
X64065000Y-154780000D02*
X64065000Y-168050000D01*
X64065000Y-154780000D02*
X80375000Y-154780000D01*
X80375000Y-168050000D02*
X64065000Y-168050000D01*
X80375000Y-168050000D02*
X80375000Y-154780000D01*
X197950000Y-85180000D02*
X197150000Y-85180000D01*
X197150000Y-86780000D01*
X197950000Y-86780000D01*
X197950000Y-85180000D01*
X79610000Y-104220000D02*
X81070000Y-104220000D01*
X79610000Y-107180000D02*
X79610000Y-104220000D01*
X81070000Y-104220000D02*
X81070000Y-107180000D01*
X81070000Y-107180000D02*
X79610000Y-107180000D01*
X181510000Y-124395000D02*
X182970000Y-124395000D01*
X181510000Y-127355000D02*
X181510000Y-124395000D01*
X182970000Y-124395000D02*
X182970000Y-127355000D01*
X182970000Y-127355000D02*
X181510000Y-127355000D01*
X180260000Y-127470000D02*
X181200000Y-127470000D01*
X180260000Y-129330000D02*
X180260000Y-127470000D01*
X181200000Y-127470000D02*
X181200000Y-129330000D01*
X181200000Y-129330000D02*
X180260000Y-129330000D01*
X179250000Y-91560000D02*
X180710000Y-91560000D01*
X179250000Y-94520000D02*
X179250000Y-91560000D01*
X180710000Y-91560000D02*
X180710000Y-94520000D01*
X180710000Y-94520000D02*
X179250000Y-94520000D01*
X84460000Y-81365000D02*
X84460000Y-84515000D01*
X84460000Y-81365000D02*
X87460000Y-81365000D01*
X84460000Y-84515000D02*
X87460000Y-84515000D01*
X87460000Y-81365000D02*
X87460000Y-84515000D01*
X198330000Y-54840000D02*
X198330000Y-63840000D01*
X198330000Y-63840000D02*
X201330000Y-63840000D01*
X201330000Y-54840000D02*
X198330000Y-54840000D01*
X201330000Y-63840000D02*
X201330000Y-54840000D01*
X94810000Y-93195139D02*
X107010000Y-93195139D01*
X107010000Y-88095139D01*
X94810000Y-88095139D01*
X94810000Y-93195139D01*
X82700000Y-104725000D02*
X87000000Y-104725000D01*
X82700000Y-108325000D02*
X82700000Y-104725000D01*
X87000000Y-104725000D02*
X87000000Y-108325000D01*
X87000000Y-108325000D02*
X82700000Y-108325000D01*
X185175000Y-92720000D02*
X185175000Y-94720000D01*
X185175000Y-92720000D02*
X187175000Y-92720000D01*
X187175000Y-94720000D02*
X185175000Y-94720000D01*
X187175000Y-94720000D02*
X187175000Y-92720000D01*
X177370000Y-124370000D02*
X178830000Y-124370000D01*
X177370000Y-127330000D02*
X177370000Y-124370000D01*
X178830000Y-124370000D02*
X178830000Y-127330000D01*
X178830000Y-127330000D02*
X177370000Y-127330000D01*
X115480140Y-57544862D02*
X116940140Y-57544862D01*
X115480140Y-60504862D02*
X115480140Y-57544862D01*
X116940140Y-57544862D02*
X116940140Y-60504862D01*
X116940140Y-60504862D02*
X115480140Y-60504862D01*
X179800000Y-89650000D02*
X180720000Y-89650000D01*
X179800000Y-91470000D02*
X179800000Y-89650000D01*
X180720000Y-89650000D02*
X180720000Y-91470000D01*
X180720000Y-91470000D02*
X179800000Y-91470000D01*
X177330000Y-81010000D02*
X177330000Y-83010000D01*
X177330000Y-81010000D02*
X179330000Y-81010000D01*
X179330000Y-83010000D02*
X177330000Y-83010000D01*
X179330000Y-83010000D02*
X179330000Y-81010000D01*
X66520000Y-121670000D02*
X69480000Y-121670000D01*
X66520000Y-123130000D02*
X66520000Y-121670000D01*
X69480000Y-121670000D02*
X69480000Y-123130000D01*
X69480000Y-123130000D02*
X66520000Y-123130000D01*
X105780000Y-82070000D02*
X106700000Y-82070000D01*
X105780000Y-83890000D02*
X105780000Y-82070000D01*
X106700000Y-82070000D02*
X106700000Y-83890000D01*
X106700000Y-83890000D02*
X105780000Y-83890000D01*
X184970000Y-81165000D02*
X185890000Y-81165000D01*
X184970000Y-82985000D02*
X184970000Y-81165000D01*
X185890000Y-81165000D02*
X185890000Y-82985000D01*
X185890000Y-82985000D02*
X184970000Y-82985000D01*
X199800000Y-66050000D02*
X201260000Y-66050000D01*
X199800000Y-69010000D02*
X199800000Y-66050000D01*
X201260000Y-66050000D02*
X201260000Y-69010000D01*
X201260000Y-69010000D02*
X199800000Y-69010000D01*
X73160000Y-76780000D02*
X74620000Y-76780000D01*
X73160000Y-79740000D02*
X73160000Y-76780000D01*
X74620000Y-76780000D02*
X74620000Y-79740000D01*
X74620000Y-79740000D02*
X73160000Y-79740000D01*
X87580000Y-117230000D02*
X87580000Y-119230000D01*
X87580000Y-117230000D02*
X89580000Y-117230000D01*
X89580000Y-119230000D02*
X87580000Y-119230000D01*
X89580000Y-119230000D02*
X89580000Y-117230000D01*
X198100000Y-75720000D02*
X199020000Y-75720000D01*
X198100000Y-77540000D02*
X198100000Y-75720000D01*
X199020000Y-75720000D02*
X199020000Y-77540000D01*
X199020000Y-77540000D02*
X198100000Y-77540000D01*
X85150000Y-94900000D02*
X91500000Y-94900000D01*
X85150000Y-101100000D02*
X85150000Y-94900000D01*
X91500000Y-94900000D02*
X91500000Y-101100000D01*
X91500000Y-101100000D02*
X85150000Y-101100000D01*
X101312500Y-82595000D02*
X102772500Y-82595000D01*
X101312500Y-85555000D02*
X101312500Y-82595000D01*
X102772500Y-82595000D02*
X102772500Y-85555000D01*
X102772500Y-85555000D02*
X101312500Y-85555000D01*
X179430000Y-82850000D02*
X179430000Y-85680000D01*
X180330000Y-81030000D02*
X180330000Y-81950000D01*
X180330000Y-81950000D02*
X179430000Y-82850000D01*
X180330000Y-85680000D02*
X179430000Y-85680000D01*
X180330000Y-86530000D02*
X180330000Y-85680000D01*
X182330000Y-81030000D02*
X180330000Y-81030000D01*
X182330000Y-81950000D02*
X182330000Y-81030000D01*
X182330000Y-81950000D02*
X183230000Y-82850000D01*
X182330000Y-85680000D02*
X182330000Y-86530000D01*
X182330000Y-86530000D02*
X180330000Y-86530000D01*
X183230000Y-82850000D02*
X183230000Y-85680000D01*
X183230000Y-85680000D02*
X182330000Y-85680000D01*
X161880000Y-136740000D02*
X164840000Y-136740000D01*
X161880000Y-138200000D02*
X161880000Y-136740000D01*
X164840000Y-136740000D02*
X164840000Y-138200000D01*
X164840000Y-138200000D02*
X161880000Y-138200000D01*
X187730000Y-85095000D02*
X186930000Y-85095000D01*
X186930000Y-86695000D01*
X187730000Y-86695000D01*
X187730000Y-85095000D01*
X86510000Y-59920711D02*
X87970000Y-59920711D01*
X86510000Y-62880711D02*
X86510000Y-59920711D01*
X87970000Y-59920711D02*
X87970000Y-62880711D01*
X87970000Y-62880711D02*
X86510000Y-62880711D01*
X161880000Y-135220000D02*
X164840000Y-135220000D01*
X161880000Y-136680000D02*
X161880000Y-135220000D01*
X164840000Y-135220000D02*
X164840000Y-136680000D01*
X164840000Y-136680000D02*
X161880000Y-136680000D01*
X50230000Y-75090496D02*
X54670000Y-75090496D01*
X50230000Y-82140496D02*
X50230000Y-75090496D01*
X54670000Y-75090496D02*
X54670000Y-82140496D01*
X54670000Y-82140496D02*
X50230000Y-82140496D01*
X121490000Y-59950000D02*
X122430000Y-59950000D01*
X121490000Y-61810000D02*
X121490000Y-59950000D01*
X122430000Y-59950000D02*
X122430000Y-61810000D01*
X122430000Y-61810000D02*
X121490000Y-61810000D01*
X95285000Y-45620000D02*
X95285000Y-52470000D01*
X95285000Y-52470000D02*
X98345000Y-52470000D01*
X98345000Y-45620000D02*
X95285000Y-45620000D01*
X98345000Y-52470000D02*
X98345000Y-45620000D01*
X71630000Y-76770000D02*
X73090000Y-76770000D01*
X71630000Y-79730000D02*
X71630000Y-76770000D01*
X73090000Y-76770000D02*
X73090000Y-79730000D01*
X73090000Y-79730000D02*
X71630000Y-79730000D01*
X95110000Y-98870000D02*
X96570000Y-98870000D01*
X95110000Y-101830000D02*
X95110000Y-98870000D01*
X96570000Y-98870000D02*
X96570000Y-101830000D01*
X96570000Y-101830000D02*
X95110000Y-101830000D01*
X90810094Y-77490000D02*
G75*
G02*
X89749906Y-77490000I-530094J0D01*
G01*
X89749906Y-77490000D02*
G75*
G02*
X90810094Y-77490000I530094J0D01*
G01*
X155570000Y-144645000D02*
X157030000Y-144645000D01*
X155570000Y-147605000D02*
X155570000Y-144645000D01*
X157030000Y-144645000D02*
X157030000Y-147605000D01*
X157030000Y-147605000D02*
X155570000Y-147605000D01*
X187980000Y-80890000D02*
X187980000Y-78890000D01*
X187980000Y-80890000D02*
X189980000Y-80890000D01*
X189980000Y-78890000D02*
X187980000Y-78890000D01*
X189980000Y-78890000D02*
X189980000Y-80890000D01*
X87840000Y-84260000D02*
X90800000Y-84260000D01*
X87840000Y-85720000D02*
X87840000Y-84260000D01*
X90800000Y-84260000D02*
X90800000Y-85720000D01*
X90800000Y-85720000D02*
X87840000Y-85720000D01*
X76090000Y-125130000D02*
X77550000Y-125130000D01*
X76090000Y-128090000D02*
X76090000Y-125130000D01*
X77550000Y-125130000D02*
X77550000Y-128090000D01*
X77550000Y-128090000D02*
X76090000Y-128090000D01*
X189550000Y-85102500D02*
X188750000Y-85102500D01*
X188750000Y-86702500D01*
X189550000Y-86702500D01*
X189550000Y-85102500D01*
X89620000Y-59920000D02*
X91080000Y-59920000D01*
X89620000Y-62880000D02*
X89620000Y-59920000D01*
X91080000Y-59920000D02*
X91080000Y-62880000D01*
X91080000Y-62880000D02*
X89620000Y-62880000D01*
X191820000Y-146540000D02*
X194780000Y-146540000D01*
X191820000Y-148000000D02*
X191820000Y-146540000D01*
X194780000Y-146540000D02*
X194780000Y-148000000D01*
X194780000Y-148000000D02*
X191820000Y-148000000D01*
X172800000Y-75540000D02*
X175760000Y-75540000D01*
X172800000Y-77000000D02*
X172800000Y-75540000D01*
X175760000Y-75540000D02*
X175760000Y-77000000D01*
X175760000Y-77000000D02*
X172800000Y-77000000D01*
X191042500Y-120380000D02*
X192642500Y-120380000D01*
X192642500Y-121180000D01*
X191042500Y-121180000D01*
X191042500Y-120380000D01*
X161872500Y-133690000D02*
X164832500Y-133690000D01*
X161872500Y-135150000D02*
X161872500Y-133690000D01*
X164832500Y-133690000D02*
X164832500Y-135150000D01*
X164832500Y-135150000D02*
X161872500Y-135150000D01*
X185960000Y-81155000D02*
X186880000Y-81155000D01*
X185960000Y-82975000D02*
X185960000Y-81155000D01*
X186880000Y-81155000D02*
X186880000Y-82975000D01*
X186880000Y-82975000D02*
X185960000Y-82975000D01*
X68410000Y-125095000D02*
X69870000Y-125095000D01*
X68410000Y-128055000D02*
X68410000Y-125095000D01*
X69870000Y-125095000D02*
X69870000Y-128055000D01*
X69870000Y-128055000D02*
X68410000Y-128055000D01*
X79650000Y-68920000D02*
X79650000Y-72320000D01*
X79650000Y-72320000D02*
X83850000Y-72320000D01*
X83850000Y-68920000D02*
X79650000Y-68920000D01*
X83850000Y-72320000D02*
X83850000Y-68920000D01*
X103830000Y-83955000D02*
X104750000Y-83955000D01*
X103830000Y-85775000D02*
X103830000Y-83955000D01*
X104750000Y-83955000D02*
X104750000Y-85775000D01*
X104750000Y-85775000D02*
X103830000Y-85775000D01*
X96870000Y-98825000D02*
X98330000Y-98825000D01*
X96870000Y-101785000D02*
X96870000Y-98825000D01*
X98330000Y-98825000D02*
X98330000Y-101785000D01*
X98330000Y-101785000D02*
X96870000Y-101785000D01*
X98262500Y-82595000D02*
X99722500Y-82595000D01*
X98262500Y-85555000D02*
X98262500Y-82595000D01*
X99722500Y-82595000D02*
X99722500Y-85555000D01*
X99722500Y-85555000D02*
X98262500Y-85555000D01*
X94780000Y-55652500D02*
X94780000Y-59052500D01*
X94780000Y-59052500D02*
X98620000Y-59052500D01*
X98620000Y-55652500D02*
X94780000Y-55652500D01*
X98620000Y-59052500D02*
X98620000Y-55652500D01*
X191825000Y-138900000D02*
X194785000Y-138900000D01*
X191825000Y-140360000D02*
X191825000Y-138900000D01*
X194785000Y-138900000D02*
X194785000Y-140360000D01*
X194785000Y-140360000D02*
X191825000Y-140360000D01*
X164300000Y-44420000D02*
X184890000Y-44420000D01*
X184890000Y-54820000D01*
X164300000Y-54820000D01*
X164300000Y-44420000D01*
X200960000Y-107930000D02*
X179970000Y-107930000D01*
X179970000Y-96580000D01*
X200960000Y-96580000D01*
X200960000Y-107930000D01*
X90380000Y-131980000D02*
X92680000Y-131980000D01*
X90380000Y-134380000D02*
X90380000Y-131980000D01*
X92680000Y-131980000D02*
X92680000Y-134380000D01*
X92680000Y-134380000D02*
X90380000Y-134380000D01*
X180820000Y-89650000D02*
X181740000Y-89650000D01*
X180820000Y-91470000D02*
X180820000Y-89650000D01*
X181740000Y-89650000D02*
X181740000Y-91470000D01*
X181740000Y-91470000D02*
X180820000Y-91470000D01*
X90710000Y-37680000D02*
X93670000Y-37680000D01*
X90710000Y-39140000D02*
X90710000Y-37680000D01*
X93670000Y-37680000D02*
X93670000Y-39140000D01*
X93670000Y-39140000D02*
X90710000Y-39140000D01*
X148890000Y-144640000D02*
X148890000Y-146640000D01*
X148890000Y-144640000D02*
X150890000Y-144640000D01*
X150890000Y-146640000D02*
X148890000Y-146640000D01*
X150890000Y-146640000D02*
X150890000Y-144640000D01*
X196380000Y-85172500D02*
X195580000Y-85172500D01*
X195580000Y-86772500D01*
X196380000Y-86772500D01*
X196380000Y-85172500D01*
X71665000Y-73580000D02*
X74815000Y-73580000D01*
X71665000Y-76580000D02*
X71665000Y-73580000D01*
X71665000Y-76580000D02*
X74815000Y-76580000D01*
X74815000Y-76580000D02*
X74815000Y-73580000D01*
X49700000Y-124690000D02*
X54140000Y-124690000D01*
X49700000Y-131740000D02*
X49700000Y-124690000D01*
X54140000Y-124690000D02*
X54140000Y-131740000D01*
X54140000Y-131740000D02*
X49700000Y-131740000D01*
D11*
X74085000Y-81390000D02*
X77735000Y-81390000D01*
X74085000Y-88315000D02*
X74085000Y-81390000D01*
X77735000Y-81390000D02*
X77735000Y-88315000D01*
X77735000Y-88315000D02*
X74085000Y-88315000D01*
D10*
X190070000Y-78880000D02*
X190070000Y-80880000D01*
X190070000Y-80880000D02*
X190990000Y-80880000D01*
X190990000Y-78880000D02*
X190070000Y-78880000D01*
X190990000Y-78880000D02*
X191890000Y-77980000D01*
X190990000Y-80880000D02*
X191890000Y-81780000D01*
X191890000Y-77980000D02*
X194720000Y-77980000D01*
X191890000Y-81780000D02*
X194720000Y-81780000D01*
X194720000Y-77980000D02*
X194720000Y-78880000D01*
X194720000Y-78880000D02*
X195570000Y-78880000D01*
X194720000Y-80880000D02*
X194720000Y-81780000D01*
X195570000Y-78880000D02*
X195570000Y-80880000D01*
X195570000Y-80880000D02*
X194720000Y-80880000D01*
X55290000Y-132865000D02*
X69010000Y-132865000D01*
X69010000Y-144495000D01*
X55290000Y-144495000D01*
X55290000Y-132865000D01*
X96770000Y-101967500D02*
X96770000Y-105807500D01*
X96770000Y-105807500D02*
X100170000Y-105807500D01*
X100170000Y-101967500D02*
X96770000Y-101967500D01*
X100170000Y-105807500D02*
X100170000Y-101967500D01*
M02*
