G04 #@! TF.GenerationSoftware,KiCad,Pcbnew,8.0.0-rc1*
G04 #@! TF.CreationDate,2024-10-05T12:40:08+03:00*
G04 #@! TF.ProjectId,EC25_module,45433235-5f6d-46f6-9475-6c652e6b6963,rev?*
G04 #@! TF.SameCoordinates,Original*
G04 #@! TF.FileFunction,Copper,L2,Bot*
G04 #@! TF.FilePolarity,Positive*
%FSLAX46Y46*%
G04 Gerber Fmt 4.6, Leading zero omitted, Abs format (unit mm)*
G04 Created by KiCad (PCBNEW 8.0.0-rc1) date 2024-10-05 12:40:08*
%MOMM*%
%LPD*%
G01*
G04 APERTURE LIST*
G04 #@! TA.AperFunction,CastellatedPad*
%ADD10R,1.200000X1.250000*%
G04 #@! TD*
G04 #@! TA.AperFunction,CastellatedPad*
%ADD11R,1.250000X1.200000*%
G04 #@! TD*
G04 #@! TA.AperFunction,ViaPad*
%ADD12C,0.800000*%
G04 #@! TD*
G04 #@! TA.AperFunction,Conductor*
%ADD13C,0.250000*%
G04 #@! TD*
G04 #@! TA.AperFunction,Conductor*
%ADD14C,0.381000*%
G04 #@! TD*
G04 #@! TA.AperFunction,Conductor*
%ADD15C,0.508000*%
G04 #@! TD*
G04 APERTURE END LIST*
D10*
X125330000Y-78125000D03*
X122790000Y-78125000D03*
X120250000Y-78125000D03*
X117710000Y-78125000D03*
X115170000Y-78125000D03*
X126320000Y-113875000D03*
X128860000Y-113875000D03*
X131400000Y-113875000D03*
X133940000Y-113875000D03*
X136480000Y-113875000D03*
D11*
X145765000Y-96180000D03*
X145765000Y-93640000D03*
X145765000Y-91100000D03*
X145765000Y-88560000D03*
X145765000Y-86020000D03*
X145765000Y-83480000D03*
X107005000Y-95450000D03*
X107005000Y-97990000D03*
X107005000Y-100530000D03*
X107005000Y-103070000D03*
X107005000Y-105610000D03*
D12*
X107760000Y-92250000D03*
X108170000Y-110900000D03*
X114090000Y-91190000D03*
X111040000Y-113120000D03*
X145130000Y-108030000D03*
X111080000Y-79480000D03*
X144980000Y-104570000D03*
X145090000Y-80610000D03*
X107610000Y-82120000D03*
X114650000Y-88180000D03*
X114470000Y-96540000D03*
X114240000Y-93910000D03*
X139630000Y-113310000D03*
X138570000Y-78690000D03*
X107650000Y-89500000D03*
X107650000Y-85730000D03*
X133830000Y-78580000D03*
X114390000Y-86070000D03*
X145050000Y-78540000D03*
X142190000Y-78610000D03*
X130060000Y-113810000D03*
X129800000Y-79060000D03*
X114840000Y-106830000D03*
X114960000Y-102190000D03*
X142490000Y-80530000D03*
X108510000Y-113040000D03*
X145035000Y-99160000D03*
X114540000Y-99290000D03*
X118330000Y-112610000D03*
X117060000Y-112610000D03*
X119720000Y-112590000D03*
X126320000Y-112500000D03*
X134970000Y-112090000D03*
X130750000Y-108340000D03*
X129460000Y-108380000D03*
X144120000Y-100820000D03*
X125570000Y-108340000D03*
X144220000Y-102120000D03*
X126850000Y-108340000D03*
X144340000Y-90590000D03*
D13*
X130350000Y-106920000D02*
X130750000Y-107320000D01*
X110020000Y-104030000D02*
X128776396Y-104030000D01*
X106410000Y-103040000D02*
X106380000Y-103070000D01*
X109315000Y-103325000D02*
X110020000Y-104030000D01*
X128776396Y-104030000D02*
X130350000Y-105603604D01*
D14*
X109315000Y-103325000D02*
X109030000Y-103040000D01*
X109030000Y-103040000D02*
X106410000Y-103040000D01*
D13*
X130750000Y-107320000D02*
X130750000Y-108340000D01*
X130350000Y-105603604D02*
X130350000Y-106920000D01*
X129900000Y-106910000D02*
X129460000Y-107350000D01*
D14*
X108900000Y-105610000D02*
X109255000Y-105255000D01*
D13*
X128590000Y-104480000D02*
X129900000Y-105790000D01*
X129900000Y-105790000D02*
X129900000Y-106910000D01*
D14*
X106380000Y-105610000D02*
X108900000Y-105610000D01*
D13*
X129460000Y-107350000D02*
X129460000Y-108380000D01*
X109255000Y-105255000D02*
X110030000Y-104480000D01*
X110030000Y-104480000D02*
X128590000Y-104480000D01*
D15*
X144100000Y-100800000D02*
X144120000Y-100820000D01*
X145130000Y-93640000D02*
X144100000Y-94670000D01*
X144100000Y-94670000D02*
X144100000Y-100800000D01*
X146390000Y-93640000D02*
X145130000Y-93640000D01*
D13*
X128060000Y-107750000D02*
X127400000Y-107090000D01*
X121320000Y-92130000D02*
X132490000Y-103300000D01*
X125570000Y-107650000D02*
X125570000Y-108340000D01*
X127400000Y-107090000D02*
X126130000Y-107090000D01*
X120830000Y-79980000D02*
X121320000Y-80470000D01*
X128560000Y-110180000D02*
X128060000Y-109680000D01*
X131250000Y-110180000D02*
X128560000Y-110180000D01*
X128060000Y-109680000D02*
X128060000Y-107750000D01*
X121320000Y-80470000D02*
X121320000Y-92130000D01*
D14*
X120830000Y-79980000D02*
X120250000Y-79400000D01*
D13*
X132490000Y-108940000D02*
X131250000Y-110180000D01*
X126130000Y-107090000D02*
X125570000Y-107650000D01*
D14*
X120250000Y-79400000D02*
X120250000Y-77500000D01*
D13*
X132490000Y-103300000D02*
X132490000Y-108940000D01*
X145760000Y-101610000D02*
X145250000Y-102120000D01*
X146390000Y-96180000D02*
X145760000Y-96810000D01*
X145250000Y-102120000D02*
X144220000Y-102120000D01*
X145760000Y-96810000D02*
X145760000Y-101610000D01*
X126666990Y-96840594D02*
X126666991Y-96840595D01*
X122375000Y-79965000D02*
X121770000Y-80570000D01*
X126242727Y-95992067D02*
X126348794Y-95886001D01*
X126773058Y-96310265D02*
X126666990Y-96416330D01*
X127621586Y-97158793D02*
X127515518Y-97264858D01*
X127658402Y-97832006D02*
X132940000Y-103113604D01*
X121770000Y-91943604D02*
X125818463Y-95992067D01*
X127515518Y-97689122D02*
X127515519Y-97689123D01*
X132940000Y-103113604D02*
X132940000Y-109126396D01*
X126850000Y-110170000D02*
X126850000Y-108340000D01*
X127515519Y-97689123D02*
X127658402Y-97832006D01*
X131346396Y-110720000D02*
X127400000Y-110720000D01*
D14*
X122790000Y-79550000D02*
X122790000Y-77500000D01*
D13*
X127400000Y-110720000D02*
X126850000Y-110170000D01*
X132940000Y-109126396D02*
X131346396Y-110720000D01*
X127091255Y-96840595D02*
X127197322Y-96734529D01*
D14*
X122375000Y-79965000D02*
X122790000Y-79550000D01*
D13*
X121770000Y-80570000D02*
X121770000Y-91943604D01*
X126773058Y-95886001D02*
G75*
G02*
X126773025Y-96310232I-212158J-212099D01*
G01*
X127197323Y-96734530D02*
G75*
G02*
X127621585Y-96734530I212131J-212131D01*
G01*
X125818464Y-95992066D02*
G75*
G03*
X126242726Y-95992066I212131J212131D01*
G01*
X126348795Y-95886002D02*
G75*
G02*
X126773057Y-95886002I212131J-212131D01*
G01*
X127621586Y-96734529D02*
G75*
G02*
X127621625Y-97158832I-212086J-212171D01*
G01*
X126666990Y-96416330D02*
G75*
G03*
X126666952Y-96840632I212110J-212170D01*
G01*
X127515518Y-97264858D02*
G75*
G03*
X127515508Y-97689132I212082J-212142D01*
G01*
X126666992Y-96840594D02*
G75*
G03*
X127091254Y-96840594I212131J212131D01*
G01*
X125330000Y-87550000D02*
X125330000Y-80720000D01*
X143660000Y-89910000D02*
X127690000Y-89910000D01*
X144340000Y-90590000D02*
X143660000Y-89910000D01*
D14*
X125330000Y-77500000D02*
X125330000Y-80720000D01*
D13*
X127690000Y-89910000D02*
X125330000Y-87550000D01*
G04 #@! TA.AperFunction,Conductor*
G36*
X114305148Y-77514352D02*
G01*
X114319500Y-77549000D01*
X114319500Y-78774677D01*
X114334033Y-78847739D01*
X114389398Y-78930601D01*
X114472260Y-78985966D01*
X114545326Y-79000500D01*
X115794674Y-79000500D01*
X115867740Y-78985966D01*
X115950601Y-78930601D01*
X116005966Y-78847740D01*
X116020500Y-78774674D01*
X116020500Y-78375000D01*
X116610000Y-78375000D01*
X116610000Y-78797834D01*
X116616401Y-78857372D01*
X116616401Y-78857373D01*
X116666648Y-78992091D01*
X116752811Y-79107188D01*
X116867908Y-79193351D01*
X117002626Y-79243598D01*
X117062166Y-79250000D01*
X117460000Y-79250000D01*
X117460000Y-78375000D01*
X117960000Y-78375000D01*
X117960000Y-79250000D01*
X118357834Y-79250000D01*
X118417372Y-79243598D01*
X118417373Y-79243598D01*
X118552091Y-79193351D01*
X118667188Y-79107188D01*
X118753351Y-78992091D01*
X118803598Y-78857373D01*
X118803598Y-78857372D01*
X118810000Y-78797834D01*
X118810000Y-78375000D01*
X117960000Y-78375000D01*
X117460000Y-78375000D01*
X116610000Y-78375000D01*
X116020500Y-78375000D01*
X116020500Y-77549000D01*
X116034852Y-77514352D01*
X116069500Y-77500000D01*
X116561000Y-77500000D01*
X116595648Y-77514352D01*
X116610000Y-77549000D01*
X116610000Y-77875000D01*
X117236473Y-77875000D01*
X117341592Y-77980119D01*
X117478409Y-78059111D01*
X117631009Y-78100000D01*
X117788991Y-78100000D01*
X117941591Y-78059111D01*
X118078408Y-77980119D01*
X118183527Y-77875000D01*
X118810000Y-77875000D01*
X118810000Y-77549000D01*
X118824352Y-77514352D01*
X118859000Y-77500000D01*
X119350500Y-77500000D01*
X119385148Y-77514352D01*
X119399500Y-77549000D01*
X119399500Y-78774677D01*
X119414033Y-78847739D01*
X119469398Y-78930601D01*
X119552260Y-78985966D01*
X119625326Y-79000500D01*
X119760000Y-79000500D01*
X119794648Y-79014852D01*
X119809000Y-79049500D01*
X119809000Y-79458061D01*
X119839052Y-79570216D01*
X119839054Y-79570222D01*
X119864960Y-79615090D01*
X119864961Y-79615091D01*
X119897109Y-79670776D01*
X119897111Y-79670778D01*
X119897112Y-79670780D01*
X120559220Y-80332888D01*
X120617275Y-80366406D01*
X120659777Y-80390945D01*
X120659781Y-80390947D01*
X120715577Y-80405897D01*
X120737540Y-80418578D01*
X120930148Y-80611185D01*
X120944500Y-80645833D01*
X120944500Y-92179437D01*
X120970089Y-92274936D01*
X120970090Y-92274940D01*
X121019525Y-92360562D01*
X132100148Y-103441185D01*
X132114500Y-103475833D01*
X132114500Y-108764166D01*
X132100148Y-108798814D01*
X131108815Y-109790148D01*
X131074167Y-109804500D01*
X128735834Y-109804500D01*
X128701186Y-109790148D01*
X128449852Y-109538814D01*
X128435500Y-109504166D01*
X128435500Y-107700565D01*
X128435325Y-107699914D01*
X128435315Y-107699877D01*
X128422078Y-107650474D01*
X128409910Y-107605062D01*
X128409909Y-107605059D01*
X128360474Y-107519437D01*
X127630562Y-106789525D01*
X127544940Y-106740090D01*
X127544937Y-106740089D01*
X127497186Y-106727295D01*
X127449438Y-106714500D01*
X127449436Y-106714500D01*
X127449435Y-106714500D01*
X126179436Y-106714500D01*
X126080564Y-106714500D01*
X126080561Y-106714500D01*
X125985064Y-106740088D01*
X125985061Y-106740089D01*
X125899437Y-106789525D01*
X125899437Y-106789526D01*
X125269526Y-107419437D01*
X125269525Y-107419437D01*
X125220090Y-107505060D01*
X125218421Y-107511292D01*
X125218420Y-107511291D01*
X125218420Y-107511295D01*
X125199860Y-107580562D01*
X125199860Y-107580563D01*
X125194500Y-107600565D01*
X125194500Y-107781551D01*
X125180148Y-107816199D01*
X125177993Y-107818228D01*
X125079520Y-107905466D01*
X125079516Y-107905471D01*
X124989780Y-108035475D01*
X124933763Y-108183180D01*
X124914722Y-108340000D01*
X124933763Y-108496819D01*
X124989780Y-108644524D01*
X125047627Y-108728330D01*
X125079517Y-108774530D01*
X125079519Y-108774531D01*
X125079520Y-108774533D01*
X125177992Y-108861770D01*
X125197760Y-108879283D01*
X125337635Y-108952696D01*
X125491015Y-108990500D01*
X125491016Y-108990500D01*
X125648983Y-108990500D01*
X125648985Y-108990500D01*
X125802365Y-108952696D01*
X125942240Y-108879283D01*
X126060483Y-108774530D01*
X126150220Y-108644523D01*
X126164184Y-108607703D01*
X126189890Y-108580395D01*
X126227375Y-108579262D01*
X126254683Y-108604968D01*
X126255816Y-108607703D01*
X126269779Y-108644522D01*
X126269780Y-108644524D01*
X126359516Y-108774529D01*
X126359517Y-108774530D01*
X126404666Y-108814528D01*
X126457993Y-108861770D01*
X126474411Y-108895488D01*
X126474500Y-108898447D01*
X126474500Y-110219437D01*
X126500089Y-110314936D01*
X126500090Y-110314938D01*
X126517158Y-110344500D01*
X126549526Y-110400563D01*
X127099525Y-110950562D01*
X127169438Y-111020475D01*
X127173925Y-111023065D01*
X127196755Y-111052817D01*
X127191861Y-111089999D01*
X127162108Y-111112830D01*
X127149425Y-111114500D01*
X116820290Y-111114500D01*
X116722524Y-111133947D01*
X116722515Y-111133950D01*
X116687875Y-111148299D01*
X116687874Y-111148299D01*
X116604982Y-111203685D01*
X116133685Y-111674982D01*
X116078300Y-111757873D01*
X116064612Y-111790918D01*
X116064154Y-111791920D01*
X116063946Y-111792529D01*
X116044500Y-111890290D01*
X116044500Y-113039709D01*
X116063947Y-113137475D01*
X116063950Y-113137484D01*
X116078299Y-113172124D01*
X116078299Y-113172125D01*
X116078301Y-113172128D01*
X116078302Y-113172130D01*
X116133686Y-113255018D01*
X116384982Y-113506314D01*
X116467870Y-113561698D01*
X116467875Y-113561700D01*
X116500917Y-113575387D01*
X116501922Y-113575845D01*
X116502507Y-113576045D01*
X116502518Y-113576050D01*
X116502520Y-113576051D01*
X116502527Y-113576052D01*
X116502529Y-113576053D01*
X116600290Y-113595499D01*
X116600296Y-113595500D01*
X120769706Y-113595500D01*
X120814135Y-113586662D01*
X120867475Y-113576052D01*
X120867479Y-113576050D01*
X120867482Y-113576050D01*
X120902130Y-113561698D01*
X120985018Y-113506314D01*
X121521480Y-112969852D01*
X121556128Y-112955500D01*
X124793872Y-112955500D01*
X124828520Y-112969852D01*
X125310148Y-113451480D01*
X125324500Y-113486128D01*
X125324500Y-114139709D01*
X125343947Y-114237475D01*
X125343950Y-114237484D01*
X125358299Y-114272124D01*
X125358299Y-114272125D01*
X125413685Y-114355017D01*
X125455148Y-114396480D01*
X125469500Y-114431128D01*
X125469500Y-114451000D01*
X125455148Y-114485648D01*
X125420500Y-114500000D01*
X106429000Y-114500000D01*
X106394352Y-114485648D01*
X106380000Y-114451000D01*
X106380000Y-106509500D01*
X106394352Y-106474852D01*
X106429000Y-106460500D01*
X107654674Y-106460500D01*
X107727740Y-106445966D01*
X107810601Y-106390601D01*
X107865966Y-106307740D01*
X107880500Y-106234674D01*
X107880500Y-106100000D01*
X107894852Y-106065352D01*
X107929500Y-106051000D01*
X108958061Y-106051000D01*
X108997195Y-106040513D01*
X109070220Y-106020946D01*
X109170780Y-105962888D01*
X109252888Y-105880780D01*
X109607888Y-105525780D01*
X109665947Y-105425219D01*
X109680897Y-105369419D01*
X109693579Y-105347457D01*
X110171185Y-104869852D01*
X110205833Y-104855500D01*
X128414167Y-104855500D01*
X128448815Y-104869852D01*
X129510148Y-105931185D01*
X129524500Y-105965833D01*
X129524500Y-106734167D01*
X129510148Y-106768815D01*
X129159526Y-107119437D01*
X129159525Y-107119437D01*
X129110090Y-107205060D01*
X129108421Y-107211292D01*
X129108420Y-107211291D01*
X129108420Y-107211295D01*
X129088537Y-107285499D01*
X129088537Y-107285500D01*
X129084500Y-107300565D01*
X129084500Y-107821551D01*
X129070148Y-107856199D01*
X129067993Y-107858228D01*
X128969520Y-107945466D01*
X128969516Y-107945471D01*
X128879780Y-108075475D01*
X128823763Y-108223180D01*
X128804722Y-108380000D01*
X128823763Y-108536819D01*
X128879780Y-108684524D01*
X128934753Y-108764166D01*
X128969517Y-108814530D01*
X128969519Y-108814531D01*
X128969520Y-108814533D01*
X129025131Y-108863799D01*
X129087760Y-108919283D01*
X129227635Y-108992696D01*
X129381015Y-109030500D01*
X129381016Y-109030500D01*
X129538983Y-109030500D01*
X129538985Y-109030500D01*
X129692365Y-108992696D01*
X129832240Y-108919283D01*
X129950483Y-108814530D01*
X130040220Y-108684523D01*
X130066769Y-108614517D01*
X130092473Y-108587211D01*
X130129959Y-108586078D01*
X130157267Y-108611783D01*
X130158399Y-108614518D01*
X130169777Y-108644518D01*
X130169780Y-108644524D01*
X130227627Y-108728330D01*
X130259517Y-108774530D01*
X130259519Y-108774531D01*
X130259520Y-108774533D01*
X130357992Y-108861770D01*
X130377760Y-108879283D01*
X130517635Y-108952696D01*
X130671015Y-108990500D01*
X130671016Y-108990500D01*
X130828983Y-108990500D01*
X130828985Y-108990500D01*
X130982365Y-108952696D01*
X131122240Y-108879283D01*
X131240483Y-108774530D01*
X131330220Y-108644523D01*
X131386237Y-108496818D01*
X131405278Y-108340000D01*
X131386237Y-108183182D01*
X131330220Y-108035477D01*
X131240483Y-107905470D01*
X131240480Y-107905467D01*
X131240479Y-107905466D01*
X131142007Y-107818228D01*
X131125589Y-107784510D01*
X131125500Y-107781551D01*
X131125500Y-107270565D01*
X131125325Y-107269914D01*
X131125315Y-107269877D01*
X131101580Y-107181295D01*
X131101579Y-107181291D01*
X131101579Y-107181292D01*
X131099910Y-107175063D01*
X131099910Y-107175062D01*
X131050475Y-107089438D01*
X130980562Y-107019525D01*
X130739852Y-106778815D01*
X130725500Y-106744167D01*
X130725500Y-105554166D01*
X130699910Y-105458667D01*
X130699909Y-105458663D01*
X130650474Y-105373041D01*
X129006958Y-103729525D01*
X128921336Y-103680090D01*
X128921333Y-103680089D01*
X128873582Y-103667295D01*
X128825834Y-103654500D01*
X128825832Y-103654500D01*
X128825831Y-103654500D01*
X110195833Y-103654500D01*
X110161185Y-103640148D01*
X109753578Y-103232541D01*
X109740897Y-103210578D01*
X109725947Y-103154781D01*
X109667888Y-103054220D01*
X109300780Y-102687112D01*
X109300778Y-102687111D01*
X109300776Y-102687109D01*
X109279316Y-102674720D01*
X109266182Y-102667137D01*
X109200221Y-102629054D01*
X109088061Y-102599000D01*
X109088059Y-102599000D01*
X107929500Y-102599000D01*
X107894852Y-102584648D01*
X107880500Y-102550000D01*
X107880500Y-102445326D01*
X107880499Y-102445322D01*
X107875556Y-102420474D01*
X107865966Y-102372260D01*
X107851468Y-102350562D01*
X107810601Y-102289398D01*
X107727739Y-102234033D01*
X107654677Y-102219500D01*
X107654674Y-102219500D01*
X106463767Y-102219500D01*
X106429000Y-102219500D01*
X106394352Y-102205148D01*
X106380000Y-102170500D01*
X106380000Y-101429500D01*
X106394352Y-101394852D01*
X106429000Y-101380500D01*
X107654674Y-101380500D01*
X107727740Y-101365966D01*
X107810601Y-101310601D01*
X107865966Y-101227740D01*
X107880500Y-101154674D01*
X107880500Y-99905326D01*
X107865966Y-99832260D01*
X107810601Y-99749398D01*
X107727739Y-99694033D01*
X107654677Y-99679500D01*
X107654674Y-99679500D01*
X106463767Y-99679500D01*
X106429000Y-99679500D01*
X106394352Y-99665148D01*
X106380000Y-99630500D01*
X106380000Y-98889500D01*
X106394352Y-98854852D01*
X106429000Y-98840500D01*
X107654674Y-98840500D01*
X107727740Y-98825966D01*
X107810601Y-98770601D01*
X107865966Y-98687740D01*
X107880500Y-98614674D01*
X107880500Y-97365326D01*
X107865966Y-97292260D01*
X107852833Y-97272605D01*
X107810601Y-97209398D01*
X107727739Y-97154033D01*
X107654677Y-97139500D01*
X107654674Y-97139500D01*
X106463767Y-97139500D01*
X106429000Y-97139500D01*
X106394352Y-97125148D01*
X106380000Y-97090500D01*
X106380000Y-96599000D01*
X106394352Y-96564352D01*
X106429000Y-96550000D01*
X106755000Y-96550000D01*
X106755000Y-95923527D01*
X106860119Y-95818408D01*
X106928482Y-95700000D01*
X107255000Y-95700000D01*
X107255000Y-96550000D01*
X107677834Y-96550000D01*
X107737372Y-96543598D01*
X107737373Y-96543598D01*
X107872091Y-96493351D01*
X107987188Y-96407188D01*
X108073351Y-96292091D01*
X108123598Y-96157373D01*
X108123598Y-96157372D01*
X108130000Y-96097834D01*
X108130000Y-95700000D01*
X107255000Y-95700000D01*
X106928482Y-95700000D01*
X106939111Y-95681591D01*
X106980000Y-95528991D01*
X106980000Y-95371009D01*
X106939111Y-95218409D01*
X106860119Y-95081592D01*
X106755000Y-94976473D01*
X106755000Y-94350000D01*
X107255000Y-94350000D01*
X107255000Y-95200000D01*
X108130000Y-95200000D01*
X108130000Y-94802165D01*
X108123598Y-94742627D01*
X108123598Y-94742626D01*
X108073351Y-94607908D01*
X107987188Y-94492811D01*
X107872091Y-94406648D01*
X107737373Y-94356401D01*
X107677834Y-94350000D01*
X107255000Y-94350000D01*
X106755000Y-94350000D01*
X106429000Y-94350000D01*
X106394352Y-94335648D01*
X106380000Y-94301000D01*
X106380000Y-80370000D01*
X107932620Y-80370000D01*
X107953142Y-80571821D01*
X107996869Y-80711184D01*
X108013871Y-80765373D01*
X108051686Y-80833503D01*
X108112316Y-80942739D01*
X108112318Y-80942741D01*
X108244455Y-81096662D01*
X108404870Y-81220832D01*
X108404875Y-81220834D01*
X108404876Y-81220835D01*
X108586994Y-81310169D01*
X108586996Y-81310169D01*
X108586997Y-81310170D01*
X108783380Y-81361017D01*
X108957988Y-81369872D01*
X108985975Y-81371292D01*
X108985975Y-81371291D01*
X108985978Y-81371292D01*
X109186497Y-81340573D01*
X109376728Y-81270120D01*
X109548882Y-81162815D01*
X109695913Y-81023052D01*
X109811799Y-80856553D01*
X109891798Y-80670135D01*
X109932633Y-80471429D01*
X109934349Y-80403577D01*
X109935198Y-80370012D01*
X109935198Y-80369987D01*
X109932633Y-80268572D01*
X109932632Y-80268566D01*
X109891798Y-80069866D01*
X109891798Y-80069865D01*
X109811799Y-79883447D01*
X109695913Y-79716948D01*
X109548882Y-79577185D01*
X109376728Y-79469880D01*
X109376727Y-79469879D01*
X109376726Y-79469879D01*
X109281612Y-79434653D01*
X109186497Y-79399427D01*
X109186493Y-79399426D01*
X109186492Y-79399426D01*
X109070679Y-79381684D01*
X108985978Y-79368708D01*
X108985976Y-79368708D01*
X108985975Y-79368707D01*
X108791922Y-79378549D01*
X108783380Y-79378983D01*
X108783377Y-79378983D01*
X108586994Y-79429830D01*
X108404876Y-79519164D01*
X108404866Y-79519170D01*
X108244460Y-79643333D01*
X108244450Y-79643343D01*
X108112322Y-79797253D01*
X108112316Y-79797260D01*
X108013871Y-79974627D01*
X107953142Y-80168178D01*
X107932620Y-80370000D01*
X106380000Y-80370000D01*
X106380000Y-77549000D01*
X106394352Y-77514352D01*
X106429000Y-77500000D01*
X114270500Y-77500000D01*
X114305148Y-77514352D01*
G37*
G04 #@! TD.AperFunction*
G04 #@! TA.AperFunction,Conductor*
G36*
X127897444Y-112829852D02*
G01*
X127911796Y-112864500D01*
X127902022Y-112893865D01*
X127816648Y-113007908D01*
X127766401Y-113142626D01*
X127766401Y-113142627D01*
X127760000Y-113202165D01*
X127760000Y-113625000D01*
X129960000Y-113625000D01*
X129960000Y-113202165D01*
X129953598Y-113142627D01*
X129953598Y-113142626D01*
X129903351Y-113007908D01*
X129817978Y-112893865D01*
X129808703Y-112857527D01*
X129827839Y-112825274D01*
X129857204Y-112815500D01*
X134663872Y-112815500D01*
X134698520Y-112829852D01*
X135550148Y-113681480D01*
X135564500Y-113716128D01*
X135564500Y-114229709D01*
X135583947Y-114327475D01*
X135583950Y-114327484D01*
X135598300Y-114362127D01*
X135621242Y-114396462D01*
X135629500Y-114423685D01*
X135629500Y-114451000D01*
X135615148Y-114485648D01*
X135580500Y-114500000D01*
X134839500Y-114500000D01*
X134804852Y-114485648D01*
X134790500Y-114451000D01*
X134790500Y-113225326D01*
X134790499Y-113225322D01*
X134775966Y-113152260D01*
X134720601Y-113069398D01*
X134637739Y-113014033D01*
X134564677Y-112999500D01*
X134564674Y-112999500D01*
X133315326Y-112999500D01*
X133315322Y-112999500D01*
X133242260Y-113014033D01*
X133159398Y-113069398D01*
X133104033Y-113152260D01*
X133089500Y-113225322D01*
X133089500Y-114451000D01*
X133075148Y-114485648D01*
X133040500Y-114500000D01*
X132299500Y-114500000D01*
X132264852Y-114485648D01*
X132250500Y-114451000D01*
X132250500Y-113225326D01*
X132250499Y-113225322D01*
X132235966Y-113152260D01*
X132180601Y-113069398D01*
X132097739Y-113014033D01*
X132024677Y-112999500D01*
X132024674Y-112999500D01*
X130775326Y-112999500D01*
X130775322Y-112999500D01*
X130702260Y-113014033D01*
X130619398Y-113069398D01*
X130564033Y-113152260D01*
X130549500Y-113225322D01*
X130549500Y-114451000D01*
X130535148Y-114485648D01*
X130500500Y-114500000D01*
X130009000Y-114500000D01*
X129974352Y-114485648D01*
X129960000Y-114451000D01*
X129960000Y-114125000D01*
X129333527Y-114125000D01*
X129228408Y-114019881D01*
X129091591Y-113940889D01*
X128938991Y-113900000D01*
X128781009Y-113900000D01*
X128628409Y-113940889D01*
X128491592Y-114019881D01*
X128386473Y-114125000D01*
X127760000Y-114125000D01*
X127760000Y-114451000D01*
X127745648Y-114485648D01*
X127711000Y-114500000D01*
X127219500Y-114500000D01*
X127184852Y-114485648D01*
X127170500Y-114451000D01*
X127170500Y-114403752D01*
X127178759Y-114376527D01*
X127181698Y-114372130D01*
X127195389Y-114339076D01*
X127195847Y-114338073D01*
X127196043Y-114337497D01*
X127196050Y-114337482D01*
X127196051Y-114337480D01*
X127215500Y-114239704D01*
X127215500Y-113426127D01*
X127229852Y-113391479D01*
X127791480Y-112829852D01*
X127826128Y-112815500D01*
X127862796Y-112815500D01*
X127897444Y-112829852D01*
G37*
G04 #@! TD.AperFunction*
G04 #@! TA.AperFunction,Conductor*
G36*
X124465148Y-77514352D02*
G01*
X124479500Y-77549000D01*
X124479500Y-78774677D01*
X124494033Y-78847739D01*
X124549398Y-78930601D01*
X124632260Y-78985966D01*
X124705326Y-79000500D01*
X124840000Y-79000500D01*
X124874648Y-79014852D01*
X124889000Y-79049500D01*
X124889000Y-80778061D01*
X124919052Y-80890216D01*
X124919054Y-80890222D01*
X124947935Y-80940243D01*
X124954500Y-80964743D01*
X124954500Y-87599437D01*
X124980089Y-87694936D01*
X124980090Y-87694939D01*
X125028853Y-87779397D01*
X125028854Y-87779400D01*
X125029521Y-87780556D01*
X125029524Y-87780560D01*
X125029526Y-87780563D01*
X127389525Y-90140562D01*
X127459438Y-90210475D01*
X127490776Y-90228568D01*
X127545059Y-90259909D01*
X127545062Y-90259910D01*
X127592813Y-90272705D01*
X127608730Y-90276970D01*
X127640562Y-90285500D01*
X127640564Y-90285500D01*
X127640565Y-90285500D01*
X143484167Y-90285500D01*
X143518815Y-90299852D01*
X143681303Y-90462340D01*
X143695655Y-90496988D01*
X143695298Y-90502894D01*
X143684722Y-90589999D01*
X143703763Y-90746819D01*
X143759780Y-90894524D01*
X143790499Y-90939028D01*
X143849517Y-91024530D01*
X143849519Y-91024531D01*
X143849520Y-91024533D01*
X143871992Y-91044441D01*
X143967760Y-91129283D01*
X144107635Y-91202696D01*
X144261015Y-91240500D01*
X144261016Y-91240500D01*
X144418983Y-91240500D01*
X144418985Y-91240500D01*
X144572365Y-91202696D01*
X144712240Y-91129283D01*
X144808008Y-91044440D01*
X144843459Y-91032207D01*
X144877177Y-91048625D01*
X144889500Y-91081118D01*
X144889500Y-91724677D01*
X144904033Y-91797739D01*
X144959398Y-91880601D01*
X145015096Y-91917816D01*
X145042260Y-91935966D01*
X145115326Y-91950500D01*
X146341000Y-91950500D01*
X146375648Y-91964852D01*
X146390000Y-91999500D01*
X146390000Y-92740500D01*
X146375648Y-92775148D01*
X146341000Y-92789500D01*
X145115322Y-92789500D01*
X145042260Y-92804033D01*
X144959398Y-92859398D01*
X144904033Y-92942260D01*
X144889500Y-93015322D01*
X144889500Y-93168016D01*
X144875148Y-93202664D01*
X144865000Y-93210451D01*
X144820229Y-93236299D01*
X144820229Y-93236300D01*
X143696301Y-94360227D01*
X143696296Y-94360233D01*
X143676975Y-94393702D01*
X143676974Y-94393703D01*
X143629881Y-94475267D01*
X143629880Y-94475271D01*
X143595500Y-94603578D01*
X143595500Y-100419483D01*
X143586826Y-100447318D01*
X143539780Y-100515475D01*
X143483763Y-100663180D01*
X143464722Y-100820000D01*
X143483763Y-100976819D01*
X143539780Y-101124524D01*
X143585407Y-101190626D01*
X143629517Y-101254530D01*
X143747760Y-101359283D01*
X143887635Y-101432696D01*
X143926959Y-101442388D01*
X143957166Y-101464614D01*
X143962809Y-101501690D01*
X143940583Y-101531897D01*
X143938005Y-101533351D01*
X143847760Y-101580716D01*
X143729520Y-101685466D01*
X143729516Y-101685471D01*
X143639780Y-101815475D01*
X143583763Y-101963180D01*
X143564722Y-102120000D01*
X143583763Y-102276819D01*
X143639780Y-102424524D01*
X143688772Y-102495500D01*
X143729517Y-102554530D01*
X143729519Y-102554531D01*
X143729520Y-102554533D01*
X143779714Y-102599000D01*
X143847760Y-102659283D01*
X143987635Y-102732696D01*
X144141015Y-102770500D01*
X144141016Y-102770500D01*
X144298983Y-102770500D01*
X144298985Y-102770500D01*
X144452365Y-102732696D01*
X144592240Y-102659283D01*
X144710483Y-102554530D01*
X144736619Y-102516663D01*
X144768112Y-102496303D01*
X144776945Y-102495500D01*
X145299438Y-102495500D01*
X145328655Y-102487670D01*
X145347186Y-102482705D01*
X145394938Y-102469910D01*
X145480562Y-102420475D01*
X145550475Y-102350562D01*
X146060474Y-101840563D01*
X146060475Y-101840562D01*
X146109910Y-101754938D01*
X146128524Y-101685470D01*
X146135500Y-101659437D01*
X146135500Y-97079500D01*
X146149852Y-97044852D01*
X146184500Y-97030500D01*
X146341000Y-97030500D01*
X146375648Y-97044852D01*
X146390000Y-97079500D01*
X146390000Y-114451000D01*
X146375648Y-114485648D01*
X146341000Y-114500000D01*
X137447975Y-114500000D01*
X137413327Y-114485648D01*
X137398975Y-114451000D01*
X137407232Y-114423779D01*
X137421698Y-114402130D01*
X137435389Y-114369076D01*
X137435847Y-114368073D01*
X137436043Y-114367497D01*
X137436050Y-114367482D01*
X137436051Y-114367480D01*
X137455500Y-114269704D01*
X137455500Y-112860000D01*
X143747422Y-112860000D01*
X143767944Y-113061821D01*
X143802553Y-113172124D01*
X143828673Y-113255373D01*
X143866488Y-113323503D01*
X143927118Y-113432739D01*
X143927120Y-113432741D01*
X144059257Y-113586662D01*
X144059261Y-113586665D01*
X144059262Y-113586666D01*
X144070675Y-113595500D01*
X144219672Y-113710832D01*
X144219677Y-113710834D01*
X144219678Y-113710835D01*
X144401796Y-113800169D01*
X144401798Y-113800169D01*
X144401799Y-113800170D01*
X144598182Y-113851017D01*
X144772790Y-113859872D01*
X144800777Y-113861292D01*
X144800777Y-113861291D01*
X144800780Y-113861292D01*
X145001299Y-113830573D01*
X145191530Y-113760120D01*
X145363684Y-113652815D01*
X145510715Y-113513052D01*
X145626601Y-113346553D01*
X145706600Y-113160135D01*
X145747435Y-112961429D01*
X145750000Y-112860000D01*
X145749937Y-112857527D01*
X145747435Y-112758572D01*
X145747434Y-112758566D01*
X145714908Y-112600294D01*
X145706600Y-112559865D01*
X145626601Y-112373447D01*
X145510715Y-112206948D01*
X145363684Y-112067185D01*
X145191530Y-111959880D01*
X145191529Y-111959879D01*
X145191528Y-111959879D01*
X145096414Y-111924653D01*
X145001299Y-111889427D01*
X145001295Y-111889426D01*
X145001294Y-111889426D01*
X144914464Y-111876124D01*
X144800780Y-111858708D01*
X144800778Y-111858708D01*
X144800777Y-111858707D01*
X144606724Y-111868549D01*
X144598182Y-111868983D01*
X144598179Y-111868983D01*
X144401796Y-111919830D01*
X144219678Y-112009164D01*
X144219668Y-112009170D01*
X144059262Y-112133333D01*
X144059252Y-112133343D01*
X143927124Y-112287253D01*
X143927118Y-112287260D01*
X143828673Y-112464627D01*
X143767944Y-112658178D01*
X143747422Y-112860000D01*
X137455500Y-112860000D01*
X137455500Y-112600294D01*
X137447458Y-112559865D01*
X137436052Y-112502524D01*
X137436049Y-112502515D01*
X137421700Y-112467875D01*
X137421700Y-112467874D01*
X137421699Y-112467872D01*
X137421698Y-112467870D01*
X137366314Y-112384982D01*
X136185018Y-111203686D01*
X136102130Y-111148302D01*
X136102127Y-111148300D01*
X136102126Y-111148300D01*
X136069081Y-111134612D01*
X136068078Y-111134154D01*
X136067482Y-111133950D01*
X136067480Y-111133949D01*
X136067477Y-111133948D01*
X136067470Y-111133946D01*
X135969709Y-111114500D01*
X135969704Y-111114500D01*
X131596971Y-111114500D01*
X131562323Y-111100148D01*
X131547971Y-111065500D01*
X131562323Y-111030852D01*
X131572466Y-111023068D01*
X131576958Y-111020475D01*
X131646871Y-110950562D01*
X133240474Y-109356959D01*
X133255987Y-109330090D01*
X133289910Y-109271334D01*
X133302705Y-109223582D01*
X133315500Y-109175833D01*
X133315500Y-103064167D01*
X133304878Y-103024527D01*
X133304878Y-103024526D01*
X133289911Y-102968667D01*
X133289910Y-102968665D01*
X133240474Y-102883041D01*
X127869072Y-97511639D01*
X127854720Y-97476991D01*
X127869071Y-97442344D01*
X127872719Y-97438697D01*
X127872852Y-97438641D01*
X127887138Y-97424354D01*
X127887139Y-97424355D01*
X127940964Y-97370530D01*
X128021960Y-97241622D01*
X128072235Y-97097922D01*
X128089269Y-96946638D01*
X128089269Y-96946633D01*
X128072207Y-96795360D01*
X128072207Y-96795358D01*
X128072207Y-96795356D01*
X128021905Y-96651665D01*
X127940886Y-96522773D01*
X127889692Y-96471597D01*
X127887105Y-96469010D01*
X127880216Y-96462121D01*
X127880209Y-96462116D01*
X127833289Y-96415196D01*
X127833281Y-96415189D01*
X127704399Y-96334209D01*
X127704396Y-96334207D01*
X127560718Y-96283931D01*
X127560714Y-96283930D01*
X127560712Y-96283930D01*
X127409454Y-96266888D01*
X127280290Y-96281440D01*
X127244253Y-96271057D01*
X127226112Y-96238234D01*
X127226112Y-96227263D01*
X127233993Y-96157372D01*
X127240669Y-96098158D01*
X127240669Y-96098151D01*
X127223641Y-95946907D01*
X127223640Y-95946902D01*
X127223640Y-95946900D01*
X127173384Y-95803228D01*
X127096975Y-95681591D01*
X127092420Y-95674339D01*
X127092418Y-95674338D01*
X127079402Y-95661317D01*
X127079343Y-95661249D01*
X127038577Y-95620481D01*
X127038573Y-95620478D01*
X127003627Y-95585523D01*
X127000443Y-95582338D01*
X127000441Y-95582337D01*
X126998071Y-95579966D01*
X126997979Y-95579886D01*
X126984761Y-95566668D01*
X126984753Y-95566661D01*
X126855871Y-95485681D01*
X126855868Y-95485679D01*
X126712190Y-95435403D01*
X126712186Y-95435402D01*
X126712184Y-95435402D01*
X126560926Y-95418360D01*
X126409667Y-95435402D01*
X126409658Y-95435404D01*
X126265986Y-95485678D01*
X126265980Y-95485681D01*
X126137091Y-95566666D01*
X126065243Y-95638514D01*
X126030595Y-95652866D01*
X125995947Y-95638514D01*
X122159852Y-91802419D01*
X122145500Y-91767771D01*
X122145500Y-80745832D01*
X122159851Y-80711185D01*
X122467460Y-80403575D01*
X122489419Y-80390897D01*
X122545219Y-80375946D01*
X122645780Y-80317888D01*
X123142888Y-79820780D01*
X123200947Y-79720219D01*
X123230999Y-79608062D01*
X123231000Y-79608062D01*
X123231000Y-79049500D01*
X123245352Y-79014852D01*
X123280000Y-79000500D01*
X123414674Y-79000500D01*
X123487740Y-78985966D01*
X123570601Y-78930601D01*
X123625966Y-78847740D01*
X123640500Y-78774674D01*
X123640500Y-77549000D01*
X123654852Y-77514352D01*
X123689500Y-77500000D01*
X124430500Y-77500000D01*
X124465148Y-77514352D01*
G37*
G04 #@! TD.AperFunction*
G04 #@! TA.AperFunction,Conductor*
G36*
X145038958Y-94475309D02*
G01*
X145042259Y-94475965D01*
X145042260Y-94475966D01*
X145115326Y-94490500D01*
X146341000Y-94490500D01*
X146375648Y-94504852D01*
X146390000Y-94539500D01*
X146390000Y-95280500D01*
X146375648Y-95315148D01*
X146341000Y-95329500D01*
X145115322Y-95329500D01*
X145042260Y-95344033D01*
X144959398Y-95399398D01*
X144904033Y-95482260D01*
X144889500Y-95555322D01*
X144889500Y-96804677D01*
X144904033Y-96877739D01*
X144959398Y-96960601D01*
X145015096Y-96997816D01*
X145042260Y-97015966D01*
X145115326Y-97030500D01*
X145335500Y-97030500D01*
X145370148Y-97044852D01*
X145384500Y-97079500D01*
X145384500Y-101434167D01*
X145370148Y-101468815D01*
X145108815Y-101730148D01*
X145074167Y-101744500D01*
X144776945Y-101744500D01*
X144742297Y-101730148D01*
X144736623Y-101723342D01*
X144710483Y-101685470D01*
X144710478Y-101685466D01*
X144592239Y-101580716D01*
X144452364Y-101507303D01*
X144413040Y-101497611D01*
X144382833Y-101475385D01*
X144377190Y-101438309D01*
X144399416Y-101408102D01*
X144401995Y-101406648D01*
X144492238Y-101359284D01*
X144492237Y-101359284D01*
X144492240Y-101359283D01*
X144610483Y-101254530D01*
X144700220Y-101124523D01*
X144756237Y-100976818D01*
X144775278Y-100820000D01*
X144756237Y-100663182D01*
X144700220Y-100515477D01*
X144700219Y-100515475D01*
X144613174Y-100389367D01*
X144604500Y-100361532D01*
X144604500Y-94899266D01*
X144618851Y-94864619D01*
X144994751Y-94488718D01*
X145029398Y-94474367D01*
X145038958Y-94475309D01*
G37*
G04 #@! TD.AperFunction*
G04 #@! TA.AperFunction,Conductor*
G36*
X146375648Y-77514352D02*
G01*
X146390000Y-77549000D01*
X146390000Y-82580500D01*
X146375648Y-82615148D01*
X146341000Y-82629500D01*
X145115322Y-82629500D01*
X145042260Y-82644033D01*
X144959398Y-82699398D01*
X144904033Y-82782260D01*
X144889500Y-82855322D01*
X144889500Y-84104677D01*
X144904033Y-84177739D01*
X144959398Y-84260601D01*
X145015096Y-84297816D01*
X145042260Y-84315966D01*
X145115326Y-84330500D01*
X146341000Y-84330500D01*
X146375648Y-84344852D01*
X146390000Y-84379500D01*
X146390000Y-85120500D01*
X146375648Y-85155148D01*
X146341000Y-85169500D01*
X145115322Y-85169500D01*
X145042260Y-85184033D01*
X144959398Y-85239398D01*
X144904033Y-85322260D01*
X144889500Y-85395322D01*
X144889500Y-86644677D01*
X144904033Y-86717739D01*
X144959398Y-86800601D01*
X145015096Y-86837816D01*
X145042260Y-86855966D01*
X145115326Y-86870500D01*
X146341000Y-86870500D01*
X146375648Y-86884852D01*
X146390000Y-86919500D01*
X146390000Y-87660500D01*
X146375648Y-87695148D01*
X146341000Y-87709500D01*
X145115322Y-87709500D01*
X145042260Y-87724033D01*
X144959398Y-87779398D01*
X144904033Y-87862260D01*
X144889500Y-87935322D01*
X144889500Y-89184677D01*
X144904033Y-89257739D01*
X144959398Y-89340601D01*
X145015096Y-89377816D01*
X145042260Y-89395966D01*
X145115326Y-89410500D01*
X146341000Y-89410500D01*
X146375648Y-89424852D01*
X146390000Y-89459500D01*
X146390000Y-90200500D01*
X146375648Y-90235148D01*
X146341000Y-90249500D01*
X145115322Y-90249500D01*
X145042260Y-90264033D01*
X144988741Y-90299793D01*
X144951959Y-90307109D01*
X144921193Y-90286886D01*
X144861565Y-90200500D01*
X144830483Y-90155470D01*
X144830480Y-90155467D01*
X144830479Y-90155466D01*
X144712239Y-90050716D01*
X144572364Y-89977303D01*
X144451455Y-89947503D01*
X144418985Y-89939500D01*
X144261015Y-89939500D01*
X144261012Y-89939500D01*
X144255365Y-89940891D01*
X144218290Y-89935242D01*
X144208998Y-89927961D01*
X143890562Y-89609525D01*
X143804940Y-89560090D01*
X143804937Y-89560089D01*
X143757186Y-89547295D01*
X143709438Y-89534500D01*
X143709436Y-89534500D01*
X143709435Y-89534500D01*
X127865833Y-89534500D01*
X127831185Y-89520148D01*
X125719852Y-87408815D01*
X125705500Y-87374167D01*
X125705500Y-80964743D01*
X125712065Y-80940243D01*
X125740945Y-80890222D01*
X125740947Y-80890216D01*
X125771000Y-80778061D01*
X125771000Y-79049500D01*
X125785352Y-79014852D01*
X125820000Y-79000500D01*
X125954674Y-79000500D01*
X126027740Y-78985966D01*
X126110601Y-78930601D01*
X126165966Y-78847740D01*
X126180500Y-78774674D01*
X126180500Y-77549000D01*
X126194852Y-77514352D01*
X126229500Y-77500000D01*
X146341000Y-77500000D01*
X146375648Y-77514352D01*
G37*
G04 #@! TD.AperFunction*
G04 #@! TA.AperFunction,Conductor*
G36*
X136004352Y-111384352D02*
G01*
X137185648Y-112565648D01*
X137200000Y-112600296D01*
X137200000Y-114269704D01*
X137185648Y-114304352D01*
X137024352Y-114465648D01*
X136989704Y-114480000D01*
X136070296Y-114480000D01*
X136035648Y-114465648D01*
X135834352Y-114264352D01*
X135820000Y-114229704D01*
X135820000Y-113590000D01*
X134790000Y-112560000D01*
X127700000Y-112560000D01*
X126960000Y-113299999D01*
X126960000Y-114239704D01*
X126945648Y-114274352D01*
X126764352Y-114455648D01*
X126729704Y-114470000D01*
X125910296Y-114470000D01*
X125875648Y-114455648D01*
X125594352Y-114174352D01*
X125580000Y-114139704D01*
X125580000Y-113360000D01*
X124920000Y-112700000D01*
X121430000Y-112700000D01*
X120804352Y-113325648D01*
X120769704Y-113340000D01*
X116600296Y-113340000D01*
X116565648Y-113325648D01*
X116314352Y-113074352D01*
X116300000Y-113039704D01*
X116300000Y-111890296D01*
X116314352Y-111855648D01*
X116785648Y-111384352D01*
X116820296Y-111370000D01*
X135969704Y-111370000D01*
X136004352Y-111384352D01*
G37*
G04 #@! TD.AperFunction*
G04 #@! TA.AperFunction,NonConductor*
G36*
X129543704Y-112829852D02*
G01*
X129557986Y-112861877D01*
X129561139Y-112920713D01*
X129561140Y-112920716D01*
X129567387Y-112945189D01*
X129570416Y-112957056D01*
X129586585Y-112990852D01*
X129588592Y-113028301D01*
X129563530Y-113056201D01*
X129532824Y-113060057D01*
X129479753Y-113049500D01*
X129479748Y-113049500D01*
X128240252Y-113049500D01*
X128209055Y-113055705D01*
X128190012Y-113059493D01*
X128153229Y-113052176D01*
X128132394Y-113020993D01*
X128137036Y-112988720D01*
X128144444Y-112974559D01*
X128144444Y-112974558D01*
X128144446Y-112974555D01*
X128154220Y-112945190D01*
X128167296Y-112864498D01*
X128167295Y-112864497D01*
X128167997Y-112860170D01*
X128169275Y-112860377D01*
X128181049Y-112830469D01*
X128215438Y-112815508D01*
X128216304Y-112815500D01*
X129509056Y-112815500D01*
X129543704Y-112829852D01*
G37*
G04 #@! TD.AperFunction*
M02*
