G04 #@! TF.GenerationSoftware,KiCad,Pcbnew,8.0.0-rc1*
G04 #@! TF.CreationDate,2024-10-05T12:40:09+03:00*
G04 #@! TF.ProjectId,EC25_module,45433235-5f6d-46f6-9475-6c652e6b6963,rev?*
G04 #@! TF.SameCoordinates,Original*
G04 #@! TF.FileFunction,Soldermask,Top*
G04 #@! TF.FilePolarity,Negative*
%FSLAX46Y46*%
G04 Gerber Fmt 4.6, Leading zero omitted, Abs format (unit mm)*
G04 Created by KiCad (PCBNEW 8.0.0-rc1) date 2024-10-05 12:40:09*
%MOMM*%
%LPD*%
G01*
G04 APERTURE LIST*
G04 Aperture macros list*
%AMRoundRect*
0 Rectangle with rounded corners*
0 $1 Rounding radius*
0 $2 $3 $4 $5 $6 $7 $8 $9 X,Y pos of 4 corners*
0 Add a 4 corners polygon primitive as box body*
4,1,4,$2,$3,$4,$5,$6,$7,$8,$9,$2,$3,0*
0 Add four circle primitives for the rounded corners*
1,1,$1+$1,$2,$3*
1,1,$1+$1,$4,$5*
1,1,$1+$1,$6,$7*
1,1,$1+$1,$8,$9*
0 Add four rect primitives between the rounded corners*
20,1,$1+$1,$2,$3,$4,$5,0*
20,1,$1+$1,$4,$5,$6,$7,0*
20,1,$1+$1,$6,$7,$8,$9,0*
20,1,$1+$1,$8,$9,$2,$3,0*%
G04 Aperture macros list end*
%ADD10RoundRect,0.040000X-0.600000X0.625000X-0.600000X-0.625000X0.600000X-0.625000X0.600000X0.625000X0*%
%ADD11RoundRect,0.040000X0.600000X-0.625000X0.600000X0.625000X-0.600000X0.625000X-0.600000X-0.625000X0*%
%ADD12RoundRect,0.040000X0.625000X0.600000X-0.625000X0.600000X-0.625000X-0.600000X0.625000X-0.600000X0*%
%ADD13O,2.704000X1.004000*%
%ADD14O,1.004000X2.704000*%
%ADD15RoundRect,0.102000X1.000000X1.500000X-1.000000X1.500000X-1.000000X-1.500000X1.000000X-1.500000X0*%
%ADD16RoundRect,0.102000X0.550000X0.550000X-0.550000X0.550000X-0.550000X-0.550000X0.550000X-0.550000X0*%
%ADD17RoundRect,0.040000X-0.625000X-0.600000X0.625000X-0.600000X0.625000X0.600000X-0.625000X0.600000X0*%
G04 APERTURE END LIST*
D10*
X125330000Y-78125000D03*
X122790000Y-78125000D03*
X120250000Y-78125000D03*
X117710000Y-78125000D03*
X115170000Y-78125000D03*
D11*
X126320000Y-113875000D03*
X128860000Y-113875000D03*
X131400000Y-113875000D03*
X133940000Y-113875000D03*
X136480000Y-113875000D03*
D12*
X145765000Y-96180000D03*
X145765000Y-93640000D03*
X145765000Y-91100000D03*
X145765000Y-88560000D03*
X145765000Y-86020000D03*
X145765000Y-83480000D03*
D13*
X142170000Y-108630000D03*
X142170000Y-107330000D03*
X142170000Y-106030000D03*
X142170000Y-104730000D03*
X142170000Y-103430000D03*
X142170000Y-102130000D03*
X142170000Y-100830000D03*
X142170000Y-96430000D03*
X142170000Y-95130000D03*
X142170000Y-93830000D03*
X142170000Y-92530000D03*
X142170000Y-91230000D03*
X142170000Y-89930000D03*
X142170000Y-88630000D03*
X142170000Y-87330000D03*
X142170000Y-86030000D03*
X142170000Y-84730000D03*
X142170000Y-83430000D03*
D14*
X135970000Y-81780000D03*
X134670000Y-81780000D03*
X133370000Y-81780000D03*
X132070000Y-81780000D03*
X130770000Y-81780000D03*
X129470000Y-81780000D03*
X128170000Y-81780000D03*
X126870000Y-81780000D03*
X125570000Y-81780000D03*
X124270000Y-81780000D03*
X122970000Y-81780000D03*
X121670000Y-81780000D03*
X120370000Y-81780000D03*
X119070000Y-81780000D03*
X117770000Y-81780000D03*
X116470000Y-81780000D03*
X115170000Y-81780000D03*
X113870000Y-81780000D03*
D13*
X110670000Y-83430000D03*
X110670000Y-84730000D03*
X110670000Y-86030000D03*
X110670000Y-87330000D03*
X110670000Y-88630000D03*
X110670000Y-89930000D03*
X110670000Y-91230000D03*
X110670000Y-92530000D03*
X110670000Y-93830000D03*
X110670000Y-95130000D03*
X110670000Y-96430000D03*
X110670000Y-100830000D03*
X110670000Y-102130000D03*
X110670000Y-103430000D03*
X110670000Y-104730000D03*
X110670000Y-106030000D03*
X110670000Y-107330000D03*
X110670000Y-108630000D03*
D14*
X113870000Y-110280000D03*
X115170000Y-110280000D03*
X116470000Y-110280000D03*
X117770000Y-110280000D03*
X119070000Y-110280000D03*
X120370000Y-110280000D03*
X121670000Y-110280000D03*
X122970000Y-110280000D03*
X124270000Y-110280000D03*
X125570000Y-110280000D03*
X126870000Y-110280000D03*
X128170000Y-110280000D03*
X129470000Y-110280000D03*
X130770000Y-110280000D03*
X132070000Y-110280000D03*
X133370000Y-110280000D03*
X134670000Y-110280000D03*
X135970000Y-110280000D03*
D15*
X118220000Y-105630000D03*
X118220000Y-100830000D03*
X118220000Y-96030000D03*
X118220000Y-91230000D03*
X118220000Y-86430000D03*
X121420000Y-105630000D03*
X121420000Y-100830000D03*
X121420000Y-96030000D03*
X121420000Y-91230000D03*
X121420000Y-86430000D03*
X124820000Y-105630000D03*
X124820000Y-100830000D03*
X124820000Y-91230000D03*
X124820000Y-86430000D03*
X128020000Y-105630000D03*
X128020000Y-100830000D03*
X128020000Y-91230000D03*
X128020000Y-86430000D03*
X131420000Y-105630000D03*
X131420000Y-100830000D03*
X131420000Y-96030000D03*
X131420000Y-91230000D03*
X131420000Y-86430000D03*
X134620000Y-105630000D03*
X134620000Y-100830000D03*
X134620000Y-96030000D03*
X134620000Y-91230000D03*
X134620000Y-86430000D03*
D14*
X137270000Y-110280000D03*
X138570000Y-110280000D03*
X137270000Y-81780000D03*
X138570000Y-81780000D03*
D16*
X137420000Y-107030000D03*
X137420000Y-105030000D03*
X137420000Y-103030000D03*
X137420000Y-101030000D03*
X137420000Y-99030000D03*
X137420000Y-97030000D03*
X137420000Y-95030000D03*
X137420000Y-93030000D03*
X137420000Y-91030000D03*
X137420000Y-89030000D03*
X137420000Y-87030000D03*
X137420000Y-85030000D03*
X139420000Y-107030000D03*
X139420000Y-105030000D03*
X139420000Y-103030000D03*
X139420000Y-101030000D03*
X139420000Y-99030000D03*
X139420000Y-97030000D03*
X139420000Y-95030000D03*
X139420000Y-93030000D03*
X139420000Y-91030000D03*
X139420000Y-89030000D03*
X139420000Y-87030000D03*
X139420000Y-85030000D03*
D13*
X142170000Y-99030000D03*
X142170000Y-97730000D03*
X110670000Y-97730000D03*
X110670000Y-99030000D03*
D17*
X107005000Y-95450000D03*
X107005000Y-97990000D03*
X107005000Y-100530000D03*
X107005000Y-103070000D03*
X107005000Y-105610000D03*
M02*
