G04 #@! TF.GenerationSoftware,KiCad,Pcbnew,8.0.0-rc1*
G04 #@! TF.CreationDate,2024-10-05T12:40:09+03:00*
G04 #@! TF.ProjectId,EC25_module,45433235-5f6d-46f6-9475-6c652e6b6963,rev?*
G04 #@! TF.SameCoordinates,Original*
G04 #@! TF.FileFunction,Other,User*
%FSLAX46Y46*%
G04 Gerber Fmt 4.6, Leading zero omitted, Abs format (unit mm)*
G04 Created by KiCad (PCBNEW 8.0.0-rc1) date 2024-10-05 12:40:09*
%MOMM*%
%LPD*%
G01*
G04 APERTURE LIST*
%ADD10C,0.050000*%
G04 APERTURE END LIST*
D10*
X114195000Y-76875254D02*
X114195000Y-79350254D01*
X114195000Y-79350254D02*
X126595000Y-79350000D01*
X126595000Y-76875000D02*
X114195000Y-76875254D01*
X126595000Y-76875000D02*
X126595000Y-79350000D01*
X125055000Y-115125000D02*
X125055000Y-112650000D01*
X125055000Y-115125000D02*
X137455000Y-115124746D01*
X137455000Y-112649746D02*
X125055000Y-112650000D01*
X137455000Y-115124746D02*
X137455000Y-112649746D01*
X144539746Y-82505000D02*
X144535000Y-97360000D01*
X147010000Y-97360000D02*
X144535000Y-97360000D01*
X147010000Y-97360000D02*
X147014746Y-82505000D01*
X147014746Y-82505000D02*
X144539746Y-82505000D01*
X106420000Y-77530000D02*
X146420000Y-77530000D01*
X106420000Y-114530000D02*
X106420000Y-77530000D01*
X146420000Y-77530000D02*
X146420000Y-114530000D01*
X146420000Y-114530000D02*
X106420000Y-114530000D01*
X105755000Y-94185000D02*
X105755254Y-106585000D01*
X105755000Y-94185000D02*
X108230000Y-94185000D01*
X105755254Y-106585000D02*
X108230254Y-106585000D01*
X108230254Y-106585000D02*
X108230000Y-94185000D01*
M02*
