%TF.GenerationSoftware,KiCad,Pcbnew,7.99.0-1900-g89780d353a*%
%TF.CreationDate,2023-07-25T10:26:20+03:00*%
%TF.ProjectId,KSS,4b53532e-6b69-4636-9164-5f7063625858,rev?*%
%TF.SameCoordinates,Original*%
%TF.FileFunction,Paste,Top*%
%TF.FilePolarity,Positive*%
%FSLAX46Y46*%
G04 Gerber Fmt 4.6, Leading zero omitted, Abs format (unit mm)*
G04 Created by KiCad (PCBNEW 7.99.0-1900-g89780d353a) date 2023-07-25 10:26:20*
%MOMM*%
%LPD*%
G01*
G04 APERTURE LIST*
G04 Aperture macros list*
%AMRoundRect*
0 Rectangle with rounded corners*
0 $1 Rounding radius*
0 $2 $3 $4 $5 $6 $7 $8 $9 X,Y pos of 4 corners*
0 Add a 4 corners polygon primitive as box body*
4,1,4,$2,$3,$4,$5,$6,$7,$8,$9,$2,$3,0*
0 Add four circle primitives for the rounded corners*
1,1,$1+$1,$2,$3*
1,1,$1+$1,$4,$5*
1,1,$1+$1,$6,$7*
1,1,$1+$1,$8,$9*
0 Add four rect primitives between the rounded corners*
20,1,$1+$1,$2,$3,$4,$5,0*
20,1,$1+$1,$4,$5,$6,$7,0*
20,1,$1+$1,$6,$7,$8,$9,0*
20,1,$1+$1,$8,$9,$2,$3,0*%
G04 Aperture macros list end*
%ADD10RoundRect,0.200000X0.200000X0.275000X-0.200000X0.275000X-0.200000X-0.275000X0.200000X-0.275000X0*%
%ADD11RoundRect,0.200000X-0.200000X-0.275000X0.200000X-0.275000X0.200000X0.275000X-0.200000X0.275000X0*%
%ADD12RoundRect,0.200000X0.275000X-0.200000X0.275000X0.200000X-0.275000X0.200000X-0.275000X-0.200000X0*%
%ADD13RoundRect,0.200000X-0.275000X0.200000X-0.275000X-0.200000X0.275000X-0.200000X0.275000X0.200000X0*%
G04 APERTURE END LIST*
D10*
%TO.C,P8*%
X97430000Y-97100000D03*
X95780000Y-97100000D03*
%TD*%
%TO.C,P2*%
X97430000Y-82802408D03*
X95780000Y-82802408D03*
%TD*%
%TO.C,P3*%
X97430000Y-85185340D03*
X95780000Y-85185340D03*
%TD*%
D11*
%TO.C,P10*%
X99410000Y-82782408D03*
X101060000Y-82782408D03*
%TD*%
%TO.C,P11*%
X99410000Y-85165340D03*
X101060000Y-85165340D03*
%TD*%
D10*
%TO.C,I1*%
X97365000Y-78370000D03*
X95715000Y-78370000D03*
%TD*%
D11*
%TO.C,I2*%
X100105000Y-101210000D03*
X101755000Y-101210000D03*
%TD*%
D10*
%TO.C,P7*%
X97430000Y-94717068D03*
X95780000Y-94717068D03*
%TD*%
D11*
%TO.C,P9*%
X99410000Y-80399476D03*
X101060000Y-80399476D03*
%TD*%
%TO.C,P14*%
X99410000Y-92314136D03*
X101060000Y-92314136D03*
%TD*%
D12*
%TO.C,T1*%
X125240000Y-79335000D03*
X125240000Y-77685000D03*
%TD*%
D13*
%TO.C,T2*%
X151910000Y-100055000D03*
X151910000Y-101705000D03*
%TD*%
D10*
%TO.C,P1*%
X97430000Y-80419476D03*
X95780000Y-80419476D03*
%TD*%
%TO.C,P6*%
X97430000Y-92334136D03*
X95780000Y-92334136D03*
%TD*%
%TO.C,P4*%
X97430000Y-87568272D03*
X95780000Y-87568272D03*
%TD*%
D11*
%TO.C,P16*%
X99410000Y-97080000D03*
X101060000Y-97080000D03*
%TD*%
%TO.C,P15*%
X99410000Y-94697068D03*
X101060000Y-94697068D03*
%TD*%
D10*
%TO.C,P5*%
X97430000Y-89951204D03*
X95780000Y-89951204D03*
%TD*%
D11*
%TO.C,G2*%
X143715000Y-95710000D03*
X145365000Y-95710000D03*
%TD*%
%TO.C,P13*%
X99410000Y-89931204D03*
X101060000Y-89931204D03*
%TD*%
%TO.C,P12*%
X99410000Y-87548272D03*
X101060000Y-87548272D03*
%TD*%
%TO.C,G1*%
X143715000Y-92760000D03*
X145365000Y-92760000D03*
%TD*%
M02*
