%TF.GenerationSoftware,KiCad,Pcbnew,8.0.0-rc1*%
%TF.CreationDate,2025-03-26T09:49:16+03:00*%
%TF.ProjectId,Movita_3566_HXV_Router_V4.1,4d6f7669-7461-45f3-9335-36365f485856,REV1*%
%TF.SameCoordinates,Original*%
%TF.FileFunction,Drillmap*%
%TF.FilePolarity,Positive*%
%FSLAX45Y45*%
G04 Gerber Fmt 4.5, Leading zero omitted, Abs format (unit mm)*
G04 Created by KiCad (PCBNEW 8.0.0-rc1) date 2025-03-26 09:49:16*
%MOMM*%
%LPD*%
G01*
G04 APERTURE LIST*
%ADD10C,0.050000*%
%ADD11C,0.020000*%
%ADD12C,0.200000*%
%ADD13C,0.100000*%
%ADD14C,0.110000*%
%ADD15C,0.140000*%
%ADD16C,0.160000*%
%ADD17C,0.320000*%
%ADD18C,0.325000*%
G04 APERTURE END LIST*
D10*
X4747000Y-2555000D02*
X20347000Y-2555000D01*
X20347000Y-16755000D01*
X4747000Y-16755000D01*
X4747000Y-2555000D01*
X17704000Y-16419000D02*
X17444000Y-16419000D01*
X17444000Y-16669000D01*
X17704000Y-16669000D01*
X17704000Y-16419000D01*
X18244000Y-16419000D02*
X18504000Y-16419000D01*
X18504000Y-16669000D01*
X18244000Y-16669000D01*
X18244000Y-16419000D01*
X11319220Y-9692959D02*
X12481449Y-9692959D01*
X11319220Y-11214780D02*
X11319220Y-9692959D01*
X11319220Y-11214780D02*
X12823816Y-11214780D01*
X11334570Y-7685520D02*
X11334570Y-8562332D01*
X11334570Y-7685520D02*
X12167542Y-7685520D01*
X11334570Y-8562332D02*
X11791361Y-8562332D01*
X11791361Y-8178373D02*
X12167542Y-8178373D01*
X11791361Y-8562332D02*
X11791361Y-8178373D01*
X12167542Y-8178373D02*
X12167542Y-7685520D01*
X12481449Y-9692959D02*
X12481449Y-10286476D01*
X12481449Y-10286476D02*
X12823816Y-10286476D01*
X12823816Y-11214780D02*
X12823816Y-10286476D01*
X14560403Y-7587845D02*
X14560403Y-8559410D01*
X14560403Y-8559410D02*
X14900636Y-8559410D01*
X14900636Y-8559410D02*
X14900636Y-8795584D01*
X14900636Y-8795584D02*
X15518533Y-8795584D01*
X15518533Y-7587845D02*
X14560403Y-7587845D01*
X15518533Y-7587845D02*
X15518533Y-8795584D01*
X13628419Y-10682942D02*
X14937981Y-10682942D01*
X14937981Y-9496472D01*
X13628419Y-9496472D01*
X13628419Y-10682942D01*
D11*
X10043000Y-8383000D02*
G75*
G02*
X9953000Y-8383000I-45000J0D01*
G01*
X9953000Y-8383000D02*
G75*
G02*
X10043000Y-8383000I45000J0D01*
G01*
X10343000Y-8383000D02*
G75*
G02*
X10253000Y-8383000I-45000J0D01*
G01*
X10253000Y-8383000D02*
G75*
G02*
X10343000Y-8383000I45000J0D01*
G01*
D12*
D13*
X19097500Y-16236500D02*
X19162500Y-16301500D01*
X19162500Y-16236500D02*
X19097500Y-16301500D01*
X19675500Y-16236500D02*
X19740500Y-16301500D01*
X19740500Y-16236500D02*
X19675500Y-16301500D01*
X18701000Y-8024000D02*
G75*
G02*
X18601000Y-8024000I-50000J0D01*
G01*
X18601000Y-8024000D02*
G75*
G02*
X18701000Y-8024000I50000J0D01*
G01*
X18701000Y-8822000D02*
G75*
G02*
X18601000Y-8822000I-50000J0D01*
G01*
X18601000Y-8822000D02*
G75*
G02*
X18701000Y-8822000I50000J0D01*
G01*
D14*
X19296500Y-15536000D02*
X19296500Y-15646000D01*
X19241500Y-15591000D02*
X19351500Y-15591000D01*
D15*
X19581256Y-7826998D02*
X19581256Y-7728002D01*
X19482260Y-7728002D01*
X19482260Y-7826998D01*
X19581256Y-7826998D01*
X19581256Y-11145998D02*
X19581256Y-11047002D01*
X19482260Y-11047002D01*
X19482260Y-11145998D01*
X19581256Y-11145998D01*
D16*
X19296500Y-13671000D02*
X19376500Y-13591000D01*
X19296500Y-13511000D01*
X19216500Y-13591000D01*
X19296500Y-13671000D01*
D17*
X6474500Y-16322750D02*
X6794500Y-16642750D01*
X6794500Y-16322750D02*
X6474500Y-16642750D01*
X6794500Y-16482750D02*
G75*
G02*
X6474500Y-16482750I-160000J0D01*
G01*
X6474500Y-16482750D02*
G75*
G02*
X6794500Y-16482750I160000J0D01*
G01*
X7617500Y-16322750D02*
X7937500Y-16642750D01*
X7937500Y-16322750D02*
X7617500Y-16642750D01*
X7937500Y-16482750D02*
G75*
G02*
X7617500Y-16482750I-160000J0D01*
G01*
X7617500Y-16482750D02*
G75*
G02*
X7937500Y-16482750I160000J0D01*
G01*
D18*
X9550500Y-2604500D02*
X9875500Y-2929500D01*
X9875500Y-2604500D02*
X9550500Y-2929500D01*
X9713000Y-2604500D02*
X9713000Y-2929500D01*
X9550500Y-2767000D02*
X9875500Y-2767000D01*
X12400500Y-2604500D02*
X12725500Y-2929500D01*
X12725500Y-2604500D02*
X12400500Y-2929500D01*
X12563000Y-2604500D02*
X12563000Y-2929500D01*
X12400500Y-2767000D02*
X12725500Y-2767000D01*
X13229000Y-2604500D02*
X13554000Y-2929500D01*
X13554000Y-2604500D02*
X13229000Y-2929500D01*
X13391500Y-2604500D02*
X13391500Y-2929500D01*
X13229000Y-2767000D02*
X13554000Y-2767000D01*
X19239000Y-2604500D02*
X19564000Y-2929500D01*
X19564000Y-2604500D02*
X19239000Y-2929500D01*
X19401500Y-2604500D02*
X19401500Y-2929500D01*
X19239000Y-2767000D02*
X19564000Y-2767000D01*
D12*
X5005277Y-17068984D02*
X5005277Y-16868984D01*
X5005277Y-16868984D02*
X5052896Y-16868984D01*
X5052896Y-16868984D02*
X5081467Y-16878508D01*
X5081467Y-16878508D02*
X5100515Y-16897555D01*
X5100515Y-16897555D02*
X5110039Y-16916603D01*
X5110039Y-16916603D02*
X5119563Y-16954698D01*
X5119563Y-16954698D02*
X5119563Y-16983270D01*
X5119563Y-16983270D02*
X5110039Y-17021365D01*
X5110039Y-17021365D02*
X5100515Y-17040412D01*
X5100515Y-17040412D02*
X5081467Y-17059460D01*
X5081467Y-17059460D02*
X5052896Y-17068984D01*
X5052896Y-17068984D02*
X5005277Y-17068984D01*
X5205277Y-17068984D02*
X5205277Y-16935650D01*
X5205277Y-16973746D02*
X5214801Y-16954698D01*
X5214801Y-16954698D02*
X5224324Y-16945174D01*
X5224324Y-16945174D02*
X5243372Y-16935650D01*
X5243372Y-16935650D02*
X5262420Y-16935650D01*
X5329086Y-17068984D02*
X5329086Y-16935650D01*
X5329086Y-16868984D02*
X5319563Y-16878508D01*
X5319563Y-16878508D02*
X5329086Y-16888031D01*
X5329086Y-16888031D02*
X5338610Y-16878508D01*
X5338610Y-16878508D02*
X5329086Y-16868984D01*
X5329086Y-16868984D02*
X5329086Y-16888031D01*
X5452896Y-17068984D02*
X5433848Y-17059460D01*
X5433848Y-17059460D02*
X5424324Y-17040412D01*
X5424324Y-17040412D02*
X5424324Y-16868984D01*
X5557658Y-17068984D02*
X5538610Y-17059460D01*
X5538610Y-17059460D02*
X5529086Y-17040412D01*
X5529086Y-17040412D02*
X5529086Y-16868984D01*
X5786229Y-17068984D02*
X5786229Y-16868984D01*
X5786229Y-16868984D02*
X5852896Y-17011841D01*
X5852896Y-17011841D02*
X5919562Y-16868984D01*
X5919562Y-16868984D02*
X5919562Y-17068984D01*
X6100515Y-17068984D02*
X6100515Y-16964222D01*
X6100515Y-16964222D02*
X6090991Y-16945174D01*
X6090991Y-16945174D02*
X6071943Y-16935650D01*
X6071943Y-16935650D02*
X6033848Y-16935650D01*
X6033848Y-16935650D02*
X6014801Y-16945174D01*
X6100515Y-17059460D02*
X6081467Y-17068984D01*
X6081467Y-17068984D02*
X6033848Y-17068984D01*
X6033848Y-17068984D02*
X6014801Y-17059460D01*
X6014801Y-17059460D02*
X6005277Y-17040412D01*
X6005277Y-17040412D02*
X6005277Y-17021365D01*
X6005277Y-17021365D02*
X6014801Y-17002317D01*
X6014801Y-17002317D02*
X6033848Y-16992793D01*
X6033848Y-16992793D02*
X6081467Y-16992793D01*
X6081467Y-16992793D02*
X6100515Y-16983270D01*
X6195753Y-16935650D02*
X6195753Y-17135650D01*
X6195753Y-16945174D02*
X6214801Y-16935650D01*
X6214801Y-16935650D02*
X6252896Y-16935650D01*
X6252896Y-16935650D02*
X6271943Y-16945174D01*
X6271943Y-16945174D02*
X6281467Y-16954698D01*
X6281467Y-16954698D02*
X6290991Y-16973746D01*
X6290991Y-16973746D02*
X6290991Y-17030889D01*
X6290991Y-17030889D02*
X6281467Y-17049936D01*
X6281467Y-17049936D02*
X6271943Y-17059460D01*
X6271943Y-17059460D02*
X6252896Y-17068984D01*
X6252896Y-17068984D02*
X6214801Y-17068984D01*
X6214801Y-17068984D02*
X6195753Y-17059460D01*
X6376705Y-17049936D02*
X6386229Y-17059460D01*
X6386229Y-17059460D02*
X6376705Y-17068984D01*
X6376705Y-17068984D02*
X6367182Y-17059460D01*
X6367182Y-17059460D02*
X6376705Y-17049936D01*
X6376705Y-17049936D02*
X6376705Y-17068984D01*
X6376705Y-16945174D02*
X6386229Y-16954698D01*
X6386229Y-16954698D02*
X6376705Y-16964222D01*
X6376705Y-16964222D02*
X6367182Y-16954698D01*
X6367182Y-16954698D02*
X6376705Y-16945174D01*
X6376705Y-16945174D02*
X6376705Y-16964222D01*
D13*
X4679500Y-17365000D02*
X4744500Y-17430000D01*
X4744500Y-17365000D02*
X4679500Y-17430000D01*
D12*
X5043372Y-17288984D02*
X5062420Y-17288984D01*
X5062420Y-17288984D02*
X5081467Y-17298508D01*
X5081467Y-17298508D02*
X5090991Y-17308031D01*
X5090991Y-17308031D02*
X5100515Y-17327079D01*
X5100515Y-17327079D02*
X5110039Y-17365174D01*
X5110039Y-17365174D02*
X5110039Y-17412793D01*
X5110039Y-17412793D02*
X5100515Y-17450889D01*
X5100515Y-17450889D02*
X5090991Y-17469936D01*
X5090991Y-17469936D02*
X5081467Y-17479460D01*
X5081467Y-17479460D02*
X5062420Y-17488984D01*
X5062420Y-17488984D02*
X5043372Y-17488984D01*
X5043372Y-17488984D02*
X5024324Y-17479460D01*
X5024324Y-17479460D02*
X5014801Y-17469936D01*
X5014801Y-17469936D02*
X5005277Y-17450889D01*
X5005277Y-17450889D02*
X4995753Y-17412793D01*
X4995753Y-17412793D02*
X4995753Y-17365174D01*
X4995753Y-17365174D02*
X5005277Y-17327079D01*
X5005277Y-17327079D02*
X5014801Y-17308031D01*
X5014801Y-17308031D02*
X5024324Y-17298508D01*
X5024324Y-17298508D02*
X5043372Y-17288984D01*
X5195753Y-17469936D02*
X5205277Y-17479460D01*
X5205277Y-17479460D02*
X5195753Y-17488984D01*
X5195753Y-17488984D02*
X5186229Y-17479460D01*
X5186229Y-17479460D02*
X5195753Y-17469936D01*
X5195753Y-17469936D02*
X5195753Y-17488984D01*
X5376705Y-17288984D02*
X5338610Y-17288984D01*
X5338610Y-17288984D02*
X5319563Y-17298508D01*
X5319563Y-17298508D02*
X5310039Y-17308031D01*
X5310039Y-17308031D02*
X5290991Y-17336603D01*
X5290991Y-17336603D02*
X5281467Y-17374698D01*
X5281467Y-17374698D02*
X5281467Y-17450889D01*
X5281467Y-17450889D02*
X5290991Y-17469936D01*
X5290991Y-17469936D02*
X5300515Y-17479460D01*
X5300515Y-17479460D02*
X5319563Y-17488984D01*
X5319563Y-17488984D02*
X5357658Y-17488984D01*
X5357658Y-17488984D02*
X5376705Y-17479460D01*
X5376705Y-17479460D02*
X5386229Y-17469936D01*
X5386229Y-17469936D02*
X5395753Y-17450889D01*
X5395753Y-17450889D02*
X5395753Y-17403270D01*
X5395753Y-17403270D02*
X5386229Y-17384222D01*
X5386229Y-17384222D02*
X5376705Y-17374698D01*
X5376705Y-17374698D02*
X5357658Y-17365174D01*
X5357658Y-17365174D02*
X5319563Y-17365174D01*
X5319563Y-17365174D02*
X5300515Y-17374698D01*
X5300515Y-17374698D02*
X5290991Y-17384222D01*
X5290991Y-17384222D02*
X5281467Y-17403270D01*
X5576705Y-17288984D02*
X5481467Y-17288984D01*
X5481467Y-17288984D02*
X5471944Y-17384222D01*
X5471944Y-17384222D02*
X5481467Y-17374698D01*
X5481467Y-17374698D02*
X5500515Y-17365174D01*
X5500515Y-17365174D02*
X5548134Y-17365174D01*
X5548134Y-17365174D02*
X5567182Y-17374698D01*
X5567182Y-17374698D02*
X5576705Y-17384222D01*
X5576705Y-17384222D02*
X5586229Y-17403270D01*
X5586229Y-17403270D02*
X5586229Y-17450889D01*
X5586229Y-17450889D02*
X5576705Y-17469936D01*
X5576705Y-17469936D02*
X5567182Y-17479460D01*
X5567182Y-17479460D02*
X5548134Y-17488984D01*
X5548134Y-17488984D02*
X5500515Y-17488984D01*
X5500515Y-17488984D02*
X5481467Y-17479460D01*
X5481467Y-17479460D02*
X5471944Y-17469936D01*
X5710039Y-17288984D02*
X5729086Y-17288984D01*
X5729086Y-17288984D02*
X5748134Y-17298508D01*
X5748134Y-17298508D02*
X5757658Y-17308031D01*
X5757658Y-17308031D02*
X5767182Y-17327079D01*
X5767182Y-17327079D02*
X5776705Y-17365174D01*
X5776705Y-17365174D02*
X5776705Y-17412793D01*
X5776705Y-17412793D02*
X5767182Y-17450889D01*
X5767182Y-17450889D02*
X5757658Y-17469936D01*
X5757658Y-17469936D02*
X5748134Y-17479460D01*
X5748134Y-17479460D02*
X5729086Y-17488984D01*
X5729086Y-17488984D02*
X5710039Y-17488984D01*
X5710039Y-17488984D02*
X5690991Y-17479460D01*
X5690991Y-17479460D02*
X5681467Y-17469936D01*
X5681467Y-17469936D02*
X5671943Y-17450889D01*
X5671943Y-17450889D02*
X5662420Y-17412793D01*
X5662420Y-17412793D02*
X5662420Y-17365174D01*
X5662420Y-17365174D02*
X5671943Y-17327079D01*
X5671943Y-17327079D02*
X5681467Y-17308031D01*
X5681467Y-17308031D02*
X5690991Y-17298508D01*
X5690991Y-17298508D02*
X5710039Y-17288984D01*
X5862420Y-17488984D02*
X5862420Y-17355650D01*
X5862420Y-17374698D02*
X5871943Y-17365174D01*
X5871943Y-17365174D02*
X5890991Y-17355650D01*
X5890991Y-17355650D02*
X5919563Y-17355650D01*
X5919563Y-17355650D02*
X5938610Y-17365174D01*
X5938610Y-17365174D02*
X5948134Y-17384222D01*
X5948134Y-17384222D02*
X5948134Y-17488984D01*
X5948134Y-17384222D02*
X5957658Y-17365174D01*
X5957658Y-17365174D02*
X5976705Y-17355650D01*
X5976705Y-17355650D02*
X6005277Y-17355650D01*
X6005277Y-17355650D02*
X6024324Y-17365174D01*
X6024324Y-17365174D02*
X6033848Y-17384222D01*
X6033848Y-17384222D02*
X6033848Y-17488984D01*
X6129086Y-17488984D02*
X6129086Y-17355650D01*
X6129086Y-17374698D02*
X6138610Y-17365174D01*
X6138610Y-17365174D02*
X6157658Y-17355650D01*
X6157658Y-17355650D02*
X6186229Y-17355650D01*
X6186229Y-17355650D02*
X6205277Y-17365174D01*
X6205277Y-17365174D02*
X6214801Y-17384222D01*
X6214801Y-17384222D02*
X6214801Y-17488984D01*
X6214801Y-17384222D02*
X6224324Y-17365174D01*
X6224324Y-17365174D02*
X6243372Y-17355650D01*
X6243372Y-17355650D02*
X6271943Y-17355650D01*
X6271943Y-17355650D02*
X6290991Y-17365174D01*
X6290991Y-17365174D02*
X6300515Y-17384222D01*
X6300515Y-17384222D02*
X6300515Y-17488984D01*
X6690991Y-17279460D02*
X6519563Y-17536603D01*
X6948134Y-17288984D02*
X6967182Y-17288984D01*
X6967182Y-17288984D02*
X6986229Y-17298508D01*
X6986229Y-17298508D02*
X6995753Y-17308031D01*
X6995753Y-17308031D02*
X7005277Y-17327079D01*
X7005277Y-17327079D02*
X7014801Y-17365174D01*
X7014801Y-17365174D02*
X7014801Y-17412793D01*
X7014801Y-17412793D02*
X7005277Y-17450889D01*
X7005277Y-17450889D02*
X6995753Y-17469936D01*
X6995753Y-17469936D02*
X6986229Y-17479460D01*
X6986229Y-17479460D02*
X6967182Y-17488984D01*
X6967182Y-17488984D02*
X6948134Y-17488984D01*
X6948134Y-17488984D02*
X6929086Y-17479460D01*
X6929086Y-17479460D02*
X6919563Y-17469936D01*
X6919563Y-17469936D02*
X6910039Y-17450889D01*
X6910039Y-17450889D02*
X6900515Y-17412793D01*
X6900515Y-17412793D02*
X6900515Y-17365174D01*
X6900515Y-17365174D02*
X6910039Y-17327079D01*
X6910039Y-17327079D02*
X6919563Y-17308031D01*
X6919563Y-17308031D02*
X6929086Y-17298508D01*
X6929086Y-17298508D02*
X6948134Y-17288984D01*
X7100515Y-17469936D02*
X7110039Y-17479460D01*
X7110039Y-17479460D02*
X7100515Y-17488984D01*
X7100515Y-17488984D02*
X7090991Y-17479460D01*
X7090991Y-17479460D02*
X7100515Y-17469936D01*
X7100515Y-17469936D02*
X7100515Y-17488984D01*
X7233848Y-17288984D02*
X7252896Y-17288984D01*
X7252896Y-17288984D02*
X7271944Y-17298508D01*
X7271944Y-17298508D02*
X7281467Y-17308031D01*
X7281467Y-17308031D02*
X7290991Y-17327079D01*
X7290991Y-17327079D02*
X7300515Y-17365174D01*
X7300515Y-17365174D02*
X7300515Y-17412793D01*
X7300515Y-17412793D02*
X7290991Y-17450889D01*
X7290991Y-17450889D02*
X7281467Y-17469936D01*
X7281467Y-17469936D02*
X7271944Y-17479460D01*
X7271944Y-17479460D02*
X7252896Y-17488984D01*
X7252896Y-17488984D02*
X7233848Y-17488984D01*
X7233848Y-17488984D02*
X7214801Y-17479460D01*
X7214801Y-17479460D02*
X7205277Y-17469936D01*
X7205277Y-17469936D02*
X7195753Y-17450889D01*
X7195753Y-17450889D02*
X7186229Y-17412793D01*
X7186229Y-17412793D02*
X7186229Y-17365174D01*
X7186229Y-17365174D02*
X7195753Y-17327079D01*
X7195753Y-17327079D02*
X7205277Y-17308031D01*
X7205277Y-17308031D02*
X7214801Y-17298508D01*
X7214801Y-17298508D02*
X7233848Y-17288984D01*
X7376706Y-17308031D02*
X7386229Y-17298508D01*
X7386229Y-17298508D02*
X7405277Y-17288984D01*
X7405277Y-17288984D02*
X7452896Y-17288984D01*
X7452896Y-17288984D02*
X7471944Y-17298508D01*
X7471944Y-17298508D02*
X7481467Y-17308031D01*
X7481467Y-17308031D02*
X7490991Y-17327079D01*
X7490991Y-17327079D02*
X7490991Y-17346127D01*
X7490991Y-17346127D02*
X7481467Y-17374698D01*
X7481467Y-17374698D02*
X7367182Y-17488984D01*
X7367182Y-17488984D02*
X7490991Y-17488984D01*
X7671944Y-17288984D02*
X7576706Y-17288984D01*
X7576706Y-17288984D02*
X7567182Y-17384222D01*
X7567182Y-17384222D02*
X7576706Y-17374698D01*
X7576706Y-17374698D02*
X7595753Y-17365174D01*
X7595753Y-17365174D02*
X7643372Y-17365174D01*
X7643372Y-17365174D02*
X7662420Y-17374698D01*
X7662420Y-17374698D02*
X7671944Y-17384222D01*
X7671944Y-17384222D02*
X7681467Y-17403270D01*
X7681467Y-17403270D02*
X7681467Y-17450889D01*
X7681467Y-17450889D02*
X7671944Y-17469936D01*
X7671944Y-17469936D02*
X7662420Y-17479460D01*
X7662420Y-17479460D02*
X7643372Y-17488984D01*
X7643372Y-17488984D02*
X7595753Y-17488984D01*
X7595753Y-17488984D02*
X7576706Y-17479460D01*
X7576706Y-17479460D02*
X7567182Y-17469936D01*
X7852896Y-17288984D02*
X7814801Y-17288984D01*
X7814801Y-17288984D02*
X7795753Y-17298508D01*
X7795753Y-17298508D02*
X7786229Y-17308031D01*
X7786229Y-17308031D02*
X7767182Y-17336603D01*
X7767182Y-17336603D02*
X7757658Y-17374698D01*
X7757658Y-17374698D02*
X7757658Y-17450889D01*
X7757658Y-17450889D02*
X7767182Y-17469936D01*
X7767182Y-17469936D02*
X7776706Y-17479460D01*
X7776706Y-17479460D02*
X7795753Y-17488984D01*
X7795753Y-17488984D02*
X7833848Y-17488984D01*
X7833848Y-17488984D02*
X7852896Y-17479460D01*
X7852896Y-17479460D02*
X7862420Y-17469936D01*
X7862420Y-17469936D02*
X7871944Y-17450889D01*
X7871944Y-17450889D02*
X7871944Y-17403270D01*
X7871944Y-17403270D02*
X7862420Y-17384222D01*
X7862420Y-17384222D02*
X7852896Y-17374698D01*
X7852896Y-17374698D02*
X7833848Y-17365174D01*
X7833848Y-17365174D02*
X7795753Y-17365174D01*
X7795753Y-17365174D02*
X7776706Y-17374698D01*
X7776706Y-17374698D02*
X7767182Y-17384222D01*
X7767182Y-17384222D02*
X7757658Y-17403270D01*
X7948134Y-17288984D02*
X7948134Y-17327079D01*
X8024325Y-17288984D02*
X8024325Y-17327079D01*
X8319563Y-17565174D02*
X8310039Y-17555650D01*
X8310039Y-17555650D02*
X8290991Y-17527079D01*
X8290991Y-17527079D02*
X8281468Y-17508031D01*
X8281468Y-17508031D02*
X8271944Y-17479460D01*
X8271944Y-17479460D02*
X8262420Y-17431841D01*
X8262420Y-17431841D02*
X8262420Y-17393746D01*
X8262420Y-17393746D02*
X8271944Y-17346127D01*
X8271944Y-17346127D02*
X8281468Y-17317555D01*
X8281468Y-17317555D02*
X8290991Y-17298508D01*
X8290991Y-17298508D02*
X8310039Y-17269936D01*
X8310039Y-17269936D02*
X8319563Y-17260412D01*
X8386229Y-17308031D02*
X8395753Y-17298508D01*
X8395753Y-17298508D02*
X8414801Y-17288984D01*
X8414801Y-17288984D02*
X8462420Y-17288984D01*
X8462420Y-17288984D02*
X8481468Y-17298508D01*
X8481468Y-17298508D02*
X8490991Y-17308031D01*
X8490991Y-17308031D02*
X8500515Y-17327079D01*
X8500515Y-17327079D02*
X8500515Y-17346127D01*
X8500515Y-17346127D02*
X8490991Y-17374698D01*
X8490991Y-17374698D02*
X8376706Y-17488984D01*
X8376706Y-17488984D02*
X8500515Y-17488984D01*
X8738611Y-17488984D02*
X8738611Y-17288984D01*
X8824325Y-17488984D02*
X8824325Y-17384222D01*
X8824325Y-17384222D02*
X8814801Y-17365174D01*
X8814801Y-17365174D02*
X8795753Y-17355650D01*
X8795753Y-17355650D02*
X8767182Y-17355650D01*
X8767182Y-17355650D02*
X8748134Y-17365174D01*
X8748134Y-17365174D02*
X8738611Y-17374698D01*
X8948134Y-17488984D02*
X8929087Y-17479460D01*
X8929087Y-17479460D02*
X8919563Y-17469936D01*
X8919563Y-17469936D02*
X8910039Y-17450889D01*
X8910039Y-17450889D02*
X8910039Y-17393746D01*
X8910039Y-17393746D02*
X8919563Y-17374698D01*
X8919563Y-17374698D02*
X8929087Y-17365174D01*
X8929087Y-17365174D02*
X8948134Y-17355650D01*
X8948134Y-17355650D02*
X8976706Y-17355650D01*
X8976706Y-17355650D02*
X8995753Y-17365174D01*
X8995753Y-17365174D02*
X9005277Y-17374698D01*
X9005277Y-17374698D02*
X9014801Y-17393746D01*
X9014801Y-17393746D02*
X9014801Y-17450889D01*
X9014801Y-17450889D02*
X9005277Y-17469936D01*
X9005277Y-17469936D02*
X8995753Y-17479460D01*
X8995753Y-17479460D02*
X8976706Y-17488984D01*
X8976706Y-17488984D02*
X8948134Y-17488984D01*
X9129087Y-17488984D02*
X9110039Y-17479460D01*
X9110039Y-17479460D02*
X9100515Y-17460412D01*
X9100515Y-17460412D02*
X9100515Y-17288984D01*
X9281468Y-17479460D02*
X9262420Y-17488984D01*
X9262420Y-17488984D02*
X9224325Y-17488984D01*
X9224325Y-17488984D02*
X9205277Y-17479460D01*
X9205277Y-17479460D02*
X9195753Y-17460412D01*
X9195753Y-17460412D02*
X9195753Y-17384222D01*
X9195753Y-17384222D02*
X9205277Y-17365174D01*
X9205277Y-17365174D02*
X9224325Y-17355650D01*
X9224325Y-17355650D02*
X9262420Y-17355650D01*
X9262420Y-17355650D02*
X9281468Y-17365174D01*
X9281468Y-17365174D02*
X9290992Y-17384222D01*
X9290992Y-17384222D02*
X9290992Y-17403270D01*
X9290992Y-17403270D02*
X9195753Y-17422317D01*
X9367182Y-17479460D02*
X9386230Y-17488984D01*
X9386230Y-17488984D02*
X9424325Y-17488984D01*
X9424325Y-17488984D02*
X9443373Y-17479460D01*
X9443373Y-17479460D02*
X9452896Y-17460412D01*
X9452896Y-17460412D02*
X9452896Y-17450889D01*
X9452896Y-17450889D02*
X9443373Y-17431841D01*
X9443373Y-17431841D02*
X9424325Y-17422317D01*
X9424325Y-17422317D02*
X9395753Y-17422317D01*
X9395753Y-17422317D02*
X9376706Y-17412793D01*
X9376706Y-17412793D02*
X9367182Y-17393746D01*
X9367182Y-17393746D02*
X9367182Y-17384222D01*
X9367182Y-17384222D02*
X9376706Y-17365174D01*
X9376706Y-17365174D02*
X9395753Y-17355650D01*
X9395753Y-17355650D02*
X9424325Y-17355650D01*
X9424325Y-17355650D02*
X9443373Y-17365174D01*
X9519563Y-17565174D02*
X9529087Y-17555650D01*
X9529087Y-17555650D02*
X9548134Y-17527079D01*
X9548134Y-17527079D02*
X9557658Y-17508031D01*
X9557658Y-17508031D02*
X9567182Y-17479460D01*
X9567182Y-17479460D02*
X9576706Y-17431841D01*
X9576706Y-17431841D02*
X9576706Y-17393746D01*
X9576706Y-17393746D02*
X9567182Y-17346127D01*
X9567182Y-17346127D02*
X9557658Y-17317555D01*
X9557658Y-17317555D02*
X9548134Y-17298508D01*
X9548134Y-17298508D02*
X9529087Y-17269936D01*
X9529087Y-17269936D02*
X9519563Y-17260412D01*
X9881468Y-17565174D02*
X9871944Y-17555650D01*
X9871944Y-17555650D02*
X9852896Y-17527079D01*
X9852896Y-17527079D02*
X9843373Y-17508031D01*
X9843373Y-17508031D02*
X9833849Y-17479460D01*
X9833849Y-17479460D02*
X9824325Y-17431841D01*
X9824325Y-17431841D02*
X9824325Y-17393746D01*
X9824325Y-17393746D02*
X9833849Y-17346127D01*
X9833849Y-17346127D02*
X9843373Y-17317555D01*
X9843373Y-17317555D02*
X9852896Y-17298508D01*
X9852896Y-17298508D02*
X9871944Y-17269936D01*
X9871944Y-17269936D02*
X9881468Y-17260412D01*
X9957658Y-17355650D02*
X9957658Y-17488984D01*
X9957658Y-17374698D02*
X9967182Y-17365174D01*
X9967182Y-17365174D02*
X9986230Y-17355650D01*
X9986230Y-17355650D02*
X10014801Y-17355650D01*
X10014801Y-17355650D02*
X10033849Y-17365174D01*
X10033849Y-17365174D02*
X10043373Y-17384222D01*
X10043373Y-17384222D02*
X10043373Y-17488984D01*
X10167182Y-17488984D02*
X10148134Y-17479460D01*
X10148134Y-17479460D02*
X10138611Y-17469936D01*
X10138611Y-17469936D02*
X10129087Y-17450889D01*
X10129087Y-17450889D02*
X10129087Y-17393746D01*
X10129087Y-17393746D02*
X10138611Y-17374698D01*
X10138611Y-17374698D02*
X10148134Y-17365174D01*
X10148134Y-17365174D02*
X10167182Y-17355650D01*
X10167182Y-17355650D02*
X10195754Y-17355650D01*
X10195754Y-17355650D02*
X10214801Y-17365174D01*
X10214801Y-17365174D02*
X10224325Y-17374698D01*
X10224325Y-17374698D02*
X10233849Y-17393746D01*
X10233849Y-17393746D02*
X10233849Y-17450889D01*
X10233849Y-17450889D02*
X10224325Y-17469936D01*
X10224325Y-17469936D02*
X10214801Y-17479460D01*
X10214801Y-17479460D02*
X10195754Y-17488984D01*
X10195754Y-17488984D02*
X10167182Y-17488984D01*
X10290992Y-17355650D02*
X10367182Y-17355650D01*
X10319563Y-17288984D02*
X10319563Y-17460412D01*
X10319563Y-17460412D02*
X10329087Y-17479460D01*
X10329087Y-17479460D02*
X10348134Y-17488984D01*
X10348134Y-17488984D02*
X10367182Y-17488984D01*
X10586230Y-17355650D02*
X10586230Y-17555650D01*
X10586230Y-17365174D02*
X10605277Y-17355650D01*
X10605277Y-17355650D02*
X10643373Y-17355650D01*
X10643373Y-17355650D02*
X10662420Y-17365174D01*
X10662420Y-17365174D02*
X10671944Y-17374698D01*
X10671944Y-17374698D02*
X10681468Y-17393746D01*
X10681468Y-17393746D02*
X10681468Y-17450889D01*
X10681468Y-17450889D02*
X10671944Y-17469936D01*
X10671944Y-17469936D02*
X10662420Y-17479460D01*
X10662420Y-17479460D02*
X10643373Y-17488984D01*
X10643373Y-17488984D02*
X10605277Y-17488984D01*
X10605277Y-17488984D02*
X10586230Y-17479460D01*
X10795754Y-17488984D02*
X10776706Y-17479460D01*
X10776706Y-17479460D02*
X10767182Y-17460412D01*
X10767182Y-17460412D02*
X10767182Y-17288984D01*
X10957658Y-17488984D02*
X10957658Y-17384222D01*
X10957658Y-17384222D02*
X10948135Y-17365174D01*
X10948135Y-17365174D02*
X10929087Y-17355650D01*
X10929087Y-17355650D02*
X10890992Y-17355650D01*
X10890992Y-17355650D02*
X10871944Y-17365174D01*
X10957658Y-17479460D02*
X10938611Y-17488984D01*
X10938611Y-17488984D02*
X10890992Y-17488984D01*
X10890992Y-17488984D02*
X10871944Y-17479460D01*
X10871944Y-17479460D02*
X10862420Y-17460412D01*
X10862420Y-17460412D02*
X10862420Y-17441365D01*
X10862420Y-17441365D02*
X10871944Y-17422317D01*
X10871944Y-17422317D02*
X10890992Y-17412793D01*
X10890992Y-17412793D02*
X10938611Y-17412793D01*
X10938611Y-17412793D02*
X10957658Y-17403270D01*
X11024325Y-17355650D02*
X11100515Y-17355650D01*
X11052896Y-17288984D02*
X11052896Y-17460412D01*
X11052896Y-17460412D02*
X11062420Y-17479460D01*
X11062420Y-17479460D02*
X11081468Y-17488984D01*
X11081468Y-17488984D02*
X11100515Y-17488984D01*
X11243373Y-17479460D02*
X11224325Y-17488984D01*
X11224325Y-17488984D02*
X11186230Y-17488984D01*
X11186230Y-17488984D02*
X11167182Y-17479460D01*
X11167182Y-17479460D02*
X11157658Y-17460412D01*
X11157658Y-17460412D02*
X11157658Y-17384222D01*
X11157658Y-17384222D02*
X11167182Y-17365174D01*
X11167182Y-17365174D02*
X11186230Y-17355650D01*
X11186230Y-17355650D02*
X11224325Y-17355650D01*
X11224325Y-17355650D02*
X11243373Y-17365174D01*
X11243373Y-17365174D02*
X11252896Y-17384222D01*
X11252896Y-17384222D02*
X11252896Y-17403270D01*
X11252896Y-17403270D02*
X11157658Y-17422317D01*
X11424325Y-17488984D02*
X11424325Y-17288984D01*
X11424325Y-17479460D02*
X11405277Y-17488984D01*
X11405277Y-17488984D02*
X11367182Y-17488984D01*
X11367182Y-17488984D02*
X11348134Y-17479460D01*
X11348134Y-17479460D02*
X11338611Y-17469936D01*
X11338611Y-17469936D02*
X11329087Y-17450889D01*
X11329087Y-17450889D02*
X11329087Y-17393746D01*
X11329087Y-17393746D02*
X11338611Y-17374698D01*
X11338611Y-17374698D02*
X11348134Y-17365174D01*
X11348134Y-17365174D02*
X11367182Y-17355650D01*
X11367182Y-17355650D02*
X11405277Y-17355650D01*
X11405277Y-17355650D02*
X11424325Y-17365174D01*
X11500515Y-17565174D02*
X11510039Y-17555650D01*
X11510039Y-17555650D02*
X11529087Y-17527079D01*
X11529087Y-17527079D02*
X11538611Y-17508031D01*
X11538611Y-17508031D02*
X11548134Y-17479460D01*
X11548134Y-17479460D02*
X11557658Y-17431841D01*
X11557658Y-17431841D02*
X11557658Y-17393746D01*
X11557658Y-17393746D02*
X11548134Y-17346127D01*
X11548134Y-17346127D02*
X11538611Y-17317555D01*
X11538611Y-17317555D02*
X11529087Y-17298508D01*
X11529087Y-17298508D02*
X11510039Y-17269936D01*
X11510039Y-17269936D02*
X11500515Y-17260412D01*
D13*
X4744500Y-17661500D02*
G75*
G02*
X4644500Y-17661500I-50000J0D01*
G01*
X4644500Y-17661500D02*
G75*
G02*
X4744500Y-17661500I50000J0D01*
G01*
D12*
X5110039Y-17752984D02*
X4995753Y-17752984D01*
X5052896Y-17752984D02*
X5052896Y-17552984D01*
X5052896Y-17552984D02*
X5033848Y-17581555D01*
X5033848Y-17581555D02*
X5014801Y-17600603D01*
X5014801Y-17600603D02*
X4995753Y-17610127D01*
X5195753Y-17733936D02*
X5205277Y-17743460D01*
X5205277Y-17743460D02*
X5195753Y-17752984D01*
X5195753Y-17752984D02*
X5186229Y-17743460D01*
X5186229Y-17743460D02*
X5195753Y-17733936D01*
X5195753Y-17733936D02*
X5195753Y-17752984D01*
X5329086Y-17552984D02*
X5348134Y-17552984D01*
X5348134Y-17552984D02*
X5367182Y-17562508D01*
X5367182Y-17562508D02*
X5376705Y-17572031D01*
X5376705Y-17572031D02*
X5386229Y-17591079D01*
X5386229Y-17591079D02*
X5395753Y-17629174D01*
X5395753Y-17629174D02*
X5395753Y-17676793D01*
X5395753Y-17676793D02*
X5386229Y-17714889D01*
X5386229Y-17714889D02*
X5376705Y-17733936D01*
X5376705Y-17733936D02*
X5367182Y-17743460D01*
X5367182Y-17743460D02*
X5348134Y-17752984D01*
X5348134Y-17752984D02*
X5329086Y-17752984D01*
X5329086Y-17752984D02*
X5310039Y-17743460D01*
X5310039Y-17743460D02*
X5300515Y-17733936D01*
X5300515Y-17733936D02*
X5290991Y-17714889D01*
X5290991Y-17714889D02*
X5281467Y-17676793D01*
X5281467Y-17676793D02*
X5281467Y-17629174D01*
X5281467Y-17629174D02*
X5290991Y-17591079D01*
X5290991Y-17591079D02*
X5300515Y-17572031D01*
X5300515Y-17572031D02*
X5310039Y-17562508D01*
X5310039Y-17562508D02*
X5329086Y-17552984D01*
X5519563Y-17552984D02*
X5538610Y-17552984D01*
X5538610Y-17552984D02*
X5557658Y-17562508D01*
X5557658Y-17562508D02*
X5567182Y-17572031D01*
X5567182Y-17572031D02*
X5576705Y-17591079D01*
X5576705Y-17591079D02*
X5586229Y-17629174D01*
X5586229Y-17629174D02*
X5586229Y-17676793D01*
X5586229Y-17676793D02*
X5576705Y-17714889D01*
X5576705Y-17714889D02*
X5567182Y-17733936D01*
X5567182Y-17733936D02*
X5557658Y-17743460D01*
X5557658Y-17743460D02*
X5538610Y-17752984D01*
X5538610Y-17752984D02*
X5519563Y-17752984D01*
X5519563Y-17752984D02*
X5500515Y-17743460D01*
X5500515Y-17743460D02*
X5490991Y-17733936D01*
X5490991Y-17733936D02*
X5481467Y-17714889D01*
X5481467Y-17714889D02*
X5471944Y-17676793D01*
X5471944Y-17676793D02*
X5471944Y-17629174D01*
X5471944Y-17629174D02*
X5481467Y-17591079D01*
X5481467Y-17591079D02*
X5490991Y-17572031D01*
X5490991Y-17572031D02*
X5500515Y-17562508D01*
X5500515Y-17562508D02*
X5519563Y-17552984D01*
X5710039Y-17552984D02*
X5729086Y-17552984D01*
X5729086Y-17552984D02*
X5748134Y-17562508D01*
X5748134Y-17562508D02*
X5757658Y-17572031D01*
X5757658Y-17572031D02*
X5767182Y-17591079D01*
X5767182Y-17591079D02*
X5776705Y-17629174D01*
X5776705Y-17629174D02*
X5776705Y-17676793D01*
X5776705Y-17676793D02*
X5767182Y-17714889D01*
X5767182Y-17714889D02*
X5757658Y-17733936D01*
X5757658Y-17733936D02*
X5748134Y-17743460D01*
X5748134Y-17743460D02*
X5729086Y-17752984D01*
X5729086Y-17752984D02*
X5710039Y-17752984D01*
X5710039Y-17752984D02*
X5690991Y-17743460D01*
X5690991Y-17743460D02*
X5681467Y-17733936D01*
X5681467Y-17733936D02*
X5671943Y-17714889D01*
X5671943Y-17714889D02*
X5662420Y-17676793D01*
X5662420Y-17676793D02*
X5662420Y-17629174D01*
X5662420Y-17629174D02*
X5671943Y-17591079D01*
X5671943Y-17591079D02*
X5681467Y-17572031D01*
X5681467Y-17572031D02*
X5690991Y-17562508D01*
X5690991Y-17562508D02*
X5710039Y-17552984D01*
X5862420Y-17752984D02*
X5862420Y-17619650D01*
X5862420Y-17638698D02*
X5871943Y-17629174D01*
X5871943Y-17629174D02*
X5890991Y-17619650D01*
X5890991Y-17619650D02*
X5919563Y-17619650D01*
X5919563Y-17619650D02*
X5938610Y-17629174D01*
X5938610Y-17629174D02*
X5948134Y-17648222D01*
X5948134Y-17648222D02*
X5948134Y-17752984D01*
X5948134Y-17648222D02*
X5957658Y-17629174D01*
X5957658Y-17629174D02*
X5976705Y-17619650D01*
X5976705Y-17619650D02*
X6005277Y-17619650D01*
X6005277Y-17619650D02*
X6024324Y-17629174D01*
X6024324Y-17629174D02*
X6033848Y-17648222D01*
X6033848Y-17648222D02*
X6033848Y-17752984D01*
X6129086Y-17752984D02*
X6129086Y-17619650D01*
X6129086Y-17638698D02*
X6138610Y-17629174D01*
X6138610Y-17629174D02*
X6157658Y-17619650D01*
X6157658Y-17619650D02*
X6186229Y-17619650D01*
X6186229Y-17619650D02*
X6205277Y-17629174D01*
X6205277Y-17629174D02*
X6214801Y-17648222D01*
X6214801Y-17648222D02*
X6214801Y-17752984D01*
X6214801Y-17648222D02*
X6224324Y-17629174D01*
X6224324Y-17629174D02*
X6243372Y-17619650D01*
X6243372Y-17619650D02*
X6271943Y-17619650D01*
X6271943Y-17619650D02*
X6290991Y-17629174D01*
X6290991Y-17629174D02*
X6300515Y-17648222D01*
X6300515Y-17648222D02*
X6300515Y-17752984D01*
X6690991Y-17543460D02*
X6519563Y-17800603D01*
X6948134Y-17552984D02*
X6967182Y-17552984D01*
X6967182Y-17552984D02*
X6986229Y-17562508D01*
X6986229Y-17562508D02*
X6995753Y-17572031D01*
X6995753Y-17572031D02*
X7005277Y-17591079D01*
X7005277Y-17591079D02*
X7014801Y-17629174D01*
X7014801Y-17629174D02*
X7014801Y-17676793D01*
X7014801Y-17676793D02*
X7005277Y-17714889D01*
X7005277Y-17714889D02*
X6995753Y-17733936D01*
X6995753Y-17733936D02*
X6986229Y-17743460D01*
X6986229Y-17743460D02*
X6967182Y-17752984D01*
X6967182Y-17752984D02*
X6948134Y-17752984D01*
X6948134Y-17752984D02*
X6929086Y-17743460D01*
X6929086Y-17743460D02*
X6919563Y-17733936D01*
X6919563Y-17733936D02*
X6910039Y-17714889D01*
X6910039Y-17714889D02*
X6900515Y-17676793D01*
X6900515Y-17676793D02*
X6900515Y-17629174D01*
X6900515Y-17629174D02*
X6910039Y-17591079D01*
X6910039Y-17591079D02*
X6919563Y-17572031D01*
X6919563Y-17572031D02*
X6929086Y-17562508D01*
X6929086Y-17562508D02*
X6948134Y-17552984D01*
X7100515Y-17733936D02*
X7110039Y-17743460D01*
X7110039Y-17743460D02*
X7100515Y-17752984D01*
X7100515Y-17752984D02*
X7090991Y-17743460D01*
X7090991Y-17743460D02*
X7100515Y-17733936D01*
X7100515Y-17733936D02*
X7100515Y-17752984D01*
X7233848Y-17552984D02*
X7252896Y-17552984D01*
X7252896Y-17552984D02*
X7271944Y-17562508D01*
X7271944Y-17562508D02*
X7281467Y-17572031D01*
X7281467Y-17572031D02*
X7290991Y-17591079D01*
X7290991Y-17591079D02*
X7300515Y-17629174D01*
X7300515Y-17629174D02*
X7300515Y-17676793D01*
X7300515Y-17676793D02*
X7290991Y-17714889D01*
X7290991Y-17714889D02*
X7281467Y-17733936D01*
X7281467Y-17733936D02*
X7271944Y-17743460D01*
X7271944Y-17743460D02*
X7252896Y-17752984D01*
X7252896Y-17752984D02*
X7233848Y-17752984D01*
X7233848Y-17752984D02*
X7214801Y-17743460D01*
X7214801Y-17743460D02*
X7205277Y-17733936D01*
X7205277Y-17733936D02*
X7195753Y-17714889D01*
X7195753Y-17714889D02*
X7186229Y-17676793D01*
X7186229Y-17676793D02*
X7186229Y-17629174D01*
X7186229Y-17629174D02*
X7195753Y-17591079D01*
X7195753Y-17591079D02*
X7205277Y-17572031D01*
X7205277Y-17572031D02*
X7214801Y-17562508D01*
X7214801Y-17562508D02*
X7233848Y-17552984D01*
X7367182Y-17552984D02*
X7490991Y-17552984D01*
X7490991Y-17552984D02*
X7424325Y-17629174D01*
X7424325Y-17629174D02*
X7452896Y-17629174D01*
X7452896Y-17629174D02*
X7471944Y-17638698D01*
X7471944Y-17638698D02*
X7481467Y-17648222D01*
X7481467Y-17648222D02*
X7490991Y-17667270D01*
X7490991Y-17667270D02*
X7490991Y-17714889D01*
X7490991Y-17714889D02*
X7481467Y-17733936D01*
X7481467Y-17733936D02*
X7471944Y-17743460D01*
X7471944Y-17743460D02*
X7452896Y-17752984D01*
X7452896Y-17752984D02*
X7395753Y-17752984D01*
X7395753Y-17752984D02*
X7376706Y-17743460D01*
X7376706Y-17743460D02*
X7367182Y-17733936D01*
X7586229Y-17752984D02*
X7624325Y-17752984D01*
X7624325Y-17752984D02*
X7643372Y-17743460D01*
X7643372Y-17743460D02*
X7652896Y-17733936D01*
X7652896Y-17733936D02*
X7671944Y-17705365D01*
X7671944Y-17705365D02*
X7681467Y-17667270D01*
X7681467Y-17667270D02*
X7681467Y-17591079D01*
X7681467Y-17591079D02*
X7671944Y-17572031D01*
X7671944Y-17572031D02*
X7662420Y-17562508D01*
X7662420Y-17562508D02*
X7643372Y-17552984D01*
X7643372Y-17552984D02*
X7605277Y-17552984D01*
X7605277Y-17552984D02*
X7586229Y-17562508D01*
X7586229Y-17562508D02*
X7576706Y-17572031D01*
X7576706Y-17572031D02*
X7567182Y-17591079D01*
X7567182Y-17591079D02*
X7567182Y-17638698D01*
X7567182Y-17638698D02*
X7576706Y-17657746D01*
X7576706Y-17657746D02*
X7586229Y-17667270D01*
X7586229Y-17667270D02*
X7605277Y-17676793D01*
X7605277Y-17676793D02*
X7643372Y-17676793D01*
X7643372Y-17676793D02*
X7662420Y-17667270D01*
X7662420Y-17667270D02*
X7671944Y-17657746D01*
X7671944Y-17657746D02*
X7681467Y-17638698D01*
X7852896Y-17619650D02*
X7852896Y-17752984D01*
X7805277Y-17543460D02*
X7757658Y-17686317D01*
X7757658Y-17686317D02*
X7881467Y-17686317D01*
X7948134Y-17552984D02*
X7948134Y-17591079D01*
X8024325Y-17552984D02*
X8024325Y-17591079D01*
X8319563Y-17829174D02*
X8310039Y-17819650D01*
X8310039Y-17819650D02*
X8290991Y-17791079D01*
X8290991Y-17791079D02*
X8281468Y-17772031D01*
X8281468Y-17772031D02*
X8271944Y-17743460D01*
X8271944Y-17743460D02*
X8262420Y-17695841D01*
X8262420Y-17695841D02*
X8262420Y-17657746D01*
X8262420Y-17657746D02*
X8271944Y-17610127D01*
X8271944Y-17610127D02*
X8281468Y-17581555D01*
X8281468Y-17581555D02*
X8290991Y-17562508D01*
X8290991Y-17562508D02*
X8310039Y-17533936D01*
X8310039Y-17533936D02*
X8319563Y-17524412D01*
X8386229Y-17572031D02*
X8395753Y-17562508D01*
X8395753Y-17562508D02*
X8414801Y-17552984D01*
X8414801Y-17552984D02*
X8462420Y-17552984D01*
X8462420Y-17552984D02*
X8481468Y-17562508D01*
X8481468Y-17562508D02*
X8490991Y-17572031D01*
X8490991Y-17572031D02*
X8500515Y-17591079D01*
X8500515Y-17591079D02*
X8500515Y-17610127D01*
X8500515Y-17610127D02*
X8490991Y-17638698D01*
X8490991Y-17638698D02*
X8376706Y-17752984D01*
X8376706Y-17752984D02*
X8500515Y-17752984D01*
X8738611Y-17752984D02*
X8738611Y-17552984D01*
X8824325Y-17752984D02*
X8824325Y-17648222D01*
X8824325Y-17648222D02*
X8814801Y-17629174D01*
X8814801Y-17629174D02*
X8795753Y-17619650D01*
X8795753Y-17619650D02*
X8767182Y-17619650D01*
X8767182Y-17619650D02*
X8748134Y-17629174D01*
X8748134Y-17629174D02*
X8738611Y-17638698D01*
X8948134Y-17752984D02*
X8929087Y-17743460D01*
X8929087Y-17743460D02*
X8919563Y-17733936D01*
X8919563Y-17733936D02*
X8910039Y-17714889D01*
X8910039Y-17714889D02*
X8910039Y-17657746D01*
X8910039Y-17657746D02*
X8919563Y-17638698D01*
X8919563Y-17638698D02*
X8929087Y-17629174D01*
X8929087Y-17629174D02*
X8948134Y-17619650D01*
X8948134Y-17619650D02*
X8976706Y-17619650D01*
X8976706Y-17619650D02*
X8995753Y-17629174D01*
X8995753Y-17629174D02*
X9005277Y-17638698D01*
X9005277Y-17638698D02*
X9014801Y-17657746D01*
X9014801Y-17657746D02*
X9014801Y-17714889D01*
X9014801Y-17714889D02*
X9005277Y-17733936D01*
X9005277Y-17733936D02*
X8995753Y-17743460D01*
X8995753Y-17743460D02*
X8976706Y-17752984D01*
X8976706Y-17752984D02*
X8948134Y-17752984D01*
X9129087Y-17752984D02*
X9110039Y-17743460D01*
X9110039Y-17743460D02*
X9100515Y-17724412D01*
X9100515Y-17724412D02*
X9100515Y-17552984D01*
X9281468Y-17743460D02*
X9262420Y-17752984D01*
X9262420Y-17752984D02*
X9224325Y-17752984D01*
X9224325Y-17752984D02*
X9205277Y-17743460D01*
X9205277Y-17743460D02*
X9195753Y-17724412D01*
X9195753Y-17724412D02*
X9195753Y-17648222D01*
X9195753Y-17648222D02*
X9205277Y-17629174D01*
X9205277Y-17629174D02*
X9224325Y-17619650D01*
X9224325Y-17619650D02*
X9262420Y-17619650D01*
X9262420Y-17619650D02*
X9281468Y-17629174D01*
X9281468Y-17629174D02*
X9290992Y-17648222D01*
X9290992Y-17648222D02*
X9290992Y-17667270D01*
X9290992Y-17667270D02*
X9195753Y-17686317D01*
X9367182Y-17743460D02*
X9386230Y-17752984D01*
X9386230Y-17752984D02*
X9424325Y-17752984D01*
X9424325Y-17752984D02*
X9443373Y-17743460D01*
X9443373Y-17743460D02*
X9452896Y-17724412D01*
X9452896Y-17724412D02*
X9452896Y-17714889D01*
X9452896Y-17714889D02*
X9443373Y-17695841D01*
X9443373Y-17695841D02*
X9424325Y-17686317D01*
X9424325Y-17686317D02*
X9395753Y-17686317D01*
X9395753Y-17686317D02*
X9376706Y-17676793D01*
X9376706Y-17676793D02*
X9367182Y-17657746D01*
X9367182Y-17657746D02*
X9367182Y-17648222D01*
X9367182Y-17648222D02*
X9376706Y-17629174D01*
X9376706Y-17629174D02*
X9395753Y-17619650D01*
X9395753Y-17619650D02*
X9424325Y-17619650D01*
X9424325Y-17619650D02*
X9443373Y-17629174D01*
X9519563Y-17829174D02*
X9529087Y-17819650D01*
X9529087Y-17819650D02*
X9548134Y-17791079D01*
X9548134Y-17791079D02*
X9557658Y-17772031D01*
X9557658Y-17772031D02*
X9567182Y-17743460D01*
X9567182Y-17743460D02*
X9576706Y-17695841D01*
X9576706Y-17695841D02*
X9576706Y-17657746D01*
X9576706Y-17657746D02*
X9567182Y-17610127D01*
X9567182Y-17610127D02*
X9557658Y-17581555D01*
X9557658Y-17581555D02*
X9548134Y-17562508D01*
X9548134Y-17562508D02*
X9529087Y-17533936D01*
X9529087Y-17533936D02*
X9519563Y-17524412D01*
X9881468Y-17829174D02*
X9871944Y-17819650D01*
X9871944Y-17819650D02*
X9852896Y-17791079D01*
X9852896Y-17791079D02*
X9843373Y-17772031D01*
X9843373Y-17772031D02*
X9833849Y-17743460D01*
X9833849Y-17743460D02*
X9824325Y-17695841D01*
X9824325Y-17695841D02*
X9824325Y-17657746D01*
X9824325Y-17657746D02*
X9833849Y-17610127D01*
X9833849Y-17610127D02*
X9843373Y-17581555D01*
X9843373Y-17581555D02*
X9852896Y-17562508D01*
X9852896Y-17562508D02*
X9871944Y-17533936D01*
X9871944Y-17533936D02*
X9881468Y-17524412D01*
X9957658Y-17619650D02*
X9957658Y-17752984D01*
X9957658Y-17638698D02*
X9967182Y-17629174D01*
X9967182Y-17629174D02*
X9986230Y-17619650D01*
X9986230Y-17619650D02*
X10014801Y-17619650D01*
X10014801Y-17619650D02*
X10033849Y-17629174D01*
X10033849Y-17629174D02*
X10043373Y-17648222D01*
X10043373Y-17648222D02*
X10043373Y-17752984D01*
X10167182Y-17752984D02*
X10148134Y-17743460D01*
X10148134Y-17743460D02*
X10138611Y-17733936D01*
X10138611Y-17733936D02*
X10129087Y-17714889D01*
X10129087Y-17714889D02*
X10129087Y-17657746D01*
X10129087Y-17657746D02*
X10138611Y-17638698D01*
X10138611Y-17638698D02*
X10148134Y-17629174D01*
X10148134Y-17629174D02*
X10167182Y-17619650D01*
X10167182Y-17619650D02*
X10195754Y-17619650D01*
X10195754Y-17619650D02*
X10214801Y-17629174D01*
X10214801Y-17629174D02*
X10224325Y-17638698D01*
X10224325Y-17638698D02*
X10233849Y-17657746D01*
X10233849Y-17657746D02*
X10233849Y-17714889D01*
X10233849Y-17714889D02*
X10224325Y-17733936D01*
X10224325Y-17733936D02*
X10214801Y-17743460D01*
X10214801Y-17743460D02*
X10195754Y-17752984D01*
X10195754Y-17752984D02*
X10167182Y-17752984D01*
X10290992Y-17619650D02*
X10367182Y-17619650D01*
X10319563Y-17552984D02*
X10319563Y-17724412D01*
X10319563Y-17724412D02*
X10329087Y-17743460D01*
X10329087Y-17743460D02*
X10348134Y-17752984D01*
X10348134Y-17752984D02*
X10367182Y-17752984D01*
X10586230Y-17619650D02*
X10586230Y-17819650D01*
X10586230Y-17629174D02*
X10605277Y-17619650D01*
X10605277Y-17619650D02*
X10643373Y-17619650D01*
X10643373Y-17619650D02*
X10662420Y-17629174D01*
X10662420Y-17629174D02*
X10671944Y-17638698D01*
X10671944Y-17638698D02*
X10681468Y-17657746D01*
X10681468Y-17657746D02*
X10681468Y-17714889D01*
X10681468Y-17714889D02*
X10671944Y-17733936D01*
X10671944Y-17733936D02*
X10662420Y-17743460D01*
X10662420Y-17743460D02*
X10643373Y-17752984D01*
X10643373Y-17752984D02*
X10605277Y-17752984D01*
X10605277Y-17752984D02*
X10586230Y-17743460D01*
X10795754Y-17752984D02*
X10776706Y-17743460D01*
X10776706Y-17743460D02*
X10767182Y-17724412D01*
X10767182Y-17724412D02*
X10767182Y-17552984D01*
X10957658Y-17752984D02*
X10957658Y-17648222D01*
X10957658Y-17648222D02*
X10948135Y-17629174D01*
X10948135Y-17629174D02*
X10929087Y-17619650D01*
X10929087Y-17619650D02*
X10890992Y-17619650D01*
X10890992Y-17619650D02*
X10871944Y-17629174D01*
X10957658Y-17743460D02*
X10938611Y-17752984D01*
X10938611Y-17752984D02*
X10890992Y-17752984D01*
X10890992Y-17752984D02*
X10871944Y-17743460D01*
X10871944Y-17743460D02*
X10862420Y-17724412D01*
X10862420Y-17724412D02*
X10862420Y-17705365D01*
X10862420Y-17705365D02*
X10871944Y-17686317D01*
X10871944Y-17686317D02*
X10890992Y-17676793D01*
X10890992Y-17676793D02*
X10938611Y-17676793D01*
X10938611Y-17676793D02*
X10957658Y-17667270D01*
X11024325Y-17619650D02*
X11100515Y-17619650D01*
X11052896Y-17552984D02*
X11052896Y-17724412D01*
X11052896Y-17724412D02*
X11062420Y-17743460D01*
X11062420Y-17743460D02*
X11081468Y-17752984D01*
X11081468Y-17752984D02*
X11100515Y-17752984D01*
X11243373Y-17743460D02*
X11224325Y-17752984D01*
X11224325Y-17752984D02*
X11186230Y-17752984D01*
X11186230Y-17752984D02*
X11167182Y-17743460D01*
X11167182Y-17743460D02*
X11157658Y-17724412D01*
X11157658Y-17724412D02*
X11157658Y-17648222D01*
X11157658Y-17648222D02*
X11167182Y-17629174D01*
X11167182Y-17629174D02*
X11186230Y-17619650D01*
X11186230Y-17619650D02*
X11224325Y-17619650D01*
X11224325Y-17619650D02*
X11243373Y-17629174D01*
X11243373Y-17629174D02*
X11252896Y-17648222D01*
X11252896Y-17648222D02*
X11252896Y-17667270D01*
X11252896Y-17667270D02*
X11157658Y-17686317D01*
X11424325Y-17752984D02*
X11424325Y-17552984D01*
X11424325Y-17743460D02*
X11405277Y-17752984D01*
X11405277Y-17752984D02*
X11367182Y-17752984D01*
X11367182Y-17752984D02*
X11348134Y-17743460D01*
X11348134Y-17743460D02*
X11338611Y-17733936D01*
X11338611Y-17733936D02*
X11329087Y-17714889D01*
X11329087Y-17714889D02*
X11329087Y-17657746D01*
X11329087Y-17657746D02*
X11338611Y-17638698D01*
X11338611Y-17638698D02*
X11348134Y-17629174D01*
X11348134Y-17629174D02*
X11367182Y-17619650D01*
X11367182Y-17619650D02*
X11405277Y-17619650D01*
X11405277Y-17619650D02*
X11424325Y-17629174D01*
X11500515Y-17829174D02*
X11510039Y-17819650D01*
X11510039Y-17819650D02*
X11529087Y-17791079D01*
X11529087Y-17791079D02*
X11538611Y-17772031D01*
X11538611Y-17772031D02*
X11548134Y-17743460D01*
X11548134Y-17743460D02*
X11557658Y-17695841D01*
X11557658Y-17695841D02*
X11557658Y-17657746D01*
X11557658Y-17657746D02*
X11548134Y-17610127D01*
X11548134Y-17610127D02*
X11538611Y-17581555D01*
X11538611Y-17581555D02*
X11529087Y-17562508D01*
X11529087Y-17562508D02*
X11510039Y-17533936D01*
X11510039Y-17533936D02*
X11500515Y-17524412D01*
D14*
X4689500Y-17870500D02*
X4689500Y-17980500D01*
X4634500Y-17925500D02*
X4744500Y-17925500D01*
D12*
X5110039Y-18016984D02*
X4995753Y-18016984D01*
X5052896Y-18016984D02*
X5052896Y-17816984D01*
X5052896Y-17816984D02*
X5033848Y-17845555D01*
X5033848Y-17845555D02*
X5014801Y-17864603D01*
X5014801Y-17864603D02*
X4995753Y-17874127D01*
X5195753Y-17997936D02*
X5205277Y-18007460D01*
X5205277Y-18007460D02*
X5195753Y-18016984D01*
X5195753Y-18016984D02*
X5186229Y-18007460D01*
X5186229Y-18007460D02*
X5195753Y-17997936D01*
X5195753Y-17997936D02*
X5195753Y-18016984D01*
X5395753Y-18016984D02*
X5281467Y-18016984D01*
X5338610Y-18016984D02*
X5338610Y-17816984D01*
X5338610Y-17816984D02*
X5319563Y-17845555D01*
X5319563Y-17845555D02*
X5300515Y-17864603D01*
X5300515Y-17864603D02*
X5281467Y-17874127D01*
X5519563Y-17816984D02*
X5538610Y-17816984D01*
X5538610Y-17816984D02*
X5557658Y-17826508D01*
X5557658Y-17826508D02*
X5567182Y-17836031D01*
X5567182Y-17836031D02*
X5576705Y-17855079D01*
X5576705Y-17855079D02*
X5586229Y-17893174D01*
X5586229Y-17893174D02*
X5586229Y-17940793D01*
X5586229Y-17940793D02*
X5576705Y-17978889D01*
X5576705Y-17978889D02*
X5567182Y-17997936D01*
X5567182Y-17997936D02*
X5557658Y-18007460D01*
X5557658Y-18007460D02*
X5538610Y-18016984D01*
X5538610Y-18016984D02*
X5519563Y-18016984D01*
X5519563Y-18016984D02*
X5500515Y-18007460D01*
X5500515Y-18007460D02*
X5490991Y-17997936D01*
X5490991Y-17997936D02*
X5481467Y-17978889D01*
X5481467Y-17978889D02*
X5471944Y-17940793D01*
X5471944Y-17940793D02*
X5471944Y-17893174D01*
X5471944Y-17893174D02*
X5481467Y-17855079D01*
X5481467Y-17855079D02*
X5490991Y-17836031D01*
X5490991Y-17836031D02*
X5500515Y-17826508D01*
X5500515Y-17826508D02*
X5519563Y-17816984D01*
X5710039Y-17816984D02*
X5729086Y-17816984D01*
X5729086Y-17816984D02*
X5748134Y-17826508D01*
X5748134Y-17826508D02*
X5757658Y-17836031D01*
X5757658Y-17836031D02*
X5767182Y-17855079D01*
X5767182Y-17855079D02*
X5776705Y-17893174D01*
X5776705Y-17893174D02*
X5776705Y-17940793D01*
X5776705Y-17940793D02*
X5767182Y-17978889D01*
X5767182Y-17978889D02*
X5757658Y-17997936D01*
X5757658Y-17997936D02*
X5748134Y-18007460D01*
X5748134Y-18007460D02*
X5729086Y-18016984D01*
X5729086Y-18016984D02*
X5710039Y-18016984D01*
X5710039Y-18016984D02*
X5690991Y-18007460D01*
X5690991Y-18007460D02*
X5681467Y-17997936D01*
X5681467Y-17997936D02*
X5671943Y-17978889D01*
X5671943Y-17978889D02*
X5662420Y-17940793D01*
X5662420Y-17940793D02*
X5662420Y-17893174D01*
X5662420Y-17893174D02*
X5671943Y-17855079D01*
X5671943Y-17855079D02*
X5681467Y-17836031D01*
X5681467Y-17836031D02*
X5690991Y-17826508D01*
X5690991Y-17826508D02*
X5710039Y-17816984D01*
X5862420Y-18016984D02*
X5862420Y-17883650D01*
X5862420Y-17902698D02*
X5871943Y-17893174D01*
X5871943Y-17893174D02*
X5890991Y-17883650D01*
X5890991Y-17883650D02*
X5919563Y-17883650D01*
X5919563Y-17883650D02*
X5938610Y-17893174D01*
X5938610Y-17893174D02*
X5948134Y-17912222D01*
X5948134Y-17912222D02*
X5948134Y-18016984D01*
X5948134Y-17912222D02*
X5957658Y-17893174D01*
X5957658Y-17893174D02*
X5976705Y-17883650D01*
X5976705Y-17883650D02*
X6005277Y-17883650D01*
X6005277Y-17883650D02*
X6024324Y-17893174D01*
X6024324Y-17893174D02*
X6033848Y-17912222D01*
X6033848Y-17912222D02*
X6033848Y-18016984D01*
X6129086Y-18016984D02*
X6129086Y-17883650D01*
X6129086Y-17902698D02*
X6138610Y-17893174D01*
X6138610Y-17893174D02*
X6157658Y-17883650D01*
X6157658Y-17883650D02*
X6186229Y-17883650D01*
X6186229Y-17883650D02*
X6205277Y-17893174D01*
X6205277Y-17893174D02*
X6214801Y-17912222D01*
X6214801Y-17912222D02*
X6214801Y-18016984D01*
X6214801Y-17912222D02*
X6224324Y-17893174D01*
X6224324Y-17893174D02*
X6243372Y-17883650D01*
X6243372Y-17883650D02*
X6271943Y-17883650D01*
X6271943Y-17883650D02*
X6290991Y-17893174D01*
X6290991Y-17893174D02*
X6300515Y-17912222D01*
X6300515Y-17912222D02*
X6300515Y-18016984D01*
X6690991Y-17807460D02*
X6519563Y-18064603D01*
X6948134Y-17816984D02*
X6967182Y-17816984D01*
X6967182Y-17816984D02*
X6986229Y-17826508D01*
X6986229Y-17826508D02*
X6995753Y-17836031D01*
X6995753Y-17836031D02*
X7005277Y-17855079D01*
X7005277Y-17855079D02*
X7014801Y-17893174D01*
X7014801Y-17893174D02*
X7014801Y-17940793D01*
X7014801Y-17940793D02*
X7005277Y-17978889D01*
X7005277Y-17978889D02*
X6995753Y-17997936D01*
X6995753Y-17997936D02*
X6986229Y-18007460D01*
X6986229Y-18007460D02*
X6967182Y-18016984D01*
X6967182Y-18016984D02*
X6948134Y-18016984D01*
X6948134Y-18016984D02*
X6929086Y-18007460D01*
X6929086Y-18007460D02*
X6919563Y-17997936D01*
X6919563Y-17997936D02*
X6910039Y-17978889D01*
X6910039Y-17978889D02*
X6900515Y-17940793D01*
X6900515Y-17940793D02*
X6900515Y-17893174D01*
X6900515Y-17893174D02*
X6910039Y-17855079D01*
X6910039Y-17855079D02*
X6919563Y-17836031D01*
X6919563Y-17836031D02*
X6929086Y-17826508D01*
X6929086Y-17826508D02*
X6948134Y-17816984D01*
X7100515Y-17997936D02*
X7110039Y-18007460D01*
X7110039Y-18007460D02*
X7100515Y-18016984D01*
X7100515Y-18016984D02*
X7090991Y-18007460D01*
X7090991Y-18007460D02*
X7100515Y-17997936D01*
X7100515Y-17997936D02*
X7100515Y-18016984D01*
X7233848Y-17816984D02*
X7252896Y-17816984D01*
X7252896Y-17816984D02*
X7271944Y-17826508D01*
X7271944Y-17826508D02*
X7281467Y-17836031D01*
X7281467Y-17836031D02*
X7290991Y-17855079D01*
X7290991Y-17855079D02*
X7300515Y-17893174D01*
X7300515Y-17893174D02*
X7300515Y-17940793D01*
X7300515Y-17940793D02*
X7290991Y-17978889D01*
X7290991Y-17978889D02*
X7281467Y-17997936D01*
X7281467Y-17997936D02*
X7271944Y-18007460D01*
X7271944Y-18007460D02*
X7252896Y-18016984D01*
X7252896Y-18016984D02*
X7233848Y-18016984D01*
X7233848Y-18016984D02*
X7214801Y-18007460D01*
X7214801Y-18007460D02*
X7205277Y-17997936D01*
X7205277Y-17997936D02*
X7195753Y-17978889D01*
X7195753Y-17978889D02*
X7186229Y-17940793D01*
X7186229Y-17940793D02*
X7186229Y-17893174D01*
X7186229Y-17893174D02*
X7195753Y-17855079D01*
X7195753Y-17855079D02*
X7205277Y-17836031D01*
X7205277Y-17836031D02*
X7214801Y-17826508D01*
X7214801Y-17826508D02*
X7233848Y-17816984D01*
X7471944Y-17883650D02*
X7471944Y-18016984D01*
X7424325Y-17807460D02*
X7376706Y-17950317D01*
X7376706Y-17950317D02*
X7500515Y-17950317D01*
X7557658Y-17816984D02*
X7681467Y-17816984D01*
X7681467Y-17816984D02*
X7614801Y-17893174D01*
X7614801Y-17893174D02*
X7643372Y-17893174D01*
X7643372Y-17893174D02*
X7662420Y-17902698D01*
X7662420Y-17902698D02*
X7671944Y-17912222D01*
X7671944Y-17912222D02*
X7681467Y-17931270D01*
X7681467Y-17931270D02*
X7681467Y-17978889D01*
X7681467Y-17978889D02*
X7671944Y-17997936D01*
X7671944Y-17997936D02*
X7662420Y-18007460D01*
X7662420Y-18007460D02*
X7643372Y-18016984D01*
X7643372Y-18016984D02*
X7586229Y-18016984D01*
X7586229Y-18016984D02*
X7567182Y-18007460D01*
X7567182Y-18007460D02*
X7557658Y-17997936D01*
X7748134Y-17816984D02*
X7871944Y-17816984D01*
X7871944Y-17816984D02*
X7805277Y-17893174D01*
X7805277Y-17893174D02*
X7833848Y-17893174D01*
X7833848Y-17893174D02*
X7852896Y-17902698D01*
X7852896Y-17902698D02*
X7862420Y-17912222D01*
X7862420Y-17912222D02*
X7871944Y-17931270D01*
X7871944Y-17931270D02*
X7871944Y-17978889D01*
X7871944Y-17978889D02*
X7862420Y-17997936D01*
X7862420Y-17997936D02*
X7852896Y-18007460D01*
X7852896Y-18007460D02*
X7833848Y-18016984D01*
X7833848Y-18016984D02*
X7776706Y-18016984D01*
X7776706Y-18016984D02*
X7757658Y-18007460D01*
X7757658Y-18007460D02*
X7748134Y-17997936D01*
X7948134Y-17816984D02*
X7948134Y-17855079D01*
X8024325Y-17816984D02*
X8024325Y-17855079D01*
X8319563Y-18093174D02*
X8310039Y-18083650D01*
X8310039Y-18083650D02*
X8290991Y-18055079D01*
X8290991Y-18055079D02*
X8281468Y-18036031D01*
X8281468Y-18036031D02*
X8271944Y-18007460D01*
X8271944Y-18007460D02*
X8262420Y-17959841D01*
X8262420Y-17959841D02*
X8262420Y-17921746D01*
X8262420Y-17921746D02*
X8271944Y-17874127D01*
X8271944Y-17874127D02*
X8281468Y-17845555D01*
X8281468Y-17845555D02*
X8290991Y-17826508D01*
X8290991Y-17826508D02*
X8310039Y-17797936D01*
X8310039Y-17797936D02*
X8319563Y-17788412D01*
X8500515Y-18016984D02*
X8386229Y-18016984D01*
X8443372Y-18016984D02*
X8443372Y-17816984D01*
X8443372Y-17816984D02*
X8424325Y-17845555D01*
X8424325Y-17845555D02*
X8405277Y-17864603D01*
X8405277Y-17864603D02*
X8386229Y-17874127D01*
X8738611Y-18016984D02*
X8738611Y-17816984D01*
X8824325Y-18016984D02*
X8824325Y-17912222D01*
X8824325Y-17912222D02*
X8814801Y-17893174D01*
X8814801Y-17893174D02*
X8795753Y-17883650D01*
X8795753Y-17883650D02*
X8767182Y-17883650D01*
X8767182Y-17883650D02*
X8748134Y-17893174D01*
X8748134Y-17893174D02*
X8738611Y-17902698D01*
X8948134Y-18016984D02*
X8929087Y-18007460D01*
X8929087Y-18007460D02*
X8919563Y-17997936D01*
X8919563Y-17997936D02*
X8910039Y-17978889D01*
X8910039Y-17978889D02*
X8910039Y-17921746D01*
X8910039Y-17921746D02*
X8919563Y-17902698D01*
X8919563Y-17902698D02*
X8929087Y-17893174D01*
X8929087Y-17893174D02*
X8948134Y-17883650D01*
X8948134Y-17883650D02*
X8976706Y-17883650D01*
X8976706Y-17883650D02*
X8995753Y-17893174D01*
X8995753Y-17893174D02*
X9005277Y-17902698D01*
X9005277Y-17902698D02*
X9014801Y-17921746D01*
X9014801Y-17921746D02*
X9014801Y-17978889D01*
X9014801Y-17978889D02*
X9005277Y-17997936D01*
X9005277Y-17997936D02*
X8995753Y-18007460D01*
X8995753Y-18007460D02*
X8976706Y-18016984D01*
X8976706Y-18016984D02*
X8948134Y-18016984D01*
X9129087Y-18016984D02*
X9110039Y-18007460D01*
X9110039Y-18007460D02*
X9100515Y-17988412D01*
X9100515Y-17988412D02*
X9100515Y-17816984D01*
X9281468Y-18007460D02*
X9262420Y-18016984D01*
X9262420Y-18016984D02*
X9224325Y-18016984D01*
X9224325Y-18016984D02*
X9205277Y-18007460D01*
X9205277Y-18007460D02*
X9195753Y-17988412D01*
X9195753Y-17988412D02*
X9195753Y-17912222D01*
X9195753Y-17912222D02*
X9205277Y-17893174D01*
X9205277Y-17893174D02*
X9224325Y-17883650D01*
X9224325Y-17883650D02*
X9262420Y-17883650D01*
X9262420Y-17883650D02*
X9281468Y-17893174D01*
X9281468Y-17893174D02*
X9290992Y-17912222D01*
X9290992Y-17912222D02*
X9290992Y-17931270D01*
X9290992Y-17931270D02*
X9195753Y-17950317D01*
X9357658Y-18093174D02*
X9367182Y-18083650D01*
X9367182Y-18083650D02*
X9386230Y-18055079D01*
X9386230Y-18055079D02*
X9395753Y-18036031D01*
X9395753Y-18036031D02*
X9405277Y-18007460D01*
X9405277Y-18007460D02*
X9414801Y-17959841D01*
X9414801Y-17959841D02*
X9414801Y-17921746D01*
X9414801Y-17921746D02*
X9405277Y-17874127D01*
X9405277Y-17874127D02*
X9395753Y-17845555D01*
X9395753Y-17845555D02*
X9386230Y-17826508D01*
X9386230Y-17826508D02*
X9367182Y-17797936D01*
X9367182Y-17797936D02*
X9357658Y-17788412D01*
X9719563Y-18093174D02*
X9710039Y-18083650D01*
X9710039Y-18083650D02*
X9690992Y-18055079D01*
X9690992Y-18055079D02*
X9681468Y-18036031D01*
X9681468Y-18036031D02*
X9671944Y-18007460D01*
X9671944Y-18007460D02*
X9662420Y-17959841D01*
X9662420Y-17959841D02*
X9662420Y-17921746D01*
X9662420Y-17921746D02*
X9671944Y-17874127D01*
X9671944Y-17874127D02*
X9681468Y-17845555D01*
X9681468Y-17845555D02*
X9690992Y-17826508D01*
X9690992Y-17826508D02*
X9710039Y-17797936D01*
X9710039Y-17797936D02*
X9719563Y-17788412D01*
X9795753Y-17883650D02*
X9795753Y-18016984D01*
X9795753Y-17902698D02*
X9805277Y-17893174D01*
X9805277Y-17893174D02*
X9824325Y-17883650D01*
X9824325Y-17883650D02*
X9852896Y-17883650D01*
X9852896Y-17883650D02*
X9871944Y-17893174D01*
X9871944Y-17893174D02*
X9881468Y-17912222D01*
X9881468Y-17912222D02*
X9881468Y-18016984D01*
X10005277Y-18016984D02*
X9986230Y-18007460D01*
X9986230Y-18007460D02*
X9976706Y-17997936D01*
X9976706Y-17997936D02*
X9967182Y-17978889D01*
X9967182Y-17978889D02*
X9967182Y-17921746D01*
X9967182Y-17921746D02*
X9976706Y-17902698D01*
X9976706Y-17902698D02*
X9986230Y-17893174D01*
X9986230Y-17893174D02*
X10005277Y-17883650D01*
X10005277Y-17883650D02*
X10033849Y-17883650D01*
X10033849Y-17883650D02*
X10052896Y-17893174D01*
X10052896Y-17893174D02*
X10062420Y-17902698D01*
X10062420Y-17902698D02*
X10071944Y-17921746D01*
X10071944Y-17921746D02*
X10071944Y-17978889D01*
X10071944Y-17978889D02*
X10062420Y-17997936D01*
X10062420Y-17997936D02*
X10052896Y-18007460D01*
X10052896Y-18007460D02*
X10033849Y-18016984D01*
X10033849Y-18016984D02*
X10005277Y-18016984D01*
X10129087Y-17883650D02*
X10205277Y-17883650D01*
X10157658Y-17816984D02*
X10157658Y-17988412D01*
X10157658Y-17988412D02*
X10167182Y-18007460D01*
X10167182Y-18007460D02*
X10186230Y-18016984D01*
X10186230Y-18016984D02*
X10205277Y-18016984D01*
X10424325Y-17883650D02*
X10424325Y-18083650D01*
X10424325Y-17893174D02*
X10443373Y-17883650D01*
X10443373Y-17883650D02*
X10481468Y-17883650D01*
X10481468Y-17883650D02*
X10500515Y-17893174D01*
X10500515Y-17893174D02*
X10510039Y-17902698D01*
X10510039Y-17902698D02*
X10519563Y-17921746D01*
X10519563Y-17921746D02*
X10519563Y-17978889D01*
X10519563Y-17978889D02*
X10510039Y-17997936D01*
X10510039Y-17997936D02*
X10500515Y-18007460D01*
X10500515Y-18007460D02*
X10481468Y-18016984D01*
X10481468Y-18016984D02*
X10443373Y-18016984D01*
X10443373Y-18016984D02*
X10424325Y-18007460D01*
X10633849Y-18016984D02*
X10614801Y-18007460D01*
X10614801Y-18007460D02*
X10605277Y-17988412D01*
X10605277Y-17988412D02*
X10605277Y-17816984D01*
X10795754Y-18016984D02*
X10795754Y-17912222D01*
X10795754Y-17912222D02*
X10786230Y-17893174D01*
X10786230Y-17893174D02*
X10767182Y-17883650D01*
X10767182Y-17883650D02*
X10729087Y-17883650D01*
X10729087Y-17883650D02*
X10710039Y-17893174D01*
X10795754Y-18007460D02*
X10776706Y-18016984D01*
X10776706Y-18016984D02*
X10729087Y-18016984D01*
X10729087Y-18016984D02*
X10710039Y-18007460D01*
X10710039Y-18007460D02*
X10700515Y-17988412D01*
X10700515Y-17988412D02*
X10700515Y-17969365D01*
X10700515Y-17969365D02*
X10710039Y-17950317D01*
X10710039Y-17950317D02*
X10729087Y-17940793D01*
X10729087Y-17940793D02*
X10776706Y-17940793D01*
X10776706Y-17940793D02*
X10795754Y-17931270D01*
X10862420Y-17883650D02*
X10938611Y-17883650D01*
X10890992Y-17816984D02*
X10890992Y-17988412D01*
X10890992Y-17988412D02*
X10900515Y-18007460D01*
X10900515Y-18007460D02*
X10919563Y-18016984D01*
X10919563Y-18016984D02*
X10938611Y-18016984D01*
X11081468Y-18007460D02*
X11062420Y-18016984D01*
X11062420Y-18016984D02*
X11024325Y-18016984D01*
X11024325Y-18016984D02*
X11005277Y-18007460D01*
X11005277Y-18007460D02*
X10995754Y-17988412D01*
X10995754Y-17988412D02*
X10995754Y-17912222D01*
X10995754Y-17912222D02*
X11005277Y-17893174D01*
X11005277Y-17893174D02*
X11024325Y-17883650D01*
X11024325Y-17883650D02*
X11062420Y-17883650D01*
X11062420Y-17883650D02*
X11081468Y-17893174D01*
X11081468Y-17893174D02*
X11090992Y-17912222D01*
X11090992Y-17912222D02*
X11090992Y-17931270D01*
X11090992Y-17931270D02*
X10995754Y-17950317D01*
X11262420Y-18016984D02*
X11262420Y-17816984D01*
X11262420Y-18007460D02*
X11243373Y-18016984D01*
X11243373Y-18016984D02*
X11205277Y-18016984D01*
X11205277Y-18016984D02*
X11186230Y-18007460D01*
X11186230Y-18007460D02*
X11176706Y-17997936D01*
X11176706Y-17997936D02*
X11167182Y-17978889D01*
X11167182Y-17978889D02*
X11167182Y-17921746D01*
X11167182Y-17921746D02*
X11176706Y-17902698D01*
X11176706Y-17902698D02*
X11186230Y-17893174D01*
X11186230Y-17893174D02*
X11205277Y-17883650D01*
X11205277Y-17883650D02*
X11243373Y-17883650D01*
X11243373Y-17883650D02*
X11262420Y-17893174D01*
X11338611Y-18093174D02*
X11348134Y-18083650D01*
X11348134Y-18083650D02*
X11367182Y-18055079D01*
X11367182Y-18055079D02*
X11376706Y-18036031D01*
X11376706Y-18036031D02*
X11386230Y-18007460D01*
X11386230Y-18007460D02*
X11395753Y-17959841D01*
X11395753Y-17959841D02*
X11395753Y-17921746D01*
X11395753Y-17921746D02*
X11386230Y-17874127D01*
X11386230Y-17874127D02*
X11376706Y-17845555D01*
X11376706Y-17845555D02*
X11367182Y-17826508D01*
X11367182Y-17826508D02*
X11348134Y-17797936D01*
X11348134Y-17797936D02*
X11338611Y-17788412D01*
D15*
X4723998Y-18238998D02*
X4723998Y-18140002D01*
X4625002Y-18140002D01*
X4625002Y-18238998D01*
X4723998Y-18238998D01*
D12*
X5110039Y-18280984D02*
X4995753Y-18280984D01*
X5052896Y-18280984D02*
X5052896Y-18080984D01*
X5052896Y-18080984D02*
X5033848Y-18109555D01*
X5033848Y-18109555D02*
X5014801Y-18128603D01*
X5014801Y-18128603D02*
X4995753Y-18138127D01*
X5195753Y-18261936D02*
X5205277Y-18271460D01*
X5205277Y-18271460D02*
X5195753Y-18280984D01*
X5195753Y-18280984D02*
X5186229Y-18271460D01*
X5186229Y-18271460D02*
X5195753Y-18261936D01*
X5195753Y-18261936D02*
X5195753Y-18280984D01*
X5376705Y-18147650D02*
X5376705Y-18280984D01*
X5329086Y-18071460D02*
X5281467Y-18214317D01*
X5281467Y-18214317D02*
X5405277Y-18214317D01*
X5519563Y-18080984D02*
X5538610Y-18080984D01*
X5538610Y-18080984D02*
X5557658Y-18090508D01*
X5557658Y-18090508D02*
X5567182Y-18100031D01*
X5567182Y-18100031D02*
X5576705Y-18119079D01*
X5576705Y-18119079D02*
X5586229Y-18157174D01*
X5586229Y-18157174D02*
X5586229Y-18204793D01*
X5586229Y-18204793D02*
X5576705Y-18242889D01*
X5576705Y-18242889D02*
X5567182Y-18261936D01*
X5567182Y-18261936D02*
X5557658Y-18271460D01*
X5557658Y-18271460D02*
X5538610Y-18280984D01*
X5538610Y-18280984D02*
X5519563Y-18280984D01*
X5519563Y-18280984D02*
X5500515Y-18271460D01*
X5500515Y-18271460D02*
X5490991Y-18261936D01*
X5490991Y-18261936D02*
X5481467Y-18242889D01*
X5481467Y-18242889D02*
X5471944Y-18204793D01*
X5471944Y-18204793D02*
X5471944Y-18157174D01*
X5471944Y-18157174D02*
X5481467Y-18119079D01*
X5481467Y-18119079D02*
X5490991Y-18100031D01*
X5490991Y-18100031D02*
X5500515Y-18090508D01*
X5500515Y-18090508D02*
X5519563Y-18080984D01*
X5710039Y-18080984D02*
X5729086Y-18080984D01*
X5729086Y-18080984D02*
X5748134Y-18090508D01*
X5748134Y-18090508D02*
X5757658Y-18100031D01*
X5757658Y-18100031D02*
X5767182Y-18119079D01*
X5767182Y-18119079D02*
X5776705Y-18157174D01*
X5776705Y-18157174D02*
X5776705Y-18204793D01*
X5776705Y-18204793D02*
X5767182Y-18242889D01*
X5767182Y-18242889D02*
X5757658Y-18261936D01*
X5757658Y-18261936D02*
X5748134Y-18271460D01*
X5748134Y-18271460D02*
X5729086Y-18280984D01*
X5729086Y-18280984D02*
X5710039Y-18280984D01*
X5710039Y-18280984D02*
X5690991Y-18271460D01*
X5690991Y-18271460D02*
X5681467Y-18261936D01*
X5681467Y-18261936D02*
X5671943Y-18242889D01*
X5671943Y-18242889D02*
X5662420Y-18204793D01*
X5662420Y-18204793D02*
X5662420Y-18157174D01*
X5662420Y-18157174D02*
X5671943Y-18119079D01*
X5671943Y-18119079D02*
X5681467Y-18100031D01*
X5681467Y-18100031D02*
X5690991Y-18090508D01*
X5690991Y-18090508D02*
X5710039Y-18080984D01*
X5862420Y-18280984D02*
X5862420Y-18147650D01*
X5862420Y-18166698D02*
X5871943Y-18157174D01*
X5871943Y-18157174D02*
X5890991Y-18147650D01*
X5890991Y-18147650D02*
X5919563Y-18147650D01*
X5919563Y-18147650D02*
X5938610Y-18157174D01*
X5938610Y-18157174D02*
X5948134Y-18176222D01*
X5948134Y-18176222D02*
X5948134Y-18280984D01*
X5948134Y-18176222D02*
X5957658Y-18157174D01*
X5957658Y-18157174D02*
X5976705Y-18147650D01*
X5976705Y-18147650D02*
X6005277Y-18147650D01*
X6005277Y-18147650D02*
X6024324Y-18157174D01*
X6024324Y-18157174D02*
X6033848Y-18176222D01*
X6033848Y-18176222D02*
X6033848Y-18280984D01*
X6129086Y-18280984D02*
X6129086Y-18147650D01*
X6129086Y-18166698D02*
X6138610Y-18157174D01*
X6138610Y-18157174D02*
X6157658Y-18147650D01*
X6157658Y-18147650D02*
X6186229Y-18147650D01*
X6186229Y-18147650D02*
X6205277Y-18157174D01*
X6205277Y-18157174D02*
X6214801Y-18176222D01*
X6214801Y-18176222D02*
X6214801Y-18280984D01*
X6214801Y-18176222D02*
X6224324Y-18157174D01*
X6224324Y-18157174D02*
X6243372Y-18147650D01*
X6243372Y-18147650D02*
X6271943Y-18147650D01*
X6271943Y-18147650D02*
X6290991Y-18157174D01*
X6290991Y-18157174D02*
X6300515Y-18176222D01*
X6300515Y-18176222D02*
X6300515Y-18280984D01*
X6690991Y-18071460D02*
X6519563Y-18328603D01*
X6948134Y-18080984D02*
X6967182Y-18080984D01*
X6967182Y-18080984D02*
X6986229Y-18090508D01*
X6986229Y-18090508D02*
X6995753Y-18100031D01*
X6995753Y-18100031D02*
X7005277Y-18119079D01*
X7005277Y-18119079D02*
X7014801Y-18157174D01*
X7014801Y-18157174D02*
X7014801Y-18204793D01*
X7014801Y-18204793D02*
X7005277Y-18242889D01*
X7005277Y-18242889D02*
X6995753Y-18261936D01*
X6995753Y-18261936D02*
X6986229Y-18271460D01*
X6986229Y-18271460D02*
X6967182Y-18280984D01*
X6967182Y-18280984D02*
X6948134Y-18280984D01*
X6948134Y-18280984D02*
X6929086Y-18271460D01*
X6929086Y-18271460D02*
X6919563Y-18261936D01*
X6919563Y-18261936D02*
X6910039Y-18242889D01*
X6910039Y-18242889D02*
X6900515Y-18204793D01*
X6900515Y-18204793D02*
X6900515Y-18157174D01*
X6900515Y-18157174D02*
X6910039Y-18119079D01*
X6910039Y-18119079D02*
X6919563Y-18100031D01*
X6919563Y-18100031D02*
X6929086Y-18090508D01*
X6929086Y-18090508D02*
X6948134Y-18080984D01*
X7100515Y-18261936D02*
X7110039Y-18271460D01*
X7110039Y-18271460D02*
X7100515Y-18280984D01*
X7100515Y-18280984D02*
X7090991Y-18271460D01*
X7090991Y-18271460D02*
X7100515Y-18261936D01*
X7100515Y-18261936D02*
X7100515Y-18280984D01*
X7233848Y-18080984D02*
X7252896Y-18080984D01*
X7252896Y-18080984D02*
X7271944Y-18090508D01*
X7271944Y-18090508D02*
X7281467Y-18100031D01*
X7281467Y-18100031D02*
X7290991Y-18119079D01*
X7290991Y-18119079D02*
X7300515Y-18157174D01*
X7300515Y-18157174D02*
X7300515Y-18204793D01*
X7300515Y-18204793D02*
X7290991Y-18242889D01*
X7290991Y-18242889D02*
X7281467Y-18261936D01*
X7281467Y-18261936D02*
X7271944Y-18271460D01*
X7271944Y-18271460D02*
X7252896Y-18280984D01*
X7252896Y-18280984D02*
X7233848Y-18280984D01*
X7233848Y-18280984D02*
X7214801Y-18271460D01*
X7214801Y-18271460D02*
X7205277Y-18261936D01*
X7205277Y-18261936D02*
X7195753Y-18242889D01*
X7195753Y-18242889D02*
X7186229Y-18204793D01*
X7186229Y-18204793D02*
X7186229Y-18157174D01*
X7186229Y-18157174D02*
X7195753Y-18119079D01*
X7195753Y-18119079D02*
X7205277Y-18100031D01*
X7205277Y-18100031D02*
X7214801Y-18090508D01*
X7214801Y-18090508D02*
X7233848Y-18080984D01*
X7481467Y-18080984D02*
X7386229Y-18080984D01*
X7386229Y-18080984D02*
X7376706Y-18176222D01*
X7376706Y-18176222D02*
X7386229Y-18166698D01*
X7386229Y-18166698D02*
X7405277Y-18157174D01*
X7405277Y-18157174D02*
X7452896Y-18157174D01*
X7452896Y-18157174D02*
X7471944Y-18166698D01*
X7471944Y-18166698D02*
X7481467Y-18176222D01*
X7481467Y-18176222D02*
X7490991Y-18195270D01*
X7490991Y-18195270D02*
X7490991Y-18242889D01*
X7490991Y-18242889D02*
X7481467Y-18261936D01*
X7481467Y-18261936D02*
X7471944Y-18271460D01*
X7471944Y-18271460D02*
X7452896Y-18280984D01*
X7452896Y-18280984D02*
X7405277Y-18280984D01*
X7405277Y-18280984D02*
X7386229Y-18271460D01*
X7386229Y-18271460D02*
X7376706Y-18261936D01*
X7671944Y-18080984D02*
X7576706Y-18080984D01*
X7576706Y-18080984D02*
X7567182Y-18176222D01*
X7567182Y-18176222D02*
X7576706Y-18166698D01*
X7576706Y-18166698D02*
X7595753Y-18157174D01*
X7595753Y-18157174D02*
X7643372Y-18157174D01*
X7643372Y-18157174D02*
X7662420Y-18166698D01*
X7662420Y-18166698D02*
X7671944Y-18176222D01*
X7671944Y-18176222D02*
X7681467Y-18195270D01*
X7681467Y-18195270D02*
X7681467Y-18242889D01*
X7681467Y-18242889D02*
X7671944Y-18261936D01*
X7671944Y-18261936D02*
X7662420Y-18271460D01*
X7662420Y-18271460D02*
X7643372Y-18280984D01*
X7643372Y-18280984D02*
X7595753Y-18280984D01*
X7595753Y-18280984D02*
X7576706Y-18271460D01*
X7576706Y-18271460D02*
X7567182Y-18261936D01*
X7871944Y-18280984D02*
X7757658Y-18280984D01*
X7814801Y-18280984D02*
X7814801Y-18080984D01*
X7814801Y-18080984D02*
X7795753Y-18109555D01*
X7795753Y-18109555D02*
X7776706Y-18128603D01*
X7776706Y-18128603D02*
X7757658Y-18138127D01*
X7948134Y-18080984D02*
X7948134Y-18119079D01*
X8024325Y-18080984D02*
X8024325Y-18119079D01*
X8319563Y-18357174D02*
X8310039Y-18347650D01*
X8310039Y-18347650D02*
X8290991Y-18319079D01*
X8290991Y-18319079D02*
X8281468Y-18300031D01*
X8281468Y-18300031D02*
X8271944Y-18271460D01*
X8271944Y-18271460D02*
X8262420Y-18223841D01*
X8262420Y-18223841D02*
X8262420Y-18185746D01*
X8262420Y-18185746D02*
X8271944Y-18138127D01*
X8271944Y-18138127D02*
X8281468Y-18109555D01*
X8281468Y-18109555D02*
X8290991Y-18090508D01*
X8290991Y-18090508D02*
X8310039Y-18061936D01*
X8310039Y-18061936D02*
X8319563Y-18052412D01*
X8386229Y-18100031D02*
X8395753Y-18090508D01*
X8395753Y-18090508D02*
X8414801Y-18080984D01*
X8414801Y-18080984D02*
X8462420Y-18080984D01*
X8462420Y-18080984D02*
X8481468Y-18090508D01*
X8481468Y-18090508D02*
X8490991Y-18100031D01*
X8490991Y-18100031D02*
X8500515Y-18119079D01*
X8500515Y-18119079D02*
X8500515Y-18138127D01*
X8500515Y-18138127D02*
X8490991Y-18166698D01*
X8490991Y-18166698D02*
X8376706Y-18280984D01*
X8376706Y-18280984D02*
X8500515Y-18280984D01*
X8738611Y-18280984D02*
X8738611Y-18080984D01*
X8824325Y-18280984D02*
X8824325Y-18176222D01*
X8824325Y-18176222D02*
X8814801Y-18157174D01*
X8814801Y-18157174D02*
X8795753Y-18147650D01*
X8795753Y-18147650D02*
X8767182Y-18147650D01*
X8767182Y-18147650D02*
X8748134Y-18157174D01*
X8748134Y-18157174D02*
X8738611Y-18166698D01*
X8948134Y-18280984D02*
X8929087Y-18271460D01*
X8929087Y-18271460D02*
X8919563Y-18261936D01*
X8919563Y-18261936D02*
X8910039Y-18242889D01*
X8910039Y-18242889D02*
X8910039Y-18185746D01*
X8910039Y-18185746D02*
X8919563Y-18166698D01*
X8919563Y-18166698D02*
X8929087Y-18157174D01*
X8929087Y-18157174D02*
X8948134Y-18147650D01*
X8948134Y-18147650D02*
X8976706Y-18147650D01*
X8976706Y-18147650D02*
X8995753Y-18157174D01*
X8995753Y-18157174D02*
X9005277Y-18166698D01*
X9005277Y-18166698D02*
X9014801Y-18185746D01*
X9014801Y-18185746D02*
X9014801Y-18242889D01*
X9014801Y-18242889D02*
X9005277Y-18261936D01*
X9005277Y-18261936D02*
X8995753Y-18271460D01*
X8995753Y-18271460D02*
X8976706Y-18280984D01*
X8976706Y-18280984D02*
X8948134Y-18280984D01*
X9129087Y-18280984D02*
X9110039Y-18271460D01*
X9110039Y-18271460D02*
X9100515Y-18252412D01*
X9100515Y-18252412D02*
X9100515Y-18080984D01*
X9281468Y-18271460D02*
X9262420Y-18280984D01*
X9262420Y-18280984D02*
X9224325Y-18280984D01*
X9224325Y-18280984D02*
X9205277Y-18271460D01*
X9205277Y-18271460D02*
X9195753Y-18252412D01*
X9195753Y-18252412D02*
X9195753Y-18176222D01*
X9195753Y-18176222D02*
X9205277Y-18157174D01*
X9205277Y-18157174D02*
X9224325Y-18147650D01*
X9224325Y-18147650D02*
X9262420Y-18147650D01*
X9262420Y-18147650D02*
X9281468Y-18157174D01*
X9281468Y-18157174D02*
X9290992Y-18176222D01*
X9290992Y-18176222D02*
X9290992Y-18195270D01*
X9290992Y-18195270D02*
X9195753Y-18214317D01*
X9367182Y-18271460D02*
X9386230Y-18280984D01*
X9386230Y-18280984D02*
X9424325Y-18280984D01*
X9424325Y-18280984D02*
X9443373Y-18271460D01*
X9443373Y-18271460D02*
X9452896Y-18252412D01*
X9452896Y-18252412D02*
X9452896Y-18242889D01*
X9452896Y-18242889D02*
X9443373Y-18223841D01*
X9443373Y-18223841D02*
X9424325Y-18214317D01*
X9424325Y-18214317D02*
X9395753Y-18214317D01*
X9395753Y-18214317D02*
X9376706Y-18204793D01*
X9376706Y-18204793D02*
X9367182Y-18185746D01*
X9367182Y-18185746D02*
X9367182Y-18176222D01*
X9367182Y-18176222D02*
X9376706Y-18157174D01*
X9376706Y-18157174D02*
X9395753Y-18147650D01*
X9395753Y-18147650D02*
X9424325Y-18147650D01*
X9424325Y-18147650D02*
X9443373Y-18157174D01*
X9519563Y-18357174D02*
X9529087Y-18347650D01*
X9529087Y-18347650D02*
X9548134Y-18319079D01*
X9548134Y-18319079D02*
X9557658Y-18300031D01*
X9557658Y-18300031D02*
X9567182Y-18271460D01*
X9567182Y-18271460D02*
X9576706Y-18223841D01*
X9576706Y-18223841D02*
X9576706Y-18185746D01*
X9576706Y-18185746D02*
X9567182Y-18138127D01*
X9567182Y-18138127D02*
X9557658Y-18109555D01*
X9557658Y-18109555D02*
X9548134Y-18090508D01*
X9548134Y-18090508D02*
X9529087Y-18061936D01*
X9529087Y-18061936D02*
X9519563Y-18052412D01*
X9881468Y-18357174D02*
X9871944Y-18347650D01*
X9871944Y-18347650D02*
X9852896Y-18319079D01*
X9852896Y-18319079D02*
X9843373Y-18300031D01*
X9843373Y-18300031D02*
X9833849Y-18271460D01*
X9833849Y-18271460D02*
X9824325Y-18223841D01*
X9824325Y-18223841D02*
X9824325Y-18185746D01*
X9824325Y-18185746D02*
X9833849Y-18138127D01*
X9833849Y-18138127D02*
X9843373Y-18109555D01*
X9843373Y-18109555D02*
X9852896Y-18090508D01*
X9852896Y-18090508D02*
X9871944Y-18061936D01*
X9871944Y-18061936D02*
X9881468Y-18052412D01*
X9957658Y-18147650D02*
X9957658Y-18280984D01*
X9957658Y-18166698D02*
X9967182Y-18157174D01*
X9967182Y-18157174D02*
X9986230Y-18147650D01*
X9986230Y-18147650D02*
X10014801Y-18147650D01*
X10014801Y-18147650D02*
X10033849Y-18157174D01*
X10033849Y-18157174D02*
X10043373Y-18176222D01*
X10043373Y-18176222D02*
X10043373Y-18280984D01*
X10167182Y-18280984D02*
X10148134Y-18271460D01*
X10148134Y-18271460D02*
X10138611Y-18261936D01*
X10138611Y-18261936D02*
X10129087Y-18242889D01*
X10129087Y-18242889D02*
X10129087Y-18185746D01*
X10129087Y-18185746D02*
X10138611Y-18166698D01*
X10138611Y-18166698D02*
X10148134Y-18157174D01*
X10148134Y-18157174D02*
X10167182Y-18147650D01*
X10167182Y-18147650D02*
X10195754Y-18147650D01*
X10195754Y-18147650D02*
X10214801Y-18157174D01*
X10214801Y-18157174D02*
X10224325Y-18166698D01*
X10224325Y-18166698D02*
X10233849Y-18185746D01*
X10233849Y-18185746D02*
X10233849Y-18242889D01*
X10233849Y-18242889D02*
X10224325Y-18261936D01*
X10224325Y-18261936D02*
X10214801Y-18271460D01*
X10214801Y-18271460D02*
X10195754Y-18280984D01*
X10195754Y-18280984D02*
X10167182Y-18280984D01*
X10290992Y-18147650D02*
X10367182Y-18147650D01*
X10319563Y-18080984D02*
X10319563Y-18252412D01*
X10319563Y-18252412D02*
X10329087Y-18271460D01*
X10329087Y-18271460D02*
X10348134Y-18280984D01*
X10348134Y-18280984D02*
X10367182Y-18280984D01*
X10586230Y-18147650D02*
X10586230Y-18347650D01*
X10586230Y-18157174D02*
X10605277Y-18147650D01*
X10605277Y-18147650D02*
X10643373Y-18147650D01*
X10643373Y-18147650D02*
X10662420Y-18157174D01*
X10662420Y-18157174D02*
X10671944Y-18166698D01*
X10671944Y-18166698D02*
X10681468Y-18185746D01*
X10681468Y-18185746D02*
X10681468Y-18242889D01*
X10681468Y-18242889D02*
X10671944Y-18261936D01*
X10671944Y-18261936D02*
X10662420Y-18271460D01*
X10662420Y-18271460D02*
X10643373Y-18280984D01*
X10643373Y-18280984D02*
X10605277Y-18280984D01*
X10605277Y-18280984D02*
X10586230Y-18271460D01*
X10795754Y-18280984D02*
X10776706Y-18271460D01*
X10776706Y-18271460D02*
X10767182Y-18252412D01*
X10767182Y-18252412D02*
X10767182Y-18080984D01*
X10957658Y-18280984D02*
X10957658Y-18176222D01*
X10957658Y-18176222D02*
X10948135Y-18157174D01*
X10948135Y-18157174D02*
X10929087Y-18147650D01*
X10929087Y-18147650D02*
X10890992Y-18147650D01*
X10890992Y-18147650D02*
X10871944Y-18157174D01*
X10957658Y-18271460D02*
X10938611Y-18280984D01*
X10938611Y-18280984D02*
X10890992Y-18280984D01*
X10890992Y-18280984D02*
X10871944Y-18271460D01*
X10871944Y-18271460D02*
X10862420Y-18252412D01*
X10862420Y-18252412D02*
X10862420Y-18233365D01*
X10862420Y-18233365D02*
X10871944Y-18214317D01*
X10871944Y-18214317D02*
X10890992Y-18204793D01*
X10890992Y-18204793D02*
X10938611Y-18204793D01*
X10938611Y-18204793D02*
X10957658Y-18195270D01*
X11024325Y-18147650D02*
X11100515Y-18147650D01*
X11052896Y-18080984D02*
X11052896Y-18252412D01*
X11052896Y-18252412D02*
X11062420Y-18271460D01*
X11062420Y-18271460D02*
X11081468Y-18280984D01*
X11081468Y-18280984D02*
X11100515Y-18280984D01*
X11243373Y-18271460D02*
X11224325Y-18280984D01*
X11224325Y-18280984D02*
X11186230Y-18280984D01*
X11186230Y-18280984D02*
X11167182Y-18271460D01*
X11167182Y-18271460D02*
X11157658Y-18252412D01*
X11157658Y-18252412D02*
X11157658Y-18176222D01*
X11157658Y-18176222D02*
X11167182Y-18157174D01*
X11167182Y-18157174D02*
X11186230Y-18147650D01*
X11186230Y-18147650D02*
X11224325Y-18147650D01*
X11224325Y-18147650D02*
X11243373Y-18157174D01*
X11243373Y-18157174D02*
X11252896Y-18176222D01*
X11252896Y-18176222D02*
X11252896Y-18195270D01*
X11252896Y-18195270D02*
X11157658Y-18214317D01*
X11424325Y-18280984D02*
X11424325Y-18080984D01*
X11424325Y-18271460D02*
X11405277Y-18280984D01*
X11405277Y-18280984D02*
X11367182Y-18280984D01*
X11367182Y-18280984D02*
X11348134Y-18271460D01*
X11348134Y-18271460D02*
X11338611Y-18261936D01*
X11338611Y-18261936D02*
X11329087Y-18242889D01*
X11329087Y-18242889D02*
X11329087Y-18185746D01*
X11329087Y-18185746D02*
X11338611Y-18166698D01*
X11338611Y-18166698D02*
X11348134Y-18157174D01*
X11348134Y-18157174D02*
X11367182Y-18147650D01*
X11367182Y-18147650D02*
X11405277Y-18147650D01*
X11405277Y-18147650D02*
X11424325Y-18157174D01*
X11500515Y-18357174D02*
X11510039Y-18347650D01*
X11510039Y-18347650D02*
X11529087Y-18319079D01*
X11529087Y-18319079D02*
X11538611Y-18300031D01*
X11538611Y-18300031D02*
X11548134Y-18271460D01*
X11548134Y-18271460D02*
X11557658Y-18223841D01*
X11557658Y-18223841D02*
X11557658Y-18185746D01*
X11557658Y-18185746D02*
X11548134Y-18138127D01*
X11548134Y-18138127D02*
X11538611Y-18109555D01*
X11538611Y-18109555D02*
X11529087Y-18090508D01*
X11529087Y-18090508D02*
X11510039Y-18061936D01*
X11510039Y-18061936D02*
X11500515Y-18052412D01*
D16*
X4664500Y-18533500D02*
X4744500Y-18453500D01*
X4664500Y-18373500D01*
X4584500Y-18453500D01*
X4664500Y-18533500D01*
D12*
X5110039Y-18544984D02*
X4995753Y-18544984D01*
X5052896Y-18544984D02*
X5052896Y-18344984D01*
X5052896Y-18344984D02*
X5033848Y-18373555D01*
X5033848Y-18373555D02*
X5014801Y-18392603D01*
X5014801Y-18392603D02*
X4995753Y-18402127D01*
X5195753Y-18525936D02*
X5205277Y-18535460D01*
X5205277Y-18535460D02*
X5195753Y-18544984D01*
X5195753Y-18544984D02*
X5186229Y-18535460D01*
X5186229Y-18535460D02*
X5195753Y-18525936D01*
X5195753Y-18525936D02*
X5195753Y-18544984D01*
X5376705Y-18344984D02*
X5338610Y-18344984D01*
X5338610Y-18344984D02*
X5319563Y-18354508D01*
X5319563Y-18354508D02*
X5310039Y-18364031D01*
X5310039Y-18364031D02*
X5290991Y-18392603D01*
X5290991Y-18392603D02*
X5281467Y-18430698D01*
X5281467Y-18430698D02*
X5281467Y-18506889D01*
X5281467Y-18506889D02*
X5290991Y-18525936D01*
X5290991Y-18525936D02*
X5300515Y-18535460D01*
X5300515Y-18535460D02*
X5319563Y-18544984D01*
X5319563Y-18544984D02*
X5357658Y-18544984D01*
X5357658Y-18544984D02*
X5376705Y-18535460D01*
X5376705Y-18535460D02*
X5386229Y-18525936D01*
X5386229Y-18525936D02*
X5395753Y-18506889D01*
X5395753Y-18506889D02*
X5395753Y-18459270D01*
X5395753Y-18459270D02*
X5386229Y-18440222D01*
X5386229Y-18440222D02*
X5376705Y-18430698D01*
X5376705Y-18430698D02*
X5357658Y-18421174D01*
X5357658Y-18421174D02*
X5319563Y-18421174D01*
X5319563Y-18421174D02*
X5300515Y-18430698D01*
X5300515Y-18430698D02*
X5290991Y-18440222D01*
X5290991Y-18440222D02*
X5281467Y-18459270D01*
X5519563Y-18344984D02*
X5538610Y-18344984D01*
X5538610Y-18344984D02*
X5557658Y-18354508D01*
X5557658Y-18354508D02*
X5567182Y-18364031D01*
X5567182Y-18364031D02*
X5576705Y-18383079D01*
X5576705Y-18383079D02*
X5586229Y-18421174D01*
X5586229Y-18421174D02*
X5586229Y-18468793D01*
X5586229Y-18468793D02*
X5576705Y-18506889D01*
X5576705Y-18506889D02*
X5567182Y-18525936D01*
X5567182Y-18525936D02*
X5557658Y-18535460D01*
X5557658Y-18535460D02*
X5538610Y-18544984D01*
X5538610Y-18544984D02*
X5519563Y-18544984D01*
X5519563Y-18544984D02*
X5500515Y-18535460D01*
X5500515Y-18535460D02*
X5490991Y-18525936D01*
X5490991Y-18525936D02*
X5481467Y-18506889D01*
X5481467Y-18506889D02*
X5471944Y-18468793D01*
X5471944Y-18468793D02*
X5471944Y-18421174D01*
X5471944Y-18421174D02*
X5481467Y-18383079D01*
X5481467Y-18383079D02*
X5490991Y-18364031D01*
X5490991Y-18364031D02*
X5500515Y-18354508D01*
X5500515Y-18354508D02*
X5519563Y-18344984D01*
X5710039Y-18344984D02*
X5729086Y-18344984D01*
X5729086Y-18344984D02*
X5748134Y-18354508D01*
X5748134Y-18354508D02*
X5757658Y-18364031D01*
X5757658Y-18364031D02*
X5767182Y-18383079D01*
X5767182Y-18383079D02*
X5776705Y-18421174D01*
X5776705Y-18421174D02*
X5776705Y-18468793D01*
X5776705Y-18468793D02*
X5767182Y-18506889D01*
X5767182Y-18506889D02*
X5757658Y-18525936D01*
X5757658Y-18525936D02*
X5748134Y-18535460D01*
X5748134Y-18535460D02*
X5729086Y-18544984D01*
X5729086Y-18544984D02*
X5710039Y-18544984D01*
X5710039Y-18544984D02*
X5690991Y-18535460D01*
X5690991Y-18535460D02*
X5681467Y-18525936D01*
X5681467Y-18525936D02*
X5671943Y-18506889D01*
X5671943Y-18506889D02*
X5662420Y-18468793D01*
X5662420Y-18468793D02*
X5662420Y-18421174D01*
X5662420Y-18421174D02*
X5671943Y-18383079D01*
X5671943Y-18383079D02*
X5681467Y-18364031D01*
X5681467Y-18364031D02*
X5690991Y-18354508D01*
X5690991Y-18354508D02*
X5710039Y-18344984D01*
X5862420Y-18544984D02*
X5862420Y-18411650D01*
X5862420Y-18430698D02*
X5871943Y-18421174D01*
X5871943Y-18421174D02*
X5890991Y-18411650D01*
X5890991Y-18411650D02*
X5919563Y-18411650D01*
X5919563Y-18411650D02*
X5938610Y-18421174D01*
X5938610Y-18421174D02*
X5948134Y-18440222D01*
X5948134Y-18440222D02*
X5948134Y-18544984D01*
X5948134Y-18440222D02*
X5957658Y-18421174D01*
X5957658Y-18421174D02*
X5976705Y-18411650D01*
X5976705Y-18411650D02*
X6005277Y-18411650D01*
X6005277Y-18411650D02*
X6024324Y-18421174D01*
X6024324Y-18421174D02*
X6033848Y-18440222D01*
X6033848Y-18440222D02*
X6033848Y-18544984D01*
X6129086Y-18544984D02*
X6129086Y-18411650D01*
X6129086Y-18430698D02*
X6138610Y-18421174D01*
X6138610Y-18421174D02*
X6157658Y-18411650D01*
X6157658Y-18411650D02*
X6186229Y-18411650D01*
X6186229Y-18411650D02*
X6205277Y-18421174D01*
X6205277Y-18421174D02*
X6214801Y-18440222D01*
X6214801Y-18440222D02*
X6214801Y-18544984D01*
X6214801Y-18440222D02*
X6224324Y-18421174D01*
X6224324Y-18421174D02*
X6243372Y-18411650D01*
X6243372Y-18411650D02*
X6271943Y-18411650D01*
X6271943Y-18411650D02*
X6290991Y-18421174D01*
X6290991Y-18421174D02*
X6300515Y-18440222D01*
X6300515Y-18440222D02*
X6300515Y-18544984D01*
X6690991Y-18335460D02*
X6519563Y-18592603D01*
X6948134Y-18344984D02*
X6967182Y-18344984D01*
X6967182Y-18344984D02*
X6986229Y-18354508D01*
X6986229Y-18354508D02*
X6995753Y-18364031D01*
X6995753Y-18364031D02*
X7005277Y-18383079D01*
X7005277Y-18383079D02*
X7014801Y-18421174D01*
X7014801Y-18421174D02*
X7014801Y-18468793D01*
X7014801Y-18468793D02*
X7005277Y-18506889D01*
X7005277Y-18506889D02*
X6995753Y-18525936D01*
X6995753Y-18525936D02*
X6986229Y-18535460D01*
X6986229Y-18535460D02*
X6967182Y-18544984D01*
X6967182Y-18544984D02*
X6948134Y-18544984D01*
X6948134Y-18544984D02*
X6929086Y-18535460D01*
X6929086Y-18535460D02*
X6919563Y-18525936D01*
X6919563Y-18525936D02*
X6910039Y-18506889D01*
X6910039Y-18506889D02*
X6900515Y-18468793D01*
X6900515Y-18468793D02*
X6900515Y-18421174D01*
X6900515Y-18421174D02*
X6910039Y-18383079D01*
X6910039Y-18383079D02*
X6919563Y-18364031D01*
X6919563Y-18364031D02*
X6929086Y-18354508D01*
X6929086Y-18354508D02*
X6948134Y-18344984D01*
X7100515Y-18525936D02*
X7110039Y-18535460D01*
X7110039Y-18535460D02*
X7100515Y-18544984D01*
X7100515Y-18544984D02*
X7090991Y-18535460D01*
X7090991Y-18535460D02*
X7100515Y-18525936D01*
X7100515Y-18525936D02*
X7100515Y-18544984D01*
X7233848Y-18344984D02*
X7252896Y-18344984D01*
X7252896Y-18344984D02*
X7271944Y-18354508D01*
X7271944Y-18354508D02*
X7281467Y-18364031D01*
X7281467Y-18364031D02*
X7290991Y-18383079D01*
X7290991Y-18383079D02*
X7300515Y-18421174D01*
X7300515Y-18421174D02*
X7300515Y-18468793D01*
X7300515Y-18468793D02*
X7290991Y-18506889D01*
X7290991Y-18506889D02*
X7281467Y-18525936D01*
X7281467Y-18525936D02*
X7271944Y-18535460D01*
X7271944Y-18535460D02*
X7252896Y-18544984D01*
X7252896Y-18544984D02*
X7233848Y-18544984D01*
X7233848Y-18544984D02*
X7214801Y-18535460D01*
X7214801Y-18535460D02*
X7205277Y-18525936D01*
X7205277Y-18525936D02*
X7195753Y-18506889D01*
X7195753Y-18506889D02*
X7186229Y-18468793D01*
X7186229Y-18468793D02*
X7186229Y-18421174D01*
X7186229Y-18421174D02*
X7195753Y-18383079D01*
X7195753Y-18383079D02*
X7205277Y-18364031D01*
X7205277Y-18364031D02*
X7214801Y-18354508D01*
X7214801Y-18354508D02*
X7233848Y-18344984D01*
X7471944Y-18344984D02*
X7433848Y-18344984D01*
X7433848Y-18344984D02*
X7414801Y-18354508D01*
X7414801Y-18354508D02*
X7405277Y-18364031D01*
X7405277Y-18364031D02*
X7386229Y-18392603D01*
X7386229Y-18392603D02*
X7376706Y-18430698D01*
X7376706Y-18430698D02*
X7376706Y-18506889D01*
X7376706Y-18506889D02*
X7386229Y-18525936D01*
X7386229Y-18525936D02*
X7395753Y-18535460D01*
X7395753Y-18535460D02*
X7414801Y-18544984D01*
X7414801Y-18544984D02*
X7452896Y-18544984D01*
X7452896Y-18544984D02*
X7471944Y-18535460D01*
X7471944Y-18535460D02*
X7481467Y-18525936D01*
X7481467Y-18525936D02*
X7490991Y-18506889D01*
X7490991Y-18506889D02*
X7490991Y-18459270D01*
X7490991Y-18459270D02*
X7481467Y-18440222D01*
X7481467Y-18440222D02*
X7471944Y-18430698D01*
X7471944Y-18430698D02*
X7452896Y-18421174D01*
X7452896Y-18421174D02*
X7414801Y-18421174D01*
X7414801Y-18421174D02*
X7395753Y-18430698D01*
X7395753Y-18430698D02*
X7386229Y-18440222D01*
X7386229Y-18440222D02*
X7376706Y-18459270D01*
X7557658Y-18344984D02*
X7681467Y-18344984D01*
X7681467Y-18344984D02*
X7614801Y-18421174D01*
X7614801Y-18421174D02*
X7643372Y-18421174D01*
X7643372Y-18421174D02*
X7662420Y-18430698D01*
X7662420Y-18430698D02*
X7671944Y-18440222D01*
X7671944Y-18440222D02*
X7681467Y-18459270D01*
X7681467Y-18459270D02*
X7681467Y-18506889D01*
X7681467Y-18506889D02*
X7671944Y-18525936D01*
X7671944Y-18525936D02*
X7662420Y-18535460D01*
X7662420Y-18535460D02*
X7643372Y-18544984D01*
X7643372Y-18544984D02*
X7586229Y-18544984D01*
X7586229Y-18544984D02*
X7567182Y-18535460D01*
X7567182Y-18535460D02*
X7557658Y-18525936D01*
X7805277Y-18344984D02*
X7824325Y-18344984D01*
X7824325Y-18344984D02*
X7843372Y-18354508D01*
X7843372Y-18354508D02*
X7852896Y-18364031D01*
X7852896Y-18364031D02*
X7862420Y-18383079D01*
X7862420Y-18383079D02*
X7871944Y-18421174D01*
X7871944Y-18421174D02*
X7871944Y-18468793D01*
X7871944Y-18468793D02*
X7862420Y-18506889D01*
X7862420Y-18506889D02*
X7852896Y-18525936D01*
X7852896Y-18525936D02*
X7843372Y-18535460D01*
X7843372Y-18535460D02*
X7824325Y-18544984D01*
X7824325Y-18544984D02*
X7805277Y-18544984D01*
X7805277Y-18544984D02*
X7786229Y-18535460D01*
X7786229Y-18535460D02*
X7776706Y-18525936D01*
X7776706Y-18525936D02*
X7767182Y-18506889D01*
X7767182Y-18506889D02*
X7757658Y-18468793D01*
X7757658Y-18468793D02*
X7757658Y-18421174D01*
X7757658Y-18421174D02*
X7767182Y-18383079D01*
X7767182Y-18383079D02*
X7776706Y-18364031D01*
X7776706Y-18364031D02*
X7786229Y-18354508D01*
X7786229Y-18354508D02*
X7805277Y-18344984D01*
X7948134Y-18344984D02*
X7948134Y-18383079D01*
X8024325Y-18344984D02*
X8024325Y-18383079D01*
X8319563Y-18621174D02*
X8310039Y-18611650D01*
X8310039Y-18611650D02*
X8290991Y-18583079D01*
X8290991Y-18583079D02*
X8281468Y-18564031D01*
X8281468Y-18564031D02*
X8271944Y-18535460D01*
X8271944Y-18535460D02*
X8262420Y-18487841D01*
X8262420Y-18487841D02*
X8262420Y-18449746D01*
X8262420Y-18449746D02*
X8271944Y-18402127D01*
X8271944Y-18402127D02*
X8281468Y-18373555D01*
X8281468Y-18373555D02*
X8290991Y-18354508D01*
X8290991Y-18354508D02*
X8310039Y-18325936D01*
X8310039Y-18325936D02*
X8319563Y-18316412D01*
X8500515Y-18544984D02*
X8386229Y-18544984D01*
X8443372Y-18544984D02*
X8443372Y-18344984D01*
X8443372Y-18344984D02*
X8424325Y-18373555D01*
X8424325Y-18373555D02*
X8405277Y-18392603D01*
X8405277Y-18392603D02*
X8386229Y-18402127D01*
X8738611Y-18544984D02*
X8738611Y-18344984D01*
X8824325Y-18544984D02*
X8824325Y-18440222D01*
X8824325Y-18440222D02*
X8814801Y-18421174D01*
X8814801Y-18421174D02*
X8795753Y-18411650D01*
X8795753Y-18411650D02*
X8767182Y-18411650D01*
X8767182Y-18411650D02*
X8748134Y-18421174D01*
X8748134Y-18421174D02*
X8738611Y-18430698D01*
X8948134Y-18544984D02*
X8929087Y-18535460D01*
X8929087Y-18535460D02*
X8919563Y-18525936D01*
X8919563Y-18525936D02*
X8910039Y-18506889D01*
X8910039Y-18506889D02*
X8910039Y-18449746D01*
X8910039Y-18449746D02*
X8919563Y-18430698D01*
X8919563Y-18430698D02*
X8929087Y-18421174D01*
X8929087Y-18421174D02*
X8948134Y-18411650D01*
X8948134Y-18411650D02*
X8976706Y-18411650D01*
X8976706Y-18411650D02*
X8995753Y-18421174D01*
X8995753Y-18421174D02*
X9005277Y-18430698D01*
X9005277Y-18430698D02*
X9014801Y-18449746D01*
X9014801Y-18449746D02*
X9014801Y-18506889D01*
X9014801Y-18506889D02*
X9005277Y-18525936D01*
X9005277Y-18525936D02*
X8995753Y-18535460D01*
X8995753Y-18535460D02*
X8976706Y-18544984D01*
X8976706Y-18544984D02*
X8948134Y-18544984D01*
X9129087Y-18544984D02*
X9110039Y-18535460D01*
X9110039Y-18535460D02*
X9100515Y-18516412D01*
X9100515Y-18516412D02*
X9100515Y-18344984D01*
X9281468Y-18535460D02*
X9262420Y-18544984D01*
X9262420Y-18544984D02*
X9224325Y-18544984D01*
X9224325Y-18544984D02*
X9205277Y-18535460D01*
X9205277Y-18535460D02*
X9195753Y-18516412D01*
X9195753Y-18516412D02*
X9195753Y-18440222D01*
X9195753Y-18440222D02*
X9205277Y-18421174D01*
X9205277Y-18421174D02*
X9224325Y-18411650D01*
X9224325Y-18411650D02*
X9262420Y-18411650D01*
X9262420Y-18411650D02*
X9281468Y-18421174D01*
X9281468Y-18421174D02*
X9290992Y-18440222D01*
X9290992Y-18440222D02*
X9290992Y-18459270D01*
X9290992Y-18459270D02*
X9195753Y-18478317D01*
X9357658Y-18621174D02*
X9367182Y-18611650D01*
X9367182Y-18611650D02*
X9386230Y-18583079D01*
X9386230Y-18583079D02*
X9395753Y-18564031D01*
X9395753Y-18564031D02*
X9405277Y-18535460D01*
X9405277Y-18535460D02*
X9414801Y-18487841D01*
X9414801Y-18487841D02*
X9414801Y-18449746D01*
X9414801Y-18449746D02*
X9405277Y-18402127D01*
X9405277Y-18402127D02*
X9395753Y-18373555D01*
X9395753Y-18373555D02*
X9386230Y-18354508D01*
X9386230Y-18354508D02*
X9367182Y-18325936D01*
X9367182Y-18325936D02*
X9357658Y-18316412D01*
X9719563Y-18621174D02*
X9710039Y-18611650D01*
X9710039Y-18611650D02*
X9690992Y-18583079D01*
X9690992Y-18583079D02*
X9681468Y-18564031D01*
X9681468Y-18564031D02*
X9671944Y-18535460D01*
X9671944Y-18535460D02*
X9662420Y-18487841D01*
X9662420Y-18487841D02*
X9662420Y-18449746D01*
X9662420Y-18449746D02*
X9671944Y-18402127D01*
X9671944Y-18402127D02*
X9681468Y-18373555D01*
X9681468Y-18373555D02*
X9690992Y-18354508D01*
X9690992Y-18354508D02*
X9710039Y-18325936D01*
X9710039Y-18325936D02*
X9719563Y-18316412D01*
X9795753Y-18411650D02*
X9795753Y-18544984D01*
X9795753Y-18430698D02*
X9805277Y-18421174D01*
X9805277Y-18421174D02*
X9824325Y-18411650D01*
X9824325Y-18411650D02*
X9852896Y-18411650D01*
X9852896Y-18411650D02*
X9871944Y-18421174D01*
X9871944Y-18421174D02*
X9881468Y-18440222D01*
X9881468Y-18440222D02*
X9881468Y-18544984D01*
X10005277Y-18544984D02*
X9986230Y-18535460D01*
X9986230Y-18535460D02*
X9976706Y-18525936D01*
X9976706Y-18525936D02*
X9967182Y-18506889D01*
X9967182Y-18506889D02*
X9967182Y-18449746D01*
X9967182Y-18449746D02*
X9976706Y-18430698D01*
X9976706Y-18430698D02*
X9986230Y-18421174D01*
X9986230Y-18421174D02*
X10005277Y-18411650D01*
X10005277Y-18411650D02*
X10033849Y-18411650D01*
X10033849Y-18411650D02*
X10052896Y-18421174D01*
X10052896Y-18421174D02*
X10062420Y-18430698D01*
X10062420Y-18430698D02*
X10071944Y-18449746D01*
X10071944Y-18449746D02*
X10071944Y-18506889D01*
X10071944Y-18506889D02*
X10062420Y-18525936D01*
X10062420Y-18525936D02*
X10052896Y-18535460D01*
X10052896Y-18535460D02*
X10033849Y-18544984D01*
X10033849Y-18544984D02*
X10005277Y-18544984D01*
X10129087Y-18411650D02*
X10205277Y-18411650D01*
X10157658Y-18344984D02*
X10157658Y-18516412D01*
X10157658Y-18516412D02*
X10167182Y-18535460D01*
X10167182Y-18535460D02*
X10186230Y-18544984D01*
X10186230Y-18544984D02*
X10205277Y-18544984D01*
X10424325Y-18411650D02*
X10424325Y-18611650D01*
X10424325Y-18421174D02*
X10443373Y-18411650D01*
X10443373Y-18411650D02*
X10481468Y-18411650D01*
X10481468Y-18411650D02*
X10500515Y-18421174D01*
X10500515Y-18421174D02*
X10510039Y-18430698D01*
X10510039Y-18430698D02*
X10519563Y-18449746D01*
X10519563Y-18449746D02*
X10519563Y-18506889D01*
X10519563Y-18506889D02*
X10510039Y-18525936D01*
X10510039Y-18525936D02*
X10500515Y-18535460D01*
X10500515Y-18535460D02*
X10481468Y-18544984D01*
X10481468Y-18544984D02*
X10443373Y-18544984D01*
X10443373Y-18544984D02*
X10424325Y-18535460D01*
X10633849Y-18544984D02*
X10614801Y-18535460D01*
X10614801Y-18535460D02*
X10605277Y-18516412D01*
X10605277Y-18516412D02*
X10605277Y-18344984D01*
X10795754Y-18544984D02*
X10795754Y-18440222D01*
X10795754Y-18440222D02*
X10786230Y-18421174D01*
X10786230Y-18421174D02*
X10767182Y-18411650D01*
X10767182Y-18411650D02*
X10729087Y-18411650D01*
X10729087Y-18411650D02*
X10710039Y-18421174D01*
X10795754Y-18535460D02*
X10776706Y-18544984D01*
X10776706Y-18544984D02*
X10729087Y-18544984D01*
X10729087Y-18544984D02*
X10710039Y-18535460D01*
X10710039Y-18535460D02*
X10700515Y-18516412D01*
X10700515Y-18516412D02*
X10700515Y-18497365D01*
X10700515Y-18497365D02*
X10710039Y-18478317D01*
X10710039Y-18478317D02*
X10729087Y-18468793D01*
X10729087Y-18468793D02*
X10776706Y-18468793D01*
X10776706Y-18468793D02*
X10795754Y-18459270D01*
X10862420Y-18411650D02*
X10938611Y-18411650D01*
X10890992Y-18344984D02*
X10890992Y-18516412D01*
X10890992Y-18516412D02*
X10900515Y-18535460D01*
X10900515Y-18535460D02*
X10919563Y-18544984D01*
X10919563Y-18544984D02*
X10938611Y-18544984D01*
X11081468Y-18535460D02*
X11062420Y-18544984D01*
X11062420Y-18544984D02*
X11024325Y-18544984D01*
X11024325Y-18544984D02*
X11005277Y-18535460D01*
X11005277Y-18535460D02*
X10995754Y-18516412D01*
X10995754Y-18516412D02*
X10995754Y-18440222D01*
X10995754Y-18440222D02*
X11005277Y-18421174D01*
X11005277Y-18421174D02*
X11024325Y-18411650D01*
X11024325Y-18411650D02*
X11062420Y-18411650D01*
X11062420Y-18411650D02*
X11081468Y-18421174D01*
X11081468Y-18421174D02*
X11090992Y-18440222D01*
X11090992Y-18440222D02*
X11090992Y-18459270D01*
X11090992Y-18459270D02*
X10995754Y-18478317D01*
X11262420Y-18544984D02*
X11262420Y-18344984D01*
X11262420Y-18535460D02*
X11243373Y-18544984D01*
X11243373Y-18544984D02*
X11205277Y-18544984D01*
X11205277Y-18544984D02*
X11186230Y-18535460D01*
X11186230Y-18535460D02*
X11176706Y-18525936D01*
X11176706Y-18525936D02*
X11167182Y-18506889D01*
X11167182Y-18506889D02*
X11167182Y-18449746D01*
X11167182Y-18449746D02*
X11176706Y-18430698D01*
X11176706Y-18430698D02*
X11186230Y-18421174D01*
X11186230Y-18421174D02*
X11205277Y-18411650D01*
X11205277Y-18411650D02*
X11243373Y-18411650D01*
X11243373Y-18411650D02*
X11262420Y-18421174D01*
X11338611Y-18621174D02*
X11348134Y-18611650D01*
X11348134Y-18611650D02*
X11367182Y-18583079D01*
X11367182Y-18583079D02*
X11376706Y-18564031D01*
X11376706Y-18564031D02*
X11386230Y-18535460D01*
X11386230Y-18535460D02*
X11395753Y-18487841D01*
X11395753Y-18487841D02*
X11395753Y-18449746D01*
X11395753Y-18449746D02*
X11386230Y-18402127D01*
X11386230Y-18402127D02*
X11376706Y-18373555D01*
X11376706Y-18373555D02*
X11367182Y-18354508D01*
X11367182Y-18354508D02*
X11348134Y-18325936D01*
X11348134Y-18325936D02*
X11338611Y-18316412D01*
X4544500Y-18633500D02*
X4744500Y-18833500D01*
X4744500Y-18633500D02*
X4544500Y-18833500D01*
X4744500Y-18733500D02*
G75*
G02*
X4544500Y-18733500I-100000J0D01*
G01*
X4544500Y-18733500D02*
G75*
G02*
X4744500Y-18733500I100000J0D01*
G01*
X4986229Y-18624984D02*
X5110039Y-18624984D01*
X5110039Y-18624984D02*
X5043372Y-18701174D01*
X5043372Y-18701174D02*
X5071944Y-18701174D01*
X5071944Y-18701174D02*
X5090991Y-18710698D01*
X5090991Y-18710698D02*
X5100515Y-18720222D01*
X5100515Y-18720222D02*
X5110039Y-18739270D01*
X5110039Y-18739270D02*
X5110039Y-18786889D01*
X5110039Y-18786889D02*
X5100515Y-18805936D01*
X5100515Y-18805936D02*
X5090991Y-18815460D01*
X5090991Y-18815460D02*
X5071944Y-18824984D01*
X5071944Y-18824984D02*
X5014801Y-18824984D01*
X5014801Y-18824984D02*
X4995753Y-18815460D01*
X4995753Y-18815460D02*
X4986229Y-18805936D01*
X5195753Y-18805936D02*
X5205277Y-18815460D01*
X5205277Y-18815460D02*
X5195753Y-18824984D01*
X5195753Y-18824984D02*
X5186229Y-18815460D01*
X5186229Y-18815460D02*
X5195753Y-18805936D01*
X5195753Y-18805936D02*
X5195753Y-18824984D01*
X5281467Y-18644031D02*
X5290991Y-18634508D01*
X5290991Y-18634508D02*
X5310039Y-18624984D01*
X5310039Y-18624984D02*
X5357658Y-18624984D01*
X5357658Y-18624984D02*
X5376705Y-18634508D01*
X5376705Y-18634508D02*
X5386229Y-18644031D01*
X5386229Y-18644031D02*
X5395753Y-18663079D01*
X5395753Y-18663079D02*
X5395753Y-18682127D01*
X5395753Y-18682127D02*
X5386229Y-18710698D01*
X5386229Y-18710698D02*
X5271944Y-18824984D01*
X5271944Y-18824984D02*
X5395753Y-18824984D01*
X5519563Y-18624984D02*
X5538610Y-18624984D01*
X5538610Y-18624984D02*
X5557658Y-18634508D01*
X5557658Y-18634508D02*
X5567182Y-18644031D01*
X5567182Y-18644031D02*
X5576705Y-18663079D01*
X5576705Y-18663079D02*
X5586229Y-18701174D01*
X5586229Y-18701174D02*
X5586229Y-18748793D01*
X5586229Y-18748793D02*
X5576705Y-18786889D01*
X5576705Y-18786889D02*
X5567182Y-18805936D01*
X5567182Y-18805936D02*
X5557658Y-18815460D01*
X5557658Y-18815460D02*
X5538610Y-18824984D01*
X5538610Y-18824984D02*
X5519563Y-18824984D01*
X5519563Y-18824984D02*
X5500515Y-18815460D01*
X5500515Y-18815460D02*
X5490991Y-18805936D01*
X5490991Y-18805936D02*
X5481467Y-18786889D01*
X5481467Y-18786889D02*
X5471944Y-18748793D01*
X5471944Y-18748793D02*
X5471944Y-18701174D01*
X5471944Y-18701174D02*
X5481467Y-18663079D01*
X5481467Y-18663079D02*
X5490991Y-18644031D01*
X5490991Y-18644031D02*
X5500515Y-18634508D01*
X5500515Y-18634508D02*
X5519563Y-18624984D01*
X5710039Y-18624984D02*
X5729086Y-18624984D01*
X5729086Y-18624984D02*
X5748134Y-18634508D01*
X5748134Y-18634508D02*
X5757658Y-18644031D01*
X5757658Y-18644031D02*
X5767182Y-18663079D01*
X5767182Y-18663079D02*
X5776705Y-18701174D01*
X5776705Y-18701174D02*
X5776705Y-18748793D01*
X5776705Y-18748793D02*
X5767182Y-18786889D01*
X5767182Y-18786889D02*
X5757658Y-18805936D01*
X5757658Y-18805936D02*
X5748134Y-18815460D01*
X5748134Y-18815460D02*
X5729086Y-18824984D01*
X5729086Y-18824984D02*
X5710039Y-18824984D01*
X5710039Y-18824984D02*
X5690991Y-18815460D01*
X5690991Y-18815460D02*
X5681467Y-18805936D01*
X5681467Y-18805936D02*
X5671943Y-18786889D01*
X5671943Y-18786889D02*
X5662420Y-18748793D01*
X5662420Y-18748793D02*
X5662420Y-18701174D01*
X5662420Y-18701174D02*
X5671943Y-18663079D01*
X5671943Y-18663079D02*
X5681467Y-18644031D01*
X5681467Y-18644031D02*
X5690991Y-18634508D01*
X5690991Y-18634508D02*
X5710039Y-18624984D01*
X5862420Y-18824984D02*
X5862420Y-18691650D01*
X5862420Y-18710698D02*
X5871943Y-18701174D01*
X5871943Y-18701174D02*
X5890991Y-18691650D01*
X5890991Y-18691650D02*
X5919563Y-18691650D01*
X5919563Y-18691650D02*
X5938610Y-18701174D01*
X5938610Y-18701174D02*
X5948134Y-18720222D01*
X5948134Y-18720222D02*
X5948134Y-18824984D01*
X5948134Y-18720222D02*
X5957658Y-18701174D01*
X5957658Y-18701174D02*
X5976705Y-18691650D01*
X5976705Y-18691650D02*
X6005277Y-18691650D01*
X6005277Y-18691650D02*
X6024324Y-18701174D01*
X6024324Y-18701174D02*
X6033848Y-18720222D01*
X6033848Y-18720222D02*
X6033848Y-18824984D01*
X6129086Y-18824984D02*
X6129086Y-18691650D01*
X6129086Y-18710698D02*
X6138610Y-18701174D01*
X6138610Y-18701174D02*
X6157658Y-18691650D01*
X6157658Y-18691650D02*
X6186229Y-18691650D01*
X6186229Y-18691650D02*
X6205277Y-18701174D01*
X6205277Y-18701174D02*
X6214801Y-18720222D01*
X6214801Y-18720222D02*
X6214801Y-18824984D01*
X6214801Y-18720222D02*
X6224324Y-18701174D01*
X6224324Y-18701174D02*
X6243372Y-18691650D01*
X6243372Y-18691650D02*
X6271943Y-18691650D01*
X6271943Y-18691650D02*
X6290991Y-18701174D01*
X6290991Y-18701174D02*
X6300515Y-18720222D01*
X6300515Y-18720222D02*
X6300515Y-18824984D01*
X6690991Y-18615460D02*
X6519563Y-18872603D01*
X6948134Y-18624984D02*
X6967182Y-18624984D01*
X6967182Y-18624984D02*
X6986229Y-18634508D01*
X6986229Y-18634508D02*
X6995753Y-18644031D01*
X6995753Y-18644031D02*
X7005277Y-18663079D01*
X7005277Y-18663079D02*
X7014801Y-18701174D01*
X7014801Y-18701174D02*
X7014801Y-18748793D01*
X7014801Y-18748793D02*
X7005277Y-18786889D01*
X7005277Y-18786889D02*
X6995753Y-18805936D01*
X6995753Y-18805936D02*
X6986229Y-18815460D01*
X6986229Y-18815460D02*
X6967182Y-18824984D01*
X6967182Y-18824984D02*
X6948134Y-18824984D01*
X6948134Y-18824984D02*
X6929086Y-18815460D01*
X6929086Y-18815460D02*
X6919563Y-18805936D01*
X6919563Y-18805936D02*
X6910039Y-18786889D01*
X6910039Y-18786889D02*
X6900515Y-18748793D01*
X6900515Y-18748793D02*
X6900515Y-18701174D01*
X6900515Y-18701174D02*
X6910039Y-18663079D01*
X6910039Y-18663079D02*
X6919563Y-18644031D01*
X6919563Y-18644031D02*
X6929086Y-18634508D01*
X6929086Y-18634508D02*
X6948134Y-18624984D01*
X7100515Y-18805936D02*
X7110039Y-18815460D01*
X7110039Y-18815460D02*
X7100515Y-18824984D01*
X7100515Y-18824984D02*
X7090991Y-18815460D01*
X7090991Y-18815460D02*
X7100515Y-18805936D01*
X7100515Y-18805936D02*
X7100515Y-18824984D01*
X7300515Y-18824984D02*
X7186229Y-18824984D01*
X7243372Y-18824984D02*
X7243372Y-18624984D01*
X7243372Y-18624984D02*
X7224325Y-18653555D01*
X7224325Y-18653555D02*
X7205277Y-18672603D01*
X7205277Y-18672603D02*
X7186229Y-18682127D01*
X7376706Y-18644031D02*
X7386229Y-18634508D01*
X7386229Y-18634508D02*
X7405277Y-18624984D01*
X7405277Y-18624984D02*
X7452896Y-18624984D01*
X7452896Y-18624984D02*
X7471944Y-18634508D01*
X7471944Y-18634508D02*
X7481467Y-18644031D01*
X7481467Y-18644031D02*
X7490991Y-18663079D01*
X7490991Y-18663079D02*
X7490991Y-18682127D01*
X7490991Y-18682127D02*
X7481467Y-18710698D01*
X7481467Y-18710698D02*
X7367182Y-18824984D01*
X7367182Y-18824984D02*
X7490991Y-18824984D01*
X7662420Y-18624984D02*
X7624325Y-18624984D01*
X7624325Y-18624984D02*
X7605277Y-18634508D01*
X7605277Y-18634508D02*
X7595753Y-18644031D01*
X7595753Y-18644031D02*
X7576706Y-18672603D01*
X7576706Y-18672603D02*
X7567182Y-18710698D01*
X7567182Y-18710698D02*
X7567182Y-18786889D01*
X7567182Y-18786889D02*
X7576706Y-18805936D01*
X7576706Y-18805936D02*
X7586229Y-18815460D01*
X7586229Y-18815460D02*
X7605277Y-18824984D01*
X7605277Y-18824984D02*
X7643372Y-18824984D01*
X7643372Y-18824984D02*
X7662420Y-18815460D01*
X7662420Y-18815460D02*
X7671944Y-18805936D01*
X7671944Y-18805936D02*
X7681467Y-18786889D01*
X7681467Y-18786889D02*
X7681467Y-18739270D01*
X7681467Y-18739270D02*
X7671944Y-18720222D01*
X7671944Y-18720222D02*
X7662420Y-18710698D01*
X7662420Y-18710698D02*
X7643372Y-18701174D01*
X7643372Y-18701174D02*
X7605277Y-18701174D01*
X7605277Y-18701174D02*
X7586229Y-18710698D01*
X7586229Y-18710698D02*
X7576706Y-18720222D01*
X7576706Y-18720222D02*
X7567182Y-18739270D01*
X7805277Y-18624984D02*
X7824325Y-18624984D01*
X7824325Y-18624984D02*
X7843372Y-18634508D01*
X7843372Y-18634508D02*
X7852896Y-18644031D01*
X7852896Y-18644031D02*
X7862420Y-18663079D01*
X7862420Y-18663079D02*
X7871944Y-18701174D01*
X7871944Y-18701174D02*
X7871944Y-18748793D01*
X7871944Y-18748793D02*
X7862420Y-18786889D01*
X7862420Y-18786889D02*
X7852896Y-18805936D01*
X7852896Y-18805936D02*
X7843372Y-18815460D01*
X7843372Y-18815460D02*
X7824325Y-18824984D01*
X7824325Y-18824984D02*
X7805277Y-18824984D01*
X7805277Y-18824984D02*
X7786229Y-18815460D01*
X7786229Y-18815460D02*
X7776706Y-18805936D01*
X7776706Y-18805936D02*
X7767182Y-18786889D01*
X7767182Y-18786889D02*
X7757658Y-18748793D01*
X7757658Y-18748793D02*
X7757658Y-18701174D01*
X7757658Y-18701174D02*
X7767182Y-18663079D01*
X7767182Y-18663079D02*
X7776706Y-18644031D01*
X7776706Y-18644031D02*
X7786229Y-18634508D01*
X7786229Y-18634508D02*
X7805277Y-18624984D01*
X7948134Y-18624984D02*
X7948134Y-18663079D01*
X8024325Y-18624984D02*
X8024325Y-18663079D01*
X8319563Y-18901174D02*
X8310039Y-18891650D01*
X8310039Y-18891650D02*
X8290991Y-18863079D01*
X8290991Y-18863079D02*
X8281468Y-18844031D01*
X8281468Y-18844031D02*
X8271944Y-18815460D01*
X8271944Y-18815460D02*
X8262420Y-18767841D01*
X8262420Y-18767841D02*
X8262420Y-18729746D01*
X8262420Y-18729746D02*
X8271944Y-18682127D01*
X8271944Y-18682127D02*
X8281468Y-18653555D01*
X8281468Y-18653555D02*
X8290991Y-18634508D01*
X8290991Y-18634508D02*
X8310039Y-18605936D01*
X8310039Y-18605936D02*
X8319563Y-18596412D01*
X8386229Y-18644031D02*
X8395753Y-18634508D01*
X8395753Y-18634508D02*
X8414801Y-18624984D01*
X8414801Y-18624984D02*
X8462420Y-18624984D01*
X8462420Y-18624984D02*
X8481468Y-18634508D01*
X8481468Y-18634508D02*
X8490991Y-18644031D01*
X8490991Y-18644031D02*
X8500515Y-18663079D01*
X8500515Y-18663079D02*
X8500515Y-18682127D01*
X8500515Y-18682127D02*
X8490991Y-18710698D01*
X8490991Y-18710698D02*
X8376706Y-18824984D01*
X8376706Y-18824984D02*
X8500515Y-18824984D01*
X8738611Y-18824984D02*
X8738611Y-18624984D01*
X8824325Y-18824984D02*
X8824325Y-18720222D01*
X8824325Y-18720222D02*
X8814801Y-18701174D01*
X8814801Y-18701174D02*
X8795753Y-18691650D01*
X8795753Y-18691650D02*
X8767182Y-18691650D01*
X8767182Y-18691650D02*
X8748134Y-18701174D01*
X8748134Y-18701174D02*
X8738611Y-18710698D01*
X8948134Y-18824984D02*
X8929087Y-18815460D01*
X8929087Y-18815460D02*
X8919563Y-18805936D01*
X8919563Y-18805936D02*
X8910039Y-18786889D01*
X8910039Y-18786889D02*
X8910039Y-18729746D01*
X8910039Y-18729746D02*
X8919563Y-18710698D01*
X8919563Y-18710698D02*
X8929087Y-18701174D01*
X8929087Y-18701174D02*
X8948134Y-18691650D01*
X8948134Y-18691650D02*
X8976706Y-18691650D01*
X8976706Y-18691650D02*
X8995753Y-18701174D01*
X8995753Y-18701174D02*
X9005277Y-18710698D01*
X9005277Y-18710698D02*
X9014801Y-18729746D01*
X9014801Y-18729746D02*
X9014801Y-18786889D01*
X9014801Y-18786889D02*
X9005277Y-18805936D01*
X9005277Y-18805936D02*
X8995753Y-18815460D01*
X8995753Y-18815460D02*
X8976706Y-18824984D01*
X8976706Y-18824984D02*
X8948134Y-18824984D01*
X9129087Y-18824984D02*
X9110039Y-18815460D01*
X9110039Y-18815460D02*
X9100515Y-18796412D01*
X9100515Y-18796412D02*
X9100515Y-18624984D01*
X9281468Y-18815460D02*
X9262420Y-18824984D01*
X9262420Y-18824984D02*
X9224325Y-18824984D01*
X9224325Y-18824984D02*
X9205277Y-18815460D01*
X9205277Y-18815460D02*
X9195753Y-18796412D01*
X9195753Y-18796412D02*
X9195753Y-18720222D01*
X9195753Y-18720222D02*
X9205277Y-18701174D01*
X9205277Y-18701174D02*
X9224325Y-18691650D01*
X9224325Y-18691650D02*
X9262420Y-18691650D01*
X9262420Y-18691650D02*
X9281468Y-18701174D01*
X9281468Y-18701174D02*
X9290992Y-18720222D01*
X9290992Y-18720222D02*
X9290992Y-18739270D01*
X9290992Y-18739270D02*
X9195753Y-18758317D01*
X9367182Y-18815460D02*
X9386230Y-18824984D01*
X9386230Y-18824984D02*
X9424325Y-18824984D01*
X9424325Y-18824984D02*
X9443373Y-18815460D01*
X9443373Y-18815460D02*
X9452896Y-18796412D01*
X9452896Y-18796412D02*
X9452896Y-18786889D01*
X9452896Y-18786889D02*
X9443373Y-18767841D01*
X9443373Y-18767841D02*
X9424325Y-18758317D01*
X9424325Y-18758317D02*
X9395753Y-18758317D01*
X9395753Y-18758317D02*
X9376706Y-18748793D01*
X9376706Y-18748793D02*
X9367182Y-18729746D01*
X9367182Y-18729746D02*
X9367182Y-18720222D01*
X9367182Y-18720222D02*
X9376706Y-18701174D01*
X9376706Y-18701174D02*
X9395753Y-18691650D01*
X9395753Y-18691650D02*
X9424325Y-18691650D01*
X9424325Y-18691650D02*
X9443373Y-18701174D01*
X9519563Y-18901174D02*
X9529087Y-18891650D01*
X9529087Y-18891650D02*
X9548134Y-18863079D01*
X9548134Y-18863079D02*
X9557658Y-18844031D01*
X9557658Y-18844031D02*
X9567182Y-18815460D01*
X9567182Y-18815460D02*
X9576706Y-18767841D01*
X9576706Y-18767841D02*
X9576706Y-18729746D01*
X9576706Y-18729746D02*
X9567182Y-18682127D01*
X9567182Y-18682127D02*
X9557658Y-18653555D01*
X9557658Y-18653555D02*
X9548134Y-18634508D01*
X9548134Y-18634508D02*
X9529087Y-18605936D01*
X9529087Y-18605936D02*
X9519563Y-18596412D01*
X9881468Y-18901174D02*
X9871944Y-18891650D01*
X9871944Y-18891650D02*
X9852896Y-18863079D01*
X9852896Y-18863079D02*
X9843373Y-18844031D01*
X9843373Y-18844031D02*
X9833849Y-18815460D01*
X9833849Y-18815460D02*
X9824325Y-18767841D01*
X9824325Y-18767841D02*
X9824325Y-18729746D01*
X9824325Y-18729746D02*
X9833849Y-18682127D01*
X9833849Y-18682127D02*
X9843373Y-18653555D01*
X9843373Y-18653555D02*
X9852896Y-18634508D01*
X9852896Y-18634508D02*
X9871944Y-18605936D01*
X9871944Y-18605936D02*
X9881468Y-18596412D01*
X9957658Y-18691650D02*
X9957658Y-18824984D01*
X9957658Y-18710698D02*
X9967182Y-18701174D01*
X9967182Y-18701174D02*
X9986230Y-18691650D01*
X9986230Y-18691650D02*
X10014801Y-18691650D01*
X10014801Y-18691650D02*
X10033849Y-18701174D01*
X10033849Y-18701174D02*
X10043373Y-18720222D01*
X10043373Y-18720222D02*
X10043373Y-18824984D01*
X10167182Y-18824984D02*
X10148134Y-18815460D01*
X10148134Y-18815460D02*
X10138611Y-18805936D01*
X10138611Y-18805936D02*
X10129087Y-18786889D01*
X10129087Y-18786889D02*
X10129087Y-18729746D01*
X10129087Y-18729746D02*
X10138611Y-18710698D01*
X10138611Y-18710698D02*
X10148134Y-18701174D01*
X10148134Y-18701174D02*
X10167182Y-18691650D01*
X10167182Y-18691650D02*
X10195754Y-18691650D01*
X10195754Y-18691650D02*
X10214801Y-18701174D01*
X10214801Y-18701174D02*
X10224325Y-18710698D01*
X10224325Y-18710698D02*
X10233849Y-18729746D01*
X10233849Y-18729746D02*
X10233849Y-18786889D01*
X10233849Y-18786889D02*
X10224325Y-18805936D01*
X10224325Y-18805936D02*
X10214801Y-18815460D01*
X10214801Y-18815460D02*
X10195754Y-18824984D01*
X10195754Y-18824984D02*
X10167182Y-18824984D01*
X10290992Y-18691650D02*
X10367182Y-18691650D01*
X10319563Y-18624984D02*
X10319563Y-18796412D01*
X10319563Y-18796412D02*
X10329087Y-18815460D01*
X10329087Y-18815460D02*
X10348134Y-18824984D01*
X10348134Y-18824984D02*
X10367182Y-18824984D01*
X10586230Y-18691650D02*
X10586230Y-18891650D01*
X10586230Y-18701174D02*
X10605277Y-18691650D01*
X10605277Y-18691650D02*
X10643373Y-18691650D01*
X10643373Y-18691650D02*
X10662420Y-18701174D01*
X10662420Y-18701174D02*
X10671944Y-18710698D01*
X10671944Y-18710698D02*
X10681468Y-18729746D01*
X10681468Y-18729746D02*
X10681468Y-18786889D01*
X10681468Y-18786889D02*
X10671944Y-18805936D01*
X10671944Y-18805936D02*
X10662420Y-18815460D01*
X10662420Y-18815460D02*
X10643373Y-18824984D01*
X10643373Y-18824984D02*
X10605277Y-18824984D01*
X10605277Y-18824984D02*
X10586230Y-18815460D01*
X10795754Y-18824984D02*
X10776706Y-18815460D01*
X10776706Y-18815460D02*
X10767182Y-18796412D01*
X10767182Y-18796412D02*
X10767182Y-18624984D01*
X10957658Y-18824984D02*
X10957658Y-18720222D01*
X10957658Y-18720222D02*
X10948135Y-18701174D01*
X10948135Y-18701174D02*
X10929087Y-18691650D01*
X10929087Y-18691650D02*
X10890992Y-18691650D01*
X10890992Y-18691650D02*
X10871944Y-18701174D01*
X10957658Y-18815460D02*
X10938611Y-18824984D01*
X10938611Y-18824984D02*
X10890992Y-18824984D01*
X10890992Y-18824984D02*
X10871944Y-18815460D01*
X10871944Y-18815460D02*
X10862420Y-18796412D01*
X10862420Y-18796412D02*
X10862420Y-18777365D01*
X10862420Y-18777365D02*
X10871944Y-18758317D01*
X10871944Y-18758317D02*
X10890992Y-18748793D01*
X10890992Y-18748793D02*
X10938611Y-18748793D01*
X10938611Y-18748793D02*
X10957658Y-18739270D01*
X11024325Y-18691650D02*
X11100515Y-18691650D01*
X11052896Y-18624984D02*
X11052896Y-18796412D01*
X11052896Y-18796412D02*
X11062420Y-18815460D01*
X11062420Y-18815460D02*
X11081468Y-18824984D01*
X11081468Y-18824984D02*
X11100515Y-18824984D01*
X11243373Y-18815460D02*
X11224325Y-18824984D01*
X11224325Y-18824984D02*
X11186230Y-18824984D01*
X11186230Y-18824984D02*
X11167182Y-18815460D01*
X11167182Y-18815460D02*
X11157658Y-18796412D01*
X11157658Y-18796412D02*
X11157658Y-18720222D01*
X11157658Y-18720222D02*
X11167182Y-18701174D01*
X11167182Y-18701174D02*
X11186230Y-18691650D01*
X11186230Y-18691650D02*
X11224325Y-18691650D01*
X11224325Y-18691650D02*
X11243373Y-18701174D01*
X11243373Y-18701174D02*
X11252896Y-18720222D01*
X11252896Y-18720222D02*
X11252896Y-18739270D01*
X11252896Y-18739270D02*
X11157658Y-18758317D01*
X11424325Y-18824984D02*
X11424325Y-18624984D01*
X11424325Y-18815460D02*
X11405277Y-18824984D01*
X11405277Y-18824984D02*
X11367182Y-18824984D01*
X11367182Y-18824984D02*
X11348134Y-18815460D01*
X11348134Y-18815460D02*
X11338611Y-18805936D01*
X11338611Y-18805936D02*
X11329087Y-18786889D01*
X11329087Y-18786889D02*
X11329087Y-18729746D01*
X11329087Y-18729746D02*
X11338611Y-18710698D01*
X11338611Y-18710698D02*
X11348134Y-18701174D01*
X11348134Y-18701174D02*
X11367182Y-18691650D01*
X11367182Y-18691650D02*
X11405277Y-18691650D01*
X11405277Y-18691650D02*
X11424325Y-18701174D01*
X11500515Y-18901174D02*
X11510039Y-18891650D01*
X11510039Y-18891650D02*
X11529087Y-18863079D01*
X11529087Y-18863079D02*
X11538611Y-18844031D01*
X11538611Y-18844031D02*
X11548134Y-18815460D01*
X11548134Y-18815460D02*
X11557658Y-18767841D01*
X11557658Y-18767841D02*
X11557658Y-18729746D01*
X11557658Y-18729746D02*
X11548134Y-18682127D01*
X11548134Y-18682127D02*
X11538611Y-18653555D01*
X11538611Y-18653555D02*
X11529087Y-18634508D01*
X11529087Y-18634508D02*
X11510039Y-18605936D01*
X11510039Y-18605936D02*
X11500515Y-18596412D01*
X4544500Y-18953500D02*
X4744500Y-19153500D01*
X4744500Y-18953500D02*
X4544500Y-19153500D01*
X4644500Y-18953500D02*
X4644500Y-19153500D01*
X4544500Y-19053500D02*
X4744500Y-19053500D01*
X4986229Y-18944984D02*
X5110039Y-18944984D01*
X5110039Y-18944984D02*
X5043372Y-19021174D01*
X5043372Y-19021174D02*
X5071944Y-19021174D01*
X5071944Y-19021174D02*
X5090991Y-19030698D01*
X5090991Y-19030698D02*
X5100515Y-19040222D01*
X5100515Y-19040222D02*
X5110039Y-19059270D01*
X5110039Y-19059270D02*
X5110039Y-19106889D01*
X5110039Y-19106889D02*
X5100515Y-19125936D01*
X5100515Y-19125936D02*
X5090991Y-19135460D01*
X5090991Y-19135460D02*
X5071944Y-19144984D01*
X5071944Y-19144984D02*
X5014801Y-19144984D01*
X5014801Y-19144984D02*
X4995753Y-19135460D01*
X4995753Y-19135460D02*
X4986229Y-19125936D01*
X5195753Y-19125936D02*
X5205277Y-19135460D01*
X5205277Y-19135460D02*
X5195753Y-19144984D01*
X5195753Y-19144984D02*
X5186229Y-19135460D01*
X5186229Y-19135460D02*
X5195753Y-19125936D01*
X5195753Y-19125936D02*
X5195753Y-19144984D01*
X5281467Y-18964031D02*
X5290991Y-18954508D01*
X5290991Y-18954508D02*
X5310039Y-18944984D01*
X5310039Y-18944984D02*
X5357658Y-18944984D01*
X5357658Y-18944984D02*
X5376705Y-18954508D01*
X5376705Y-18954508D02*
X5386229Y-18964031D01*
X5386229Y-18964031D02*
X5395753Y-18983079D01*
X5395753Y-18983079D02*
X5395753Y-19002127D01*
X5395753Y-19002127D02*
X5386229Y-19030698D01*
X5386229Y-19030698D02*
X5271944Y-19144984D01*
X5271944Y-19144984D02*
X5395753Y-19144984D01*
X5576705Y-18944984D02*
X5481467Y-18944984D01*
X5481467Y-18944984D02*
X5471944Y-19040222D01*
X5471944Y-19040222D02*
X5481467Y-19030698D01*
X5481467Y-19030698D02*
X5500515Y-19021174D01*
X5500515Y-19021174D02*
X5548134Y-19021174D01*
X5548134Y-19021174D02*
X5567182Y-19030698D01*
X5567182Y-19030698D02*
X5576705Y-19040222D01*
X5576705Y-19040222D02*
X5586229Y-19059270D01*
X5586229Y-19059270D02*
X5586229Y-19106889D01*
X5586229Y-19106889D02*
X5576705Y-19125936D01*
X5576705Y-19125936D02*
X5567182Y-19135460D01*
X5567182Y-19135460D02*
X5548134Y-19144984D01*
X5548134Y-19144984D02*
X5500515Y-19144984D01*
X5500515Y-19144984D02*
X5481467Y-19135460D01*
X5481467Y-19135460D02*
X5471944Y-19125936D01*
X5710039Y-18944984D02*
X5729086Y-18944984D01*
X5729086Y-18944984D02*
X5748134Y-18954508D01*
X5748134Y-18954508D02*
X5757658Y-18964031D01*
X5757658Y-18964031D02*
X5767182Y-18983079D01*
X5767182Y-18983079D02*
X5776705Y-19021174D01*
X5776705Y-19021174D02*
X5776705Y-19068793D01*
X5776705Y-19068793D02*
X5767182Y-19106889D01*
X5767182Y-19106889D02*
X5757658Y-19125936D01*
X5757658Y-19125936D02*
X5748134Y-19135460D01*
X5748134Y-19135460D02*
X5729086Y-19144984D01*
X5729086Y-19144984D02*
X5710039Y-19144984D01*
X5710039Y-19144984D02*
X5690991Y-19135460D01*
X5690991Y-19135460D02*
X5681467Y-19125936D01*
X5681467Y-19125936D02*
X5671943Y-19106889D01*
X5671943Y-19106889D02*
X5662420Y-19068793D01*
X5662420Y-19068793D02*
X5662420Y-19021174D01*
X5662420Y-19021174D02*
X5671943Y-18983079D01*
X5671943Y-18983079D02*
X5681467Y-18964031D01*
X5681467Y-18964031D02*
X5690991Y-18954508D01*
X5690991Y-18954508D02*
X5710039Y-18944984D01*
X5862420Y-19144984D02*
X5862420Y-19011650D01*
X5862420Y-19030698D02*
X5871943Y-19021174D01*
X5871943Y-19021174D02*
X5890991Y-19011650D01*
X5890991Y-19011650D02*
X5919563Y-19011650D01*
X5919563Y-19011650D02*
X5938610Y-19021174D01*
X5938610Y-19021174D02*
X5948134Y-19040222D01*
X5948134Y-19040222D02*
X5948134Y-19144984D01*
X5948134Y-19040222D02*
X5957658Y-19021174D01*
X5957658Y-19021174D02*
X5976705Y-19011650D01*
X5976705Y-19011650D02*
X6005277Y-19011650D01*
X6005277Y-19011650D02*
X6024324Y-19021174D01*
X6024324Y-19021174D02*
X6033848Y-19040222D01*
X6033848Y-19040222D02*
X6033848Y-19144984D01*
X6129086Y-19144984D02*
X6129086Y-19011650D01*
X6129086Y-19030698D02*
X6138610Y-19021174D01*
X6138610Y-19021174D02*
X6157658Y-19011650D01*
X6157658Y-19011650D02*
X6186229Y-19011650D01*
X6186229Y-19011650D02*
X6205277Y-19021174D01*
X6205277Y-19021174D02*
X6214801Y-19040222D01*
X6214801Y-19040222D02*
X6214801Y-19144984D01*
X6214801Y-19040222D02*
X6224324Y-19021174D01*
X6224324Y-19021174D02*
X6243372Y-19011650D01*
X6243372Y-19011650D02*
X6271943Y-19011650D01*
X6271943Y-19011650D02*
X6290991Y-19021174D01*
X6290991Y-19021174D02*
X6300515Y-19040222D01*
X6300515Y-19040222D02*
X6300515Y-19144984D01*
X6690991Y-18935460D02*
X6519563Y-19192603D01*
X6948134Y-18944984D02*
X6967182Y-18944984D01*
X6967182Y-18944984D02*
X6986229Y-18954508D01*
X6986229Y-18954508D02*
X6995753Y-18964031D01*
X6995753Y-18964031D02*
X7005277Y-18983079D01*
X7005277Y-18983079D02*
X7014801Y-19021174D01*
X7014801Y-19021174D02*
X7014801Y-19068793D01*
X7014801Y-19068793D02*
X7005277Y-19106889D01*
X7005277Y-19106889D02*
X6995753Y-19125936D01*
X6995753Y-19125936D02*
X6986229Y-19135460D01*
X6986229Y-19135460D02*
X6967182Y-19144984D01*
X6967182Y-19144984D02*
X6948134Y-19144984D01*
X6948134Y-19144984D02*
X6929086Y-19135460D01*
X6929086Y-19135460D02*
X6919563Y-19125936D01*
X6919563Y-19125936D02*
X6910039Y-19106889D01*
X6910039Y-19106889D02*
X6900515Y-19068793D01*
X6900515Y-19068793D02*
X6900515Y-19021174D01*
X6900515Y-19021174D02*
X6910039Y-18983079D01*
X6910039Y-18983079D02*
X6919563Y-18964031D01*
X6919563Y-18964031D02*
X6929086Y-18954508D01*
X6929086Y-18954508D02*
X6948134Y-18944984D01*
X7100515Y-19125936D02*
X7110039Y-19135460D01*
X7110039Y-19135460D02*
X7100515Y-19144984D01*
X7100515Y-19144984D02*
X7090991Y-19135460D01*
X7090991Y-19135460D02*
X7100515Y-19125936D01*
X7100515Y-19125936D02*
X7100515Y-19144984D01*
X7300515Y-19144984D02*
X7186229Y-19144984D01*
X7243372Y-19144984D02*
X7243372Y-18944984D01*
X7243372Y-18944984D02*
X7224325Y-18973555D01*
X7224325Y-18973555D02*
X7205277Y-18992603D01*
X7205277Y-18992603D02*
X7186229Y-19002127D01*
X7376706Y-18964031D02*
X7386229Y-18954508D01*
X7386229Y-18954508D02*
X7405277Y-18944984D01*
X7405277Y-18944984D02*
X7452896Y-18944984D01*
X7452896Y-18944984D02*
X7471944Y-18954508D01*
X7471944Y-18954508D02*
X7481467Y-18964031D01*
X7481467Y-18964031D02*
X7490991Y-18983079D01*
X7490991Y-18983079D02*
X7490991Y-19002127D01*
X7490991Y-19002127D02*
X7481467Y-19030698D01*
X7481467Y-19030698D02*
X7367182Y-19144984D01*
X7367182Y-19144984D02*
X7490991Y-19144984D01*
X7605277Y-19030698D02*
X7586229Y-19021174D01*
X7586229Y-19021174D02*
X7576706Y-19011650D01*
X7576706Y-19011650D02*
X7567182Y-18992603D01*
X7567182Y-18992603D02*
X7567182Y-18983079D01*
X7567182Y-18983079D02*
X7576706Y-18964031D01*
X7576706Y-18964031D02*
X7586229Y-18954508D01*
X7586229Y-18954508D02*
X7605277Y-18944984D01*
X7605277Y-18944984D02*
X7643372Y-18944984D01*
X7643372Y-18944984D02*
X7662420Y-18954508D01*
X7662420Y-18954508D02*
X7671944Y-18964031D01*
X7671944Y-18964031D02*
X7681467Y-18983079D01*
X7681467Y-18983079D02*
X7681467Y-18992603D01*
X7681467Y-18992603D02*
X7671944Y-19011650D01*
X7671944Y-19011650D02*
X7662420Y-19021174D01*
X7662420Y-19021174D02*
X7643372Y-19030698D01*
X7643372Y-19030698D02*
X7605277Y-19030698D01*
X7605277Y-19030698D02*
X7586229Y-19040222D01*
X7586229Y-19040222D02*
X7576706Y-19049746D01*
X7576706Y-19049746D02*
X7567182Y-19068793D01*
X7567182Y-19068793D02*
X7567182Y-19106889D01*
X7567182Y-19106889D02*
X7576706Y-19125936D01*
X7576706Y-19125936D02*
X7586229Y-19135460D01*
X7586229Y-19135460D02*
X7605277Y-19144984D01*
X7605277Y-19144984D02*
X7643372Y-19144984D01*
X7643372Y-19144984D02*
X7662420Y-19135460D01*
X7662420Y-19135460D02*
X7671944Y-19125936D01*
X7671944Y-19125936D02*
X7681467Y-19106889D01*
X7681467Y-19106889D02*
X7681467Y-19068793D01*
X7681467Y-19068793D02*
X7671944Y-19049746D01*
X7671944Y-19049746D02*
X7662420Y-19040222D01*
X7662420Y-19040222D02*
X7643372Y-19030698D01*
X7805277Y-18944984D02*
X7824325Y-18944984D01*
X7824325Y-18944984D02*
X7843372Y-18954508D01*
X7843372Y-18954508D02*
X7852896Y-18964031D01*
X7852896Y-18964031D02*
X7862420Y-18983079D01*
X7862420Y-18983079D02*
X7871944Y-19021174D01*
X7871944Y-19021174D02*
X7871944Y-19068793D01*
X7871944Y-19068793D02*
X7862420Y-19106889D01*
X7862420Y-19106889D02*
X7852896Y-19125936D01*
X7852896Y-19125936D02*
X7843372Y-19135460D01*
X7843372Y-19135460D02*
X7824325Y-19144984D01*
X7824325Y-19144984D02*
X7805277Y-19144984D01*
X7805277Y-19144984D02*
X7786229Y-19135460D01*
X7786229Y-19135460D02*
X7776706Y-19125936D01*
X7776706Y-19125936D02*
X7767182Y-19106889D01*
X7767182Y-19106889D02*
X7757658Y-19068793D01*
X7757658Y-19068793D02*
X7757658Y-19021174D01*
X7757658Y-19021174D02*
X7767182Y-18983079D01*
X7767182Y-18983079D02*
X7776706Y-18964031D01*
X7776706Y-18964031D02*
X7786229Y-18954508D01*
X7786229Y-18954508D02*
X7805277Y-18944984D01*
X7948134Y-18944984D02*
X7948134Y-18983079D01*
X8024325Y-18944984D02*
X8024325Y-18983079D01*
X8319563Y-19221174D02*
X8310039Y-19211650D01*
X8310039Y-19211650D02*
X8290991Y-19183079D01*
X8290991Y-19183079D02*
X8281468Y-19164031D01*
X8281468Y-19164031D02*
X8271944Y-19135460D01*
X8271944Y-19135460D02*
X8262420Y-19087841D01*
X8262420Y-19087841D02*
X8262420Y-19049746D01*
X8262420Y-19049746D02*
X8271944Y-19002127D01*
X8271944Y-19002127D02*
X8281468Y-18973555D01*
X8281468Y-18973555D02*
X8290991Y-18954508D01*
X8290991Y-18954508D02*
X8310039Y-18925936D01*
X8310039Y-18925936D02*
X8319563Y-18916412D01*
X8481468Y-19011650D02*
X8481468Y-19144984D01*
X8433849Y-18935460D02*
X8386229Y-19078317D01*
X8386229Y-19078317D02*
X8510039Y-19078317D01*
X8738611Y-19144984D02*
X8738611Y-18944984D01*
X8824325Y-19144984D02*
X8824325Y-19040222D01*
X8824325Y-19040222D02*
X8814801Y-19021174D01*
X8814801Y-19021174D02*
X8795753Y-19011650D01*
X8795753Y-19011650D02*
X8767182Y-19011650D01*
X8767182Y-19011650D02*
X8748134Y-19021174D01*
X8748134Y-19021174D02*
X8738611Y-19030698D01*
X8948134Y-19144984D02*
X8929087Y-19135460D01*
X8929087Y-19135460D02*
X8919563Y-19125936D01*
X8919563Y-19125936D02*
X8910039Y-19106889D01*
X8910039Y-19106889D02*
X8910039Y-19049746D01*
X8910039Y-19049746D02*
X8919563Y-19030698D01*
X8919563Y-19030698D02*
X8929087Y-19021174D01*
X8929087Y-19021174D02*
X8948134Y-19011650D01*
X8948134Y-19011650D02*
X8976706Y-19011650D01*
X8976706Y-19011650D02*
X8995753Y-19021174D01*
X8995753Y-19021174D02*
X9005277Y-19030698D01*
X9005277Y-19030698D02*
X9014801Y-19049746D01*
X9014801Y-19049746D02*
X9014801Y-19106889D01*
X9014801Y-19106889D02*
X9005277Y-19125936D01*
X9005277Y-19125936D02*
X8995753Y-19135460D01*
X8995753Y-19135460D02*
X8976706Y-19144984D01*
X8976706Y-19144984D02*
X8948134Y-19144984D01*
X9129087Y-19144984D02*
X9110039Y-19135460D01*
X9110039Y-19135460D02*
X9100515Y-19116412D01*
X9100515Y-19116412D02*
X9100515Y-18944984D01*
X9281468Y-19135460D02*
X9262420Y-19144984D01*
X9262420Y-19144984D02*
X9224325Y-19144984D01*
X9224325Y-19144984D02*
X9205277Y-19135460D01*
X9205277Y-19135460D02*
X9195753Y-19116412D01*
X9195753Y-19116412D02*
X9195753Y-19040222D01*
X9195753Y-19040222D02*
X9205277Y-19021174D01*
X9205277Y-19021174D02*
X9224325Y-19011650D01*
X9224325Y-19011650D02*
X9262420Y-19011650D01*
X9262420Y-19011650D02*
X9281468Y-19021174D01*
X9281468Y-19021174D02*
X9290992Y-19040222D01*
X9290992Y-19040222D02*
X9290992Y-19059270D01*
X9290992Y-19059270D02*
X9195753Y-19078317D01*
X9367182Y-19135460D02*
X9386230Y-19144984D01*
X9386230Y-19144984D02*
X9424325Y-19144984D01*
X9424325Y-19144984D02*
X9443373Y-19135460D01*
X9443373Y-19135460D02*
X9452896Y-19116412D01*
X9452896Y-19116412D02*
X9452896Y-19106889D01*
X9452896Y-19106889D02*
X9443373Y-19087841D01*
X9443373Y-19087841D02*
X9424325Y-19078317D01*
X9424325Y-19078317D02*
X9395753Y-19078317D01*
X9395753Y-19078317D02*
X9376706Y-19068793D01*
X9376706Y-19068793D02*
X9367182Y-19049746D01*
X9367182Y-19049746D02*
X9367182Y-19040222D01*
X9367182Y-19040222D02*
X9376706Y-19021174D01*
X9376706Y-19021174D02*
X9395753Y-19011650D01*
X9395753Y-19011650D02*
X9424325Y-19011650D01*
X9424325Y-19011650D02*
X9443373Y-19021174D01*
X9519563Y-19221174D02*
X9529087Y-19211650D01*
X9529087Y-19211650D02*
X9548134Y-19183079D01*
X9548134Y-19183079D02*
X9557658Y-19164031D01*
X9557658Y-19164031D02*
X9567182Y-19135460D01*
X9567182Y-19135460D02*
X9576706Y-19087841D01*
X9576706Y-19087841D02*
X9576706Y-19049746D01*
X9576706Y-19049746D02*
X9567182Y-19002127D01*
X9567182Y-19002127D02*
X9557658Y-18973555D01*
X9557658Y-18973555D02*
X9548134Y-18954508D01*
X9548134Y-18954508D02*
X9529087Y-18925936D01*
X9529087Y-18925936D02*
X9519563Y-18916412D01*
X9881468Y-19221174D02*
X9871944Y-19211650D01*
X9871944Y-19211650D02*
X9852896Y-19183079D01*
X9852896Y-19183079D02*
X9843373Y-19164031D01*
X9843373Y-19164031D02*
X9833849Y-19135460D01*
X9833849Y-19135460D02*
X9824325Y-19087841D01*
X9824325Y-19087841D02*
X9824325Y-19049746D01*
X9824325Y-19049746D02*
X9833849Y-19002127D01*
X9833849Y-19002127D02*
X9843373Y-18973555D01*
X9843373Y-18973555D02*
X9852896Y-18954508D01*
X9852896Y-18954508D02*
X9871944Y-18925936D01*
X9871944Y-18925936D02*
X9881468Y-18916412D01*
X9957658Y-19011650D02*
X9957658Y-19144984D01*
X9957658Y-19030698D02*
X9967182Y-19021174D01*
X9967182Y-19021174D02*
X9986230Y-19011650D01*
X9986230Y-19011650D02*
X10014801Y-19011650D01*
X10014801Y-19011650D02*
X10033849Y-19021174D01*
X10033849Y-19021174D02*
X10043373Y-19040222D01*
X10043373Y-19040222D02*
X10043373Y-19144984D01*
X10167182Y-19144984D02*
X10148134Y-19135460D01*
X10148134Y-19135460D02*
X10138611Y-19125936D01*
X10138611Y-19125936D02*
X10129087Y-19106889D01*
X10129087Y-19106889D02*
X10129087Y-19049746D01*
X10129087Y-19049746D02*
X10138611Y-19030698D01*
X10138611Y-19030698D02*
X10148134Y-19021174D01*
X10148134Y-19021174D02*
X10167182Y-19011650D01*
X10167182Y-19011650D02*
X10195754Y-19011650D01*
X10195754Y-19011650D02*
X10214801Y-19021174D01*
X10214801Y-19021174D02*
X10224325Y-19030698D01*
X10224325Y-19030698D02*
X10233849Y-19049746D01*
X10233849Y-19049746D02*
X10233849Y-19106889D01*
X10233849Y-19106889D02*
X10224325Y-19125936D01*
X10224325Y-19125936D02*
X10214801Y-19135460D01*
X10214801Y-19135460D02*
X10195754Y-19144984D01*
X10195754Y-19144984D02*
X10167182Y-19144984D01*
X10290992Y-19011650D02*
X10367182Y-19011650D01*
X10319563Y-18944984D02*
X10319563Y-19116412D01*
X10319563Y-19116412D02*
X10329087Y-19135460D01*
X10329087Y-19135460D02*
X10348134Y-19144984D01*
X10348134Y-19144984D02*
X10367182Y-19144984D01*
X10586230Y-19011650D02*
X10586230Y-19211650D01*
X10586230Y-19021174D02*
X10605277Y-19011650D01*
X10605277Y-19011650D02*
X10643373Y-19011650D01*
X10643373Y-19011650D02*
X10662420Y-19021174D01*
X10662420Y-19021174D02*
X10671944Y-19030698D01*
X10671944Y-19030698D02*
X10681468Y-19049746D01*
X10681468Y-19049746D02*
X10681468Y-19106889D01*
X10681468Y-19106889D02*
X10671944Y-19125936D01*
X10671944Y-19125936D02*
X10662420Y-19135460D01*
X10662420Y-19135460D02*
X10643373Y-19144984D01*
X10643373Y-19144984D02*
X10605277Y-19144984D01*
X10605277Y-19144984D02*
X10586230Y-19135460D01*
X10795754Y-19144984D02*
X10776706Y-19135460D01*
X10776706Y-19135460D02*
X10767182Y-19116412D01*
X10767182Y-19116412D02*
X10767182Y-18944984D01*
X10957658Y-19144984D02*
X10957658Y-19040222D01*
X10957658Y-19040222D02*
X10948135Y-19021174D01*
X10948135Y-19021174D02*
X10929087Y-19011650D01*
X10929087Y-19011650D02*
X10890992Y-19011650D01*
X10890992Y-19011650D02*
X10871944Y-19021174D01*
X10957658Y-19135460D02*
X10938611Y-19144984D01*
X10938611Y-19144984D02*
X10890992Y-19144984D01*
X10890992Y-19144984D02*
X10871944Y-19135460D01*
X10871944Y-19135460D02*
X10862420Y-19116412D01*
X10862420Y-19116412D02*
X10862420Y-19097365D01*
X10862420Y-19097365D02*
X10871944Y-19078317D01*
X10871944Y-19078317D02*
X10890992Y-19068793D01*
X10890992Y-19068793D02*
X10938611Y-19068793D01*
X10938611Y-19068793D02*
X10957658Y-19059270D01*
X11024325Y-19011650D02*
X11100515Y-19011650D01*
X11052896Y-18944984D02*
X11052896Y-19116412D01*
X11052896Y-19116412D02*
X11062420Y-19135460D01*
X11062420Y-19135460D02*
X11081468Y-19144984D01*
X11081468Y-19144984D02*
X11100515Y-19144984D01*
X11243373Y-19135460D02*
X11224325Y-19144984D01*
X11224325Y-19144984D02*
X11186230Y-19144984D01*
X11186230Y-19144984D02*
X11167182Y-19135460D01*
X11167182Y-19135460D02*
X11157658Y-19116412D01*
X11157658Y-19116412D02*
X11157658Y-19040222D01*
X11157658Y-19040222D02*
X11167182Y-19021174D01*
X11167182Y-19021174D02*
X11186230Y-19011650D01*
X11186230Y-19011650D02*
X11224325Y-19011650D01*
X11224325Y-19011650D02*
X11243373Y-19021174D01*
X11243373Y-19021174D02*
X11252896Y-19040222D01*
X11252896Y-19040222D02*
X11252896Y-19059270D01*
X11252896Y-19059270D02*
X11157658Y-19078317D01*
X11424325Y-19144984D02*
X11424325Y-18944984D01*
X11424325Y-19135460D02*
X11405277Y-19144984D01*
X11405277Y-19144984D02*
X11367182Y-19144984D01*
X11367182Y-19144984D02*
X11348134Y-19135460D01*
X11348134Y-19135460D02*
X11338611Y-19125936D01*
X11338611Y-19125936D02*
X11329087Y-19106889D01*
X11329087Y-19106889D02*
X11329087Y-19049746D01*
X11329087Y-19049746D02*
X11338611Y-19030698D01*
X11338611Y-19030698D02*
X11348134Y-19021174D01*
X11348134Y-19021174D02*
X11367182Y-19011650D01*
X11367182Y-19011650D02*
X11405277Y-19011650D01*
X11405277Y-19011650D02*
X11424325Y-19021174D01*
X11500515Y-19221174D02*
X11510039Y-19211650D01*
X11510039Y-19211650D02*
X11529087Y-19183079D01*
X11529087Y-19183079D02*
X11538611Y-19164031D01*
X11538611Y-19164031D02*
X11548134Y-19135460D01*
X11548134Y-19135460D02*
X11557658Y-19087841D01*
X11557658Y-19087841D02*
X11557658Y-19049746D01*
X11557658Y-19049746D02*
X11548134Y-19002127D01*
X11548134Y-19002127D02*
X11538611Y-18973555D01*
X11538611Y-18973555D02*
X11529087Y-18954508D01*
X11529087Y-18954508D02*
X11510039Y-18925936D01*
X11510039Y-18925936D02*
X11500515Y-18916412D01*
M02*
