G04*
G04 #@! TF.GenerationSoftware,Altium Limited,Altium Designer,22.2.1 (43)*
G04*
G04 Layer_Color=8421504*
%FSLAX25Y25*%
%MOIN*%
G70*
G04*
G04 #@! TF.SameCoordinates,1D5F905C-50EE-4002-88AC-00FA8B853EC3*
G04*
G04*
G04 #@! TF.FilePolarity,Positive*
G04*
G01*
G75*
G04:AMPARAMS|DCode=18|XSize=78.74mil|YSize=59.06mil|CornerRadius=14.76mil|HoleSize=0mil|Usage=FLASHONLY|Rotation=90.000|XOffset=0mil|YOffset=0mil|HoleType=Round|Shape=RoundedRectangle|*
%AMROUNDEDRECTD18*
21,1,0.07874,0.02953,0,0,90.0*
21,1,0.04921,0.05906,0,0,90.0*
1,1,0.02953,0.01476,0.02461*
1,1,0.02953,0.01476,-0.02461*
1,1,0.02953,-0.01476,-0.02461*
1,1,0.02953,-0.01476,0.02461*
%
%ADD18ROUNDEDRECTD18*%
%ADD19R,0.03347X0.03347*%
%ADD20R,0.04409X0.08543*%
%ADD21R,0.06004X0.02559*%
%ADD22R,0.02362X0.02953*%
%ADD23R,0.02953X0.02362*%
%ADD24R,0.03150X0.03937*%
%ADD25R,0.03937X0.05906*%
%ADD26R,0.02441X0.02205*%
%ADD27R,0.11811X0.04921*%
%ADD28R,0.04724X0.07087*%
%ADD29R,0.16142X0.16929*%
%ADD30R,0.13780X0.04724*%
%ADD31R,0.13386X0.05906*%
%ADD32R,0.05906X0.03937*%
%ADD33R,0.08661X0.06299*%
%ADD34R,0.02559X0.04331*%
%ADD35R,0.04331X0.02559*%
%ADD36R,0.05118X0.12795*%
%ADD37R,0.05118X0.03740*%
%ADD38R,0.04016X0.03425*%
%ADD39R,0.39370X0.31496*%
%ADD40R,0.03937X0.12598*%
%ADD41R,0.02559X0.01378*%
%ADD42R,0.02205X0.02441*%
%ADD43R,0.06102X0.08268*%
%ADD44R,0.15748X0.08465*%
%ADD45R,0.13780X0.03937*%
%ADD46R,0.13780X0.06299*%
%ADD47R,0.06496X0.04528*%
%ADD48R,0.03937X0.02362*%
%ADD49R,0.01575X0.03740*%
%ADD50R,0.02559X0.02520*%
%ADD51R,0.03150X0.01181*%
%ADD52R,0.01181X0.03150*%
%ADD53R,0.10433X0.10827*%
%ADD54R,0.04961X0.04606*%
%ADD55R,0.08661X0.02362*%
%ADD56R,0.02520X0.01850*%
%ADD57R,0.08465X0.17126*%
%ADD58R,0.04528X0.06496*%
%ADD59R,0.03071X0.03898*%
%ADD60R,0.03740X0.03740*%
%ADD61R,0.08071X0.08858*%
%ADD62R,0.20079X0.12598*%
%ADD63R,0.06102X0.09055*%
%ADD64R,0.03543X0.05512*%
%ADD65R,0.07087X0.10236*%
%ADD66R,0.01654X0.02677*%
%ADD67R,0.01181X0.07284*%
%ADD68R,0.07284X0.01181*%
%ADD69R,0.01181X0.03347*%
%ADD70R,0.03347X0.01181*%
%ADD71R,0.29134X0.29134*%
%ADD72R,0.07087X0.04724*%
G04:AMPARAMS|DCode=73|XSize=29.53mil|YSize=23.62mil|CornerRadius=0mil|HoleSize=0mil|Usage=FLASHONLY|Rotation=315.000|XOffset=0mil|YOffset=0mil|HoleType=Round|Shape=Rectangle|*
%AMROTATEDRECTD73*
4,1,4,-0.01879,0.00209,-0.00209,0.01879,0.01879,-0.00209,0.00209,-0.01879,-0.01879,0.00209,0.0*
%
%ADD73ROTATEDRECTD73*%

%ADD74R,0.05512X0.03740*%
%ADD75R,0.05709X0.03740*%
%ADD76R,0.07087X0.05512*%
%ADD77R,0.03701X0.03189*%
%ADD78R,0.02244X0.05512*%
%ADD79R,0.03937X0.03937*%
%ADD80R,0.09252X0.06102*%
%ADD81R,0.03898X0.03071*%
%ADD82R,0.03937X0.03937*%
%ADD83R,0.03740X0.03543*%
%ADD84R,0.04921X0.02362*%
%ADD85R,0.03347X0.13504*%
%ADD86R,0.13780X0.07284*%
%ADD87R,0.02362X0.02756*%
%ADD88R,0.06417X0.04606*%
%ADD89R,0.04409X0.04803*%
%ADD90R,0.06004X0.02756*%
%ADD91R,0.10079X0.13583*%
%ADD92R,0.08248X0.04016*%
G36*
X259863Y420562D02*
Y415739D01*
X257304D01*
Y420562D01*
X259863D01*
D02*
G37*
G36*
X261073Y431093D02*
Y424991D01*
X256093D01*
Y431093D01*
X261073D01*
D02*
G37*
D18*
X548139Y378780D02*
D03*
X540265D02*
D03*
X522761Y330355D02*
D03*
X546383D02*
D03*
X536462D02*
D03*
X511816D02*
D03*
D19*
X497757Y469459D02*
D03*
D20*
Y458908D02*
D03*
D21*
X306268Y565424D02*
D03*
Y570424D02*
D03*
Y575424D02*
D03*
Y580424D02*
D03*
X284914D02*
D03*
Y575424D02*
D03*
Y570424D02*
D03*
Y565424D02*
D03*
D22*
X277166Y575208D02*
D03*
Y570877D02*
D03*
X282914Y557176D02*
D03*
Y552845D02*
D03*
X308386Y557176D02*
D03*
Y552845D02*
D03*
X313426Y582097D02*
D03*
Y577767D02*
D03*
X317363Y582058D02*
D03*
Y577727D02*
D03*
X277166Y580207D02*
D03*
Y584538D02*
D03*
X475376Y457486D02*
D03*
Y453155D02*
D03*
X475415Y448667D02*
D03*
Y444336D02*
D03*
X400040Y166979D02*
D03*
Y171310D02*
D03*
X359213Y149774D02*
D03*
Y145444D02*
D03*
X395828Y149892D02*
D03*
Y154223D02*
D03*
X377875Y153436D02*
D03*
Y149105D02*
D03*
X395867Y166979D02*
D03*
Y171310D02*
D03*
X377166Y162530D02*
D03*
Y166861D02*
D03*
X359253Y162609D02*
D03*
Y166940D02*
D03*
X167796Y153672D02*
D03*
Y158003D02*
D03*
X167717Y123515D02*
D03*
Y119184D02*
D03*
X197678Y150404D02*
D03*
Y154735D02*
D03*
X193977D02*
D03*
Y150404D02*
D03*
X163308Y543593D02*
D03*
Y547924D02*
D03*
X261812Y28515D02*
D03*
Y32845D02*
D03*
X223269Y109420D02*
D03*
Y113751D02*
D03*
X202598Y109459D02*
D03*
Y113790D02*
D03*
X179371Y566704D02*
D03*
Y571034D02*
D03*
X205670Y591743D02*
D03*
Y587412D02*
D03*
X210610Y591704D02*
D03*
Y587373D02*
D03*
X210237Y558160D02*
D03*
Y553829D02*
D03*
X248544Y182747D02*
D03*
Y178416D02*
D03*
X270749Y234696D02*
D03*
Y230365D02*
D03*
X215748Y181861D02*
D03*
Y177530D02*
D03*
X252519Y234184D02*
D03*
Y229853D02*
D03*
X259058Y259655D02*
D03*
Y263986D02*
D03*
X249213Y259655D02*
D03*
Y263986D02*
D03*
X79371Y150444D02*
D03*
Y154774D02*
D03*
X79468Y137058D02*
D03*
Y132727D02*
D03*
X538840Y111151D02*
D03*
Y115482D02*
D03*
X540258Y24222D02*
D03*
Y28553D02*
D03*
X446470Y24970D02*
D03*
Y29301D02*
D03*
D23*
X276969Y565444D02*
D03*
X272639D02*
D03*
X318111Y565522D02*
D03*
X313780D02*
D03*
X64725Y193987D02*
D03*
X60394D02*
D03*
X181536Y578554D02*
D03*
X185867D02*
D03*
X190670Y546349D02*
D03*
X195001D02*
D03*
X273465Y27606D02*
D03*
X269135D02*
D03*
X181379Y546389D02*
D03*
X185709D02*
D03*
X238702Y230881D02*
D03*
X234371D02*
D03*
X238662Y217925D02*
D03*
X234331D02*
D03*
X238662Y213397D02*
D03*
X234331D02*
D03*
X238702Y200326D02*
D03*
X234371D02*
D03*
X116142Y446151D02*
D03*
X111812D02*
D03*
X64725Y188988D02*
D03*
X60394D02*
D03*
Y184066D02*
D03*
X64725D02*
D03*
X60316Y206898D02*
D03*
X64646D02*
D03*
X60276Y211821D02*
D03*
X64607D02*
D03*
X60276Y216743D02*
D03*
X64607D02*
D03*
X60394Y201976D02*
D03*
X64725D02*
D03*
X299331Y223396D02*
D03*
X303662D02*
D03*
X299331Y218672D02*
D03*
X303662D02*
D03*
X299331Y213908D02*
D03*
X303662D02*
D03*
X500317Y546231D02*
D03*
X504647D02*
D03*
X500317Y541152D02*
D03*
X504647D02*
D03*
X299331Y209263D02*
D03*
X303662D02*
D03*
X298780Y197963D02*
D03*
X303111D02*
D03*
X317048Y344735D02*
D03*
X321379D02*
D03*
X100237Y303200D02*
D03*
X95906D02*
D03*
X100237Y278357D02*
D03*
X95906D02*
D03*
X100237Y328357D02*
D03*
X95906D02*
D03*
X211457Y276428D02*
D03*
X215788D02*
D03*
X215749Y271469D02*
D03*
X211418D02*
D03*
X211379Y261625D02*
D03*
X215709D02*
D03*
X215670Y266547D02*
D03*
X211339D02*
D03*
X252599Y411998D02*
D03*
X256930D02*
D03*
X96339Y176389D02*
D03*
X100670D02*
D03*
X503700Y126429D02*
D03*
X499370D02*
D03*
Y121507D02*
D03*
X503700D02*
D03*
X491613Y116428D02*
D03*
X495944D02*
D03*
X499253Y106467D02*
D03*
X503583D02*
D03*
X499331Y111428D02*
D03*
X503662D02*
D03*
X505118Y39421D02*
D03*
X500787D02*
D03*
Y34499D02*
D03*
X505118D02*
D03*
X493030Y29578D02*
D03*
X497361D02*
D03*
X500749Y24459D02*
D03*
X505079D02*
D03*
X500709Y19536D02*
D03*
X505040D02*
D03*
X399243Y30207D02*
D03*
X403574D02*
D03*
X411330Y40248D02*
D03*
X407000D02*
D03*
Y35326D02*
D03*
X411330D02*
D03*
X407000Y25247D02*
D03*
X411330D02*
D03*
X407000Y20325D02*
D03*
X411330D02*
D03*
X61418Y296192D02*
D03*
X65749D02*
D03*
X61399Y415286D02*
D03*
X65730D02*
D03*
X61399Y466231D02*
D03*
X65730D02*
D03*
X61399Y235129D02*
D03*
X65730D02*
D03*
X61399Y301114D02*
D03*
X65730D02*
D03*
X61399Y348396D02*
D03*
X65730D02*
D03*
X61399Y353319D02*
D03*
X65730D02*
D03*
X61399Y410364D02*
D03*
X65730D02*
D03*
X238662Y379499D02*
D03*
X242993D02*
D03*
X228819D02*
D03*
X233149D02*
D03*
D24*
X323190Y578200D02*
D03*
Y584893D02*
D03*
D25*
X301261Y555207D02*
D03*
X295355D02*
D03*
X289450D02*
D03*
D26*
X317520Y573200D02*
D03*
Y569420D02*
D03*
X313505Y573160D02*
D03*
Y569381D02*
D03*
X540431Y385513D02*
D03*
Y389292D02*
D03*
X189686Y552412D02*
D03*
Y556192D02*
D03*
X174252Y552333D02*
D03*
Y556113D02*
D03*
X205669Y558593D02*
D03*
Y554814D02*
D03*
X214805Y554735D02*
D03*
Y558515D02*
D03*
X225001Y571822D02*
D03*
Y568042D02*
D03*
X252205Y383829D02*
D03*
Y380050D02*
D03*
X281024Y379656D02*
D03*
Y383436D02*
D03*
X257087Y229735D02*
D03*
Y233515D02*
D03*
X220316Y181979D02*
D03*
Y178200D02*
D03*
X243977Y183160D02*
D03*
Y179381D02*
D03*
X288427Y411370D02*
D03*
Y415149D02*
D03*
X292640Y411409D02*
D03*
Y415189D02*
D03*
X346181Y119932D02*
D03*
Y123711D02*
D03*
X414688Y119173D02*
D03*
Y122953D02*
D03*
X286756Y161974D02*
D03*
Y165753D02*
D03*
X290970Y162013D02*
D03*
Y165793D02*
D03*
X532048Y135855D02*
D03*
Y132076D02*
D03*
X533505Y48907D02*
D03*
Y45128D02*
D03*
X439764Y49656D02*
D03*
Y45877D02*
D03*
D27*
X485100Y465695D02*
D03*
Y445025D02*
D03*
D28*
X321851Y114223D02*
D03*
X310040D02*
D03*
X225287Y172372D02*
D03*
Y188120D02*
D03*
X234736D02*
D03*
Y172372D02*
D03*
X62560Y474971D02*
D03*
X73977D02*
D03*
D29*
X480513Y390286D02*
D03*
Y421389D02*
D03*
X36969Y117018D02*
D03*
Y85916D02*
D03*
D30*
X36143Y561192D02*
D03*
Y551349D02*
D03*
Y541507D02*
D03*
Y531664D02*
D03*
D31*
X9528Y520050D02*
D03*
Y572806D02*
D03*
D32*
X352599Y73121D02*
D03*
Y79026D02*
D03*
Y84932D02*
D03*
D33*
X492835Y50759D02*
D03*
Y75955D02*
D03*
X491812Y162765D02*
D03*
Y137568D02*
D03*
X399385Y76979D02*
D03*
Y51782D02*
D03*
D34*
X386851Y145129D02*
D03*
X383072Y153396D02*
D03*
X390631D02*
D03*
X368268Y171507D02*
D03*
X372048Y163239D02*
D03*
X364489D02*
D03*
D35*
X364410Y149735D02*
D03*
X372678Y153515D02*
D03*
Y145956D02*
D03*
X390709Y166822D02*
D03*
X382442Y163042D02*
D03*
Y170601D02*
D03*
D36*
X456418Y158790D02*
D03*
D37*
X430040Y149774D02*
D03*
Y158790D02*
D03*
Y167806D02*
D03*
D38*
X422993Y149499D02*
D03*
Y154853D02*
D03*
X422914Y160050D02*
D03*
Y165404D02*
D03*
D39*
X256930Y95286D02*
D03*
D40*
X270828Y53554D02*
D03*
X263918D02*
D03*
X257009D02*
D03*
X250099D02*
D03*
X243190D02*
D03*
D41*
X540470Y392658D02*
D03*
Y396005D02*
D03*
D42*
X544171Y389213D02*
D03*
X547950D02*
D03*
X544368Y395985D02*
D03*
X548147D02*
D03*
X176634Y546310D02*
D03*
X172854D02*
D03*
X189764Y566389D02*
D03*
X185985D02*
D03*
X501064Y550837D02*
D03*
X504843D02*
D03*
X478701Y561979D02*
D03*
X482481D02*
D03*
X182284Y353436D02*
D03*
X186064D02*
D03*
X182284Y328357D02*
D03*
X186064D02*
D03*
X182284Y278239D02*
D03*
X186064D02*
D03*
X182284Y303397D02*
D03*
X186064D02*
D03*
X229056Y166229D02*
D03*
X225276D02*
D03*
X206457Y266782D02*
D03*
X202678D02*
D03*
Y271074D02*
D03*
X206457D02*
D03*
X238543Y250002D02*
D03*
X242323D02*
D03*
X238543Y254215D02*
D03*
X242323D02*
D03*
X238506Y258429D02*
D03*
X242285D02*
D03*
X267050Y258493D02*
D03*
X270830D02*
D03*
X267048Y254279D02*
D03*
X270828D02*
D03*
X267009Y250066D02*
D03*
X270788D02*
D03*
X288741Y254204D02*
D03*
X292520D02*
D03*
X288783Y258417D02*
D03*
X292562D02*
D03*
X341497Y141584D02*
D03*
X345276D02*
D03*
X341497Y160327D02*
D03*
X345276D02*
D03*
X500689Y116428D02*
D03*
X504468D02*
D03*
X502106Y29578D02*
D03*
X505886D02*
D03*
X408319Y30247D02*
D03*
X412098D02*
D03*
X239056Y204696D02*
D03*
X235276D02*
D03*
X239056Y209025D02*
D03*
X235276D02*
D03*
X239095Y226510D02*
D03*
X235316D02*
D03*
X239056Y222296D02*
D03*
X235276D02*
D03*
D43*
X175749Y155483D02*
D03*
X185749D02*
D03*
Y121625D02*
D03*
X175749D02*
D03*
X88072Y167058D02*
D03*
X98072D02*
D03*
Y133200D02*
D03*
X88072D02*
D03*
D44*
X296261Y29755D02*
D03*
X322639D02*
D03*
D45*
X518859Y279184D02*
D03*
Y287058D02*
D03*
Y294932D02*
D03*
Y302806D02*
D03*
D46*
X541300Y312255D02*
D03*
Y269735D02*
D03*
D47*
X222993Y87727D02*
D03*
Y74735D02*
D03*
D48*
X208308Y115503D02*
D03*
Y107983D02*
D03*
X217757Y111743D02*
D03*
X149647Y107925D02*
D03*
Y115445D02*
D03*
X140199Y111685D02*
D03*
X80356Y107728D02*
D03*
Y115248D02*
D03*
X70907Y111488D02*
D03*
D49*
X184528Y560995D02*
D03*
X181969D02*
D03*
X179410D02*
D03*
Y552333D02*
D03*
X181969D02*
D03*
X184528D02*
D03*
D50*
X218780Y587137D02*
D03*
X215237D02*
D03*
D51*
X204646Y577806D02*
D03*
Y575837D02*
D03*
Y573869D02*
D03*
Y571900D02*
D03*
Y569932D02*
D03*
Y567963D02*
D03*
X220001D02*
D03*
Y569932D02*
D03*
Y571900D02*
D03*
Y573869D02*
D03*
Y575837D02*
D03*
Y577806D02*
D03*
D52*
X207402Y565207D02*
D03*
X209371D02*
D03*
X211339D02*
D03*
X213308D02*
D03*
X215276D02*
D03*
X217245D02*
D03*
Y580562D02*
D03*
X215276D02*
D03*
X213308D02*
D03*
X211339D02*
D03*
X209371D02*
D03*
X207402D02*
D03*
D53*
X212323Y572885D02*
D03*
D54*
X476398Y594107D02*
D03*
X488406D02*
D03*
D55*
X491772Y541290D02*
D03*
Y546290D02*
D03*
Y556290D02*
D03*
X471300Y541290D02*
D03*
Y546290D02*
D03*
Y556290D02*
D03*
X491772Y551290D02*
D03*
X471300D02*
D03*
D56*
X116142Y452845D02*
D03*
X110237Y450877D02*
D03*
Y454814D02*
D03*
D57*
X210909Y21546D02*
D03*
Y54617D02*
D03*
D58*
X489016Y583869D02*
D03*
X476024D02*
D03*
D59*
X269331Y15399D02*
D03*
X274842D02*
D03*
X238819Y263494D02*
D03*
X244330D02*
D03*
X267323Y263455D02*
D03*
X272835D02*
D03*
X289253Y263436D02*
D03*
X294764D02*
D03*
D60*
X268504Y21306D02*
D03*
X274409D02*
D03*
X267953Y33906D02*
D03*
X273859D02*
D03*
X267953Y40010D02*
D03*
X273859D02*
D03*
D61*
X245434Y37352D02*
D03*
Y20423D02*
D03*
D62*
X305946Y57452D02*
D03*
Y97215D02*
D03*
D63*
X129922Y96034D02*
D03*
Y112963D02*
D03*
X60631Y95837D02*
D03*
Y112767D02*
D03*
D64*
X317187Y198003D02*
D03*
X309706D02*
D03*
D65*
X455359Y126535D02*
D03*
Y108819D02*
D03*
X433114Y108779D02*
D03*
Y126496D02*
D03*
X385827Y108779D02*
D03*
Y126496D02*
D03*
X363582Y108751D02*
D03*
Y126467D02*
D03*
D66*
X471024Y291729D02*
D03*
Y286020D02*
D03*
D67*
X244017Y364578D02*
D03*
X245985D02*
D03*
X247954D02*
D03*
X249922D02*
D03*
X251890D02*
D03*
X253859D02*
D03*
X255827D02*
D03*
X257796D02*
D03*
X259765D02*
D03*
X261733D02*
D03*
X263702D02*
D03*
X265670D02*
D03*
X267638D02*
D03*
X269607D02*
D03*
X271575D02*
D03*
X273544D02*
D03*
X275513D02*
D03*
X277481D02*
D03*
X279450D02*
D03*
X281418D02*
D03*
X283386D02*
D03*
X285355D02*
D03*
X287323D02*
D03*
X289292D02*
D03*
X291261D02*
D03*
X293229D02*
D03*
Y276782D02*
D03*
X291261D02*
D03*
X289292D02*
D03*
X287323D02*
D03*
X285355D02*
D03*
X283386D02*
D03*
X281418D02*
D03*
X279450D02*
D03*
X277481D02*
D03*
X275513D02*
D03*
X273544D02*
D03*
X271575D02*
D03*
X269607D02*
D03*
X267638D02*
D03*
X265670D02*
D03*
X263702D02*
D03*
X261733D02*
D03*
X259765D02*
D03*
X257796D02*
D03*
X255827D02*
D03*
X253859D02*
D03*
X251890D02*
D03*
X249922D02*
D03*
X247954D02*
D03*
X245985D02*
D03*
X244017D02*
D03*
D68*
X300709Y357097D02*
D03*
Y355129D02*
D03*
Y353160D02*
D03*
Y351192D02*
D03*
Y349223D02*
D03*
Y347255D02*
D03*
Y345286D02*
D03*
Y343318D02*
D03*
Y341349D02*
D03*
Y339381D02*
D03*
Y337412D02*
D03*
Y335444D02*
D03*
Y333475D02*
D03*
Y331507D02*
D03*
Y329538D02*
D03*
Y327570D02*
D03*
Y325601D02*
D03*
Y323633D02*
D03*
Y321664D02*
D03*
Y319696D02*
D03*
Y317727D02*
D03*
Y315759D02*
D03*
Y313790D02*
D03*
Y311822D02*
D03*
Y309853D02*
D03*
Y307885D02*
D03*
Y305916D02*
D03*
Y303948D02*
D03*
Y301979D02*
D03*
Y300011D02*
D03*
Y298042D02*
D03*
Y296074D02*
D03*
Y294105D02*
D03*
Y292137D02*
D03*
Y290168D02*
D03*
Y288200D02*
D03*
Y286231D02*
D03*
Y284263D02*
D03*
X236536D02*
D03*
Y286231D02*
D03*
Y288200D02*
D03*
Y290168D02*
D03*
Y292137D02*
D03*
Y294105D02*
D03*
Y296074D02*
D03*
Y298042D02*
D03*
Y300011D02*
D03*
Y301979D02*
D03*
Y303948D02*
D03*
Y305916D02*
D03*
Y307885D02*
D03*
Y309853D02*
D03*
Y311822D02*
D03*
Y313790D02*
D03*
Y315759D02*
D03*
Y317727D02*
D03*
Y319696D02*
D03*
Y321664D02*
D03*
Y323633D02*
D03*
Y325601D02*
D03*
Y327570D02*
D03*
Y329538D02*
D03*
Y331507D02*
D03*
Y333475D02*
D03*
Y335444D02*
D03*
Y337412D02*
D03*
Y339381D02*
D03*
Y341349D02*
D03*
Y343318D02*
D03*
Y345286D02*
D03*
Y347255D02*
D03*
Y349223D02*
D03*
Y351192D02*
D03*
Y353160D02*
D03*
Y355129D02*
D03*
Y357097D02*
D03*
D69*
X256969Y187333D02*
D03*
X258938D02*
D03*
X260906D02*
D03*
X262875D02*
D03*
X264843D02*
D03*
X266812D02*
D03*
X268780D02*
D03*
X270749D02*
D03*
X272717D02*
D03*
X274686D02*
D03*
X276654D02*
D03*
X278623D02*
D03*
X280591D02*
D03*
X282560D02*
D03*
X284528D02*
D03*
X286497D02*
D03*
Y222373D02*
D03*
X284528D02*
D03*
X282560D02*
D03*
X280591D02*
D03*
X278623D02*
D03*
X276654D02*
D03*
X274686D02*
D03*
X272717D02*
D03*
X270749D02*
D03*
X268780D02*
D03*
X266812D02*
D03*
X264843D02*
D03*
X262875D02*
D03*
X260906D02*
D03*
X258938D02*
D03*
X256969D02*
D03*
D70*
X289253Y190089D02*
D03*
Y192058D02*
D03*
Y194026D02*
D03*
Y195995D02*
D03*
Y197963D02*
D03*
Y199932D02*
D03*
Y201900D02*
D03*
Y203869D02*
D03*
Y205837D02*
D03*
Y207806D02*
D03*
Y209774D02*
D03*
Y211743D02*
D03*
Y213711D02*
D03*
Y215680D02*
D03*
Y217648D02*
D03*
Y219617D02*
D03*
X254213D02*
D03*
Y217648D02*
D03*
Y215680D02*
D03*
Y213711D02*
D03*
Y211743D02*
D03*
Y209774D02*
D03*
Y207806D02*
D03*
Y205837D02*
D03*
Y203869D02*
D03*
Y201900D02*
D03*
Y199932D02*
D03*
Y197963D02*
D03*
Y195995D02*
D03*
Y194026D02*
D03*
Y192058D02*
D03*
Y190089D02*
D03*
D71*
X271733Y204853D02*
D03*
D72*
X274371Y376664D02*
D03*
X258623D02*
D03*
Y386113D02*
D03*
X274371D02*
D03*
D73*
X97831Y355409D02*
D03*
X94769Y358471D02*
D03*
D74*
X149451Y93515D02*
D03*
Y100995D02*
D03*
X80316Y93397D02*
D03*
Y100877D02*
D03*
D75*
X141183Y101270D02*
D03*
Y93397D02*
D03*
X71891Y101074D02*
D03*
Y93200D02*
D03*
D76*
X213544Y255128D02*
D03*
Y244498D02*
D03*
D77*
X276654Y230483D02*
D03*
Y235759D02*
D03*
D78*
X252678Y418495D02*
D03*
X264489D02*
D03*
D79*
X254883Y172411D02*
D03*
X248977D02*
D03*
D80*
X266064Y441173D02*
D03*
X282993D02*
D03*
D81*
X278151Y431723D02*
D03*
Y426211D02*
D03*
X283861Y431723D02*
D03*
Y426211D02*
D03*
X283465Y411803D02*
D03*
Y417315D02*
D03*
D82*
X289964Y430897D02*
D03*
Y424991D02*
D03*
X340708Y113593D02*
D03*
Y107688D02*
D03*
X409216Y112795D02*
D03*
Y106890D02*
D03*
X500219Y284859D02*
D03*
Y290765D02*
D03*
X275095Y162727D02*
D03*
Y168633D02*
D03*
D83*
X340748Y119932D02*
D03*
Y126231D02*
D03*
X409294Y119095D02*
D03*
Y125395D02*
D03*
X281592Y162609D02*
D03*
Y168908D02*
D03*
D84*
X341379Y154696D02*
D03*
Y147215D02*
D03*
X349646Y150955D02*
D03*
D85*
X494647Y285922D02*
D03*
X476537D02*
D03*
D86*
X474095Y309663D02*
D03*
X494961D02*
D03*
X540533Y154990D02*
D03*
X519667D02*
D03*
X541561Y68042D02*
D03*
X520695D02*
D03*
X448111Y68771D02*
D03*
X427245D02*
D03*
D87*
X466004Y291001D02*
D03*
Y286670D02*
D03*
D88*
X540494Y121428D02*
D03*
Y132215D02*
D03*
X541911Y34499D02*
D03*
Y45286D02*
D03*
X448151Y35247D02*
D03*
Y46034D02*
D03*
D89*
X525809Y134713D02*
D03*
X513604D02*
D03*
X526832Y47765D02*
D03*
X514628D02*
D03*
X433387Y48495D02*
D03*
X421182D02*
D03*
D90*
X510741Y126464D02*
D03*
Y121464D02*
D03*
Y116464D02*
D03*
Y111464D02*
D03*
X532095D02*
D03*
Y116464D02*
D03*
Y121464D02*
D03*
Y126464D02*
D03*
X512158Y39516D02*
D03*
Y34517D02*
D03*
Y29517D02*
D03*
Y24517D02*
D03*
X533512D02*
D03*
Y29517D02*
D03*
Y34517D02*
D03*
Y39516D02*
D03*
X418371Y40246D02*
D03*
Y35246D02*
D03*
Y30246D02*
D03*
Y25246D02*
D03*
X439725D02*
D03*
Y30246D02*
D03*
Y35246D02*
D03*
Y40246D02*
D03*
D91*
X521418Y118964D02*
D03*
X522835Y32017D02*
D03*
X429048Y32746D02*
D03*
D92*
X169812Y268337D02*
D03*
Y273337D02*
D03*
Y278337D02*
D03*
Y283337D02*
D03*
Y288337D02*
D03*
Y293337D02*
D03*
Y298337D02*
D03*
Y303337D02*
D03*
Y308337D02*
D03*
Y313337D02*
D03*
Y318337D02*
D03*
Y323337D02*
D03*
Y328337D02*
D03*
Y333337D02*
D03*
Y338337D02*
D03*
Y343337D02*
D03*
Y348337D02*
D03*
Y353337D02*
D03*
Y358337D02*
D03*
Y363337D02*
D03*
X112079D02*
D03*
Y358337D02*
D03*
Y353337D02*
D03*
Y348337D02*
D03*
Y343337D02*
D03*
Y338337D02*
D03*
Y333337D02*
D03*
Y328337D02*
D03*
Y323337D02*
D03*
Y318337D02*
D03*
Y313337D02*
D03*
Y308337D02*
D03*
Y303337D02*
D03*
Y298337D02*
D03*
Y293337D02*
D03*
Y288337D02*
D03*
Y283337D02*
D03*
Y278337D02*
D03*
Y273337D02*
D03*
Y268337D02*
D03*
M02*
