G04*
G04 #@! TF.GenerationSoftware,Altium Limited,Altium Designer,22.2.1 (43)*
G04*
G04 Layer_Physical_Order=2*
G04 Layer_Color=36540*
%FSLAX25Y25*%
%MOIN*%
G70*
G04*
G04 #@! TF.SameCoordinates,1D5F905C-50EE-4002-88AC-00FA8B853EC3*
G04*
G04*
G04 #@! TF.FilePolarity,Positive*
G04*
G01*
G75*
%ADD15C,0.01000*%
%ADD213C,0.09449*%
%ADD214C,0.11221*%
%ADD215C,0.06496*%
%ADD216R,0.10000X0.15748*%
%ADD218C,0.07087*%
%ADD219R,0.07087X0.07087*%
%ADD220R,0.08268X0.08268*%
%ADD222C,0.06555*%
%ADD227R,0.06496X0.06496*%
%ADD228C,0.07972*%
%ADD231C,0.14055*%
%ADD232C,0.05906*%
%ADD234R,0.06496X0.06496*%
%ADD238C,0.27559*%
%ADD239C,0.05437*%
%ADD241C,0.05756*%
%ADD243C,0.02362*%
%ADD244C,0.05000*%
G36*
X560276Y604066D02*
X560276Y355877D01*
Y321064D01*
X552009Y321064D01*
X551626Y320905D01*
X551467Y320522D01*
X551467Y261585D01*
X551626Y261203D01*
X552009Y261044D01*
X560276D01*
Y194066D01*
X560276Y9696D01*
X183820Y9696D01*
X183820Y64971D01*
X46930Y64971D01*
X46930Y9696D01*
X158D01*
X158Y604066D01*
X560276Y604066D01*
D02*
G37*
%LPC*%
G36*
X294686Y598890D02*
X294030Y598760D01*
X293474Y598388D01*
X293102Y597832D01*
X292972Y597176D01*
X293102Y596520D01*
X293474Y595964D01*
X294030Y595592D01*
X294686Y595462D01*
X295342Y595592D01*
X295898Y595964D01*
X296269Y596520D01*
X296400Y597176D01*
X296269Y597832D01*
X295898Y598388D01*
X295342Y598760D01*
X294686Y598890D01*
D02*
G37*
G36*
X291418Y588063D02*
X290762Y587933D01*
X290206Y587561D01*
X289834Y587005D01*
X289704Y586349D01*
X289834Y585693D01*
X290206Y585137D01*
X290762Y584766D01*
X291418Y584635D01*
X292074Y584766D01*
X292630Y585137D01*
X293002Y585693D01*
X293132Y586349D01*
X293002Y587005D01*
X292630Y587561D01*
X292074Y587933D01*
X291418Y588063D01*
D02*
G37*
G36*
X308268Y587630D02*
X307612Y587500D01*
X307056Y587128D01*
X306685Y586572D01*
X306554Y585916D01*
X306685Y585260D01*
X307056Y584704D01*
X307612Y584333D01*
X308268Y584202D01*
X308924Y584333D01*
X309480Y584704D01*
X309852Y585260D01*
X309982Y585916D01*
X309852Y586572D01*
X309480Y587128D01*
X308924Y587500D01*
X308268Y587630D01*
D02*
G37*
G36*
X549922Y598506D02*
X548184Y598335D01*
X546513Y597828D01*
X544972Y597005D01*
X543622Y595897D01*
X542514Y594547D01*
X541691Y593007D01*
X541184Y591335D01*
X541013Y589597D01*
X541184Y587859D01*
X541691Y586188D01*
X542514Y584648D01*
X543622Y583298D01*
X544972Y582190D01*
X546513Y581366D01*
X548184Y580859D01*
X549922Y580688D01*
X551660Y580859D01*
X553331Y581366D01*
X554872Y582190D01*
X556222Y583298D01*
X557330Y584648D01*
X558153Y586188D01*
X558660Y587859D01*
X558831Y589597D01*
X558660Y591335D01*
X558153Y593007D01*
X557330Y594547D01*
X556222Y595897D01*
X554872Y597005D01*
X553331Y597828D01*
X551660Y598335D01*
X549922Y598506D01*
D02*
G37*
G36*
X299174Y582197D02*
X298518Y582067D01*
X297962Y581695D01*
X297590Y581139D01*
X297460Y580483D01*
X297590Y579827D01*
X297962Y579271D01*
X298518Y578899D01*
X299174Y578769D01*
X299830Y578899D01*
X300386Y579271D01*
X300758Y579827D01*
X300888Y580483D01*
X300758Y581139D01*
X300386Y581695D01*
X299830Y582067D01*
X299174Y582197D01*
D02*
G37*
G36*
X177914Y580229D02*
X177258Y580098D01*
X176702Y579727D01*
X176330Y579171D01*
X176200Y578515D01*
X176330Y577859D01*
X176702Y577303D01*
X177258Y576931D01*
X177914Y576800D01*
X178570Y576931D01*
X179126Y577303D01*
X179498Y577859D01*
X179628Y578515D01*
X179498Y579171D01*
X179126Y579727D01*
X178570Y580098D01*
X177914Y580229D01*
D02*
G37*
G36*
X185828Y576803D02*
X185172Y576673D01*
X184616Y576301D01*
X184244Y575745D01*
X184114Y575089D01*
X184244Y574433D01*
X184616Y573877D01*
X185172Y573506D01*
X185828Y573375D01*
X186483Y573506D01*
X187039Y573877D01*
X187411Y574433D01*
X187541Y575089D01*
X187411Y575745D01*
X187039Y576301D01*
X186483Y576673D01*
X185828Y576803D01*
D02*
G37*
G36*
X514922Y578675D02*
X513867Y578537D01*
X512883Y578129D01*
X512038Y577481D01*
X511390Y576636D01*
X510983Y575653D01*
X510844Y574597D01*
X510983Y573542D01*
X511390Y572558D01*
X512038Y571713D01*
X512883Y571065D01*
X513867Y570658D01*
X514922Y570519D01*
X515977Y570658D01*
X516961Y571065D01*
X517806Y571713D01*
X518454Y572558D01*
X518861Y573542D01*
X519000Y574597D01*
X518861Y575653D01*
X518454Y576636D01*
X517806Y577481D01*
X516961Y578129D01*
X515977Y578537D01*
X514922Y578675D01*
D02*
G37*
G36*
X321021Y571275D02*
X320365Y571145D01*
X319809Y570773D01*
X319438Y570217D01*
X319307Y569561D01*
X319438Y568905D01*
X319809Y568349D01*
X320365Y567978D01*
X321021Y567847D01*
X321677Y567978D01*
X322233Y568349D01*
X322605Y568905D01*
X322735Y569561D01*
X322605Y570217D01*
X322233Y570773D01*
X321677Y571145D01*
X321021Y571275D01*
D02*
G37*
G36*
X473011Y574763D02*
X472202Y574602D01*
X471516Y574144D01*
X471057Y573457D01*
X470896Y572648D01*
X471057Y571838D01*
X471516Y571152D01*
X471773Y570980D01*
Y570379D01*
X471516Y570207D01*
X471057Y569520D01*
X470896Y568711D01*
X471057Y567901D01*
X471516Y567215D01*
X472202Y566756D01*
X473011Y566595D01*
X473821Y566756D01*
X474507Y567215D01*
X474966Y567901D01*
X475127Y568711D01*
X474966Y569520D01*
X474507Y570207D01*
X474250Y570379D01*
Y570980D01*
X474507Y571152D01*
X474966Y571838D01*
X475127Y572648D01*
X474966Y573457D01*
X474507Y574144D01*
X473821Y574602D01*
X473011Y574763D01*
D02*
G37*
G36*
X237008Y570021D02*
X236352Y569891D01*
X235796Y569519D01*
X235424Y568963D01*
X235294Y568307D01*
X235424Y567651D01*
X235796Y567095D01*
X236352Y566723D01*
X237008Y566593D01*
X237664Y566723D01*
X238220Y567095D01*
X238591Y567651D01*
X238722Y568307D01*
X238591Y568963D01*
X238220Y569519D01*
X237664Y569891D01*
X237008Y570021D01*
D02*
G37*
G36*
X49213Y580723D02*
X47784Y580582D01*
X46409Y580165D01*
X45143Y579488D01*
X44033Y578577D01*
X43121Y577467D01*
X42444Y576200D01*
X42028Y574826D01*
X41887Y573396D01*
X42028Y571967D01*
X42444Y570593D01*
X43121Y569326D01*
X44033Y568216D01*
X45143Y567305D01*
X46409Y566628D01*
X47784Y566211D01*
X49213Y566070D01*
X50643Y566211D01*
X52017Y566628D01*
X53284Y567305D01*
X54394Y568216D01*
X55305Y569326D01*
X55982Y570593D01*
X56399Y571967D01*
X56540Y573396D01*
X56399Y574826D01*
X55982Y576200D01*
X55305Y577467D01*
X54394Y578577D01*
X53284Y579488D01*
X52017Y580165D01*
X50643Y580582D01*
X49213Y580723D01*
D02*
G37*
G36*
X524922Y573675D02*
X523867Y573536D01*
X522883Y573129D01*
X522038Y572481D01*
X521390Y571636D01*
X520983Y570653D01*
X520844Y569597D01*
X520983Y568542D01*
X521390Y567558D01*
X522038Y566713D01*
X522883Y566065D01*
X523867Y565658D01*
X524922Y565519D01*
X525978Y565658D01*
X526961Y566065D01*
X527806Y566713D01*
X528454Y567558D01*
X528861Y568542D01*
X529000Y569597D01*
X528861Y570653D01*
X528454Y571636D01*
X527806Y572481D01*
X526961Y573129D01*
X525978Y573536D01*
X524922Y573675D01*
D02*
G37*
G36*
X322323Y567315D02*
X321668Y567185D01*
X321111Y566813D01*
X320740Y566257D01*
X320609Y565601D01*
X320740Y564945D01*
X321111Y564389D01*
X321668Y564018D01*
X322323Y563887D01*
X322979Y564018D01*
X323536Y564389D01*
X323907Y564945D01*
X324038Y565601D01*
X323907Y566257D01*
X323536Y566813D01*
X322979Y567185D01*
X322323Y567315D01*
D02*
G37*
G36*
X514922Y568675D02*
X513867Y568537D01*
X512883Y568129D01*
X512038Y567481D01*
X511390Y566636D01*
X510983Y565653D01*
X510844Y564597D01*
X510983Y563542D01*
X511390Y562558D01*
X512038Y561714D01*
X512883Y561065D01*
X513867Y560658D01*
X514922Y560519D01*
X515977Y560658D01*
X516961Y561065D01*
X517806Y561714D01*
X518454Y562558D01*
X518861Y563542D01*
X519000Y564597D01*
X518861Y565653D01*
X518454Y566636D01*
X517806Y567481D01*
X516961Y568129D01*
X515977Y568537D01*
X514922Y568675D01*
D02*
G37*
G36*
X313917Y563321D02*
X313261Y563191D01*
X312705Y562819D01*
X312333Y562263D01*
X312203Y561607D01*
X312333Y560951D01*
X312705Y560395D01*
X313261Y560024D01*
X313917Y559893D01*
X314573Y560024D01*
X315129Y560395D01*
X315500Y560951D01*
X315631Y561607D01*
X315500Y562263D01*
X315129Y562819D01*
X314573Y563191D01*
X313917Y563321D01*
D02*
G37*
G36*
X97914Y560622D02*
X97258Y560492D01*
X96702Y560120D01*
X96330Y559564D01*
X96200Y558908D01*
X96330Y558252D01*
X96702Y557696D01*
X97258Y557325D01*
X97914Y557194D01*
X98570Y557325D01*
X99126Y557696D01*
X99498Y558252D01*
X99628Y558908D01*
X99498Y559564D01*
X99126Y560120D01*
X98570Y560492D01*
X97914Y560622D01*
D02*
G37*
G36*
X230434Y563988D02*
X229455Y563859D01*
X228544Y563481D01*
X227761Y562881D01*
X227160Y562098D01*
X226782Y561186D01*
X226653Y560208D01*
X226782Y559229D01*
X227160Y558317D01*
X227761Y557534D01*
X228544Y556934D01*
X229455Y556556D01*
X230434Y556427D01*
X231412Y556556D01*
X232324Y556934D01*
X233107Y557534D01*
X233708Y558317D01*
X234085Y559229D01*
X234214Y560208D01*
X234085Y561186D01*
X233708Y562098D01*
X233107Y562881D01*
X232324Y563481D01*
X231412Y563859D01*
X230434Y563988D01*
D02*
G37*
G36*
X524922Y563675D02*
X523867Y563537D01*
X522883Y563129D01*
X522038Y562481D01*
X521390Y561636D01*
X520983Y560653D01*
X520844Y559597D01*
X520983Y558542D01*
X521390Y557558D01*
X522038Y556713D01*
X522883Y556065D01*
X523867Y555658D01*
X524922Y555519D01*
X525978Y555658D01*
X526961Y556065D01*
X527806Y556713D01*
X528454Y557558D01*
X528861Y558542D01*
X529000Y559597D01*
X528861Y560653D01*
X528454Y561636D01*
X527806Y562481D01*
X526961Y563129D01*
X525978Y563537D01*
X524922Y563675D01*
D02*
G37*
G36*
X275040Y558378D02*
X274384Y558248D01*
X273828Y557876D01*
X273457Y557320D01*
X273326Y556664D01*
X273457Y556008D01*
X273828Y555452D01*
X274384Y555081D01*
X275040Y554950D01*
X275696Y555081D01*
X276252Y555452D01*
X276624Y556008D01*
X276754Y556664D01*
X276624Y557320D01*
X276252Y557876D01*
X275696Y558248D01*
X275040Y558378D01*
D02*
G37*
G36*
X67442Y558260D02*
X66786Y558130D01*
X66230Y557758D01*
X65858Y557202D01*
X65728Y556546D01*
X65858Y555890D01*
X66230Y555334D01*
X66786Y554962D01*
X67442Y554832D01*
X68098Y554962D01*
X68654Y555334D01*
X69025Y555890D01*
X69156Y556546D01*
X69025Y557202D01*
X68654Y557758D01*
X68098Y558130D01*
X67442Y558260D01*
D02*
G37*
G36*
X125237Y557276D02*
X124581Y557145D01*
X124025Y556774D01*
X123653Y556218D01*
X123523Y555562D01*
X123653Y554906D01*
X124025Y554350D01*
X124581Y553978D01*
X125237Y553848D01*
X125893Y553978D01*
X126449Y554350D01*
X126821Y554906D01*
X126951Y555562D01*
X126821Y556218D01*
X126449Y556774D01*
X125893Y557145D01*
X125237Y557276D01*
D02*
G37*
G36*
X448150Y559224D02*
X447172Y559095D01*
X446260Y558718D01*
X445477Y558117D01*
X444876Y557334D01*
X444499Y556422D01*
X444370Y555444D01*
X444499Y554465D01*
X444876Y553553D01*
X445477Y552771D01*
X446260Y552170D01*
X447172Y551792D01*
X448150Y551663D01*
X449129Y551792D01*
X450040Y552170D01*
X450823Y552771D01*
X451424Y553553D01*
X451802Y554465D01*
X451931Y555444D01*
X451802Y556422D01*
X451424Y557334D01*
X450823Y558117D01*
X450040Y558718D01*
X449129Y559095D01*
X448150Y559224D01*
D02*
G37*
G36*
X514922Y558675D02*
X513867Y558536D01*
X512883Y558129D01*
X512038Y557481D01*
X511390Y556636D01*
X510983Y555653D01*
X510844Y554597D01*
X510983Y553542D01*
X511390Y552558D01*
X512038Y551714D01*
X512883Y551065D01*
X513867Y550658D01*
X514922Y550519D01*
X515977Y550658D01*
X516961Y551065D01*
X517806Y551714D01*
X518454Y552558D01*
X518861Y553542D01*
X519000Y554597D01*
X518861Y555653D01*
X518454Y556636D01*
X517806Y557481D01*
X516961Y558129D01*
X515977Y558536D01*
X514922Y558675D01*
D02*
G37*
G36*
X115591Y550662D02*
X114935Y550531D01*
X114379Y550160D01*
X114008Y549604D01*
X113877Y548948D01*
X114008Y548292D01*
X114379Y547736D01*
X114935Y547364D01*
X115591Y547234D01*
X116247Y547364D01*
X116803Y547736D01*
X117175Y548292D01*
X117305Y548948D01*
X117175Y549604D01*
X116803Y550160D01*
X116247Y550531D01*
X115591Y550662D01*
D02*
G37*
G36*
X524922Y553675D02*
X523867Y553537D01*
X522883Y553129D01*
X522038Y552481D01*
X521390Y551636D01*
X520983Y550653D01*
X520844Y549597D01*
X520983Y548542D01*
X521390Y547558D01*
X522038Y546713D01*
X522883Y546065D01*
X523867Y545658D01*
X524922Y545519D01*
X525978Y545658D01*
X526961Y546065D01*
X527806Y546713D01*
X528454Y547558D01*
X528861Y548542D01*
X529000Y549597D01*
X528861Y550653D01*
X528454Y551636D01*
X527806Y552481D01*
X526961Y553129D01*
X525978Y553537D01*
X524922Y553675D01*
D02*
G37*
G36*
X152174Y549782D02*
X144678D01*
Y542286D01*
X152174D01*
Y549782D01*
D02*
G37*
G36*
X182048Y542394D02*
X181392Y542264D01*
X180836Y541892D01*
X180464Y541336D01*
X180334Y540680D01*
X180464Y540024D01*
X180836Y539468D01*
X181392Y539096D01*
X182048Y538966D01*
X182704Y539096D01*
X183260Y539468D01*
X183632Y540024D01*
X183762Y540680D01*
X183632Y541336D01*
X183260Y541892D01*
X182704Y542264D01*
X182048Y542394D01*
D02*
G37*
G36*
X549922Y553506D02*
X548184Y553335D01*
X546513Y552828D01*
X544972Y552005D01*
X543622Y550897D01*
X542514Y549547D01*
X541691Y548007D01*
X541184Y546335D01*
X541013Y544597D01*
X541184Y542859D01*
X541691Y541188D01*
X542514Y539648D01*
X543622Y538298D01*
X544972Y537190D01*
X546513Y536366D01*
X548184Y535859D01*
X549922Y535688D01*
X551660Y535859D01*
X553331Y536366D01*
X554872Y537190D01*
X556222Y538298D01*
X557330Y539648D01*
X558153Y541188D01*
X558660Y542859D01*
X558831Y544597D01*
X558660Y546335D01*
X558153Y548007D01*
X557330Y549547D01*
X556222Y550897D01*
X554872Y552005D01*
X553331Y552828D01*
X551660Y553335D01*
X549922Y553506D01*
D02*
G37*
G36*
X491379Y534087D02*
X490723Y533956D01*
X490167Y533585D01*
X489795Y533029D01*
X489665Y532373D01*
X489795Y531717D01*
X490167Y531161D01*
X490723Y530789D01*
X491379Y530659D01*
X492035Y530789D01*
X492591Y531161D01*
X492962Y531717D01*
X493093Y532373D01*
X492962Y533029D01*
X492591Y533585D01*
X492035Y533956D01*
X491379Y534087D01*
D02*
G37*
G36*
X481261Y531882D02*
X480605Y531752D01*
X480049Y531380D01*
X479677Y530824D01*
X479546Y530168D01*
X479677Y529512D01*
X480049Y528956D01*
X480605Y528585D01*
X481261Y528454D01*
X481917Y528585D01*
X482473Y528956D01*
X482844Y529512D01*
X482975Y530168D01*
X482844Y530824D01*
X482473Y531380D01*
X481917Y531752D01*
X481261Y531882D01*
D02*
G37*
G36*
X192371Y535452D02*
X184875D01*
Y527955D01*
X192371D01*
Y535452D01*
D02*
G37*
G36*
X178623Y535484D02*
X177644Y535355D01*
X176733Y534977D01*
X175950Y534377D01*
X175349Y533594D01*
X174971Y532682D01*
X174842Y531704D01*
X174971Y530725D01*
X175349Y529813D01*
X175950Y529030D01*
X176733Y528430D01*
X177644Y528052D01*
X178623Y527923D01*
X179601Y528052D01*
X180513Y528430D01*
X181296Y529030D01*
X181897Y529813D01*
X182274Y530725D01*
X182403Y531704D01*
X182274Y532682D01*
X181897Y533594D01*
X181296Y534377D01*
X180513Y534977D01*
X179601Y535355D01*
X178623Y535484D01*
D02*
G37*
G36*
X168623D02*
X167644Y535355D01*
X166733Y534977D01*
X165950Y534377D01*
X165349Y533594D01*
X164971Y532682D01*
X164842Y531704D01*
X164971Y530725D01*
X165349Y529813D01*
X165950Y529030D01*
X166733Y528430D01*
X167644Y528052D01*
X168623Y527923D01*
X169601Y528052D01*
X170513Y528430D01*
X171296Y529030D01*
X171897Y529813D01*
X172274Y530725D01*
X172403Y531704D01*
X172274Y532682D01*
X171897Y533594D01*
X171296Y534377D01*
X170513Y534977D01*
X169601Y535355D01*
X168623Y535484D01*
D02*
G37*
G36*
X158623D02*
X157644Y535355D01*
X156733Y534977D01*
X155950Y534377D01*
X155349Y533594D01*
X154971Y532682D01*
X154842Y531704D01*
X154971Y530725D01*
X155349Y529813D01*
X155950Y529030D01*
X156733Y528430D01*
X157644Y528052D01*
X158623Y527923D01*
X159601Y528052D01*
X160513Y528430D01*
X161296Y529030D01*
X161897Y529813D01*
X162274Y530725D01*
X162403Y531704D01*
X162274Y532682D01*
X161897Y533594D01*
X161296Y534377D01*
X160513Y534977D01*
X159601Y535355D01*
X158623Y535484D01*
D02*
G37*
G36*
X148623D02*
X147644Y535355D01*
X146733Y534977D01*
X145950Y534377D01*
X145349Y533594D01*
X144971Y532682D01*
X144842Y531704D01*
X144971Y530725D01*
X145349Y529813D01*
X145950Y529030D01*
X146733Y528430D01*
X147644Y528052D01*
X148623Y527923D01*
X149601Y528052D01*
X150513Y528430D01*
X151296Y529030D01*
X151897Y529813D01*
X152274Y530725D01*
X152403Y531704D01*
X152274Y532682D01*
X151897Y533594D01*
X151296Y534377D01*
X150513Y534977D01*
X149601Y535355D01*
X148623Y535484D01*
D02*
G37*
G36*
X138623D02*
X137644Y535355D01*
X136733Y534977D01*
X135950Y534377D01*
X135349Y533594D01*
X134971Y532682D01*
X134842Y531704D01*
X134971Y530725D01*
X135349Y529813D01*
X135950Y529030D01*
X136733Y528430D01*
X137644Y528052D01*
X138623Y527923D01*
X139601Y528052D01*
X140513Y528430D01*
X141296Y529030D01*
X141897Y529813D01*
X142274Y530725D01*
X142403Y531704D01*
X142274Y532682D01*
X141897Y533594D01*
X141296Y534377D01*
X140513Y534977D01*
X139601Y535355D01*
X138623Y535484D01*
D02*
G37*
G36*
X484017Y528260D02*
X483360Y528130D01*
X482804Y527758D01*
X482433Y527202D01*
X482302Y526546D01*
X482433Y525890D01*
X482804Y525334D01*
X483360Y524963D01*
X484017Y524832D01*
X484672Y524963D01*
X485228Y525334D01*
X485600Y525890D01*
X485731Y526546D01*
X485600Y527202D01*
X485228Y527758D01*
X484672Y528130D01*
X484017Y528260D01*
D02*
G37*
G36*
X536524Y531180D02*
X523713D01*
Y522306D01*
X536524D01*
Y531180D01*
D02*
G37*
G36*
X54686Y525307D02*
X54030Y525177D01*
X53474Y524805D01*
X53102Y524249D01*
X52972Y523593D01*
X53102Y522937D01*
X53474Y522381D01*
X54030Y522010D01*
X54686Y521879D01*
X55342Y522010D01*
X55898Y522381D01*
X56269Y522937D01*
X56400Y523593D01*
X56269Y524249D01*
X55898Y524805D01*
X55342Y525177D01*
X54686Y525307D01*
D02*
G37*
G36*
X49213Y517180D02*
X47784Y517039D01*
X46409Y516622D01*
X45143Y515945D01*
X44033Y515034D01*
X43121Y513924D01*
X42444Y512657D01*
X42028Y511282D01*
X41887Y509853D01*
X42028Y508424D01*
X42444Y507049D01*
X43121Y505783D01*
X44033Y504672D01*
X45143Y503761D01*
X46409Y503084D01*
X47784Y502667D01*
X49213Y502527D01*
X50643Y502667D01*
X52017Y503084D01*
X53284Y503761D01*
X54394Y504672D01*
X55305Y505783D01*
X55982Y507049D01*
X56399Y508424D01*
X56540Y509853D01*
X56399Y511282D01*
X55982Y512657D01*
X55305Y513924D01*
X54394Y515034D01*
X53284Y515945D01*
X52017Y516622D01*
X50643Y517039D01*
X49213Y517180D01*
D02*
G37*
G36*
X138465Y502394D02*
X137809Y502263D01*
X137253Y501892D01*
X136882Y501336D01*
X136751Y500680D01*
X136882Y500024D01*
X137253Y499468D01*
X137809Y499096D01*
X138465Y498966D01*
X139121Y499096D01*
X139677Y499468D01*
X140049Y500024D01*
X140179Y500680D01*
X140049Y501336D01*
X139677Y501892D01*
X139121Y502263D01*
X138465Y502394D01*
D02*
G37*
G36*
X333268Y501685D02*
X332612Y501555D01*
X332056Y501183D01*
X331685Y500627D01*
X331554Y499971D01*
X331685Y499315D01*
X332056Y498759D01*
X332612Y498388D01*
X333268Y498257D01*
X333924Y498388D01*
X334480Y498759D01*
X334852Y499315D01*
X334982Y499971D01*
X334852Y500627D01*
X334480Y501183D01*
X333924Y501555D01*
X333268Y501685D01*
D02*
G37*
G36*
X338872Y501323D02*
X338216Y501192D01*
X337660Y500821D01*
X337288Y500265D01*
X337158Y499609D01*
X337288Y498953D01*
X337660Y498397D01*
X338216Y498025D01*
X338872Y497895D01*
X339528Y498025D01*
X340084Y498397D01*
X340455Y498953D01*
X340586Y499609D01*
X340455Y500265D01*
X340084Y500821D01*
X339528Y501192D01*
X338872Y501323D01*
D02*
G37*
G36*
X536524Y501652D02*
X523713D01*
Y492778D01*
X536524D01*
Y501652D01*
D02*
G37*
G36*
X498190Y490701D02*
X497534Y490571D01*
X496978Y490199D01*
X496606Y489643D01*
X496476Y488987D01*
X496606Y488331D01*
X496978Y487775D01*
X497534Y487403D01*
X498190Y487273D01*
X498846Y487403D01*
X499402Y487775D01*
X499773Y488331D01*
X499904Y488987D01*
X499773Y489643D01*
X499402Y490199D01*
X498846Y490571D01*
X498190Y490701D01*
D02*
G37*
G36*
X201182Y487551D02*
X200526Y487421D01*
X199970Y487049D01*
X199598Y486493D01*
X199468Y485837D01*
X199598Y485182D01*
X199970Y484625D01*
X200526Y484254D01*
X201182Y484123D01*
X201838Y484254D01*
X202394Y484625D01*
X202765Y485182D01*
X202896Y485837D01*
X202765Y486493D01*
X202394Y487049D01*
X201838Y487421D01*
X201182Y487551D01*
D02*
G37*
G36*
X23032Y485517D02*
X21653Y485335D01*
X20368Y484803D01*
X19264Y483956D01*
X18417Y482852D01*
X17885Y481567D01*
X17703Y480188D01*
X17885Y478808D01*
X18417Y477523D01*
X19264Y476420D01*
X20368Y475573D01*
X21653Y475040D01*
X23032Y474859D01*
X24411Y475040D01*
X25697Y475573D01*
X26800Y476420D01*
X27647Y477523D01*
X28180Y478808D01*
X28361Y480188D01*
X28180Y481567D01*
X27647Y482852D01*
X26800Y483956D01*
X25697Y484803D01*
X24411Y485335D01*
X23032Y485517D01*
D02*
G37*
G36*
X94253Y481210D02*
X93413Y481099D01*
X92629Y480775D01*
X91957Y480259D01*
X91441Y479587D01*
X91117Y478804D01*
X91006Y477963D01*
X91117Y477123D01*
X91441Y476340D01*
X91957Y475668D01*
X92629Y475152D01*
X93413Y474828D01*
X94253Y474717D01*
X95093Y474828D01*
X95876Y475152D01*
X96548Y475668D01*
X97064Y476340D01*
X97388Y477123D01*
X97499Y477963D01*
X97388Y478804D01*
X97064Y479587D01*
X96548Y480259D01*
X95876Y480775D01*
X95093Y481099D01*
X94253Y481210D01*
D02*
G37*
G36*
X83386Y476725D02*
X82731Y476594D01*
X82174Y476223D01*
X81803Y475667D01*
X81673Y475011D01*
X81803Y474355D01*
X82174Y473799D01*
X82731Y473427D01*
X83386Y473297D01*
X84043Y473427D01*
X84598Y473799D01*
X84970Y474355D01*
X85101Y475011D01*
X84970Y475667D01*
X84598Y476223D01*
X84043Y476594D01*
X83386Y476725D01*
D02*
G37*
G36*
X45513Y478595D02*
X44631Y478479D01*
X43809Y478138D01*
X43103Y477597D01*
X42562Y476891D01*
X42222Y476070D01*
X42105Y475188D01*
X42222Y474306D01*
X42562Y473484D01*
X43103Y472779D01*
X43809Y472237D01*
X44631Y471897D01*
X45513Y471781D01*
X46394Y471897D01*
X47216Y472237D01*
X47922Y472779D01*
X48463Y473484D01*
X48803Y474306D01*
X48920Y475188D01*
X48803Y476070D01*
X48463Y476891D01*
X47922Y477597D01*
X47216Y478138D01*
X46394Y478479D01*
X45513Y478595D01*
D02*
G37*
G36*
X304410Y474914D02*
X303754Y474783D01*
X303198Y474412D01*
X302827Y473855D01*
X302696Y473200D01*
X302827Y472544D01*
X303198Y471988D01*
X303754Y471616D01*
X304410Y471486D01*
X305066Y471616D01*
X305622Y471988D01*
X305994Y472544D01*
X306124Y473200D01*
X305994Y473855D01*
X305622Y474412D01*
X305066Y474783D01*
X304410Y474914D01*
D02*
G37*
G36*
X344607Y474048D02*
X343951Y473917D01*
X343395Y473546D01*
X343023Y472989D01*
X342893Y472333D01*
X343023Y471677D01*
X343395Y471122D01*
X343951Y470750D01*
X344607Y470619D01*
X345263Y470750D01*
X345819Y471122D01*
X346191Y471677D01*
X346321Y472333D01*
X346191Y472989D01*
X345819Y473546D01*
X345263Y473917D01*
X344607Y474048D01*
D02*
G37*
G36*
X329135Y474008D02*
X328479Y473878D01*
X327923Y473506D01*
X327551Y472950D01*
X327420Y472294D01*
X327551Y471638D01*
X327923Y471082D01*
X328479Y470711D01*
X329135Y470580D01*
X329790Y470711D01*
X330347Y471082D01*
X330718Y471638D01*
X330849Y472294D01*
X330718Y472950D01*
X330347Y473506D01*
X329790Y473878D01*
X329135Y474008D01*
D02*
G37*
G36*
X540748Y474984D02*
X539692Y474845D01*
X538709Y474437D01*
X537864Y473789D01*
X537216Y472945D01*
X536809Y471961D01*
X536670Y470905D01*
X536809Y469850D01*
X537216Y468866D01*
X537864Y468022D01*
X538709Y467374D01*
X539692Y466966D01*
X540748Y466827D01*
X541804Y466966D01*
X542787Y467374D01*
X543632Y468022D01*
X544280Y468866D01*
X544687Y469850D01*
X544826Y470905D01*
X544687Y471961D01*
X544280Y472945D01*
X543632Y473789D01*
X542787Y474437D01*
X541804Y474845D01*
X540748Y474984D01*
D02*
G37*
G36*
X9528Y480210D02*
X8157Y480075D01*
X6838Y479675D01*
X5623Y479025D01*
X4557Y478151D01*
X3683Y477085D01*
X3033Y475870D01*
X2633Y474551D01*
X2498Y473180D01*
X2633Y471808D01*
X3033Y470490D01*
X3683Y469274D01*
X4557Y468209D01*
X5623Y467335D01*
X6838Y466685D01*
X8157Y466285D01*
X9528Y466150D01*
X10900Y466285D01*
X12218Y466685D01*
X13434Y467335D01*
X14499Y468209D01*
X15373Y469274D01*
X16023Y470490D01*
X16423Y471808D01*
X16558Y473180D01*
X16423Y474551D01*
X16023Y475870D01*
X15373Y477085D01*
X14499Y478151D01*
X13434Y479025D01*
X12218Y479675D01*
X10900Y480075D01*
X9528Y480210D01*
D02*
G37*
G36*
X433503Y471997D02*
X425948D01*
Y464442D01*
X433503D01*
Y471997D01*
D02*
G37*
G36*
X439725Y472029D02*
X438739Y471900D01*
X437820Y471519D01*
X437031Y470914D01*
X436425Y470124D01*
X436045Y469205D01*
X435915Y468219D01*
X436045Y467233D01*
X436425Y466314D01*
X437031Y465525D01*
X437820Y464920D01*
X438739Y464539D01*
X439725Y464409D01*
X440711Y464539D01*
X441630Y464920D01*
X442419Y465525D01*
X443025Y466314D01*
X443405Y467233D01*
X443535Y468219D01*
X443405Y469205D01*
X443025Y470124D01*
X442419Y470914D01*
X441630Y471519D01*
X440711Y471900D01*
X439725Y472029D01*
D02*
G37*
G36*
X45513Y469579D02*
X44631Y469463D01*
X43809Y469123D01*
X43103Y468581D01*
X42562Y467876D01*
X42222Y467054D01*
X42105Y466172D01*
X42222Y465290D01*
X42562Y464468D01*
X43103Y463763D01*
X43809Y463221D01*
X44631Y462881D01*
X45513Y462765D01*
X46394Y462881D01*
X47216Y463221D01*
X47922Y463763D01*
X48463Y464468D01*
X48803Y465290D01*
X48920Y466172D01*
X48803Y467054D01*
X48463Y467876D01*
X47922Y468581D01*
X47216Y469123D01*
X46394Y469463D01*
X45513Y469579D01*
D02*
G37*
G36*
X256064Y465780D02*
X255408Y465649D01*
X254852Y465278D01*
X254480Y464722D01*
X254350Y464066D01*
X254480Y463410D01*
X254852Y462854D01*
X255408Y462482D01*
X256064Y462352D01*
X256720Y462482D01*
X257276Y462854D01*
X257647Y463410D01*
X257778Y464066D01*
X257647Y464722D01*
X257276Y465278D01*
X256720Y465649D01*
X256064Y465780D01*
D02*
G37*
G36*
X294017Y461213D02*
X293360Y461082D01*
X292805Y460711D01*
X292433Y460155D01*
X292302Y459499D01*
X292433Y458843D01*
X292805Y458287D01*
X293360Y457915D01*
X294017Y457785D01*
X294672Y457915D01*
X295229Y458287D01*
X295600Y458843D01*
X295730Y459499D01*
X295600Y460155D01*
X295229Y460711D01*
X294672Y461082D01*
X294017Y461213D01*
D02*
G37*
G36*
X439725Y462029D02*
X438739Y461900D01*
X437820Y461519D01*
X437031Y460914D01*
X436425Y460124D01*
X436045Y459205D01*
X435915Y458219D01*
X436045Y457233D01*
X436425Y456314D01*
X437031Y455525D01*
X437820Y454920D01*
X438739Y454539D01*
X439725Y454409D01*
X440711Y454539D01*
X441630Y454920D01*
X442419Y455525D01*
X443025Y456314D01*
X443405Y457233D01*
X443535Y458219D01*
X443405Y459205D01*
X443025Y460124D01*
X442419Y460914D01*
X441630Y461519D01*
X440711Y461900D01*
X439725Y462029D01*
D02*
G37*
G36*
X429725D02*
X428739Y461900D01*
X427820Y461519D01*
X427031Y460914D01*
X426425Y460124D01*
X426045Y459205D01*
X425915Y458219D01*
X426045Y457233D01*
X426425Y456314D01*
X427031Y455525D01*
X427820Y454920D01*
X428739Y454539D01*
X429725Y454409D01*
X430711Y454539D01*
X431630Y454920D01*
X432419Y455525D01*
X433025Y456314D01*
X433405Y457233D01*
X433535Y458219D01*
X433405Y459205D01*
X433025Y460124D01*
X432419Y460914D01*
X431630Y461519D01*
X430711Y461900D01*
X429725Y462029D01*
D02*
G37*
G36*
X434778Y454994D02*
X434122Y454863D01*
X433566Y454492D01*
X433195Y453936D01*
X433064Y453280D01*
X433195Y452624D01*
X433566Y452068D01*
X434122Y451696D01*
X434778Y451566D01*
X435434Y451696D01*
X435990Y452068D01*
X436362Y452624D01*
X436492Y453280D01*
X436362Y453936D01*
X435990Y454492D01*
X435434Y454863D01*
X434778Y454994D01*
D02*
G37*
G36*
X417049D02*
X416393Y454863D01*
X415837Y454492D01*
X415465Y453936D01*
X415335Y453280D01*
X415465Y452624D01*
X415837Y452068D01*
X416393Y451696D01*
X417049Y451566D01*
X417704Y451696D01*
X418261Y452068D01*
X418632Y452624D01*
X418763Y453280D01*
X418632Y453936D01*
X418261Y454492D01*
X417704Y454863D01*
X417049Y454994D01*
D02*
G37*
G36*
X26536Y457611D02*
X25654Y457494D01*
X24833Y457154D01*
X24127Y456613D01*
X23585Y455907D01*
X23245Y455085D01*
X23129Y454204D01*
X23245Y453322D01*
X23585Y452500D01*
X24127Y451794D01*
X24833Y451253D01*
X25654Y450913D01*
X26536Y450796D01*
X27418Y450913D01*
X28240Y451253D01*
X28945Y451794D01*
X29487Y452500D01*
X29827Y453322D01*
X29943Y454204D01*
X29827Y455085D01*
X29487Y455907D01*
X28945Y456613D01*
X28240Y457154D01*
X27418Y457494D01*
X26536Y457611D01*
D02*
G37*
G36*
X333780Y450229D02*
X333124Y450098D01*
X332568Y449727D01*
X332197Y449170D01*
X332066Y448515D01*
X332197Y447859D01*
X332568Y447303D01*
X333124Y446931D01*
X333780Y446801D01*
X334436Y446931D01*
X334992Y447303D01*
X335364Y447859D01*
X335494Y448515D01*
X335364Y449170D01*
X334992Y449727D01*
X334436Y450098D01*
X333780Y450229D01*
D02*
G37*
G36*
X19528Y453615D02*
X18646Y453499D01*
X17825Y453158D01*
X17119Y452617D01*
X16578Y451911D01*
X16237Y451089D01*
X16121Y450208D01*
X16237Y449326D01*
X16578Y448504D01*
X17119Y447798D01*
X17825Y447257D01*
X18646Y446916D01*
X19528Y446800D01*
X20410Y446916D01*
X21232Y447257D01*
X21937Y447798D01*
X22479Y448504D01*
X22819Y449326D01*
X22935Y450208D01*
X22819Y451089D01*
X22479Y451911D01*
X21937Y452617D01*
X21232Y453158D01*
X20410Y453499D01*
X19528Y453615D01*
D02*
G37*
G36*
X384607Y448300D02*
X383951Y448169D01*
X383395Y447797D01*
X383024Y447241D01*
X382893Y446585D01*
X383024Y445929D01*
X383395Y445373D01*
X383951Y445002D01*
X384607Y444871D01*
X385263Y445002D01*
X385819Y445373D01*
X386191Y445929D01*
X386321Y446585D01*
X386191Y447241D01*
X385819Y447797D01*
X385263Y448169D01*
X384607Y448300D01*
D02*
G37*
G36*
X429725Y452029D02*
X428739Y451900D01*
X427820Y451519D01*
X427031Y450913D01*
X426425Y450124D01*
X426045Y449205D01*
X425915Y448219D01*
X426045Y447233D01*
X426425Y446314D01*
X427031Y445525D01*
X427820Y444920D01*
X428739Y444539D01*
X429725Y444409D01*
X430711Y444539D01*
X431630Y444920D01*
X432419Y445525D01*
X433025Y446314D01*
X433405Y447233D01*
X433535Y448219D01*
X433405Y449205D01*
X433025Y450124D01*
X432419Y450913D01*
X431630Y451519D01*
X430711Y451900D01*
X429725Y452029D01*
D02*
G37*
G36*
X107009Y447709D02*
X106353Y447578D01*
X105797Y447207D01*
X105425Y446651D01*
X105295Y445995D01*
X105425Y445339D01*
X105797Y444783D01*
X106353Y444411D01*
X107009Y444281D01*
X107665Y444411D01*
X108221Y444783D01*
X108592Y445339D01*
X108723Y445995D01*
X108592Y446651D01*
X108221Y447207D01*
X107665Y447578D01*
X107009Y447709D01*
D02*
G37*
G36*
X337678Y448890D02*
X337022Y448760D01*
X336466Y448388D01*
X336094Y447832D01*
X335964Y447176D01*
X336094Y446520D01*
X336466Y445964D01*
X337022Y445592D01*
X337678Y445462D01*
X338334Y445592D01*
X338343Y445598D01*
X338793Y445298D01*
X338759Y445129D01*
X338890Y444473D01*
X339261Y443917D01*
X339817Y443545D01*
X340473Y443415D01*
X341129Y443545D01*
X341685Y443917D01*
X342057Y444473D01*
X342187Y445129D01*
X342057Y445785D01*
X341685Y446341D01*
X341129Y446712D01*
X340473Y446843D01*
X339817Y446712D01*
X339808Y446706D01*
X339358Y447007D01*
X339392Y447176D01*
X339261Y447832D01*
X338890Y448388D01*
X338334Y448760D01*
X337678Y448890D01*
D02*
G37*
G36*
X26536Y449618D02*
X25654Y449502D01*
X24833Y449162D01*
X24127Y448621D01*
X23585Y447915D01*
X23245Y447093D01*
X23129Y446211D01*
X23245Y445330D01*
X23585Y444508D01*
X24127Y443802D01*
X24833Y443261D01*
X25654Y442920D01*
X26536Y442804D01*
X27418Y442920D01*
X28240Y443261D01*
X28945Y443802D01*
X29487Y444508D01*
X29827Y445330D01*
X29943Y446211D01*
X29827Y447093D01*
X29487Y447915D01*
X28945Y448621D01*
X28240Y449162D01*
X27418Y449502D01*
X26536Y449618D01*
D02*
G37*
G36*
X343859Y444166D02*
X343203Y444035D01*
X342647Y443664D01*
X342275Y443108D01*
X342145Y442452D01*
X342275Y441796D01*
X342647Y441240D01*
X343203Y440868D01*
X343859Y440738D01*
X344515Y440868D01*
X345071Y441240D01*
X345443Y441796D01*
X345573Y442452D01*
X345443Y443108D01*
X345071Y443664D01*
X344515Y444035D01*
X343859Y444166D01*
D02*
G37*
G36*
X19528Y445622D02*
X18646Y445506D01*
X17825Y445166D01*
X17119Y444625D01*
X16578Y443919D01*
X16237Y443097D01*
X16121Y442215D01*
X16237Y441333D01*
X16578Y440512D01*
X17119Y439806D01*
X17825Y439265D01*
X18646Y438924D01*
X19528Y438808D01*
X20410Y438924D01*
X21232Y439265D01*
X21937Y439806D01*
X22479Y440512D01*
X22819Y441333D01*
X22935Y442215D01*
X22819Y443097D01*
X22479Y443919D01*
X21937Y444625D01*
X21232Y445166D01*
X20410Y445506D01*
X19528Y445622D01*
D02*
G37*
G36*
X26536Y441626D02*
X25654Y441510D01*
X24833Y441170D01*
X24127Y440628D01*
X23585Y439923D01*
X23245Y439101D01*
X23129Y438219D01*
X23158Y437997D01*
X22706Y437601D01*
X16150D01*
Y430845D01*
X22906D01*
Y436849D01*
X23406Y436949D01*
X23585Y436516D01*
X24127Y435810D01*
X24833Y435269D01*
X25654Y434928D01*
X26536Y434812D01*
X27418Y434928D01*
X28240Y435269D01*
X28945Y435810D01*
X29487Y436516D01*
X29827Y437337D01*
X29943Y438219D01*
X29827Y439101D01*
X29487Y439923D01*
X28945Y440628D01*
X28240Y441170D01*
X27418Y441510D01*
X26536Y441626D01*
D02*
G37*
G36*
X439725Y442029D02*
X438739Y441900D01*
X437820Y441519D01*
X437031Y440913D01*
X436425Y440124D01*
X436045Y439205D01*
X435915Y438219D01*
X436045Y437233D01*
X436425Y436314D01*
X437031Y435525D01*
X437820Y434920D01*
X438739Y434539D01*
X439725Y434409D01*
X440711Y434539D01*
X441630Y434920D01*
X442419Y435525D01*
X443025Y436314D01*
X443405Y437233D01*
X443535Y438219D01*
X443405Y439205D01*
X443025Y440124D01*
X442419Y440913D01*
X441630Y441519D01*
X440711Y441900D01*
X439725Y442029D01*
D02*
G37*
G36*
X429725D02*
X428739Y441900D01*
X427820Y441519D01*
X427031Y440913D01*
X426425Y440124D01*
X426045Y439205D01*
X425915Y438219D01*
X426045Y437233D01*
X426425Y436314D01*
X427031Y435525D01*
X427820Y434920D01*
X428739Y434539D01*
X429725Y434409D01*
X430711Y434539D01*
X431630Y434920D01*
X432419Y435525D01*
X433025Y436314D01*
X433405Y437233D01*
X433535Y438219D01*
X433405Y439205D01*
X433025Y440124D01*
X432419Y440913D01*
X431630Y441519D01*
X430711Y441900D01*
X429725Y442029D01*
D02*
G37*
G36*
X290237Y437158D02*
X289581Y437027D01*
X289025Y436656D01*
X288653Y436100D01*
X288523Y435444D01*
X288653Y434788D01*
X289025Y434232D01*
X289581Y433860D01*
X290237Y433730D01*
X290893Y433860D01*
X291449Y434232D01*
X291821Y434788D01*
X291951Y435444D01*
X291821Y436100D01*
X291449Y436656D01*
X290893Y437027D01*
X290237Y437158D01*
D02*
G37*
G36*
X45513Y433595D02*
X44631Y433479D01*
X43809Y433138D01*
X43103Y432597D01*
X42562Y431891D01*
X42222Y431070D01*
X42105Y430188D01*
X42222Y429306D01*
X42562Y428484D01*
X43103Y427779D01*
X43809Y427237D01*
X44631Y426897D01*
X45513Y426781D01*
X46394Y426897D01*
X47216Y427237D01*
X47922Y427779D01*
X48463Y428484D01*
X48803Y429306D01*
X48920Y430188D01*
X48803Y431070D01*
X48463Y431891D01*
X47922Y432597D01*
X47216Y433138D01*
X46394Y433479D01*
X45513Y433595D01*
D02*
G37*
G36*
X457678Y428339D02*
X457022Y428208D01*
X456466Y427837D01*
X456094Y427281D01*
X455964Y426625D01*
X456094Y425969D01*
X456466Y425413D01*
X457022Y425041D01*
X457678Y424911D01*
X458334Y425041D01*
X458890Y425413D01*
X459261Y425969D01*
X459392Y426625D01*
X459261Y427281D01*
X458890Y427837D01*
X458334Y428208D01*
X457678Y428339D01*
D02*
G37*
G36*
X439725Y432029D02*
X438739Y431900D01*
X437820Y431519D01*
X437031Y430913D01*
X436425Y430124D01*
X436045Y429205D01*
X435915Y428219D01*
X436045Y427233D01*
X436425Y426314D01*
X437031Y425525D01*
X437820Y424920D01*
X438739Y424539D01*
X439725Y424409D01*
X440711Y424539D01*
X441630Y424920D01*
X442419Y425525D01*
X443025Y426314D01*
X443405Y427233D01*
X443535Y428219D01*
X443405Y429205D01*
X443025Y430124D01*
X442419Y430913D01*
X441630Y431519D01*
X440711Y431900D01*
X439725Y432029D01*
D02*
G37*
G36*
X294017Y426449D02*
X293360Y426319D01*
X292805Y425947D01*
X292433Y425391D01*
X292302Y424735D01*
X292433Y424079D01*
X292805Y423523D01*
X293360Y423151D01*
X294017Y423021D01*
X294672Y423151D01*
X295229Y423523D01*
X295600Y424079D01*
X295730Y424735D01*
X295600Y425391D01*
X295229Y425947D01*
X294672Y426319D01*
X294017Y426449D01*
D02*
G37*
G36*
X176930Y425110D02*
X176274Y424980D01*
X175718Y424609D01*
X175346Y424052D01*
X175216Y423396D01*
X175346Y422741D01*
X175718Y422185D01*
X176274Y421813D01*
X176930Y421682D01*
X177586Y421813D01*
X178142Y422185D01*
X178513Y422741D01*
X178644Y423396D01*
X178513Y424052D01*
X178142Y424609D01*
X177586Y424980D01*
X176930Y425110D01*
D02*
G37*
G36*
X152324Y425032D02*
X151668Y424901D01*
X151112Y424530D01*
X150740Y423974D01*
X150610Y423318D01*
X150740Y422662D01*
X151112Y422106D01*
X151668Y421734D01*
X152324Y421604D01*
X152980Y421734D01*
X153535Y422106D01*
X153907Y422662D01*
X154038Y423318D01*
X153907Y423974D01*
X153535Y424530D01*
X152980Y424901D01*
X152324Y425032D01*
D02*
G37*
G36*
X166733Y424953D02*
X166077Y424823D01*
X165521Y424451D01*
X165149Y423895D01*
X165019Y423239D01*
X165149Y422583D01*
X165521Y422027D01*
X166077Y421655D01*
X166733Y421525D01*
X167389Y421655D01*
X167945Y422027D01*
X168317Y422583D01*
X168447Y423239D01*
X168317Y423895D01*
X167945Y424451D01*
X167389Y424823D01*
X166733Y424953D01*
D02*
G37*
G36*
X142245Y424914D02*
X141589Y424783D01*
X141033Y424412D01*
X140661Y423855D01*
X140531Y423200D01*
X140661Y422544D01*
X141033Y421988D01*
X141589Y421616D01*
X142245Y421486D01*
X142901Y421616D01*
X143457Y421988D01*
X143828Y422544D01*
X143959Y423200D01*
X143828Y423855D01*
X143457Y424412D01*
X142901Y424783D01*
X142245Y424914D01*
D02*
G37*
G36*
X45513Y424579D02*
X44631Y424463D01*
X43809Y424123D01*
X43103Y423581D01*
X42562Y422876D01*
X42222Y422054D01*
X42105Y421172D01*
X42222Y420290D01*
X42562Y419468D01*
X43103Y418763D01*
X43809Y418221D01*
X44631Y417881D01*
X45513Y417765D01*
X46394Y417881D01*
X47216Y418221D01*
X47922Y418763D01*
X48463Y419468D01*
X48803Y420290D01*
X48920Y421172D01*
X48803Y422054D01*
X48463Y422876D01*
X47922Y423581D01*
X47216Y424123D01*
X46394Y424463D01*
X45513Y424579D01*
D02*
G37*
G36*
X202725Y424391D02*
X195768D01*
Y415455D01*
X202725D01*
Y424391D01*
D02*
G37*
G36*
X542224Y425643D02*
X540861Y425464D01*
X539590Y424937D01*
X538498Y424100D01*
X537661Y423009D01*
X537135Y421738D01*
X536955Y420374D01*
X537135Y419010D01*
X537661Y417739D01*
X538498Y416648D01*
X539590Y415810D01*
X540861Y415284D01*
X542224Y415104D01*
X543588Y415284D01*
X544859Y415810D01*
X545951Y416648D01*
X546788Y417739D01*
X547314Y419010D01*
X547494Y420374D01*
X547314Y421738D01*
X546788Y423009D01*
X545951Y424100D01*
X544859Y424937D01*
X543588Y425464D01*
X542224Y425643D01*
D02*
G37*
G36*
X439725Y422029D02*
X438739Y421900D01*
X437820Y421519D01*
X437031Y420914D01*
X436425Y420124D01*
X436045Y419205D01*
X435915Y418219D01*
X436045Y417233D01*
X436425Y416314D01*
X437031Y415525D01*
X437820Y414920D01*
X438739Y414539D01*
X439725Y414409D01*
X440711Y414539D01*
X441630Y414920D01*
X442419Y415525D01*
X443025Y416314D01*
X443405Y417233D01*
X443535Y418219D01*
X443405Y419205D01*
X443025Y420124D01*
X442419Y420914D01*
X441630Y421519D01*
X440711Y421900D01*
X439725Y422029D01*
D02*
G37*
G36*
X429725D02*
X428739Y421900D01*
X427820Y421519D01*
X427031Y420914D01*
X426425Y420124D01*
X426045Y419205D01*
X425915Y418219D01*
X426045Y417233D01*
X426425Y416314D01*
X427031Y415525D01*
X427820Y414920D01*
X428739Y414539D01*
X429725Y414409D01*
X430711Y414539D01*
X431630Y414920D01*
X432419Y415525D01*
X433025Y416314D01*
X433405Y417233D01*
X433535Y418219D01*
X433405Y419205D01*
X433025Y420124D01*
X432419Y420914D01*
X431630Y421519D01*
X430711Y421900D01*
X429725Y422029D01*
D02*
G37*
G36*
X382520Y415544D02*
X381865Y415413D01*
X381308Y415041D01*
X380937Y414486D01*
X380806Y413830D01*
X380937Y413174D01*
X381308Y412617D01*
X381865Y412246D01*
X382520Y412115D01*
X383176Y412246D01*
X383732Y412617D01*
X384104Y413174D01*
X384234Y413830D01*
X384104Y414486D01*
X383732Y415041D01*
X383176Y415413D01*
X382520Y415544D01*
D02*
G37*
G36*
X368977Y415504D02*
X368321Y415374D01*
X367765Y415002D01*
X367393Y414446D01*
X367263Y413790D01*
X367393Y413134D01*
X367765Y412578D01*
X368321Y412207D01*
X368977Y412076D01*
X369633Y412207D01*
X370189Y412578D01*
X370561Y413134D01*
X370691Y413790D01*
X370561Y414446D01*
X370189Y415002D01*
X369633Y415374D01*
X368977Y415504D01*
D02*
G37*
G36*
X261182Y413732D02*
X260526Y413602D01*
X259970Y413231D01*
X259598Y412674D01*
X259468Y412018D01*
X259598Y411363D01*
X259970Y410807D01*
X260526Y410435D01*
X261182Y410304D01*
X261838Y410435D01*
X262394Y410807D01*
X262765Y411363D01*
X262896Y412018D01*
X262765Y412674D01*
X262394Y413231D01*
X261838Y413602D01*
X261182Y413732D01*
D02*
G37*
G36*
X45513Y416587D02*
X44631Y416471D01*
X43809Y416131D01*
X43103Y415589D01*
X42562Y414884D01*
X42222Y414062D01*
X42105Y413180D01*
X42222Y412298D01*
X42562Y411476D01*
X43103Y410771D01*
X43809Y410229D01*
X44631Y409889D01*
X45513Y409773D01*
X46394Y409889D01*
X47216Y410229D01*
X47922Y410771D01*
X48463Y411476D01*
X48803Y412298D01*
X48920Y413180D01*
X48803Y414062D01*
X48463Y414884D01*
X47922Y415589D01*
X47216Y416131D01*
X46394Y416471D01*
X45513Y416587D01*
D02*
G37*
G36*
X508662Y416614D02*
X507452Y416454D01*
X506325Y415987D01*
X505357Y415245D01*
X504614Y414277D01*
X504147Y413149D01*
X503988Y411940D01*
X504147Y410730D01*
X504614Y409603D01*
X505357Y408635D01*
X506325Y407892D01*
X507452Y407425D01*
X508662Y407266D01*
X509872Y407425D01*
X510999Y407892D01*
X511967Y408635D01*
X512710Y409603D01*
X513177Y410730D01*
X513336Y411940D01*
X513177Y413149D01*
X512710Y414277D01*
X511967Y415245D01*
X510999Y415987D01*
X509872Y416454D01*
X508662Y416614D01*
D02*
G37*
G36*
X286615Y408851D02*
X285959Y408720D01*
X285403Y408349D01*
X285031Y407793D01*
X284901Y407137D01*
X285031Y406481D01*
X285403Y405925D01*
X285959Y405553D01*
X286615Y405423D01*
X287271Y405553D01*
X287827Y405925D01*
X288198Y406481D01*
X288329Y407137D01*
X288198Y407793D01*
X287827Y408349D01*
X287271Y408720D01*
X286615Y408851D01*
D02*
G37*
G36*
X429725Y412029D02*
X428739Y411900D01*
X427820Y411519D01*
X427031Y410914D01*
X426425Y410124D01*
X426045Y409205D01*
X425915Y408219D01*
X426045Y407233D01*
X426425Y406314D01*
X427031Y405525D01*
X427820Y404920D01*
X428739Y404539D01*
X429725Y404409D01*
X430711Y404539D01*
X431630Y404920D01*
X432419Y405525D01*
X433025Y406314D01*
X433405Y407233D01*
X433535Y408219D01*
X433405Y409205D01*
X433025Y410124D01*
X432419Y410914D01*
X431630Y411519D01*
X430711Y411900D01*
X429725Y412029D01*
D02*
G37*
G36*
X65709Y407709D02*
X65053Y407578D01*
X64497Y407207D01*
X64126Y406651D01*
X63995Y405995D01*
X64126Y405339D01*
X64497Y404783D01*
X65053Y404411D01*
X65709Y404281D01*
X66365Y404411D01*
X66921Y404783D01*
X67293Y405339D01*
X67423Y405995D01*
X67293Y406651D01*
X66921Y407207D01*
X66365Y407578D01*
X65709Y407709D01*
D02*
G37*
G36*
X45513Y407571D02*
X44631Y407455D01*
X43809Y407115D01*
X43103Y406573D01*
X42562Y405868D01*
X42222Y405046D01*
X42105Y404164D01*
X42222Y403282D01*
X42562Y402461D01*
X43103Y401755D01*
X43809Y401214D01*
X44631Y400873D01*
X45513Y400757D01*
X46394Y400873D01*
X47216Y401214D01*
X47922Y401755D01*
X48463Y402461D01*
X48803Y403282D01*
X48920Y404164D01*
X48803Y405046D01*
X48463Y405868D01*
X47922Y406573D01*
X47216Y407115D01*
X46394Y407455D01*
X45513Y407571D01*
D02*
G37*
G36*
X170545Y404192D02*
X163049D01*
Y396696D01*
X170545D01*
Y404192D01*
D02*
G37*
G36*
X176876Y404224D02*
X175897Y404095D01*
X174986Y403718D01*
X174203Y403117D01*
X173602Y402334D01*
X173224Y401422D01*
X173095Y400444D01*
X173224Y399465D01*
X173602Y398553D01*
X174203Y397771D01*
X174986Y397170D01*
X175897Y396792D01*
X176876Y396663D01*
X177854Y396792D01*
X178766Y397170D01*
X179549Y397771D01*
X180150Y398553D01*
X180527Y399465D01*
X180656Y400444D01*
X180527Y401422D01*
X180150Y402334D01*
X179549Y403117D01*
X178766Y403718D01*
X177854Y404095D01*
X176876Y404224D01*
D02*
G37*
G36*
X145954Y404113D02*
X138457D01*
Y396617D01*
X145954D01*
Y404113D01*
D02*
G37*
G36*
X152284Y404145D02*
X151306Y404016D01*
X150394Y403639D01*
X149611Y403038D01*
X149010Y402255D01*
X148633Y401343D01*
X148504Y400365D01*
X148633Y399387D01*
X149010Y398475D01*
X149611Y397692D01*
X150394Y397091D01*
X151306Y396713D01*
X152284Y396585D01*
X153263Y396713D01*
X154174Y397091D01*
X154957Y397692D01*
X155558Y398475D01*
X155936Y399387D01*
X156065Y400365D01*
X155936Y401343D01*
X155558Y402255D01*
X154957Y403038D01*
X154174Y403639D01*
X153263Y404016D01*
X152284Y404145D01*
D02*
G37*
G36*
X266143Y403870D02*
X265164Y403741D01*
X264252Y403363D01*
X263469Y402763D01*
X262869Y401980D01*
X262491Y401068D01*
X262362Y400089D01*
X262491Y399111D01*
X262869Y398199D01*
X263469Y397416D01*
X264252Y396815D01*
X265164Y396438D01*
X266143Y396309D01*
X267121Y396438D01*
X268033Y396815D01*
X268816Y397416D01*
X269416Y398199D01*
X269794Y399111D01*
X269923Y400089D01*
X269794Y401068D01*
X269416Y401980D01*
X268816Y402763D01*
X268033Y403363D01*
X267121Y403741D01*
X266143Y403870D01*
D02*
G37*
G36*
X256142D02*
X255164Y403741D01*
X254252Y403363D01*
X253469Y402763D01*
X252869Y401980D01*
X252491Y401068D01*
X252362Y400089D01*
X252491Y399111D01*
X252869Y398199D01*
X253469Y397416D01*
X254252Y396815D01*
X255164Y396438D01*
X256142Y396309D01*
X257121Y396438D01*
X258033Y396815D01*
X258816Y397416D01*
X259416Y398199D01*
X259794Y399111D01*
X259923Y400089D01*
X259794Y401068D01*
X259416Y401980D01*
X258816Y402763D01*
X258033Y403363D01*
X257121Y403741D01*
X256142Y403870D01*
D02*
G37*
G36*
X236142D02*
X235164Y403741D01*
X234252Y403363D01*
X233469Y402763D01*
X232869Y401980D01*
X232491Y401068D01*
X232362Y400089D01*
X232491Y399111D01*
X232869Y398199D01*
X233469Y397416D01*
X234252Y396815D01*
X235164Y396438D01*
X236142Y396309D01*
X237121Y396438D01*
X238033Y396815D01*
X238816Y397416D01*
X239416Y398199D01*
X239794Y399111D01*
X239923Y400089D01*
X239794Y401068D01*
X239416Y401980D01*
X238816Y402763D01*
X238033Y403363D01*
X237121Y403741D01*
X236142Y403870D01*
D02*
G37*
G36*
X226143D02*
X225164Y403741D01*
X224252Y403363D01*
X223469Y402763D01*
X222869Y401980D01*
X222491Y401068D01*
X222362Y400089D01*
X222491Y399111D01*
X222869Y398199D01*
X223469Y397416D01*
X224252Y396815D01*
X225164Y396438D01*
X226143Y396309D01*
X227121Y396438D01*
X228033Y396815D01*
X228816Y397416D01*
X229416Y398199D01*
X229794Y399111D01*
X229923Y400089D01*
X229794Y401068D01*
X229416Y401980D01*
X228816Y402763D01*
X228033Y403363D01*
X227121Y403741D01*
X226143Y403870D01*
D02*
G37*
G36*
X439725Y402029D02*
X438739Y401900D01*
X437820Y401519D01*
X437031Y400913D01*
X436425Y400124D01*
X436045Y399205D01*
X435915Y398219D01*
X436045Y397233D01*
X436425Y396314D01*
X437031Y395525D01*
X437820Y394920D01*
X438739Y394539D01*
X439725Y394409D01*
X440711Y394539D01*
X441630Y394920D01*
X442419Y395525D01*
X443025Y396314D01*
X443405Y397233D01*
X443535Y398219D01*
X443405Y399205D01*
X443025Y400124D01*
X442419Y400913D01*
X441630Y401519D01*
X440711Y401900D01*
X439725Y402029D01*
D02*
G37*
G36*
X429725D02*
X428739Y401900D01*
X427820Y401519D01*
X427031Y400913D01*
X426425Y400124D01*
X426045Y399205D01*
X425915Y398219D01*
X426045Y397233D01*
X426425Y396314D01*
X427031Y395525D01*
X427820Y394920D01*
X428739Y394539D01*
X429725Y394409D01*
X430711Y394539D01*
X431630Y394920D01*
X432419Y395525D01*
X433025Y396314D01*
X433405Y397233D01*
X433535Y398219D01*
X433405Y399205D01*
X433025Y400124D01*
X432419Y400913D01*
X431630Y401519D01*
X430711Y401900D01*
X429725Y402029D01*
D02*
G37*
G36*
X26536Y395603D02*
X25654Y395487D01*
X24833Y395146D01*
X24127Y394605D01*
X23585Y393899D01*
X23245Y393077D01*
X23129Y392196D01*
X23245Y391314D01*
X23585Y390492D01*
X24127Y389787D01*
X24833Y389245D01*
X25654Y388905D01*
X26536Y388789D01*
X27418Y388905D01*
X28240Y389245D01*
X28945Y389787D01*
X29487Y390492D01*
X29827Y391314D01*
X29943Y392196D01*
X29827Y393077D01*
X29487Y393899D01*
X28945Y394605D01*
X28240Y395146D01*
X27418Y395487D01*
X26536Y395603D01*
D02*
G37*
G36*
X335684Y388649D02*
X335028Y388518D01*
X334472Y388146D01*
X334100Y387591D01*
X333970Y386934D01*
X334100Y386279D01*
X334472Y385722D01*
X335028Y385351D01*
X335684Y385221D01*
X336340Y385351D01*
X336896Y385722D01*
X337267Y386279D01*
X337398Y386934D01*
X337267Y387591D01*
X336896Y388146D01*
X336340Y388518D01*
X335684Y388649D01*
D02*
G37*
G36*
X214331Y388260D02*
X213675Y388130D01*
X213119Y387758D01*
X212748Y387202D01*
X212617Y386546D01*
X212748Y385890D01*
X213119Y385334D01*
X213675Y384963D01*
X214331Y384832D01*
X214987Y384963D01*
X215543Y385334D01*
X215915Y385890D01*
X216045Y386546D01*
X215915Y387202D01*
X215543Y387758D01*
X214987Y388130D01*
X214331Y388260D01*
D02*
G37*
G36*
X19528Y391607D02*
X18646Y391491D01*
X17825Y391150D01*
X17119Y390609D01*
X16578Y389903D01*
X16237Y389081D01*
X16121Y388200D01*
X16237Y387318D01*
X16578Y386496D01*
X17119Y385790D01*
X17825Y385249D01*
X18646Y384909D01*
X19528Y384792D01*
X20410Y384909D01*
X21232Y385249D01*
X21937Y385790D01*
X22479Y386496D01*
X22819Y387318D01*
X22935Y388200D01*
X22819Y389081D01*
X22479Y389903D01*
X21937Y390609D01*
X21232Y391150D01*
X20410Y391491D01*
X19528Y391607D01*
D02*
G37*
G36*
X439725Y392029D02*
X438739Y391900D01*
X437820Y391519D01*
X437031Y390914D01*
X436425Y390124D01*
X436045Y389205D01*
X435915Y388219D01*
X436045Y387233D01*
X436425Y386314D01*
X437031Y385525D01*
X437820Y384920D01*
X438739Y384539D01*
X439725Y384409D01*
X440711Y384539D01*
X441630Y384920D01*
X442419Y385525D01*
X443025Y386314D01*
X443405Y387233D01*
X443535Y388219D01*
X443405Y389205D01*
X443025Y390124D01*
X442419Y390914D01*
X441630Y391519D01*
X440711Y391900D01*
X439725Y392029D01*
D02*
G37*
G36*
X429725D02*
X428739Y391900D01*
X427820Y391519D01*
X427031Y390914D01*
X426425Y390124D01*
X426045Y389205D01*
X425915Y388219D01*
X426045Y387233D01*
X426425Y386314D01*
X427031Y385525D01*
X427820Y384920D01*
X428739Y384539D01*
X429725Y384409D01*
X430711Y384539D01*
X431630Y384920D01*
X432419Y385525D01*
X433025Y386314D01*
X433405Y387233D01*
X433535Y388219D01*
X433405Y389205D01*
X433025Y390124D01*
X432419Y390914D01*
X431630Y391519D01*
X430711Y391900D01*
X429725Y392029D01*
D02*
G37*
G36*
X49528Y391501D02*
X48149Y391319D01*
X46864Y390787D01*
X45760Y389940D01*
X44913Y388837D01*
X44381Y387551D01*
X44199Y386172D01*
X44381Y384793D01*
X44913Y383507D01*
X45760Y382404D01*
X46864Y381557D01*
X48149Y381025D01*
X49528Y380843D01*
X50907Y381025D01*
X52193Y381557D01*
X53297Y382404D01*
X54143Y383507D01*
X54676Y384793D01*
X54857Y386172D01*
X54676Y387551D01*
X54143Y388837D01*
X53297Y389940D01*
X52193Y390787D01*
X50907Y391319D01*
X49528Y391501D01*
D02*
G37*
G36*
X26536Y387611D02*
X25654Y387494D01*
X24833Y387154D01*
X24127Y386613D01*
X23585Y385907D01*
X23245Y385085D01*
X23129Y384204D01*
X23245Y383322D01*
X23585Y382500D01*
X24127Y381794D01*
X24833Y381253D01*
X25654Y380912D01*
X26536Y380796D01*
X27418Y380912D01*
X28240Y381253D01*
X28945Y381794D01*
X29487Y382500D01*
X29827Y383322D01*
X29943Y384204D01*
X29827Y385085D01*
X29487Y385907D01*
X28945Y386613D01*
X28240Y387154D01*
X27418Y387494D01*
X26536Y387611D01*
D02*
G37*
G36*
X218268Y380386D02*
X217613Y380256D01*
X217056Y379884D01*
X216685Y379328D01*
X216554Y378672D01*
X216685Y378016D01*
X217056Y377460D01*
X217613Y377088D01*
X218268Y376958D01*
X218924Y377088D01*
X219480Y377460D01*
X219852Y378016D01*
X219983Y378672D01*
X219852Y379328D01*
X219480Y379884D01*
X218924Y380256D01*
X218268Y380386D01*
D02*
G37*
G36*
X519881Y380308D02*
X519225Y380177D01*
X518669Y379806D01*
X518298Y379250D01*
X518167Y378594D01*
X518298Y377938D01*
X518669Y377382D01*
X519225Y377010D01*
X519881Y376880D01*
X520537Y377010D01*
X521093Y377382D01*
X521465Y377938D01*
X521595Y378594D01*
X521465Y379250D01*
X521093Y379806D01*
X520537Y380177D01*
X519881Y380308D01*
D02*
G37*
G36*
X19528Y383615D02*
X18646Y383499D01*
X17825Y383158D01*
X17119Y382617D01*
X16578Y381911D01*
X16237Y381089D01*
X16121Y380207D01*
X16237Y379326D01*
X16578Y378504D01*
X17119Y377798D01*
X17825Y377257D01*
X18646Y376917D01*
X19528Y376800D01*
X20410Y376917D01*
X21232Y377257D01*
X21937Y377798D01*
X22479Y378504D01*
X22819Y379326D01*
X22935Y380207D01*
X22819Y381089D01*
X22479Y381911D01*
X21937Y382617D01*
X21232Y383158D01*
X20410Y383499D01*
X19528Y383615D01*
D02*
G37*
G36*
X429725Y382029D02*
X428739Y381900D01*
X427820Y381519D01*
X427031Y380913D01*
X426425Y380124D01*
X426045Y379205D01*
X425915Y378219D01*
X426045Y377233D01*
X426425Y376314D01*
X427031Y375525D01*
X427820Y374920D01*
X428739Y374539D01*
X429725Y374409D01*
X430711Y374539D01*
X431630Y374920D01*
X432419Y375525D01*
X433025Y376314D01*
X433405Y377233D01*
X433535Y378219D01*
X433405Y379205D01*
X433025Y380124D01*
X432419Y380913D01*
X431630Y381519D01*
X430711Y381900D01*
X429725Y382029D01*
D02*
G37*
G36*
X26536Y379619D02*
X25654Y379502D01*
X24833Y379162D01*
X24127Y378621D01*
X23585Y377915D01*
X23245Y377093D01*
X23129Y376211D01*
X23178Y375843D01*
X22724Y375455D01*
X16150D01*
Y368700D01*
X22906D01*
Y374841D01*
X23406Y374941D01*
X23585Y374508D01*
X24127Y373802D01*
X24833Y373261D01*
X25654Y372920D01*
X26536Y372804D01*
X27418Y372920D01*
X28240Y373261D01*
X28945Y373802D01*
X29487Y374508D01*
X29827Y375330D01*
X29943Y376211D01*
X29827Y377093D01*
X29487Y377915D01*
X28945Y378621D01*
X28240Y379162D01*
X27418Y379502D01*
X26536Y379619D01*
D02*
G37*
G36*
X286654Y372945D02*
X285998Y372815D01*
X285442Y372443D01*
X285071Y371887D01*
X284940Y371231D01*
X285071Y370575D01*
X285442Y370019D01*
X285998Y369648D01*
X286654Y369517D01*
X287310Y369648D01*
X287866Y370019D01*
X288238Y370575D01*
X288368Y371231D01*
X288238Y371887D01*
X287866Y372443D01*
X287310Y372815D01*
X286654Y372945D01*
D02*
G37*
G36*
X253859Y372630D02*
X253203Y372500D01*
X252647Y372128D01*
X252275Y371572D01*
X252145Y370916D01*
X252275Y370260D01*
X252647Y369704D01*
X253203Y369333D01*
X253859Y369202D01*
X254515Y369333D01*
X255071Y369704D01*
X255443Y370260D01*
X255573Y370916D01*
X255443Y371572D01*
X255071Y372128D01*
X254515Y372500D01*
X253859Y372630D01*
D02*
G37*
G36*
X298938Y372591D02*
X298282Y372460D01*
X297726Y372089D01*
X297354Y371533D01*
X297224Y370877D01*
X297354Y370221D01*
X297726Y369665D01*
X298282Y369293D01*
X298938Y369163D01*
X299594Y369293D01*
X300150Y369665D01*
X300521Y370221D01*
X300652Y370877D01*
X300521Y371533D01*
X300150Y372089D01*
X299594Y372460D01*
X298938Y372591D01*
D02*
G37*
G36*
X45513Y371587D02*
X44631Y371471D01*
X43809Y371131D01*
X43103Y370589D01*
X42562Y369883D01*
X42222Y369062D01*
X42105Y368180D01*
X42222Y367298D01*
X42562Y366476D01*
X43103Y365771D01*
X43809Y365229D01*
X44631Y364889D01*
X45513Y364773D01*
X46394Y364889D01*
X47216Y365229D01*
X47922Y365771D01*
X48463Y366476D01*
X48803Y367298D01*
X48920Y368180D01*
X48803Y369062D01*
X48463Y369883D01*
X47922Y370589D01*
X47216Y371131D01*
X46394Y371471D01*
X45513Y371587D01*
D02*
G37*
G36*
X412048Y368103D02*
X411392Y367972D01*
X410836Y367601D01*
X410464Y367044D01*
X410334Y366389D01*
X410464Y365733D01*
X410836Y365177D01*
X411392Y364805D01*
X412048Y364674D01*
X412704Y364805D01*
X413260Y365177D01*
X413631Y365733D01*
X413762Y366389D01*
X413631Y367044D01*
X413260Y367601D01*
X412704Y367972D01*
X412048Y368103D01*
D02*
G37*
G36*
X439725Y372029D02*
X438739Y371900D01*
X437820Y371519D01*
X437031Y370914D01*
X436425Y370124D01*
X436045Y369205D01*
X435915Y368219D01*
X436045Y367233D01*
X436425Y366314D01*
X437031Y365525D01*
X437820Y364920D01*
X438739Y364539D01*
X439725Y364409D01*
X440711Y364539D01*
X441630Y364920D01*
X442419Y365525D01*
X443025Y366314D01*
X443405Y367233D01*
X443535Y368219D01*
X443405Y369205D01*
X443025Y370124D01*
X442419Y370914D01*
X441630Y371519D01*
X440711Y371900D01*
X439725Y372029D01*
D02*
G37*
G36*
X429725D02*
X428739Y371900D01*
X427820Y371519D01*
X427031Y370914D01*
X426425Y370124D01*
X426045Y369205D01*
X425915Y368219D01*
X426045Y367233D01*
X426425Y366314D01*
X427031Y365525D01*
X427820Y364920D01*
X428739Y364539D01*
X429725Y364409D01*
X430711Y364539D01*
X431630Y364920D01*
X432419Y365525D01*
X433025Y366314D01*
X433405Y367233D01*
X433535Y368219D01*
X433405Y369205D01*
X433025Y370124D01*
X432419Y370914D01*
X431630Y371519D01*
X430711Y371900D01*
X429725Y372029D01*
D02*
G37*
G36*
X91536Y363339D02*
X90880Y363208D01*
X90324Y362837D01*
X89953Y362281D01*
X89822Y361625D01*
X89953Y360969D01*
X90324Y360413D01*
X90880Y360041D01*
X91536Y359911D01*
X92192Y360041D01*
X92748Y360413D01*
X93120Y360969D01*
X93250Y361625D01*
X93120Y362281D01*
X92748Y362837D01*
X92192Y363208D01*
X91536Y363339D01*
D02*
G37*
G36*
X264331Y358811D02*
X263675Y358681D01*
X263119Y358309D01*
X262748Y357753D01*
X262657Y357298D01*
X262147D01*
X262096Y357556D01*
X261724Y358112D01*
X261169Y358484D01*
X260512Y358614D01*
X259857Y358484D01*
X259300Y358112D01*
X258929Y357556D01*
X258799Y356900D01*
X258929Y356244D01*
X259300Y355688D01*
X259857Y355317D01*
X260512Y355186D01*
X261169Y355317D01*
X261724Y355688D01*
X262096Y356244D01*
X262187Y356700D01*
X262697D01*
X262748Y356441D01*
X263119Y355885D01*
X263675Y355514D01*
X264331Y355383D01*
X264987Y355514D01*
X265543Y355885D01*
X265915Y356441D01*
X266045Y357097D01*
X265915Y357753D01*
X265543Y358309D01*
X264987Y358681D01*
X264331Y358811D01*
D02*
G37*
G36*
X392560Y360504D02*
X391904Y360374D01*
X391348Y360002D01*
X390976Y359446D01*
X390846Y358790D01*
X390976Y358134D01*
X391348Y357578D01*
X391904Y357207D01*
X392560Y357076D01*
X393216Y357207D01*
X393772Y357578D01*
X394143Y358134D01*
X394274Y358790D01*
X394143Y359446D01*
X393772Y360002D01*
X393216Y360374D01*
X392560Y360504D01*
D02*
G37*
G36*
X45513Y362571D02*
X44631Y362455D01*
X43809Y362115D01*
X43103Y361573D01*
X42562Y360868D01*
X42222Y360046D01*
X42105Y359164D01*
X42222Y358282D01*
X42562Y357461D01*
X43103Y356755D01*
X43809Y356213D01*
X44631Y355873D01*
X45513Y355757D01*
X46394Y355873D01*
X47216Y356213D01*
X47922Y356755D01*
X48463Y357461D01*
X48803Y358282D01*
X48920Y359164D01*
X48803Y360046D01*
X48463Y360868D01*
X47922Y361573D01*
X47216Y362115D01*
X46394Y362455D01*
X45513Y362571D01*
D02*
G37*
G36*
X439725Y362029D02*
X438739Y361900D01*
X437820Y361519D01*
X437031Y360913D01*
X436425Y360124D01*
X436045Y359205D01*
X435915Y358219D01*
X436045Y357233D01*
X436425Y356314D01*
X437031Y355525D01*
X437820Y354920D01*
X438739Y354539D01*
X439725Y354409D01*
X440711Y354539D01*
X441630Y354920D01*
X442419Y355525D01*
X443025Y356314D01*
X443405Y357233D01*
X443535Y358219D01*
X443405Y359205D01*
X443025Y360124D01*
X442419Y360913D01*
X441630Y361519D01*
X440711Y361900D01*
X439725Y362029D01*
D02*
G37*
G36*
X429725D02*
X428739Y361900D01*
X427820Y361519D01*
X427031Y360913D01*
X426425Y360124D01*
X426045Y359205D01*
X425915Y358219D01*
X426045Y357233D01*
X426425Y356314D01*
X427031Y355525D01*
X427820Y354920D01*
X428739Y354539D01*
X429725Y354409D01*
X430711Y354539D01*
X431630Y354920D01*
X432419Y355525D01*
X433025Y356314D01*
X433405Y357233D01*
X433535Y358219D01*
X433405Y359205D01*
X433025Y360124D01*
X432419Y360913D01*
X431630Y361519D01*
X430711Y361900D01*
X429725Y362029D01*
D02*
G37*
G36*
X294017Y354835D02*
X293360Y354704D01*
X292805Y354333D01*
X292433Y353777D01*
X292302Y353121D01*
X292433Y352465D01*
X292805Y351909D01*
X293360Y351537D01*
X294017Y351407D01*
X294672Y351537D01*
X295229Y351909D01*
X295600Y352465D01*
X295730Y353121D01*
X295600Y353777D01*
X295229Y354333D01*
X294672Y354704D01*
X294017Y354835D01*
D02*
G37*
G36*
X45513Y354579D02*
X44631Y354463D01*
X43809Y354123D01*
X43103Y353581D01*
X42562Y352876D01*
X42222Y352054D01*
X42105Y351172D01*
X42222Y350290D01*
X42562Y349468D01*
X43103Y348763D01*
X43809Y348221D01*
X44631Y347881D01*
X45513Y347765D01*
X46394Y347881D01*
X47216Y348221D01*
X47922Y348763D01*
X48463Y349468D01*
X48803Y350290D01*
X48920Y351172D01*
X48803Y352054D01*
X48463Y352876D01*
X47922Y353581D01*
X47216Y354123D01*
X46394Y354463D01*
X45513Y354579D01*
D02*
G37*
G36*
X291812Y348890D02*
X291156Y348760D01*
X290600Y348388D01*
X290228Y347832D01*
X290098Y347176D01*
X290228Y346520D01*
X290600Y345964D01*
X291156Y345592D01*
X291812Y345462D01*
X292468Y345592D01*
X293024Y345964D01*
X293395Y346520D01*
X293526Y347176D01*
X293395Y347832D01*
X293024Y348388D01*
X292468Y348760D01*
X291812Y348890D01*
D02*
G37*
G36*
X439725Y352029D02*
X438739Y351900D01*
X437820Y351519D01*
X437031Y350914D01*
X436425Y350124D01*
X436045Y349205D01*
X435915Y348219D01*
X436045Y347233D01*
X436425Y346314D01*
X437031Y345525D01*
X437820Y344920D01*
X438739Y344539D01*
X439725Y344409D01*
X440711Y344539D01*
X441630Y344920D01*
X442419Y345525D01*
X443025Y346314D01*
X443405Y347233D01*
X443535Y348219D01*
X443405Y349205D01*
X443025Y350124D01*
X442419Y350914D01*
X441630Y351519D01*
X440711Y351900D01*
X439725Y352029D01*
D02*
G37*
G36*
X65749Y346252D02*
X65093Y346122D01*
X64537Y345750D01*
X64165Y345194D01*
X64035Y344538D01*
X64165Y343882D01*
X64537Y343326D01*
X65093Y342955D01*
X65749Y342824D01*
X66405Y342955D01*
X66961Y343326D01*
X67332Y343882D01*
X67463Y344538D01*
X67332Y345194D01*
X66961Y345750D01*
X66405Y346122D01*
X65749Y346252D01*
D02*
G37*
G36*
X360355Y344244D02*
X359699Y344114D01*
X359143Y343742D01*
X358771Y343186D01*
X358641Y342530D01*
X358771Y341874D01*
X359143Y341318D01*
X359699Y340947D01*
X360355Y340816D01*
X361011Y340947D01*
X361567Y341318D01*
X361939Y341874D01*
X362069Y342530D01*
X361939Y343186D01*
X361567Y343742D01*
X361011Y344114D01*
X360355Y344244D01*
D02*
G37*
G36*
X45513Y345563D02*
X44631Y345447D01*
X43809Y345107D01*
X43103Y344566D01*
X42562Y343860D01*
X42222Y343038D01*
X42105Y342156D01*
X42222Y341274D01*
X42562Y340453D01*
X43103Y339747D01*
X43809Y339206D01*
X44631Y338865D01*
X45513Y338749D01*
X46394Y338865D01*
X47216Y339206D01*
X47922Y339747D01*
X48463Y340453D01*
X48803Y341274D01*
X48920Y342156D01*
X48803Y343038D01*
X48463Y343860D01*
X47922Y344566D01*
X47216Y345107D01*
X46394Y345447D01*
X45513Y345563D01*
D02*
G37*
G36*
X411182Y342079D02*
X410526Y341949D01*
X409970Y341577D01*
X409598Y341021D01*
X409468Y340365D01*
X409598Y339709D01*
X409970Y339153D01*
X410526Y338781D01*
X411182Y338651D01*
X411838Y338781D01*
X412394Y339153D01*
X412765Y339709D01*
X412896Y340365D01*
X412765Y341021D01*
X412394Y341577D01*
X411838Y341949D01*
X411182Y342079D01*
D02*
G37*
G36*
X512047Y340651D02*
X511391Y340521D01*
X510835Y340149D01*
X510464Y339593D01*
X510333Y338937D01*
X510464Y338281D01*
X510835Y337725D01*
X511391Y337353D01*
X512047Y337223D01*
X512703Y337353D01*
X513259Y337725D01*
X513631Y338281D01*
X513761Y338937D01*
X513631Y339593D01*
X513259Y340149D01*
X512703Y340521D01*
X512047Y340651D01*
D02*
G37*
G36*
X355867Y339481D02*
X355211Y339350D01*
X354655Y338979D01*
X354283Y338422D01*
X354153Y337767D01*
X354283Y337111D01*
X354655Y336555D01*
X355211Y336183D01*
X355867Y336052D01*
X356523Y336183D01*
X357079Y336555D01*
X357450Y337111D01*
X357581Y337767D01*
X357450Y338422D01*
X357079Y338979D01*
X356523Y339350D01*
X355867Y339481D01*
D02*
G37*
G36*
X439725Y342029D02*
X438739Y341900D01*
X437820Y341519D01*
X437031Y340914D01*
X436425Y340124D01*
X436045Y339205D01*
X435915Y338219D01*
X436045Y337233D01*
X436425Y336314D01*
X437031Y335525D01*
X437820Y334920D01*
X438739Y334539D01*
X439725Y334409D01*
X440711Y334539D01*
X441630Y334920D01*
X442419Y335525D01*
X443025Y336314D01*
X443405Y337233D01*
X443535Y338219D01*
X443405Y339205D01*
X443025Y340124D01*
X442419Y340914D01*
X441630Y341519D01*
X440711Y341900D01*
X439725Y342029D01*
D02*
G37*
G36*
X429725D02*
X428739Y341900D01*
X427820Y341519D01*
X427031Y340914D01*
X426425Y340124D01*
X426045Y339205D01*
X425915Y338219D01*
X426045Y337233D01*
X426425Y336314D01*
X427031Y335525D01*
X427820Y334920D01*
X428739Y334539D01*
X429725Y334409D01*
X430711Y334539D01*
X431630Y334920D01*
X432419Y335525D01*
X433025Y336314D01*
X433405Y337233D01*
X433535Y338219D01*
X433405Y339205D01*
X433025Y340124D01*
X432419Y340914D01*
X431630Y341519D01*
X430711Y341900D01*
X429725Y342029D01*
D02*
G37*
G36*
X324975Y337777D02*
X324319Y337646D01*
X323763Y337275D01*
X323391Y336719D01*
X323261Y336063D01*
X323391Y335407D01*
X323763Y334851D01*
X324319Y334479D01*
X324975Y334349D01*
X325631Y334479D01*
X326187Y334851D01*
X326558Y335407D01*
X326689Y336063D01*
X326558Y336719D01*
X326187Y337275D01*
X325631Y337646D01*
X324975Y337777D01*
D02*
G37*
G36*
X352166Y335780D02*
X351510Y335649D01*
X350954Y335278D01*
X350583Y334722D01*
X350452Y334066D01*
X350583Y333410D01*
X350954Y332854D01*
X351510Y332482D01*
X352166Y332352D01*
X352822Y332482D01*
X353378Y332854D01*
X353750Y333410D01*
X353880Y334066D01*
X353750Y334722D01*
X353378Y335278D01*
X352822Y335649D01*
X352166Y335780D01*
D02*
G37*
G36*
X475875Y338444D02*
X468379D01*
Y330948D01*
X475875D01*
Y338444D01*
D02*
G37*
G36*
X482205Y338476D02*
X481227Y338347D01*
X480315Y337970D01*
X479532Y337369D01*
X478932Y336586D01*
X478554Y335674D01*
X478425Y334696D01*
X478554Y333717D01*
X478932Y332805D01*
X479532Y332023D01*
X480315Y331422D01*
X481227Y331044D01*
X482205Y330915D01*
X483184Y331044D01*
X484096Y331422D01*
X484879Y332023D01*
X485479Y332805D01*
X485857Y333717D01*
X485986Y334696D01*
X485857Y335674D01*
X485479Y336586D01*
X484879Y337369D01*
X484096Y337970D01*
X483184Y338347D01*
X482205Y338476D01*
D02*
G37*
G36*
X360355Y333181D02*
X359699Y333051D01*
X359143Y332679D01*
X358771Y332123D01*
X358641Y331467D01*
X358771Y330811D01*
X359143Y330255D01*
X359699Y329884D01*
X360355Y329753D01*
X361011Y329884D01*
X361567Y330255D01*
X361939Y330811D01*
X362069Y331467D01*
X361939Y332123D01*
X361567Y332679D01*
X361011Y333051D01*
X360355Y333181D01*
D02*
G37*
G36*
X335080Y332079D02*
X334423Y331948D01*
X333868Y331577D01*
X333496Y331021D01*
X333365Y330365D01*
X333496Y329709D01*
X333868Y329153D01*
X334423Y328781D01*
X335080Y328651D01*
X335735Y328781D01*
X336292Y329153D01*
X336663Y329709D01*
X336793Y330365D01*
X336663Y331021D01*
X336292Y331577D01*
X335735Y331948D01*
X335080Y332079D01*
D02*
G37*
G36*
X311024Y330701D02*
X310368Y330571D01*
X309812Y330199D01*
X309441Y329643D01*
X309310Y328987D01*
X309380Y328636D01*
X308930Y328336D01*
X308885Y328366D01*
X308229Y328496D01*
X307573Y328366D01*
X307017Y327994D01*
X306645Y327438D01*
X306515Y326782D01*
X306645Y326126D01*
X307017Y325570D01*
X307573Y325199D01*
X308229Y325068D01*
X308885Y325199D01*
X309441Y325570D01*
X309813Y326126D01*
X309943Y326782D01*
X309873Y327133D01*
X310323Y327434D01*
X310368Y327403D01*
X311024Y327273D01*
X311680Y327403D01*
X312100Y327684D01*
X312154Y327680D01*
X312550Y327522D01*
X312613Y327471D01*
X312708Y326993D01*
X313080Y326436D01*
X313636Y326065D01*
X314292Y325934D01*
X314948Y326065D01*
X315504Y326436D01*
X315876Y326993D01*
X316006Y327648D01*
X315876Y328304D01*
X315504Y328860D01*
X314948Y329232D01*
X314292Y329363D01*
X313636Y329232D01*
X313216Y328952D01*
X313163Y328956D01*
X312766Y329113D01*
X312703Y329164D01*
X312608Y329643D01*
X312236Y330199D01*
X311680Y330571D01*
X311024Y330701D01*
D02*
G37*
G36*
X26536Y333595D02*
X25654Y333479D01*
X24833Y333138D01*
X24127Y332597D01*
X23585Y331891D01*
X23245Y331070D01*
X23129Y330188D01*
X23245Y329306D01*
X23585Y328484D01*
X24127Y327779D01*
X24833Y327237D01*
X25654Y326897D01*
X26536Y326781D01*
X27418Y326897D01*
X28240Y327237D01*
X28945Y327779D01*
X29487Y328484D01*
X29827Y329306D01*
X29943Y330188D01*
X29827Y331070D01*
X29487Y331891D01*
X28945Y332597D01*
X28240Y333138D01*
X27418Y333479D01*
X26536Y333595D01*
D02*
G37*
G36*
X91497Y329953D02*
X90841Y329822D01*
X90285Y329451D01*
X89913Y328895D01*
X89783Y328239D01*
X89913Y327583D01*
X90285Y327027D01*
X90841Y326655D01*
X91497Y326525D01*
X92153Y326655D01*
X92709Y327027D01*
X93080Y327583D01*
X93211Y328239D01*
X93080Y328895D01*
X92709Y329451D01*
X92153Y329822D01*
X91497Y329953D01*
D02*
G37*
G36*
X429725Y332029D02*
X428739Y331900D01*
X427820Y331519D01*
X427031Y330913D01*
X426425Y330124D01*
X426045Y329205D01*
X425915Y328219D01*
X426045Y327233D01*
X426425Y326314D01*
X427031Y325525D01*
X427820Y324920D01*
X428739Y324539D01*
X429725Y324409D01*
X430711Y324539D01*
X431630Y324920D01*
X432419Y325525D01*
X433025Y326314D01*
X433405Y327233D01*
X433535Y328219D01*
X433405Y329205D01*
X433025Y330124D01*
X432419Y330913D01*
X431630Y331519D01*
X430711Y331900D01*
X429725Y332029D01*
D02*
G37*
G36*
X360355Y326488D02*
X359699Y326358D01*
X359143Y325986D01*
X358771Y325430D01*
X358641Y324774D01*
X358771Y324118D01*
X359143Y323562D01*
X359699Y323191D01*
X360355Y323060D01*
X361011Y323191D01*
X361567Y323562D01*
X361939Y324118D01*
X362069Y324774D01*
X361939Y325430D01*
X361567Y325986D01*
X361011Y326358D01*
X360355Y326488D01*
D02*
G37*
G36*
X531102Y323604D02*
X530446Y323473D01*
X529890Y323102D01*
X529768Y322919D01*
X529167D01*
X529087Y323038D01*
X528531Y323410D01*
X527875Y323540D01*
X527219Y323410D01*
X526663Y323038D01*
X526291Y322482D01*
X526161Y321826D01*
X526291Y321170D01*
X526663Y320614D01*
X527219Y320243D01*
X527875Y320112D01*
X528531Y320243D01*
X529087Y320614D01*
X529209Y320797D01*
X529810D01*
X529890Y320678D01*
X530446Y320306D01*
X531102Y320176D01*
X531758Y320306D01*
X532314Y320678D01*
X532686Y321234D01*
X532816Y321890D01*
X532686Y322546D01*
X532314Y323102D01*
X531758Y323473D01*
X531102Y323604D01*
D02*
G37*
G36*
X19528Y329599D02*
X18646Y329483D01*
X17825Y329142D01*
X17119Y328601D01*
X16578Y327895D01*
X16237Y327074D01*
X16121Y326192D01*
X16237Y325310D01*
X16578Y324488D01*
X17119Y323782D01*
X17825Y323241D01*
X18646Y322901D01*
X19528Y322785D01*
X20410Y322901D01*
X21232Y323241D01*
X21937Y323782D01*
X22479Y324488D01*
X22819Y325310D01*
X22935Y326192D01*
X22819Y327074D01*
X22479Y327895D01*
X21937Y328601D01*
X21232Y329142D01*
X20410Y329483D01*
X19528Y329599D01*
D02*
G37*
G36*
X49528Y329493D02*
X48149Y329312D01*
X46864Y328779D01*
X45760Y327932D01*
X44913Y326829D01*
X44381Y325543D01*
X44199Y324164D01*
X44381Y322785D01*
X44913Y321500D01*
X45760Y320396D01*
X46864Y319549D01*
X48149Y319017D01*
X49528Y318835D01*
X50907Y319017D01*
X52193Y319549D01*
X53297Y320396D01*
X54143Y321500D01*
X54676Y322785D01*
X54857Y324164D01*
X54676Y325543D01*
X54143Y326829D01*
X53297Y327932D01*
X52193Y328779D01*
X50907Y329312D01*
X49528Y329493D01*
D02*
G37*
G36*
X26536Y325603D02*
X25654Y325487D01*
X24833Y325146D01*
X24127Y324605D01*
X23585Y323899D01*
X23245Y323078D01*
X23129Y322196D01*
X23245Y321314D01*
X23585Y320492D01*
X24127Y319787D01*
X24833Y319245D01*
X25654Y318905D01*
X26536Y318789D01*
X27418Y318905D01*
X28240Y319245D01*
X28945Y319787D01*
X29487Y320492D01*
X29827Y321314D01*
X29943Y322196D01*
X29827Y323078D01*
X29487Y323899D01*
X28945Y324605D01*
X28240Y325146D01*
X27418Y325487D01*
X26536Y325603D01*
D02*
G37*
G36*
X360237Y321567D02*
X359581Y321437D01*
X359025Y321065D01*
X358653Y320509D01*
X358523Y319853D01*
X358653Y319197D01*
X359025Y318641D01*
X359581Y318270D01*
X360237Y318139D01*
X360893Y318270D01*
X361449Y318641D01*
X361821Y319197D01*
X361951Y319853D01*
X361821Y320509D01*
X361449Y321065D01*
X360893Y321437D01*
X360237Y321567D01*
D02*
G37*
G36*
X19528Y321607D02*
X18646Y321491D01*
X17825Y321150D01*
X17119Y320609D01*
X16578Y319903D01*
X16237Y319081D01*
X16121Y318200D01*
X16237Y317318D01*
X16578Y316496D01*
X17119Y315790D01*
X17825Y315249D01*
X18646Y314909D01*
X19528Y314792D01*
X20410Y314909D01*
X21232Y315249D01*
X21937Y315790D01*
X22479Y316496D01*
X22819Y317318D01*
X22935Y318200D01*
X22819Y319081D01*
X22479Y319903D01*
X21937Y320609D01*
X21232Y321150D01*
X20410Y321491D01*
X19528Y321607D01*
D02*
G37*
G36*
X439725Y322029D02*
X438739Y321900D01*
X437820Y321519D01*
X437031Y320914D01*
X436425Y320124D01*
X436045Y319205D01*
X435915Y318219D01*
X436045Y317233D01*
X436425Y316314D01*
X437031Y315525D01*
X437820Y314920D01*
X438739Y314539D01*
X439725Y314409D01*
X440711Y314539D01*
X441630Y314920D01*
X442419Y315525D01*
X443025Y316314D01*
X443405Y317233D01*
X443535Y318219D01*
X443405Y319205D01*
X443025Y320124D01*
X442419Y320914D01*
X441630Y321519D01*
X440711Y321900D01*
X439725Y322029D01*
D02*
G37*
G36*
X429725D02*
X428739Y321900D01*
X427820Y321519D01*
X427031Y320914D01*
X426425Y320124D01*
X426045Y319205D01*
X425915Y318219D01*
X426045Y317233D01*
X426425Y316314D01*
X427031Y315525D01*
X427820Y314920D01*
X428739Y314539D01*
X429725Y314409D01*
X430711Y314539D01*
X431630Y314920D01*
X432419Y315525D01*
X433025Y316314D01*
X433405Y317233D01*
X433535Y318219D01*
X433405Y319205D01*
X433025Y320124D01*
X432419Y320914D01*
X431630Y321519D01*
X430711Y321900D01*
X429725Y322029D01*
D02*
G37*
G36*
X292560Y326646D02*
X291904Y326516D01*
X291348Y326144D01*
X290976Y325588D01*
X290846Y324932D01*
X290976Y324276D01*
X291348Y323720D01*
X291671Y323504D01*
X291684Y323467D01*
X291643Y322929D01*
X291269Y322679D01*
X290897Y322123D01*
X290767Y321467D01*
X290897Y320811D01*
X291269Y320255D01*
X291389Y320175D01*
Y319675D01*
X291230Y319569D01*
X290858Y319013D01*
X290728Y318357D01*
X290858Y317701D01*
X291230Y317145D01*
X291652Y316863D01*
X291676Y316777D01*
Y316394D01*
X291652Y316308D01*
X291230Y316026D01*
X290858Y315470D01*
X290728Y314814D01*
X290858Y314158D01*
X291230Y313602D01*
X291786Y313230D01*
X292442Y313100D01*
X293098Y313230D01*
X293654Y313602D01*
X294025Y314158D01*
X294156Y314814D01*
X294025Y315470D01*
X293654Y316026D01*
X293232Y316308D01*
X293207Y316394D01*
Y316777D01*
X293232Y316863D01*
X293654Y317145D01*
X294025Y317701D01*
X294156Y318357D01*
X294025Y319013D01*
X293654Y319569D01*
X293534Y319649D01*
Y320149D01*
X293693Y320255D01*
X294065Y320811D01*
X294195Y321467D01*
X294065Y322123D01*
X293693Y322679D01*
X293370Y322896D01*
X293357Y322932D01*
X293398Y323470D01*
X293772Y323720D01*
X294143Y324276D01*
X294274Y324932D01*
X294143Y325588D01*
X293772Y326144D01*
X293216Y326516D01*
X292560Y326646D01*
D02*
G37*
G36*
X26536Y317611D02*
X25654Y317495D01*
X24833Y317154D01*
X24127Y316613D01*
X23585Y315907D01*
X23245Y315085D01*
X23129Y314204D01*
X23158Y313981D01*
X22706Y313585D01*
X16150D01*
Y306830D01*
X22906D01*
Y312833D01*
X23406Y312933D01*
X23585Y312500D01*
X24127Y311794D01*
X24833Y311253D01*
X25654Y310912D01*
X26536Y310796D01*
X27418Y310912D01*
X28240Y311253D01*
X28945Y311794D01*
X29487Y312500D01*
X29827Y313322D01*
X29943Y314204D01*
X29827Y315085D01*
X29487Y315907D01*
X28945Y316613D01*
X28240Y317154D01*
X27418Y317495D01*
X26536Y317611D01*
D02*
G37*
G36*
X318190Y325110D02*
X317534Y324980D01*
X316978Y324608D01*
X316606Y324052D01*
X316476Y323396D01*
X316606Y322741D01*
X316978Y322184D01*
X317223Y322021D01*
Y321419D01*
X316978Y321255D01*
X316606Y320699D01*
X316476Y320043D01*
X316606Y319388D01*
X316978Y318831D01*
X317223Y318668D01*
Y318066D01*
X316978Y317902D01*
X316606Y317346D01*
X316476Y316690D01*
X316606Y316035D01*
X316978Y315478D01*
X317223Y315315D01*
Y314713D01*
X316978Y314549D01*
X316606Y313993D01*
X316476Y313337D01*
X316606Y312681D01*
X316978Y312125D01*
X317223Y311962D01*
Y311360D01*
X316978Y311196D01*
X316606Y310640D01*
X316476Y309984D01*
X316606Y309328D01*
X316978Y308772D01*
X317223Y308609D01*
Y308007D01*
X316978Y307843D01*
X316606Y307287D01*
X316476Y306631D01*
X316606Y305975D01*
X316978Y305419D01*
X317534Y305048D01*
X318190Y304917D01*
X318846Y305048D01*
X319402Y305419D01*
X319773Y305975D01*
X319904Y306631D01*
X319773Y307287D01*
X319402Y307843D01*
X319157Y308007D01*
Y308609D01*
X319402Y308772D01*
X319773Y309328D01*
X319904Y309984D01*
X319773Y310640D01*
X319402Y311196D01*
X319157Y311360D01*
Y311962D01*
X319402Y312125D01*
X319773Y312681D01*
X319904Y313337D01*
X319773Y313993D01*
X319402Y314549D01*
X319157Y314713D01*
Y315315D01*
X319402Y315478D01*
X319773Y316035D01*
X319904Y316690D01*
X319773Y317346D01*
X319402Y317902D01*
X319157Y318066D01*
Y318668D01*
X319402Y318831D01*
X319773Y319388D01*
X319904Y320043D01*
X319773Y320699D01*
X319402Y321255D01*
X319157Y321419D01*
Y322021D01*
X319402Y322184D01*
X319773Y322741D01*
X319904Y323396D01*
X319773Y324052D01*
X319402Y324608D01*
X318846Y324980D01*
X318190Y325110D01*
D02*
G37*
G36*
X429725Y312029D02*
X428739Y311900D01*
X427820Y311519D01*
X427031Y310913D01*
X426425Y310124D01*
X426045Y309205D01*
X425915Y308219D01*
X426045Y307233D01*
X426425Y306314D01*
X427031Y305525D01*
X427820Y304920D01*
X428739Y304539D01*
X429725Y304409D01*
X430711Y304539D01*
X431630Y304920D01*
X432419Y305525D01*
X433025Y306314D01*
X433405Y307233D01*
X433535Y308219D01*
X433405Y309205D01*
X433025Y310124D01*
X432419Y310913D01*
X431630Y311519D01*
X430711Y311900D01*
X429725Y312029D01*
D02*
G37*
G36*
X91457Y307591D02*
X90802Y307460D01*
X90245Y307089D01*
X89874Y306533D01*
X89743Y305877D01*
X89874Y305221D01*
X90245Y304665D01*
X90802Y304293D01*
X91457Y304163D01*
X92113Y304293D01*
X92669Y304665D01*
X93041Y305221D01*
X93171Y305877D01*
X93041Y306533D01*
X92669Y307089D01*
X92113Y307460D01*
X91457Y307591D01*
D02*
G37*
G36*
X45513Y309579D02*
X44631Y309463D01*
X43809Y309123D01*
X43103Y308581D01*
X42562Y307876D01*
X42222Y307054D01*
X42105Y306172D01*
X42222Y305290D01*
X42562Y304468D01*
X43103Y303763D01*
X43809Y303221D01*
X44631Y302881D01*
X45513Y302765D01*
X46394Y302881D01*
X47216Y303221D01*
X47922Y303763D01*
X48463Y304468D01*
X48803Y305290D01*
X48920Y306172D01*
X48803Y307054D01*
X48463Y307876D01*
X47922Y308581D01*
X47216Y309123D01*
X46394Y309463D01*
X45513Y309579D01*
D02*
G37*
G36*
X439725Y302029D02*
X438739Y301900D01*
X437820Y301519D01*
X437031Y300914D01*
X436425Y300124D01*
X436045Y299205D01*
X435915Y298219D01*
X436045Y297233D01*
X436425Y296314D01*
X437031Y295525D01*
X437820Y294920D01*
X438739Y294539D01*
X439725Y294409D01*
X440711Y294539D01*
X441630Y294920D01*
X442419Y295525D01*
X443025Y296314D01*
X443405Y297233D01*
X443535Y298219D01*
X443405Y299205D01*
X443025Y300124D01*
X442419Y300914D01*
X441630Y301519D01*
X440711Y301900D01*
X439725Y302029D01*
D02*
G37*
G36*
X429725D02*
X428739Y301900D01*
X427820Y301519D01*
X427031Y300914D01*
X426425Y300124D01*
X426045Y299205D01*
X425915Y298219D01*
X426045Y297233D01*
X426425Y296314D01*
X427031Y295525D01*
X427820Y294920D01*
X428739Y294539D01*
X429725Y294409D01*
X430711Y294539D01*
X431630Y294920D01*
X432419Y295525D01*
X433025Y296314D01*
X433405Y297233D01*
X433535Y298219D01*
X433405Y299205D01*
X433025Y300124D01*
X432419Y300914D01*
X431630Y301519D01*
X430711Y301900D01*
X429725Y302029D01*
D02*
G37*
G36*
X327560Y297709D02*
X326904Y297578D01*
X326348Y297207D01*
X325976Y296651D01*
X325846Y295995D01*
X325976Y295339D01*
X326348Y294783D01*
X326904Y294411D01*
X327560Y294281D01*
X328216Y294411D01*
X328772Y294783D01*
X329143Y295339D01*
X329274Y295995D01*
X329143Y296651D01*
X328772Y297207D01*
X328216Y297578D01*
X327560Y297709D01*
D02*
G37*
G36*
X45513Y300563D02*
X44631Y300447D01*
X43809Y300107D01*
X43103Y299566D01*
X42562Y298860D01*
X42222Y298038D01*
X42105Y297156D01*
X42222Y296274D01*
X42562Y295453D01*
X43103Y294747D01*
X43809Y294206D01*
X44631Y293865D01*
X45513Y293749D01*
X46394Y293865D01*
X47216Y294206D01*
X47922Y294747D01*
X48463Y295453D01*
X48803Y296274D01*
X48920Y297156D01*
X48803Y298038D01*
X48463Y298860D01*
X47922Y299566D01*
X47216Y300107D01*
X46394Y300447D01*
X45513Y300563D01*
D02*
G37*
G36*
X65631Y294126D02*
X64975Y293996D01*
X64419Y293624D01*
X64047Y293068D01*
X63917Y292412D01*
X64047Y291756D01*
X64419Y291200D01*
X64975Y290829D01*
X65631Y290698D01*
X66287Y290829D01*
X66843Y291200D01*
X67214Y291756D01*
X67345Y292412D01*
X67214Y293068D01*
X66843Y293624D01*
X66287Y293996D01*
X65631Y294126D01*
D02*
G37*
G36*
X289410Y292670D02*
X288754Y292539D01*
X288198Y292167D01*
X287827Y291611D01*
X287696Y290955D01*
X287827Y290300D01*
X288198Y289743D01*
X288754Y289372D01*
X289410Y289242D01*
X290066Y289372D01*
X290622Y289743D01*
X290994Y290300D01*
X291124Y290955D01*
X290994Y291611D01*
X290622Y292167D01*
X290066Y292539D01*
X289410Y292670D01*
D02*
G37*
G36*
X244017Y291803D02*
X243360Y291673D01*
X242805Y291301D01*
X242433Y290745D01*
X242302Y290089D01*
X242433Y289433D01*
X242805Y288877D01*
X243360Y288506D01*
X244017Y288375D01*
X244672Y288506D01*
X245229Y288877D01*
X245600Y289433D01*
X245730Y290089D01*
X245600Y290745D01*
X245229Y291301D01*
X244672Y291673D01*
X244017Y291803D01*
D02*
G37*
G36*
X45513Y292571D02*
X44631Y292455D01*
X43809Y292115D01*
X43103Y291573D01*
X42562Y290868D01*
X42222Y290046D01*
X42105Y289164D01*
X42222Y288282D01*
X42562Y287461D01*
X43103Y286755D01*
X43809Y286213D01*
X44631Y285873D01*
X45513Y285757D01*
X46394Y285873D01*
X47216Y286213D01*
X47922Y286755D01*
X48463Y287461D01*
X48803Y288282D01*
X48920Y289164D01*
X48803Y290046D01*
X48463Y290868D01*
X47922Y291573D01*
X47216Y292115D01*
X46394Y292455D01*
X45513Y292571D01*
D02*
G37*
G36*
X263308Y287906D02*
X262652Y287775D01*
X262096Y287404D01*
X261724Y286848D01*
X261594Y286192D01*
X261724Y285536D01*
X262096Y284980D01*
X262652Y284608D01*
X263308Y284478D01*
X263964Y284608D01*
X264520Y284980D01*
X264891Y285536D01*
X265022Y286192D01*
X264891Y286848D01*
X264520Y287404D01*
X263964Y287775D01*
X263308Y287906D01*
D02*
G37*
G36*
X413503Y291997D02*
X405948D01*
Y284442D01*
X413503D01*
Y291997D01*
D02*
G37*
G36*
X439725Y292029D02*
X438739Y291900D01*
X437820Y291519D01*
X437031Y290914D01*
X436425Y290124D01*
X436045Y289205D01*
X435915Y288219D01*
X436045Y287233D01*
X436425Y286314D01*
X437031Y285525D01*
X437820Y284920D01*
X438739Y284539D01*
X439725Y284409D01*
X440711Y284539D01*
X441630Y284920D01*
X442419Y285525D01*
X443025Y286314D01*
X443405Y287233D01*
X443535Y288219D01*
X443405Y289205D01*
X443025Y290124D01*
X442419Y290914D01*
X441630Y291519D01*
X440711Y291900D01*
X439725Y292029D01*
D02*
G37*
G36*
X429725D02*
X428739Y291900D01*
X427820Y291519D01*
X427031Y290914D01*
X426425Y290124D01*
X426045Y289205D01*
X425915Y288219D01*
X426045Y287233D01*
X426425Y286314D01*
X427031Y285525D01*
X427820Y284920D01*
X428739Y284539D01*
X429725Y284409D01*
X430711Y284539D01*
X431630Y284920D01*
X432419Y285525D01*
X433025Y286314D01*
X433405Y287233D01*
X433535Y288219D01*
X433405Y289205D01*
X433025Y290124D01*
X432419Y290914D01*
X431630Y291519D01*
X430711Y291900D01*
X429725Y292029D01*
D02*
G37*
G36*
X419725D02*
X418739Y291900D01*
X417820Y291519D01*
X417031Y290914D01*
X416425Y290124D01*
X416045Y289205D01*
X415915Y288219D01*
X416045Y287233D01*
X416425Y286314D01*
X417031Y285525D01*
X417820Y284920D01*
X418739Y284539D01*
X419725Y284409D01*
X420711Y284539D01*
X421630Y284920D01*
X422419Y285525D01*
X423025Y286314D01*
X423406Y287233D01*
X423535Y288219D01*
X423406Y289205D01*
X423025Y290124D01*
X422419Y290914D01*
X421630Y291519D01*
X420711Y291900D01*
X419725Y292029D01*
D02*
G37*
G36*
X45513Y283556D02*
X44631Y283439D01*
X43809Y283099D01*
X43103Y282558D01*
X42562Y281852D01*
X42222Y281030D01*
X42105Y280148D01*
X42222Y279267D01*
X42562Y278445D01*
X43103Y277739D01*
X43809Y277198D01*
X44631Y276857D01*
X45513Y276741D01*
X46394Y276857D01*
X47216Y277198D01*
X47922Y277739D01*
X48463Y278445D01*
X48803Y279267D01*
X48920Y280148D01*
X48803Y281030D01*
X48463Y281852D01*
X47922Y282558D01*
X47216Y283099D01*
X46394Y283439D01*
X45513Y283556D01*
D02*
G37*
G36*
X91457Y279953D02*
X90802Y279822D01*
X90245Y279451D01*
X89874Y278895D01*
X89743Y278239D01*
X89874Y277583D01*
X90245Y277027D01*
X90802Y276655D01*
X91457Y276525D01*
X92113Y276655D01*
X92669Y277027D01*
X93041Y277583D01*
X93171Y278239D01*
X93041Y278895D01*
X92669Y279451D01*
X92113Y279822D01*
X91457Y279953D01*
D02*
G37*
G36*
X500276Y279717D02*
X499620Y279586D01*
X499064Y279215D01*
X498693Y278659D01*
X498562Y278003D01*
X498693Y277347D01*
X499064Y276791D01*
X499620Y276419D01*
X500276Y276289D01*
X500932Y276419D01*
X501488Y276791D01*
X501860Y277347D01*
X501990Y278003D01*
X501860Y278659D01*
X501488Y279215D01*
X500932Y279586D01*
X500276Y279717D01*
D02*
G37*
G36*
X220099Y279579D02*
X219443Y279449D01*
X218887Y279077D01*
X218516Y278521D01*
X218385Y277865D01*
X218516Y277209D01*
X218887Y276653D01*
X219443Y276281D01*
X220099Y276151D01*
X220755Y276281D01*
X221311Y276653D01*
X221683Y277209D01*
X221813Y277865D01*
X221683Y278521D01*
X221311Y279077D01*
X220755Y279449D01*
X220099Y279579D01*
D02*
G37*
G36*
X423503Y281997D02*
X415948D01*
Y274442D01*
X423503D01*
Y281997D01*
D02*
G37*
G36*
X439725Y282029D02*
X438739Y281900D01*
X437820Y281519D01*
X437031Y280913D01*
X436425Y280124D01*
X436045Y279205D01*
X435915Y278219D01*
X436045Y277233D01*
X436425Y276314D01*
X437031Y275525D01*
X437820Y274920D01*
X438739Y274539D01*
X439725Y274409D01*
X440711Y274539D01*
X441630Y274920D01*
X442419Y275525D01*
X443025Y276314D01*
X443405Y277233D01*
X443535Y278219D01*
X443405Y279205D01*
X443025Y280124D01*
X442419Y280913D01*
X441630Y281519D01*
X440711Y281900D01*
X439725Y282029D01*
D02*
G37*
G36*
X220296Y274973D02*
X219640Y274842D01*
X219084Y274471D01*
X218712Y273915D01*
X218582Y273259D01*
X218712Y272603D01*
X219084Y272047D01*
X219640Y271675D01*
X220296Y271545D01*
X220952Y271675D01*
X221508Y272047D01*
X221880Y272603D01*
X222010Y273259D01*
X221880Y273915D01*
X221508Y274471D01*
X220952Y274842D01*
X220296Y274973D01*
D02*
G37*
G36*
X369213Y274441D02*
X368557Y274311D01*
X368001Y273939D01*
X367630Y273383D01*
X367499Y272727D01*
X367630Y272071D01*
X368001Y271515D01*
X368557Y271144D01*
X369213Y271013D01*
X369869Y271144D01*
X370425Y271515D01*
X370797Y272071D01*
X370927Y272727D01*
X370797Y273383D01*
X370425Y273939D01*
X369869Y274311D01*
X369213Y274441D01*
D02*
G37*
G36*
X251930Y271961D02*
X251274Y271830D01*
X250718Y271459D01*
X250346Y270903D01*
X250216Y270247D01*
X250346Y269591D01*
X250718Y269035D01*
X251274Y268663D01*
X251930Y268533D01*
X252586Y268663D01*
X253142Y269035D01*
X253513Y269591D01*
X253644Y270247D01*
X253513Y270903D01*
X253142Y271459D01*
X252586Y271830D01*
X251930Y271961D01*
D02*
G37*
G36*
X230670Y271803D02*
X230014Y271673D01*
X229458Y271301D01*
X229086Y270745D01*
X228956Y270089D01*
X229086Y269433D01*
X229458Y268877D01*
X230014Y268506D01*
X230670Y268375D01*
X231326Y268506D01*
X231882Y268877D01*
X232254Y269433D01*
X232384Y270089D01*
X232254Y270745D01*
X231882Y271301D01*
X231326Y271673D01*
X230670Y271803D01*
D02*
G37*
G36*
X220355Y270111D02*
X219699Y269980D01*
X219143Y269608D01*
X218772Y269052D01*
X218641Y268396D01*
X218772Y267741D01*
X219143Y267184D01*
X219699Y266813D01*
X220355Y266682D01*
X221011Y266813D01*
X221567Y267184D01*
X221939Y267741D01*
X222069Y268396D01*
X221939Y269052D01*
X221567Y269608D01*
X221011Y269980D01*
X220355Y270111D01*
D02*
G37*
G36*
X408229Y268339D02*
X407573Y268208D01*
X407017Y267837D01*
X406645Y267281D01*
X406515Y266625D01*
X406645Y265969D01*
X407017Y265413D01*
X407573Y265041D01*
X408229Y264911D01*
X408885Y265041D01*
X409441Y265413D01*
X409813Y265969D01*
X409943Y266625D01*
X409813Y267281D01*
X409441Y267837D01*
X408885Y268208D01*
X408229Y268339D01*
D02*
G37*
G36*
X26536Y271587D02*
X25654Y271471D01*
X24833Y271131D01*
X24127Y270589D01*
X23585Y269883D01*
X23245Y269062D01*
X23129Y268180D01*
X23245Y267298D01*
X23585Y266476D01*
X24127Y265771D01*
X24833Y265229D01*
X25654Y264889D01*
X26536Y264773D01*
X27418Y264889D01*
X28240Y265229D01*
X28945Y265771D01*
X29487Y266476D01*
X29827Y267298D01*
X29943Y268180D01*
X29827Y269062D01*
X29487Y269883D01*
X28945Y270589D01*
X28240Y271131D01*
X27418Y271471D01*
X26536Y271587D01*
D02*
G37*
G36*
X481229Y269625D02*
X473733D01*
Y262129D01*
X481229D01*
Y269625D01*
D02*
G37*
G36*
X467402Y269657D02*
X466424Y269528D01*
X465512Y269151D01*
X464729Y268550D01*
X464128Y267767D01*
X463751Y266855D01*
X463622Y265877D01*
X463751Y264898D01*
X464128Y263987D01*
X464729Y263204D01*
X465512Y262603D01*
X466424Y262225D01*
X467402Y262096D01*
X468381Y262225D01*
X469292Y262603D01*
X470075Y263204D01*
X470676Y263987D01*
X471054Y264898D01*
X471183Y265877D01*
X471054Y266855D01*
X470676Y267767D01*
X470075Y268550D01*
X469292Y269151D01*
X468381Y269528D01*
X467402Y269657D01*
D02*
G37*
G36*
X220532Y265327D02*
X219876Y265196D01*
X219320Y264825D01*
X218949Y264269D01*
X218818Y263613D01*
X218949Y262957D01*
X219320Y262401D01*
X219876Y262029D01*
X220532Y261899D01*
X221188Y262029D01*
X221744Y262401D01*
X222116Y262957D01*
X222246Y263613D01*
X222116Y264269D01*
X221744Y264825D01*
X221188Y265196D01*
X220532Y265327D01*
D02*
G37*
G36*
X108583Y369420D02*
Y261546D01*
X173268Y261546D01*
Y369420D01*
X108583Y369420D01*
D02*
G37*
G36*
X19528Y267591D02*
X18646Y267475D01*
X17825Y267134D01*
X17119Y266593D01*
X16578Y265887D01*
X16237Y265066D01*
X16121Y264184D01*
X16237Y263302D01*
X16578Y262480D01*
X17119Y261775D01*
X17825Y261233D01*
X18646Y260893D01*
X19528Y260777D01*
X20410Y260893D01*
X21232Y261233D01*
X21937Y261775D01*
X22479Y262480D01*
X22819Y263302D01*
X22935Y264184D01*
X22819Y265066D01*
X22479Y265887D01*
X21937Y266593D01*
X21232Y267134D01*
X20410Y267475D01*
X19528Y267591D01*
D02*
G37*
G36*
X389804Y263890D02*
X389148Y263759D01*
X388592Y263388D01*
X388220Y262832D01*
X388090Y262176D01*
X388220Y261520D01*
X388592Y260964D01*
X389148Y260592D01*
X389804Y260462D01*
X390460Y260592D01*
X391016Y260964D01*
X391387Y261520D01*
X391518Y262176D01*
X391387Y262832D01*
X391016Y263388D01*
X390460Y263759D01*
X389804Y263890D01*
D02*
G37*
G36*
X407245Y263772D02*
X406589Y263641D01*
X406033Y263270D01*
X405661Y262714D01*
X405531Y262058D01*
X405661Y261402D01*
X406033Y260846D01*
X406589Y260474D01*
X407245Y260344D01*
X407901Y260474D01*
X408457Y260846D01*
X408828Y261402D01*
X408959Y262058D01*
X408828Y262714D01*
X408457Y263270D01*
X407901Y263641D01*
X407245Y263772D01*
D02*
G37*
G36*
X26536Y263595D02*
X25654Y263479D01*
X24833Y263138D01*
X24127Y262597D01*
X23585Y261891D01*
X23245Y261070D01*
X23129Y260188D01*
X23245Y259306D01*
X23585Y258484D01*
X24127Y257779D01*
X24833Y257237D01*
X25654Y256897D01*
X26536Y256781D01*
X27418Y256897D01*
X28240Y257237D01*
X28945Y257779D01*
X29487Y258484D01*
X29827Y259306D01*
X29943Y260188D01*
X29827Y261070D01*
X29487Y261891D01*
X28945Y262597D01*
X28240Y263138D01*
X27418Y263479D01*
X26536Y263595D01*
D02*
G37*
G36*
X19528Y259599D02*
X18646Y259483D01*
X17825Y259142D01*
X17119Y258601D01*
X16578Y257895D01*
X16237Y257073D01*
X16121Y256192D01*
X16237Y255310D01*
X16578Y254488D01*
X17119Y253783D01*
X17825Y253241D01*
X18646Y252901D01*
X19528Y252785D01*
X20410Y252901D01*
X21232Y253241D01*
X21937Y253783D01*
X22479Y254488D01*
X22819Y255310D01*
X22935Y256192D01*
X22819Y257073D01*
X22479Y257895D01*
X21937Y258601D01*
X21232Y259142D01*
X20410Y259483D01*
X19528Y259599D01*
D02*
G37*
G36*
X288741Y252551D02*
X288085Y252421D01*
X287529Y252049D01*
X287157Y251493D01*
X287027Y250837D01*
X287157Y250182D01*
X287529Y249625D01*
X288085Y249254D01*
X288741Y249123D01*
X289397Y249254D01*
X289953Y249625D01*
X290324Y250182D01*
X290455Y250837D01*
X290324Y251493D01*
X289953Y252049D01*
X289397Y252421D01*
X288741Y252551D01*
D02*
G37*
G36*
X26536Y255603D02*
X25654Y255487D01*
X24833Y255146D01*
X24127Y254605D01*
X23585Y253899D01*
X23245Y253078D01*
X23129Y252196D01*
X23158Y251973D01*
X22706Y251578D01*
X16150D01*
Y244822D01*
X22906D01*
Y250826D01*
X23406Y250925D01*
X23585Y250492D01*
X24127Y249786D01*
X24833Y249245D01*
X25654Y248905D01*
X26536Y248789D01*
X27418Y248905D01*
X28240Y249245D01*
X28945Y249786D01*
X29487Y250492D01*
X29827Y251314D01*
X29943Y252196D01*
X29827Y253078D01*
X29487Y253899D01*
X28945Y254605D01*
X28240Y255146D01*
X27418Y255487D01*
X26536Y255603D01*
D02*
G37*
G36*
X263426Y251843D02*
X262770Y251712D01*
X262214Y251341D01*
X261842Y250785D01*
X261712Y250129D01*
X261842Y249473D01*
X262214Y248917D01*
X262770Y248545D01*
X263426Y248415D01*
X264082Y248545D01*
X264638Y248917D01*
X265009Y249473D01*
X265140Y250129D01*
X265009Y250785D01*
X264638Y251341D01*
X264082Y251712D01*
X263426Y251843D01*
D02*
G37*
G36*
X471072Y254979D02*
X463576D01*
Y247483D01*
X471072D01*
Y254979D01*
D02*
G37*
G36*
X477402Y255012D02*
X476424Y254883D01*
X475512Y254505D01*
X474729Y253904D01*
X474128Y253121D01*
X473751Y252209D01*
X473622Y251231D01*
X473751Y250253D01*
X474128Y249341D01*
X474729Y248558D01*
X475512Y247957D01*
X476424Y247580D01*
X477402Y247451D01*
X478381Y247580D01*
X479292Y247957D01*
X480075Y248558D01*
X480676Y249341D01*
X481054Y250253D01*
X481183Y251231D01*
X481054Y252209D01*
X480676Y253121D01*
X480075Y253904D01*
X479292Y254505D01*
X478381Y254883D01*
X477402Y255012D01*
D02*
G37*
G36*
X343229Y246252D02*
X342573Y246122D01*
X342017Y245750D01*
X341646Y245194D01*
X341515Y244538D01*
X341646Y243882D01*
X342017Y243326D01*
X342573Y242955D01*
X343229Y242824D01*
X343885Y242955D01*
X344441Y243326D01*
X344813Y243882D01*
X344943Y244538D01*
X344813Y245194D01*
X344441Y245750D01*
X343885Y246122D01*
X343229Y246252D01*
D02*
G37*
G36*
X70237Y246134D02*
X69581Y246004D01*
X69025Y245632D01*
X68653Y245076D01*
X68523Y244420D01*
X68653Y243764D01*
X69025Y243208D01*
X69581Y242836D01*
X70237Y242706D01*
X70893Y242836D01*
X71449Y243208D01*
X71820Y243764D01*
X71951Y244420D01*
X71820Y245076D01*
X71449Y245632D01*
X70893Y246004D01*
X70237Y246134D01*
D02*
G37*
G36*
X207127Y245977D02*
X206471Y245846D01*
X205915Y245475D01*
X205543Y244918D01*
X205413Y244263D01*
X205543Y243607D01*
X205915Y243051D01*
X206471Y242679D01*
X207127Y242549D01*
X207783Y242679D01*
X208339Y243051D01*
X208710Y243607D01*
X208841Y244263D01*
X208710Y244918D01*
X208339Y245475D01*
X207783Y245846D01*
X207127Y245977D01*
D02*
G37*
G36*
X90001Y248887D02*
X89161Y248776D01*
X88378Y248452D01*
X87705Y247936D01*
X87189Y247264D01*
X86865Y246481D01*
X86754Y245640D01*
X86865Y244800D01*
X87189Y244017D01*
X87705Y243345D01*
X88378Y242829D01*
X89161Y242505D01*
X90001Y242394D01*
X90841Y242505D01*
X91624Y242829D01*
X92296Y243345D01*
X92812Y244017D01*
X93136Y244800D01*
X93247Y245640D01*
X93136Y246481D01*
X92812Y247264D01*
X92296Y247936D01*
X91624Y248452D01*
X90841Y248776D01*
X90001Y248887D01*
D02*
G37*
G36*
X45513Y247571D02*
X44631Y247455D01*
X43809Y247115D01*
X43103Y246573D01*
X42562Y245868D01*
X42222Y245046D01*
X42105Y244164D01*
X42222Y243282D01*
X42562Y242461D01*
X43103Y241755D01*
X43809Y241213D01*
X44631Y240873D01*
X45513Y240757D01*
X46394Y240873D01*
X47216Y241213D01*
X47922Y241755D01*
X48463Y242461D01*
X48803Y243282D01*
X48920Y244164D01*
X48803Y245046D01*
X48463Y245868D01*
X47922Y246573D01*
X47216Y247115D01*
X46394Y247455D01*
X45513Y247571D01*
D02*
G37*
G36*
X350867Y242315D02*
X350211Y242185D01*
X349655Y241813D01*
X349283Y241257D01*
X349153Y240601D01*
X349283Y239945D01*
X349655Y239389D01*
X350211Y239018D01*
X350867Y238887D01*
X351523Y239018D01*
X352079Y239389D01*
X352450Y239945D01*
X352581Y240601D01*
X352450Y241257D01*
X352079Y241813D01*
X351523Y242185D01*
X350867Y242315D01*
D02*
G37*
G36*
X167245Y240386D02*
X166589Y240256D01*
X166033Y239884D01*
X165661Y239328D01*
X165531Y238672D01*
X165661Y238016D01*
X166033Y237460D01*
X166589Y237088D01*
X167245Y236958D01*
X167901Y237088D01*
X168457Y237460D01*
X168828Y238016D01*
X168959Y238672D01*
X168828Y239328D01*
X168457Y239884D01*
X167901Y240256D01*
X167245Y240386D01*
D02*
G37*
G36*
X161890Y237788D02*
X161234Y237657D01*
X160679Y237286D01*
X160307Y236730D01*
X160176Y236074D01*
X160307Y235418D01*
X160679Y234862D01*
X161234Y234490D01*
X161890Y234360D01*
X162546Y234490D01*
X163102Y234862D01*
X163474Y235418D01*
X163604Y236074D01*
X163474Y236730D01*
X163102Y237286D01*
X162546Y237657D01*
X161890Y237788D01*
D02*
G37*
G36*
X233623Y236725D02*
X232967Y236594D01*
X232411Y236223D01*
X232039Y235667D01*
X231909Y235011D01*
X232039Y234355D01*
X232411Y233799D01*
X232967Y233427D01*
X233623Y233297D01*
X234279Y233427D01*
X234835Y233799D01*
X235206Y234355D01*
X235337Y235011D01*
X235206Y235667D01*
X234835Y236223D01*
X234279Y236594D01*
X233623Y236725D01*
D02*
G37*
G36*
X267009Y236252D02*
X266353Y236122D01*
X265797Y235750D01*
X265425Y235194D01*
X265295Y234538D01*
X265425Y233882D01*
X265797Y233326D01*
X266353Y232955D01*
X267009Y232824D01*
X267665Y232955D01*
X268221Y233326D01*
X268592Y233882D01*
X268723Y234538D01*
X268592Y235194D01*
X268221Y235750D01*
X267665Y236122D01*
X267009Y236252D01*
D02*
G37*
G36*
X481229Y240294D02*
X473733D01*
Y232798D01*
X481229D01*
Y240294D01*
D02*
G37*
G36*
X467402Y240326D02*
X466424Y240198D01*
X465512Y239820D01*
X464729Y239219D01*
X464128Y238436D01*
X463751Y237525D01*
X463622Y236546D01*
X463751Y235568D01*
X464128Y234656D01*
X464729Y233873D01*
X465512Y233272D01*
X466424Y232894D01*
X467402Y232766D01*
X468381Y232894D01*
X469292Y233272D01*
X470075Y233873D01*
X470676Y234656D01*
X471054Y235568D01*
X471183Y236546D01*
X471054Y237525D01*
X470676Y238436D01*
X470075Y239219D01*
X469292Y239820D01*
X468381Y240198D01*
X467402Y240326D01*
D02*
G37*
G36*
X493662Y235780D02*
X493006Y235649D01*
X492450Y235278D01*
X492079Y234722D01*
X491948Y234066D01*
X492079Y233410D01*
X492450Y232854D01*
X493006Y232482D01*
X493662Y232352D01*
X494318Y232482D01*
X494874Y232854D01*
X495246Y233410D01*
X495376Y234066D01*
X495246Y234722D01*
X494874Y235278D01*
X494318Y235649D01*
X493662Y235780D01*
D02*
G37*
G36*
X552717Y235544D02*
X552061Y235413D01*
X551505Y235041D01*
X551134Y234486D01*
X551003Y233829D01*
X551134Y233174D01*
X551505Y232617D01*
X552061Y232246D01*
X552717Y232116D01*
X553373Y232246D01*
X553929Y232617D01*
X554301Y233174D01*
X554431Y233829D01*
X554301Y234486D01*
X553929Y235041D01*
X553373Y235413D01*
X552717Y235544D01*
D02*
G37*
G36*
X45513Y238556D02*
X44631Y238439D01*
X43809Y238099D01*
X43103Y237558D01*
X42562Y236852D01*
X42222Y236030D01*
X42105Y235148D01*
X42222Y234267D01*
X42562Y233445D01*
X43103Y232739D01*
X43809Y232198D01*
X44631Y231857D01*
X45513Y231741D01*
X46394Y231857D01*
X47216Y232198D01*
X47922Y232739D01*
X48463Y233445D01*
X48803Y234267D01*
X48920Y235148D01*
X48803Y236030D01*
X48463Y236852D01*
X47922Y237558D01*
X47216Y238099D01*
X46394Y238439D01*
X45513Y238556D01*
D02*
G37*
G36*
X156890Y235071D02*
X156235Y234941D01*
X155678Y234569D01*
X155307Y234013D01*
X155176Y233357D01*
X155307Y232701D01*
X155678Y232145D01*
X156235Y231773D01*
X156890Y231643D01*
X157546Y231773D01*
X158103Y232145D01*
X158474Y232701D01*
X158605Y233357D01*
X158474Y234013D01*
X158103Y234569D01*
X157546Y234941D01*
X156890Y235071D01*
D02*
G37*
G36*
X9528Y244226D02*
X8157Y244091D01*
X6838Y243690D01*
X5623Y243041D01*
X4557Y242167D01*
X3683Y241101D01*
X3033Y239886D01*
X2633Y238567D01*
X2498Y237196D01*
X2633Y235824D01*
X3033Y234505D01*
X3683Y233290D01*
X4557Y232225D01*
X5623Y231350D01*
X6838Y230701D01*
X8157Y230301D01*
X9528Y230166D01*
X10900Y230301D01*
X12218Y230701D01*
X13434Y231350D01*
X14499Y232225D01*
X15373Y233290D01*
X16023Y234505D01*
X16423Y235824D01*
X16558Y237196D01*
X16423Y238567D01*
X16023Y239886D01*
X15373Y241101D01*
X14499Y242167D01*
X13434Y243041D01*
X12218Y243690D01*
X10900Y244091D01*
X9528Y244226D01*
D02*
G37*
G36*
X286930Y232984D02*
X286274Y232854D01*
X285718Y232483D01*
X285346Y231926D01*
X285216Y231271D01*
X285346Y230614D01*
X285718Y230059D01*
X286274Y229687D01*
X286930Y229556D01*
X287586Y229687D01*
X288142Y230059D01*
X288513Y230614D01*
X288644Y231271D01*
X288513Y231926D01*
X288142Y232483D01*
X287586Y232854D01*
X286930Y232984D01*
D02*
G37*
G36*
X276654Y228260D02*
X275998Y228130D01*
X275442Y227758D01*
X275223Y227429D01*
X274640Y227402D01*
X274480Y227640D01*
X273924Y228011D01*
X273268Y228142D01*
X272613Y228011D01*
X272056Y227640D01*
X271685Y227084D01*
X271554Y226428D01*
X271685Y225772D01*
X272056Y225216D01*
X272613Y224844D01*
X273268Y224714D01*
X273924Y224844D01*
X274480Y225216D01*
X274700Y225545D01*
X275283Y225572D01*
X275442Y225334D01*
X275998Y224962D01*
X276654Y224832D01*
X277310Y224962D01*
X277866Y225334D01*
X278238Y225890D01*
X278368Y226546D01*
X278238Y227202D01*
X277866Y227758D01*
X277310Y228130D01*
X276654Y228260D01*
D02*
G37*
G36*
X377430Y230904D02*
X372099D01*
Y225574D01*
X377430D01*
Y230904D01*
D02*
G37*
G36*
X382639Y230927D02*
X381943Y230836D01*
X381294Y230567D01*
X380738Y230140D01*
X380310Y229583D01*
X380042Y228935D01*
X379950Y228239D01*
X380042Y227543D01*
X380310Y226895D01*
X380738Y226338D01*
X381294Y225911D01*
X381943Y225642D01*
X382639Y225551D01*
X383334Y225642D01*
X383983Y225911D01*
X384540Y226338D01*
X384967Y226895D01*
X385235Y227543D01*
X385327Y228239D01*
X385235Y228935D01*
X384967Y229583D01*
X384540Y230140D01*
X383983Y230567D01*
X383334Y230836D01*
X382639Y230927D01*
D02*
G37*
G36*
X403111Y228851D02*
X402455Y228720D01*
X401899Y228349D01*
X401527Y227793D01*
X401397Y227137D01*
X401527Y226481D01*
X401899Y225925D01*
X402455Y225553D01*
X403111Y225423D01*
X403767Y225553D01*
X404323Y225925D01*
X404695Y226481D01*
X404825Y227137D01*
X404695Y227793D01*
X404323Y228349D01*
X403767Y228720D01*
X403111Y228851D01*
D02*
G37*
G36*
X23032Y235517D02*
X21653Y235335D01*
X20368Y234803D01*
X19264Y233956D01*
X18417Y232852D01*
X17885Y231567D01*
X17703Y230188D01*
X17885Y228808D01*
X18417Y227523D01*
X19264Y226420D01*
X20368Y225573D01*
X21653Y225040D01*
X23032Y224859D01*
X24411Y225040D01*
X25697Y225573D01*
X26800Y226420D01*
X27647Y227523D01*
X28180Y228808D01*
X28361Y230188D01*
X28180Y231567D01*
X27647Y232852D01*
X26800Y233956D01*
X25697Y234803D01*
X24411Y235335D01*
X23032Y235517D01*
D02*
G37*
G36*
X257009Y228181D02*
X256353Y228051D01*
X255797Y227679D01*
X255425Y227123D01*
X255295Y226467D01*
X255425Y225811D01*
X255797Y225255D01*
X256353Y224884D01*
X257009Y224753D01*
X257664Y224884D01*
X258221Y225255D01*
X258592Y225811D01*
X258710Y226405D01*
X259192Y226349D01*
X259323Y225693D01*
X259694Y225137D01*
X260250Y224766D01*
X260906Y224635D01*
X261562Y224766D01*
X262118Y225137D01*
X262490Y225693D01*
X262620Y226349D01*
X262490Y227005D01*
X262118Y227561D01*
X261562Y227933D01*
X260906Y228063D01*
X260250Y227933D01*
X259694Y227561D01*
X259323Y227005D01*
X259205Y226412D01*
X258723Y226467D01*
X258592Y227123D01*
X258221Y227679D01*
X257664Y228051D01*
X257009Y228181D01*
D02*
G37*
G36*
X251615Y226607D02*
X250959Y226476D01*
X250403Y226104D01*
X250031Y225549D01*
X249901Y224892D01*
X250031Y224237D01*
X250403Y223680D01*
X250959Y223309D01*
X251615Y223179D01*
X252271Y223309D01*
X252827Y223680D01*
X253199Y224237D01*
X253329Y224892D01*
X253199Y225549D01*
X252827Y226104D01*
X252271Y226476D01*
X251615Y226607D01*
D02*
G37*
G36*
X90001Y229202D02*
X89161Y229091D01*
X88378Y228767D01*
X87705Y228251D01*
X87189Y227579D01*
X86865Y226796D01*
X86754Y225956D01*
X86865Y225115D01*
X87189Y224332D01*
X87705Y223660D01*
X88378Y223144D01*
X89161Y222820D01*
X90001Y222709D01*
X90841Y222820D01*
X91624Y223144D01*
X92296Y223660D01*
X92812Y224332D01*
X93136Y225115D01*
X93247Y225956D01*
X93136Y226796D01*
X92812Y227579D01*
X92296Y228251D01*
X91624Y228767D01*
X90841Y229091D01*
X90001Y229202D01*
D02*
G37*
G36*
X509253Y229556D02*
X508351Y229437D01*
X507511Y229090D01*
X506790Y228536D01*
X506237Y227815D01*
X505889Y226975D01*
X505770Y226074D01*
X505889Y225172D01*
X506237Y224332D01*
X506790Y223611D01*
X507511Y223058D01*
X508351Y222710D01*
X509253Y222591D01*
X510154Y222710D01*
X510994Y223058D01*
X511715Y223611D01*
X512269Y224332D01*
X512617Y225172D01*
X512735Y226074D01*
X512617Y226975D01*
X512269Y227815D01*
X511715Y228536D01*
X510994Y229090D01*
X510154Y229437D01*
X509253Y229556D01*
D02*
G37*
G36*
X227639Y224087D02*
X226983Y223956D01*
X226427Y223585D01*
X226055Y223029D01*
X225924Y222373D01*
X226055Y221717D01*
X226427Y221161D01*
X226983Y220789D01*
X227639Y220659D01*
X228294Y220789D01*
X228851Y221161D01*
X229222Y221717D01*
X229230Y221757D01*
X229740D01*
X229756Y221677D01*
X230127Y221122D01*
X230683Y220750D01*
X231339Y220619D01*
X231995Y220750D01*
X232551Y221122D01*
X232923Y221677D01*
X233053Y222334D01*
X232923Y222989D01*
X232551Y223546D01*
X231995Y223917D01*
X231339Y224047D01*
X230683Y223917D01*
X230127Y223546D01*
X229756Y222989D01*
X229748Y222949D01*
X229238D01*
X229222Y223029D01*
X228851Y223585D01*
X228294Y223956D01*
X227639Y224087D01*
D02*
G37*
G36*
X481221Y221528D02*
X480565Y221397D01*
X480009Y221026D01*
X479638Y220470D01*
X479507Y219814D01*
X479638Y219158D01*
X480009Y218602D01*
X480565Y218230D01*
X481221Y218100D01*
X481877Y218230D01*
X482433Y218602D01*
X482805Y219158D01*
X482935Y219814D01*
X482805Y220470D01*
X482433Y221026D01*
X481877Y221397D01*
X481221Y221528D01*
D02*
G37*
G36*
X229804Y219362D02*
X229148Y219232D01*
X228592Y218860D01*
X228220Y218304D01*
X228090Y217648D01*
X228220Y216992D01*
X228592Y216436D01*
X229148Y216065D01*
X229804Y215934D01*
X230460Y216065D01*
X231016Y216436D01*
X231387Y216992D01*
X231518Y217648D01*
X231387Y218304D01*
X231016Y218860D01*
X230460Y219232D01*
X229804Y219362D01*
D02*
G37*
G36*
X509253Y221682D02*
X508351Y221564D01*
X507511Y221216D01*
X506790Y220662D01*
X506237Y219941D01*
X505889Y219101D01*
X505770Y218200D01*
X505889Y217298D01*
X506237Y216458D01*
X506790Y215737D01*
X507511Y215184D01*
X508351Y214836D01*
X509253Y214717D01*
X510154Y214836D01*
X510994Y215184D01*
X511715Y215737D01*
X512269Y216458D01*
X512617Y217298D01*
X512735Y218200D01*
X512617Y219101D01*
X512269Y219941D01*
X511715Y220662D01*
X510994Y221216D01*
X510154Y221564D01*
X509253Y221682D01*
D02*
G37*
G36*
X248820Y217748D02*
X248164Y217618D01*
X247608Y217246D01*
X247236Y216690D01*
X247106Y216034D01*
X247236Y215378D01*
X247608Y214822D01*
X248164Y214451D01*
X248820Y214320D01*
X249476Y214451D01*
X250032Y214822D01*
X250403Y215378D01*
X250534Y216034D01*
X250403Y216690D01*
X250032Y217246D01*
X249476Y217618D01*
X248820Y217748D01*
D02*
G37*
G36*
X481221Y215937D02*
X480565Y215807D01*
X480009Y215435D01*
X479638Y214879D01*
X479507Y214223D01*
X479638Y213567D01*
X480009Y213011D01*
X480565Y212640D01*
X481221Y212509D01*
X481877Y212640D01*
X482433Y213011D01*
X482805Y213567D01*
X482935Y214223D01*
X482805Y214879D01*
X482433Y215435D01*
X481877Y215807D01*
X481221Y215937D01*
D02*
G37*
G36*
X35674Y217706D02*
X34773Y217587D01*
X33933Y217239D01*
X33211Y216686D01*
X32658Y215965D01*
X32310Y215125D01*
X32191Y214223D01*
X32310Y213322D01*
X32658Y212482D01*
X33211Y211761D01*
X33933Y211207D01*
X34773Y210859D01*
X35674Y210741D01*
X36575Y210859D01*
X37415Y211207D01*
X38137Y211761D01*
X38690Y212482D01*
X39038Y213322D01*
X39156Y214223D01*
X39038Y215125D01*
X38690Y215965D01*
X38137Y216686D01*
X37415Y217239D01*
X36575Y217587D01*
X35674Y217706D01*
D02*
G37*
G36*
X28194D02*
X27292Y217587D01*
X26452Y217239D01*
X25731Y216686D01*
X25178Y215965D01*
X24830Y215125D01*
X24711Y214223D01*
X24830Y213322D01*
X25178Y212482D01*
X25731Y211761D01*
X26452Y211207D01*
X27292Y210859D01*
X28194Y210741D01*
X29095Y210859D01*
X29935Y211207D01*
X30656Y211761D01*
X31210Y212482D01*
X31558Y213322D01*
X31676Y214223D01*
X31558Y215125D01*
X31210Y215965D01*
X30656Y216686D01*
X29935Y217239D01*
X29095Y217587D01*
X28194Y217706D01*
D02*
G37*
G36*
X20713D02*
X19812Y217587D01*
X18972Y217239D01*
X18251Y216686D01*
X17697Y215965D01*
X17349Y215125D01*
X17231Y214223D01*
X17349Y213322D01*
X17697Y212482D01*
X18251Y211761D01*
X18972Y211207D01*
X19812Y210859D01*
X20713Y210741D01*
X21615Y210859D01*
X22455Y211207D01*
X23176Y211761D01*
X23729Y212482D01*
X24077Y213322D01*
X24196Y214223D01*
X24077Y215125D01*
X23729Y215965D01*
X23176Y216686D01*
X22455Y217239D01*
X21615Y217587D01*
X20713Y217706D01*
D02*
G37*
G36*
X13233D02*
X12332Y217587D01*
X11492Y217239D01*
X10770Y216686D01*
X10217Y215965D01*
X9869Y215125D01*
X9751Y214223D01*
X9869Y213322D01*
X10217Y212482D01*
X10770Y211761D01*
X11492Y211207D01*
X12332Y210859D01*
X13233Y210741D01*
X14134Y210859D01*
X14974Y211207D01*
X15696Y211761D01*
X16249Y212482D01*
X16597Y213322D01*
X16715Y214223D01*
X16597Y215125D01*
X16249Y215965D01*
X15696Y216686D01*
X14974Y217239D01*
X14134Y217587D01*
X13233Y217706D01*
D02*
G37*
G36*
X248859Y211685D02*
X248203Y211555D01*
X247647Y211183D01*
X247275Y210627D01*
X247145Y209971D01*
X247275Y209315D01*
X247647Y208759D01*
X248203Y208388D01*
X248859Y208257D01*
X249515Y208388D01*
X250071Y208759D01*
X250443Y209315D01*
X250573Y209971D01*
X250443Y210627D01*
X250071Y211183D01*
X249515Y211555D01*
X248859Y211685D01*
D02*
G37*
G36*
X231182Y210662D02*
X230526Y210531D01*
X229970Y210160D01*
X229598Y209604D01*
X229468Y208948D01*
X229598Y208292D01*
X229970Y207736D01*
X230526Y207364D01*
X231182Y207234D01*
X231838Y207364D01*
X232394Y207736D01*
X232765Y208292D01*
X232896Y208948D01*
X232765Y209604D01*
X232394Y210160D01*
X231838Y210531D01*
X231182Y210662D01*
D02*
G37*
G36*
X293898Y208693D02*
X293242Y208563D01*
X292686Y208191D01*
X292315Y207635D01*
X292184Y206979D01*
X292315Y206323D01*
X292686Y205767D01*
X293242Y205396D01*
X293898Y205265D01*
X294554Y205396D01*
X295110Y205767D01*
X295482Y206323D01*
X295612Y206979D01*
X295482Y207635D01*
X295110Y208191D01*
X294554Y208563D01*
X293898Y208693D01*
D02*
G37*
G36*
X509253Y211840D02*
X508351Y211721D01*
X507511Y211373D01*
X506790Y210820D01*
X506237Y210098D01*
X505889Y209258D01*
X505770Y208357D01*
X505889Y207456D01*
X506237Y206616D01*
X506790Y205895D01*
X507511Y205341D01*
X508351Y204993D01*
X509253Y204874D01*
X510154Y204993D01*
X510994Y205341D01*
X511715Y205895D01*
X512269Y206616D01*
X512617Y207456D01*
X512735Y208357D01*
X512617Y209258D01*
X512269Y210098D01*
X511715Y210820D01*
X510994Y211373D01*
X510154Y211721D01*
X509253Y211840D01*
D02*
G37*
G36*
X231182Y206410D02*
X230526Y206279D01*
X229970Y205908D01*
X229598Y205352D01*
X229468Y204696D01*
X229598Y204040D01*
X229970Y203484D01*
X230526Y203112D01*
X231182Y202982D01*
X231838Y203112D01*
X232394Y203484D01*
X232765Y204040D01*
X232896Y204696D01*
X232765Y205352D01*
X232394Y205908D01*
X231838Y206279D01*
X231182Y206410D01*
D02*
G37*
G36*
X248898Y205386D02*
X248242Y205256D01*
X247686Y204884D01*
X247315Y204328D01*
X247184Y203672D01*
X247315Y203016D01*
X247686Y202460D01*
X248242Y202088D01*
X248898Y201958D01*
X249554Y202088D01*
X250110Y202460D01*
X250482Y203016D01*
X250612Y203672D01*
X250482Y204328D01*
X250110Y204884D01*
X249554Y205256D01*
X248898Y205386D01*
D02*
G37*
G36*
X13233Y207706D02*
X12332Y207587D01*
X11492Y207239D01*
X10770Y206686D01*
X10217Y205964D01*
X9869Y205125D01*
X9751Y204223D01*
X9869Y203322D01*
X10217Y202482D01*
X10770Y201761D01*
X11492Y201207D01*
X12332Y200859D01*
X13233Y200741D01*
X14134Y200859D01*
X14974Y201207D01*
X15696Y201761D01*
X16249Y202482D01*
X16597Y203322D01*
X16715Y204223D01*
X16597Y205125D01*
X16249Y205964D01*
X15696Y206686D01*
X14974Y207239D01*
X14134Y207587D01*
X13233Y207706D01*
D02*
G37*
G36*
X229804Y202040D02*
X229148Y201909D01*
X228592Y201538D01*
X228220Y200981D01*
X228090Y200326D01*
X228220Y199670D01*
X228592Y199114D01*
X229148Y198742D01*
X229804Y198612D01*
X230460Y198742D01*
X231016Y199114D01*
X231387Y199670D01*
X231518Y200326D01*
X231387Y200981D01*
X231016Y201538D01*
X230460Y201909D01*
X229804Y202040D01*
D02*
G37*
G36*
X244292Y203811D02*
X243636Y203681D01*
X243080Y203309D01*
X242708Y202753D01*
X242578Y202097D01*
X242708Y201441D01*
X243080Y200885D01*
X243555Y200568D01*
X243556Y200236D01*
X243502Y200048D01*
X243360Y200019D01*
X242805Y199648D01*
X242433Y199092D01*
X242302Y198436D01*
X242433Y197780D01*
X242805Y197224D01*
X243360Y196852D01*
X244017Y196722D01*
X244672Y196852D01*
X245229Y197224D01*
X245600Y197780D01*
X245730Y198436D01*
X245600Y199092D01*
X245229Y199648D01*
X244754Y199965D01*
X244752Y200297D01*
X244806Y200485D01*
X244948Y200514D01*
X245504Y200885D01*
X245876Y201441D01*
X246006Y202097D01*
X245876Y202753D01*
X245504Y203309D01*
X244948Y203681D01*
X244292Y203811D01*
D02*
G37*
G36*
X64764Y198811D02*
X64109Y198681D01*
X63552Y198309D01*
X63181Y197753D01*
X63051Y197097D01*
X63181Y196441D01*
X63552Y195885D01*
X64109Y195514D01*
X64764Y195383D01*
X65420Y195514D01*
X65977Y195885D01*
X66348Y196441D01*
X66479Y197097D01*
X66348Y197753D01*
X65977Y198309D01*
X65420Y198681D01*
X64764Y198811D01*
D02*
G37*
G36*
X443702Y194166D02*
X443046Y194035D01*
X442489Y193664D01*
X442118Y193107D01*
X441988Y192452D01*
X442118Y191796D01*
X442489Y191240D01*
X443046Y190868D01*
X443702Y190738D01*
X444357Y190868D01*
X444913Y191240D01*
X445285Y191796D01*
X445415Y192452D01*
X445285Y193107D01*
X444913Y193664D01*
X444357Y194035D01*
X443702Y194166D01*
D02*
G37*
G36*
X375709Y193811D02*
X375054Y193681D01*
X374497Y193309D01*
X374126Y192753D01*
X373995Y192097D01*
X374126Y191441D01*
X374497Y190885D01*
X375054Y190514D01*
X375709Y190383D01*
X376365Y190514D01*
X376921Y190885D01*
X377293Y191441D01*
X377423Y192097D01*
X377293Y192753D01*
X376921Y193309D01*
X376365Y193681D01*
X375709Y193811D01*
D02*
G37*
G36*
X35556Y197114D02*
X34655Y196996D01*
X33815Y196648D01*
X33093Y196094D01*
X32540Y195373D01*
X32192Y194533D01*
X32073Y193632D01*
X32192Y192730D01*
X32540Y191890D01*
X33093Y191169D01*
X33815Y190616D01*
X34655Y190268D01*
X35556Y190149D01*
X36457Y190268D01*
X37297Y190616D01*
X38018Y191169D01*
X38572Y191890D01*
X38920Y192730D01*
X39038Y193632D01*
X38920Y194533D01*
X38572Y195373D01*
X38018Y196094D01*
X37297Y196648D01*
X36457Y196996D01*
X35556Y197114D01*
D02*
G37*
G36*
X28076D02*
X27174Y196996D01*
X26334Y196648D01*
X25613Y196094D01*
X25060Y195373D01*
X24712Y194533D01*
X24593Y193632D01*
X24712Y192730D01*
X25060Y191890D01*
X25613Y191169D01*
X26334Y190616D01*
X27174Y190268D01*
X28076Y190149D01*
X28977Y190268D01*
X29817Y190616D01*
X30538Y191169D01*
X31091Y191890D01*
X31439Y192730D01*
X31558Y193632D01*
X31439Y194533D01*
X31091Y195373D01*
X30538Y196094D01*
X29817Y196648D01*
X28977Y196996D01*
X28076Y197114D01*
D02*
G37*
G36*
X20595D02*
X19694Y196996D01*
X18854Y196648D01*
X18133Y196094D01*
X17579Y195373D01*
X17231Y194533D01*
X17113Y193632D01*
X17231Y192730D01*
X17579Y191890D01*
X18133Y191169D01*
X18854Y190616D01*
X19694Y190268D01*
X20595Y190149D01*
X21497Y190268D01*
X22336Y190616D01*
X23058Y191169D01*
X23611Y191890D01*
X23959Y192730D01*
X24078Y193632D01*
X23959Y194533D01*
X23611Y195373D01*
X23058Y196094D01*
X22336Y196648D01*
X21497Y196996D01*
X20595Y197114D01*
D02*
G37*
G36*
X13115D02*
X12213Y196996D01*
X11374Y196648D01*
X10652Y196094D01*
X10099Y195373D01*
X9751Y194533D01*
X9632Y193632D01*
X9751Y192730D01*
X10099Y191890D01*
X10652Y191169D01*
X11374Y190616D01*
X12213Y190268D01*
X13115Y190149D01*
X14016Y190268D01*
X14856Y190616D01*
X15577Y191169D01*
X16131Y191890D01*
X16479Y192730D01*
X16597Y193632D01*
X16479Y194533D01*
X16131Y195373D01*
X15577Y196094D01*
X14856Y196648D01*
X14016Y196996D01*
X13115Y197114D01*
D02*
G37*
G36*
X349961Y187394D02*
X349305Y187264D01*
X348749Y186892D01*
X348378Y186336D01*
X348247Y185680D01*
X348378Y185024D01*
X348749Y184468D01*
X349305Y184096D01*
X349961Y183966D01*
X350617Y184096D01*
X351173Y184468D01*
X351545Y185024D01*
X351675Y185680D01*
X351545Y186336D01*
X351173Y186892D01*
X350617Y187264D01*
X349961Y187394D01*
D02*
G37*
G36*
X274646Y184205D02*
X273991Y184074D01*
X273434Y183703D01*
X273063Y183147D01*
X272932Y182491D01*
X273063Y181835D01*
X273434Y181279D01*
X273991Y180907D01*
X274646Y180777D01*
X275302Y180907D01*
X275858Y181279D01*
X276230Y181835D01*
X276360Y182491D01*
X276230Y183147D01*
X275858Y183703D01*
X275302Y184074D01*
X274646Y184205D01*
D02*
G37*
G36*
X265198D02*
X264542Y184074D01*
X263986Y183703D01*
X263614Y183147D01*
X263484Y182491D01*
X263614Y181835D01*
X263986Y181279D01*
X264542Y180907D01*
X265198Y180777D01*
X265854Y180907D01*
X266410Y181279D01*
X266781Y181835D01*
X266912Y182491D01*
X266781Y183147D01*
X266410Y183703D01*
X265854Y184074D01*
X265198Y184205D01*
D02*
G37*
G36*
X252757Y184008D02*
X252101Y183878D01*
X251545Y183506D01*
X251173Y182950D01*
X251043Y182294D01*
X251173Y181638D01*
X251545Y181082D01*
X252101Y180710D01*
X252757Y180580D01*
X253413Y180710D01*
X253969Y181082D01*
X254340Y181638D01*
X254471Y182294D01*
X254340Y182950D01*
X253969Y183506D01*
X253413Y183878D01*
X252757Y184008D01*
D02*
G37*
G36*
X20595Y187114D02*
X19694Y186996D01*
X18854Y186648D01*
X18133Y186094D01*
X17579Y185373D01*
X17231Y184533D01*
X17113Y183632D01*
X17231Y182730D01*
X17579Y181890D01*
X18133Y181169D01*
X18854Y180616D01*
X19694Y180268D01*
X20595Y180149D01*
X21497Y180268D01*
X22336Y180616D01*
X23058Y181169D01*
X23611Y181890D01*
X23959Y182730D01*
X24078Y183632D01*
X23959Y184533D01*
X23611Y185373D01*
X23058Y186094D01*
X22336Y186648D01*
X21497Y186996D01*
X20595Y187114D01*
D02*
G37*
G36*
X257717Y183811D02*
X257061Y183681D01*
X256505Y183309D01*
X256134Y182753D01*
X256003Y182097D01*
X256134Y181441D01*
X256505Y180885D01*
X257061Y180514D01*
X257279Y180470D01*
X257509Y179915D01*
X257354Y179682D01*
X257280Y179308D01*
X257193Y179244D01*
X256735Y179116D01*
X256326Y179390D01*
X255670Y179520D01*
X255014Y179390D01*
X254458Y179018D01*
X254086Y178462D01*
X253956Y177806D01*
X254086Y177150D01*
X254458Y176594D01*
X255014Y176222D01*
X255670Y176092D01*
X256326Y176222D01*
X256882Y176594D01*
X257254Y177150D01*
X257328Y177524D01*
X257415Y177588D01*
X257873Y177716D01*
X258282Y177443D01*
X258470Y177406D01*
X258556Y177236D01*
X258635Y176863D01*
X258327Y176401D01*
X258197Y175745D01*
X258327Y175089D01*
X258699Y174533D01*
X259255Y174162D01*
X259805Y174052D01*
X260010Y173741D01*
X260073Y173554D01*
X259873Y173254D01*
X259743Y172598D01*
X259873Y171942D01*
X260245Y171386D01*
X260801Y171015D01*
X261457Y170884D01*
X262113Y171015D01*
X262669Y171386D01*
X263040Y171942D01*
X263171Y172598D01*
X263040Y173254D01*
X262669Y173810D01*
X262113Y174182D01*
X261562Y174291D01*
X261358Y174603D01*
X261294Y174790D01*
X261494Y175089D01*
X261625Y175745D01*
X261494Y176401D01*
X261123Y176957D01*
X260567Y177329D01*
X260379Y177366D01*
X260292Y177535D01*
X260213Y177909D01*
X260521Y178370D01*
X260652Y179026D01*
X260521Y179682D01*
X260150Y180238D01*
X259594Y180610D01*
X259376Y180653D01*
X259145Y181209D01*
X259301Y181441D01*
X259431Y182097D01*
X259301Y182753D01*
X258929Y183309D01*
X258373Y183681D01*
X257717Y183811D01*
D02*
G37*
G36*
X64686Y181252D02*
X64030Y181122D01*
X63474Y180750D01*
X63102Y180194D01*
X62972Y179538D01*
X63102Y178882D01*
X63474Y178326D01*
X64030Y177955D01*
X64686Y177824D01*
X65342Y177955D01*
X65898Y178326D01*
X66269Y178882D01*
X66400Y179538D01*
X66269Y180194D01*
X65898Y180750D01*
X65342Y181122D01*
X64686Y181252D01*
D02*
G37*
G36*
X277481Y181134D02*
X276825Y181004D01*
X276269Y180632D01*
X275898Y180076D01*
X275767Y179420D01*
X275898Y178764D01*
X276269Y178208D01*
X276825Y177837D01*
X277481Y177706D01*
X278137Y177837D01*
X278693Y178208D01*
X279065Y178764D01*
X279195Y179420D01*
X279065Y180076D01*
X278693Y180632D01*
X278137Y181004D01*
X277481Y181134D01*
D02*
G37*
G36*
X286024Y183851D02*
X285368Y183720D01*
X284812Y183349D01*
X284441Y182793D01*
X284310Y182137D01*
X284441Y181481D01*
X284812Y180925D01*
X285004Y180797D01*
Y180195D01*
X284891Y180120D01*
X284520Y179564D01*
X284389Y178908D01*
X284520Y178252D01*
X284891Y177696D01*
X285447Y177325D01*
X286103Y177194D01*
X286759Y177325D01*
X287315Y177696D01*
X287687Y178252D01*
X287817Y178908D01*
X287687Y179564D01*
X287315Y180120D01*
X287124Y180248D01*
Y180849D01*
X287236Y180925D01*
X287608Y181481D01*
X287738Y182137D01*
X287608Y182793D01*
X287236Y183349D01*
X286680Y183720D01*
X286024Y183851D01*
D02*
G37*
G36*
X373308Y179087D02*
X372652Y178956D01*
X372096Y178585D01*
X371724Y178029D01*
X371594Y177373D01*
X371724Y176717D01*
X372096Y176161D01*
X372652Y175789D01*
X373308Y175659D01*
X373964Y175789D01*
X374520Y176161D01*
X374891Y176717D01*
X375022Y177373D01*
X374891Y178029D01*
X374520Y178585D01*
X373964Y178956D01*
X373308Y179087D01*
D02*
G37*
G36*
X460709Y180312D02*
X459746Y180121D01*
X458929Y179575D01*
X458383Y178758D01*
X458192Y177795D01*
X458383Y176832D01*
X458929Y176016D01*
X459746Y175470D01*
X460709Y175278D01*
X461672Y175470D01*
X462488Y176016D01*
X463034Y176832D01*
X463226Y177795D01*
X463034Y178758D01*
X462488Y179575D01*
X461672Y180121D01*
X460709Y180312D01*
D02*
G37*
G36*
X268898Y179677D02*
X268242Y179547D01*
X267686Y179175D01*
X267315Y178619D01*
X267184Y177963D01*
X267315Y177307D01*
X267686Y176751D01*
X267917Y176597D01*
Y175996D01*
X267726Y175868D01*
X267354Y175312D01*
X267224Y174656D01*
X267354Y174000D01*
X267726Y173444D01*
X268282Y173073D01*
X268938Y172942D01*
X269594Y173073D01*
X270150Y173444D01*
X270462Y173912D01*
X270934Y173717D01*
X270924Y173672D01*
X271055Y173016D01*
X271427Y172460D01*
X271983Y172089D01*
X272639Y171958D01*
X273294Y172089D01*
X273850Y172460D01*
X274222Y173016D01*
X274353Y173672D01*
X274222Y174328D01*
X273850Y174884D01*
X273699Y174986D01*
Y175587D01*
X273850Y175688D01*
X274222Y176244D01*
X274353Y176900D01*
X274222Y177556D01*
X273850Y178112D01*
X273294Y178484D01*
X272639Y178614D01*
X271983Y178484D01*
X271427Y178112D01*
X271055Y177556D01*
X270924Y176900D01*
X271055Y176244D01*
X271427Y175688D01*
X271578Y175587D01*
Y174986D01*
X271427Y174884D01*
X271114Y174416D01*
X270643Y174611D01*
X270652Y174656D01*
X270521Y175312D01*
X270150Y175868D01*
X269919Y176022D01*
Y176624D01*
X270110Y176751D01*
X270482Y177307D01*
X270612Y177963D01*
X270482Y178619D01*
X270110Y179175D01*
X269554Y179547D01*
X268898Y179677D01*
D02*
G37*
G36*
X460749Y172000D02*
X460093Y171870D01*
X459537Y171498D01*
X459165Y170942D01*
X459035Y170286D01*
X459165Y169630D01*
X459537Y169074D01*
X460093Y168703D01*
X460749Y168572D01*
X461405Y168703D01*
X461961Y169074D01*
X462332Y169630D01*
X462463Y170286D01*
X462332Y170942D01*
X461961Y171498D01*
X461405Y171870D01*
X460749Y172000D01*
D02*
G37*
G36*
X492481Y170583D02*
X491825Y170452D01*
X491269Y170081D01*
X490898Y169525D01*
X490767Y168869D01*
X490898Y168213D01*
X491269Y167657D01*
X491825Y167285D01*
X492481Y167155D01*
X493137Y167285D01*
X493693Y167657D01*
X494065Y168213D01*
X494195Y168869D01*
X494065Y169525D01*
X493693Y170081D01*
X493137Y170452D01*
X492481Y170583D01*
D02*
G37*
G36*
X261339Y168368D02*
X260683Y168237D01*
X260127Y167866D01*
X259755Y167309D01*
X259625Y166654D01*
X259755Y165998D01*
X260127Y165442D01*
X260683Y165070D01*
X261339Y164939D01*
X261995Y165070D01*
X262551Y165442D01*
X262922Y165998D01*
X263053Y166654D01*
X262922Y167309D01*
X262551Y167866D01*
X261995Y168237D01*
X261339Y168368D01*
D02*
G37*
G36*
X294534Y167546D02*
X293878Y167416D01*
X293322Y167044D01*
X292950Y166488D01*
X292820Y165832D01*
X292950Y165176D01*
X293322Y164620D01*
X293878Y164249D01*
X294534Y164118D01*
X295190Y164249D01*
X295746Y164620D01*
X296117Y165176D01*
X296248Y165832D01*
X296117Y166488D01*
X295746Y167044D01*
X295190Y167416D01*
X294534Y167546D01*
D02*
G37*
G36*
X354883Y166016D02*
X354227Y165885D01*
X353671Y165514D01*
X353299Y164958D01*
X353169Y164302D01*
X353299Y163646D01*
X353671Y163090D01*
X354227Y162718D01*
X354883Y162588D01*
X355539Y162718D01*
X356095Y163090D01*
X356466Y163646D01*
X356597Y164302D01*
X356466Y164958D01*
X356095Y165514D01*
X355539Y165885D01*
X354883Y166016D01*
D02*
G37*
G36*
X395867Y165544D02*
X395211Y165413D01*
X394655Y165041D01*
X394283Y164486D01*
X394153Y163830D01*
X394283Y163174D01*
X394655Y162618D01*
X395211Y162246D01*
X395867Y162116D01*
X396523Y162246D01*
X397079Y162618D01*
X397450Y163174D01*
X397581Y163830D01*
X397450Y164486D01*
X397079Y165041D01*
X396523Y165413D01*
X395867Y165544D01*
D02*
G37*
G36*
X268072Y164481D02*
X267416Y164350D01*
X266860Y163979D01*
X266488Y163423D01*
X266357Y162767D01*
X266488Y162111D01*
X266860Y161555D01*
X267416Y161183D01*
X268072Y161053D01*
X268727Y161183D01*
X269284Y161555D01*
X269655Y162111D01*
X269786Y162767D01*
X269655Y163423D01*
X269284Y163979D01*
X268727Y164350D01*
X268072Y164481D01*
D02*
G37*
G36*
X21613Y170009D02*
X12641D01*
Y161036D01*
X21613D01*
Y170009D01*
D02*
G37*
G36*
X67127Y170047D02*
X65956Y169893D01*
X64864Y169441D01*
X63927Y168722D01*
X63208Y167785D01*
X62756Y166694D01*
X62602Y165522D01*
X62756Y164351D01*
X63208Y163260D01*
X63927Y162323D01*
X64864Y161604D01*
X65956Y161152D01*
X67127Y160997D01*
X68298Y161152D01*
X69389Y161604D01*
X70326Y162323D01*
X71045Y163260D01*
X71497Y164351D01*
X71652Y165522D01*
X71497Y166694D01*
X71045Y167785D01*
X70326Y168722D01*
X69389Y169441D01*
X68298Y169893D01*
X67127Y170047D01*
D02*
G37*
G36*
X338111Y162079D02*
X337455Y161949D01*
X336899Y161577D01*
X336527Y161021D01*
X336397Y160365D01*
X336527Y159709D01*
X336899Y159153D01*
X337455Y158781D01*
X338111Y158651D01*
X338767Y158781D01*
X339323Y159153D01*
X339694Y159709D01*
X339825Y160365D01*
X339694Y161021D01*
X339323Y161577D01*
X338767Y161949D01*
X338111Y162079D01*
D02*
G37*
G36*
X58111Y159166D02*
X57455Y159035D01*
X56899Y158664D01*
X56527Y158107D01*
X56397Y157452D01*
X56527Y156796D01*
X56899Y156240D01*
X57455Y155868D01*
X58111Y155738D01*
X58767Y155868D01*
X59323Y156240D01*
X59694Y156796D01*
X59825Y157452D01*
X59694Y158107D01*
X59323Y158664D01*
X58767Y159035D01*
X58111Y159166D01*
D02*
G37*
G36*
X361618Y157724D02*
X360962Y157594D01*
X360406Y157222D01*
X360034Y156666D01*
X359904Y156010D01*
X360034Y155354D01*
X360406Y154798D01*
X360962Y154426D01*
X361618Y154296D01*
X362274Y154426D01*
X362830Y154798D01*
X363201Y155354D01*
X363332Y156010D01*
X363201Y156666D01*
X362830Y157222D01*
X362274Y157594D01*
X361618Y157724D01*
D02*
G37*
G36*
X299568Y157040D02*
X298912Y156909D01*
X298356Y156538D01*
X297984Y155982D01*
X297854Y155326D01*
X297984Y154670D01*
X298356Y154114D01*
X298912Y153742D01*
X299568Y153612D01*
X300224Y153742D01*
X300780Y154114D01*
X301151Y154670D01*
X301282Y155326D01*
X301151Y155982D01*
X300780Y156538D01*
X300224Y156909D01*
X299568Y157040D01*
D02*
G37*
G36*
X354843Y159874D02*
X354187Y159744D01*
X353631Y159372D01*
X353260Y158816D01*
X353129Y158160D01*
X353260Y157504D01*
X353631Y156948D01*
X354187Y156577D01*
X354662Y156482D01*
Y155972D01*
X354423Y155925D01*
X353868Y155553D01*
X353496Y154997D01*
X353365Y154341D01*
X353496Y153685D01*
X353868Y153129D01*
X354423Y152758D01*
X355080Y152627D01*
X355735Y152758D01*
X356292Y153129D01*
X356663Y153685D01*
X356793Y154341D01*
X356663Y154997D01*
X356292Y155553D01*
X355735Y155925D01*
X355260Y156019D01*
Y156529D01*
X355499Y156577D01*
X356055Y156948D01*
X356427Y157504D01*
X356557Y158160D01*
X356427Y158816D01*
X356055Y159372D01*
X355499Y159744D01*
X354843Y159874D01*
D02*
G37*
G36*
X163032Y155347D02*
X162376Y155216D01*
X161820Y154845D01*
X161449Y154289D01*
X161318Y153633D01*
X161449Y152977D01*
X161820Y152421D01*
X162376Y152049D01*
X163032Y151919D01*
X163688Y152049D01*
X164244Y152421D01*
X164616Y152977D01*
X164746Y153633D01*
X164616Y154289D01*
X164244Y154845D01*
X163688Y155216D01*
X163032Y155347D01*
D02*
G37*
G36*
X201024Y152158D02*
X200368Y152027D01*
X199812Y151656D01*
X199441Y151100D01*
X199310Y150444D01*
X199441Y149788D01*
X199812Y149232D01*
X200368Y148860D01*
X201024Y148730D01*
X201680Y148860D01*
X202236Y149232D01*
X202608Y149788D01*
X202738Y150444D01*
X202608Y151100D01*
X202236Y151656D01*
X201680Y152027D01*
X201024Y152158D01*
D02*
G37*
G36*
X259843Y151921D02*
X259187Y151791D01*
X258631Y151419D01*
X258260Y150863D01*
X258129Y150207D01*
X258260Y149551D01*
X258631Y148995D01*
X259187Y148624D01*
X259843Y148494D01*
X260499Y148624D01*
X261055Y148995D01*
X261427Y149551D01*
X261557Y150207D01*
X261427Y150863D01*
X261055Y151419D01*
X260499Y151791D01*
X259843Y151921D01*
D02*
G37*
G36*
X403032Y151725D02*
X402376Y151594D01*
X401820Y151223D01*
X401449Y150667D01*
X401318Y150011D01*
X401449Y149355D01*
X401820Y148799D01*
X402376Y148427D01*
X403032Y148297D01*
X403688Y148427D01*
X404244Y148799D01*
X404616Y149355D01*
X404746Y150011D01*
X404616Y150667D01*
X404244Y151223D01*
X403688Y151594D01*
X403032Y151725D01*
D02*
G37*
G36*
X343583Y150426D02*
X342928Y150295D01*
X342371Y149923D01*
X342000Y149367D01*
X341869Y148711D01*
X342000Y148056D01*
X342371Y147499D01*
X342928Y147128D01*
X343583Y146997D01*
X344239Y147128D01*
X344795Y147499D01*
X345167Y148056D01*
X345297Y148711D01*
X345167Y149367D01*
X344795Y149923D01*
X344239Y150295D01*
X343583Y150426D01*
D02*
G37*
G36*
X17127Y155047D02*
X15956Y154893D01*
X14864Y154441D01*
X13927Y153722D01*
X13208Y152785D01*
X12756Y151694D01*
X12602Y150522D01*
X12756Y149351D01*
X13208Y148260D01*
X13927Y147323D01*
X14864Y146604D01*
X15956Y146152D01*
X17127Y145998D01*
X18298Y146152D01*
X19389Y146604D01*
X20326Y147323D01*
X21045Y148260D01*
X21497Y149351D01*
X21652Y150522D01*
X21497Y151694D01*
X21045Y152785D01*
X20326Y153722D01*
X19389Y154441D01*
X18298Y154893D01*
X17127Y155047D01*
D02*
G37*
G36*
X303977Y150520D02*
X303014Y150328D01*
X302197Y149782D01*
X301652Y148966D01*
X301460Y148003D01*
X301652Y147040D01*
X302197Y146223D01*
X303014Y145677D01*
X303977Y145486D01*
X304940Y145677D01*
X305757Y146223D01*
X306302Y147040D01*
X306494Y148003D01*
X306302Y148966D01*
X305757Y149782D01*
X304940Y150328D01*
X303977Y150520D01*
D02*
G37*
G36*
X401891Y147315D02*
X401234Y147185D01*
X400678Y146813D01*
X400307Y146257D01*
X400176Y145601D01*
X400307Y144945D01*
X400678Y144389D01*
X401234Y144018D01*
X401891Y143887D01*
X402546Y144018D01*
X403102Y144389D01*
X403474Y144945D01*
X403605Y145601D01*
X403474Y146257D01*
X403102Y146813D01*
X402546Y147185D01*
X401891Y147315D01*
D02*
G37*
G36*
X392127Y142591D02*
X391471Y142460D01*
X390915Y142089D01*
X390543Y141533D01*
X390413Y140877D01*
X390543Y140221D01*
X390915Y139665D01*
X391471Y139293D01*
X392127Y139163D01*
X392783Y139293D01*
X393339Y139665D01*
X393710Y140221D01*
X393841Y140877D01*
X393710Y141533D01*
X393339Y142089D01*
X392783Y142460D01*
X392127Y142591D01*
D02*
G37*
G36*
X398859Y143945D02*
X397896Y143753D01*
X397079Y143208D01*
X396534Y142391D01*
X396342Y141428D01*
X396534Y140465D01*
X397079Y139648D01*
X397896Y139103D01*
X398859Y138911D01*
X399822Y139103D01*
X400639Y139648D01*
X401184Y140465D01*
X401376Y141428D01*
X401184Y142391D01*
X400639Y143208D01*
X399822Y143753D01*
X398859Y143945D01*
D02*
G37*
G36*
X464174Y140465D02*
X463518Y140334D01*
X462962Y139963D01*
X462590Y139407D01*
X462460Y138751D01*
X462590Y138095D01*
X462962Y137539D01*
X463518Y137167D01*
X464174Y137037D01*
X464830Y137167D01*
X465386Y137539D01*
X465758Y138095D01*
X465888Y138751D01*
X465758Y139407D01*
X465386Y139963D01*
X464830Y140334D01*
X464174Y140465D01*
D02*
G37*
G36*
X26536Y136843D02*
X25880Y136712D01*
X25324Y136341D01*
X24953Y135785D01*
X24822Y135129D01*
X24953Y134473D01*
X25324Y133917D01*
X25880Y133545D01*
X26536Y133415D01*
X27192Y133545D01*
X27748Y133917D01*
X28120Y134473D01*
X28250Y135129D01*
X28120Y135785D01*
X27748Y136341D01*
X27192Y136712D01*
X26536Y136843D01*
D02*
G37*
G36*
X67127Y140047D02*
X65956Y139893D01*
X64864Y139441D01*
X63927Y138722D01*
X63208Y137785D01*
X62756Y136694D01*
X62602Y135522D01*
X62756Y134351D01*
X63208Y133260D01*
X63927Y132323D01*
X64864Y131604D01*
X65956Y131152D01*
X67127Y130998D01*
X68298Y131152D01*
X69389Y131604D01*
X70326Y132323D01*
X71045Y133260D01*
X71497Y134351D01*
X71652Y135522D01*
X71497Y136694D01*
X71045Y137785D01*
X70326Y138722D01*
X69389Y139441D01*
X68298Y139893D01*
X67127Y140047D01*
D02*
G37*
G36*
X17127D02*
X15956Y139893D01*
X14864Y139441D01*
X13927Y138722D01*
X13208Y137785D01*
X12756Y136694D01*
X12602Y135522D01*
X12756Y134351D01*
X13208Y133260D01*
X13927Y132323D01*
X14864Y131604D01*
X15956Y131152D01*
X17127Y130998D01*
X18298Y131152D01*
X19389Y131604D01*
X20326Y132323D01*
X21045Y133260D01*
X21497Y134351D01*
X21652Y135522D01*
X21497Y136694D01*
X21045Y137785D01*
X20326Y138722D01*
X19389Y139441D01*
X18298Y139893D01*
X17127Y140047D01*
D02*
G37*
G36*
X340985Y133418D02*
X340329Y133287D01*
X339773Y132915D01*
X339401Y132360D01*
X339271Y131703D01*
X339401Y131048D01*
X339773Y130491D01*
X340329Y130120D01*
X340985Y129990D01*
X341641Y130120D01*
X342197Y130491D01*
X342568Y131048D01*
X342699Y131703D01*
X342568Y132360D01*
X342197Y132915D01*
X341641Y133287D01*
X340985Y133418D01*
D02*
G37*
G36*
X409216Y133407D02*
X408560Y133276D01*
X408004Y132905D01*
X407632Y132349D01*
X407502Y131693D01*
X407632Y131037D01*
X408004Y130481D01*
X408560Y130109D01*
X409216Y129979D01*
X409871Y130109D01*
X410428Y130481D01*
X410799Y131037D01*
X410930Y131693D01*
X410799Y132349D01*
X410428Y132905D01*
X409871Y133276D01*
X409216Y133407D01*
D02*
G37*
G36*
X495080Y128181D02*
X494423Y128051D01*
X493867Y127679D01*
X493496Y127123D01*
X493365Y126467D01*
X493496Y125811D01*
X493867Y125255D01*
X494423Y124884D01*
X495080Y124753D01*
X495735Y124884D01*
X496291Y125255D01*
X496663Y125811D01*
X496794Y126467D01*
X496663Y127123D01*
X496291Y127679D01*
X495735Y128051D01*
X495080Y128181D01*
D02*
G37*
G36*
X163190Y125307D02*
X162534Y125177D01*
X161978Y124805D01*
X161606Y124249D01*
X161476Y123593D01*
X161606Y122937D01*
X161978Y122381D01*
X162534Y122010D01*
X163190Y121879D01*
X163846Y122010D01*
X164402Y122381D01*
X164773Y122937D01*
X164904Y123593D01*
X164773Y124249D01*
X164402Y124805D01*
X163846Y125177D01*
X163190Y125307D01*
D02*
G37*
G36*
X546457Y122669D02*
X545801Y122539D01*
X545245Y122168D01*
X544874Y121611D01*
X544743Y120956D01*
X544874Y120300D01*
X545245Y119744D01*
X545801Y119372D01*
X546457Y119241D01*
X547113Y119372D01*
X547669Y119744D01*
X548041Y120300D01*
X548171Y120956D01*
X548041Y121611D01*
X547669Y122168D01*
X547113Y122539D01*
X546457Y122669D01*
D02*
G37*
G36*
X129489Y122591D02*
X128833Y122460D01*
X128277Y122089D01*
X127905Y121533D01*
X127775Y120877D01*
X127905Y120221D01*
X128277Y119665D01*
X128833Y119293D01*
X129489Y119163D01*
X130145Y119293D01*
X130701Y119665D01*
X131072Y120221D01*
X131203Y120877D01*
X131072Y121533D01*
X130701Y122089D01*
X130145Y122460D01*
X129489Y122591D01*
D02*
G37*
G36*
X202442Y120701D02*
X201786Y120571D01*
X201230Y120199D01*
X200858Y119643D01*
X200728Y118987D01*
X200858Y118331D01*
X201230Y117775D01*
X201786Y117403D01*
X202442Y117273D01*
X203098Y117403D01*
X203654Y117775D01*
X204025Y118331D01*
X204156Y118987D01*
X204025Y119643D01*
X203654Y120199D01*
X203098Y120571D01*
X202442Y120701D01*
D02*
G37*
G36*
X400357Y120690D02*
X399701Y120560D01*
X399145Y120188D01*
X398774Y119632D01*
X398643Y118976D01*
X398774Y118320D01*
X399145Y117764D01*
X399701Y117393D01*
X400357Y117262D01*
X401013Y117393D01*
X401569Y117764D01*
X401941Y118320D01*
X402071Y118976D01*
X401941Y119632D01*
X401569Y120188D01*
X401013Y120560D01*
X400357Y120690D01*
D02*
G37*
G36*
X333032Y116567D02*
X332376Y116437D01*
X331820Y116065D01*
X331449Y115509D01*
X331318Y114853D01*
X331449Y114197D01*
X331820Y113641D01*
X332376Y113270D01*
X333032Y113139D01*
X333688Y113270D01*
X334244Y113641D01*
X334616Y114197D01*
X334746Y114853D01*
X334616Y115509D01*
X334244Y116065D01*
X333688Y116437D01*
X333032Y116567D01*
D02*
G37*
G36*
X301536Y115937D02*
X300880Y115807D01*
X300324Y115435D01*
X299953Y114879D01*
X299822Y114223D01*
X299953Y113567D01*
X300324Y113011D01*
X300880Y112640D01*
X301536Y112509D01*
X302192Y112640D01*
X302748Y113011D01*
X303120Y113567D01*
X303250Y114223D01*
X303120Y114879D01*
X302748Y115435D01*
X302192Y115807D01*
X301536Y115937D01*
D02*
G37*
G36*
X109922Y113004D02*
X108943Y112875D01*
X108032Y112497D01*
X107249Y111896D01*
X106648Y111113D01*
X106270Y110202D01*
X106142Y109223D01*
X106270Y108245D01*
X106648Y107333D01*
X107249Y106550D01*
X108032Y105949D01*
X108943Y105572D01*
X109922Y105443D01*
X110900Y105572D01*
X111812Y105949D01*
X112595Y106550D01*
X113196Y107333D01*
X113574Y108245D01*
X113702Y109223D01*
X113574Y110202D01*
X113196Y111113D01*
X112595Y111896D01*
X111812Y112497D01*
X110900Y112875D01*
X109922Y113004D01*
D02*
G37*
G36*
X494961Y108221D02*
X494305Y108090D01*
X493749Y107719D01*
X493378Y107163D01*
X493247Y106507D01*
X493378Y105851D01*
X493749Y105295D01*
X494305Y104923D01*
X494961Y104793D01*
X495617Y104923D01*
X496173Y105295D01*
X496545Y105851D01*
X496675Y106507D01*
X496545Y107163D01*
X496173Y107719D01*
X495617Y108090D01*
X494961Y108221D01*
D02*
G37*
G36*
X323387Y107827D02*
X322731Y107697D01*
X322175Y107325D01*
X321803Y106769D01*
X321673Y106113D01*
X321803Y105457D01*
X322175Y104901D01*
X322731Y104529D01*
X323387Y104399D01*
X324043Y104529D01*
X324599Y104901D01*
X324970Y105457D01*
X325101Y106113D01*
X324970Y106769D01*
X324599Y107325D01*
X324043Y107697D01*
X323387Y107827D01*
D02*
G37*
G36*
X475198Y109338D02*
X474234Y109147D01*
X473418Y108601D01*
X472872Y107785D01*
X472681Y106822D01*
X472872Y105859D01*
X473418Y105042D01*
X474234Y104496D01*
X475198Y104305D01*
X476161Y104496D01*
X476977Y105042D01*
X477523Y105859D01*
X477714Y106822D01*
X477523Y107785D01*
X476977Y108601D01*
X476161Y109147D01*
X475198Y109338D01*
D02*
G37*
G36*
X223111Y105937D02*
X222455Y105807D01*
X221899Y105435D01*
X221527Y104879D01*
X221397Y104223D01*
X221527Y103567D01*
X221899Y103011D01*
X222455Y102640D01*
X223111Y102509D01*
X223767Y102640D01*
X224323Y103011D01*
X224694Y103567D01*
X224825Y104223D01*
X224694Y104879D01*
X224323Y105435D01*
X223767Y105807D01*
X223111Y105937D01*
D02*
G37*
G36*
X24005Y112637D02*
X13556D01*
Y102188D01*
X24005D01*
Y112637D01*
D02*
G37*
G36*
X48426Y104914D02*
X47770Y104783D01*
X47214Y104412D01*
X46842Y103856D01*
X46712Y103200D01*
X46842Y102544D01*
X47214Y101988D01*
X47770Y101616D01*
X48426Y101486D01*
X49082Y101616D01*
X49638Y101988D01*
X50010Y102544D01*
X50140Y103200D01*
X50010Y103856D01*
X49638Y104412D01*
X49082Y104783D01*
X48426Y104914D01*
D02*
G37*
G36*
X177875Y100032D02*
X177219Y99901D01*
X176663Y99530D01*
X176291Y98974D01*
X176161Y98318D01*
X176291Y97662D01*
X176663Y97106D01*
X177219Y96734D01*
X177875Y96604D01*
X178531Y96734D01*
X179087Y97106D01*
X179458Y97662D01*
X179589Y98318D01*
X179458Y98974D01*
X179087Y99530D01*
X178531Y99901D01*
X177875Y100032D01*
D02*
G37*
G36*
X113670Y102892D02*
X106174D01*
Y95397D01*
X113670D01*
Y102892D01*
D02*
G37*
G36*
X154922Y95189D02*
X154266Y95059D01*
X153710Y94687D01*
X153338Y94131D01*
X153208Y93475D01*
X153338Y92819D01*
X153710Y92263D01*
X154266Y91892D01*
X154922Y91761D01*
X155578Y91892D01*
X156134Y92263D01*
X156506Y92819D01*
X156636Y93475D01*
X156506Y94131D01*
X156134Y94687D01*
X155578Y95059D01*
X154922Y95189D01*
D02*
G37*
G36*
X86300Y95071D02*
X85644Y94941D01*
X85088Y94569D01*
X84716Y94013D01*
X84586Y93357D01*
X84716Y92701D01*
X85088Y92145D01*
X85644Y91773D01*
X86300Y91643D01*
X86956Y91773D01*
X87512Y92145D01*
X87884Y92701D01*
X88014Y93357D01*
X87884Y94013D01*
X87512Y94569D01*
X86956Y94941D01*
X86300Y95071D01*
D02*
G37*
G36*
X352599Y92433D02*
X351943Y92303D01*
X351387Y91931D01*
X351016Y91375D01*
X350885Y90719D01*
X351016Y90063D01*
X351387Y89507D01*
X351943Y89136D01*
X352599Y89005D01*
X353255Y89136D01*
X353811Y89507D01*
X354183Y90063D01*
X354313Y90719D01*
X354183Y91375D01*
X353811Y91931D01*
X353255Y92303D01*
X352599Y92433D01*
D02*
G37*
G36*
X463623Y92158D02*
X462967Y92027D01*
X462411Y91656D01*
X462039Y91100D01*
X461909Y90444D01*
X462039Y89788D01*
X462411Y89232D01*
X462967Y88860D01*
X463623Y88730D01*
X464279Y88860D01*
X464835Y89232D01*
X465206Y89788D01*
X465337Y90444D01*
X465206Y91100D01*
X464835Y91656D01*
X464279Y92027D01*
X463623Y92158D01*
D02*
G37*
G36*
X399135Y84756D02*
X398479Y84626D01*
X397923Y84254D01*
X397551Y83698D01*
X397421Y83042D01*
X397551Y82386D01*
X397923Y81830D01*
X398479Y81459D01*
X399135Y81328D01*
X399791Y81459D01*
X400347Y81830D01*
X400718Y82386D01*
X400849Y83042D01*
X400718Y83698D01*
X400347Y84254D01*
X399791Y84626D01*
X399135Y84756D01*
D02*
G37*
G36*
X492914Y84166D02*
X492258Y84035D01*
X491702Y83664D01*
X491330Y83108D01*
X491200Y82452D01*
X491330Y81796D01*
X491702Y81240D01*
X492258Y80868D01*
X492914Y80738D01*
X493570Y80868D01*
X494126Y81240D01*
X494498Y81796D01*
X494628Y82452D01*
X494498Y83108D01*
X494126Y83664D01*
X493570Y84035D01*
X492914Y84166D01*
D02*
G37*
G36*
X345670Y80819D02*
X345014Y80689D01*
X344458Y80317D01*
X344086Y79761D01*
X343956Y79105D01*
X344086Y78449D01*
X344458Y77893D01*
X345014Y77522D01*
X345670Y77391D01*
X346326Y77522D01*
X346882Y77893D01*
X347254Y78449D01*
X347384Y79105D01*
X347254Y79761D01*
X346882Y80317D01*
X346326Y80689D01*
X345670Y80819D01*
D02*
G37*
G36*
X80475Y84604D02*
X79399Y84462D01*
X78396Y84047D01*
X77535Y83386D01*
X76875Y82525D01*
X76459Y81522D01*
X76318Y80446D01*
X76459Y79370D01*
X76875Y78367D01*
X77535Y77506D01*
X78396Y76845D01*
X79399Y76430D01*
X80475Y76288D01*
X81551Y76430D01*
X82554Y76845D01*
X83415Y77506D01*
X84076Y78367D01*
X84491Y79370D01*
X84633Y80446D01*
X84491Y81522D01*
X84076Y82525D01*
X83415Y83386D01*
X82554Y84047D01*
X81551Y84462D01*
X80475Y84604D01*
D02*
G37*
G36*
X149843Y84562D02*
X148767Y84420D01*
X147764Y84005D01*
X146903Y83344D01*
X146243Y82483D01*
X145827Y81480D01*
X145686Y80404D01*
X145827Y79328D01*
X146243Y78325D01*
X146903Y77464D01*
X147764Y76804D01*
X148767Y76388D01*
X149843Y76247D01*
X150919Y76388D01*
X151922Y76804D01*
X152783Y77464D01*
X153444Y78325D01*
X153859Y79328D01*
X154001Y80404D01*
X153859Y81480D01*
X153444Y82483D01*
X152783Y83344D01*
X151922Y84005D01*
X150919Y84420D01*
X149843Y84562D01*
D02*
G37*
G36*
X204686Y79657D02*
X203707Y79528D01*
X202796Y79151D01*
X202013Y78550D01*
X201412Y77767D01*
X201034Y76855D01*
X200905Y75877D01*
X201034Y74898D01*
X201412Y73987D01*
X202013Y73204D01*
X202796Y72603D01*
X203707Y72225D01*
X204686Y72096D01*
X205664Y72225D01*
X206576Y72603D01*
X207359Y73204D01*
X207960Y73987D01*
X208337Y74898D01*
X208466Y75877D01*
X208337Y76855D01*
X207960Y77767D01*
X207359Y78550D01*
X206576Y79151D01*
X205664Y79528D01*
X204686Y79657D01*
D02*
G37*
G36*
X104097Y76650D02*
X103042Y76511D01*
X102058Y76104D01*
X101214Y75456D01*
X100566Y74611D01*
X100158Y73628D01*
X100019Y72572D01*
X100158Y71517D01*
X100566Y70533D01*
X101214Y69688D01*
X102058Y69040D01*
X103042Y68633D01*
X104097Y68494D01*
X105153Y68633D01*
X106136Y69040D01*
X106981Y69688D01*
X107629Y70533D01*
X108037Y71517D01*
X108176Y72572D01*
X108037Y73628D01*
X107629Y74611D01*
X106981Y75456D01*
X106136Y76104D01*
X105153Y76511D01*
X104097Y76650D01*
D02*
G37*
G36*
X56853D02*
X55798Y76511D01*
X54814Y76104D01*
X53970Y75456D01*
X53321Y74611D01*
X52914Y73628D01*
X52775Y72572D01*
X52914Y71517D01*
X53321Y70533D01*
X53970Y69688D01*
X54814Y69040D01*
X55798Y68633D01*
X56853Y68494D01*
X57909Y68633D01*
X58892Y69040D01*
X59737Y69688D01*
X60385Y70533D01*
X60792Y71517D01*
X60931Y72572D01*
X60792Y73628D01*
X60385Y74611D01*
X59737Y75456D01*
X58892Y76104D01*
X57909Y76511D01*
X56853Y76650D01*
D02*
G37*
G36*
X173465Y76609D02*
X172410Y76469D01*
X171426Y76062D01*
X170582Y75414D01*
X169933Y74569D01*
X169526Y73586D01*
X169387Y72530D01*
X169526Y71475D01*
X169933Y70491D01*
X170582Y69647D01*
X171426Y68998D01*
X172410Y68591D01*
X173465Y68452D01*
X174521Y68591D01*
X175504Y68998D01*
X176349Y69647D01*
X176997Y70491D01*
X177404Y71475D01*
X177543Y72530D01*
X177404Y73586D01*
X176997Y74569D01*
X176349Y75414D01*
X175504Y76062D01*
X174521Y76469D01*
X173465Y76609D01*
D02*
G37*
G36*
X126221D02*
X125166Y76469D01*
X124182Y76062D01*
X123337Y75414D01*
X122689Y74569D01*
X122282Y73586D01*
X122143Y72530D01*
X122282Y71475D01*
X122689Y70491D01*
X123337Y69647D01*
X124182Y68998D01*
X125166Y68591D01*
X126221Y68452D01*
X127277Y68591D01*
X128260Y68998D01*
X129105Y69647D01*
X129753Y70491D01*
X130160Y71475D01*
X130299Y72530D01*
X130160Y73586D01*
X129753Y74569D01*
X129105Y75414D01*
X128260Y76062D01*
X127277Y76469D01*
X126221Y76609D01*
D02*
G37*
G36*
X222284Y67669D02*
X221628Y67539D01*
X221072Y67168D01*
X220701Y66611D01*
X220570Y65956D01*
X220701Y65300D01*
X221072Y64744D01*
X221628Y64372D01*
X222284Y64241D01*
X222940Y64372D01*
X223496Y64744D01*
X223868Y65300D01*
X223998Y65956D01*
X223868Y66611D01*
X223496Y67168D01*
X222940Y67539D01*
X222284Y67669D01*
D02*
G37*
G36*
X18780Y72682D02*
X17416Y72502D01*
X16146Y71976D01*
X15054Y71138D01*
X14217Y70047D01*
X13690Y68776D01*
X13511Y67412D01*
X13690Y66048D01*
X14217Y64777D01*
X15054Y63686D01*
X16146Y62849D01*
X17416Y62322D01*
X18780Y62143D01*
X20144Y62322D01*
X21415Y62849D01*
X22506Y63686D01*
X23344Y64777D01*
X23870Y66048D01*
X24050Y67412D01*
X23870Y68776D01*
X23344Y70047D01*
X22506Y71138D01*
X21415Y71976D01*
X20144Y72502D01*
X18780Y72682D01*
D02*
G37*
G36*
X323387Y57197D02*
X322731Y57067D01*
X322175Y56695D01*
X321803Y56139D01*
X321673Y55483D01*
X321803Y54827D01*
X322175Y54271D01*
X322731Y53900D01*
X323387Y53769D01*
X324043Y53900D01*
X324599Y54271D01*
X324970Y54827D01*
X325101Y55483D01*
X324970Y56139D01*
X324599Y56695D01*
X324043Y57067D01*
X323387Y57197D01*
D02*
G37*
G36*
X280276Y48221D02*
X279620Y48090D01*
X279064Y47719D01*
X278693Y47163D01*
X278562Y46507D01*
X278693Y45851D01*
X279064Y45295D01*
X279620Y44923D01*
X280276Y44793D01*
X280932Y44923D01*
X281488Y45295D01*
X281860Y45851D01*
X281990Y46507D01*
X281860Y47163D01*
X281488Y47719D01*
X280932Y48090D01*
X280276Y48221D01*
D02*
G37*
G36*
X337009Y48024D02*
X336353Y47893D01*
X335797Y47522D01*
X335425Y46966D01*
X335295Y46310D01*
X335425Y45654D01*
X335797Y45098D01*
X336353Y44726D01*
X337009Y44596D01*
X337665Y44726D01*
X338221Y45098D01*
X338592Y45654D01*
X338723Y46310D01*
X338592Y46966D01*
X338221Y47522D01*
X337665Y47893D01*
X337009Y48024D01*
D02*
G37*
G36*
X409922Y46803D02*
X409266Y46673D01*
X408710Y46301D01*
X408338Y45745D01*
X408208Y45089D01*
X408338Y44433D01*
X408710Y43877D01*
X409266Y43506D01*
X409922Y43375D01*
X410578Y43506D01*
X411134Y43877D01*
X411506Y44433D01*
X411636Y45089D01*
X411506Y45745D01*
X411134Y46301D01*
X410578Y46673D01*
X409922Y46803D01*
D02*
G37*
G36*
X467127Y46055D02*
X466471Y45925D01*
X465915Y45553D01*
X465543Y44997D01*
X465413Y44341D01*
X465543Y43685D01*
X465915Y43129D01*
X466471Y42758D01*
X467127Y42627D01*
X467783Y42758D01*
X468339Y43129D01*
X468710Y43685D01*
X468841Y44341D01*
X468710Y44997D01*
X468339Y45553D01*
X467783Y45925D01*
X467127Y46055D01*
D02*
G37*
G36*
X17599Y47098D02*
X16621Y46969D01*
X15709Y46592D01*
X14926Y45991D01*
X14325Y45208D01*
X13948Y44296D01*
X13819Y43318D01*
X13948Y42339D01*
X14325Y41427D01*
X14926Y40645D01*
X15709Y40044D01*
X16621Y39666D01*
X17599Y39537D01*
X18578Y39666D01*
X19489Y40044D01*
X20272Y40645D01*
X20873Y41427D01*
X21251Y42339D01*
X21380Y43318D01*
X21251Y44296D01*
X20873Y45208D01*
X20272Y45991D01*
X19489Y46592D01*
X18578Y46969D01*
X17599Y47098D01*
D02*
G37*
G36*
X403150Y42000D02*
X402494Y41870D01*
X401938Y41498D01*
X401567Y40942D01*
X401436Y40286D01*
X401567Y39630D01*
X401938Y39074D01*
X402494Y38703D01*
X403150Y38572D01*
X403806Y38703D01*
X404362Y39074D01*
X404734Y39630D01*
X404864Y40286D01*
X404734Y40942D01*
X404362Y41498D01*
X403806Y41870D01*
X403150Y42000D01*
D02*
G37*
G36*
X495985Y41134D02*
X495329Y41004D01*
X494773Y40632D01*
X494401Y40076D01*
X494271Y39420D01*
X494401Y38764D01*
X494773Y38208D01*
X495329Y37837D01*
X495985Y37706D01*
X496641Y37837D01*
X497197Y38208D01*
X497569Y38764D01*
X497699Y39420D01*
X497569Y40076D01*
X497197Y40632D01*
X496641Y41004D01*
X495985Y41134D01*
D02*
G37*
G36*
X454371Y36764D02*
X453715Y36634D01*
X453159Y36262D01*
X452787Y35706D01*
X452657Y35050D01*
X452787Y34394D01*
X453159Y33838D01*
X453715Y33466D01*
X454371Y33336D01*
X455027Y33466D01*
X455583Y33838D01*
X455954Y34394D01*
X456085Y35050D01*
X455954Y35706D01*
X455583Y36262D01*
X455027Y36634D01*
X454371Y36764D01*
D02*
G37*
G36*
X548268Y35937D02*
X547612Y35807D01*
X547056Y35435D01*
X546685Y34879D01*
X546554Y34223D01*
X546685Y33567D01*
X547056Y33011D01*
X547612Y32640D01*
X548268Y32509D01*
X548924Y32640D01*
X549480Y33011D01*
X549852Y33567D01*
X549983Y34223D01*
X549852Y34879D01*
X549480Y35435D01*
X548924Y35807D01*
X548268Y35937D01*
D02*
G37*
G36*
X253595Y29248D02*
X252940Y29118D01*
X252383Y28746D01*
X252012Y28190D01*
X251882Y27534D01*
X252012Y26878D01*
X252383Y26322D01*
X252940Y25951D01*
X253595Y25820D01*
X254251Y25951D01*
X254807Y26322D01*
X255179Y26878D01*
X255310Y27534D01*
X255179Y28190D01*
X254807Y28746D01*
X254251Y29118D01*
X253595Y29248D01*
D02*
G37*
G36*
X223583Y23260D02*
X222927Y23130D01*
X222371Y22758D01*
X222000Y22202D01*
X221869Y21546D01*
X222000Y20890D01*
X222371Y20334D01*
X222927Y19963D01*
X223583Y19832D01*
X224239Y19963D01*
X224795Y20334D01*
X225167Y20890D01*
X225297Y21546D01*
X225167Y22202D01*
X224795Y22758D01*
X224239Y23130D01*
X223583Y23260D01*
D02*
G37*
G36*
X403190Y22040D02*
X402534Y21909D01*
X401978Y21538D01*
X401606Y20981D01*
X401476Y20326D01*
X401606Y19670D01*
X401978Y19114D01*
X402534Y18742D01*
X403190Y18612D01*
X403846Y18742D01*
X404402Y19114D01*
X404773Y19670D01*
X404904Y20326D01*
X404773Y20981D01*
X404402Y21538D01*
X403846Y21909D01*
X403190Y22040D01*
D02*
G37*
G36*
X192796Y24415D02*
X192013Y24311D01*
X191283Y24009D01*
X190656Y23528D01*
X190175Y22901D01*
X189873Y22172D01*
X189770Y21389D01*
X189873Y20605D01*
X190175Y19876D01*
X190656Y19249D01*
X191283Y18768D01*
X192013Y18466D01*
X192796Y18363D01*
X193579Y18466D01*
X194309Y18768D01*
X194936Y19249D01*
X195416Y19876D01*
X195719Y20605D01*
X195822Y21389D01*
X195719Y22172D01*
X195416Y22901D01*
X194936Y23528D01*
X194309Y24009D01*
X193579Y24311D01*
X192796Y24415D01*
D02*
G37*
G36*
X496142Y21095D02*
X495486Y20964D01*
X494931Y20593D01*
X494559Y20037D01*
X494428Y19381D01*
X494559Y18725D01*
X494931Y18169D01*
X495486Y17797D01*
X496142Y17667D01*
X496798Y17797D01*
X497354Y18169D01*
X497726Y18725D01*
X497857Y19381D01*
X497726Y20037D01*
X497354Y20593D01*
X496798Y20964D01*
X496142Y21095D01*
D02*
G37*
G36*
X380827Y22291D02*
X379864Y22100D01*
X379048Y21554D01*
X378502Y20738D01*
X378311Y19774D01*
X378502Y18811D01*
X379048Y17995D01*
X379864Y17449D01*
X380827Y17258D01*
X381791Y17449D01*
X382607Y17995D01*
X383153Y18811D01*
X383344Y19774D01*
X383153Y20738D01*
X382607Y21554D01*
X381791Y22100D01*
X380827Y22291D01*
D02*
G37*
G36*
X478268Y21937D02*
X477305Y21745D01*
X476489Y21200D01*
X475943Y20383D01*
X475752Y19420D01*
X475943Y18457D01*
X476489Y17640D01*
X477305Y17095D01*
X478268Y16903D01*
X479232Y17095D01*
X480048Y17640D01*
X480594Y18457D01*
X480785Y19420D01*
X480594Y20383D01*
X480048Y21200D01*
X479232Y21745D01*
X478268Y21937D01*
D02*
G37*
G36*
X17599Y24263D02*
X16621Y24135D01*
X15709Y23757D01*
X14926Y23156D01*
X14325Y22373D01*
X13948Y21462D01*
X13819Y20483D01*
X13948Y19505D01*
X14325Y18593D01*
X14926Y17810D01*
X15709Y17209D01*
X16621Y16831D01*
X17599Y16703D01*
X18578Y16831D01*
X19489Y17209D01*
X20272Y17810D01*
X20873Y18593D01*
X21251Y19505D01*
X21380Y20483D01*
X21251Y21462D01*
X20873Y22373D01*
X20272Y23156D01*
X19489Y23757D01*
X18578Y24135D01*
X17599Y24263D01*
D02*
G37*
%LPD*%
D15*
X201225Y416956D02*
X197268D01*
X201225Y420912D01*
Y421901D01*
X200236Y422891D01*
X198258D01*
X197268Y421901D01*
D213*
X26064Y47845D02*
D03*
Y15956D02*
D03*
X6379D02*
D03*
Y47845D02*
D03*
X18780Y87412D02*
D03*
D214*
X532087Y410236D02*
D03*
X552362D02*
D03*
Y430512D02*
D03*
X532087D02*
D03*
D215*
X17599Y31861D02*
D03*
X369410Y555444D02*
D03*
X138347Y546034D02*
D03*
X246143Y400089D02*
D03*
D216*
X542717Y511979D02*
D03*
D218*
X514922Y584597D02*
D03*
X524922Y579597D02*
D03*
D219*
X540748Y455905D02*
D03*
D220*
X508662Y396940D02*
D03*
D222*
X409725Y278219D02*
D03*
X429725D02*
D03*
X439725Y308219D02*
D03*
Y328219D02*
D03*
X429725Y348219D02*
D03*
X439725Y378219D02*
D03*
Y408219D02*
D03*
X429725Y428219D02*
D03*
X439725Y448219D02*
D03*
D227*
X204686Y85956D02*
D03*
D228*
X67127Y150522D02*
D03*
D231*
X519922Y248003D02*
D03*
Y196271D02*
D03*
D232*
X509253Y235916D02*
D03*
X20713Y204223D02*
D03*
X28194D02*
D03*
X35674D02*
D03*
X13115Y183632D02*
D03*
X28076D02*
D03*
X35556D02*
D03*
D234*
X276143Y400089D02*
D03*
D238*
X362245Y31546D02*
D03*
X149725Y582412D02*
D03*
D239*
X113938Y477963D02*
D03*
D241*
X26536Y276172D02*
D03*
X19528Y272176D02*
D03*
X26536Y338180D02*
D03*
X19528Y334184D02*
D03*
X26536Y400188D02*
D03*
X19528Y396192D02*
D03*
X26536Y462196D02*
D03*
X19528Y458200D02*
D03*
D243*
X174173Y559764D02*
D03*
X172814Y542871D02*
D03*
X210370Y549543D02*
D03*
X107022Y246222D02*
D03*
X85014Y332442D02*
D03*
X81117Y306558D02*
D03*
X203321Y304490D02*
D03*
X68951Y371537D02*
D03*
X99226Y370789D02*
D03*
X93557Y378269D02*
D03*
X89148Y389686D02*
D03*
X170959Y386812D02*
D03*
X206116Y437049D02*
D03*
X223164Y437561D02*
D03*
X323557Y539962D02*
D03*
X342337Y572364D02*
D03*
X337691Y588309D02*
D03*
X260762Y583742D02*
D03*
X243951Y574844D02*
D03*
X245683Y560749D02*
D03*
X465316Y199381D02*
D03*
X348111Y202491D02*
D03*
X312953Y178003D02*
D03*
X338268Y181664D02*
D03*
X379646Y188633D02*
D03*
X414213Y188790D02*
D03*
X435670Y188948D02*
D03*
X318387Y365365D02*
D03*
X317678Y381546D02*
D03*
X319381Y282818D02*
D03*
X310985Y278475D02*
D03*
X514686Y354932D02*
D03*
X550316Y348239D02*
D03*
X521509Y345490D02*
D03*
X534056Y382452D02*
D03*
X543150Y371113D02*
D03*
X550158Y369105D02*
D03*
X556733Y395011D02*
D03*
X531615Y398987D02*
D03*
X516615Y444893D02*
D03*
X499843Y334263D02*
D03*
X183544Y190089D02*
D03*
X173623Y191625D02*
D03*
X185709Y198436D02*
D03*
X189095Y193475D02*
D03*
X169883Y197215D02*
D03*
X177945Y199384D02*
D03*
X549622Y443517D02*
D03*
X526496Y451102D02*
D03*
X513519Y481313D02*
D03*
X460591Y497097D02*
D03*
X468977Y511113D02*
D03*
X465906Y501034D02*
D03*
X486615Y493987D02*
D03*
X470198Y493672D02*
D03*
X464371Y490759D02*
D03*
X486300Y500680D02*
D03*
X510079Y507845D02*
D03*
X509568Y493475D02*
D03*
X515906Y500522D02*
D03*
X516418Y494184D02*
D03*
X473623Y500680D02*
D03*
X529804Y503593D02*
D03*
X411654Y470089D02*
D03*
X410240Y475167D02*
D03*
X411653Y484857D02*
D03*
X402048Y481467D02*
D03*
X284961Y585798D02*
D03*
X277166Y588397D02*
D03*
X308386Y548475D02*
D03*
X320946Y573042D02*
D03*
X135119Y152767D02*
D03*
X156457Y156861D02*
D03*
X148308Y156782D02*
D03*
X229056Y146034D02*
D03*
X208583Y123160D02*
D03*
X198229Y129499D02*
D03*
X207914Y146271D02*
D03*
X206891Y130208D02*
D03*
X223111Y125129D02*
D03*
X265473Y124971D02*
D03*
X249843Y126861D02*
D03*
X274922Y132294D02*
D03*
X287993Y131152D02*
D03*
X241772Y138948D02*
D03*
X259874Y134266D02*
D03*
X530119Y489892D02*
D03*
X530906Y481310D02*
D03*
X545946Y477885D02*
D03*
X315591Y229066D02*
D03*
X310316Y235562D02*
D03*
X515984Y263228D02*
D03*
X521103Y260759D02*
D03*
X513071Y172244D02*
D03*
X523110Y172480D02*
D03*
X552205Y179646D02*
D03*
X342953Y224853D02*
D03*
X336654Y232412D02*
D03*
X420001Y235877D02*
D03*
X413451Y229140D02*
D03*
X427323Y225680D02*
D03*
X440828Y224656D02*
D03*
X433676Y235268D02*
D03*
X116317Y575144D02*
D03*
X104270Y577822D02*
D03*
X104467Y569987D02*
D03*
X461694Y354696D02*
D03*
X458347Y360394D02*
D03*
X469266Y359666D02*
D03*
X497284Y365669D02*
D03*
X463788Y379687D02*
D03*
X471379Y379499D02*
D03*
X462205Y453160D02*
D03*
X473544Y479341D02*
D03*
X547481Y485719D02*
D03*
X509764Y500680D02*
D03*
X512284Y470118D02*
D03*
X337560Y556389D02*
D03*
X306536Y535522D02*
D03*
X313623Y536231D02*
D03*
X268110Y497203D02*
D03*
X266614Y504959D02*
D03*
X276102Y506691D02*
D03*
X278543Y517124D02*
D03*
X288054Y516741D02*
D03*
X288622Y526219D02*
D03*
X297559Y530392D02*
D03*
X301064Y498790D02*
D03*
X289568Y496113D02*
D03*
X301654Y507766D02*
D03*
X280237Y488278D02*
D03*
X302840Y488305D02*
D03*
X291912Y486195D02*
D03*
X242908Y528156D02*
D03*
X279607Y462137D02*
D03*
X257092Y514368D02*
D03*
X246164Y512258D02*
D03*
X267127Y551113D02*
D03*
X271615Y538042D02*
D03*
X247048Y540089D02*
D03*
X269449Y524971D02*
D03*
X259314Y531707D02*
D03*
X509961Y516152D02*
D03*
X449505Y493488D02*
D03*
X439269D02*
D03*
X429032D02*
D03*
X404415Y477619D02*
D03*
X401326Y457623D02*
D03*
Y447387D02*
D03*
Y437151D02*
D03*
Y426915D02*
D03*
Y416678D02*
D03*
Y406442D02*
D03*
X415354Y397677D02*
D03*
X401326Y324552D02*
D03*
Y314316D02*
D03*
Y304080D02*
D03*
X404400Y284080D02*
D03*
X414616Y283430D02*
D03*
X413554Y293611D02*
D03*
X407179Y301619D02*
D03*
Y311856D02*
D03*
Y322092D02*
D03*
Y332328D02*
D03*
Y424454D02*
D03*
Y434690D02*
D03*
Y444927D02*
D03*
X407442Y452727D02*
D03*
X426277Y487636D02*
D03*
X436513D02*
D03*
X446749D02*
D03*
X510349Y526169D02*
D03*
X538190Y496900D02*
D03*
X463039Y309663D02*
D03*
X14253Y528239D02*
D03*
X22048Y519576D02*
D03*
X80985Y527373D02*
D03*
X67638Y548121D02*
D03*
X48680Y150058D02*
D03*
X47240Y140441D02*
D03*
X38150Y150680D02*
D03*
X460276Y387648D02*
D03*
X464568Y434617D02*
D03*
X483780Y353711D02*
D03*
X374686Y534459D02*
D03*
X362993Y536703D02*
D03*
X206112Y217054D02*
D03*
X214174Y219223D02*
D03*
X194961Y222963D02*
D03*
X198347Y218003D02*
D03*
X210434Y224814D02*
D03*
X200513Y226349D02*
D03*
X144913Y214738D02*
D03*
X136851Y212570D02*
D03*
X156064Y208829D02*
D03*
X152678Y213790D02*
D03*
X140591Y206979D02*
D03*
X148544Y208278D02*
D03*
X141803Y191628D02*
D03*
X133741Y189459D02*
D03*
X152954Y185719D02*
D03*
X149568Y190680D02*
D03*
X137481Y183869D02*
D03*
X147402Y182334D02*
D03*
X81567Y519738D02*
D03*
X73505Y517570D02*
D03*
X92717Y513830D02*
D03*
X89331Y518790D02*
D03*
X77245Y511979D02*
D03*
X87166Y510444D02*
D03*
X70237Y539420D02*
D03*
X62599Y533278D02*
D03*
X61064Y543593D02*
D03*
X68111Y525916D02*
D03*
X81213Y571156D02*
D03*
X73150Y568987D02*
D03*
X92363Y565247D02*
D03*
X88977Y570208D02*
D03*
X76890Y563397D02*
D03*
X86812Y561861D02*
D03*
X31654Y510208D02*
D03*
X38229Y516822D02*
D03*
X15513Y510286D02*
D03*
X23347Y505483D02*
D03*
X144402Y453006D02*
D03*
X136339Y450837D02*
D03*
X155552Y447097D02*
D03*
X152166Y452058D02*
D03*
X140079Y445247D02*
D03*
X150001Y443711D02*
D03*
X216379Y477333D02*
D03*
X198150Y466349D02*
D03*
X184331Y466034D02*
D03*
X210906Y468908D02*
D03*
X189843Y472885D02*
D03*
X90552Y447294D02*
D03*
X203347Y475562D02*
D03*
X162166Y466231D02*
D03*
X151576Y466664D02*
D03*
X179095Y476664D02*
D03*
X171339Y467727D02*
D03*
X147914Y474971D02*
D03*
X138426Y469026D02*
D03*
X164804Y475719D02*
D03*
X414607Y154459D02*
D03*
X377166Y158515D02*
D03*
X345434Y163672D02*
D03*
X422993Y170877D02*
D03*
X504883Y554459D02*
D03*
X548139Y385158D02*
D03*
X548108Y392717D02*
D03*
X104016Y133200D02*
D03*
X545001Y561310D02*
D03*
X512914Y533633D02*
D03*
X530709Y541074D02*
D03*
X186654Y504341D02*
D03*
X178032Y511900D02*
D03*
X161851Y503003D02*
D03*
X148662Y505444D02*
D03*
X215598Y543680D02*
D03*
X253740Y590906D02*
D03*
X208465Y526940D02*
D03*
X208150Y535326D02*
D03*
X217442Y503987D02*
D03*
X255512Y548228D02*
D03*
X216417Y519213D02*
D03*
X222756Y539449D02*
D03*
X223976Y528858D02*
D03*
X259842Y574173D02*
D03*
X210119Y508672D02*
D03*
X223347Y513239D02*
D03*
X188820Y591389D02*
D03*
X170316Y586625D02*
D03*
X169056Y577333D02*
D03*
X174686Y581546D02*
D03*
X179213Y587845D02*
D03*
X185709Y586271D02*
D03*
X238898Y590798D02*
D03*
X173859Y591428D02*
D03*
X339371Y519774D02*
D03*
X287127Y538751D02*
D03*
X227796Y462648D02*
D03*
X270316Y470365D02*
D03*
X300591Y539814D02*
D03*
X234725Y471703D02*
D03*
X245867Y462373D02*
D03*
X266576Y460798D02*
D03*
X283072Y470089D02*
D03*
X311772Y518436D02*
D03*
X94331Y437963D02*
D03*
X324253Y519223D02*
D03*
X65670Y230916D02*
D03*
X284489Y226625D02*
D03*
X282442Y238357D02*
D03*
X220355Y172412D02*
D03*
X309617Y162438D02*
D03*
X325355Y129381D02*
D03*
X183190Y571979D02*
D03*
X180685Y378264D02*
D03*
X221457Y363357D02*
D03*
X214450Y368593D02*
D03*
X208595Y375726D02*
D03*
X199398Y369700D02*
D03*
X190198Y372885D02*
D03*
X124663Y425634D02*
D03*
X108556Y424714D02*
D03*
X123742Y411598D02*
D03*
X116615Y416428D02*
D03*
X97284Y402018D02*
D03*
X88741Y412097D02*
D03*
X197603Y399403D02*
D03*
X197599Y407688D02*
D03*
X317087Y440562D02*
D03*
X389883Y446625D02*
D03*
X301024Y458711D02*
D03*
X355631Y495050D02*
D03*
X350513Y495011D02*
D03*
X319410Y428003D02*
D03*
X328898Y419381D02*
D03*
X392678Y459735D02*
D03*
X365591Y483711D02*
D03*
X384450Y469105D02*
D03*
X93741Y420562D02*
D03*
X101457Y428003D02*
D03*
X100788Y412609D02*
D03*
X110946Y437452D02*
D03*
X119578Y434564D02*
D03*
X238111Y421940D02*
D03*
X198043Y387005D02*
D03*
X114690Y397664D02*
D03*
X115970Y388070D02*
D03*
X110394Y387570D02*
D03*
X102638Y396389D02*
D03*
X109056Y403515D02*
D03*
X294528Y115877D02*
D03*
X295602Y110194D02*
D03*
X311694Y132648D02*
D03*
X301850Y163465D02*
D03*
X308543Y173228D02*
D03*
X192413Y261060D02*
D03*
X197531Y257241D02*
D03*
X202531Y251414D02*
D03*
X185670Y245601D02*
D03*
X185602Y253580D02*
D03*
X161536Y245522D02*
D03*
X147058Y250588D02*
D03*
X140709Y245601D02*
D03*
X119647Y245939D02*
D03*
X124972Y251257D02*
D03*
X115838D02*
D03*
X130129Y246099D02*
D03*
X136143Y251113D02*
D03*
X151457Y245011D02*
D03*
X155681Y250430D02*
D03*
X167127Y250916D02*
D03*
X176379Y251231D02*
D03*
X172048Y244774D02*
D03*
X295749Y38042D02*
D03*
X257205Y21349D02*
D03*
X257245Y33869D02*
D03*
X199016Y55719D02*
D03*
X349922Y141585D02*
D03*
X418940Y120945D02*
D03*
X350905Y121625D02*
D03*
X286536Y297570D02*
D03*
X283032D02*
D03*
X279528D02*
D03*
X276024D02*
D03*
X286497Y301113D02*
D03*
X282993D02*
D03*
X279489D02*
D03*
X275985D02*
D03*
X286536Y304656D02*
D03*
X283032D02*
D03*
X279528D02*
D03*
X276024D02*
D03*
X286576Y308200D02*
D03*
X283072D02*
D03*
X279568D02*
D03*
X276064D02*
D03*
X251772Y326546D02*
D03*
X255276D02*
D03*
X258780D02*
D03*
X262284D02*
D03*
X251733Y323003D02*
D03*
X255237D02*
D03*
X258741D02*
D03*
X262245D02*
D03*
X251694Y319459D02*
D03*
X255198D02*
D03*
X258701D02*
D03*
X262205D02*
D03*
X251733Y315916D02*
D03*
X255237D02*
D03*
X258741D02*
D03*
X262245D02*
D03*
X276182Y326428D02*
D03*
X279686D02*
D03*
X283190D02*
D03*
X272599Y326507D02*
D03*
X276143Y322885D02*
D03*
X279646D02*
D03*
X283150D02*
D03*
X272560Y322963D02*
D03*
X276103Y319341D02*
D03*
X279607D02*
D03*
X283111D02*
D03*
X272520Y319420D02*
D03*
X276143Y315798D02*
D03*
X279646D02*
D03*
X283150D02*
D03*
X272560Y315877D02*
D03*
X262205Y297294D02*
D03*
X258701D02*
D03*
X255198D02*
D03*
X251694D02*
D03*
X262166Y300837D02*
D03*
X258662D02*
D03*
X255158D02*
D03*
X251654D02*
D03*
X262205Y304381D02*
D03*
X258701D02*
D03*
X255198D02*
D03*
X251694D02*
D03*
X262245Y307924D02*
D03*
X258741D02*
D03*
X255237D02*
D03*
X251733D02*
D03*
X507166Y93711D02*
D03*
X510699D02*
D03*
X514231D02*
D03*
X517764D02*
D03*
X521296D02*
D03*
X524829D02*
D03*
X528362D02*
D03*
X531894D02*
D03*
X535427D02*
D03*
X538959D02*
D03*
X542492D02*
D03*
X358938Y57294D02*
D03*
X351873D02*
D03*
X344808D02*
D03*
X369593Y52176D02*
D03*
X362528D02*
D03*
X355463D02*
D03*
X190158Y341231D02*
D03*
X193662D02*
D03*
X197166D02*
D03*
X200670D02*
D03*
X197087Y291113D02*
D03*
X200788D02*
D03*
X190119D02*
D03*
X193623D02*
D03*
X190434Y316152D02*
D03*
X193938D02*
D03*
X197442D02*
D03*
X200946D02*
D03*
X200828Y328239D02*
D03*
X204331D02*
D03*
X207835D02*
D03*
X211339D02*
D03*
X212402Y353436D02*
D03*
X208898D02*
D03*
X205394D02*
D03*
X201890D02*
D03*
X487205Y29420D02*
D03*
X485316Y116546D02*
D03*
X476733Y124302D02*
D03*
X480591Y124263D02*
D03*
X476930Y37963D02*
D03*
X480788Y37924D02*
D03*
X388426Y38278D02*
D03*
X384568Y38318D02*
D03*
X393308Y30129D02*
D03*
X541785Y104774D02*
D03*
X552796Y143396D02*
D03*
Y147675D02*
D03*
Y151953D02*
D03*
Y156231D02*
D03*
X511457Y104774D02*
D03*
X515736D02*
D03*
X520014D02*
D03*
X524292D02*
D03*
X549016Y18200D02*
D03*
X553111Y22832D02*
D03*
Y18554D02*
D03*
X512717Y18081D02*
D03*
X516995D02*
D03*
X521274D02*
D03*
X525552D02*
D03*
X460158Y57845D02*
D03*
Y62124D02*
D03*
Y66402D02*
D03*
Y70680D02*
D03*
X447914Y17137D02*
D03*
X452192D02*
D03*
X456470D02*
D03*
X460749D02*
D03*
X431694D02*
D03*
X427415D02*
D03*
X423137D02*
D03*
X418859D02*
D03*
X321300Y340365D02*
D03*
X65788Y358042D02*
D03*
X65709Y419578D02*
D03*
Y305011D02*
D03*
X461024Y286664D02*
D03*
X260394Y233554D02*
D03*
X264843Y226389D02*
D03*
X294416Y162013D02*
D03*
X283426Y421507D02*
D03*
X190079Y353436D02*
D03*
Y328318D02*
D03*
X189764Y278357D02*
D03*
X190079Y303436D02*
D03*
X199528Y271074D02*
D03*
X242914Y375837D02*
D03*
X281024Y376507D02*
D03*
X252245Y386900D02*
D03*
X275513Y357137D02*
D03*
X255827Y357097D02*
D03*
X247954Y357137D02*
D03*
X272717Y268239D02*
D03*
X243977Y351192D02*
D03*
Y337412D02*
D03*
Y323633D02*
D03*
Y309853D02*
D03*
Y296074D02*
D03*
X244017Y270129D02*
D03*
X265670D02*
D03*
X293229D02*
D03*
X307166Y311822D02*
D03*
Y357097D02*
D03*
Y341389D02*
D03*
X403072Y35326D02*
D03*
X402717Y25247D02*
D03*
X496221Y24460D02*
D03*
X496024Y34499D02*
D03*
X495198Y111428D02*
D03*
X495237Y121507D02*
D03*
X155198Y101034D02*
D03*
X86221Y100877D02*
D03*
X75040Y150483D02*
D03*
X523780Y115027D02*
D03*
X519056Y118964D02*
D03*
X523780D02*
D03*
Y122901D02*
D03*
X519056Y115027D02*
D03*
Y122901D02*
D03*
X525198Y28080D02*
D03*
X520473Y32017D02*
D03*
X525198D02*
D03*
Y35954D02*
D03*
X520473Y28080D02*
D03*
Y35954D02*
D03*
X431410Y28809D02*
D03*
X426686Y32746D02*
D03*
X431410D02*
D03*
Y36683D02*
D03*
X426686Y28809D02*
D03*
Y36683D02*
D03*
D244*
X245473Y29814D02*
D03*
X372245Y31546D02*
D03*
X362245Y21546D02*
D03*
X355245Y39046D02*
D03*
X369245Y25046D02*
D03*
X355245Y24546D02*
D03*
X369245Y38546D02*
D03*
X352245Y31546D02*
D03*
X362245Y41546D02*
D03*
X159725Y582412D02*
D03*
X149725Y572412D02*
D03*
X142725Y589912D02*
D03*
X156725Y575912D02*
D03*
X142725Y575412D02*
D03*
X156725Y589412D02*
D03*
X139725Y582412D02*
D03*
X149725Y592412D02*
D03*
M02*
