G04 #@! TF.GenerationSoftware,KiCad,Pcbnew,8.0.0-rc1*
G04 #@! TF.CreationDate,2024-05-28T16:40:15+03:00*
G04 #@! TF.ProjectId,MXVR_3566,4d585652-5f33-4353-9636-2e6b69636164,REV1*
G04 #@! TF.SameCoordinates,Original*
G04 #@! TF.FileFunction,Other,User*
%FSLAX46Y46*%
G04 Gerber Fmt 4.6, Leading zero omitted, Abs format (unit mm)*
G04 Created by KiCad (PCBNEW 8.0.0-rc1) date 2024-05-28 16:40:15*
%MOMM*%
%LPD*%
G01*
G04 APERTURE LIST*
%ADD10C,0.050000*%
%ADD11C,0.100000*%
%ADD12C,0.150000*%
G04 APERTURE END LIST*
D10*
X89780000Y-134850000D02*
X92080000Y-134850000D01*
X92080000Y-137250000D02*
X89780000Y-137250000D01*
X92080000Y-134850000D02*
X92080000Y-137250000D01*
X89780000Y-137250000D02*
X89780000Y-134850000D01*
X162080000Y-136665000D02*
X158680000Y-136665000D01*
X158680000Y-136665000D02*
X158680000Y-140765000D01*
X162080000Y-140765000D02*
X162080000Y-136665000D01*
X158680000Y-140765000D02*
X162080000Y-140765000D01*
X88210000Y-137810000D02*
X88210000Y-134850000D01*
X88210000Y-134850000D02*
X89670000Y-134850000D01*
X89670000Y-137810000D02*
X88210000Y-137810000D01*
X89670000Y-134850000D02*
X89670000Y-137810000D01*
X179690000Y-104340000D02*
X181550000Y-104340000D01*
X179690000Y-105280000D02*
X179690000Y-104340000D01*
X181550000Y-104340000D02*
X181550000Y-105280000D01*
X181550000Y-105280000D02*
X179690000Y-105280000D01*
X198230000Y-73060000D02*
X198230000Y-80060000D01*
X198230000Y-80060000D02*
X201230000Y-80060000D01*
X201230000Y-73060000D02*
X198230000Y-73060000D01*
X201230000Y-80060000D02*
X201230000Y-73060000D01*
X101230000Y-75785000D02*
X104190000Y-75785000D01*
X101230000Y-77245000D02*
X101230000Y-75785000D01*
X104190000Y-75785000D02*
X104190000Y-77245000D01*
X104190000Y-77245000D02*
X101230000Y-77245000D01*
X81870000Y-77440000D02*
X83690000Y-77440000D01*
X81870000Y-78360000D02*
X81870000Y-77440000D01*
X83690000Y-77440000D02*
X83690000Y-78360000D01*
X83690000Y-78360000D02*
X81870000Y-78360000D01*
X170260000Y-142490000D02*
X171200000Y-142490000D01*
X170260000Y-144350000D02*
X170260000Y-142490000D01*
X171200000Y-142490000D02*
X171200000Y-144350000D01*
X171200000Y-144350000D02*
X170260000Y-144350000D01*
X170260000Y-97540000D02*
X171200000Y-97540000D01*
X170260000Y-99400000D02*
X170260000Y-97540000D01*
X171200000Y-97540000D02*
X171200000Y-99400000D01*
X171200000Y-99400000D02*
X170260000Y-99400000D01*
X81870000Y-76450000D02*
X83690000Y-76450000D01*
X81870000Y-77370000D02*
X81870000Y-76450000D01*
X83690000Y-76450000D02*
X83690000Y-77370000D01*
X83690000Y-77370000D02*
X81870000Y-77370000D01*
X89080000Y-63945000D02*
X90540000Y-63945000D01*
X89080000Y-66905000D02*
X89080000Y-63945000D01*
X90540000Y-63945000D02*
X90540000Y-66905000D01*
X90540000Y-66905000D02*
X89080000Y-66905000D01*
X180915000Y-78690000D02*
X180915000Y-81520000D01*
X181815000Y-76870000D02*
X181815000Y-77790000D01*
X181815000Y-77790000D02*
X180915000Y-78690000D01*
X181815000Y-81520000D02*
X180915000Y-81520000D01*
X181815000Y-82370000D02*
X181815000Y-81520000D01*
X183815000Y-76870000D02*
X181815000Y-76870000D01*
X183815000Y-77790000D02*
X183815000Y-76870000D01*
X183815000Y-77790000D02*
X184715000Y-78690000D01*
X183815000Y-81520000D02*
X183815000Y-82370000D01*
X183815000Y-82370000D02*
X181815000Y-82370000D01*
X184715000Y-78690000D02*
X184715000Y-81520000D01*
X184715000Y-81520000D02*
X183815000Y-81520000D01*
X99020000Y-44460000D02*
X119610000Y-44460000D01*
X119610000Y-54860000D01*
X99020000Y-54860000D01*
X99020000Y-44460000D01*
X175680000Y-105450000D02*
X177540000Y-105450000D01*
X175680000Y-106390000D02*
X175680000Y-105450000D01*
X177540000Y-105450000D02*
X177540000Y-106390000D01*
X177540000Y-106390000D02*
X175680000Y-106390000D01*
X137520000Y-132590000D02*
X139340000Y-132590000D01*
X137520000Y-133510000D02*
X137520000Y-132590000D01*
X139340000Y-132590000D02*
X139340000Y-133510000D01*
X139340000Y-133510000D02*
X137520000Y-133510000D01*
X159090000Y-140830000D02*
X160550000Y-140830000D01*
X159090000Y-143790000D02*
X159090000Y-140830000D01*
X160550000Y-140830000D02*
X160550000Y-143790000D01*
X160550000Y-143790000D02*
X159090000Y-143790000D01*
X183415000Y-138005000D02*
X185275000Y-138005000D01*
X183415000Y-138945000D02*
X183415000Y-138005000D01*
X185275000Y-138005000D02*
X185275000Y-138945000D01*
X185275000Y-138945000D02*
X183415000Y-138945000D01*
X73850000Y-72390000D02*
X73850000Y-74390000D01*
X73850000Y-72390000D02*
X75850000Y-72390000D01*
X75850000Y-74390000D02*
X73850000Y-74390000D01*
X75850000Y-74390000D02*
X75850000Y-72390000D01*
X90615000Y-63945000D02*
X92075000Y-63945000D01*
X90615000Y-66905000D02*
X90615000Y-63945000D01*
X92075000Y-63945000D02*
X92075000Y-66905000D01*
X92075000Y-66905000D02*
X90615000Y-66905000D01*
X97000000Y-93862500D02*
X98460000Y-93862500D01*
X97000000Y-96822500D02*
X97000000Y-93862500D01*
X98460000Y-93862500D02*
X98460000Y-96822500D01*
X98460000Y-96822500D02*
X97000000Y-96822500D01*
D11*
X125130000Y-44830000D02*
X130830000Y-44830000D01*
X125130000Y-54530000D02*
X125130000Y-44830000D01*
X130830000Y-44830000D02*
X130830000Y-54530000D01*
X130830000Y-54530000D02*
X125130000Y-54530000D01*
D10*
X179690000Y-107360000D02*
X181550000Y-107360000D01*
X179690000Y-108300000D02*
X179690000Y-107360000D01*
X181550000Y-107360000D02*
X181550000Y-108300000D01*
X181550000Y-108300000D02*
X179690000Y-108300000D01*
X70180000Y-111890000D02*
X73140000Y-111890000D01*
X70180000Y-113350000D02*
X70180000Y-111890000D01*
X73140000Y-111890000D02*
X73140000Y-113350000D01*
X73140000Y-113350000D02*
X70180000Y-113350000D01*
X67425000Y-123690000D02*
X70385000Y-123690000D01*
X67425000Y-125150000D02*
X67425000Y-123690000D01*
X70385000Y-123690000D02*
X70385000Y-125150000D01*
X70385000Y-125150000D02*
X67425000Y-125150000D01*
X131642510Y-152030010D02*
X138642510Y-152030010D01*
X131642510Y-155530010D02*
X131642510Y-152030010D01*
X138642510Y-152030010D02*
X138642510Y-155530010D01*
X138642510Y-155530010D02*
X131642510Y-155530010D01*
X142840010Y-132820010D02*
X145800010Y-132820010D01*
X142840010Y-134280010D02*
X142840010Y-132820010D01*
X145800010Y-132820010D02*
X145800010Y-134280010D01*
X145800010Y-134280010D02*
X142840010Y-134280010D01*
X98290000Y-125280000D02*
X99750000Y-125280000D01*
X98290000Y-128240000D02*
X98290000Y-125280000D01*
X99750000Y-125280000D02*
X99750000Y-128240000D01*
X99750000Y-128240000D02*
X98290000Y-128240000D01*
D11*
X66567500Y-116800000D02*
X73492500Y-116800000D01*
X66567500Y-120450000D02*
X66567500Y-116800000D01*
X73492500Y-116800000D02*
X73492500Y-120450000D01*
X73492500Y-120450000D02*
X66567500Y-120450000D01*
D10*
X168910000Y-109490000D02*
X169830000Y-109490000D01*
X168910000Y-111310000D02*
X168910000Y-109490000D01*
X169830000Y-109490000D02*
X169830000Y-111310000D01*
X169830000Y-111310000D02*
X168910000Y-111310000D01*
X173190000Y-133165000D02*
X173190000Y-141405000D01*
X173190000Y-141405000D02*
X181430000Y-141405000D01*
X181430000Y-133165000D02*
X173190000Y-133165000D01*
X181430000Y-141405000D02*
X181430000Y-133165000D01*
X67425000Y-125220000D02*
X70385000Y-125220000D01*
X67425000Y-126680000D02*
X67425000Y-125220000D01*
X70385000Y-125220000D02*
X70385000Y-126680000D01*
X70385000Y-126680000D02*
X67425000Y-126680000D01*
X169120000Y-74220000D02*
X172120000Y-74220000D01*
X169120000Y-75720000D02*
X169120000Y-74220000D01*
X172120000Y-74220000D02*
X172120000Y-75720000D01*
X172120000Y-75720000D02*
X169120000Y-75720000D01*
X121070010Y-128500010D02*
X124030010Y-128500010D01*
X121070010Y-129960010D02*
X121070010Y-128500010D01*
X124030010Y-128500010D02*
X124030010Y-129960010D01*
X124030010Y-129960010D02*
X121070010Y-129960010D01*
X123640010Y-152020010D02*
X130640010Y-152020010D01*
X123640010Y-155520010D02*
X123640010Y-152020010D01*
X130640010Y-152020010D02*
X130640010Y-155520010D01*
X130640010Y-155520010D02*
X123640010Y-155520010D01*
X57440000Y-146440000D02*
X58380000Y-146440000D01*
X57440000Y-148300000D02*
X57440000Y-146440000D01*
X58380000Y-146440000D02*
X58380000Y-148300000D01*
X58380000Y-148300000D02*
X57440000Y-148300000D01*
X160910000Y-105970000D02*
X162770000Y-105970000D01*
X160910000Y-106910000D02*
X160910000Y-105970000D01*
X162770000Y-105970000D02*
X162770000Y-106910000D01*
X162770000Y-106910000D02*
X160910000Y-106910000D01*
X87840000Y-34370000D02*
X89300000Y-34370000D01*
X87840000Y-37330000D02*
X87840000Y-34370000D01*
X89300000Y-34370000D02*
X89300000Y-37330000D01*
X89300000Y-37330000D02*
X87840000Y-37330000D01*
X128050010Y-145290010D02*
X128970010Y-145290010D01*
X128050010Y-147110010D02*
X128050010Y-145290010D01*
X128970010Y-145290010D02*
X128970010Y-147110010D01*
X128970010Y-147110010D02*
X128050010Y-147110010D01*
X90880000Y-34380000D02*
X92340000Y-34380000D01*
X90880000Y-37340000D02*
X90880000Y-34380000D01*
X92340000Y-34380000D02*
X92340000Y-37340000D01*
X92340000Y-37340000D02*
X90880000Y-37340000D01*
X138430000Y-138920000D02*
X141390000Y-138920000D01*
X138430000Y-140380000D02*
X138430000Y-138920000D01*
X141390000Y-138920000D02*
X141390000Y-140380000D01*
X141390000Y-140380000D02*
X138430000Y-140380000D01*
X85630000Y-76640000D02*
X88590000Y-76640000D01*
X85630000Y-78100000D02*
X85630000Y-76640000D01*
X88590000Y-76640000D02*
X88590000Y-78100000D01*
X88590000Y-78100000D02*
X85630000Y-78100000D01*
X191040000Y-73755000D02*
X191040000Y-76585000D01*
X191940000Y-71935000D02*
X191940000Y-72855000D01*
X191940000Y-72855000D02*
X191040000Y-73755000D01*
X191940000Y-76585000D02*
X191040000Y-76585000D01*
X191940000Y-77435000D02*
X191940000Y-76585000D01*
X193940000Y-71935000D02*
X191940000Y-71935000D01*
X193940000Y-72855000D02*
X193940000Y-71935000D01*
X193940000Y-72855000D02*
X194840000Y-73755000D01*
X193940000Y-76585000D02*
X193940000Y-77435000D01*
X193940000Y-77435000D02*
X191940000Y-77435000D01*
X194840000Y-73755000D02*
X194840000Y-76585000D01*
X194840000Y-76585000D02*
X193940000Y-76585000D01*
X156135000Y-146735000D02*
X159095000Y-146735000D01*
X156135000Y-148195000D02*
X156135000Y-146735000D01*
X159095000Y-146735000D02*
X159095000Y-148195000D01*
X159095000Y-148195000D02*
X156135000Y-148195000D01*
X189780000Y-146450000D02*
X190700000Y-146450000D01*
X189780000Y-148270000D02*
X189780000Y-146450000D01*
X190700000Y-146450000D02*
X190700000Y-148270000D01*
X190700000Y-148270000D02*
X189780000Y-148270000D01*
X163760000Y-93800000D02*
X163760000Y-97200000D01*
X163760000Y-97200000D02*
X167960000Y-97200000D01*
X167960000Y-93800000D02*
X163760000Y-93800000D01*
X167960000Y-97200000D02*
X167960000Y-93800000D01*
X131695010Y-150370010D02*
X134655010Y-150370010D01*
X131695010Y-151830010D02*
X131695010Y-150370010D01*
X134655010Y-150370010D02*
X134655010Y-151830010D01*
X134655010Y-151830010D02*
X131695010Y-151830010D01*
X169260000Y-97550000D02*
X170200000Y-97550000D01*
X169260000Y-99410000D02*
X169260000Y-97550000D01*
X170200000Y-97550000D02*
X170200000Y-99410000D01*
X170200000Y-99410000D02*
X169260000Y-99410000D01*
X126580000Y-126730000D02*
X127520000Y-126730000D01*
X126580000Y-128590000D02*
X126580000Y-126730000D01*
X127520000Y-126730000D02*
X127520000Y-128590000D01*
X127520000Y-128590000D02*
X126580000Y-128590000D01*
X49780000Y-138870000D02*
X49780000Y-149770000D01*
X49780000Y-149770000D02*
X55280000Y-149770000D01*
X55280000Y-138870000D02*
X49780000Y-138870000D01*
X55280000Y-149770000D02*
X55280000Y-138870000D01*
X188320000Y-71975000D02*
X189780000Y-71975000D01*
X188320000Y-74935000D02*
X188320000Y-71975000D01*
X189780000Y-71975000D02*
X189780000Y-74935000D01*
X189780000Y-74935000D02*
X188320000Y-74935000D01*
X101230000Y-69685000D02*
X104190000Y-69685000D01*
X101230000Y-71145000D02*
X101230000Y-69685000D01*
X104190000Y-69685000D02*
X104190000Y-71145000D01*
X104190000Y-71145000D02*
X101230000Y-71145000D01*
X196260000Y-76140000D02*
X198120000Y-76140000D01*
X196260000Y-77080000D02*
X196260000Y-76140000D01*
X198120000Y-76140000D02*
X198120000Y-77080000D01*
X198120000Y-77080000D02*
X196260000Y-77080000D01*
X135780010Y-148850010D02*
X138740010Y-148850010D01*
X135780010Y-150310010D02*
X135780010Y-148850010D01*
X138740010Y-148850010D02*
X138740010Y-150310010D01*
X138740010Y-150310010D02*
X135780010Y-150310010D01*
X111400000Y-80755000D02*
X112860000Y-80755000D01*
X111400000Y-83715000D02*
X111400000Y-80755000D01*
X112860000Y-80755000D02*
X112860000Y-83715000D01*
X112860000Y-83715000D02*
X111400000Y-83715000D01*
X133747510Y-149120010D02*
X135607510Y-149120010D01*
X133747510Y-150060010D02*
X133747510Y-149120010D01*
X135607510Y-149120010D02*
X135607510Y-150060010D01*
X135607510Y-150060010D02*
X133747510Y-150060010D01*
X68025000Y-94255000D02*
X70985000Y-94255000D01*
X68025000Y-95715000D02*
X68025000Y-94255000D01*
X70985000Y-94255000D02*
X70985000Y-95715000D01*
X70985000Y-95715000D02*
X68025000Y-95715000D01*
X115065010Y-127258010D02*
X118665010Y-127258010D01*
X115065010Y-131508010D02*
X115065010Y-127258010D01*
X118665010Y-127258010D02*
X118665010Y-131508010D01*
X118665010Y-131508010D02*
X115065010Y-131508010D01*
X129170000Y-126750000D02*
X130110000Y-126750000D01*
X129170000Y-128610000D02*
X129170000Y-126750000D01*
X130110000Y-126750000D02*
X130110000Y-128610000D01*
X130110000Y-128610000D02*
X129170000Y-128610000D01*
X162080000Y-97800000D02*
X163000000Y-97800000D01*
X162080000Y-99620000D02*
X162080000Y-97800000D01*
X163000000Y-97800000D02*
X163000000Y-99620000D01*
X163000000Y-99620000D02*
X162080000Y-99620000D01*
X170790000Y-146747500D02*
X172250000Y-146747500D01*
X170790000Y-149707500D02*
X170790000Y-146747500D01*
X172250000Y-146747500D02*
X172250000Y-149707500D01*
X172250000Y-149707500D02*
X170790000Y-149707500D01*
X160900000Y-106980000D02*
X162720000Y-106980000D01*
X160900000Y-107900000D02*
X160900000Y-106980000D01*
X162720000Y-106980000D02*
X162720000Y-107900000D01*
X162720000Y-107900000D02*
X160900000Y-107900000D01*
X66440000Y-39000000D02*
G75*
G02*
X63440000Y-39000000I-1500000J0D01*
G01*
X63440000Y-39000000D02*
G75*
G02*
X66440000Y-39000000I1500000J0D01*
G01*
X135180010Y-145240010D02*
X136100010Y-145240010D01*
X135180010Y-147060010D02*
X135180010Y-145240010D01*
X136100010Y-145240010D02*
X136100010Y-147060010D01*
X136100010Y-147060010D02*
X135180010Y-147060010D01*
X178657500Y-129225000D02*
X180117500Y-129225000D01*
X178657500Y-132185000D02*
X178657500Y-129225000D01*
X180117500Y-129225000D02*
X180117500Y-132185000D01*
X180117500Y-132185000D02*
X178657500Y-132185000D01*
X81200000Y-61640000D02*
X84350000Y-61640000D01*
X81200000Y-64640000D02*
X81200000Y-61640000D01*
X81200000Y-64640000D02*
X84350000Y-64640000D01*
X84350000Y-64640000D02*
X84350000Y-61640000D01*
X182840000Y-62300000D02*
G75*
G02*
X181340000Y-62300000I-750000J0D01*
G01*
X181340000Y-62300000D02*
G75*
G02*
X182840000Y-62300000I750000J0D01*
G01*
X175690000Y-107465000D02*
X177550000Y-107465000D01*
X175690000Y-108405000D02*
X175690000Y-107465000D01*
X177550000Y-107465000D02*
X177550000Y-108405000D01*
X177550000Y-108405000D02*
X175690000Y-108405000D01*
X121075010Y-130030010D02*
X124035010Y-130030010D01*
X121075010Y-131490010D02*
X121075010Y-130030010D01*
X124035010Y-130030010D02*
X124035010Y-131490010D01*
X124035010Y-131490010D02*
X121075010Y-131490010D01*
X138930000Y-140450000D02*
X139850000Y-140450000D01*
X138930000Y-142270000D02*
X138930000Y-140450000D01*
X139850000Y-140450000D02*
X139850000Y-142270000D01*
X139850000Y-142270000D02*
X138930000Y-142270000D01*
X134705010Y-150370010D02*
X137665010Y-150370010D01*
X134705010Y-151830010D02*
X134705010Y-150370010D01*
X137665010Y-150370010D02*
X137665010Y-151830010D01*
X137665010Y-151830010D02*
X134705010Y-151830010D01*
X113460010Y-125525010D02*
X114920010Y-125525010D01*
X113460010Y-128485010D02*
X113460010Y-125525010D01*
X114920010Y-125525010D02*
X114920010Y-128485010D01*
X114920010Y-128485010D02*
X113460010Y-128485010D01*
X70130000Y-113420000D02*
X70130000Y-116570000D01*
X70130000Y-113420000D02*
X73130000Y-113420000D01*
X70130000Y-116570000D02*
X73130000Y-116570000D01*
X73130000Y-113420000D02*
X73130000Y-116570000D01*
X185183489Y-120260000D02*
X186643489Y-120260000D01*
X185183489Y-123220000D02*
X185183489Y-120260000D01*
X186643489Y-120260000D02*
X186643489Y-123220000D01*
X186643489Y-123220000D02*
X185183489Y-123220000D01*
X180308489Y-120270000D02*
X181768489Y-120270000D01*
X180308489Y-123230000D02*
X180308489Y-120270000D01*
X181768489Y-120270000D02*
X181768489Y-123230000D01*
X181768489Y-123230000D02*
X180308489Y-123230000D01*
X101230000Y-71180000D02*
X104190000Y-71180000D01*
X101230000Y-72640000D02*
X101230000Y-71180000D01*
X104190000Y-71180000D02*
X104190000Y-72640000D01*
X104190000Y-72640000D02*
X101230000Y-72640000D01*
X179690000Y-102340000D02*
X181550000Y-102340000D01*
X179690000Y-103280000D02*
X179690000Y-102340000D01*
X181550000Y-102340000D02*
X181550000Y-103280000D01*
X181550000Y-103280000D02*
X179690000Y-103280000D01*
X101017500Y-102478750D02*
X103977500Y-102478750D01*
X101017500Y-103938750D02*
X101017500Y-102478750D01*
X103977500Y-102478750D02*
X103977500Y-103938750D01*
X103977500Y-103938750D02*
X101017500Y-103938750D01*
X173840000Y-146752500D02*
X175300000Y-146752500D01*
X173840000Y-149712500D02*
X173840000Y-146752500D01*
X175300000Y-146752500D02*
X175300000Y-149712500D01*
X175300000Y-149712500D02*
X173840000Y-149712500D01*
X178560000Y-99600000D02*
X179480000Y-99600000D01*
X178560000Y-101420000D02*
X178560000Y-99600000D01*
X179480000Y-99600000D02*
X179480000Y-101420000D01*
X179480000Y-101420000D02*
X178560000Y-101420000D01*
X170790000Y-149772500D02*
X172250000Y-149772500D01*
X170790000Y-152732500D02*
X170790000Y-149772500D01*
X172250000Y-149772500D02*
X172250000Y-152732500D01*
X172250000Y-152732500D02*
X170790000Y-152732500D01*
X179690000Y-100330000D02*
X181550000Y-100330000D01*
X179690000Y-101270000D02*
X179690000Y-100330000D01*
X181550000Y-100330000D02*
X181550000Y-101270000D01*
X181550000Y-101270000D02*
X179690000Y-101270000D01*
X66945000Y-115120000D02*
X69905000Y-115120000D01*
X66945000Y-116580000D02*
X66945000Y-115120000D01*
X69905000Y-115120000D02*
X69905000Y-116580000D01*
X69905000Y-116580000D02*
X66945000Y-116580000D01*
X166280000Y-69820000D02*
X168100000Y-69820000D01*
X166280000Y-70740000D02*
X166280000Y-69820000D01*
X168100000Y-69820000D02*
X168100000Y-70740000D01*
X168100000Y-70740000D02*
X166280000Y-70740000D01*
X101230000Y-74235000D02*
X104190000Y-74235000D01*
X101230000Y-75695000D02*
X101230000Y-74235000D01*
X104190000Y-74235000D02*
X104190000Y-75695000D01*
X104190000Y-75695000D02*
X101230000Y-75695000D01*
X109090000Y-97880000D02*
X110550000Y-97880000D01*
X109090000Y-100840000D02*
X109090000Y-97880000D01*
X110550000Y-97880000D02*
X110550000Y-100840000D01*
X110550000Y-100840000D02*
X109090000Y-100840000D01*
X176125000Y-129220000D02*
X177065000Y-129220000D01*
X176125000Y-131080000D02*
X176125000Y-129220000D01*
X177065000Y-129220000D02*
X177065000Y-131080000D01*
X177065000Y-131080000D02*
X176125000Y-131080000D01*
X173085000Y-129215000D02*
X174545000Y-129215000D01*
X173085000Y-132175000D02*
X173085000Y-129215000D01*
X174545000Y-129215000D02*
X174545000Y-132175000D01*
X174545000Y-132175000D02*
X173085000Y-132175000D01*
X95160000Y-78555000D02*
X96620000Y-78555000D01*
X95160000Y-81515000D02*
X95160000Y-78555000D01*
X96620000Y-78555000D02*
X96620000Y-81515000D01*
X96620000Y-81515000D02*
X95160000Y-81515000D01*
X159310000Y-133625000D02*
X160770000Y-133625000D01*
X159310000Y-136585000D02*
X159310000Y-133625000D01*
X160770000Y-133625000D02*
X160770000Y-136585000D01*
X160770000Y-136585000D02*
X159310000Y-136585000D01*
X179680000Y-108370000D02*
X181540000Y-108370000D01*
X179680000Y-109310000D02*
X179680000Y-108370000D01*
X181540000Y-108370000D02*
X181540000Y-109310000D01*
X181540000Y-109310000D02*
X179680000Y-109310000D01*
X189305000Y-136890000D02*
X192265000Y-136890000D01*
X189305000Y-138350000D02*
X189305000Y-136890000D01*
X192265000Y-136890000D02*
X192265000Y-138350000D01*
X192265000Y-138350000D02*
X189305000Y-138350000D01*
X95245000Y-63920000D02*
X96705000Y-63920000D01*
X95245000Y-66880000D02*
X95245000Y-63920000D01*
X96705000Y-63920000D02*
X96705000Y-66880000D01*
X96705000Y-66880000D02*
X95245000Y-66880000D01*
X163885000Y-101805000D02*
X170135000Y-101805000D01*
X163885000Y-108055000D02*
X163885000Y-101805000D01*
X170135000Y-101805000D02*
X170135000Y-108055000D01*
X170135000Y-108055000D02*
X163885000Y-108055000D01*
X156130000Y-148275000D02*
X159090000Y-148275000D01*
X156130000Y-149735000D02*
X156130000Y-148275000D01*
X159090000Y-148275000D02*
X159090000Y-149735000D01*
X159090000Y-149735000D02*
X156130000Y-149735000D01*
X141460000Y-146950000D02*
X141460000Y-148950000D01*
X141460000Y-146950000D02*
X143460000Y-146950000D01*
X143460000Y-148950000D02*
X141460000Y-148950000D01*
X143460000Y-148950000D02*
X143460000Y-146950000D01*
X186460000Y-51550000D02*
X188280000Y-51550000D01*
X186460000Y-52470000D02*
X186460000Y-51550000D01*
X188280000Y-51550000D02*
X188280000Y-52470000D01*
X188280000Y-52470000D02*
X186460000Y-52470000D01*
X128705000Y-40570000D02*
X94055000Y-40570000D01*
X94055000Y-24820000D01*
X128705000Y-24820000D01*
X128705000Y-40570000D01*
X99845000Y-63935000D02*
X101305000Y-63935000D01*
X99845000Y-66895000D02*
X99845000Y-63935000D01*
X101305000Y-63935000D02*
X101305000Y-66895000D01*
X101305000Y-66895000D02*
X99845000Y-66895000D01*
X118775010Y-125545010D02*
X120235010Y-125545010D01*
X118775010Y-128505010D02*
X118775010Y-125545010D01*
X120235010Y-125545010D02*
X120235010Y-128505010D01*
X120235010Y-128505010D02*
X118775010Y-128505010D01*
X180660000Y-73970000D02*
X181580000Y-73970000D01*
X180660000Y-75790000D02*
X180660000Y-73970000D01*
X181580000Y-73970000D02*
X181580000Y-75790000D01*
X181580000Y-75790000D02*
X180660000Y-75790000D01*
X158410000Y-49920000D02*
G75*
G02*
X155410000Y-49920000I-1500000J0D01*
G01*
X155410000Y-49920000D02*
G75*
G02*
X158410000Y-49920000I1500000J0D01*
G01*
X166280000Y-68840000D02*
X168100000Y-68840000D01*
X166280000Y-69760000D02*
X166280000Y-68840000D01*
X168100000Y-68840000D02*
X168100000Y-69760000D01*
X168100000Y-69760000D02*
X166280000Y-69760000D01*
X77030000Y-79260000D02*
X79990000Y-79260000D01*
X77030000Y-80720000D02*
X77030000Y-79260000D01*
X79990000Y-79260000D02*
X79990000Y-80720000D01*
X79990000Y-80720000D02*
X77030000Y-80720000D01*
X69170000Y-71340000D02*
X69170000Y-74740000D01*
X69170000Y-74740000D02*
X73010000Y-74740000D01*
X73010000Y-71340000D02*
X69170000Y-71340000D01*
X73010000Y-74740000D02*
X73010000Y-71340000D01*
X84790000Y-34390000D02*
X86250000Y-34390000D01*
X84790000Y-37350000D02*
X84790000Y-34390000D01*
X86250000Y-34390000D02*
X86250000Y-37350000D01*
X86250000Y-37350000D02*
X84790000Y-37350000D01*
X120610010Y-141015010D02*
X122070010Y-141015010D01*
X120610010Y-143975010D02*
X120610010Y-141015010D01*
X122070010Y-141015010D02*
X122070010Y-143975010D01*
X122070010Y-143975010D02*
X120610010Y-143975010D01*
X123550010Y-133100010D02*
X124470010Y-133100010D01*
X123550010Y-134920010D02*
X123550010Y-133100010D01*
X124470010Y-133100010D02*
X124470010Y-134920010D01*
X124470010Y-134920010D02*
X123550010Y-134920010D01*
X69990000Y-79490000D02*
X71450000Y-79490000D01*
X69990000Y-82450000D02*
X69990000Y-79490000D01*
X71450000Y-79490000D02*
X71450000Y-82450000D01*
X71450000Y-82450000D02*
X69990000Y-82450000D01*
X160870000Y-108960000D02*
X162690000Y-108960000D01*
X160870000Y-109880000D02*
X160870000Y-108960000D01*
X162690000Y-108960000D02*
X162690000Y-109880000D01*
X162690000Y-109880000D02*
X160870000Y-109880000D01*
X179680000Y-73970000D02*
X180600000Y-73970000D01*
X179680000Y-75790000D02*
X179680000Y-73970000D01*
X180600000Y-73970000D02*
X180600000Y-75790000D01*
X180600000Y-75790000D02*
X179680000Y-75790000D01*
X104967500Y-79700000D02*
X103367500Y-79700000D01*
X103367500Y-78900000D01*
X104967500Y-78900000D01*
X104967500Y-79700000D01*
X177780000Y-79920000D02*
X178700000Y-79920000D01*
X177780000Y-81740000D02*
X177780000Y-79920000D01*
X178700000Y-79920000D02*
X178700000Y-81740000D01*
X178700000Y-81740000D02*
X177780000Y-81740000D01*
X66510000Y-89490000D02*
X67970000Y-89490000D01*
X66510000Y-92450000D02*
X66510000Y-89490000D01*
X67970000Y-89490000D02*
X67970000Y-92450000D01*
X67970000Y-92450000D02*
X66510000Y-92450000D01*
X98235000Y-80430000D02*
X99155000Y-80430000D01*
X98235000Y-82250000D02*
X98235000Y-80430000D01*
X99155000Y-80430000D02*
X99155000Y-82250000D01*
X99155000Y-82250000D02*
X98235000Y-82250000D01*
D11*
X167952500Y-128750000D02*
X169952500Y-128750000D01*
X167952500Y-132150000D02*
X167952500Y-128750000D01*
X169952500Y-128750000D02*
X169952500Y-132150000D01*
X169952500Y-132150000D02*
X167952500Y-132150000D01*
D10*
X125550000Y-126730000D02*
X126490000Y-126730000D01*
X125550000Y-128590000D02*
X125550000Y-126730000D01*
X126490000Y-126730000D02*
X126490000Y-128590000D01*
X126490000Y-128590000D02*
X125550000Y-128590000D01*
X66500000Y-86405000D02*
X67960000Y-86405000D01*
X66500000Y-89365000D02*
X66500000Y-86405000D01*
X67960000Y-86405000D02*
X67960000Y-89365000D01*
X67960000Y-89365000D02*
X66500000Y-89365000D01*
X122130010Y-141015010D02*
X123590010Y-141015010D01*
X122130010Y-143975010D02*
X122130010Y-141015010D01*
X123590010Y-141015010D02*
X123590010Y-143975010D01*
X123590010Y-143975010D02*
X122130010Y-143975010D01*
X101030000Y-104008750D02*
X103990000Y-104008750D01*
X101030000Y-105468750D02*
X101030000Y-104008750D01*
X103990000Y-104008750D02*
X103990000Y-105468750D01*
X103990000Y-105468750D02*
X101030000Y-105468750D01*
X177137500Y-129230000D02*
X178597500Y-129230000D01*
X177137500Y-132190000D02*
X177137500Y-129230000D01*
X178597500Y-129230000D02*
X178597500Y-132190000D01*
X178597500Y-132190000D02*
X177137500Y-132190000D01*
X119690010Y-132850010D02*
X119690010Y-134850010D01*
X119690010Y-132850010D02*
X121690010Y-132850010D01*
X121690010Y-134850010D02*
X119690010Y-134850010D01*
X121690010Y-134850010D02*
X121690010Y-132850010D01*
X175410000Y-152260000D02*
X176870000Y-152260000D01*
X175410000Y-155220000D02*
X175410000Y-152260000D01*
X176870000Y-152260000D02*
X176870000Y-155220000D01*
X176870000Y-155220000D02*
X175410000Y-155220000D01*
X56680000Y-144572500D02*
X55880000Y-144572500D01*
X55880000Y-146172500D01*
X56680000Y-146172500D01*
X56680000Y-144572500D01*
X109860000Y-80755000D02*
X111320000Y-80755000D01*
X109860000Y-83715000D02*
X109860000Y-80755000D01*
X111320000Y-80755000D02*
X111320000Y-83715000D01*
X111320000Y-83715000D02*
X109860000Y-83715000D01*
X186733489Y-121470989D02*
X187533489Y-121469011D01*
X186733489Y-122870000D02*
X186733489Y-121470000D01*
X187533489Y-121469011D02*
X187533489Y-122870000D01*
X187533489Y-122870000D02*
X186733489Y-122871978D01*
X169510000Y-76720000D02*
X170430000Y-76720000D01*
X169510000Y-78540000D02*
X169510000Y-76720000D01*
X170430000Y-76720000D02*
X170430000Y-78540000D01*
X170430000Y-78540000D02*
X169510000Y-78540000D01*
X153640000Y-134590000D02*
X153640000Y-136590000D01*
X153640000Y-134590000D02*
X155640000Y-134590000D01*
X155640000Y-136590000D02*
X153640000Y-136590000D01*
X155640000Y-136590000D02*
X155640000Y-134590000D01*
X85870000Y-81510000D02*
X88830000Y-81510000D01*
X85870000Y-82970000D02*
X85870000Y-81510000D01*
X88830000Y-81510000D02*
X88830000Y-82970000D01*
X88830000Y-82970000D02*
X85870000Y-82970000D01*
X90700000Y-68840000D02*
X90700000Y-77080000D01*
X90700000Y-77080000D02*
X98940000Y-77080000D01*
X98940000Y-68840000D02*
X90700000Y-68840000D01*
X98940000Y-77080000D02*
X98940000Y-68840000D01*
X77330000Y-69140000D02*
X78790000Y-69140000D01*
X77330000Y-72100000D02*
X77330000Y-69140000D01*
X78790000Y-69140000D02*
X78790000Y-72100000D01*
X78790000Y-72100000D02*
X77330000Y-72100000D01*
X156770000Y-138270000D02*
X158590000Y-138270000D01*
X156770000Y-139190000D02*
X156770000Y-138270000D01*
X158590000Y-138270000D02*
X158590000Y-139190000D01*
X158590000Y-139190000D02*
X156770000Y-139190000D01*
X181873489Y-121474478D02*
X182673489Y-121472500D01*
X181873489Y-122873489D02*
X181873489Y-121473489D01*
X182673489Y-121472500D02*
X182673489Y-122873489D01*
X182673489Y-122873489D02*
X181873489Y-122875467D01*
X160540000Y-54750000D02*
G75*
G02*
X157540000Y-54750000I-1500000J0D01*
G01*
X157540000Y-54750000D02*
G75*
G02*
X160540000Y-54750000I1500000J0D01*
G01*
X155650000Y-136660000D02*
X158610000Y-136660000D01*
X155650000Y-138120000D02*
X155650000Y-136660000D01*
X158610000Y-136660000D02*
X158610000Y-138120000D01*
X158610000Y-138120000D02*
X155650000Y-138120000D01*
X156020000Y-140840000D02*
X156940000Y-140840000D01*
X156020000Y-142660000D02*
X156020000Y-140840000D01*
X156940000Y-140840000D02*
X156940000Y-142660000D01*
X156940000Y-142660000D02*
X156020000Y-142660000D01*
X78214290Y-65410000D02*
X71874290Y-65410000D01*
X71874290Y-63140000D01*
X78214290Y-63140000D01*
X78214290Y-65410000D01*
X196250000Y-73110000D02*
X198110000Y-73110000D01*
X196250000Y-74050000D02*
X196250000Y-73110000D01*
X198110000Y-73110000D02*
X198110000Y-74050000D01*
X198110000Y-74050000D02*
X196250000Y-74050000D01*
X85630000Y-78170000D02*
X88590000Y-78170000D01*
X85630000Y-79630000D02*
X85630000Y-78170000D01*
X88590000Y-78170000D02*
X88590000Y-79630000D01*
X88590000Y-79630000D02*
X85630000Y-79630000D01*
D11*
X78870000Y-148905000D02*
X85065000Y-148905000D01*
X78870000Y-152755000D02*
X78870000Y-148905000D01*
X85065000Y-148905000D02*
X85065000Y-152755000D01*
X85065000Y-152755000D02*
X78870000Y-152755000D01*
D10*
X180600000Y-128820000D02*
X182060000Y-128820000D01*
X180600000Y-131780000D02*
X180600000Y-128820000D01*
X182060000Y-128820000D02*
X182060000Y-131780000D01*
X182060000Y-131780000D02*
X180600000Y-131780000D01*
X181940000Y-73800000D02*
X183400000Y-73800000D01*
X181940000Y-76760000D02*
X181940000Y-73800000D01*
X183400000Y-73800000D02*
X183400000Y-76760000D01*
X183400000Y-76760000D02*
X181940000Y-76760000D01*
X101210000Y-77305000D02*
X104170000Y-77305000D01*
X101210000Y-78765000D02*
X101210000Y-77305000D01*
X104170000Y-77305000D02*
X104170000Y-78765000D01*
X104170000Y-78765000D02*
X101210000Y-78765000D01*
X189260000Y-130780000D02*
X192220000Y-130780000D01*
X189260000Y-132240000D02*
X189260000Y-130780000D01*
X192220000Y-130780000D02*
X192220000Y-132240000D01*
X192220000Y-132240000D02*
X189260000Y-132240000D01*
X89360000Y-34380000D02*
X90820000Y-34380000D01*
X89360000Y-37340000D02*
X89360000Y-34380000D01*
X90820000Y-34380000D02*
X90820000Y-37340000D01*
X90820000Y-37340000D02*
X89360000Y-37340000D01*
X194200000Y-120195000D02*
X195660000Y-120195000D01*
X194200000Y-123155000D02*
X194200000Y-120195000D01*
X195660000Y-120195000D02*
X195660000Y-123155000D01*
X195660000Y-123155000D02*
X194200000Y-123155000D01*
X164140000Y-97820000D02*
X165060000Y-97820000D01*
X164140000Y-99640000D02*
X164140000Y-97820000D01*
X165060000Y-97820000D02*
X165060000Y-99640000D01*
X165060000Y-99640000D02*
X164140000Y-99640000D01*
X126200000Y-144050000D02*
G75*
G02*
X124700000Y-144050000I-750000J0D01*
G01*
X124700000Y-144050000D02*
G75*
G02*
X126200000Y-144050000I750000J0D01*
G01*
D11*
X49750000Y-42460000D02*
X49750000Y-51460000D01*
X49750000Y-51460000D02*
X72250000Y-51460000D01*
X72250000Y-42460000D02*
X49750000Y-42460000D01*
X72250000Y-51460000D02*
X72250000Y-42460000D01*
D10*
X85630000Y-73610000D02*
X88590000Y-73610000D01*
X85630000Y-75070000D02*
X85630000Y-73610000D01*
X88590000Y-73610000D02*
X88590000Y-75070000D01*
X88590000Y-75070000D02*
X85630000Y-75070000D01*
X130430010Y-145270010D02*
X131350010Y-145270010D01*
X130430010Y-147090010D02*
X130430010Y-145270010D01*
X131350010Y-145270010D02*
X131350010Y-147090010D01*
X131350010Y-147090010D02*
X130430010Y-147090010D01*
X71935000Y-87320000D02*
X71935000Y-93470000D01*
X71935000Y-93470000D02*
X75535000Y-93470000D01*
X75535000Y-87320000D02*
X71935000Y-87320000D01*
X75535000Y-93470000D02*
X75535000Y-87320000D01*
X57290000Y-154782500D02*
X58750000Y-154782500D01*
X57290000Y-157742500D02*
X57290000Y-154782500D01*
X58750000Y-154782500D02*
X58750000Y-157742500D01*
X58750000Y-157742500D02*
X57290000Y-157742500D01*
X157770000Y-133635000D02*
X159230000Y-133635000D01*
X157770000Y-136595000D02*
X157770000Y-133635000D01*
X159230000Y-133635000D02*
X159230000Y-136595000D01*
X159230000Y-136595000D02*
X157770000Y-136595000D01*
X76720000Y-86930000D02*
X85720000Y-86930000D01*
X76720000Y-89930000D02*
X76720000Y-86930000D01*
X85720000Y-86930000D02*
X85720000Y-89930000D01*
X85720000Y-89930000D02*
X76720000Y-89930000D01*
X160860000Y-107960000D02*
X162720000Y-107960000D01*
X160860000Y-108900000D02*
X160860000Y-107960000D01*
X162720000Y-107960000D02*
X162720000Y-108900000D01*
X162720000Y-108900000D02*
X160860000Y-108900000D01*
X110620000Y-97880000D02*
X112080000Y-97880000D01*
X110620000Y-100840000D02*
X110620000Y-97880000D01*
X112080000Y-97880000D02*
X112080000Y-100840000D01*
X112080000Y-100840000D02*
X110620000Y-100840000D01*
X57450000Y-144360000D02*
X58390000Y-144360000D01*
X57450000Y-146220000D02*
X57450000Y-144360000D01*
X58390000Y-144360000D02*
X58390000Y-146220000D01*
X58390000Y-146220000D02*
X57450000Y-146220000D01*
X182370000Y-128870000D02*
X183830000Y-128870000D01*
X182370000Y-131830000D02*
X182370000Y-128870000D01*
X183830000Y-128870000D02*
X183830000Y-131830000D01*
X183830000Y-131830000D02*
X182370000Y-131830000D01*
X109960010Y-127355010D02*
X109960010Y-131555010D01*
X109960010Y-131555010D02*
X113360010Y-131555010D01*
X113360010Y-127355010D02*
X109960010Y-127355010D01*
X113360010Y-131555010D02*
X113360010Y-127355010D01*
X128985010Y-149140010D02*
X130845010Y-149140010D01*
X128985010Y-150080010D02*
X128985010Y-149140010D01*
X130845010Y-149140010D02*
X130845010Y-150080010D01*
X130845010Y-150080010D02*
X128985010Y-150080010D01*
X122130010Y-137985010D02*
X123590010Y-137985010D01*
X122130010Y-140945010D02*
X122130010Y-137985010D01*
X123590010Y-137985010D02*
X123590010Y-140945010D01*
X123590010Y-140945010D02*
X122130010Y-140945010D01*
X173702500Y-78670000D02*
X175162500Y-78670000D01*
X173702500Y-81630000D02*
X173702500Y-78670000D01*
X175162500Y-78670000D02*
X175162500Y-81630000D01*
X175162500Y-81630000D02*
X173702500Y-81630000D01*
X92090000Y-78545000D02*
X93550000Y-78545000D01*
X92090000Y-81505000D02*
X92090000Y-78545000D01*
X93550000Y-78545000D02*
X93550000Y-81505000D01*
X93550000Y-81505000D02*
X92090000Y-81505000D01*
X97150000Y-108568750D02*
X98610000Y-108568750D01*
X97150000Y-111528750D02*
X97150000Y-108568750D01*
X98610000Y-108568750D02*
X98610000Y-111528750D01*
X98610000Y-111528750D02*
X97150000Y-111528750D01*
X179690000Y-105350000D02*
X181550000Y-105350000D01*
X179690000Y-106290000D02*
X179690000Y-105350000D01*
X181550000Y-105350000D02*
X181550000Y-106290000D01*
X181550000Y-106290000D02*
X179690000Y-106290000D01*
X160620000Y-140830000D02*
X162080000Y-140830000D01*
X160620000Y-143790000D02*
X160620000Y-140830000D01*
X162080000Y-140830000D02*
X162080000Y-143790000D01*
X162080000Y-143790000D02*
X160620000Y-143790000D01*
X145880010Y-132810010D02*
X148840010Y-132810010D01*
X145880010Y-134270010D02*
X145880010Y-132810010D01*
X148840010Y-132810010D02*
X148840010Y-134270010D01*
X148840010Y-134270010D02*
X145880010Y-134270010D01*
X162760000Y-95390000D02*
X163680000Y-95390000D01*
X162760000Y-97210000D02*
X162760000Y-95390000D01*
X163680000Y-95390000D02*
X163680000Y-97210000D01*
X163680000Y-97210000D02*
X162760000Y-97210000D01*
X126585010Y-149140010D02*
X128445010Y-149140010D01*
X126585010Y-150080010D02*
X126585010Y-149140010D01*
X128445010Y-149140010D02*
X128445010Y-150080010D01*
X128445010Y-150080010D02*
X126585010Y-150080010D01*
X60660000Y-99000000D02*
X64760000Y-99000000D01*
X60660000Y-108650000D02*
X60660000Y-99000000D01*
X61810000Y-109800000D02*
X60660000Y-108650000D01*
X61810000Y-109800000D02*
X64760000Y-109800000D01*
X64760000Y-97450000D02*
X67360000Y-97450000D01*
X64760000Y-99000000D02*
X64760000Y-97450000D01*
X64760000Y-109800000D02*
X64760000Y-111350000D01*
X64760000Y-111350000D02*
X67360000Y-111350000D01*
X67360000Y-97450000D02*
X67360000Y-99000000D01*
X67360000Y-99000000D02*
X71460000Y-99000000D01*
X67360000Y-109800000D02*
X70310000Y-109800000D01*
X67360000Y-111350000D02*
X67360000Y-109800000D01*
X70310000Y-109800000D02*
X71460000Y-108650000D01*
X71460000Y-108650000D02*
X71460000Y-99000000D01*
X140830010Y-135880010D02*
X142290010Y-135880010D01*
X140830010Y-138840010D02*
X140830010Y-135880010D01*
X142290010Y-135880010D02*
X142290010Y-138840010D01*
X142290010Y-138840010D02*
X140830010Y-138840010D01*
X172330000Y-149767500D02*
X173790000Y-149767500D01*
X172330000Y-152727500D02*
X172330000Y-149767500D01*
X173790000Y-149767500D02*
X173790000Y-152727500D01*
X173790000Y-152727500D02*
X172330000Y-152727500D01*
X180310000Y-60010000D02*
X181230000Y-60010000D01*
X180310000Y-61830000D02*
X180310000Y-60010000D01*
X181230000Y-60010000D02*
X181230000Y-61830000D01*
X181230000Y-61830000D02*
X180310000Y-61830000D01*
X98515000Y-98800000D02*
X99975000Y-98800000D01*
X98515000Y-101760000D02*
X98515000Y-98800000D01*
X99975000Y-98800000D02*
X99975000Y-101760000D01*
X99975000Y-101760000D02*
X98515000Y-101760000D01*
X108320000Y-80755000D02*
X109780000Y-80755000D01*
X108320000Y-83715000D02*
X108320000Y-80755000D01*
X109780000Y-80755000D02*
X109780000Y-83715000D01*
X109780000Y-83715000D02*
X108320000Y-83715000D01*
X52060000Y-158510000D02*
X52060000Y-168510000D01*
X52060000Y-158510000D02*
X60860000Y-158510000D01*
X60860000Y-168510000D02*
X52060000Y-168510000D01*
X60860000Y-168510000D02*
X60860000Y-158510000D01*
X86830000Y-120730000D02*
X97830000Y-120730000D01*
X86830000Y-130730000D02*
X86830000Y-120730000D01*
X97830000Y-120730000D02*
X97830000Y-130730000D01*
X97830000Y-130730000D02*
X86830000Y-130730000D01*
X55920000Y-79445000D02*
X55920000Y-82045000D01*
X55920000Y-82045000D02*
X57620000Y-82045000D01*
X57620000Y-77495000D02*
X57620000Y-79445000D01*
X57620000Y-77495000D02*
X58770000Y-76345000D01*
X57620000Y-79445000D02*
X55920000Y-79445000D01*
X57620000Y-82045000D02*
X57620000Y-83995000D01*
X57620000Y-83995000D02*
X58770000Y-85145000D01*
X58770000Y-76345000D02*
X66420000Y-76345000D01*
X58770000Y-85145000D02*
X66420000Y-85145000D01*
X66420000Y-76345000D02*
X66420000Y-79445000D01*
X66420000Y-79445000D02*
X68120000Y-79445000D01*
X66420000Y-82045000D02*
X66420000Y-85145000D01*
X68120000Y-79445000D02*
X68120000Y-82045000D01*
X68120000Y-82045000D02*
X66420000Y-82045000D01*
X177550000Y-99600000D02*
X178470000Y-99600000D01*
X177550000Y-101420000D02*
X177550000Y-99600000D01*
X178470000Y-99600000D02*
X178470000Y-101420000D01*
X178470000Y-101420000D02*
X177550000Y-101420000D01*
X173390000Y-141955000D02*
G75*
G02*
X171890000Y-141955000I-750000J0D01*
G01*
X171890000Y-141955000D02*
G75*
G02*
X173390000Y-141955000I750000J0D01*
G01*
X189290000Y-133820000D02*
X192250000Y-133820000D01*
X189290000Y-135280000D02*
X189290000Y-133820000D01*
X192250000Y-133820000D02*
X192250000Y-135280000D01*
X192250000Y-135280000D02*
X189290000Y-135280000D01*
X94062500Y-108573750D02*
X95522500Y-108573750D01*
X94062500Y-111533750D02*
X94062500Y-108573750D01*
X95522500Y-108573750D02*
X95522500Y-111533750D01*
X95522500Y-111533750D02*
X94062500Y-111533750D01*
X174600000Y-129215000D02*
X176060000Y-129215000D01*
X174600000Y-132175000D02*
X174600000Y-129215000D01*
X176060000Y-129215000D02*
X176060000Y-132175000D01*
X176060000Y-132175000D02*
X174600000Y-132175000D01*
X183500000Y-140010000D02*
X184960000Y-140010000D01*
X183500000Y-142970000D02*
X183500000Y-140010000D01*
X184960000Y-140010000D02*
X184960000Y-142970000D01*
X184960000Y-142970000D02*
X183500000Y-142970000D01*
X188713489Y-120265000D02*
X190173489Y-120265000D01*
X188713489Y-123225000D02*
X188713489Y-120265000D01*
X190173489Y-120265000D02*
X190173489Y-123225000D01*
X190173489Y-123225000D02*
X188713489Y-123225000D01*
X101020000Y-100923750D02*
X103980000Y-100923750D01*
X101020000Y-102383750D02*
X101020000Y-100923750D01*
X103980000Y-100923750D02*
X103980000Y-102383750D01*
X103980000Y-102383750D02*
X101020000Y-102383750D01*
X175242500Y-78665000D02*
X176702500Y-78665000D01*
X175242500Y-81625000D02*
X175242500Y-78665000D01*
X176702500Y-78665000D02*
X176702500Y-81625000D01*
X176702500Y-81625000D02*
X175242500Y-81625000D01*
X178760000Y-79910000D02*
X179680000Y-79910000D01*
X178760000Y-81730000D02*
X178760000Y-79910000D01*
X179680000Y-79910000D02*
X179680000Y-81730000D01*
X179680000Y-81730000D02*
X178760000Y-81730000D01*
X127495010Y-150400010D02*
X130455010Y-150400010D01*
X127495010Y-151860010D02*
X127495010Y-150400010D01*
X130455010Y-150400010D02*
X130455010Y-151860010D01*
X130455010Y-151860010D02*
X127495010Y-151860010D01*
X158100000Y-132760000D02*
X159700000Y-132760000D01*
X159700000Y-133560000D01*
X158100000Y-133560000D01*
X158100000Y-132760000D01*
X137250000Y-133000000D02*
G75*
G02*
X135750000Y-133000000I-750000J0D01*
G01*
X135750000Y-133000000D02*
G75*
G02*
X137250000Y-133000000I750000J0D01*
G01*
X55320000Y-126750000D02*
X55320000Y-129350000D01*
X55320000Y-129350000D02*
X57020000Y-129350000D01*
X57020000Y-124800000D02*
X57020000Y-126750000D01*
X57020000Y-124800000D02*
X58170000Y-123650000D01*
X57020000Y-126750000D02*
X55320000Y-126750000D01*
X57020000Y-129350000D02*
X57020000Y-131300000D01*
X57020000Y-131300000D02*
X58170000Y-132450000D01*
X58170000Y-123650000D02*
X65820000Y-123650000D01*
X58170000Y-132450000D02*
X65820000Y-132450000D01*
X65820000Y-123650000D02*
X65820000Y-126750000D01*
X65820000Y-126750000D02*
X67520000Y-126750000D01*
X65820000Y-129350000D02*
X65820000Y-132450000D01*
X67520000Y-126750000D02*
X67520000Y-129350000D01*
X67520000Y-129350000D02*
X65820000Y-129350000D01*
X78865000Y-64695000D02*
X78865000Y-72115000D01*
X84365000Y-64695000D02*
X78865000Y-64695000D01*
X84365000Y-64695000D02*
X84365000Y-72115000D01*
X84365000Y-72115000D02*
X78865000Y-72115000D01*
X128110010Y-147330010D02*
X131070010Y-147330010D01*
X128110010Y-148790010D02*
X128110010Y-147330010D01*
X131070010Y-147330010D02*
X131070010Y-148790010D01*
X131070010Y-148790010D02*
X128110010Y-148790010D01*
X116490010Y-152020010D02*
X123490010Y-152020010D01*
X116490010Y-155520010D02*
X116490010Y-152020010D01*
X123490010Y-152020010D02*
X123490010Y-155520010D01*
X123490010Y-155520010D02*
X116490010Y-155520010D01*
X178450000Y-152250000D02*
X179910000Y-152250000D01*
X178450000Y-155210000D02*
X178450000Y-152250000D01*
X179910000Y-152250000D02*
X179910000Y-155210000D01*
X179910000Y-155210000D02*
X178450000Y-155210000D01*
X138810000Y-126825000D02*
X140270000Y-126825000D01*
X138810000Y-129785000D02*
X138810000Y-126825000D01*
X140270000Y-126825000D02*
X140270000Y-129785000D01*
X140270000Y-129785000D02*
X138810000Y-129785000D01*
X93715000Y-63937500D02*
X95175000Y-63937500D01*
X93715000Y-66897500D02*
X93715000Y-63937500D01*
X95175000Y-63937500D02*
X95175000Y-66897500D01*
X95175000Y-66897500D02*
X93715000Y-66897500D01*
X179760000Y-79920000D02*
X180680000Y-79920000D01*
X179760000Y-81740000D02*
X179760000Y-79920000D01*
X180680000Y-79920000D02*
X180680000Y-81740000D01*
X180680000Y-81740000D02*
X179760000Y-81740000D01*
X66950000Y-111990000D02*
X69910000Y-111990000D01*
X66950000Y-113450000D02*
X66950000Y-111990000D01*
X69910000Y-111990000D02*
X69910000Y-113450000D01*
X69910000Y-113450000D02*
X66950000Y-113450000D01*
X196250000Y-75120000D02*
X198110000Y-75120000D01*
X196250000Y-76060000D02*
X196250000Y-75120000D01*
X198110000Y-75120000D02*
X198110000Y-76060000D01*
X198110000Y-76060000D02*
X196250000Y-76060000D01*
X184210000Y-67620000D02*
X187170000Y-67620000D01*
X184210000Y-69080000D02*
X184210000Y-67620000D01*
X187170000Y-67620000D02*
X187170000Y-69080000D01*
X187170000Y-69080000D02*
X184210000Y-69080000D01*
X52770000Y-40170000D02*
G75*
G02*
X49770000Y-40170000I-1500000J0D01*
G01*
X49770000Y-40170000D02*
G75*
G02*
X52770000Y-40170000I1500000J0D01*
G01*
X171490000Y-76710000D02*
X172410000Y-76710000D01*
X171490000Y-78530000D02*
X171490000Y-76710000D01*
X172410000Y-76710000D02*
X172410000Y-78530000D01*
X172410000Y-78530000D02*
X171490000Y-78530000D01*
X185425000Y-129180000D02*
X186885000Y-129180000D01*
X185425000Y-132140000D02*
X185425000Y-129180000D01*
X186885000Y-129180000D02*
X186885000Y-132140000D01*
X186885000Y-132140000D02*
X185425000Y-132140000D01*
X186480000Y-57010000D02*
X189480000Y-57010000D01*
X186480000Y-58510000D02*
X186480000Y-57010000D01*
X189480000Y-57010000D02*
X189480000Y-58510000D01*
X189480000Y-58510000D02*
X186480000Y-58510000D01*
X142850010Y-134350010D02*
X145810010Y-134350010D01*
X142850010Y-135810010D02*
X142850010Y-134350010D01*
X145810010Y-134350010D02*
X145810010Y-135810010D01*
X145810010Y-135810010D02*
X142850010Y-135810010D01*
X49710000Y-100150000D02*
X49710000Y-109800000D01*
X50860000Y-99000000D02*
X49710000Y-100150000D01*
X53810000Y-97450000D02*
X53810000Y-99000000D01*
X53810000Y-99000000D02*
X50860000Y-99000000D01*
X53810000Y-109800000D02*
X49710000Y-109800000D01*
X53810000Y-111350000D02*
X53810000Y-109800000D01*
X56410000Y-97450000D02*
X53810000Y-97450000D01*
X56410000Y-99000000D02*
X56410000Y-97450000D01*
X56410000Y-109800000D02*
X56410000Y-111350000D01*
X56410000Y-111350000D02*
X53810000Y-111350000D01*
X59360000Y-99000000D02*
X56410000Y-99000000D01*
X59360000Y-99000000D02*
X60510000Y-100150000D01*
X60510000Y-100150000D02*
X60510000Y-109800000D01*
X60510000Y-109800000D02*
X56410000Y-109800000D01*
X98230000Y-78555000D02*
X99150000Y-78555000D01*
X98230000Y-80375000D02*
X98230000Y-78555000D01*
X99150000Y-78555000D02*
X99150000Y-80375000D01*
X99150000Y-80375000D02*
X98230000Y-80375000D01*
X166030000Y-75160000D02*
X167850000Y-75160000D01*
X166030000Y-76080000D02*
X166030000Y-75160000D01*
X167850000Y-75160000D02*
X167850000Y-76080000D01*
X167850000Y-76080000D02*
X166030000Y-76080000D01*
X175690000Y-104450000D02*
X177550000Y-104450000D01*
X175690000Y-105390000D02*
X175690000Y-104450000D01*
X177550000Y-104450000D02*
X177550000Y-105390000D01*
X177550000Y-105390000D02*
X175690000Y-105390000D01*
X191350000Y-141990000D02*
X193170000Y-141990000D01*
X191350000Y-142910000D02*
X191350000Y-141990000D01*
X193170000Y-141990000D02*
X193170000Y-142910000D01*
X193170000Y-142910000D02*
X191350000Y-142910000D01*
X186945000Y-129185000D02*
X188405000Y-129185000D01*
X186945000Y-132145000D02*
X186945000Y-129185000D01*
X188405000Y-129185000D02*
X188405000Y-132145000D01*
X188405000Y-132145000D02*
X186945000Y-132145000D01*
X164420000Y-65880000D02*
X165270000Y-65880000D01*
X164420000Y-67880000D02*
X164420000Y-65880000D01*
X165270000Y-65880000D02*
X165270000Y-64980000D01*
X165270000Y-67880000D02*
X164420000Y-67880000D01*
X165270000Y-68780000D02*
X165270000Y-67880000D01*
X168100000Y-64980000D02*
X165270000Y-64980000D01*
X168100000Y-68780000D02*
X165270000Y-68780000D01*
X169000000Y-65880000D02*
X168100000Y-64980000D01*
X169000000Y-67880000D02*
X168100000Y-68780000D01*
X169000000Y-67880000D02*
X169920000Y-67880000D01*
X169920000Y-65880000D02*
X169000000Y-65880000D01*
X169920000Y-67880000D02*
X169920000Y-65880000D01*
X101420000Y-145280000D02*
G75*
G02*
X98420000Y-145280000I-1500000J0D01*
G01*
X98420000Y-145280000D02*
G75*
G02*
X101420000Y-145280000I1500000J0D01*
G01*
X133080000Y-126820000D02*
X134020000Y-126820000D01*
X133080000Y-128680000D02*
X133080000Y-126820000D01*
X134020000Y-126820000D02*
X134020000Y-128680000D01*
X134020000Y-128680000D02*
X133080000Y-128680000D01*
X160920000Y-104980000D02*
X162740000Y-104980000D01*
X160920000Y-105900000D02*
X160920000Y-104980000D01*
X162740000Y-104980000D02*
X162740000Y-105900000D01*
X162740000Y-105900000D02*
X160920000Y-105900000D01*
X108040000Y-84685000D02*
X113140000Y-84685000D01*
X113140000Y-96885000D01*
X108040000Y-96885000D01*
X108040000Y-84685000D01*
X177500000Y-124930000D02*
X177500000Y-128330000D01*
X177500000Y-128330000D02*
X181700000Y-128330000D01*
X181700000Y-124930000D02*
X177500000Y-124930000D01*
X181700000Y-128330000D02*
X181700000Y-124930000D01*
X166230000Y-97557500D02*
X167170000Y-97557500D01*
X166230000Y-99417500D02*
X166230000Y-97557500D01*
X167170000Y-97557500D02*
X167170000Y-99417500D01*
X167170000Y-99417500D02*
X166230000Y-99417500D01*
X100205000Y-80425000D02*
X101125000Y-80425000D01*
X100205000Y-82245000D02*
X100205000Y-80425000D01*
X101125000Y-80425000D02*
X101125000Y-82245000D01*
X101125000Y-82245000D02*
X100205000Y-82245000D01*
X98702500Y-108598750D02*
X100162500Y-108598750D01*
X98702500Y-111558750D02*
X98702500Y-108598750D01*
X100162500Y-108598750D02*
X100162500Y-111558750D01*
X100162500Y-111558750D02*
X98702500Y-111558750D01*
X177843489Y-121470989D02*
X178643489Y-121469011D01*
X177843489Y-122870000D02*
X177843489Y-121470000D01*
X178643489Y-121469011D02*
X178643489Y-122870000D01*
X178643489Y-122870000D02*
X177843489Y-122871978D01*
X49770000Y-61190000D02*
X49770000Y-74090000D01*
X49770000Y-74090000D02*
X55270000Y-74090000D01*
X55270000Y-61190000D02*
X49770000Y-61190000D01*
X55270000Y-74090000D02*
X55270000Y-61190000D01*
X183422500Y-134955000D02*
X186382500Y-134955000D01*
X183422500Y-136415000D02*
X183422500Y-134955000D01*
X186382500Y-134955000D02*
X186382500Y-136415000D01*
X186382500Y-136415000D02*
X183422500Y-136415000D01*
X172320000Y-146742500D02*
X173780000Y-146742500D01*
X172320000Y-149702500D02*
X172320000Y-146742500D01*
X173780000Y-146742500D02*
X173780000Y-149702500D01*
X173780000Y-149702500D02*
X172320000Y-149702500D01*
X179690000Y-106350000D02*
X181550000Y-106350000D01*
X179690000Y-107290000D02*
X179690000Y-106350000D01*
X181550000Y-106350000D02*
X181550000Y-107290000D01*
X181550000Y-107290000D02*
X179690000Y-107290000D01*
X171565000Y-129200000D02*
X173025000Y-129200000D01*
X171565000Y-132160000D02*
X171565000Y-129200000D01*
X173025000Y-129200000D02*
X173025000Y-132160000D01*
X173025000Y-132160000D02*
X171565000Y-132160000D01*
X101030000Y-107038750D02*
X103990000Y-107038750D01*
X101030000Y-108498750D02*
X101030000Y-107038750D01*
X103990000Y-107038750D02*
X103990000Y-108498750D01*
X103990000Y-108498750D02*
X101030000Y-108498750D01*
X132820010Y-145260010D02*
X133740010Y-145260010D01*
X132820010Y-147080010D02*
X132820010Y-145260010D01*
X133740010Y-145260010D02*
X133740010Y-147080010D01*
X133740010Y-147080010D02*
X132820010Y-147080010D01*
X101230000Y-72700000D02*
X104190000Y-72700000D01*
X101230000Y-74160000D02*
X101230000Y-72700000D01*
X104190000Y-72700000D02*
X104190000Y-74160000D01*
X104190000Y-74160000D02*
X101230000Y-74160000D01*
X189255000Y-135340000D02*
X192215000Y-135340000D01*
X189255000Y-136800000D02*
X189255000Y-135340000D01*
X192215000Y-135340000D02*
X192215000Y-136800000D01*
X192215000Y-136800000D02*
X189255000Y-136800000D01*
X137770010Y-150380010D02*
X140730010Y-150380010D01*
X137770010Y-151840010D02*
X137770010Y-150380010D01*
X140730010Y-150380010D02*
X140730010Y-151840010D01*
X140730010Y-151840010D02*
X137770010Y-151840010D01*
X84790000Y-66930000D02*
X84790000Y-64930000D01*
X84790000Y-66930000D02*
X86790000Y-66930000D01*
X86790000Y-64930000D02*
X84790000Y-64930000D01*
X86790000Y-64930000D02*
X86790000Y-66930000D01*
X185347500Y-138005000D02*
X187207500Y-138005000D01*
X185347500Y-138945000D02*
X185347500Y-138005000D01*
X187207500Y-138005000D02*
X187207500Y-138945000D01*
X187207500Y-138945000D02*
X185347500Y-138945000D01*
D11*
X49710000Y-51780000D02*
X49710000Y-60780000D01*
X49710000Y-60780000D02*
X72210000Y-60780000D01*
X72210000Y-51780000D02*
X49710000Y-51780000D01*
X72210000Y-60780000D02*
X72210000Y-51780000D01*
D10*
X99770000Y-60130000D02*
X101230000Y-60130000D01*
X99770000Y-63090000D02*
X99770000Y-60130000D01*
X101230000Y-60130000D02*
X101230000Y-63090000D01*
X101230000Y-63090000D02*
X99770000Y-63090000D01*
X168247500Y-133785000D02*
X171207500Y-133785000D01*
X168247500Y-135245000D02*
X168247500Y-133785000D01*
X171207500Y-133785000D02*
X171207500Y-135245000D01*
X171207500Y-135245000D02*
X168247500Y-135245000D01*
X68020000Y-97300000D02*
X70980000Y-97300000D01*
X68020000Y-98760000D02*
X68020000Y-97300000D01*
X70980000Y-97300000D02*
X70980000Y-98760000D01*
X70980000Y-98760000D02*
X68020000Y-98760000D01*
X77040000Y-80790000D02*
X80000000Y-80790000D01*
X77040000Y-82250000D02*
X77040000Y-80790000D01*
X80000000Y-80790000D02*
X80000000Y-82250000D01*
X80000000Y-82250000D02*
X77040000Y-82250000D01*
X84000000Y-102298750D02*
X84000000Y-104398750D01*
X84000000Y-104398750D02*
X85150000Y-104398750D01*
X85150000Y-100948750D02*
X85150000Y-102298750D01*
X85150000Y-100948750D02*
X86300000Y-99798750D01*
X85150000Y-102298750D02*
X84000000Y-102298750D01*
X85150000Y-104398750D02*
X85150000Y-105748750D01*
X85150000Y-105748750D02*
X86300000Y-106898750D01*
X86300000Y-99798750D02*
X92250000Y-99798750D01*
X86300000Y-106898750D02*
X92250000Y-106898750D01*
X92250000Y-99798750D02*
X92250000Y-102298750D01*
X92250000Y-102298750D02*
X93400000Y-102298750D01*
X92250000Y-104398750D02*
X92250000Y-106898750D01*
X93400000Y-102298750D02*
X93400000Y-104398750D01*
X93400000Y-104398750D02*
X92250000Y-104398750D01*
X131145010Y-147330010D02*
X134105010Y-147330010D01*
X131145010Y-148790010D02*
X131145010Y-147330010D01*
X134105010Y-147330010D02*
X134105010Y-148790010D01*
X134105010Y-148790010D02*
X131145010Y-148790010D01*
X178870000Y-150330000D02*
X179810000Y-150330000D01*
X178870000Y-152190000D02*
X178870000Y-150330000D01*
X179810000Y-150330000D02*
X179810000Y-152190000D01*
X179810000Y-152190000D02*
X178870000Y-152190000D01*
X186690000Y-146460000D02*
X188150000Y-146460000D01*
X186690000Y-149420000D02*
X186690000Y-146460000D01*
X188150000Y-146460000D02*
X188150000Y-149420000D01*
X188150000Y-149420000D02*
X186690000Y-149420000D01*
X83240000Y-34370000D02*
X84700000Y-34370000D01*
X83240000Y-37330000D02*
X83240000Y-34370000D01*
X84700000Y-34370000D02*
X84700000Y-37330000D01*
X84700000Y-37330000D02*
X83240000Y-37330000D01*
X49767500Y-112270000D02*
X49767500Y-123570000D01*
X49767500Y-123570000D02*
X66417500Y-123570000D01*
X66417500Y-112270000D02*
X49767500Y-112270000D01*
X66417500Y-123570000D02*
X66417500Y-112270000D01*
X66945000Y-113580000D02*
X69905000Y-113580000D01*
X66945000Y-115040000D02*
X66945000Y-113580000D01*
X69905000Y-113580000D02*
X69905000Y-115040000D01*
X69905000Y-115040000D02*
X66945000Y-115040000D01*
X155650000Y-139310000D02*
X158610000Y-139310000D01*
X155650000Y-140770000D02*
X155650000Y-139310000D01*
X158610000Y-139310000D02*
X158610000Y-140770000D01*
X158610000Y-140770000D02*
X155650000Y-140770000D01*
X99205000Y-78550000D02*
X100125000Y-78550000D01*
X99205000Y-80370000D02*
X99205000Y-78550000D01*
X100125000Y-78550000D02*
X100125000Y-80370000D01*
X100125000Y-80370000D02*
X99205000Y-80370000D01*
X116490010Y-131630010D02*
X119450010Y-131630010D01*
X116490010Y-133090010D02*
X116490010Y-131630010D01*
X119450010Y-131630010D02*
X119450010Y-133090010D01*
X119450010Y-133090010D02*
X116490010Y-133090010D01*
X98305000Y-63930000D02*
X99765000Y-63930000D01*
X98305000Y-66890000D02*
X98305000Y-63930000D01*
X99765000Y-63930000D02*
X99765000Y-66890000D01*
X99765000Y-66890000D02*
X98305000Y-66890000D01*
X140350000Y-126805000D02*
X141810000Y-126805000D01*
X140350000Y-129765000D02*
X140350000Y-126805000D01*
X141810000Y-126805000D02*
X141810000Y-129765000D01*
X141810000Y-129765000D02*
X140350000Y-129765000D01*
X93970000Y-98810000D02*
X95430000Y-98810000D01*
X93970000Y-101770000D02*
X93970000Y-98810000D01*
X95430000Y-98810000D02*
X95430000Y-101770000D01*
X95430000Y-101770000D02*
X93970000Y-101770000D01*
X171260000Y-94880000D02*
X174420000Y-94880000D01*
X171260000Y-99440000D02*
X171260000Y-94880000D01*
X174420000Y-94880000D02*
X174420000Y-99440000D01*
X174420000Y-99440000D02*
X171260000Y-99440000D01*
X174535000Y-94890000D02*
X176355000Y-94890000D01*
X174535000Y-95810000D02*
X174535000Y-94890000D01*
X176355000Y-94890000D02*
X176355000Y-95810000D01*
X176355000Y-95810000D02*
X174535000Y-95810000D01*
X95610000Y-108573750D02*
X97070000Y-108573750D01*
X95610000Y-111533750D02*
X95610000Y-108573750D01*
X97070000Y-108573750D02*
X97070000Y-111533750D01*
X97070000Y-111533750D02*
X95610000Y-111533750D01*
X179690000Y-101340000D02*
X181550000Y-101340000D01*
X179690000Y-102280000D02*
X179690000Y-101340000D01*
X181550000Y-101340000D02*
X181550000Y-102280000D01*
X181550000Y-102280000D02*
X179690000Y-102280000D01*
X92420000Y-34380000D02*
X93880000Y-34380000D01*
X92420000Y-37340000D02*
X92420000Y-34380000D01*
X93880000Y-34380000D02*
X93880000Y-37340000D01*
X93880000Y-37340000D02*
X92420000Y-37340000D01*
X181310000Y-59960000D02*
X184270000Y-59960000D01*
X181310000Y-61420000D02*
X181310000Y-59960000D01*
X184270000Y-59960000D02*
X184270000Y-61420000D01*
X184270000Y-61420000D02*
X181310000Y-61420000D01*
X66525000Y-83350000D02*
X67985000Y-83350000D01*
X66525000Y-86310000D02*
X66525000Y-83350000D01*
X67985000Y-83350000D02*
X67985000Y-86310000D01*
X67985000Y-86310000D02*
X66525000Y-86310000D01*
X96340000Y-88380000D02*
X98160000Y-88380000D01*
X96340000Y-89300000D02*
X96340000Y-88380000D01*
X98160000Y-88380000D02*
X98160000Y-89300000D01*
X98160000Y-89300000D02*
X96340000Y-89300000D01*
X133370000Y-59020000D02*
G75*
G02*
X130370000Y-59020000I-1500000J0D01*
G01*
X130370000Y-59020000D02*
G75*
G02*
X133370000Y-59020000I1500000J0D01*
G01*
X178773489Y-120270000D02*
X180233489Y-120270000D01*
X178773489Y-123230000D02*
X178773489Y-120270000D01*
X180233489Y-120270000D02*
X180233489Y-123230000D01*
X180233489Y-123230000D02*
X178773489Y-123230000D01*
X160860000Y-110980000D02*
X162720000Y-110980000D01*
X160860000Y-111920000D02*
X160860000Y-110980000D01*
X162720000Y-110980000D02*
X162720000Y-111920000D01*
X162720000Y-111920000D02*
X160860000Y-111920000D01*
X186500000Y-55500000D02*
X189460000Y-55500000D01*
X186500000Y-56960000D02*
X186500000Y-55500000D01*
X189460000Y-55500000D02*
X189460000Y-56960000D01*
X189460000Y-56960000D02*
X186500000Y-56960000D01*
X139920000Y-140470000D02*
X143420000Y-140470000D01*
X139920000Y-142170000D02*
X139920000Y-140470000D01*
X143420000Y-140470000D02*
X143420000Y-142170000D01*
X143420000Y-142170000D02*
X139920000Y-142170000D01*
X173860000Y-149782500D02*
X175320000Y-149782500D01*
X173860000Y-152742500D02*
X173860000Y-149782500D01*
X175320000Y-149782500D02*
X175320000Y-152742500D01*
X175320000Y-152742500D02*
X173860000Y-152742500D01*
X174520000Y-97400000D02*
X177480000Y-97400000D01*
X174520000Y-98860000D02*
X174520000Y-97400000D01*
X177480000Y-97400000D02*
X177480000Y-98860000D01*
X177480000Y-98860000D02*
X174520000Y-98860000D01*
X183510000Y-143030000D02*
X185370000Y-143030000D01*
X183510000Y-143970000D02*
X183510000Y-143030000D01*
X185370000Y-143030000D02*
X185370000Y-143970000D01*
X185370000Y-143970000D02*
X183510000Y-143970000D01*
X63475000Y-153480000D02*
X63480000Y-144520000D01*
X63475000Y-153480000D02*
X71530000Y-153480000D01*
X71530000Y-144530000D02*
X63480000Y-144520000D01*
X71530000Y-153480000D02*
X71530000Y-144530000D01*
X182730000Y-132615000D02*
G75*
G02*
X181230000Y-132615000I-750000J0D01*
G01*
X181230000Y-132615000D02*
G75*
G02*
X182730000Y-132615000I750000J0D01*
G01*
X100185000Y-78550000D02*
X101105000Y-78550000D01*
X100185000Y-80370000D02*
X100185000Y-78550000D01*
X101105000Y-78550000D02*
X101105000Y-80370000D01*
X101105000Y-80370000D02*
X100185000Y-80370000D01*
X81185000Y-58570000D02*
X84335000Y-58570000D01*
X81185000Y-61570000D02*
X81185000Y-58570000D01*
X81185000Y-61570000D02*
X84335000Y-61570000D01*
X84335000Y-61570000D02*
X84335000Y-58570000D01*
X85430000Y-110910000D02*
G75*
G02*
X82430000Y-110910000I-1500000J0D01*
G01*
X82430000Y-110910000D02*
G75*
G02*
X85430000Y-110910000I1500000J0D01*
G01*
X140930010Y-133730010D02*
X142750010Y-133730010D01*
X140930010Y-134650010D02*
X140930010Y-133730010D01*
X142750010Y-133730010D02*
X142750010Y-134650010D01*
X142750010Y-134650010D02*
X140930010Y-134650010D01*
X85630000Y-75120000D02*
X88590000Y-75120000D01*
X85630000Y-76580000D02*
X85630000Y-75120000D01*
X88590000Y-75120000D02*
X88590000Y-76580000D01*
X88590000Y-76580000D02*
X85630000Y-76580000D01*
X156135000Y-145200000D02*
X159095000Y-145200000D01*
X156135000Y-146660000D02*
X156135000Y-145200000D01*
X159095000Y-145200000D02*
X159095000Y-146660000D01*
X159095000Y-146660000D02*
X156135000Y-146660000D01*
X63070000Y-145330000D02*
X59070000Y-145330000D01*
X59070000Y-147330000D01*
X63070000Y-147330000D01*
X63070000Y-145330000D01*
X176930000Y-152250000D02*
X178390000Y-152250000D01*
X176930000Y-155210000D02*
X176930000Y-152250000D01*
X178390000Y-152250000D02*
X178390000Y-155210000D01*
X178390000Y-155210000D02*
X176930000Y-155210000D01*
X117285000Y-112020000D02*
G75*
G02*
X115785000Y-112020000I-750000J0D01*
G01*
X115785000Y-112020000D02*
G75*
G02*
X117285000Y-112020000I750000J0D01*
G01*
X59840000Y-62560000D02*
G75*
G02*
X56840000Y-62560000I-1500000J0D01*
G01*
X56840000Y-62560000D02*
G75*
G02*
X59840000Y-62560000I1500000J0D01*
G01*
X79444290Y-62310000D02*
X73104290Y-62310000D01*
X73104290Y-60040000D01*
X79444290Y-60040000D01*
X79444290Y-62310000D01*
X189285000Y-132290000D02*
X192245000Y-132290000D01*
X189285000Y-133750000D02*
X189285000Y-132290000D01*
X192245000Y-132290000D02*
X192245000Y-133750000D01*
X192245000Y-133750000D02*
X189285000Y-133750000D01*
X190770000Y-146450000D02*
X191710000Y-146450000D01*
X190770000Y-148310000D02*
X190770000Y-146450000D01*
X191710000Y-146450000D02*
X191710000Y-148310000D01*
X191710000Y-148310000D02*
X190770000Y-148310000D01*
X178140000Y-73965000D02*
X179600000Y-73965000D01*
X178140000Y-76925000D02*
X178140000Y-73965000D01*
X179600000Y-73965000D02*
X179600000Y-76925000D01*
X179600000Y-76925000D02*
X178140000Y-76925000D01*
D12*
X185700000Y-77540000D02*
X194693933Y-77541099D01*
X185700000Y-82140000D02*
X185700000Y-77540000D01*
X194693934Y-77541027D02*
X194693934Y-82137188D01*
X194693934Y-82137188D02*
G75*
G02*
X185700000Y-82140000I-4493934J-9702812D01*
G01*
D10*
X197520000Y-120185000D02*
X198980000Y-120185000D01*
X197520000Y-123145000D02*
X197520000Y-120185000D01*
X198980000Y-120185000D02*
X198980000Y-123145000D01*
X198980000Y-123145000D02*
X197520000Y-123145000D01*
X174500000Y-98920000D02*
X175960000Y-98920000D01*
X174500000Y-101880000D02*
X174500000Y-98920000D01*
X175960000Y-98920000D02*
X175960000Y-101880000D01*
X175960000Y-101880000D02*
X174500000Y-101880000D01*
X68020000Y-95785000D02*
X70980000Y-95785000D01*
X68020000Y-97245000D02*
X68020000Y-95785000D01*
X70980000Y-95785000D02*
X70980000Y-97245000D01*
X70980000Y-97245000D02*
X68020000Y-97245000D01*
X113470010Y-128580010D02*
X114930010Y-128580010D01*
X113470010Y-131540010D02*
X113470010Y-128580010D01*
X114930010Y-128580010D02*
X114930010Y-131540010D01*
X114930010Y-131540010D02*
X113470010Y-131540010D01*
X179700000Y-103340000D02*
X181560000Y-103340000D01*
X179700000Y-104280000D02*
X179700000Y-103340000D01*
X181560000Y-103340000D02*
X181560000Y-104280000D01*
X181560000Y-104280000D02*
X179700000Y-104280000D01*
X167240000Y-97547500D02*
X168180000Y-97547500D01*
X167240000Y-99407500D02*
X167240000Y-97547500D01*
X168180000Y-97547500D02*
X168180000Y-99407500D01*
X168180000Y-99407500D02*
X167240000Y-99407500D01*
X186447500Y-134965000D02*
X187907500Y-134965000D01*
X186447500Y-137925000D02*
X186447500Y-134965000D01*
X187907500Y-134965000D02*
X187907500Y-137925000D01*
X187907500Y-137925000D02*
X186447500Y-137925000D01*
X175410000Y-148090000D02*
X175410000Y-152190000D01*
X175410000Y-152190000D02*
X178810000Y-152190000D01*
X178810000Y-148090000D02*
X175410000Y-148090000D01*
X178810000Y-152190000D02*
X178810000Y-148090000D01*
X174525000Y-95880000D02*
X177485000Y-95880000D01*
X174525000Y-97340000D02*
X174525000Y-95880000D01*
X177485000Y-95880000D02*
X177485000Y-97340000D01*
X177485000Y-97340000D02*
X174525000Y-97340000D01*
X69150000Y-75895000D02*
X55430000Y-75895000D01*
X55430000Y-64265000D01*
X69150000Y-64265000D01*
X69150000Y-75895000D01*
X176800000Y-79910000D02*
X177720000Y-79910000D01*
X176800000Y-81730000D02*
X176800000Y-79910000D01*
X177720000Y-79910000D02*
X177720000Y-81730000D01*
X177720000Y-81730000D02*
X176800000Y-81730000D01*
X176020000Y-98920000D02*
X177480000Y-98920000D01*
X176020000Y-101880000D02*
X176020000Y-98920000D01*
X177480000Y-98920000D02*
X177480000Y-101880000D01*
X177480000Y-101880000D02*
X176020000Y-101880000D01*
X101020000Y-105528750D02*
X103980000Y-105528750D01*
X101020000Y-106988750D02*
X101020000Y-105528750D01*
X103980000Y-105528750D02*
X103980000Y-106988750D01*
X103980000Y-106988750D02*
X101020000Y-106988750D01*
X125080010Y-147330010D02*
X128040010Y-147330010D01*
X125080010Y-148790010D02*
X125080010Y-147330010D01*
X128040010Y-147330010D02*
X128040010Y-148790010D01*
X128040010Y-148790010D02*
X125080010Y-148790010D01*
X118765010Y-128565010D02*
X120225010Y-128565010D01*
X118765010Y-131525010D02*
X118765010Y-128565010D01*
X120225010Y-128565010D02*
X120225010Y-131525010D01*
X120225010Y-131525010D02*
X118765010Y-131525010D01*
X85620000Y-70580000D02*
X88580000Y-70580000D01*
X85620000Y-72040000D02*
X85620000Y-70580000D01*
X88580000Y-70580000D02*
X88580000Y-72040000D01*
X88580000Y-72040000D02*
X85620000Y-72040000D01*
X96775000Y-63920000D02*
X98235000Y-63920000D01*
X96775000Y-66880000D02*
X96775000Y-63920000D01*
X98235000Y-63920000D02*
X98235000Y-66880000D01*
X98235000Y-66880000D02*
X96775000Y-66880000D01*
X121790010Y-133105010D02*
X123490010Y-133105010D01*
X121790010Y-136605010D02*
X121790010Y-133105010D01*
X123490010Y-133105010D02*
X123490010Y-136605010D01*
X123490010Y-136605010D02*
X121790010Y-136605010D01*
X113460010Y-131630010D02*
X116420010Y-131630010D01*
X113460010Y-133090010D02*
X113460010Y-131630010D01*
X116420010Y-131630010D02*
X116420010Y-133090010D01*
X116420010Y-133090010D02*
X113460010Y-133090010D01*
X97025000Y-98810000D02*
X98485000Y-98810000D01*
X97025000Y-101770000D02*
X97025000Y-98810000D01*
X98485000Y-98810000D02*
X98485000Y-101770000D01*
X98485000Y-101770000D02*
X97025000Y-101770000D01*
X134260000Y-44440000D02*
X154850000Y-44440000D01*
X154850000Y-54840000D01*
X134260000Y-54840000D01*
X134260000Y-44440000D01*
X191783489Y-121409478D02*
X192583489Y-121407500D01*
X191783489Y-122808489D02*
X191783489Y-121408489D01*
X192583489Y-121407500D02*
X192583489Y-122808489D01*
X192583489Y-122808489D02*
X191783489Y-122810467D01*
X157020000Y-140840000D02*
X157020000Y-142840000D01*
X157020000Y-140840000D02*
X159020000Y-140840000D01*
X159020000Y-142840000D02*
X157020000Y-142840000D01*
X159020000Y-142840000D02*
X159020000Y-140840000D01*
X183425000Y-139000000D02*
X185285000Y-139000000D01*
X183425000Y-139940000D02*
X183425000Y-139000000D01*
X185285000Y-139000000D02*
X185285000Y-139940000D01*
X185285000Y-139940000D02*
X183425000Y-139940000D01*
X96340000Y-82605000D02*
X96340000Y-88325000D01*
X96340000Y-88325000D02*
X105640000Y-88325000D01*
X105640000Y-82605000D02*
X96340000Y-82605000D01*
X105640000Y-88325000D02*
X105640000Y-82605000D01*
X145890010Y-134350010D02*
X148850010Y-134350010D01*
X145890010Y-135810010D02*
X145890010Y-134350010D01*
X148850010Y-134350010D02*
X148850010Y-135810010D01*
X148850010Y-135810010D02*
X145890010Y-135810010D01*
X92377500Y-108573750D02*
X93837500Y-108573750D01*
X92377500Y-111533750D02*
X92377500Y-108573750D01*
X93837500Y-108573750D02*
X93837500Y-111533750D01*
X93837500Y-111533750D02*
X92377500Y-111533750D01*
X49602500Y-25627500D02*
X49602500Y-33877500D01*
X49602500Y-33877500D02*
X65842500Y-33877500D01*
X65842500Y-25627500D02*
X49602500Y-25627500D01*
X65842500Y-33877500D02*
X65842500Y-25627500D01*
X142370010Y-135870010D02*
X143830010Y-135870010D01*
X142370010Y-138830010D02*
X142370010Y-135870010D01*
X143830010Y-135870010D02*
X143830010Y-138830010D01*
X143830010Y-138830010D02*
X142370010Y-138830010D01*
X55750000Y-154782500D02*
X57210000Y-154782500D01*
X55750000Y-157742500D02*
X55750000Y-154782500D01*
X57210000Y-154782500D02*
X57210000Y-157742500D01*
X57210000Y-157742500D02*
X55750000Y-157742500D01*
X182743489Y-121474478D02*
X183543489Y-121472500D01*
X182743489Y-122873489D02*
X182743489Y-121473489D01*
X183543489Y-121472500D02*
X183543489Y-122873489D01*
X183543489Y-122873489D02*
X182743489Y-122875467D01*
X68590000Y-85650000D02*
X71550000Y-85650000D01*
X68590000Y-87110000D02*
X68590000Y-85650000D01*
X71550000Y-85650000D02*
X71550000Y-87110000D01*
X71550000Y-87110000D02*
X68590000Y-87110000D01*
X168247500Y-135305000D02*
X171207500Y-135305000D01*
X168247500Y-136765000D02*
X168247500Y-135305000D01*
X171207500Y-135305000D02*
X171207500Y-136765000D01*
X171207500Y-136765000D02*
X168247500Y-136765000D01*
X184035000Y-71970000D02*
X184035000Y-75370000D01*
X184035000Y-75370000D02*
X188235000Y-75370000D01*
X188235000Y-71970000D02*
X184035000Y-71970000D01*
X188235000Y-75370000D02*
X188235000Y-71970000D01*
X175690000Y-108475000D02*
X177550000Y-108475000D01*
X175690000Y-109415000D02*
X175690000Y-108475000D01*
X177550000Y-108475000D02*
X177550000Y-109415000D01*
X177550000Y-109415000D02*
X175690000Y-109415000D01*
X128170000Y-126750000D02*
X129110000Y-126750000D01*
X128170000Y-128610000D02*
X128170000Y-126750000D01*
X129110000Y-126750000D02*
X129110000Y-128610000D01*
X129110000Y-128610000D02*
X128170000Y-128610000D01*
X170510000Y-76710000D02*
X171430000Y-76710000D01*
X170510000Y-78530000D02*
X170510000Y-76710000D01*
X171430000Y-76710000D02*
X171430000Y-78530000D01*
X171430000Y-78530000D02*
X170510000Y-78530000D01*
X85885000Y-79960000D02*
X88845000Y-79960000D01*
X85885000Y-81420000D02*
X85885000Y-79960000D01*
X88845000Y-79960000D02*
X88845000Y-81420000D01*
X88845000Y-81420000D02*
X85885000Y-81420000D01*
X78910000Y-64610000D02*
X78910000Y-62610000D01*
X78910000Y-64610000D02*
X80910000Y-64610000D01*
X80910000Y-62610000D02*
X78910000Y-62610000D01*
X80910000Y-62610000D02*
X80910000Y-64610000D01*
X161260000Y-102760000D02*
X163080000Y-102760000D01*
X161260000Y-103680000D02*
X161260000Y-102760000D01*
X163080000Y-102760000D02*
X163080000Y-103680000D01*
X163080000Y-103680000D02*
X161260000Y-103680000D01*
X121770010Y-137000010D02*
X123590010Y-137000010D01*
X121770010Y-137920010D02*
X121770010Y-137000010D01*
X123590010Y-137000010D02*
X123590010Y-137920010D01*
X123590010Y-137920010D02*
X121770010Y-137920010D01*
X171135000Y-101305000D02*
G75*
G02*
X170135000Y-101305000I-500000J0D01*
G01*
X170135000Y-101305000D02*
G75*
G02*
X171135000Y-101305000I500000J0D01*
G01*
X87000000Y-111378750D02*
X87000000Y-106978750D01*
X92200000Y-106978750D02*
X87000000Y-106978750D01*
X92200000Y-111378750D02*
X87000000Y-111378750D01*
X92200000Y-111378750D02*
X92200000Y-106978750D01*
X165035000Y-91990000D02*
X167995000Y-91990000D01*
X165035000Y-93450000D02*
X165035000Y-91990000D01*
X167995000Y-91990000D02*
X167995000Y-93450000D01*
X167995000Y-93450000D02*
X165035000Y-93450000D01*
X49760000Y-85240000D02*
X49760000Y-96540000D01*
X49760000Y-96540000D02*
X66410000Y-96540000D01*
X66410000Y-85240000D02*
X49760000Y-85240000D01*
X66410000Y-96540000D02*
X66410000Y-85240000D01*
X136900000Y-126830000D02*
X137840000Y-126830000D01*
X136900000Y-128690000D02*
X136900000Y-126830000D01*
X137840000Y-126830000D02*
X137840000Y-128690000D01*
X137840000Y-128690000D02*
X136900000Y-128690000D01*
X186550000Y-140010000D02*
X188010000Y-140010000D01*
X186550000Y-142970000D02*
X186550000Y-140010000D01*
X188010000Y-140010000D02*
X188010000Y-142970000D01*
X188010000Y-142970000D02*
X186550000Y-142970000D01*
X52690000Y-154792500D02*
X54150000Y-154792500D01*
X52690000Y-157752500D02*
X52690000Y-154792500D01*
X54150000Y-154792500D02*
X54150000Y-157752500D01*
X54150000Y-157752500D02*
X52690000Y-157752500D01*
X127070010Y-145290010D02*
X127990010Y-145290010D01*
X127070010Y-147110010D02*
X127070010Y-145290010D01*
X127990010Y-145290010D02*
X127990010Y-147110010D01*
X127990010Y-147110010D02*
X127070010Y-147110010D01*
X134165010Y-147330010D02*
X137125010Y-147330010D01*
X134165010Y-148790010D02*
X134165010Y-147330010D01*
X137125010Y-147330010D02*
X137125010Y-148790010D01*
X137125010Y-148790010D02*
X134165010Y-148790010D01*
X124465010Y-150400010D02*
X127425010Y-150400010D01*
X124465010Y-151860010D02*
X124465010Y-150400010D01*
X127425010Y-150400010D02*
X127425010Y-151860010D01*
X127425010Y-151860010D02*
X124465010Y-151860010D01*
X93640000Y-78540000D02*
X95100000Y-78540000D01*
X93640000Y-81500000D02*
X93640000Y-78540000D01*
X95100000Y-78540000D02*
X95100000Y-81500000D01*
X95100000Y-81500000D02*
X93640000Y-81500000D01*
X85860000Y-84110000D02*
X94710000Y-84110000D01*
X85860000Y-90310000D02*
X85860000Y-84110000D01*
X94710000Y-84110000D02*
X94710000Y-90310000D01*
X94710000Y-90310000D02*
X85860000Y-90310000D01*
X172340000Y-72800000D02*
G75*
G02*
X170840000Y-72800000I-750000J0D01*
G01*
X170840000Y-72800000D02*
G75*
G02*
X172340000Y-72800000I750000J0D01*
G01*
X144040000Y-138740000D02*
X145500000Y-138740000D01*
X144040000Y-141700000D02*
X144040000Y-138740000D01*
X145500000Y-138740000D02*
X145500000Y-141700000D01*
X145500000Y-141700000D02*
X144040000Y-141700000D01*
X185020000Y-140010000D02*
X186480000Y-140010000D01*
X185020000Y-142970000D02*
X185020000Y-140010000D01*
X186480000Y-140010000D02*
X186480000Y-142970000D01*
X186480000Y-142970000D02*
X185020000Y-142970000D01*
X85620000Y-72090000D02*
X88580000Y-72090000D01*
X85620000Y-73550000D02*
X85620000Y-72090000D01*
X88580000Y-72090000D02*
X88580000Y-73550000D01*
X88580000Y-73550000D02*
X85620000Y-73550000D01*
X98520000Y-93872500D02*
X99980000Y-93872500D01*
X98520000Y-96832500D02*
X98520000Y-93872500D01*
X99980000Y-93872500D02*
X99980000Y-96832500D01*
X99980000Y-96832500D02*
X98520000Y-96832500D01*
X175690000Y-106460000D02*
X177550000Y-106460000D01*
X175690000Y-107400000D02*
X175690000Y-106460000D01*
X177550000Y-106460000D02*
X177550000Y-107400000D01*
X177550000Y-107400000D02*
X175690000Y-107400000D01*
X168030000Y-95370000D02*
X168950000Y-95370000D01*
X168030000Y-97190000D02*
X168030000Y-95370000D01*
X168950000Y-95370000D02*
X168950000Y-97190000D01*
X168950000Y-97190000D02*
X168030000Y-97190000D01*
X158285000Y-64020000D02*
G75*
G02*
X156785000Y-64020000I-750000J0D01*
G01*
X156785000Y-64020000D02*
G75*
G02*
X158285000Y-64020000I750000J0D01*
G01*
X170042500Y-129195000D02*
X171502500Y-129195000D01*
X170042500Y-132155000D02*
X170042500Y-129195000D01*
X171502500Y-129195000D02*
X171502500Y-132155000D01*
X171502500Y-132155000D02*
X170042500Y-132155000D01*
X191350000Y-141000000D02*
X193170000Y-141000000D01*
X191350000Y-141920000D02*
X191350000Y-141000000D01*
X193170000Y-141000000D02*
X193170000Y-141920000D01*
X193170000Y-141920000D02*
X191350000Y-141920000D01*
X176620000Y-73955000D02*
X178080000Y-73955000D01*
X176620000Y-76915000D02*
X176620000Y-73955000D01*
X178080000Y-73955000D02*
X178080000Y-76915000D01*
X178080000Y-76915000D02*
X176620000Y-76915000D01*
X160870000Y-134770000D02*
X161790000Y-134770000D01*
X160870000Y-136590000D02*
X160870000Y-134770000D01*
X161790000Y-134770000D02*
X161790000Y-136590000D01*
X161790000Y-136590000D02*
X160870000Y-136590000D01*
X54220000Y-154792500D02*
X55680000Y-154792500D01*
X54220000Y-157752500D02*
X54220000Y-154792500D01*
X55680000Y-154792500D02*
X55680000Y-157752500D01*
X55680000Y-157752500D02*
X54220000Y-157752500D01*
X168690000Y-149800000D02*
X168690000Y-151800000D01*
X168690000Y-149800000D02*
X170690000Y-149800000D01*
X170690000Y-151800000D02*
X168690000Y-151800000D01*
X170690000Y-151800000D02*
X170690000Y-149800000D01*
X101370000Y-63920000D02*
X102830000Y-63920000D01*
X101370000Y-66880000D02*
X101370000Y-63920000D01*
X102830000Y-63920000D02*
X102830000Y-66880000D01*
X102830000Y-66880000D02*
X101370000Y-66880000D01*
X119690010Y-136920010D02*
X119690010Y-134920010D01*
X119690010Y-136920010D02*
X121690010Y-136920010D01*
X121690010Y-134920010D02*
X119690010Y-134920010D01*
X121690010Y-134920010D02*
X121690010Y-136920010D01*
X90570000Y-77960000D02*
G75*
G02*
X89070000Y-77960000I-750000J0D01*
G01*
X89070000Y-77960000D02*
G75*
G02*
X90570000Y-77960000I750000J0D01*
G01*
X63905000Y-154207500D02*
X63905000Y-167477500D01*
X63905000Y-154207500D02*
X80215000Y-154207500D01*
X80215000Y-167477500D02*
X63905000Y-167477500D01*
X80215000Y-167477500D02*
X80215000Y-154207500D01*
X82275000Y-79460000D02*
X85425000Y-79460000D01*
X82275000Y-82460000D02*
X82275000Y-79460000D01*
X82275000Y-82460000D02*
X85425000Y-82460000D01*
X85425000Y-82460000D02*
X85425000Y-79460000D01*
X168240000Y-97540000D02*
X169180000Y-97540000D01*
X168240000Y-99400000D02*
X168240000Y-97540000D01*
X169180000Y-97540000D02*
X169180000Y-99400000D01*
X169180000Y-99400000D02*
X168240000Y-99400000D01*
X95495000Y-98825000D02*
X96955000Y-98825000D01*
X95495000Y-101785000D02*
X95495000Y-98825000D01*
X96955000Y-98825000D02*
X96955000Y-101785000D01*
X96955000Y-101785000D02*
X95495000Y-101785000D01*
X196250000Y-74110000D02*
X198110000Y-74110000D01*
X196250000Y-75050000D02*
X196250000Y-74110000D01*
X198110000Y-74110000D02*
X198110000Y-75050000D01*
X198110000Y-75050000D02*
X196250000Y-75050000D01*
X98410000Y-120630000D02*
X99870000Y-120630000D01*
X98410000Y-123590000D02*
X98410000Y-120630000D01*
X99870000Y-120630000D02*
X99870000Y-123590000D01*
X99870000Y-123590000D02*
X98410000Y-123590000D01*
X166120000Y-138620000D02*
X166120000Y-136620000D01*
X166120000Y-138620000D02*
X168120000Y-138620000D01*
X168120000Y-136620000D02*
X166120000Y-136620000D01*
X168120000Y-136620000D02*
X168120000Y-138620000D01*
X137910000Y-140460000D02*
X138830000Y-140460000D01*
X137910000Y-142280000D02*
X137910000Y-140460000D01*
X138830000Y-140460000D02*
X138830000Y-142280000D01*
X138830000Y-142280000D02*
X137910000Y-142280000D01*
X195763489Y-121399478D02*
X196563489Y-121397500D01*
X195763489Y-122798489D02*
X195763489Y-121398489D01*
X196563489Y-121397500D02*
X196563489Y-122798489D01*
X196563489Y-122798489D02*
X195763489Y-122800467D01*
X183422500Y-136475000D02*
X186382500Y-136475000D01*
X183422500Y-137935000D02*
X183422500Y-136475000D01*
X186382500Y-136475000D02*
X186382500Y-137935000D01*
X186382500Y-137935000D02*
X183422500Y-137935000D01*
X191770000Y-146450000D02*
X192710000Y-146450000D01*
X191770000Y-148310000D02*
X191770000Y-146450000D01*
X192710000Y-146450000D02*
X192710000Y-148310000D01*
X192710000Y-148310000D02*
X191770000Y-148310000D01*
X100570000Y-67960000D02*
G75*
G02*
X99070000Y-67960000I-750000J0D01*
G01*
X99070000Y-67960000D02*
G75*
G02*
X100570000Y-67960000I750000J0D01*
G01*
X183415000Y-133940000D02*
X185275000Y-133940000D01*
X183415000Y-134880000D02*
X183415000Y-133940000D01*
X185275000Y-133940000D02*
X185275000Y-134880000D01*
X185275000Y-134880000D02*
X183415000Y-134880000D01*
X130550000Y-126780000D02*
X131490000Y-126780000D01*
X130550000Y-128640000D02*
X130550000Y-126780000D01*
X131490000Y-126780000D02*
X131490000Y-128640000D01*
X131490000Y-128640000D02*
X130550000Y-128640000D01*
X116190010Y-133160010D02*
X116190010Y-135160010D01*
X116190010Y-133160010D02*
X118190010Y-133160010D01*
X118190010Y-135160010D02*
X116190010Y-135160010D01*
X118190010Y-135160010D02*
X118190010Y-133160010D01*
X129450010Y-145270010D02*
X130370010Y-145270010D01*
X129450010Y-147090010D02*
X129450010Y-145270010D01*
X130370010Y-145270010D02*
X130370010Y-147090010D01*
X130370010Y-147090010D02*
X129450010Y-147090010D01*
X155720000Y-133190000D02*
X157680000Y-133190000D01*
X155720000Y-136590000D02*
X155720000Y-133190000D01*
X157680000Y-133190000D02*
X157680000Y-136590000D01*
X157680000Y-136590000D02*
X155720000Y-136590000D01*
X68435000Y-82520000D02*
X68435000Y-85520000D01*
X71585000Y-82520000D02*
X68435000Y-82520000D01*
X71585000Y-82520000D02*
X71585000Y-85520000D01*
X71585000Y-85520000D02*
X68435000Y-85520000D01*
X186480000Y-53530000D02*
X188300000Y-53530000D01*
X186480000Y-54450000D02*
X186480000Y-53530000D01*
X188300000Y-53530000D02*
X188300000Y-54450000D01*
X188300000Y-54450000D02*
X186480000Y-54450000D01*
X163725000Y-81930000D02*
X163725000Y-88030000D01*
X163725000Y-88030000D02*
X175525000Y-88030000D01*
X175525000Y-81930000D02*
X163725000Y-81930000D01*
X175525000Y-88030000D02*
X175525000Y-81930000D01*
X168100000Y-91980000D02*
X169920000Y-91980000D01*
X168100000Y-92900000D02*
X168100000Y-91980000D01*
X169920000Y-91980000D02*
X169920000Y-92900000D01*
X169920000Y-92900000D02*
X168100000Y-92900000D01*
X94610000Y-103130000D02*
X98910000Y-103130000D01*
X94610000Y-106730000D02*
X94610000Y-103130000D01*
X98910000Y-103130000D02*
X98910000Y-106730000D01*
X98910000Y-106730000D02*
X94610000Y-106730000D01*
X183895000Y-129200000D02*
X185355000Y-129200000D01*
X183895000Y-132160000D02*
X183895000Y-129200000D01*
X185355000Y-129200000D02*
X185355000Y-132160000D01*
X185355000Y-132160000D02*
X183895000Y-132160000D01*
X134160010Y-145230010D02*
X135100010Y-145230010D01*
X134160010Y-147090010D02*
X134160010Y-145230010D01*
X135100010Y-145230010D02*
X135100010Y-147090010D01*
X135100010Y-147090010D02*
X134160010Y-147090010D01*
X67435000Y-120610000D02*
X70395000Y-120610000D01*
X67435000Y-122070000D02*
X67435000Y-120610000D01*
X70395000Y-120610000D02*
X70395000Y-122070000D01*
X70395000Y-122070000D02*
X67435000Y-122070000D01*
X101210000Y-78825000D02*
X103030000Y-78825000D01*
X101210000Y-79745000D02*
X101210000Y-78825000D01*
X103030000Y-78825000D02*
X103030000Y-79745000D01*
X103030000Y-79745000D02*
X101210000Y-79745000D01*
X120910000Y-144050000D02*
X122730000Y-144050000D01*
X120910000Y-144970000D02*
X120910000Y-144050000D01*
X122730000Y-144050000D02*
X122730000Y-144970000D01*
X122730000Y-144970000D02*
X120910000Y-144970000D01*
X160870000Y-109940000D02*
X162730000Y-109940000D01*
X160870000Y-110880000D02*
X160870000Y-109940000D01*
X162730000Y-109940000D02*
X162730000Y-110880000D01*
X162730000Y-110880000D02*
X160870000Y-110880000D01*
X123550010Y-148870010D02*
X126510010Y-148870010D01*
X123550010Y-150330010D02*
X123550010Y-148870010D01*
X126510010Y-148870010D02*
X126510010Y-150330010D01*
X126510010Y-150330010D02*
X123550010Y-150330010D01*
X138450000Y-135890000D02*
X139910000Y-135890000D01*
X138450000Y-138850000D02*
X138450000Y-135890000D01*
X139910000Y-135890000D02*
X139910000Y-138850000D01*
X139910000Y-138850000D02*
X138450000Y-138850000D01*
X196630000Y-121395989D02*
X197430000Y-121394011D01*
X196630000Y-122795000D02*
X196630000Y-121395000D01*
X197430000Y-121394011D02*
X197430000Y-122795000D01*
X197430000Y-122795000D02*
X196630000Y-122796978D01*
X131550000Y-126775000D02*
X132490000Y-126775000D01*
X131550000Y-128635000D02*
X131550000Y-126775000D01*
X132490000Y-126775000D02*
X132490000Y-128635000D01*
X132490000Y-128635000D02*
X131550000Y-128635000D01*
X186470000Y-52550000D02*
X188290000Y-52550000D01*
X186470000Y-53470000D02*
X186470000Y-52550000D01*
X188290000Y-52550000D02*
X188290000Y-53470000D01*
X188290000Y-53470000D02*
X186470000Y-53470000D01*
X77340000Y-66120000D02*
X78800000Y-66120000D01*
X77340000Y-69080000D02*
X77340000Y-66120000D01*
X78800000Y-66120000D02*
X78800000Y-69080000D01*
X78800000Y-69080000D02*
X77340000Y-69080000D01*
X138740010Y-152030010D02*
X145740010Y-152030010D01*
X138740010Y-155530010D02*
X138740010Y-152030010D01*
X145740010Y-152030010D02*
X145740010Y-155530010D01*
X145740010Y-155530010D02*
X138740010Y-155530010D01*
X97020000Y-90770000D02*
X102020000Y-90770000D01*
X97020000Y-93770000D02*
X97020000Y-90770000D01*
X102020000Y-90770000D02*
X102020000Y-93770000D01*
X102020000Y-93770000D02*
X97020000Y-93770000D01*
X186480000Y-58570000D02*
X189440000Y-58570000D01*
X186480000Y-60030000D02*
X186480000Y-58570000D01*
X189440000Y-58570000D02*
X189440000Y-60030000D01*
X189440000Y-60030000D02*
X186480000Y-60030000D01*
X134080000Y-126820000D02*
X135020000Y-126820000D01*
X134080000Y-128680000D02*
X134080000Y-126820000D01*
X135020000Y-126820000D02*
X135020000Y-128680000D01*
X135020000Y-128680000D02*
X134080000Y-128680000D01*
X184035000Y-75430000D02*
X186995000Y-75430000D01*
X184035000Y-76890000D02*
X184035000Y-75430000D01*
X186995000Y-75430000D02*
X186995000Y-76890000D01*
X186995000Y-76890000D02*
X184035000Y-76890000D01*
X96705000Y-78555000D02*
X98165000Y-78555000D01*
X96705000Y-81515000D02*
X96705000Y-78555000D01*
X98165000Y-78555000D02*
X98165000Y-81515000D01*
X98165000Y-81515000D02*
X96705000Y-81515000D01*
X168270000Y-140330000D02*
X171230000Y-140330000D01*
X168270000Y-141790000D02*
X168270000Y-140330000D01*
X171230000Y-140330000D02*
X171230000Y-141790000D01*
X171230000Y-141790000D02*
X168270000Y-141790000D01*
X181620000Y-101350000D02*
X183440000Y-101350000D01*
X181620000Y-102270000D02*
X181620000Y-101350000D01*
X183440000Y-101350000D02*
X183440000Y-102270000D01*
X183440000Y-102270000D02*
X181620000Y-102270000D01*
X192660000Y-120195000D02*
X194120000Y-120195000D01*
X192660000Y-123155000D02*
X192660000Y-120195000D01*
X194120000Y-120195000D02*
X194120000Y-123155000D01*
X194120000Y-123155000D02*
X192660000Y-123155000D01*
X87530000Y-63945000D02*
X88990000Y-63945000D01*
X87530000Y-66905000D02*
X87530000Y-63945000D01*
X88990000Y-63945000D02*
X88990000Y-66905000D01*
X88990000Y-66905000D02*
X87530000Y-66905000D01*
X163140000Y-97790000D02*
X164080000Y-97790000D01*
X163140000Y-99650000D02*
X163140000Y-97790000D01*
X164080000Y-97790000D02*
X164080000Y-99650000D01*
X164080000Y-99650000D02*
X163140000Y-99650000D01*
X168230000Y-138560000D02*
X171190000Y-138560000D01*
X168230000Y-140020000D02*
X168230000Y-138560000D01*
X171190000Y-138560000D02*
X171190000Y-140020000D01*
X171190000Y-140020000D02*
X168230000Y-140020000D01*
X50310000Y-76835000D02*
X54750000Y-76835000D01*
X50310000Y-83885000D02*
X50310000Y-76835000D01*
X54750000Y-76835000D02*
X54750000Y-83885000D01*
X54750000Y-83885000D02*
X50310000Y-83885000D01*
X135900000Y-126830000D02*
X136840000Y-126830000D01*
X135900000Y-128690000D02*
X135900000Y-126830000D01*
X136840000Y-126830000D02*
X136840000Y-128690000D01*
X136840000Y-128690000D02*
X135900000Y-128690000D01*
X91945000Y-58410000D02*
X91945000Y-61470000D01*
X91945000Y-61470000D02*
X98795000Y-61470000D01*
X98795000Y-58410000D02*
X91945000Y-58410000D01*
X98795000Y-61470000D02*
X98795000Y-58410000D01*
X131830010Y-145260010D02*
X132750010Y-145260010D01*
X131830010Y-147080010D02*
X131830010Y-145260010D01*
X132750010Y-145260010D02*
X132750010Y-147080010D01*
X132750010Y-147080010D02*
X131830010Y-147080010D01*
X169240000Y-146722500D02*
X170700000Y-146722500D01*
X169240000Y-149682500D02*
X169240000Y-146722500D01*
X170700000Y-146722500D02*
X170700000Y-149682500D01*
X170700000Y-149682500D02*
X169240000Y-149682500D01*
X190233489Y-120265000D02*
X191693489Y-120265000D01*
X190233489Y-123225000D02*
X190233489Y-120265000D01*
X191693489Y-120265000D02*
X191693489Y-123225000D01*
X191693489Y-123225000D02*
X190233489Y-123225000D01*
X68450000Y-79490000D02*
X69910000Y-79490000D01*
X68450000Y-82450000D02*
X68450000Y-79490000D01*
X69910000Y-79490000D02*
X69910000Y-82450000D01*
X69910000Y-82450000D02*
X68450000Y-82450000D01*
X156130000Y-149805000D02*
X159090000Y-149805000D01*
X156130000Y-151265000D02*
X156130000Y-149805000D01*
X159090000Y-149805000D02*
X159090000Y-151265000D01*
X159090000Y-151265000D02*
X156130000Y-151265000D01*
X92175000Y-63935000D02*
X93635000Y-63935000D01*
X92175000Y-66895000D02*
X92175000Y-63935000D01*
X93635000Y-63935000D02*
X93635000Y-66895000D01*
X93635000Y-66895000D02*
X92175000Y-66895000D01*
X102130000Y-93060000D02*
X102130000Y-95060000D01*
X102130000Y-93060000D02*
X104130000Y-93060000D01*
X104130000Y-95060000D02*
X102130000Y-95060000D01*
X104130000Y-95060000D02*
X104130000Y-93060000D01*
X183623489Y-120263489D02*
X185083489Y-120263489D01*
X183623489Y-123223489D02*
X183623489Y-120263489D01*
X185083489Y-120263489D02*
X185083489Y-123223489D01*
X185083489Y-123223489D02*
X183623489Y-123223489D01*
X186480000Y-54510000D02*
X188300000Y-54510000D01*
X186480000Y-55430000D02*
X186480000Y-54510000D01*
X188300000Y-54510000D02*
X188300000Y-55430000D01*
X188300000Y-55430000D02*
X186480000Y-55430000D01*
X188250000Y-146450000D02*
X189710000Y-146450000D01*
X188250000Y-149410000D02*
X188250000Y-146450000D01*
X189710000Y-146450000D02*
X189710000Y-149410000D01*
X189710000Y-149410000D02*
X188250000Y-149410000D01*
X55880000Y-148070000D02*
X56680000Y-148070000D01*
X56680000Y-146470000D01*
X55880000Y-146470000D01*
X55880000Y-148070000D01*
X168257500Y-136835000D02*
X171217500Y-136835000D01*
X168257500Y-138295000D02*
X168257500Y-136835000D01*
X171217500Y-136835000D02*
X171217500Y-138295000D01*
X171217500Y-138295000D02*
X168257500Y-138295000D01*
X85620000Y-69060000D02*
X88580000Y-69060000D01*
X85620000Y-70520000D02*
X85620000Y-69060000D01*
X88580000Y-69060000D02*
X88580000Y-70520000D01*
X88580000Y-70520000D02*
X85620000Y-70520000D01*
X67425000Y-122160000D02*
X70385000Y-122160000D01*
X67425000Y-123620000D02*
X67425000Y-122160000D01*
X70385000Y-122160000D02*
X70385000Y-123620000D01*
X70385000Y-123620000D02*
X67425000Y-123620000D01*
X80115000Y-72620000D02*
X80115000Y-76020000D01*
X80115000Y-76020000D02*
X84315000Y-76020000D01*
X84315000Y-72620000D02*
X80115000Y-72620000D01*
X84315000Y-76020000D02*
X84315000Y-72620000D01*
X121425010Y-150400010D02*
X124385010Y-150400010D01*
X121425010Y-151860010D02*
X121425010Y-150400010D01*
X124385010Y-150400010D02*
X124385010Y-151860010D01*
X124385010Y-151860010D02*
X121425010Y-151860010D01*
X99215000Y-80430000D02*
X100135000Y-80430000D01*
X99215000Y-82250000D02*
X99215000Y-80430000D01*
X100135000Y-80430000D02*
X100135000Y-82250000D01*
X100135000Y-82250000D02*
X99215000Y-82250000D01*
X77010000Y-77740000D02*
X79970000Y-77740000D01*
X77010000Y-79200000D02*
X77010000Y-77740000D01*
X79970000Y-77740000D02*
X79970000Y-79200000D01*
X79970000Y-79200000D02*
X77010000Y-79200000D01*
X104300000Y-75760000D02*
X105760000Y-75760000D01*
X104300000Y-78720000D02*
X104300000Y-75760000D01*
X105760000Y-75760000D02*
X105760000Y-78720000D01*
X105760000Y-78720000D02*
X104300000Y-78720000D01*
X120600010Y-137985010D02*
X122060010Y-137985010D01*
X120600010Y-140945010D02*
X120600010Y-137985010D01*
X122060010Y-137985010D02*
X122060010Y-140945010D01*
X122060010Y-140945010D02*
X120600010Y-140945010D01*
X69172500Y-67860000D02*
X69172500Y-71260000D01*
X69172500Y-71260000D02*
X73012500Y-71260000D01*
X73012500Y-67860000D02*
X69172500Y-67860000D01*
X73012500Y-71260000D02*
X73012500Y-67860000D01*
X163740000Y-44120000D02*
X184330000Y-44120000D01*
X184330000Y-54520000D01*
X163740000Y-54520000D01*
X163740000Y-44120000D01*
X131342510Y-149120010D02*
X133202510Y-149120010D01*
X131342510Y-150060010D02*
X131342510Y-149120010D01*
X133202510Y-149120010D02*
X133202510Y-150060010D01*
X133202510Y-150060010D02*
X131342510Y-150060010D01*
X187663489Y-121225000D02*
X188583489Y-121225000D01*
X187663489Y-123045000D02*
X187663489Y-121225000D01*
X188583489Y-121225000D02*
X188583489Y-123045000D01*
X188583489Y-123045000D02*
X187663489Y-123045000D01*
X163885000Y-108555000D02*
G75*
G02*
X162885000Y-108555000I-500000J0D01*
G01*
X162885000Y-108555000D02*
G75*
G02*
X163885000Y-108555000I500000J0D01*
G01*
X169920000Y-109490000D02*
X170840000Y-109490000D01*
X169920000Y-111310000D02*
X169920000Y-109490000D01*
X170840000Y-109490000D02*
X170840000Y-111310000D01*
X170840000Y-111310000D02*
X169920000Y-111310000D01*
X87770000Y-37340000D02*
X86310000Y-37340000D01*
X87770000Y-34380000D02*
X87770000Y-37340000D01*
X86310000Y-37340000D02*
X86310000Y-34380000D01*
X86310000Y-34380000D02*
X87770000Y-34380000D01*
X164240000Y-72140000D02*
X165090000Y-72140000D01*
X164240000Y-74140000D02*
X164240000Y-72140000D01*
X165090000Y-72140000D02*
X165090000Y-71240000D01*
X165090000Y-74140000D02*
X164240000Y-74140000D01*
X165090000Y-75040000D02*
X165090000Y-74140000D01*
X167920000Y-71240000D02*
X165090000Y-71240000D01*
X167920000Y-75040000D02*
X165090000Y-75040000D01*
X168820000Y-72140000D02*
X167920000Y-71240000D01*
X168820000Y-74140000D02*
X167920000Y-75040000D01*
X168820000Y-74140000D02*
X169740000Y-74140000D01*
X169740000Y-72140000D02*
X168820000Y-72140000D01*
X169740000Y-74140000D02*
X169740000Y-72140000D01*
X162150000Y-49850000D02*
G75*
G02*
X159150000Y-49850000I-1500000J0D01*
G01*
X159150000Y-49850000D02*
G75*
G02*
X162150000Y-49850000I1500000J0D01*
G01*
X137420000Y-138140000D02*
X138340000Y-138140000D01*
X137420000Y-139960000D02*
X137420000Y-138140000D01*
X138340000Y-138140000D02*
X138340000Y-139960000D01*
X138340000Y-139960000D02*
X137420000Y-139960000D01*
X73860000Y-69520000D02*
X73860000Y-71520000D01*
X73860000Y-69520000D02*
X75860000Y-69520000D01*
X75860000Y-71520000D02*
X73860000Y-71520000D01*
X75860000Y-71520000D02*
X75860000Y-69520000D01*
X49700000Y-124690000D02*
X54140000Y-124690000D01*
X49700000Y-131740000D02*
X49700000Y-124690000D01*
X54140000Y-124690000D02*
X54140000Y-131740000D01*
X54140000Y-131740000D02*
X49700000Y-131740000D01*
D11*
X68060000Y-87230000D02*
X71710000Y-87230000D01*
X68060000Y-94155000D02*
X68060000Y-87230000D01*
X71710000Y-87230000D02*
X71710000Y-94155000D01*
X71710000Y-94155000D02*
X68060000Y-94155000D01*
D10*
X55160000Y-132555000D02*
X68880000Y-132555000D01*
X68880000Y-144185000D01*
X55160000Y-144185000D01*
X55160000Y-132555000D01*
M02*
