%TF.GenerationSoftware,KiCad,Pcbnew,8.0.0-rc1*%
%TF.CreationDate,2024-05-28T16:40:17+03:00*%
%TF.ProjectId,MXVR_3566,4d585652-5f33-4353-9636-2e6b69636164,REV1*%
%TF.SameCoordinates,Original*%
%TF.FileFunction,Drillmap*%
%TF.FilePolarity,Positive*%
%FSLAX45Y45*%
G04 Gerber Fmt 4.5, Leading zero omitted, Abs format (unit mm)*
G04 Created by KiCad (PCBNEW 8.0.0-rc1) date 2024-05-28 16:40:17*
%MOMM*%
%LPD*%
G01*
G04 APERTURE LIST*
%ADD10C,0.050000*%
%ADD11C,0.200000*%
%ADD12C,0.100000*%
%ADD13C,0.110000*%
%ADD14C,0.140000*%
%ADD15C,0.160000*%
%ADD16C,0.320000*%
%ADD17C,0.325000*%
G04 APERTURE END LIST*
D10*
X4747000Y-2555000D02*
X20347000Y-2555000D01*
X20347000Y-16755000D01*
X4747000Y-16755000D01*
X4747000Y-2555000D01*
X11903500Y-11002000D02*
G75*
G02*
X11803500Y-11002000I-50000J0D01*
G01*
X11803500Y-11002000D02*
G75*
G02*
X11903500Y-11002000I50000J0D01*
G01*
X15603500Y-6602000D02*
G75*
G02*
X15503500Y-6602000I-50000J0D01*
G01*
X15503500Y-6602000D02*
G75*
G02*
X15603500Y-6602000I50000J0D01*
G01*
X17114000Y-16607001D02*
X17284000Y-16607001D01*
X17284000Y-16437001D01*
X17114000Y-16437001D01*
X17114000Y-16607001D01*
X17864000Y-16607001D02*
X18034000Y-16607001D01*
X18034000Y-16437001D01*
X17864000Y-16437001D01*
X17864000Y-16607001D01*
X10696000Y-16607001D02*
X10866000Y-16607001D01*
X10866000Y-16437001D01*
X10696000Y-16437001D01*
X10696000Y-16607001D01*
X11446000Y-16607001D02*
X11616000Y-16607001D01*
X11616000Y-16437001D01*
X11446000Y-16437001D01*
X11446000Y-16607001D01*
X14672000Y-16607001D02*
X14842000Y-16607001D01*
X14842000Y-16437001D01*
X14672000Y-16437001D01*
X14672000Y-16607001D01*
X15422000Y-16607001D02*
X15592000Y-16607001D01*
X15592000Y-16437001D01*
X15422000Y-16437001D01*
X15422000Y-16607001D01*
X12005000Y-16607001D02*
X12175000Y-16607001D01*
X12175000Y-16437001D01*
X12005000Y-16437001D01*
X12005000Y-16607001D01*
X12755000Y-16607001D02*
X12925000Y-16607001D01*
X12925000Y-16437001D01*
X12755000Y-16437001D01*
X12755000Y-16607001D01*
X13352000Y-16607001D02*
X13522000Y-16607001D01*
X13522000Y-16437001D01*
X13352000Y-16437001D01*
X13352000Y-16607001D01*
X14102000Y-16607001D02*
X14272000Y-16607001D01*
X14272000Y-16437001D01*
X14102000Y-16437001D01*
X14102000Y-16607001D01*
D11*
D12*
X18450000Y-11680000D02*
X18550000Y-11780000D01*
X18550000Y-11680000D02*
X18450000Y-11780000D01*
X19248000Y-11680000D02*
X19348000Y-11780000D01*
X19348000Y-11680000D02*
X19248000Y-11780000D01*
D13*
X19545990Y-15546500D02*
G75*
G02*
X19435990Y-15546500I-55000J0D01*
G01*
X19435990Y-15546500D02*
G75*
G02*
X19545990Y-15546500I55000J0D01*
G01*
D14*
X17348000Y-7713000D02*
X17348000Y-7853000D01*
X17278000Y-7783000D02*
X17418000Y-7783000D01*
X17348000Y-11032000D02*
X17348000Y-11172000D01*
X17278000Y-11102000D02*
X17418000Y-11102000D01*
D15*
X19547559Y-13603069D02*
X19547559Y-13489931D01*
X19434421Y-13489931D01*
X19434421Y-13603069D01*
X19547559Y-13603069D01*
D16*
X6634500Y-16642750D02*
X6794500Y-16482750D01*
X6634500Y-16322750D01*
X6474500Y-16482750D01*
X6634500Y-16642750D01*
X7777500Y-16642750D02*
X7937500Y-16482750D01*
X7777500Y-16322750D01*
X7617500Y-16482750D01*
X7777500Y-16642750D01*
D17*
X9550500Y-2604500D02*
X9875500Y-2929500D01*
X9875500Y-2604500D02*
X9550500Y-2929500D01*
X9875500Y-2767000D02*
G75*
G02*
X9550500Y-2767000I-162500J0D01*
G01*
X9550500Y-2767000D02*
G75*
G02*
X9875500Y-2767000I162500J0D01*
G01*
X12400500Y-2604500D02*
X12725500Y-2929500D01*
X12725500Y-2604500D02*
X12400500Y-2929500D01*
X12725500Y-2767000D02*
G75*
G02*
X12400500Y-2767000I-162500J0D01*
G01*
X12400500Y-2767000D02*
G75*
G02*
X12725500Y-2767000I162500J0D01*
G01*
X13229000Y-2604500D02*
X13554000Y-2929500D01*
X13554000Y-2604500D02*
X13229000Y-2929500D01*
X13554000Y-2767000D02*
G75*
G02*
X13229000Y-2767000I-162500J0D01*
G01*
X13229000Y-2767000D02*
G75*
G02*
X13554000Y-2767000I162500J0D01*
G01*
X19239000Y-2604500D02*
X19564000Y-2929500D01*
X19564000Y-2604500D02*
X19239000Y-2929500D01*
X19564000Y-2767000D02*
G75*
G02*
X19239000Y-2767000I-162500J0D01*
G01*
X19239000Y-2767000D02*
G75*
G02*
X19564000Y-2767000I162500J0D01*
G01*
D11*
X5005277Y-17068984D02*
X5005277Y-16868984D01*
X5005277Y-16868984D02*
X5052896Y-16868984D01*
X5052896Y-16868984D02*
X5081467Y-16878508D01*
X5081467Y-16878508D02*
X5100515Y-16897555D01*
X5100515Y-16897555D02*
X5110039Y-16916603D01*
X5110039Y-16916603D02*
X5119563Y-16954698D01*
X5119563Y-16954698D02*
X5119563Y-16983270D01*
X5119563Y-16983270D02*
X5110039Y-17021365D01*
X5110039Y-17021365D02*
X5100515Y-17040412D01*
X5100515Y-17040412D02*
X5081467Y-17059460D01*
X5081467Y-17059460D02*
X5052896Y-17068984D01*
X5052896Y-17068984D02*
X5005277Y-17068984D01*
X5205277Y-17068984D02*
X5205277Y-16935650D01*
X5205277Y-16973746D02*
X5214801Y-16954698D01*
X5214801Y-16954698D02*
X5224324Y-16945174D01*
X5224324Y-16945174D02*
X5243372Y-16935650D01*
X5243372Y-16935650D02*
X5262420Y-16935650D01*
X5329086Y-17068984D02*
X5329086Y-16935650D01*
X5329086Y-16868984D02*
X5319563Y-16878508D01*
X5319563Y-16878508D02*
X5329086Y-16888031D01*
X5329086Y-16888031D02*
X5338610Y-16878508D01*
X5338610Y-16878508D02*
X5329086Y-16868984D01*
X5329086Y-16868984D02*
X5329086Y-16888031D01*
X5452896Y-17068984D02*
X5433848Y-17059460D01*
X5433848Y-17059460D02*
X5424324Y-17040412D01*
X5424324Y-17040412D02*
X5424324Y-16868984D01*
X5557658Y-17068984D02*
X5538610Y-17059460D01*
X5538610Y-17059460D02*
X5529086Y-17040412D01*
X5529086Y-17040412D02*
X5529086Y-16868984D01*
X5786229Y-17068984D02*
X5786229Y-16868984D01*
X5786229Y-16868984D02*
X5852896Y-17011841D01*
X5852896Y-17011841D02*
X5919562Y-16868984D01*
X5919562Y-16868984D02*
X5919562Y-17068984D01*
X6100515Y-17068984D02*
X6100515Y-16964222D01*
X6100515Y-16964222D02*
X6090991Y-16945174D01*
X6090991Y-16945174D02*
X6071943Y-16935650D01*
X6071943Y-16935650D02*
X6033848Y-16935650D01*
X6033848Y-16935650D02*
X6014801Y-16945174D01*
X6100515Y-17059460D02*
X6081467Y-17068984D01*
X6081467Y-17068984D02*
X6033848Y-17068984D01*
X6033848Y-17068984D02*
X6014801Y-17059460D01*
X6014801Y-17059460D02*
X6005277Y-17040412D01*
X6005277Y-17040412D02*
X6005277Y-17021365D01*
X6005277Y-17021365D02*
X6014801Y-17002317D01*
X6014801Y-17002317D02*
X6033848Y-16992793D01*
X6033848Y-16992793D02*
X6081467Y-16992793D01*
X6081467Y-16992793D02*
X6100515Y-16983270D01*
X6195753Y-16935650D02*
X6195753Y-17135650D01*
X6195753Y-16945174D02*
X6214801Y-16935650D01*
X6214801Y-16935650D02*
X6252896Y-16935650D01*
X6252896Y-16935650D02*
X6271943Y-16945174D01*
X6271943Y-16945174D02*
X6281467Y-16954698D01*
X6281467Y-16954698D02*
X6290991Y-16973746D01*
X6290991Y-16973746D02*
X6290991Y-17030889D01*
X6290991Y-17030889D02*
X6281467Y-17049936D01*
X6281467Y-17049936D02*
X6271943Y-17059460D01*
X6271943Y-17059460D02*
X6252896Y-17068984D01*
X6252896Y-17068984D02*
X6214801Y-17068984D01*
X6214801Y-17068984D02*
X6195753Y-17059460D01*
X6376705Y-17049936D02*
X6386229Y-17059460D01*
X6386229Y-17059460D02*
X6376705Y-17068984D01*
X6376705Y-17068984D02*
X6367182Y-17059460D01*
X6367182Y-17059460D02*
X6376705Y-17049936D01*
X6376705Y-17049936D02*
X6376705Y-17068984D01*
X6376705Y-16945174D02*
X6386229Y-16954698D01*
X6386229Y-16954698D02*
X6376705Y-16964222D01*
X6376705Y-16964222D02*
X6367182Y-16954698D01*
X6367182Y-16954698D02*
X6376705Y-16945174D01*
X6376705Y-16945174D02*
X6376705Y-16964222D01*
D12*
X4644500Y-17347500D02*
X4744500Y-17447500D01*
X4744500Y-17347500D02*
X4644500Y-17447500D01*
D11*
X5110039Y-17488984D02*
X4995753Y-17488984D01*
X5052896Y-17488984D02*
X5052896Y-17288984D01*
X5052896Y-17288984D02*
X5033848Y-17317555D01*
X5033848Y-17317555D02*
X5014801Y-17336603D01*
X5014801Y-17336603D02*
X4995753Y-17346127D01*
X5195753Y-17469936D02*
X5205277Y-17479460D01*
X5205277Y-17479460D02*
X5195753Y-17488984D01*
X5195753Y-17488984D02*
X5186229Y-17479460D01*
X5186229Y-17479460D02*
X5195753Y-17469936D01*
X5195753Y-17469936D02*
X5195753Y-17488984D01*
X5329086Y-17288984D02*
X5348134Y-17288984D01*
X5348134Y-17288984D02*
X5367182Y-17298508D01*
X5367182Y-17298508D02*
X5376705Y-17308031D01*
X5376705Y-17308031D02*
X5386229Y-17327079D01*
X5386229Y-17327079D02*
X5395753Y-17365174D01*
X5395753Y-17365174D02*
X5395753Y-17412793D01*
X5395753Y-17412793D02*
X5386229Y-17450889D01*
X5386229Y-17450889D02*
X5376705Y-17469936D01*
X5376705Y-17469936D02*
X5367182Y-17479460D01*
X5367182Y-17479460D02*
X5348134Y-17488984D01*
X5348134Y-17488984D02*
X5329086Y-17488984D01*
X5329086Y-17488984D02*
X5310039Y-17479460D01*
X5310039Y-17479460D02*
X5300515Y-17469936D01*
X5300515Y-17469936D02*
X5290991Y-17450889D01*
X5290991Y-17450889D02*
X5281467Y-17412793D01*
X5281467Y-17412793D02*
X5281467Y-17365174D01*
X5281467Y-17365174D02*
X5290991Y-17327079D01*
X5290991Y-17327079D02*
X5300515Y-17308031D01*
X5300515Y-17308031D02*
X5310039Y-17298508D01*
X5310039Y-17298508D02*
X5329086Y-17288984D01*
X5519563Y-17288984D02*
X5538610Y-17288984D01*
X5538610Y-17288984D02*
X5557658Y-17298508D01*
X5557658Y-17298508D02*
X5567182Y-17308031D01*
X5567182Y-17308031D02*
X5576705Y-17327079D01*
X5576705Y-17327079D02*
X5586229Y-17365174D01*
X5586229Y-17365174D02*
X5586229Y-17412793D01*
X5586229Y-17412793D02*
X5576705Y-17450889D01*
X5576705Y-17450889D02*
X5567182Y-17469936D01*
X5567182Y-17469936D02*
X5557658Y-17479460D01*
X5557658Y-17479460D02*
X5538610Y-17488984D01*
X5538610Y-17488984D02*
X5519563Y-17488984D01*
X5519563Y-17488984D02*
X5500515Y-17479460D01*
X5500515Y-17479460D02*
X5490991Y-17469936D01*
X5490991Y-17469936D02*
X5481467Y-17450889D01*
X5481467Y-17450889D02*
X5471944Y-17412793D01*
X5471944Y-17412793D02*
X5471944Y-17365174D01*
X5471944Y-17365174D02*
X5481467Y-17327079D01*
X5481467Y-17327079D02*
X5490991Y-17308031D01*
X5490991Y-17308031D02*
X5500515Y-17298508D01*
X5500515Y-17298508D02*
X5519563Y-17288984D01*
X5710039Y-17288984D02*
X5729086Y-17288984D01*
X5729086Y-17288984D02*
X5748134Y-17298508D01*
X5748134Y-17298508D02*
X5757658Y-17308031D01*
X5757658Y-17308031D02*
X5767182Y-17327079D01*
X5767182Y-17327079D02*
X5776705Y-17365174D01*
X5776705Y-17365174D02*
X5776705Y-17412793D01*
X5776705Y-17412793D02*
X5767182Y-17450889D01*
X5767182Y-17450889D02*
X5757658Y-17469936D01*
X5757658Y-17469936D02*
X5748134Y-17479460D01*
X5748134Y-17479460D02*
X5729086Y-17488984D01*
X5729086Y-17488984D02*
X5710039Y-17488984D01*
X5710039Y-17488984D02*
X5690991Y-17479460D01*
X5690991Y-17479460D02*
X5681467Y-17469936D01*
X5681467Y-17469936D02*
X5671943Y-17450889D01*
X5671943Y-17450889D02*
X5662420Y-17412793D01*
X5662420Y-17412793D02*
X5662420Y-17365174D01*
X5662420Y-17365174D02*
X5671943Y-17327079D01*
X5671943Y-17327079D02*
X5681467Y-17308031D01*
X5681467Y-17308031D02*
X5690991Y-17298508D01*
X5690991Y-17298508D02*
X5710039Y-17288984D01*
X5862420Y-17488984D02*
X5862420Y-17355650D01*
X5862420Y-17374698D02*
X5871943Y-17365174D01*
X5871943Y-17365174D02*
X5890991Y-17355650D01*
X5890991Y-17355650D02*
X5919563Y-17355650D01*
X5919563Y-17355650D02*
X5938610Y-17365174D01*
X5938610Y-17365174D02*
X5948134Y-17384222D01*
X5948134Y-17384222D02*
X5948134Y-17488984D01*
X5948134Y-17384222D02*
X5957658Y-17365174D01*
X5957658Y-17365174D02*
X5976705Y-17355650D01*
X5976705Y-17355650D02*
X6005277Y-17355650D01*
X6005277Y-17355650D02*
X6024324Y-17365174D01*
X6024324Y-17365174D02*
X6033848Y-17384222D01*
X6033848Y-17384222D02*
X6033848Y-17488984D01*
X6129086Y-17488984D02*
X6129086Y-17355650D01*
X6129086Y-17374698D02*
X6138610Y-17365174D01*
X6138610Y-17365174D02*
X6157658Y-17355650D01*
X6157658Y-17355650D02*
X6186229Y-17355650D01*
X6186229Y-17355650D02*
X6205277Y-17365174D01*
X6205277Y-17365174D02*
X6214801Y-17384222D01*
X6214801Y-17384222D02*
X6214801Y-17488984D01*
X6214801Y-17384222D02*
X6224324Y-17365174D01*
X6224324Y-17365174D02*
X6243372Y-17355650D01*
X6243372Y-17355650D02*
X6271943Y-17355650D01*
X6271943Y-17355650D02*
X6290991Y-17365174D01*
X6290991Y-17365174D02*
X6300515Y-17384222D01*
X6300515Y-17384222D02*
X6300515Y-17488984D01*
X6690991Y-17279460D02*
X6519563Y-17536603D01*
X6948134Y-17288984D02*
X6967182Y-17288984D01*
X6967182Y-17288984D02*
X6986229Y-17298508D01*
X6986229Y-17298508D02*
X6995753Y-17308031D01*
X6995753Y-17308031D02*
X7005277Y-17327079D01*
X7005277Y-17327079D02*
X7014801Y-17365174D01*
X7014801Y-17365174D02*
X7014801Y-17412793D01*
X7014801Y-17412793D02*
X7005277Y-17450889D01*
X7005277Y-17450889D02*
X6995753Y-17469936D01*
X6995753Y-17469936D02*
X6986229Y-17479460D01*
X6986229Y-17479460D02*
X6967182Y-17488984D01*
X6967182Y-17488984D02*
X6948134Y-17488984D01*
X6948134Y-17488984D02*
X6929086Y-17479460D01*
X6929086Y-17479460D02*
X6919563Y-17469936D01*
X6919563Y-17469936D02*
X6910039Y-17450889D01*
X6910039Y-17450889D02*
X6900515Y-17412793D01*
X6900515Y-17412793D02*
X6900515Y-17365174D01*
X6900515Y-17365174D02*
X6910039Y-17327079D01*
X6910039Y-17327079D02*
X6919563Y-17308031D01*
X6919563Y-17308031D02*
X6929086Y-17298508D01*
X6929086Y-17298508D02*
X6948134Y-17288984D01*
X7100515Y-17469936D02*
X7110039Y-17479460D01*
X7110039Y-17479460D02*
X7100515Y-17488984D01*
X7100515Y-17488984D02*
X7090991Y-17479460D01*
X7090991Y-17479460D02*
X7100515Y-17469936D01*
X7100515Y-17469936D02*
X7100515Y-17488984D01*
X7233848Y-17288984D02*
X7252896Y-17288984D01*
X7252896Y-17288984D02*
X7271944Y-17298508D01*
X7271944Y-17298508D02*
X7281467Y-17308031D01*
X7281467Y-17308031D02*
X7290991Y-17327079D01*
X7290991Y-17327079D02*
X7300515Y-17365174D01*
X7300515Y-17365174D02*
X7300515Y-17412793D01*
X7300515Y-17412793D02*
X7290991Y-17450889D01*
X7290991Y-17450889D02*
X7281467Y-17469936D01*
X7281467Y-17469936D02*
X7271944Y-17479460D01*
X7271944Y-17479460D02*
X7252896Y-17488984D01*
X7252896Y-17488984D02*
X7233848Y-17488984D01*
X7233848Y-17488984D02*
X7214801Y-17479460D01*
X7214801Y-17479460D02*
X7205277Y-17469936D01*
X7205277Y-17469936D02*
X7195753Y-17450889D01*
X7195753Y-17450889D02*
X7186229Y-17412793D01*
X7186229Y-17412793D02*
X7186229Y-17365174D01*
X7186229Y-17365174D02*
X7195753Y-17327079D01*
X7195753Y-17327079D02*
X7205277Y-17308031D01*
X7205277Y-17308031D02*
X7214801Y-17298508D01*
X7214801Y-17298508D02*
X7233848Y-17288984D01*
X7367182Y-17288984D02*
X7490991Y-17288984D01*
X7490991Y-17288984D02*
X7424325Y-17365174D01*
X7424325Y-17365174D02*
X7452896Y-17365174D01*
X7452896Y-17365174D02*
X7471944Y-17374698D01*
X7471944Y-17374698D02*
X7481467Y-17384222D01*
X7481467Y-17384222D02*
X7490991Y-17403270D01*
X7490991Y-17403270D02*
X7490991Y-17450889D01*
X7490991Y-17450889D02*
X7481467Y-17469936D01*
X7481467Y-17469936D02*
X7471944Y-17479460D01*
X7471944Y-17479460D02*
X7452896Y-17488984D01*
X7452896Y-17488984D02*
X7395753Y-17488984D01*
X7395753Y-17488984D02*
X7376706Y-17479460D01*
X7376706Y-17479460D02*
X7367182Y-17469936D01*
X7586229Y-17488984D02*
X7624325Y-17488984D01*
X7624325Y-17488984D02*
X7643372Y-17479460D01*
X7643372Y-17479460D02*
X7652896Y-17469936D01*
X7652896Y-17469936D02*
X7671944Y-17441365D01*
X7671944Y-17441365D02*
X7681467Y-17403270D01*
X7681467Y-17403270D02*
X7681467Y-17327079D01*
X7681467Y-17327079D02*
X7671944Y-17308031D01*
X7671944Y-17308031D02*
X7662420Y-17298508D01*
X7662420Y-17298508D02*
X7643372Y-17288984D01*
X7643372Y-17288984D02*
X7605277Y-17288984D01*
X7605277Y-17288984D02*
X7586229Y-17298508D01*
X7586229Y-17298508D02*
X7576706Y-17308031D01*
X7576706Y-17308031D02*
X7567182Y-17327079D01*
X7567182Y-17327079D02*
X7567182Y-17374698D01*
X7567182Y-17374698D02*
X7576706Y-17393746D01*
X7576706Y-17393746D02*
X7586229Y-17403270D01*
X7586229Y-17403270D02*
X7605277Y-17412793D01*
X7605277Y-17412793D02*
X7643372Y-17412793D01*
X7643372Y-17412793D02*
X7662420Y-17403270D01*
X7662420Y-17403270D02*
X7671944Y-17393746D01*
X7671944Y-17393746D02*
X7681467Y-17374698D01*
X7852896Y-17355650D02*
X7852896Y-17488984D01*
X7805277Y-17279460D02*
X7757658Y-17422317D01*
X7757658Y-17422317D02*
X7881467Y-17422317D01*
X7948134Y-17288984D02*
X7948134Y-17327079D01*
X8024325Y-17288984D02*
X8024325Y-17327079D01*
X8319563Y-17565174D02*
X8310039Y-17555650D01*
X8310039Y-17555650D02*
X8290991Y-17527079D01*
X8290991Y-17527079D02*
X8281468Y-17508031D01*
X8281468Y-17508031D02*
X8271944Y-17479460D01*
X8271944Y-17479460D02*
X8262420Y-17431841D01*
X8262420Y-17431841D02*
X8262420Y-17393746D01*
X8262420Y-17393746D02*
X8271944Y-17346127D01*
X8271944Y-17346127D02*
X8281468Y-17317555D01*
X8281468Y-17317555D02*
X8290991Y-17298508D01*
X8290991Y-17298508D02*
X8310039Y-17269936D01*
X8310039Y-17269936D02*
X8319563Y-17260412D01*
X8386229Y-17308031D02*
X8395753Y-17298508D01*
X8395753Y-17298508D02*
X8414801Y-17288984D01*
X8414801Y-17288984D02*
X8462420Y-17288984D01*
X8462420Y-17288984D02*
X8481468Y-17298508D01*
X8481468Y-17298508D02*
X8490991Y-17308031D01*
X8490991Y-17308031D02*
X8500515Y-17327079D01*
X8500515Y-17327079D02*
X8500515Y-17346127D01*
X8500515Y-17346127D02*
X8490991Y-17374698D01*
X8490991Y-17374698D02*
X8376706Y-17488984D01*
X8376706Y-17488984D02*
X8500515Y-17488984D01*
X8738611Y-17488984D02*
X8738611Y-17288984D01*
X8824325Y-17488984D02*
X8824325Y-17384222D01*
X8824325Y-17384222D02*
X8814801Y-17365174D01*
X8814801Y-17365174D02*
X8795753Y-17355650D01*
X8795753Y-17355650D02*
X8767182Y-17355650D01*
X8767182Y-17355650D02*
X8748134Y-17365174D01*
X8748134Y-17365174D02*
X8738611Y-17374698D01*
X8948134Y-17488984D02*
X8929087Y-17479460D01*
X8929087Y-17479460D02*
X8919563Y-17469936D01*
X8919563Y-17469936D02*
X8910039Y-17450889D01*
X8910039Y-17450889D02*
X8910039Y-17393746D01*
X8910039Y-17393746D02*
X8919563Y-17374698D01*
X8919563Y-17374698D02*
X8929087Y-17365174D01*
X8929087Y-17365174D02*
X8948134Y-17355650D01*
X8948134Y-17355650D02*
X8976706Y-17355650D01*
X8976706Y-17355650D02*
X8995753Y-17365174D01*
X8995753Y-17365174D02*
X9005277Y-17374698D01*
X9005277Y-17374698D02*
X9014801Y-17393746D01*
X9014801Y-17393746D02*
X9014801Y-17450889D01*
X9014801Y-17450889D02*
X9005277Y-17469936D01*
X9005277Y-17469936D02*
X8995753Y-17479460D01*
X8995753Y-17479460D02*
X8976706Y-17488984D01*
X8976706Y-17488984D02*
X8948134Y-17488984D01*
X9129087Y-17488984D02*
X9110039Y-17479460D01*
X9110039Y-17479460D02*
X9100515Y-17460412D01*
X9100515Y-17460412D02*
X9100515Y-17288984D01*
X9281468Y-17479460D02*
X9262420Y-17488984D01*
X9262420Y-17488984D02*
X9224325Y-17488984D01*
X9224325Y-17488984D02*
X9205277Y-17479460D01*
X9205277Y-17479460D02*
X9195753Y-17460412D01*
X9195753Y-17460412D02*
X9195753Y-17384222D01*
X9195753Y-17384222D02*
X9205277Y-17365174D01*
X9205277Y-17365174D02*
X9224325Y-17355650D01*
X9224325Y-17355650D02*
X9262420Y-17355650D01*
X9262420Y-17355650D02*
X9281468Y-17365174D01*
X9281468Y-17365174D02*
X9290992Y-17384222D01*
X9290992Y-17384222D02*
X9290992Y-17403270D01*
X9290992Y-17403270D02*
X9195753Y-17422317D01*
X9367182Y-17479460D02*
X9386230Y-17488984D01*
X9386230Y-17488984D02*
X9424325Y-17488984D01*
X9424325Y-17488984D02*
X9443373Y-17479460D01*
X9443373Y-17479460D02*
X9452896Y-17460412D01*
X9452896Y-17460412D02*
X9452896Y-17450889D01*
X9452896Y-17450889D02*
X9443373Y-17431841D01*
X9443373Y-17431841D02*
X9424325Y-17422317D01*
X9424325Y-17422317D02*
X9395753Y-17422317D01*
X9395753Y-17422317D02*
X9376706Y-17412793D01*
X9376706Y-17412793D02*
X9367182Y-17393746D01*
X9367182Y-17393746D02*
X9367182Y-17384222D01*
X9367182Y-17384222D02*
X9376706Y-17365174D01*
X9376706Y-17365174D02*
X9395753Y-17355650D01*
X9395753Y-17355650D02*
X9424325Y-17355650D01*
X9424325Y-17355650D02*
X9443373Y-17365174D01*
X9519563Y-17565174D02*
X9529087Y-17555650D01*
X9529087Y-17555650D02*
X9548134Y-17527079D01*
X9548134Y-17527079D02*
X9557658Y-17508031D01*
X9557658Y-17508031D02*
X9567182Y-17479460D01*
X9567182Y-17479460D02*
X9576706Y-17431841D01*
X9576706Y-17431841D02*
X9576706Y-17393746D01*
X9576706Y-17393746D02*
X9567182Y-17346127D01*
X9567182Y-17346127D02*
X9557658Y-17317555D01*
X9557658Y-17317555D02*
X9548134Y-17298508D01*
X9548134Y-17298508D02*
X9529087Y-17269936D01*
X9529087Y-17269936D02*
X9519563Y-17260412D01*
X9881468Y-17565174D02*
X9871944Y-17555650D01*
X9871944Y-17555650D02*
X9852896Y-17527079D01*
X9852896Y-17527079D02*
X9843373Y-17508031D01*
X9843373Y-17508031D02*
X9833849Y-17479460D01*
X9833849Y-17479460D02*
X9824325Y-17431841D01*
X9824325Y-17431841D02*
X9824325Y-17393746D01*
X9824325Y-17393746D02*
X9833849Y-17346127D01*
X9833849Y-17346127D02*
X9843373Y-17317555D01*
X9843373Y-17317555D02*
X9852896Y-17298508D01*
X9852896Y-17298508D02*
X9871944Y-17269936D01*
X9871944Y-17269936D02*
X9881468Y-17260412D01*
X9957658Y-17355650D02*
X9957658Y-17488984D01*
X9957658Y-17374698D02*
X9967182Y-17365174D01*
X9967182Y-17365174D02*
X9986230Y-17355650D01*
X9986230Y-17355650D02*
X10014801Y-17355650D01*
X10014801Y-17355650D02*
X10033849Y-17365174D01*
X10033849Y-17365174D02*
X10043373Y-17384222D01*
X10043373Y-17384222D02*
X10043373Y-17488984D01*
X10167182Y-17488984D02*
X10148134Y-17479460D01*
X10148134Y-17479460D02*
X10138611Y-17469936D01*
X10138611Y-17469936D02*
X10129087Y-17450889D01*
X10129087Y-17450889D02*
X10129087Y-17393746D01*
X10129087Y-17393746D02*
X10138611Y-17374698D01*
X10138611Y-17374698D02*
X10148134Y-17365174D01*
X10148134Y-17365174D02*
X10167182Y-17355650D01*
X10167182Y-17355650D02*
X10195754Y-17355650D01*
X10195754Y-17355650D02*
X10214801Y-17365174D01*
X10214801Y-17365174D02*
X10224325Y-17374698D01*
X10224325Y-17374698D02*
X10233849Y-17393746D01*
X10233849Y-17393746D02*
X10233849Y-17450889D01*
X10233849Y-17450889D02*
X10224325Y-17469936D01*
X10224325Y-17469936D02*
X10214801Y-17479460D01*
X10214801Y-17479460D02*
X10195754Y-17488984D01*
X10195754Y-17488984D02*
X10167182Y-17488984D01*
X10290992Y-17355650D02*
X10367182Y-17355650D01*
X10319563Y-17288984D02*
X10319563Y-17460412D01*
X10319563Y-17460412D02*
X10329087Y-17479460D01*
X10329087Y-17479460D02*
X10348134Y-17488984D01*
X10348134Y-17488984D02*
X10367182Y-17488984D01*
X10586230Y-17355650D02*
X10586230Y-17555650D01*
X10586230Y-17365174D02*
X10605277Y-17355650D01*
X10605277Y-17355650D02*
X10643373Y-17355650D01*
X10643373Y-17355650D02*
X10662420Y-17365174D01*
X10662420Y-17365174D02*
X10671944Y-17374698D01*
X10671944Y-17374698D02*
X10681468Y-17393746D01*
X10681468Y-17393746D02*
X10681468Y-17450889D01*
X10681468Y-17450889D02*
X10671944Y-17469936D01*
X10671944Y-17469936D02*
X10662420Y-17479460D01*
X10662420Y-17479460D02*
X10643373Y-17488984D01*
X10643373Y-17488984D02*
X10605277Y-17488984D01*
X10605277Y-17488984D02*
X10586230Y-17479460D01*
X10795754Y-17488984D02*
X10776706Y-17479460D01*
X10776706Y-17479460D02*
X10767182Y-17460412D01*
X10767182Y-17460412D02*
X10767182Y-17288984D01*
X10957658Y-17488984D02*
X10957658Y-17384222D01*
X10957658Y-17384222D02*
X10948135Y-17365174D01*
X10948135Y-17365174D02*
X10929087Y-17355650D01*
X10929087Y-17355650D02*
X10890992Y-17355650D01*
X10890992Y-17355650D02*
X10871944Y-17365174D01*
X10957658Y-17479460D02*
X10938611Y-17488984D01*
X10938611Y-17488984D02*
X10890992Y-17488984D01*
X10890992Y-17488984D02*
X10871944Y-17479460D01*
X10871944Y-17479460D02*
X10862420Y-17460412D01*
X10862420Y-17460412D02*
X10862420Y-17441365D01*
X10862420Y-17441365D02*
X10871944Y-17422317D01*
X10871944Y-17422317D02*
X10890992Y-17412793D01*
X10890992Y-17412793D02*
X10938611Y-17412793D01*
X10938611Y-17412793D02*
X10957658Y-17403270D01*
X11024325Y-17355650D02*
X11100515Y-17355650D01*
X11052896Y-17288984D02*
X11052896Y-17460412D01*
X11052896Y-17460412D02*
X11062420Y-17479460D01*
X11062420Y-17479460D02*
X11081468Y-17488984D01*
X11081468Y-17488984D02*
X11100515Y-17488984D01*
X11243373Y-17479460D02*
X11224325Y-17488984D01*
X11224325Y-17488984D02*
X11186230Y-17488984D01*
X11186230Y-17488984D02*
X11167182Y-17479460D01*
X11167182Y-17479460D02*
X11157658Y-17460412D01*
X11157658Y-17460412D02*
X11157658Y-17384222D01*
X11157658Y-17384222D02*
X11167182Y-17365174D01*
X11167182Y-17365174D02*
X11186230Y-17355650D01*
X11186230Y-17355650D02*
X11224325Y-17355650D01*
X11224325Y-17355650D02*
X11243373Y-17365174D01*
X11243373Y-17365174D02*
X11252896Y-17384222D01*
X11252896Y-17384222D02*
X11252896Y-17403270D01*
X11252896Y-17403270D02*
X11157658Y-17422317D01*
X11424325Y-17488984D02*
X11424325Y-17288984D01*
X11424325Y-17479460D02*
X11405277Y-17488984D01*
X11405277Y-17488984D02*
X11367182Y-17488984D01*
X11367182Y-17488984D02*
X11348134Y-17479460D01*
X11348134Y-17479460D02*
X11338611Y-17469936D01*
X11338611Y-17469936D02*
X11329087Y-17450889D01*
X11329087Y-17450889D02*
X11329087Y-17393746D01*
X11329087Y-17393746D02*
X11338611Y-17374698D01*
X11338611Y-17374698D02*
X11348134Y-17365174D01*
X11348134Y-17365174D02*
X11367182Y-17355650D01*
X11367182Y-17355650D02*
X11405277Y-17355650D01*
X11405277Y-17355650D02*
X11424325Y-17365174D01*
X11500515Y-17565174D02*
X11510039Y-17555650D01*
X11510039Y-17555650D02*
X11529087Y-17527079D01*
X11529087Y-17527079D02*
X11538611Y-17508031D01*
X11538611Y-17508031D02*
X11548134Y-17479460D01*
X11548134Y-17479460D02*
X11557658Y-17431841D01*
X11557658Y-17431841D02*
X11557658Y-17393746D01*
X11557658Y-17393746D02*
X11548134Y-17346127D01*
X11548134Y-17346127D02*
X11538611Y-17317555D01*
X11538611Y-17317555D02*
X11529087Y-17298508D01*
X11529087Y-17298508D02*
X11510039Y-17269936D01*
X11510039Y-17269936D02*
X11500515Y-17260412D01*
D13*
X4744500Y-17661500D02*
G75*
G02*
X4634500Y-17661500I-55000J0D01*
G01*
X4634500Y-17661500D02*
G75*
G02*
X4744500Y-17661500I55000J0D01*
G01*
D11*
X5110039Y-17752984D02*
X4995753Y-17752984D01*
X5052896Y-17752984D02*
X5052896Y-17552984D01*
X5052896Y-17552984D02*
X5033848Y-17581555D01*
X5033848Y-17581555D02*
X5014801Y-17600603D01*
X5014801Y-17600603D02*
X4995753Y-17610127D01*
X5195753Y-17733936D02*
X5205277Y-17743460D01*
X5205277Y-17743460D02*
X5195753Y-17752984D01*
X5195753Y-17752984D02*
X5186229Y-17743460D01*
X5186229Y-17743460D02*
X5195753Y-17733936D01*
X5195753Y-17733936D02*
X5195753Y-17752984D01*
X5395753Y-17752984D02*
X5281467Y-17752984D01*
X5338610Y-17752984D02*
X5338610Y-17552984D01*
X5338610Y-17552984D02*
X5319563Y-17581555D01*
X5319563Y-17581555D02*
X5300515Y-17600603D01*
X5300515Y-17600603D02*
X5281467Y-17610127D01*
X5519563Y-17552984D02*
X5538610Y-17552984D01*
X5538610Y-17552984D02*
X5557658Y-17562508D01*
X5557658Y-17562508D02*
X5567182Y-17572031D01*
X5567182Y-17572031D02*
X5576705Y-17591079D01*
X5576705Y-17591079D02*
X5586229Y-17629174D01*
X5586229Y-17629174D02*
X5586229Y-17676793D01*
X5586229Y-17676793D02*
X5576705Y-17714889D01*
X5576705Y-17714889D02*
X5567182Y-17733936D01*
X5567182Y-17733936D02*
X5557658Y-17743460D01*
X5557658Y-17743460D02*
X5538610Y-17752984D01*
X5538610Y-17752984D02*
X5519563Y-17752984D01*
X5519563Y-17752984D02*
X5500515Y-17743460D01*
X5500515Y-17743460D02*
X5490991Y-17733936D01*
X5490991Y-17733936D02*
X5481467Y-17714889D01*
X5481467Y-17714889D02*
X5471944Y-17676793D01*
X5471944Y-17676793D02*
X5471944Y-17629174D01*
X5471944Y-17629174D02*
X5481467Y-17591079D01*
X5481467Y-17591079D02*
X5490991Y-17572031D01*
X5490991Y-17572031D02*
X5500515Y-17562508D01*
X5500515Y-17562508D02*
X5519563Y-17552984D01*
X5710039Y-17552984D02*
X5729086Y-17552984D01*
X5729086Y-17552984D02*
X5748134Y-17562508D01*
X5748134Y-17562508D02*
X5757658Y-17572031D01*
X5757658Y-17572031D02*
X5767182Y-17591079D01*
X5767182Y-17591079D02*
X5776705Y-17629174D01*
X5776705Y-17629174D02*
X5776705Y-17676793D01*
X5776705Y-17676793D02*
X5767182Y-17714889D01*
X5767182Y-17714889D02*
X5757658Y-17733936D01*
X5757658Y-17733936D02*
X5748134Y-17743460D01*
X5748134Y-17743460D02*
X5729086Y-17752984D01*
X5729086Y-17752984D02*
X5710039Y-17752984D01*
X5710039Y-17752984D02*
X5690991Y-17743460D01*
X5690991Y-17743460D02*
X5681467Y-17733936D01*
X5681467Y-17733936D02*
X5671943Y-17714889D01*
X5671943Y-17714889D02*
X5662420Y-17676793D01*
X5662420Y-17676793D02*
X5662420Y-17629174D01*
X5662420Y-17629174D02*
X5671943Y-17591079D01*
X5671943Y-17591079D02*
X5681467Y-17572031D01*
X5681467Y-17572031D02*
X5690991Y-17562508D01*
X5690991Y-17562508D02*
X5710039Y-17552984D01*
X5862420Y-17752984D02*
X5862420Y-17619650D01*
X5862420Y-17638698D02*
X5871943Y-17629174D01*
X5871943Y-17629174D02*
X5890991Y-17619650D01*
X5890991Y-17619650D02*
X5919563Y-17619650D01*
X5919563Y-17619650D02*
X5938610Y-17629174D01*
X5938610Y-17629174D02*
X5948134Y-17648222D01*
X5948134Y-17648222D02*
X5948134Y-17752984D01*
X5948134Y-17648222D02*
X5957658Y-17629174D01*
X5957658Y-17629174D02*
X5976705Y-17619650D01*
X5976705Y-17619650D02*
X6005277Y-17619650D01*
X6005277Y-17619650D02*
X6024324Y-17629174D01*
X6024324Y-17629174D02*
X6033848Y-17648222D01*
X6033848Y-17648222D02*
X6033848Y-17752984D01*
X6129086Y-17752984D02*
X6129086Y-17619650D01*
X6129086Y-17638698D02*
X6138610Y-17629174D01*
X6138610Y-17629174D02*
X6157658Y-17619650D01*
X6157658Y-17619650D02*
X6186229Y-17619650D01*
X6186229Y-17619650D02*
X6205277Y-17629174D01*
X6205277Y-17629174D02*
X6214801Y-17648222D01*
X6214801Y-17648222D02*
X6214801Y-17752984D01*
X6214801Y-17648222D02*
X6224324Y-17629174D01*
X6224324Y-17629174D02*
X6243372Y-17619650D01*
X6243372Y-17619650D02*
X6271943Y-17619650D01*
X6271943Y-17619650D02*
X6290991Y-17629174D01*
X6290991Y-17629174D02*
X6300515Y-17648222D01*
X6300515Y-17648222D02*
X6300515Y-17752984D01*
X6690991Y-17543460D02*
X6519563Y-17800603D01*
X6948134Y-17552984D02*
X6967182Y-17552984D01*
X6967182Y-17552984D02*
X6986229Y-17562508D01*
X6986229Y-17562508D02*
X6995753Y-17572031D01*
X6995753Y-17572031D02*
X7005277Y-17591079D01*
X7005277Y-17591079D02*
X7014801Y-17629174D01*
X7014801Y-17629174D02*
X7014801Y-17676793D01*
X7014801Y-17676793D02*
X7005277Y-17714889D01*
X7005277Y-17714889D02*
X6995753Y-17733936D01*
X6995753Y-17733936D02*
X6986229Y-17743460D01*
X6986229Y-17743460D02*
X6967182Y-17752984D01*
X6967182Y-17752984D02*
X6948134Y-17752984D01*
X6948134Y-17752984D02*
X6929086Y-17743460D01*
X6929086Y-17743460D02*
X6919563Y-17733936D01*
X6919563Y-17733936D02*
X6910039Y-17714889D01*
X6910039Y-17714889D02*
X6900515Y-17676793D01*
X6900515Y-17676793D02*
X6900515Y-17629174D01*
X6900515Y-17629174D02*
X6910039Y-17591079D01*
X6910039Y-17591079D02*
X6919563Y-17572031D01*
X6919563Y-17572031D02*
X6929086Y-17562508D01*
X6929086Y-17562508D02*
X6948134Y-17552984D01*
X7100515Y-17733936D02*
X7110039Y-17743460D01*
X7110039Y-17743460D02*
X7100515Y-17752984D01*
X7100515Y-17752984D02*
X7090991Y-17743460D01*
X7090991Y-17743460D02*
X7100515Y-17733936D01*
X7100515Y-17733936D02*
X7100515Y-17752984D01*
X7233848Y-17552984D02*
X7252896Y-17552984D01*
X7252896Y-17552984D02*
X7271944Y-17562508D01*
X7271944Y-17562508D02*
X7281467Y-17572031D01*
X7281467Y-17572031D02*
X7290991Y-17591079D01*
X7290991Y-17591079D02*
X7300515Y-17629174D01*
X7300515Y-17629174D02*
X7300515Y-17676793D01*
X7300515Y-17676793D02*
X7290991Y-17714889D01*
X7290991Y-17714889D02*
X7281467Y-17733936D01*
X7281467Y-17733936D02*
X7271944Y-17743460D01*
X7271944Y-17743460D02*
X7252896Y-17752984D01*
X7252896Y-17752984D02*
X7233848Y-17752984D01*
X7233848Y-17752984D02*
X7214801Y-17743460D01*
X7214801Y-17743460D02*
X7205277Y-17733936D01*
X7205277Y-17733936D02*
X7195753Y-17714889D01*
X7195753Y-17714889D02*
X7186229Y-17676793D01*
X7186229Y-17676793D02*
X7186229Y-17629174D01*
X7186229Y-17629174D02*
X7195753Y-17591079D01*
X7195753Y-17591079D02*
X7205277Y-17572031D01*
X7205277Y-17572031D02*
X7214801Y-17562508D01*
X7214801Y-17562508D02*
X7233848Y-17552984D01*
X7471944Y-17619650D02*
X7471944Y-17752984D01*
X7424325Y-17543460D02*
X7376706Y-17686317D01*
X7376706Y-17686317D02*
X7500515Y-17686317D01*
X7557658Y-17552984D02*
X7681467Y-17552984D01*
X7681467Y-17552984D02*
X7614801Y-17629174D01*
X7614801Y-17629174D02*
X7643372Y-17629174D01*
X7643372Y-17629174D02*
X7662420Y-17638698D01*
X7662420Y-17638698D02*
X7671944Y-17648222D01*
X7671944Y-17648222D02*
X7681467Y-17667270D01*
X7681467Y-17667270D02*
X7681467Y-17714889D01*
X7681467Y-17714889D02*
X7671944Y-17733936D01*
X7671944Y-17733936D02*
X7662420Y-17743460D01*
X7662420Y-17743460D02*
X7643372Y-17752984D01*
X7643372Y-17752984D02*
X7586229Y-17752984D01*
X7586229Y-17752984D02*
X7567182Y-17743460D01*
X7567182Y-17743460D02*
X7557658Y-17733936D01*
X7748134Y-17552984D02*
X7871944Y-17552984D01*
X7871944Y-17552984D02*
X7805277Y-17629174D01*
X7805277Y-17629174D02*
X7833848Y-17629174D01*
X7833848Y-17629174D02*
X7852896Y-17638698D01*
X7852896Y-17638698D02*
X7862420Y-17648222D01*
X7862420Y-17648222D02*
X7871944Y-17667270D01*
X7871944Y-17667270D02*
X7871944Y-17714889D01*
X7871944Y-17714889D02*
X7862420Y-17733936D01*
X7862420Y-17733936D02*
X7852896Y-17743460D01*
X7852896Y-17743460D02*
X7833848Y-17752984D01*
X7833848Y-17752984D02*
X7776706Y-17752984D01*
X7776706Y-17752984D02*
X7757658Y-17743460D01*
X7757658Y-17743460D02*
X7748134Y-17733936D01*
X7948134Y-17552984D02*
X7948134Y-17591079D01*
X8024325Y-17552984D02*
X8024325Y-17591079D01*
X8319563Y-17829174D02*
X8310039Y-17819650D01*
X8310039Y-17819650D02*
X8290991Y-17791079D01*
X8290991Y-17791079D02*
X8281468Y-17772031D01*
X8281468Y-17772031D02*
X8271944Y-17743460D01*
X8271944Y-17743460D02*
X8262420Y-17695841D01*
X8262420Y-17695841D02*
X8262420Y-17657746D01*
X8262420Y-17657746D02*
X8271944Y-17610127D01*
X8271944Y-17610127D02*
X8281468Y-17581555D01*
X8281468Y-17581555D02*
X8290991Y-17562508D01*
X8290991Y-17562508D02*
X8310039Y-17533936D01*
X8310039Y-17533936D02*
X8319563Y-17524412D01*
X8500515Y-17752984D02*
X8386229Y-17752984D01*
X8443372Y-17752984D02*
X8443372Y-17552984D01*
X8443372Y-17552984D02*
X8424325Y-17581555D01*
X8424325Y-17581555D02*
X8405277Y-17600603D01*
X8405277Y-17600603D02*
X8386229Y-17610127D01*
X8738611Y-17752984D02*
X8738611Y-17552984D01*
X8824325Y-17752984D02*
X8824325Y-17648222D01*
X8824325Y-17648222D02*
X8814801Y-17629174D01*
X8814801Y-17629174D02*
X8795753Y-17619650D01*
X8795753Y-17619650D02*
X8767182Y-17619650D01*
X8767182Y-17619650D02*
X8748134Y-17629174D01*
X8748134Y-17629174D02*
X8738611Y-17638698D01*
X8948134Y-17752984D02*
X8929087Y-17743460D01*
X8929087Y-17743460D02*
X8919563Y-17733936D01*
X8919563Y-17733936D02*
X8910039Y-17714889D01*
X8910039Y-17714889D02*
X8910039Y-17657746D01*
X8910039Y-17657746D02*
X8919563Y-17638698D01*
X8919563Y-17638698D02*
X8929087Y-17629174D01*
X8929087Y-17629174D02*
X8948134Y-17619650D01*
X8948134Y-17619650D02*
X8976706Y-17619650D01*
X8976706Y-17619650D02*
X8995753Y-17629174D01*
X8995753Y-17629174D02*
X9005277Y-17638698D01*
X9005277Y-17638698D02*
X9014801Y-17657746D01*
X9014801Y-17657746D02*
X9014801Y-17714889D01*
X9014801Y-17714889D02*
X9005277Y-17733936D01*
X9005277Y-17733936D02*
X8995753Y-17743460D01*
X8995753Y-17743460D02*
X8976706Y-17752984D01*
X8976706Y-17752984D02*
X8948134Y-17752984D01*
X9129087Y-17752984D02*
X9110039Y-17743460D01*
X9110039Y-17743460D02*
X9100515Y-17724412D01*
X9100515Y-17724412D02*
X9100515Y-17552984D01*
X9281468Y-17743460D02*
X9262420Y-17752984D01*
X9262420Y-17752984D02*
X9224325Y-17752984D01*
X9224325Y-17752984D02*
X9205277Y-17743460D01*
X9205277Y-17743460D02*
X9195753Y-17724412D01*
X9195753Y-17724412D02*
X9195753Y-17648222D01*
X9195753Y-17648222D02*
X9205277Y-17629174D01*
X9205277Y-17629174D02*
X9224325Y-17619650D01*
X9224325Y-17619650D02*
X9262420Y-17619650D01*
X9262420Y-17619650D02*
X9281468Y-17629174D01*
X9281468Y-17629174D02*
X9290992Y-17648222D01*
X9290992Y-17648222D02*
X9290992Y-17667270D01*
X9290992Y-17667270D02*
X9195753Y-17686317D01*
X9357658Y-17829174D02*
X9367182Y-17819650D01*
X9367182Y-17819650D02*
X9386230Y-17791079D01*
X9386230Y-17791079D02*
X9395753Y-17772031D01*
X9395753Y-17772031D02*
X9405277Y-17743460D01*
X9405277Y-17743460D02*
X9414801Y-17695841D01*
X9414801Y-17695841D02*
X9414801Y-17657746D01*
X9414801Y-17657746D02*
X9405277Y-17610127D01*
X9405277Y-17610127D02*
X9395753Y-17581555D01*
X9395753Y-17581555D02*
X9386230Y-17562508D01*
X9386230Y-17562508D02*
X9367182Y-17533936D01*
X9367182Y-17533936D02*
X9357658Y-17524412D01*
X9719563Y-17829174D02*
X9710039Y-17819650D01*
X9710039Y-17819650D02*
X9690992Y-17791079D01*
X9690992Y-17791079D02*
X9681468Y-17772031D01*
X9681468Y-17772031D02*
X9671944Y-17743460D01*
X9671944Y-17743460D02*
X9662420Y-17695841D01*
X9662420Y-17695841D02*
X9662420Y-17657746D01*
X9662420Y-17657746D02*
X9671944Y-17610127D01*
X9671944Y-17610127D02*
X9681468Y-17581555D01*
X9681468Y-17581555D02*
X9690992Y-17562508D01*
X9690992Y-17562508D02*
X9710039Y-17533936D01*
X9710039Y-17533936D02*
X9719563Y-17524412D01*
X9795753Y-17619650D02*
X9795753Y-17752984D01*
X9795753Y-17638698D02*
X9805277Y-17629174D01*
X9805277Y-17629174D02*
X9824325Y-17619650D01*
X9824325Y-17619650D02*
X9852896Y-17619650D01*
X9852896Y-17619650D02*
X9871944Y-17629174D01*
X9871944Y-17629174D02*
X9881468Y-17648222D01*
X9881468Y-17648222D02*
X9881468Y-17752984D01*
X10005277Y-17752984D02*
X9986230Y-17743460D01*
X9986230Y-17743460D02*
X9976706Y-17733936D01*
X9976706Y-17733936D02*
X9967182Y-17714889D01*
X9967182Y-17714889D02*
X9967182Y-17657746D01*
X9967182Y-17657746D02*
X9976706Y-17638698D01*
X9976706Y-17638698D02*
X9986230Y-17629174D01*
X9986230Y-17629174D02*
X10005277Y-17619650D01*
X10005277Y-17619650D02*
X10033849Y-17619650D01*
X10033849Y-17619650D02*
X10052896Y-17629174D01*
X10052896Y-17629174D02*
X10062420Y-17638698D01*
X10062420Y-17638698D02*
X10071944Y-17657746D01*
X10071944Y-17657746D02*
X10071944Y-17714889D01*
X10071944Y-17714889D02*
X10062420Y-17733936D01*
X10062420Y-17733936D02*
X10052896Y-17743460D01*
X10052896Y-17743460D02*
X10033849Y-17752984D01*
X10033849Y-17752984D02*
X10005277Y-17752984D01*
X10129087Y-17619650D02*
X10205277Y-17619650D01*
X10157658Y-17552984D02*
X10157658Y-17724412D01*
X10157658Y-17724412D02*
X10167182Y-17743460D01*
X10167182Y-17743460D02*
X10186230Y-17752984D01*
X10186230Y-17752984D02*
X10205277Y-17752984D01*
X10424325Y-17619650D02*
X10424325Y-17819650D01*
X10424325Y-17629174D02*
X10443373Y-17619650D01*
X10443373Y-17619650D02*
X10481468Y-17619650D01*
X10481468Y-17619650D02*
X10500515Y-17629174D01*
X10500515Y-17629174D02*
X10510039Y-17638698D01*
X10510039Y-17638698D02*
X10519563Y-17657746D01*
X10519563Y-17657746D02*
X10519563Y-17714889D01*
X10519563Y-17714889D02*
X10510039Y-17733936D01*
X10510039Y-17733936D02*
X10500515Y-17743460D01*
X10500515Y-17743460D02*
X10481468Y-17752984D01*
X10481468Y-17752984D02*
X10443373Y-17752984D01*
X10443373Y-17752984D02*
X10424325Y-17743460D01*
X10633849Y-17752984D02*
X10614801Y-17743460D01*
X10614801Y-17743460D02*
X10605277Y-17724412D01*
X10605277Y-17724412D02*
X10605277Y-17552984D01*
X10795754Y-17752984D02*
X10795754Y-17648222D01*
X10795754Y-17648222D02*
X10786230Y-17629174D01*
X10786230Y-17629174D02*
X10767182Y-17619650D01*
X10767182Y-17619650D02*
X10729087Y-17619650D01*
X10729087Y-17619650D02*
X10710039Y-17629174D01*
X10795754Y-17743460D02*
X10776706Y-17752984D01*
X10776706Y-17752984D02*
X10729087Y-17752984D01*
X10729087Y-17752984D02*
X10710039Y-17743460D01*
X10710039Y-17743460D02*
X10700515Y-17724412D01*
X10700515Y-17724412D02*
X10700515Y-17705365D01*
X10700515Y-17705365D02*
X10710039Y-17686317D01*
X10710039Y-17686317D02*
X10729087Y-17676793D01*
X10729087Y-17676793D02*
X10776706Y-17676793D01*
X10776706Y-17676793D02*
X10795754Y-17667270D01*
X10862420Y-17619650D02*
X10938611Y-17619650D01*
X10890992Y-17552984D02*
X10890992Y-17724412D01*
X10890992Y-17724412D02*
X10900515Y-17743460D01*
X10900515Y-17743460D02*
X10919563Y-17752984D01*
X10919563Y-17752984D02*
X10938611Y-17752984D01*
X11081468Y-17743460D02*
X11062420Y-17752984D01*
X11062420Y-17752984D02*
X11024325Y-17752984D01*
X11024325Y-17752984D02*
X11005277Y-17743460D01*
X11005277Y-17743460D02*
X10995754Y-17724412D01*
X10995754Y-17724412D02*
X10995754Y-17648222D01*
X10995754Y-17648222D02*
X11005277Y-17629174D01*
X11005277Y-17629174D02*
X11024325Y-17619650D01*
X11024325Y-17619650D02*
X11062420Y-17619650D01*
X11062420Y-17619650D02*
X11081468Y-17629174D01*
X11081468Y-17629174D02*
X11090992Y-17648222D01*
X11090992Y-17648222D02*
X11090992Y-17667270D01*
X11090992Y-17667270D02*
X10995754Y-17686317D01*
X11262420Y-17752984D02*
X11262420Y-17552984D01*
X11262420Y-17743460D02*
X11243373Y-17752984D01*
X11243373Y-17752984D02*
X11205277Y-17752984D01*
X11205277Y-17752984D02*
X11186230Y-17743460D01*
X11186230Y-17743460D02*
X11176706Y-17733936D01*
X11176706Y-17733936D02*
X11167182Y-17714889D01*
X11167182Y-17714889D02*
X11167182Y-17657746D01*
X11167182Y-17657746D02*
X11176706Y-17638698D01*
X11176706Y-17638698D02*
X11186230Y-17629174D01*
X11186230Y-17629174D02*
X11205277Y-17619650D01*
X11205277Y-17619650D02*
X11243373Y-17619650D01*
X11243373Y-17619650D02*
X11262420Y-17629174D01*
X11338611Y-17829174D02*
X11348134Y-17819650D01*
X11348134Y-17819650D02*
X11367182Y-17791079D01*
X11367182Y-17791079D02*
X11376706Y-17772031D01*
X11376706Y-17772031D02*
X11386230Y-17743460D01*
X11386230Y-17743460D02*
X11395753Y-17695841D01*
X11395753Y-17695841D02*
X11395753Y-17657746D01*
X11395753Y-17657746D02*
X11386230Y-17610127D01*
X11386230Y-17610127D02*
X11376706Y-17581555D01*
X11376706Y-17581555D02*
X11367182Y-17562508D01*
X11367182Y-17562508D02*
X11348134Y-17533936D01*
X11348134Y-17533936D02*
X11338611Y-17524412D01*
D14*
X4674500Y-17855500D02*
X4674500Y-17995500D01*
X4604500Y-17925500D02*
X4744500Y-17925500D01*
D11*
X5110039Y-18016984D02*
X4995753Y-18016984D01*
X5052896Y-18016984D02*
X5052896Y-17816984D01*
X5052896Y-17816984D02*
X5033848Y-17845555D01*
X5033848Y-17845555D02*
X5014801Y-17864603D01*
X5014801Y-17864603D02*
X4995753Y-17874127D01*
X5195753Y-17997936D02*
X5205277Y-18007460D01*
X5205277Y-18007460D02*
X5195753Y-18016984D01*
X5195753Y-18016984D02*
X5186229Y-18007460D01*
X5186229Y-18007460D02*
X5195753Y-17997936D01*
X5195753Y-17997936D02*
X5195753Y-18016984D01*
X5376705Y-17883650D02*
X5376705Y-18016984D01*
X5329086Y-17807460D02*
X5281467Y-17950317D01*
X5281467Y-17950317D02*
X5405277Y-17950317D01*
X5519563Y-17816984D02*
X5538610Y-17816984D01*
X5538610Y-17816984D02*
X5557658Y-17826508D01*
X5557658Y-17826508D02*
X5567182Y-17836031D01*
X5567182Y-17836031D02*
X5576705Y-17855079D01*
X5576705Y-17855079D02*
X5586229Y-17893174D01*
X5586229Y-17893174D02*
X5586229Y-17940793D01*
X5586229Y-17940793D02*
X5576705Y-17978889D01*
X5576705Y-17978889D02*
X5567182Y-17997936D01*
X5567182Y-17997936D02*
X5557658Y-18007460D01*
X5557658Y-18007460D02*
X5538610Y-18016984D01*
X5538610Y-18016984D02*
X5519563Y-18016984D01*
X5519563Y-18016984D02*
X5500515Y-18007460D01*
X5500515Y-18007460D02*
X5490991Y-17997936D01*
X5490991Y-17997936D02*
X5481467Y-17978889D01*
X5481467Y-17978889D02*
X5471944Y-17940793D01*
X5471944Y-17940793D02*
X5471944Y-17893174D01*
X5471944Y-17893174D02*
X5481467Y-17855079D01*
X5481467Y-17855079D02*
X5490991Y-17836031D01*
X5490991Y-17836031D02*
X5500515Y-17826508D01*
X5500515Y-17826508D02*
X5519563Y-17816984D01*
X5710039Y-17816984D02*
X5729086Y-17816984D01*
X5729086Y-17816984D02*
X5748134Y-17826508D01*
X5748134Y-17826508D02*
X5757658Y-17836031D01*
X5757658Y-17836031D02*
X5767182Y-17855079D01*
X5767182Y-17855079D02*
X5776705Y-17893174D01*
X5776705Y-17893174D02*
X5776705Y-17940793D01*
X5776705Y-17940793D02*
X5767182Y-17978889D01*
X5767182Y-17978889D02*
X5757658Y-17997936D01*
X5757658Y-17997936D02*
X5748134Y-18007460D01*
X5748134Y-18007460D02*
X5729086Y-18016984D01*
X5729086Y-18016984D02*
X5710039Y-18016984D01*
X5710039Y-18016984D02*
X5690991Y-18007460D01*
X5690991Y-18007460D02*
X5681467Y-17997936D01*
X5681467Y-17997936D02*
X5671943Y-17978889D01*
X5671943Y-17978889D02*
X5662420Y-17940793D01*
X5662420Y-17940793D02*
X5662420Y-17893174D01*
X5662420Y-17893174D02*
X5671943Y-17855079D01*
X5671943Y-17855079D02*
X5681467Y-17836031D01*
X5681467Y-17836031D02*
X5690991Y-17826508D01*
X5690991Y-17826508D02*
X5710039Y-17816984D01*
X5862420Y-18016984D02*
X5862420Y-17883650D01*
X5862420Y-17902698D02*
X5871943Y-17893174D01*
X5871943Y-17893174D02*
X5890991Y-17883650D01*
X5890991Y-17883650D02*
X5919563Y-17883650D01*
X5919563Y-17883650D02*
X5938610Y-17893174D01*
X5938610Y-17893174D02*
X5948134Y-17912222D01*
X5948134Y-17912222D02*
X5948134Y-18016984D01*
X5948134Y-17912222D02*
X5957658Y-17893174D01*
X5957658Y-17893174D02*
X5976705Y-17883650D01*
X5976705Y-17883650D02*
X6005277Y-17883650D01*
X6005277Y-17883650D02*
X6024324Y-17893174D01*
X6024324Y-17893174D02*
X6033848Y-17912222D01*
X6033848Y-17912222D02*
X6033848Y-18016984D01*
X6129086Y-18016984D02*
X6129086Y-17883650D01*
X6129086Y-17902698D02*
X6138610Y-17893174D01*
X6138610Y-17893174D02*
X6157658Y-17883650D01*
X6157658Y-17883650D02*
X6186229Y-17883650D01*
X6186229Y-17883650D02*
X6205277Y-17893174D01*
X6205277Y-17893174D02*
X6214801Y-17912222D01*
X6214801Y-17912222D02*
X6214801Y-18016984D01*
X6214801Y-17912222D02*
X6224324Y-17893174D01*
X6224324Y-17893174D02*
X6243372Y-17883650D01*
X6243372Y-17883650D02*
X6271943Y-17883650D01*
X6271943Y-17883650D02*
X6290991Y-17893174D01*
X6290991Y-17893174D02*
X6300515Y-17912222D01*
X6300515Y-17912222D02*
X6300515Y-18016984D01*
X6690991Y-17807460D02*
X6519563Y-18064603D01*
X6948134Y-17816984D02*
X6967182Y-17816984D01*
X6967182Y-17816984D02*
X6986229Y-17826508D01*
X6986229Y-17826508D02*
X6995753Y-17836031D01*
X6995753Y-17836031D02*
X7005277Y-17855079D01*
X7005277Y-17855079D02*
X7014801Y-17893174D01*
X7014801Y-17893174D02*
X7014801Y-17940793D01*
X7014801Y-17940793D02*
X7005277Y-17978889D01*
X7005277Y-17978889D02*
X6995753Y-17997936D01*
X6995753Y-17997936D02*
X6986229Y-18007460D01*
X6986229Y-18007460D02*
X6967182Y-18016984D01*
X6967182Y-18016984D02*
X6948134Y-18016984D01*
X6948134Y-18016984D02*
X6929086Y-18007460D01*
X6929086Y-18007460D02*
X6919563Y-17997936D01*
X6919563Y-17997936D02*
X6910039Y-17978889D01*
X6910039Y-17978889D02*
X6900515Y-17940793D01*
X6900515Y-17940793D02*
X6900515Y-17893174D01*
X6900515Y-17893174D02*
X6910039Y-17855079D01*
X6910039Y-17855079D02*
X6919563Y-17836031D01*
X6919563Y-17836031D02*
X6929086Y-17826508D01*
X6929086Y-17826508D02*
X6948134Y-17816984D01*
X7100515Y-17997936D02*
X7110039Y-18007460D01*
X7110039Y-18007460D02*
X7100515Y-18016984D01*
X7100515Y-18016984D02*
X7090991Y-18007460D01*
X7090991Y-18007460D02*
X7100515Y-17997936D01*
X7100515Y-17997936D02*
X7100515Y-18016984D01*
X7233848Y-17816984D02*
X7252896Y-17816984D01*
X7252896Y-17816984D02*
X7271944Y-17826508D01*
X7271944Y-17826508D02*
X7281467Y-17836031D01*
X7281467Y-17836031D02*
X7290991Y-17855079D01*
X7290991Y-17855079D02*
X7300515Y-17893174D01*
X7300515Y-17893174D02*
X7300515Y-17940793D01*
X7300515Y-17940793D02*
X7290991Y-17978889D01*
X7290991Y-17978889D02*
X7281467Y-17997936D01*
X7281467Y-17997936D02*
X7271944Y-18007460D01*
X7271944Y-18007460D02*
X7252896Y-18016984D01*
X7252896Y-18016984D02*
X7233848Y-18016984D01*
X7233848Y-18016984D02*
X7214801Y-18007460D01*
X7214801Y-18007460D02*
X7205277Y-17997936D01*
X7205277Y-17997936D02*
X7195753Y-17978889D01*
X7195753Y-17978889D02*
X7186229Y-17940793D01*
X7186229Y-17940793D02*
X7186229Y-17893174D01*
X7186229Y-17893174D02*
X7195753Y-17855079D01*
X7195753Y-17855079D02*
X7205277Y-17836031D01*
X7205277Y-17836031D02*
X7214801Y-17826508D01*
X7214801Y-17826508D02*
X7233848Y-17816984D01*
X7481467Y-17816984D02*
X7386229Y-17816984D01*
X7386229Y-17816984D02*
X7376706Y-17912222D01*
X7376706Y-17912222D02*
X7386229Y-17902698D01*
X7386229Y-17902698D02*
X7405277Y-17893174D01*
X7405277Y-17893174D02*
X7452896Y-17893174D01*
X7452896Y-17893174D02*
X7471944Y-17902698D01*
X7471944Y-17902698D02*
X7481467Y-17912222D01*
X7481467Y-17912222D02*
X7490991Y-17931270D01*
X7490991Y-17931270D02*
X7490991Y-17978889D01*
X7490991Y-17978889D02*
X7481467Y-17997936D01*
X7481467Y-17997936D02*
X7471944Y-18007460D01*
X7471944Y-18007460D02*
X7452896Y-18016984D01*
X7452896Y-18016984D02*
X7405277Y-18016984D01*
X7405277Y-18016984D02*
X7386229Y-18007460D01*
X7386229Y-18007460D02*
X7376706Y-17997936D01*
X7671944Y-17816984D02*
X7576706Y-17816984D01*
X7576706Y-17816984D02*
X7567182Y-17912222D01*
X7567182Y-17912222D02*
X7576706Y-17902698D01*
X7576706Y-17902698D02*
X7595753Y-17893174D01*
X7595753Y-17893174D02*
X7643372Y-17893174D01*
X7643372Y-17893174D02*
X7662420Y-17902698D01*
X7662420Y-17902698D02*
X7671944Y-17912222D01*
X7671944Y-17912222D02*
X7681467Y-17931270D01*
X7681467Y-17931270D02*
X7681467Y-17978889D01*
X7681467Y-17978889D02*
X7671944Y-17997936D01*
X7671944Y-17997936D02*
X7662420Y-18007460D01*
X7662420Y-18007460D02*
X7643372Y-18016984D01*
X7643372Y-18016984D02*
X7595753Y-18016984D01*
X7595753Y-18016984D02*
X7576706Y-18007460D01*
X7576706Y-18007460D02*
X7567182Y-17997936D01*
X7871944Y-18016984D02*
X7757658Y-18016984D01*
X7814801Y-18016984D02*
X7814801Y-17816984D01*
X7814801Y-17816984D02*
X7795753Y-17845555D01*
X7795753Y-17845555D02*
X7776706Y-17864603D01*
X7776706Y-17864603D02*
X7757658Y-17874127D01*
X7948134Y-17816984D02*
X7948134Y-17855079D01*
X8024325Y-17816984D02*
X8024325Y-17855079D01*
X8319563Y-18093174D02*
X8310039Y-18083650D01*
X8310039Y-18083650D02*
X8290991Y-18055079D01*
X8290991Y-18055079D02*
X8281468Y-18036031D01*
X8281468Y-18036031D02*
X8271944Y-18007460D01*
X8271944Y-18007460D02*
X8262420Y-17959841D01*
X8262420Y-17959841D02*
X8262420Y-17921746D01*
X8262420Y-17921746D02*
X8271944Y-17874127D01*
X8271944Y-17874127D02*
X8281468Y-17845555D01*
X8281468Y-17845555D02*
X8290991Y-17826508D01*
X8290991Y-17826508D02*
X8310039Y-17797936D01*
X8310039Y-17797936D02*
X8319563Y-17788412D01*
X8386229Y-17836031D02*
X8395753Y-17826508D01*
X8395753Y-17826508D02*
X8414801Y-17816984D01*
X8414801Y-17816984D02*
X8462420Y-17816984D01*
X8462420Y-17816984D02*
X8481468Y-17826508D01*
X8481468Y-17826508D02*
X8490991Y-17836031D01*
X8490991Y-17836031D02*
X8500515Y-17855079D01*
X8500515Y-17855079D02*
X8500515Y-17874127D01*
X8500515Y-17874127D02*
X8490991Y-17902698D01*
X8490991Y-17902698D02*
X8376706Y-18016984D01*
X8376706Y-18016984D02*
X8500515Y-18016984D01*
X8738611Y-18016984D02*
X8738611Y-17816984D01*
X8824325Y-18016984D02*
X8824325Y-17912222D01*
X8824325Y-17912222D02*
X8814801Y-17893174D01*
X8814801Y-17893174D02*
X8795753Y-17883650D01*
X8795753Y-17883650D02*
X8767182Y-17883650D01*
X8767182Y-17883650D02*
X8748134Y-17893174D01*
X8748134Y-17893174D02*
X8738611Y-17902698D01*
X8948134Y-18016984D02*
X8929087Y-18007460D01*
X8929087Y-18007460D02*
X8919563Y-17997936D01*
X8919563Y-17997936D02*
X8910039Y-17978889D01*
X8910039Y-17978889D02*
X8910039Y-17921746D01*
X8910039Y-17921746D02*
X8919563Y-17902698D01*
X8919563Y-17902698D02*
X8929087Y-17893174D01*
X8929087Y-17893174D02*
X8948134Y-17883650D01*
X8948134Y-17883650D02*
X8976706Y-17883650D01*
X8976706Y-17883650D02*
X8995753Y-17893174D01*
X8995753Y-17893174D02*
X9005277Y-17902698D01*
X9005277Y-17902698D02*
X9014801Y-17921746D01*
X9014801Y-17921746D02*
X9014801Y-17978889D01*
X9014801Y-17978889D02*
X9005277Y-17997936D01*
X9005277Y-17997936D02*
X8995753Y-18007460D01*
X8995753Y-18007460D02*
X8976706Y-18016984D01*
X8976706Y-18016984D02*
X8948134Y-18016984D01*
X9129087Y-18016984D02*
X9110039Y-18007460D01*
X9110039Y-18007460D02*
X9100515Y-17988412D01*
X9100515Y-17988412D02*
X9100515Y-17816984D01*
X9281468Y-18007460D02*
X9262420Y-18016984D01*
X9262420Y-18016984D02*
X9224325Y-18016984D01*
X9224325Y-18016984D02*
X9205277Y-18007460D01*
X9205277Y-18007460D02*
X9195753Y-17988412D01*
X9195753Y-17988412D02*
X9195753Y-17912222D01*
X9195753Y-17912222D02*
X9205277Y-17893174D01*
X9205277Y-17893174D02*
X9224325Y-17883650D01*
X9224325Y-17883650D02*
X9262420Y-17883650D01*
X9262420Y-17883650D02*
X9281468Y-17893174D01*
X9281468Y-17893174D02*
X9290992Y-17912222D01*
X9290992Y-17912222D02*
X9290992Y-17931270D01*
X9290992Y-17931270D02*
X9195753Y-17950317D01*
X9367182Y-18007460D02*
X9386230Y-18016984D01*
X9386230Y-18016984D02*
X9424325Y-18016984D01*
X9424325Y-18016984D02*
X9443373Y-18007460D01*
X9443373Y-18007460D02*
X9452896Y-17988412D01*
X9452896Y-17988412D02*
X9452896Y-17978889D01*
X9452896Y-17978889D02*
X9443373Y-17959841D01*
X9443373Y-17959841D02*
X9424325Y-17950317D01*
X9424325Y-17950317D02*
X9395753Y-17950317D01*
X9395753Y-17950317D02*
X9376706Y-17940793D01*
X9376706Y-17940793D02*
X9367182Y-17921746D01*
X9367182Y-17921746D02*
X9367182Y-17912222D01*
X9367182Y-17912222D02*
X9376706Y-17893174D01*
X9376706Y-17893174D02*
X9395753Y-17883650D01*
X9395753Y-17883650D02*
X9424325Y-17883650D01*
X9424325Y-17883650D02*
X9443373Y-17893174D01*
X9519563Y-18093174D02*
X9529087Y-18083650D01*
X9529087Y-18083650D02*
X9548134Y-18055079D01*
X9548134Y-18055079D02*
X9557658Y-18036031D01*
X9557658Y-18036031D02*
X9567182Y-18007460D01*
X9567182Y-18007460D02*
X9576706Y-17959841D01*
X9576706Y-17959841D02*
X9576706Y-17921746D01*
X9576706Y-17921746D02*
X9567182Y-17874127D01*
X9567182Y-17874127D02*
X9557658Y-17845555D01*
X9557658Y-17845555D02*
X9548134Y-17826508D01*
X9548134Y-17826508D02*
X9529087Y-17797936D01*
X9529087Y-17797936D02*
X9519563Y-17788412D01*
X9881468Y-18093174D02*
X9871944Y-18083650D01*
X9871944Y-18083650D02*
X9852896Y-18055079D01*
X9852896Y-18055079D02*
X9843373Y-18036031D01*
X9843373Y-18036031D02*
X9833849Y-18007460D01*
X9833849Y-18007460D02*
X9824325Y-17959841D01*
X9824325Y-17959841D02*
X9824325Y-17921746D01*
X9824325Y-17921746D02*
X9833849Y-17874127D01*
X9833849Y-17874127D02*
X9843373Y-17845555D01*
X9843373Y-17845555D02*
X9852896Y-17826508D01*
X9852896Y-17826508D02*
X9871944Y-17797936D01*
X9871944Y-17797936D02*
X9881468Y-17788412D01*
X9957658Y-17883650D02*
X9957658Y-18016984D01*
X9957658Y-17902698D02*
X9967182Y-17893174D01*
X9967182Y-17893174D02*
X9986230Y-17883650D01*
X9986230Y-17883650D02*
X10014801Y-17883650D01*
X10014801Y-17883650D02*
X10033849Y-17893174D01*
X10033849Y-17893174D02*
X10043373Y-17912222D01*
X10043373Y-17912222D02*
X10043373Y-18016984D01*
X10167182Y-18016984D02*
X10148134Y-18007460D01*
X10148134Y-18007460D02*
X10138611Y-17997936D01*
X10138611Y-17997936D02*
X10129087Y-17978889D01*
X10129087Y-17978889D02*
X10129087Y-17921746D01*
X10129087Y-17921746D02*
X10138611Y-17902698D01*
X10138611Y-17902698D02*
X10148134Y-17893174D01*
X10148134Y-17893174D02*
X10167182Y-17883650D01*
X10167182Y-17883650D02*
X10195754Y-17883650D01*
X10195754Y-17883650D02*
X10214801Y-17893174D01*
X10214801Y-17893174D02*
X10224325Y-17902698D01*
X10224325Y-17902698D02*
X10233849Y-17921746D01*
X10233849Y-17921746D02*
X10233849Y-17978889D01*
X10233849Y-17978889D02*
X10224325Y-17997936D01*
X10224325Y-17997936D02*
X10214801Y-18007460D01*
X10214801Y-18007460D02*
X10195754Y-18016984D01*
X10195754Y-18016984D02*
X10167182Y-18016984D01*
X10290992Y-17883650D02*
X10367182Y-17883650D01*
X10319563Y-17816984D02*
X10319563Y-17988412D01*
X10319563Y-17988412D02*
X10329087Y-18007460D01*
X10329087Y-18007460D02*
X10348134Y-18016984D01*
X10348134Y-18016984D02*
X10367182Y-18016984D01*
X10586230Y-17883650D02*
X10586230Y-18083650D01*
X10586230Y-17893174D02*
X10605277Y-17883650D01*
X10605277Y-17883650D02*
X10643373Y-17883650D01*
X10643373Y-17883650D02*
X10662420Y-17893174D01*
X10662420Y-17893174D02*
X10671944Y-17902698D01*
X10671944Y-17902698D02*
X10681468Y-17921746D01*
X10681468Y-17921746D02*
X10681468Y-17978889D01*
X10681468Y-17978889D02*
X10671944Y-17997936D01*
X10671944Y-17997936D02*
X10662420Y-18007460D01*
X10662420Y-18007460D02*
X10643373Y-18016984D01*
X10643373Y-18016984D02*
X10605277Y-18016984D01*
X10605277Y-18016984D02*
X10586230Y-18007460D01*
X10795754Y-18016984D02*
X10776706Y-18007460D01*
X10776706Y-18007460D02*
X10767182Y-17988412D01*
X10767182Y-17988412D02*
X10767182Y-17816984D01*
X10957658Y-18016984D02*
X10957658Y-17912222D01*
X10957658Y-17912222D02*
X10948135Y-17893174D01*
X10948135Y-17893174D02*
X10929087Y-17883650D01*
X10929087Y-17883650D02*
X10890992Y-17883650D01*
X10890992Y-17883650D02*
X10871944Y-17893174D01*
X10957658Y-18007460D02*
X10938611Y-18016984D01*
X10938611Y-18016984D02*
X10890992Y-18016984D01*
X10890992Y-18016984D02*
X10871944Y-18007460D01*
X10871944Y-18007460D02*
X10862420Y-17988412D01*
X10862420Y-17988412D02*
X10862420Y-17969365D01*
X10862420Y-17969365D02*
X10871944Y-17950317D01*
X10871944Y-17950317D02*
X10890992Y-17940793D01*
X10890992Y-17940793D02*
X10938611Y-17940793D01*
X10938611Y-17940793D02*
X10957658Y-17931270D01*
X11024325Y-17883650D02*
X11100515Y-17883650D01*
X11052896Y-17816984D02*
X11052896Y-17988412D01*
X11052896Y-17988412D02*
X11062420Y-18007460D01*
X11062420Y-18007460D02*
X11081468Y-18016984D01*
X11081468Y-18016984D02*
X11100515Y-18016984D01*
X11243373Y-18007460D02*
X11224325Y-18016984D01*
X11224325Y-18016984D02*
X11186230Y-18016984D01*
X11186230Y-18016984D02*
X11167182Y-18007460D01*
X11167182Y-18007460D02*
X11157658Y-17988412D01*
X11157658Y-17988412D02*
X11157658Y-17912222D01*
X11157658Y-17912222D02*
X11167182Y-17893174D01*
X11167182Y-17893174D02*
X11186230Y-17883650D01*
X11186230Y-17883650D02*
X11224325Y-17883650D01*
X11224325Y-17883650D02*
X11243373Y-17893174D01*
X11243373Y-17893174D02*
X11252896Y-17912222D01*
X11252896Y-17912222D02*
X11252896Y-17931270D01*
X11252896Y-17931270D02*
X11157658Y-17950317D01*
X11424325Y-18016984D02*
X11424325Y-17816984D01*
X11424325Y-18007460D02*
X11405277Y-18016984D01*
X11405277Y-18016984D02*
X11367182Y-18016984D01*
X11367182Y-18016984D02*
X11348134Y-18007460D01*
X11348134Y-18007460D02*
X11338611Y-17997936D01*
X11338611Y-17997936D02*
X11329087Y-17978889D01*
X11329087Y-17978889D02*
X11329087Y-17921746D01*
X11329087Y-17921746D02*
X11338611Y-17902698D01*
X11338611Y-17902698D02*
X11348134Y-17893174D01*
X11348134Y-17893174D02*
X11367182Y-17883650D01*
X11367182Y-17883650D02*
X11405277Y-17883650D01*
X11405277Y-17883650D02*
X11424325Y-17893174D01*
X11500515Y-18093174D02*
X11510039Y-18083650D01*
X11510039Y-18083650D02*
X11529087Y-18055079D01*
X11529087Y-18055079D02*
X11538611Y-18036031D01*
X11538611Y-18036031D02*
X11548134Y-18007460D01*
X11548134Y-18007460D02*
X11557658Y-17959841D01*
X11557658Y-17959841D02*
X11557658Y-17921746D01*
X11557658Y-17921746D02*
X11548134Y-17874127D01*
X11548134Y-17874127D02*
X11538611Y-17845555D01*
X11538611Y-17845555D02*
X11529087Y-17826508D01*
X11529087Y-17826508D02*
X11510039Y-17797936D01*
X11510039Y-17797936D02*
X11500515Y-17788412D01*
D15*
X4721069Y-18246069D02*
X4721069Y-18132931D01*
X4607931Y-18132931D01*
X4607931Y-18246069D01*
X4721069Y-18246069D01*
D11*
X5110039Y-18280984D02*
X4995753Y-18280984D01*
X5052896Y-18280984D02*
X5052896Y-18080984D01*
X5052896Y-18080984D02*
X5033848Y-18109555D01*
X5033848Y-18109555D02*
X5014801Y-18128603D01*
X5014801Y-18128603D02*
X4995753Y-18138127D01*
X5195753Y-18261936D02*
X5205277Y-18271460D01*
X5205277Y-18271460D02*
X5195753Y-18280984D01*
X5195753Y-18280984D02*
X5186229Y-18271460D01*
X5186229Y-18271460D02*
X5195753Y-18261936D01*
X5195753Y-18261936D02*
X5195753Y-18280984D01*
X5376705Y-18080984D02*
X5338610Y-18080984D01*
X5338610Y-18080984D02*
X5319563Y-18090508D01*
X5319563Y-18090508D02*
X5310039Y-18100031D01*
X5310039Y-18100031D02*
X5290991Y-18128603D01*
X5290991Y-18128603D02*
X5281467Y-18166698D01*
X5281467Y-18166698D02*
X5281467Y-18242889D01*
X5281467Y-18242889D02*
X5290991Y-18261936D01*
X5290991Y-18261936D02*
X5300515Y-18271460D01*
X5300515Y-18271460D02*
X5319563Y-18280984D01*
X5319563Y-18280984D02*
X5357658Y-18280984D01*
X5357658Y-18280984D02*
X5376705Y-18271460D01*
X5376705Y-18271460D02*
X5386229Y-18261936D01*
X5386229Y-18261936D02*
X5395753Y-18242889D01*
X5395753Y-18242889D02*
X5395753Y-18195270D01*
X5395753Y-18195270D02*
X5386229Y-18176222D01*
X5386229Y-18176222D02*
X5376705Y-18166698D01*
X5376705Y-18166698D02*
X5357658Y-18157174D01*
X5357658Y-18157174D02*
X5319563Y-18157174D01*
X5319563Y-18157174D02*
X5300515Y-18166698D01*
X5300515Y-18166698D02*
X5290991Y-18176222D01*
X5290991Y-18176222D02*
X5281467Y-18195270D01*
X5519563Y-18080984D02*
X5538610Y-18080984D01*
X5538610Y-18080984D02*
X5557658Y-18090508D01*
X5557658Y-18090508D02*
X5567182Y-18100031D01*
X5567182Y-18100031D02*
X5576705Y-18119079D01*
X5576705Y-18119079D02*
X5586229Y-18157174D01*
X5586229Y-18157174D02*
X5586229Y-18204793D01*
X5586229Y-18204793D02*
X5576705Y-18242889D01*
X5576705Y-18242889D02*
X5567182Y-18261936D01*
X5567182Y-18261936D02*
X5557658Y-18271460D01*
X5557658Y-18271460D02*
X5538610Y-18280984D01*
X5538610Y-18280984D02*
X5519563Y-18280984D01*
X5519563Y-18280984D02*
X5500515Y-18271460D01*
X5500515Y-18271460D02*
X5490991Y-18261936D01*
X5490991Y-18261936D02*
X5481467Y-18242889D01*
X5481467Y-18242889D02*
X5471944Y-18204793D01*
X5471944Y-18204793D02*
X5471944Y-18157174D01*
X5471944Y-18157174D02*
X5481467Y-18119079D01*
X5481467Y-18119079D02*
X5490991Y-18100031D01*
X5490991Y-18100031D02*
X5500515Y-18090508D01*
X5500515Y-18090508D02*
X5519563Y-18080984D01*
X5710039Y-18080984D02*
X5729086Y-18080984D01*
X5729086Y-18080984D02*
X5748134Y-18090508D01*
X5748134Y-18090508D02*
X5757658Y-18100031D01*
X5757658Y-18100031D02*
X5767182Y-18119079D01*
X5767182Y-18119079D02*
X5776705Y-18157174D01*
X5776705Y-18157174D02*
X5776705Y-18204793D01*
X5776705Y-18204793D02*
X5767182Y-18242889D01*
X5767182Y-18242889D02*
X5757658Y-18261936D01*
X5757658Y-18261936D02*
X5748134Y-18271460D01*
X5748134Y-18271460D02*
X5729086Y-18280984D01*
X5729086Y-18280984D02*
X5710039Y-18280984D01*
X5710039Y-18280984D02*
X5690991Y-18271460D01*
X5690991Y-18271460D02*
X5681467Y-18261936D01*
X5681467Y-18261936D02*
X5671943Y-18242889D01*
X5671943Y-18242889D02*
X5662420Y-18204793D01*
X5662420Y-18204793D02*
X5662420Y-18157174D01*
X5662420Y-18157174D02*
X5671943Y-18119079D01*
X5671943Y-18119079D02*
X5681467Y-18100031D01*
X5681467Y-18100031D02*
X5690991Y-18090508D01*
X5690991Y-18090508D02*
X5710039Y-18080984D01*
X5862420Y-18280984D02*
X5862420Y-18147650D01*
X5862420Y-18166698D02*
X5871943Y-18157174D01*
X5871943Y-18157174D02*
X5890991Y-18147650D01*
X5890991Y-18147650D02*
X5919563Y-18147650D01*
X5919563Y-18147650D02*
X5938610Y-18157174D01*
X5938610Y-18157174D02*
X5948134Y-18176222D01*
X5948134Y-18176222D02*
X5948134Y-18280984D01*
X5948134Y-18176222D02*
X5957658Y-18157174D01*
X5957658Y-18157174D02*
X5976705Y-18147650D01*
X5976705Y-18147650D02*
X6005277Y-18147650D01*
X6005277Y-18147650D02*
X6024324Y-18157174D01*
X6024324Y-18157174D02*
X6033848Y-18176222D01*
X6033848Y-18176222D02*
X6033848Y-18280984D01*
X6129086Y-18280984D02*
X6129086Y-18147650D01*
X6129086Y-18166698D02*
X6138610Y-18157174D01*
X6138610Y-18157174D02*
X6157658Y-18147650D01*
X6157658Y-18147650D02*
X6186229Y-18147650D01*
X6186229Y-18147650D02*
X6205277Y-18157174D01*
X6205277Y-18157174D02*
X6214801Y-18176222D01*
X6214801Y-18176222D02*
X6214801Y-18280984D01*
X6214801Y-18176222D02*
X6224324Y-18157174D01*
X6224324Y-18157174D02*
X6243372Y-18147650D01*
X6243372Y-18147650D02*
X6271943Y-18147650D01*
X6271943Y-18147650D02*
X6290991Y-18157174D01*
X6290991Y-18157174D02*
X6300515Y-18176222D01*
X6300515Y-18176222D02*
X6300515Y-18280984D01*
X6690991Y-18071460D02*
X6519563Y-18328603D01*
X6948134Y-18080984D02*
X6967182Y-18080984D01*
X6967182Y-18080984D02*
X6986229Y-18090508D01*
X6986229Y-18090508D02*
X6995753Y-18100031D01*
X6995753Y-18100031D02*
X7005277Y-18119079D01*
X7005277Y-18119079D02*
X7014801Y-18157174D01*
X7014801Y-18157174D02*
X7014801Y-18204793D01*
X7014801Y-18204793D02*
X7005277Y-18242889D01*
X7005277Y-18242889D02*
X6995753Y-18261936D01*
X6995753Y-18261936D02*
X6986229Y-18271460D01*
X6986229Y-18271460D02*
X6967182Y-18280984D01*
X6967182Y-18280984D02*
X6948134Y-18280984D01*
X6948134Y-18280984D02*
X6929086Y-18271460D01*
X6929086Y-18271460D02*
X6919563Y-18261936D01*
X6919563Y-18261936D02*
X6910039Y-18242889D01*
X6910039Y-18242889D02*
X6900515Y-18204793D01*
X6900515Y-18204793D02*
X6900515Y-18157174D01*
X6900515Y-18157174D02*
X6910039Y-18119079D01*
X6910039Y-18119079D02*
X6919563Y-18100031D01*
X6919563Y-18100031D02*
X6929086Y-18090508D01*
X6929086Y-18090508D02*
X6948134Y-18080984D01*
X7100515Y-18261936D02*
X7110039Y-18271460D01*
X7110039Y-18271460D02*
X7100515Y-18280984D01*
X7100515Y-18280984D02*
X7090991Y-18271460D01*
X7090991Y-18271460D02*
X7100515Y-18261936D01*
X7100515Y-18261936D02*
X7100515Y-18280984D01*
X7233848Y-18080984D02*
X7252896Y-18080984D01*
X7252896Y-18080984D02*
X7271944Y-18090508D01*
X7271944Y-18090508D02*
X7281467Y-18100031D01*
X7281467Y-18100031D02*
X7290991Y-18119079D01*
X7290991Y-18119079D02*
X7300515Y-18157174D01*
X7300515Y-18157174D02*
X7300515Y-18204793D01*
X7300515Y-18204793D02*
X7290991Y-18242889D01*
X7290991Y-18242889D02*
X7281467Y-18261936D01*
X7281467Y-18261936D02*
X7271944Y-18271460D01*
X7271944Y-18271460D02*
X7252896Y-18280984D01*
X7252896Y-18280984D02*
X7233848Y-18280984D01*
X7233848Y-18280984D02*
X7214801Y-18271460D01*
X7214801Y-18271460D02*
X7205277Y-18261936D01*
X7205277Y-18261936D02*
X7195753Y-18242889D01*
X7195753Y-18242889D02*
X7186229Y-18204793D01*
X7186229Y-18204793D02*
X7186229Y-18157174D01*
X7186229Y-18157174D02*
X7195753Y-18119079D01*
X7195753Y-18119079D02*
X7205277Y-18100031D01*
X7205277Y-18100031D02*
X7214801Y-18090508D01*
X7214801Y-18090508D02*
X7233848Y-18080984D01*
X7471944Y-18080984D02*
X7433848Y-18080984D01*
X7433848Y-18080984D02*
X7414801Y-18090508D01*
X7414801Y-18090508D02*
X7405277Y-18100031D01*
X7405277Y-18100031D02*
X7386229Y-18128603D01*
X7386229Y-18128603D02*
X7376706Y-18166698D01*
X7376706Y-18166698D02*
X7376706Y-18242889D01*
X7376706Y-18242889D02*
X7386229Y-18261936D01*
X7386229Y-18261936D02*
X7395753Y-18271460D01*
X7395753Y-18271460D02*
X7414801Y-18280984D01*
X7414801Y-18280984D02*
X7452896Y-18280984D01*
X7452896Y-18280984D02*
X7471944Y-18271460D01*
X7471944Y-18271460D02*
X7481467Y-18261936D01*
X7481467Y-18261936D02*
X7490991Y-18242889D01*
X7490991Y-18242889D02*
X7490991Y-18195270D01*
X7490991Y-18195270D02*
X7481467Y-18176222D01*
X7481467Y-18176222D02*
X7471944Y-18166698D01*
X7471944Y-18166698D02*
X7452896Y-18157174D01*
X7452896Y-18157174D02*
X7414801Y-18157174D01*
X7414801Y-18157174D02*
X7395753Y-18166698D01*
X7395753Y-18166698D02*
X7386229Y-18176222D01*
X7386229Y-18176222D02*
X7376706Y-18195270D01*
X7557658Y-18080984D02*
X7681467Y-18080984D01*
X7681467Y-18080984D02*
X7614801Y-18157174D01*
X7614801Y-18157174D02*
X7643372Y-18157174D01*
X7643372Y-18157174D02*
X7662420Y-18166698D01*
X7662420Y-18166698D02*
X7671944Y-18176222D01*
X7671944Y-18176222D02*
X7681467Y-18195270D01*
X7681467Y-18195270D02*
X7681467Y-18242889D01*
X7681467Y-18242889D02*
X7671944Y-18261936D01*
X7671944Y-18261936D02*
X7662420Y-18271460D01*
X7662420Y-18271460D02*
X7643372Y-18280984D01*
X7643372Y-18280984D02*
X7586229Y-18280984D01*
X7586229Y-18280984D02*
X7567182Y-18271460D01*
X7567182Y-18271460D02*
X7557658Y-18261936D01*
X7805277Y-18080984D02*
X7824325Y-18080984D01*
X7824325Y-18080984D02*
X7843372Y-18090508D01*
X7843372Y-18090508D02*
X7852896Y-18100031D01*
X7852896Y-18100031D02*
X7862420Y-18119079D01*
X7862420Y-18119079D02*
X7871944Y-18157174D01*
X7871944Y-18157174D02*
X7871944Y-18204793D01*
X7871944Y-18204793D02*
X7862420Y-18242889D01*
X7862420Y-18242889D02*
X7852896Y-18261936D01*
X7852896Y-18261936D02*
X7843372Y-18271460D01*
X7843372Y-18271460D02*
X7824325Y-18280984D01*
X7824325Y-18280984D02*
X7805277Y-18280984D01*
X7805277Y-18280984D02*
X7786229Y-18271460D01*
X7786229Y-18271460D02*
X7776706Y-18261936D01*
X7776706Y-18261936D02*
X7767182Y-18242889D01*
X7767182Y-18242889D02*
X7757658Y-18204793D01*
X7757658Y-18204793D02*
X7757658Y-18157174D01*
X7757658Y-18157174D02*
X7767182Y-18119079D01*
X7767182Y-18119079D02*
X7776706Y-18100031D01*
X7776706Y-18100031D02*
X7786229Y-18090508D01*
X7786229Y-18090508D02*
X7805277Y-18080984D01*
X7948134Y-18080984D02*
X7948134Y-18119079D01*
X8024325Y-18080984D02*
X8024325Y-18119079D01*
X8319563Y-18357174D02*
X8310039Y-18347650D01*
X8310039Y-18347650D02*
X8290991Y-18319079D01*
X8290991Y-18319079D02*
X8281468Y-18300031D01*
X8281468Y-18300031D02*
X8271944Y-18271460D01*
X8271944Y-18271460D02*
X8262420Y-18223841D01*
X8262420Y-18223841D02*
X8262420Y-18185746D01*
X8262420Y-18185746D02*
X8271944Y-18138127D01*
X8271944Y-18138127D02*
X8281468Y-18109555D01*
X8281468Y-18109555D02*
X8290991Y-18090508D01*
X8290991Y-18090508D02*
X8310039Y-18061936D01*
X8310039Y-18061936D02*
X8319563Y-18052412D01*
X8500515Y-18280984D02*
X8386229Y-18280984D01*
X8443372Y-18280984D02*
X8443372Y-18080984D01*
X8443372Y-18080984D02*
X8424325Y-18109555D01*
X8424325Y-18109555D02*
X8405277Y-18128603D01*
X8405277Y-18128603D02*
X8386229Y-18138127D01*
X8738611Y-18280984D02*
X8738611Y-18080984D01*
X8824325Y-18280984D02*
X8824325Y-18176222D01*
X8824325Y-18176222D02*
X8814801Y-18157174D01*
X8814801Y-18157174D02*
X8795753Y-18147650D01*
X8795753Y-18147650D02*
X8767182Y-18147650D01*
X8767182Y-18147650D02*
X8748134Y-18157174D01*
X8748134Y-18157174D02*
X8738611Y-18166698D01*
X8948134Y-18280984D02*
X8929087Y-18271460D01*
X8929087Y-18271460D02*
X8919563Y-18261936D01*
X8919563Y-18261936D02*
X8910039Y-18242889D01*
X8910039Y-18242889D02*
X8910039Y-18185746D01*
X8910039Y-18185746D02*
X8919563Y-18166698D01*
X8919563Y-18166698D02*
X8929087Y-18157174D01*
X8929087Y-18157174D02*
X8948134Y-18147650D01*
X8948134Y-18147650D02*
X8976706Y-18147650D01*
X8976706Y-18147650D02*
X8995753Y-18157174D01*
X8995753Y-18157174D02*
X9005277Y-18166698D01*
X9005277Y-18166698D02*
X9014801Y-18185746D01*
X9014801Y-18185746D02*
X9014801Y-18242889D01*
X9014801Y-18242889D02*
X9005277Y-18261936D01*
X9005277Y-18261936D02*
X8995753Y-18271460D01*
X8995753Y-18271460D02*
X8976706Y-18280984D01*
X8976706Y-18280984D02*
X8948134Y-18280984D01*
X9129087Y-18280984D02*
X9110039Y-18271460D01*
X9110039Y-18271460D02*
X9100515Y-18252412D01*
X9100515Y-18252412D02*
X9100515Y-18080984D01*
X9281468Y-18271460D02*
X9262420Y-18280984D01*
X9262420Y-18280984D02*
X9224325Y-18280984D01*
X9224325Y-18280984D02*
X9205277Y-18271460D01*
X9205277Y-18271460D02*
X9195753Y-18252412D01*
X9195753Y-18252412D02*
X9195753Y-18176222D01*
X9195753Y-18176222D02*
X9205277Y-18157174D01*
X9205277Y-18157174D02*
X9224325Y-18147650D01*
X9224325Y-18147650D02*
X9262420Y-18147650D01*
X9262420Y-18147650D02*
X9281468Y-18157174D01*
X9281468Y-18157174D02*
X9290992Y-18176222D01*
X9290992Y-18176222D02*
X9290992Y-18195270D01*
X9290992Y-18195270D02*
X9195753Y-18214317D01*
X9357658Y-18357174D02*
X9367182Y-18347650D01*
X9367182Y-18347650D02*
X9386230Y-18319079D01*
X9386230Y-18319079D02*
X9395753Y-18300031D01*
X9395753Y-18300031D02*
X9405277Y-18271460D01*
X9405277Y-18271460D02*
X9414801Y-18223841D01*
X9414801Y-18223841D02*
X9414801Y-18185746D01*
X9414801Y-18185746D02*
X9405277Y-18138127D01*
X9405277Y-18138127D02*
X9395753Y-18109555D01*
X9395753Y-18109555D02*
X9386230Y-18090508D01*
X9386230Y-18090508D02*
X9367182Y-18061936D01*
X9367182Y-18061936D02*
X9357658Y-18052412D01*
X9719563Y-18357174D02*
X9710039Y-18347650D01*
X9710039Y-18347650D02*
X9690992Y-18319079D01*
X9690992Y-18319079D02*
X9681468Y-18300031D01*
X9681468Y-18300031D02*
X9671944Y-18271460D01*
X9671944Y-18271460D02*
X9662420Y-18223841D01*
X9662420Y-18223841D02*
X9662420Y-18185746D01*
X9662420Y-18185746D02*
X9671944Y-18138127D01*
X9671944Y-18138127D02*
X9681468Y-18109555D01*
X9681468Y-18109555D02*
X9690992Y-18090508D01*
X9690992Y-18090508D02*
X9710039Y-18061936D01*
X9710039Y-18061936D02*
X9719563Y-18052412D01*
X9795753Y-18147650D02*
X9795753Y-18280984D01*
X9795753Y-18166698D02*
X9805277Y-18157174D01*
X9805277Y-18157174D02*
X9824325Y-18147650D01*
X9824325Y-18147650D02*
X9852896Y-18147650D01*
X9852896Y-18147650D02*
X9871944Y-18157174D01*
X9871944Y-18157174D02*
X9881468Y-18176222D01*
X9881468Y-18176222D02*
X9881468Y-18280984D01*
X10005277Y-18280984D02*
X9986230Y-18271460D01*
X9986230Y-18271460D02*
X9976706Y-18261936D01*
X9976706Y-18261936D02*
X9967182Y-18242889D01*
X9967182Y-18242889D02*
X9967182Y-18185746D01*
X9967182Y-18185746D02*
X9976706Y-18166698D01*
X9976706Y-18166698D02*
X9986230Y-18157174D01*
X9986230Y-18157174D02*
X10005277Y-18147650D01*
X10005277Y-18147650D02*
X10033849Y-18147650D01*
X10033849Y-18147650D02*
X10052896Y-18157174D01*
X10052896Y-18157174D02*
X10062420Y-18166698D01*
X10062420Y-18166698D02*
X10071944Y-18185746D01*
X10071944Y-18185746D02*
X10071944Y-18242889D01*
X10071944Y-18242889D02*
X10062420Y-18261936D01*
X10062420Y-18261936D02*
X10052896Y-18271460D01*
X10052896Y-18271460D02*
X10033849Y-18280984D01*
X10033849Y-18280984D02*
X10005277Y-18280984D01*
X10129087Y-18147650D02*
X10205277Y-18147650D01*
X10157658Y-18080984D02*
X10157658Y-18252412D01*
X10157658Y-18252412D02*
X10167182Y-18271460D01*
X10167182Y-18271460D02*
X10186230Y-18280984D01*
X10186230Y-18280984D02*
X10205277Y-18280984D01*
X10424325Y-18147650D02*
X10424325Y-18347650D01*
X10424325Y-18157174D02*
X10443373Y-18147650D01*
X10443373Y-18147650D02*
X10481468Y-18147650D01*
X10481468Y-18147650D02*
X10500515Y-18157174D01*
X10500515Y-18157174D02*
X10510039Y-18166698D01*
X10510039Y-18166698D02*
X10519563Y-18185746D01*
X10519563Y-18185746D02*
X10519563Y-18242889D01*
X10519563Y-18242889D02*
X10510039Y-18261936D01*
X10510039Y-18261936D02*
X10500515Y-18271460D01*
X10500515Y-18271460D02*
X10481468Y-18280984D01*
X10481468Y-18280984D02*
X10443373Y-18280984D01*
X10443373Y-18280984D02*
X10424325Y-18271460D01*
X10633849Y-18280984D02*
X10614801Y-18271460D01*
X10614801Y-18271460D02*
X10605277Y-18252412D01*
X10605277Y-18252412D02*
X10605277Y-18080984D01*
X10795754Y-18280984D02*
X10795754Y-18176222D01*
X10795754Y-18176222D02*
X10786230Y-18157174D01*
X10786230Y-18157174D02*
X10767182Y-18147650D01*
X10767182Y-18147650D02*
X10729087Y-18147650D01*
X10729087Y-18147650D02*
X10710039Y-18157174D01*
X10795754Y-18271460D02*
X10776706Y-18280984D01*
X10776706Y-18280984D02*
X10729087Y-18280984D01*
X10729087Y-18280984D02*
X10710039Y-18271460D01*
X10710039Y-18271460D02*
X10700515Y-18252412D01*
X10700515Y-18252412D02*
X10700515Y-18233365D01*
X10700515Y-18233365D02*
X10710039Y-18214317D01*
X10710039Y-18214317D02*
X10729087Y-18204793D01*
X10729087Y-18204793D02*
X10776706Y-18204793D01*
X10776706Y-18204793D02*
X10795754Y-18195270D01*
X10862420Y-18147650D02*
X10938611Y-18147650D01*
X10890992Y-18080984D02*
X10890992Y-18252412D01*
X10890992Y-18252412D02*
X10900515Y-18271460D01*
X10900515Y-18271460D02*
X10919563Y-18280984D01*
X10919563Y-18280984D02*
X10938611Y-18280984D01*
X11081468Y-18271460D02*
X11062420Y-18280984D01*
X11062420Y-18280984D02*
X11024325Y-18280984D01*
X11024325Y-18280984D02*
X11005277Y-18271460D01*
X11005277Y-18271460D02*
X10995754Y-18252412D01*
X10995754Y-18252412D02*
X10995754Y-18176222D01*
X10995754Y-18176222D02*
X11005277Y-18157174D01*
X11005277Y-18157174D02*
X11024325Y-18147650D01*
X11024325Y-18147650D02*
X11062420Y-18147650D01*
X11062420Y-18147650D02*
X11081468Y-18157174D01*
X11081468Y-18157174D02*
X11090992Y-18176222D01*
X11090992Y-18176222D02*
X11090992Y-18195270D01*
X11090992Y-18195270D02*
X10995754Y-18214317D01*
X11262420Y-18280984D02*
X11262420Y-18080984D01*
X11262420Y-18271460D02*
X11243373Y-18280984D01*
X11243373Y-18280984D02*
X11205277Y-18280984D01*
X11205277Y-18280984D02*
X11186230Y-18271460D01*
X11186230Y-18271460D02*
X11176706Y-18261936D01*
X11176706Y-18261936D02*
X11167182Y-18242889D01*
X11167182Y-18242889D02*
X11167182Y-18185746D01*
X11167182Y-18185746D02*
X11176706Y-18166698D01*
X11176706Y-18166698D02*
X11186230Y-18157174D01*
X11186230Y-18157174D02*
X11205277Y-18147650D01*
X11205277Y-18147650D02*
X11243373Y-18147650D01*
X11243373Y-18147650D02*
X11262420Y-18157174D01*
X11338611Y-18357174D02*
X11348134Y-18347650D01*
X11348134Y-18347650D02*
X11367182Y-18319079D01*
X11367182Y-18319079D02*
X11376706Y-18300031D01*
X11376706Y-18300031D02*
X11386230Y-18271460D01*
X11386230Y-18271460D02*
X11395753Y-18223841D01*
X11395753Y-18223841D02*
X11395753Y-18185746D01*
X11395753Y-18185746D02*
X11386230Y-18138127D01*
X11386230Y-18138127D02*
X11376706Y-18109555D01*
X11376706Y-18109555D02*
X11367182Y-18090508D01*
X11367182Y-18090508D02*
X11348134Y-18061936D01*
X11348134Y-18061936D02*
X11338611Y-18052412D01*
X4644500Y-18569500D02*
X4744500Y-18469500D01*
X4644500Y-18369500D01*
X4544500Y-18469500D01*
X4644500Y-18569500D01*
X4986229Y-18360984D02*
X5110039Y-18360984D01*
X5110039Y-18360984D02*
X5043372Y-18437174D01*
X5043372Y-18437174D02*
X5071944Y-18437174D01*
X5071944Y-18437174D02*
X5090991Y-18446698D01*
X5090991Y-18446698D02*
X5100515Y-18456222D01*
X5100515Y-18456222D02*
X5110039Y-18475270D01*
X5110039Y-18475270D02*
X5110039Y-18522889D01*
X5110039Y-18522889D02*
X5100515Y-18541936D01*
X5100515Y-18541936D02*
X5090991Y-18551460D01*
X5090991Y-18551460D02*
X5071944Y-18560984D01*
X5071944Y-18560984D02*
X5014801Y-18560984D01*
X5014801Y-18560984D02*
X4995753Y-18551460D01*
X4995753Y-18551460D02*
X4986229Y-18541936D01*
X5195753Y-18541936D02*
X5205277Y-18551460D01*
X5205277Y-18551460D02*
X5195753Y-18560984D01*
X5195753Y-18560984D02*
X5186229Y-18551460D01*
X5186229Y-18551460D02*
X5195753Y-18541936D01*
X5195753Y-18541936D02*
X5195753Y-18560984D01*
X5281467Y-18380031D02*
X5290991Y-18370508D01*
X5290991Y-18370508D02*
X5310039Y-18360984D01*
X5310039Y-18360984D02*
X5357658Y-18360984D01*
X5357658Y-18360984D02*
X5376705Y-18370508D01*
X5376705Y-18370508D02*
X5386229Y-18380031D01*
X5386229Y-18380031D02*
X5395753Y-18399079D01*
X5395753Y-18399079D02*
X5395753Y-18418127D01*
X5395753Y-18418127D02*
X5386229Y-18446698D01*
X5386229Y-18446698D02*
X5271944Y-18560984D01*
X5271944Y-18560984D02*
X5395753Y-18560984D01*
X5519563Y-18360984D02*
X5538610Y-18360984D01*
X5538610Y-18360984D02*
X5557658Y-18370508D01*
X5557658Y-18370508D02*
X5567182Y-18380031D01*
X5567182Y-18380031D02*
X5576705Y-18399079D01*
X5576705Y-18399079D02*
X5586229Y-18437174D01*
X5586229Y-18437174D02*
X5586229Y-18484793D01*
X5586229Y-18484793D02*
X5576705Y-18522889D01*
X5576705Y-18522889D02*
X5567182Y-18541936D01*
X5567182Y-18541936D02*
X5557658Y-18551460D01*
X5557658Y-18551460D02*
X5538610Y-18560984D01*
X5538610Y-18560984D02*
X5519563Y-18560984D01*
X5519563Y-18560984D02*
X5500515Y-18551460D01*
X5500515Y-18551460D02*
X5490991Y-18541936D01*
X5490991Y-18541936D02*
X5481467Y-18522889D01*
X5481467Y-18522889D02*
X5471944Y-18484793D01*
X5471944Y-18484793D02*
X5471944Y-18437174D01*
X5471944Y-18437174D02*
X5481467Y-18399079D01*
X5481467Y-18399079D02*
X5490991Y-18380031D01*
X5490991Y-18380031D02*
X5500515Y-18370508D01*
X5500515Y-18370508D02*
X5519563Y-18360984D01*
X5710039Y-18360984D02*
X5729086Y-18360984D01*
X5729086Y-18360984D02*
X5748134Y-18370508D01*
X5748134Y-18370508D02*
X5757658Y-18380031D01*
X5757658Y-18380031D02*
X5767182Y-18399079D01*
X5767182Y-18399079D02*
X5776705Y-18437174D01*
X5776705Y-18437174D02*
X5776705Y-18484793D01*
X5776705Y-18484793D02*
X5767182Y-18522889D01*
X5767182Y-18522889D02*
X5757658Y-18541936D01*
X5757658Y-18541936D02*
X5748134Y-18551460D01*
X5748134Y-18551460D02*
X5729086Y-18560984D01*
X5729086Y-18560984D02*
X5710039Y-18560984D01*
X5710039Y-18560984D02*
X5690991Y-18551460D01*
X5690991Y-18551460D02*
X5681467Y-18541936D01*
X5681467Y-18541936D02*
X5671943Y-18522889D01*
X5671943Y-18522889D02*
X5662420Y-18484793D01*
X5662420Y-18484793D02*
X5662420Y-18437174D01*
X5662420Y-18437174D02*
X5671943Y-18399079D01*
X5671943Y-18399079D02*
X5681467Y-18380031D01*
X5681467Y-18380031D02*
X5690991Y-18370508D01*
X5690991Y-18370508D02*
X5710039Y-18360984D01*
X5862420Y-18560984D02*
X5862420Y-18427650D01*
X5862420Y-18446698D02*
X5871943Y-18437174D01*
X5871943Y-18437174D02*
X5890991Y-18427650D01*
X5890991Y-18427650D02*
X5919563Y-18427650D01*
X5919563Y-18427650D02*
X5938610Y-18437174D01*
X5938610Y-18437174D02*
X5948134Y-18456222D01*
X5948134Y-18456222D02*
X5948134Y-18560984D01*
X5948134Y-18456222D02*
X5957658Y-18437174D01*
X5957658Y-18437174D02*
X5976705Y-18427650D01*
X5976705Y-18427650D02*
X6005277Y-18427650D01*
X6005277Y-18427650D02*
X6024324Y-18437174D01*
X6024324Y-18437174D02*
X6033848Y-18456222D01*
X6033848Y-18456222D02*
X6033848Y-18560984D01*
X6129086Y-18560984D02*
X6129086Y-18427650D01*
X6129086Y-18446698D02*
X6138610Y-18437174D01*
X6138610Y-18437174D02*
X6157658Y-18427650D01*
X6157658Y-18427650D02*
X6186229Y-18427650D01*
X6186229Y-18427650D02*
X6205277Y-18437174D01*
X6205277Y-18437174D02*
X6214801Y-18456222D01*
X6214801Y-18456222D02*
X6214801Y-18560984D01*
X6214801Y-18456222D02*
X6224324Y-18437174D01*
X6224324Y-18437174D02*
X6243372Y-18427650D01*
X6243372Y-18427650D02*
X6271943Y-18427650D01*
X6271943Y-18427650D02*
X6290991Y-18437174D01*
X6290991Y-18437174D02*
X6300515Y-18456222D01*
X6300515Y-18456222D02*
X6300515Y-18560984D01*
X6690991Y-18351460D02*
X6519563Y-18608603D01*
X6948134Y-18360984D02*
X6967182Y-18360984D01*
X6967182Y-18360984D02*
X6986229Y-18370508D01*
X6986229Y-18370508D02*
X6995753Y-18380031D01*
X6995753Y-18380031D02*
X7005277Y-18399079D01*
X7005277Y-18399079D02*
X7014801Y-18437174D01*
X7014801Y-18437174D02*
X7014801Y-18484793D01*
X7014801Y-18484793D02*
X7005277Y-18522889D01*
X7005277Y-18522889D02*
X6995753Y-18541936D01*
X6995753Y-18541936D02*
X6986229Y-18551460D01*
X6986229Y-18551460D02*
X6967182Y-18560984D01*
X6967182Y-18560984D02*
X6948134Y-18560984D01*
X6948134Y-18560984D02*
X6929086Y-18551460D01*
X6929086Y-18551460D02*
X6919563Y-18541936D01*
X6919563Y-18541936D02*
X6910039Y-18522889D01*
X6910039Y-18522889D02*
X6900515Y-18484793D01*
X6900515Y-18484793D02*
X6900515Y-18437174D01*
X6900515Y-18437174D02*
X6910039Y-18399079D01*
X6910039Y-18399079D02*
X6919563Y-18380031D01*
X6919563Y-18380031D02*
X6929086Y-18370508D01*
X6929086Y-18370508D02*
X6948134Y-18360984D01*
X7100515Y-18541936D02*
X7110039Y-18551460D01*
X7110039Y-18551460D02*
X7100515Y-18560984D01*
X7100515Y-18560984D02*
X7090991Y-18551460D01*
X7090991Y-18551460D02*
X7100515Y-18541936D01*
X7100515Y-18541936D02*
X7100515Y-18560984D01*
X7300515Y-18560984D02*
X7186229Y-18560984D01*
X7243372Y-18560984D02*
X7243372Y-18360984D01*
X7243372Y-18360984D02*
X7224325Y-18389555D01*
X7224325Y-18389555D02*
X7205277Y-18408603D01*
X7205277Y-18408603D02*
X7186229Y-18418127D01*
X7376706Y-18380031D02*
X7386229Y-18370508D01*
X7386229Y-18370508D02*
X7405277Y-18360984D01*
X7405277Y-18360984D02*
X7452896Y-18360984D01*
X7452896Y-18360984D02*
X7471944Y-18370508D01*
X7471944Y-18370508D02*
X7481467Y-18380031D01*
X7481467Y-18380031D02*
X7490991Y-18399079D01*
X7490991Y-18399079D02*
X7490991Y-18418127D01*
X7490991Y-18418127D02*
X7481467Y-18446698D01*
X7481467Y-18446698D02*
X7367182Y-18560984D01*
X7367182Y-18560984D02*
X7490991Y-18560984D01*
X7662420Y-18360984D02*
X7624325Y-18360984D01*
X7624325Y-18360984D02*
X7605277Y-18370508D01*
X7605277Y-18370508D02*
X7595753Y-18380031D01*
X7595753Y-18380031D02*
X7576706Y-18408603D01*
X7576706Y-18408603D02*
X7567182Y-18446698D01*
X7567182Y-18446698D02*
X7567182Y-18522889D01*
X7567182Y-18522889D02*
X7576706Y-18541936D01*
X7576706Y-18541936D02*
X7586229Y-18551460D01*
X7586229Y-18551460D02*
X7605277Y-18560984D01*
X7605277Y-18560984D02*
X7643372Y-18560984D01*
X7643372Y-18560984D02*
X7662420Y-18551460D01*
X7662420Y-18551460D02*
X7671944Y-18541936D01*
X7671944Y-18541936D02*
X7681467Y-18522889D01*
X7681467Y-18522889D02*
X7681467Y-18475270D01*
X7681467Y-18475270D02*
X7671944Y-18456222D01*
X7671944Y-18456222D02*
X7662420Y-18446698D01*
X7662420Y-18446698D02*
X7643372Y-18437174D01*
X7643372Y-18437174D02*
X7605277Y-18437174D01*
X7605277Y-18437174D02*
X7586229Y-18446698D01*
X7586229Y-18446698D02*
X7576706Y-18456222D01*
X7576706Y-18456222D02*
X7567182Y-18475270D01*
X7805277Y-18360984D02*
X7824325Y-18360984D01*
X7824325Y-18360984D02*
X7843372Y-18370508D01*
X7843372Y-18370508D02*
X7852896Y-18380031D01*
X7852896Y-18380031D02*
X7862420Y-18399079D01*
X7862420Y-18399079D02*
X7871944Y-18437174D01*
X7871944Y-18437174D02*
X7871944Y-18484793D01*
X7871944Y-18484793D02*
X7862420Y-18522889D01*
X7862420Y-18522889D02*
X7852896Y-18541936D01*
X7852896Y-18541936D02*
X7843372Y-18551460D01*
X7843372Y-18551460D02*
X7824325Y-18560984D01*
X7824325Y-18560984D02*
X7805277Y-18560984D01*
X7805277Y-18560984D02*
X7786229Y-18551460D01*
X7786229Y-18551460D02*
X7776706Y-18541936D01*
X7776706Y-18541936D02*
X7767182Y-18522889D01*
X7767182Y-18522889D02*
X7757658Y-18484793D01*
X7757658Y-18484793D02*
X7757658Y-18437174D01*
X7757658Y-18437174D02*
X7767182Y-18399079D01*
X7767182Y-18399079D02*
X7776706Y-18380031D01*
X7776706Y-18380031D02*
X7786229Y-18370508D01*
X7786229Y-18370508D02*
X7805277Y-18360984D01*
X7948134Y-18360984D02*
X7948134Y-18399079D01*
X8024325Y-18360984D02*
X8024325Y-18399079D01*
X8319563Y-18637174D02*
X8310039Y-18627650D01*
X8310039Y-18627650D02*
X8290991Y-18599079D01*
X8290991Y-18599079D02*
X8281468Y-18580031D01*
X8281468Y-18580031D02*
X8271944Y-18551460D01*
X8271944Y-18551460D02*
X8262420Y-18503841D01*
X8262420Y-18503841D02*
X8262420Y-18465746D01*
X8262420Y-18465746D02*
X8271944Y-18418127D01*
X8271944Y-18418127D02*
X8281468Y-18389555D01*
X8281468Y-18389555D02*
X8290991Y-18370508D01*
X8290991Y-18370508D02*
X8310039Y-18341936D01*
X8310039Y-18341936D02*
X8319563Y-18332412D01*
X8386229Y-18380031D02*
X8395753Y-18370508D01*
X8395753Y-18370508D02*
X8414801Y-18360984D01*
X8414801Y-18360984D02*
X8462420Y-18360984D01*
X8462420Y-18360984D02*
X8481468Y-18370508D01*
X8481468Y-18370508D02*
X8490991Y-18380031D01*
X8490991Y-18380031D02*
X8500515Y-18399079D01*
X8500515Y-18399079D02*
X8500515Y-18418127D01*
X8500515Y-18418127D02*
X8490991Y-18446698D01*
X8490991Y-18446698D02*
X8376706Y-18560984D01*
X8376706Y-18560984D02*
X8500515Y-18560984D01*
X8738611Y-18560984D02*
X8738611Y-18360984D01*
X8824325Y-18560984D02*
X8824325Y-18456222D01*
X8824325Y-18456222D02*
X8814801Y-18437174D01*
X8814801Y-18437174D02*
X8795753Y-18427650D01*
X8795753Y-18427650D02*
X8767182Y-18427650D01*
X8767182Y-18427650D02*
X8748134Y-18437174D01*
X8748134Y-18437174D02*
X8738611Y-18446698D01*
X8948134Y-18560984D02*
X8929087Y-18551460D01*
X8929087Y-18551460D02*
X8919563Y-18541936D01*
X8919563Y-18541936D02*
X8910039Y-18522889D01*
X8910039Y-18522889D02*
X8910039Y-18465746D01*
X8910039Y-18465746D02*
X8919563Y-18446698D01*
X8919563Y-18446698D02*
X8929087Y-18437174D01*
X8929087Y-18437174D02*
X8948134Y-18427650D01*
X8948134Y-18427650D02*
X8976706Y-18427650D01*
X8976706Y-18427650D02*
X8995753Y-18437174D01*
X8995753Y-18437174D02*
X9005277Y-18446698D01*
X9005277Y-18446698D02*
X9014801Y-18465746D01*
X9014801Y-18465746D02*
X9014801Y-18522889D01*
X9014801Y-18522889D02*
X9005277Y-18541936D01*
X9005277Y-18541936D02*
X8995753Y-18551460D01*
X8995753Y-18551460D02*
X8976706Y-18560984D01*
X8976706Y-18560984D02*
X8948134Y-18560984D01*
X9129087Y-18560984D02*
X9110039Y-18551460D01*
X9110039Y-18551460D02*
X9100515Y-18532412D01*
X9100515Y-18532412D02*
X9100515Y-18360984D01*
X9281468Y-18551460D02*
X9262420Y-18560984D01*
X9262420Y-18560984D02*
X9224325Y-18560984D01*
X9224325Y-18560984D02*
X9205277Y-18551460D01*
X9205277Y-18551460D02*
X9195753Y-18532412D01*
X9195753Y-18532412D02*
X9195753Y-18456222D01*
X9195753Y-18456222D02*
X9205277Y-18437174D01*
X9205277Y-18437174D02*
X9224325Y-18427650D01*
X9224325Y-18427650D02*
X9262420Y-18427650D01*
X9262420Y-18427650D02*
X9281468Y-18437174D01*
X9281468Y-18437174D02*
X9290992Y-18456222D01*
X9290992Y-18456222D02*
X9290992Y-18475270D01*
X9290992Y-18475270D02*
X9195753Y-18494317D01*
X9367182Y-18551460D02*
X9386230Y-18560984D01*
X9386230Y-18560984D02*
X9424325Y-18560984D01*
X9424325Y-18560984D02*
X9443373Y-18551460D01*
X9443373Y-18551460D02*
X9452896Y-18532412D01*
X9452896Y-18532412D02*
X9452896Y-18522889D01*
X9452896Y-18522889D02*
X9443373Y-18503841D01*
X9443373Y-18503841D02*
X9424325Y-18494317D01*
X9424325Y-18494317D02*
X9395753Y-18494317D01*
X9395753Y-18494317D02*
X9376706Y-18484793D01*
X9376706Y-18484793D02*
X9367182Y-18465746D01*
X9367182Y-18465746D02*
X9367182Y-18456222D01*
X9367182Y-18456222D02*
X9376706Y-18437174D01*
X9376706Y-18437174D02*
X9395753Y-18427650D01*
X9395753Y-18427650D02*
X9424325Y-18427650D01*
X9424325Y-18427650D02*
X9443373Y-18437174D01*
X9519563Y-18637174D02*
X9529087Y-18627650D01*
X9529087Y-18627650D02*
X9548134Y-18599079D01*
X9548134Y-18599079D02*
X9557658Y-18580031D01*
X9557658Y-18580031D02*
X9567182Y-18551460D01*
X9567182Y-18551460D02*
X9576706Y-18503841D01*
X9576706Y-18503841D02*
X9576706Y-18465746D01*
X9576706Y-18465746D02*
X9567182Y-18418127D01*
X9567182Y-18418127D02*
X9557658Y-18389555D01*
X9557658Y-18389555D02*
X9548134Y-18370508D01*
X9548134Y-18370508D02*
X9529087Y-18341936D01*
X9529087Y-18341936D02*
X9519563Y-18332412D01*
X9881468Y-18637174D02*
X9871944Y-18627650D01*
X9871944Y-18627650D02*
X9852896Y-18599079D01*
X9852896Y-18599079D02*
X9843373Y-18580031D01*
X9843373Y-18580031D02*
X9833849Y-18551460D01*
X9833849Y-18551460D02*
X9824325Y-18503841D01*
X9824325Y-18503841D02*
X9824325Y-18465746D01*
X9824325Y-18465746D02*
X9833849Y-18418127D01*
X9833849Y-18418127D02*
X9843373Y-18389555D01*
X9843373Y-18389555D02*
X9852896Y-18370508D01*
X9852896Y-18370508D02*
X9871944Y-18341936D01*
X9871944Y-18341936D02*
X9881468Y-18332412D01*
X9957658Y-18427650D02*
X9957658Y-18560984D01*
X9957658Y-18446698D02*
X9967182Y-18437174D01*
X9967182Y-18437174D02*
X9986230Y-18427650D01*
X9986230Y-18427650D02*
X10014801Y-18427650D01*
X10014801Y-18427650D02*
X10033849Y-18437174D01*
X10033849Y-18437174D02*
X10043373Y-18456222D01*
X10043373Y-18456222D02*
X10043373Y-18560984D01*
X10167182Y-18560984D02*
X10148134Y-18551460D01*
X10148134Y-18551460D02*
X10138611Y-18541936D01*
X10138611Y-18541936D02*
X10129087Y-18522889D01*
X10129087Y-18522889D02*
X10129087Y-18465746D01*
X10129087Y-18465746D02*
X10138611Y-18446698D01*
X10138611Y-18446698D02*
X10148134Y-18437174D01*
X10148134Y-18437174D02*
X10167182Y-18427650D01*
X10167182Y-18427650D02*
X10195754Y-18427650D01*
X10195754Y-18427650D02*
X10214801Y-18437174D01*
X10214801Y-18437174D02*
X10224325Y-18446698D01*
X10224325Y-18446698D02*
X10233849Y-18465746D01*
X10233849Y-18465746D02*
X10233849Y-18522889D01*
X10233849Y-18522889D02*
X10224325Y-18541936D01*
X10224325Y-18541936D02*
X10214801Y-18551460D01*
X10214801Y-18551460D02*
X10195754Y-18560984D01*
X10195754Y-18560984D02*
X10167182Y-18560984D01*
X10290992Y-18427650D02*
X10367182Y-18427650D01*
X10319563Y-18360984D02*
X10319563Y-18532412D01*
X10319563Y-18532412D02*
X10329087Y-18551460D01*
X10329087Y-18551460D02*
X10348134Y-18560984D01*
X10348134Y-18560984D02*
X10367182Y-18560984D01*
X10586230Y-18427650D02*
X10586230Y-18627650D01*
X10586230Y-18437174D02*
X10605277Y-18427650D01*
X10605277Y-18427650D02*
X10643373Y-18427650D01*
X10643373Y-18427650D02*
X10662420Y-18437174D01*
X10662420Y-18437174D02*
X10671944Y-18446698D01*
X10671944Y-18446698D02*
X10681468Y-18465746D01*
X10681468Y-18465746D02*
X10681468Y-18522889D01*
X10681468Y-18522889D02*
X10671944Y-18541936D01*
X10671944Y-18541936D02*
X10662420Y-18551460D01*
X10662420Y-18551460D02*
X10643373Y-18560984D01*
X10643373Y-18560984D02*
X10605277Y-18560984D01*
X10605277Y-18560984D02*
X10586230Y-18551460D01*
X10795754Y-18560984D02*
X10776706Y-18551460D01*
X10776706Y-18551460D02*
X10767182Y-18532412D01*
X10767182Y-18532412D02*
X10767182Y-18360984D01*
X10957658Y-18560984D02*
X10957658Y-18456222D01*
X10957658Y-18456222D02*
X10948135Y-18437174D01*
X10948135Y-18437174D02*
X10929087Y-18427650D01*
X10929087Y-18427650D02*
X10890992Y-18427650D01*
X10890992Y-18427650D02*
X10871944Y-18437174D01*
X10957658Y-18551460D02*
X10938611Y-18560984D01*
X10938611Y-18560984D02*
X10890992Y-18560984D01*
X10890992Y-18560984D02*
X10871944Y-18551460D01*
X10871944Y-18551460D02*
X10862420Y-18532412D01*
X10862420Y-18532412D02*
X10862420Y-18513365D01*
X10862420Y-18513365D02*
X10871944Y-18494317D01*
X10871944Y-18494317D02*
X10890992Y-18484793D01*
X10890992Y-18484793D02*
X10938611Y-18484793D01*
X10938611Y-18484793D02*
X10957658Y-18475270D01*
X11024325Y-18427650D02*
X11100515Y-18427650D01*
X11052896Y-18360984D02*
X11052896Y-18532412D01*
X11052896Y-18532412D02*
X11062420Y-18551460D01*
X11062420Y-18551460D02*
X11081468Y-18560984D01*
X11081468Y-18560984D02*
X11100515Y-18560984D01*
X11243373Y-18551460D02*
X11224325Y-18560984D01*
X11224325Y-18560984D02*
X11186230Y-18560984D01*
X11186230Y-18560984D02*
X11167182Y-18551460D01*
X11167182Y-18551460D02*
X11157658Y-18532412D01*
X11157658Y-18532412D02*
X11157658Y-18456222D01*
X11157658Y-18456222D02*
X11167182Y-18437174D01*
X11167182Y-18437174D02*
X11186230Y-18427650D01*
X11186230Y-18427650D02*
X11224325Y-18427650D01*
X11224325Y-18427650D02*
X11243373Y-18437174D01*
X11243373Y-18437174D02*
X11252896Y-18456222D01*
X11252896Y-18456222D02*
X11252896Y-18475270D01*
X11252896Y-18475270D02*
X11157658Y-18494317D01*
X11424325Y-18560984D02*
X11424325Y-18360984D01*
X11424325Y-18551460D02*
X11405277Y-18560984D01*
X11405277Y-18560984D02*
X11367182Y-18560984D01*
X11367182Y-18560984D02*
X11348134Y-18551460D01*
X11348134Y-18551460D02*
X11338611Y-18541936D01*
X11338611Y-18541936D02*
X11329087Y-18522889D01*
X11329087Y-18522889D02*
X11329087Y-18465746D01*
X11329087Y-18465746D02*
X11338611Y-18446698D01*
X11338611Y-18446698D02*
X11348134Y-18437174D01*
X11348134Y-18437174D02*
X11367182Y-18427650D01*
X11367182Y-18427650D02*
X11405277Y-18427650D01*
X11405277Y-18427650D02*
X11424325Y-18437174D01*
X11500515Y-18637174D02*
X11510039Y-18627650D01*
X11510039Y-18627650D02*
X11529087Y-18599079D01*
X11529087Y-18599079D02*
X11538611Y-18580031D01*
X11538611Y-18580031D02*
X11548134Y-18551460D01*
X11548134Y-18551460D02*
X11557658Y-18503841D01*
X11557658Y-18503841D02*
X11557658Y-18465746D01*
X11557658Y-18465746D02*
X11548134Y-18418127D01*
X11548134Y-18418127D02*
X11538611Y-18389555D01*
X11538611Y-18389555D02*
X11529087Y-18370508D01*
X11529087Y-18370508D02*
X11510039Y-18341936D01*
X11510039Y-18341936D02*
X11500515Y-18332412D01*
X4544500Y-18689500D02*
X4744500Y-18889500D01*
X4744500Y-18689500D02*
X4544500Y-18889500D01*
X4744500Y-18789500D02*
G75*
G02*
X4544500Y-18789500I-100000J0D01*
G01*
X4544500Y-18789500D02*
G75*
G02*
X4744500Y-18789500I100000J0D01*
G01*
X4986229Y-18680984D02*
X5110039Y-18680984D01*
X5110039Y-18680984D02*
X5043372Y-18757174D01*
X5043372Y-18757174D02*
X5071944Y-18757174D01*
X5071944Y-18757174D02*
X5090991Y-18766698D01*
X5090991Y-18766698D02*
X5100515Y-18776222D01*
X5100515Y-18776222D02*
X5110039Y-18795270D01*
X5110039Y-18795270D02*
X5110039Y-18842889D01*
X5110039Y-18842889D02*
X5100515Y-18861936D01*
X5100515Y-18861936D02*
X5090991Y-18871460D01*
X5090991Y-18871460D02*
X5071944Y-18880984D01*
X5071944Y-18880984D02*
X5014801Y-18880984D01*
X5014801Y-18880984D02*
X4995753Y-18871460D01*
X4995753Y-18871460D02*
X4986229Y-18861936D01*
X5195753Y-18861936D02*
X5205277Y-18871460D01*
X5205277Y-18871460D02*
X5195753Y-18880984D01*
X5195753Y-18880984D02*
X5186229Y-18871460D01*
X5186229Y-18871460D02*
X5195753Y-18861936D01*
X5195753Y-18861936D02*
X5195753Y-18880984D01*
X5281467Y-18700031D02*
X5290991Y-18690508D01*
X5290991Y-18690508D02*
X5310039Y-18680984D01*
X5310039Y-18680984D02*
X5357658Y-18680984D01*
X5357658Y-18680984D02*
X5376705Y-18690508D01*
X5376705Y-18690508D02*
X5386229Y-18700031D01*
X5386229Y-18700031D02*
X5395753Y-18719079D01*
X5395753Y-18719079D02*
X5395753Y-18738127D01*
X5395753Y-18738127D02*
X5386229Y-18766698D01*
X5386229Y-18766698D02*
X5271944Y-18880984D01*
X5271944Y-18880984D02*
X5395753Y-18880984D01*
X5576705Y-18680984D02*
X5481467Y-18680984D01*
X5481467Y-18680984D02*
X5471944Y-18776222D01*
X5471944Y-18776222D02*
X5481467Y-18766698D01*
X5481467Y-18766698D02*
X5500515Y-18757174D01*
X5500515Y-18757174D02*
X5548134Y-18757174D01*
X5548134Y-18757174D02*
X5567182Y-18766698D01*
X5567182Y-18766698D02*
X5576705Y-18776222D01*
X5576705Y-18776222D02*
X5586229Y-18795270D01*
X5586229Y-18795270D02*
X5586229Y-18842889D01*
X5586229Y-18842889D02*
X5576705Y-18861936D01*
X5576705Y-18861936D02*
X5567182Y-18871460D01*
X5567182Y-18871460D02*
X5548134Y-18880984D01*
X5548134Y-18880984D02*
X5500515Y-18880984D01*
X5500515Y-18880984D02*
X5481467Y-18871460D01*
X5481467Y-18871460D02*
X5471944Y-18861936D01*
X5710039Y-18680984D02*
X5729086Y-18680984D01*
X5729086Y-18680984D02*
X5748134Y-18690508D01*
X5748134Y-18690508D02*
X5757658Y-18700031D01*
X5757658Y-18700031D02*
X5767182Y-18719079D01*
X5767182Y-18719079D02*
X5776705Y-18757174D01*
X5776705Y-18757174D02*
X5776705Y-18804793D01*
X5776705Y-18804793D02*
X5767182Y-18842889D01*
X5767182Y-18842889D02*
X5757658Y-18861936D01*
X5757658Y-18861936D02*
X5748134Y-18871460D01*
X5748134Y-18871460D02*
X5729086Y-18880984D01*
X5729086Y-18880984D02*
X5710039Y-18880984D01*
X5710039Y-18880984D02*
X5690991Y-18871460D01*
X5690991Y-18871460D02*
X5681467Y-18861936D01*
X5681467Y-18861936D02*
X5671943Y-18842889D01*
X5671943Y-18842889D02*
X5662420Y-18804793D01*
X5662420Y-18804793D02*
X5662420Y-18757174D01*
X5662420Y-18757174D02*
X5671943Y-18719079D01*
X5671943Y-18719079D02*
X5681467Y-18700031D01*
X5681467Y-18700031D02*
X5690991Y-18690508D01*
X5690991Y-18690508D02*
X5710039Y-18680984D01*
X5862420Y-18880984D02*
X5862420Y-18747650D01*
X5862420Y-18766698D02*
X5871943Y-18757174D01*
X5871943Y-18757174D02*
X5890991Y-18747650D01*
X5890991Y-18747650D02*
X5919563Y-18747650D01*
X5919563Y-18747650D02*
X5938610Y-18757174D01*
X5938610Y-18757174D02*
X5948134Y-18776222D01*
X5948134Y-18776222D02*
X5948134Y-18880984D01*
X5948134Y-18776222D02*
X5957658Y-18757174D01*
X5957658Y-18757174D02*
X5976705Y-18747650D01*
X5976705Y-18747650D02*
X6005277Y-18747650D01*
X6005277Y-18747650D02*
X6024324Y-18757174D01*
X6024324Y-18757174D02*
X6033848Y-18776222D01*
X6033848Y-18776222D02*
X6033848Y-18880984D01*
X6129086Y-18880984D02*
X6129086Y-18747650D01*
X6129086Y-18766698D02*
X6138610Y-18757174D01*
X6138610Y-18757174D02*
X6157658Y-18747650D01*
X6157658Y-18747650D02*
X6186229Y-18747650D01*
X6186229Y-18747650D02*
X6205277Y-18757174D01*
X6205277Y-18757174D02*
X6214801Y-18776222D01*
X6214801Y-18776222D02*
X6214801Y-18880984D01*
X6214801Y-18776222D02*
X6224324Y-18757174D01*
X6224324Y-18757174D02*
X6243372Y-18747650D01*
X6243372Y-18747650D02*
X6271943Y-18747650D01*
X6271943Y-18747650D02*
X6290991Y-18757174D01*
X6290991Y-18757174D02*
X6300515Y-18776222D01*
X6300515Y-18776222D02*
X6300515Y-18880984D01*
X6690991Y-18671460D02*
X6519563Y-18928603D01*
X6948134Y-18680984D02*
X6967182Y-18680984D01*
X6967182Y-18680984D02*
X6986229Y-18690508D01*
X6986229Y-18690508D02*
X6995753Y-18700031D01*
X6995753Y-18700031D02*
X7005277Y-18719079D01*
X7005277Y-18719079D02*
X7014801Y-18757174D01*
X7014801Y-18757174D02*
X7014801Y-18804793D01*
X7014801Y-18804793D02*
X7005277Y-18842889D01*
X7005277Y-18842889D02*
X6995753Y-18861936D01*
X6995753Y-18861936D02*
X6986229Y-18871460D01*
X6986229Y-18871460D02*
X6967182Y-18880984D01*
X6967182Y-18880984D02*
X6948134Y-18880984D01*
X6948134Y-18880984D02*
X6929086Y-18871460D01*
X6929086Y-18871460D02*
X6919563Y-18861936D01*
X6919563Y-18861936D02*
X6910039Y-18842889D01*
X6910039Y-18842889D02*
X6900515Y-18804793D01*
X6900515Y-18804793D02*
X6900515Y-18757174D01*
X6900515Y-18757174D02*
X6910039Y-18719079D01*
X6910039Y-18719079D02*
X6919563Y-18700031D01*
X6919563Y-18700031D02*
X6929086Y-18690508D01*
X6929086Y-18690508D02*
X6948134Y-18680984D01*
X7100515Y-18861936D02*
X7110039Y-18871460D01*
X7110039Y-18871460D02*
X7100515Y-18880984D01*
X7100515Y-18880984D02*
X7090991Y-18871460D01*
X7090991Y-18871460D02*
X7100515Y-18861936D01*
X7100515Y-18861936D02*
X7100515Y-18880984D01*
X7300515Y-18880984D02*
X7186229Y-18880984D01*
X7243372Y-18880984D02*
X7243372Y-18680984D01*
X7243372Y-18680984D02*
X7224325Y-18709555D01*
X7224325Y-18709555D02*
X7205277Y-18728603D01*
X7205277Y-18728603D02*
X7186229Y-18738127D01*
X7376706Y-18700031D02*
X7386229Y-18690508D01*
X7386229Y-18690508D02*
X7405277Y-18680984D01*
X7405277Y-18680984D02*
X7452896Y-18680984D01*
X7452896Y-18680984D02*
X7471944Y-18690508D01*
X7471944Y-18690508D02*
X7481467Y-18700031D01*
X7481467Y-18700031D02*
X7490991Y-18719079D01*
X7490991Y-18719079D02*
X7490991Y-18738127D01*
X7490991Y-18738127D02*
X7481467Y-18766698D01*
X7481467Y-18766698D02*
X7367182Y-18880984D01*
X7367182Y-18880984D02*
X7490991Y-18880984D01*
X7605277Y-18766698D02*
X7586229Y-18757174D01*
X7586229Y-18757174D02*
X7576706Y-18747650D01*
X7576706Y-18747650D02*
X7567182Y-18728603D01*
X7567182Y-18728603D02*
X7567182Y-18719079D01*
X7567182Y-18719079D02*
X7576706Y-18700031D01*
X7576706Y-18700031D02*
X7586229Y-18690508D01*
X7586229Y-18690508D02*
X7605277Y-18680984D01*
X7605277Y-18680984D02*
X7643372Y-18680984D01*
X7643372Y-18680984D02*
X7662420Y-18690508D01*
X7662420Y-18690508D02*
X7671944Y-18700031D01*
X7671944Y-18700031D02*
X7681467Y-18719079D01*
X7681467Y-18719079D02*
X7681467Y-18728603D01*
X7681467Y-18728603D02*
X7671944Y-18747650D01*
X7671944Y-18747650D02*
X7662420Y-18757174D01*
X7662420Y-18757174D02*
X7643372Y-18766698D01*
X7643372Y-18766698D02*
X7605277Y-18766698D01*
X7605277Y-18766698D02*
X7586229Y-18776222D01*
X7586229Y-18776222D02*
X7576706Y-18785746D01*
X7576706Y-18785746D02*
X7567182Y-18804793D01*
X7567182Y-18804793D02*
X7567182Y-18842889D01*
X7567182Y-18842889D02*
X7576706Y-18861936D01*
X7576706Y-18861936D02*
X7586229Y-18871460D01*
X7586229Y-18871460D02*
X7605277Y-18880984D01*
X7605277Y-18880984D02*
X7643372Y-18880984D01*
X7643372Y-18880984D02*
X7662420Y-18871460D01*
X7662420Y-18871460D02*
X7671944Y-18861936D01*
X7671944Y-18861936D02*
X7681467Y-18842889D01*
X7681467Y-18842889D02*
X7681467Y-18804793D01*
X7681467Y-18804793D02*
X7671944Y-18785746D01*
X7671944Y-18785746D02*
X7662420Y-18776222D01*
X7662420Y-18776222D02*
X7643372Y-18766698D01*
X7805277Y-18680984D02*
X7824325Y-18680984D01*
X7824325Y-18680984D02*
X7843372Y-18690508D01*
X7843372Y-18690508D02*
X7852896Y-18700031D01*
X7852896Y-18700031D02*
X7862420Y-18719079D01*
X7862420Y-18719079D02*
X7871944Y-18757174D01*
X7871944Y-18757174D02*
X7871944Y-18804793D01*
X7871944Y-18804793D02*
X7862420Y-18842889D01*
X7862420Y-18842889D02*
X7852896Y-18861936D01*
X7852896Y-18861936D02*
X7843372Y-18871460D01*
X7843372Y-18871460D02*
X7824325Y-18880984D01*
X7824325Y-18880984D02*
X7805277Y-18880984D01*
X7805277Y-18880984D02*
X7786229Y-18871460D01*
X7786229Y-18871460D02*
X7776706Y-18861936D01*
X7776706Y-18861936D02*
X7767182Y-18842889D01*
X7767182Y-18842889D02*
X7757658Y-18804793D01*
X7757658Y-18804793D02*
X7757658Y-18757174D01*
X7757658Y-18757174D02*
X7767182Y-18719079D01*
X7767182Y-18719079D02*
X7776706Y-18700031D01*
X7776706Y-18700031D02*
X7786229Y-18690508D01*
X7786229Y-18690508D02*
X7805277Y-18680984D01*
X7948134Y-18680984D02*
X7948134Y-18719079D01*
X8024325Y-18680984D02*
X8024325Y-18719079D01*
X8319563Y-18957174D02*
X8310039Y-18947650D01*
X8310039Y-18947650D02*
X8290991Y-18919079D01*
X8290991Y-18919079D02*
X8281468Y-18900031D01*
X8281468Y-18900031D02*
X8271944Y-18871460D01*
X8271944Y-18871460D02*
X8262420Y-18823841D01*
X8262420Y-18823841D02*
X8262420Y-18785746D01*
X8262420Y-18785746D02*
X8271944Y-18738127D01*
X8271944Y-18738127D02*
X8281468Y-18709555D01*
X8281468Y-18709555D02*
X8290991Y-18690508D01*
X8290991Y-18690508D02*
X8310039Y-18661936D01*
X8310039Y-18661936D02*
X8319563Y-18652412D01*
X8481468Y-18747650D02*
X8481468Y-18880984D01*
X8433849Y-18671460D02*
X8386229Y-18814317D01*
X8386229Y-18814317D02*
X8510039Y-18814317D01*
X8738611Y-18880984D02*
X8738611Y-18680984D01*
X8824325Y-18880984D02*
X8824325Y-18776222D01*
X8824325Y-18776222D02*
X8814801Y-18757174D01*
X8814801Y-18757174D02*
X8795753Y-18747650D01*
X8795753Y-18747650D02*
X8767182Y-18747650D01*
X8767182Y-18747650D02*
X8748134Y-18757174D01*
X8748134Y-18757174D02*
X8738611Y-18766698D01*
X8948134Y-18880984D02*
X8929087Y-18871460D01*
X8929087Y-18871460D02*
X8919563Y-18861936D01*
X8919563Y-18861936D02*
X8910039Y-18842889D01*
X8910039Y-18842889D02*
X8910039Y-18785746D01*
X8910039Y-18785746D02*
X8919563Y-18766698D01*
X8919563Y-18766698D02*
X8929087Y-18757174D01*
X8929087Y-18757174D02*
X8948134Y-18747650D01*
X8948134Y-18747650D02*
X8976706Y-18747650D01*
X8976706Y-18747650D02*
X8995753Y-18757174D01*
X8995753Y-18757174D02*
X9005277Y-18766698D01*
X9005277Y-18766698D02*
X9014801Y-18785746D01*
X9014801Y-18785746D02*
X9014801Y-18842889D01*
X9014801Y-18842889D02*
X9005277Y-18861936D01*
X9005277Y-18861936D02*
X8995753Y-18871460D01*
X8995753Y-18871460D02*
X8976706Y-18880984D01*
X8976706Y-18880984D02*
X8948134Y-18880984D01*
X9129087Y-18880984D02*
X9110039Y-18871460D01*
X9110039Y-18871460D02*
X9100515Y-18852412D01*
X9100515Y-18852412D02*
X9100515Y-18680984D01*
X9281468Y-18871460D02*
X9262420Y-18880984D01*
X9262420Y-18880984D02*
X9224325Y-18880984D01*
X9224325Y-18880984D02*
X9205277Y-18871460D01*
X9205277Y-18871460D02*
X9195753Y-18852412D01*
X9195753Y-18852412D02*
X9195753Y-18776222D01*
X9195753Y-18776222D02*
X9205277Y-18757174D01*
X9205277Y-18757174D02*
X9224325Y-18747650D01*
X9224325Y-18747650D02*
X9262420Y-18747650D01*
X9262420Y-18747650D02*
X9281468Y-18757174D01*
X9281468Y-18757174D02*
X9290992Y-18776222D01*
X9290992Y-18776222D02*
X9290992Y-18795270D01*
X9290992Y-18795270D02*
X9195753Y-18814317D01*
X9367182Y-18871460D02*
X9386230Y-18880984D01*
X9386230Y-18880984D02*
X9424325Y-18880984D01*
X9424325Y-18880984D02*
X9443373Y-18871460D01*
X9443373Y-18871460D02*
X9452896Y-18852412D01*
X9452896Y-18852412D02*
X9452896Y-18842889D01*
X9452896Y-18842889D02*
X9443373Y-18823841D01*
X9443373Y-18823841D02*
X9424325Y-18814317D01*
X9424325Y-18814317D02*
X9395753Y-18814317D01*
X9395753Y-18814317D02*
X9376706Y-18804793D01*
X9376706Y-18804793D02*
X9367182Y-18785746D01*
X9367182Y-18785746D02*
X9367182Y-18776222D01*
X9367182Y-18776222D02*
X9376706Y-18757174D01*
X9376706Y-18757174D02*
X9395753Y-18747650D01*
X9395753Y-18747650D02*
X9424325Y-18747650D01*
X9424325Y-18747650D02*
X9443373Y-18757174D01*
X9519563Y-18957174D02*
X9529087Y-18947650D01*
X9529087Y-18947650D02*
X9548134Y-18919079D01*
X9548134Y-18919079D02*
X9557658Y-18900031D01*
X9557658Y-18900031D02*
X9567182Y-18871460D01*
X9567182Y-18871460D02*
X9576706Y-18823841D01*
X9576706Y-18823841D02*
X9576706Y-18785746D01*
X9576706Y-18785746D02*
X9567182Y-18738127D01*
X9567182Y-18738127D02*
X9557658Y-18709555D01*
X9557658Y-18709555D02*
X9548134Y-18690508D01*
X9548134Y-18690508D02*
X9529087Y-18661936D01*
X9529087Y-18661936D02*
X9519563Y-18652412D01*
X9881468Y-18957174D02*
X9871944Y-18947650D01*
X9871944Y-18947650D02*
X9852896Y-18919079D01*
X9852896Y-18919079D02*
X9843373Y-18900031D01*
X9843373Y-18900031D02*
X9833849Y-18871460D01*
X9833849Y-18871460D02*
X9824325Y-18823841D01*
X9824325Y-18823841D02*
X9824325Y-18785746D01*
X9824325Y-18785746D02*
X9833849Y-18738127D01*
X9833849Y-18738127D02*
X9843373Y-18709555D01*
X9843373Y-18709555D02*
X9852896Y-18690508D01*
X9852896Y-18690508D02*
X9871944Y-18661936D01*
X9871944Y-18661936D02*
X9881468Y-18652412D01*
X9957658Y-18747650D02*
X9957658Y-18880984D01*
X9957658Y-18766698D02*
X9967182Y-18757174D01*
X9967182Y-18757174D02*
X9986230Y-18747650D01*
X9986230Y-18747650D02*
X10014801Y-18747650D01*
X10014801Y-18747650D02*
X10033849Y-18757174D01*
X10033849Y-18757174D02*
X10043373Y-18776222D01*
X10043373Y-18776222D02*
X10043373Y-18880984D01*
X10167182Y-18880984D02*
X10148134Y-18871460D01*
X10148134Y-18871460D02*
X10138611Y-18861936D01*
X10138611Y-18861936D02*
X10129087Y-18842889D01*
X10129087Y-18842889D02*
X10129087Y-18785746D01*
X10129087Y-18785746D02*
X10138611Y-18766698D01*
X10138611Y-18766698D02*
X10148134Y-18757174D01*
X10148134Y-18757174D02*
X10167182Y-18747650D01*
X10167182Y-18747650D02*
X10195754Y-18747650D01*
X10195754Y-18747650D02*
X10214801Y-18757174D01*
X10214801Y-18757174D02*
X10224325Y-18766698D01*
X10224325Y-18766698D02*
X10233849Y-18785746D01*
X10233849Y-18785746D02*
X10233849Y-18842889D01*
X10233849Y-18842889D02*
X10224325Y-18861936D01*
X10224325Y-18861936D02*
X10214801Y-18871460D01*
X10214801Y-18871460D02*
X10195754Y-18880984D01*
X10195754Y-18880984D02*
X10167182Y-18880984D01*
X10290992Y-18747650D02*
X10367182Y-18747650D01*
X10319563Y-18680984D02*
X10319563Y-18852412D01*
X10319563Y-18852412D02*
X10329087Y-18871460D01*
X10329087Y-18871460D02*
X10348134Y-18880984D01*
X10348134Y-18880984D02*
X10367182Y-18880984D01*
X10586230Y-18747650D02*
X10586230Y-18947650D01*
X10586230Y-18757174D02*
X10605277Y-18747650D01*
X10605277Y-18747650D02*
X10643373Y-18747650D01*
X10643373Y-18747650D02*
X10662420Y-18757174D01*
X10662420Y-18757174D02*
X10671944Y-18766698D01*
X10671944Y-18766698D02*
X10681468Y-18785746D01*
X10681468Y-18785746D02*
X10681468Y-18842889D01*
X10681468Y-18842889D02*
X10671944Y-18861936D01*
X10671944Y-18861936D02*
X10662420Y-18871460D01*
X10662420Y-18871460D02*
X10643373Y-18880984D01*
X10643373Y-18880984D02*
X10605277Y-18880984D01*
X10605277Y-18880984D02*
X10586230Y-18871460D01*
X10795754Y-18880984D02*
X10776706Y-18871460D01*
X10776706Y-18871460D02*
X10767182Y-18852412D01*
X10767182Y-18852412D02*
X10767182Y-18680984D01*
X10957658Y-18880984D02*
X10957658Y-18776222D01*
X10957658Y-18776222D02*
X10948135Y-18757174D01*
X10948135Y-18757174D02*
X10929087Y-18747650D01*
X10929087Y-18747650D02*
X10890992Y-18747650D01*
X10890992Y-18747650D02*
X10871944Y-18757174D01*
X10957658Y-18871460D02*
X10938611Y-18880984D01*
X10938611Y-18880984D02*
X10890992Y-18880984D01*
X10890992Y-18880984D02*
X10871944Y-18871460D01*
X10871944Y-18871460D02*
X10862420Y-18852412D01*
X10862420Y-18852412D02*
X10862420Y-18833365D01*
X10862420Y-18833365D02*
X10871944Y-18814317D01*
X10871944Y-18814317D02*
X10890992Y-18804793D01*
X10890992Y-18804793D02*
X10938611Y-18804793D01*
X10938611Y-18804793D02*
X10957658Y-18795270D01*
X11024325Y-18747650D02*
X11100515Y-18747650D01*
X11052896Y-18680984D02*
X11052896Y-18852412D01*
X11052896Y-18852412D02*
X11062420Y-18871460D01*
X11062420Y-18871460D02*
X11081468Y-18880984D01*
X11081468Y-18880984D02*
X11100515Y-18880984D01*
X11243373Y-18871460D02*
X11224325Y-18880984D01*
X11224325Y-18880984D02*
X11186230Y-18880984D01*
X11186230Y-18880984D02*
X11167182Y-18871460D01*
X11167182Y-18871460D02*
X11157658Y-18852412D01*
X11157658Y-18852412D02*
X11157658Y-18776222D01*
X11157658Y-18776222D02*
X11167182Y-18757174D01*
X11167182Y-18757174D02*
X11186230Y-18747650D01*
X11186230Y-18747650D02*
X11224325Y-18747650D01*
X11224325Y-18747650D02*
X11243373Y-18757174D01*
X11243373Y-18757174D02*
X11252896Y-18776222D01*
X11252896Y-18776222D02*
X11252896Y-18795270D01*
X11252896Y-18795270D02*
X11157658Y-18814317D01*
X11424325Y-18880984D02*
X11424325Y-18680984D01*
X11424325Y-18871460D02*
X11405277Y-18880984D01*
X11405277Y-18880984D02*
X11367182Y-18880984D01*
X11367182Y-18880984D02*
X11348134Y-18871460D01*
X11348134Y-18871460D02*
X11338611Y-18861936D01*
X11338611Y-18861936D02*
X11329087Y-18842889D01*
X11329087Y-18842889D02*
X11329087Y-18785746D01*
X11329087Y-18785746D02*
X11338611Y-18766698D01*
X11338611Y-18766698D02*
X11348134Y-18757174D01*
X11348134Y-18757174D02*
X11367182Y-18747650D01*
X11367182Y-18747650D02*
X11405277Y-18747650D01*
X11405277Y-18747650D02*
X11424325Y-18757174D01*
X11500515Y-18957174D02*
X11510039Y-18947650D01*
X11510039Y-18947650D02*
X11529087Y-18919079D01*
X11529087Y-18919079D02*
X11538611Y-18900031D01*
X11538611Y-18900031D02*
X11548134Y-18871460D01*
X11548134Y-18871460D02*
X11557658Y-18823841D01*
X11557658Y-18823841D02*
X11557658Y-18785746D01*
X11557658Y-18785746D02*
X11548134Y-18738127D01*
X11548134Y-18738127D02*
X11538611Y-18709555D01*
X11538611Y-18709555D02*
X11529087Y-18690508D01*
X11529087Y-18690508D02*
X11510039Y-18661936D01*
X11510039Y-18661936D02*
X11500515Y-18652412D01*
M02*
