%TF.GenerationSoftware,KiCad,Pcbnew,8.0.0-rc1*%
%TF.CreationDate,2024-04-25T15:33:11+03:00*%
%TF.ProjectId,MXVR_3568_V4.0,4d585652-5f33-4353-9638-5f56342e302e,REV1*%
%TF.SameCoordinates,Original*%
%TF.FileFunction,Drillmap*%
%TF.FilePolarity,Positive*%
%FSLAX45Y45*%
G04 Gerber Fmt 4.5, Leading zero omitted, Abs format (unit mm)*
G04 Created by KiCad (PCBNEW 8.0.0-rc1) date 2024-04-25 15:33:11*
%MOMM*%
%LPD*%
G01*
G04 APERTURE LIST*
%ADD10C,0.050000*%
%ADD11C,0.200000*%
%ADD12C,0.100000*%
%ADD13C,0.110000*%
%ADD14C,0.140000*%
%ADD15C,0.160000*%
%ADD16C,0.320000*%
%ADD17C,0.325000*%
G04 APERTURE END LIST*
D10*
X4763000Y-2552000D02*
X20363000Y-2552000D01*
X20363000Y-16752000D01*
X4763000Y-16752000D01*
X4763000Y-2552000D01*
X15448000Y-10220000D02*
X14165000Y-10220000D01*
X14165000Y-8897000D01*
X15448000Y-8897000D01*
X15448000Y-10220000D01*
X11301000Y-7200000D02*
G75*
G02*
X11201000Y-7200000I-50000J0D01*
G01*
X11201000Y-7200000D02*
G75*
G02*
X11301000Y-7200000I50000J0D01*
G01*
X16941000Y-11340000D02*
G75*
G02*
X16841000Y-11340000I-50000J0D01*
G01*
X16841000Y-11340000D02*
G75*
G02*
X16941000Y-11340000I50000J0D01*
G01*
X18059000Y-16402000D02*
X18259000Y-16402000D01*
X18259000Y-16652000D01*
X18059000Y-16652000D01*
X18059000Y-16402000D01*
X18799000Y-16402000D02*
X18999000Y-16402000D01*
X18999000Y-16652000D01*
X18799000Y-16652000D01*
X18799000Y-16402000D01*
X18810000Y-10232000D02*
G75*
G02*
X18530000Y-10232000I-140000J0D01*
G01*
X18530000Y-10232000D02*
G75*
G02*
X18810000Y-10232000I140000J0D01*
G01*
X19545000Y-10232000D02*
G75*
G02*
X19305000Y-10232000I-120000J0D01*
G01*
X19305000Y-10232000D02*
G75*
G02*
X19545000Y-10232000I120000J0D01*
G01*
X12235500Y-16654250D02*
X12435500Y-16654250D01*
X12435500Y-16404250D01*
X12235500Y-16404250D01*
X12235500Y-16654250D01*
X12975500Y-16654250D02*
X13175500Y-16654250D01*
X13175500Y-16404250D01*
X12975500Y-16404250D01*
X12975500Y-16654250D01*
X15014000Y-16650000D02*
X15214000Y-16650000D01*
X15214000Y-16400000D01*
X15014000Y-16400000D01*
X15014000Y-16650000D01*
X15754000Y-16650000D02*
X15954000Y-16650000D01*
X15954000Y-16400000D01*
X15754000Y-16400000D01*
X15754000Y-16650000D01*
X10690000Y-16655250D02*
X10890000Y-16655250D01*
X10890000Y-16405250D01*
X10690000Y-16405250D01*
X10690000Y-16655250D01*
X11430000Y-16655250D02*
X11630000Y-16655250D01*
X11630000Y-16405250D01*
X11430000Y-16405250D01*
X11430000Y-16655250D01*
X13498000Y-16652000D02*
X13698000Y-16652000D01*
X13698000Y-16402000D01*
X13498000Y-16402000D01*
X13498000Y-16652000D01*
X14238000Y-16652000D02*
X14438000Y-16652000D01*
X14438000Y-16402000D01*
X14238000Y-16402000D01*
X14238000Y-16652000D01*
D11*
D12*
X18728000Y-9513000D02*
X18828000Y-9613000D01*
X18828000Y-9513000D02*
X18728000Y-9613000D01*
X19526000Y-9513000D02*
X19626000Y-9613000D01*
X19626000Y-9513000D02*
X19526000Y-9613000D01*
D13*
X19545990Y-15446500D02*
G75*
G02*
X19435990Y-15446500I-55000J0D01*
G01*
X19435990Y-15446500D02*
G75*
G02*
X19545990Y-15446500I55000J0D01*
G01*
D14*
X17348000Y-8013000D02*
X17348000Y-8153000D01*
X17278000Y-8083000D02*
X17418000Y-8083000D01*
X17348000Y-11332000D02*
X17348000Y-11472000D01*
X17278000Y-11402000D02*
X17418000Y-11402000D01*
D15*
X19547559Y-13503069D02*
X19547559Y-13389931D01*
X19434421Y-13389931D01*
X19434421Y-13503069D01*
X19547559Y-13503069D01*
D16*
X6636000Y-16700000D02*
X6796000Y-16540000D01*
X6636000Y-16380000D01*
X6476000Y-16540000D01*
X6636000Y-16700000D01*
X7779000Y-16700000D02*
X7939000Y-16540000D01*
X7779000Y-16380000D01*
X7619000Y-16540000D01*
X7779000Y-16700000D01*
D17*
X9546500Y-2598500D02*
X9871500Y-2923500D01*
X9871500Y-2598500D02*
X9546500Y-2923500D01*
X9871500Y-2761000D02*
G75*
G02*
X9546500Y-2761000I-162500J0D01*
G01*
X9546500Y-2761000D02*
G75*
G02*
X9871500Y-2761000I162500J0D01*
G01*
X12396500Y-2598500D02*
X12721500Y-2923500D01*
X12721500Y-2598500D02*
X12396500Y-2923500D01*
X12721500Y-2761000D02*
G75*
G02*
X12396500Y-2761000I-162500J0D01*
G01*
X12396500Y-2761000D02*
G75*
G02*
X12721500Y-2761000I162500J0D01*
G01*
X13229000Y-2595500D02*
X13554000Y-2920500D01*
X13554000Y-2595500D02*
X13229000Y-2920500D01*
X13554000Y-2758000D02*
G75*
G02*
X13229000Y-2758000I-162500J0D01*
G01*
X13229000Y-2758000D02*
G75*
G02*
X13554000Y-2758000I162500J0D01*
G01*
X19239000Y-2595500D02*
X19564000Y-2920500D01*
X19564000Y-2595500D02*
X19239000Y-2920500D01*
X19564000Y-2758000D02*
G75*
G02*
X19239000Y-2758000I-162500J0D01*
G01*
X19239000Y-2758000D02*
G75*
G02*
X19564000Y-2758000I162500J0D01*
G01*
D11*
X5021277Y-17065984D02*
X5021277Y-16865984D01*
X5021277Y-16865984D02*
X5068896Y-16865984D01*
X5068896Y-16865984D02*
X5097467Y-16875508D01*
X5097467Y-16875508D02*
X5116515Y-16894555D01*
X5116515Y-16894555D02*
X5126039Y-16913603D01*
X5126039Y-16913603D02*
X5135563Y-16951698D01*
X5135563Y-16951698D02*
X5135563Y-16980270D01*
X5135563Y-16980270D02*
X5126039Y-17018365D01*
X5126039Y-17018365D02*
X5116515Y-17037412D01*
X5116515Y-17037412D02*
X5097467Y-17056460D01*
X5097467Y-17056460D02*
X5068896Y-17065984D01*
X5068896Y-17065984D02*
X5021277Y-17065984D01*
X5221277Y-17065984D02*
X5221277Y-16932650D01*
X5221277Y-16970746D02*
X5230801Y-16951698D01*
X5230801Y-16951698D02*
X5240324Y-16942174D01*
X5240324Y-16942174D02*
X5259372Y-16932650D01*
X5259372Y-16932650D02*
X5278420Y-16932650D01*
X5345086Y-17065984D02*
X5345086Y-16932650D01*
X5345086Y-16865984D02*
X5335563Y-16875508D01*
X5335563Y-16875508D02*
X5345086Y-16885031D01*
X5345086Y-16885031D02*
X5354610Y-16875508D01*
X5354610Y-16875508D02*
X5345086Y-16865984D01*
X5345086Y-16865984D02*
X5345086Y-16885031D01*
X5468896Y-17065984D02*
X5449848Y-17056460D01*
X5449848Y-17056460D02*
X5440324Y-17037412D01*
X5440324Y-17037412D02*
X5440324Y-16865984D01*
X5573658Y-17065984D02*
X5554610Y-17056460D01*
X5554610Y-17056460D02*
X5545086Y-17037412D01*
X5545086Y-17037412D02*
X5545086Y-16865984D01*
X5802229Y-17065984D02*
X5802229Y-16865984D01*
X5802229Y-16865984D02*
X5868896Y-17008841D01*
X5868896Y-17008841D02*
X5935562Y-16865984D01*
X5935562Y-16865984D02*
X5935562Y-17065984D01*
X6116515Y-17065984D02*
X6116515Y-16961222D01*
X6116515Y-16961222D02*
X6106991Y-16942174D01*
X6106991Y-16942174D02*
X6087943Y-16932650D01*
X6087943Y-16932650D02*
X6049848Y-16932650D01*
X6049848Y-16932650D02*
X6030801Y-16942174D01*
X6116515Y-17056460D02*
X6097467Y-17065984D01*
X6097467Y-17065984D02*
X6049848Y-17065984D01*
X6049848Y-17065984D02*
X6030801Y-17056460D01*
X6030801Y-17056460D02*
X6021277Y-17037412D01*
X6021277Y-17037412D02*
X6021277Y-17018365D01*
X6021277Y-17018365D02*
X6030801Y-16999317D01*
X6030801Y-16999317D02*
X6049848Y-16989793D01*
X6049848Y-16989793D02*
X6097467Y-16989793D01*
X6097467Y-16989793D02*
X6116515Y-16980270D01*
X6211753Y-16932650D02*
X6211753Y-17132650D01*
X6211753Y-16942174D02*
X6230801Y-16932650D01*
X6230801Y-16932650D02*
X6268896Y-16932650D01*
X6268896Y-16932650D02*
X6287943Y-16942174D01*
X6287943Y-16942174D02*
X6297467Y-16951698D01*
X6297467Y-16951698D02*
X6306991Y-16970746D01*
X6306991Y-16970746D02*
X6306991Y-17027889D01*
X6306991Y-17027889D02*
X6297467Y-17046936D01*
X6297467Y-17046936D02*
X6287943Y-17056460D01*
X6287943Y-17056460D02*
X6268896Y-17065984D01*
X6268896Y-17065984D02*
X6230801Y-17065984D01*
X6230801Y-17065984D02*
X6211753Y-17056460D01*
X6392705Y-17046936D02*
X6402229Y-17056460D01*
X6402229Y-17056460D02*
X6392705Y-17065984D01*
X6392705Y-17065984D02*
X6383182Y-17056460D01*
X6383182Y-17056460D02*
X6392705Y-17046936D01*
X6392705Y-17046936D02*
X6392705Y-17065984D01*
X6392705Y-16942174D02*
X6402229Y-16951698D01*
X6402229Y-16951698D02*
X6392705Y-16961222D01*
X6392705Y-16961222D02*
X6383182Y-16951698D01*
X6383182Y-16951698D02*
X6392705Y-16942174D01*
X6392705Y-16942174D02*
X6392705Y-16961222D01*
D12*
X4660500Y-17344500D02*
X4760500Y-17444500D01*
X4760500Y-17344500D02*
X4660500Y-17444500D01*
D11*
X5126039Y-17485984D02*
X5011753Y-17485984D01*
X5068896Y-17485984D02*
X5068896Y-17285984D01*
X5068896Y-17285984D02*
X5049848Y-17314555D01*
X5049848Y-17314555D02*
X5030801Y-17333603D01*
X5030801Y-17333603D02*
X5011753Y-17343127D01*
X5211753Y-17466936D02*
X5221277Y-17476460D01*
X5221277Y-17476460D02*
X5211753Y-17485984D01*
X5211753Y-17485984D02*
X5202229Y-17476460D01*
X5202229Y-17476460D02*
X5211753Y-17466936D01*
X5211753Y-17466936D02*
X5211753Y-17485984D01*
X5345086Y-17285984D02*
X5364134Y-17285984D01*
X5364134Y-17285984D02*
X5383182Y-17295508D01*
X5383182Y-17295508D02*
X5392705Y-17305031D01*
X5392705Y-17305031D02*
X5402229Y-17324079D01*
X5402229Y-17324079D02*
X5411753Y-17362174D01*
X5411753Y-17362174D02*
X5411753Y-17409793D01*
X5411753Y-17409793D02*
X5402229Y-17447889D01*
X5402229Y-17447889D02*
X5392705Y-17466936D01*
X5392705Y-17466936D02*
X5383182Y-17476460D01*
X5383182Y-17476460D02*
X5364134Y-17485984D01*
X5364134Y-17485984D02*
X5345086Y-17485984D01*
X5345086Y-17485984D02*
X5326039Y-17476460D01*
X5326039Y-17476460D02*
X5316515Y-17466936D01*
X5316515Y-17466936D02*
X5306991Y-17447889D01*
X5306991Y-17447889D02*
X5297467Y-17409793D01*
X5297467Y-17409793D02*
X5297467Y-17362174D01*
X5297467Y-17362174D02*
X5306991Y-17324079D01*
X5306991Y-17324079D02*
X5316515Y-17305031D01*
X5316515Y-17305031D02*
X5326039Y-17295508D01*
X5326039Y-17295508D02*
X5345086Y-17285984D01*
X5535563Y-17285984D02*
X5554610Y-17285984D01*
X5554610Y-17285984D02*
X5573658Y-17295508D01*
X5573658Y-17295508D02*
X5583182Y-17305031D01*
X5583182Y-17305031D02*
X5592705Y-17324079D01*
X5592705Y-17324079D02*
X5602229Y-17362174D01*
X5602229Y-17362174D02*
X5602229Y-17409793D01*
X5602229Y-17409793D02*
X5592705Y-17447889D01*
X5592705Y-17447889D02*
X5583182Y-17466936D01*
X5583182Y-17466936D02*
X5573658Y-17476460D01*
X5573658Y-17476460D02*
X5554610Y-17485984D01*
X5554610Y-17485984D02*
X5535563Y-17485984D01*
X5535563Y-17485984D02*
X5516515Y-17476460D01*
X5516515Y-17476460D02*
X5506991Y-17466936D01*
X5506991Y-17466936D02*
X5497467Y-17447889D01*
X5497467Y-17447889D02*
X5487944Y-17409793D01*
X5487944Y-17409793D02*
X5487944Y-17362174D01*
X5487944Y-17362174D02*
X5497467Y-17324079D01*
X5497467Y-17324079D02*
X5506991Y-17305031D01*
X5506991Y-17305031D02*
X5516515Y-17295508D01*
X5516515Y-17295508D02*
X5535563Y-17285984D01*
X5726039Y-17285984D02*
X5745086Y-17285984D01*
X5745086Y-17285984D02*
X5764134Y-17295508D01*
X5764134Y-17295508D02*
X5773658Y-17305031D01*
X5773658Y-17305031D02*
X5783182Y-17324079D01*
X5783182Y-17324079D02*
X5792705Y-17362174D01*
X5792705Y-17362174D02*
X5792705Y-17409793D01*
X5792705Y-17409793D02*
X5783182Y-17447889D01*
X5783182Y-17447889D02*
X5773658Y-17466936D01*
X5773658Y-17466936D02*
X5764134Y-17476460D01*
X5764134Y-17476460D02*
X5745086Y-17485984D01*
X5745086Y-17485984D02*
X5726039Y-17485984D01*
X5726039Y-17485984D02*
X5706991Y-17476460D01*
X5706991Y-17476460D02*
X5697467Y-17466936D01*
X5697467Y-17466936D02*
X5687943Y-17447889D01*
X5687943Y-17447889D02*
X5678420Y-17409793D01*
X5678420Y-17409793D02*
X5678420Y-17362174D01*
X5678420Y-17362174D02*
X5687943Y-17324079D01*
X5687943Y-17324079D02*
X5697467Y-17305031D01*
X5697467Y-17305031D02*
X5706991Y-17295508D01*
X5706991Y-17295508D02*
X5726039Y-17285984D01*
X5878420Y-17485984D02*
X5878420Y-17352650D01*
X5878420Y-17371698D02*
X5887943Y-17362174D01*
X5887943Y-17362174D02*
X5906991Y-17352650D01*
X5906991Y-17352650D02*
X5935563Y-17352650D01*
X5935563Y-17352650D02*
X5954610Y-17362174D01*
X5954610Y-17362174D02*
X5964134Y-17381222D01*
X5964134Y-17381222D02*
X5964134Y-17485984D01*
X5964134Y-17381222D02*
X5973658Y-17362174D01*
X5973658Y-17362174D02*
X5992705Y-17352650D01*
X5992705Y-17352650D02*
X6021277Y-17352650D01*
X6021277Y-17352650D02*
X6040324Y-17362174D01*
X6040324Y-17362174D02*
X6049848Y-17381222D01*
X6049848Y-17381222D02*
X6049848Y-17485984D01*
X6145086Y-17485984D02*
X6145086Y-17352650D01*
X6145086Y-17371698D02*
X6154610Y-17362174D01*
X6154610Y-17362174D02*
X6173658Y-17352650D01*
X6173658Y-17352650D02*
X6202229Y-17352650D01*
X6202229Y-17352650D02*
X6221277Y-17362174D01*
X6221277Y-17362174D02*
X6230801Y-17381222D01*
X6230801Y-17381222D02*
X6230801Y-17485984D01*
X6230801Y-17381222D02*
X6240324Y-17362174D01*
X6240324Y-17362174D02*
X6259372Y-17352650D01*
X6259372Y-17352650D02*
X6287943Y-17352650D01*
X6287943Y-17352650D02*
X6306991Y-17362174D01*
X6306991Y-17362174D02*
X6316515Y-17381222D01*
X6316515Y-17381222D02*
X6316515Y-17485984D01*
X6706991Y-17276460D02*
X6535563Y-17533603D01*
X6964134Y-17285984D02*
X6983182Y-17285984D01*
X6983182Y-17285984D02*
X7002229Y-17295508D01*
X7002229Y-17295508D02*
X7011753Y-17305031D01*
X7011753Y-17305031D02*
X7021277Y-17324079D01*
X7021277Y-17324079D02*
X7030801Y-17362174D01*
X7030801Y-17362174D02*
X7030801Y-17409793D01*
X7030801Y-17409793D02*
X7021277Y-17447889D01*
X7021277Y-17447889D02*
X7011753Y-17466936D01*
X7011753Y-17466936D02*
X7002229Y-17476460D01*
X7002229Y-17476460D02*
X6983182Y-17485984D01*
X6983182Y-17485984D02*
X6964134Y-17485984D01*
X6964134Y-17485984D02*
X6945086Y-17476460D01*
X6945086Y-17476460D02*
X6935563Y-17466936D01*
X6935563Y-17466936D02*
X6926039Y-17447889D01*
X6926039Y-17447889D02*
X6916515Y-17409793D01*
X6916515Y-17409793D02*
X6916515Y-17362174D01*
X6916515Y-17362174D02*
X6926039Y-17324079D01*
X6926039Y-17324079D02*
X6935563Y-17305031D01*
X6935563Y-17305031D02*
X6945086Y-17295508D01*
X6945086Y-17295508D02*
X6964134Y-17285984D01*
X7116515Y-17466936D02*
X7126039Y-17476460D01*
X7126039Y-17476460D02*
X7116515Y-17485984D01*
X7116515Y-17485984D02*
X7106991Y-17476460D01*
X7106991Y-17476460D02*
X7116515Y-17466936D01*
X7116515Y-17466936D02*
X7116515Y-17485984D01*
X7249848Y-17285984D02*
X7268896Y-17285984D01*
X7268896Y-17285984D02*
X7287944Y-17295508D01*
X7287944Y-17295508D02*
X7297467Y-17305031D01*
X7297467Y-17305031D02*
X7306991Y-17324079D01*
X7306991Y-17324079D02*
X7316515Y-17362174D01*
X7316515Y-17362174D02*
X7316515Y-17409793D01*
X7316515Y-17409793D02*
X7306991Y-17447889D01*
X7306991Y-17447889D02*
X7297467Y-17466936D01*
X7297467Y-17466936D02*
X7287944Y-17476460D01*
X7287944Y-17476460D02*
X7268896Y-17485984D01*
X7268896Y-17485984D02*
X7249848Y-17485984D01*
X7249848Y-17485984D02*
X7230801Y-17476460D01*
X7230801Y-17476460D02*
X7221277Y-17466936D01*
X7221277Y-17466936D02*
X7211753Y-17447889D01*
X7211753Y-17447889D02*
X7202229Y-17409793D01*
X7202229Y-17409793D02*
X7202229Y-17362174D01*
X7202229Y-17362174D02*
X7211753Y-17324079D01*
X7211753Y-17324079D02*
X7221277Y-17305031D01*
X7221277Y-17305031D02*
X7230801Y-17295508D01*
X7230801Y-17295508D02*
X7249848Y-17285984D01*
X7383182Y-17285984D02*
X7506991Y-17285984D01*
X7506991Y-17285984D02*
X7440325Y-17362174D01*
X7440325Y-17362174D02*
X7468896Y-17362174D01*
X7468896Y-17362174D02*
X7487944Y-17371698D01*
X7487944Y-17371698D02*
X7497467Y-17381222D01*
X7497467Y-17381222D02*
X7506991Y-17400270D01*
X7506991Y-17400270D02*
X7506991Y-17447889D01*
X7506991Y-17447889D02*
X7497467Y-17466936D01*
X7497467Y-17466936D02*
X7487944Y-17476460D01*
X7487944Y-17476460D02*
X7468896Y-17485984D01*
X7468896Y-17485984D02*
X7411753Y-17485984D01*
X7411753Y-17485984D02*
X7392706Y-17476460D01*
X7392706Y-17476460D02*
X7383182Y-17466936D01*
X7602229Y-17485984D02*
X7640325Y-17485984D01*
X7640325Y-17485984D02*
X7659372Y-17476460D01*
X7659372Y-17476460D02*
X7668896Y-17466936D01*
X7668896Y-17466936D02*
X7687944Y-17438365D01*
X7687944Y-17438365D02*
X7697467Y-17400270D01*
X7697467Y-17400270D02*
X7697467Y-17324079D01*
X7697467Y-17324079D02*
X7687944Y-17305031D01*
X7687944Y-17305031D02*
X7678420Y-17295508D01*
X7678420Y-17295508D02*
X7659372Y-17285984D01*
X7659372Y-17285984D02*
X7621277Y-17285984D01*
X7621277Y-17285984D02*
X7602229Y-17295508D01*
X7602229Y-17295508D02*
X7592706Y-17305031D01*
X7592706Y-17305031D02*
X7583182Y-17324079D01*
X7583182Y-17324079D02*
X7583182Y-17371698D01*
X7583182Y-17371698D02*
X7592706Y-17390746D01*
X7592706Y-17390746D02*
X7602229Y-17400270D01*
X7602229Y-17400270D02*
X7621277Y-17409793D01*
X7621277Y-17409793D02*
X7659372Y-17409793D01*
X7659372Y-17409793D02*
X7678420Y-17400270D01*
X7678420Y-17400270D02*
X7687944Y-17390746D01*
X7687944Y-17390746D02*
X7697467Y-17371698D01*
X7868896Y-17352650D02*
X7868896Y-17485984D01*
X7821277Y-17276460D02*
X7773658Y-17419317D01*
X7773658Y-17419317D02*
X7897467Y-17419317D01*
X7964134Y-17285984D02*
X7964134Y-17324079D01*
X8040325Y-17285984D02*
X8040325Y-17324079D01*
X8335563Y-17562174D02*
X8326039Y-17552650D01*
X8326039Y-17552650D02*
X8306991Y-17524079D01*
X8306991Y-17524079D02*
X8297468Y-17505031D01*
X8297468Y-17505031D02*
X8287944Y-17476460D01*
X8287944Y-17476460D02*
X8278420Y-17428841D01*
X8278420Y-17428841D02*
X8278420Y-17390746D01*
X8278420Y-17390746D02*
X8287944Y-17343127D01*
X8287944Y-17343127D02*
X8297468Y-17314555D01*
X8297468Y-17314555D02*
X8306991Y-17295508D01*
X8306991Y-17295508D02*
X8326039Y-17266936D01*
X8326039Y-17266936D02*
X8335563Y-17257412D01*
X8402230Y-17305031D02*
X8411753Y-17295508D01*
X8411753Y-17295508D02*
X8430801Y-17285984D01*
X8430801Y-17285984D02*
X8478420Y-17285984D01*
X8478420Y-17285984D02*
X8497468Y-17295508D01*
X8497468Y-17295508D02*
X8506991Y-17305031D01*
X8506991Y-17305031D02*
X8516515Y-17324079D01*
X8516515Y-17324079D02*
X8516515Y-17343127D01*
X8516515Y-17343127D02*
X8506991Y-17371698D01*
X8506991Y-17371698D02*
X8392706Y-17485984D01*
X8392706Y-17485984D02*
X8516515Y-17485984D01*
X8754611Y-17485984D02*
X8754611Y-17285984D01*
X8840325Y-17485984D02*
X8840325Y-17381222D01*
X8840325Y-17381222D02*
X8830801Y-17362174D01*
X8830801Y-17362174D02*
X8811753Y-17352650D01*
X8811753Y-17352650D02*
X8783182Y-17352650D01*
X8783182Y-17352650D02*
X8764134Y-17362174D01*
X8764134Y-17362174D02*
X8754611Y-17371698D01*
X8964134Y-17485984D02*
X8945087Y-17476460D01*
X8945087Y-17476460D02*
X8935563Y-17466936D01*
X8935563Y-17466936D02*
X8926039Y-17447889D01*
X8926039Y-17447889D02*
X8926039Y-17390746D01*
X8926039Y-17390746D02*
X8935563Y-17371698D01*
X8935563Y-17371698D02*
X8945087Y-17362174D01*
X8945087Y-17362174D02*
X8964134Y-17352650D01*
X8964134Y-17352650D02*
X8992706Y-17352650D01*
X8992706Y-17352650D02*
X9011753Y-17362174D01*
X9011753Y-17362174D02*
X9021277Y-17371698D01*
X9021277Y-17371698D02*
X9030801Y-17390746D01*
X9030801Y-17390746D02*
X9030801Y-17447889D01*
X9030801Y-17447889D02*
X9021277Y-17466936D01*
X9021277Y-17466936D02*
X9011753Y-17476460D01*
X9011753Y-17476460D02*
X8992706Y-17485984D01*
X8992706Y-17485984D02*
X8964134Y-17485984D01*
X9145087Y-17485984D02*
X9126039Y-17476460D01*
X9126039Y-17476460D02*
X9116515Y-17457412D01*
X9116515Y-17457412D02*
X9116515Y-17285984D01*
X9297468Y-17476460D02*
X9278420Y-17485984D01*
X9278420Y-17485984D02*
X9240325Y-17485984D01*
X9240325Y-17485984D02*
X9221277Y-17476460D01*
X9221277Y-17476460D02*
X9211753Y-17457412D01*
X9211753Y-17457412D02*
X9211753Y-17381222D01*
X9211753Y-17381222D02*
X9221277Y-17362174D01*
X9221277Y-17362174D02*
X9240325Y-17352650D01*
X9240325Y-17352650D02*
X9278420Y-17352650D01*
X9278420Y-17352650D02*
X9297468Y-17362174D01*
X9297468Y-17362174D02*
X9306992Y-17381222D01*
X9306992Y-17381222D02*
X9306992Y-17400270D01*
X9306992Y-17400270D02*
X9211753Y-17419317D01*
X9383182Y-17476460D02*
X9402230Y-17485984D01*
X9402230Y-17485984D02*
X9440325Y-17485984D01*
X9440325Y-17485984D02*
X9459373Y-17476460D01*
X9459373Y-17476460D02*
X9468896Y-17457412D01*
X9468896Y-17457412D02*
X9468896Y-17447889D01*
X9468896Y-17447889D02*
X9459373Y-17428841D01*
X9459373Y-17428841D02*
X9440325Y-17419317D01*
X9440325Y-17419317D02*
X9411753Y-17419317D01*
X9411753Y-17419317D02*
X9392706Y-17409793D01*
X9392706Y-17409793D02*
X9383182Y-17390746D01*
X9383182Y-17390746D02*
X9383182Y-17381222D01*
X9383182Y-17381222D02*
X9392706Y-17362174D01*
X9392706Y-17362174D02*
X9411753Y-17352650D01*
X9411753Y-17352650D02*
X9440325Y-17352650D01*
X9440325Y-17352650D02*
X9459373Y-17362174D01*
X9535563Y-17562174D02*
X9545087Y-17552650D01*
X9545087Y-17552650D02*
X9564134Y-17524079D01*
X9564134Y-17524079D02*
X9573658Y-17505031D01*
X9573658Y-17505031D02*
X9583182Y-17476460D01*
X9583182Y-17476460D02*
X9592706Y-17428841D01*
X9592706Y-17428841D02*
X9592706Y-17390746D01*
X9592706Y-17390746D02*
X9583182Y-17343127D01*
X9583182Y-17343127D02*
X9573658Y-17314555D01*
X9573658Y-17314555D02*
X9564134Y-17295508D01*
X9564134Y-17295508D02*
X9545087Y-17266936D01*
X9545087Y-17266936D02*
X9535563Y-17257412D01*
X9897468Y-17562174D02*
X9887944Y-17552650D01*
X9887944Y-17552650D02*
X9868896Y-17524079D01*
X9868896Y-17524079D02*
X9859373Y-17505031D01*
X9859373Y-17505031D02*
X9849849Y-17476460D01*
X9849849Y-17476460D02*
X9840325Y-17428841D01*
X9840325Y-17428841D02*
X9840325Y-17390746D01*
X9840325Y-17390746D02*
X9849849Y-17343127D01*
X9849849Y-17343127D02*
X9859373Y-17314555D01*
X9859373Y-17314555D02*
X9868896Y-17295508D01*
X9868896Y-17295508D02*
X9887944Y-17266936D01*
X9887944Y-17266936D02*
X9897468Y-17257412D01*
X9973658Y-17352650D02*
X9973658Y-17485984D01*
X9973658Y-17371698D02*
X9983182Y-17362174D01*
X9983182Y-17362174D02*
X10002230Y-17352650D01*
X10002230Y-17352650D02*
X10030801Y-17352650D01*
X10030801Y-17352650D02*
X10049849Y-17362174D01*
X10049849Y-17362174D02*
X10059373Y-17381222D01*
X10059373Y-17381222D02*
X10059373Y-17485984D01*
X10183182Y-17485984D02*
X10164134Y-17476460D01*
X10164134Y-17476460D02*
X10154611Y-17466936D01*
X10154611Y-17466936D02*
X10145087Y-17447889D01*
X10145087Y-17447889D02*
X10145087Y-17390746D01*
X10145087Y-17390746D02*
X10154611Y-17371698D01*
X10154611Y-17371698D02*
X10164134Y-17362174D01*
X10164134Y-17362174D02*
X10183182Y-17352650D01*
X10183182Y-17352650D02*
X10211754Y-17352650D01*
X10211754Y-17352650D02*
X10230801Y-17362174D01*
X10230801Y-17362174D02*
X10240325Y-17371698D01*
X10240325Y-17371698D02*
X10249849Y-17390746D01*
X10249849Y-17390746D02*
X10249849Y-17447889D01*
X10249849Y-17447889D02*
X10240325Y-17466936D01*
X10240325Y-17466936D02*
X10230801Y-17476460D01*
X10230801Y-17476460D02*
X10211754Y-17485984D01*
X10211754Y-17485984D02*
X10183182Y-17485984D01*
X10306992Y-17352650D02*
X10383182Y-17352650D01*
X10335563Y-17285984D02*
X10335563Y-17457412D01*
X10335563Y-17457412D02*
X10345087Y-17476460D01*
X10345087Y-17476460D02*
X10364134Y-17485984D01*
X10364134Y-17485984D02*
X10383182Y-17485984D01*
X10602230Y-17352650D02*
X10602230Y-17552650D01*
X10602230Y-17362174D02*
X10621277Y-17352650D01*
X10621277Y-17352650D02*
X10659373Y-17352650D01*
X10659373Y-17352650D02*
X10678420Y-17362174D01*
X10678420Y-17362174D02*
X10687944Y-17371698D01*
X10687944Y-17371698D02*
X10697468Y-17390746D01*
X10697468Y-17390746D02*
X10697468Y-17447889D01*
X10697468Y-17447889D02*
X10687944Y-17466936D01*
X10687944Y-17466936D02*
X10678420Y-17476460D01*
X10678420Y-17476460D02*
X10659373Y-17485984D01*
X10659373Y-17485984D02*
X10621277Y-17485984D01*
X10621277Y-17485984D02*
X10602230Y-17476460D01*
X10811754Y-17485984D02*
X10792706Y-17476460D01*
X10792706Y-17476460D02*
X10783182Y-17457412D01*
X10783182Y-17457412D02*
X10783182Y-17285984D01*
X10973658Y-17485984D02*
X10973658Y-17381222D01*
X10973658Y-17381222D02*
X10964135Y-17362174D01*
X10964135Y-17362174D02*
X10945087Y-17352650D01*
X10945087Y-17352650D02*
X10906992Y-17352650D01*
X10906992Y-17352650D02*
X10887944Y-17362174D01*
X10973658Y-17476460D02*
X10954611Y-17485984D01*
X10954611Y-17485984D02*
X10906992Y-17485984D01*
X10906992Y-17485984D02*
X10887944Y-17476460D01*
X10887944Y-17476460D02*
X10878420Y-17457412D01*
X10878420Y-17457412D02*
X10878420Y-17438365D01*
X10878420Y-17438365D02*
X10887944Y-17419317D01*
X10887944Y-17419317D02*
X10906992Y-17409793D01*
X10906992Y-17409793D02*
X10954611Y-17409793D01*
X10954611Y-17409793D02*
X10973658Y-17400270D01*
X11040325Y-17352650D02*
X11116515Y-17352650D01*
X11068896Y-17285984D02*
X11068896Y-17457412D01*
X11068896Y-17457412D02*
X11078420Y-17476460D01*
X11078420Y-17476460D02*
X11097468Y-17485984D01*
X11097468Y-17485984D02*
X11116515Y-17485984D01*
X11259373Y-17476460D02*
X11240325Y-17485984D01*
X11240325Y-17485984D02*
X11202230Y-17485984D01*
X11202230Y-17485984D02*
X11183182Y-17476460D01*
X11183182Y-17476460D02*
X11173658Y-17457412D01*
X11173658Y-17457412D02*
X11173658Y-17381222D01*
X11173658Y-17381222D02*
X11183182Y-17362174D01*
X11183182Y-17362174D02*
X11202230Y-17352650D01*
X11202230Y-17352650D02*
X11240325Y-17352650D01*
X11240325Y-17352650D02*
X11259373Y-17362174D01*
X11259373Y-17362174D02*
X11268896Y-17381222D01*
X11268896Y-17381222D02*
X11268896Y-17400270D01*
X11268896Y-17400270D02*
X11173658Y-17419317D01*
X11440325Y-17485984D02*
X11440325Y-17285984D01*
X11440325Y-17476460D02*
X11421277Y-17485984D01*
X11421277Y-17485984D02*
X11383182Y-17485984D01*
X11383182Y-17485984D02*
X11364134Y-17476460D01*
X11364134Y-17476460D02*
X11354611Y-17466936D01*
X11354611Y-17466936D02*
X11345087Y-17447889D01*
X11345087Y-17447889D02*
X11345087Y-17390746D01*
X11345087Y-17390746D02*
X11354611Y-17371698D01*
X11354611Y-17371698D02*
X11364134Y-17362174D01*
X11364134Y-17362174D02*
X11383182Y-17352650D01*
X11383182Y-17352650D02*
X11421277Y-17352650D01*
X11421277Y-17352650D02*
X11440325Y-17362174D01*
X11516515Y-17562174D02*
X11526039Y-17552650D01*
X11526039Y-17552650D02*
X11545087Y-17524079D01*
X11545087Y-17524079D02*
X11554611Y-17505031D01*
X11554611Y-17505031D02*
X11564134Y-17476460D01*
X11564134Y-17476460D02*
X11573658Y-17428841D01*
X11573658Y-17428841D02*
X11573658Y-17390746D01*
X11573658Y-17390746D02*
X11564134Y-17343127D01*
X11564134Y-17343127D02*
X11554611Y-17314555D01*
X11554611Y-17314555D02*
X11545087Y-17295508D01*
X11545087Y-17295508D02*
X11526039Y-17266936D01*
X11526039Y-17266936D02*
X11516515Y-17257412D01*
D13*
X4760500Y-17658500D02*
G75*
G02*
X4650500Y-17658500I-55000J0D01*
G01*
X4650500Y-17658500D02*
G75*
G02*
X4760500Y-17658500I55000J0D01*
G01*
D11*
X5126039Y-17749984D02*
X5011753Y-17749984D01*
X5068896Y-17749984D02*
X5068896Y-17549984D01*
X5068896Y-17549984D02*
X5049848Y-17578555D01*
X5049848Y-17578555D02*
X5030801Y-17597603D01*
X5030801Y-17597603D02*
X5011753Y-17607127D01*
X5211753Y-17730936D02*
X5221277Y-17740460D01*
X5221277Y-17740460D02*
X5211753Y-17749984D01*
X5211753Y-17749984D02*
X5202229Y-17740460D01*
X5202229Y-17740460D02*
X5211753Y-17730936D01*
X5211753Y-17730936D02*
X5211753Y-17749984D01*
X5411753Y-17749984D02*
X5297467Y-17749984D01*
X5354610Y-17749984D02*
X5354610Y-17549984D01*
X5354610Y-17549984D02*
X5335563Y-17578555D01*
X5335563Y-17578555D02*
X5316515Y-17597603D01*
X5316515Y-17597603D02*
X5297467Y-17607127D01*
X5535563Y-17549984D02*
X5554610Y-17549984D01*
X5554610Y-17549984D02*
X5573658Y-17559508D01*
X5573658Y-17559508D02*
X5583182Y-17569031D01*
X5583182Y-17569031D02*
X5592705Y-17588079D01*
X5592705Y-17588079D02*
X5602229Y-17626174D01*
X5602229Y-17626174D02*
X5602229Y-17673793D01*
X5602229Y-17673793D02*
X5592705Y-17711889D01*
X5592705Y-17711889D02*
X5583182Y-17730936D01*
X5583182Y-17730936D02*
X5573658Y-17740460D01*
X5573658Y-17740460D02*
X5554610Y-17749984D01*
X5554610Y-17749984D02*
X5535563Y-17749984D01*
X5535563Y-17749984D02*
X5516515Y-17740460D01*
X5516515Y-17740460D02*
X5506991Y-17730936D01*
X5506991Y-17730936D02*
X5497467Y-17711889D01*
X5497467Y-17711889D02*
X5487944Y-17673793D01*
X5487944Y-17673793D02*
X5487944Y-17626174D01*
X5487944Y-17626174D02*
X5497467Y-17588079D01*
X5497467Y-17588079D02*
X5506991Y-17569031D01*
X5506991Y-17569031D02*
X5516515Y-17559508D01*
X5516515Y-17559508D02*
X5535563Y-17549984D01*
X5726039Y-17549984D02*
X5745086Y-17549984D01*
X5745086Y-17549984D02*
X5764134Y-17559508D01*
X5764134Y-17559508D02*
X5773658Y-17569031D01*
X5773658Y-17569031D02*
X5783182Y-17588079D01*
X5783182Y-17588079D02*
X5792705Y-17626174D01*
X5792705Y-17626174D02*
X5792705Y-17673793D01*
X5792705Y-17673793D02*
X5783182Y-17711889D01*
X5783182Y-17711889D02*
X5773658Y-17730936D01*
X5773658Y-17730936D02*
X5764134Y-17740460D01*
X5764134Y-17740460D02*
X5745086Y-17749984D01*
X5745086Y-17749984D02*
X5726039Y-17749984D01*
X5726039Y-17749984D02*
X5706991Y-17740460D01*
X5706991Y-17740460D02*
X5697467Y-17730936D01*
X5697467Y-17730936D02*
X5687943Y-17711889D01*
X5687943Y-17711889D02*
X5678420Y-17673793D01*
X5678420Y-17673793D02*
X5678420Y-17626174D01*
X5678420Y-17626174D02*
X5687943Y-17588079D01*
X5687943Y-17588079D02*
X5697467Y-17569031D01*
X5697467Y-17569031D02*
X5706991Y-17559508D01*
X5706991Y-17559508D02*
X5726039Y-17549984D01*
X5878420Y-17749984D02*
X5878420Y-17616650D01*
X5878420Y-17635698D02*
X5887943Y-17626174D01*
X5887943Y-17626174D02*
X5906991Y-17616650D01*
X5906991Y-17616650D02*
X5935563Y-17616650D01*
X5935563Y-17616650D02*
X5954610Y-17626174D01*
X5954610Y-17626174D02*
X5964134Y-17645222D01*
X5964134Y-17645222D02*
X5964134Y-17749984D01*
X5964134Y-17645222D02*
X5973658Y-17626174D01*
X5973658Y-17626174D02*
X5992705Y-17616650D01*
X5992705Y-17616650D02*
X6021277Y-17616650D01*
X6021277Y-17616650D02*
X6040324Y-17626174D01*
X6040324Y-17626174D02*
X6049848Y-17645222D01*
X6049848Y-17645222D02*
X6049848Y-17749984D01*
X6145086Y-17749984D02*
X6145086Y-17616650D01*
X6145086Y-17635698D02*
X6154610Y-17626174D01*
X6154610Y-17626174D02*
X6173658Y-17616650D01*
X6173658Y-17616650D02*
X6202229Y-17616650D01*
X6202229Y-17616650D02*
X6221277Y-17626174D01*
X6221277Y-17626174D02*
X6230801Y-17645222D01*
X6230801Y-17645222D02*
X6230801Y-17749984D01*
X6230801Y-17645222D02*
X6240324Y-17626174D01*
X6240324Y-17626174D02*
X6259372Y-17616650D01*
X6259372Y-17616650D02*
X6287943Y-17616650D01*
X6287943Y-17616650D02*
X6306991Y-17626174D01*
X6306991Y-17626174D02*
X6316515Y-17645222D01*
X6316515Y-17645222D02*
X6316515Y-17749984D01*
X6706991Y-17540460D02*
X6535563Y-17797603D01*
X6964134Y-17549984D02*
X6983182Y-17549984D01*
X6983182Y-17549984D02*
X7002229Y-17559508D01*
X7002229Y-17559508D02*
X7011753Y-17569031D01*
X7011753Y-17569031D02*
X7021277Y-17588079D01*
X7021277Y-17588079D02*
X7030801Y-17626174D01*
X7030801Y-17626174D02*
X7030801Y-17673793D01*
X7030801Y-17673793D02*
X7021277Y-17711889D01*
X7021277Y-17711889D02*
X7011753Y-17730936D01*
X7011753Y-17730936D02*
X7002229Y-17740460D01*
X7002229Y-17740460D02*
X6983182Y-17749984D01*
X6983182Y-17749984D02*
X6964134Y-17749984D01*
X6964134Y-17749984D02*
X6945086Y-17740460D01*
X6945086Y-17740460D02*
X6935563Y-17730936D01*
X6935563Y-17730936D02*
X6926039Y-17711889D01*
X6926039Y-17711889D02*
X6916515Y-17673793D01*
X6916515Y-17673793D02*
X6916515Y-17626174D01*
X6916515Y-17626174D02*
X6926039Y-17588079D01*
X6926039Y-17588079D02*
X6935563Y-17569031D01*
X6935563Y-17569031D02*
X6945086Y-17559508D01*
X6945086Y-17559508D02*
X6964134Y-17549984D01*
X7116515Y-17730936D02*
X7126039Y-17740460D01*
X7126039Y-17740460D02*
X7116515Y-17749984D01*
X7116515Y-17749984D02*
X7106991Y-17740460D01*
X7106991Y-17740460D02*
X7116515Y-17730936D01*
X7116515Y-17730936D02*
X7116515Y-17749984D01*
X7249848Y-17549984D02*
X7268896Y-17549984D01*
X7268896Y-17549984D02*
X7287944Y-17559508D01*
X7287944Y-17559508D02*
X7297467Y-17569031D01*
X7297467Y-17569031D02*
X7306991Y-17588079D01*
X7306991Y-17588079D02*
X7316515Y-17626174D01*
X7316515Y-17626174D02*
X7316515Y-17673793D01*
X7316515Y-17673793D02*
X7306991Y-17711889D01*
X7306991Y-17711889D02*
X7297467Y-17730936D01*
X7297467Y-17730936D02*
X7287944Y-17740460D01*
X7287944Y-17740460D02*
X7268896Y-17749984D01*
X7268896Y-17749984D02*
X7249848Y-17749984D01*
X7249848Y-17749984D02*
X7230801Y-17740460D01*
X7230801Y-17740460D02*
X7221277Y-17730936D01*
X7221277Y-17730936D02*
X7211753Y-17711889D01*
X7211753Y-17711889D02*
X7202229Y-17673793D01*
X7202229Y-17673793D02*
X7202229Y-17626174D01*
X7202229Y-17626174D02*
X7211753Y-17588079D01*
X7211753Y-17588079D02*
X7221277Y-17569031D01*
X7221277Y-17569031D02*
X7230801Y-17559508D01*
X7230801Y-17559508D02*
X7249848Y-17549984D01*
X7487944Y-17616650D02*
X7487944Y-17749984D01*
X7440325Y-17540460D02*
X7392706Y-17683317D01*
X7392706Y-17683317D02*
X7516515Y-17683317D01*
X7573658Y-17549984D02*
X7697467Y-17549984D01*
X7697467Y-17549984D02*
X7630801Y-17626174D01*
X7630801Y-17626174D02*
X7659372Y-17626174D01*
X7659372Y-17626174D02*
X7678420Y-17635698D01*
X7678420Y-17635698D02*
X7687944Y-17645222D01*
X7687944Y-17645222D02*
X7697467Y-17664270D01*
X7697467Y-17664270D02*
X7697467Y-17711889D01*
X7697467Y-17711889D02*
X7687944Y-17730936D01*
X7687944Y-17730936D02*
X7678420Y-17740460D01*
X7678420Y-17740460D02*
X7659372Y-17749984D01*
X7659372Y-17749984D02*
X7602229Y-17749984D01*
X7602229Y-17749984D02*
X7583182Y-17740460D01*
X7583182Y-17740460D02*
X7573658Y-17730936D01*
X7764134Y-17549984D02*
X7887944Y-17549984D01*
X7887944Y-17549984D02*
X7821277Y-17626174D01*
X7821277Y-17626174D02*
X7849848Y-17626174D01*
X7849848Y-17626174D02*
X7868896Y-17635698D01*
X7868896Y-17635698D02*
X7878420Y-17645222D01*
X7878420Y-17645222D02*
X7887944Y-17664270D01*
X7887944Y-17664270D02*
X7887944Y-17711889D01*
X7887944Y-17711889D02*
X7878420Y-17730936D01*
X7878420Y-17730936D02*
X7868896Y-17740460D01*
X7868896Y-17740460D02*
X7849848Y-17749984D01*
X7849848Y-17749984D02*
X7792706Y-17749984D01*
X7792706Y-17749984D02*
X7773658Y-17740460D01*
X7773658Y-17740460D02*
X7764134Y-17730936D01*
X7964134Y-17549984D02*
X7964134Y-17588079D01*
X8040325Y-17549984D02*
X8040325Y-17588079D01*
X8335563Y-17826174D02*
X8326039Y-17816650D01*
X8326039Y-17816650D02*
X8306991Y-17788079D01*
X8306991Y-17788079D02*
X8297468Y-17769031D01*
X8297468Y-17769031D02*
X8287944Y-17740460D01*
X8287944Y-17740460D02*
X8278420Y-17692841D01*
X8278420Y-17692841D02*
X8278420Y-17654746D01*
X8278420Y-17654746D02*
X8287944Y-17607127D01*
X8287944Y-17607127D02*
X8297468Y-17578555D01*
X8297468Y-17578555D02*
X8306991Y-17559508D01*
X8306991Y-17559508D02*
X8326039Y-17530936D01*
X8326039Y-17530936D02*
X8335563Y-17521412D01*
X8516515Y-17749984D02*
X8402230Y-17749984D01*
X8459372Y-17749984D02*
X8459372Y-17549984D01*
X8459372Y-17549984D02*
X8440325Y-17578555D01*
X8440325Y-17578555D02*
X8421277Y-17597603D01*
X8421277Y-17597603D02*
X8402230Y-17607127D01*
X8754611Y-17749984D02*
X8754611Y-17549984D01*
X8840325Y-17749984D02*
X8840325Y-17645222D01*
X8840325Y-17645222D02*
X8830801Y-17626174D01*
X8830801Y-17626174D02*
X8811753Y-17616650D01*
X8811753Y-17616650D02*
X8783182Y-17616650D01*
X8783182Y-17616650D02*
X8764134Y-17626174D01*
X8764134Y-17626174D02*
X8754611Y-17635698D01*
X8964134Y-17749984D02*
X8945087Y-17740460D01*
X8945087Y-17740460D02*
X8935563Y-17730936D01*
X8935563Y-17730936D02*
X8926039Y-17711889D01*
X8926039Y-17711889D02*
X8926039Y-17654746D01*
X8926039Y-17654746D02*
X8935563Y-17635698D01*
X8935563Y-17635698D02*
X8945087Y-17626174D01*
X8945087Y-17626174D02*
X8964134Y-17616650D01*
X8964134Y-17616650D02*
X8992706Y-17616650D01*
X8992706Y-17616650D02*
X9011753Y-17626174D01*
X9011753Y-17626174D02*
X9021277Y-17635698D01*
X9021277Y-17635698D02*
X9030801Y-17654746D01*
X9030801Y-17654746D02*
X9030801Y-17711889D01*
X9030801Y-17711889D02*
X9021277Y-17730936D01*
X9021277Y-17730936D02*
X9011753Y-17740460D01*
X9011753Y-17740460D02*
X8992706Y-17749984D01*
X8992706Y-17749984D02*
X8964134Y-17749984D01*
X9145087Y-17749984D02*
X9126039Y-17740460D01*
X9126039Y-17740460D02*
X9116515Y-17721412D01*
X9116515Y-17721412D02*
X9116515Y-17549984D01*
X9297468Y-17740460D02*
X9278420Y-17749984D01*
X9278420Y-17749984D02*
X9240325Y-17749984D01*
X9240325Y-17749984D02*
X9221277Y-17740460D01*
X9221277Y-17740460D02*
X9211753Y-17721412D01*
X9211753Y-17721412D02*
X9211753Y-17645222D01*
X9211753Y-17645222D02*
X9221277Y-17626174D01*
X9221277Y-17626174D02*
X9240325Y-17616650D01*
X9240325Y-17616650D02*
X9278420Y-17616650D01*
X9278420Y-17616650D02*
X9297468Y-17626174D01*
X9297468Y-17626174D02*
X9306992Y-17645222D01*
X9306992Y-17645222D02*
X9306992Y-17664270D01*
X9306992Y-17664270D02*
X9211753Y-17683317D01*
X9373658Y-17826174D02*
X9383182Y-17816650D01*
X9383182Y-17816650D02*
X9402230Y-17788079D01*
X9402230Y-17788079D02*
X9411753Y-17769031D01*
X9411753Y-17769031D02*
X9421277Y-17740460D01*
X9421277Y-17740460D02*
X9430801Y-17692841D01*
X9430801Y-17692841D02*
X9430801Y-17654746D01*
X9430801Y-17654746D02*
X9421277Y-17607127D01*
X9421277Y-17607127D02*
X9411753Y-17578555D01*
X9411753Y-17578555D02*
X9402230Y-17559508D01*
X9402230Y-17559508D02*
X9383182Y-17530936D01*
X9383182Y-17530936D02*
X9373658Y-17521412D01*
X9735563Y-17826174D02*
X9726039Y-17816650D01*
X9726039Y-17816650D02*
X9706992Y-17788079D01*
X9706992Y-17788079D02*
X9697468Y-17769031D01*
X9697468Y-17769031D02*
X9687944Y-17740460D01*
X9687944Y-17740460D02*
X9678420Y-17692841D01*
X9678420Y-17692841D02*
X9678420Y-17654746D01*
X9678420Y-17654746D02*
X9687944Y-17607127D01*
X9687944Y-17607127D02*
X9697468Y-17578555D01*
X9697468Y-17578555D02*
X9706992Y-17559508D01*
X9706992Y-17559508D02*
X9726039Y-17530936D01*
X9726039Y-17530936D02*
X9735563Y-17521412D01*
X9811753Y-17616650D02*
X9811753Y-17749984D01*
X9811753Y-17635698D02*
X9821277Y-17626174D01*
X9821277Y-17626174D02*
X9840325Y-17616650D01*
X9840325Y-17616650D02*
X9868896Y-17616650D01*
X9868896Y-17616650D02*
X9887944Y-17626174D01*
X9887944Y-17626174D02*
X9897468Y-17645222D01*
X9897468Y-17645222D02*
X9897468Y-17749984D01*
X10021277Y-17749984D02*
X10002230Y-17740460D01*
X10002230Y-17740460D02*
X9992706Y-17730936D01*
X9992706Y-17730936D02*
X9983182Y-17711889D01*
X9983182Y-17711889D02*
X9983182Y-17654746D01*
X9983182Y-17654746D02*
X9992706Y-17635698D01*
X9992706Y-17635698D02*
X10002230Y-17626174D01*
X10002230Y-17626174D02*
X10021277Y-17616650D01*
X10021277Y-17616650D02*
X10049849Y-17616650D01*
X10049849Y-17616650D02*
X10068896Y-17626174D01*
X10068896Y-17626174D02*
X10078420Y-17635698D01*
X10078420Y-17635698D02*
X10087944Y-17654746D01*
X10087944Y-17654746D02*
X10087944Y-17711889D01*
X10087944Y-17711889D02*
X10078420Y-17730936D01*
X10078420Y-17730936D02*
X10068896Y-17740460D01*
X10068896Y-17740460D02*
X10049849Y-17749984D01*
X10049849Y-17749984D02*
X10021277Y-17749984D01*
X10145087Y-17616650D02*
X10221277Y-17616650D01*
X10173658Y-17549984D02*
X10173658Y-17721412D01*
X10173658Y-17721412D02*
X10183182Y-17740460D01*
X10183182Y-17740460D02*
X10202230Y-17749984D01*
X10202230Y-17749984D02*
X10221277Y-17749984D01*
X10440325Y-17616650D02*
X10440325Y-17816650D01*
X10440325Y-17626174D02*
X10459373Y-17616650D01*
X10459373Y-17616650D02*
X10497468Y-17616650D01*
X10497468Y-17616650D02*
X10516515Y-17626174D01*
X10516515Y-17626174D02*
X10526039Y-17635698D01*
X10526039Y-17635698D02*
X10535563Y-17654746D01*
X10535563Y-17654746D02*
X10535563Y-17711889D01*
X10535563Y-17711889D02*
X10526039Y-17730936D01*
X10526039Y-17730936D02*
X10516515Y-17740460D01*
X10516515Y-17740460D02*
X10497468Y-17749984D01*
X10497468Y-17749984D02*
X10459373Y-17749984D01*
X10459373Y-17749984D02*
X10440325Y-17740460D01*
X10649849Y-17749984D02*
X10630801Y-17740460D01*
X10630801Y-17740460D02*
X10621277Y-17721412D01*
X10621277Y-17721412D02*
X10621277Y-17549984D01*
X10811754Y-17749984D02*
X10811754Y-17645222D01*
X10811754Y-17645222D02*
X10802230Y-17626174D01*
X10802230Y-17626174D02*
X10783182Y-17616650D01*
X10783182Y-17616650D02*
X10745087Y-17616650D01*
X10745087Y-17616650D02*
X10726039Y-17626174D01*
X10811754Y-17740460D02*
X10792706Y-17749984D01*
X10792706Y-17749984D02*
X10745087Y-17749984D01*
X10745087Y-17749984D02*
X10726039Y-17740460D01*
X10726039Y-17740460D02*
X10716515Y-17721412D01*
X10716515Y-17721412D02*
X10716515Y-17702365D01*
X10716515Y-17702365D02*
X10726039Y-17683317D01*
X10726039Y-17683317D02*
X10745087Y-17673793D01*
X10745087Y-17673793D02*
X10792706Y-17673793D01*
X10792706Y-17673793D02*
X10811754Y-17664270D01*
X10878420Y-17616650D02*
X10954611Y-17616650D01*
X10906992Y-17549984D02*
X10906992Y-17721412D01*
X10906992Y-17721412D02*
X10916515Y-17740460D01*
X10916515Y-17740460D02*
X10935563Y-17749984D01*
X10935563Y-17749984D02*
X10954611Y-17749984D01*
X11097468Y-17740460D02*
X11078420Y-17749984D01*
X11078420Y-17749984D02*
X11040325Y-17749984D01*
X11040325Y-17749984D02*
X11021277Y-17740460D01*
X11021277Y-17740460D02*
X11011754Y-17721412D01*
X11011754Y-17721412D02*
X11011754Y-17645222D01*
X11011754Y-17645222D02*
X11021277Y-17626174D01*
X11021277Y-17626174D02*
X11040325Y-17616650D01*
X11040325Y-17616650D02*
X11078420Y-17616650D01*
X11078420Y-17616650D02*
X11097468Y-17626174D01*
X11097468Y-17626174D02*
X11106992Y-17645222D01*
X11106992Y-17645222D02*
X11106992Y-17664270D01*
X11106992Y-17664270D02*
X11011754Y-17683317D01*
X11278420Y-17749984D02*
X11278420Y-17549984D01*
X11278420Y-17740460D02*
X11259373Y-17749984D01*
X11259373Y-17749984D02*
X11221277Y-17749984D01*
X11221277Y-17749984D02*
X11202230Y-17740460D01*
X11202230Y-17740460D02*
X11192706Y-17730936D01*
X11192706Y-17730936D02*
X11183182Y-17711889D01*
X11183182Y-17711889D02*
X11183182Y-17654746D01*
X11183182Y-17654746D02*
X11192706Y-17635698D01*
X11192706Y-17635698D02*
X11202230Y-17626174D01*
X11202230Y-17626174D02*
X11221277Y-17616650D01*
X11221277Y-17616650D02*
X11259373Y-17616650D01*
X11259373Y-17616650D02*
X11278420Y-17626174D01*
X11354611Y-17826174D02*
X11364134Y-17816650D01*
X11364134Y-17816650D02*
X11383182Y-17788079D01*
X11383182Y-17788079D02*
X11392706Y-17769031D01*
X11392706Y-17769031D02*
X11402230Y-17740460D01*
X11402230Y-17740460D02*
X11411753Y-17692841D01*
X11411753Y-17692841D02*
X11411753Y-17654746D01*
X11411753Y-17654746D02*
X11402230Y-17607127D01*
X11402230Y-17607127D02*
X11392706Y-17578555D01*
X11392706Y-17578555D02*
X11383182Y-17559508D01*
X11383182Y-17559508D02*
X11364134Y-17530936D01*
X11364134Y-17530936D02*
X11354611Y-17521412D01*
D14*
X4690500Y-17852500D02*
X4690500Y-17992500D01*
X4620500Y-17922500D02*
X4760500Y-17922500D01*
D11*
X5126039Y-18013984D02*
X5011753Y-18013984D01*
X5068896Y-18013984D02*
X5068896Y-17813984D01*
X5068896Y-17813984D02*
X5049848Y-17842555D01*
X5049848Y-17842555D02*
X5030801Y-17861603D01*
X5030801Y-17861603D02*
X5011753Y-17871127D01*
X5211753Y-17994936D02*
X5221277Y-18004460D01*
X5221277Y-18004460D02*
X5211753Y-18013984D01*
X5211753Y-18013984D02*
X5202229Y-18004460D01*
X5202229Y-18004460D02*
X5211753Y-17994936D01*
X5211753Y-17994936D02*
X5211753Y-18013984D01*
X5392705Y-17880650D02*
X5392705Y-18013984D01*
X5345086Y-17804460D02*
X5297467Y-17947317D01*
X5297467Y-17947317D02*
X5421277Y-17947317D01*
X5535563Y-17813984D02*
X5554610Y-17813984D01*
X5554610Y-17813984D02*
X5573658Y-17823508D01*
X5573658Y-17823508D02*
X5583182Y-17833031D01*
X5583182Y-17833031D02*
X5592705Y-17852079D01*
X5592705Y-17852079D02*
X5602229Y-17890174D01*
X5602229Y-17890174D02*
X5602229Y-17937793D01*
X5602229Y-17937793D02*
X5592705Y-17975889D01*
X5592705Y-17975889D02*
X5583182Y-17994936D01*
X5583182Y-17994936D02*
X5573658Y-18004460D01*
X5573658Y-18004460D02*
X5554610Y-18013984D01*
X5554610Y-18013984D02*
X5535563Y-18013984D01*
X5535563Y-18013984D02*
X5516515Y-18004460D01*
X5516515Y-18004460D02*
X5506991Y-17994936D01*
X5506991Y-17994936D02*
X5497467Y-17975889D01*
X5497467Y-17975889D02*
X5487944Y-17937793D01*
X5487944Y-17937793D02*
X5487944Y-17890174D01*
X5487944Y-17890174D02*
X5497467Y-17852079D01*
X5497467Y-17852079D02*
X5506991Y-17833031D01*
X5506991Y-17833031D02*
X5516515Y-17823508D01*
X5516515Y-17823508D02*
X5535563Y-17813984D01*
X5726039Y-17813984D02*
X5745086Y-17813984D01*
X5745086Y-17813984D02*
X5764134Y-17823508D01*
X5764134Y-17823508D02*
X5773658Y-17833031D01*
X5773658Y-17833031D02*
X5783182Y-17852079D01*
X5783182Y-17852079D02*
X5792705Y-17890174D01*
X5792705Y-17890174D02*
X5792705Y-17937793D01*
X5792705Y-17937793D02*
X5783182Y-17975889D01*
X5783182Y-17975889D02*
X5773658Y-17994936D01*
X5773658Y-17994936D02*
X5764134Y-18004460D01*
X5764134Y-18004460D02*
X5745086Y-18013984D01*
X5745086Y-18013984D02*
X5726039Y-18013984D01*
X5726039Y-18013984D02*
X5706991Y-18004460D01*
X5706991Y-18004460D02*
X5697467Y-17994936D01*
X5697467Y-17994936D02*
X5687943Y-17975889D01*
X5687943Y-17975889D02*
X5678420Y-17937793D01*
X5678420Y-17937793D02*
X5678420Y-17890174D01*
X5678420Y-17890174D02*
X5687943Y-17852079D01*
X5687943Y-17852079D02*
X5697467Y-17833031D01*
X5697467Y-17833031D02*
X5706991Y-17823508D01*
X5706991Y-17823508D02*
X5726039Y-17813984D01*
X5878420Y-18013984D02*
X5878420Y-17880650D01*
X5878420Y-17899698D02*
X5887943Y-17890174D01*
X5887943Y-17890174D02*
X5906991Y-17880650D01*
X5906991Y-17880650D02*
X5935563Y-17880650D01*
X5935563Y-17880650D02*
X5954610Y-17890174D01*
X5954610Y-17890174D02*
X5964134Y-17909222D01*
X5964134Y-17909222D02*
X5964134Y-18013984D01*
X5964134Y-17909222D02*
X5973658Y-17890174D01*
X5973658Y-17890174D02*
X5992705Y-17880650D01*
X5992705Y-17880650D02*
X6021277Y-17880650D01*
X6021277Y-17880650D02*
X6040324Y-17890174D01*
X6040324Y-17890174D02*
X6049848Y-17909222D01*
X6049848Y-17909222D02*
X6049848Y-18013984D01*
X6145086Y-18013984D02*
X6145086Y-17880650D01*
X6145086Y-17899698D02*
X6154610Y-17890174D01*
X6154610Y-17890174D02*
X6173658Y-17880650D01*
X6173658Y-17880650D02*
X6202229Y-17880650D01*
X6202229Y-17880650D02*
X6221277Y-17890174D01*
X6221277Y-17890174D02*
X6230801Y-17909222D01*
X6230801Y-17909222D02*
X6230801Y-18013984D01*
X6230801Y-17909222D02*
X6240324Y-17890174D01*
X6240324Y-17890174D02*
X6259372Y-17880650D01*
X6259372Y-17880650D02*
X6287943Y-17880650D01*
X6287943Y-17880650D02*
X6306991Y-17890174D01*
X6306991Y-17890174D02*
X6316515Y-17909222D01*
X6316515Y-17909222D02*
X6316515Y-18013984D01*
X6706991Y-17804460D02*
X6535563Y-18061603D01*
X6964134Y-17813984D02*
X6983182Y-17813984D01*
X6983182Y-17813984D02*
X7002229Y-17823508D01*
X7002229Y-17823508D02*
X7011753Y-17833031D01*
X7011753Y-17833031D02*
X7021277Y-17852079D01*
X7021277Y-17852079D02*
X7030801Y-17890174D01*
X7030801Y-17890174D02*
X7030801Y-17937793D01*
X7030801Y-17937793D02*
X7021277Y-17975889D01*
X7021277Y-17975889D02*
X7011753Y-17994936D01*
X7011753Y-17994936D02*
X7002229Y-18004460D01*
X7002229Y-18004460D02*
X6983182Y-18013984D01*
X6983182Y-18013984D02*
X6964134Y-18013984D01*
X6964134Y-18013984D02*
X6945086Y-18004460D01*
X6945086Y-18004460D02*
X6935563Y-17994936D01*
X6935563Y-17994936D02*
X6926039Y-17975889D01*
X6926039Y-17975889D02*
X6916515Y-17937793D01*
X6916515Y-17937793D02*
X6916515Y-17890174D01*
X6916515Y-17890174D02*
X6926039Y-17852079D01*
X6926039Y-17852079D02*
X6935563Y-17833031D01*
X6935563Y-17833031D02*
X6945086Y-17823508D01*
X6945086Y-17823508D02*
X6964134Y-17813984D01*
X7116515Y-17994936D02*
X7126039Y-18004460D01*
X7126039Y-18004460D02*
X7116515Y-18013984D01*
X7116515Y-18013984D02*
X7106991Y-18004460D01*
X7106991Y-18004460D02*
X7116515Y-17994936D01*
X7116515Y-17994936D02*
X7116515Y-18013984D01*
X7249848Y-17813984D02*
X7268896Y-17813984D01*
X7268896Y-17813984D02*
X7287944Y-17823508D01*
X7287944Y-17823508D02*
X7297467Y-17833031D01*
X7297467Y-17833031D02*
X7306991Y-17852079D01*
X7306991Y-17852079D02*
X7316515Y-17890174D01*
X7316515Y-17890174D02*
X7316515Y-17937793D01*
X7316515Y-17937793D02*
X7306991Y-17975889D01*
X7306991Y-17975889D02*
X7297467Y-17994936D01*
X7297467Y-17994936D02*
X7287944Y-18004460D01*
X7287944Y-18004460D02*
X7268896Y-18013984D01*
X7268896Y-18013984D02*
X7249848Y-18013984D01*
X7249848Y-18013984D02*
X7230801Y-18004460D01*
X7230801Y-18004460D02*
X7221277Y-17994936D01*
X7221277Y-17994936D02*
X7211753Y-17975889D01*
X7211753Y-17975889D02*
X7202229Y-17937793D01*
X7202229Y-17937793D02*
X7202229Y-17890174D01*
X7202229Y-17890174D02*
X7211753Y-17852079D01*
X7211753Y-17852079D02*
X7221277Y-17833031D01*
X7221277Y-17833031D02*
X7230801Y-17823508D01*
X7230801Y-17823508D02*
X7249848Y-17813984D01*
X7497467Y-17813984D02*
X7402229Y-17813984D01*
X7402229Y-17813984D02*
X7392706Y-17909222D01*
X7392706Y-17909222D02*
X7402229Y-17899698D01*
X7402229Y-17899698D02*
X7421277Y-17890174D01*
X7421277Y-17890174D02*
X7468896Y-17890174D01*
X7468896Y-17890174D02*
X7487944Y-17899698D01*
X7487944Y-17899698D02*
X7497467Y-17909222D01*
X7497467Y-17909222D02*
X7506991Y-17928270D01*
X7506991Y-17928270D02*
X7506991Y-17975889D01*
X7506991Y-17975889D02*
X7497467Y-17994936D01*
X7497467Y-17994936D02*
X7487944Y-18004460D01*
X7487944Y-18004460D02*
X7468896Y-18013984D01*
X7468896Y-18013984D02*
X7421277Y-18013984D01*
X7421277Y-18013984D02*
X7402229Y-18004460D01*
X7402229Y-18004460D02*
X7392706Y-17994936D01*
X7687944Y-17813984D02*
X7592706Y-17813984D01*
X7592706Y-17813984D02*
X7583182Y-17909222D01*
X7583182Y-17909222D02*
X7592706Y-17899698D01*
X7592706Y-17899698D02*
X7611753Y-17890174D01*
X7611753Y-17890174D02*
X7659372Y-17890174D01*
X7659372Y-17890174D02*
X7678420Y-17899698D01*
X7678420Y-17899698D02*
X7687944Y-17909222D01*
X7687944Y-17909222D02*
X7697467Y-17928270D01*
X7697467Y-17928270D02*
X7697467Y-17975889D01*
X7697467Y-17975889D02*
X7687944Y-17994936D01*
X7687944Y-17994936D02*
X7678420Y-18004460D01*
X7678420Y-18004460D02*
X7659372Y-18013984D01*
X7659372Y-18013984D02*
X7611753Y-18013984D01*
X7611753Y-18013984D02*
X7592706Y-18004460D01*
X7592706Y-18004460D02*
X7583182Y-17994936D01*
X7887944Y-18013984D02*
X7773658Y-18013984D01*
X7830801Y-18013984D02*
X7830801Y-17813984D01*
X7830801Y-17813984D02*
X7811753Y-17842555D01*
X7811753Y-17842555D02*
X7792706Y-17861603D01*
X7792706Y-17861603D02*
X7773658Y-17871127D01*
X7964134Y-17813984D02*
X7964134Y-17852079D01*
X8040325Y-17813984D02*
X8040325Y-17852079D01*
X8335563Y-18090174D02*
X8326039Y-18080650D01*
X8326039Y-18080650D02*
X8306991Y-18052079D01*
X8306991Y-18052079D02*
X8297468Y-18033031D01*
X8297468Y-18033031D02*
X8287944Y-18004460D01*
X8287944Y-18004460D02*
X8278420Y-17956841D01*
X8278420Y-17956841D02*
X8278420Y-17918746D01*
X8278420Y-17918746D02*
X8287944Y-17871127D01*
X8287944Y-17871127D02*
X8297468Y-17842555D01*
X8297468Y-17842555D02*
X8306991Y-17823508D01*
X8306991Y-17823508D02*
X8326039Y-17794936D01*
X8326039Y-17794936D02*
X8335563Y-17785412D01*
X8402230Y-17833031D02*
X8411753Y-17823508D01*
X8411753Y-17823508D02*
X8430801Y-17813984D01*
X8430801Y-17813984D02*
X8478420Y-17813984D01*
X8478420Y-17813984D02*
X8497468Y-17823508D01*
X8497468Y-17823508D02*
X8506991Y-17833031D01*
X8506991Y-17833031D02*
X8516515Y-17852079D01*
X8516515Y-17852079D02*
X8516515Y-17871127D01*
X8516515Y-17871127D02*
X8506991Y-17899698D01*
X8506991Y-17899698D02*
X8392706Y-18013984D01*
X8392706Y-18013984D02*
X8516515Y-18013984D01*
X8754611Y-18013984D02*
X8754611Y-17813984D01*
X8840325Y-18013984D02*
X8840325Y-17909222D01*
X8840325Y-17909222D02*
X8830801Y-17890174D01*
X8830801Y-17890174D02*
X8811753Y-17880650D01*
X8811753Y-17880650D02*
X8783182Y-17880650D01*
X8783182Y-17880650D02*
X8764134Y-17890174D01*
X8764134Y-17890174D02*
X8754611Y-17899698D01*
X8964134Y-18013984D02*
X8945087Y-18004460D01*
X8945087Y-18004460D02*
X8935563Y-17994936D01*
X8935563Y-17994936D02*
X8926039Y-17975889D01*
X8926039Y-17975889D02*
X8926039Y-17918746D01*
X8926039Y-17918746D02*
X8935563Y-17899698D01*
X8935563Y-17899698D02*
X8945087Y-17890174D01*
X8945087Y-17890174D02*
X8964134Y-17880650D01*
X8964134Y-17880650D02*
X8992706Y-17880650D01*
X8992706Y-17880650D02*
X9011753Y-17890174D01*
X9011753Y-17890174D02*
X9021277Y-17899698D01*
X9021277Y-17899698D02*
X9030801Y-17918746D01*
X9030801Y-17918746D02*
X9030801Y-17975889D01*
X9030801Y-17975889D02*
X9021277Y-17994936D01*
X9021277Y-17994936D02*
X9011753Y-18004460D01*
X9011753Y-18004460D02*
X8992706Y-18013984D01*
X8992706Y-18013984D02*
X8964134Y-18013984D01*
X9145087Y-18013984D02*
X9126039Y-18004460D01*
X9126039Y-18004460D02*
X9116515Y-17985412D01*
X9116515Y-17985412D02*
X9116515Y-17813984D01*
X9297468Y-18004460D02*
X9278420Y-18013984D01*
X9278420Y-18013984D02*
X9240325Y-18013984D01*
X9240325Y-18013984D02*
X9221277Y-18004460D01*
X9221277Y-18004460D02*
X9211753Y-17985412D01*
X9211753Y-17985412D02*
X9211753Y-17909222D01*
X9211753Y-17909222D02*
X9221277Y-17890174D01*
X9221277Y-17890174D02*
X9240325Y-17880650D01*
X9240325Y-17880650D02*
X9278420Y-17880650D01*
X9278420Y-17880650D02*
X9297468Y-17890174D01*
X9297468Y-17890174D02*
X9306992Y-17909222D01*
X9306992Y-17909222D02*
X9306992Y-17928270D01*
X9306992Y-17928270D02*
X9211753Y-17947317D01*
X9383182Y-18004460D02*
X9402230Y-18013984D01*
X9402230Y-18013984D02*
X9440325Y-18013984D01*
X9440325Y-18013984D02*
X9459373Y-18004460D01*
X9459373Y-18004460D02*
X9468896Y-17985412D01*
X9468896Y-17985412D02*
X9468896Y-17975889D01*
X9468896Y-17975889D02*
X9459373Y-17956841D01*
X9459373Y-17956841D02*
X9440325Y-17947317D01*
X9440325Y-17947317D02*
X9411753Y-17947317D01*
X9411753Y-17947317D02*
X9392706Y-17937793D01*
X9392706Y-17937793D02*
X9383182Y-17918746D01*
X9383182Y-17918746D02*
X9383182Y-17909222D01*
X9383182Y-17909222D02*
X9392706Y-17890174D01*
X9392706Y-17890174D02*
X9411753Y-17880650D01*
X9411753Y-17880650D02*
X9440325Y-17880650D01*
X9440325Y-17880650D02*
X9459373Y-17890174D01*
X9535563Y-18090174D02*
X9545087Y-18080650D01*
X9545087Y-18080650D02*
X9564134Y-18052079D01*
X9564134Y-18052079D02*
X9573658Y-18033031D01*
X9573658Y-18033031D02*
X9583182Y-18004460D01*
X9583182Y-18004460D02*
X9592706Y-17956841D01*
X9592706Y-17956841D02*
X9592706Y-17918746D01*
X9592706Y-17918746D02*
X9583182Y-17871127D01*
X9583182Y-17871127D02*
X9573658Y-17842555D01*
X9573658Y-17842555D02*
X9564134Y-17823508D01*
X9564134Y-17823508D02*
X9545087Y-17794936D01*
X9545087Y-17794936D02*
X9535563Y-17785412D01*
X9897468Y-18090174D02*
X9887944Y-18080650D01*
X9887944Y-18080650D02*
X9868896Y-18052079D01*
X9868896Y-18052079D02*
X9859373Y-18033031D01*
X9859373Y-18033031D02*
X9849849Y-18004460D01*
X9849849Y-18004460D02*
X9840325Y-17956841D01*
X9840325Y-17956841D02*
X9840325Y-17918746D01*
X9840325Y-17918746D02*
X9849849Y-17871127D01*
X9849849Y-17871127D02*
X9859373Y-17842555D01*
X9859373Y-17842555D02*
X9868896Y-17823508D01*
X9868896Y-17823508D02*
X9887944Y-17794936D01*
X9887944Y-17794936D02*
X9897468Y-17785412D01*
X9973658Y-17880650D02*
X9973658Y-18013984D01*
X9973658Y-17899698D02*
X9983182Y-17890174D01*
X9983182Y-17890174D02*
X10002230Y-17880650D01*
X10002230Y-17880650D02*
X10030801Y-17880650D01*
X10030801Y-17880650D02*
X10049849Y-17890174D01*
X10049849Y-17890174D02*
X10059373Y-17909222D01*
X10059373Y-17909222D02*
X10059373Y-18013984D01*
X10183182Y-18013984D02*
X10164134Y-18004460D01*
X10164134Y-18004460D02*
X10154611Y-17994936D01*
X10154611Y-17994936D02*
X10145087Y-17975889D01*
X10145087Y-17975889D02*
X10145087Y-17918746D01*
X10145087Y-17918746D02*
X10154611Y-17899698D01*
X10154611Y-17899698D02*
X10164134Y-17890174D01*
X10164134Y-17890174D02*
X10183182Y-17880650D01*
X10183182Y-17880650D02*
X10211754Y-17880650D01*
X10211754Y-17880650D02*
X10230801Y-17890174D01*
X10230801Y-17890174D02*
X10240325Y-17899698D01*
X10240325Y-17899698D02*
X10249849Y-17918746D01*
X10249849Y-17918746D02*
X10249849Y-17975889D01*
X10249849Y-17975889D02*
X10240325Y-17994936D01*
X10240325Y-17994936D02*
X10230801Y-18004460D01*
X10230801Y-18004460D02*
X10211754Y-18013984D01*
X10211754Y-18013984D02*
X10183182Y-18013984D01*
X10306992Y-17880650D02*
X10383182Y-17880650D01*
X10335563Y-17813984D02*
X10335563Y-17985412D01*
X10335563Y-17985412D02*
X10345087Y-18004460D01*
X10345087Y-18004460D02*
X10364134Y-18013984D01*
X10364134Y-18013984D02*
X10383182Y-18013984D01*
X10602230Y-17880650D02*
X10602230Y-18080650D01*
X10602230Y-17890174D02*
X10621277Y-17880650D01*
X10621277Y-17880650D02*
X10659373Y-17880650D01*
X10659373Y-17880650D02*
X10678420Y-17890174D01*
X10678420Y-17890174D02*
X10687944Y-17899698D01*
X10687944Y-17899698D02*
X10697468Y-17918746D01*
X10697468Y-17918746D02*
X10697468Y-17975889D01*
X10697468Y-17975889D02*
X10687944Y-17994936D01*
X10687944Y-17994936D02*
X10678420Y-18004460D01*
X10678420Y-18004460D02*
X10659373Y-18013984D01*
X10659373Y-18013984D02*
X10621277Y-18013984D01*
X10621277Y-18013984D02*
X10602230Y-18004460D01*
X10811754Y-18013984D02*
X10792706Y-18004460D01*
X10792706Y-18004460D02*
X10783182Y-17985412D01*
X10783182Y-17985412D02*
X10783182Y-17813984D01*
X10973658Y-18013984D02*
X10973658Y-17909222D01*
X10973658Y-17909222D02*
X10964135Y-17890174D01*
X10964135Y-17890174D02*
X10945087Y-17880650D01*
X10945087Y-17880650D02*
X10906992Y-17880650D01*
X10906992Y-17880650D02*
X10887944Y-17890174D01*
X10973658Y-18004460D02*
X10954611Y-18013984D01*
X10954611Y-18013984D02*
X10906992Y-18013984D01*
X10906992Y-18013984D02*
X10887944Y-18004460D01*
X10887944Y-18004460D02*
X10878420Y-17985412D01*
X10878420Y-17985412D02*
X10878420Y-17966365D01*
X10878420Y-17966365D02*
X10887944Y-17947317D01*
X10887944Y-17947317D02*
X10906992Y-17937793D01*
X10906992Y-17937793D02*
X10954611Y-17937793D01*
X10954611Y-17937793D02*
X10973658Y-17928270D01*
X11040325Y-17880650D02*
X11116515Y-17880650D01*
X11068896Y-17813984D02*
X11068896Y-17985412D01*
X11068896Y-17985412D02*
X11078420Y-18004460D01*
X11078420Y-18004460D02*
X11097468Y-18013984D01*
X11097468Y-18013984D02*
X11116515Y-18013984D01*
X11259373Y-18004460D02*
X11240325Y-18013984D01*
X11240325Y-18013984D02*
X11202230Y-18013984D01*
X11202230Y-18013984D02*
X11183182Y-18004460D01*
X11183182Y-18004460D02*
X11173658Y-17985412D01*
X11173658Y-17985412D02*
X11173658Y-17909222D01*
X11173658Y-17909222D02*
X11183182Y-17890174D01*
X11183182Y-17890174D02*
X11202230Y-17880650D01*
X11202230Y-17880650D02*
X11240325Y-17880650D01*
X11240325Y-17880650D02*
X11259373Y-17890174D01*
X11259373Y-17890174D02*
X11268896Y-17909222D01*
X11268896Y-17909222D02*
X11268896Y-17928270D01*
X11268896Y-17928270D02*
X11173658Y-17947317D01*
X11440325Y-18013984D02*
X11440325Y-17813984D01*
X11440325Y-18004460D02*
X11421277Y-18013984D01*
X11421277Y-18013984D02*
X11383182Y-18013984D01*
X11383182Y-18013984D02*
X11364134Y-18004460D01*
X11364134Y-18004460D02*
X11354611Y-17994936D01*
X11354611Y-17994936D02*
X11345087Y-17975889D01*
X11345087Y-17975889D02*
X11345087Y-17918746D01*
X11345087Y-17918746D02*
X11354611Y-17899698D01*
X11354611Y-17899698D02*
X11364134Y-17890174D01*
X11364134Y-17890174D02*
X11383182Y-17880650D01*
X11383182Y-17880650D02*
X11421277Y-17880650D01*
X11421277Y-17880650D02*
X11440325Y-17890174D01*
X11516515Y-18090174D02*
X11526039Y-18080650D01*
X11526039Y-18080650D02*
X11545087Y-18052079D01*
X11545087Y-18052079D02*
X11554611Y-18033031D01*
X11554611Y-18033031D02*
X11564134Y-18004460D01*
X11564134Y-18004460D02*
X11573658Y-17956841D01*
X11573658Y-17956841D02*
X11573658Y-17918746D01*
X11573658Y-17918746D02*
X11564134Y-17871127D01*
X11564134Y-17871127D02*
X11554611Y-17842555D01*
X11554611Y-17842555D02*
X11545087Y-17823508D01*
X11545087Y-17823508D02*
X11526039Y-17794936D01*
X11526039Y-17794936D02*
X11516515Y-17785412D01*
D15*
X4737069Y-18243069D02*
X4737069Y-18129931D01*
X4623931Y-18129931D01*
X4623931Y-18243069D01*
X4737069Y-18243069D01*
D11*
X5126039Y-18277984D02*
X5011753Y-18277984D01*
X5068896Y-18277984D02*
X5068896Y-18077984D01*
X5068896Y-18077984D02*
X5049848Y-18106555D01*
X5049848Y-18106555D02*
X5030801Y-18125603D01*
X5030801Y-18125603D02*
X5011753Y-18135127D01*
X5211753Y-18258936D02*
X5221277Y-18268460D01*
X5221277Y-18268460D02*
X5211753Y-18277984D01*
X5211753Y-18277984D02*
X5202229Y-18268460D01*
X5202229Y-18268460D02*
X5211753Y-18258936D01*
X5211753Y-18258936D02*
X5211753Y-18277984D01*
X5392705Y-18077984D02*
X5354610Y-18077984D01*
X5354610Y-18077984D02*
X5335563Y-18087508D01*
X5335563Y-18087508D02*
X5326039Y-18097031D01*
X5326039Y-18097031D02*
X5306991Y-18125603D01*
X5306991Y-18125603D02*
X5297467Y-18163698D01*
X5297467Y-18163698D02*
X5297467Y-18239889D01*
X5297467Y-18239889D02*
X5306991Y-18258936D01*
X5306991Y-18258936D02*
X5316515Y-18268460D01*
X5316515Y-18268460D02*
X5335563Y-18277984D01*
X5335563Y-18277984D02*
X5373658Y-18277984D01*
X5373658Y-18277984D02*
X5392705Y-18268460D01*
X5392705Y-18268460D02*
X5402229Y-18258936D01*
X5402229Y-18258936D02*
X5411753Y-18239889D01*
X5411753Y-18239889D02*
X5411753Y-18192270D01*
X5411753Y-18192270D02*
X5402229Y-18173222D01*
X5402229Y-18173222D02*
X5392705Y-18163698D01*
X5392705Y-18163698D02*
X5373658Y-18154174D01*
X5373658Y-18154174D02*
X5335563Y-18154174D01*
X5335563Y-18154174D02*
X5316515Y-18163698D01*
X5316515Y-18163698D02*
X5306991Y-18173222D01*
X5306991Y-18173222D02*
X5297467Y-18192270D01*
X5535563Y-18077984D02*
X5554610Y-18077984D01*
X5554610Y-18077984D02*
X5573658Y-18087508D01*
X5573658Y-18087508D02*
X5583182Y-18097031D01*
X5583182Y-18097031D02*
X5592705Y-18116079D01*
X5592705Y-18116079D02*
X5602229Y-18154174D01*
X5602229Y-18154174D02*
X5602229Y-18201793D01*
X5602229Y-18201793D02*
X5592705Y-18239889D01*
X5592705Y-18239889D02*
X5583182Y-18258936D01*
X5583182Y-18258936D02*
X5573658Y-18268460D01*
X5573658Y-18268460D02*
X5554610Y-18277984D01*
X5554610Y-18277984D02*
X5535563Y-18277984D01*
X5535563Y-18277984D02*
X5516515Y-18268460D01*
X5516515Y-18268460D02*
X5506991Y-18258936D01*
X5506991Y-18258936D02*
X5497467Y-18239889D01*
X5497467Y-18239889D02*
X5487944Y-18201793D01*
X5487944Y-18201793D02*
X5487944Y-18154174D01*
X5487944Y-18154174D02*
X5497467Y-18116079D01*
X5497467Y-18116079D02*
X5506991Y-18097031D01*
X5506991Y-18097031D02*
X5516515Y-18087508D01*
X5516515Y-18087508D02*
X5535563Y-18077984D01*
X5726039Y-18077984D02*
X5745086Y-18077984D01*
X5745086Y-18077984D02*
X5764134Y-18087508D01*
X5764134Y-18087508D02*
X5773658Y-18097031D01*
X5773658Y-18097031D02*
X5783182Y-18116079D01*
X5783182Y-18116079D02*
X5792705Y-18154174D01*
X5792705Y-18154174D02*
X5792705Y-18201793D01*
X5792705Y-18201793D02*
X5783182Y-18239889D01*
X5783182Y-18239889D02*
X5773658Y-18258936D01*
X5773658Y-18258936D02*
X5764134Y-18268460D01*
X5764134Y-18268460D02*
X5745086Y-18277984D01*
X5745086Y-18277984D02*
X5726039Y-18277984D01*
X5726039Y-18277984D02*
X5706991Y-18268460D01*
X5706991Y-18268460D02*
X5697467Y-18258936D01*
X5697467Y-18258936D02*
X5687943Y-18239889D01*
X5687943Y-18239889D02*
X5678420Y-18201793D01*
X5678420Y-18201793D02*
X5678420Y-18154174D01*
X5678420Y-18154174D02*
X5687943Y-18116079D01*
X5687943Y-18116079D02*
X5697467Y-18097031D01*
X5697467Y-18097031D02*
X5706991Y-18087508D01*
X5706991Y-18087508D02*
X5726039Y-18077984D01*
X5878420Y-18277984D02*
X5878420Y-18144650D01*
X5878420Y-18163698D02*
X5887943Y-18154174D01*
X5887943Y-18154174D02*
X5906991Y-18144650D01*
X5906991Y-18144650D02*
X5935563Y-18144650D01*
X5935563Y-18144650D02*
X5954610Y-18154174D01*
X5954610Y-18154174D02*
X5964134Y-18173222D01*
X5964134Y-18173222D02*
X5964134Y-18277984D01*
X5964134Y-18173222D02*
X5973658Y-18154174D01*
X5973658Y-18154174D02*
X5992705Y-18144650D01*
X5992705Y-18144650D02*
X6021277Y-18144650D01*
X6021277Y-18144650D02*
X6040324Y-18154174D01*
X6040324Y-18154174D02*
X6049848Y-18173222D01*
X6049848Y-18173222D02*
X6049848Y-18277984D01*
X6145086Y-18277984D02*
X6145086Y-18144650D01*
X6145086Y-18163698D02*
X6154610Y-18154174D01*
X6154610Y-18154174D02*
X6173658Y-18144650D01*
X6173658Y-18144650D02*
X6202229Y-18144650D01*
X6202229Y-18144650D02*
X6221277Y-18154174D01*
X6221277Y-18154174D02*
X6230801Y-18173222D01*
X6230801Y-18173222D02*
X6230801Y-18277984D01*
X6230801Y-18173222D02*
X6240324Y-18154174D01*
X6240324Y-18154174D02*
X6259372Y-18144650D01*
X6259372Y-18144650D02*
X6287943Y-18144650D01*
X6287943Y-18144650D02*
X6306991Y-18154174D01*
X6306991Y-18154174D02*
X6316515Y-18173222D01*
X6316515Y-18173222D02*
X6316515Y-18277984D01*
X6706991Y-18068460D02*
X6535563Y-18325603D01*
X6964134Y-18077984D02*
X6983182Y-18077984D01*
X6983182Y-18077984D02*
X7002229Y-18087508D01*
X7002229Y-18087508D02*
X7011753Y-18097031D01*
X7011753Y-18097031D02*
X7021277Y-18116079D01*
X7021277Y-18116079D02*
X7030801Y-18154174D01*
X7030801Y-18154174D02*
X7030801Y-18201793D01*
X7030801Y-18201793D02*
X7021277Y-18239889D01*
X7021277Y-18239889D02*
X7011753Y-18258936D01*
X7011753Y-18258936D02*
X7002229Y-18268460D01*
X7002229Y-18268460D02*
X6983182Y-18277984D01*
X6983182Y-18277984D02*
X6964134Y-18277984D01*
X6964134Y-18277984D02*
X6945086Y-18268460D01*
X6945086Y-18268460D02*
X6935563Y-18258936D01*
X6935563Y-18258936D02*
X6926039Y-18239889D01*
X6926039Y-18239889D02*
X6916515Y-18201793D01*
X6916515Y-18201793D02*
X6916515Y-18154174D01*
X6916515Y-18154174D02*
X6926039Y-18116079D01*
X6926039Y-18116079D02*
X6935563Y-18097031D01*
X6935563Y-18097031D02*
X6945086Y-18087508D01*
X6945086Y-18087508D02*
X6964134Y-18077984D01*
X7116515Y-18258936D02*
X7126039Y-18268460D01*
X7126039Y-18268460D02*
X7116515Y-18277984D01*
X7116515Y-18277984D02*
X7106991Y-18268460D01*
X7106991Y-18268460D02*
X7116515Y-18258936D01*
X7116515Y-18258936D02*
X7116515Y-18277984D01*
X7249848Y-18077984D02*
X7268896Y-18077984D01*
X7268896Y-18077984D02*
X7287944Y-18087508D01*
X7287944Y-18087508D02*
X7297467Y-18097031D01*
X7297467Y-18097031D02*
X7306991Y-18116079D01*
X7306991Y-18116079D02*
X7316515Y-18154174D01*
X7316515Y-18154174D02*
X7316515Y-18201793D01*
X7316515Y-18201793D02*
X7306991Y-18239889D01*
X7306991Y-18239889D02*
X7297467Y-18258936D01*
X7297467Y-18258936D02*
X7287944Y-18268460D01*
X7287944Y-18268460D02*
X7268896Y-18277984D01*
X7268896Y-18277984D02*
X7249848Y-18277984D01*
X7249848Y-18277984D02*
X7230801Y-18268460D01*
X7230801Y-18268460D02*
X7221277Y-18258936D01*
X7221277Y-18258936D02*
X7211753Y-18239889D01*
X7211753Y-18239889D02*
X7202229Y-18201793D01*
X7202229Y-18201793D02*
X7202229Y-18154174D01*
X7202229Y-18154174D02*
X7211753Y-18116079D01*
X7211753Y-18116079D02*
X7221277Y-18097031D01*
X7221277Y-18097031D02*
X7230801Y-18087508D01*
X7230801Y-18087508D02*
X7249848Y-18077984D01*
X7487944Y-18077984D02*
X7449848Y-18077984D01*
X7449848Y-18077984D02*
X7430801Y-18087508D01*
X7430801Y-18087508D02*
X7421277Y-18097031D01*
X7421277Y-18097031D02*
X7402229Y-18125603D01*
X7402229Y-18125603D02*
X7392706Y-18163698D01*
X7392706Y-18163698D02*
X7392706Y-18239889D01*
X7392706Y-18239889D02*
X7402229Y-18258936D01*
X7402229Y-18258936D02*
X7411753Y-18268460D01*
X7411753Y-18268460D02*
X7430801Y-18277984D01*
X7430801Y-18277984D02*
X7468896Y-18277984D01*
X7468896Y-18277984D02*
X7487944Y-18268460D01*
X7487944Y-18268460D02*
X7497467Y-18258936D01*
X7497467Y-18258936D02*
X7506991Y-18239889D01*
X7506991Y-18239889D02*
X7506991Y-18192270D01*
X7506991Y-18192270D02*
X7497467Y-18173222D01*
X7497467Y-18173222D02*
X7487944Y-18163698D01*
X7487944Y-18163698D02*
X7468896Y-18154174D01*
X7468896Y-18154174D02*
X7430801Y-18154174D01*
X7430801Y-18154174D02*
X7411753Y-18163698D01*
X7411753Y-18163698D02*
X7402229Y-18173222D01*
X7402229Y-18173222D02*
X7392706Y-18192270D01*
X7573658Y-18077984D02*
X7697467Y-18077984D01*
X7697467Y-18077984D02*
X7630801Y-18154174D01*
X7630801Y-18154174D02*
X7659372Y-18154174D01*
X7659372Y-18154174D02*
X7678420Y-18163698D01*
X7678420Y-18163698D02*
X7687944Y-18173222D01*
X7687944Y-18173222D02*
X7697467Y-18192270D01*
X7697467Y-18192270D02*
X7697467Y-18239889D01*
X7697467Y-18239889D02*
X7687944Y-18258936D01*
X7687944Y-18258936D02*
X7678420Y-18268460D01*
X7678420Y-18268460D02*
X7659372Y-18277984D01*
X7659372Y-18277984D02*
X7602229Y-18277984D01*
X7602229Y-18277984D02*
X7583182Y-18268460D01*
X7583182Y-18268460D02*
X7573658Y-18258936D01*
X7821277Y-18077984D02*
X7840325Y-18077984D01*
X7840325Y-18077984D02*
X7859372Y-18087508D01*
X7859372Y-18087508D02*
X7868896Y-18097031D01*
X7868896Y-18097031D02*
X7878420Y-18116079D01*
X7878420Y-18116079D02*
X7887944Y-18154174D01*
X7887944Y-18154174D02*
X7887944Y-18201793D01*
X7887944Y-18201793D02*
X7878420Y-18239889D01*
X7878420Y-18239889D02*
X7868896Y-18258936D01*
X7868896Y-18258936D02*
X7859372Y-18268460D01*
X7859372Y-18268460D02*
X7840325Y-18277984D01*
X7840325Y-18277984D02*
X7821277Y-18277984D01*
X7821277Y-18277984D02*
X7802229Y-18268460D01*
X7802229Y-18268460D02*
X7792706Y-18258936D01*
X7792706Y-18258936D02*
X7783182Y-18239889D01*
X7783182Y-18239889D02*
X7773658Y-18201793D01*
X7773658Y-18201793D02*
X7773658Y-18154174D01*
X7773658Y-18154174D02*
X7783182Y-18116079D01*
X7783182Y-18116079D02*
X7792706Y-18097031D01*
X7792706Y-18097031D02*
X7802229Y-18087508D01*
X7802229Y-18087508D02*
X7821277Y-18077984D01*
X7964134Y-18077984D02*
X7964134Y-18116079D01*
X8040325Y-18077984D02*
X8040325Y-18116079D01*
X8335563Y-18354174D02*
X8326039Y-18344650D01*
X8326039Y-18344650D02*
X8306991Y-18316079D01*
X8306991Y-18316079D02*
X8297468Y-18297031D01*
X8297468Y-18297031D02*
X8287944Y-18268460D01*
X8287944Y-18268460D02*
X8278420Y-18220841D01*
X8278420Y-18220841D02*
X8278420Y-18182746D01*
X8278420Y-18182746D02*
X8287944Y-18135127D01*
X8287944Y-18135127D02*
X8297468Y-18106555D01*
X8297468Y-18106555D02*
X8306991Y-18087508D01*
X8306991Y-18087508D02*
X8326039Y-18058936D01*
X8326039Y-18058936D02*
X8335563Y-18049412D01*
X8516515Y-18277984D02*
X8402230Y-18277984D01*
X8459372Y-18277984D02*
X8459372Y-18077984D01*
X8459372Y-18077984D02*
X8440325Y-18106555D01*
X8440325Y-18106555D02*
X8421277Y-18125603D01*
X8421277Y-18125603D02*
X8402230Y-18135127D01*
X8754611Y-18277984D02*
X8754611Y-18077984D01*
X8840325Y-18277984D02*
X8840325Y-18173222D01*
X8840325Y-18173222D02*
X8830801Y-18154174D01*
X8830801Y-18154174D02*
X8811753Y-18144650D01*
X8811753Y-18144650D02*
X8783182Y-18144650D01*
X8783182Y-18144650D02*
X8764134Y-18154174D01*
X8764134Y-18154174D02*
X8754611Y-18163698D01*
X8964134Y-18277984D02*
X8945087Y-18268460D01*
X8945087Y-18268460D02*
X8935563Y-18258936D01*
X8935563Y-18258936D02*
X8926039Y-18239889D01*
X8926039Y-18239889D02*
X8926039Y-18182746D01*
X8926039Y-18182746D02*
X8935563Y-18163698D01*
X8935563Y-18163698D02*
X8945087Y-18154174D01*
X8945087Y-18154174D02*
X8964134Y-18144650D01*
X8964134Y-18144650D02*
X8992706Y-18144650D01*
X8992706Y-18144650D02*
X9011753Y-18154174D01*
X9011753Y-18154174D02*
X9021277Y-18163698D01*
X9021277Y-18163698D02*
X9030801Y-18182746D01*
X9030801Y-18182746D02*
X9030801Y-18239889D01*
X9030801Y-18239889D02*
X9021277Y-18258936D01*
X9021277Y-18258936D02*
X9011753Y-18268460D01*
X9011753Y-18268460D02*
X8992706Y-18277984D01*
X8992706Y-18277984D02*
X8964134Y-18277984D01*
X9145087Y-18277984D02*
X9126039Y-18268460D01*
X9126039Y-18268460D02*
X9116515Y-18249412D01*
X9116515Y-18249412D02*
X9116515Y-18077984D01*
X9297468Y-18268460D02*
X9278420Y-18277984D01*
X9278420Y-18277984D02*
X9240325Y-18277984D01*
X9240325Y-18277984D02*
X9221277Y-18268460D01*
X9221277Y-18268460D02*
X9211753Y-18249412D01*
X9211753Y-18249412D02*
X9211753Y-18173222D01*
X9211753Y-18173222D02*
X9221277Y-18154174D01*
X9221277Y-18154174D02*
X9240325Y-18144650D01*
X9240325Y-18144650D02*
X9278420Y-18144650D01*
X9278420Y-18144650D02*
X9297468Y-18154174D01*
X9297468Y-18154174D02*
X9306992Y-18173222D01*
X9306992Y-18173222D02*
X9306992Y-18192270D01*
X9306992Y-18192270D02*
X9211753Y-18211317D01*
X9373658Y-18354174D02*
X9383182Y-18344650D01*
X9383182Y-18344650D02*
X9402230Y-18316079D01*
X9402230Y-18316079D02*
X9411753Y-18297031D01*
X9411753Y-18297031D02*
X9421277Y-18268460D01*
X9421277Y-18268460D02*
X9430801Y-18220841D01*
X9430801Y-18220841D02*
X9430801Y-18182746D01*
X9430801Y-18182746D02*
X9421277Y-18135127D01*
X9421277Y-18135127D02*
X9411753Y-18106555D01*
X9411753Y-18106555D02*
X9402230Y-18087508D01*
X9402230Y-18087508D02*
X9383182Y-18058936D01*
X9383182Y-18058936D02*
X9373658Y-18049412D01*
X9735563Y-18354174D02*
X9726039Y-18344650D01*
X9726039Y-18344650D02*
X9706992Y-18316079D01*
X9706992Y-18316079D02*
X9697468Y-18297031D01*
X9697468Y-18297031D02*
X9687944Y-18268460D01*
X9687944Y-18268460D02*
X9678420Y-18220841D01*
X9678420Y-18220841D02*
X9678420Y-18182746D01*
X9678420Y-18182746D02*
X9687944Y-18135127D01*
X9687944Y-18135127D02*
X9697468Y-18106555D01*
X9697468Y-18106555D02*
X9706992Y-18087508D01*
X9706992Y-18087508D02*
X9726039Y-18058936D01*
X9726039Y-18058936D02*
X9735563Y-18049412D01*
X9811753Y-18144650D02*
X9811753Y-18277984D01*
X9811753Y-18163698D02*
X9821277Y-18154174D01*
X9821277Y-18154174D02*
X9840325Y-18144650D01*
X9840325Y-18144650D02*
X9868896Y-18144650D01*
X9868896Y-18144650D02*
X9887944Y-18154174D01*
X9887944Y-18154174D02*
X9897468Y-18173222D01*
X9897468Y-18173222D02*
X9897468Y-18277984D01*
X10021277Y-18277984D02*
X10002230Y-18268460D01*
X10002230Y-18268460D02*
X9992706Y-18258936D01*
X9992706Y-18258936D02*
X9983182Y-18239889D01*
X9983182Y-18239889D02*
X9983182Y-18182746D01*
X9983182Y-18182746D02*
X9992706Y-18163698D01*
X9992706Y-18163698D02*
X10002230Y-18154174D01*
X10002230Y-18154174D02*
X10021277Y-18144650D01*
X10021277Y-18144650D02*
X10049849Y-18144650D01*
X10049849Y-18144650D02*
X10068896Y-18154174D01*
X10068896Y-18154174D02*
X10078420Y-18163698D01*
X10078420Y-18163698D02*
X10087944Y-18182746D01*
X10087944Y-18182746D02*
X10087944Y-18239889D01*
X10087944Y-18239889D02*
X10078420Y-18258936D01*
X10078420Y-18258936D02*
X10068896Y-18268460D01*
X10068896Y-18268460D02*
X10049849Y-18277984D01*
X10049849Y-18277984D02*
X10021277Y-18277984D01*
X10145087Y-18144650D02*
X10221277Y-18144650D01*
X10173658Y-18077984D02*
X10173658Y-18249412D01*
X10173658Y-18249412D02*
X10183182Y-18268460D01*
X10183182Y-18268460D02*
X10202230Y-18277984D01*
X10202230Y-18277984D02*
X10221277Y-18277984D01*
X10440325Y-18144650D02*
X10440325Y-18344650D01*
X10440325Y-18154174D02*
X10459373Y-18144650D01*
X10459373Y-18144650D02*
X10497468Y-18144650D01*
X10497468Y-18144650D02*
X10516515Y-18154174D01*
X10516515Y-18154174D02*
X10526039Y-18163698D01*
X10526039Y-18163698D02*
X10535563Y-18182746D01*
X10535563Y-18182746D02*
X10535563Y-18239889D01*
X10535563Y-18239889D02*
X10526039Y-18258936D01*
X10526039Y-18258936D02*
X10516515Y-18268460D01*
X10516515Y-18268460D02*
X10497468Y-18277984D01*
X10497468Y-18277984D02*
X10459373Y-18277984D01*
X10459373Y-18277984D02*
X10440325Y-18268460D01*
X10649849Y-18277984D02*
X10630801Y-18268460D01*
X10630801Y-18268460D02*
X10621277Y-18249412D01*
X10621277Y-18249412D02*
X10621277Y-18077984D01*
X10811754Y-18277984D02*
X10811754Y-18173222D01*
X10811754Y-18173222D02*
X10802230Y-18154174D01*
X10802230Y-18154174D02*
X10783182Y-18144650D01*
X10783182Y-18144650D02*
X10745087Y-18144650D01*
X10745087Y-18144650D02*
X10726039Y-18154174D01*
X10811754Y-18268460D02*
X10792706Y-18277984D01*
X10792706Y-18277984D02*
X10745087Y-18277984D01*
X10745087Y-18277984D02*
X10726039Y-18268460D01*
X10726039Y-18268460D02*
X10716515Y-18249412D01*
X10716515Y-18249412D02*
X10716515Y-18230365D01*
X10716515Y-18230365D02*
X10726039Y-18211317D01*
X10726039Y-18211317D02*
X10745087Y-18201793D01*
X10745087Y-18201793D02*
X10792706Y-18201793D01*
X10792706Y-18201793D02*
X10811754Y-18192270D01*
X10878420Y-18144650D02*
X10954611Y-18144650D01*
X10906992Y-18077984D02*
X10906992Y-18249412D01*
X10906992Y-18249412D02*
X10916515Y-18268460D01*
X10916515Y-18268460D02*
X10935563Y-18277984D01*
X10935563Y-18277984D02*
X10954611Y-18277984D01*
X11097468Y-18268460D02*
X11078420Y-18277984D01*
X11078420Y-18277984D02*
X11040325Y-18277984D01*
X11040325Y-18277984D02*
X11021277Y-18268460D01*
X11021277Y-18268460D02*
X11011754Y-18249412D01*
X11011754Y-18249412D02*
X11011754Y-18173222D01*
X11011754Y-18173222D02*
X11021277Y-18154174D01*
X11021277Y-18154174D02*
X11040325Y-18144650D01*
X11040325Y-18144650D02*
X11078420Y-18144650D01*
X11078420Y-18144650D02*
X11097468Y-18154174D01*
X11097468Y-18154174D02*
X11106992Y-18173222D01*
X11106992Y-18173222D02*
X11106992Y-18192270D01*
X11106992Y-18192270D02*
X11011754Y-18211317D01*
X11278420Y-18277984D02*
X11278420Y-18077984D01*
X11278420Y-18268460D02*
X11259373Y-18277984D01*
X11259373Y-18277984D02*
X11221277Y-18277984D01*
X11221277Y-18277984D02*
X11202230Y-18268460D01*
X11202230Y-18268460D02*
X11192706Y-18258936D01*
X11192706Y-18258936D02*
X11183182Y-18239889D01*
X11183182Y-18239889D02*
X11183182Y-18182746D01*
X11183182Y-18182746D02*
X11192706Y-18163698D01*
X11192706Y-18163698D02*
X11202230Y-18154174D01*
X11202230Y-18154174D02*
X11221277Y-18144650D01*
X11221277Y-18144650D02*
X11259373Y-18144650D01*
X11259373Y-18144650D02*
X11278420Y-18154174D01*
X11354611Y-18354174D02*
X11364134Y-18344650D01*
X11364134Y-18344650D02*
X11383182Y-18316079D01*
X11383182Y-18316079D02*
X11392706Y-18297031D01*
X11392706Y-18297031D02*
X11402230Y-18268460D01*
X11402230Y-18268460D02*
X11411753Y-18220841D01*
X11411753Y-18220841D02*
X11411753Y-18182746D01*
X11411753Y-18182746D02*
X11402230Y-18135127D01*
X11402230Y-18135127D02*
X11392706Y-18106555D01*
X11392706Y-18106555D02*
X11383182Y-18087508D01*
X11383182Y-18087508D02*
X11364134Y-18058936D01*
X11364134Y-18058936D02*
X11354611Y-18049412D01*
X4660500Y-18566500D02*
X4760500Y-18466500D01*
X4660500Y-18366500D01*
X4560500Y-18466500D01*
X4660500Y-18566500D01*
X5002229Y-18357984D02*
X5126039Y-18357984D01*
X5126039Y-18357984D02*
X5059372Y-18434174D01*
X5059372Y-18434174D02*
X5087944Y-18434174D01*
X5087944Y-18434174D02*
X5106991Y-18443698D01*
X5106991Y-18443698D02*
X5116515Y-18453222D01*
X5116515Y-18453222D02*
X5126039Y-18472270D01*
X5126039Y-18472270D02*
X5126039Y-18519889D01*
X5126039Y-18519889D02*
X5116515Y-18538936D01*
X5116515Y-18538936D02*
X5106991Y-18548460D01*
X5106991Y-18548460D02*
X5087944Y-18557984D01*
X5087944Y-18557984D02*
X5030801Y-18557984D01*
X5030801Y-18557984D02*
X5011753Y-18548460D01*
X5011753Y-18548460D02*
X5002229Y-18538936D01*
X5211753Y-18538936D02*
X5221277Y-18548460D01*
X5221277Y-18548460D02*
X5211753Y-18557984D01*
X5211753Y-18557984D02*
X5202229Y-18548460D01*
X5202229Y-18548460D02*
X5211753Y-18538936D01*
X5211753Y-18538936D02*
X5211753Y-18557984D01*
X5297467Y-18377031D02*
X5306991Y-18367508D01*
X5306991Y-18367508D02*
X5326039Y-18357984D01*
X5326039Y-18357984D02*
X5373658Y-18357984D01*
X5373658Y-18357984D02*
X5392705Y-18367508D01*
X5392705Y-18367508D02*
X5402229Y-18377031D01*
X5402229Y-18377031D02*
X5411753Y-18396079D01*
X5411753Y-18396079D02*
X5411753Y-18415127D01*
X5411753Y-18415127D02*
X5402229Y-18443698D01*
X5402229Y-18443698D02*
X5287944Y-18557984D01*
X5287944Y-18557984D02*
X5411753Y-18557984D01*
X5535563Y-18357984D02*
X5554610Y-18357984D01*
X5554610Y-18357984D02*
X5573658Y-18367508D01*
X5573658Y-18367508D02*
X5583182Y-18377031D01*
X5583182Y-18377031D02*
X5592705Y-18396079D01*
X5592705Y-18396079D02*
X5602229Y-18434174D01*
X5602229Y-18434174D02*
X5602229Y-18481793D01*
X5602229Y-18481793D02*
X5592705Y-18519889D01*
X5592705Y-18519889D02*
X5583182Y-18538936D01*
X5583182Y-18538936D02*
X5573658Y-18548460D01*
X5573658Y-18548460D02*
X5554610Y-18557984D01*
X5554610Y-18557984D02*
X5535563Y-18557984D01*
X5535563Y-18557984D02*
X5516515Y-18548460D01*
X5516515Y-18548460D02*
X5506991Y-18538936D01*
X5506991Y-18538936D02*
X5497467Y-18519889D01*
X5497467Y-18519889D02*
X5487944Y-18481793D01*
X5487944Y-18481793D02*
X5487944Y-18434174D01*
X5487944Y-18434174D02*
X5497467Y-18396079D01*
X5497467Y-18396079D02*
X5506991Y-18377031D01*
X5506991Y-18377031D02*
X5516515Y-18367508D01*
X5516515Y-18367508D02*
X5535563Y-18357984D01*
X5726039Y-18357984D02*
X5745086Y-18357984D01*
X5745086Y-18357984D02*
X5764134Y-18367508D01*
X5764134Y-18367508D02*
X5773658Y-18377031D01*
X5773658Y-18377031D02*
X5783182Y-18396079D01*
X5783182Y-18396079D02*
X5792705Y-18434174D01*
X5792705Y-18434174D02*
X5792705Y-18481793D01*
X5792705Y-18481793D02*
X5783182Y-18519889D01*
X5783182Y-18519889D02*
X5773658Y-18538936D01*
X5773658Y-18538936D02*
X5764134Y-18548460D01*
X5764134Y-18548460D02*
X5745086Y-18557984D01*
X5745086Y-18557984D02*
X5726039Y-18557984D01*
X5726039Y-18557984D02*
X5706991Y-18548460D01*
X5706991Y-18548460D02*
X5697467Y-18538936D01*
X5697467Y-18538936D02*
X5687943Y-18519889D01*
X5687943Y-18519889D02*
X5678420Y-18481793D01*
X5678420Y-18481793D02*
X5678420Y-18434174D01*
X5678420Y-18434174D02*
X5687943Y-18396079D01*
X5687943Y-18396079D02*
X5697467Y-18377031D01*
X5697467Y-18377031D02*
X5706991Y-18367508D01*
X5706991Y-18367508D02*
X5726039Y-18357984D01*
X5878420Y-18557984D02*
X5878420Y-18424650D01*
X5878420Y-18443698D02*
X5887943Y-18434174D01*
X5887943Y-18434174D02*
X5906991Y-18424650D01*
X5906991Y-18424650D02*
X5935563Y-18424650D01*
X5935563Y-18424650D02*
X5954610Y-18434174D01*
X5954610Y-18434174D02*
X5964134Y-18453222D01*
X5964134Y-18453222D02*
X5964134Y-18557984D01*
X5964134Y-18453222D02*
X5973658Y-18434174D01*
X5973658Y-18434174D02*
X5992705Y-18424650D01*
X5992705Y-18424650D02*
X6021277Y-18424650D01*
X6021277Y-18424650D02*
X6040324Y-18434174D01*
X6040324Y-18434174D02*
X6049848Y-18453222D01*
X6049848Y-18453222D02*
X6049848Y-18557984D01*
X6145086Y-18557984D02*
X6145086Y-18424650D01*
X6145086Y-18443698D02*
X6154610Y-18434174D01*
X6154610Y-18434174D02*
X6173658Y-18424650D01*
X6173658Y-18424650D02*
X6202229Y-18424650D01*
X6202229Y-18424650D02*
X6221277Y-18434174D01*
X6221277Y-18434174D02*
X6230801Y-18453222D01*
X6230801Y-18453222D02*
X6230801Y-18557984D01*
X6230801Y-18453222D02*
X6240324Y-18434174D01*
X6240324Y-18434174D02*
X6259372Y-18424650D01*
X6259372Y-18424650D02*
X6287943Y-18424650D01*
X6287943Y-18424650D02*
X6306991Y-18434174D01*
X6306991Y-18434174D02*
X6316515Y-18453222D01*
X6316515Y-18453222D02*
X6316515Y-18557984D01*
X6706991Y-18348460D02*
X6535563Y-18605603D01*
X6964134Y-18357984D02*
X6983182Y-18357984D01*
X6983182Y-18357984D02*
X7002229Y-18367508D01*
X7002229Y-18367508D02*
X7011753Y-18377031D01*
X7011753Y-18377031D02*
X7021277Y-18396079D01*
X7021277Y-18396079D02*
X7030801Y-18434174D01*
X7030801Y-18434174D02*
X7030801Y-18481793D01*
X7030801Y-18481793D02*
X7021277Y-18519889D01*
X7021277Y-18519889D02*
X7011753Y-18538936D01*
X7011753Y-18538936D02*
X7002229Y-18548460D01*
X7002229Y-18548460D02*
X6983182Y-18557984D01*
X6983182Y-18557984D02*
X6964134Y-18557984D01*
X6964134Y-18557984D02*
X6945086Y-18548460D01*
X6945086Y-18548460D02*
X6935563Y-18538936D01*
X6935563Y-18538936D02*
X6926039Y-18519889D01*
X6926039Y-18519889D02*
X6916515Y-18481793D01*
X6916515Y-18481793D02*
X6916515Y-18434174D01*
X6916515Y-18434174D02*
X6926039Y-18396079D01*
X6926039Y-18396079D02*
X6935563Y-18377031D01*
X6935563Y-18377031D02*
X6945086Y-18367508D01*
X6945086Y-18367508D02*
X6964134Y-18357984D01*
X7116515Y-18538936D02*
X7126039Y-18548460D01*
X7126039Y-18548460D02*
X7116515Y-18557984D01*
X7116515Y-18557984D02*
X7106991Y-18548460D01*
X7106991Y-18548460D02*
X7116515Y-18538936D01*
X7116515Y-18538936D02*
X7116515Y-18557984D01*
X7316515Y-18557984D02*
X7202229Y-18557984D01*
X7259372Y-18557984D02*
X7259372Y-18357984D01*
X7259372Y-18357984D02*
X7240325Y-18386555D01*
X7240325Y-18386555D02*
X7221277Y-18405603D01*
X7221277Y-18405603D02*
X7202229Y-18415127D01*
X7392706Y-18377031D02*
X7402229Y-18367508D01*
X7402229Y-18367508D02*
X7421277Y-18357984D01*
X7421277Y-18357984D02*
X7468896Y-18357984D01*
X7468896Y-18357984D02*
X7487944Y-18367508D01*
X7487944Y-18367508D02*
X7497467Y-18377031D01*
X7497467Y-18377031D02*
X7506991Y-18396079D01*
X7506991Y-18396079D02*
X7506991Y-18415127D01*
X7506991Y-18415127D02*
X7497467Y-18443698D01*
X7497467Y-18443698D02*
X7383182Y-18557984D01*
X7383182Y-18557984D02*
X7506991Y-18557984D01*
X7678420Y-18357984D02*
X7640325Y-18357984D01*
X7640325Y-18357984D02*
X7621277Y-18367508D01*
X7621277Y-18367508D02*
X7611753Y-18377031D01*
X7611753Y-18377031D02*
X7592706Y-18405603D01*
X7592706Y-18405603D02*
X7583182Y-18443698D01*
X7583182Y-18443698D02*
X7583182Y-18519889D01*
X7583182Y-18519889D02*
X7592706Y-18538936D01*
X7592706Y-18538936D02*
X7602229Y-18548460D01*
X7602229Y-18548460D02*
X7621277Y-18557984D01*
X7621277Y-18557984D02*
X7659372Y-18557984D01*
X7659372Y-18557984D02*
X7678420Y-18548460D01*
X7678420Y-18548460D02*
X7687944Y-18538936D01*
X7687944Y-18538936D02*
X7697467Y-18519889D01*
X7697467Y-18519889D02*
X7697467Y-18472270D01*
X7697467Y-18472270D02*
X7687944Y-18453222D01*
X7687944Y-18453222D02*
X7678420Y-18443698D01*
X7678420Y-18443698D02*
X7659372Y-18434174D01*
X7659372Y-18434174D02*
X7621277Y-18434174D01*
X7621277Y-18434174D02*
X7602229Y-18443698D01*
X7602229Y-18443698D02*
X7592706Y-18453222D01*
X7592706Y-18453222D02*
X7583182Y-18472270D01*
X7821277Y-18357984D02*
X7840325Y-18357984D01*
X7840325Y-18357984D02*
X7859372Y-18367508D01*
X7859372Y-18367508D02*
X7868896Y-18377031D01*
X7868896Y-18377031D02*
X7878420Y-18396079D01*
X7878420Y-18396079D02*
X7887944Y-18434174D01*
X7887944Y-18434174D02*
X7887944Y-18481793D01*
X7887944Y-18481793D02*
X7878420Y-18519889D01*
X7878420Y-18519889D02*
X7868896Y-18538936D01*
X7868896Y-18538936D02*
X7859372Y-18548460D01*
X7859372Y-18548460D02*
X7840325Y-18557984D01*
X7840325Y-18557984D02*
X7821277Y-18557984D01*
X7821277Y-18557984D02*
X7802229Y-18548460D01*
X7802229Y-18548460D02*
X7792706Y-18538936D01*
X7792706Y-18538936D02*
X7783182Y-18519889D01*
X7783182Y-18519889D02*
X7773658Y-18481793D01*
X7773658Y-18481793D02*
X7773658Y-18434174D01*
X7773658Y-18434174D02*
X7783182Y-18396079D01*
X7783182Y-18396079D02*
X7792706Y-18377031D01*
X7792706Y-18377031D02*
X7802229Y-18367508D01*
X7802229Y-18367508D02*
X7821277Y-18357984D01*
X7964134Y-18357984D02*
X7964134Y-18396079D01*
X8040325Y-18357984D02*
X8040325Y-18396079D01*
X8335563Y-18634174D02*
X8326039Y-18624650D01*
X8326039Y-18624650D02*
X8306991Y-18596079D01*
X8306991Y-18596079D02*
X8297468Y-18577031D01*
X8297468Y-18577031D02*
X8287944Y-18548460D01*
X8287944Y-18548460D02*
X8278420Y-18500841D01*
X8278420Y-18500841D02*
X8278420Y-18462746D01*
X8278420Y-18462746D02*
X8287944Y-18415127D01*
X8287944Y-18415127D02*
X8297468Y-18386555D01*
X8297468Y-18386555D02*
X8306991Y-18367508D01*
X8306991Y-18367508D02*
X8326039Y-18338936D01*
X8326039Y-18338936D02*
X8335563Y-18329412D01*
X8402230Y-18377031D02*
X8411753Y-18367508D01*
X8411753Y-18367508D02*
X8430801Y-18357984D01*
X8430801Y-18357984D02*
X8478420Y-18357984D01*
X8478420Y-18357984D02*
X8497468Y-18367508D01*
X8497468Y-18367508D02*
X8506991Y-18377031D01*
X8506991Y-18377031D02*
X8516515Y-18396079D01*
X8516515Y-18396079D02*
X8516515Y-18415127D01*
X8516515Y-18415127D02*
X8506991Y-18443698D01*
X8506991Y-18443698D02*
X8392706Y-18557984D01*
X8392706Y-18557984D02*
X8516515Y-18557984D01*
X8754611Y-18557984D02*
X8754611Y-18357984D01*
X8840325Y-18557984D02*
X8840325Y-18453222D01*
X8840325Y-18453222D02*
X8830801Y-18434174D01*
X8830801Y-18434174D02*
X8811753Y-18424650D01*
X8811753Y-18424650D02*
X8783182Y-18424650D01*
X8783182Y-18424650D02*
X8764134Y-18434174D01*
X8764134Y-18434174D02*
X8754611Y-18443698D01*
X8964134Y-18557984D02*
X8945087Y-18548460D01*
X8945087Y-18548460D02*
X8935563Y-18538936D01*
X8935563Y-18538936D02*
X8926039Y-18519889D01*
X8926039Y-18519889D02*
X8926039Y-18462746D01*
X8926039Y-18462746D02*
X8935563Y-18443698D01*
X8935563Y-18443698D02*
X8945087Y-18434174D01*
X8945087Y-18434174D02*
X8964134Y-18424650D01*
X8964134Y-18424650D02*
X8992706Y-18424650D01*
X8992706Y-18424650D02*
X9011753Y-18434174D01*
X9011753Y-18434174D02*
X9021277Y-18443698D01*
X9021277Y-18443698D02*
X9030801Y-18462746D01*
X9030801Y-18462746D02*
X9030801Y-18519889D01*
X9030801Y-18519889D02*
X9021277Y-18538936D01*
X9021277Y-18538936D02*
X9011753Y-18548460D01*
X9011753Y-18548460D02*
X8992706Y-18557984D01*
X8992706Y-18557984D02*
X8964134Y-18557984D01*
X9145087Y-18557984D02*
X9126039Y-18548460D01*
X9126039Y-18548460D02*
X9116515Y-18529412D01*
X9116515Y-18529412D02*
X9116515Y-18357984D01*
X9297468Y-18548460D02*
X9278420Y-18557984D01*
X9278420Y-18557984D02*
X9240325Y-18557984D01*
X9240325Y-18557984D02*
X9221277Y-18548460D01*
X9221277Y-18548460D02*
X9211753Y-18529412D01*
X9211753Y-18529412D02*
X9211753Y-18453222D01*
X9211753Y-18453222D02*
X9221277Y-18434174D01*
X9221277Y-18434174D02*
X9240325Y-18424650D01*
X9240325Y-18424650D02*
X9278420Y-18424650D01*
X9278420Y-18424650D02*
X9297468Y-18434174D01*
X9297468Y-18434174D02*
X9306992Y-18453222D01*
X9306992Y-18453222D02*
X9306992Y-18472270D01*
X9306992Y-18472270D02*
X9211753Y-18491317D01*
X9383182Y-18548460D02*
X9402230Y-18557984D01*
X9402230Y-18557984D02*
X9440325Y-18557984D01*
X9440325Y-18557984D02*
X9459373Y-18548460D01*
X9459373Y-18548460D02*
X9468896Y-18529412D01*
X9468896Y-18529412D02*
X9468896Y-18519889D01*
X9468896Y-18519889D02*
X9459373Y-18500841D01*
X9459373Y-18500841D02*
X9440325Y-18491317D01*
X9440325Y-18491317D02*
X9411753Y-18491317D01*
X9411753Y-18491317D02*
X9392706Y-18481793D01*
X9392706Y-18481793D02*
X9383182Y-18462746D01*
X9383182Y-18462746D02*
X9383182Y-18453222D01*
X9383182Y-18453222D02*
X9392706Y-18434174D01*
X9392706Y-18434174D02*
X9411753Y-18424650D01*
X9411753Y-18424650D02*
X9440325Y-18424650D01*
X9440325Y-18424650D02*
X9459373Y-18434174D01*
X9535563Y-18634174D02*
X9545087Y-18624650D01*
X9545087Y-18624650D02*
X9564134Y-18596079D01*
X9564134Y-18596079D02*
X9573658Y-18577031D01*
X9573658Y-18577031D02*
X9583182Y-18548460D01*
X9583182Y-18548460D02*
X9592706Y-18500841D01*
X9592706Y-18500841D02*
X9592706Y-18462746D01*
X9592706Y-18462746D02*
X9583182Y-18415127D01*
X9583182Y-18415127D02*
X9573658Y-18386555D01*
X9573658Y-18386555D02*
X9564134Y-18367508D01*
X9564134Y-18367508D02*
X9545087Y-18338936D01*
X9545087Y-18338936D02*
X9535563Y-18329412D01*
X9897468Y-18634174D02*
X9887944Y-18624650D01*
X9887944Y-18624650D02*
X9868896Y-18596079D01*
X9868896Y-18596079D02*
X9859373Y-18577031D01*
X9859373Y-18577031D02*
X9849849Y-18548460D01*
X9849849Y-18548460D02*
X9840325Y-18500841D01*
X9840325Y-18500841D02*
X9840325Y-18462746D01*
X9840325Y-18462746D02*
X9849849Y-18415127D01*
X9849849Y-18415127D02*
X9859373Y-18386555D01*
X9859373Y-18386555D02*
X9868896Y-18367508D01*
X9868896Y-18367508D02*
X9887944Y-18338936D01*
X9887944Y-18338936D02*
X9897468Y-18329412D01*
X9973658Y-18424650D02*
X9973658Y-18557984D01*
X9973658Y-18443698D02*
X9983182Y-18434174D01*
X9983182Y-18434174D02*
X10002230Y-18424650D01*
X10002230Y-18424650D02*
X10030801Y-18424650D01*
X10030801Y-18424650D02*
X10049849Y-18434174D01*
X10049849Y-18434174D02*
X10059373Y-18453222D01*
X10059373Y-18453222D02*
X10059373Y-18557984D01*
X10183182Y-18557984D02*
X10164134Y-18548460D01*
X10164134Y-18548460D02*
X10154611Y-18538936D01*
X10154611Y-18538936D02*
X10145087Y-18519889D01*
X10145087Y-18519889D02*
X10145087Y-18462746D01*
X10145087Y-18462746D02*
X10154611Y-18443698D01*
X10154611Y-18443698D02*
X10164134Y-18434174D01*
X10164134Y-18434174D02*
X10183182Y-18424650D01*
X10183182Y-18424650D02*
X10211754Y-18424650D01*
X10211754Y-18424650D02*
X10230801Y-18434174D01*
X10230801Y-18434174D02*
X10240325Y-18443698D01*
X10240325Y-18443698D02*
X10249849Y-18462746D01*
X10249849Y-18462746D02*
X10249849Y-18519889D01*
X10249849Y-18519889D02*
X10240325Y-18538936D01*
X10240325Y-18538936D02*
X10230801Y-18548460D01*
X10230801Y-18548460D02*
X10211754Y-18557984D01*
X10211754Y-18557984D02*
X10183182Y-18557984D01*
X10306992Y-18424650D02*
X10383182Y-18424650D01*
X10335563Y-18357984D02*
X10335563Y-18529412D01*
X10335563Y-18529412D02*
X10345087Y-18548460D01*
X10345087Y-18548460D02*
X10364134Y-18557984D01*
X10364134Y-18557984D02*
X10383182Y-18557984D01*
X10602230Y-18424650D02*
X10602230Y-18624650D01*
X10602230Y-18434174D02*
X10621277Y-18424650D01*
X10621277Y-18424650D02*
X10659373Y-18424650D01*
X10659373Y-18424650D02*
X10678420Y-18434174D01*
X10678420Y-18434174D02*
X10687944Y-18443698D01*
X10687944Y-18443698D02*
X10697468Y-18462746D01*
X10697468Y-18462746D02*
X10697468Y-18519889D01*
X10697468Y-18519889D02*
X10687944Y-18538936D01*
X10687944Y-18538936D02*
X10678420Y-18548460D01*
X10678420Y-18548460D02*
X10659373Y-18557984D01*
X10659373Y-18557984D02*
X10621277Y-18557984D01*
X10621277Y-18557984D02*
X10602230Y-18548460D01*
X10811754Y-18557984D02*
X10792706Y-18548460D01*
X10792706Y-18548460D02*
X10783182Y-18529412D01*
X10783182Y-18529412D02*
X10783182Y-18357984D01*
X10973658Y-18557984D02*
X10973658Y-18453222D01*
X10973658Y-18453222D02*
X10964135Y-18434174D01*
X10964135Y-18434174D02*
X10945087Y-18424650D01*
X10945087Y-18424650D02*
X10906992Y-18424650D01*
X10906992Y-18424650D02*
X10887944Y-18434174D01*
X10973658Y-18548460D02*
X10954611Y-18557984D01*
X10954611Y-18557984D02*
X10906992Y-18557984D01*
X10906992Y-18557984D02*
X10887944Y-18548460D01*
X10887944Y-18548460D02*
X10878420Y-18529412D01*
X10878420Y-18529412D02*
X10878420Y-18510365D01*
X10878420Y-18510365D02*
X10887944Y-18491317D01*
X10887944Y-18491317D02*
X10906992Y-18481793D01*
X10906992Y-18481793D02*
X10954611Y-18481793D01*
X10954611Y-18481793D02*
X10973658Y-18472270D01*
X11040325Y-18424650D02*
X11116515Y-18424650D01*
X11068896Y-18357984D02*
X11068896Y-18529412D01*
X11068896Y-18529412D02*
X11078420Y-18548460D01*
X11078420Y-18548460D02*
X11097468Y-18557984D01*
X11097468Y-18557984D02*
X11116515Y-18557984D01*
X11259373Y-18548460D02*
X11240325Y-18557984D01*
X11240325Y-18557984D02*
X11202230Y-18557984D01*
X11202230Y-18557984D02*
X11183182Y-18548460D01*
X11183182Y-18548460D02*
X11173658Y-18529412D01*
X11173658Y-18529412D02*
X11173658Y-18453222D01*
X11173658Y-18453222D02*
X11183182Y-18434174D01*
X11183182Y-18434174D02*
X11202230Y-18424650D01*
X11202230Y-18424650D02*
X11240325Y-18424650D01*
X11240325Y-18424650D02*
X11259373Y-18434174D01*
X11259373Y-18434174D02*
X11268896Y-18453222D01*
X11268896Y-18453222D02*
X11268896Y-18472270D01*
X11268896Y-18472270D02*
X11173658Y-18491317D01*
X11440325Y-18557984D02*
X11440325Y-18357984D01*
X11440325Y-18548460D02*
X11421277Y-18557984D01*
X11421277Y-18557984D02*
X11383182Y-18557984D01*
X11383182Y-18557984D02*
X11364134Y-18548460D01*
X11364134Y-18548460D02*
X11354611Y-18538936D01*
X11354611Y-18538936D02*
X11345087Y-18519889D01*
X11345087Y-18519889D02*
X11345087Y-18462746D01*
X11345087Y-18462746D02*
X11354611Y-18443698D01*
X11354611Y-18443698D02*
X11364134Y-18434174D01*
X11364134Y-18434174D02*
X11383182Y-18424650D01*
X11383182Y-18424650D02*
X11421277Y-18424650D01*
X11421277Y-18424650D02*
X11440325Y-18434174D01*
X11516515Y-18634174D02*
X11526039Y-18624650D01*
X11526039Y-18624650D02*
X11545087Y-18596079D01*
X11545087Y-18596079D02*
X11554611Y-18577031D01*
X11554611Y-18577031D02*
X11564134Y-18548460D01*
X11564134Y-18548460D02*
X11573658Y-18500841D01*
X11573658Y-18500841D02*
X11573658Y-18462746D01*
X11573658Y-18462746D02*
X11564134Y-18415127D01*
X11564134Y-18415127D02*
X11554611Y-18386555D01*
X11554611Y-18386555D02*
X11545087Y-18367508D01*
X11545087Y-18367508D02*
X11526039Y-18338936D01*
X11526039Y-18338936D02*
X11516515Y-18329412D01*
X4560500Y-18686500D02*
X4760500Y-18886500D01*
X4760500Y-18686500D02*
X4560500Y-18886500D01*
X4760500Y-18786500D02*
G75*
G02*
X4560500Y-18786500I-100000J0D01*
G01*
X4560500Y-18786500D02*
G75*
G02*
X4760500Y-18786500I100000J0D01*
G01*
X5002229Y-18677984D02*
X5126039Y-18677984D01*
X5126039Y-18677984D02*
X5059372Y-18754174D01*
X5059372Y-18754174D02*
X5087944Y-18754174D01*
X5087944Y-18754174D02*
X5106991Y-18763698D01*
X5106991Y-18763698D02*
X5116515Y-18773222D01*
X5116515Y-18773222D02*
X5126039Y-18792270D01*
X5126039Y-18792270D02*
X5126039Y-18839889D01*
X5126039Y-18839889D02*
X5116515Y-18858936D01*
X5116515Y-18858936D02*
X5106991Y-18868460D01*
X5106991Y-18868460D02*
X5087944Y-18877984D01*
X5087944Y-18877984D02*
X5030801Y-18877984D01*
X5030801Y-18877984D02*
X5011753Y-18868460D01*
X5011753Y-18868460D02*
X5002229Y-18858936D01*
X5211753Y-18858936D02*
X5221277Y-18868460D01*
X5221277Y-18868460D02*
X5211753Y-18877984D01*
X5211753Y-18877984D02*
X5202229Y-18868460D01*
X5202229Y-18868460D02*
X5211753Y-18858936D01*
X5211753Y-18858936D02*
X5211753Y-18877984D01*
X5297467Y-18697031D02*
X5306991Y-18687508D01*
X5306991Y-18687508D02*
X5326039Y-18677984D01*
X5326039Y-18677984D02*
X5373658Y-18677984D01*
X5373658Y-18677984D02*
X5392705Y-18687508D01*
X5392705Y-18687508D02*
X5402229Y-18697031D01*
X5402229Y-18697031D02*
X5411753Y-18716079D01*
X5411753Y-18716079D02*
X5411753Y-18735127D01*
X5411753Y-18735127D02*
X5402229Y-18763698D01*
X5402229Y-18763698D02*
X5287944Y-18877984D01*
X5287944Y-18877984D02*
X5411753Y-18877984D01*
X5592705Y-18677984D02*
X5497467Y-18677984D01*
X5497467Y-18677984D02*
X5487944Y-18773222D01*
X5487944Y-18773222D02*
X5497467Y-18763698D01*
X5497467Y-18763698D02*
X5516515Y-18754174D01*
X5516515Y-18754174D02*
X5564134Y-18754174D01*
X5564134Y-18754174D02*
X5583182Y-18763698D01*
X5583182Y-18763698D02*
X5592705Y-18773222D01*
X5592705Y-18773222D02*
X5602229Y-18792270D01*
X5602229Y-18792270D02*
X5602229Y-18839889D01*
X5602229Y-18839889D02*
X5592705Y-18858936D01*
X5592705Y-18858936D02*
X5583182Y-18868460D01*
X5583182Y-18868460D02*
X5564134Y-18877984D01*
X5564134Y-18877984D02*
X5516515Y-18877984D01*
X5516515Y-18877984D02*
X5497467Y-18868460D01*
X5497467Y-18868460D02*
X5487944Y-18858936D01*
X5726039Y-18677984D02*
X5745086Y-18677984D01*
X5745086Y-18677984D02*
X5764134Y-18687508D01*
X5764134Y-18687508D02*
X5773658Y-18697031D01*
X5773658Y-18697031D02*
X5783182Y-18716079D01*
X5783182Y-18716079D02*
X5792705Y-18754174D01*
X5792705Y-18754174D02*
X5792705Y-18801793D01*
X5792705Y-18801793D02*
X5783182Y-18839889D01*
X5783182Y-18839889D02*
X5773658Y-18858936D01*
X5773658Y-18858936D02*
X5764134Y-18868460D01*
X5764134Y-18868460D02*
X5745086Y-18877984D01*
X5745086Y-18877984D02*
X5726039Y-18877984D01*
X5726039Y-18877984D02*
X5706991Y-18868460D01*
X5706991Y-18868460D02*
X5697467Y-18858936D01*
X5697467Y-18858936D02*
X5687943Y-18839889D01*
X5687943Y-18839889D02*
X5678420Y-18801793D01*
X5678420Y-18801793D02*
X5678420Y-18754174D01*
X5678420Y-18754174D02*
X5687943Y-18716079D01*
X5687943Y-18716079D02*
X5697467Y-18697031D01*
X5697467Y-18697031D02*
X5706991Y-18687508D01*
X5706991Y-18687508D02*
X5726039Y-18677984D01*
X5878420Y-18877984D02*
X5878420Y-18744650D01*
X5878420Y-18763698D02*
X5887943Y-18754174D01*
X5887943Y-18754174D02*
X5906991Y-18744650D01*
X5906991Y-18744650D02*
X5935563Y-18744650D01*
X5935563Y-18744650D02*
X5954610Y-18754174D01*
X5954610Y-18754174D02*
X5964134Y-18773222D01*
X5964134Y-18773222D02*
X5964134Y-18877984D01*
X5964134Y-18773222D02*
X5973658Y-18754174D01*
X5973658Y-18754174D02*
X5992705Y-18744650D01*
X5992705Y-18744650D02*
X6021277Y-18744650D01*
X6021277Y-18744650D02*
X6040324Y-18754174D01*
X6040324Y-18754174D02*
X6049848Y-18773222D01*
X6049848Y-18773222D02*
X6049848Y-18877984D01*
X6145086Y-18877984D02*
X6145086Y-18744650D01*
X6145086Y-18763698D02*
X6154610Y-18754174D01*
X6154610Y-18754174D02*
X6173658Y-18744650D01*
X6173658Y-18744650D02*
X6202229Y-18744650D01*
X6202229Y-18744650D02*
X6221277Y-18754174D01*
X6221277Y-18754174D02*
X6230801Y-18773222D01*
X6230801Y-18773222D02*
X6230801Y-18877984D01*
X6230801Y-18773222D02*
X6240324Y-18754174D01*
X6240324Y-18754174D02*
X6259372Y-18744650D01*
X6259372Y-18744650D02*
X6287943Y-18744650D01*
X6287943Y-18744650D02*
X6306991Y-18754174D01*
X6306991Y-18754174D02*
X6316515Y-18773222D01*
X6316515Y-18773222D02*
X6316515Y-18877984D01*
X6706991Y-18668460D02*
X6535563Y-18925603D01*
X6964134Y-18677984D02*
X6983182Y-18677984D01*
X6983182Y-18677984D02*
X7002229Y-18687508D01*
X7002229Y-18687508D02*
X7011753Y-18697031D01*
X7011753Y-18697031D02*
X7021277Y-18716079D01*
X7021277Y-18716079D02*
X7030801Y-18754174D01*
X7030801Y-18754174D02*
X7030801Y-18801793D01*
X7030801Y-18801793D02*
X7021277Y-18839889D01*
X7021277Y-18839889D02*
X7011753Y-18858936D01*
X7011753Y-18858936D02*
X7002229Y-18868460D01*
X7002229Y-18868460D02*
X6983182Y-18877984D01*
X6983182Y-18877984D02*
X6964134Y-18877984D01*
X6964134Y-18877984D02*
X6945086Y-18868460D01*
X6945086Y-18868460D02*
X6935563Y-18858936D01*
X6935563Y-18858936D02*
X6926039Y-18839889D01*
X6926039Y-18839889D02*
X6916515Y-18801793D01*
X6916515Y-18801793D02*
X6916515Y-18754174D01*
X6916515Y-18754174D02*
X6926039Y-18716079D01*
X6926039Y-18716079D02*
X6935563Y-18697031D01*
X6935563Y-18697031D02*
X6945086Y-18687508D01*
X6945086Y-18687508D02*
X6964134Y-18677984D01*
X7116515Y-18858936D02*
X7126039Y-18868460D01*
X7126039Y-18868460D02*
X7116515Y-18877984D01*
X7116515Y-18877984D02*
X7106991Y-18868460D01*
X7106991Y-18868460D02*
X7116515Y-18858936D01*
X7116515Y-18858936D02*
X7116515Y-18877984D01*
X7316515Y-18877984D02*
X7202229Y-18877984D01*
X7259372Y-18877984D02*
X7259372Y-18677984D01*
X7259372Y-18677984D02*
X7240325Y-18706555D01*
X7240325Y-18706555D02*
X7221277Y-18725603D01*
X7221277Y-18725603D02*
X7202229Y-18735127D01*
X7392706Y-18697031D02*
X7402229Y-18687508D01*
X7402229Y-18687508D02*
X7421277Y-18677984D01*
X7421277Y-18677984D02*
X7468896Y-18677984D01*
X7468896Y-18677984D02*
X7487944Y-18687508D01*
X7487944Y-18687508D02*
X7497467Y-18697031D01*
X7497467Y-18697031D02*
X7506991Y-18716079D01*
X7506991Y-18716079D02*
X7506991Y-18735127D01*
X7506991Y-18735127D02*
X7497467Y-18763698D01*
X7497467Y-18763698D02*
X7383182Y-18877984D01*
X7383182Y-18877984D02*
X7506991Y-18877984D01*
X7621277Y-18763698D02*
X7602229Y-18754174D01*
X7602229Y-18754174D02*
X7592706Y-18744650D01*
X7592706Y-18744650D02*
X7583182Y-18725603D01*
X7583182Y-18725603D02*
X7583182Y-18716079D01*
X7583182Y-18716079D02*
X7592706Y-18697031D01*
X7592706Y-18697031D02*
X7602229Y-18687508D01*
X7602229Y-18687508D02*
X7621277Y-18677984D01*
X7621277Y-18677984D02*
X7659372Y-18677984D01*
X7659372Y-18677984D02*
X7678420Y-18687508D01*
X7678420Y-18687508D02*
X7687944Y-18697031D01*
X7687944Y-18697031D02*
X7697467Y-18716079D01*
X7697467Y-18716079D02*
X7697467Y-18725603D01*
X7697467Y-18725603D02*
X7687944Y-18744650D01*
X7687944Y-18744650D02*
X7678420Y-18754174D01*
X7678420Y-18754174D02*
X7659372Y-18763698D01*
X7659372Y-18763698D02*
X7621277Y-18763698D01*
X7621277Y-18763698D02*
X7602229Y-18773222D01*
X7602229Y-18773222D02*
X7592706Y-18782746D01*
X7592706Y-18782746D02*
X7583182Y-18801793D01*
X7583182Y-18801793D02*
X7583182Y-18839889D01*
X7583182Y-18839889D02*
X7592706Y-18858936D01*
X7592706Y-18858936D02*
X7602229Y-18868460D01*
X7602229Y-18868460D02*
X7621277Y-18877984D01*
X7621277Y-18877984D02*
X7659372Y-18877984D01*
X7659372Y-18877984D02*
X7678420Y-18868460D01*
X7678420Y-18868460D02*
X7687944Y-18858936D01*
X7687944Y-18858936D02*
X7697467Y-18839889D01*
X7697467Y-18839889D02*
X7697467Y-18801793D01*
X7697467Y-18801793D02*
X7687944Y-18782746D01*
X7687944Y-18782746D02*
X7678420Y-18773222D01*
X7678420Y-18773222D02*
X7659372Y-18763698D01*
X7821277Y-18677984D02*
X7840325Y-18677984D01*
X7840325Y-18677984D02*
X7859372Y-18687508D01*
X7859372Y-18687508D02*
X7868896Y-18697031D01*
X7868896Y-18697031D02*
X7878420Y-18716079D01*
X7878420Y-18716079D02*
X7887944Y-18754174D01*
X7887944Y-18754174D02*
X7887944Y-18801793D01*
X7887944Y-18801793D02*
X7878420Y-18839889D01*
X7878420Y-18839889D02*
X7868896Y-18858936D01*
X7868896Y-18858936D02*
X7859372Y-18868460D01*
X7859372Y-18868460D02*
X7840325Y-18877984D01*
X7840325Y-18877984D02*
X7821277Y-18877984D01*
X7821277Y-18877984D02*
X7802229Y-18868460D01*
X7802229Y-18868460D02*
X7792706Y-18858936D01*
X7792706Y-18858936D02*
X7783182Y-18839889D01*
X7783182Y-18839889D02*
X7773658Y-18801793D01*
X7773658Y-18801793D02*
X7773658Y-18754174D01*
X7773658Y-18754174D02*
X7783182Y-18716079D01*
X7783182Y-18716079D02*
X7792706Y-18697031D01*
X7792706Y-18697031D02*
X7802229Y-18687508D01*
X7802229Y-18687508D02*
X7821277Y-18677984D01*
X7964134Y-18677984D02*
X7964134Y-18716079D01*
X8040325Y-18677984D02*
X8040325Y-18716079D01*
X8335563Y-18954174D02*
X8326039Y-18944650D01*
X8326039Y-18944650D02*
X8306991Y-18916079D01*
X8306991Y-18916079D02*
X8297468Y-18897031D01*
X8297468Y-18897031D02*
X8287944Y-18868460D01*
X8287944Y-18868460D02*
X8278420Y-18820841D01*
X8278420Y-18820841D02*
X8278420Y-18782746D01*
X8278420Y-18782746D02*
X8287944Y-18735127D01*
X8287944Y-18735127D02*
X8297468Y-18706555D01*
X8297468Y-18706555D02*
X8306991Y-18687508D01*
X8306991Y-18687508D02*
X8326039Y-18658936D01*
X8326039Y-18658936D02*
X8335563Y-18649412D01*
X8497468Y-18744650D02*
X8497468Y-18877984D01*
X8449849Y-18668460D02*
X8402230Y-18811317D01*
X8402230Y-18811317D02*
X8526039Y-18811317D01*
X8754611Y-18877984D02*
X8754611Y-18677984D01*
X8840325Y-18877984D02*
X8840325Y-18773222D01*
X8840325Y-18773222D02*
X8830801Y-18754174D01*
X8830801Y-18754174D02*
X8811753Y-18744650D01*
X8811753Y-18744650D02*
X8783182Y-18744650D01*
X8783182Y-18744650D02*
X8764134Y-18754174D01*
X8764134Y-18754174D02*
X8754611Y-18763698D01*
X8964134Y-18877984D02*
X8945087Y-18868460D01*
X8945087Y-18868460D02*
X8935563Y-18858936D01*
X8935563Y-18858936D02*
X8926039Y-18839889D01*
X8926039Y-18839889D02*
X8926039Y-18782746D01*
X8926039Y-18782746D02*
X8935563Y-18763698D01*
X8935563Y-18763698D02*
X8945087Y-18754174D01*
X8945087Y-18754174D02*
X8964134Y-18744650D01*
X8964134Y-18744650D02*
X8992706Y-18744650D01*
X8992706Y-18744650D02*
X9011753Y-18754174D01*
X9011753Y-18754174D02*
X9021277Y-18763698D01*
X9021277Y-18763698D02*
X9030801Y-18782746D01*
X9030801Y-18782746D02*
X9030801Y-18839889D01*
X9030801Y-18839889D02*
X9021277Y-18858936D01*
X9021277Y-18858936D02*
X9011753Y-18868460D01*
X9011753Y-18868460D02*
X8992706Y-18877984D01*
X8992706Y-18877984D02*
X8964134Y-18877984D01*
X9145087Y-18877984D02*
X9126039Y-18868460D01*
X9126039Y-18868460D02*
X9116515Y-18849412D01*
X9116515Y-18849412D02*
X9116515Y-18677984D01*
X9297468Y-18868460D02*
X9278420Y-18877984D01*
X9278420Y-18877984D02*
X9240325Y-18877984D01*
X9240325Y-18877984D02*
X9221277Y-18868460D01*
X9221277Y-18868460D02*
X9211753Y-18849412D01*
X9211753Y-18849412D02*
X9211753Y-18773222D01*
X9211753Y-18773222D02*
X9221277Y-18754174D01*
X9221277Y-18754174D02*
X9240325Y-18744650D01*
X9240325Y-18744650D02*
X9278420Y-18744650D01*
X9278420Y-18744650D02*
X9297468Y-18754174D01*
X9297468Y-18754174D02*
X9306992Y-18773222D01*
X9306992Y-18773222D02*
X9306992Y-18792270D01*
X9306992Y-18792270D02*
X9211753Y-18811317D01*
X9383182Y-18868460D02*
X9402230Y-18877984D01*
X9402230Y-18877984D02*
X9440325Y-18877984D01*
X9440325Y-18877984D02*
X9459373Y-18868460D01*
X9459373Y-18868460D02*
X9468896Y-18849412D01*
X9468896Y-18849412D02*
X9468896Y-18839889D01*
X9468896Y-18839889D02*
X9459373Y-18820841D01*
X9459373Y-18820841D02*
X9440325Y-18811317D01*
X9440325Y-18811317D02*
X9411753Y-18811317D01*
X9411753Y-18811317D02*
X9392706Y-18801793D01*
X9392706Y-18801793D02*
X9383182Y-18782746D01*
X9383182Y-18782746D02*
X9383182Y-18773222D01*
X9383182Y-18773222D02*
X9392706Y-18754174D01*
X9392706Y-18754174D02*
X9411753Y-18744650D01*
X9411753Y-18744650D02*
X9440325Y-18744650D01*
X9440325Y-18744650D02*
X9459373Y-18754174D01*
X9535563Y-18954174D02*
X9545087Y-18944650D01*
X9545087Y-18944650D02*
X9564134Y-18916079D01*
X9564134Y-18916079D02*
X9573658Y-18897031D01*
X9573658Y-18897031D02*
X9583182Y-18868460D01*
X9583182Y-18868460D02*
X9592706Y-18820841D01*
X9592706Y-18820841D02*
X9592706Y-18782746D01*
X9592706Y-18782746D02*
X9583182Y-18735127D01*
X9583182Y-18735127D02*
X9573658Y-18706555D01*
X9573658Y-18706555D02*
X9564134Y-18687508D01*
X9564134Y-18687508D02*
X9545087Y-18658936D01*
X9545087Y-18658936D02*
X9535563Y-18649412D01*
X9897468Y-18954174D02*
X9887944Y-18944650D01*
X9887944Y-18944650D02*
X9868896Y-18916079D01*
X9868896Y-18916079D02*
X9859373Y-18897031D01*
X9859373Y-18897031D02*
X9849849Y-18868460D01*
X9849849Y-18868460D02*
X9840325Y-18820841D01*
X9840325Y-18820841D02*
X9840325Y-18782746D01*
X9840325Y-18782746D02*
X9849849Y-18735127D01*
X9849849Y-18735127D02*
X9859373Y-18706555D01*
X9859373Y-18706555D02*
X9868896Y-18687508D01*
X9868896Y-18687508D02*
X9887944Y-18658936D01*
X9887944Y-18658936D02*
X9897468Y-18649412D01*
X9973658Y-18744650D02*
X9973658Y-18877984D01*
X9973658Y-18763698D02*
X9983182Y-18754174D01*
X9983182Y-18754174D02*
X10002230Y-18744650D01*
X10002230Y-18744650D02*
X10030801Y-18744650D01*
X10030801Y-18744650D02*
X10049849Y-18754174D01*
X10049849Y-18754174D02*
X10059373Y-18773222D01*
X10059373Y-18773222D02*
X10059373Y-18877984D01*
X10183182Y-18877984D02*
X10164134Y-18868460D01*
X10164134Y-18868460D02*
X10154611Y-18858936D01*
X10154611Y-18858936D02*
X10145087Y-18839889D01*
X10145087Y-18839889D02*
X10145087Y-18782746D01*
X10145087Y-18782746D02*
X10154611Y-18763698D01*
X10154611Y-18763698D02*
X10164134Y-18754174D01*
X10164134Y-18754174D02*
X10183182Y-18744650D01*
X10183182Y-18744650D02*
X10211754Y-18744650D01*
X10211754Y-18744650D02*
X10230801Y-18754174D01*
X10230801Y-18754174D02*
X10240325Y-18763698D01*
X10240325Y-18763698D02*
X10249849Y-18782746D01*
X10249849Y-18782746D02*
X10249849Y-18839889D01*
X10249849Y-18839889D02*
X10240325Y-18858936D01*
X10240325Y-18858936D02*
X10230801Y-18868460D01*
X10230801Y-18868460D02*
X10211754Y-18877984D01*
X10211754Y-18877984D02*
X10183182Y-18877984D01*
X10306992Y-18744650D02*
X10383182Y-18744650D01*
X10335563Y-18677984D02*
X10335563Y-18849412D01*
X10335563Y-18849412D02*
X10345087Y-18868460D01*
X10345087Y-18868460D02*
X10364134Y-18877984D01*
X10364134Y-18877984D02*
X10383182Y-18877984D01*
X10602230Y-18744650D02*
X10602230Y-18944650D01*
X10602230Y-18754174D02*
X10621277Y-18744650D01*
X10621277Y-18744650D02*
X10659373Y-18744650D01*
X10659373Y-18744650D02*
X10678420Y-18754174D01*
X10678420Y-18754174D02*
X10687944Y-18763698D01*
X10687944Y-18763698D02*
X10697468Y-18782746D01*
X10697468Y-18782746D02*
X10697468Y-18839889D01*
X10697468Y-18839889D02*
X10687944Y-18858936D01*
X10687944Y-18858936D02*
X10678420Y-18868460D01*
X10678420Y-18868460D02*
X10659373Y-18877984D01*
X10659373Y-18877984D02*
X10621277Y-18877984D01*
X10621277Y-18877984D02*
X10602230Y-18868460D01*
X10811754Y-18877984D02*
X10792706Y-18868460D01*
X10792706Y-18868460D02*
X10783182Y-18849412D01*
X10783182Y-18849412D02*
X10783182Y-18677984D01*
X10973658Y-18877984D02*
X10973658Y-18773222D01*
X10973658Y-18773222D02*
X10964135Y-18754174D01*
X10964135Y-18754174D02*
X10945087Y-18744650D01*
X10945087Y-18744650D02*
X10906992Y-18744650D01*
X10906992Y-18744650D02*
X10887944Y-18754174D01*
X10973658Y-18868460D02*
X10954611Y-18877984D01*
X10954611Y-18877984D02*
X10906992Y-18877984D01*
X10906992Y-18877984D02*
X10887944Y-18868460D01*
X10887944Y-18868460D02*
X10878420Y-18849412D01*
X10878420Y-18849412D02*
X10878420Y-18830365D01*
X10878420Y-18830365D02*
X10887944Y-18811317D01*
X10887944Y-18811317D02*
X10906992Y-18801793D01*
X10906992Y-18801793D02*
X10954611Y-18801793D01*
X10954611Y-18801793D02*
X10973658Y-18792270D01*
X11040325Y-18744650D02*
X11116515Y-18744650D01*
X11068896Y-18677984D02*
X11068896Y-18849412D01*
X11068896Y-18849412D02*
X11078420Y-18868460D01*
X11078420Y-18868460D02*
X11097468Y-18877984D01*
X11097468Y-18877984D02*
X11116515Y-18877984D01*
X11259373Y-18868460D02*
X11240325Y-18877984D01*
X11240325Y-18877984D02*
X11202230Y-18877984D01*
X11202230Y-18877984D02*
X11183182Y-18868460D01*
X11183182Y-18868460D02*
X11173658Y-18849412D01*
X11173658Y-18849412D02*
X11173658Y-18773222D01*
X11173658Y-18773222D02*
X11183182Y-18754174D01*
X11183182Y-18754174D02*
X11202230Y-18744650D01*
X11202230Y-18744650D02*
X11240325Y-18744650D01*
X11240325Y-18744650D02*
X11259373Y-18754174D01*
X11259373Y-18754174D02*
X11268896Y-18773222D01*
X11268896Y-18773222D02*
X11268896Y-18792270D01*
X11268896Y-18792270D02*
X11173658Y-18811317D01*
X11440325Y-18877984D02*
X11440325Y-18677984D01*
X11440325Y-18868460D02*
X11421277Y-18877984D01*
X11421277Y-18877984D02*
X11383182Y-18877984D01*
X11383182Y-18877984D02*
X11364134Y-18868460D01*
X11364134Y-18868460D02*
X11354611Y-18858936D01*
X11354611Y-18858936D02*
X11345087Y-18839889D01*
X11345087Y-18839889D02*
X11345087Y-18782746D01*
X11345087Y-18782746D02*
X11354611Y-18763698D01*
X11354611Y-18763698D02*
X11364134Y-18754174D01*
X11364134Y-18754174D02*
X11383182Y-18744650D01*
X11383182Y-18744650D02*
X11421277Y-18744650D01*
X11421277Y-18744650D02*
X11440325Y-18754174D01*
X11516515Y-18954174D02*
X11526039Y-18944650D01*
X11526039Y-18944650D02*
X11545087Y-18916079D01*
X11545087Y-18916079D02*
X11554611Y-18897031D01*
X11554611Y-18897031D02*
X11564134Y-18868460D01*
X11564134Y-18868460D02*
X11573658Y-18820841D01*
X11573658Y-18820841D02*
X11573658Y-18782746D01*
X11573658Y-18782746D02*
X11564134Y-18735127D01*
X11564134Y-18735127D02*
X11554611Y-18706555D01*
X11554611Y-18706555D02*
X11545087Y-18687508D01*
X11545087Y-18687508D02*
X11526039Y-18658936D01*
X11526039Y-18658936D02*
X11516515Y-18649412D01*
M02*
