G04 #@! TF.GenerationSoftware,KiCad,Pcbnew,8.0.0-rc1*
G04 #@! TF.CreationDate,2024-04-25T15:33:08+03:00*
G04 #@! TF.ProjectId,MXVR_3568_V4.0,4d585652-5f33-4353-9638-5f56342e302e,REV1*
G04 #@! TF.SameCoordinates,Original*
G04 #@! TF.FileFunction,Profile,NP*
%FSLAX46Y46*%
G04 Gerber Fmt 4.6, Leading zero omitted, Abs format (unit mm)*
G04 Created by KiCad (PCBNEW 8.0.0-rc1) date 2024-04-25 15:33:08*
%MOMM*%
%LPD*%
G01*
G04 APERTURE LIST*
G04 #@! TA.AperFunction,Profile*
%ADD10C,0.050000*%
G04 #@! TD*
G04 APERTURE END LIST*
D10*
X47630000Y-25520000D02*
X203630000Y-25520000D01*
X203630000Y-167520000D01*
X47630000Y-167520000D01*
X47630000Y-25520000D01*
X154480000Y-102200000D02*
X141650000Y-102200000D01*
X141650000Y-88970000D01*
X154480000Y-88970000D01*
X154480000Y-102200000D01*
X113010000Y-72000000D02*
G75*
G02*
X112010000Y-72000000I-500000J0D01*
G01*
X112010000Y-72000000D02*
G75*
G02*
X113010000Y-72000000I500000J0D01*
G01*
X169410000Y-113400000D02*
G75*
G02*
X168410000Y-113400000I-500000J0D01*
G01*
X168410000Y-113400000D02*
G75*
G02*
X169410000Y-113400000I500000J0D01*
G01*
X180590000Y-164020000D02*
X182590000Y-164020000D01*
X182590000Y-166520000D01*
X180590000Y-166520000D01*
X180590000Y-164020000D01*
X187990000Y-164020000D02*
X189990000Y-164020000D01*
X189990000Y-166520000D01*
X187990000Y-166520000D01*
X187990000Y-164020000D01*
X188100000Y-102320000D02*
G75*
G02*
X185300000Y-102320000I-1400000J0D01*
G01*
X185300000Y-102320000D02*
G75*
G02*
X188100000Y-102320000I1400000J0D01*
G01*
X195450000Y-102320000D02*
G75*
G02*
X193050000Y-102320000I-1200000J0D01*
G01*
X193050000Y-102320000D02*
G75*
G02*
X195450000Y-102320000I1200000J0D01*
G01*
X122355000Y-166542500D02*
X124355000Y-166542500D01*
X124355000Y-164042500D01*
X122355000Y-164042500D01*
X122355000Y-166542500D01*
X129755000Y-166542500D02*
X131755000Y-166542500D01*
X131755000Y-164042500D01*
X129755000Y-164042500D01*
X129755000Y-166542500D01*
X150140000Y-166500000D02*
X152140000Y-166500000D01*
X152140000Y-164000000D01*
X150140000Y-164000000D01*
X150140000Y-166500000D01*
X157540000Y-166500000D02*
X159540000Y-166500000D01*
X159540000Y-164000000D01*
X157540000Y-164000000D01*
X157540000Y-166500000D01*
X106900000Y-166552500D02*
X108900000Y-166552500D01*
X108900000Y-164052500D01*
X106900000Y-164052500D01*
X106900000Y-166552500D01*
X114300000Y-166552500D02*
X116300000Y-166552500D01*
X116300000Y-164052500D01*
X114300000Y-164052500D01*
X114300000Y-166552500D01*
X134980000Y-166520000D02*
X136980000Y-166520000D01*
X136980000Y-164020000D01*
X134980000Y-164020000D01*
X134980000Y-166520000D01*
X142380000Y-166520000D02*
X144380000Y-166520000D01*
X144380000Y-164020000D01*
X142380000Y-164020000D01*
X142380000Y-166520000D01*
M02*
