%TF.GenerationSoftware,KiCad,Pcbnew,7.99.0-2677-g3cd60007c5*%
%TF.CreationDate,2023-11-18T11:29:50+03:00*%
%TF.ProjectId,Movita Pro V2_1,4d6f7669-7461-4205-9072-6f2056325f31,rev?*%
%TF.SameCoordinates,Original*%
%TF.FileFunction,Copper,L2,Bot*%
%TF.FilePolarity,Positive*%
%FSLAX46Y46*%
G04 Gerber Fmt 4.6, Leading zero omitted, Abs format (unit mm)*
G04 Created by KiCad (PCBNEW 7.99.0-2677-g3cd60007c5) date 2023-11-18 11:29:50*
%MOMM*%
%LPD*%
G01*
G04 APERTURE LIST*
%TA.AperFunction,CastellatedPad*%
%ADD10R,1.250000X0.850000*%
%TD*%
%TA.AperFunction,CastellatedPad*%
%ADD11R,0.850000X1.250000*%
%TD*%
%TA.AperFunction,ViaPad*%
%ADD12C,0.508000*%
%TD*%
%TA.AperFunction,Conductor*%
%ADD13C,0.254000*%
%TD*%
%TA.AperFunction,Conductor*%
%ADD14C,0.127000*%
%TD*%
G04 APERTURE END LIST*
D10*
%TO.P,J4,1,1*%
%TO.N,/MODEM_NET_STATUS*%
X167881100Y-105183600D03*
%TO.P,J4,2,2*%
%TO.N,VDD_EXT_1V8*%
X167881100Y-102643600D03*
%TO.P,J4,3,3*%
%TO.N,/USIM_VDD*%
X167881100Y-100103600D03*
%TO.P,J4,4,4*%
%TO.N,/USIM_DATA*%
X167881100Y-97563600D03*
%TO.P,J4,5,5*%
%TO.N,/USIM_CLK*%
X167881100Y-95023600D03*
%TO.P,J4,6,6*%
%TO.N,/USIM_RST*%
X167881100Y-92483600D03*
%TD*%
D11*
%TO.P,J1,1,1*%
%TO.N,/USIM_PRESENCE*%
X147446100Y-87128600D03*
%TO.P,J1,2,2*%
%TO.N,/RTS*%
X144906100Y-87128600D03*
%TO.P,J1,3,3*%
%TO.N,/CTS*%
X142366100Y-87128600D03*
%TO.P,J1,4,4*%
%TO.N,GND*%
X139826100Y-87128600D03*
%TO.P,J1,5,5*%
%TO.N,/ANT_DIV*%
X137286100Y-87128600D03*
%TD*%
D10*
%TO.P,J2,1,1*%
%TO.N,GND*%
X129121100Y-104453600D03*
%TO.P,J2,2,2*%
%TO.N,/ANT GNSS*%
X129121100Y-106993600D03*
%TO.P,J2,3,3*%
%TO.N,/ANT MAIN*%
X129121100Y-109533600D03*
%TO.P,J2,4,4*%
%TO.N,/RXD*%
X129121100Y-112073600D03*
%TO.P,J2,5,5*%
%TO.N,/TXD*%
X129121100Y-114613600D03*
%TD*%
D11*
%TO.P,J3,1,1*%
%TO.N,+3V8*%
X148436100Y-122878600D03*
%TO.P,J3,2,2*%
%TO.N,GND*%
X150976100Y-122878600D03*
%TO.P,J3,3,3*%
%TO.N,/USB_P*%
X153516100Y-122878600D03*
%TO.P,J3,4,4*%
%TO.N,/USB_N*%
X156056100Y-122878600D03*
%TO.P,J3,5,5*%
%TO.N,+3V8*%
X158596100Y-122878600D03*
%TD*%
D12*
%TO.N,VDD_EXT_1V8*%
X153346100Y-118433600D03*
%TO.N,GND*%
X141336100Y-122333600D03*
X135466100Y-112483600D03*
X142360300Y-91477440D03*
X135366100Y-99513600D03*
X135346100Y-98523600D03*
X158326100Y-91533600D03*
X162216100Y-95593600D03*
X141396100Y-91493600D03*
X135426100Y-114503600D03*
X143296100Y-122253600D03*
X140326100Y-122323600D03*
X162321100Y-98498600D03*
X148306100Y-118513600D03*
X135356100Y-95503600D03*
X156276100Y-91553600D03*
X135396100Y-111493600D03*
%TO.N,+3V8*%
X162256100Y-97063600D03*
X131276100Y-97093600D03*
X162218630Y-113430870D03*
%TO.N,/RTS*%
X130896100Y-99533600D03*
%TO.N,/CTS*%
X131531100Y-100503600D03*
%TO.N,/ANT MAIN*%
X159246100Y-87803600D03*
%TO.N,/RXD*%
X131830980Y-102598390D03*
%TO.N,/TXD*%
X131786890Y-105610950D03*
%TO.N,/USB_P*%
X151311450Y-118511480D03*
%TO.N,/USB_N*%
X150276100Y-118433600D03*
%TO.N,/USIM_VDD*%
X160496100Y-117713600D03*
%TO.N,/USIM_DATA*%
X155322374Y-115726374D03*
%TO.N,/USIM_CLK*%
X159966100Y-115833600D03*
%TO.N,/USIM_RST*%
X159036100Y-114553600D03*
%TD*%
D13*
%TO.N,VDD_EXT_1V8*%
X153394700Y-118385000D02*
X153574300Y-118385000D01*
X153346100Y-118433600D02*
X153394700Y-118385000D01*
X166595850Y-117115760D02*
X166595850Y-103473850D01*
X153574300Y-118385000D02*
X153584550Y-118374760D01*
X167436100Y-102633600D02*
X168506100Y-102633600D01*
X153584550Y-118374760D02*
X165336850Y-118374760D01*
X165336850Y-118374760D02*
X166595850Y-117115760D01*
X166595850Y-103473850D02*
X167436100Y-102633600D01*
%TO.N,+3V8*%
X162017500Y-97112200D02*
X162207500Y-97112200D01*
X162218630Y-113430870D02*
X162218630Y-100116130D01*
X134786100Y-121443600D02*
X147216100Y-121443600D01*
X161236100Y-99133600D02*
X161236100Y-97893600D01*
X162207500Y-97112200D02*
X162256100Y-97063600D01*
X131338310Y-97031390D02*
X162017500Y-97031390D01*
X161236100Y-99133600D02*
X162218630Y-100116130D01*
X131276100Y-97093600D02*
X131338310Y-97031390D01*
X131276100Y-97093600D02*
X133126100Y-98943600D01*
X133126100Y-119783600D02*
X134786100Y-121443600D01*
X133126100Y-98943600D02*
X133126100Y-119783600D01*
X147216100Y-121443600D02*
X148436100Y-122663600D01*
X161236100Y-97893600D02*
X162017500Y-97112200D01*
X148436100Y-122663600D02*
X148436100Y-123503600D01*
%TO.N,/RTS*%
X130896100Y-99533600D02*
X130436100Y-99533600D01*
X129878100Y-98975600D02*
X129878100Y-93801600D01*
X134218100Y-89461600D02*
X143568100Y-89461600D01*
X143568100Y-89461600D02*
X144906100Y-88123600D01*
X129878100Y-93801600D02*
X134218100Y-89461600D01*
X130436100Y-99533600D02*
X129878100Y-98975600D01*
X144906100Y-88123600D02*
X144906100Y-86503600D01*
%TO.N,/CTS*%
X130696100Y-100513600D02*
X129346100Y-99163600D01*
X141366100Y-88953600D02*
X142366100Y-87953600D01*
X131531100Y-100503600D02*
X131521100Y-100513600D01*
X131521100Y-100513600D02*
X130696100Y-100513600D01*
X133976100Y-88953600D02*
X141366100Y-88953600D01*
X129346100Y-99163600D02*
X129346100Y-93583600D01*
X142366100Y-87953600D02*
X142366100Y-86503600D01*
X129346100Y-93583600D02*
X133976100Y-88953600D01*
%TO.N,/ANT MAIN*%
X132386100Y-101043600D02*
X132386100Y-99963600D01*
X130526100Y-102903600D02*
X132386100Y-101043600D01*
X130386100Y-97963590D02*
X130386100Y-94043600D01*
X134426100Y-90003600D02*
X157046100Y-90003600D01*
X130526100Y-108873600D02*
X130526100Y-102903600D01*
X128496100Y-109533600D02*
X129866100Y-109533600D01*
X132386100Y-99963600D02*
X130386100Y-97963590D01*
X129866100Y-109533600D02*
X130526100Y-108873600D01*
X157046100Y-90003600D02*
X159246100Y-87803600D01*
X130386100Y-94043600D02*
X134426100Y-90003600D01*
%TO.N,/RXD*%
X131151890Y-103277480D02*
X131830980Y-102598390D01*
X128496100Y-112073600D02*
X130686100Y-112073600D01*
X130686100Y-112073600D02*
X131151890Y-111607810D01*
X131151890Y-111607810D02*
X131151890Y-103277480D01*
%TO.N,/TXD*%
X131176100Y-114613600D02*
X131786890Y-114002810D01*
X131786890Y-114002810D02*
X131786890Y-105610950D01*
X128496100Y-114613600D02*
X131176100Y-114613600D01*
D14*
%TO.N,/USB_P*%
X151247070Y-118447100D02*
X151311450Y-118511480D01*
X149197310Y-118198330D02*
X149645930Y-117749720D01*
X153516100Y-123483600D02*
X153516100Y-122243600D01*
X150929810Y-117749720D02*
X151247070Y-118066980D01*
X153516100Y-122243600D02*
X152866100Y-121593600D01*
X151247070Y-118066980D02*
X151247070Y-118447100D01*
X149645930Y-117749720D02*
X150929810Y-117749720D01*
X149436100Y-121593600D02*
X149197310Y-121354810D01*
X149197310Y-121354810D02*
X149197310Y-118198330D01*
X153546100Y-123513600D02*
X153516100Y-123483600D01*
X152866100Y-121593600D02*
X149436100Y-121593600D01*
%TO.N,/USB_N*%
X155386100Y-120813600D02*
X154636100Y-120813600D01*
X156056100Y-121483600D02*
X155386100Y-120813600D01*
X149696100Y-118553600D02*
X149816100Y-118433600D01*
X156056100Y-123503600D02*
X156056100Y-121483600D01*
X154636100Y-120813600D02*
X154386100Y-121063600D01*
X149696100Y-120989200D02*
X149696100Y-118553600D01*
X149816100Y-118433600D02*
X150276100Y-118433600D01*
X154386100Y-121063600D02*
X149770500Y-121063600D01*
X149770500Y-121063600D02*
X149696100Y-120989200D01*
%TO.N,/USIM_VDD*%
X165165730Y-117723600D02*
X166107100Y-116782230D01*
X160506100Y-117723600D02*
X165165730Y-117723600D01*
X160496100Y-117713600D02*
X160506100Y-117723600D01*
X167136100Y-100103600D02*
X168506100Y-100103600D01*
X166107100Y-116782230D02*
X166107100Y-101132600D01*
X166107100Y-101132600D02*
X167136100Y-100103600D01*
%TO.N,/USIM_DATA*%
X155415148Y-115633600D02*
X157964010Y-115633600D01*
X164716100Y-116733600D02*
X165586100Y-115863600D01*
X155322374Y-115726374D02*
X155415148Y-115633600D01*
X159064010Y-116733600D02*
X164716100Y-116733600D01*
X157964010Y-115633600D02*
X159064010Y-116733600D01*
X165586100Y-99163600D02*
X167196100Y-97553600D01*
X165586100Y-115863600D02*
X165586100Y-99163600D01*
X167196100Y-97553600D02*
X168506100Y-97553600D01*
%TO.N,/USIM_CLK*%
X165078100Y-115233600D02*
X165078100Y-97291600D01*
X164468100Y-115843600D02*
X165078100Y-115233600D01*
X165078100Y-97291600D02*
X167356100Y-95013600D01*
X167356100Y-95013600D02*
X168506100Y-95013600D01*
X159976100Y-115843600D02*
X164468100Y-115843600D01*
%TO.N,/USIM_RST*%
X167016100Y-92473600D02*
X168506100Y-92473600D01*
X164536100Y-94953600D02*
X167016100Y-92473600D01*
X159036100Y-114553600D02*
X159056100Y-114573600D01*
X164536100Y-114424810D02*
X164536100Y-94953600D01*
X164387310Y-114573600D02*
X164536100Y-114424810D01*
X159056100Y-114573600D02*
X164387310Y-114573600D01*
%TD*%
%TA.AperFunction,Conductor*%
%TO.N,GND*%
G36*
X132789738Y-101122158D02*
G01*
X132798600Y-101150264D01*
X132798600Y-119768227D01*
X132798507Y-119770363D01*
X132794813Y-119812586D01*
X132805778Y-119853507D01*
X132806241Y-119855594D01*
X132813602Y-119897337D01*
X132817695Y-119904427D01*
X132822588Y-119916242D01*
X132824705Y-119924142D01*
X132824706Y-119924143D01*
X132849015Y-119958860D01*
X132850156Y-119960651D01*
X132871348Y-119997358D01*
X132903814Y-120024600D01*
X132905391Y-120026045D01*
X134543653Y-121664308D01*
X134545098Y-121665885D01*
X134572336Y-121698347D01*
X134572338Y-121698349D01*
X134609036Y-121719536D01*
X134610840Y-121720685D01*
X134645555Y-121744994D01*
X134645557Y-121744995D01*
X134653460Y-121747112D01*
X134665280Y-121752009D01*
X134672358Y-121756095D01*
X134672358Y-121756096D01*
X134672359Y-121756096D01*
X134672361Y-121756097D01*
X134705218Y-121761890D01*
X134714094Y-121763455D01*
X134716178Y-121763917D01*
X134757116Y-121774887D01*
X134792064Y-121771829D01*
X134799342Y-121771193D01*
X134801478Y-121771100D01*
X147060150Y-121771100D01*
X147094798Y-121785452D01*
X147796248Y-122486902D01*
X147810600Y-122521550D01*
X147810600Y-123254100D01*
X147796248Y-123288748D01*
X147761600Y-123303100D01*
X128745600Y-123303100D01*
X128710952Y-123288748D01*
X128696600Y-123254100D01*
X128696600Y-115288100D01*
X128710952Y-115253452D01*
X128745600Y-115239100D01*
X129765845Y-115239100D01*
X129765848Y-115239100D01*
X129824331Y-115227467D01*
X129890652Y-115183152D01*
X129934967Y-115116831D01*
X129946600Y-115058348D01*
X129946600Y-114990100D01*
X129960952Y-114955452D01*
X129995600Y-114941100D01*
X131160727Y-114941100D01*
X131162863Y-114941193D01*
X131170809Y-114941888D01*
X131205084Y-114944887D01*
X131246021Y-114933916D01*
X131248100Y-114933456D01*
X131289839Y-114926097D01*
X131296927Y-114922004D01*
X131308737Y-114917111D01*
X131316643Y-114914994D01*
X131351350Y-114890691D01*
X131353147Y-114889545D01*
X131389860Y-114868350D01*
X131417118Y-114835863D01*
X131418539Y-114834313D01*
X132007620Y-114245233D01*
X132009158Y-114243823D01*
X132041640Y-114216570D01*
X132062830Y-114179865D01*
X132063976Y-114178068D01*
X132070429Y-114168852D01*
X132088285Y-114143353D01*
X132090403Y-114135444D01*
X132095297Y-114123632D01*
X132099387Y-114116549D01*
X132106745Y-114074812D01*
X132107208Y-114072726D01*
X132114894Y-114044047D01*
X132118177Y-114031794D01*
X132114483Y-113989568D01*
X132114390Y-113987432D01*
X132114390Y-105945312D01*
X132126358Y-105913224D01*
X132173169Y-105859201D01*
X132173172Y-105859198D01*
X132227464Y-105740314D01*
X132246064Y-105610950D01*
X132227464Y-105481586D01*
X132173172Y-105362702D01*
X132087585Y-105263929D01*
X131977638Y-105193271D01*
X131977635Y-105193270D01*
X131852241Y-105156450D01*
X131852237Y-105156450D01*
X131721543Y-105156450D01*
X131721538Y-105156450D01*
X131596144Y-105193270D01*
X131596142Y-105193270D01*
X131596142Y-105193271D01*
X131554880Y-105219788D01*
X131517974Y-105226446D01*
X131487168Y-105205057D01*
X131479390Y-105178566D01*
X131479390Y-103433430D01*
X131493742Y-103398782D01*
X131825283Y-103067242D01*
X131859931Y-103052890D01*
X131896326Y-103052890D01*
X131896327Y-103052890D01*
X131896329Y-103052889D01*
X131896331Y-103052889D01*
X131917064Y-103046800D01*
X132021728Y-103016069D01*
X132131675Y-102945411D01*
X132217262Y-102846638D01*
X132271554Y-102727754D01*
X132290154Y-102598390D01*
X132289485Y-102593740D01*
X132277166Y-102508060D01*
X132271554Y-102469026D01*
X132217262Y-102350142D01*
X132131675Y-102251369D01*
X132021728Y-102180711D01*
X132021725Y-102180710D01*
X131896331Y-102143890D01*
X131896327Y-102143890D01*
X131867259Y-102143890D01*
X131832611Y-102129538D01*
X131818259Y-102094890D01*
X131832611Y-102060242D01*
X131923753Y-101969100D01*
X132606819Y-101286034D01*
X132608369Y-101284613D01*
X132640850Y-101257360D01*
X132662043Y-101220650D01*
X132663183Y-101218860D01*
X132687494Y-101184143D01*
X132689611Y-101176237D01*
X132694504Y-101164427D01*
X132698597Y-101157339D01*
X132701344Y-101141755D01*
X132721494Y-101110126D01*
X132758108Y-101102008D01*
X132789738Y-101122158D01*
G37*
%TD.AperFunction*%
%TA.AperFunction,Conductor*%
G36*
X146806248Y-86718452D02*
G01*
X146820600Y-86753100D01*
X146820600Y-87773348D01*
X146832233Y-87831831D01*
X146849982Y-87858395D01*
X146876547Y-87898152D01*
X146903112Y-87915901D01*
X146942869Y-87942467D01*
X147001352Y-87954100D01*
X147001355Y-87954100D01*
X147890845Y-87954100D01*
X147890848Y-87954100D01*
X147949331Y-87942467D01*
X148015652Y-87898152D01*
X148059967Y-87831831D01*
X148071600Y-87773348D01*
X148071600Y-86753100D01*
X148085952Y-86718452D01*
X148120600Y-86704100D01*
X168256600Y-86704100D01*
X168291248Y-86718452D01*
X168305600Y-86753100D01*
X168305600Y-91809100D01*
X168291248Y-91843748D01*
X168256600Y-91858100D01*
X167236352Y-91858100D01*
X167177869Y-91869733D01*
X167111547Y-91914047D01*
X167067233Y-91980369D01*
X167055600Y-92038852D01*
X167055600Y-92038855D01*
X167055600Y-92156357D01*
X167041248Y-92191005D01*
X167016159Y-92204415D01*
X166913094Y-92224915D01*
X166880474Y-92246711D01*
X166847810Y-92268537D01*
X166847806Y-92268540D01*
X166847591Y-92268684D01*
X166847579Y-92268692D01*
X166825766Y-92283268D01*
X166825763Y-92283271D01*
X166813719Y-92301296D01*
X166807626Y-92308720D01*
X164371221Y-94745125D01*
X164363799Y-94751217D01*
X164345767Y-94763266D01*
X164327854Y-94790073D01*
X164327852Y-94790077D01*
X164287417Y-94850592D01*
X164266928Y-94953600D01*
X164271159Y-94974870D01*
X164272100Y-94984429D01*
X164272100Y-114260600D01*
X164257748Y-114295248D01*
X164223100Y-114309600D01*
X159448441Y-114309600D01*
X159413793Y-114295248D01*
X159411409Y-114292688D01*
X159336795Y-114206579D01*
X159226848Y-114135921D01*
X159225241Y-114135449D01*
X159101451Y-114099100D01*
X159101447Y-114099100D01*
X158970753Y-114099100D01*
X158970748Y-114099100D01*
X158845354Y-114135920D01*
X158845352Y-114135920D01*
X158845352Y-114135921D01*
X158811549Y-114157644D01*
X158735404Y-114206579D01*
X158649820Y-114305348D01*
X158649817Y-114305352D01*
X158595526Y-114424234D01*
X158576926Y-114553598D01*
X158576926Y-114553601D01*
X158595526Y-114682965D01*
X158649817Y-114801847D01*
X158649820Y-114801851D01*
X158728603Y-114892771D01*
X158735405Y-114900621D01*
X158845352Y-114971279D01*
X158909451Y-114990100D01*
X158970748Y-115008099D01*
X158970751Y-115008099D01*
X158970753Y-115008100D01*
X158970754Y-115008100D01*
X159101446Y-115008100D01*
X159101447Y-115008100D01*
X159101449Y-115008099D01*
X159101451Y-115008099D01*
X159122184Y-115002010D01*
X159226848Y-114971279D01*
X159336795Y-114900621D01*
X159376749Y-114854512D01*
X159410285Y-114837725D01*
X159413781Y-114837600D01*
X164356480Y-114837600D01*
X164366038Y-114838540D01*
X164387310Y-114842772D01*
X164490318Y-114822283D01*
X164555600Y-114778662D01*
X164555600Y-114778661D01*
X164565797Y-114771848D01*
X164565798Y-114771846D01*
X164577643Y-114763933D01*
X164589695Y-114745894D01*
X164595780Y-114738480D01*
X164700980Y-114633280D01*
X164708394Y-114627195D01*
X164726433Y-114615143D01*
X164726435Y-114615139D01*
X164729845Y-114611731D01*
X164731555Y-114613441D01*
X164755527Y-114597414D01*
X164792311Y-114604720D01*
X164813156Y-114635897D01*
X164814100Y-114645470D01*
X164814100Y-115103952D01*
X164799748Y-115138600D01*
X164373100Y-115565248D01*
X164338452Y-115579600D01*
X160369776Y-115579600D01*
X160335128Y-115565248D01*
X160332744Y-115562688D01*
X160266795Y-115486579D01*
X160253642Y-115478126D01*
X160156848Y-115415921D01*
X160156845Y-115415920D01*
X160031451Y-115379100D01*
X160031447Y-115379100D01*
X159900753Y-115379100D01*
X159900748Y-115379100D01*
X159775354Y-115415920D01*
X159665404Y-115486579D01*
X159579820Y-115585348D01*
X159579817Y-115585352D01*
X159525526Y-115704234D01*
X159506926Y-115833598D01*
X159506926Y-115833601D01*
X159525526Y-115962965D01*
X159579817Y-116081847D01*
X159579820Y-116081851D01*
X159665403Y-116180619D01*
X159665405Y-116180621D01*
X159775352Y-116251279D01*
X159845127Y-116271766D01*
X159900748Y-116288099D01*
X159900751Y-116288099D01*
X159900753Y-116288100D01*
X159900754Y-116288100D01*
X160031446Y-116288100D01*
X160031447Y-116288100D01*
X160031449Y-116288099D01*
X160031451Y-116288099D01*
X160052184Y-116282010D01*
X160156848Y-116251279D01*
X160266795Y-116180621D01*
X160315414Y-116124512D01*
X160348950Y-116107725D01*
X160352446Y-116107600D01*
X164437270Y-116107600D01*
X164446828Y-116108540D01*
X164468100Y-116112772D01*
X164571108Y-116092283D01*
X164636390Y-116048662D01*
X164636390Y-116048661D01*
X164646587Y-116041848D01*
X164646588Y-116041846D01*
X164658433Y-116033933D01*
X164670485Y-116015894D01*
X164676570Y-116008480D01*
X165238452Y-115446599D01*
X165273100Y-115432247D01*
X165307748Y-115446599D01*
X165322100Y-115481247D01*
X165322100Y-115733951D01*
X165307748Y-115768599D01*
X164621100Y-116455248D01*
X164586452Y-116469600D01*
X159193658Y-116469600D01*
X159159010Y-116455248D01*
X158172484Y-115468722D01*
X158166392Y-115461299D01*
X158154343Y-115443267D01*
X158125408Y-115423933D01*
X158067015Y-115384915D01*
X157990012Y-115369600D01*
X157985281Y-115368659D01*
X157964010Y-115364428D01*
X157964009Y-115364428D01*
X157942739Y-115368659D01*
X157933180Y-115369600D01*
X155622281Y-115369600D01*
X155595790Y-115361822D01*
X155513122Y-115308695D01*
X155513119Y-115308694D01*
X155387725Y-115271874D01*
X155387721Y-115271874D01*
X155257027Y-115271874D01*
X155257022Y-115271874D01*
X155131628Y-115308694D01*
X155021678Y-115379353D01*
X154936094Y-115478122D01*
X154936091Y-115478126D01*
X154881800Y-115597008D01*
X154863200Y-115726372D01*
X154863200Y-115726375D01*
X154881800Y-115855739D01*
X154936091Y-115974621D01*
X154936094Y-115974625D01*
X154994343Y-116041848D01*
X155021679Y-116073395D01*
X155131626Y-116144053D01*
X155201401Y-116164540D01*
X155257022Y-116180873D01*
X155257025Y-116180873D01*
X155257027Y-116180874D01*
X155257028Y-116180874D01*
X155387720Y-116180874D01*
X155387721Y-116180874D01*
X155387723Y-116180873D01*
X155387725Y-116180873D01*
X155408458Y-116174784D01*
X155513122Y-116144053D01*
X155623069Y-116073395D01*
X155708656Y-115974622D01*
X155730749Y-115926245D01*
X155758197Y-115900689D01*
X155775321Y-115897600D01*
X157834362Y-115897600D01*
X157869010Y-115911952D01*
X158855534Y-116898476D01*
X158861628Y-116905901D01*
X158873676Y-116923933D01*
X158895719Y-116938661D01*
X158895720Y-116938662D01*
X158961002Y-116982283D01*
X159064010Y-117002772D01*
X159085281Y-116998540D01*
X159094840Y-116997600D01*
X164685270Y-116997600D01*
X164694828Y-116998540D01*
X164716100Y-117002772D01*
X164819108Y-116982283D01*
X164884390Y-116938662D01*
X164884390Y-116938661D01*
X164894587Y-116931848D01*
X164894588Y-116931846D01*
X164906433Y-116923933D01*
X164918485Y-116905894D01*
X164924570Y-116898480D01*
X165750982Y-116072069D01*
X165758400Y-116065981D01*
X165766880Y-116060316D01*
X165803663Y-116053002D01*
X165834844Y-116073840D01*
X165843100Y-116101060D01*
X165843100Y-116652582D01*
X165828748Y-116687230D01*
X165070730Y-117445248D01*
X165036082Y-117459600D01*
X160899776Y-117459600D01*
X160865128Y-117445248D01*
X160862744Y-117442688D01*
X160796795Y-117366579D01*
X160781516Y-117356760D01*
X160686848Y-117295921D01*
X160686845Y-117295920D01*
X160561451Y-117259100D01*
X160561447Y-117259100D01*
X160430753Y-117259100D01*
X160430748Y-117259100D01*
X160305354Y-117295920D01*
X160195404Y-117366579D01*
X160109820Y-117465348D01*
X160109817Y-117465352D01*
X160055526Y-117584234D01*
X160036926Y-117713598D01*
X160036926Y-117713601D01*
X160055526Y-117842965D01*
X160109817Y-117961847D01*
X160109823Y-117961855D01*
X160113564Y-117966173D01*
X160125407Y-118001757D01*
X160108619Y-118035292D01*
X160076532Y-118047260D01*
X153599999Y-118047260D01*
X153597850Y-118047165D01*
X153597016Y-118047091D01*
X153595524Y-118046960D01*
X153573339Y-118039372D01*
X153558812Y-118030036D01*
X153536848Y-118015921D01*
X153536847Y-118015920D01*
X153536846Y-118015920D01*
X153411451Y-117979100D01*
X153411447Y-117979100D01*
X153280753Y-117979100D01*
X153280748Y-117979100D01*
X153155354Y-118015920D01*
X153155352Y-118015920D01*
X153155352Y-118015921D01*
X153133385Y-118030038D01*
X153045404Y-118086579D01*
X152959820Y-118185348D01*
X152959817Y-118185352D01*
X152905526Y-118304234D01*
X152886926Y-118433598D01*
X152886926Y-118433601D01*
X152905526Y-118562965D01*
X152959817Y-118681847D01*
X152959820Y-118681851D01*
X152980786Y-118706047D01*
X153045405Y-118780621D01*
X153155352Y-118851279D01*
X153225127Y-118871766D01*
X153280748Y-118888099D01*
X153280751Y-118888099D01*
X153280753Y-118888100D01*
X153280754Y-118888100D01*
X153411446Y-118888100D01*
X153411447Y-118888100D01*
X153411449Y-118888099D01*
X153411451Y-118888099D01*
X153432184Y-118882010D01*
X153536848Y-118851279D01*
X153646795Y-118780621D01*
X153700041Y-118719172D01*
X153733577Y-118702385D01*
X153737073Y-118702260D01*
X165321477Y-118702260D01*
X165323613Y-118702353D01*
X165331559Y-118703048D01*
X165365834Y-118706047D01*
X165406771Y-118695076D01*
X165408850Y-118694616D01*
X165450589Y-118687257D01*
X165457677Y-118683164D01*
X165469487Y-118678271D01*
X165477393Y-118676154D01*
X165512100Y-118651851D01*
X165513897Y-118650705D01*
X165550610Y-118629510D01*
X165577868Y-118597023D01*
X165579289Y-118595473D01*
X166816580Y-117358183D01*
X166818118Y-117356773D01*
X166850600Y-117329520D01*
X166871796Y-117292805D01*
X166872936Y-117291016D01*
X166897244Y-117256303D01*
X166899361Y-117248397D01*
X166904254Y-117236587D01*
X166908347Y-117229499D01*
X166915706Y-117187758D01*
X166916169Y-117185672D01*
X166927137Y-117144744D01*
X166923443Y-117102522D01*
X166923350Y-117100386D01*
X166923350Y-103629800D01*
X166937702Y-103595152D01*
X167249403Y-103283452D01*
X167284051Y-103269100D01*
X168256600Y-103269100D01*
X168291248Y-103283452D01*
X168305600Y-103318100D01*
X168305600Y-104509100D01*
X168291248Y-104543748D01*
X168256600Y-104558100D01*
X167236352Y-104558100D01*
X167177869Y-104569733D01*
X167111547Y-104614047D01*
X167067233Y-104680369D01*
X167055600Y-104738852D01*
X167055600Y-105628348D01*
X167067233Y-105686831D01*
X167084982Y-105713395D01*
X167111547Y-105753152D01*
X167138112Y-105770901D01*
X167177869Y-105797467D01*
X167236352Y-105809100D01*
X168256600Y-105809100D01*
X168291248Y-105823452D01*
X168305600Y-105858100D01*
X168305600Y-123254100D01*
X168291248Y-123288748D01*
X168256600Y-123303100D01*
X159270600Y-123303100D01*
X159235952Y-123288748D01*
X159221600Y-123254100D01*
X159221600Y-122233855D01*
X159221600Y-122233852D01*
X159209967Y-122175369D01*
X159183401Y-122135612D01*
X159165652Y-122109047D01*
X159125895Y-122082482D01*
X159099331Y-122064733D01*
X159040848Y-122053100D01*
X158151352Y-122053100D01*
X158092869Y-122064733D01*
X158026547Y-122109047D01*
X157996182Y-122154493D01*
X157982233Y-122175369D01*
X157970600Y-122233852D01*
X157970600Y-122233855D01*
X157970600Y-123254100D01*
X157956248Y-123288748D01*
X157921600Y-123303100D01*
X156730600Y-123303100D01*
X156695952Y-123288748D01*
X156681600Y-123254100D01*
X156681600Y-122233855D01*
X156681600Y-122233852D01*
X156669967Y-122175369D01*
X156643401Y-122135612D01*
X156625652Y-122109047D01*
X156585895Y-122082482D01*
X156559331Y-122064733D01*
X156500848Y-122053100D01*
X156500845Y-122053100D01*
X156369100Y-122053100D01*
X156334452Y-122038748D01*
X156320100Y-122004100D01*
X156320100Y-121514425D01*
X156321041Y-121504867D01*
X156321059Y-121504771D01*
X156325271Y-121483600D01*
X156320100Y-121457601D01*
X156320100Y-121457598D01*
X156304783Y-121380592D01*
X156266955Y-121323979D01*
X156246433Y-121293266D01*
X156228401Y-121281218D01*
X156220976Y-121275124D01*
X155594574Y-120648722D01*
X155588482Y-120641299D01*
X155576433Y-120623267D01*
X155489108Y-120564917D01*
X155489107Y-120564916D01*
X155489105Y-120564915D01*
X155412102Y-120549600D01*
X155407371Y-120548659D01*
X155386100Y-120544428D01*
X155386099Y-120544428D01*
X155364829Y-120548659D01*
X155355270Y-120549600D01*
X154666926Y-120549600D01*
X154657368Y-120548659D01*
X154646614Y-120546520D01*
X154636100Y-120544429D01*
X154636099Y-120544429D01*
X154612465Y-120549128D01*
X154612459Y-120549131D01*
X154610101Y-120549600D01*
X154610098Y-120549600D01*
X154533102Y-120564915D01*
X154533092Y-120564917D01*
X154445769Y-120623264D01*
X154445766Y-120623267D01*
X154433717Y-120641299D01*
X154427625Y-120648721D01*
X154291100Y-120785248D01*
X154256452Y-120799600D01*
X150009100Y-120799600D01*
X149974452Y-120785248D01*
X149960100Y-120750600D01*
X149960100Y-118860521D01*
X149974452Y-118825873D01*
X150009100Y-118811521D01*
X150035591Y-118819300D01*
X150085352Y-118851279D01*
X150160767Y-118873423D01*
X150210748Y-118888099D01*
X150210751Y-118888099D01*
X150210753Y-118888100D01*
X150210754Y-118888100D01*
X150341446Y-118888100D01*
X150341447Y-118888100D01*
X150341449Y-118888099D01*
X150341451Y-118888099D01*
X150362184Y-118882010D01*
X150466848Y-118851279D01*
X150576795Y-118780621D01*
X150662382Y-118681848D01*
X150716674Y-118562964D01*
X150735274Y-118433600D01*
X150716674Y-118304236D01*
X150662382Y-118185352D01*
X150662379Y-118185348D01*
X150583926Y-118094808D01*
X150572083Y-118059224D01*
X150588870Y-118025688D01*
X150620958Y-118013720D01*
X150800162Y-118013720D01*
X150834810Y-118028072D01*
X150960131Y-118153393D01*
X150974483Y-118188041D01*
X150962516Y-118220128D01*
X150925168Y-118263231D01*
X150925167Y-118263234D01*
X150870876Y-118382114D01*
X150852276Y-118511478D01*
X150852276Y-118511481D01*
X150870876Y-118640845D01*
X150925167Y-118759727D01*
X150925170Y-118759731D01*
X151004496Y-118851278D01*
X151010755Y-118858501D01*
X151120702Y-118929159D01*
X151190477Y-118949646D01*
X151246098Y-118965979D01*
X151246101Y-118965979D01*
X151246103Y-118965980D01*
X151246104Y-118965980D01*
X151376796Y-118965980D01*
X151376797Y-118965980D01*
X151376799Y-118965979D01*
X151376801Y-118965979D01*
X151397534Y-118959890D01*
X151502198Y-118929159D01*
X151612145Y-118858501D01*
X151697732Y-118759728D01*
X151752024Y-118640844D01*
X151770624Y-118511480D01*
X151752024Y-118382116D01*
X151697732Y-118263232D01*
X151680432Y-118243267D01*
X151612145Y-118164459D01*
X151584880Y-118146937D01*
X151537997Y-118116807D01*
X151516609Y-118086002D01*
X151516483Y-118071806D01*
X151516241Y-118071806D01*
X151516241Y-118066980D01*
X151511070Y-118040982D01*
X151511070Y-118040981D01*
X151511070Y-118040978D01*
X151495753Y-117963972D01*
X151472159Y-117928662D01*
X151452132Y-117898690D01*
X151452131Y-117898689D01*
X151450794Y-117896688D01*
X151437403Y-117876646D01*
X151419371Y-117864598D01*
X151411946Y-117858504D01*
X151138284Y-117584842D01*
X151132192Y-117577419D01*
X151120143Y-117559387D01*
X151032818Y-117501037D01*
X151032817Y-117501036D01*
X151032815Y-117501035D01*
X150955812Y-117485720D01*
X150951081Y-117484779D01*
X150929810Y-117480548D01*
X150929809Y-117480548D01*
X150908539Y-117484779D01*
X150898980Y-117485720D01*
X149676758Y-117485720D01*
X149667200Y-117484779D01*
X149657486Y-117482847D01*
X149645933Y-117480549D01*
X149645932Y-117480549D01*
X149621544Y-117485399D01*
X149621539Y-117485400D01*
X149619930Y-117485720D01*
X149619928Y-117485720D01*
X149601785Y-117489328D01*
X149564025Y-117496838D01*
X149551912Y-117499248D01*
X149547659Y-117500094D01*
X149546380Y-117500220D01*
X149542922Y-117501036D01*
X149509653Y-117523267D01*
X149477642Y-117544656D01*
X149477639Y-117544658D01*
X149455596Y-117559387D01*
X149455594Y-117559389D01*
X149443549Y-117577415D01*
X149437457Y-117584838D01*
X149032428Y-117989858D01*
X149025006Y-117995949D01*
X149006977Y-118007996D01*
X148992248Y-118030038D01*
X148948627Y-118095320D01*
X148947811Y-118098774D01*
X148947686Y-118100053D01*
X148943158Y-118122819D01*
X148928138Y-118198324D01*
X148928138Y-118198325D01*
X148932369Y-118219598D01*
X148933310Y-118229157D01*
X148933310Y-121323979D01*
X148932369Y-121333537D01*
X148928138Y-121354810D01*
X148933266Y-121380592D01*
X148933310Y-121380812D01*
X148948625Y-121457815D01*
X148948626Y-121457817D01*
X148948627Y-121457818D01*
X149006977Y-121545143D01*
X149025009Y-121557192D01*
X149032432Y-121563284D01*
X149227624Y-121758476D01*
X149233718Y-121765901D01*
X149245766Y-121783933D01*
X149280744Y-121807304D01*
X149333092Y-121842283D01*
X149410098Y-121857600D01*
X149410102Y-121857600D01*
X149436100Y-121862771D01*
X149453773Y-121859255D01*
X149457368Y-121858541D01*
X149466926Y-121857600D01*
X152736452Y-121857600D01*
X152771099Y-121871951D01*
X152942805Y-122043658D01*
X152957157Y-122078305D01*
X152948899Y-122105528D01*
X152902233Y-122175368D01*
X152902233Y-122175369D01*
X152890600Y-122233852D01*
X152890600Y-122233855D01*
X152890600Y-123254100D01*
X152876248Y-123288748D01*
X152841600Y-123303100D01*
X151704100Y-123303100D01*
X151669452Y-123288748D01*
X151655100Y-123254100D01*
X151655100Y-123005600D01*
X150297101Y-123005600D01*
X150297101Y-123254100D01*
X150282749Y-123288748D01*
X150248101Y-123303100D01*
X149110600Y-123303100D01*
X149075952Y-123288748D01*
X149061600Y-123254100D01*
X149061600Y-122751600D01*
X150297100Y-122751600D01*
X150849100Y-122751600D01*
X150849100Y-121999600D01*
X151103100Y-121999600D01*
X151103100Y-122751600D01*
X151655099Y-122751600D01*
X151655099Y-122228586D01*
X151640362Y-122154493D01*
X151584224Y-122070475D01*
X151500206Y-122014337D01*
X151426114Y-121999600D01*
X151103100Y-121999600D01*
X150849100Y-121999600D01*
X150526086Y-121999600D01*
X150451993Y-122014337D01*
X150367975Y-122070475D01*
X150311837Y-122154493D01*
X150297100Y-122228586D01*
X150297100Y-122751600D01*
X149061600Y-122751600D01*
X149061600Y-122233855D01*
X149061600Y-122233852D01*
X149049967Y-122175369D01*
X149023401Y-122135612D01*
X149005652Y-122109047D01*
X148965895Y-122082482D01*
X148939331Y-122064733D01*
X148880848Y-122053100D01*
X148880845Y-122053100D01*
X148309051Y-122053100D01*
X148274403Y-122038748D01*
X147458545Y-121222891D01*
X147457100Y-121221314D01*
X147429858Y-121188848D01*
X147393151Y-121167656D01*
X147391360Y-121166515D01*
X147356643Y-121142206D01*
X147356642Y-121142205D01*
X147348742Y-121140088D01*
X147336927Y-121135195D01*
X147329837Y-121131102D01*
X147288094Y-121123741D01*
X147286007Y-121123278D01*
X147245086Y-121112313D01*
X147245084Y-121112313D01*
X147227787Y-121113826D01*
X147202863Y-121116007D01*
X147200727Y-121116100D01*
X134942051Y-121116100D01*
X134907403Y-121101748D01*
X133467952Y-119662297D01*
X133453600Y-119627649D01*
X133453600Y-98958961D01*
X133453692Y-98956842D01*
X133457387Y-98914616D01*
X133446418Y-98873682D01*
X133445956Y-98871598D01*
X133442905Y-98854297D01*
X133438597Y-98829861D01*
X133434505Y-98822774D01*
X133429610Y-98810956D01*
X133427494Y-98803057D01*
X133403194Y-98768353D01*
X133402046Y-98766551D01*
X133380849Y-98729839D01*
X133380847Y-98729836D01*
X133348385Y-98702598D01*
X133346808Y-98701153D01*
X132733751Y-98088096D01*
X132088191Y-97442537D01*
X132073840Y-97407890D01*
X132088192Y-97373242D01*
X132122840Y-97358890D01*
X161189360Y-97358890D01*
X161224008Y-97373242D01*
X161238360Y-97407890D01*
X161224008Y-97442538D01*
X161015396Y-97651148D01*
X161013821Y-97652592D01*
X160981349Y-97679840D01*
X160960157Y-97716544D01*
X160959009Y-97718347D01*
X160934708Y-97753053D01*
X160934705Y-97753059D01*
X160932587Y-97760962D01*
X160927696Y-97772771D01*
X160923602Y-97779862D01*
X160916244Y-97821592D01*
X160915781Y-97823679D01*
X160904813Y-97864614D01*
X160904813Y-97864616D01*
X160908507Y-97906842D01*
X160908600Y-97908961D01*
X160908600Y-99118227D01*
X160908507Y-99120363D01*
X160904813Y-99162586D01*
X160915778Y-99203507D01*
X160916241Y-99205594D01*
X160923602Y-99247337D01*
X160927695Y-99254427D01*
X160932588Y-99266242D01*
X160934705Y-99274142D01*
X160934706Y-99274143D01*
X160959015Y-99308860D01*
X160960156Y-99310651D01*
X160981348Y-99347358D01*
X160981349Y-99347359D01*
X160981350Y-99347360D01*
X161013814Y-99374600D01*
X161015391Y-99376045D01*
X161876778Y-100237432D01*
X161891130Y-100272080D01*
X161891130Y-113096507D01*
X161879162Y-113128595D01*
X161832349Y-113182621D01*
X161832347Y-113182624D01*
X161778056Y-113301504D01*
X161759456Y-113430868D01*
X161759456Y-113430871D01*
X161778056Y-113560235D01*
X161832347Y-113679117D01*
X161832350Y-113679121D01*
X161917934Y-113777890D01*
X161917935Y-113777891D01*
X162027882Y-113848549D01*
X162091248Y-113867155D01*
X162153278Y-113885369D01*
X162153281Y-113885369D01*
X162153283Y-113885370D01*
X162153284Y-113885370D01*
X162283976Y-113885370D01*
X162283977Y-113885370D01*
X162283979Y-113885369D01*
X162283981Y-113885369D01*
X162304714Y-113879280D01*
X162409378Y-113848549D01*
X162519325Y-113777891D01*
X162604912Y-113679118D01*
X162659204Y-113560234D01*
X162677804Y-113430870D01*
X162659204Y-113301506D01*
X162604912Y-113182622D01*
X162558098Y-113128595D01*
X162546130Y-113096507D01*
X162546130Y-100131494D01*
X162546223Y-100129358D01*
X162547081Y-100119549D01*
X162549916Y-100087146D01*
X162549587Y-100085920D01*
X162538950Y-100046223D01*
X162538487Y-100044135D01*
X162537515Y-100038625D01*
X162531127Y-100002391D01*
X162527035Y-99995304D01*
X162522140Y-99983486D01*
X162520024Y-99975587D01*
X162495724Y-99940883D01*
X162494576Y-99939081D01*
X162473379Y-99902369D01*
X162473377Y-99902366D01*
X162440915Y-99875128D01*
X162439338Y-99873683D01*
X161577952Y-99012297D01*
X161563600Y-98977649D01*
X161563600Y-98049549D01*
X161577951Y-98014902D01*
X162080526Y-97512326D01*
X162115173Y-97497975D01*
X162128972Y-97499959D01*
X162190753Y-97518100D01*
X162190758Y-97518100D01*
X162321446Y-97518100D01*
X162321447Y-97518100D01*
X162321449Y-97518099D01*
X162321451Y-97518099D01*
X162344677Y-97511279D01*
X162446848Y-97481279D01*
X162556795Y-97410621D01*
X162642382Y-97311848D01*
X162696674Y-97192964D01*
X162715274Y-97063600D01*
X162714809Y-97060369D01*
X162705274Y-96994048D01*
X162696674Y-96934236D01*
X162642382Y-96815352D01*
X162556795Y-96716579D01*
X162446848Y-96645921D01*
X162446845Y-96645920D01*
X162321451Y-96609100D01*
X162321447Y-96609100D01*
X162190753Y-96609100D01*
X162190748Y-96609100D01*
X162065351Y-96645921D01*
X161987254Y-96696111D01*
X161960763Y-96703890D01*
X131524757Y-96703890D01*
X131498266Y-96696112D01*
X131466848Y-96675921D01*
X131466847Y-96675920D01*
X131466846Y-96675920D01*
X131341451Y-96639100D01*
X131341447Y-96639100D01*
X131210753Y-96639100D01*
X131210748Y-96639100D01*
X131085354Y-96675920D01*
X130975404Y-96746579D01*
X130889820Y-96845348D01*
X130889817Y-96845352D01*
X130835526Y-96964234D01*
X130816926Y-97093598D01*
X130816926Y-97093601D01*
X130835526Y-97222965D01*
X130889817Y-97341847D01*
X130889820Y-97341851D01*
X130949409Y-97410620D01*
X130975405Y-97440621D01*
X131085352Y-97511279D01*
X131155127Y-97531766D01*
X131210748Y-97548099D01*
X131210751Y-97548099D01*
X131210753Y-97548100D01*
X131247150Y-97548100D01*
X131281798Y-97562452D01*
X132784248Y-99064902D01*
X132798600Y-99099550D01*
X132798600Y-99856935D01*
X132784248Y-99891583D01*
X132749600Y-99905935D01*
X132714952Y-99891583D01*
X132701344Y-99865444D01*
X132698597Y-99849861D01*
X132697715Y-99848334D01*
X132694509Y-99842780D01*
X132689612Y-99830959D01*
X132687495Y-99823057D01*
X132663183Y-99788338D01*
X132662036Y-99786536D01*
X132640849Y-99749839D01*
X132636723Y-99746377D01*
X132608376Y-99722591D01*
X132606814Y-99721159D01*
X130727952Y-97842287D01*
X130713600Y-97807639D01*
X130713600Y-94199550D01*
X130727952Y-94164902D01*
X134547403Y-90345452D01*
X134582051Y-90331100D01*
X157030727Y-90331100D01*
X157032863Y-90331193D01*
X157040809Y-90331888D01*
X157075084Y-90334887D01*
X157116021Y-90323916D01*
X157118100Y-90323456D01*
X157159839Y-90316097D01*
X157166927Y-90312004D01*
X157178737Y-90307111D01*
X157186643Y-90304994D01*
X157221350Y-90280691D01*
X157223147Y-90279545D01*
X157259860Y-90258350D01*
X157287118Y-90225863D01*
X157288539Y-90224313D01*
X159240403Y-88272452D01*
X159275051Y-88258100D01*
X159311446Y-88258100D01*
X159311447Y-88258100D01*
X159311449Y-88258099D01*
X159311451Y-88258099D01*
X159339006Y-88250008D01*
X159436848Y-88221279D01*
X159546795Y-88150621D01*
X159632382Y-88051848D01*
X159686674Y-87932964D01*
X159705274Y-87803600D01*
X159704605Y-87798950D01*
X159699925Y-87766398D01*
X159686674Y-87674236D01*
X159632382Y-87555352D01*
X159546795Y-87456579D01*
X159436848Y-87385921D01*
X159436845Y-87385920D01*
X159311451Y-87349100D01*
X159311447Y-87349100D01*
X159180753Y-87349100D01*
X159180748Y-87349100D01*
X159055354Y-87385920D01*
X158945404Y-87456579D01*
X158859820Y-87555348D01*
X158859817Y-87555352D01*
X158805526Y-87674234D01*
X158789915Y-87782807D01*
X158776062Y-87810481D01*
X156924798Y-89661748D01*
X156890150Y-89676100D01*
X143935050Y-89676100D01*
X143900402Y-89661748D01*
X143886050Y-89627100D01*
X143900402Y-89592452D01*
X144442402Y-89050452D01*
X145126819Y-88366034D01*
X145128369Y-88364613D01*
X145160850Y-88337360D01*
X145182040Y-88300655D01*
X145183186Y-88298858D01*
X145185518Y-88295526D01*
X145207495Y-88264143D01*
X145209613Y-88256234D01*
X145214507Y-88244422D01*
X145218597Y-88237339D01*
X145225955Y-88195602D01*
X145226418Y-88193516D01*
X145233427Y-88167360D01*
X145237387Y-88152584D01*
X145233693Y-88110362D01*
X145233600Y-88108226D01*
X145233600Y-88003100D01*
X145247952Y-87968452D01*
X145282600Y-87954100D01*
X145350845Y-87954100D01*
X145350848Y-87954100D01*
X145409331Y-87942467D01*
X145475652Y-87898152D01*
X145519967Y-87831831D01*
X145531600Y-87773348D01*
X145531600Y-86753100D01*
X145545952Y-86718452D01*
X145580600Y-86704100D01*
X146771600Y-86704100D01*
X146806248Y-86718452D01*
G37*
%TD.AperFunction*%
%TA.AperFunction,Conductor*%
G36*
X136646248Y-86718452D02*
G01*
X136660600Y-86753100D01*
X136660600Y-87773348D01*
X136672233Y-87831831D01*
X136689982Y-87858395D01*
X136716547Y-87898152D01*
X136743112Y-87915901D01*
X136782869Y-87942467D01*
X136841352Y-87954100D01*
X136841355Y-87954100D01*
X137730845Y-87954100D01*
X137730848Y-87954100D01*
X137789331Y-87942467D01*
X137855652Y-87898152D01*
X137899967Y-87831831D01*
X137911600Y-87773348D01*
X137911600Y-87255600D01*
X139147101Y-87255600D01*
X139147101Y-87778613D01*
X139161837Y-87852706D01*
X139217975Y-87936724D01*
X139301993Y-87992862D01*
X139376086Y-88007599D01*
X139699099Y-88007599D01*
X139699100Y-88007598D01*
X139699100Y-87255600D01*
X139953100Y-87255600D01*
X139953100Y-88007599D01*
X140276113Y-88007599D01*
X140350206Y-87992862D01*
X140434224Y-87936724D01*
X140490362Y-87852706D01*
X140505100Y-87778613D01*
X140505100Y-87255600D01*
X139953100Y-87255600D01*
X139699100Y-87255600D01*
X139147101Y-87255600D01*
X137911600Y-87255600D01*
X137911600Y-86753100D01*
X137925952Y-86718452D01*
X137960600Y-86704100D01*
X139098100Y-86704100D01*
X139132748Y-86718452D01*
X139147100Y-86753100D01*
X139147100Y-87001600D01*
X140505099Y-87001600D01*
X140505099Y-86753100D01*
X140519451Y-86718452D01*
X140554099Y-86704100D01*
X141691600Y-86704100D01*
X141726248Y-86718452D01*
X141740600Y-86753100D01*
X141740600Y-87773348D01*
X141752233Y-87831831D01*
X141769982Y-87858395D01*
X141796547Y-87898152D01*
X141843922Y-87929807D01*
X141864758Y-87960990D01*
X141857441Y-87997772D01*
X141851347Y-88005197D01*
X141244798Y-88611748D01*
X141210150Y-88626100D01*
X133991473Y-88626100D01*
X133989337Y-88626007D01*
X133957992Y-88623264D01*
X133947116Y-88622313D01*
X133947115Y-88622313D01*
X133947114Y-88622313D01*
X133906186Y-88633279D01*
X133904100Y-88633742D01*
X133862359Y-88641103D01*
X133862358Y-88641103D01*
X133855274Y-88645193D01*
X133843465Y-88650085D01*
X133835559Y-88652204D01*
X133835554Y-88652206D01*
X133800834Y-88676517D01*
X133799031Y-88677666D01*
X133762341Y-88698848D01*
X133735097Y-88731315D01*
X133733653Y-88732891D01*
X129125397Y-93341148D01*
X129123821Y-93342592D01*
X129091349Y-93369840D01*
X129070157Y-93406544D01*
X129069009Y-93408347D01*
X129044708Y-93443053D01*
X129044705Y-93443059D01*
X129042587Y-93450962D01*
X129037696Y-93462771D01*
X129033602Y-93469862D01*
X129026244Y-93511592D01*
X129025781Y-93513679D01*
X129014813Y-93554614D01*
X129014813Y-93554616D01*
X129018507Y-93596842D01*
X129018600Y-93598961D01*
X129018600Y-99148227D01*
X129018507Y-99150363D01*
X129015339Y-99186579D01*
X129014813Y-99192586D01*
X129025778Y-99233507D01*
X129026241Y-99235594D01*
X129033602Y-99277337D01*
X129037695Y-99284427D01*
X129042588Y-99296242D01*
X129044705Y-99304142D01*
X129044706Y-99304143D01*
X129069015Y-99338860D01*
X129070156Y-99340651D01*
X129091348Y-99377358D01*
X129123814Y-99404600D01*
X129125391Y-99406045D01*
X130453653Y-100734308D01*
X130455098Y-100735885D01*
X130482336Y-100768347D01*
X130482339Y-100768349D01*
X130482340Y-100768350D01*
X130490772Y-100773218D01*
X130519051Y-100789546D01*
X130520853Y-100790694D01*
X130555557Y-100814994D01*
X130563456Y-100817110D01*
X130575274Y-100822005D01*
X130579629Y-100824520D01*
X130582357Y-100826095D01*
X130582358Y-100826095D01*
X130582361Y-100826097D01*
X130624114Y-100833458D01*
X130626173Y-100833915D01*
X130667115Y-100844886D01*
X130701640Y-100841865D01*
X130709329Y-100841193D01*
X130711465Y-100841100D01*
X131201203Y-100841100D01*
X131227694Y-100848879D01*
X131230405Y-100850621D01*
X131340352Y-100921279D01*
X131390079Y-100935880D01*
X131465748Y-100958099D01*
X131465751Y-100958099D01*
X131465753Y-100958100D01*
X131465754Y-100958100D01*
X131596446Y-100958100D01*
X131596447Y-100958100D01*
X131596449Y-100958099D01*
X131596451Y-100958099D01*
X131617184Y-100952010D01*
X131721848Y-100921279D01*
X131831795Y-100850621D01*
X131917382Y-100751848D01*
X131965028Y-100647517D01*
X131992476Y-100621962D01*
X132029955Y-100623300D01*
X132055510Y-100650748D01*
X132058600Y-100667872D01*
X132058600Y-100887649D01*
X132044248Y-100922297D01*
X130305396Y-102661148D01*
X130303821Y-102662592D01*
X130271349Y-102689840D01*
X130250157Y-102726544D01*
X130249009Y-102728347D01*
X130224708Y-102763053D01*
X130224705Y-102763059D01*
X130222587Y-102770962D01*
X130217696Y-102782771D01*
X130213602Y-102789862D01*
X130206244Y-102831592D01*
X130205781Y-102833679D01*
X130194813Y-102874614D01*
X130194813Y-102874616D01*
X130198507Y-102916842D01*
X130198600Y-102918961D01*
X130198600Y-108717649D01*
X130184248Y-108752297D01*
X129965653Y-108970891D01*
X129931005Y-108985243D01*
X129896357Y-108970891D01*
X129891143Y-108964538D01*
X129890653Y-108964048D01*
X129857491Y-108941890D01*
X129824331Y-108919733D01*
X129765848Y-108908100D01*
X129765845Y-108908100D01*
X128745600Y-108908100D01*
X128710952Y-108893748D01*
X128696600Y-108859100D01*
X128696600Y-107668100D01*
X128710952Y-107633452D01*
X128745600Y-107619100D01*
X129765845Y-107619100D01*
X129765848Y-107619100D01*
X129824331Y-107607467D01*
X129890652Y-107563152D01*
X129934967Y-107496831D01*
X129946600Y-107438348D01*
X129946600Y-106548852D01*
X129934967Y-106490369D01*
X129908401Y-106450612D01*
X129890652Y-106424047D01*
X129850895Y-106397482D01*
X129824331Y-106379733D01*
X129765848Y-106368100D01*
X129765845Y-106368100D01*
X128745600Y-106368100D01*
X128710952Y-106353748D01*
X128696600Y-106319100D01*
X128696600Y-105181599D01*
X128710952Y-105146951D01*
X128745600Y-105132599D01*
X128994100Y-105132599D01*
X128994100Y-104580600D01*
X129248100Y-104580600D01*
X129248100Y-105132599D01*
X129771113Y-105132599D01*
X129845206Y-105117862D01*
X129929224Y-105061724D01*
X129985362Y-104977706D01*
X130000100Y-104903613D01*
X130000100Y-104580600D01*
X129248100Y-104580600D01*
X128994100Y-104580600D01*
X128994100Y-103774600D01*
X129248100Y-103774600D01*
X129248100Y-104326600D01*
X130000099Y-104326600D01*
X130000099Y-104003586D01*
X129985362Y-103929493D01*
X129929224Y-103845475D01*
X129845206Y-103789337D01*
X129771114Y-103774600D01*
X129248100Y-103774600D01*
X128994100Y-103774600D01*
X128745600Y-103774600D01*
X128710952Y-103760248D01*
X128696600Y-103725600D01*
X128696600Y-86753100D01*
X128710952Y-86718452D01*
X128745600Y-86704100D01*
X136611600Y-86704100D01*
X136646248Y-86718452D01*
G37*
%TD.AperFunction*%
%TD*%
M02*
