M48
; DRILL file {KiCad 7.99.0-2677-g3cd60007c5} date 2023-11-18T11:29:51+0300
; FORMAT={-:-/ absolute / metric / decimal}
; #@! TF.CreationDate,2023-11-18T11:29:51+03:00
; #@! TF.GenerationSoftware,Kicad,Pcbnew,7.99.0-2677-g3cd60007c5
; #@! TF.FileFunction,Plated,1,2,PTH
FMAT,2
METRIC
; #@! TA.AperFunction,Plated,PTH,ViaDrill
T1C0.254
; #@! TA.AperFunction,Plated,PTH,ComponentDrill
T2C0.800
%
G90
G05
T1
X130.896Y-99.534
X131.276Y-97.094
X131.531Y-100.504
X131.787Y-105.611
X131.831Y-102.598
X135.346Y-98.524
X135.356Y-95.504
X135.366Y-99.514
X135.396Y-111.494
X135.426Y-114.504
X135.466Y-112.484
X140.326Y-122.324
X141.336Y-122.334
X141.396Y-91.494
X142.36Y-91.477
X143.296Y-122.254
X148.306Y-118.514
X150.276Y-118.434
X151.311Y-118.511
X153.346Y-118.434
X155.322Y-115.726
X156.276Y-91.554
X158.326Y-91.534
X159.036Y-114.554
X159.246Y-87.804
X159.966Y-115.834
X160.496Y-117.714
X162.216Y-95.594
X162.219Y-113.431
X162.256Y-97.064
X162.321Y-98.499
T2
X128.496Y-104.454
X128.496Y-106.994
X128.496Y-109.534
X128.496Y-112.074
X128.496Y-114.614
X137.286Y-86.504
X139.826Y-86.504
X142.366Y-86.504
X144.906Y-86.504
X147.446Y-86.504
X148.436Y-123.504
X150.976Y-123.504
X153.516Y-123.504
X156.056Y-123.504
X158.596Y-123.504
X168.506Y-92.484
X168.506Y-95.024
X168.506Y-97.564
X168.506Y-100.104
X168.506Y-102.644
X168.506Y-105.184
T0
M30
