%TF.GenerationSoftware,KiCad,Pcbnew,7.99.0-2677-g3cd60007c5*%
%TF.CreationDate,2023-11-18T11:29:50+03:00*%
%TF.ProjectId,Movita Pro V2_1,4d6f7669-7461-4205-9072-6f2056325f31,rev?*%
%TF.SameCoordinates,Original*%
%TF.FileFunction,Soldermask,Top*%
%TF.FilePolarity,Negative*%
%FSLAX46Y46*%
G04 Gerber Fmt 4.6, Leading zero omitted, Abs format (unit mm)*
G04 Created by KiCad (PCBNEW 7.99.0-2677-g3cd60007c5) date 2023-11-18 11:29:50*
%MOMM*%
%LPD*%
G01*
G04 APERTURE LIST*
G04 Aperture macros list*
%AMRoundRect*
0 Rectangle with rounded corners*
0 $1 Rounding radius*
0 $2 $3 $4 $5 $6 $7 $8 $9 X,Y pos of 4 corners*
0 Add a 4 corners polygon primitive as box body*
4,1,4,$2,$3,$4,$5,$6,$7,$8,$9,$2,$3,0*
0 Add four circle primitives for the rounded corners*
1,1,$1+$1,$2,$3*
1,1,$1+$1,$4,$5*
1,1,$1+$1,$6,$7*
1,1,$1+$1,$8,$9*
0 Add four rect primitives between the rounded corners*
20,1,$1+$1,$2,$3,$4,$5,0*
20,1,$1+$1,$4,$5,$6,$7,0*
20,1,$1+$1,$6,$7,$8,$9,0*
20,1,$1+$1,$8,$9,$2,$3,0*%
G04 Aperture macros list end*
%ADD10RoundRect,0.101600X-0.300000X-1.250000X0.300000X-1.250000X0.300000X1.250000X-0.300000X1.250000X0*%
%ADD11RoundRect,0.101600X1.250000X-0.300000X1.250000X0.300000X-1.250000X0.300000X-1.250000X-0.300000X0*%
%ADD12RoundRect,0.101600X-0.550000X-0.800000X0.550000X-0.800000X0.550000X0.800000X-0.550000X0.800000X0*%
%ADD13RoundRect,0.101600X0.800000X-0.550000X0.800000X0.550000X-0.800000X0.550000X-0.800000X-0.550000X0*%
%ADD14RoundRect,0.101600X-1.550000X-1.550000X1.550000X-1.550000X1.550000X1.550000X-1.550000X1.550000X0*%
%ADD15RoundRect,0.040000X0.625000X0.425000X-0.625000X0.425000X-0.625000X-0.425000X0.625000X-0.425000X0*%
%ADD16RoundRect,0.040000X-0.425000X0.625000X-0.425000X-0.625000X0.425000X-0.625000X0.425000X0.625000X0*%
%ADD17RoundRect,0.040000X-0.625000X-0.425000X0.625000X-0.425000X0.625000X0.425000X-0.625000X0.425000X0*%
%ADD18RoundRect,0.040000X0.425000X-0.625000X0.425000X0.625000X-0.425000X0.625000X-0.425000X-0.625000X0*%
G04 APERTURE END LIST*
D10*
%TO.C,U1*%
X139296100Y-120273600D03*
X140296100Y-120273600D03*
X141296100Y-120273600D03*
X142296100Y-120273600D03*
X143296100Y-120273600D03*
X144296100Y-120273600D03*
X145296100Y-120273600D03*
X146296100Y-120273600D03*
X147296100Y-120273600D03*
X148296100Y-120273600D03*
X149296100Y-120273600D03*
X150296100Y-120273600D03*
X151296100Y-120273600D03*
X152296100Y-120273600D03*
X153296100Y-120273600D03*
X154296100Y-120273600D03*
X155296100Y-120273600D03*
X156296100Y-120273600D03*
X157296100Y-120273600D03*
X158296100Y-120273600D03*
D11*
X164046100Y-114523600D03*
X164046100Y-113523600D03*
X164046100Y-112523600D03*
X164046100Y-111523600D03*
X164046100Y-110523600D03*
X164046100Y-109523600D03*
X164046100Y-108523600D03*
X164046100Y-107523600D03*
X164046100Y-106523600D03*
X164046100Y-105523600D03*
X164046100Y-104523600D03*
X164046100Y-103523600D03*
X164046100Y-102523600D03*
X164046100Y-101523600D03*
X164046100Y-100523600D03*
X164046100Y-99523600D03*
X164046100Y-98523600D03*
X164046100Y-97523600D03*
X164046100Y-96523600D03*
X164046100Y-95523600D03*
D10*
X158296100Y-89773600D03*
X157296100Y-89773600D03*
X156296100Y-89773600D03*
X155296100Y-89773600D03*
X154296100Y-89773600D03*
X153296100Y-89773600D03*
X152296100Y-89773600D03*
X151296100Y-89773600D03*
X150296100Y-89773600D03*
X149296100Y-89773600D03*
X148296100Y-89773600D03*
X147296100Y-89773600D03*
X146296100Y-89773600D03*
X145296100Y-89773600D03*
X144296100Y-89773600D03*
X143296100Y-89773600D03*
X142296100Y-89773600D03*
X141296100Y-89773600D03*
X140296100Y-89773600D03*
X139296100Y-89773600D03*
D11*
X133546100Y-95523600D03*
X133546100Y-96523600D03*
X133546100Y-97523600D03*
X133546100Y-98523600D03*
X133546100Y-99523600D03*
X133546100Y-100523600D03*
X133546100Y-101523600D03*
X133546100Y-102523600D03*
X133546100Y-103523600D03*
X133546100Y-104523600D03*
X133546100Y-105523600D03*
X133546100Y-106523600D03*
X133546100Y-107523600D03*
X133546100Y-108523600D03*
X133546100Y-109523600D03*
X133546100Y-110523600D03*
X133546100Y-111523600D03*
X133546100Y-112523600D03*
X133546100Y-113523600D03*
X133546100Y-114523600D03*
D10*
X159296100Y-120273600D03*
X159296100Y-89773600D03*
D11*
X164046100Y-94523600D03*
X164046100Y-115523600D03*
D10*
X138296100Y-89773600D03*
D11*
X133546100Y-115523600D03*
X133546100Y-94523600D03*
D12*
X142496100Y-117023600D03*
X144296100Y-117023600D03*
X146096100Y-117023600D03*
X147896100Y-117023600D03*
X149696100Y-117023600D03*
X151496100Y-117023600D03*
X153296100Y-117023600D03*
X155096100Y-117023600D03*
D13*
X160796100Y-111323600D03*
X160796100Y-109523600D03*
X160796100Y-107723600D03*
X160796100Y-105923600D03*
X160796100Y-104123600D03*
X160796100Y-102323600D03*
X160796100Y-100523600D03*
X160796100Y-98723600D03*
D12*
X155096100Y-93023600D03*
X153296100Y-93023600D03*
X151496100Y-93023600D03*
X149696100Y-93023600D03*
X147896100Y-93023600D03*
X146096100Y-93023600D03*
X144296100Y-93023600D03*
X142496100Y-93023600D03*
D13*
X136796100Y-98723600D03*
X136796100Y-100523600D03*
X136796100Y-102323600D03*
X136796100Y-104123600D03*
X136796100Y-105923600D03*
X136796100Y-107723600D03*
X136796100Y-109523600D03*
X136796100Y-111323600D03*
D12*
X140696100Y-117023600D03*
X156896100Y-117023600D03*
D13*
X160796100Y-113123600D03*
X160796100Y-96923600D03*
D12*
X156896100Y-93023600D03*
X140696100Y-93023600D03*
D13*
X136796100Y-96923600D03*
X136796100Y-113123600D03*
D12*
X141596100Y-114273600D03*
X143396100Y-114273600D03*
X145196100Y-114273600D03*
X146996100Y-114273600D03*
X148796100Y-114273600D03*
X150596100Y-114273600D03*
X152396100Y-114273600D03*
X154196100Y-114273600D03*
X155996100Y-114273600D03*
D13*
X158046100Y-112223600D03*
X158046100Y-110423600D03*
X158046100Y-108623600D03*
X158046100Y-106823600D03*
X158046100Y-105023600D03*
X158046100Y-103223600D03*
X158046100Y-101423600D03*
X158046100Y-99623600D03*
X158046100Y-97823600D03*
D12*
X155996100Y-95773600D03*
X154196100Y-95773600D03*
X152396100Y-95773600D03*
X150596100Y-95773600D03*
X148796100Y-95773600D03*
X146996100Y-95773600D03*
X145196100Y-95773600D03*
X143396100Y-95773600D03*
X141596100Y-95773600D03*
D13*
X139546100Y-97823600D03*
X139546100Y-99623600D03*
X139546100Y-101423600D03*
X139546100Y-103223600D03*
X139546100Y-105023600D03*
X139546100Y-106823600D03*
X139546100Y-108623600D03*
X139546100Y-110423600D03*
X139546100Y-112223600D03*
D14*
X144796100Y-109023600D03*
X148796100Y-109023600D03*
X152796100Y-109023600D03*
X152796100Y-105023600D03*
X152796100Y-101023600D03*
X148796100Y-101023600D03*
X144796100Y-101023600D03*
X144796100Y-105023600D03*
X148796100Y-105023600D03*
%TD*%
D15*
%TO.C,J4*%
X167881100Y-105183600D03*
X167881100Y-102643600D03*
X167881100Y-100103600D03*
X167881100Y-97563600D03*
X167881100Y-95023600D03*
X167881100Y-92483600D03*
%TD*%
D16*
%TO.C,J1*%
X147446100Y-87128600D03*
X144906100Y-87128600D03*
X142366100Y-87128600D03*
X139826100Y-87128600D03*
X137286100Y-87128600D03*
%TD*%
D17*
%TO.C,J2*%
X129121100Y-104453600D03*
X129121100Y-106993600D03*
X129121100Y-109533600D03*
X129121100Y-112073600D03*
X129121100Y-114613600D03*
%TD*%
D18*
%TO.C,J3*%
X148436100Y-122878600D03*
X150976100Y-122878600D03*
X153516100Y-122878600D03*
X156056100Y-122878600D03*
X158596100Y-122878600D03*
%TD*%
M02*
