%TF.GenerationSoftware,KiCad,Pcbnew,7.99.0-2677-g3cd60007c5*%
%TF.CreationDate,2023-11-18T11:29:50+03:00*%
%TF.ProjectId,Movita Pro V2_1,4d6f7669-7461-4205-9072-6f2056325f31,rev?*%
%TF.SameCoordinates,Original*%
%TF.FileFunction,Legend,Top*%
%TF.FilePolarity,Positive*%
%FSLAX46Y46*%
G04 Gerber Fmt 4.6, Leading zero omitted, Abs format (unit mm)*
G04 Created by KiCad (PCBNEW 7.99.0-2677-g3cd60007c5) date 2023-11-18 11:29:50*
%MOMM*%
%LPD*%
G01*
G04 APERTURE LIST*
G04 Aperture macros list*
%AMRoundRect*
0 Rectangle with rounded corners*
0 $1 Rounding radius*
0 $2 $3 $4 $5 $6 $7 $8 $9 X,Y pos of 4 corners*
0 Add a 4 corners polygon primitive as box body*
4,1,4,$2,$3,$4,$5,$6,$7,$8,$9,$2,$3,0*
0 Add four circle primitives for the rounded corners*
1,1,$1+$1,$2,$3*
1,1,$1+$1,$4,$5*
1,1,$1+$1,$6,$7*
1,1,$1+$1,$8,$9*
0 Add four rect primitives between the rounded corners*
20,1,$1+$1,$2,$3,$4,$5,0*
20,1,$1+$1,$4,$5,$6,$7,0*
20,1,$1+$1,$6,$7,$8,$9,0*
20,1,$1+$1,$8,$9,$2,$3,0*%
G04 Aperture macros list end*
%ADD10C,0.250000*%
%ADD11C,0.100000*%
%ADD12C,0.200000*%
%ADD13C,0.120000*%
%ADD14RoundRect,0.101600X-0.300000X-1.250000X0.300000X-1.250000X0.300000X1.250000X-0.300000X1.250000X0*%
%ADD15RoundRect,0.101600X1.250000X-0.300000X1.250000X0.300000X-1.250000X0.300000X-1.250000X-0.300000X0*%
%ADD16RoundRect,0.101600X-0.550000X-0.800000X0.550000X-0.800000X0.550000X0.800000X-0.550000X0.800000X0*%
%ADD17RoundRect,0.101600X0.800000X-0.550000X0.800000X0.550000X-0.800000X0.550000X-0.800000X-0.550000X0*%
%ADD18RoundRect,0.101600X-1.550000X-1.550000X1.550000X-1.550000X1.550000X1.550000X-1.550000X1.550000X0*%
%ADD19RoundRect,0.040000X0.625000X0.425000X-0.625000X0.425000X-0.625000X-0.425000X0.625000X-0.425000X0*%
%ADD20RoundRect,0.040000X-0.425000X0.625000X-0.425000X-0.625000X0.425000X-0.625000X0.425000X0.625000X0*%
%ADD21RoundRect,0.040000X-0.625000X-0.425000X0.625000X-0.425000X0.625000X0.425000X-0.625000X0.425000X0*%
%ADD22RoundRect,0.040000X0.425000X-0.625000X0.425000X0.625000X-0.425000X0.625000X-0.425000X-0.625000X0*%
G04 APERTURE END LIST*
D10*
X154005049Y-87643370D02*
X154147906Y-87690989D01*
X154147906Y-87690989D02*
X154386001Y-87690989D01*
X154386001Y-87690989D02*
X154481239Y-87643370D01*
X154481239Y-87643370D02*
X154528858Y-87595750D01*
X154528858Y-87595750D02*
X154576477Y-87500512D01*
X154576477Y-87500512D02*
X154576477Y-87405274D01*
X154576477Y-87405274D02*
X154528858Y-87310036D01*
X154528858Y-87310036D02*
X154481239Y-87262417D01*
X154481239Y-87262417D02*
X154386001Y-87214798D01*
X154386001Y-87214798D02*
X154195525Y-87167179D01*
X154195525Y-87167179D02*
X154100287Y-87119560D01*
X154100287Y-87119560D02*
X154052668Y-87071941D01*
X154052668Y-87071941D02*
X154005049Y-86976703D01*
X154005049Y-86976703D02*
X154005049Y-86881465D01*
X154005049Y-86881465D02*
X154052668Y-86786227D01*
X154052668Y-86786227D02*
X154100287Y-86738608D01*
X154100287Y-86738608D02*
X154195525Y-86690989D01*
X154195525Y-86690989D02*
X154433620Y-86690989D01*
X154433620Y-86690989D02*
X154576477Y-86738608D01*
X155005049Y-87690989D02*
X155005049Y-87024322D01*
X155005049Y-87119560D02*
X155052668Y-87071941D01*
X155052668Y-87071941D02*
X155147906Y-87024322D01*
X155147906Y-87024322D02*
X155290763Y-87024322D01*
X155290763Y-87024322D02*
X155386001Y-87071941D01*
X155386001Y-87071941D02*
X155433620Y-87167179D01*
X155433620Y-87167179D02*
X155433620Y-87690989D01*
X155433620Y-87167179D02*
X155481239Y-87071941D01*
X155481239Y-87071941D02*
X155576477Y-87024322D01*
X155576477Y-87024322D02*
X155719334Y-87024322D01*
X155719334Y-87024322D02*
X155814573Y-87071941D01*
X155814573Y-87071941D02*
X155862192Y-87167179D01*
X155862192Y-87167179D02*
X155862192Y-87690989D01*
X156766953Y-87690989D02*
X156766953Y-87167179D01*
X156766953Y-87167179D02*
X156719334Y-87071941D01*
X156719334Y-87071941D02*
X156624096Y-87024322D01*
X156624096Y-87024322D02*
X156433620Y-87024322D01*
X156433620Y-87024322D02*
X156338382Y-87071941D01*
X156766953Y-87643370D02*
X156671715Y-87690989D01*
X156671715Y-87690989D02*
X156433620Y-87690989D01*
X156433620Y-87690989D02*
X156338382Y-87643370D01*
X156338382Y-87643370D02*
X156290763Y-87548131D01*
X156290763Y-87548131D02*
X156290763Y-87452893D01*
X156290763Y-87452893D02*
X156338382Y-87357655D01*
X156338382Y-87357655D02*
X156433620Y-87310036D01*
X156433620Y-87310036D02*
X156671715Y-87310036D01*
X156671715Y-87310036D02*
X156766953Y-87262417D01*
X157243144Y-87690989D02*
X157243144Y-87024322D01*
X157243144Y-87214798D02*
X157290763Y-87119560D01*
X157290763Y-87119560D02*
X157338382Y-87071941D01*
X157338382Y-87071941D02*
X157433620Y-87024322D01*
X157433620Y-87024322D02*
X157528858Y-87024322D01*
X157719335Y-87024322D02*
X158100287Y-87024322D01*
X157862192Y-86690989D02*
X157862192Y-87548131D01*
X157862192Y-87548131D02*
X157909811Y-87643370D01*
X157909811Y-87643370D02*
X158005049Y-87690989D01*
X158005049Y-87690989D02*
X158100287Y-87690989D01*
X158433621Y-87167179D02*
X158766954Y-87167179D01*
X158909811Y-87690989D02*
X158433621Y-87690989D01*
X158433621Y-87690989D02*
X158433621Y-86690989D01*
X158433621Y-86690989D02*
X158909811Y-86690989D01*
X159766954Y-87024322D02*
X159766954Y-88024322D01*
X159766954Y-87643370D02*
X159671716Y-87690989D01*
X159671716Y-87690989D02*
X159481240Y-87690989D01*
X159481240Y-87690989D02*
X159386002Y-87643370D01*
X159386002Y-87643370D02*
X159338383Y-87595750D01*
X159338383Y-87595750D02*
X159290764Y-87500512D01*
X159290764Y-87500512D02*
X159290764Y-87214798D01*
X159290764Y-87214798D02*
X159338383Y-87119560D01*
X159338383Y-87119560D02*
X159386002Y-87071941D01*
X159386002Y-87071941D02*
X159481240Y-87024322D01*
X159481240Y-87024322D02*
X159671716Y-87024322D01*
X159671716Y-87024322D02*
X159766954Y-87071941D01*
X161338383Y-87167179D02*
X161481240Y-87214798D01*
X161481240Y-87214798D02*
X161528859Y-87262417D01*
X161528859Y-87262417D02*
X161576478Y-87357655D01*
X161576478Y-87357655D02*
X161576478Y-87500512D01*
X161576478Y-87500512D02*
X161528859Y-87595750D01*
X161528859Y-87595750D02*
X161481240Y-87643370D01*
X161481240Y-87643370D02*
X161386002Y-87690989D01*
X161386002Y-87690989D02*
X161005050Y-87690989D01*
X161005050Y-87690989D02*
X161005050Y-86690989D01*
X161005050Y-86690989D02*
X161338383Y-86690989D01*
X161338383Y-86690989D02*
X161433621Y-86738608D01*
X161433621Y-86738608D02*
X161481240Y-86786227D01*
X161481240Y-86786227D02*
X161528859Y-86881465D01*
X161528859Y-86881465D02*
X161528859Y-86976703D01*
X161528859Y-86976703D02*
X161481240Y-87071941D01*
X161481240Y-87071941D02*
X161433621Y-87119560D01*
X161433621Y-87119560D02*
X161338383Y-87167179D01*
X161338383Y-87167179D02*
X161005050Y-87167179D01*
X162005050Y-87690989D02*
X162005050Y-87024322D01*
X162005050Y-86690989D02*
X161957431Y-86738608D01*
X161957431Y-86738608D02*
X162005050Y-86786227D01*
X162005050Y-86786227D02*
X162052669Y-86738608D01*
X162052669Y-86738608D02*
X162005050Y-86690989D01*
X162005050Y-86690989D02*
X162005050Y-86786227D01*
X162624097Y-87690989D02*
X162528859Y-87643370D01*
X162528859Y-87643370D02*
X162481240Y-87548131D01*
X162481240Y-87548131D02*
X162481240Y-86690989D01*
X163005050Y-87690989D02*
X163005050Y-87024322D01*
X163005050Y-86690989D02*
X162957431Y-86738608D01*
X162957431Y-86738608D02*
X163005050Y-86786227D01*
X163005050Y-86786227D02*
X163052669Y-86738608D01*
X163052669Y-86738608D02*
X163005050Y-86690989D01*
X163005050Y-86690989D02*
X163005050Y-86786227D01*
X163433621Y-87643370D02*
X163528859Y-87690989D01*
X163528859Y-87690989D02*
X163719335Y-87690989D01*
X163719335Y-87690989D02*
X163814573Y-87643370D01*
X163814573Y-87643370D02*
X163862192Y-87548131D01*
X163862192Y-87548131D02*
X163862192Y-87500512D01*
X163862192Y-87500512D02*
X163814573Y-87405274D01*
X163814573Y-87405274D02*
X163719335Y-87357655D01*
X163719335Y-87357655D02*
X163576478Y-87357655D01*
X163576478Y-87357655D02*
X163481240Y-87310036D01*
X163481240Y-87310036D02*
X163433621Y-87214798D01*
X163433621Y-87214798D02*
X163433621Y-87167179D01*
X163433621Y-87167179D02*
X163481240Y-87071941D01*
X163481240Y-87071941D02*
X163576478Y-87024322D01*
X163576478Y-87024322D02*
X163719335Y-87024322D01*
X163719335Y-87024322D02*
X163814573Y-87071941D01*
X164290764Y-87690989D02*
X164290764Y-87024322D01*
X164290764Y-86690989D02*
X164243145Y-86738608D01*
X164243145Y-86738608D02*
X164290764Y-86786227D01*
X164290764Y-86786227D02*
X164338383Y-86738608D01*
X164338383Y-86738608D02*
X164290764Y-86690989D01*
X164290764Y-86690989D02*
X164290764Y-86786227D01*
X164766954Y-87690989D02*
X164766954Y-87024322D01*
X164766954Y-87119560D02*
X164814573Y-87071941D01*
X164814573Y-87071941D02*
X164909811Y-87024322D01*
X164909811Y-87024322D02*
X165052668Y-87024322D01*
X165052668Y-87024322D02*
X165147906Y-87071941D01*
X165147906Y-87071941D02*
X165195525Y-87167179D01*
X165195525Y-87167179D02*
X165195525Y-87690989D01*
X165195525Y-87167179D02*
X165243144Y-87071941D01*
X165243144Y-87071941D02*
X165338382Y-87024322D01*
X165338382Y-87024322D02*
X165481239Y-87024322D01*
X165481239Y-87024322D02*
X165576478Y-87071941D01*
X165576478Y-87071941D02*
X165624097Y-87167179D01*
X165624097Y-87167179D02*
X165624097Y-87690989D01*
D11*
X133954195Y-88671019D02*
X133954195Y-89480542D01*
X133954195Y-89480542D02*
X134001814Y-89575780D01*
X134001814Y-89575780D02*
X134049433Y-89623400D01*
X134049433Y-89623400D02*
X134144671Y-89671019D01*
X134144671Y-89671019D02*
X134335147Y-89671019D01*
X134335147Y-89671019D02*
X134430385Y-89623400D01*
X134430385Y-89623400D02*
X134478004Y-89575780D01*
X134478004Y-89575780D02*
X134525623Y-89480542D01*
X134525623Y-89480542D02*
X134525623Y-88671019D01*
X135525623Y-89671019D02*
X134954195Y-89671019D01*
X135239909Y-89671019D02*
X135239909Y-88671019D01*
X135239909Y-88671019D02*
X135144671Y-88813876D01*
X135144671Y-88813876D02*
X135049433Y-88909114D01*
X135049433Y-88909114D02*
X134954195Y-88956733D01*
X167212766Y-90321019D02*
X167212766Y-91035304D01*
X167212766Y-91035304D02*
X167165147Y-91178161D01*
X167165147Y-91178161D02*
X167069909Y-91273400D01*
X167069909Y-91273400D02*
X166927052Y-91321019D01*
X166927052Y-91321019D02*
X166831814Y-91321019D01*
X168117528Y-90654352D02*
X168117528Y-91321019D01*
X167879433Y-90273400D02*
X167641338Y-90987685D01*
X167641338Y-90987685D02*
X168260385Y-90987685D01*
X135202766Y-86701019D02*
X135202766Y-87415304D01*
X135202766Y-87415304D02*
X135155147Y-87558161D01*
X135155147Y-87558161D02*
X135059909Y-87653400D01*
X135059909Y-87653400D02*
X134917052Y-87701019D01*
X134917052Y-87701019D02*
X134821814Y-87701019D01*
X136202766Y-87701019D02*
X135631338Y-87701019D01*
X135917052Y-87701019D02*
X135917052Y-86701019D01*
X135917052Y-86701019D02*
X135821814Y-86843876D01*
X135821814Y-86843876D02*
X135726576Y-86939114D01*
X135726576Y-86939114D02*
X135631338Y-86986733D01*
X129122766Y-102071019D02*
X129122766Y-102785304D01*
X129122766Y-102785304D02*
X129075147Y-102928161D01*
X129075147Y-102928161D02*
X128979909Y-103023400D01*
X128979909Y-103023400D02*
X128837052Y-103071019D01*
X128837052Y-103071019D02*
X128741814Y-103071019D01*
X129551338Y-102166257D02*
X129598957Y-102118638D01*
X129598957Y-102118638D02*
X129694195Y-102071019D01*
X129694195Y-102071019D02*
X129932290Y-102071019D01*
X129932290Y-102071019D02*
X130027528Y-102118638D01*
X130027528Y-102118638D02*
X130075147Y-102166257D01*
X130075147Y-102166257D02*
X130122766Y-102261495D01*
X130122766Y-102261495D02*
X130122766Y-102356733D01*
X130122766Y-102356733D02*
X130075147Y-102499590D01*
X130075147Y-102499590D02*
X129503719Y-103071019D01*
X129503719Y-103071019D02*
X130122766Y-103071019D01*
X159992766Y-122121019D02*
X159992766Y-122835304D01*
X159992766Y-122835304D02*
X159945147Y-122978161D01*
X159945147Y-122978161D02*
X159849909Y-123073400D01*
X159849909Y-123073400D02*
X159707052Y-123121019D01*
X159707052Y-123121019D02*
X159611814Y-123121019D01*
X160373719Y-122121019D02*
X160992766Y-122121019D01*
X160992766Y-122121019D02*
X160659433Y-122501971D01*
X160659433Y-122501971D02*
X160802290Y-122501971D01*
X160802290Y-122501971D02*
X160897528Y-122549590D01*
X160897528Y-122549590D02*
X160945147Y-122597209D01*
X160945147Y-122597209D02*
X160992766Y-122692447D01*
X160992766Y-122692447D02*
X160992766Y-122930542D01*
X160992766Y-122930542D02*
X160945147Y-123025780D01*
X160945147Y-123025780D02*
X160897528Y-123073400D01*
X160897528Y-123073400D02*
X160802290Y-123121019D01*
X160802290Y-123121019D02*
X160516576Y-123121019D01*
X160516576Y-123121019D02*
X160421338Y-123073400D01*
X160421338Y-123073400D02*
X160373719Y-123025780D01*
D12*
%TO.C,U1*%
X133796100Y-90023600D02*
X133796100Y-94023600D01*
X133796100Y-120023600D02*
X133796100Y-116023600D01*
X137796100Y-90023600D02*
X133796100Y-90023600D01*
X138696100Y-120023600D02*
X133796100Y-120023600D01*
D11*
X139296100Y-122023600D02*
X139296100Y-122023600D01*
X139296100Y-122123600D02*
X139296100Y-122123600D01*
D12*
X159796100Y-120023600D02*
X163796100Y-120023600D01*
X163796100Y-90023600D02*
X159796100Y-90023600D01*
X163796100Y-94023600D02*
X163796100Y-90023600D01*
X163796100Y-120023600D02*
X163796100Y-116023600D01*
D11*
X139296100Y-122023600D02*
G75*
G02*
X139296100Y-122123600I0J-50000D01*
G01*
X139296100Y-122123600D02*
G75*
G02*
X139296100Y-122023600I0J50000D01*
G01*
D13*
%TO.C,J4*%
X166780846Y-91658600D02*
X167475846Y-91658600D01*
X166781100Y-93493600D02*
X166780846Y-91658600D01*
X166826460Y-93818808D02*
X167135740Y-93818392D01*
X166846957Y-93818809D02*
X166851529Y-106183600D01*
X166851529Y-106183600D02*
X167260672Y-106183600D01*
%TO.C,J1*%
X136461100Y-88228854D02*
X136461100Y-87533854D01*
X138296100Y-88228600D02*
X136461100Y-88228854D01*
X138621308Y-88183240D02*
X138620892Y-87913600D01*
X138621308Y-88183240D02*
X148486100Y-88178853D01*
X148511100Y-88178853D02*
X148511100Y-87878346D01*
%TO.C,J2*%
X130171353Y-103388600D02*
X129870846Y-103388600D01*
X130175740Y-113278392D02*
X129906100Y-113278808D01*
X130175740Y-113278392D02*
X130171353Y-103413600D01*
X130221100Y-113603600D02*
X130221354Y-115438600D01*
X130221354Y-115438600D02*
X129526354Y-115438600D01*
%TO.C,J3*%
X147371100Y-121828347D02*
X147371100Y-122128854D01*
X157260892Y-121823960D02*
X147396100Y-121828347D01*
X157260892Y-121823960D02*
X157261308Y-122093600D01*
X157586100Y-121778600D02*
X159421100Y-121778346D01*
X159421100Y-121778346D02*
X159421100Y-122473346D01*
%TD*%
%LPC*%
D14*
%TO.C,U1*%
X139296100Y-120273600D03*
X140296100Y-120273600D03*
X141296100Y-120273600D03*
X142296100Y-120273600D03*
X143296100Y-120273600D03*
X144296100Y-120273600D03*
X145296100Y-120273600D03*
X146296100Y-120273600D03*
X147296100Y-120273600D03*
X148296100Y-120273600D03*
X149296100Y-120273600D03*
X150296100Y-120273600D03*
X151296100Y-120273600D03*
X152296100Y-120273600D03*
X153296100Y-120273600D03*
X154296100Y-120273600D03*
X155296100Y-120273600D03*
X156296100Y-120273600D03*
X157296100Y-120273600D03*
X158296100Y-120273600D03*
D15*
X164046100Y-114523600D03*
X164046100Y-113523600D03*
X164046100Y-112523600D03*
X164046100Y-111523600D03*
X164046100Y-110523600D03*
X164046100Y-109523600D03*
X164046100Y-108523600D03*
X164046100Y-107523600D03*
X164046100Y-106523600D03*
X164046100Y-105523600D03*
X164046100Y-104523600D03*
X164046100Y-103523600D03*
X164046100Y-102523600D03*
X164046100Y-101523600D03*
X164046100Y-100523600D03*
X164046100Y-99523600D03*
X164046100Y-98523600D03*
X164046100Y-97523600D03*
X164046100Y-96523600D03*
X164046100Y-95523600D03*
D14*
X158296100Y-89773600D03*
X157296100Y-89773600D03*
X156296100Y-89773600D03*
X155296100Y-89773600D03*
X154296100Y-89773600D03*
X153296100Y-89773600D03*
X152296100Y-89773600D03*
X151296100Y-89773600D03*
X150296100Y-89773600D03*
X149296100Y-89773600D03*
X148296100Y-89773600D03*
X147296100Y-89773600D03*
X146296100Y-89773600D03*
X145296100Y-89773600D03*
X144296100Y-89773600D03*
X143296100Y-89773600D03*
X142296100Y-89773600D03*
X141296100Y-89773600D03*
X140296100Y-89773600D03*
X139296100Y-89773600D03*
D15*
X133546100Y-95523600D03*
X133546100Y-96523600D03*
X133546100Y-97523600D03*
X133546100Y-98523600D03*
X133546100Y-99523600D03*
X133546100Y-100523600D03*
X133546100Y-101523600D03*
X133546100Y-102523600D03*
X133546100Y-103523600D03*
X133546100Y-104523600D03*
X133546100Y-105523600D03*
X133546100Y-106523600D03*
X133546100Y-107523600D03*
X133546100Y-108523600D03*
X133546100Y-109523600D03*
X133546100Y-110523600D03*
X133546100Y-111523600D03*
X133546100Y-112523600D03*
X133546100Y-113523600D03*
X133546100Y-114523600D03*
D14*
X159296100Y-120273600D03*
X159296100Y-89773600D03*
D15*
X164046100Y-94523600D03*
X164046100Y-115523600D03*
D14*
X138296100Y-89773600D03*
D15*
X133546100Y-115523600D03*
X133546100Y-94523600D03*
D16*
X142496100Y-117023600D03*
X144296100Y-117023600D03*
X146096100Y-117023600D03*
X147896100Y-117023600D03*
X149696100Y-117023600D03*
X151496100Y-117023600D03*
X153296100Y-117023600D03*
X155096100Y-117023600D03*
D17*
X160796100Y-111323600D03*
X160796100Y-109523600D03*
X160796100Y-107723600D03*
X160796100Y-105923600D03*
X160796100Y-104123600D03*
X160796100Y-102323600D03*
X160796100Y-100523600D03*
X160796100Y-98723600D03*
D16*
X155096100Y-93023600D03*
X153296100Y-93023600D03*
X151496100Y-93023600D03*
X149696100Y-93023600D03*
X147896100Y-93023600D03*
X146096100Y-93023600D03*
X144296100Y-93023600D03*
X142496100Y-93023600D03*
D17*
X136796100Y-98723600D03*
X136796100Y-100523600D03*
X136796100Y-102323600D03*
X136796100Y-104123600D03*
X136796100Y-105923600D03*
X136796100Y-107723600D03*
X136796100Y-109523600D03*
X136796100Y-111323600D03*
D16*
X140696100Y-117023600D03*
X156896100Y-117023600D03*
D17*
X160796100Y-113123600D03*
X160796100Y-96923600D03*
D16*
X156896100Y-93023600D03*
X140696100Y-93023600D03*
D17*
X136796100Y-96923600D03*
X136796100Y-113123600D03*
D16*
X141596100Y-114273600D03*
X143396100Y-114273600D03*
X145196100Y-114273600D03*
X146996100Y-114273600D03*
X148796100Y-114273600D03*
X150596100Y-114273600D03*
X152396100Y-114273600D03*
X154196100Y-114273600D03*
X155996100Y-114273600D03*
D17*
X158046100Y-112223600D03*
X158046100Y-110423600D03*
X158046100Y-108623600D03*
X158046100Y-106823600D03*
X158046100Y-105023600D03*
X158046100Y-103223600D03*
X158046100Y-101423600D03*
X158046100Y-99623600D03*
X158046100Y-97823600D03*
D16*
X155996100Y-95773600D03*
X154196100Y-95773600D03*
X152396100Y-95773600D03*
X150596100Y-95773600D03*
X148796100Y-95773600D03*
X146996100Y-95773600D03*
X145196100Y-95773600D03*
X143396100Y-95773600D03*
X141596100Y-95773600D03*
D17*
X139546100Y-97823600D03*
X139546100Y-99623600D03*
X139546100Y-101423600D03*
X139546100Y-103223600D03*
X139546100Y-105023600D03*
X139546100Y-106823600D03*
X139546100Y-108623600D03*
X139546100Y-110423600D03*
X139546100Y-112223600D03*
D18*
X144796100Y-109023600D03*
X148796100Y-109023600D03*
X152796100Y-109023600D03*
X152796100Y-105023600D03*
X152796100Y-101023600D03*
X148796100Y-101023600D03*
X144796100Y-101023600D03*
X144796100Y-105023600D03*
X148796100Y-105023600D03*
%TD*%
D19*
%TO.C,J4*%
X167881100Y-105183600D03*
X167881100Y-102643600D03*
X167881100Y-100103600D03*
X167881100Y-97563600D03*
X167881100Y-95023600D03*
X167881100Y-92483600D03*
%TD*%
D20*
%TO.C,J1*%
X147446100Y-87128600D03*
X144906100Y-87128600D03*
X142366100Y-87128600D03*
X139826100Y-87128600D03*
X137286100Y-87128600D03*
%TD*%
D21*
%TO.C,J2*%
X129121100Y-104453600D03*
X129121100Y-106993600D03*
X129121100Y-109533600D03*
X129121100Y-112073600D03*
X129121100Y-114613600D03*
%TD*%
D22*
%TO.C,J3*%
X148436100Y-122878600D03*
X150976100Y-122878600D03*
X153516100Y-122878600D03*
X156056100Y-122878600D03*
X158596100Y-122878600D03*
%TD*%
%LPD*%
M02*
