G04*
G04 #@! TF.GenerationSoftware,Altium Limited,Altium Designer,22.2.1 (43)*
G04*
G04 Layer_Physical_Order=1*
G04 Layer_Color=255*
%FSLAX25Y25*%
%MOIN*%
G70*
G04*
G04 #@! TF.SameCoordinates,176B9DA6-FD0B-44AF-BA7B-BFE41C1ADE4B*
G04*
G04*
G04 #@! TF.FilePolarity,Positive*
G04*
G01*
G75*
%ADD12C,0.01181*%
%ADD13C,0.00787*%
G04:AMPARAMS|DCode=15|XSize=98.43mil|YSize=28.35mil|CornerRadius=14.17mil|HoleSize=0mil|Usage=FLASHONLY|Rotation=180.000|XOffset=0mil|YOffset=0mil|HoleType=Round|Shape=RoundedRectangle|*
%AMROUNDEDRECTD15*
21,1,0.09843,0.00000,0,0,180.0*
21,1,0.07008,0.02835,0,0,180.0*
1,1,0.02835,-0.03504,0.00000*
1,1,0.02835,0.03504,0.00000*
1,1,0.02835,0.03504,0.00000*
1,1,0.02835,-0.03504,0.00000*
%
%ADD15ROUNDEDRECTD15*%
G04:AMPARAMS|DCode=16|XSize=98.43mil|YSize=28.35mil|CornerRadius=14.17mil|HoleSize=0mil|Usage=FLASHONLY|Rotation=270.000|XOffset=0mil|YOffset=0mil|HoleType=Round|Shape=RoundedRectangle|*
%AMROUNDEDRECTD16*
21,1,0.09843,0.00000,0,0,270.0*
21,1,0.07008,0.02835,0,0,270.0*
1,1,0.02835,0.00000,-0.03504*
1,1,0.02835,0.00000,0.03504*
1,1,0.02835,0.00000,0.03504*
1,1,0.02835,0.00000,-0.03504*
%
%ADD16ROUNDEDRECTD16*%
%ADD17R,0.07874X0.11811*%
%ADD18R,0.04331X0.04331*%
%ADD25C,0.03937*%
%ADD26C,0.02000*%
G04:AMPARAMS|DCode=27|XSize=64.96mil|YSize=118.11mil|CornerRadius=32.48mil|HoleSize=0mil|Usage=FLASHONLY|Rotation=180.000|XOffset=0mil|YOffset=0mil|HoleType=Round|Shape=RoundedRectangle|*
%AMROUNDEDRECTD27*
21,1,0.06496,0.05315,0,0,180.0*
21,1,0.00000,0.11811,0,0,180.0*
1,1,0.06496,0.00000,0.02657*
1,1,0.06496,0.00000,0.02657*
1,1,0.06496,0.00000,-0.02657*
1,1,0.06496,0.00000,-0.02657*
%
%ADD27ROUNDEDRECTD27*%
G04:AMPARAMS|DCode=28|XSize=64.96mil|YSize=118.11mil|CornerRadius=32.48mil|HoleSize=0mil|Usage=FLASHONLY|Rotation=270.000|XOffset=0mil|YOffset=0mil|HoleType=Round|Shape=RoundedRectangle|*
%AMROUNDEDRECTD28*
21,1,0.06496,0.05315,0,0,270.0*
21,1,0.00000,0.11811,0,0,270.0*
1,1,0.06496,-0.02657,0.00000*
1,1,0.06496,-0.02657,0.00000*
1,1,0.06496,0.02657,0.00000*
1,1,0.06496,0.02657,0.00000*
%
%ADD28ROUNDEDRECTD28*%
%ADD29C,0.02362*%
G36*
X156286Y125907D02*
X154847D01*
X153868Y125778D01*
X152956Y125400D01*
X152173Y124799D01*
X151573Y124016D01*
X151195Y123105D01*
X151066Y122126D01*
X151181Y121254D01*
X148261Y118333D01*
X145836D01*
X145655Y118604D01*
X145021Y119028D01*
X144273Y119176D01*
X137265D01*
X136517Y119028D01*
X135882Y118604D01*
X135459Y117970D01*
X135310Y117221D01*
X135459Y116473D01*
X135882Y115839D01*
X136517Y115415D01*
X137265Y115267D01*
X144273D01*
X145021Y115415D01*
X145655Y115839D01*
X145836Y116110D01*
X148721D01*
X148722Y116110D01*
X149147Y116194D01*
X149508Y116435D01*
X152373Y119300D01*
X152956Y118852D01*
X153868Y118475D01*
X154847Y118346D01*
X156286D01*
Y115907D01*
X154847D01*
X153868Y115778D01*
X152956Y115400D01*
X152173Y114799D01*
X151573Y114016D01*
X151241Y113215D01*
X145836D01*
X145655Y113486D01*
X145021Y113909D01*
X144273Y114058D01*
X137265D01*
X136517Y113909D01*
X135882Y113486D01*
X135459Y112852D01*
X135310Y112103D01*
X135459Y111355D01*
X135882Y110721D01*
X136517Y110297D01*
X137265Y110149D01*
X144273D01*
X145021Y110297D01*
X145655Y110721D01*
X145836Y110992D01*
X151046D01*
X151075Y110973D01*
X151285Y110931D01*
X151573Y110236D01*
X152173Y109453D01*
X152956Y108852D01*
X153868Y108475D01*
X154847Y108346D01*
X156286D01*
Y105906D01*
X154847D01*
X153868Y105778D01*
X152956Y105400D01*
X152949Y105395D01*
X150676Y107668D01*
X150316Y107908D01*
X149890Y107993D01*
X149890Y107993D01*
X145905D01*
X145655Y108368D01*
X145021Y108791D01*
X144273Y108940D01*
X137265D01*
X136517Y108791D01*
X135882Y108368D01*
X135459Y107733D01*
X135310Y106985D01*
X135459Y106237D01*
X135882Y105603D01*
X136517Y105179D01*
X137265Y105030D01*
X144273D01*
X145021Y105179D01*
X145655Y105603D01*
X145766Y105769D01*
X149430D01*
X151458Y103741D01*
X151195Y103105D01*
X151066Y102126D01*
X151195Y101148D01*
X151573Y100236D01*
X152173Y99453D01*
X152956Y98852D01*
X153868Y98475D01*
X154847Y98346D01*
X156286D01*
Y95907D01*
X154847D01*
X153868Y95778D01*
X153802Y95750D01*
X147053Y102500D01*
X146692Y102741D01*
X146267Y102826D01*
X146267Y102826D01*
X145938D01*
X145655Y103250D01*
X145021Y103673D01*
X144273Y103822D01*
X137265D01*
X136517Y103673D01*
X135882Y103250D01*
X135459Y102615D01*
X135310Y101867D01*
X135459Y101119D01*
X135882Y100485D01*
X136517Y100061D01*
X137265Y99912D01*
X144273D01*
X145021Y100061D01*
X145655Y100485D01*
X146123Y100285D01*
X151928Y94480D01*
X151573Y94016D01*
X151195Y93105D01*
X151066Y92126D01*
X151195Y91148D01*
X151573Y90236D01*
X152173Y89453D01*
X152956Y88852D01*
X153868Y88475D01*
X154847Y88346D01*
X156286D01*
Y85906D01*
X154847D01*
X153868Y85778D01*
X152956Y85400D01*
X152173Y84799D01*
X151573Y84016D01*
X151195Y83105D01*
X151066Y82126D01*
X151195Y81148D01*
X151573Y80236D01*
X152173Y79453D01*
X152956Y78852D01*
X153868Y78475D01*
X154847Y78346D01*
X156286D01*
Y75906D01*
X154847D01*
X153868Y75778D01*
X152956Y75400D01*
X152173Y74799D01*
X151573Y74016D01*
X151195Y73105D01*
X151066Y72126D01*
X151195Y71148D01*
X151573Y70236D01*
X152173Y69453D01*
X152888Y68905D01*
Y51461D01*
X151257Y49830D01*
X145836D01*
X145655Y50100D01*
X145021Y50524D01*
X144273Y50672D01*
X137265D01*
X136517Y50524D01*
X135882Y50100D01*
X135459Y49466D01*
X135310Y48717D01*
X135459Y47969D01*
X135882Y47335D01*
X136517Y46911D01*
X137265Y46763D01*
X144273D01*
X145021Y46911D01*
X145655Y47335D01*
X145836Y47606D01*
X151717D01*
X151718Y47606D01*
X152143Y47690D01*
X152504Y47931D01*
X154786Y50214D01*
X154786Y50214D01*
X155027Y50574D01*
X155112Y51000D01*
Y68346D01*
X156286D01*
Y1204D01*
X123041D01*
Y7565D01*
X122883Y7948D01*
X122500Y8106D01*
X117616D01*
X114041Y11722D01*
Y26455D01*
X113883Y26837D01*
X113500Y26996D01*
X108814D01*
X108431Y26837D01*
X108273Y26455D01*
Y21269D01*
X107773Y21117D01*
X107505Y21517D01*
X106871Y21941D01*
X106123Y22090D01*
X105375Y21941D01*
X104741Y21517D01*
X104317Y20883D01*
X104168Y20135D01*
Y13127D01*
X104233Y12803D01*
X103862Y12433D01*
X103835Y12417D01*
X103777Y12395D01*
X103345D01*
X103248Y12433D01*
X102892Y12788D01*
X102960Y13127D01*
Y20135D01*
X102811Y20883D01*
X102387Y21517D01*
X101753Y21941D01*
X101005Y22090D01*
X100257Y21941D01*
X99623Y21517D01*
X99199Y20883D01*
X99050Y20135D01*
Y13127D01*
X99199Y12379D01*
X99623Y11745D01*
X100257Y11321D01*
X101005Y11172D01*
X101388Y10739D01*
Y8461D01*
X99265Y6337D01*
X98500Y6438D01*
X97522Y6309D01*
X96610Y5931D01*
X95827Y5331D01*
X95226Y4548D01*
X94848Y3636D01*
X94720Y2657D01*
Y1204D01*
X82280D01*
Y2657D01*
X82152Y3636D01*
X81774Y4548D01*
X81173Y5331D01*
X80390Y5931D01*
X79478Y6309D01*
X78500Y6438D01*
X77522Y6309D01*
X76610Y5931D01*
X75827Y5331D01*
X75226Y4548D01*
X74848Y3636D01*
X74720Y2657D01*
Y1204D01*
X1204D01*
Y31220D01*
X2657D01*
X3636Y31348D01*
X4548Y31726D01*
X5331Y32327D01*
X5931Y33110D01*
X6309Y34022D01*
X6438Y35000D01*
X6309Y35978D01*
X5931Y36890D01*
X5331Y37673D01*
X4548Y38274D01*
X3636Y38652D01*
X2657Y38780D01*
X1204D01*
Y41220D01*
X2657D01*
X3636Y41348D01*
X4548Y41726D01*
X5331Y42327D01*
X5931Y43110D01*
X6309Y44022D01*
X6438Y45000D01*
X6309Y45978D01*
X5931Y46890D01*
X5331Y47673D01*
X4548Y48274D01*
X3636Y48652D01*
X2657Y48780D01*
X1204D01*
Y50533D01*
X2657D01*
X3814Y50685D01*
X4891Y51131D01*
X5291Y51438D01*
X5865Y50865D01*
X6215Y50508D01*
X6215Y50508D01*
X7600Y49324D01*
X9154Y48372D01*
X10837Y47675D01*
X10872Y47667D01*
X10979Y47407D01*
X11396Y46864D01*
X11938Y46448D01*
X12571Y46186D01*
X13249Y46097D01*
X20257D01*
X20935Y46186D01*
X21567Y46448D01*
X22110Y46864D01*
X22527Y47407D01*
X22788Y48039D01*
X22878Y48717D01*
X22788Y49396D01*
X22527Y50028D01*
X22110Y50571D01*
X21567Y50987D01*
X20935Y51249D01*
X20257Y51338D01*
X13249D01*
X12571Y51249D01*
X11938Y50987D01*
X11689Y50796D01*
X11204Y50942D01*
X9749Y51720D01*
X8860Y52450D01*
X8489Y52782D01*
X8489D01*
X8142Y53129D01*
X7025Y54245D01*
X7125Y55000D01*
X6973Y56156D01*
X6526Y57234D01*
X5816Y58159D01*
X4891Y58869D01*
X3814Y59315D01*
X2657Y59467D01*
X1204D01*
Y60533D01*
X2657D01*
X3814Y60685D01*
X4891Y61131D01*
X5816Y61841D01*
X6526Y62766D01*
X6973Y63844D01*
X7125Y65000D01*
X6973Y66156D01*
X6959Y66189D01*
X7518Y66747D01*
X7865Y67094D01*
X8230Y67421D01*
X9125Y68156D01*
X10580Y68934D01*
X11512Y69216D01*
X11938Y68889D01*
X12571Y68627D01*
X13249Y68538D01*
X20257D01*
X20935Y68627D01*
X21567Y68889D01*
X22110Y69305D01*
X22527Y69848D01*
X22788Y70480D01*
X22878Y71158D01*
X22788Y71837D01*
X22527Y72469D01*
X22110Y73012D01*
X21567Y73428D01*
X20935Y73690D01*
X20257Y73779D01*
X13249D01*
X12571Y73690D01*
X11938Y73428D01*
X11396Y73012D01*
X10979Y72469D01*
X10941Y72376D01*
X10213Y72201D01*
X8529Y71504D01*
X6976Y70552D01*
X5591Y69368D01*
X5591Y69368D01*
X5241Y69011D01*
X5008Y68779D01*
X4891Y68869D01*
X3814Y69315D01*
X2657Y69467D01*
X1204D01*
Y144460D01*
X30155D01*
Y142999D01*
X30307Y141843D01*
X30754Y140766D01*
X31464Y139840D01*
X32389Y139130D01*
X32864Y138934D01*
Y134383D01*
X32616Y134193D01*
X32200Y133650D01*
X31938Y133018D01*
X31849Y132340D01*
Y125332D01*
X31938Y124653D01*
X32200Y124021D01*
X32616Y123478D01*
X33159Y123062D01*
X33791Y122800D01*
X34469Y122711D01*
X35148Y122800D01*
X35780Y123062D01*
X36323Y123478D01*
X36739Y124021D01*
X37001Y124653D01*
X37090Y125332D01*
Y132340D01*
X37001Y133018D01*
X36739Y133650D01*
X36323Y134193D01*
X36075Y134383D01*
Y138807D01*
X36856Y139130D01*
X37782Y139840D01*
X38491Y140766D01*
X38938Y141843D01*
X39090Y142999D01*
Y144460D01*
X50842D01*
Y142999D01*
X50971Y142021D01*
X51349Y141109D01*
X51950Y140326D01*
X52732Y139725D01*
X53644Y139348D01*
X54623Y139219D01*
X55601Y139348D01*
X56513Y139725D01*
X57296Y140326D01*
X57897Y141109D01*
X58274Y142021D01*
X58403Y142999D01*
Y144460D01*
X60842D01*
Y142999D01*
X60971Y142021D01*
X61349Y141109D01*
X61949Y140326D01*
X62732Y139725D01*
X63644Y139348D01*
X64623Y139219D01*
X65601Y139348D01*
X66513Y139725D01*
X67296Y140326D01*
X67896Y141109D01*
X68274Y142021D01*
X68403Y142999D01*
Y144460D01*
X70842D01*
Y142999D01*
X70971Y142021D01*
X71349Y141109D01*
X71949Y140326D01*
X72732Y139725D01*
X73644Y139348D01*
X74623Y139219D01*
X75601Y139348D01*
X76513Y139725D01*
X77296Y140326D01*
X77896Y141109D01*
X78274Y142021D01*
X78403Y142999D01*
Y144460D01*
X156286D01*
Y125907D01*
D02*
G37*
G36*
X113500Y11500D02*
X117390Y7565D01*
X122500D01*
Y1204D01*
X113500D01*
Y6500D01*
X108814Y11186D01*
Y26455D01*
X113500D01*
Y11500D01*
D02*
G37*
G36*
X108273Y11993D02*
Y11186D01*
X108272Y11186D01*
X108431Y10804D01*
X108431Y10804D01*
X112959Y6276D01*
Y1204D01*
X112280D01*
Y2657D01*
X112152Y3636D01*
X111774Y4548D01*
X111173Y5331D01*
X110390Y5931D01*
X109478Y6309D01*
X108500Y6438D01*
X107812Y6347D01*
X105722Y8437D01*
Y10742D01*
X106123Y11172D01*
X106871Y11321D01*
X107505Y11745D01*
X107773Y12145D01*
X108273Y11993D01*
D02*
G37*
%LPC*%
G36*
X126595Y134294D02*
X125847Y134146D01*
X125213Y133722D01*
X124789Y133088D01*
X124641Y132340D01*
Y125332D01*
X124789Y124584D01*
X125213Y123949D01*
X125847Y123526D01*
X126595Y123377D01*
X127343Y123526D01*
X127978Y123949D01*
X128402Y124584D01*
X128550Y125332D01*
Y132340D01*
X128402Y133088D01*
X127978Y133722D01*
X127343Y134146D01*
X126595Y134294D01*
D02*
G37*
G36*
X121477D02*
X120729Y134146D01*
X120095Y133722D01*
X119671Y133088D01*
X119522Y132340D01*
Y125332D01*
X119671Y124584D01*
X120095Y123949D01*
X120729Y123526D01*
X121477Y123377D01*
X122225Y123526D01*
X122860Y123949D01*
X123283Y124584D01*
X123432Y125332D01*
Y132340D01*
X123283Y133088D01*
X122860Y133722D01*
X122225Y134146D01*
X121477Y134294D01*
D02*
G37*
G36*
X111241D02*
X110493Y134146D01*
X109859Y133722D01*
X109435Y133088D01*
X109286Y132340D01*
Y125332D01*
X109435Y124584D01*
X109859Y123949D01*
X110493Y123526D01*
X111241Y123377D01*
X111989Y123526D01*
X112623Y123949D01*
X113047Y124584D01*
X113196Y125332D01*
Y132340D01*
X113047Y133088D01*
X112623Y133722D01*
X111989Y134146D01*
X111241Y134294D01*
D02*
G37*
G36*
X95887D02*
X95139Y134146D01*
X94504Y133722D01*
X94081Y133088D01*
X93932Y132340D01*
Y125332D01*
X94081Y124584D01*
X94504Y123949D01*
X95139Y123526D01*
X95887Y123377D01*
X96635Y123526D01*
X97269Y123949D01*
X97693Y124584D01*
X97842Y125332D01*
Y132340D01*
X97693Y133088D01*
X97269Y133722D01*
X96635Y134146D01*
X95887Y134294D01*
D02*
G37*
G36*
X90769D02*
X90021Y134146D01*
X89386Y133722D01*
X88963Y133088D01*
X88814Y132340D01*
Y125332D01*
X88963Y124584D01*
X89386Y123949D01*
X90021Y123526D01*
X90769Y123377D01*
X91517Y123526D01*
X92151Y123949D01*
X92575Y124584D01*
X92724Y125332D01*
Y132340D01*
X92575Y133088D01*
X92151Y133722D01*
X91517Y134146D01*
X90769Y134294D01*
D02*
G37*
G36*
X85650D02*
X84902Y134146D01*
X84268Y133722D01*
X83845Y133088D01*
X83696Y132340D01*
Y125332D01*
X83845Y124584D01*
X84268Y123949D01*
X84902Y123526D01*
X85650Y123377D01*
X86399Y123526D01*
X87033Y123949D01*
X87457Y124584D01*
X87605Y125332D01*
Y132340D01*
X87457Y133088D01*
X87033Y133722D01*
X86399Y134146D01*
X85650Y134294D01*
D02*
G37*
G36*
X80532D02*
X79784Y134146D01*
X79150Y133722D01*
X78726Y133088D01*
X78578Y132340D01*
Y125332D01*
X78726Y124584D01*
X79150Y123949D01*
X79784Y123526D01*
X80532Y123377D01*
X81280Y123526D01*
X81915Y123949D01*
X82339Y124584D01*
X82487Y125332D01*
Y132340D01*
X82339Y133088D01*
X81915Y133722D01*
X81280Y134146D01*
X80532Y134294D01*
D02*
G37*
G36*
X75414D02*
X74666Y134146D01*
X74032Y133722D01*
X73608Y133088D01*
X73459Y132340D01*
Y125332D01*
X73608Y124584D01*
X74032Y123949D01*
X74666Y123526D01*
X75414Y123377D01*
X76162Y123526D01*
X76797Y123949D01*
X77220Y124584D01*
X77369Y125332D01*
Y132340D01*
X77220Y133088D01*
X76797Y133722D01*
X76162Y134146D01*
X75414Y134294D01*
D02*
G37*
G36*
X70296D02*
X69548Y134146D01*
X68914Y133722D01*
X68490Y133088D01*
X68341Y132340D01*
Y125332D01*
X68490Y124584D01*
X68914Y123949D01*
X69548Y123526D01*
X70296Y123377D01*
X71044Y123526D01*
X71679Y123949D01*
X72102Y124584D01*
X72251Y125332D01*
Y132340D01*
X72102Y133088D01*
X71679Y133722D01*
X71044Y134146D01*
X70296Y134294D01*
D02*
G37*
G36*
X65178D02*
X64430Y134146D01*
X63796Y133722D01*
X63372Y133088D01*
X63223Y132340D01*
Y125332D01*
X63372Y124584D01*
X63796Y123949D01*
X64430Y123526D01*
X65178Y123377D01*
X65926Y123526D01*
X66560Y123949D01*
X66984Y124584D01*
X67133Y125332D01*
Y132340D01*
X66984Y133088D01*
X66560Y133722D01*
X65926Y134146D01*
X65178Y134294D01*
D02*
G37*
G36*
X60060D02*
X59312Y134146D01*
X58678Y133722D01*
X58254Y133088D01*
X58105Y132340D01*
Y125332D01*
X58254Y124584D01*
X58678Y123949D01*
X59312Y123526D01*
X60060Y123377D01*
X60808Y123526D01*
X61442Y123949D01*
X61866Y124584D01*
X62015Y125332D01*
Y132340D01*
X61866Y133088D01*
X61442Y133722D01*
X60808Y134146D01*
X60060Y134294D01*
D02*
G37*
G36*
X54942D02*
X54194Y134146D01*
X53560Y133722D01*
X53136Y133088D01*
X52987Y132340D01*
Y125332D01*
X53136Y124584D01*
X53560Y123949D01*
X54194Y123526D01*
X54942Y123377D01*
X55690Y123526D01*
X56324Y123949D01*
X56748Y124584D01*
X56897Y125332D01*
Y132340D01*
X56748Y133088D01*
X56324Y133722D01*
X55690Y134146D01*
X54942Y134294D01*
D02*
G37*
G36*
X49824D02*
X49076Y134146D01*
X48441Y133722D01*
X48018Y133088D01*
X47869Y132340D01*
Y125332D01*
X48018Y124584D01*
X48441Y123949D01*
X49076Y123526D01*
X49824Y123377D01*
X50572Y123526D01*
X51206Y123949D01*
X51630Y124584D01*
X51779Y125332D01*
Y132340D01*
X51630Y133088D01*
X51206Y133722D01*
X50572Y134146D01*
X49824Y134294D01*
D02*
G37*
G36*
X44706D02*
X43958Y134146D01*
X43323Y133722D01*
X42900Y133088D01*
X42751Y132340D01*
Y125332D01*
X42900Y124584D01*
X43323Y123949D01*
X43958Y123526D01*
X44706Y123377D01*
X45454Y123526D01*
X46088Y123949D01*
X46512Y124584D01*
X46661Y125332D01*
Y132340D01*
X46512Y133088D01*
X46088Y133722D01*
X45454Y134146D01*
X44706Y134294D01*
D02*
G37*
G36*
X39588D02*
X38839Y134146D01*
X38205Y133722D01*
X37782Y133088D01*
X37633Y132340D01*
Y125332D01*
X37782Y124584D01*
X38205Y123949D01*
X38839Y123526D01*
X39588Y123377D01*
X40336Y123526D01*
X40970Y123949D01*
X41394Y124584D01*
X41542Y125332D01*
Y132340D01*
X41394Y133088D01*
X40970Y133722D01*
X40336Y134146D01*
X39588Y134294D01*
D02*
G37*
G36*
X144273Y124294D02*
X137265D01*
X136517Y124146D01*
X135882Y123722D01*
X135459Y123088D01*
X135310Y122340D01*
X135459Y121591D01*
X135882Y120957D01*
X136517Y120534D01*
X137265Y120385D01*
X144273D01*
X145021Y120534D01*
X145655Y120957D01*
X146079Y121591D01*
X146228Y122340D01*
X146079Y123088D01*
X145655Y123722D01*
X145021Y124146D01*
X144273Y124294D01*
D02*
G37*
G36*
X20257D02*
X13249D01*
X12501Y124146D01*
X11867Y123722D01*
X11443Y123088D01*
X11294Y122340D01*
X11443Y121591D01*
X11867Y120957D01*
X12501Y120534D01*
X13249Y120385D01*
X20257D01*
X21005Y120534D01*
X21639Y120957D01*
X22063Y121591D01*
X22212Y122340D01*
X22063Y123088D01*
X21639Y123722D01*
X21005Y124146D01*
X20257Y124294D01*
D02*
G37*
G36*
Y119176D02*
X13249D01*
X12501Y119028D01*
X11867Y118604D01*
X11443Y117970D01*
X11294Y117221D01*
X11443Y116473D01*
X11867Y115839D01*
X12501Y115415D01*
X13249Y115267D01*
X20257D01*
X21005Y115415D01*
X21639Y115839D01*
X22063Y116473D01*
X22212Y117221D01*
X22063Y117970D01*
X21639Y118604D01*
X21005Y119028D01*
X20257Y119176D01*
D02*
G37*
G36*
X132607Y118706D02*
X127277D01*
Y113375D01*
X132607D01*
Y118706D01*
D02*
G37*
G36*
X124733D02*
X119403D01*
Y113375D01*
X124733D01*
Y118706D01*
D02*
G37*
G36*
X20257Y114058D02*
X13249D01*
X12501Y113909D01*
X11867Y113486D01*
X11443Y112852D01*
X11294Y112103D01*
X11443Y111355D01*
X11867Y110721D01*
X12501Y110297D01*
X13249Y110149D01*
X20257D01*
X21005Y110297D01*
X21639Y110721D01*
X22063Y111355D01*
X22212Y112103D01*
X22063Y112852D01*
X21639Y113486D01*
X21005Y113909D01*
X20257Y114058D01*
D02*
G37*
G36*
X132607Y110832D02*
X127277D01*
Y105501D01*
X132607D01*
Y110832D01*
D02*
G37*
G36*
X124733D02*
X119403D01*
Y105501D01*
X124733D01*
Y110832D01*
D02*
G37*
G36*
X20257Y108940D02*
X13249D01*
X12501Y108791D01*
X11867Y108368D01*
X11443Y107733D01*
X11294Y106985D01*
X11443Y106237D01*
X11867Y105603D01*
X12501Y105179D01*
X13249Y105030D01*
X20257D01*
X21005Y105179D01*
X21639Y105603D01*
X22063Y106237D01*
X22212Y106985D01*
X22063Y107733D01*
X21639Y108368D01*
X21005Y108791D01*
X20257Y108940D01*
D02*
G37*
G36*
Y103822D02*
X13249D01*
X12501Y103673D01*
X11867Y103250D01*
X11443Y102615D01*
X11294Y101867D01*
X11443Y101119D01*
X11867Y100485D01*
X12501Y100061D01*
X13249Y99912D01*
X20257D01*
X21005Y100061D01*
X21639Y100485D01*
X22063Y101119D01*
X22212Y101867D01*
X22063Y102615D01*
X21639Y103250D01*
X21005Y103673D01*
X20257Y103822D01*
D02*
G37*
G36*
X132607Y102958D02*
X127277D01*
Y97627D01*
X132607D01*
Y102958D01*
D02*
G37*
G36*
X124733D02*
X119403D01*
Y97627D01*
X124733D01*
Y102958D01*
D02*
G37*
G36*
X20257Y98704D02*
X13249D01*
X12501Y98555D01*
X11867Y98131D01*
X11443Y97497D01*
X11294Y96749D01*
X11443Y96001D01*
X11867Y95367D01*
X12501Y94943D01*
X13249Y94794D01*
X20257D01*
X21005Y94943D01*
X21639Y95367D01*
X22063Y96001D01*
X22212Y96749D01*
X22063Y97497D01*
X21639Y98131D01*
X21005Y98555D01*
X20257Y98704D01*
D02*
G37*
G36*
X144273D02*
X137265D01*
X136517Y98555D01*
X135882Y98131D01*
X135459Y97497D01*
X135310Y96749D01*
X135459Y96001D01*
X135882Y95367D01*
X136517Y94943D01*
X137265Y94794D01*
X144273D01*
X145021Y94943D01*
X145586Y95321D01*
X145607D01*
X146819Y94109D01*
Y93666D01*
X147075Y93048D01*
X147548Y92575D01*
X148166Y92319D01*
X148834D01*
X149452Y92575D01*
X149925Y93048D01*
X150181Y93666D01*
Y94334D01*
X149925Y94952D01*
X149452Y95425D01*
X148834Y95681D01*
X148391D01*
X146854Y97219D01*
X146493Y97460D01*
X146067Y97545D01*
X146067Y97545D01*
X146047D01*
X145655Y98131D01*
X145021Y98555D01*
X144273Y98704D01*
D02*
G37*
G36*
X132607Y95084D02*
X127277D01*
Y89753D01*
X132607D01*
Y95084D01*
D02*
G37*
G36*
X124733D02*
X119403D01*
Y89753D01*
X124733D01*
Y95084D01*
D02*
G37*
G36*
X144273Y93586D02*
X137265D01*
X136517Y93437D01*
X135882Y93013D01*
X135459Y92379D01*
X135310Y91631D01*
X135459Y90883D01*
X135882Y90249D01*
X136517Y89825D01*
X137265Y89676D01*
X144273D01*
X145021Y89825D01*
X145655Y90249D01*
X146079Y90883D01*
X146228Y91631D01*
X146079Y92379D01*
X145655Y93013D01*
X145021Y93437D01*
X144273Y93586D01*
D02*
G37*
G36*
X20257D02*
X13249D01*
X12501Y93437D01*
X11867Y93013D01*
X11443Y92379D01*
X11294Y91631D01*
X11443Y90883D01*
X11867Y90249D01*
X12501Y89825D01*
X13249Y89676D01*
X20257D01*
X21005Y89825D01*
X21639Y90249D01*
X22063Y90883D01*
X22212Y91631D01*
X22063Y92379D01*
X21639Y93013D01*
X21005Y93437D01*
X20257Y93586D01*
D02*
G37*
G36*
X144273Y88468D02*
X137265D01*
X136517Y88319D01*
X135882Y87895D01*
X135459Y87261D01*
X135310Y86513D01*
X135459Y85765D01*
X135882Y85131D01*
X136517Y84707D01*
X137265Y84558D01*
X144273D01*
X145021Y84707D01*
X145655Y85131D01*
X146079Y85765D01*
X146228Y86513D01*
X146079Y87261D01*
X145655Y87895D01*
X145021Y88319D01*
X144273Y88468D01*
D02*
G37*
G36*
X20257D02*
X13249D01*
X12501Y88319D01*
X11867Y87895D01*
X11443Y87261D01*
X11294Y86513D01*
X11443Y85765D01*
X11867Y85131D01*
X12501Y84707D01*
X13249Y84558D01*
X20257D01*
X21005Y84707D01*
X21639Y85131D01*
X22063Y85765D01*
X22212Y86513D01*
X22063Y87261D01*
X21639Y87895D01*
X21005Y88319D01*
X20257Y88468D01*
D02*
G37*
G36*
X132607Y87210D02*
X127277D01*
Y81879D01*
X132607D01*
Y87210D01*
D02*
G37*
G36*
X124733D02*
X119403D01*
Y81879D01*
X124733D01*
Y87210D01*
D02*
G37*
G36*
X20257Y83350D02*
X13249D01*
X12501Y83201D01*
X11867Y82777D01*
X11443Y82143D01*
X11294Y81395D01*
X11443Y80647D01*
X11867Y80012D01*
X12501Y79589D01*
X13249Y79440D01*
X20257D01*
X21005Y79589D01*
X21639Y80012D01*
X22063Y80647D01*
X22212Y81395D01*
X22063Y82143D01*
X21639Y82777D01*
X21005Y83201D01*
X20257Y83350D01*
D02*
G37*
G36*
X132607Y79336D02*
X127277D01*
Y74005D01*
X132607D01*
Y79336D01*
D02*
G37*
G36*
X124733D02*
X119403D01*
Y74005D01*
X124733D01*
Y79336D01*
D02*
G37*
G36*
X132607Y71462D02*
X127277D01*
Y66131D01*
X132607D01*
Y71462D01*
D02*
G37*
G36*
X124733D02*
X119403D01*
Y66131D01*
X124733D01*
Y71462D01*
D02*
G37*
G36*
X144273Y67995D02*
X137265D01*
X136517Y67847D01*
X135882Y67423D01*
X135459Y66789D01*
X135310Y66040D01*
X135459Y65292D01*
X135882Y64658D01*
X136517Y64234D01*
X137265Y64086D01*
X144273D01*
X145021Y64234D01*
X145655Y64658D01*
X146079Y65292D01*
X146228Y66040D01*
X146079Y66789D01*
X145655Y67423D01*
X145021Y67847D01*
X144273Y67995D01*
D02*
G37*
G36*
X20257D02*
X13249D01*
X12501Y67847D01*
X11867Y67423D01*
X11443Y66789D01*
X11294Y66040D01*
X11443Y65292D01*
X11867Y64658D01*
X12501Y64234D01*
X13249Y64086D01*
X20257D01*
X21005Y64234D01*
X21639Y64658D01*
X22063Y65292D01*
X22212Y66040D01*
X22063Y66789D01*
X21639Y67423D01*
X21005Y67847D01*
X20257Y67995D01*
D02*
G37*
G36*
X144273Y62877D02*
X137265D01*
X136517Y62728D01*
X135882Y62305D01*
X135459Y61670D01*
X135310Y60922D01*
X135459Y60174D01*
X135882Y59540D01*
X136517Y59116D01*
X137265Y58967D01*
X144273D01*
X145021Y59116D01*
X145655Y59540D01*
X146079Y60174D01*
X146228Y60922D01*
X146079Y61670D01*
X145655Y62305D01*
X145021Y62728D01*
X144273Y62877D01*
D02*
G37*
G36*
X20257D02*
X13249D01*
X12501Y62728D01*
X11867Y62305D01*
X11443Y61670D01*
X11294Y60922D01*
X11443Y60174D01*
X11867Y59540D01*
X12501Y59116D01*
X13249Y58967D01*
X20257D01*
X21005Y59116D01*
X21639Y59540D01*
X22063Y60174D01*
X22212Y60922D01*
X22063Y61670D01*
X21639Y62305D01*
X21005Y62728D01*
X20257Y62877D01*
D02*
G37*
G36*
X132607Y63588D02*
X127277D01*
Y58257D01*
X132607D01*
Y63588D01*
D02*
G37*
G36*
X124733D02*
X119403D01*
Y58257D01*
X124733D01*
Y63588D01*
D02*
G37*
G36*
X144273Y55791D02*
X137265D01*
X136517Y55642D01*
X135882Y55218D01*
X135459Y54584D01*
X135310Y53836D01*
X135459Y53088D01*
X135882Y52453D01*
X136517Y52030D01*
X137265Y51881D01*
X144273D01*
X145021Y52030D01*
X145435Y52306D01*
X148336D01*
X148399Y52319D01*
X148834D01*
X149452Y52575D01*
X149925Y53048D01*
X150181Y53666D01*
Y54334D01*
X149925Y54952D01*
X149452Y55425D01*
X148834Y55681D01*
X148166D01*
X147548Y55425D01*
X147488Y55365D01*
X145435D01*
X145021Y55642D01*
X144273Y55791D01*
D02*
G37*
G36*
X132607Y55714D02*
X127277D01*
Y50383D01*
X132607D01*
Y55714D01*
D02*
G37*
G36*
X124733D02*
X119403D01*
Y50383D01*
X124733D01*
Y55714D01*
D02*
G37*
G36*
X132607Y47840D02*
X127277D01*
Y42509D01*
X132607D01*
Y47840D01*
D02*
G37*
G36*
X124733D02*
X119403D01*
Y42509D01*
X124733D01*
Y47840D01*
D02*
G37*
G36*
X144273Y45554D02*
X137265D01*
X136517Y45406D01*
X135882Y44982D01*
X135459Y44348D01*
X135310Y43599D01*
X135459Y42851D01*
X135882Y42217D01*
X136517Y41793D01*
X137265Y41645D01*
X144273D01*
X145021Y41793D01*
X145655Y42217D01*
X146079Y42851D01*
X146228Y43599D01*
X146079Y44348D01*
X145655Y44982D01*
X145021Y45406D01*
X144273Y45554D01*
D02*
G37*
G36*
Y40436D02*
X137265D01*
X136517Y40287D01*
X135882Y39864D01*
X135459Y39229D01*
X135310Y38481D01*
X135459Y37733D01*
X135882Y37099D01*
X136517Y36675D01*
X137265Y36526D01*
X144273D01*
X145021Y36675D01*
X145655Y37099D01*
X146079Y37733D01*
X146228Y38481D01*
X146079Y39229D01*
X145655Y39864D01*
X145021Y40287D01*
X144273Y40436D01*
D02*
G37*
G36*
X132607Y39966D02*
X127277D01*
Y34635D01*
X132607D01*
Y39966D01*
D02*
G37*
G36*
X124733D02*
X119403D01*
Y34635D01*
X124733D01*
Y39966D01*
D02*
G37*
G36*
X144273Y35318D02*
X137265D01*
X136517Y35169D01*
X135882Y34745D01*
X135459Y34111D01*
X135310Y33363D01*
X135459Y32615D01*
X135882Y31981D01*
X136517Y31557D01*
X137265Y31408D01*
X144273D01*
X145021Y31557D01*
X145655Y31981D01*
X146079Y32615D01*
X146228Y33363D01*
X146079Y34111D01*
X145655Y34745D01*
X145021Y35169D01*
X144273Y35318D01*
D02*
G37*
G36*
X132607Y32092D02*
X127277D01*
Y26761D01*
X132607D01*
Y32092D01*
D02*
G37*
G36*
X124733D02*
X119403D01*
Y26761D01*
X124733D01*
Y32092D01*
D02*
G37*
G36*
X144273Y30200D02*
X137265D01*
X136517Y30051D01*
X135882Y29627D01*
X135459Y28993D01*
X135310Y28245D01*
X135459Y27497D01*
X135882Y26863D01*
X136517Y26439D01*
X137265Y26290D01*
X144273D01*
X145021Y26439D01*
X145655Y26863D01*
X146079Y27497D01*
X146228Y28245D01*
X146079Y28993D01*
X145655Y29627D01*
X145021Y30051D01*
X144273Y30200D01*
D02*
G37*
G36*
Y25082D02*
X137265D01*
X136517Y24933D01*
X135882Y24509D01*
X135459Y23875D01*
X135310Y23127D01*
X135459Y22379D01*
X135882Y21745D01*
X136517Y21321D01*
X137265Y21172D01*
X144273D01*
X145021Y21321D01*
X145655Y21745D01*
X146079Y22379D01*
X146228Y23127D01*
X146079Y23875D01*
X145655Y24509D01*
X145021Y24933D01*
X144273Y25082D01*
D02*
G37*
G36*
X126595Y22090D02*
X125847Y21941D01*
X125213Y21517D01*
X124789Y20883D01*
X124641Y20135D01*
Y13127D01*
X124789Y12379D01*
X125213Y11745D01*
X125847Y11321D01*
X126595Y11172D01*
X127343Y11321D01*
X127978Y11745D01*
X128402Y12379D01*
X128550Y13127D01*
Y20135D01*
X128402Y20883D01*
X127978Y21517D01*
X127343Y21941D01*
X126595Y22090D01*
D02*
G37*
G36*
X121477D02*
X120729Y21941D01*
X120095Y21517D01*
X119671Y20883D01*
X119522Y20135D01*
Y13127D01*
X119671Y12379D01*
X120095Y11745D01*
X120729Y11321D01*
X121477Y11172D01*
X122225Y11321D01*
X122860Y11745D01*
X123283Y12379D01*
X123432Y13127D01*
Y20135D01*
X123283Y20883D01*
X122860Y21517D01*
X122225Y21941D01*
X121477Y22090D01*
D02*
G37*
G36*
X96216Y25695D02*
X95547D01*
X94929Y25440D01*
X94456Y24967D01*
X94200Y24349D01*
Y23680D01*
X94456Y23062D01*
X94769Y22749D01*
Y21694D01*
X94504Y21517D01*
X94081Y20883D01*
X93932Y20135D01*
Y13127D01*
X94081Y12379D01*
X94504Y11745D01*
X95139Y11321D01*
X95887Y11172D01*
X96635Y11321D01*
X97269Y11745D01*
X97693Y12379D01*
X97842Y13127D01*
Y20135D01*
X97693Y20883D01*
X97269Y21517D01*
X96993Y21701D01*
Y22749D01*
X97306Y23062D01*
X97562Y23680D01*
Y24349D01*
X97306Y24967D01*
X96833Y25440D01*
X96216Y25695D01*
D02*
G37*
G36*
X91006Y25745D02*
X90338D01*
X89720Y25489D01*
X89247Y25016D01*
X88991Y24399D01*
Y23730D01*
X89247Y23112D01*
X89560Y22799D01*
Y21633D01*
X89386Y21517D01*
X88963Y20883D01*
X88814Y20135D01*
Y13127D01*
X88963Y12379D01*
X89386Y11745D01*
X90021Y11321D01*
X90769Y11172D01*
X91517Y11321D01*
X92151Y11745D01*
X92575Y12379D01*
X92724Y13127D01*
Y20135D01*
X92575Y20883D01*
X92151Y21517D01*
X91784Y21763D01*
Y22799D01*
X92097Y23112D01*
X92353Y23730D01*
Y24399D01*
X92097Y25016D01*
X91624Y25489D01*
X91006Y25745D01*
D02*
G37*
G36*
X85650Y22090D02*
X84902Y21941D01*
X84268Y21517D01*
X83845Y20883D01*
X83696Y20135D01*
Y13127D01*
X83845Y12379D01*
X84268Y11745D01*
X84902Y11321D01*
X85650Y11172D01*
X86399Y11321D01*
X87033Y11745D01*
X87457Y12379D01*
X87605Y13127D01*
Y20135D01*
X87457Y20883D01*
X87033Y21517D01*
X86399Y21941D01*
X85650Y22090D01*
D02*
G37*
G36*
X80834Y25681D02*
X80166D01*
X79548Y25425D01*
X79075Y24952D01*
X78819Y24334D01*
Y23666D01*
X79075Y23048D01*
X79388Y22735D01*
Y21676D01*
X79150Y21517D01*
X78726Y20883D01*
X78578Y20135D01*
Y13127D01*
X78726Y12379D01*
X79150Y11745D01*
X79784Y11321D01*
X80532Y11172D01*
X81280Y11321D01*
X81915Y11745D01*
X82339Y12379D01*
X82487Y13127D01*
Y20135D01*
X82339Y20883D01*
X81915Y21517D01*
X81612Y21720D01*
Y22735D01*
X81925Y23048D01*
X82181Y23666D01*
Y24334D01*
X81925Y24952D01*
X81452Y25425D01*
X80834Y25681D01*
D02*
G37*
G36*
X75834D02*
X75166D01*
X74548Y25425D01*
X74075Y24952D01*
X73819Y24334D01*
Y23666D01*
X74075Y23048D01*
X74302Y22820D01*
Y21698D01*
X74032Y21517D01*
X73608Y20883D01*
X73459Y20135D01*
Y13127D01*
X73608Y12379D01*
X74032Y11745D01*
X74666Y11321D01*
X75414Y11172D01*
X76162Y11321D01*
X76797Y11745D01*
X77220Y12379D01*
X77369Y13127D01*
Y20135D01*
X77220Y20883D01*
X76797Y21517D01*
X76526Y21698D01*
Y22649D01*
X76925Y23048D01*
X77181Y23666D01*
Y24334D01*
X76925Y24952D01*
X76452Y25425D01*
X75834Y25681D01*
D02*
G37*
G36*
X70296Y22090D02*
X69548Y21941D01*
X68914Y21517D01*
X68490Y20883D01*
X68341Y20135D01*
Y13127D01*
X68490Y12379D01*
X68914Y11745D01*
X69548Y11321D01*
X70296Y11172D01*
X71044Y11321D01*
X71679Y11745D01*
X72102Y12379D01*
X72251Y13127D01*
Y20135D01*
X72102Y20883D01*
X71679Y21517D01*
X71044Y21941D01*
X70296Y22090D01*
D02*
G37*
G36*
X65178D02*
X64430Y21941D01*
X63796Y21517D01*
X63372Y20883D01*
X63223Y20135D01*
Y13127D01*
X63372Y12379D01*
X63796Y11745D01*
X64430Y11321D01*
X65178Y11172D01*
X65926Y11321D01*
X66560Y11745D01*
X66984Y12379D01*
X67133Y13127D01*
Y20135D01*
X66984Y20883D01*
X66560Y21517D01*
X65926Y21941D01*
X65178Y22090D01*
D02*
G37*
G36*
X60060D02*
X59312Y21941D01*
X58678Y21517D01*
X58254Y20883D01*
X58105Y20135D01*
Y13127D01*
X58254Y12379D01*
X58678Y11745D01*
X59312Y11321D01*
X60060Y11172D01*
X60808Y11321D01*
X61442Y11745D01*
X61866Y12379D01*
X62015Y13127D01*
Y20135D01*
X61866Y20883D01*
X61442Y21517D01*
X60808Y21941D01*
X60060Y22090D01*
D02*
G37*
G36*
X29351D02*
X28603Y21941D01*
X27969Y21517D01*
X27545Y20883D01*
X27396Y20135D01*
Y13127D01*
X27545Y12379D01*
X27969Y11745D01*
X28603Y11321D01*
X29351Y11172D01*
X30099Y11321D01*
X30734Y11745D01*
X31157Y12379D01*
X31306Y13127D01*
Y20135D01*
X31157Y20883D01*
X30734Y21517D01*
X30099Y21941D01*
X29351Y22090D01*
D02*
G37*
G36*
X54940Y27017D02*
X41454D01*
X40491Y26825D01*
X39674Y26280D01*
X37771Y24376D01*
X37225Y23560D01*
X37034Y22596D01*
Y13076D01*
X37225Y12112D01*
X37771Y11296D01*
X38587Y10750D01*
X39551Y10559D01*
X40514Y10750D01*
X41330Y11296D01*
X41876Y12112D01*
X41881Y12140D01*
X42290Y12183D01*
X42397Y12169D01*
X42926Y11377D01*
X43742Y10831D01*
X44706Y10639D01*
X45669Y10831D01*
X46485Y11377D01*
X46995Y12139D01*
X47287Y12159D01*
X47528Y12126D01*
X48044Y11353D01*
X48861Y10808D01*
X49824Y10616D01*
X50787Y10808D01*
X51604Y11353D01*
X51925Y11834D01*
X52425Y11683D01*
Y7058D01*
X52617Y6095D01*
X53162Y5278D01*
X53220Y5220D01*
X54037Y4675D01*
X55000Y4483D01*
X55963Y4675D01*
X56780Y5220D01*
X57325Y6037D01*
X57517Y7000D01*
X57459Y7292D01*
Y16631D01*
X57457Y16641D01*
Y24500D01*
X57265Y25463D01*
X56720Y26280D01*
X55903Y26825D01*
X54940Y27017D01*
D02*
G37*
%LPD*%
D12*
X95881Y16636D02*
X95887Y16631D01*
X95881Y16636D02*
Y24014D01*
X90672Y16728D02*
X90769Y16631D01*
X90672Y16728D02*
Y24064D01*
X75414Y23914D02*
X75500Y24000D01*
X75414Y16631D02*
Y23914D01*
X80500Y16663D02*
X80532Y16631D01*
X80500Y16663D02*
Y24000D01*
X107478Y4250D02*
Y5108D01*
X107000Y3772D02*
X107478Y4250D01*
X104610Y7976D02*
X107478Y5108D01*
X104610Y7976D02*
Y11608D01*
X106123Y13121D02*
Y16631D01*
X104610Y11608D02*
X106123Y13121D01*
X101005Y13104D02*
Y16631D01*
Y13104D02*
X102500Y11608D01*
X99354Y4854D02*
X102500Y8000D01*
Y11608D01*
X141085Y96433D02*
X146067D01*
X140769Y96749D02*
X141085Y96433D01*
X146067D02*
X148500Y94000D01*
X155049Y69671D02*
X157504Y72126D01*
X154000Y69671D02*
X155049D01*
X154000Y51000D02*
Y69671D01*
X151718Y48717D02*
X154000Y51000D01*
X140769Y48717D02*
X151718D01*
X155549Y112000D02*
X155566Y111983D01*
X151500Y112000D02*
X155549D01*
X140769Y101867D02*
X140922Y101714D01*
X154246Y93734D02*
X155484D01*
X146267Y101714D02*
X154246Y93734D01*
X140922Y101714D02*
X146267D01*
X140873Y106881D02*
X149890D01*
X153628Y103143D02*
X154705D01*
X149890Y106881D02*
X153628Y103143D01*
X140769Y106985D02*
X140873Y106881D01*
X140769Y112103D02*
X151397D01*
X153614Y122114D02*
X156309D01*
X148722Y117221D02*
X153614Y122114D01*
X140769Y117221D02*
X148722D01*
D13*
X13801Y71158D02*
G03*
X6730Y68230I0J-10000D01*
G01*
X7354Y51647D02*
G03*
X14425Y48717I7071J7071D01*
G01*
X34469Y140469D02*
X35500Y141500D01*
X34469Y128836D02*
Y140469D01*
X13801Y71158D02*
X16753D01*
X3500Y65000D02*
X6730Y68230D01*
X0Y65000D02*
X3500D01*
X14425Y48717D02*
X16753D01*
X4000Y55000D02*
X7354Y51647D01*
X0Y55000D02*
X4000D01*
D15*
X140769Y23127D02*
D03*
Y28245D02*
D03*
Y33363D02*
D03*
Y38481D02*
D03*
Y43599D02*
D03*
Y48717D02*
D03*
Y53836D02*
D03*
Y71158D02*
D03*
Y76277D02*
D03*
Y81395D02*
D03*
Y86513D02*
D03*
Y91631D02*
D03*
Y96749D02*
D03*
Y101867D02*
D03*
Y106985D02*
D03*
Y112103D02*
D03*
Y117221D02*
D03*
Y122340D02*
D03*
X16753D02*
D03*
Y117221D02*
D03*
Y112103D02*
D03*
Y106985D02*
D03*
Y101867D02*
D03*
Y96749D02*
D03*
Y91631D02*
D03*
Y86513D02*
D03*
Y81395D02*
D03*
Y76277D02*
D03*
Y71158D02*
D03*
Y53836D02*
D03*
Y48717D02*
D03*
Y43599D02*
D03*
Y38481D02*
D03*
Y33363D02*
D03*
Y28245D02*
D03*
Y23127D02*
D03*
X140769Y60922D02*
D03*
Y66040D02*
D03*
X16753D02*
D03*
Y60922D02*
D03*
D16*
X116359Y128836D02*
D03*
X111241D02*
D03*
X106123D02*
D03*
X101005D02*
D03*
X95887D02*
D03*
X90769D02*
D03*
X85650D02*
D03*
X80532D02*
D03*
X75414D02*
D03*
X70296D02*
D03*
X65178D02*
D03*
X60060D02*
D03*
X54942D02*
D03*
X49824D02*
D03*
X44706D02*
D03*
X39588D02*
D03*
X34469D02*
D03*
X29351D02*
D03*
Y16631D02*
D03*
X34469D02*
D03*
X39588D02*
D03*
X44706D02*
D03*
X49824D02*
D03*
X54942D02*
D03*
X60060D02*
D03*
X65178D02*
D03*
X70296D02*
D03*
X75414D02*
D03*
X80532D02*
D03*
X85650D02*
D03*
X90769D02*
D03*
X95887D02*
D03*
X101005D02*
D03*
X106123D02*
D03*
X111241D02*
D03*
X116359D02*
D03*
X121477D02*
D03*
X126595D02*
D03*
X121477Y128836D02*
D03*
X126595D02*
D03*
D17*
X46477Y34938D02*
D03*
Y53836D02*
D03*
Y72733D02*
D03*
Y91631D02*
D03*
Y110529D02*
D03*
X59076Y34938D02*
D03*
Y53836D02*
D03*
Y72733D02*
D03*
Y91631D02*
D03*
Y110529D02*
D03*
X72462Y34938D02*
D03*
Y53836D02*
D03*
Y91631D02*
D03*
Y110529D02*
D03*
X85060Y34938D02*
D03*
Y53836D02*
D03*
Y91631D02*
D03*
Y110529D02*
D03*
X98446Y34938D02*
D03*
Y53836D02*
D03*
Y72733D02*
D03*
Y91631D02*
D03*
Y110529D02*
D03*
X111044Y34938D02*
D03*
Y53836D02*
D03*
Y72733D02*
D03*
Y91631D02*
D03*
Y110529D02*
D03*
D18*
X122068Y29426D02*
D03*
Y37300D02*
D03*
Y45174D02*
D03*
Y53048D02*
D03*
Y60922D02*
D03*
Y68796D02*
D03*
Y76670D02*
D03*
Y84544D02*
D03*
Y92418D02*
D03*
Y100292D02*
D03*
Y108166D02*
D03*
Y116040D02*
D03*
X129942Y29426D02*
D03*
Y37300D02*
D03*
Y45174D02*
D03*
Y53048D02*
D03*
Y60922D02*
D03*
Y68796D02*
D03*
Y76670D02*
D03*
Y84544D02*
D03*
Y92418D02*
D03*
Y100292D02*
D03*
Y108166D02*
D03*
Y116040D02*
D03*
D25*
X111176Y13337D02*
Y22194D01*
X39551Y13076D02*
Y22596D01*
X54940Y16633D02*
Y24500D01*
X49831D02*
X54940D01*
X54942Y7058D02*
Y16631D01*
Y7058D02*
X55000Y7000D01*
X49824Y16631D02*
Y24493D01*
Y13133D02*
Y16631D01*
X44706D02*
Y24294D01*
Y13156D02*
Y16631D01*
X44500Y24500D02*
X49831D01*
X49824Y24493D02*
X49831Y24500D01*
X41454D02*
X44500D01*
X44706Y24294D01*
X39551Y22596D02*
X41454Y24500D01*
D26*
X148336Y53836D02*
X148500Y54000D01*
X140769Y53836D02*
X148336D01*
X16386Y23127D02*
X33572D01*
X34454Y16646D02*
Y22245D01*
X33572Y23127D02*
X34454Y22245D01*
X16753Y33363D02*
X44903D01*
X29351Y119649D02*
X38471Y110529D01*
X46477D01*
X29351Y119649D02*
Y128836D01*
X16753Y76277D02*
X43040D01*
X46477Y72840D01*
Y72733D02*
Y72840D01*
X44903Y33363D02*
X46477Y34938D01*
X16515Y76039D02*
X16753Y76277D01*
X98446Y34938D02*
X111044D01*
X85060D02*
X98446D01*
X72462D02*
X85060D01*
X59076D02*
X72462D01*
X46477D02*
X59076D01*
X111044D02*
Y53836D01*
X98446Y110529D02*
X111044D01*
X98446Y72733D02*
X111044D01*
X98446Y53836D02*
Y72733D01*
X46477D02*
X59076D01*
X46477Y53836D02*
Y72733D01*
X98446Y53836D02*
X111044D01*
X85060D02*
X98446D01*
X72462D02*
X85060D01*
X59076D02*
X72462D01*
X46477D02*
X59076D01*
X111044Y72733D02*
Y91631D01*
X98446D02*
X111044D01*
X85060D02*
X98446D01*
X72462D02*
X85060D01*
X59076D02*
X72462D01*
X46477D02*
X59076D01*
X46477D02*
Y110529D01*
X85060D02*
X98446D01*
X72462D02*
X85060D01*
X59076D02*
X72462D01*
X46477D02*
X59076D01*
X98446D02*
X101005Y113088D01*
Y128836D01*
D27*
X78500Y0D02*
D03*
X88500D02*
D03*
X98500D02*
D03*
X108500D02*
D03*
X118500D02*
D03*
X34623Y145657D02*
D03*
X44623D02*
D03*
X54623D02*
D03*
X64623D02*
D03*
X74623D02*
D03*
D28*
X157504Y72126D02*
D03*
Y82126D02*
D03*
Y92126D02*
D03*
Y102126D02*
D03*
Y112126D02*
D03*
Y122126D02*
D03*
X0Y35000D02*
D03*
Y45000D02*
D03*
Y55000D02*
D03*
Y65000D02*
D03*
Y75000D02*
D03*
D29*
X141518Y4052D02*
D03*
X116500Y82500D02*
D03*
Y63000D02*
D03*
X117000Y44500D02*
D03*
X66000Y26000D02*
D03*
X52500Y42000D02*
D03*
X66000D02*
D03*
X104358Y44222D02*
D03*
X105000Y62500D02*
D03*
X98500Y82500D02*
D03*
X60000Y119500D02*
D03*
X36000Y105500D02*
D03*
X37000Y92000D02*
D03*
X5500Y88000D02*
D03*
X9500Y60500D02*
D03*
X9000Y47500D02*
D03*
Y53500D02*
D03*
X24000Y48500D02*
D03*
Y71500D02*
D03*
X9000Y67000D02*
D03*
Y73000D02*
D03*
X36841Y136392D02*
D03*
X32000Y136500D02*
D03*
X26709Y85005D02*
D03*
X31500Y70000D02*
D03*
X32500Y40000D02*
D03*
X116000Y25500D02*
D03*
X137500Y12500D02*
D03*
X14887Y132532D02*
D03*
X22366Y127707D02*
D03*
X22500Y140000D02*
D03*
X49000Y4500D02*
D03*
X134000Y5500D02*
D03*
X150500Y4500D02*
D03*
X153500Y25500D02*
D03*
X153000Y12000D02*
D03*
X151500Y38000D02*
D03*
X139500Y132000D02*
D03*
X132000Y122500D02*
D03*
X132500Y19500D02*
D03*
X115000Y101000D02*
D03*
X111500Y120500D02*
D03*
X78500Y119500D02*
D03*
X51000Y100500D02*
D03*
X52500Y63500D02*
D03*
X92000Y101000D02*
D03*
X79000Y100000D02*
D03*
X89000Y74500D02*
D03*
X90000Y64000D02*
D03*
X77500Y72500D02*
D03*
X83000Y69500D02*
D03*
X82000Y80500D02*
D03*
X72000Y80000D02*
D03*
X37500Y119000D02*
D03*
X27500Y108500D02*
D03*
X33000Y99000D02*
D03*
X27500Y92000D02*
D03*
X33500Y82000D02*
D03*
X37000Y62500D02*
D03*
X26950Y61604D02*
D03*
X36000Y51500D02*
D03*
X27000D02*
D03*
X34500Y28000D02*
D03*
X26500D02*
D03*
X12500Y12500D02*
D03*
X4500Y4000D02*
D03*
X3500Y13000D02*
D03*
Y25500D02*
D03*
X5500Y95500D02*
D03*
X5000Y108000D02*
D03*
X5500Y125000D02*
D03*
Y139500D02*
D03*
X75500Y24000D02*
D03*
X80500D02*
D03*
X90672Y24064D02*
D03*
X95881Y24014D02*
D03*
X55000Y7000D02*
D03*
X148500Y94000D02*
D03*
Y54000D02*
D03*
M02*
