G04 #@! TF.GenerationSoftware,KiCad,Pcbnew,9.0.0*
G04 #@! TF.CreationDate,2025-09-01T12:56:58+03:00*
G04 #@! TF.ProjectId,OV24-RV_V1.0,4f563234-2d52-4565-9f56-312e302e6b69,rev?*
G04 #@! TF.SameCoordinates,Original*
G04 #@! TF.FileFunction,Copper,L2,Bot*
G04 #@! TF.FilePolarity,Positive*
%FSLAX46Y46*%
G04 Gerber Fmt 4.6, Leading zero omitted, Abs format (unit mm)*
G04 Created by KiCad (PCBNEW 9.0.0) date 2025-09-01 12:56:58*
%MOMM*%
%LPD*%
G01*
G04 APERTURE LIST*
G04 #@! TA.AperFunction,ComponentPad*
%ADD10R,1.350000X1.350000*%
G04 #@! TD*
G04 #@! TA.AperFunction,ComponentPad*
%ADD11O,1.350000X1.350000*%
G04 #@! TD*
G04 #@! TA.AperFunction,ViaPad*
%ADD12C,0.400000*%
G04 #@! TD*
G04 #@! TA.AperFunction,ViaPad*
%ADD13C,0.508000*%
G04 #@! TD*
G04 #@! TA.AperFunction,ViaPad*
%ADD14C,0.500000*%
G04 #@! TD*
G04 #@! TA.AperFunction,Conductor*
%ADD15C,0.152400*%
G04 #@! TD*
G04 #@! TA.AperFunction,Conductor*
%ADD16C,0.200000*%
G04 #@! TD*
G04 APERTURE END LIST*
D10*
X67583750Y-70301250D03*
D11*
X69583750Y-70301250D03*
X67583750Y-72301250D03*
X69583750Y-72301250D03*
X67583750Y-74301250D03*
X69583750Y-74301250D03*
X67583750Y-76301250D03*
X69583750Y-76301250D03*
D12*
X75557250Y-77723080D03*
X75905073Y-74772573D03*
X79043750Y-77871250D03*
X74043750Y-67291250D03*
X80043750Y-77891250D03*
X75543750Y-67821250D03*
X77057250Y-72231250D03*
X77057250Y-77141250D03*
X75532427Y-74399927D03*
X75030250Y-77723080D03*
X76530250Y-72231250D03*
X76530250Y-77141250D03*
D13*
X63513750Y-71526250D03*
D12*
X72533750Y-78911250D03*
X75043750Y-67191250D03*
X79543750Y-77131250D03*
X72033750Y-81041250D03*
X80553750Y-80961250D03*
X73333750Y-64411250D03*
X81563750Y-64441250D03*
D14*
X58833750Y-78411250D03*
X59923750Y-75551250D03*
D12*
X80553750Y-64431250D03*
D14*
X59937500Y-69586250D03*
D12*
X77533750Y-64491250D03*
X82303750Y-81231250D03*
X74553750Y-64481250D03*
X79053750Y-64391250D03*
X78553750Y-81031250D03*
X76053750Y-64471250D03*
D14*
X58633750Y-66541250D03*
X58462500Y-72446250D03*
X59913750Y-81681250D03*
D12*
X73043750Y-81031250D03*
X77543750Y-81031250D03*
X76053750Y-81031250D03*
X74543750Y-81031250D03*
X56673750Y-80151250D03*
X57392500Y-74046250D03*
X56823750Y-68081250D03*
X56792500Y-74076250D03*
X57273750Y-80121250D03*
X57423750Y-68051250D03*
D13*
X63483750Y-83653750D03*
D12*
X83253750Y-78481250D03*
X81283750Y-78551250D03*
D13*
X63513750Y-77711250D03*
D15*
X75433450Y-75069116D02*
X75729993Y-74772573D01*
X75433450Y-77599280D02*
X75433450Y-75069116D01*
X75557250Y-77723080D02*
X75433450Y-77599280D01*
X75729993Y-74772573D02*
X75905073Y-74772573D01*
D16*
X79043750Y-77871250D02*
X79043750Y-73321250D01*
X74043750Y-68321250D02*
X74043750Y-67291250D01*
X79043750Y-73321250D02*
X74043750Y-68321250D01*
X75543750Y-68341250D02*
X75543750Y-67821250D01*
X80043750Y-72841250D02*
X75543750Y-68341250D01*
X80043750Y-77891250D02*
X80043750Y-72841250D01*
D15*
X77057250Y-77141250D02*
X76933450Y-77017450D01*
X77057250Y-72231250D02*
X76933450Y-72355050D01*
X76933450Y-72355050D02*
X76933450Y-77017450D01*
X75154050Y-77599280D02*
X75154050Y-74953384D01*
X75532427Y-74575007D02*
X75532427Y-74399927D01*
X75154050Y-74953384D02*
X75532427Y-74575007D01*
X75030250Y-77723080D02*
X75154050Y-77599280D01*
X76530250Y-72231250D02*
X76654050Y-72355050D01*
X76654050Y-72355050D02*
X76654050Y-77017450D01*
X76530250Y-77141250D02*
X76654050Y-77017450D01*
D16*
X79543750Y-73031250D02*
X79543750Y-77131250D01*
X75042750Y-68530250D02*
X75193750Y-68681250D01*
X75193750Y-68681250D02*
X79543750Y-73031250D01*
X75042750Y-67192250D02*
X75042750Y-68530250D01*
X75043750Y-67191250D02*
X75042750Y-67192250D01*
G04 #@! TA.AperFunction,Conductor*
G36*
X69833750Y-75985564D02*
G01*
X69829356Y-75981170D01*
X69738144Y-75928509D01*
X69636411Y-75901250D01*
X69531089Y-75901250D01*
X69429356Y-75928509D01*
X69338144Y-75981170D01*
X69333750Y-75985564D01*
X69333750Y-74616936D01*
X69338144Y-74621330D01*
X69429356Y-74673991D01*
X69531089Y-74701250D01*
X69636411Y-74701250D01*
X69738144Y-74673991D01*
X69829356Y-74621330D01*
X69833750Y-74616936D01*
X69833750Y-75985564D01*
G37*
G04 #@! TD.AperFunction*
G04 #@! TA.AperFunction,Conductor*
G36*
X69833750Y-73985564D02*
G01*
X69829356Y-73981170D01*
X69738144Y-73928509D01*
X69636411Y-73901250D01*
X69531089Y-73901250D01*
X69429356Y-73928509D01*
X69338144Y-73981170D01*
X69333750Y-73985564D01*
X69333750Y-72616936D01*
X69338144Y-72621330D01*
X69429356Y-72673991D01*
X69531089Y-72701250D01*
X69636411Y-72701250D01*
X69738144Y-72673991D01*
X69829356Y-72621330D01*
X69833750Y-72616936D01*
X69833750Y-73985564D01*
G37*
G04 #@! TD.AperFunction*
G04 #@! TA.AperFunction,Conductor*
G36*
X69833750Y-71985564D02*
G01*
X69829356Y-71981170D01*
X69738144Y-71928509D01*
X69636411Y-71901250D01*
X69531089Y-71901250D01*
X69429356Y-71928509D01*
X69338144Y-71981170D01*
X69333750Y-71985564D01*
X69333750Y-70616936D01*
X69338144Y-70621330D01*
X69429356Y-70673991D01*
X69531089Y-70701250D01*
X69636411Y-70701250D01*
X69738144Y-70673991D01*
X69829356Y-70621330D01*
X69833750Y-70616936D01*
X69833750Y-71985564D01*
G37*
G04 #@! TD.AperFunction*
G04 #@! TA.AperFunction,Conductor*
G36*
X88812441Y-59970657D02*
G01*
X88848405Y-60020157D01*
X88853250Y-60050750D01*
X88853250Y-86621750D01*
X88834343Y-86679941D01*
X88784843Y-86715905D01*
X88754250Y-86720750D01*
X53935750Y-86720750D01*
X53877559Y-86701843D01*
X53841595Y-86652343D01*
X53836750Y-86621750D01*
X53836750Y-83180250D01*
X62598250Y-83180250D01*
X62598250Y-84102265D01*
X62598932Y-84124273D01*
X62598933Y-84124288D01*
X62625312Y-84238298D01*
X62625313Y-84238300D01*
X62639660Y-84272937D01*
X62639664Y-84272945D01*
X62659011Y-84312520D01*
X62732783Y-84403366D01*
X62832055Y-84465336D01*
X62866703Y-84479688D01*
X62887319Y-84487488D01*
X63002750Y-84506750D01*
X83754766Y-84506750D01*
X83768850Y-84506312D01*
X83776782Y-84506067D01*
X83776785Y-84506066D01*
X83776788Y-84506066D01*
X83815045Y-84497214D01*
X83890797Y-84479688D01*
X83925445Y-84465336D01*
X83965020Y-84445989D01*
X84055866Y-84372217D01*
X84117836Y-84272945D01*
X84132188Y-84238297D01*
X84139988Y-84217681D01*
X84159250Y-84102250D01*
X84159250Y-78160250D01*
X84158567Y-78138218D01*
X84158566Y-78138214D01*
X84158566Y-78138211D01*
X84139316Y-78055012D01*
X84132188Y-78024203D01*
X84117836Y-77989555D01*
X84098489Y-77949980D01*
X84024717Y-77859134D01*
X83986636Y-77835362D01*
X83925447Y-77797165D01*
X83925445Y-77797164D01*
X83890799Y-77782813D01*
X83890797Y-77782812D01*
X83889427Y-77782293D01*
X83870182Y-77775012D01*
X83754750Y-77755750D01*
X82782750Y-77755750D01*
X82782734Y-77755750D01*
X82760726Y-77756432D01*
X82760711Y-77756433D01*
X82646701Y-77782812D01*
X82646699Y-77782813D01*
X82612062Y-77797160D01*
X82572479Y-77816511D01*
X82481635Y-77890281D01*
X82481634Y-77890282D01*
X82417495Y-77993029D01*
X82416306Y-77992287D01*
X82376826Y-78031414D01*
X82316352Y-78040713D01*
X82261961Y-78012690D01*
X82240815Y-77980888D01*
X82227841Y-77949567D01*
X82227840Y-77949566D01*
X82227836Y-77949555D01*
X82208489Y-77909980D01*
X82134717Y-77819134D01*
X82099524Y-77797165D01*
X82035447Y-77757165D01*
X82035445Y-77757164D01*
X82000799Y-77742813D01*
X82000797Y-77742812D01*
X81999427Y-77742293D01*
X81980182Y-77735012D01*
X81864750Y-77715750D01*
X80992750Y-77715750D01*
X80992734Y-77715750D01*
X80970726Y-77716432D01*
X80970711Y-77716433D01*
X80856701Y-77742812D01*
X80856699Y-77742813D01*
X80822062Y-77757160D01*
X80782479Y-77776511D01*
X80737106Y-77813357D01*
X80680014Y-77835362D01*
X80620892Y-77819607D01*
X80582322Y-77772110D01*
X80579074Y-77762138D01*
X80556734Y-77678765D01*
X80542570Y-77654232D01*
X80507513Y-77593510D01*
X80494250Y-77544011D01*
X80494250Y-72781942D01*
X80463549Y-72667364D01*
X80463549Y-72667362D01*
X80404242Y-72564640D01*
X80404241Y-72564639D01*
X80404240Y-72564638D01*
X80404239Y-72564636D01*
X76043321Y-68203718D01*
X76015544Y-68149201D01*
X76025115Y-68088769D01*
X76027574Y-68084240D01*
X76056734Y-68033735D01*
X76094250Y-67893725D01*
X76094250Y-67748775D01*
X76056734Y-67608765D01*
X76056732Y-67608762D01*
X76056732Y-67608760D01*
X75984262Y-67483239D01*
X75984260Y-67483237D01*
X75984259Y-67483235D01*
X75881765Y-67380741D01*
X75881762Y-67380739D01*
X75881760Y-67380737D01*
X75756238Y-67308267D01*
X75756234Y-67308265D01*
X75667626Y-67284522D01*
X75616312Y-67251198D01*
X75594386Y-67194076D01*
X75594250Y-67188896D01*
X75594250Y-67118775D01*
X75583528Y-67078760D01*
X75556734Y-66978765D01*
X75556732Y-66978762D01*
X75556732Y-66978760D01*
X75484262Y-66853239D01*
X75484260Y-66853237D01*
X75484259Y-66853235D01*
X75381765Y-66750741D01*
X75381762Y-66750739D01*
X75381760Y-66750737D01*
X75256238Y-66678267D01*
X75256239Y-66678267D01*
X75226646Y-66670337D01*
X75116225Y-66640750D01*
X74971275Y-66640750D01*
X74909540Y-66657291D01*
X74831260Y-66678267D01*
X74705739Y-66750737D01*
X74603239Y-66853237D01*
X74587595Y-66880332D01*
X74542124Y-66921271D01*
X74481273Y-66927665D01*
X74431858Y-66900834D01*
X74381765Y-66850741D01*
X74381762Y-66850739D01*
X74381760Y-66850737D01*
X74256238Y-66778267D01*
X74256239Y-66778267D01*
X74153511Y-66750741D01*
X74116225Y-66740750D01*
X73971275Y-66740750D01*
X73933989Y-66750741D01*
X73831260Y-66778267D01*
X73705739Y-66850737D01*
X73603237Y-66953239D01*
X73530767Y-67078760D01*
X73530766Y-67078765D01*
X73493250Y-67218775D01*
X73493250Y-67363725D01*
X73530766Y-67503735D01*
X73579986Y-67588987D01*
X73593250Y-67638486D01*
X73593250Y-68380559D01*
X73617463Y-68470923D01*
X73617462Y-68470923D01*
X73623950Y-68495136D01*
X73623952Y-68495140D01*
X73683257Y-68597859D01*
X73683258Y-68597860D01*
X73683259Y-68597861D01*
X73683261Y-68597864D01*
X75141041Y-70055644D01*
X76597143Y-71511746D01*
X76624920Y-71566263D01*
X76615349Y-71626695D01*
X76572084Y-71669960D01*
X76527139Y-71680750D01*
X76457775Y-71680750D01*
X76396040Y-71697291D01*
X76317760Y-71718267D01*
X76192239Y-71790737D01*
X76089737Y-71893239D01*
X76017267Y-72018760D01*
X76007384Y-72055644D01*
X75979750Y-72158775D01*
X75979750Y-72303725D01*
X76006151Y-72402253D01*
X76017267Y-72443739D01*
X76089737Y-72569260D01*
X76089739Y-72569262D01*
X76089741Y-72569265D01*
X76192235Y-72671759D01*
X76192237Y-72671760D01*
X76196824Y-72676347D01*
X76194959Y-72678211D01*
X76223273Y-72719407D01*
X76227350Y-72747525D01*
X76227350Y-74133095D01*
X76208443Y-74191286D01*
X76158943Y-74227250D01*
X76097757Y-74227250D01*
X76048257Y-74191286D01*
X76042614Y-74182595D01*
X75972939Y-74061916D01*
X75972937Y-74061914D01*
X75972936Y-74061912D01*
X75870442Y-73959418D01*
X75870439Y-73959416D01*
X75870437Y-73959414D01*
X75744915Y-73886944D01*
X75744916Y-73886944D01*
X75715323Y-73879014D01*
X75604902Y-73849427D01*
X75459952Y-73849427D01*
X75398217Y-73865968D01*
X75319937Y-73886944D01*
X75194416Y-73959414D01*
X75091914Y-74061916D01*
X75019444Y-74187437D01*
X74981927Y-74327452D01*
X74981927Y-74478891D01*
X74979296Y-74478891D01*
X74978706Y-74482067D01*
X74980959Y-74496288D01*
X74973262Y-74511394D01*
X74970167Y-74528067D01*
X74953182Y-74550805D01*
X74892050Y-74611938D01*
X74812607Y-74691381D01*
X74812605Y-74691383D01*
X74812605Y-74691384D01*
X74756429Y-74788684D01*
X74733944Y-74872601D01*
X74727350Y-74897209D01*
X74727350Y-77206804D01*
X74708443Y-77264995D01*
X74696302Y-77277461D01*
X74696824Y-77277983D01*
X74692237Y-77282569D01*
X74692235Y-77282571D01*
X74621071Y-77353735D01*
X74589738Y-77385068D01*
X74589737Y-77385069D01*
X74517267Y-77510590D01*
X74495049Y-77593510D01*
X74479750Y-77650605D01*
X74479750Y-77795555D01*
X74505132Y-77890281D01*
X74517267Y-77935569D01*
X74589737Y-78061090D01*
X74589739Y-78061092D01*
X74589741Y-78061095D01*
X74692235Y-78163589D01*
X74692237Y-78163590D01*
X74692239Y-78163592D01*
X74817761Y-78236062D01*
X74817762Y-78236062D01*
X74817765Y-78236064D01*
X74957775Y-78273580D01*
X74957776Y-78273580D01*
X75102724Y-78273580D01*
X75102725Y-78273580D01*
X75242735Y-78236064D01*
X75244249Y-78235189D01*
X75245476Y-78234928D01*
X75248733Y-78233580D01*
X75248982Y-78234183D01*
X75304096Y-78222468D01*
X75338711Y-78233714D01*
X75338767Y-78233580D01*
X75340478Y-78234288D01*
X75343250Y-78235189D01*
X75344765Y-78236064D01*
X75484775Y-78273580D01*
X75484776Y-78273580D01*
X75629724Y-78273580D01*
X75629725Y-78273580D01*
X75769735Y-78236064D01*
X75769737Y-78236062D01*
X75769739Y-78236062D01*
X75895260Y-78163592D01*
X75895260Y-78163591D01*
X75895265Y-78163589D01*
X75997759Y-78061095D01*
X76012392Y-78035750D01*
X76070232Y-77935569D01*
X76070232Y-77935567D01*
X76070234Y-77935565D01*
X76107750Y-77795555D01*
X76107750Y-77704454D01*
X76126657Y-77646263D01*
X76176157Y-77610299D01*
X76237343Y-77610299D01*
X76256245Y-77618715D01*
X76317765Y-77654234D01*
X76457775Y-77691750D01*
X76457776Y-77691750D01*
X76602724Y-77691750D01*
X76602725Y-77691750D01*
X76742735Y-77654234D01*
X76744249Y-77653359D01*
X76745476Y-77653098D01*
X76748733Y-77651750D01*
X76748982Y-77652353D01*
X76804096Y-77640638D01*
X76838711Y-77651884D01*
X76838767Y-77651750D01*
X76840478Y-77652458D01*
X76843250Y-77653359D01*
X76844765Y-77654234D01*
X76984775Y-77691750D01*
X76984776Y-77691750D01*
X77129724Y-77691750D01*
X77129725Y-77691750D01*
X77269735Y-77654234D01*
X77269737Y-77654232D01*
X77269739Y-77654232D01*
X77395260Y-77581762D01*
X77395260Y-77581761D01*
X77395265Y-77581759D01*
X77497759Y-77479265D01*
X77513906Y-77451298D01*
X77570232Y-77353739D01*
X77570232Y-77353737D01*
X77570234Y-77353735D01*
X77607750Y-77213725D01*
X77607750Y-77068775D01*
X77570234Y-76928765D01*
X77570232Y-76928762D01*
X77570232Y-76928760D01*
X77497762Y-76803239D01*
X77497760Y-76803237D01*
X77497759Y-76803235D01*
X77395265Y-76700741D01*
X77395262Y-76700739D01*
X77390676Y-76696153D01*
X77392535Y-76694293D01*
X77364215Y-76653053D01*
X77360150Y-76624974D01*
X77360150Y-72747525D01*
X77362574Y-72740062D01*
X77361325Y-72732315D01*
X77369656Y-72718265D01*
X77379057Y-72689334D01*
X77388949Y-72677720D01*
X77394352Y-72672285D01*
X77395265Y-72671759D01*
X77497759Y-72569265D01*
X77499097Y-72566947D01*
X77505500Y-72560508D01*
X77527340Y-72549301D01*
X77547571Y-72535394D01*
X77554113Y-72535564D01*
X77559938Y-72532576D01*
X77584194Y-72536347D01*
X77608736Y-72536987D01*
X77615419Y-72541203D01*
X77620396Y-72541977D01*
X77626904Y-72548448D01*
X77645705Y-72560309D01*
X78564254Y-73478857D01*
X78592031Y-73533374D01*
X78593250Y-73548861D01*
X78593250Y-77524011D01*
X78579987Y-77573510D01*
X78530766Y-77658763D01*
X78504401Y-77757160D01*
X78493250Y-77798775D01*
X78493250Y-77943725D01*
X78517908Y-78035750D01*
X78530767Y-78083739D01*
X78603237Y-78209260D01*
X78603239Y-78209262D01*
X78603241Y-78209265D01*
X78705735Y-78311759D01*
X78705737Y-78311760D01*
X78705739Y-78311762D01*
X78831261Y-78384232D01*
X78831262Y-78384232D01*
X78831265Y-78384234D01*
X78971275Y-78421750D01*
X78971276Y-78421750D01*
X79116224Y-78421750D01*
X79116225Y-78421750D01*
X79256235Y-78384234D01*
X79256237Y-78384232D01*
X79256239Y-78384232D01*
X79381760Y-78311762D01*
X79381760Y-78311761D01*
X79381765Y-78311759D01*
X79463748Y-78229775D01*
X79518263Y-78202000D01*
X79578695Y-78211571D01*
X79603750Y-78229774D01*
X79705735Y-78331759D01*
X79705737Y-78331760D01*
X79705739Y-78331762D01*
X79831261Y-78404232D01*
X79831262Y-78404232D01*
X79831265Y-78404234D01*
X79971275Y-78441750D01*
X79971276Y-78441750D01*
X80116224Y-78441750D01*
X80116225Y-78441750D01*
X80256235Y-78404234D01*
X80256237Y-78404232D01*
X80256239Y-78404232D01*
X80381760Y-78331762D01*
X80381760Y-78331761D01*
X80381765Y-78331759D01*
X80419248Y-78294275D01*
X80473763Y-78266500D01*
X80534195Y-78276071D01*
X80577460Y-78319336D01*
X80588250Y-78364281D01*
X80588250Y-80862887D01*
X80591291Y-80909288D01*
X80592961Y-80921974D01*
X80592963Y-80921986D01*
X80596847Y-80941505D01*
X80598750Y-80960822D01*
X80598750Y-80961675D01*
X80596847Y-80980991D01*
X80592966Y-81000498D01*
X80592962Y-81000524D01*
X80591291Y-81013212D01*
X80588250Y-81059611D01*
X80588250Y-81296750D01*
X80569343Y-81354941D01*
X80519843Y-81390905D01*
X80489250Y-81395750D01*
X64518250Y-81395750D01*
X64460059Y-81376843D01*
X64424095Y-81327343D01*
X64419250Y-81296750D01*
X64419250Y-79855750D01*
X64438157Y-79797559D01*
X64487657Y-79761595D01*
X64518250Y-79756750D01*
X72814766Y-79756750D01*
X72828850Y-79756312D01*
X72836782Y-79756067D01*
X72836785Y-79756066D01*
X72836788Y-79756066D01*
X72875045Y-79747214D01*
X72950797Y-79729688D01*
X72985445Y-79715336D01*
X73025020Y-79695989D01*
X73115866Y-79622217D01*
X73177836Y-79522945D01*
X73192188Y-79488297D01*
X73199988Y-79467681D01*
X73219250Y-79352250D01*
X73219250Y-78440250D01*
X73218567Y-78418218D01*
X73218566Y-78418214D01*
X73218566Y-78418211D01*
X73195689Y-78319336D01*
X73192188Y-78304203D01*
X73177836Y-78269555D01*
X73158489Y-78229980D01*
X73084717Y-78139134D01*
X72995978Y-78083739D01*
X72985447Y-78077165D01*
X72985445Y-78077164D01*
X72950797Y-78062812D01*
X72946246Y-78061090D01*
X72930182Y-78055012D01*
X72814750Y-78035750D01*
X65878250Y-78035750D01*
X65820059Y-78016843D01*
X65784095Y-77967343D01*
X65779250Y-77936750D01*
X65779250Y-76140234D01*
X65778567Y-76118226D01*
X65778567Y-76118218D01*
X65778566Y-76118214D01*
X65778566Y-76118211D01*
X65757255Y-76026104D01*
X65752188Y-76004203D01*
X65737836Y-75969555D01*
X65718489Y-75929980D01*
X65644717Y-75839134D01*
X65545445Y-75777164D01*
X65510797Y-75762812D01*
X65509427Y-75762293D01*
X65490182Y-75755012D01*
X65374750Y-75735750D01*
X64448250Y-75735750D01*
X64390059Y-75716843D01*
X64354095Y-75667343D01*
X64349250Y-75636750D01*
X64349250Y-71030234D01*
X64348567Y-71008226D01*
X64348567Y-71008218D01*
X64348566Y-71008214D01*
X64348566Y-71008211D01*
X64327481Y-70917081D01*
X64322188Y-70894203D01*
X64307836Y-70859555D01*
X64288489Y-70819980D01*
X64214717Y-70729134D01*
X64146438Y-70686511D01*
X64115447Y-70667165D01*
X64115445Y-70667164D01*
X64080799Y-70652813D01*
X64080797Y-70652812D01*
X64079427Y-70652293D01*
X64060182Y-70645012D01*
X63944750Y-70625750D01*
X63032750Y-70625750D01*
X63032734Y-70625750D01*
X63010726Y-70626432D01*
X63010711Y-70626433D01*
X62896701Y-70652812D01*
X62896699Y-70652813D01*
X62862062Y-70667160D01*
X62822479Y-70686511D01*
X62731635Y-70760281D01*
X62731634Y-70760282D01*
X62669665Y-70859552D01*
X62669664Y-70859554D01*
X62655309Y-70894210D01*
X62647512Y-70914817D01*
X62628250Y-71030250D01*
X62628250Y-76912265D01*
X62628932Y-76934273D01*
X62628933Y-76934288D01*
X62655312Y-77048298D01*
X62655313Y-77048300D01*
X62669660Y-77082937D01*
X62689011Y-77122520D01*
X62708023Y-77145932D01*
X62730028Y-77203023D01*
X62715152Y-77260762D01*
X62709666Y-77269550D01*
X62709665Y-77269552D01*
X62695309Y-77304210D01*
X62687512Y-77324817D01*
X62668250Y-77440250D01*
X62668250Y-82502265D01*
X62668932Y-82524273D01*
X62668933Y-82524288D01*
X62695312Y-82638298D01*
X62695313Y-82638300D01*
X62709660Y-82672937D01*
X62729011Y-82712520D01*
X62752500Y-82741445D01*
X62774505Y-82798536D01*
X62758750Y-82857658D01*
X62738057Y-82880704D01*
X62701636Y-82910280D01*
X62701634Y-82910282D01*
X62639665Y-83009552D01*
X62639664Y-83009554D01*
X62625309Y-83044210D01*
X62617512Y-83064817D01*
X62598250Y-83180250D01*
X53836750Y-83180250D01*
X53836750Y-67130250D01*
X55838250Y-67130250D01*
X55838250Y-80492265D01*
X55838932Y-80514273D01*
X55838933Y-80514288D01*
X55865312Y-80628298D01*
X55865313Y-80628300D01*
X55879660Y-80662937D01*
X55879664Y-80662945D01*
X55899011Y-80702520D01*
X55972783Y-80793366D01*
X56072055Y-80855336D01*
X56106703Y-80869688D01*
X56127319Y-80877488D01*
X56242750Y-80896750D01*
X57604766Y-80896750D01*
X57618850Y-80896312D01*
X57626782Y-80896067D01*
X57626785Y-80896066D01*
X57626788Y-80896066D01*
X57665045Y-80887214D01*
X57740797Y-80869688D01*
X57775445Y-80855336D01*
X57815020Y-80835989D01*
X57905866Y-80762217D01*
X57967836Y-80662945D01*
X57982188Y-80628297D01*
X57989988Y-80607681D01*
X58009250Y-80492250D01*
X58009250Y-69105750D01*
X58028157Y-69047559D01*
X58077657Y-69011595D01*
X58108250Y-69006750D01*
X66159250Y-69006750D01*
X66217441Y-69025657D01*
X66253405Y-69075157D01*
X66258250Y-69105750D01*
X66258250Y-71252265D01*
X66258932Y-71274273D01*
X66258933Y-71274288D01*
X66285312Y-71388298D01*
X66285313Y-71388300D01*
X66299660Y-71422937D01*
X66299664Y-71422945D01*
X66319011Y-71462520D01*
X66392783Y-71553366D01*
X66492055Y-71615336D01*
X66526703Y-71629688D01*
X66547319Y-71637488D01*
X66618004Y-71649283D01*
X66672287Y-71677509D01*
X66699614Y-71732253D01*
X66689543Y-71792604D01*
X66684025Y-71801931D01*
X66674968Y-71815485D01*
X66674963Y-71815495D01*
X66597660Y-72002119D01*
X66597658Y-72002125D01*
X66558250Y-72200244D01*
X66558250Y-72402255D01*
X66597658Y-72600374D01*
X66597660Y-72600380D01*
X66674963Y-72787005D01*
X66761876Y-72917080D01*
X66787192Y-72954968D01*
X66930032Y-73097808D01*
X67097994Y-73210036D01*
X67097996Y-73210037D01*
X67097998Y-73210038D01*
X67102283Y-73212329D01*
X67101682Y-73213451D01*
X67143917Y-73249525D01*
X67158199Y-73309020D01*
X67134782Y-73365547D01*
X67101893Y-73389442D01*
X67102283Y-73390171D01*
X67097998Y-73392461D01*
X66930035Y-73504689D01*
X66787189Y-73647535D01*
X66674963Y-73815494D01*
X66597660Y-74002119D01*
X66597658Y-74002125D01*
X66558250Y-74200244D01*
X66558250Y-74402255D01*
X66597658Y-74600374D01*
X66597660Y-74600380D01*
X66674963Y-74787005D01*
X66761876Y-74917080D01*
X66787192Y-74954968D01*
X66930032Y-75097808D01*
X67097994Y-75210036D01*
X67097996Y-75210037D01*
X67097998Y-75210038D01*
X67102283Y-75212329D01*
X67101682Y-75213451D01*
X67143917Y-75249525D01*
X67158199Y-75309020D01*
X67134782Y-75365547D01*
X67101893Y-75389442D01*
X67102283Y-75390171D01*
X67097998Y-75392461D01*
X66930035Y-75504689D01*
X66787189Y-75647535D01*
X66674963Y-75815494D01*
X66597660Y-76002119D01*
X66597658Y-76002125D01*
X66558250Y-76200244D01*
X66558250Y-76402255D01*
X66597658Y-76600374D01*
X66597660Y-76600380D01*
X66674963Y-76787005D01*
X66773364Y-76934273D01*
X66787192Y-76954968D01*
X66930032Y-77097808D01*
X67097994Y-77210036D01*
X67284623Y-77287341D01*
X67482747Y-77326750D01*
X67482748Y-77326750D01*
X67684752Y-77326750D01*
X67684753Y-77326750D01*
X67882877Y-77287341D01*
X68069506Y-77210036D01*
X68237468Y-77097808D01*
X68380308Y-76954968D01*
X68410033Y-76910480D01*
X68458082Y-76872601D01*
X68519220Y-76870198D01*
X68570094Y-76904190D01*
X68576338Y-76914026D01*
X68576766Y-76913765D01*
X68578797Y-76917080D01*
X68687512Y-77066712D01*
X68818287Y-77197487D01*
X68967918Y-77306201D01*
X69132708Y-77390165D01*
X69308599Y-77447315D01*
X69333750Y-77451298D01*
X69333750Y-76616936D01*
X69338144Y-76621330D01*
X69429356Y-76673991D01*
X69531089Y-76701250D01*
X69636411Y-76701250D01*
X69738144Y-76673991D01*
X69829356Y-76621330D01*
X69833750Y-76616936D01*
X69833750Y-77451298D01*
X69858900Y-77447315D01*
X70034791Y-77390165D01*
X70199581Y-77306201D01*
X70349212Y-77197487D01*
X70479987Y-77066712D01*
X70588701Y-76917081D01*
X70672665Y-76752291D01*
X70729817Y-76576395D01*
X70729818Y-76576389D01*
X70733800Y-76551250D01*
X69899436Y-76551250D01*
X69903830Y-76546856D01*
X69956491Y-76455644D01*
X69983750Y-76353911D01*
X69983750Y-76248589D01*
X69956491Y-76146856D01*
X69903830Y-76055644D01*
X69899436Y-76051250D01*
X70733800Y-76051250D01*
X70733800Y-76051249D01*
X70729818Y-76026110D01*
X70729817Y-76026104D01*
X70672665Y-75850208D01*
X70588701Y-75685418D01*
X70479987Y-75535787D01*
X70349209Y-75405009D01*
X70316635Y-75381343D01*
X70280671Y-75331843D01*
X70280670Y-75270658D01*
X70316634Y-75221158D01*
X70316635Y-75221157D01*
X70349209Y-75197490D01*
X70479987Y-75066712D01*
X70588701Y-74917081D01*
X70672665Y-74752291D01*
X70729817Y-74576395D01*
X70729818Y-74576389D01*
X70733800Y-74551250D01*
X69899436Y-74551250D01*
X69903830Y-74546856D01*
X69956491Y-74455644D01*
X69983750Y-74353911D01*
X69983750Y-74248589D01*
X69956491Y-74146856D01*
X69903830Y-74055644D01*
X69899436Y-74051250D01*
X70733800Y-74051250D01*
X70733800Y-74051249D01*
X70729818Y-74026110D01*
X70729817Y-74026104D01*
X70672665Y-73850208D01*
X70588701Y-73685418D01*
X70479987Y-73535787D01*
X70349209Y-73405009D01*
X70316635Y-73381343D01*
X70280671Y-73331843D01*
X70280670Y-73270658D01*
X70316634Y-73221158D01*
X70316635Y-73221157D01*
X70349209Y-73197490D01*
X70479987Y-73066712D01*
X70588701Y-72917081D01*
X70672665Y-72752291D01*
X70729817Y-72576395D01*
X70729818Y-72576389D01*
X70733800Y-72551250D01*
X69899436Y-72551250D01*
X69903830Y-72546856D01*
X69956491Y-72455644D01*
X69983750Y-72353911D01*
X69983750Y-72248589D01*
X69956491Y-72146856D01*
X69903830Y-72055644D01*
X69899436Y-72051250D01*
X70733800Y-72051250D01*
X70733800Y-72051249D01*
X70729818Y-72026110D01*
X70729817Y-72026104D01*
X70672665Y-71850208D01*
X70588701Y-71685418D01*
X70479987Y-71535787D01*
X70349209Y-71405009D01*
X70316635Y-71381343D01*
X70280671Y-71331843D01*
X70280670Y-71270658D01*
X70316634Y-71221158D01*
X70316635Y-71221157D01*
X70349209Y-71197490D01*
X70479987Y-71066712D01*
X70588701Y-70917081D01*
X70672665Y-70752291D01*
X70729817Y-70576395D01*
X70729818Y-70576389D01*
X70733800Y-70551250D01*
X69899436Y-70551250D01*
X69903830Y-70546856D01*
X69956491Y-70455644D01*
X69983750Y-70353911D01*
X69983750Y-70248589D01*
X69956491Y-70146856D01*
X69903830Y-70055644D01*
X69899436Y-70051250D01*
X70733800Y-70051250D01*
X70733800Y-70051249D01*
X70729818Y-70026110D01*
X70729817Y-70026104D01*
X70672665Y-69850208D01*
X70588701Y-69685418D01*
X70479987Y-69535787D01*
X70349212Y-69405012D01*
X70199581Y-69296298D01*
X70034791Y-69212334D01*
X69858895Y-69155182D01*
X69858889Y-69155181D01*
X69833750Y-69151199D01*
X69833750Y-69985564D01*
X69829356Y-69981170D01*
X69738144Y-69928509D01*
X69636411Y-69901250D01*
X69531089Y-69901250D01*
X69429356Y-69928509D01*
X69338144Y-69981170D01*
X69333750Y-69985564D01*
X69333750Y-69151200D01*
X69333749Y-69151199D01*
X69308610Y-69155181D01*
X69308604Y-69155182D01*
X69158842Y-69203843D01*
X69097657Y-69203843D01*
X69048157Y-69167879D01*
X69029250Y-69109688D01*
X69029250Y-67130234D01*
X69028567Y-67108226D01*
X69028567Y-67108218D01*
X69028566Y-67108214D01*
X69028566Y-67108211D01*
X69007311Y-67016345D01*
X69002188Y-66994203D01*
X68987836Y-66959555D01*
X68968489Y-66919980D01*
X68894717Y-66829134D01*
X68826438Y-66786511D01*
X68795447Y-66767165D01*
X68795445Y-66767164D01*
X68760799Y-66752813D01*
X68760797Y-66752812D01*
X68755313Y-66750737D01*
X68740182Y-66745012D01*
X68624750Y-66725750D01*
X56242750Y-66725750D01*
X56242734Y-66725750D01*
X56220726Y-66726432D01*
X56220711Y-66726433D01*
X56106701Y-66752812D01*
X56106699Y-66752813D01*
X56072062Y-66767160D01*
X56032479Y-66786511D01*
X55941635Y-66860281D01*
X55941634Y-66860282D01*
X55879665Y-66959552D01*
X55879664Y-66959554D01*
X55865309Y-66994210D01*
X55857512Y-67014817D01*
X55838250Y-67130250D01*
X53836750Y-67130250D01*
X53836750Y-60050750D01*
X53855657Y-59992559D01*
X53905157Y-59956595D01*
X53935750Y-59951750D01*
X88754250Y-59951750D01*
X88812441Y-59970657D01*
G37*
G04 #@! TD.AperFunction*
G04 #@! TA.AperFunction,Conductor*
G36*
X83789398Y-78125602D02*
G01*
X83803750Y-78160250D01*
X83803750Y-84102250D01*
X83789398Y-84136898D01*
X83754750Y-84151250D01*
X63002750Y-84151250D01*
X62968102Y-84136898D01*
X62953750Y-84102250D01*
X62953750Y-83180250D01*
X62968102Y-83145602D01*
X63002750Y-83131250D01*
X82733750Y-83131250D01*
X82733750Y-78160250D01*
X82748102Y-78125602D01*
X82782750Y-78111250D01*
X83754750Y-78111250D01*
X83789398Y-78125602D01*
G37*
G04 #@! TD.AperFunction*
G04 #@! TA.AperFunction,Conductor*
G36*
X68659398Y-67095602D02*
G01*
X68673750Y-67130250D01*
X68673750Y-71252250D01*
X68659398Y-71286898D01*
X68624750Y-71301250D01*
X66662750Y-71301250D01*
X66628102Y-71286898D01*
X66613750Y-71252250D01*
X66613750Y-68651250D01*
X57653750Y-68651250D01*
X57653750Y-80492250D01*
X57639398Y-80526898D01*
X57604750Y-80541250D01*
X56242750Y-80541250D01*
X56208102Y-80526898D01*
X56193750Y-80492250D01*
X56193750Y-67130250D01*
X56208102Y-67095602D01*
X56242750Y-67081250D01*
X68624750Y-67081250D01*
X68659398Y-67095602D01*
G37*
G04 #@! TD.AperFunction*
G04 #@! TA.AperFunction,Conductor*
G36*
X63979398Y-70995602D02*
G01*
X63993750Y-71030250D01*
X63993750Y-76091250D01*
X65374750Y-76091250D01*
X65409398Y-76105602D01*
X65423750Y-76140250D01*
X65423750Y-78391250D01*
X72814750Y-78391250D01*
X72849398Y-78405602D01*
X72863750Y-78440250D01*
X72863750Y-79352250D01*
X72849398Y-79386898D01*
X72814750Y-79401250D01*
X64462750Y-79401250D01*
X64428102Y-79386898D01*
X64413750Y-79352250D01*
X64413750Y-76961250D01*
X63032750Y-76961250D01*
X62998102Y-76946898D01*
X62983750Y-76912250D01*
X62983750Y-71030250D01*
X62998102Y-70995602D01*
X63032750Y-70981250D01*
X63944750Y-70981250D01*
X63979398Y-70995602D01*
G37*
G04 #@! TD.AperFunction*
G04 #@! TA.AperFunction,Conductor*
G36*
X64049398Y-77405602D02*
G01*
X64063750Y-77440250D01*
X64063750Y-81751250D01*
X80943750Y-81751250D01*
X80943750Y-81059613D01*
X80945420Y-81046930D01*
X80954250Y-81013978D01*
X80954250Y-80908521D01*
X80945420Y-80875569D01*
X80943750Y-80862886D01*
X80943750Y-78120250D01*
X80958102Y-78085602D01*
X80992750Y-78071250D01*
X81864750Y-78071250D01*
X81899398Y-78085602D01*
X81913750Y-78120250D01*
X81913750Y-81132886D01*
X81912080Y-81145569D01*
X81903250Y-81178521D01*
X81903250Y-81283978D01*
X81912080Y-81316930D01*
X81913750Y-81329613D01*
X81913750Y-82502250D01*
X81899398Y-82536898D01*
X81864750Y-82551250D01*
X63072750Y-82551250D01*
X63038102Y-82536898D01*
X63023750Y-82502250D01*
X63023750Y-77440250D01*
X63038102Y-77405602D01*
X63072750Y-77391250D01*
X64014750Y-77391250D01*
X64049398Y-77405602D01*
G37*
G04 #@! TD.AperFunction*
M02*
