G04 #@! TF.GenerationSoftware,KiCad,Pcbnew,9.0.0*
G04 #@! TF.CreationDate,2025-09-01T12:56:58+03:00*
G04 #@! TF.ProjectId,OV24-RV_V1.0,4f563234-2d52-4565-9f56-312e302e6b69,rev?*
G04 #@! TF.SameCoordinates,Original*
G04 #@! TF.FileFunction,Legend,Top*
G04 #@! TF.FilePolarity,Positive*
%FSLAX46Y46*%
G04 Gerber Fmt 4.6, Leading zero omitted, Abs format (unit mm)*
G04 Created by KiCad (PCBNEW 9.0.0) date 2025-09-01 12:56:58*
%MOMM*%
%LPD*%
G01*
G04 APERTURE LIST*
G04 Aperture macros list*
%AMRoundRect*
0 Rectangle with rounded corners*
0 $1 Rounding radius*
0 $2 $3 $4 $5 $6 $7 $8 $9 X,Y pos of 4 corners*
0 Add a 4 corners polygon primitive as box body*
4,1,4,$2,$3,$4,$5,$6,$7,$8,$9,$2,$3,0*
0 Add four circle primitives for the rounded corners*
1,1,$1+$1,$2,$3*
1,1,$1+$1,$4,$5*
1,1,$1+$1,$6,$7*
1,1,$1+$1,$8,$9*
0 Add four rect primitives between the rounded corners*
20,1,$1+$1,$2,$3,$4,$5,0*
20,1,$1+$1,$4,$5,$6,$7,0*
20,1,$1+$1,$6,$7,$8,$9,0*
20,1,$1+$1,$8,$9,$2,$3,0*%
G04 Aperture macros list end*
%ADD10C,0.100000*%
%ADD11C,0.120000*%
%ADD12C,0.050000*%
%ADD13C,0.125000*%
%ADD14C,0.150000*%
%ADD15C,0.200000*%
%ADD16RoundRect,0.150000X-0.512500X-0.150000X0.512500X-0.150000X0.512500X0.150000X-0.512500X0.150000X0*%
%ADD17RoundRect,0.250000X0.250000X0.475000X-0.250000X0.475000X-0.250000X-0.475000X0.250000X-0.475000X0*%
%ADD18R,0.300000X1.100000*%
%ADD19R,2.100000X1.600000*%
%ADD20R,1.300000X0.350000*%
%ADD21R,1.350000X1.350000*%
%ADD22O,1.350000X1.350000*%
%ADD23RoundRect,0.200000X-0.275000X0.200000X-0.275000X-0.200000X0.275000X-0.200000X0.275000X0.200000X0*%
%ADD24RoundRect,0.200000X-0.200000X-0.275000X0.200000X-0.275000X0.200000X0.275000X-0.200000X0.275000X0*%
%ADD25R,0.300000X1.600000*%
%ADD26R,2.240000X3.120000*%
G04 APERTURE END LIST*
D10*
X75210610Y-76623669D02*
X75401086Y-76623669D01*
X75401086Y-76623669D02*
X75496324Y-76671288D01*
X75496324Y-76671288D02*
X75591562Y-76766526D01*
X75591562Y-76766526D02*
X75639181Y-76957002D01*
X75639181Y-76957002D02*
X75639181Y-77290335D01*
X75639181Y-77290335D02*
X75591562Y-77480811D01*
X75591562Y-77480811D02*
X75496324Y-77576050D01*
X75496324Y-77576050D02*
X75401086Y-77623669D01*
X75401086Y-77623669D02*
X75210610Y-77623669D01*
X75210610Y-77623669D02*
X75115372Y-77576050D01*
X75115372Y-77576050D02*
X75020134Y-77480811D01*
X75020134Y-77480811D02*
X74972515Y-77290335D01*
X74972515Y-77290335D02*
X74972515Y-76957002D01*
X74972515Y-76957002D02*
X75020134Y-76766526D01*
X75020134Y-76766526D02*
X75115372Y-76671288D01*
X75115372Y-76671288D02*
X75210610Y-76623669D01*
X75924896Y-76623669D02*
X76258229Y-77623669D01*
X76258229Y-77623669D02*
X76591562Y-76623669D01*
X76877277Y-76718907D02*
X76924896Y-76671288D01*
X76924896Y-76671288D02*
X77020134Y-76623669D01*
X77020134Y-76623669D02*
X77258229Y-76623669D01*
X77258229Y-76623669D02*
X77353467Y-76671288D01*
X77353467Y-76671288D02*
X77401086Y-76718907D01*
X77401086Y-76718907D02*
X77448705Y-76814145D01*
X77448705Y-76814145D02*
X77448705Y-76909383D01*
X77448705Y-76909383D02*
X77401086Y-77052240D01*
X77401086Y-77052240D02*
X76829658Y-77623669D01*
X76829658Y-77623669D02*
X77448705Y-77623669D01*
X77782039Y-76623669D02*
X78401086Y-76623669D01*
X78401086Y-76623669D02*
X78067753Y-77004621D01*
X78067753Y-77004621D02*
X78210610Y-77004621D01*
X78210610Y-77004621D02*
X78305848Y-77052240D01*
X78305848Y-77052240D02*
X78353467Y-77099859D01*
X78353467Y-77099859D02*
X78401086Y-77195097D01*
X78401086Y-77195097D02*
X78401086Y-77433192D01*
X78401086Y-77433192D02*
X78353467Y-77528430D01*
X78353467Y-77528430D02*
X78305848Y-77576050D01*
X78305848Y-77576050D02*
X78210610Y-77623669D01*
X78210610Y-77623669D02*
X77924896Y-77623669D01*
X77924896Y-77623669D02*
X77829658Y-77576050D01*
X77829658Y-77576050D02*
X77782039Y-77528430D01*
X79353467Y-77623669D02*
X78782039Y-77623669D01*
X79067753Y-77623669D02*
X79067753Y-76623669D01*
X79067753Y-76623669D02*
X78972515Y-76766526D01*
X78972515Y-76766526D02*
X78877277Y-76861764D01*
X78877277Y-76861764D02*
X78782039Y-76909383D01*
X79734420Y-76718907D02*
X79782039Y-76671288D01*
X79782039Y-76671288D02*
X79877277Y-76623669D01*
X79877277Y-76623669D02*
X80115372Y-76623669D01*
X80115372Y-76623669D02*
X80210610Y-76671288D01*
X80210610Y-76671288D02*
X80258229Y-76718907D01*
X80258229Y-76718907D02*
X80305848Y-76814145D01*
X80305848Y-76814145D02*
X80305848Y-76909383D01*
X80305848Y-76909383D02*
X80258229Y-77052240D01*
X80258229Y-77052240D02*
X79686801Y-77623669D01*
X79686801Y-77623669D02*
X80305848Y-77623669D01*
X75161562Y-69033669D02*
X74828229Y-68557478D01*
X74590134Y-69033669D02*
X74590134Y-68033669D01*
X74590134Y-68033669D02*
X74971086Y-68033669D01*
X74971086Y-68033669D02*
X75066324Y-68081288D01*
X75066324Y-68081288D02*
X75113943Y-68128907D01*
X75113943Y-68128907D02*
X75161562Y-68224145D01*
X75161562Y-68224145D02*
X75161562Y-68367002D01*
X75161562Y-68367002D02*
X75113943Y-68462240D01*
X75113943Y-68462240D02*
X75066324Y-68509859D01*
X75066324Y-68509859D02*
X74971086Y-68557478D01*
X74971086Y-68557478D02*
X74590134Y-68557478D01*
X75447277Y-68033669D02*
X75780610Y-69033669D01*
X75780610Y-69033669D02*
X76113943Y-68033669D01*
X76971086Y-69033669D02*
X76399658Y-69033669D01*
X76685372Y-69033669D02*
X76685372Y-68033669D01*
X76685372Y-68033669D02*
X76590134Y-68176526D01*
X76590134Y-68176526D02*
X76494896Y-68271764D01*
X76494896Y-68271764D02*
X76399658Y-68319383D01*
X77923467Y-69033669D02*
X77352039Y-69033669D01*
X77637753Y-69033669D02*
X77637753Y-68033669D01*
X77637753Y-68033669D02*
X77542515Y-68176526D01*
X77542515Y-68176526D02*
X77447277Y-68271764D01*
X77447277Y-68271764D02*
X77352039Y-68319383D01*
X78542515Y-68033669D02*
X78637753Y-68033669D01*
X78637753Y-68033669D02*
X78732991Y-68081288D01*
X78732991Y-68081288D02*
X78780610Y-68128907D01*
X78780610Y-68128907D02*
X78828229Y-68224145D01*
X78828229Y-68224145D02*
X78875848Y-68414621D01*
X78875848Y-68414621D02*
X78875848Y-68652716D01*
X78875848Y-68652716D02*
X78828229Y-68843192D01*
X78828229Y-68843192D02*
X78780610Y-68938430D01*
X78780610Y-68938430D02*
X78732991Y-68986050D01*
X78732991Y-68986050D02*
X78637753Y-69033669D01*
X78637753Y-69033669D02*
X78542515Y-69033669D01*
X78542515Y-69033669D02*
X78447277Y-68986050D01*
X78447277Y-68986050D02*
X78399658Y-68938430D01*
X78399658Y-68938430D02*
X78352039Y-68843192D01*
X78352039Y-68843192D02*
X78304420Y-68652716D01*
X78304420Y-68652716D02*
X78304420Y-68414621D01*
X78304420Y-68414621D02*
X78352039Y-68224145D01*
X78352039Y-68224145D02*
X78399658Y-68128907D01*
X78399658Y-68128907D02*
X78447277Y-68081288D01*
X78447277Y-68081288D02*
X78542515Y-68033669D01*
X79732991Y-68033669D02*
X79542515Y-68033669D01*
X79542515Y-68033669D02*
X79447277Y-68081288D01*
X79447277Y-68081288D02*
X79399658Y-68128907D01*
X79399658Y-68128907D02*
X79304420Y-68271764D01*
X79304420Y-68271764D02*
X79256801Y-68462240D01*
X79256801Y-68462240D02*
X79256801Y-68843192D01*
X79256801Y-68843192D02*
X79304420Y-68938430D01*
X79304420Y-68938430D02*
X79352039Y-68986050D01*
X79352039Y-68986050D02*
X79447277Y-69033669D01*
X79447277Y-69033669D02*
X79637753Y-69033669D01*
X79637753Y-69033669D02*
X79732991Y-68986050D01*
X79732991Y-68986050D02*
X79780610Y-68938430D01*
X79780610Y-68938430D02*
X79828229Y-68843192D01*
X79828229Y-68843192D02*
X79828229Y-68605097D01*
X79828229Y-68605097D02*
X79780610Y-68509859D01*
X79780610Y-68509859D02*
X79732991Y-68462240D01*
X79732991Y-68462240D02*
X79637753Y-68414621D01*
X79637753Y-68414621D02*
X79447277Y-68414621D01*
X79447277Y-68414621D02*
X79352039Y-68462240D01*
X79352039Y-68462240D02*
X79304420Y-68509859D01*
X79304420Y-68509859D02*
X79256801Y-68605097D01*
D11*
X72583750Y-71051250D02*
X72583750Y-69211250D01*
X71093750Y-77361250D02*
X72573750Y-77361250D01*
X66043750Y-69241250D02*
X64563750Y-69241250D01*
X71113750Y-75271250D02*
X72593750Y-75271250D01*
X72573750Y-73241250D02*
X72573750Y-71401250D01*
X72573750Y-77361250D02*
X72573750Y-75521250D01*
X72573750Y-75521250D02*
X71073750Y-75521250D01*
X66063750Y-73551250D02*
X64583750Y-73551250D01*
X64563750Y-73311250D02*
X66063750Y-73311250D01*
X71093750Y-73241250D02*
X72573750Y-73241250D01*
X64563750Y-69241250D02*
X64563750Y-71081250D01*
D12*
X54323750Y-71381250D02*
X64373750Y-71381250D01*
X64373750Y-77351250D01*
X54323750Y-77351250D01*
X54323750Y-71381250D01*
D11*
X64583750Y-75391250D02*
X66083750Y-75391250D01*
X72573750Y-71401250D02*
X71073750Y-71401250D01*
X66073750Y-75611250D02*
X64593750Y-75611250D01*
X64583750Y-73551250D02*
X64583750Y-75391250D01*
X71103750Y-71051250D02*
X72583750Y-71051250D01*
X72593750Y-73431250D02*
X71093750Y-73431250D01*
X64563750Y-71471250D02*
X64563750Y-73311250D01*
X66043750Y-71471250D02*
X64563750Y-71471250D01*
X64593750Y-77451250D02*
X66093750Y-77451250D01*
X64563750Y-71081250D02*
X66063750Y-71081250D01*
X72593750Y-75271250D02*
X72593750Y-73431250D01*
D12*
X54323750Y-65411250D02*
X64373750Y-65411250D01*
X64373750Y-71381250D01*
X54323750Y-71381250D01*
X54323750Y-65411250D01*
X54323750Y-77351250D02*
X64373750Y-77351250D01*
X64373750Y-83481250D01*
X54323750Y-83481250D01*
X54323750Y-77351250D01*
D11*
X64593750Y-75611250D02*
X64593750Y-77451250D01*
X72583750Y-69211250D02*
X71083750Y-69211250D01*
D13*
X65126938Y-74583559D02*
X64841224Y-74583559D01*
X64984081Y-74583559D02*
X64984081Y-74083559D01*
X64984081Y-74083559D02*
X64936462Y-74154988D01*
X64936462Y-74154988D02*
X64888843Y-74202607D01*
X64888843Y-74202607D02*
X64841224Y-74226416D01*
X65269795Y-74083559D02*
X65436461Y-74583559D01*
X65436461Y-74583559D02*
X65603128Y-74083559D01*
X65745985Y-74131178D02*
X65769794Y-74107369D01*
X65769794Y-74107369D02*
X65817413Y-74083559D01*
X65817413Y-74083559D02*
X65936461Y-74083559D01*
X65936461Y-74083559D02*
X65984080Y-74107369D01*
X65984080Y-74107369D02*
X66007889Y-74131178D01*
X66007889Y-74131178D02*
X66031699Y-74178797D01*
X66031699Y-74178797D02*
X66031699Y-74226416D01*
X66031699Y-74226416D02*
X66007889Y-74297845D01*
X66007889Y-74297845D02*
X65722175Y-74583559D01*
X65722175Y-74583559D02*
X66031699Y-74583559D01*
D14*
X55401005Y-60681069D02*
X55591481Y-60681069D01*
X55591481Y-60681069D02*
X55686719Y-60728688D01*
X55686719Y-60728688D02*
X55781957Y-60823926D01*
X55781957Y-60823926D02*
X55829576Y-61014402D01*
X55829576Y-61014402D02*
X55829576Y-61347735D01*
X55829576Y-61347735D02*
X55781957Y-61538211D01*
X55781957Y-61538211D02*
X55686719Y-61633450D01*
X55686719Y-61633450D02*
X55591481Y-61681069D01*
X55591481Y-61681069D02*
X55401005Y-61681069D01*
X55401005Y-61681069D02*
X55305767Y-61633450D01*
X55305767Y-61633450D02*
X55210529Y-61538211D01*
X55210529Y-61538211D02*
X55162910Y-61347735D01*
X55162910Y-61347735D02*
X55162910Y-61014402D01*
X55162910Y-61014402D02*
X55210529Y-60823926D01*
X55210529Y-60823926D02*
X55305767Y-60728688D01*
X55305767Y-60728688D02*
X55401005Y-60681069D01*
X56115291Y-60681069D02*
X56448624Y-61681069D01*
X56448624Y-61681069D02*
X56781957Y-60681069D01*
X57067672Y-60776307D02*
X57115291Y-60728688D01*
X57115291Y-60728688D02*
X57210529Y-60681069D01*
X57210529Y-60681069D02*
X57448624Y-60681069D01*
X57448624Y-60681069D02*
X57543862Y-60728688D01*
X57543862Y-60728688D02*
X57591481Y-60776307D01*
X57591481Y-60776307D02*
X57639100Y-60871545D01*
X57639100Y-60871545D02*
X57639100Y-60966783D01*
X57639100Y-60966783D02*
X57591481Y-61109640D01*
X57591481Y-61109640D02*
X57020053Y-61681069D01*
X57020053Y-61681069D02*
X57639100Y-61681069D01*
X58496243Y-61014402D02*
X58496243Y-61681069D01*
X58258148Y-60633450D02*
X58020053Y-61347735D01*
X58020053Y-61347735D02*
X58639100Y-61347735D01*
X59020053Y-61300116D02*
X59781958Y-61300116D01*
X60829576Y-61681069D02*
X60496243Y-61204878D01*
X60258148Y-61681069D02*
X60258148Y-60681069D01*
X60258148Y-60681069D02*
X60639100Y-60681069D01*
X60639100Y-60681069D02*
X60734338Y-60728688D01*
X60734338Y-60728688D02*
X60781957Y-60776307D01*
X60781957Y-60776307D02*
X60829576Y-60871545D01*
X60829576Y-60871545D02*
X60829576Y-61014402D01*
X60829576Y-61014402D02*
X60781957Y-61109640D01*
X60781957Y-61109640D02*
X60734338Y-61157259D01*
X60734338Y-61157259D02*
X60639100Y-61204878D01*
X60639100Y-61204878D02*
X60258148Y-61204878D01*
X61115291Y-60681069D02*
X61448624Y-61681069D01*
X61448624Y-61681069D02*
X61781957Y-60681069D01*
X61877196Y-61776307D02*
X62639100Y-61776307D01*
X62734339Y-60681069D02*
X63067672Y-61681069D01*
X63067672Y-61681069D02*
X63401005Y-60681069D01*
X64258148Y-61681069D02*
X63686720Y-61681069D01*
X63972434Y-61681069D02*
X63972434Y-60681069D01*
X63972434Y-60681069D02*
X63877196Y-60823926D01*
X63877196Y-60823926D02*
X63781958Y-60919164D01*
X63781958Y-60919164D02*
X63686720Y-60966783D01*
X64686720Y-61585830D02*
X64734339Y-61633450D01*
X64734339Y-61633450D02*
X64686720Y-61681069D01*
X64686720Y-61681069D02*
X64639101Y-61633450D01*
X64639101Y-61633450D02*
X64686720Y-61585830D01*
X64686720Y-61585830D02*
X64686720Y-61681069D01*
X65353386Y-60681069D02*
X65448624Y-60681069D01*
X65448624Y-60681069D02*
X65543862Y-60728688D01*
X65543862Y-60728688D02*
X65591481Y-60776307D01*
X65591481Y-60776307D02*
X65639100Y-60871545D01*
X65639100Y-60871545D02*
X65686719Y-61062021D01*
X65686719Y-61062021D02*
X65686719Y-61300116D01*
X65686719Y-61300116D02*
X65639100Y-61490592D01*
X65639100Y-61490592D02*
X65591481Y-61585830D01*
X65591481Y-61585830D02*
X65543862Y-61633450D01*
X65543862Y-61633450D02*
X65448624Y-61681069D01*
X65448624Y-61681069D02*
X65353386Y-61681069D01*
X65353386Y-61681069D02*
X65258148Y-61633450D01*
X65258148Y-61633450D02*
X65210529Y-61585830D01*
X65210529Y-61585830D02*
X65162910Y-61490592D01*
X65162910Y-61490592D02*
X65115291Y-61300116D01*
X65115291Y-61300116D02*
X65115291Y-61062021D01*
X65115291Y-61062021D02*
X65162910Y-60871545D01*
X65162910Y-60871545D02*
X65210529Y-60776307D01*
X65210529Y-60776307D02*
X65258148Y-60728688D01*
X65258148Y-60728688D02*
X65353386Y-60681069D01*
D13*
X71376938Y-74097369D02*
X71329319Y-74073559D01*
X71329319Y-74073559D02*
X71257890Y-74073559D01*
X71257890Y-74073559D02*
X71186462Y-74097369D01*
X71186462Y-74097369D02*
X71138843Y-74144988D01*
X71138843Y-74144988D02*
X71115033Y-74192607D01*
X71115033Y-74192607D02*
X71091224Y-74287845D01*
X71091224Y-74287845D02*
X71091224Y-74359273D01*
X71091224Y-74359273D02*
X71115033Y-74454511D01*
X71115033Y-74454511D02*
X71138843Y-74502130D01*
X71138843Y-74502130D02*
X71186462Y-74549750D01*
X71186462Y-74549750D02*
X71257890Y-74573559D01*
X71257890Y-74573559D02*
X71305509Y-74573559D01*
X71305509Y-74573559D02*
X71376938Y-74549750D01*
X71376938Y-74549750D02*
X71400747Y-74525940D01*
X71400747Y-74525940D02*
X71400747Y-74359273D01*
X71400747Y-74359273D02*
X71305509Y-74359273D01*
X71615033Y-74573559D02*
X71615033Y-74073559D01*
X71615033Y-74073559D02*
X71900747Y-74573559D01*
X71900747Y-74573559D02*
X71900747Y-74073559D01*
X72138843Y-74573559D02*
X72138843Y-74073559D01*
X72138843Y-74073559D02*
X72257891Y-74073559D01*
X72257891Y-74073559D02*
X72329319Y-74097369D01*
X72329319Y-74097369D02*
X72376938Y-74144988D01*
X72376938Y-74144988D02*
X72400748Y-74192607D01*
X72400748Y-74192607D02*
X72424557Y-74287845D01*
X72424557Y-74287845D02*
X72424557Y-74359273D01*
X72424557Y-74359273D02*
X72400748Y-74454511D01*
X72400748Y-74454511D02*
X72376938Y-74502130D01*
X72376938Y-74502130D02*
X72329319Y-74549750D01*
X72329319Y-74549750D02*
X72257891Y-74573559D01*
X72257891Y-74573559D02*
X72138843Y-74573559D01*
X55026059Y-70698061D02*
X55026059Y-70983775D01*
X55026059Y-70840918D02*
X54526059Y-70840918D01*
X54526059Y-70840918D02*
X54597488Y-70888537D01*
X54597488Y-70888537D02*
X54645107Y-70936156D01*
X54645107Y-70936156D02*
X54668916Y-70983775D01*
X54526059Y-70555204D02*
X55026059Y-70388538D01*
X55026059Y-70388538D02*
X54526059Y-70221871D01*
X54740345Y-69983776D02*
X54716535Y-70031395D01*
X54716535Y-70031395D02*
X54692726Y-70055205D01*
X54692726Y-70055205D02*
X54645107Y-70079014D01*
X54645107Y-70079014D02*
X54621297Y-70079014D01*
X54621297Y-70079014D02*
X54573678Y-70055205D01*
X54573678Y-70055205D02*
X54549869Y-70031395D01*
X54549869Y-70031395D02*
X54526059Y-69983776D01*
X54526059Y-69983776D02*
X54526059Y-69888538D01*
X54526059Y-69888538D02*
X54549869Y-69840919D01*
X54549869Y-69840919D02*
X54573678Y-69817110D01*
X54573678Y-69817110D02*
X54621297Y-69793300D01*
X54621297Y-69793300D02*
X54645107Y-69793300D01*
X54645107Y-69793300D02*
X54692726Y-69817110D01*
X54692726Y-69817110D02*
X54716535Y-69840919D01*
X54716535Y-69840919D02*
X54740345Y-69888538D01*
X54740345Y-69888538D02*
X54740345Y-69983776D01*
X54740345Y-69983776D02*
X54764154Y-70031395D01*
X54764154Y-70031395D02*
X54787964Y-70055205D01*
X54787964Y-70055205D02*
X54835583Y-70079014D01*
X54835583Y-70079014D02*
X54930821Y-70079014D01*
X54930821Y-70079014D02*
X54978440Y-70055205D01*
X54978440Y-70055205D02*
X55002250Y-70031395D01*
X55002250Y-70031395D02*
X55026059Y-69983776D01*
X55026059Y-69983776D02*
X55026059Y-69888538D01*
X55026059Y-69888538D02*
X55002250Y-69840919D01*
X55002250Y-69840919D02*
X54978440Y-69817110D01*
X54978440Y-69817110D02*
X54930821Y-69793300D01*
X54930821Y-69793300D02*
X54835583Y-69793300D01*
X54835583Y-69793300D02*
X54787964Y-69817110D01*
X54787964Y-69817110D02*
X54764154Y-69840919D01*
X54764154Y-69840919D02*
X54740345Y-69888538D01*
X55073678Y-69698063D02*
X55073678Y-69317110D01*
X55026059Y-68912349D02*
X54787964Y-69079015D01*
X55026059Y-69198063D02*
X54526059Y-69198063D01*
X54526059Y-69198063D02*
X54526059Y-69007587D01*
X54526059Y-69007587D02*
X54549869Y-68959968D01*
X54549869Y-68959968D02*
X54573678Y-68936158D01*
X54573678Y-68936158D02*
X54621297Y-68912349D01*
X54621297Y-68912349D02*
X54692726Y-68912349D01*
X54692726Y-68912349D02*
X54740345Y-68936158D01*
X54740345Y-68936158D02*
X54764154Y-68959968D01*
X54764154Y-68959968D02*
X54787964Y-69007587D01*
X54787964Y-69007587D02*
X54787964Y-69198063D01*
X54764154Y-68698063D02*
X54764154Y-68531396D01*
X55026059Y-68459968D02*
X55026059Y-68698063D01*
X55026059Y-68698063D02*
X54526059Y-68698063D01*
X54526059Y-68698063D02*
X54526059Y-68459968D01*
X54549869Y-67983777D02*
X54526059Y-68031396D01*
X54526059Y-68031396D02*
X54526059Y-68102825D01*
X54526059Y-68102825D02*
X54549869Y-68174253D01*
X54549869Y-68174253D02*
X54597488Y-68221872D01*
X54597488Y-68221872D02*
X54645107Y-68245682D01*
X54645107Y-68245682D02*
X54740345Y-68269491D01*
X54740345Y-68269491D02*
X54811773Y-68269491D01*
X54811773Y-68269491D02*
X54907011Y-68245682D01*
X54907011Y-68245682D02*
X54954630Y-68221872D01*
X54954630Y-68221872D02*
X55002250Y-68174253D01*
X55002250Y-68174253D02*
X55026059Y-68102825D01*
X55026059Y-68102825D02*
X55026059Y-68055206D01*
X55026059Y-68055206D02*
X55002250Y-67983777D01*
X55002250Y-67983777D02*
X54978440Y-67959968D01*
X54978440Y-67959968D02*
X54811773Y-67959968D01*
X54811773Y-67959968D02*
X54811773Y-68055206D01*
X64787414Y-70023559D02*
X65096938Y-70023559D01*
X65096938Y-70023559D02*
X64930271Y-70214035D01*
X64930271Y-70214035D02*
X65001700Y-70214035D01*
X65001700Y-70214035D02*
X65049319Y-70237845D01*
X65049319Y-70237845D02*
X65073128Y-70261654D01*
X65073128Y-70261654D02*
X65096938Y-70309273D01*
X65096938Y-70309273D02*
X65096938Y-70428321D01*
X65096938Y-70428321D02*
X65073128Y-70475940D01*
X65073128Y-70475940D02*
X65049319Y-70499750D01*
X65049319Y-70499750D02*
X65001700Y-70523559D01*
X65001700Y-70523559D02*
X64858843Y-70523559D01*
X64858843Y-70523559D02*
X64811224Y-70499750D01*
X64811224Y-70499750D02*
X64787414Y-70475940D01*
X65239795Y-70023559D02*
X65406461Y-70523559D01*
X65406461Y-70523559D02*
X65573128Y-70023559D01*
X65692175Y-70023559D02*
X66001699Y-70023559D01*
X66001699Y-70023559D02*
X65835032Y-70214035D01*
X65835032Y-70214035D02*
X65906461Y-70214035D01*
X65906461Y-70214035D02*
X65954080Y-70237845D01*
X65954080Y-70237845D02*
X65977889Y-70261654D01*
X65977889Y-70261654D02*
X66001699Y-70309273D01*
X66001699Y-70309273D02*
X66001699Y-70428321D01*
X66001699Y-70428321D02*
X65977889Y-70475940D01*
X65977889Y-70475940D02*
X65954080Y-70499750D01*
X65954080Y-70499750D02*
X65906461Y-70523559D01*
X65906461Y-70523559D02*
X65763604Y-70523559D01*
X65763604Y-70523559D02*
X65715985Y-70499750D01*
X65715985Y-70499750D02*
X65692175Y-70475940D01*
X54543678Y-82983775D02*
X54519869Y-82959966D01*
X54519869Y-82959966D02*
X54496059Y-82912347D01*
X54496059Y-82912347D02*
X54496059Y-82793299D01*
X54496059Y-82793299D02*
X54519869Y-82745680D01*
X54519869Y-82745680D02*
X54543678Y-82721871D01*
X54543678Y-82721871D02*
X54591297Y-82698061D01*
X54591297Y-82698061D02*
X54638916Y-82698061D01*
X54638916Y-82698061D02*
X54710345Y-82721871D01*
X54710345Y-82721871D02*
X54996059Y-83007585D01*
X54996059Y-83007585D02*
X54996059Y-82698061D01*
X54496059Y-82555204D02*
X54996059Y-82388538D01*
X54996059Y-82388538D02*
X54496059Y-82221871D01*
X54710345Y-81983776D02*
X54686535Y-82031395D01*
X54686535Y-82031395D02*
X54662726Y-82055205D01*
X54662726Y-82055205D02*
X54615107Y-82079014D01*
X54615107Y-82079014D02*
X54591297Y-82079014D01*
X54591297Y-82079014D02*
X54543678Y-82055205D01*
X54543678Y-82055205D02*
X54519869Y-82031395D01*
X54519869Y-82031395D02*
X54496059Y-81983776D01*
X54496059Y-81983776D02*
X54496059Y-81888538D01*
X54496059Y-81888538D02*
X54519869Y-81840919D01*
X54519869Y-81840919D02*
X54543678Y-81817110D01*
X54543678Y-81817110D02*
X54591297Y-81793300D01*
X54591297Y-81793300D02*
X54615107Y-81793300D01*
X54615107Y-81793300D02*
X54662726Y-81817110D01*
X54662726Y-81817110D02*
X54686535Y-81840919D01*
X54686535Y-81840919D02*
X54710345Y-81888538D01*
X54710345Y-81888538D02*
X54710345Y-81983776D01*
X54710345Y-81983776D02*
X54734154Y-82031395D01*
X54734154Y-82031395D02*
X54757964Y-82055205D01*
X54757964Y-82055205D02*
X54805583Y-82079014D01*
X54805583Y-82079014D02*
X54900821Y-82079014D01*
X54900821Y-82079014D02*
X54948440Y-82055205D01*
X54948440Y-82055205D02*
X54972250Y-82031395D01*
X54972250Y-82031395D02*
X54996059Y-81983776D01*
X54996059Y-81983776D02*
X54996059Y-81888538D01*
X54996059Y-81888538D02*
X54972250Y-81840919D01*
X54972250Y-81840919D02*
X54948440Y-81817110D01*
X54948440Y-81817110D02*
X54900821Y-81793300D01*
X54900821Y-81793300D02*
X54805583Y-81793300D01*
X54805583Y-81793300D02*
X54757964Y-81817110D01*
X54757964Y-81817110D02*
X54734154Y-81840919D01*
X54734154Y-81840919D02*
X54710345Y-81888538D01*
X55043678Y-81698063D02*
X55043678Y-81317110D01*
X54996059Y-80912349D02*
X54757964Y-81079015D01*
X54996059Y-81198063D02*
X54496059Y-81198063D01*
X54496059Y-81198063D02*
X54496059Y-81007587D01*
X54496059Y-81007587D02*
X54519869Y-80959968D01*
X54519869Y-80959968D02*
X54543678Y-80936158D01*
X54543678Y-80936158D02*
X54591297Y-80912349D01*
X54591297Y-80912349D02*
X54662726Y-80912349D01*
X54662726Y-80912349D02*
X54710345Y-80936158D01*
X54710345Y-80936158D02*
X54734154Y-80959968D01*
X54734154Y-80959968D02*
X54757964Y-81007587D01*
X54757964Y-81007587D02*
X54757964Y-81198063D01*
X54734154Y-80698063D02*
X54734154Y-80531396D01*
X54996059Y-80459968D02*
X54996059Y-80698063D01*
X54996059Y-80698063D02*
X54496059Y-80698063D01*
X54496059Y-80698063D02*
X54496059Y-80459968D01*
X54519869Y-79983777D02*
X54496059Y-80031396D01*
X54496059Y-80031396D02*
X54496059Y-80102825D01*
X54496059Y-80102825D02*
X54519869Y-80174253D01*
X54519869Y-80174253D02*
X54567488Y-80221872D01*
X54567488Y-80221872D02*
X54615107Y-80245682D01*
X54615107Y-80245682D02*
X54710345Y-80269491D01*
X54710345Y-80269491D02*
X54781773Y-80269491D01*
X54781773Y-80269491D02*
X54877011Y-80245682D01*
X54877011Y-80245682D02*
X54924630Y-80221872D01*
X54924630Y-80221872D02*
X54972250Y-80174253D01*
X54972250Y-80174253D02*
X54996059Y-80102825D01*
X54996059Y-80102825D02*
X54996059Y-80055206D01*
X54996059Y-80055206D02*
X54972250Y-79983777D01*
X54972250Y-79983777D02*
X54948440Y-79959968D01*
X54948440Y-79959968D02*
X54781773Y-79959968D01*
X54781773Y-79959968D02*
X54781773Y-80055206D01*
X71356938Y-72067369D02*
X71309319Y-72043559D01*
X71309319Y-72043559D02*
X71237890Y-72043559D01*
X71237890Y-72043559D02*
X71166462Y-72067369D01*
X71166462Y-72067369D02*
X71118843Y-72114988D01*
X71118843Y-72114988D02*
X71095033Y-72162607D01*
X71095033Y-72162607D02*
X71071224Y-72257845D01*
X71071224Y-72257845D02*
X71071224Y-72329273D01*
X71071224Y-72329273D02*
X71095033Y-72424511D01*
X71095033Y-72424511D02*
X71118843Y-72472130D01*
X71118843Y-72472130D02*
X71166462Y-72519750D01*
X71166462Y-72519750D02*
X71237890Y-72543559D01*
X71237890Y-72543559D02*
X71285509Y-72543559D01*
X71285509Y-72543559D02*
X71356938Y-72519750D01*
X71356938Y-72519750D02*
X71380747Y-72495940D01*
X71380747Y-72495940D02*
X71380747Y-72329273D01*
X71380747Y-72329273D02*
X71285509Y-72329273D01*
X71595033Y-72543559D02*
X71595033Y-72043559D01*
X71595033Y-72043559D02*
X71880747Y-72543559D01*
X71880747Y-72543559D02*
X71880747Y-72043559D01*
X72118843Y-72543559D02*
X72118843Y-72043559D01*
X72118843Y-72043559D02*
X72237891Y-72043559D01*
X72237891Y-72043559D02*
X72309319Y-72067369D01*
X72309319Y-72067369D02*
X72356938Y-72114988D01*
X72356938Y-72114988D02*
X72380748Y-72162607D01*
X72380748Y-72162607D02*
X72404557Y-72257845D01*
X72404557Y-72257845D02*
X72404557Y-72329273D01*
X72404557Y-72329273D02*
X72380748Y-72424511D01*
X72380748Y-72424511D02*
X72356938Y-72472130D01*
X72356938Y-72472130D02*
X72309319Y-72519750D01*
X72309319Y-72519750D02*
X72237891Y-72543559D01*
X72237891Y-72543559D02*
X72118843Y-72543559D01*
X64851224Y-76211178D02*
X64875033Y-76187369D01*
X64875033Y-76187369D02*
X64922652Y-76163559D01*
X64922652Y-76163559D02*
X65041700Y-76163559D01*
X65041700Y-76163559D02*
X65089319Y-76187369D01*
X65089319Y-76187369D02*
X65113128Y-76211178D01*
X65113128Y-76211178D02*
X65136938Y-76258797D01*
X65136938Y-76258797D02*
X65136938Y-76306416D01*
X65136938Y-76306416D02*
X65113128Y-76377845D01*
X65113128Y-76377845D02*
X64827414Y-76663559D01*
X64827414Y-76663559D02*
X65136938Y-76663559D01*
X65279795Y-76163559D02*
X65446461Y-76663559D01*
X65446461Y-76663559D02*
X65613128Y-76163559D01*
X65851223Y-76377845D02*
X65803604Y-76354035D01*
X65803604Y-76354035D02*
X65779794Y-76330226D01*
X65779794Y-76330226D02*
X65755985Y-76282607D01*
X65755985Y-76282607D02*
X65755985Y-76258797D01*
X65755985Y-76258797D02*
X65779794Y-76211178D01*
X65779794Y-76211178D02*
X65803604Y-76187369D01*
X65803604Y-76187369D02*
X65851223Y-76163559D01*
X65851223Y-76163559D02*
X65946461Y-76163559D01*
X65946461Y-76163559D02*
X65994080Y-76187369D01*
X65994080Y-76187369D02*
X66017889Y-76211178D01*
X66017889Y-76211178D02*
X66041699Y-76258797D01*
X66041699Y-76258797D02*
X66041699Y-76282607D01*
X66041699Y-76282607D02*
X66017889Y-76330226D01*
X66017889Y-76330226D02*
X65994080Y-76354035D01*
X65994080Y-76354035D02*
X65946461Y-76377845D01*
X65946461Y-76377845D02*
X65851223Y-76377845D01*
X65851223Y-76377845D02*
X65803604Y-76401654D01*
X65803604Y-76401654D02*
X65779794Y-76425464D01*
X65779794Y-76425464D02*
X65755985Y-76473083D01*
X65755985Y-76473083D02*
X65755985Y-76568321D01*
X65755985Y-76568321D02*
X65779794Y-76615940D01*
X65779794Y-76615940D02*
X65803604Y-76639750D01*
X65803604Y-76639750D02*
X65851223Y-76663559D01*
X65851223Y-76663559D02*
X65946461Y-76663559D01*
X65946461Y-76663559D02*
X65994080Y-76639750D01*
X65994080Y-76639750D02*
X66017889Y-76615940D01*
X66017889Y-76615940D02*
X66041699Y-76568321D01*
X66041699Y-76568321D02*
X66041699Y-76473083D01*
X66041699Y-76473083D02*
X66017889Y-76425464D01*
X66017889Y-76425464D02*
X65994080Y-76401654D01*
X65994080Y-76401654D02*
X65946461Y-76377845D01*
X65066938Y-72563559D02*
X64781224Y-72563559D01*
X64924081Y-72563559D02*
X64924081Y-72063559D01*
X64924081Y-72063559D02*
X64876462Y-72134988D01*
X64876462Y-72134988D02*
X64828843Y-72182607D01*
X64828843Y-72182607D02*
X64781224Y-72206416D01*
X65209795Y-72063559D02*
X65376461Y-72563559D01*
X65376461Y-72563559D02*
X65543128Y-72063559D01*
X65781223Y-72277845D02*
X65733604Y-72254035D01*
X65733604Y-72254035D02*
X65709794Y-72230226D01*
X65709794Y-72230226D02*
X65685985Y-72182607D01*
X65685985Y-72182607D02*
X65685985Y-72158797D01*
X65685985Y-72158797D02*
X65709794Y-72111178D01*
X65709794Y-72111178D02*
X65733604Y-72087369D01*
X65733604Y-72087369D02*
X65781223Y-72063559D01*
X65781223Y-72063559D02*
X65876461Y-72063559D01*
X65876461Y-72063559D02*
X65924080Y-72087369D01*
X65924080Y-72087369D02*
X65947889Y-72111178D01*
X65947889Y-72111178D02*
X65971699Y-72158797D01*
X65971699Y-72158797D02*
X65971699Y-72182607D01*
X65971699Y-72182607D02*
X65947889Y-72230226D01*
X65947889Y-72230226D02*
X65924080Y-72254035D01*
X65924080Y-72254035D02*
X65876461Y-72277845D01*
X65876461Y-72277845D02*
X65781223Y-72277845D01*
X65781223Y-72277845D02*
X65733604Y-72301654D01*
X65733604Y-72301654D02*
X65709794Y-72325464D01*
X65709794Y-72325464D02*
X65685985Y-72373083D01*
X65685985Y-72373083D02*
X65685985Y-72468321D01*
X65685985Y-72468321D02*
X65709794Y-72515940D01*
X65709794Y-72515940D02*
X65733604Y-72539750D01*
X65733604Y-72539750D02*
X65781223Y-72563559D01*
X65781223Y-72563559D02*
X65876461Y-72563559D01*
X65876461Y-72563559D02*
X65924080Y-72539750D01*
X65924080Y-72539750D02*
X65947889Y-72515940D01*
X65947889Y-72515940D02*
X65971699Y-72468321D01*
X65971699Y-72468321D02*
X65971699Y-72373083D01*
X65971699Y-72373083D02*
X65947889Y-72325464D01*
X65947889Y-72325464D02*
X65924080Y-72301654D01*
X65924080Y-72301654D02*
X65876461Y-72277845D01*
X71356938Y-76187369D02*
X71309319Y-76163559D01*
X71309319Y-76163559D02*
X71237890Y-76163559D01*
X71237890Y-76163559D02*
X71166462Y-76187369D01*
X71166462Y-76187369D02*
X71118843Y-76234988D01*
X71118843Y-76234988D02*
X71095033Y-76282607D01*
X71095033Y-76282607D02*
X71071224Y-76377845D01*
X71071224Y-76377845D02*
X71071224Y-76449273D01*
X71071224Y-76449273D02*
X71095033Y-76544511D01*
X71095033Y-76544511D02*
X71118843Y-76592130D01*
X71118843Y-76592130D02*
X71166462Y-76639750D01*
X71166462Y-76639750D02*
X71237890Y-76663559D01*
X71237890Y-76663559D02*
X71285509Y-76663559D01*
X71285509Y-76663559D02*
X71356938Y-76639750D01*
X71356938Y-76639750D02*
X71380747Y-76615940D01*
X71380747Y-76615940D02*
X71380747Y-76449273D01*
X71380747Y-76449273D02*
X71285509Y-76449273D01*
X71595033Y-76663559D02*
X71595033Y-76163559D01*
X71595033Y-76163559D02*
X71880747Y-76663559D01*
X71880747Y-76663559D02*
X71880747Y-76163559D01*
X72118843Y-76663559D02*
X72118843Y-76163559D01*
X72118843Y-76163559D02*
X72237891Y-76163559D01*
X72237891Y-76163559D02*
X72309319Y-76187369D01*
X72309319Y-76187369D02*
X72356938Y-76234988D01*
X72356938Y-76234988D02*
X72380748Y-76282607D01*
X72380748Y-76282607D02*
X72404557Y-76377845D01*
X72404557Y-76377845D02*
X72404557Y-76449273D01*
X72404557Y-76449273D02*
X72380748Y-76544511D01*
X72380748Y-76544511D02*
X72356938Y-76592130D01*
X72356938Y-76592130D02*
X72309319Y-76639750D01*
X72309319Y-76639750D02*
X72237891Y-76663559D01*
X72237891Y-76663559D02*
X72118843Y-76663559D01*
X55026059Y-76548061D02*
X55026059Y-76833775D01*
X55026059Y-76690918D02*
X54526059Y-76690918D01*
X54526059Y-76690918D02*
X54597488Y-76738537D01*
X54597488Y-76738537D02*
X54645107Y-76786156D01*
X54645107Y-76786156D02*
X54668916Y-76833775D01*
X54526059Y-76405204D02*
X55026059Y-76238538D01*
X55026059Y-76238538D02*
X54526059Y-76071871D01*
X54573678Y-75929014D02*
X54549869Y-75905205D01*
X54549869Y-75905205D02*
X54526059Y-75857586D01*
X54526059Y-75857586D02*
X54526059Y-75738538D01*
X54526059Y-75738538D02*
X54549869Y-75690919D01*
X54549869Y-75690919D02*
X54573678Y-75667110D01*
X54573678Y-75667110D02*
X54621297Y-75643300D01*
X54621297Y-75643300D02*
X54668916Y-75643300D01*
X54668916Y-75643300D02*
X54740345Y-75667110D01*
X54740345Y-75667110D02*
X55026059Y-75952824D01*
X55026059Y-75952824D02*
X55026059Y-75643300D01*
X55073678Y-75548063D02*
X55073678Y-75167110D01*
X55026059Y-74762349D02*
X54787964Y-74929015D01*
X55026059Y-75048063D02*
X54526059Y-75048063D01*
X54526059Y-75048063D02*
X54526059Y-74857587D01*
X54526059Y-74857587D02*
X54549869Y-74809968D01*
X54549869Y-74809968D02*
X54573678Y-74786158D01*
X54573678Y-74786158D02*
X54621297Y-74762349D01*
X54621297Y-74762349D02*
X54692726Y-74762349D01*
X54692726Y-74762349D02*
X54740345Y-74786158D01*
X54740345Y-74786158D02*
X54764154Y-74809968D01*
X54764154Y-74809968D02*
X54787964Y-74857587D01*
X54787964Y-74857587D02*
X54787964Y-75048063D01*
X54764154Y-74548063D02*
X54764154Y-74381396D01*
X55026059Y-74309968D02*
X55026059Y-74548063D01*
X55026059Y-74548063D02*
X54526059Y-74548063D01*
X54526059Y-74548063D02*
X54526059Y-74309968D01*
X54549869Y-73833777D02*
X54526059Y-73881396D01*
X54526059Y-73881396D02*
X54526059Y-73952825D01*
X54526059Y-73952825D02*
X54549869Y-74024253D01*
X54549869Y-74024253D02*
X54597488Y-74071872D01*
X54597488Y-74071872D02*
X54645107Y-74095682D01*
X54645107Y-74095682D02*
X54740345Y-74119491D01*
X54740345Y-74119491D02*
X54811773Y-74119491D01*
X54811773Y-74119491D02*
X54907011Y-74095682D01*
X54907011Y-74095682D02*
X54954630Y-74071872D01*
X54954630Y-74071872D02*
X55002250Y-74024253D01*
X55002250Y-74024253D02*
X55026059Y-73952825D01*
X55026059Y-73952825D02*
X55026059Y-73905206D01*
X55026059Y-73905206D02*
X55002250Y-73833777D01*
X55002250Y-73833777D02*
X54978440Y-73809968D01*
X54978440Y-73809968D02*
X54811773Y-73809968D01*
X54811773Y-73809968D02*
X54811773Y-73905206D01*
X71366938Y-69877369D02*
X71319319Y-69853559D01*
X71319319Y-69853559D02*
X71247890Y-69853559D01*
X71247890Y-69853559D02*
X71176462Y-69877369D01*
X71176462Y-69877369D02*
X71128843Y-69924988D01*
X71128843Y-69924988D02*
X71105033Y-69972607D01*
X71105033Y-69972607D02*
X71081224Y-70067845D01*
X71081224Y-70067845D02*
X71081224Y-70139273D01*
X71081224Y-70139273D02*
X71105033Y-70234511D01*
X71105033Y-70234511D02*
X71128843Y-70282130D01*
X71128843Y-70282130D02*
X71176462Y-70329750D01*
X71176462Y-70329750D02*
X71247890Y-70353559D01*
X71247890Y-70353559D02*
X71295509Y-70353559D01*
X71295509Y-70353559D02*
X71366938Y-70329750D01*
X71366938Y-70329750D02*
X71390747Y-70305940D01*
X71390747Y-70305940D02*
X71390747Y-70139273D01*
X71390747Y-70139273D02*
X71295509Y-70139273D01*
X71605033Y-70353559D02*
X71605033Y-69853559D01*
X71605033Y-69853559D02*
X71890747Y-70353559D01*
X71890747Y-70353559D02*
X71890747Y-69853559D01*
X72128843Y-70353559D02*
X72128843Y-69853559D01*
X72128843Y-69853559D02*
X72247891Y-69853559D01*
X72247891Y-69853559D02*
X72319319Y-69877369D01*
X72319319Y-69877369D02*
X72366938Y-69924988D01*
X72366938Y-69924988D02*
X72390748Y-69972607D01*
X72390748Y-69972607D02*
X72414557Y-70067845D01*
X72414557Y-70067845D02*
X72414557Y-70139273D01*
X72414557Y-70139273D02*
X72390748Y-70234511D01*
X72390748Y-70234511D02*
X72366938Y-70282130D01*
X72366938Y-70282130D02*
X72319319Y-70329750D01*
X72319319Y-70329750D02*
X72247891Y-70353559D01*
X72247891Y-70353559D02*
X72128843Y-70353559D01*
D10*
X60859859Y-75932202D02*
X61264621Y-75932202D01*
X61264621Y-75932202D02*
X61312240Y-75908392D01*
X61312240Y-75908392D02*
X61336050Y-75884583D01*
X61336050Y-75884583D02*
X61359859Y-75836964D01*
X61359859Y-75836964D02*
X61359859Y-75741726D01*
X61359859Y-75741726D02*
X61336050Y-75694107D01*
X61336050Y-75694107D02*
X61312240Y-75670297D01*
X61312240Y-75670297D02*
X61264621Y-75646488D01*
X61264621Y-75646488D02*
X60859859Y-75646488D01*
X61359859Y-75146487D02*
X61359859Y-75432201D01*
X61359859Y-75289344D02*
X60859859Y-75289344D01*
X60859859Y-75289344D02*
X60931288Y-75336963D01*
X60931288Y-75336963D02*
X60978907Y-75384582D01*
X60978907Y-75384582D02*
X61002716Y-75432201D01*
X58372240Y-78494583D02*
X58396050Y-78518392D01*
X58396050Y-78518392D02*
X58419859Y-78589821D01*
X58419859Y-78589821D02*
X58419859Y-78637440D01*
X58419859Y-78637440D02*
X58396050Y-78708868D01*
X58396050Y-78708868D02*
X58348430Y-78756487D01*
X58348430Y-78756487D02*
X58300811Y-78780297D01*
X58300811Y-78780297D02*
X58205573Y-78804106D01*
X58205573Y-78804106D02*
X58134145Y-78804106D01*
X58134145Y-78804106D02*
X58038907Y-78780297D01*
X58038907Y-78780297D02*
X57991288Y-78756487D01*
X57991288Y-78756487D02*
X57943669Y-78708868D01*
X57943669Y-78708868D02*
X57919859Y-78637440D01*
X57919859Y-78637440D02*
X57919859Y-78589821D01*
X57919859Y-78589821D02*
X57943669Y-78518392D01*
X57943669Y-78518392D02*
X57967478Y-78494583D01*
X57919859Y-78042202D02*
X57919859Y-78280297D01*
X57919859Y-78280297D02*
X58157954Y-78304106D01*
X58157954Y-78304106D02*
X58134145Y-78280297D01*
X58134145Y-78280297D02*
X58110335Y-78232678D01*
X58110335Y-78232678D02*
X58110335Y-78113630D01*
X58110335Y-78113630D02*
X58134145Y-78066011D01*
X58134145Y-78066011D02*
X58157954Y-78042202D01*
X58157954Y-78042202D02*
X58205573Y-78018392D01*
X58205573Y-78018392D02*
X58324621Y-78018392D01*
X58324621Y-78018392D02*
X58372240Y-78042202D01*
X58372240Y-78042202D02*
X58396050Y-78066011D01*
X58396050Y-78066011D02*
X58419859Y-78113630D01*
X58419859Y-78113630D02*
X58419859Y-78232678D01*
X58419859Y-78232678D02*
X58396050Y-78280297D01*
X58396050Y-78280297D02*
X58372240Y-78304106D01*
X85448988Y-79127359D02*
X85448988Y-79484502D01*
X85448988Y-79484502D02*
X85425179Y-79555930D01*
X85425179Y-79555930D02*
X85377560Y-79603550D01*
X85377560Y-79603550D02*
X85306131Y-79627359D01*
X85306131Y-79627359D02*
X85258512Y-79627359D01*
X85901369Y-79127359D02*
X85806131Y-79127359D01*
X85806131Y-79127359D02*
X85758512Y-79151169D01*
X85758512Y-79151169D02*
X85734702Y-79174978D01*
X85734702Y-79174978D02*
X85687083Y-79246407D01*
X85687083Y-79246407D02*
X85663274Y-79341645D01*
X85663274Y-79341645D02*
X85663274Y-79532121D01*
X85663274Y-79532121D02*
X85687083Y-79579740D01*
X85687083Y-79579740D02*
X85710893Y-79603550D01*
X85710893Y-79603550D02*
X85758512Y-79627359D01*
X85758512Y-79627359D02*
X85853750Y-79627359D01*
X85853750Y-79627359D02*
X85901369Y-79603550D01*
X85901369Y-79603550D02*
X85925178Y-79579740D01*
X85925178Y-79579740D02*
X85948988Y-79532121D01*
X85948988Y-79532121D02*
X85948988Y-79413073D01*
X85948988Y-79413073D02*
X85925178Y-79365454D01*
X85925178Y-79365454D02*
X85901369Y-79341645D01*
X85901369Y-79341645D02*
X85853750Y-79317835D01*
X85853750Y-79317835D02*
X85758512Y-79317835D01*
X85758512Y-79317835D02*
X85710893Y-79341645D01*
X85710893Y-79341645D02*
X85687083Y-79365454D01*
X85687083Y-79365454D02*
X85663274Y-79413073D01*
X86425178Y-79627359D02*
X86139464Y-79627359D01*
X86282321Y-79627359D02*
X86282321Y-79127359D01*
X86282321Y-79127359D02*
X86234702Y-79198788D01*
X86234702Y-79198788D02*
X86187083Y-79246407D01*
X86187083Y-79246407D02*
X86139464Y-79270216D01*
X60769859Y-82022202D02*
X61174621Y-82022202D01*
X61174621Y-82022202D02*
X61222240Y-81998392D01*
X61222240Y-81998392D02*
X61246050Y-81974583D01*
X61246050Y-81974583D02*
X61269859Y-81926964D01*
X61269859Y-81926964D02*
X61269859Y-81831726D01*
X61269859Y-81831726D02*
X61246050Y-81784107D01*
X61246050Y-81784107D02*
X61222240Y-81760297D01*
X61222240Y-81760297D02*
X61174621Y-81736488D01*
X61174621Y-81736488D02*
X60769859Y-81736488D01*
X60769859Y-81546011D02*
X60769859Y-81236487D01*
X60769859Y-81236487D02*
X60960335Y-81403154D01*
X60960335Y-81403154D02*
X60960335Y-81331725D01*
X60960335Y-81331725D02*
X60984145Y-81284106D01*
X60984145Y-81284106D02*
X61007954Y-81260297D01*
X61007954Y-81260297D02*
X61055573Y-81236487D01*
X61055573Y-81236487D02*
X61174621Y-81236487D01*
X61174621Y-81236487D02*
X61222240Y-81260297D01*
X61222240Y-81260297D02*
X61246050Y-81284106D01*
X61246050Y-81284106D02*
X61269859Y-81331725D01*
X61269859Y-81331725D02*
X61269859Y-81474582D01*
X61269859Y-81474582D02*
X61246050Y-81522201D01*
X61246050Y-81522201D02*
X61222240Y-81546011D01*
X58382240Y-72514583D02*
X58406050Y-72538392D01*
X58406050Y-72538392D02*
X58429859Y-72609821D01*
X58429859Y-72609821D02*
X58429859Y-72657440D01*
X58429859Y-72657440D02*
X58406050Y-72728868D01*
X58406050Y-72728868D02*
X58358430Y-72776487D01*
X58358430Y-72776487D02*
X58310811Y-72800297D01*
X58310811Y-72800297D02*
X58215573Y-72824106D01*
X58215573Y-72824106D02*
X58144145Y-72824106D01*
X58144145Y-72824106D02*
X58048907Y-72800297D01*
X58048907Y-72800297D02*
X58001288Y-72776487D01*
X58001288Y-72776487D02*
X57953669Y-72728868D01*
X57953669Y-72728868D02*
X57929859Y-72657440D01*
X57929859Y-72657440D02*
X57929859Y-72609821D01*
X57929859Y-72609821D02*
X57953669Y-72538392D01*
X57953669Y-72538392D02*
X57977478Y-72514583D01*
X58429859Y-72038392D02*
X58429859Y-72324106D01*
X58429859Y-72181249D02*
X57929859Y-72181249D01*
X57929859Y-72181249D02*
X58001288Y-72228868D01*
X58001288Y-72228868D02*
X58048907Y-72276487D01*
X58048907Y-72276487D02*
X58072716Y-72324106D01*
X62772240Y-66624583D02*
X62796050Y-66648392D01*
X62796050Y-66648392D02*
X62819859Y-66719821D01*
X62819859Y-66719821D02*
X62819859Y-66767440D01*
X62819859Y-66767440D02*
X62796050Y-66838868D01*
X62796050Y-66838868D02*
X62748430Y-66886487D01*
X62748430Y-66886487D02*
X62700811Y-66910297D01*
X62700811Y-66910297D02*
X62605573Y-66934106D01*
X62605573Y-66934106D02*
X62534145Y-66934106D01*
X62534145Y-66934106D02*
X62438907Y-66910297D01*
X62438907Y-66910297D02*
X62391288Y-66886487D01*
X62391288Y-66886487D02*
X62343669Y-66838868D01*
X62343669Y-66838868D02*
X62319859Y-66767440D01*
X62319859Y-66767440D02*
X62319859Y-66719821D01*
X62319859Y-66719821D02*
X62343669Y-66648392D01*
X62343669Y-66648392D02*
X62367478Y-66624583D01*
X62486526Y-66196011D02*
X62819859Y-66196011D01*
X62296050Y-66315059D02*
X62653192Y-66434106D01*
X62653192Y-66434106D02*
X62653192Y-66124583D01*
X66288988Y-68177359D02*
X66288988Y-68534502D01*
X66288988Y-68534502D02*
X66265179Y-68605930D01*
X66265179Y-68605930D02*
X66217560Y-68653550D01*
X66217560Y-68653550D02*
X66146131Y-68677359D01*
X66146131Y-68677359D02*
X66098512Y-68677359D01*
X66788988Y-68677359D02*
X66503274Y-68677359D01*
X66646131Y-68677359D02*
X66646131Y-68177359D01*
X66646131Y-68177359D02*
X66598512Y-68248788D01*
X66598512Y-68248788D02*
X66550893Y-68296407D01*
X66550893Y-68296407D02*
X66503274Y-68320216D01*
X67074702Y-68391645D02*
X67027083Y-68367835D01*
X67027083Y-68367835D02*
X67003273Y-68344026D01*
X67003273Y-68344026D02*
X66979464Y-68296407D01*
X66979464Y-68296407D02*
X66979464Y-68272597D01*
X66979464Y-68272597D02*
X67003273Y-68224978D01*
X67003273Y-68224978D02*
X67027083Y-68201169D01*
X67027083Y-68201169D02*
X67074702Y-68177359D01*
X67074702Y-68177359D02*
X67169940Y-68177359D01*
X67169940Y-68177359D02*
X67217559Y-68201169D01*
X67217559Y-68201169D02*
X67241368Y-68224978D01*
X67241368Y-68224978D02*
X67265178Y-68272597D01*
X67265178Y-68272597D02*
X67265178Y-68296407D01*
X67265178Y-68296407D02*
X67241368Y-68344026D01*
X67241368Y-68344026D02*
X67217559Y-68367835D01*
X67217559Y-68367835D02*
X67169940Y-68391645D01*
X67169940Y-68391645D02*
X67074702Y-68391645D01*
X67074702Y-68391645D02*
X67027083Y-68415454D01*
X67027083Y-68415454D02*
X67003273Y-68439264D01*
X67003273Y-68439264D02*
X66979464Y-68486883D01*
X66979464Y-68486883D02*
X66979464Y-68582121D01*
X66979464Y-68582121D02*
X67003273Y-68629740D01*
X67003273Y-68629740D02*
X67027083Y-68653550D01*
X67027083Y-68653550D02*
X67074702Y-68677359D01*
X67074702Y-68677359D02*
X67169940Y-68677359D01*
X67169940Y-68677359D02*
X67217559Y-68653550D01*
X67217559Y-68653550D02*
X67241368Y-68629740D01*
X67241368Y-68629740D02*
X67265178Y-68582121D01*
X67265178Y-68582121D02*
X67265178Y-68486883D01*
X67265178Y-68486883D02*
X67241368Y-68439264D01*
X67241368Y-68439264D02*
X67217559Y-68415454D01*
X67217559Y-68415454D02*
X67169940Y-68391645D01*
X63162321Y-67827359D02*
X62995655Y-67589264D01*
X62876607Y-67827359D02*
X62876607Y-67327359D01*
X62876607Y-67327359D02*
X63067083Y-67327359D01*
X63067083Y-67327359D02*
X63114702Y-67351169D01*
X63114702Y-67351169D02*
X63138512Y-67374978D01*
X63138512Y-67374978D02*
X63162321Y-67422597D01*
X63162321Y-67422597D02*
X63162321Y-67494026D01*
X63162321Y-67494026D02*
X63138512Y-67541645D01*
X63138512Y-67541645D02*
X63114702Y-67565454D01*
X63114702Y-67565454D02*
X63067083Y-67589264D01*
X63067083Y-67589264D02*
X62876607Y-67589264D01*
X63614702Y-67327359D02*
X63376607Y-67327359D01*
X63376607Y-67327359D02*
X63352798Y-67565454D01*
X63352798Y-67565454D02*
X63376607Y-67541645D01*
X63376607Y-67541645D02*
X63424226Y-67517835D01*
X63424226Y-67517835D02*
X63543274Y-67517835D01*
X63543274Y-67517835D02*
X63590893Y-67541645D01*
X63590893Y-67541645D02*
X63614702Y-67565454D01*
X63614702Y-67565454D02*
X63638512Y-67613073D01*
X63638512Y-67613073D02*
X63638512Y-67732121D01*
X63638512Y-67732121D02*
X63614702Y-67779740D01*
X63614702Y-67779740D02*
X63590893Y-67803550D01*
X63590893Y-67803550D02*
X63543274Y-67827359D01*
X63543274Y-67827359D02*
X63424226Y-67827359D01*
X63424226Y-67827359D02*
X63376607Y-67803550D01*
X63376607Y-67803550D02*
X63352798Y-67779740D01*
X63876607Y-67827359D02*
X63971845Y-67827359D01*
X63971845Y-67827359D02*
X64019464Y-67803550D01*
X64019464Y-67803550D02*
X64043273Y-67779740D01*
X64043273Y-67779740D02*
X64090892Y-67708311D01*
X64090892Y-67708311D02*
X64114702Y-67613073D01*
X64114702Y-67613073D02*
X64114702Y-67422597D01*
X64114702Y-67422597D02*
X64090892Y-67374978D01*
X64090892Y-67374978D02*
X64067083Y-67351169D01*
X64067083Y-67351169D02*
X64019464Y-67327359D01*
X64019464Y-67327359D02*
X63924226Y-67327359D01*
X63924226Y-67327359D02*
X63876607Y-67351169D01*
X63876607Y-67351169D02*
X63852797Y-67374978D01*
X63852797Y-67374978D02*
X63828988Y-67422597D01*
X63828988Y-67422597D02*
X63828988Y-67541645D01*
X63828988Y-67541645D02*
X63852797Y-67589264D01*
X63852797Y-67589264D02*
X63876607Y-67613073D01*
X63876607Y-67613073D02*
X63924226Y-67636883D01*
X63924226Y-67636883D02*
X64019464Y-67636883D01*
X64019464Y-67636883D02*
X64067083Y-67613073D01*
X64067083Y-67613073D02*
X64090892Y-67589264D01*
X64090892Y-67589264D02*
X64114702Y-67541645D01*
X60799859Y-70002202D02*
X61204621Y-70002202D01*
X61204621Y-70002202D02*
X61252240Y-69978392D01*
X61252240Y-69978392D02*
X61276050Y-69954583D01*
X61276050Y-69954583D02*
X61299859Y-69906964D01*
X61299859Y-69906964D02*
X61299859Y-69811726D01*
X61299859Y-69811726D02*
X61276050Y-69764107D01*
X61276050Y-69764107D02*
X61252240Y-69740297D01*
X61252240Y-69740297D02*
X61204621Y-69716488D01*
X61204621Y-69716488D02*
X60799859Y-69716488D01*
X60847478Y-69502201D02*
X60823669Y-69478392D01*
X60823669Y-69478392D02*
X60799859Y-69430773D01*
X60799859Y-69430773D02*
X60799859Y-69311725D01*
X60799859Y-69311725D02*
X60823669Y-69264106D01*
X60823669Y-69264106D02*
X60847478Y-69240297D01*
X60847478Y-69240297D02*
X60895097Y-69216487D01*
X60895097Y-69216487D02*
X60942716Y-69216487D01*
X60942716Y-69216487D02*
X61014145Y-69240297D01*
X61014145Y-69240297D02*
X61299859Y-69526011D01*
X61299859Y-69526011D02*
X61299859Y-69216487D01*
X62712240Y-72584583D02*
X62736050Y-72608392D01*
X62736050Y-72608392D02*
X62759859Y-72679821D01*
X62759859Y-72679821D02*
X62759859Y-72727440D01*
X62759859Y-72727440D02*
X62736050Y-72798868D01*
X62736050Y-72798868D02*
X62688430Y-72846487D01*
X62688430Y-72846487D02*
X62640811Y-72870297D01*
X62640811Y-72870297D02*
X62545573Y-72894106D01*
X62545573Y-72894106D02*
X62474145Y-72894106D01*
X62474145Y-72894106D02*
X62378907Y-72870297D01*
X62378907Y-72870297D02*
X62331288Y-72846487D01*
X62331288Y-72846487D02*
X62283669Y-72798868D01*
X62283669Y-72798868D02*
X62259859Y-72727440D01*
X62259859Y-72727440D02*
X62259859Y-72679821D01*
X62259859Y-72679821D02*
X62283669Y-72608392D01*
X62283669Y-72608392D02*
X62307478Y-72584583D01*
X62307478Y-72394106D02*
X62283669Y-72370297D01*
X62283669Y-72370297D02*
X62259859Y-72322678D01*
X62259859Y-72322678D02*
X62259859Y-72203630D01*
X62259859Y-72203630D02*
X62283669Y-72156011D01*
X62283669Y-72156011D02*
X62307478Y-72132202D01*
X62307478Y-72132202D02*
X62355097Y-72108392D01*
X62355097Y-72108392D02*
X62402716Y-72108392D01*
X62402716Y-72108392D02*
X62474145Y-72132202D01*
X62474145Y-72132202D02*
X62759859Y-72417916D01*
X62759859Y-72417916D02*
X62759859Y-72108392D01*
X68107321Y-67067359D02*
X67940655Y-66829264D01*
X67821607Y-67067359D02*
X67821607Y-66567359D01*
X67821607Y-66567359D02*
X68012083Y-66567359D01*
X68012083Y-66567359D02*
X68059702Y-66591169D01*
X68059702Y-66591169D02*
X68083512Y-66614978D01*
X68083512Y-66614978D02*
X68107321Y-66662597D01*
X68107321Y-66662597D02*
X68107321Y-66734026D01*
X68107321Y-66734026D02*
X68083512Y-66781645D01*
X68083512Y-66781645D02*
X68059702Y-66805454D01*
X68059702Y-66805454D02*
X68012083Y-66829264D01*
X68012083Y-66829264D02*
X67821607Y-66829264D01*
X68583512Y-67067359D02*
X68297798Y-67067359D01*
X68440655Y-67067359D02*
X68440655Y-66567359D01*
X68440655Y-66567359D02*
X68393036Y-66638788D01*
X68393036Y-66638788D02*
X68345417Y-66686407D01*
X68345417Y-66686407D02*
X68297798Y-66710216D01*
X68893035Y-66567359D02*
X68940654Y-66567359D01*
X68940654Y-66567359D02*
X68988273Y-66591169D01*
X68988273Y-66591169D02*
X69012083Y-66614978D01*
X69012083Y-66614978D02*
X69035892Y-66662597D01*
X69035892Y-66662597D02*
X69059702Y-66757835D01*
X69059702Y-66757835D02*
X69059702Y-66876883D01*
X69059702Y-66876883D02*
X69035892Y-66972121D01*
X69035892Y-66972121D02*
X69012083Y-67019740D01*
X69012083Y-67019740D02*
X68988273Y-67043550D01*
X68988273Y-67043550D02*
X68940654Y-67067359D01*
X68940654Y-67067359D02*
X68893035Y-67067359D01*
X68893035Y-67067359D02*
X68845416Y-67043550D01*
X68845416Y-67043550D02*
X68821607Y-67019740D01*
X68821607Y-67019740D02*
X68797797Y-66972121D01*
X68797797Y-66972121D02*
X68773988Y-66876883D01*
X68773988Y-66876883D02*
X68773988Y-66757835D01*
X68773988Y-66757835D02*
X68797797Y-66662597D01*
X68797797Y-66662597D02*
X68821607Y-66614978D01*
X68821607Y-66614978D02*
X68845416Y-66591169D01*
X68845416Y-66591169D02*
X68893035Y-66567359D01*
X63192321Y-73992359D02*
X63025655Y-73754264D01*
X62906607Y-73992359D02*
X62906607Y-73492359D01*
X62906607Y-73492359D02*
X63097083Y-73492359D01*
X63097083Y-73492359D02*
X63144702Y-73516169D01*
X63144702Y-73516169D02*
X63168512Y-73539978D01*
X63168512Y-73539978D02*
X63192321Y-73587597D01*
X63192321Y-73587597D02*
X63192321Y-73659026D01*
X63192321Y-73659026D02*
X63168512Y-73706645D01*
X63168512Y-73706645D02*
X63144702Y-73730454D01*
X63144702Y-73730454D02*
X63097083Y-73754264D01*
X63097083Y-73754264D02*
X62906607Y-73754264D01*
X63620893Y-73492359D02*
X63525655Y-73492359D01*
X63525655Y-73492359D02*
X63478036Y-73516169D01*
X63478036Y-73516169D02*
X63454226Y-73539978D01*
X63454226Y-73539978D02*
X63406607Y-73611407D01*
X63406607Y-73611407D02*
X63382798Y-73706645D01*
X63382798Y-73706645D02*
X63382798Y-73897121D01*
X63382798Y-73897121D02*
X63406607Y-73944740D01*
X63406607Y-73944740D02*
X63430417Y-73968550D01*
X63430417Y-73968550D02*
X63478036Y-73992359D01*
X63478036Y-73992359D02*
X63573274Y-73992359D01*
X63573274Y-73992359D02*
X63620893Y-73968550D01*
X63620893Y-73968550D02*
X63644702Y-73944740D01*
X63644702Y-73944740D02*
X63668512Y-73897121D01*
X63668512Y-73897121D02*
X63668512Y-73778073D01*
X63668512Y-73778073D02*
X63644702Y-73730454D01*
X63644702Y-73730454D02*
X63620893Y-73706645D01*
X63620893Y-73706645D02*
X63573274Y-73682835D01*
X63573274Y-73682835D02*
X63478036Y-73682835D01*
X63478036Y-73682835D02*
X63430417Y-73706645D01*
X63430417Y-73706645D02*
X63406607Y-73730454D01*
X63406607Y-73730454D02*
X63382798Y-73778073D01*
X63978035Y-73492359D02*
X64025654Y-73492359D01*
X64025654Y-73492359D02*
X64073273Y-73516169D01*
X64073273Y-73516169D02*
X64097083Y-73539978D01*
X64097083Y-73539978D02*
X64120892Y-73587597D01*
X64120892Y-73587597D02*
X64144702Y-73682835D01*
X64144702Y-73682835D02*
X64144702Y-73801883D01*
X64144702Y-73801883D02*
X64120892Y-73897121D01*
X64120892Y-73897121D02*
X64097083Y-73944740D01*
X64097083Y-73944740D02*
X64073273Y-73968550D01*
X64073273Y-73968550D02*
X64025654Y-73992359D01*
X64025654Y-73992359D02*
X63978035Y-73992359D01*
X63978035Y-73992359D02*
X63930416Y-73968550D01*
X63930416Y-73968550D02*
X63906607Y-73944740D01*
X63906607Y-73944740D02*
X63882797Y-73897121D01*
X63882797Y-73897121D02*
X63858988Y-73801883D01*
X63858988Y-73801883D02*
X63858988Y-73682835D01*
X63858988Y-73682835D02*
X63882797Y-73587597D01*
X63882797Y-73587597D02*
X63906607Y-73539978D01*
X63906607Y-73539978D02*
X63930416Y-73516169D01*
X63930416Y-73516169D02*
X63978035Y-73492359D01*
X56169859Y-75764583D02*
X55931764Y-75931249D01*
X56169859Y-76050297D02*
X55669859Y-76050297D01*
X55669859Y-76050297D02*
X55669859Y-75859821D01*
X55669859Y-75859821D02*
X55693669Y-75812202D01*
X55693669Y-75812202D02*
X55717478Y-75788392D01*
X55717478Y-75788392D02*
X55765097Y-75764583D01*
X55765097Y-75764583D02*
X55836526Y-75764583D01*
X55836526Y-75764583D02*
X55884145Y-75788392D01*
X55884145Y-75788392D02*
X55907954Y-75812202D01*
X55907954Y-75812202D02*
X55931764Y-75859821D01*
X55931764Y-75859821D02*
X55931764Y-76050297D01*
X56169859Y-75288392D02*
X56169859Y-75574106D01*
X56169859Y-75431249D02*
X55669859Y-75431249D01*
X55669859Y-75431249D02*
X55741288Y-75478868D01*
X55741288Y-75478868D02*
X55788907Y-75526487D01*
X55788907Y-75526487D02*
X55812716Y-75574106D01*
X56209859Y-69784583D02*
X55971764Y-69951249D01*
X56209859Y-70070297D02*
X55709859Y-70070297D01*
X55709859Y-70070297D02*
X55709859Y-69879821D01*
X55709859Y-69879821D02*
X55733669Y-69832202D01*
X55733669Y-69832202D02*
X55757478Y-69808392D01*
X55757478Y-69808392D02*
X55805097Y-69784583D01*
X55805097Y-69784583D02*
X55876526Y-69784583D01*
X55876526Y-69784583D02*
X55924145Y-69808392D01*
X55924145Y-69808392D02*
X55947954Y-69832202D01*
X55947954Y-69832202D02*
X55971764Y-69879821D01*
X55971764Y-69879821D02*
X55971764Y-70070297D01*
X55757478Y-69594106D02*
X55733669Y-69570297D01*
X55733669Y-69570297D02*
X55709859Y-69522678D01*
X55709859Y-69522678D02*
X55709859Y-69403630D01*
X55709859Y-69403630D02*
X55733669Y-69356011D01*
X55733669Y-69356011D02*
X55757478Y-69332202D01*
X55757478Y-69332202D02*
X55805097Y-69308392D01*
X55805097Y-69308392D02*
X55852716Y-69308392D01*
X55852716Y-69308392D02*
X55924145Y-69332202D01*
X55924145Y-69332202D02*
X56209859Y-69617916D01*
X56209859Y-69617916D02*
X56209859Y-69308392D01*
X63172321Y-79767359D02*
X63005655Y-79529264D01*
X62886607Y-79767359D02*
X62886607Y-79267359D01*
X62886607Y-79267359D02*
X63077083Y-79267359D01*
X63077083Y-79267359D02*
X63124702Y-79291169D01*
X63124702Y-79291169D02*
X63148512Y-79314978D01*
X63148512Y-79314978D02*
X63172321Y-79362597D01*
X63172321Y-79362597D02*
X63172321Y-79434026D01*
X63172321Y-79434026D02*
X63148512Y-79481645D01*
X63148512Y-79481645D02*
X63124702Y-79505454D01*
X63124702Y-79505454D02*
X63077083Y-79529264D01*
X63077083Y-79529264D02*
X62886607Y-79529264D01*
X63624702Y-79267359D02*
X63386607Y-79267359D01*
X63386607Y-79267359D02*
X63362798Y-79505454D01*
X63362798Y-79505454D02*
X63386607Y-79481645D01*
X63386607Y-79481645D02*
X63434226Y-79457835D01*
X63434226Y-79457835D02*
X63553274Y-79457835D01*
X63553274Y-79457835D02*
X63600893Y-79481645D01*
X63600893Y-79481645D02*
X63624702Y-79505454D01*
X63624702Y-79505454D02*
X63648512Y-79553073D01*
X63648512Y-79553073D02*
X63648512Y-79672121D01*
X63648512Y-79672121D02*
X63624702Y-79719740D01*
X63624702Y-79719740D02*
X63600893Y-79743550D01*
X63600893Y-79743550D02*
X63553274Y-79767359D01*
X63553274Y-79767359D02*
X63434226Y-79767359D01*
X63434226Y-79767359D02*
X63386607Y-79743550D01*
X63386607Y-79743550D02*
X63362798Y-79719740D01*
X63934226Y-79481645D02*
X63886607Y-79457835D01*
X63886607Y-79457835D02*
X63862797Y-79434026D01*
X63862797Y-79434026D02*
X63838988Y-79386407D01*
X63838988Y-79386407D02*
X63838988Y-79362597D01*
X63838988Y-79362597D02*
X63862797Y-79314978D01*
X63862797Y-79314978D02*
X63886607Y-79291169D01*
X63886607Y-79291169D02*
X63934226Y-79267359D01*
X63934226Y-79267359D02*
X64029464Y-79267359D01*
X64029464Y-79267359D02*
X64077083Y-79291169D01*
X64077083Y-79291169D02*
X64100892Y-79314978D01*
X64100892Y-79314978D02*
X64124702Y-79362597D01*
X64124702Y-79362597D02*
X64124702Y-79386407D01*
X64124702Y-79386407D02*
X64100892Y-79434026D01*
X64100892Y-79434026D02*
X64077083Y-79457835D01*
X64077083Y-79457835D02*
X64029464Y-79481645D01*
X64029464Y-79481645D02*
X63934226Y-79481645D01*
X63934226Y-79481645D02*
X63886607Y-79505454D01*
X63886607Y-79505454D02*
X63862797Y-79529264D01*
X63862797Y-79529264D02*
X63838988Y-79576883D01*
X63838988Y-79576883D02*
X63838988Y-79672121D01*
X63838988Y-79672121D02*
X63862797Y-79719740D01*
X63862797Y-79719740D02*
X63886607Y-79743550D01*
X63886607Y-79743550D02*
X63934226Y-79767359D01*
X63934226Y-79767359D02*
X64029464Y-79767359D01*
X64029464Y-79767359D02*
X64077083Y-79743550D01*
X64077083Y-79743550D02*
X64100892Y-79719740D01*
X64100892Y-79719740D02*
X64124702Y-79672121D01*
X64124702Y-79672121D02*
X64124702Y-79576883D01*
X64124702Y-79576883D02*
X64100892Y-79529264D01*
X64100892Y-79529264D02*
X64077083Y-79505454D01*
X64077083Y-79505454D02*
X64029464Y-79481645D01*
X56179859Y-81874583D02*
X55941764Y-82041249D01*
X56179859Y-82160297D02*
X55679859Y-82160297D01*
X55679859Y-82160297D02*
X55679859Y-81969821D01*
X55679859Y-81969821D02*
X55703669Y-81922202D01*
X55703669Y-81922202D02*
X55727478Y-81898392D01*
X55727478Y-81898392D02*
X55775097Y-81874583D01*
X55775097Y-81874583D02*
X55846526Y-81874583D01*
X55846526Y-81874583D02*
X55894145Y-81898392D01*
X55894145Y-81898392D02*
X55917954Y-81922202D01*
X55917954Y-81922202D02*
X55941764Y-81969821D01*
X55941764Y-81969821D02*
X55941764Y-82160297D01*
X55679859Y-81707916D02*
X55679859Y-81398392D01*
X55679859Y-81398392D02*
X55870335Y-81565059D01*
X55870335Y-81565059D02*
X55870335Y-81493630D01*
X55870335Y-81493630D02*
X55894145Y-81446011D01*
X55894145Y-81446011D02*
X55917954Y-81422202D01*
X55917954Y-81422202D02*
X55965573Y-81398392D01*
X55965573Y-81398392D02*
X56084621Y-81398392D01*
X56084621Y-81398392D02*
X56132240Y-81422202D01*
X56132240Y-81422202D02*
X56156050Y-81446011D01*
X56156050Y-81446011D02*
X56179859Y-81493630D01*
X56179859Y-81493630D02*
X56179859Y-81636487D01*
X56179859Y-81636487D02*
X56156050Y-81684106D01*
X56156050Y-81684106D02*
X56132240Y-81707916D01*
X62732240Y-78524583D02*
X62756050Y-78548392D01*
X62756050Y-78548392D02*
X62779859Y-78619821D01*
X62779859Y-78619821D02*
X62779859Y-78667440D01*
X62779859Y-78667440D02*
X62756050Y-78738868D01*
X62756050Y-78738868D02*
X62708430Y-78786487D01*
X62708430Y-78786487D02*
X62660811Y-78810297D01*
X62660811Y-78810297D02*
X62565573Y-78834106D01*
X62565573Y-78834106D02*
X62494145Y-78834106D01*
X62494145Y-78834106D02*
X62398907Y-78810297D01*
X62398907Y-78810297D02*
X62351288Y-78786487D01*
X62351288Y-78786487D02*
X62303669Y-78738868D01*
X62303669Y-78738868D02*
X62279859Y-78667440D01*
X62279859Y-78667440D02*
X62279859Y-78619821D01*
X62279859Y-78619821D02*
X62303669Y-78548392D01*
X62303669Y-78548392D02*
X62327478Y-78524583D01*
X62279859Y-78096011D02*
X62279859Y-78191249D01*
X62279859Y-78191249D02*
X62303669Y-78238868D01*
X62303669Y-78238868D02*
X62327478Y-78262678D01*
X62327478Y-78262678D02*
X62398907Y-78310297D01*
X62398907Y-78310297D02*
X62494145Y-78334106D01*
X62494145Y-78334106D02*
X62684621Y-78334106D01*
X62684621Y-78334106D02*
X62732240Y-78310297D01*
X62732240Y-78310297D02*
X62756050Y-78286487D01*
X62756050Y-78286487D02*
X62779859Y-78238868D01*
X62779859Y-78238868D02*
X62779859Y-78143630D01*
X62779859Y-78143630D02*
X62756050Y-78096011D01*
X62756050Y-78096011D02*
X62732240Y-78072202D01*
X62732240Y-78072202D02*
X62684621Y-78048392D01*
X62684621Y-78048392D02*
X62565573Y-78048392D01*
X62565573Y-78048392D02*
X62517954Y-78072202D01*
X62517954Y-78072202D02*
X62494145Y-78096011D01*
X62494145Y-78096011D02*
X62470335Y-78143630D01*
X62470335Y-78143630D02*
X62470335Y-78238868D01*
X62470335Y-78238868D02*
X62494145Y-78286487D01*
X62494145Y-78286487D02*
X62517954Y-78310297D01*
X62517954Y-78310297D02*
X62565573Y-78334106D01*
X58422240Y-66664583D02*
X58446050Y-66688392D01*
X58446050Y-66688392D02*
X58469859Y-66759821D01*
X58469859Y-66759821D02*
X58469859Y-66807440D01*
X58469859Y-66807440D02*
X58446050Y-66878868D01*
X58446050Y-66878868D02*
X58398430Y-66926487D01*
X58398430Y-66926487D02*
X58350811Y-66950297D01*
X58350811Y-66950297D02*
X58255573Y-66974106D01*
X58255573Y-66974106D02*
X58184145Y-66974106D01*
X58184145Y-66974106D02*
X58088907Y-66950297D01*
X58088907Y-66950297D02*
X58041288Y-66926487D01*
X58041288Y-66926487D02*
X57993669Y-66878868D01*
X57993669Y-66878868D02*
X57969859Y-66807440D01*
X57969859Y-66807440D02*
X57969859Y-66759821D01*
X57969859Y-66759821D02*
X57993669Y-66688392D01*
X57993669Y-66688392D02*
X58017478Y-66664583D01*
X57969859Y-66497916D02*
X57969859Y-66188392D01*
X57969859Y-66188392D02*
X58160335Y-66355059D01*
X58160335Y-66355059D02*
X58160335Y-66283630D01*
X58160335Y-66283630D02*
X58184145Y-66236011D01*
X58184145Y-66236011D02*
X58207954Y-66212202D01*
X58207954Y-66212202D02*
X58255573Y-66188392D01*
X58255573Y-66188392D02*
X58374621Y-66188392D01*
X58374621Y-66188392D02*
X58422240Y-66212202D01*
X58422240Y-66212202D02*
X58446050Y-66236011D01*
X58446050Y-66236011D02*
X58469859Y-66283630D01*
X58469859Y-66283630D02*
X58469859Y-66426487D01*
X58469859Y-66426487D02*
X58446050Y-66474106D01*
X58446050Y-66474106D02*
X58422240Y-66497916D01*
D11*
X59923750Y-73991250D02*
X58123750Y-73991250D01*
X59923750Y-73991250D02*
X60723750Y-73991250D01*
X59923750Y-77111250D02*
X59123750Y-77111250D01*
X59923750Y-77111250D02*
X60723750Y-77111250D01*
X56415002Y-77666250D02*
X55892498Y-77666250D01*
X56415002Y-79136250D02*
X55892498Y-79136250D01*
D15*
X68143750Y-80566250D02*
X68143750Y-85266250D01*
X68493750Y-80566250D02*
X68143750Y-80566250D01*
X69143750Y-85266250D02*
X87443750Y-85266250D01*
X71093750Y-80566250D02*
X71693750Y-80566250D01*
D10*
X72043750Y-78817250D02*
X72043750Y-78817250D01*
X72043750Y-78916250D02*
X72043750Y-78916250D01*
D15*
X84493750Y-80566250D02*
X83893750Y-80566250D01*
X87443750Y-80566250D02*
X87093750Y-80566250D01*
X87443750Y-85266250D02*
X87443750Y-80566250D01*
D10*
X72043750Y-78817250D02*
G75*
G02*
X72043750Y-78916250I0J-49500D01*
G01*
X72043750Y-78916250D02*
G75*
G02*
X72043750Y-78817250I0J49500D01*
G01*
D11*
X59873750Y-80101250D02*
X58073750Y-80101250D01*
X59873750Y-80101250D02*
X60673750Y-80101250D01*
X59873750Y-83221250D02*
X59073750Y-83221250D01*
X59873750Y-83221250D02*
X60673750Y-83221250D01*
X56403752Y-71711250D02*
X55881248Y-71711250D01*
X56403752Y-73181250D02*
X55881248Y-73181250D01*
X60815002Y-65806250D02*
X60292498Y-65806250D01*
X60815002Y-67276250D02*
X60292498Y-67276250D01*
X66523750Y-69241250D02*
X67583750Y-69241250D01*
X66523750Y-70301250D02*
X66523750Y-69241250D01*
X66523750Y-71301250D02*
X66523750Y-77361250D01*
X66523750Y-71301250D02*
X68583750Y-71301250D01*
X66523750Y-77361250D02*
X70643750Y-77361250D01*
X68583750Y-69241250D02*
X70643750Y-69241250D01*
X68583750Y-71301250D02*
X68583750Y-69241250D01*
X70643750Y-69241250D02*
X70643750Y-77361250D01*
X62991250Y-69178992D02*
X62991250Y-69653508D01*
X64036250Y-69178992D02*
X64036250Y-69653508D01*
X59910000Y-68026250D02*
X58110000Y-68026250D01*
X59910000Y-68026250D02*
X60710000Y-68026250D01*
X59910000Y-71146250D02*
X59110000Y-71146250D01*
X59910000Y-71146250D02*
X60710000Y-71146250D01*
X60723752Y-71711250D02*
X60201248Y-71711250D01*
X60723752Y-73181250D02*
X60201248Y-73181250D01*
X68191492Y-67368750D02*
X68666008Y-67368750D01*
X68191492Y-68413750D02*
X68666008Y-68413750D01*
D15*
X68926750Y-60641250D02*
X68926750Y-66301250D01*
X71546750Y-66301250D02*
X68926750Y-66301250D01*
X84660750Y-60641250D02*
X68926750Y-60641250D01*
X84660750Y-60641250D02*
X84660750Y-66301250D01*
X84660750Y-66301250D02*
X82040750Y-66301250D01*
X81643750Y-67431250D02*
G75*
G02*
X81443750Y-67431250I-100000J0D01*
G01*
X81443750Y-67431250D02*
G75*
G02*
X81643750Y-67431250I100000J0D01*
G01*
D11*
X62991250Y-75428992D02*
X62991250Y-75903508D01*
X64036250Y-75428992D02*
X64036250Y-75903508D01*
X56491250Y-75433992D02*
X56491250Y-75908508D01*
X57536250Y-75433992D02*
X57536250Y-75908508D01*
X56535000Y-69468992D02*
X56535000Y-69943508D01*
X57580000Y-69468992D02*
X57580000Y-69943508D01*
X62961250Y-81146492D02*
X62961250Y-81621008D01*
X64006250Y-81146492D02*
X64006250Y-81621008D01*
X56481250Y-81553992D02*
X56481250Y-82028508D01*
X57526250Y-81553992D02*
X57526250Y-82028508D01*
X60755002Y-77676250D02*
X60232498Y-77676250D01*
X60755002Y-79146250D02*
X60232498Y-79146250D01*
X56415002Y-65866250D02*
X55892498Y-65866250D01*
X56415002Y-67336250D02*
X55892498Y-67336250D01*
%LPC*%
D16*
X58786250Y-74601250D03*
X58786250Y-75551250D03*
X58786250Y-76501250D03*
X61061250Y-76501250D03*
X61061250Y-74601250D03*
D17*
X57103750Y-78401250D03*
X55203750Y-78401250D03*
D18*
X72043750Y-79916250D03*
X72543750Y-79916250D03*
X73043750Y-79916250D03*
X73543750Y-79916250D03*
X74043750Y-79916250D03*
X74543750Y-79916250D03*
X75043750Y-79916250D03*
X75543750Y-79916250D03*
X76043750Y-79916250D03*
X76543750Y-79916250D03*
X77043750Y-79916250D03*
X77543750Y-79916250D03*
X78043750Y-79916250D03*
X78543750Y-79916250D03*
X79043750Y-79916250D03*
X79543750Y-79916250D03*
X80043750Y-79916250D03*
X80543750Y-79916250D03*
X81043750Y-79916250D03*
X81543750Y-79916250D03*
X82043750Y-79916250D03*
X82543750Y-79916250D03*
X83043750Y-79916250D03*
X83543750Y-79916250D03*
D19*
X69793750Y-80866250D03*
D20*
X70193750Y-81841250D03*
X85393750Y-81841250D03*
D19*
X85793750Y-80866250D03*
D16*
X58736250Y-80711250D03*
X58736250Y-81661250D03*
X58736250Y-82611250D03*
X61011250Y-82611250D03*
X61011250Y-80711250D03*
D17*
X57092500Y-72446250D03*
X55192500Y-72446250D03*
X61503750Y-66541250D03*
X59603750Y-66541250D03*
D21*
X67583750Y-70301250D03*
D22*
X69583750Y-70301250D03*
X67583750Y-72301250D03*
X69583750Y-72301250D03*
X67583750Y-74301250D03*
X69583750Y-74301250D03*
X67583750Y-76301250D03*
X69583750Y-76301250D03*
D23*
X63513750Y-68591250D03*
X63513750Y-70241250D03*
D16*
X58772500Y-68636250D03*
X58772500Y-69586250D03*
X58772500Y-70536250D03*
X61047500Y-70536250D03*
X61047500Y-68636250D03*
D17*
X61412500Y-72446250D03*
X59512500Y-72446250D03*
D24*
X67603750Y-67891250D03*
X69253750Y-67891250D03*
D25*
X81543750Y-65871250D03*
X81043750Y-65871250D03*
X80543750Y-65871250D03*
X80043750Y-65871250D03*
X79543750Y-65871250D03*
X79043750Y-65871250D03*
X78543750Y-65871250D03*
X78043750Y-65871250D03*
X77543750Y-65871250D03*
X77043750Y-65871250D03*
X76543750Y-65871250D03*
X76043750Y-65871250D03*
X75543750Y-65871250D03*
X75043750Y-65871250D03*
X74543750Y-65871250D03*
X74043750Y-65871250D03*
X73543750Y-65871250D03*
X73043750Y-65871250D03*
X72543750Y-65871250D03*
X72043750Y-65871250D03*
D26*
X83190750Y-63891250D03*
X70396750Y-63891250D03*
D23*
X63513750Y-74841250D03*
X63513750Y-76491250D03*
X57013750Y-74846250D03*
X57013750Y-76496250D03*
X57057500Y-68881250D03*
X57057500Y-70531250D03*
X63483750Y-80558750D03*
X63483750Y-82208750D03*
X57003750Y-80966250D03*
X57003750Y-82616250D03*
D17*
X61443750Y-78411250D03*
X59543750Y-78411250D03*
X57103750Y-66601250D03*
X55203750Y-66601250D03*
%LPD*%
M02*
