G04 #@! TF.GenerationSoftware,KiCad,Pcbnew,9.0.0*
G04 #@! TF.CreationDate,2025-08-29T11:38:16+03:00*
G04 #@! TF.ProjectId,GSM_PCBSMAFRAHT,47534d5f-5043-4425-934d-414652414854,rev?*
G04 #@! TF.SameCoordinates,Original*
G04 #@! TF.FileFunction,Other,User*
%FSLAX46Y46*%
G04 Gerber Fmt 4.6, Leading zero omitted, Abs format (unit mm)*
G04 Created by KiCad (PCBNEW 9.0.0) date 2025-08-29 11:38:16*
%MOMM*%
%LPD*%
G01*
G04 APERTURE LIST*
%ADD10C,0.050000*%
%ADD11C,0.100000*%
G04 APERTURE END LIST*
D10*
X140650000Y-84450000D02*
X143610000Y-84450000D01*
X140650000Y-85910000D02*
X140650000Y-84450000D01*
X143610000Y-84450000D02*
X143610000Y-85910000D01*
X143610000Y-85910000D02*
X140650000Y-85910000D01*
X136980000Y-77125000D02*
X138440000Y-77125000D01*
X136980000Y-80085000D02*
X136980000Y-77125000D01*
X138440000Y-77125000D02*
X138440000Y-80085000D01*
X138440000Y-80085000D02*
X136980000Y-80085000D01*
X129580000Y-86430000D02*
X132540000Y-86430000D01*
X129580000Y-87890000D02*
X129580000Y-86430000D01*
X132540000Y-86430000D02*
X132540000Y-87890000D01*
X132540000Y-87890000D02*
X129580000Y-87890000D01*
X134950000Y-82275000D02*
X138990000Y-82275000D01*
X138990000Y-86825000D01*
X134950000Y-86825000D01*
X134950000Y-82275000D01*
X129590000Y-81890000D02*
X132550000Y-81890000D01*
X129590000Y-83350000D02*
X129590000Y-81890000D01*
X132550000Y-81890000D02*
X132550000Y-83350000D01*
X132550000Y-83350000D02*
X129590000Y-83350000D01*
X135430000Y-77135000D02*
X136890000Y-77135000D01*
X135430000Y-80095000D02*
X135430000Y-77135000D01*
X136890000Y-77135000D02*
X136890000Y-80095000D01*
X136890000Y-80095000D02*
X135430000Y-80095000D01*
X76150000Y-77170000D02*
X76150000Y-82170000D01*
X76150000Y-82170000D02*
X87150000Y-82170000D01*
X87150000Y-77170000D02*
X76150000Y-77170000D01*
X87150000Y-82170000D02*
X87150000Y-77170000D01*
X129640000Y-84190000D02*
X132600000Y-84190000D01*
X129640000Y-85650000D02*
X129640000Y-84190000D01*
X132600000Y-84190000D02*
X132600000Y-85650000D01*
X132600000Y-85650000D02*
X129640000Y-85650000D01*
X140670000Y-82790000D02*
X143630000Y-82790000D01*
X140670000Y-84250000D02*
X140670000Y-82790000D01*
X143630000Y-82790000D02*
X143630000Y-84250000D01*
X143630000Y-84250000D02*
X140670000Y-84250000D01*
D11*
X120020000Y-88590000D02*
X147020000Y-88590000D01*
X120020000Y-121590000D02*
X120020000Y-88590000D01*
X147020000Y-88590000D02*
X147020000Y-121590000D01*
X147020000Y-121590000D02*
X120020000Y-121590000D01*
D10*
X140680000Y-81140000D02*
X143640000Y-81140000D01*
X140680000Y-82600000D02*
X140680000Y-81140000D01*
X143640000Y-81140000D02*
X143640000Y-82600000D01*
X143640000Y-82600000D02*
X140680000Y-82600000D01*
X140630000Y-86130000D02*
X143590000Y-86130000D01*
X140630000Y-87590000D02*
X140630000Y-86130000D01*
X143590000Y-86130000D02*
X143590000Y-87590000D01*
X143590000Y-87590000D02*
X140630000Y-87590000D01*
M02*
