M48
; DRILL file {KiCad 9.0.0} date 2025-08-29T11:38:11+0300
; FORMAT={-:-/ absolute / metric / decimal}
; #@! TF.CreationDate,2025-08-29T11:38:11+03:00
; #@! TF.GenerationSoftware,Kicad,Pcbnew,9.0.0
; #@! TF.FileFunction,Plated,1,4,PTH
FMAT,2
METRIC
; #@! TA.AperFunction,Plated,PTH,ViaDrill
T1C0.400
; #@! TA.AperFunction,Plated,PTH,ComponentDrill
T2C0.800
; #@! TA.AperFunction,Plated,PTH,ComponentDrill
T3C1.500
%
G90
G05
T1
X81.37Y-82.71
X81.98Y-83.84
X82.34Y-88.71
X83.09Y-84.85
X84.12Y-109.34
X84.33Y-82.48
X84.92Y-110.47
X85.12Y-108.11
X85.42Y-85.33
X86.0Y-83.03
X86.52Y-108.17
X86.52Y-110.47
X86.91Y-97.21
X87.45Y-85.22
X87.63Y-83.04
X88.08Y-108.11
X88.08Y-110.44
X89.1Y-82.99
X89.43Y-85.2
X89.71Y-77.86
X91.881Y-80.279
X91.91Y-78.99
X92.91Y-106.65
X94.29Y-107.55
X94.52Y-105.62
X95.95Y-107.62
X96.06Y-105.62
X96.55Y-110.3
X97.26Y-87.3
X97.27Y-83.37
X97.79Y-105.6
X97.79Y-107.56
X98.34Y-110.37
X98.6Y-96.86
X99.62Y-105.58
X99.67Y-107.66
X100.0Y-110.37
X101.32Y-105.49
X101.34Y-107.68
X101.63Y-82.76
X101.95Y-110.32
X102.11Y-78.516
X102.86Y-96.84
X102.96Y-107.64
X103.01Y-105.53
X103.84Y-110.28
X104.43Y-107.58
X104.57Y-105.47
X105.88Y-105.58
X105.97Y-107.73
X106.61Y-87.68
X107.15Y-104.27
X108.34Y-105.42
X108.34Y-107.7
X108.81Y-81.09
X109.69Y-93.46
X110.63Y-78.05
X111.1Y-81.59
X111.33Y-88.35
X111.53Y-90.88
X115.01Y-91.33
X115.38Y-110.54
X116.58Y-102.66
X116.64Y-108.18
X116.73Y-105.43
X118.44Y-108.11
X118.46Y-102.65
X118.46Y-105.3
X118.84Y-91.52
X120.3Y-102.71
X120.36Y-108.11
X120.43Y-105.41
X120.57Y-94.56
X121.13Y-91.43
X122.39Y-102.69
X122.46Y-108.14
X122.54Y-105.44
X123.25Y-95.95
X123.71Y-81.64
X124.46Y-105.58
X124.49Y-108.19
X124.54Y-102.78
X125.63Y-91.69
X125.86Y-94.48
X126.45Y-102.71
X126.45Y-105.41
X126.52Y-108.09
X126.57Y-85.08
X128.26Y-91.72
X128.34Y-94.39
X128.63Y-108.01
X128.68Y-105.35
X128.78Y-102.67
X128.79Y-81.43
X130.55Y-113.69
X131.33Y-77.24
X131.67Y-106.62
X131.74Y-110.93
X131.82Y-112.65
X132.13Y-103.62
X132.68Y-107.73
X133.16Y-104.69
X133.16Y-113.56
X133.78Y-108.79
X133.88Y-80.43
X134.4Y-110.39
X134.48Y-112.14
X135.65Y-113.49
X135.95Y-107.58
X137.04Y-108.79
X137.37Y-111.99
X137.39Y-113.82
X137.4Y-110.31
X137.71Y-76.62
X137.885Y-96.055
X137.94Y-94.31
X138.15Y-91.48
X138.21Y-116.53
X139.93Y-83.35
X140.02Y-90.38
X140.05Y-85.18
X140.82Y-116.51
X142.3Y-94.37
X142.31Y-91.42
X144.36Y-86.77
X144.61Y-91.49
X144.69Y-94.46
X146.63Y-99.34
X146.97Y-89.17
T2
X77.65Y-78.67
X77.65Y-80.67
X79.65Y-78.67
X79.65Y-80.67
X81.65Y-78.67
X81.65Y-80.67
X83.65Y-78.67
X83.65Y-80.67
X85.65Y-78.67
X85.65Y-80.67
T3
X77.065Y-114.115
X77.065Y-119.265
X79.64Y-116.69
X82.215Y-114.115
X82.215Y-119.265
X90.315Y-114.115
X90.315Y-119.265
X92.89Y-116.69
X95.465Y-114.115
X95.465Y-119.265
X103.565Y-114.115
X103.565Y-119.265
X106.14Y-116.69
X108.715Y-114.115
X108.715Y-119.265
M30
