G04 #@! TF.GenerationSoftware,KiCad,Pcbnew,9.0.0*
G04 #@! TF.CreationDate,2025-08-29T11:38:16+03:00*
G04 #@! TF.ProjectId,GSM_PCBSMAFRAHT,47534d5f-5043-4425-934d-414652414854,rev?*
G04 #@! TF.SameCoordinates,Original*
G04 #@! TF.FileFunction,Soldermask,Top*
G04 #@! TF.FilePolarity,Negative*
%FSLAX46Y46*%
G04 Gerber Fmt 4.6, Leading zero omitted, Abs format (unit mm)*
G04 Created by KiCad (PCBNEW 9.0.0) date 2025-08-29 11:38:16*
%MOMM*%
%LPD*%
G01*
G04 APERTURE LIST*
G04 Aperture macros list*
%AMRoundRect*
0 Rectangle with rounded corners*
0 $1 Rounding radius*
0 $2 $3 $4 $5 $6 $7 $8 $9 X,Y pos of 4 corners*
0 Add a 4 corners polygon primitive as box body*
4,1,4,$2,$3,$4,$5,$6,$7,$8,$9,$2,$3,0*
0 Add four circle primitives for the rounded corners*
1,1,$1+$1,$2,$3*
1,1,$1+$1,$4,$5*
1,1,$1+$1,$6,$7*
1,1,$1+$1,$8,$9*
0 Add four rect primitives between the rounded corners*
20,1,$1+$1,$2,$3,$4,$5,0*
20,1,$1+$1,$4,$5,$6,$7,0*
20,1,$1+$1,$6,$7,$8,$9,0*
20,1,$1+$1,$8,$9,$2,$3,0*%
%AMFreePoly0*
4,1,113,0.179506,3.145604,0.524957,3.106681,0.530573,3.105726,0.869494,3.028370,0.874968,3.026793,1.203097,2.911976,1.208360,2.909796,1.521570,2.758962,1.526556,2.756207,1.820908,2.571253,1.825554,2.567956,2.097347,2.351208,2.101595,2.347412,2.347412,2.101595,2.351208,2.097347,2.567956,1.825554,2.571253,1.820908,2.756207,1.526556,2.758962,1.521570,2.909796,1.208360,
2.911976,1.203097,3.026793,0.874968,3.028370,0.869494,3.105726,0.530573,3.106681,0.524957,3.145604,0.179506,3.145923,0.173818,3.145923,-0.173818,3.145604,-0.179506,3.106681,-0.524957,3.105726,-0.530573,3.028370,-0.869494,3.026793,-0.874968,2.911976,-1.203097,2.909796,-1.208360,2.758962,-1.521570,2.756207,-1.526556,2.571253,-1.820908,2.567956,-1.825554,2.351208,-2.097347,
2.347412,-2.101595,2.101595,-2.347412,2.097347,-2.351208,1.825554,-2.567956,1.820908,-2.571253,1.526556,-2.756207,1.521570,-2.758962,1.208360,-2.909796,1.203097,-2.911976,0.874968,-3.026793,0.869494,-3.028370,0.530573,-3.105726,0.524957,-3.106681,0.179506,-3.145604,0.173818,-3.145923,-0.173818,-3.145923,-0.179506,-3.145604,-0.524957,-3.106681,-0.530573,-3.105726,-0.869494,-3.028370,
-0.874968,-3.026793,-1.203097,-2.911976,-1.208360,-2.909796,-1.521570,-2.758962,-1.526556,-2.756207,-1.820908,-2.571253,-1.825554,-2.567956,-2.097347,-2.351208,-2.101595,-2.347412,-2.347412,-2.101595,-2.351208,-2.097347,-2.567956,-1.825554,-2.571253,-1.820908,-2.756207,-1.526556,-2.758962,-1.521570,-2.909796,-1.208360,-2.911976,-1.203097,-3.026793,-0.874968,-3.028370,-0.869494,-3.105726,-0.530573,
-3.106681,-0.524957,-3.145604,-0.179506,-3.145923,-0.173818,-3.145923,0.173818,-3.145604,0.179506,-3.106681,0.524957,-3.105726,0.530573,-3.028370,0.869494,-3.026793,0.874968,-2.911976,1.203097,-2.909796,1.208360,-2.758962,1.521570,-2.756207,1.526556,-2.571253,1.820908,-2.567956,1.825554,-2.351208,2.097347,-2.347412,2.101595,-2.101595,2.347412,-2.097347,2.351208,-1.825554,2.567956,
-1.820908,2.571253,-1.526556,2.756207,-1.521570,2.758962,-1.208360,2.909796,-1.203097,2.911976,-0.874968,3.026793,-0.869494,3.028370,-0.530573,3.105726,-0.524957,3.106681,-0.179506,3.145604,-0.173818,3.145923,0.173818,3.145923,0.179506,3.145604,0.179506,3.145604,$1*%
G04 Aperture macros list end*
%ADD10RoundRect,0.250400X-0.275400X0.250400X-0.275400X-0.250400X0.275400X-0.250400X0.275400X0.250400X0*%
%ADD11C,1.500000*%
%ADD12RoundRect,0.250400X0.250400X0.275400X-0.250400X0.275400X-0.250400X-0.275400X0.250400X-0.275400X0*%
%ADD13RoundRect,0.050800X0.700000X-0.500000X0.700000X0.500000X-0.700000X0.500000X-0.700000X-0.500000X0*%
%ADD14RoundRect,0.225400X0.225400X0.300400X-0.225400X0.300400X-0.225400X-0.300400X0.225400X-0.300400X0*%
%ADD15RoundRect,0.050800X0.800000X1.100000X-0.800000X1.100000X-0.800000X-1.100000X0.800000X-1.100000X0*%
%ADD16RoundRect,0.225400X0.300400X-0.225400X0.300400X0.225400X-0.300400X0.225400X-0.300400X-0.225400X0*%
%ADD17RoundRect,0.050800X0.560000X0.610000X-0.560000X0.610000X-0.560000X-0.610000X0.560000X-0.610000X0*%
%ADD18RoundRect,0.050800X0.550000X1.000000X-0.550000X1.000000X-0.550000X-1.000000X0.550000X-1.000000X0*%
%ADD19RoundRect,0.050800X0.550000X0.400000X-0.550000X0.400000X-0.550000X-0.400000X0.550000X-0.400000X0*%
%ADD20RoundRect,0.050800X0.200000X-0.375000X0.200000X0.375000X-0.200000X0.375000X-0.200000X-0.375000X0*%
%ADD21RoundRect,0.250400X0.275400X-0.250400X0.275400X0.250400X-0.275400X0.250400X-0.275400X-0.250400X0*%
%ADD22FreePoly0,270.000000*%
%ADD23O,2.601600X2.601600*%
%ADD24RoundRect,0.050800X-0.550000X-1.000000X0.550000X-1.000000X0.550000X1.000000X-0.550000X1.000000X0*%
%ADD25RoundRect,0.050800X-0.550000X-0.400000X0.550000X-0.400000X0.550000X0.400000X-0.550000X0.400000X0*%
%ADD26RoundRect,0.272087X-0.353713X-0.678713X0.353713X-0.678713X0.353713X0.678713X-0.353713X0.678713X0*%
%ADD27RoundRect,0.050800X-0.900000X0.615000X-0.900000X-0.615000X0.900000X-0.615000X0.900000X0.615000X0*%
%ADD28RoundRect,0.225400X-0.300400X0.225400X-0.300400X-0.225400X0.300400X-0.225400X0.300400X0.225400X0*%
%ADD29RoundRect,0.265875X1.284925X0.584925X-1.284925X0.584925X-1.284925X-0.584925X1.284925X-0.584925X0*%
%ADD30RoundRect,0.400400X-0.400400X1.150400X-0.400400X-1.150400X0.400400X-1.150400X0.400400X1.150400X0*%
%ADD31RoundRect,0.400400X-1.150400X-0.400400X1.150400X-0.400400X1.150400X0.400400X-1.150400X0.400400X0*%
%ADD32RoundRect,0.225400X-0.225400X-0.300400X0.225400X-0.300400X0.225400X0.300400X-0.225400X0.300400X0*%
%ADD33RoundRect,0.172900X-0.197900X0.172900X-0.197900X-0.172900X0.197900X-0.172900X0.197900X0.172900X0*%
%ADD34RoundRect,0.050800X0.762500X-0.350000X0.762500X0.350000X-0.762500X0.350000X-0.762500X-0.350000X0*%
%ADD35RoundRect,0.050800X-1.280000X-1.725000X1.280000X-1.725000X1.280000X1.725000X-1.280000X1.725000X0*%
%ADD36RoundRect,0.269150X0.481650X-0.269150X0.481650X0.269150X-0.481650X0.269150X-0.481650X-0.269150X0*%
%ADD37RoundRect,0.050800X-0.675000X0.675000X-0.675000X-0.675000X0.675000X-0.675000X0.675000X0.675000X0*%
%ADD38O,1.451600X1.451600*%
G04 APERTURE END LIST*
D10*
X103320000Y-98140000D03*
X103320000Y-99690000D03*
X90000000Y-109230000D03*
X90000000Y-110780000D03*
D11*
X152090000Y-116380000D03*
D12*
X100075000Y-84270000D03*
X98525000Y-84270000D03*
D10*
X101750000Y-98125000D03*
X101750000Y-99675000D03*
D13*
X98270000Y-77615000D03*
X98270000Y-79515000D03*
X100470000Y-78565000D03*
D12*
X94005000Y-88650000D03*
X92455000Y-88650000D03*
D14*
X100115000Y-82740000D03*
X98465000Y-82740000D03*
D15*
X93340000Y-93970000D03*
X86940000Y-93970000D03*
D16*
X107180000Y-110935000D03*
X107180000Y-109285000D03*
D17*
X89550000Y-87740000D03*
X86450000Y-87740000D03*
D18*
X107230000Y-98260000D03*
D19*
X107230000Y-100160000D03*
D10*
X105570000Y-109325000D03*
X105570000Y-110875000D03*
D11*
X76530000Y-84580000D03*
D20*
X109479618Y-85276520D03*
X110279618Y-85276520D03*
X110279618Y-83426520D03*
X109479618Y-83426520D03*
D16*
X80890000Y-110935000D03*
X80890000Y-109285000D03*
D21*
X105110000Y-95605000D03*
X105110000Y-94055000D03*
D11*
X146480000Y-77820000D03*
D22*
X80130000Y-103490000D03*
D23*
X106140000Y-116690000D03*
X103565000Y-114115000D03*
X108715000Y-114115000D03*
X108715000Y-119265000D03*
X103565000Y-119265000D03*
D10*
X94510000Y-109255000D03*
X94510000Y-110805000D03*
D24*
X107230000Y-94730000D03*
D25*
X107230000Y-92830000D03*
D11*
X111510000Y-116770000D03*
D16*
X109810000Y-105435000D03*
X109810000Y-103785000D03*
D21*
X103410000Y-95635000D03*
X103410000Y-94085000D03*
D10*
X79360000Y-109345000D03*
X79360000Y-110895000D03*
D26*
X103235000Y-82600000D03*
X106185000Y-82600000D03*
D21*
X92940000Y-110785000D03*
X92940000Y-109235000D03*
D27*
X82370000Y-90570000D03*
X79750000Y-90570000D03*
D10*
X105120000Y-98050000D03*
X105120000Y-99600000D03*
D28*
X98590000Y-94075000D03*
X98590000Y-95725000D03*
D29*
X83160000Y-95470000D03*
X78760000Y-95470000D03*
D22*
X153630000Y-103490000D03*
D30*
X140760000Y-119280000D03*
X138220000Y-119280000D03*
X135680000Y-119280000D03*
X133140000Y-119280000D03*
X130600000Y-119280000D03*
D31*
X112650000Y-110490000D03*
X112650000Y-107950000D03*
X112650000Y-105410000D03*
X112650000Y-102870000D03*
X112650000Y-100330000D03*
D30*
X118630000Y-79270000D03*
X121170000Y-79270000D03*
X123710000Y-79270000D03*
X126250000Y-79270000D03*
X128790000Y-79270000D03*
X131330000Y-79270000D03*
D31*
X149650000Y-89180000D03*
X149650000Y-91720000D03*
X149650000Y-94260000D03*
X149650000Y-96800000D03*
X149650000Y-99340000D03*
D10*
X82450000Y-109350000D03*
X82450000Y-110900000D03*
D32*
X92415000Y-87110000D03*
X94065000Y-87110000D03*
D28*
X111420000Y-83555000D03*
X111420000Y-85205000D03*
D32*
X98455000Y-81200000D03*
X100105000Y-81200000D03*
D28*
X107260000Y-89665000D03*
X107260000Y-91315000D03*
D23*
X92890000Y-116690000D03*
X90315000Y-114115000D03*
X95465000Y-114115000D03*
X95465000Y-119265000D03*
X90315000Y-119265000D03*
D10*
X108790000Y-109360000D03*
X108790000Y-110910000D03*
D33*
X91370000Y-109840000D03*
X91370000Y-110810000D03*
D34*
X99340000Y-86440000D03*
X99340000Y-87710000D03*
X99340000Y-88980000D03*
X99340000Y-90250000D03*
X104764000Y-90250000D03*
X104764000Y-88980000D03*
X104764000Y-87710000D03*
X104764000Y-86440000D03*
D35*
X102052000Y-88345000D03*
D36*
X94570000Y-101577500D03*
X94570000Y-99702500D03*
D27*
X82370000Y-86890000D03*
X79750000Y-86890000D03*
D23*
X79640000Y-116690000D03*
X77065000Y-114115000D03*
X82215000Y-114115000D03*
X82215000Y-119265000D03*
X77065000Y-119265000D03*
D16*
X108290000Y-85135000D03*
X108290000Y-83485000D03*
X97040000Y-99705000D03*
X97040000Y-98055000D03*
D28*
X98610000Y-98065000D03*
X98610000Y-99715000D03*
D10*
X100180000Y-98115000D03*
X100180000Y-99665000D03*
D28*
X100220000Y-94095000D03*
X100220000Y-95745000D03*
D21*
X101840000Y-95665000D03*
X101840000Y-94115000D03*
D37*
X77650000Y-78670000D03*
D38*
X77650000Y-80670000D03*
X79650000Y-78670000D03*
X79650000Y-80670000D03*
X81650000Y-78670000D03*
X81650000Y-80670000D03*
X83650000Y-78670000D03*
X83650000Y-80670000D03*
X85650000Y-78670000D03*
X85650000Y-80670000D03*
M02*
