G04 #@! TF.GenerationSoftware,KiCad,Pcbnew,9.0.0*
G04 #@! TF.CreationDate,2025-09-02T12:19:59+03:00*
G04 #@! TF.ProjectId,GSM_SMA_V1.0,47534d5f-534d-4415-9f56-312e302e6b69,rev?*
G04 #@! TF.SameCoordinates,Original*
G04 #@! TF.FileFunction,Copper,L4,Bot*
G04 #@! TF.FilePolarity,Positive*
%FSLAX46Y46*%
G04 Gerber Fmt 4.6, Leading zero omitted, Abs format (unit mm)*
G04 Created by KiCad (PCBNEW 9.0.0) date 2025-09-02 12:19:59*
%MOMM*%
%LPD*%
G01*
G04 APERTURE LIST*
G04 Aperture macros list*
%AMRoundRect*
0 Rectangle with rounded corners*
0 $1 Rounding radius*
0 $2 $3 $4 $5 $6 $7 $8 $9 X,Y pos of 4 corners*
0 Add a 4 corners polygon primitive as box body*
4,1,4,$2,$3,$4,$5,$6,$7,$8,$9,$2,$3,0*
0 Add four circle primitives for the rounded corners*
1,1,$1+$1,$2,$3*
1,1,$1+$1,$4,$5*
1,1,$1+$1,$6,$7*
1,1,$1+$1,$8,$9*
0 Add four rect primitives between the rounded corners*
20,1,$1+$1,$2,$3,$4,$5,0*
20,1,$1+$1,$4,$5,$6,$7,0*
20,1,$1+$1,$6,$7,$8,$9,0*
20,1,$1+$1,$8,$9,$2,$3,0*%
%AMFreePoly0*
4,1,57,0.519269,3.056200,0.858190,2.978844,1.186319,2.864027,1.499529,2.713193,1.793881,2.528239,2.065674,2.311491,2.311491,2.065674,2.528239,1.793881,2.713193,1.499529,2.864027,1.186319,2.978844,0.858190,3.056200,0.519269,3.095123,0.173818,3.095123,-0.173818,3.056200,-0.519269,2.978844,-0.858190,2.864027,-1.186319,2.713193,-1.499529,2.528239,-1.793881,2.311491,-2.065674,
2.065674,-2.311491,1.793881,-2.528239,1.499529,-2.713193,1.186319,-2.864027,0.858190,-2.978844,0.519269,-3.056200,0.173818,-3.095123,-0.173818,-3.095123,-0.519269,-3.056200,-0.858190,-2.978844,-1.186319,-2.864027,-1.499529,-2.713193,-1.793881,-2.528239,-2.065674,-2.311491,-2.311491,-2.065674,-2.528239,-1.793881,-2.713193,-1.499529,-2.864027,-1.186319,-2.978844,-0.858190,-3.056200,-0.519269,
-3.095123,-0.173818,-3.095123,0.173818,-3.056200,0.519269,-2.978844,0.858190,-2.864027,1.186319,-2.713193,1.499529,-2.528239,1.793881,-2.311491,2.065674,-2.065674,2.311491,-1.793881,2.528239,-1.499529,2.713193,-1.186319,2.864027,-0.858190,2.978844,-0.519269,3.056200,-0.173818,3.095123,0.173818,3.095123,0.519269,3.056200,0.519269,3.056200,$1*%
%AMFreePoly1*
4,1,57,0.502519,2.957613,0.830507,2.882752,1.148050,2.771639,1.451157,2.625670,1.736014,2.446683,1.999040,2.236926,2.236926,1.999040,2.446683,1.736014,2.625670,1.451157,2.771639,1.148050,2.882752,0.830507,2.957613,0.502519,2.995280,0.168211,2.995280,-0.168211,2.957613,-0.502519,2.882752,-0.830507,2.771639,-1.148050,2.625670,-1.451157,2.446683,-1.736014,2.236926,-1.999040,
1.999040,-2.236926,1.736014,-2.446683,1.451157,-2.625670,1.148050,-2.771639,0.830507,-2.882752,0.502519,-2.957613,0.168211,-2.995280,-0.168211,-2.995280,-0.502519,-2.957613,-0.830507,-2.882752,-1.148050,-2.771639,-1.451157,-2.625670,-1.736014,-2.446683,-1.999040,-2.236926,-2.236926,-1.999040,-2.446683,-1.736014,-2.625670,-1.451157,-2.771639,-1.148050,-2.882752,-0.830507,-2.957613,-0.502519,
-2.995280,-0.168211,-2.995280,0.168211,-2.957613,0.502519,-2.882752,0.830507,-2.771639,1.148050,-2.625670,1.451157,-2.446683,1.736014,-2.236926,1.999040,-1.999040,2.236926,-1.736014,2.446683,-1.451157,2.625670,-1.148050,2.771639,-0.830507,2.882752,-0.502519,2.957613,-0.168211,2.995280,0.168211,2.995280,0.502519,2.957613,0.502519,2.957613,$1*%
G04 Aperture macros list end*
G04 #@! TA.AperFunction,WasherPad*
%ADD10FreePoly0,270.000000*%
G04 #@! TD*
G04 #@! TA.AperFunction,ComponentPad*
%ADD11O,2.500000X2.500000*%
G04 #@! TD*
G04 #@! TA.AperFunction,WasherPad*
%ADD12FreePoly1,270.000000*%
G04 #@! TD*
G04 #@! TA.AperFunction,SMDPad,CuDef*
%ADD13RoundRect,0.225000X-0.250000X0.225000X-0.250000X-0.225000X0.250000X-0.225000X0.250000X0.225000X0*%
G04 #@! TD*
G04 #@! TA.AperFunction,SMDPad,CuDef*
%ADD14RoundRect,0.200000X-0.275000X0.200000X-0.275000X-0.200000X0.275000X-0.200000X0.275000X0.200000X0*%
G04 #@! TD*
G04 #@! TA.AperFunction,SMDPad,CuDef*
%ADD15RoundRect,0.225000X0.225000X0.250000X-0.225000X0.250000X-0.225000X-0.250000X0.225000X-0.250000X0*%
G04 #@! TD*
G04 #@! TA.AperFunction,SMDPad,CuDef*
%ADD16RoundRect,0.130435X-0.419565X0.169565X-0.419565X-0.169565X0.419565X-0.169565X0.419565X0.169565X0*%
G04 #@! TD*
G04 #@! TA.AperFunction,SMDPad,CuDef*
%ADD17RoundRect,0.200000X-0.200000X-0.275000X0.200000X-0.275000X0.200000X0.275000X-0.200000X0.275000X0*%
G04 #@! TD*
G04 #@! TA.AperFunction,SMDPad,CuDef*
%ADD18RoundRect,0.200000X0.200000X0.275000X-0.200000X0.275000X-0.200000X-0.275000X0.200000X-0.275000X0*%
G04 #@! TD*
G04 #@! TA.AperFunction,SMDPad,CuDef*
%ADD19RoundRect,0.225000X0.250000X-0.225000X0.250000X0.225000X-0.250000X0.225000X-0.250000X-0.225000X0*%
G04 #@! TD*
G04 #@! TA.AperFunction,ComponentPad*
%ADD20R,1.350000X1.350000*%
G04 #@! TD*
G04 #@! TA.AperFunction,ComponentPad*
%ADD21O,1.350000X1.350000*%
G04 #@! TD*
G04 #@! TA.AperFunction,SMDPad,CuDef*
%ADD22R,1.300000X2.400000*%
G04 #@! TD*
G04 #@! TA.AperFunction,SMDPad,CuDef*
%ADD23RoundRect,0.200000X0.275000X-0.200000X0.275000X0.200000X-0.275000X0.200000X-0.275000X-0.200000X0*%
G04 #@! TD*
G04 #@! TA.AperFunction,ViaPad*
%ADD24C,0.400000*%
G04 #@! TD*
G04 #@! TA.AperFunction,ViaPad*
%ADD25C,0.508000*%
G04 #@! TD*
G04 #@! TA.AperFunction,ViaPad*
%ADD26C,0.500000*%
G04 #@! TD*
G04 #@! TA.AperFunction,Conductor*
%ADD27C,0.300000*%
G04 #@! TD*
G04 #@! TA.AperFunction,Conductor*
%ADD28C,0.350000*%
G04 #@! TD*
G04 #@! TA.AperFunction,Conductor*
%ADD29C,0.400000*%
G04 #@! TD*
G04 #@! TA.AperFunction,Conductor*
%ADD30C,0.254000*%
G04 #@! TD*
G04 #@! TA.AperFunction,Conductor*
%ADD31C,0.200000*%
G04 #@! TD*
G04 APERTURE END LIST*
D10*
X80130000Y-103490000D03*
D11*
X105860000Y-116690000D03*
X103285000Y-114115000D03*
X108435000Y-114115000D03*
X108435000Y-119265000D03*
X103285000Y-119265000D03*
D12*
X153630000Y-103490000D03*
D11*
X92610000Y-116690000D03*
X90035000Y-114115000D03*
X95185000Y-114115000D03*
X95185000Y-119265000D03*
X90035000Y-119265000D03*
X79360000Y-116690000D03*
X76785000Y-114115000D03*
X81935000Y-114115000D03*
X81935000Y-119265000D03*
X76785000Y-119265000D03*
D13*
X141990000Y-85745000D03*
X141990000Y-87295000D03*
D14*
X138245000Y-79760000D03*
X138245000Y-81410000D03*
D15*
X133755000Y-86710000D03*
X132205000Y-86710000D03*
D16*
X135750000Y-85515000D03*
X135750000Y-84565000D03*
X135750000Y-83615000D03*
X138250000Y-83615000D03*
X138250000Y-84565000D03*
X138250000Y-85515000D03*
D17*
X124795000Y-79420000D03*
X126445000Y-79420000D03*
D18*
X133725000Y-83630000D03*
X132075000Y-83630000D03*
D19*
X136695000Y-81370000D03*
X136695000Y-79820000D03*
D20*
X77650000Y-78670000D03*
D21*
X77650000Y-80670000D03*
X79650000Y-78670000D03*
X79650000Y-80670000D03*
X81650000Y-78670000D03*
X81650000Y-80670000D03*
X83650000Y-78670000D03*
X83650000Y-80670000D03*
X85650000Y-78670000D03*
X85650000Y-80670000D03*
D17*
X132105000Y-85180000D03*
X133755000Y-85180000D03*
D14*
X140370000Y-84240000D03*
X140370000Y-85890000D03*
D22*
X135620000Y-116490000D03*
X133080000Y-116490000D03*
X130540000Y-116490000D03*
X130540000Y-93290000D03*
X133080000Y-93290000D03*
X135620000Y-93290000D03*
X123220000Y-116490000D03*
X123220000Y-93290000D03*
D19*
X141990000Y-84270000D03*
X141990000Y-82720000D03*
D23*
X143510000Y-87345000D03*
X143510000Y-85695000D03*
D24*
X99910000Y-84640000D03*
X134770000Y-84570000D03*
D25*
X128430000Y-119620000D03*
X91120000Y-105740000D03*
X92810000Y-101520000D03*
X83010000Y-89640000D03*
X142190000Y-119650000D03*
X83000000Y-88770000D03*
D24*
X148400000Y-92500000D03*
X119250000Y-76510000D03*
X111875000Y-86295000D03*
X109110000Y-87150000D03*
D25*
X120995000Y-87965000D03*
D24*
X118490000Y-88120000D03*
X113060000Y-107010000D03*
X88460000Y-96120000D03*
X117770000Y-88090000D03*
X112990000Y-104470000D03*
D26*
X85790000Y-93160000D03*
D24*
X97520000Y-95980000D03*
X96910000Y-95970000D03*
X124340000Y-81310000D03*
X126880000Y-81250000D03*
X148270000Y-84880000D03*
X130910000Y-85200000D03*
X130220000Y-83630000D03*
X129430000Y-81040000D03*
X148330000Y-89960000D03*
D27*
X135750000Y-84565000D02*
X134775000Y-84565000D01*
X134775000Y-84565000D02*
X134770000Y-84570000D01*
X140370000Y-84240000D02*
X141960000Y-84240000D01*
X139420000Y-84240000D02*
X140370000Y-84240000D01*
X139095000Y-84565000D02*
X139420000Y-84240000D01*
X149280000Y-91620000D02*
X148400000Y-92500000D01*
X141960000Y-84240000D02*
X141990000Y-84270000D01*
X147610000Y-93290000D02*
X148400000Y-92500000D01*
X138250000Y-84565000D02*
X139095000Y-84565000D01*
X149280000Y-88930000D02*
X149280000Y-91620000D01*
X144620000Y-84270000D02*
X149280000Y-88930000D01*
X141990000Y-84270000D02*
X144620000Y-84270000D01*
X135620000Y-93290000D02*
X147610000Y-93290000D01*
X133755000Y-87355000D02*
X133755000Y-86710000D01*
X130540000Y-90570000D02*
X133755000Y-87355000D01*
X130540000Y-93290000D02*
X130540000Y-90570000D01*
X133755000Y-86710000D02*
X133755000Y-85180000D01*
X133755000Y-85180000D02*
X134420000Y-85180000D01*
X134755000Y-85515000D02*
X135750000Y-85515000D01*
X134420000Y-85180000D02*
X134755000Y-85515000D01*
X138245000Y-81410000D02*
X136735000Y-81410000D01*
D28*
X136735000Y-81410000D02*
X136695000Y-81370000D01*
D27*
X133080000Y-91280000D02*
X137000000Y-87360000D01*
X133080000Y-93290000D02*
X133080000Y-91280000D01*
X137000000Y-87360000D02*
X137000000Y-84110000D01*
X137495000Y-83615000D02*
X138250000Y-83615000D01*
X138245000Y-83610000D02*
X138250000Y-83615000D01*
X138245000Y-81410000D02*
X138245000Y-83610000D01*
X137000000Y-84110000D02*
X137495000Y-83615000D01*
D29*
X138250000Y-85515000D02*
X139035000Y-85515000D01*
D27*
X134320000Y-95620000D02*
X134320000Y-91580000D01*
X130540000Y-99400000D02*
X134320000Y-95620000D01*
X138250000Y-87650000D02*
X138250000Y-85515000D01*
D29*
X140370000Y-85890000D02*
X141845000Y-85890000D01*
D27*
X130540000Y-116490000D02*
X130540000Y-99400000D01*
D29*
X143460000Y-85745000D02*
X143510000Y-85695000D01*
X139035000Y-85515000D02*
X139410000Y-85890000D01*
X141990000Y-85745000D02*
X143460000Y-85745000D01*
D27*
X134320000Y-91580000D02*
X138250000Y-87650000D01*
D29*
X141845000Y-85890000D02*
X141990000Y-85745000D01*
X139410000Y-85890000D02*
X140370000Y-85890000D01*
D30*
X119250000Y-77715000D02*
X119250000Y-76510000D01*
X118397936Y-79772063D02*
X111875000Y-86295000D01*
X119250000Y-77715000D02*
G75*
G02*
X118397931Y-79772058I-2909100J0D01*
G01*
D27*
X109110000Y-87150000D02*
X109131000Y-87171000D01*
X120201000Y-87171000D02*
X120995000Y-87965000D01*
X109131000Y-87171000D02*
X120201000Y-87171000D01*
D31*
X118300000Y-88500000D02*
X118300000Y-88310000D01*
X114152000Y-105918000D02*
X113060000Y-107010000D01*
X118300000Y-88310000D02*
X118490000Y-88120000D01*
X118300000Y-88500000D02*
X118300000Y-104720000D01*
X117102000Y-105918000D02*
X114152000Y-105918000D01*
X118300000Y-104720000D02*
X117102000Y-105918000D01*
D27*
X82370000Y-77260000D02*
X87290000Y-77260000D01*
X88460000Y-78430000D02*
X88460000Y-96120000D01*
X81650000Y-77980000D02*
X82370000Y-77260000D01*
X81650000Y-78670000D02*
X81650000Y-77980000D01*
X87290000Y-77260000D02*
X88460000Y-78430000D01*
D31*
X114110000Y-105590000D02*
X116966138Y-105590000D01*
X112990000Y-104470000D02*
X114110000Y-105590000D01*
X117972000Y-88292000D02*
X117770000Y-88090000D01*
X117972000Y-104584138D02*
X117972000Y-88292000D01*
X116966138Y-105590000D02*
X117972000Y-104584138D01*
X124795000Y-80855000D02*
X124340000Y-81310000D01*
X124795000Y-79420000D02*
X124795000Y-80855000D01*
X126445000Y-79420000D02*
X126445000Y-80815000D01*
X126445000Y-80815000D02*
X126880000Y-81250000D01*
D27*
X142120000Y-79760000D02*
X147240000Y-84880000D01*
X138245000Y-79760000D02*
X142120000Y-79760000D01*
X147240000Y-84880000D02*
X148270000Y-84880000D01*
X132105000Y-85180000D02*
X130930000Y-85180000D01*
X130930000Y-85180000D02*
X130910000Y-85200000D01*
X130220000Y-83630000D02*
X132075000Y-83630000D01*
X123220000Y-88530000D02*
X129430000Y-82320000D01*
X135735000Y-83630000D02*
X135750000Y-83615000D01*
X132980000Y-81040000D02*
X129430000Y-81040000D01*
X133725000Y-81785000D02*
X133510000Y-81570000D01*
X123220000Y-93290000D02*
X123220000Y-88530000D01*
X133725000Y-83630000D02*
X135735000Y-83630000D01*
X133510000Y-81570000D02*
X132980000Y-81040000D01*
X133725000Y-83630000D02*
X133725000Y-81785000D01*
X129430000Y-82320000D02*
X129430000Y-81040000D01*
X144795000Y-87345000D02*
X147410000Y-89960000D01*
X147410000Y-89960000D02*
X148330000Y-89960000D01*
X143510000Y-87345000D02*
X144795000Y-87345000D01*
G04 #@! TA.AperFunction,Conductor*
G36*
X77900000Y-80354314D02*
G01*
X77895606Y-80349920D01*
X77804394Y-80297259D01*
X77702661Y-80270000D01*
X77597339Y-80270000D01*
X77495606Y-80297259D01*
X77404394Y-80349920D01*
X77400000Y-80354314D01*
X77400000Y-78985686D01*
X77404394Y-78990080D01*
X77495606Y-79042741D01*
X77597339Y-79070000D01*
X77702661Y-79070000D01*
X77804394Y-79042741D01*
X77895606Y-78990080D01*
X77900000Y-78985686D01*
X77900000Y-80354314D01*
G37*
G04 #@! TD.AperFunction*
G04 #@! TA.AperFunction,Conductor*
G36*
X156975148Y-75854852D02*
G01*
X156989500Y-75889500D01*
X156989500Y-121490500D01*
X156975148Y-121525148D01*
X156940500Y-121539500D01*
X75339500Y-121539500D01*
X75304852Y-121525148D01*
X75290500Y-121490500D01*
X75290500Y-120336369D01*
X75304852Y-120301721D01*
X75339500Y-120287369D01*
X75374148Y-120301721D01*
X75378374Y-120306540D01*
X75466452Y-120421325D01*
X75466462Y-120421337D01*
X75628662Y-120583537D01*
X75628674Y-120583547D01*
X75810653Y-120723185D01*
X75810668Y-120723195D01*
X76009333Y-120837894D01*
X76009332Y-120837894D01*
X76221272Y-120925682D01*
X76221278Y-120925684D01*
X76442847Y-120985054D01*
X76535000Y-120997187D01*
X76535000Y-119973240D01*
X76566233Y-119986178D01*
X76711131Y-120015000D01*
X76858869Y-120015000D01*
X77003767Y-119986178D01*
X77035000Y-119973240D01*
X77035000Y-120997186D01*
X77127152Y-120985054D01*
X77348721Y-120925684D01*
X77348727Y-120925682D01*
X77560667Y-120837894D01*
X77759331Y-120723195D01*
X77759346Y-120723185D01*
X77941325Y-120583547D01*
X77941337Y-120583537D01*
X78103537Y-120421337D01*
X78103547Y-120421325D01*
X78243185Y-120239346D01*
X78243195Y-120239331D01*
X78357894Y-120040667D01*
X78445682Y-119828727D01*
X78445684Y-119828721D01*
X78505054Y-119607152D01*
X78517188Y-119515000D01*
X77493241Y-119515000D01*
X77506178Y-119483767D01*
X77535000Y-119338869D01*
X77535000Y-119191131D01*
X77506178Y-119046233D01*
X77493241Y-119015000D01*
X78517187Y-119015000D01*
X80202812Y-119015000D01*
X81226759Y-119015000D01*
X81213822Y-119046233D01*
X81185000Y-119191131D01*
X81185000Y-119338869D01*
X81213822Y-119483767D01*
X81226759Y-119515000D01*
X80202812Y-119515000D01*
X80214945Y-119607152D01*
X80274315Y-119828721D01*
X80274317Y-119828727D01*
X80362105Y-120040667D01*
X80476804Y-120239331D01*
X80476814Y-120239346D01*
X80616452Y-120421325D01*
X80616462Y-120421337D01*
X80778662Y-120583537D01*
X80778674Y-120583547D01*
X80960653Y-120723185D01*
X80960668Y-120723195D01*
X81159333Y-120837894D01*
X81159332Y-120837894D01*
X81371272Y-120925682D01*
X81371278Y-120925684D01*
X81592847Y-120985054D01*
X81685000Y-120997187D01*
X81685000Y-119973240D01*
X81716233Y-119986178D01*
X81861131Y-120015000D01*
X82008869Y-120015000D01*
X82153767Y-119986178D01*
X82185000Y-119973240D01*
X82185000Y-120997186D01*
X82277152Y-120985054D01*
X82498721Y-120925684D01*
X82498727Y-120925682D01*
X82710667Y-120837894D01*
X82909331Y-120723195D01*
X82909346Y-120723185D01*
X83091325Y-120583547D01*
X83091337Y-120583537D01*
X83253537Y-120421337D01*
X83253547Y-120421325D01*
X83393185Y-120239346D01*
X83393195Y-120239331D01*
X83507894Y-120040667D01*
X83595682Y-119828727D01*
X83595684Y-119828721D01*
X83655054Y-119607152D01*
X83667188Y-119515000D01*
X82643241Y-119515000D01*
X82656178Y-119483767D01*
X82685000Y-119338869D01*
X82685000Y-119191131D01*
X82656178Y-119046233D01*
X82643241Y-119015000D01*
X83667187Y-119015000D01*
X88302812Y-119015000D01*
X89326759Y-119015000D01*
X89313822Y-119046233D01*
X89285000Y-119191131D01*
X89285000Y-119338869D01*
X89313822Y-119483767D01*
X89326759Y-119515000D01*
X88302812Y-119515000D01*
X88314945Y-119607152D01*
X88374315Y-119828721D01*
X88374317Y-119828727D01*
X88462105Y-120040667D01*
X88576804Y-120239331D01*
X88576814Y-120239346D01*
X88716452Y-120421325D01*
X88716462Y-120421337D01*
X88878662Y-120583537D01*
X88878674Y-120583547D01*
X89060653Y-120723185D01*
X89060668Y-120723195D01*
X89259333Y-120837894D01*
X89259332Y-120837894D01*
X89471272Y-120925682D01*
X89471278Y-120925684D01*
X89692847Y-120985054D01*
X89785000Y-120997187D01*
X89785000Y-119973240D01*
X89816233Y-119986178D01*
X89961131Y-120015000D01*
X90108869Y-120015000D01*
X90253767Y-119986178D01*
X90285000Y-119973240D01*
X90285000Y-120997186D01*
X90377152Y-120985054D01*
X90598721Y-120925684D01*
X90598727Y-120925682D01*
X90810667Y-120837894D01*
X91009331Y-120723195D01*
X91009346Y-120723185D01*
X91191325Y-120583547D01*
X91191337Y-120583537D01*
X91353537Y-120421337D01*
X91353547Y-120421325D01*
X91493185Y-120239346D01*
X91493195Y-120239331D01*
X91607894Y-120040667D01*
X91695682Y-119828727D01*
X91695684Y-119828721D01*
X91755054Y-119607152D01*
X91767188Y-119515000D01*
X90743241Y-119515000D01*
X90756178Y-119483767D01*
X90785000Y-119338869D01*
X90785000Y-119191131D01*
X90756178Y-119046233D01*
X90743241Y-119015000D01*
X91767187Y-119015000D01*
X93452812Y-119015000D01*
X94476759Y-119015000D01*
X94463822Y-119046233D01*
X94435000Y-119191131D01*
X94435000Y-119338869D01*
X94463822Y-119483767D01*
X94476759Y-119515000D01*
X93452812Y-119515000D01*
X93464945Y-119607152D01*
X93524315Y-119828721D01*
X93524317Y-119828727D01*
X93612105Y-120040667D01*
X93726804Y-120239331D01*
X93726814Y-120239346D01*
X93866452Y-120421325D01*
X93866462Y-120421337D01*
X94028662Y-120583537D01*
X94028674Y-120583547D01*
X94210653Y-120723185D01*
X94210668Y-120723195D01*
X94409333Y-120837894D01*
X94409332Y-120837894D01*
X94621272Y-120925682D01*
X94621278Y-120925684D01*
X94842847Y-120985054D01*
X94935000Y-120997187D01*
X94935000Y-119973240D01*
X94966233Y-119986178D01*
X95111131Y-120015000D01*
X95258869Y-120015000D01*
X95403767Y-119986178D01*
X95435000Y-119973240D01*
X95435000Y-120997186D01*
X95527152Y-120985054D01*
X95748721Y-120925684D01*
X95748727Y-120925682D01*
X95960667Y-120837894D01*
X96159331Y-120723195D01*
X96159346Y-120723185D01*
X96341325Y-120583547D01*
X96341337Y-120583537D01*
X96503537Y-120421337D01*
X96503547Y-120421325D01*
X96643185Y-120239346D01*
X96643195Y-120239331D01*
X96757894Y-120040667D01*
X96845682Y-119828727D01*
X96845684Y-119828721D01*
X96905054Y-119607152D01*
X96917188Y-119515000D01*
X95893241Y-119515000D01*
X95906178Y-119483767D01*
X95935000Y-119338869D01*
X95935000Y-119191131D01*
X95906178Y-119046233D01*
X95893241Y-119015000D01*
X96917187Y-119015000D01*
X101552812Y-119015000D01*
X102576759Y-119015000D01*
X102563822Y-119046233D01*
X102535000Y-119191131D01*
X102535000Y-119338869D01*
X102563822Y-119483767D01*
X102576759Y-119515000D01*
X101552812Y-119515000D01*
X101564945Y-119607152D01*
X101624315Y-119828721D01*
X101624317Y-119828727D01*
X101712105Y-120040667D01*
X101826804Y-120239331D01*
X101826814Y-120239346D01*
X101966452Y-120421325D01*
X101966462Y-120421337D01*
X102128662Y-120583537D01*
X102128674Y-120583547D01*
X102310653Y-120723185D01*
X102310668Y-120723195D01*
X102509333Y-120837894D01*
X102509332Y-120837894D01*
X102721272Y-120925682D01*
X102721278Y-120925684D01*
X102942847Y-120985054D01*
X103035000Y-120997187D01*
X103035000Y-119973240D01*
X103066233Y-119986178D01*
X103211131Y-120015000D01*
X103358869Y-120015000D01*
X103503767Y-119986178D01*
X103535000Y-119973240D01*
X103535000Y-120997186D01*
X103627152Y-120985054D01*
X103848721Y-120925684D01*
X103848727Y-120925682D01*
X104060667Y-120837894D01*
X104259331Y-120723195D01*
X104259346Y-120723185D01*
X104441325Y-120583547D01*
X104441337Y-120583537D01*
X104603537Y-120421337D01*
X104603547Y-120421325D01*
X104743185Y-120239346D01*
X104743195Y-120239331D01*
X104857894Y-120040667D01*
X104945682Y-119828727D01*
X104945684Y-119828721D01*
X105005054Y-119607152D01*
X105017188Y-119515000D01*
X103993241Y-119515000D01*
X104006178Y-119483767D01*
X104035000Y-119338869D01*
X104035000Y-119191131D01*
X104006178Y-119046233D01*
X103993241Y-119015000D01*
X105017187Y-119015000D01*
X106702812Y-119015000D01*
X107726759Y-119015000D01*
X107713822Y-119046233D01*
X107685000Y-119191131D01*
X107685000Y-119338869D01*
X107713822Y-119483767D01*
X107726759Y-119515000D01*
X106702812Y-119515000D01*
X106714945Y-119607152D01*
X106774315Y-119828721D01*
X106774317Y-119828727D01*
X106862105Y-120040667D01*
X106976804Y-120239331D01*
X106976814Y-120239346D01*
X107116452Y-120421325D01*
X107116462Y-120421337D01*
X107278662Y-120583537D01*
X107278674Y-120583547D01*
X107460653Y-120723185D01*
X107460668Y-120723195D01*
X107659333Y-120837894D01*
X107659332Y-120837894D01*
X107871272Y-120925682D01*
X107871278Y-120925684D01*
X108092847Y-120985054D01*
X108185000Y-120997187D01*
X108185000Y-119973240D01*
X108216233Y-119986178D01*
X108361131Y-120015000D01*
X108508869Y-120015000D01*
X108653767Y-119986178D01*
X108685000Y-119973240D01*
X108685000Y-120997186D01*
X108777152Y-120985054D01*
X108998721Y-120925684D01*
X108998727Y-120925682D01*
X109210667Y-120837894D01*
X109409331Y-120723195D01*
X109409346Y-120723185D01*
X109591325Y-120583547D01*
X109591337Y-120583537D01*
X109753537Y-120421337D01*
X109753547Y-120421325D01*
X109893185Y-120239346D01*
X109893195Y-120239331D01*
X110007894Y-120040667D01*
X110095682Y-119828727D01*
X110095684Y-119828721D01*
X110155054Y-119607152D01*
X110161241Y-119560160D01*
X127975500Y-119560160D01*
X127975500Y-119679839D01*
X128006472Y-119795430D01*
X128006473Y-119795433D01*
X128025696Y-119828727D01*
X128066309Y-119899070D01*
X128150930Y-119983691D01*
X128155238Y-119986178D01*
X128254566Y-120043526D01*
X128254569Y-120043527D01*
X128370160Y-120074499D01*
X128370161Y-120074500D01*
X128370164Y-120074500D01*
X128489839Y-120074500D01*
X128489839Y-120074499D01*
X128605431Y-120043527D01*
X128709070Y-119983691D01*
X128793691Y-119899070D01*
X128853527Y-119795431D01*
X128884499Y-119679839D01*
X128884500Y-119679839D01*
X128884500Y-119590160D01*
X141735500Y-119590160D01*
X141735500Y-119709839D01*
X141766472Y-119825430D01*
X141766473Y-119825433D01*
X141808988Y-119899070D01*
X141826309Y-119929070D01*
X141910930Y-120013691D01*
X141948862Y-120035591D01*
X142014566Y-120073526D01*
X142014569Y-120073527D01*
X142130160Y-120104499D01*
X142130161Y-120104500D01*
X142130164Y-120104500D01*
X142249839Y-120104500D01*
X142249839Y-120104499D01*
X142365431Y-120073527D01*
X142469070Y-120013691D01*
X142553691Y-119929070D01*
X142613527Y-119825431D01*
X142644499Y-119709839D01*
X142644500Y-119709839D01*
X142644500Y-119590161D01*
X142644499Y-119590160D01*
X142613527Y-119474569D01*
X142613526Y-119474566D01*
X142553690Y-119370929D01*
X142469070Y-119286309D01*
X142365433Y-119226473D01*
X142365430Y-119226472D01*
X142249839Y-119195500D01*
X142249836Y-119195500D01*
X142130164Y-119195500D01*
X142130161Y-119195500D01*
X142014569Y-119226472D01*
X142014566Y-119226473D01*
X141910929Y-119286309D01*
X141910929Y-119286310D01*
X141826310Y-119370929D01*
X141826309Y-119370929D01*
X141766473Y-119474566D01*
X141766472Y-119474569D01*
X141735500Y-119590160D01*
X128884500Y-119590160D01*
X128884500Y-119560161D01*
X128884499Y-119560160D01*
X128853527Y-119444569D01*
X128853526Y-119444566D01*
X128815591Y-119378862D01*
X128793691Y-119340930D01*
X128709070Y-119256309D01*
X128605433Y-119196473D01*
X128605430Y-119196472D01*
X128489839Y-119165500D01*
X128489836Y-119165500D01*
X128370164Y-119165500D01*
X128370161Y-119165500D01*
X128254569Y-119196472D01*
X128254566Y-119196473D01*
X128150929Y-119256309D01*
X128150929Y-119256310D01*
X128066310Y-119340929D01*
X128066309Y-119340929D01*
X128006473Y-119444566D01*
X128006472Y-119444569D01*
X127975500Y-119560160D01*
X110161241Y-119560160D01*
X110162506Y-119550556D01*
X110162506Y-119550555D01*
X110167188Y-119515000D01*
X109143241Y-119515000D01*
X109156178Y-119483767D01*
X109185000Y-119338869D01*
X109185000Y-119191131D01*
X109156178Y-119046233D01*
X109143241Y-119015000D01*
X110167187Y-119015000D01*
X110155054Y-118922847D01*
X110095684Y-118701278D01*
X110095682Y-118701272D01*
X110007894Y-118489332D01*
X109893195Y-118290668D01*
X109893185Y-118290653D01*
X109753547Y-118108674D01*
X109753537Y-118108662D01*
X109591337Y-117946462D01*
X109591325Y-117946452D01*
X109409346Y-117806814D01*
X109409331Y-117806804D01*
X109289871Y-117737834D01*
X122070000Y-117737834D01*
X122076401Y-117797372D01*
X122076401Y-117797373D01*
X122126648Y-117932091D01*
X122212811Y-118047188D01*
X122327908Y-118133351D01*
X122462626Y-118183598D01*
X122522166Y-118190000D01*
X122970000Y-118190000D01*
X123470000Y-118190000D01*
X123917834Y-118190000D01*
X123977372Y-118183598D01*
X123977373Y-118183598D01*
X124112091Y-118133351D01*
X124227188Y-118047188D01*
X124313351Y-117932091D01*
X124363598Y-117797373D01*
X124363598Y-117797372D01*
X124370000Y-117737834D01*
X124370000Y-116740000D01*
X123470000Y-116740000D01*
X123470000Y-118190000D01*
X122970000Y-118190000D01*
X122970000Y-116740000D01*
X122070000Y-116740000D01*
X122070000Y-117737834D01*
X109289871Y-117737834D01*
X109210666Y-117692105D01*
X109210667Y-117692105D01*
X108998727Y-117604317D01*
X108998721Y-117604315D01*
X108777152Y-117544945D01*
X108685000Y-117532812D01*
X108685000Y-118556759D01*
X108653767Y-118543822D01*
X108508869Y-118515000D01*
X108361131Y-118515000D01*
X108216233Y-118543822D01*
X108185000Y-118556759D01*
X108185000Y-117532812D01*
X108092847Y-117544945D01*
X107871278Y-117604315D01*
X107871272Y-117604317D01*
X107659332Y-117692105D01*
X107460668Y-117806804D01*
X107460653Y-117806814D01*
X107278674Y-117946452D01*
X107278662Y-117946462D01*
X107116462Y-118108662D01*
X107116452Y-118108674D01*
X106976814Y-118290653D01*
X106976804Y-118290668D01*
X106862105Y-118489332D01*
X106774317Y-118701272D01*
X106774315Y-118701278D01*
X106714945Y-118922847D01*
X106702812Y-119015000D01*
X105017187Y-119015000D01*
X105005054Y-118922847D01*
X104945684Y-118701278D01*
X104945682Y-118701272D01*
X104857894Y-118489332D01*
X104743195Y-118290668D01*
X104743185Y-118290653D01*
X104603547Y-118108674D01*
X104603537Y-118108662D01*
X104441337Y-117946462D01*
X104441325Y-117946452D01*
X104259346Y-117806814D01*
X104259331Y-117806804D01*
X104060666Y-117692105D01*
X104060667Y-117692105D01*
X103848727Y-117604317D01*
X103848721Y-117604315D01*
X103627152Y-117544945D01*
X103535000Y-117532812D01*
X103535000Y-118556759D01*
X103503767Y-118543822D01*
X103358869Y-118515000D01*
X103211131Y-118515000D01*
X103066233Y-118543822D01*
X103035000Y-118556759D01*
X103035000Y-117532812D01*
X102942847Y-117544945D01*
X102721278Y-117604315D01*
X102721272Y-117604317D01*
X102509332Y-117692105D01*
X102310668Y-117806804D01*
X102310653Y-117806814D01*
X102128674Y-117946452D01*
X102128662Y-117946462D01*
X101966462Y-118108662D01*
X101966452Y-118108674D01*
X101826814Y-118290653D01*
X101826804Y-118290668D01*
X101712105Y-118489332D01*
X101624317Y-118701272D01*
X101624315Y-118701278D01*
X101564945Y-118922847D01*
X101552812Y-119015000D01*
X96917187Y-119015000D01*
X96905054Y-118922847D01*
X96845684Y-118701278D01*
X96845682Y-118701272D01*
X96757894Y-118489332D01*
X96643195Y-118290668D01*
X96643185Y-118290653D01*
X96503547Y-118108674D01*
X96503537Y-118108662D01*
X96341337Y-117946462D01*
X96341325Y-117946452D01*
X96159346Y-117806814D01*
X96159331Y-117806804D01*
X95960666Y-117692105D01*
X95960667Y-117692105D01*
X95748727Y-117604317D01*
X95748721Y-117604315D01*
X95527152Y-117544945D01*
X95435000Y-117532812D01*
X95435000Y-118556759D01*
X95403767Y-118543822D01*
X95258869Y-118515000D01*
X95111131Y-118515000D01*
X94966233Y-118543822D01*
X94935000Y-118556759D01*
X94935000Y-117532812D01*
X94842847Y-117544945D01*
X94621278Y-117604315D01*
X94621272Y-117604317D01*
X94409332Y-117692105D01*
X94210668Y-117806804D01*
X94210653Y-117806814D01*
X94028674Y-117946452D01*
X94028662Y-117946462D01*
X93866462Y-118108662D01*
X93866452Y-118108674D01*
X93726814Y-118290653D01*
X93726804Y-118290668D01*
X93612105Y-118489332D01*
X93524317Y-118701272D01*
X93524315Y-118701278D01*
X93464945Y-118922847D01*
X93452812Y-119015000D01*
X91767187Y-119015000D01*
X91755054Y-118922847D01*
X91695684Y-118701278D01*
X91695682Y-118701272D01*
X91607894Y-118489332D01*
X91493195Y-118290668D01*
X91493185Y-118290653D01*
X91353547Y-118108674D01*
X91353537Y-118108662D01*
X91191337Y-117946462D01*
X91191325Y-117946452D01*
X91009346Y-117806814D01*
X91009331Y-117806804D01*
X90810666Y-117692105D01*
X90810667Y-117692105D01*
X90598727Y-117604317D01*
X90598721Y-117604315D01*
X90377152Y-117544945D01*
X90285000Y-117532812D01*
X90285000Y-118556759D01*
X90253767Y-118543822D01*
X90108869Y-118515000D01*
X89961131Y-118515000D01*
X89816233Y-118543822D01*
X89785000Y-118556759D01*
X89785000Y-117532812D01*
X89692847Y-117544945D01*
X89471278Y-117604315D01*
X89471272Y-117604317D01*
X89259332Y-117692105D01*
X89060668Y-117806804D01*
X89060653Y-117806814D01*
X88878674Y-117946452D01*
X88878662Y-117946462D01*
X88716462Y-118108662D01*
X88716452Y-118108674D01*
X88576814Y-118290653D01*
X88576804Y-118290668D01*
X88462105Y-118489332D01*
X88374317Y-118701272D01*
X88374315Y-118701278D01*
X88314945Y-118922847D01*
X88302812Y-119015000D01*
X83667187Y-119015000D01*
X83655054Y-118922847D01*
X83595684Y-118701278D01*
X83595682Y-118701272D01*
X83507894Y-118489332D01*
X83393195Y-118290668D01*
X83393185Y-118290653D01*
X83253547Y-118108674D01*
X83253537Y-118108662D01*
X83091337Y-117946462D01*
X83091325Y-117946452D01*
X82909346Y-117806814D01*
X82909331Y-117806804D01*
X82710666Y-117692105D01*
X82710667Y-117692105D01*
X82498727Y-117604317D01*
X82498721Y-117604315D01*
X82277152Y-117544945D01*
X82185000Y-117532812D01*
X82185000Y-118556759D01*
X82153767Y-118543822D01*
X82008869Y-118515000D01*
X81861131Y-118515000D01*
X81716233Y-118543822D01*
X81685000Y-118556759D01*
X81685000Y-117532812D01*
X81592847Y-117544945D01*
X81371278Y-117604315D01*
X81371272Y-117604317D01*
X81159332Y-117692105D01*
X80960668Y-117806804D01*
X80960653Y-117806814D01*
X80778674Y-117946452D01*
X80778662Y-117946462D01*
X80616462Y-118108662D01*
X80616452Y-118108674D01*
X80476814Y-118290653D01*
X80476804Y-118290668D01*
X80362105Y-118489332D01*
X80274317Y-118701272D01*
X80274315Y-118701278D01*
X80214945Y-118922847D01*
X80202812Y-119015000D01*
X78517187Y-119015000D01*
X78505054Y-118922847D01*
X78445684Y-118701278D01*
X78445682Y-118701272D01*
X78357894Y-118489332D01*
X78243195Y-118290668D01*
X78243185Y-118290653D01*
X78103547Y-118108674D01*
X78103537Y-118108662D01*
X77941337Y-117946462D01*
X77941325Y-117946452D01*
X77759346Y-117806814D01*
X77759331Y-117806804D01*
X77560666Y-117692105D01*
X77560667Y-117692105D01*
X77348727Y-117604317D01*
X77348721Y-117604315D01*
X77127152Y-117544945D01*
X77035000Y-117532812D01*
X77035000Y-118556759D01*
X77003767Y-118543822D01*
X76858869Y-118515000D01*
X76711131Y-118515000D01*
X76566233Y-118543822D01*
X76535000Y-118556759D01*
X76535000Y-117532812D01*
X76442847Y-117544945D01*
X76221278Y-117604315D01*
X76221272Y-117604317D01*
X76009332Y-117692105D01*
X75810668Y-117806804D01*
X75810653Y-117806814D01*
X75628674Y-117946452D01*
X75628662Y-117946462D01*
X75466462Y-118108662D01*
X75466452Y-118108674D01*
X75378374Y-118223459D01*
X75345896Y-118242211D01*
X75309671Y-118232504D01*
X75290919Y-118200026D01*
X75290500Y-118193630D01*
X75290500Y-116575843D01*
X77909500Y-116575843D01*
X77909500Y-116804156D01*
X77945215Y-117029657D01*
X77945216Y-117029660D01*
X78015769Y-117246800D01*
X78119417Y-117450221D01*
X78119421Y-117450228D01*
X78253621Y-117634937D01*
X78253623Y-117634939D01*
X78253626Y-117634943D01*
X78415056Y-117796373D01*
X78415059Y-117796375D01*
X78415063Y-117796379D01*
X78599772Y-117930579D01*
X78803201Y-118034231D01*
X79020340Y-118104784D01*
X79245843Y-118140500D01*
X79245844Y-118140500D01*
X79474156Y-118140500D01*
X79474157Y-118140500D01*
X79699660Y-118104784D01*
X79916799Y-118034231D01*
X80120228Y-117930579D01*
X80304937Y-117796379D01*
X80466379Y-117634937D01*
X80600579Y-117450228D01*
X80704231Y-117246799D01*
X80774784Y-117029660D01*
X80810500Y-116804157D01*
X80810500Y-116575843D01*
X91159500Y-116575843D01*
X91159500Y-116804156D01*
X91195215Y-117029657D01*
X91195216Y-117029660D01*
X91265769Y-117246800D01*
X91369417Y-117450221D01*
X91369421Y-117450228D01*
X91503621Y-117634937D01*
X91503623Y-117634939D01*
X91503626Y-117634943D01*
X91665056Y-117796373D01*
X91665059Y-117796375D01*
X91665063Y-117796379D01*
X91849772Y-117930579D01*
X92053201Y-118034231D01*
X92270340Y-118104784D01*
X92495843Y-118140500D01*
X92495844Y-118140500D01*
X92724156Y-118140500D01*
X92724157Y-118140500D01*
X92949660Y-118104784D01*
X93166799Y-118034231D01*
X93370228Y-117930579D01*
X93554937Y-117796379D01*
X93716379Y-117634937D01*
X93850579Y-117450228D01*
X93954231Y-117246799D01*
X94024784Y-117029660D01*
X94060500Y-116804157D01*
X94060500Y-116575843D01*
X104409500Y-116575843D01*
X104409500Y-116804156D01*
X104445215Y-117029657D01*
X104445216Y-117029660D01*
X104515769Y-117246800D01*
X104619417Y-117450221D01*
X104619421Y-117450228D01*
X104753621Y-117634937D01*
X104753623Y-117634939D01*
X104753626Y-117634943D01*
X104915056Y-117796373D01*
X104915059Y-117796375D01*
X104915063Y-117796379D01*
X105099772Y-117930579D01*
X105303201Y-118034231D01*
X105520340Y-118104784D01*
X105745843Y-118140500D01*
X105745844Y-118140500D01*
X105974156Y-118140500D01*
X105974157Y-118140500D01*
X106199660Y-118104784D01*
X106416799Y-118034231D01*
X106620228Y-117930579D01*
X106804937Y-117796379D01*
X106966379Y-117634937D01*
X107100579Y-117450228D01*
X107204231Y-117246799D01*
X107274784Y-117029660D01*
X107310500Y-116804157D01*
X107310500Y-116575843D01*
X107274784Y-116350340D01*
X107204231Y-116133201D01*
X107100579Y-115929772D01*
X106966379Y-115745063D01*
X106966375Y-115745059D01*
X106966373Y-115745056D01*
X106804943Y-115583626D01*
X106804939Y-115583623D01*
X106804937Y-115583621D01*
X106620228Y-115449421D01*
X106620222Y-115449418D01*
X106620221Y-115449417D01*
X106416800Y-115345769D01*
X106199660Y-115275216D01*
X106199657Y-115275215D01*
X105990983Y-115242165D01*
X105974157Y-115239500D01*
X105745843Y-115239500D01*
X105729017Y-115242165D01*
X105520342Y-115275215D01*
X105520339Y-115275216D01*
X105303199Y-115345769D01*
X105099778Y-115449417D01*
X104915056Y-115583626D01*
X104753626Y-115745056D01*
X104619417Y-115929778D01*
X104515769Y-116133199D01*
X104445216Y-116350339D01*
X104445215Y-116350342D01*
X104409500Y-116575843D01*
X94060500Y-116575843D01*
X94024784Y-116350340D01*
X93954231Y-116133201D01*
X93850579Y-115929772D01*
X93716379Y-115745063D01*
X93716375Y-115745059D01*
X93716373Y-115745056D01*
X93554943Y-115583626D01*
X93554939Y-115583623D01*
X93554937Y-115583621D01*
X93370228Y-115449421D01*
X93370222Y-115449418D01*
X93370221Y-115449417D01*
X93166800Y-115345769D01*
X92949660Y-115275216D01*
X92949657Y-115275215D01*
X92740983Y-115242165D01*
X92724157Y-115239500D01*
X92495843Y-115239500D01*
X92479017Y-115242165D01*
X92270342Y-115275215D01*
X92270339Y-115275216D01*
X92053199Y-115345769D01*
X91849778Y-115449417D01*
X91665056Y-115583626D01*
X91503626Y-115745056D01*
X91369417Y-115929778D01*
X91265769Y-116133199D01*
X91195216Y-116350339D01*
X91195215Y-116350342D01*
X91159500Y-116575843D01*
X80810500Y-116575843D01*
X80774784Y-116350340D01*
X80704231Y-116133201D01*
X80600579Y-115929772D01*
X80466379Y-115745063D01*
X80466375Y-115745059D01*
X80466373Y-115745056D01*
X80304943Y-115583626D01*
X80304939Y-115583623D01*
X80304937Y-115583621D01*
X80120228Y-115449421D01*
X80120222Y-115449418D01*
X80120221Y-115449417D01*
X79916800Y-115345769D01*
X79699660Y-115275216D01*
X79699657Y-115275215D01*
X79490983Y-115242165D01*
X79474157Y-115239500D01*
X79245843Y-115239500D01*
X79229017Y-115242165D01*
X79020342Y-115275215D01*
X79020339Y-115275216D01*
X78803199Y-115345769D01*
X78599778Y-115449417D01*
X78415056Y-115583626D01*
X78253626Y-115745056D01*
X78119417Y-115929778D01*
X78015769Y-116133199D01*
X77945216Y-116350339D01*
X77945215Y-116350342D01*
X77909500Y-116575843D01*
X75290500Y-116575843D01*
X75290500Y-115186369D01*
X75304852Y-115151721D01*
X75339500Y-115137369D01*
X75374148Y-115151721D01*
X75378374Y-115156540D01*
X75466452Y-115271325D01*
X75466462Y-115271337D01*
X75628662Y-115433537D01*
X75628674Y-115433547D01*
X75810653Y-115573185D01*
X75810668Y-115573195D01*
X76009333Y-115687894D01*
X76009332Y-115687894D01*
X76221272Y-115775682D01*
X76221278Y-115775684D01*
X76442847Y-115835054D01*
X76535000Y-115847187D01*
X76535000Y-114823240D01*
X76566233Y-114836178D01*
X76711131Y-114865000D01*
X76858869Y-114865000D01*
X77003767Y-114836178D01*
X77035000Y-114823240D01*
X77035000Y-115847186D01*
X77127152Y-115835054D01*
X77348721Y-115775684D01*
X77348727Y-115775682D01*
X77560667Y-115687894D01*
X77759331Y-115573195D01*
X77759346Y-115573185D01*
X77941325Y-115433547D01*
X77941337Y-115433537D01*
X78103537Y-115271337D01*
X78103547Y-115271325D01*
X78243185Y-115089346D01*
X78243195Y-115089331D01*
X78357894Y-114890667D01*
X78445682Y-114678727D01*
X78445684Y-114678721D01*
X78505054Y-114457152D01*
X78517188Y-114365000D01*
X77493241Y-114365000D01*
X77506178Y-114333767D01*
X77535000Y-114188869D01*
X77535000Y-114041131D01*
X77506178Y-113896233D01*
X77493241Y-113865000D01*
X78517187Y-113865000D01*
X80202812Y-113865000D01*
X81226759Y-113865000D01*
X81213822Y-113896233D01*
X81185000Y-114041131D01*
X81185000Y-114188869D01*
X81213822Y-114333767D01*
X81226759Y-114365000D01*
X80202812Y-114365000D01*
X80214945Y-114457152D01*
X80274315Y-114678721D01*
X80274317Y-114678727D01*
X80362105Y-114890667D01*
X80476804Y-115089331D01*
X80476814Y-115089346D01*
X80616452Y-115271325D01*
X80616462Y-115271337D01*
X80778662Y-115433537D01*
X80778674Y-115433547D01*
X80960653Y-115573185D01*
X80960668Y-115573195D01*
X81159333Y-115687894D01*
X81159332Y-115687894D01*
X81371272Y-115775682D01*
X81371278Y-115775684D01*
X81592847Y-115835054D01*
X81685000Y-115847187D01*
X81685000Y-114823240D01*
X81716233Y-114836178D01*
X81861131Y-114865000D01*
X82008869Y-114865000D01*
X82153767Y-114836178D01*
X82185000Y-114823240D01*
X82185000Y-115847186D01*
X82277152Y-115835054D01*
X82498721Y-115775684D01*
X82498727Y-115775682D01*
X82710667Y-115687894D01*
X82909331Y-115573195D01*
X82909346Y-115573185D01*
X83091325Y-115433547D01*
X83091337Y-115433537D01*
X83253537Y-115271337D01*
X83253547Y-115271325D01*
X83393185Y-115089346D01*
X83393195Y-115089331D01*
X83507894Y-114890667D01*
X83595682Y-114678727D01*
X83595684Y-114678721D01*
X83655054Y-114457152D01*
X83667188Y-114365000D01*
X82643241Y-114365000D01*
X82656178Y-114333767D01*
X82685000Y-114188869D01*
X82685000Y-114041131D01*
X82656178Y-113896233D01*
X82643241Y-113865000D01*
X83667187Y-113865000D01*
X88302812Y-113865000D01*
X89326759Y-113865000D01*
X89313822Y-113896233D01*
X89285000Y-114041131D01*
X89285000Y-114188869D01*
X89313822Y-114333767D01*
X89326759Y-114365000D01*
X88302812Y-114365000D01*
X88314945Y-114457152D01*
X88374315Y-114678721D01*
X88374317Y-114678727D01*
X88462105Y-114890667D01*
X88576804Y-115089331D01*
X88576814Y-115089346D01*
X88716452Y-115271325D01*
X88716462Y-115271337D01*
X88878662Y-115433537D01*
X88878674Y-115433547D01*
X89060653Y-115573185D01*
X89060668Y-115573195D01*
X89259333Y-115687894D01*
X89259332Y-115687894D01*
X89471272Y-115775682D01*
X89471278Y-115775684D01*
X89692847Y-115835054D01*
X89785000Y-115847187D01*
X89785000Y-114823240D01*
X89816233Y-114836178D01*
X89961131Y-114865000D01*
X90108869Y-114865000D01*
X90253767Y-114836178D01*
X90285000Y-114823240D01*
X90285000Y-115847186D01*
X90377152Y-115835054D01*
X90598721Y-115775684D01*
X90598727Y-115775682D01*
X90810667Y-115687894D01*
X91009331Y-115573195D01*
X91009346Y-115573185D01*
X91191325Y-115433547D01*
X91191337Y-115433537D01*
X91353537Y-115271337D01*
X91353547Y-115271325D01*
X91493185Y-115089346D01*
X91493195Y-115089331D01*
X91607894Y-114890667D01*
X91695682Y-114678727D01*
X91695684Y-114678721D01*
X91755054Y-114457152D01*
X91767188Y-114365000D01*
X90743241Y-114365000D01*
X90756178Y-114333767D01*
X90785000Y-114188869D01*
X90785000Y-114041131D01*
X90756178Y-113896233D01*
X90743241Y-113865000D01*
X91767187Y-113865000D01*
X93452812Y-113865000D01*
X94476759Y-113865000D01*
X94463822Y-113896233D01*
X94435000Y-114041131D01*
X94435000Y-114188869D01*
X94463822Y-114333767D01*
X94476759Y-114365000D01*
X93452812Y-114365000D01*
X93464945Y-114457152D01*
X93524315Y-114678721D01*
X93524317Y-114678727D01*
X93612105Y-114890667D01*
X93726804Y-115089331D01*
X93726814Y-115089346D01*
X93866452Y-115271325D01*
X93866462Y-115271337D01*
X94028662Y-115433537D01*
X94028674Y-115433547D01*
X94210653Y-115573185D01*
X94210668Y-115573195D01*
X94409333Y-115687894D01*
X94409332Y-115687894D01*
X94621272Y-115775682D01*
X94621278Y-115775684D01*
X94842847Y-115835054D01*
X94935000Y-115847187D01*
X94935000Y-114823240D01*
X94966233Y-114836178D01*
X95111131Y-114865000D01*
X95258869Y-114865000D01*
X95403767Y-114836178D01*
X95435000Y-114823240D01*
X95435000Y-115847187D01*
X95527152Y-115835054D01*
X95748721Y-115775684D01*
X95748727Y-115775682D01*
X95960667Y-115687894D01*
X96159331Y-115573195D01*
X96159346Y-115573185D01*
X96341325Y-115433547D01*
X96341337Y-115433537D01*
X96503537Y-115271337D01*
X96503547Y-115271325D01*
X96643185Y-115089346D01*
X96643195Y-115089331D01*
X96757894Y-114890667D01*
X96845682Y-114678727D01*
X96845684Y-114678721D01*
X96905054Y-114457152D01*
X96917188Y-114365000D01*
X95893241Y-114365000D01*
X95906178Y-114333767D01*
X95935000Y-114188869D01*
X95935000Y-114041131D01*
X95906178Y-113896233D01*
X95893241Y-113865000D01*
X96917187Y-113865000D01*
X101552812Y-113865000D01*
X102576759Y-113865000D01*
X102563822Y-113896233D01*
X102535000Y-114041131D01*
X102535000Y-114188869D01*
X102563822Y-114333767D01*
X102576759Y-114365000D01*
X101552812Y-114365000D01*
X101564945Y-114457152D01*
X101624315Y-114678721D01*
X101624317Y-114678727D01*
X101712105Y-114890667D01*
X101826804Y-115089331D01*
X101826814Y-115089346D01*
X101966452Y-115271325D01*
X101966462Y-115271337D01*
X102128662Y-115433537D01*
X102128674Y-115433547D01*
X102310653Y-115573185D01*
X102310668Y-115573195D01*
X102509333Y-115687894D01*
X102509332Y-115687894D01*
X102721272Y-115775682D01*
X102721278Y-115775684D01*
X102942847Y-115835054D01*
X103035000Y-115847187D01*
X103035000Y-114823240D01*
X103066233Y-114836178D01*
X103211131Y-114865000D01*
X103358869Y-114865000D01*
X103503767Y-114836178D01*
X103535000Y-114823240D01*
X103535000Y-115847186D01*
X103627152Y-115835054D01*
X103848721Y-115775684D01*
X103848727Y-115775682D01*
X104060667Y-115687894D01*
X104259331Y-115573195D01*
X104259346Y-115573185D01*
X104441325Y-115433547D01*
X104441337Y-115433537D01*
X104603537Y-115271337D01*
X104603547Y-115271325D01*
X104743185Y-115089346D01*
X104743195Y-115089331D01*
X104857894Y-114890667D01*
X104945682Y-114678727D01*
X104945684Y-114678721D01*
X105005054Y-114457152D01*
X105017188Y-114365000D01*
X103993241Y-114365000D01*
X104006178Y-114333767D01*
X104035000Y-114188869D01*
X104035000Y-114041131D01*
X104006178Y-113896233D01*
X103993241Y-113865000D01*
X105017187Y-113865000D01*
X106702812Y-113865000D01*
X107726759Y-113865000D01*
X107713822Y-113896233D01*
X107685000Y-114041131D01*
X107685000Y-114188869D01*
X107713822Y-114333767D01*
X107726759Y-114365000D01*
X106702812Y-114365000D01*
X106714945Y-114457152D01*
X106774315Y-114678721D01*
X106774317Y-114678727D01*
X106862105Y-114890667D01*
X106976804Y-115089331D01*
X106976814Y-115089346D01*
X107116452Y-115271325D01*
X107116462Y-115271337D01*
X107278662Y-115433537D01*
X107278674Y-115433547D01*
X107460653Y-115573185D01*
X107460668Y-115573195D01*
X107659333Y-115687894D01*
X107659332Y-115687894D01*
X107871272Y-115775682D01*
X107871278Y-115775684D01*
X108092847Y-115835054D01*
X108185000Y-115847187D01*
X108185000Y-114823240D01*
X108216233Y-114836178D01*
X108361131Y-114865000D01*
X108508869Y-114865000D01*
X108653767Y-114836178D01*
X108685000Y-114823240D01*
X108685000Y-115847187D01*
X108777152Y-115835054D01*
X108998721Y-115775684D01*
X108998727Y-115775682D01*
X109210667Y-115687894D01*
X109409331Y-115573195D01*
X109409346Y-115573185D01*
X109591325Y-115433547D01*
X109591337Y-115433537D01*
X109753537Y-115271337D01*
X109753547Y-115271325D01*
X109775923Y-115242165D01*
X122070000Y-115242165D01*
X122070000Y-116240000D01*
X122970000Y-116240000D01*
X123470000Y-116240000D01*
X124370000Y-116240000D01*
X124370000Y-115242165D01*
X124363598Y-115182627D01*
X124363598Y-115182626D01*
X124313351Y-115047908D01*
X124227188Y-114932811D01*
X124112091Y-114846648D01*
X123977373Y-114796401D01*
X123917834Y-114790000D01*
X123470000Y-114790000D01*
X123470000Y-116240000D01*
X122970000Y-116240000D01*
X122970000Y-114790000D01*
X122522166Y-114790000D01*
X122462627Y-114796401D01*
X122462626Y-114796401D01*
X122327908Y-114846648D01*
X122212811Y-114932811D01*
X122126648Y-115047908D01*
X122076401Y-115182626D01*
X122076401Y-115182627D01*
X122070000Y-115242165D01*
X109775923Y-115242165D01*
X109799814Y-115211031D01*
X109893185Y-115089346D01*
X109893195Y-115089331D01*
X110007894Y-114890667D01*
X110095682Y-114678727D01*
X110095684Y-114678721D01*
X110155054Y-114457152D01*
X110167188Y-114365000D01*
X109143241Y-114365000D01*
X109156178Y-114333767D01*
X109185000Y-114188869D01*
X109185000Y-114041131D01*
X109156178Y-113896233D01*
X109143241Y-113865000D01*
X110167187Y-113865000D01*
X110155054Y-113772847D01*
X110095684Y-113551278D01*
X110095682Y-113551272D01*
X110007894Y-113339332D01*
X109893195Y-113140668D01*
X109893185Y-113140653D01*
X109753547Y-112958674D01*
X109753537Y-112958662D01*
X109591337Y-112796462D01*
X109591325Y-112796452D01*
X109409346Y-112656814D01*
X109409331Y-112656804D01*
X109210666Y-112542105D01*
X109210667Y-112542105D01*
X108998727Y-112454317D01*
X108998721Y-112454315D01*
X108777152Y-112394945D01*
X108685000Y-112382812D01*
X108685000Y-113406759D01*
X108653767Y-113393822D01*
X108508869Y-113365000D01*
X108361131Y-113365000D01*
X108216233Y-113393822D01*
X108185000Y-113406759D01*
X108185000Y-112382812D01*
X108092847Y-112394945D01*
X107871278Y-112454315D01*
X107871272Y-112454317D01*
X107659332Y-112542105D01*
X107460668Y-112656804D01*
X107460653Y-112656814D01*
X107278674Y-112796452D01*
X107278662Y-112796462D01*
X107116462Y-112958662D01*
X107116452Y-112958674D01*
X106976814Y-113140653D01*
X106976804Y-113140668D01*
X106862105Y-113339332D01*
X106774317Y-113551272D01*
X106774315Y-113551278D01*
X106714945Y-113772847D01*
X106702812Y-113865000D01*
X105017187Y-113865000D01*
X105005054Y-113772847D01*
X104945684Y-113551278D01*
X104945682Y-113551272D01*
X104857894Y-113339332D01*
X104743195Y-113140668D01*
X104743185Y-113140653D01*
X104603547Y-112958674D01*
X104603537Y-112958662D01*
X104441337Y-112796462D01*
X104441325Y-112796452D01*
X104259346Y-112656814D01*
X104259331Y-112656804D01*
X104060666Y-112542105D01*
X104060667Y-112542105D01*
X103848727Y-112454317D01*
X103848721Y-112454315D01*
X103627152Y-112394945D01*
X103535000Y-112382812D01*
X103535000Y-113406759D01*
X103503767Y-113393822D01*
X103358869Y-113365000D01*
X103211131Y-113365000D01*
X103066233Y-113393822D01*
X103035000Y-113406759D01*
X103035000Y-112382812D01*
X102942847Y-112394945D01*
X102721278Y-112454315D01*
X102721272Y-112454317D01*
X102509332Y-112542105D01*
X102310668Y-112656804D01*
X102310653Y-112656814D01*
X102128674Y-112796452D01*
X102128662Y-112796462D01*
X101966462Y-112958662D01*
X101966452Y-112958674D01*
X101826814Y-113140653D01*
X101826804Y-113140668D01*
X101712105Y-113339332D01*
X101624317Y-113551272D01*
X101624315Y-113551278D01*
X101564945Y-113772847D01*
X101552812Y-113865000D01*
X96917187Y-113865000D01*
X96905054Y-113772847D01*
X96845684Y-113551278D01*
X96845682Y-113551272D01*
X96757894Y-113339332D01*
X96643195Y-113140668D01*
X96643185Y-113140653D01*
X96503547Y-112958674D01*
X96503537Y-112958662D01*
X96341337Y-112796462D01*
X96341325Y-112796452D01*
X96159346Y-112656814D01*
X96159331Y-112656804D01*
X95960666Y-112542105D01*
X95960667Y-112542105D01*
X95748727Y-112454317D01*
X95748721Y-112454315D01*
X95527152Y-112394945D01*
X95435000Y-112382812D01*
X95435000Y-113406759D01*
X95403767Y-113393822D01*
X95258869Y-113365000D01*
X95111131Y-113365000D01*
X94966233Y-113393822D01*
X94935000Y-113406759D01*
X94935000Y-112382812D01*
X94842847Y-112394945D01*
X94621278Y-112454315D01*
X94621272Y-112454317D01*
X94409332Y-112542105D01*
X94210668Y-112656804D01*
X94210653Y-112656814D01*
X94028674Y-112796452D01*
X94028662Y-112796462D01*
X93866462Y-112958662D01*
X93866452Y-112958674D01*
X93726814Y-113140653D01*
X93726804Y-113140668D01*
X93612105Y-113339332D01*
X93524317Y-113551272D01*
X93524315Y-113551278D01*
X93464945Y-113772847D01*
X93452812Y-113865000D01*
X91767187Y-113865000D01*
X91755054Y-113772847D01*
X91695684Y-113551278D01*
X91695682Y-113551272D01*
X91607894Y-113339332D01*
X91493195Y-113140668D01*
X91493185Y-113140653D01*
X91353547Y-112958674D01*
X91353537Y-112958662D01*
X91191337Y-112796462D01*
X91191325Y-112796452D01*
X91009346Y-112656814D01*
X91009331Y-112656804D01*
X90810666Y-112542105D01*
X90810667Y-112542105D01*
X90598727Y-112454317D01*
X90598721Y-112454315D01*
X90377152Y-112394945D01*
X90285000Y-112382812D01*
X90285000Y-113406759D01*
X90253767Y-113393822D01*
X90108869Y-113365000D01*
X89961131Y-113365000D01*
X89816233Y-113393822D01*
X89785000Y-113406759D01*
X89785000Y-112382812D01*
X89692847Y-112394945D01*
X89471278Y-112454315D01*
X89471272Y-112454317D01*
X89259332Y-112542105D01*
X89060668Y-112656804D01*
X89060653Y-112656814D01*
X88878674Y-112796452D01*
X88878662Y-112796462D01*
X88716462Y-112958662D01*
X88716452Y-112958674D01*
X88576814Y-113140653D01*
X88576804Y-113140668D01*
X88462105Y-113339332D01*
X88374317Y-113551272D01*
X88374315Y-113551278D01*
X88314945Y-113772847D01*
X88302812Y-113865000D01*
X83667187Y-113865000D01*
X83655054Y-113772847D01*
X83595684Y-113551278D01*
X83595682Y-113551272D01*
X83507894Y-113339332D01*
X83393195Y-113140668D01*
X83393185Y-113140653D01*
X83253547Y-112958674D01*
X83253537Y-112958662D01*
X83091337Y-112796462D01*
X83091325Y-112796452D01*
X82909346Y-112656814D01*
X82909331Y-112656804D01*
X82710666Y-112542105D01*
X82710667Y-112542105D01*
X82498727Y-112454317D01*
X82498721Y-112454315D01*
X82277152Y-112394945D01*
X82185000Y-112382812D01*
X82185000Y-113406759D01*
X82153767Y-113393822D01*
X82008869Y-113365000D01*
X81861131Y-113365000D01*
X81716233Y-113393822D01*
X81685000Y-113406759D01*
X81685000Y-112382812D01*
X81592847Y-112394945D01*
X81371278Y-112454315D01*
X81371272Y-112454317D01*
X81159332Y-112542105D01*
X80960668Y-112656804D01*
X80960653Y-112656814D01*
X80778674Y-112796452D01*
X80778662Y-112796462D01*
X80616462Y-112958662D01*
X80616452Y-112958674D01*
X80476814Y-113140653D01*
X80476804Y-113140668D01*
X80362105Y-113339332D01*
X80274317Y-113551272D01*
X80274315Y-113551278D01*
X80214945Y-113772847D01*
X80202812Y-113865000D01*
X78517187Y-113865000D01*
X78505054Y-113772847D01*
X78445684Y-113551278D01*
X78445682Y-113551272D01*
X78357894Y-113339332D01*
X78243195Y-113140668D01*
X78243185Y-113140653D01*
X78103547Y-112958674D01*
X78103537Y-112958662D01*
X77941337Y-112796462D01*
X77941325Y-112796452D01*
X77759346Y-112656814D01*
X77759331Y-112656804D01*
X77560666Y-112542105D01*
X77560667Y-112542105D01*
X77348727Y-112454317D01*
X77348721Y-112454315D01*
X77127152Y-112394945D01*
X77035000Y-112382812D01*
X77035000Y-113406759D01*
X77003767Y-113393822D01*
X76858869Y-113365000D01*
X76711131Y-113365000D01*
X76566233Y-113393822D01*
X76535000Y-113406759D01*
X76535000Y-112382812D01*
X76442847Y-112394945D01*
X76221278Y-112454315D01*
X76221272Y-112454317D01*
X76009332Y-112542105D01*
X75810668Y-112656804D01*
X75810653Y-112656814D01*
X75628674Y-112796452D01*
X75628662Y-112796462D01*
X75466462Y-112958662D01*
X75466452Y-112958674D01*
X75378374Y-113073459D01*
X75345896Y-113092211D01*
X75309671Y-113082504D01*
X75290919Y-113050026D01*
X75290500Y-113043630D01*
X75290500Y-103315908D01*
X76824500Y-103315908D01*
X76824500Y-103664092D01*
X76825792Y-103687100D01*
X76825793Y-103687109D01*
X76864774Y-104033084D01*
X76864778Y-104033108D01*
X76868631Y-104055793D01*
X76868640Y-104055835D01*
X76946108Y-104395246D01*
X76946121Y-104395296D01*
X76952494Y-104417414D01*
X77067489Y-104746053D01*
X77067497Y-104746073D01*
X77076309Y-104767346D01*
X77076324Y-104767380D01*
X77227382Y-105081054D01*
X77227385Y-105081060D01*
X77238523Y-105101213D01*
X77238530Y-105101225D01*
X77347813Y-105275148D01*
X77423764Y-105396024D01*
X77423775Y-105396041D01*
X77437108Y-105414832D01*
X77654199Y-105687055D01*
X77654207Y-105687064D01*
X77669540Y-105704221D01*
X77669566Y-105704249D01*
X77915750Y-105950433D01*
X77915778Y-105950459D01*
X77932935Y-105965792D01*
X77932943Y-105965799D01*
X78205164Y-106182889D01*
X78223959Y-106196225D01*
X78518775Y-106381470D01*
X78518786Y-106381476D01*
X78538939Y-106392614D01*
X78538945Y-106392617D01*
X78852619Y-106543675D01*
X78852630Y-106543679D01*
X78852649Y-106543689D01*
X78873940Y-106552508D01*
X79202586Y-106667506D01*
X79224730Y-106673886D01*
X79564184Y-106751364D01*
X79564200Y-106751366D01*
X79564206Y-106751368D01*
X79569853Y-106752327D01*
X79586904Y-106755224D01*
X79932900Y-106794208D01*
X79955908Y-106795500D01*
X79955917Y-106795500D01*
X80304083Y-106795500D01*
X80304092Y-106795500D01*
X80327100Y-106794208D01*
X80673096Y-106755224D01*
X80693803Y-106751705D01*
X80695793Y-106751368D01*
X80695795Y-106751367D01*
X80695816Y-106751364D01*
X81035270Y-106673886D01*
X81057414Y-106667506D01*
X81386060Y-106552508D01*
X81407351Y-106543689D01*
X81721055Y-106392617D01*
X81741225Y-106381470D01*
X82036041Y-106196225D01*
X82054836Y-106182889D01*
X82327057Y-105965799D01*
X82344239Y-105950443D01*
X82590443Y-105704239D01*
X82605799Y-105687057D01*
X82611299Y-105680160D01*
X90665500Y-105680160D01*
X90665500Y-105799839D01*
X90696472Y-105915430D01*
X90696473Y-105915433D01*
X90756309Y-106019070D01*
X90840930Y-106103691D01*
X90878862Y-106125591D01*
X90944566Y-106163526D01*
X90944569Y-106163527D01*
X91060160Y-106194499D01*
X91060161Y-106194500D01*
X91060164Y-106194500D01*
X91179839Y-106194500D01*
X91179839Y-106194499D01*
X91295431Y-106163527D01*
X91399070Y-106103691D01*
X91483691Y-106019070D01*
X91543527Y-105915431D01*
X91574499Y-105799839D01*
X91574500Y-105799839D01*
X91574500Y-105680161D01*
X91574499Y-105680160D01*
X91543527Y-105564569D01*
X91543526Y-105564566D01*
X91483690Y-105460929D01*
X91399070Y-105376309D01*
X91295433Y-105316473D01*
X91295430Y-105316472D01*
X91179839Y-105285500D01*
X91179836Y-105285500D01*
X91060164Y-105285500D01*
X91060161Y-105285500D01*
X90944569Y-105316472D01*
X90944566Y-105316473D01*
X90840929Y-105376309D01*
X90840929Y-105376310D01*
X90756310Y-105460929D01*
X90756309Y-105460929D01*
X90696473Y-105564566D01*
X90696472Y-105564569D01*
X90665500Y-105680160D01*
X82611299Y-105680160D01*
X82822889Y-105414836D01*
X82836225Y-105396041D01*
X83021470Y-105101225D01*
X83032617Y-105081055D01*
X83183689Y-104767351D01*
X83192508Y-104746060D01*
X83307506Y-104417414D01*
X83307548Y-104417269D01*
X112589500Y-104417269D01*
X112589500Y-104522730D01*
X112616792Y-104624585D01*
X112616793Y-104624589D01*
X112664792Y-104707724D01*
X112669520Y-104715913D01*
X112744087Y-104790480D01*
X112777513Y-104809778D01*
X112835410Y-104843206D01*
X112835412Y-104843206D01*
X112835413Y-104843207D01*
X112915747Y-104864732D01*
X112937269Y-104870499D01*
X112937270Y-104870500D01*
X112937273Y-104870500D01*
X112945233Y-104870500D01*
X112979881Y-104884852D01*
X113835381Y-105740352D01*
X113849733Y-105775000D01*
X113835381Y-105809648D01*
X113049881Y-106595148D01*
X113015233Y-106609500D01*
X113007270Y-106609500D01*
X112905414Y-106636792D01*
X112905410Y-106636793D01*
X112814086Y-106689520D01*
X112814086Y-106689521D01*
X112739521Y-106764086D01*
X112739520Y-106764086D01*
X112686793Y-106855410D01*
X112686792Y-106855414D01*
X112659500Y-106957269D01*
X112659500Y-107062730D01*
X112686792Y-107164585D01*
X112686793Y-107164589D01*
X112739520Y-107255913D01*
X112814087Y-107330480D01*
X112847513Y-107349778D01*
X112905410Y-107383206D01*
X112905412Y-107383206D01*
X112905413Y-107383207D01*
X112985747Y-107404732D01*
X113007269Y-107410499D01*
X113007270Y-107410500D01*
X113007273Y-107410500D01*
X113112730Y-107410500D01*
X113112730Y-107410499D01*
X113214587Y-107383207D01*
X113305913Y-107330480D01*
X113380480Y-107255913D01*
X113433207Y-107164587D01*
X113460499Y-107062730D01*
X113460500Y-107062730D01*
X113460500Y-107054767D01*
X113474852Y-107020119D01*
X114262119Y-106232852D01*
X114296767Y-106218500D01*
X117141564Y-106218500D01*
X117168230Y-106211354D01*
X117217989Y-106198021D01*
X117221083Y-106196235D01*
X117244195Y-106182891D01*
X117286511Y-106158460D01*
X117342460Y-106102511D01*
X118540460Y-104904511D01*
X118580021Y-104835989D01*
X118600500Y-104759562D01*
X118600500Y-92070252D01*
X122369500Y-92070252D01*
X122369500Y-94509748D01*
X122381133Y-94568231D01*
X122398882Y-94594795D01*
X122425447Y-94634552D01*
X122440222Y-94644424D01*
X122491769Y-94678867D01*
X122550252Y-94690500D01*
X122550255Y-94690500D01*
X123889745Y-94690500D01*
X123889748Y-94690500D01*
X123948231Y-94678867D01*
X124014552Y-94634552D01*
X124058867Y-94568231D01*
X124070500Y-94509748D01*
X124070500Y-92070252D01*
X124058867Y-92011769D01*
X124019758Y-91953239D01*
X124014552Y-91945447D01*
X123974795Y-91918882D01*
X123948231Y-91901133D01*
X123889748Y-91889500D01*
X123889745Y-91889500D01*
X123619500Y-91889500D01*
X123584852Y-91875148D01*
X123570500Y-91840500D01*
X123570500Y-88695478D01*
X123584852Y-88660830D01*
X125237366Y-87008316D01*
X131255001Y-87008316D01*
X131265143Y-87107603D01*
X131318453Y-87268484D01*
X131407428Y-87412733D01*
X131527266Y-87532571D01*
X131671515Y-87621546D01*
X131832396Y-87674856D01*
X131931670Y-87684998D01*
X131931694Y-87684999D01*
X131954999Y-87684998D01*
X131955000Y-87684998D01*
X131955000Y-86960000D01*
X131255001Y-86960000D01*
X131255001Y-87008316D01*
X125237366Y-87008316D01*
X128668413Y-83577269D01*
X129819500Y-83577269D01*
X129819500Y-83682730D01*
X129846792Y-83784585D01*
X129846793Y-83784589D01*
X129896995Y-83871539D01*
X129899520Y-83875913D01*
X129974087Y-83950480D01*
X130007513Y-83969778D01*
X130065410Y-84003206D01*
X130065412Y-84003206D01*
X130065413Y-84003207D01*
X130134927Y-84021833D01*
X130167269Y-84030499D01*
X130167270Y-84030500D01*
X130167273Y-84030500D01*
X130272730Y-84030500D01*
X130272730Y-84030499D01*
X130374587Y-84003207D01*
X130402546Y-83987065D01*
X130427046Y-83980500D01*
X131439616Y-83980500D01*
X131474264Y-83994852D01*
X131488012Y-84021831D01*
X131489354Y-84030304D01*
X131489354Y-84030305D01*
X131489355Y-84030307D01*
X131546945Y-84143335D01*
X131546950Y-84143342D01*
X131636657Y-84233049D01*
X131636664Y-84233054D01*
X131749691Y-84290644D01*
X131749692Y-84290644D01*
X131749696Y-84290646D01*
X131843481Y-84305500D01*
X132306518Y-84305499D01*
X132400304Y-84290646D01*
X132469906Y-84255182D01*
X132513335Y-84233054D01*
X132513337Y-84233052D01*
X132513342Y-84233050D01*
X132603050Y-84143342D01*
X132603054Y-84143335D01*
X132660644Y-84030309D01*
X132660644Y-84030307D01*
X132660646Y-84030304D01*
X132675500Y-83936519D01*
X132675499Y-83323482D01*
X132660646Y-83229696D01*
X132630315Y-83170168D01*
X132603054Y-83116664D01*
X132603049Y-83116657D01*
X132513342Y-83026950D01*
X132513335Y-83026945D01*
X132400308Y-82969355D01*
X132400305Y-82969354D01*
X132400304Y-82969354D01*
X132306519Y-82954500D01*
X132306517Y-82954500D01*
X131843482Y-82954500D01*
X131749696Y-82969353D01*
X131636664Y-83026945D01*
X131636657Y-83026950D01*
X131546950Y-83116657D01*
X131546945Y-83116664D01*
X131489355Y-83229692D01*
X131489354Y-83229694D01*
X131489354Y-83229696D01*
X131488012Y-83238168D01*
X131468416Y-83270143D01*
X131439616Y-83279500D01*
X130427046Y-83279500D01*
X130402546Y-83272935D01*
X130387936Y-83264500D01*
X130374587Y-83256793D01*
X130374584Y-83256792D01*
X130374582Y-83256791D01*
X130272730Y-83229500D01*
X130272727Y-83229500D01*
X130167273Y-83229500D01*
X130167270Y-83229500D01*
X130065414Y-83256792D01*
X130065410Y-83256793D01*
X129974086Y-83309520D01*
X129974086Y-83309521D01*
X129899521Y-83384086D01*
X129899520Y-83384086D01*
X129846793Y-83475410D01*
X129846792Y-83475414D01*
X129819500Y-83577269D01*
X128668413Y-83577269D01*
X129710469Y-82535213D01*
X129710470Y-82535212D01*
X129756614Y-82455288D01*
X129768557Y-82410716D01*
X129780500Y-82366146D01*
X129780500Y-81439500D01*
X129794852Y-81404852D01*
X129829500Y-81390500D01*
X132814522Y-81390500D01*
X132849170Y-81404852D01*
X133360148Y-81915830D01*
X133374500Y-81950478D01*
X133374500Y-82952164D01*
X133360148Y-82986812D01*
X133347746Y-82995823D01*
X133286662Y-83026946D01*
X133286657Y-83026950D01*
X133196950Y-83116657D01*
X133196945Y-83116664D01*
X133139355Y-83229690D01*
X133139355Y-83229692D01*
X133139354Y-83229694D01*
X133139354Y-83229696D01*
X133126711Y-83309520D01*
X133124500Y-83323482D01*
X133124500Y-83936517D01*
X133139353Y-84030303D01*
X133196945Y-84143335D01*
X133196950Y-84143342D01*
X133286657Y-84233049D01*
X133286664Y-84233054D01*
X133399691Y-84290644D01*
X133399692Y-84290644D01*
X133399696Y-84290646D01*
X133493481Y-84305500D01*
X133956518Y-84305499D01*
X134050304Y-84290646D01*
X134119906Y-84255182D01*
X134163335Y-84233054D01*
X134163337Y-84233052D01*
X134163342Y-84233050D01*
X134253050Y-84143342D01*
X134253192Y-84143065D01*
X134297885Y-84055348D01*
X134310646Y-84030304D01*
X134311987Y-84021831D01*
X134331584Y-83989857D01*
X134360384Y-83980500D01*
X134757488Y-83980500D01*
X134792136Y-83994852D01*
X134806488Y-84029500D01*
X134799664Y-84054443D01*
X134747252Y-84143065D01*
X134702811Y-84296028D01*
X134702811Y-84296030D01*
X134701319Y-84315000D01*
X135701000Y-84315000D01*
X135735648Y-84329352D01*
X135750000Y-84364000D01*
X135750000Y-84766000D01*
X135735648Y-84800648D01*
X135701000Y-84815000D01*
X134701320Y-84815000D01*
X134702811Y-84833966D01*
X134702812Y-84833975D01*
X134705315Y-84842589D01*
X134701198Y-84879865D01*
X134671928Y-84903312D01*
X134634652Y-84899195D01*
X134633783Y-84898704D01*
X134617152Y-84889103D01*
X134555290Y-84853386D01*
X134555286Y-84853385D01*
X134466147Y-84829500D01*
X134466144Y-84829500D01*
X134390384Y-84829500D01*
X134355736Y-84815148D01*
X134341987Y-84788168D01*
X134340646Y-84779696D01*
X134340643Y-84779690D01*
X134283054Y-84666664D01*
X134283049Y-84666657D01*
X134193342Y-84576950D01*
X134193335Y-84576945D01*
X134080308Y-84519355D01*
X134080305Y-84519354D01*
X134080304Y-84519354D01*
X133986519Y-84504500D01*
X133986517Y-84504500D01*
X133523482Y-84504500D01*
X133429696Y-84519353D01*
X133316664Y-84576945D01*
X133316657Y-84576950D01*
X133226950Y-84666657D01*
X133226945Y-84666664D01*
X133169355Y-84779690D01*
X133169355Y-84779692D01*
X133169354Y-84779694D01*
X133169354Y-84779696D01*
X133158936Y-84845472D01*
X133154500Y-84873482D01*
X133154500Y-85486517D01*
X133169353Y-85580303D01*
X133226945Y-85693335D01*
X133226948Y-85693339D01*
X133226950Y-85693342D01*
X133316658Y-85783050D01*
X133377746Y-85814175D01*
X133402102Y-85842692D01*
X133404500Y-85857834D01*
X133404500Y-86016367D01*
X133390148Y-86051015D01*
X133377746Y-86060026D01*
X133276784Y-86111468D01*
X133276778Y-86111473D01*
X133183856Y-86204395D01*
X133149208Y-86218747D01*
X133114560Y-86204395D01*
X133102695Y-86185160D01*
X133091546Y-86151515D01*
X133002571Y-86007266D01*
X132882733Y-85887428D01*
X132738484Y-85798453D01*
X132655587Y-85770984D01*
X132627212Y-85746462D01*
X132624487Y-85709058D01*
X132631360Y-85695667D01*
X132633044Y-85693347D01*
X132633050Y-85693342D01*
X132690646Y-85580304D01*
X132705500Y-85486519D01*
X132705499Y-84873482D01*
X132690646Y-84779696D01*
X132690643Y-84779690D01*
X132633054Y-84666664D01*
X132633049Y-84666657D01*
X132543342Y-84576950D01*
X132543335Y-84576945D01*
X132430308Y-84519355D01*
X132430305Y-84519354D01*
X132430304Y-84519354D01*
X132336519Y-84504500D01*
X132336517Y-84504500D01*
X131873482Y-84504500D01*
X131779696Y-84519353D01*
X131666664Y-84576945D01*
X131666657Y-84576950D01*
X131576950Y-84666657D01*
X131576945Y-84666664D01*
X131519355Y-84779692D01*
X131519354Y-84779694D01*
X131519354Y-84779696D01*
X131518012Y-84788168D01*
X131498416Y-84820143D01*
X131469616Y-84829500D01*
X131080869Y-84829500D01*
X131067877Y-84826919D01*
X131067689Y-84827624D01*
X130962730Y-84799500D01*
X130962727Y-84799500D01*
X130857273Y-84799500D01*
X130857270Y-84799500D01*
X130755414Y-84826792D01*
X130755410Y-84826793D01*
X130664086Y-84879520D01*
X130589521Y-84954086D01*
X130589520Y-84954086D01*
X130536793Y-85045410D01*
X130536792Y-85045414D01*
X130509500Y-85147269D01*
X130509500Y-85252730D01*
X130536792Y-85354585D01*
X130536793Y-85354589D01*
X130589520Y-85445913D01*
X130664087Y-85520480D01*
X130692813Y-85537065D01*
X130755410Y-85573206D01*
X130755412Y-85573206D01*
X130755413Y-85573207D01*
X130821516Y-85590919D01*
X130857269Y-85600499D01*
X130857270Y-85600500D01*
X130857273Y-85600500D01*
X130962730Y-85600500D01*
X130962730Y-85600499D01*
X131064587Y-85573207D01*
X131127187Y-85537064D01*
X131151687Y-85530500D01*
X131469616Y-85530500D01*
X131504264Y-85544852D01*
X131518012Y-85571831D01*
X131519354Y-85580304D01*
X131519354Y-85580305D01*
X131519355Y-85580307D01*
X131576945Y-85693335D01*
X131576950Y-85693342D01*
X131634218Y-85750610D01*
X131648570Y-85785258D01*
X131634218Y-85819906D01*
X131625294Y-85826962D01*
X131527271Y-85887424D01*
X131527266Y-85887428D01*
X131407428Y-86007266D01*
X131318453Y-86151515D01*
X131265143Y-86312396D01*
X131255000Y-86411682D01*
X131255000Y-86460000D01*
X132156000Y-86460000D01*
X132190648Y-86474352D01*
X132205000Y-86509000D01*
X132205000Y-86710000D01*
X132406000Y-86710000D01*
X132440648Y-86724352D01*
X132455000Y-86759000D01*
X132455000Y-87684999D01*
X132478316Y-87684999D01*
X132577603Y-87674856D01*
X132738484Y-87621546D01*
X132882733Y-87532571D01*
X133002571Y-87412733D01*
X133091546Y-87268484D01*
X133091547Y-87268482D01*
X133102695Y-87234840D01*
X133127216Y-87206464D01*
X133164620Y-87203739D01*
X133183856Y-87215604D01*
X133256636Y-87288384D01*
X133270988Y-87323032D01*
X133256636Y-87357680D01*
X130259531Y-90354786D01*
X130259530Y-90354787D01*
X130213386Y-90434709D01*
X130213385Y-90434713D01*
X130189500Y-90523853D01*
X130189500Y-91840500D01*
X130175148Y-91875148D01*
X130140500Y-91889500D01*
X129870252Y-91889500D01*
X129811769Y-91901133D01*
X129745447Y-91945447D01*
X129701133Y-92011769D01*
X129689500Y-92070252D01*
X129689500Y-94509748D01*
X129701133Y-94568231D01*
X129718882Y-94594795D01*
X129745447Y-94634552D01*
X129760222Y-94644424D01*
X129811769Y-94678867D01*
X129870252Y-94690500D01*
X129870255Y-94690500D01*
X131209745Y-94690500D01*
X131209748Y-94690500D01*
X131268231Y-94678867D01*
X131334552Y-94634552D01*
X131378867Y-94568231D01*
X131390500Y-94509748D01*
X131390500Y-92070252D01*
X131378867Y-92011769D01*
X131339758Y-91953239D01*
X131334552Y-91945447D01*
X131294795Y-91918882D01*
X131268231Y-91901133D01*
X131209748Y-91889500D01*
X131209745Y-91889500D01*
X130939500Y-91889500D01*
X130904852Y-91875148D01*
X130890500Y-91840500D01*
X130890500Y-90735478D01*
X130904852Y-90700830D01*
X134035469Y-87570213D01*
X134035470Y-87570212D01*
X134081614Y-87490288D01*
X134084293Y-87480288D01*
X134105500Y-87401144D01*
X134105500Y-87397458D01*
X134107032Y-87391476D01*
X134114859Y-87381036D01*
X134119852Y-87368984D01*
X134128736Y-87362529D01*
X134129530Y-87361471D01*
X134130355Y-87361352D01*
X134132255Y-87359973D01*
X134233213Y-87308532D01*
X134233215Y-87308530D01*
X134233220Y-87308528D01*
X134328528Y-87213220D01*
X134331971Y-87206464D01*
X134357836Y-87155699D01*
X134389719Y-87093126D01*
X134405500Y-86993488D01*
X134405500Y-86426512D01*
X134389719Y-86326874D01*
X134389717Y-86326870D01*
X134328532Y-86206786D01*
X134328527Y-86206779D01*
X134233220Y-86111472D01*
X134233215Y-86111468D01*
X134132254Y-86060026D01*
X134107898Y-86031509D01*
X134105500Y-86016367D01*
X134105500Y-85857834D01*
X134119852Y-85823186D01*
X134132250Y-85814176D01*
X134193342Y-85783050D01*
X134283050Y-85693342D01*
X134304619Y-85651009D01*
X134333135Y-85626654D01*
X134370523Y-85629596D01*
X134382926Y-85638608D01*
X134539788Y-85795470D01*
X134539789Y-85795471D01*
X134539791Y-85795472D01*
X134556470Y-85805101D01*
X134609086Y-85835479D01*
X134609087Y-85835480D01*
X134619709Y-85841613D01*
X134619715Y-85841615D01*
X134708852Y-85865499D01*
X134708853Y-85865500D01*
X134708856Y-85865500D01*
X134708857Y-85865500D01*
X134801144Y-85865500D01*
X135023060Y-85865500D01*
X135057708Y-85879852D01*
X135137687Y-85959831D01*
X135137689Y-85959832D01*
X135137690Y-85959833D01*
X135243461Y-86009155D01*
X135291658Y-86015500D01*
X135291662Y-86015500D01*
X136208338Y-86015500D01*
X136208342Y-86015500D01*
X136256539Y-86009155D01*
X136362310Y-85959833D01*
X136444833Y-85877310D01*
X136494155Y-85771539D01*
X136500500Y-85723342D01*
X136500500Y-85306658D01*
X136500404Y-85305929D01*
X136500442Y-85305785D01*
X136500395Y-85305059D01*
X136500641Y-85305042D01*
X136502474Y-85298204D01*
X136500849Y-85290372D01*
X136506869Y-85281802D01*
X136510111Y-85269705D01*
X136521427Y-85259019D01*
X136572942Y-85223980D01*
X136587121Y-85221037D01*
X136600500Y-85215496D01*
X136604947Y-85217338D01*
X136609663Y-85216360D01*
X136621771Y-85224307D01*
X136635148Y-85229848D01*
X136636990Y-85234295D01*
X136641016Y-85236938D01*
X136643958Y-85251117D01*
X136649500Y-85264496D01*
X136649500Y-87194522D01*
X136635148Y-87229170D01*
X132799531Y-91064787D01*
X132799530Y-91064787D01*
X132753386Y-91144709D01*
X132753385Y-91144713D01*
X132729500Y-91233853D01*
X132729500Y-91840500D01*
X132715148Y-91875148D01*
X132680500Y-91889500D01*
X132410252Y-91889500D01*
X132351769Y-91901133D01*
X132285447Y-91945447D01*
X132241133Y-92011769D01*
X132229500Y-92070252D01*
X132229500Y-94509748D01*
X132241133Y-94568231D01*
X132258882Y-94594795D01*
X132285447Y-94634552D01*
X132300222Y-94644424D01*
X132351769Y-94678867D01*
X132410252Y-94690500D01*
X132410255Y-94690500D01*
X133749745Y-94690500D01*
X133749748Y-94690500D01*
X133808231Y-94678867D01*
X133874552Y-94634552D01*
X133879758Y-94626761D01*
X133910940Y-94605926D01*
X133947723Y-94613242D01*
X133968558Y-94644424D01*
X133969500Y-94653984D01*
X133969500Y-95454522D01*
X133955148Y-95489170D01*
X130259531Y-99184787D01*
X130259530Y-99184787D01*
X130213386Y-99264709D01*
X130213385Y-99264713D01*
X130189500Y-99353853D01*
X130189500Y-115040500D01*
X130175148Y-115075148D01*
X130140500Y-115089500D01*
X129870252Y-115089500D01*
X129811769Y-115101133D01*
X129745447Y-115145447D01*
X129701626Y-115211031D01*
X129701133Y-115211769D01*
X129689500Y-115270252D01*
X129689500Y-117709748D01*
X129701133Y-117768231D01*
X129718882Y-117794795D01*
X129745447Y-117834552D01*
X129772012Y-117852301D01*
X129811769Y-117878867D01*
X129870252Y-117890500D01*
X129870255Y-117890500D01*
X131209745Y-117890500D01*
X131209748Y-117890500D01*
X131268231Y-117878867D01*
X131334552Y-117834552D01*
X131378867Y-117768231D01*
X131390500Y-117709748D01*
X131390500Y-115270252D01*
X132229500Y-115270252D01*
X132229500Y-117709748D01*
X132241133Y-117768231D01*
X132258882Y-117794795D01*
X132285447Y-117834552D01*
X132312012Y-117852301D01*
X132351769Y-117878867D01*
X132410252Y-117890500D01*
X132410255Y-117890500D01*
X133749745Y-117890500D01*
X133749748Y-117890500D01*
X133808231Y-117878867D01*
X133874552Y-117834552D01*
X133918867Y-117768231D01*
X133924913Y-117737834D01*
X134470000Y-117737834D01*
X134476401Y-117797372D01*
X134476401Y-117797373D01*
X134526648Y-117932091D01*
X134612811Y-118047188D01*
X134727908Y-118133351D01*
X134862626Y-118183598D01*
X134922166Y-118190000D01*
X135370000Y-118190000D01*
X135870000Y-118190000D01*
X136317834Y-118190000D01*
X136377372Y-118183598D01*
X136377373Y-118183598D01*
X136512091Y-118133351D01*
X136627188Y-118047188D01*
X136713351Y-117932091D01*
X136763598Y-117797373D01*
X136763598Y-117797372D01*
X136770000Y-117737834D01*
X136770000Y-116740000D01*
X135870000Y-116740000D01*
X135870000Y-118190000D01*
X135370000Y-118190000D01*
X135370000Y-116740000D01*
X134470000Y-116740000D01*
X134470000Y-117737834D01*
X133924913Y-117737834D01*
X133930500Y-117709748D01*
X133930500Y-115270252D01*
X133924913Y-115242165D01*
X134470000Y-115242165D01*
X134470000Y-116240000D01*
X135370000Y-116240000D01*
X135870000Y-116240000D01*
X136770000Y-116240000D01*
X136770000Y-115242165D01*
X136763598Y-115182627D01*
X136763598Y-115182626D01*
X136713351Y-115047908D01*
X136627188Y-114932811D01*
X136512091Y-114846648D01*
X136377373Y-114796401D01*
X136317834Y-114790000D01*
X135870000Y-114790000D01*
X135870000Y-116240000D01*
X135370000Y-116240000D01*
X135370000Y-114790000D01*
X134922166Y-114790000D01*
X134862627Y-114796401D01*
X134862626Y-114796401D01*
X134727908Y-114846648D01*
X134612811Y-114932811D01*
X134526648Y-115047908D01*
X134476401Y-115182626D01*
X134476401Y-115182627D01*
X134470000Y-115242165D01*
X133924913Y-115242165D01*
X133918867Y-115211769D01*
X133878744Y-115151721D01*
X133874552Y-115145447D01*
X133834795Y-115118882D01*
X133808231Y-115101133D01*
X133749748Y-115089500D01*
X132410252Y-115089500D01*
X132351769Y-115101133D01*
X132285447Y-115145447D01*
X132241626Y-115211031D01*
X132241133Y-115211769D01*
X132229500Y-115270252D01*
X131390500Y-115270252D01*
X131378867Y-115211769D01*
X131338744Y-115151721D01*
X131334552Y-115145447D01*
X131294795Y-115118882D01*
X131268231Y-115101133D01*
X131209748Y-115089500D01*
X131209745Y-115089500D01*
X130939500Y-115089500D01*
X130904852Y-115075148D01*
X130890500Y-115040500D01*
X130890500Y-103321524D01*
X150424500Y-103321524D01*
X150424500Y-103658476D01*
X150425792Y-103681485D01*
X150425793Y-103681494D01*
X150463517Y-104016307D01*
X150463521Y-104016331D01*
X150467374Y-104039015D01*
X150467383Y-104039057D01*
X150542352Y-104367519D01*
X150542361Y-104367556D01*
X150548732Y-104389668D01*
X150548738Y-104389688D01*
X150660023Y-104707724D01*
X150660031Y-104707744D01*
X150668843Y-104729017D01*
X150668858Y-104729051D01*
X150815030Y-105032579D01*
X150815040Y-105032599D01*
X150815044Y-105032606D01*
X150826191Y-105052775D01*
X150843964Y-105081060D01*
X150974934Y-105289500D01*
X151005460Y-105338081D01*
X151018796Y-105356876D01*
X151184425Y-105564569D01*
X151228893Y-105620329D01*
X151244221Y-105637481D01*
X151244248Y-105637509D01*
X151482490Y-105875751D01*
X151482518Y-105875778D01*
X151499670Y-105891106D01*
X151499676Y-105891111D01*
X151499683Y-105891117D01*
X151763124Y-106101204D01*
X151781919Y-106114540D01*
X152067225Y-106293809D01*
X152087394Y-106304956D01*
X152087398Y-106304958D01*
X152087400Y-106304959D01*
X152087420Y-106304969D01*
X152390948Y-106451141D01*
X152390959Y-106451145D01*
X152390978Y-106451155D01*
X152412269Y-106459974D01*
X152730313Y-106571262D01*
X152752457Y-106577642D01*
X153080962Y-106652621D01*
X153080978Y-106652623D01*
X153080984Y-106652625D01*
X153086629Y-106653583D01*
X153103681Y-106656481D01*
X153438515Y-106694208D01*
X153461524Y-106695500D01*
X153461533Y-106695500D01*
X153798467Y-106695500D01*
X153798476Y-106695500D01*
X153821485Y-106694208D01*
X154156319Y-106656481D01*
X154177028Y-106652962D01*
X154179015Y-106652625D01*
X154179017Y-106652624D01*
X154179038Y-106652621D01*
X154507543Y-106577642D01*
X154529687Y-106571262D01*
X154847731Y-106459974D01*
X154869022Y-106451155D01*
X155172606Y-106304956D01*
X155192775Y-106293809D01*
X155478081Y-106114540D01*
X155496876Y-106101204D01*
X155760317Y-105891117D01*
X155777500Y-105875761D01*
X156015761Y-105637500D01*
X156031117Y-105620317D01*
X156241204Y-105356876D01*
X156254540Y-105338081D01*
X156433809Y-105052775D01*
X156444956Y-105032606D01*
X156591155Y-104729022D01*
X156599974Y-104707731D01*
X156711262Y-104389687D01*
X156717642Y-104367543D01*
X156792621Y-104039038D01*
X156796481Y-104016319D01*
X156834208Y-103681485D01*
X156835500Y-103658476D01*
X156835500Y-103321524D01*
X156834208Y-103298515D01*
X156796481Y-102963681D01*
X156792621Y-102940962D01*
X156717642Y-102612457D01*
X156711262Y-102590313D01*
X156599974Y-102272269D01*
X156591155Y-102250978D01*
X156582950Y-102233940D01*
X156444969Y-101947420D01*
X156444959Y-101947400D01*
X156442818Y-101943527D01*
X156433809Y-101927225D01*
X156254540Y-101641919D01*
X156241204Y-101623124D01*
X156031117Y-101359683D01*
X156031111Y-101359676D01*
X156031106Y-101359670D01*
X156015778Y-101342518D01*
X156015751Y-101342490D01*
X155777509Y-101104248D01*
X155777481Y-101104221D01*
X155760329Y-101088893D01*
X155760321Y-101088886D01*
X155760317Y-101088883D01*
X155496876Y-100878796D01*
X155478081Y-100865460D01*
X155478064Y-100865449D01*
X155192770Y-100686188D01*
X155172599Y-100675040D01*
X155172579Y-100675030D01*
X154869051Y-100528858D01*
X154869017Y-100528843D01*
X154847744Y-100520031D01*
X154847724Y-100520023D01*
X154529688Y-100408738D01*
X154529668Y-100408732D01*
X154507556Y-100402361D01*
X154507519Y-100402352D01*
X154179057Y-100327383D01*
X154179015Y-100327374D01*
X154156331Y-100323521D01*
X154156307Y-100323517D01*
X153821494Y-100285793D01*
X153821493Y-100285792D01*
X153821485Y-100285792D01*
X153798476Y-100284500D01*
X153461524Y-100284500D01*
X153438515Y-100285792D01*
X153438507Y-100285792D01*
X153438505Y-100285793D01*
X153103692Y-100323517D01*
X153103668Y-100323521D01*
X153080984Y-100327374D01*
X153080942Y-100327383D01*
X152752480Y-100402352D01*
X152752443Y-100402361D01*
X152730331Y-100408732D01*
X152730311Y-100408738D01*
X152412275Y-100520023D01*
X152412255Y-100520031D01*
X152390982Y-100528843D01*
X152390948Y-100528858D01*
X152087420Y-100675030D01*
X152087400Y-100675040D01*
X152067229Y-100686188D01*
X151781935Y-100865449D01*
X151781918Y-100865460D01*
X151763127Y-100878793D01*
X151499670Y-101088893D01*
X151482518Y-101104221D01*
X151482490Y-101104248D01*
X151244248Y-101342490D01*
X151244221Y-101342518D01*
X151228893Y-101359670D01*
X151018793Y-101623127D01*
X151005460Y-101641918D01*
X151005449Y-101641935D01*
X150826188Y-101927229D01*
X150815040Y-101947400D01*
X150815030Y-101947420D01*
X150668858Y-102250948D01*
X150668843Y-102250982D01*
X150660031Y-102272255D01*
X150660023Y-102272275D01*
X150548738Y-102590311D01*
X150548732Y-102590331D01*
X150542361Y-102612443D01*
X150542352Y-102612480D01*
X150467383Y-102940942D01*
X150467374Y-102940984D01*
X150463521Y-102963668D01*
X150463517Y-102963692D01*
X150426426Y-103292890D01*
X150425792Y-103298515D01*
X150424500Y-103321524D01*
X130890500Y-103321524D01*
X130890500Y-99565477D01*
X130904852Y-99530829D01*
X131250894Y-99184787D01*
X134600469Y-95835212D01*
X134646614Y-95755288D01*
X134648890Y-95746793D01*
X134670500Y-95666144D01*
X134670500Y-91745477D01*
X134684852Y-91710829D01*
X136590271Y-89805410D01*
X138530469Y-87865212D01*
X138576614Y-87785288D01*
X138586126Y-87749788D01*
X138600500Y-87696144D01*
X138600500Y-87568316D01*
X141015001Y-87568316D01*
X141025143Y-87667603D01*
X141078453Y-87828484D01*
X141167428Y-87972733D01*
X141287266Y-88092571D01*
X141431515Y-88181546D01*
X141592396Y-88234856D01*
X141691682Y-88244999D01*
X141739999Y-88244999D01*
X141740000Y-88244998D01*
X141740000Y-87545000D01*
X141015001Y-87545000D01*
X141015001Y-87568316D01*
X138600500Y-87568316D01*
X138600500Y-86064500D01*
X138614852Y-86029852D01*
X138649500Y-86015500D01*
X138708338Y-86015500D01*
X138708342Y-86015500D01*
X138756539Y-86009155D01*
X138862310Y-85959833D01*
X138862313Y-85959829D01*
X138866083Y-85958072D01*
X138903551Y-85956436D01*
X138921440Y-85967833D01*
X139164087Y-86210480D01*
X139219147Y-86242269D01*
X139255410Y-86263206D01*
X139255412Y-86263207D01*
X139357269Y-86290499D01*
X139357270Y-86290500D01*
X139357273Y-86290500D01*
X139717641Y-86290500D01*
X139752289Y-86304852D01*
X139761299Y-86317251D01*
X139766950Y-86328342D01*
X139766953Y-86328345D01*
X139856657Y-86418049D01*
X139856664Y-86418054D01*
X139969691Y-86475644D01*
X139969692Y-86475644D01*
X139969696Y-86475646D01*
X140063481Y-86490500D01*
X140676518Y-86490499D01*
X140770304Y-86475646D01*
X140866733Y-86426513D01*
X140883335Y-86418054D01*
X140883337Y-86418052D01*
X140883342Y-86418050D01*
X140973050Y-86328342D01*
X140978700Y-86317252D01*
X141007219Y-86292898D01*
X141022359Y-86290500D01*
X141438456Y-86290500D01*
X141473104Y-86304852D01*
X141484395Y-86316143D01*
X141498747Y-86350791D01*
X141484395Y-86385439D01*
X141465161Y-86397304D01*
X141431514Y-86408454D01*
X141287266Y-86497428D01*
X141167428Y-86617266D01*
X141078453Y-86761515D01*
X141025143Y-86922396D01*
X141015000Y-87021682D01*
X141015000Y-87045000D01*
X141941000Y-87045000D01*
X141975648Y-87059352D01*
X141990000Y-87094000D01*
X141990000Y-87295000D01*
X142191000Y-87295000D01*
X142225648Y-87309352D01*
X142240000Y-87344000D01*
X142240000Y-88244999D01*
X142288316Y-88244999D01*
X142387603Y-88234856D01*
X142548484Y-88181546D01*
X142692733Y-88092571D01*
X142812570Y-87972734D01*
X142888296Y-87849965D01*
X142918701Y-87828010D01*
X142955725Y-87833984D01*
X142964649Y-87841041D01*
X142996657Y-87873049D01*
X142996664Y-87873054D01*
X143109691Y-87930644D01*
X143109692Y-87930644D01*
X143109696Y-87930646D01*
X143203481Y-87945500D01*
X143816518Y-87945499D01*
X143910304Y-87930646D01*
X143971387Y-87899522D01*
X144023335Y-87873054D01*
X144023337Y-87873052D01*
X144023342Y-87873050D01*
X144113050Y-87783342D01*
X144113054Y-87783335D01*
X144144176Y-87722255D01*
X144172693Y-87697898D01*
X144187835Y-87695500D01*
X144629522Y-87695500D01*
X144664170Y-87709852D01*
X147194787Y-90240469D01*
X147264088Y-90280480D01*
X147274709Y-90286613D01*
X147274715Y-90286615D01*
X147363852Y-90310499D01*
X147363853Y-90310500D01*
X147363856Y-90310500D01*
X148122954Y-90310500D01*
X148147454Y-90317065D01*
X148175413Y-90333207D01*
X148175417Y-90333208D01*
X148277269Y-90360499D01*
X148277270Y-90360500D01*
X148277273Y-90360500D01*
X148382730Y-90360500D01*
X148382730Y-90360499D01*
X148484587Y-90333207D01*
X148484591Y-90333205D01*
X148496823Y-90326142D01*
X148575913Y-90280480D01*
X148650480Y-90205913D01*
X148703207Y-90114587D01*
X148730499Y-90012730D01*
X148730500Y-90012730D01*
X148730500Y-89907270D01*
X148730499Y-89907269D01*
X148703207Y-89805414D01*
X148703206Y-89805410D01*
X148650479Y-89714086D01*
X148575913Y-89639520D01*
X148484589Y-89586793D01*
X148484585Y-89586792D01*
X148382730Y-89559500D01*
X148382727Y-89559500D01*
X148277273Y-89559500D01*
X148277270Y-89559500D01*
X148175417Y-89586791D01*
X148175411Y-89586794D01*
X148147454Y-89602935D01*
X148122954Y-89609500D01*
X147575478Y-89609500D01*
X147540830Y-89595148D01*
X145010212Y-87064530D01*
X144930291Y-87018387D01*
X144930288Y-87018386D01*
X144916576Y-87014712D01*
X144891432Y-87007974D01*
X144841146Y-86994500D01*
X144841144Y-86994500D01*
X144187835Y-86994500D01*
X144153187Y-86980148D01*
X144144176Y-86967745D01*
X144113054Y-86906664D01*
X144113049Y-86906657D01*
X144023342Y-86816950D01*
X144023335Y-86816945D01*
X143910308Y-86759355D01*
X143910305Y-86759354D01*
X143910304Y-86759354D01*
X143816519Y-86744500D01*
X143816517Y-86744500D01*
X143203482Y-86744500D01*
X143109696Y-86759353D01*
X142996664Y-86816945D01*
X142996654Y-86816952D01*
X142995185Y-86818422D01*
X142993901Y-86818953D01*
X142993543Y-86819214D01*
X142993480Y-86819127D01*
X142960535Y-86832770D01*
X142925889Y-86818414D01*
X142914028Y-86799183D01*
X142901546Y-86761515D01*
X142812571Y-86617266D01*
X142692733Y-86497428D01*
X142548484Y-86408453D01*
X142514839Y-86397304D01*
X142486464Y-86372782D01*
X142483739Y-86335378D01*
X142495602Y-86316145D01*
X142588528Y-86223220D01*
X142614496Y-86172253D01*
X142643013Y-86147898D01*
X142658155Y-86145500D01*
X142898812Y-86145500D01*
X142933460Y-86159852D01*
X142996657Y-86223049D01*
X142996664Y-86223054D01*
X143109691Y-86280644D01*
X143109692Y-86280644D01*
X143109696Y-86280646D01*
X143203481Y-86295500D01*
X143816518Y-86295499D01*
X143910304Y-86280646D01*
X143985623Y-86242269D01*
X144023335Y-86223054D01*
X144023337Y-86223052D01*
X144023342Y-86223050D01*
X144113050Y-86133342D01*
X144124193Y-86111473D01*
X144170644Y-86020309D01*
X144170644Y-86020307D01*
X144170646Y-86020304D01*
X144185500Y-85926519D01*
X144185499Y-85463482D01*
X144170646Y-85369696D01*
X144156586Y-85342102D01*
X144113054Y-85256664D01*
X144113049Y-85256657D01*
X144023342Y-85166950D01*
X144023335Y-85166945D01*
X143910308Y-85109355D01*
X143910305Y-85109354D01*
X143910304Y-85109354D01*
X143816519Y-85094500D01*
X143816517Y-85094500D01*
X143203482Y-85094500D01*
X143109696Y-85109353D01*
X142996664Y-85166945D01*
X142996657Y-85166950D01*
X142906950Y-85256657D01*
X142906945Y-85256664D01*
X142875824Y-85317745D01*
X142847307Y-85342102D01*
X142832165Y-85344500D01*
X142658155Y-85344500D01*
X142623507Y-85330148D01*
X142614497Y-85317748D01*
X142588528Y-85266780D01*
X142493220Y-85171472D01*
X142493213Y-85171467D01*
X142373129Y-85110282D01*
X142373127Y-85110281D01*
X142373126Y-85110281D01*
X142273488Y-85094500D01*
X141706512Y-85094500D01*
X141606874Y-85110281D01*
X141606872Y-85110281D01*
X141606870Y-85110282D01*
X141486786Y-85171467D01*
X141486779Y-85171472D01*
X141391472Y-85266779D01*
X141391467Y-85266786D01*
X141330282Y-85386871D01*
X141330281Y-85386872D01*
X141330281Y-85386874D01*
X141320574Y-85448165D01*
X141300978Y-85480142D01*
X141272177Y-85489500D01*
X141022359Y-85489500D01*
X140987711Y-85475148D01*
X140978700Y-85462747D01*
X140973050Y-85451658D01*
X140883342Y-85361950D01*
X140883335Y-85361945D01*
X140770308Y-85304355D01*
X140770305Y-85304354D01*
X140770304Y-85304354D01*
X140676519Y-85289500D01*
X140676517Y-85289500D01*
X140063482Y-85289500D01*
X139969696Y-85304353D01*
X139856664Y-85361945D01*
X139856657Y-85361950D01*
X139766953Y-85451654D01*
X139766951Y-85451656D01*
X139766950Y-85451658D01*
X139761300Y-85462747D01*
X139732781Y-85487102D01*
X139717641Y-85489500D01*
X139596189Y-85489500D01*
X139561541Y-85475148D01*
X139280913Y-85194520D01*
X139189589Y-85141793D01*
X139189587Y-85141792D01*
X139087730Y-85114500D01*
X139087727Y-85114500D01*
X138926939Y-85114500D01*
X138892291Y-85100148D01*
X138866791Y-85074648D01*
X138852439Y-85040000D01*
X138866791Y-85005352D01*
X138942292Y-84929852D01*
X138976940Y-84915500D01*
X139141146Y-84915500D01*
X139186630Y-84903312D01*
X139230288Y-84891614D01*
X139251235Y-84879520D01*
X139310212Y-84845470D01*
X139550829Y-84604851D01*
X139585477Y-84590500D01*
X139692165Y-84590500D01*
X139726813Y-84604852D01*
X139735824Y-84617255D01*
X139766945Y-84678335D01*
X139766950Y-84678342D01*
X139856657Y-84768049D01*
X139856664Y-84768054D01*
X139969691Y-84825644D01*
X139969692Y-84825644D01*
X139969696Y-84825646D01*
X140063481Y-84840500D01*
X140676518Y-84840499D01*
X140770304Y-84825646D01*
X140831387Y-84794522D01*
X140883335Y-84768054D01*
X140883337Y-84768052D01*
X140883342Y-84768050D01*
X140973050Y-84678342D01*
X140973054Y-84678335D01*
X141004176Y-84617255D01*
X141032693Y-84592898D01*
X141047835Y-84590500D01*
X141282471Y-84590500D01*
X141317119Y-84604852D01*
X141327405Y-84625000D01*
X141329087Y-84624454D01*
X141330280Y-84628124D01*
X141391467Y-84748213D01*
X141391472Y-84748220D01*
X141486779Y-84843527D01*
X141486786Y-84843532D01*
X141606870Y-84904717D01*
X141606874Y-84904719D01*
X141706512Y-84920500D01*
X141706514Y-84920500D01*
X142273486Y-84920500D01*
X142273488Y-84920500D01*
X142373126Y-84904719D01*
X142489415Y-84845467D01*
X142493213Y-84843532D01*
X142493215Y-84843530D01*
X142493220Y-84843528D01*
X142588528Y-84748220D01*
X142588532Y-84748213D01*
X142639973Y-84647255D01*
X142668490Y-84622898D01*
X142683632Y-84620500D01*
X144454522Y-84620500D01*
X144489170Y-84634852D01*
X148915148Y-89060830D01*
X148929500Y-89095478D01*
X148929500Y-91454521D01*
X148915148Y-91489169D01*
X148298562Y-92105754D01*
X148276598Y-92118436D01*
X148245413Y-92126792D01*
X148245410Y-92126793D01*
X148154086Y-92179520D01*
X148154086Y-92179521D01*
X148079521Y-92254086D01*
X148079520Y-92254086D01*
X148026793Y-92345410D01*
X148026792Y-92345413D01*
X148018436Y-92376598D01*
X148005754Y-92398562D01*
X147479170Y-92925148D01*
X147444522Y-92939500D01*
X136519500Y-92939500D01*
X136484852Y-92925148D01*
X136470500Y-92890500D01*
X136470500Y-92070255D01*
X136470500Y-92070252D01*
X136458867Y-92011769D01*
X136419758Y-91953239D01*
X136414552Y-91945447D01*
X136374795Y-91918882D01*
X136348231Y-91901133D01*
X136289748Y-91889500D01*
X134950252Y-91889500D01*
X134891769Y-91901133D01*
X134825447Y-91945447D01*
X134781133Y-92011769D01*
X134769500Y-92070252D01*
X134769500Y-94509748D01*
X134781133Y-94568231D01*
X134798882Y-94594795D01*
X134825447Y-94634552D01*
X134840222Y-94644424D01*
X134891769Y-94678867D01*
X134950252Y-94690500D01*
X134950255Y-94690500D01*
X136289745Y-94690500D01*
X136289748Y-94690500D01*
X136348231Y-94678867D01*
X136414552Y-94634552D01*
X136458867Y-94568231D01*
X136470500Y-94509748D01*
X136470500Y-93689500D01*
X136484852Y-93654852D01*
X136519500Y-93640500D01*
X147656146Y-93640500D01*
X147710698Y-93625882D01*
X147745288Y-93616614D01*
X147755878Y-93610500D01*
X147825212Y-93570470D01*
X148501438Y-92894242D01*
X148523399Y-92881563D01*
X148554587Y-92873207D01*
X148645913Y-92820480D01*
X148720480Y-92745913D01*
X148773207Y-92654587D01*
X148781563Y-92623399D01*
X148794242Y-92601438D01*
X149560470Y-91835212D01*
X149606614Y-91755288D01*
X149618557Y-91710716D01*
X149630500Y-91666146D01*
X149630500Y-88883853D01*
X149606614Y-88794713D01*
X149606613Y-88794710D01*
X149578035Y-88745212D01*
X149578034Y-88745211D01*
X149560472Y-88714791D01*
X149560467Y-88714785D01*
X144835212Y-83989530D01*
X144755289Y-83943386D01*
X144752868Y-83942737D01*
X144748675Y-83941614D01*
X144743827Y-83940315D01*
X144666147Y-83919500D01*
X144666144Y-83919500D01*
X142683632Y-83919500D01*
X142648984Y-83905148D01*
X142639973Y-83892745D01*
X142588532Y-83791786D01*
X142588527Y-83791779D01*
X142495604Y-83698856D01*
X142481252Y-83664208D01*
X142495604Y-83629560D01*
X142514840Y-83617695D01*
X142548482Y-83606547D01*
X142548484Y-83606546D01*
X142692733Y-83517571D01*
X142812571Y-83397733D01*
X142901546Y-83253484D01*
X142954856Y-83092603D01*
X142965000Y-82993317D01*
X142965000Y-82970000D01*
X141015001Y-82970000D01*
X141015001Y-82993316D01*
X141025143Y-83092603D01*
X141078453Y-83253484D01*
X141167428Y-83397733D01*
X141287266Y-83517571D01*
X141431515Y-83606546D01*
X141465160Y-83617695D01*
X141493535Y-83642217D01*
X141496260Y-83679621D01*
X141484395Y-83698856D01*
X141391473Y-83791778D01*
X141391467Y-83791786D01*
X141355313Y-83862745D01*
X141326796Y-83887102D01*
X141311654Y-83889500D01*
X141047835Y-83889500D01*
X141013187Y-83875148D01*
X141004176Y-83862745D01*
X140973054Y-83801664D01*
X140973049Y-83801657D01*
X140883342Y-83711950D01*
X140883335Y-83711945D01*
X140770308Y-83654355D01*
X140770305Y-83654354D01*
X140770304Y-83654354D01*
X140676519Y-83639500D01*
X140676517Y-83639500D01*
X140063482Y-83639500D01*
X139969696Y-83654353D01*
X139856664Y-83711945D01*
X139856657Y-83711950D01*
X139766950Y-83801657D01*
X139766945Y-83801664D01*
X139735824Y-83862745D01*
X139707307Y-83887102D01*
X139692165Y-83889500D01*
X139373854Y-83889500D01*
X139321682Y-83903480D01*
X139295595Y-83910470D01*
X139285679Y-83913126D01*
X139284708Y-83913387D01*
X139204794Y-83959527D01*
X139204784Y-83959534D01*
X138987879Y-84176439D01*
X138953231Y-84190791D01*
X138918583Y-84176439D01*
X138866792Y-84124648D01*
X138852440Y-84090000D01*
X138866792Y-84055352D01*
X138944831Y-83977312D01*
X138944833Y-83977310D01*
X138994155Y-83871539D01*
X139000500Y-83823342D01*
X139000500Y-83406658D01*
X138994155Y-83358461D01*
X138944833Y-83252690D01*
X138944832Y-83252689D01*
X138944831Y-83252687D01*
X138862312Y-83170168D01*
X138862310Y-83170167D01*
X138756537Y-83120844D01*
X138756538Y-83120844D01*
X138719553Y-83115976D01*
X138708342Y-83114500D01*
X138708340Y-83114500D01*
X138644500Y-83114500D01*
X138609852Y-83100148D01*
X138595500Y-83065500D01*
X138595500Y-82446682D01*
X141015000Y-82446682D01*
X141015000Y-82470000D01*
X141740000Y-82470000D01*
X142240000Y-82470000D01*
X142964999Y-82470000D01*
X142964999Y-82446683D01*
X142954856Y-82347396D01*
X142901546Y-82186515D01*
X142812571Y-82042266D01*
X142692733Y-81922428D01*
X142548484Y-81833453D01*
X142387603Y-81780143D01*
X142288317Y-81770000D01*
X142240000Y-81770000D01*
X142240000Y-82470000D01*
X141740000Y-82470000D01*
X141740000Y-81770000D01*
X141691683Y-81770000D01*
X141592396Y-81780143D01*
X141431515Y-81833453D01*
X141287266Y-81922428D01*
X141167428Y-82042266D01*
X141078453Y-82186515D01*
X141025143Y-82347396D01*
X141015000Y-82446682D01*
X138595500Y-82446682D01*
X138595500Y-82045384D01*
X138609852Y-82010736D01*
X138636837Y-81996987D01*
X138639670Y-81996538D01*
X138645304Y-81995646D01*
X138733951Y-81950478D01*
X138758335Y-81938054D01*
X138758337Y-81938052D01*
X138758342Y-81938050D01*
X138848050Y-81848342D01*
X138848111Y-81848223D01*
X138905644Y-81735309D01*
X138905644Y-81735307D01*
X138905646Y-81735304D01*
X138920500Y-81641519D01*
X138920499Y-81178482D01*
X138905646Y-81084696D01*
X138891586Y-81057102D01*
X138848054Y-80971664D01*
X138848049Y-80971657D01*
X138758342Y-80881950D01*
X138758335Y-80881945D01*
X138645308Y-80824355D01*
X138645305Y-80824354D01*
X138645304Y-80824354D01*
X138551519Y-80809500D01*
X138551517Y-80809500D01*
X137938482Y-80809500D01*
X137844696Y-80824353D01*
X137731664Y-80881945D01*
X137731657Y-80881950D01*
X137641950Y-80971657D01*
X137641945Y-80971664D01*
X137610824Y-81032745D01*
X137582307Y-81057102D01*
X137567165Y-81059500D01*
X137404112Y-81059500D01*
X137369464Y-81045148D01*
X137355716Y-81018167D01*
X137354719Y-81011874D01*
X137354718Y-81011872D01*
X137293532Y-80891786D01*
X137293527Y-80891779D01*
X137200604Y-80798856D01*
X137186252Y-80764208D01*
X137200604Y-80729560D01*
X137219840Y-80717695D01*
X137253482Y-80706547D01*
X137253484Y-80706546D01*
X137397733Y-80617571D01*
X137517571Y-80497733D01*
X137606546Y-80353484D01*
X137606547Y-80353482D01*
X137628983Y-80285772D01*
X137653504Y-80257396D01*
X137690908Y-80254671D01*
X137710144Y-80266536D01*
X137731657Y-80288049D01*
X137731664Y-80288054D01*
X137844691Y-80345644D01*
X137844692Y-80345644D01*
X137844696Y-80345646D01*
X137938481Y-80360500D01*
X138551518Y-80360499D01*
X138645304Y-80345646D01*
X138735745Y-80299564D01*
X138758335Y-80288054D01*
X138758337Y-80288052D01*
X138758342Y-80288050D01*
X138848050Y-80198342D01*
X138848054Y-80198335D01*
X138879176Y-80137255D01*
X138907693Y-80112898D01*
X138922835Y-80110500D01*
X141954522Y-80110500D01*
X141989170Y-80124852D01*
X147024787Y-85160469D01*
X147083765Y-85194520D01*
X147104712Y-85206614D01*
X147126998Y-85212585D01*
X147193853Y-85230500D01*
X147193856Y-85230500D01*
X148062954Y-85230500D01*
X148087454Y-85237065D01*
X148115413Y-85253207D01*
X148135025Y-85258462D01*
X148217269Y-85280499D01*
X148217270Y-85280500D01*
X148217273Y-85280500D01*
X148322730Y-85280500D01*
X148322730Y-85280499D01*
X148424587Y-85253207D01*
X148424591Y-85253205D01*
X148436823Y-85246142D01*
X148515913Y-85200480D01*
X148590480Y-85125913D01*
X148643207Y-85034587D01*
X148670499Y-84932730D01*
X148670500Y-84932730D01*
X148670500Y-84827270D01*
X148670499Y-84827269D01*
X148643207Y-84725414D01*
X148643206Y-84725410D01*
X148609284Y-84666657D01*
X148590480Y-84634087D01*
X148515913Y-84559520D01*
X148424589Y-84506793D01*
X148424585Y-84506792D01*
X148322730Y-84479500D01*
X148322727Y-84479500D01*
X148217273Y-84479500D01*
X148217270Y-84479500D01*
X148115417Y-84506791D01*
X148115411Y-84506794D01*
X148087454Y-84522935D01*
X148062954Y-84529500D01*
X147405478Y-84529500D01*
X147370830Y-84515148D01*
X142335212Y-79479530D01*
X142255290Y-79433386D01*
X142255286Y-79433385D01*
X142166147Y-79409500D01*
X142166144Y-79409500D01*
X138922835Y-79409500D01*
X138888187Y-79395148D01*
X138879176Y-79382745D01*
X138848054Y-79321664D01*
X138848049Y-79321657D01*
X138758342Y-79231950D01*
X138758335Y-79231945D01*
X138645308Y-79174355D01*
X138645305Y-79174354D01*
X138645304Y-79174354D01*
X138551519Y-79159500D01*
X138551517Y-79159500D01*
X137938482Y-79159500D01*
X137844696Y-79174353D01*
X137731664Y-79231945D01*
X137731660Y-79231948D01*
X137677279Y-79286329D01*
X137642631Y-79300680D01*
X137607982Y-79286328D01*
X137600926Y-79277404D01*
X137517571Y-79142266D01*
X137397733Y-79022428D01*
X137253484Y-78933453D01*
X137092603Y-78880143D01*
X136993317Y-78870000D01*
X136945000Y-78870000D01*
X136945000Y-79771000D01*
X136930648Y-79805648D01*
X136896000Y-79820000D01*
X136695000Y-79820000D01*
X136695000Y-80021000D01*
X136680648Y-80055648D01*
X136646000Y-80070000D01*
X135720001Y-80070000D01*
X135720001Y-80093316D01*
X135730143Y-80192603D01*
X135783453Y-80353484D01*
X135872428Y-80497733D01*
X135992266Y-80617571D01*
X136136515Y-80706546D01*
X136170160Y-80717695D01*
X136198535Y-80742217D01*
X136201260Y-80779621D01*
X136189395Y-80798856D01*
X136096473Y-80891778D01*
X136096467Y-80891786D01*
X136035282Y-81011870D01*
X136035281Y-81011872D01*
X136035281Y-81011874D01*
X136019500Y-81111512D01*
X136019500Y-81628488D01*
X136035281Y-81728126D01*
X136035281Y-81728127D01*
X136035282Y-81728129D01*
X136096467Y-81848213D01*
X136096472Y-81848220D01*
X136191779Y-81943527D01*
X136191786Y-81943532D01*
X136294065Y-81995645D01*
X136311874Y-82004719D01*
X136411512Y-82020500D01*
X136411514Y-82020500D01*
X136978486Y-82020500D01*
X136978488Y-82020500D01*
X137078126Y-82004719D01*
X137140699Y-81972836D01*
X137198213Y-81943532D01*
X137198215Y-81943530D01*
X137198220Y-81943528D01*
X137293528Y-81848220D01*
X137324592Y-81787253D01*
X137353109Y-81762898D01*
X137368251Y-81760500D01*
X137567165Y-81760500D01*
X137601813Y-81774852D01*
X137610824Y-81787255D01*
X137641945Y-81848335D01*
X137641950Y-81848342D01*
X137731657Y-81938049D01*
X137731664Y-81938054D01*
X137844693Y-81995645D01*
X137844694Y-81995645D01*
X137844696Y-81995646D01*
X137853165Y-81996987D01*
X137885140Y-82016579D01*
X137894500Y-82045383D01*
X137894500Y-83065500D01*
X137880148Y-83100148D01*
X137845500Y-83114500D01*
X137791658Y-83114500D01*
X137785314Y-83115335D01*
X137743462Y-83120844D01*
X137637689Y-83170167D01*
X137637687Y-83170168D01*
X137557708Y-83250148D01*
X137523060Y-83264500D01*
X137448853Y-83264500D01*
X137359713Y-83288385D01*
X137359709Y-83288386D01*
X137279787Y-83334530D01*
X137279787Y-83334531D01*
X136719532Y-83894785D01*
X136719530Y-83894787D01*
X136719530Y-83894788D01*
X136708793Y-83913386D01*
X136693245Y-83940315D01*
X136663491Y-83963145D01*
X136626309Y-83958249D01*
X136616162Y-83950462D01*
X136559034Y-83893334D01*
X136559029Y-83893330D01*
X136524042Y-83872639D01*
X136501524Y-83842649D01*
X136500458Y-83824945D01*
X136500395Y-83824941D01*
X136500427Y-83824441D01*
X136500405Y-83824063D01*
X136500500Y-83823342D01*
X136500500Y-83406658D01*
X136494155Y-83358461D01*
X136444833Y-83252690D01*
X136444832Y-83252689D01*
X136444831Y-83252687D01*
X136362312Y-83170168D01*
X136362310Y-83170167D01*
X136256537Y-83120844D01*
X136256538Y-83120844D01*
X136219553Y-83115976D01*
X136208342Y-83114500D01*
X135291658Y-83114500D01*
X135285314Y-83115335D01*
X135243462Y-83120844D01*
X135137689Y-83170167D01*
X135137687Y-83170168D01*
X135055167Y-83252689D01*
X135052707Y-83256203D01*
X135051403Y-83255290D01*
X135028208Y-83276545D01*
X135011449Y-83279500D01*
X134360384Y-83279500D01*
X134325736Y-83265148D01*
X134311987Y-83238168D01*
X134310646Y-83229696D01*
X134280315Y-83170168D01*
X134253054Y-83116664D01*
X134253049Y-83116657D01*
X134163342Y-83026950D01*
X134163337Y-83026946D01*
X134102254Y-82995823D01*
X134077898Y-82967306D01*
X134075500Y-82952164D01*
X134075500Y-81738853D01*
X134051614Y-81649713D01*
X134051614Y-81649712D01*
X134036311Y-81623207D01*
X134005470Y-81569788D01*
X133725212Y-81289530D01*
X133195212Y-80759530D01*
X133189503Y-80756234D01*
X133115290Y-80713386D01*
X133115286Y-80713385D01*
X133026147Y-80689500D01*
X133026144Y-80689500D01*
X129637046Y-80689500D01*
X129612546Y-80682935D01*
X129590545Y-80670233D01*
X129584587Y-80666793D01*
X129584584Y-80666792D01*
X129584582Y-80666791D01*
X129482730Y-80639500D01*
X129482727Y-80639500D01*
X129377273Y-80639500D01*
X129377270Y-80639500D01*
X129275414Y-80666792D01*
X129275410Y-80666793D01*
X129184086Y-80719520D01*
X129184086Y-80719521D01*
X129109521Y-80794086D01*
X129109520Y-80794086D01*
X129056793Y-80885410D01*
X129056792Y-80885414D01*
X129029500Y-80987269D01*
X129029500Y-81092730D01*
X129056792Y-81194585D01*
X129056793Y-81194587D01*
X129072935Y-81222546D01*
X129079500Y-81247045D01*
X129079500Y-82154522D01*
X129065148Y-82189170D01*
X122939531Y-88314787D01*
X122939530Y-88314787D01*
X122899564Y-88384009D01*
X122899564Y-88384011D01*
X122896957Y-88388527D01*
X122893386Y-88394712D01*
X122893384Y-88394716D01*
X122869500Y-88483853D01*
X122869500Y-91840500D01*
X122855148Y-91875148D01*
X122820500Y-91889500D01*
X122550252Y-91889500D01*
X122491769Y-91901133D01*
X122425447Y-91945447D01*
X122381133Y-92011769D01*
X122369500Y-92070252D01*
X118600500Y-92070252D01*
X118600500Y-88542618D01*
X118614852Y-88507970D01*
X118636818Y-88495288D01*
X118644587Y-88493207D01*
X118735913Y-88440480D01*
X118810480Y-88365913D01*
X118863207Y-88274587D01*
X118890499Y-88172730D01*
X118890500Y-88172730D01*
X118890500Y-88067270D01*
X118890499Y-88067269D01*
X118870285Y-87991830D01*
X118863207Y-87965413D01*
X118863206Y-87965412D01*
X118863206Y-87965410D01*
X118810479Y-87874086D01*
X118735913Y-87799520D01*
X118644589Y-87746793D01*
X118644585Y-87746792D01*
X118542730Y-87719500D01*
X118542727Y-87719500D01*
X118437273Y-87719500D01*
X118437270Y-87719500D01*
X118335414Y-87746792D01*
X118335410Y-87746793D01*
X118244086Y-87799520D01*
X118175545Y-87868061D01*
X118140897Y-87882413D01*
X118106249Y-87868061D01*
X118098462Y-87857913D01*
X118093873Y-87849965D01*
X118090480Y-87844087D01*
X118015913Y-87769520D01*
X117924589Y-87716793D01*
X117924585Y-87716792D01*
X117822730Y-87689500D01*
X117822727Y-87689500D01*
X117717273Y-87689500D01*
X117717270Y-87689500D01*
X117615414Y-87716792D01*
X117615410Y-87716793D01*
X117524086Y-87769520D01*
X117524086Y-87769521D01*
X117449521Y-87844086D01*
X117449520Y-87844086D01*
X117396793Y-87935410D01*
X117396792Y-87935414D01*
X117369500Y-88037269D01*
X117369500Y-88142730D01*
X117396792Y-88244585D01*
X117396793Y-88244589D01*
X117445350Y-88328690D01*
X117449520Y-88335913D01*
X117524087Y-88410480D01*
X117576047Y-88440479D01*
X117615409Y-88463205D01*
X117615413Y-88463207D01*
X117635183Y-88468504D01*
X117664935Y-88491334D01*
X117671500Y-88515834D01*
X117671500Y-104439371D01*
X117657148Y-104474019D01*
X116856019Y-105275148D01*
X116821371Y-105289500D01*
X114254767Y-105289500D01*
X114220119Y-105275148D01*
X113404852Y-104459881D01*
X113390500Y-104425233D01*
X113390500Y-104417270D01*
X113390499Y-104417269D01*
X113383103Y-104389668D01*
X113363207Y-104315413D01*
X113363206Y-104315412D01*
X113363206Y-104315410D01*
X113310479Y-104224086D01*
X113235913Y-104149520D01*
X113144589Y-104096793D01*
X113144585Y-104096792D01*
X113042730Y-104069500D01*
X113042727Y-104069500D01*
X112937273Y-104069500D01*
X112937270Y-104069500D01*
X112835414Y-104096792D01*
X112835410Y-104096793D01*
X112744086Y-104149520D01*
X112744086Y-104149521D01*
X112669521Y-104224086D01*
X112669520Y-104224086D01*
X112616793Y-104315410D01*
X112616792Y-104315414D01*
X112589500Y-104417269D01*
X83307548Y-104417269D01*
X83313886Y-104395270D01*
X83391364Y-104055816D01*
X83395224Y-104033096D01*
X83434208Y-103687100D01*
X83435500Y-103664092D01*
X83435500Y-103315908D01*
X83434208Y-103292900D01*
X83395224Y-102946904D01*
X83391364Y-102924184D01*
X83313886Y-102584730D01*
X83307506Y-102562586D01*
X83192508Y-102233940D01*
X83183689Y-102212649D01*
X83069002Y-101974500D01*
X83032617Y-101898945D01*
X83032614Y-101898939D01*
X83021476Y-101878786D01*
X83021470Y-101878775D01*
X82836225Y-101583959D01*
X82822889Y-101565164D01*
X82739151Y-101460160D01*
X92355500Y-101460160D01*
X92355500Y-101579839D01*
X92386472Y-101695430D01*
X92386473Y-101695433D01*
X92446309Y-101799070D01*
X92530930Y-101883691D01*
X92557351Y-101898945D01*
X92634566Y-101943526D01*
X92634569Y-101943527D01*
X92750160Y-101974499D01*
X92750161Y-101974500D01*
X92750164Y-101974500D01*
X92869839Y-101974500D01*
X92869839Y-101974499D01*
X92985431Y-101943527D01*
X93089070Y-101883691D01*
X93173691Y-101799070D01*
X93233527Y-101695431D01*
X93264499Y-101579839D01*
X93264500Y-101579839D01*
X93264500Y-101460161D01*
X93264499Y-101460160D01*
X93233527Y-101344569D01*
X93233526Y-101344566D01*
X93195591Y-101278862D01*
X93173691Y-101240930D01*
X93089070Y-101156309D01*
X92985433Y-101096473D01*
X92985430Y-101096472D01*
X92869839Y-101065500D01*
X92869836Y-101065500D01*
X92750164Y-101065500D01*
X92750161Y-101065500D01*
X92634569Y-101096472D01*
X92634566Y-101096473D01*
X92530929Y-101156309D01*
X92530929Y-101156310D01*
X92446310Y-101240929D01*
X92446309Y-101240929D01*
X92386473Y-101344566D01*
X92386472Y-101344569D01*
X92355500Y-101460160D01*
X82739151Y-101460160D01*
X82605799Y-101292943D01*
X82605792Y-101292935D01*
X82590459Y-101275778D01*
X82590433Y-101275750D01*
X82344249Y-101029566D01*
X82344221Y-101029540D01*
X82327064Y-101014207D01*
X82327055Y-101014199D01*
X82054832Y-100797108D01*
X82036041Y-100783775D01*
X82036024Y-100783764D01*
X81862974Y-100675030D01*
X81741225Y-100598530D01*
X81741217Y-100598526D01*
X81741213Y-100598523D01*
X81721060Y-100587385D01*
X81721054Y-100587382D01*
X81407380Y-100436324D01*
X81407346Y-100436309D01*
X81386073Y-100427497D01*
X81386053Y-100427489D01*
X81057414Y-100312494D01*
X81035296Y-100306121D01*
X81035278Y-100306116D01*
X81035270Y-100306114D01*
X81035262Y-100306112D01*
X81035246Y-100306108D01*
X80695835Y-100228640D01*
X80695793Y-100228631D01*
X80673108Y-100224778D01*
X80673084Y-100224774D01*
X80327109Y-100185793D01*
X80327108Y-100185792D01*
X80327100Y-100185792D01*
X80304092Y-100184500D01*
X79955908Y-100184500D01*
X79932900Y-100185792D01*
X79932892Y-100185792D01*
X79932890Y-100185793D01*
X79586915Y-100224774D01*
X79586891Y-100224778D01*
X79564206Y-100228631D01*
X79564164Y-100228640D01*
X79224753Y-100306108D01*
X79224703Y-100306121D01*
X79202585Y-100312494D01*
X78873946Y-100427489D01*
X78873926Y-100427497D01*
X78852653Y-100436309D01*
X78852619Y-100436324D01*
X78538945Y-100587382D01*
X78538939Y-100587385D01*
X78518786Y-100598523D01*
X78223975Y-100783764D01*
X78223958Y-100783775D01*
X78205167Y-100797108D01*
X77932944Y-101014199D01*
X77932935Y-101014207D01*
X77915778Y-101029540D01*
X77915750Y-101029566D01*
X77669566Y-101275750D01*
X77669540Y-101275778D01*
X77654207Y-101292935D01*
X77654199Y-101292944D01*
X77437108Y-101565167D01*
X77423775Y-101583958D01*
X77423764Y-101583975D01*
X77238523Y-101878786D01*
X77227385Y-101898939D01*
X77227382Y-101898945D01*
X77076324Y-102212619D01*
X77076309Y-102212653D01*
X77067497Y-102233926D01*
X77067489Y-102233946D01*
X76952494Y-102562585D01*
X76946121Y-102584703D01*
X76946108Y-102584753D01*
X76868640Y-102924164D01*
X76868631Y-102924206D01*
X76864778Y-102946891D01*
X76864774Y-102946915D01*
X76862884Y-102963692D01*
X76825792Y-103292900D01*
X76824500Y-103315908D01*
X75290500Y-103315908D01*
X75290500Y-93100688D01*
X85339500Y-93100688D01*
X85339500Y-93219311D01*
X85370200Y-93333884D01*
X85370201Y-93333887D01*
X85429511Y-93436613D01*
X85513387Y-93520489D01*
X85616114Y-93579799D01*
X85644758Y-93587474D01*
X85730688Y-93610500D01*
X85730691Y-93610500D01*
X85849311Y-93610500D01*
X85906597Y-93595149D01*
X85963886Y-93579799D01*
X86066613Y-93520489D01*
X86150489Y-93436613D01*
X86209799Y-93333886D01*
X86225149Y-93276597D01*
X86240500Y-93219311D01*
X86240500Y-93100688D01*
X86209799Y-92986115D01*
X86209798Y-92986112D01*
X86156757Y-92894244D01*
X86150489Y-92883387D01*
X86066613Y-92799511D01*
X85963887Y-92740201D01*
X85963884Y-92740200D01*
X85849312Y-92709500D01*
X85849309Y-92709500D01*
X85730691Y-92709500D01*
X85730688Y-92709500D01*
X85616115Y-92740200D01*
X85616112Y-92740201D01*
X85513386Y-92799511D01*
X85513386Y-92799512D01*
X85429512Y-92883386D01*
X85429511Y-92883386D01*
X85370201Y-92986112D01*
X85370200Y-92986115D01*
X85339500Y-93100688D01*
X75290500Y-93100688D01*
X75290500Y-88710160D01*
X82545500Y-88710160D01*
X82545500Y-88829839D01*
X82576472Y-88945430D01*
X82576473Y-88945433D01*
X82636309Y-89049070D01*
X82720930Y-89133691D01*
X82775941Y-89165452D01*
X82798771Y-89195204D01*
X82793876Y-89232386D01*
X82775942Y-89250321D01*
X82730927Y-89276311D01*
X82646310Y-89360929D01*
X82646309Y-89360929D01*
X82586473Y-89464566D01*
X82586472Y-89464569D01*
X82555500Y-89580160D01*
X82555500Y-89699839D01*
X82586472Y-89815430D01*
X82586473Y-89815433D01*
X82639496Y-89907269D01*
X82646309Y-89919070D01*
X82730930Y-90003691D01*
X82746581Y-90012727D01*
X82834566Y-90063526D01*
X82834569Y-90063527D01*
X82950160Y-90094499D01*
X82950161Y-90094500D01*
X82950164Y-90094500D01*
X83069839Y-90094500D01*
X83069839Y-90094499D01*
X83185431Y-90063527D01*
X83289070Y-90003691D01*
X83373691Y-89919070D01*
X83433527Y-89815431D01*
X83464499Y-89699839D01*
X83464500Y-89699839D01*
X83464500Y-89580161D01*
X83464499Y-89580160D01*
X83433527Y-89464569D01*
X83433526Y-89464566D01*
X83373690Y-89360929D01*
X83289070Y-89276309D01*
X83234058Y-89244548D01*
X83211228Y-89214795D01*
X83216123Y-89177613D01*
X83234056Y-89159679D01*
X83279070Y-89133691D01*
X83363691Y-89049070D01*
X83423527Y-88945431D01*
X83454499Y-88829839D01*
X83454500Y-88829839D01*
X83454500Y-88710161D01*
X83454499Y-88710160D01*
X83423527Y-88594569D01*
X83423526Y-88594566D01*
X83371825Y-88505019D01*
X83363691Y-88490930D01*
X83279070Y-88406309D01*
X83175433Y-88346473D01*
X83175430Y-88346472D01*
X83059839Y-88315500D01*
X83059836Y-88315500D01*
X82940164Y-88315500D01*
X82940161Y-88315500D01*
X82824569Y-88346472D01*
X82824566Y-88346473D01*
X82720929Y-88406309D01*
X82720929Y-88406310D01*
X82636310Y-88490929D01*
X82636309Y-88490929D01*
X82576473Y-88594566D01*
X82576472Y-88594569D01*
X82545500Y-88710160D01*
X75290500Y-88710160D01*
X75290500Y-77947165D01*
X76475000Y-77947165D01*
X76475000Y-78420000D01*
X77334314Y-78420000D01*
X77329920Y-78424394D01*
X77277259Y-78515606D01*
X77250000Y-78617339D01*
X77250000Y-78722661D01*
X77277259Y-78824394D01*
X77329920Y-78915606D01*
X77334314Y-78920000D01*
X76475000Y-78920000D01*
X76475000Y-79392834D01*
X76481401Y-79452372D01*
X76481401Y-79452373D01*
X76531648Y-79587091D01*
X76617811Y-79702188D01*
X76732909Y-79788352D01*
X76761280Y-79798933D01*
X76788728Y-79824487D01*
X76790068Y-79861967D01*
X76778806Y-79879492D01*
X76753760Y-79904538D01*
X76645048Y-80054168D01*
X76561085Y-80218955D01*
X76503935Y-80394846D01*
X76503934Y-80394848D01*
X76499951Y-80420000D01*
X77334314Y-80420000D01*
X77329920Y-80424394D01*
X77277259Y-80515606D01*
X77250000Y-80617339D01*
X77250000Y-80722661D01*
X77277259Y-80824394D01*
X77329920Y-80915606D01*
X77334314Y-80920000D01*
X76499951Y-80920000D01*
X76503934Y-80945151D01*
X76503935Y-80945153D01*
X76561085Y-81121044D01*
X76645048Y-81285831D01*
X76753761Y-81435462D01*
X76753765Y-81435467D01*
X76884533Y-81566235D01*
X76884537Y-81566238D01*
X77034168Y-81674951D01*
X77198955Y-81758914D01*
X77374854Y-81816066D01*
X77374858Y-81816067D01*
X77400000Y-81820049D01*
X77400000Y-80985686D01*
X77404394Y-80990080D01*
X77495606Y-81042741D01*
X77597339Y-81070000D01*
X77702661Y-81070000D01*
X77804394Y-81042741D01*
X77895606Y-80990080D01*
X77900000Y-80985686D01*
X77900000Y-81820048D01*
X77925141Y-81816067D01*
X77925145Y-81816066D01*
X78101044Y-81758914D01*
X78265831Y-81674951D01*
X78415462Y-81566238D01*
X78415467Y-81566235D01*
X78546235Y-81435467D01*
X78546238Y-81435462D01*
X78654951Y-81285831D01*
X78738915Y-81121042D01*
X78763932Y-81044045D01*
X78788288Y-81015527D01*
X78825675Y-81012584D01*
X78854193Y-81036940D01*
X78855804Y-81040434D01*
X78874142Y-81084705D01*
X78969955Y-81228099D01*
X79091901Y-81350045D01*
X79235295Y-81445858D01*
X79394626Y-81511855D01*
X79394632Y-81511856D01*
X79394635Y-81511857D01*
X79563765Y-81545499D01*
X79563768Y-81545499D01*
X79563771Y-81545500D01*
X79563772Y-81545500D01*
X79736228Y-81545500D01*
X79736229Y-81545500D01*
X79905374Y-81511855D01*
X80064705Y-81445858D01*
X80208099Y-81350045D01*
X80330045Y-81228099D01*
X80425858Y-81084705D01*
X80491855Y-80925374D01*
X80525500Y-80756229D01*
X80525500Y-80583771D01*
X80525499Y-80583765D01*
X80774500Y-80583765D01*
X80774500Y-80756234D01*
X80808142Y-80925364D01*
X80808145Y-80925375D01*
X80868051Y-81070000D01*
X80874142Y-81084705D01*
X80969955Y-81228099D01*
X81091901Y-81350045D01*
X81235295Y-81445858D01*
X81394626Y-81511855D01*
X81394632Y-81511856D01*
X81394635Y-81511857D01*
X81563765Y-81545499D01*
X81563768Y-81545499D01*
X81563771Y-81545500D01*
X81563772Y-81545500D01*
X81736228Y-81545500D01*
X81736229Y-81545500D01*
X81905374Y-81511855D01*
X82064705Y-81445858D01*
X82208099Y-81350045D01*
X82330045Y-81228099D01*
X82425858Y-81084705D01*
X82491855Y-80925374D01*
X82525500Y-80756229D01*
X82525500Y-80583771D01*
X82525499Y-80583765D01*
X82774500Y-80583765D01*
X82774500Y-80756234D01*
X82808142Y-80925364D01*
X82808145Y-80925375D01*
X82868051Y-81070000D01*
X82874142Y-81084705D01*
X82969955Y-81228099D01*
X83091901Y-81350045D01*
X83235295Y-81445858D01*
X83394626Y-81511855D01*
X83394632Y-81511856D01*
X83394635Y-81511857D01*
X83563765Y-81545499D01*
X83563768Y-81545499D01*
X83563771Y-81545500D01*
X83563772Y-81545500D01*
X83736228Y-81545500D01*
X83736229Y-81545500D01*
X83905374Y-81511855D01*
X84064705Y-81445858D01*
X84208099Y-81350045D01*
X84330045Y-81228099D01*
X84425858Y-81084705D01*
X84491855Y-80925374D01*
X84525500Y-80756229D01*
X84525500Y-80583771D01*
X84525499Y-80583765D01*
X84774500Y-80583765D01*
X84774500Y-80756234D01*
X84808142Y-80925364D01*
X84808145Y-80925375D01*
X84868051Y-81070000D01*
X84874142Y-81084705D01*
X84969955Y-81228099D01*
X85091901Y-81350045D01*
X85235295Y-81445858D01*
X85394626Y-81511855D01*
X85394632Y-81511856D01*
X85394635Y-81511857D01*
X85563765Y-81545499D01*
X85563768Y-81545499D01*
X85563771Y-81545500D01*
X85563772Y-81545500D01*
X85736228Y-81545500D01*
X85736229Y-81545500D01*
X85905374Y-81511855D01*
X86064705Y-81445858D01*
X86208099Y-81350045D01*
X86330045Y-81228099D01*
X86425858Y-81084705D01*
X86491855Y-80925374D01*
X86525500Y-80756229D01*
X86525500Y-80583771D01*
X86491855Y-80414626D01*
X86425858Y-80255295D01*
X86330045Y-80111901D01*
X86208099Y-79989955D01*
X86064705Y-79894142D01*
X86064702Y-79894140D01*
X86064701Y-79894140D01*
X85905375Y-79828145D01*
X85905364Y-79828142D01*
X85736234Y-79794500D01*
X85736229Y-79794500D01*
X85563771Y-79794500D01*
X85563765Y-79794500D01*
X85394635Y-79828142D01*
X85394624Y-79828145D01*
X85235298Y-79894140D01*
X85091901Y-79989954D01*
X84969954Y-80111901D01*
X84874140Y-80255298D01*
X84808145Y-80414624D01*
X84808142Y-80414635D01*
X84774500Y-80583765D01*
X84525499Y-80583765D01*
X84491855Y-80414626D01*
X84425858Y-80255295D01*
X84330045Y-80111901D01*
X84208099Y-79989955D01*
X84064705Y-79894142D01*
X84064702Y-79894140D01*
X84064701Y-79894140D01*
X83905375Y-79828145D01*
X83905364Y-79828142D01*
X83736234Y-79794500D01*
X83736229Y-79794500D01*
X83563771Y-79794500D01*
X83563765Y-79794500D01*
X83394635Y-79828142D01*
X83394624Y-79828145D01*
X83235298Y-79894140D01*
X83091901Y-79989954D01*
X82969954Y-80111901D01*
X82874140Y-80255298D01*
X82808145Y-80414624D01*
X82808142Y-80414635D01*
X82774500Y-80583765D01*
X82525499Y-80583765D01*
X82491855Y-80414626D01*
X82425858Y-80255295D01*
X82330045Y-80111901D01*
X82208099Y-79989955D01*
X82064705Y-79894142D01*
X82064702Y-79894140D01*
X82064701Y-79894140D01*
X81905375Y-79828145D01*
X81905364Y-79828142D01*
X81736234Y-79794500D01*
X81736229Y-79794500D01*
X81563771Y-79794500D01*
X81563765Y-79794500D01*
X81394635Y-79828142D01*
X81394624Y-79828145D01*
X81235298Y-79894140D01*
X81091901Y-79989954D01*
X80969954Y-80111901D01*
X80874140Y-80255298D01*
X80808145Y-80414624D01*
X80808142Y-80414635D01*
X80774500Y-80583765D01*
X80525499Y-80583765D01*
X80491855Y-80414626D01*
X80425858Y-80255295D01*
X80330045Y-80111901D01*
X80208099Y-79989955D01*
X80064705Y-79894142D01*
X80064702Y-79894140D01*
X80064701Y-79894140D01*
X79905375Y-79828145D01*
X79905364Y-79828142D01*
X79736234Y-79794500D01*
X79736229Y-79794500D01*
X79563771Y-79794500D01*
X79563765Y-79794500D01*
X79394635Y-79828142D01*
X79394624Y-79828145D01*
X79235298Y-79894140D01*
X79091901Y-79989954D01*
X78969954Y-80111901D01*
X78874141Y-80255297D01*
X78855804Y-80299565D01*
X78829285Y-80326083D01*
X78791782Y-80326083D01*
X78765264Y-80299564D01*
X78763932Y-80295954D01*
X78738915Y-80218957D01*
X78654951Y-80054168D01*
X78546238Y-79904537D01*
X78546235Y-79904533D01*
X78521194Y-79879492D01*
X78506842Y-79844844D01*
X78521194Y-79810196D01*
X78538720Y-79798933D01*
X78567088Y-79788353D01*
X78567090Y-79788352D01*
X78682188Y-79702188D01*
X78768351Y-79587091D01*
X78818598Y-79452373D01*
X78818598Y-79452372D01*
X78825000Y-79392834D01*
X78825000Y-79172689D01*
X78839352Y-79138041D01*
X78874000Y-79123689D01*
X78908648Y-79138041D01*
X78914738Y-79145461D01*
X78969955Y-79228099D01*
X79091901Y-79350045D01*
X79235295Y-79445858D01*
X79394626Y-79511855D01*
X79394632Y-79511856D01*
X79394635Y-79511857D01*
X79563765Y-79545499D01*
X79563768Y-79545499D01*
X79563771Y-79545500D01*
X79563772Y-79545500D01*
X79736228Y-79545500D01*
X79736229Y-79545500D01*
X79905374Y-79511855D01*
X80064705Y-79445858D01*
X80208099Y-79350045D01*
X80330045Y-79228099D01*
X80425858Y-79084705D01*
X80491855Y-78925374D01*
X80525500Y-78756229D01*
X80525500Y-78583771D01*
X80525499Y-78583765D01*
X80774500Y-78583765D01*
X80774500Y-78756234D01*
X80808142Y-78925364D01*
X80808145Y-78925375D01*
X80847214Y-79019696D01*
X80874142Y-79084705D01*
X80969955Y-79228099D01*
X81091901Y-79350045D01*
X81235295Y-79445858D01*
X81394626Y-79511855D01*
X81394632Y-79511856D01*
X81394635Y-79511857D01*
X81563765Y-79545499D01*
X81563768Y-79545499D01*
X81563771Y-79545500D01*
X81563772Y-79545500D01*
X81736228Y-79545500D01*
X81736229Y-79545500D01*
X81905374Y-79511855D01*
X82064705Y-79445858D01*
X82208099Y-79350045D01*
X82330045Y-79228099D01*
X82425858Y-79084705D01*
X82491855Y-78925374D01*
X82525500Y-78756229D01*
X82525500Y-78583771D01*
X82525499Y-78583765D01*
X82774500Y-78583765D01*
X82774500Y-78756234D01*
X82808142Y-78925364D01*
X82808145Y-78925375D01*
X82847214Y-79019696D01*
X82874142Y-79084705D01*
X82969955Y-79228099D01*
X83091901Y-79350045D01*
X83235295Y-79445858D01*
X83394626Y-79511855D01*
X83394632Y-79511856D01*
X83394635Y-79511857D01*
X83563765Y-79545499D01*
X83563768Y-79545499D01*
X83563771Y-79545500D01*
X83563772Y-79545500D01*
X83736228Y-79545500D01*
X83736229Y-79545500D01*
X83905374Y-79511855D01*
X84064705Y-79445858D01*
X84208099Y-79350045D01*
X84330045Y-79228099D01*
X84425858Y-79084705D01*
X84491855Y-78925374D01*
X84525500Y-78756229D01*
X84525500Y-78583771D01*
X84525499Y-78583765D01*
X84774500Y-78583765D01*
X84774500Y-78756234D01*
X84808142Y-78925364D01*
X84808145Y-78925375D01*
X84847214Y-79019696D01*
X84874142Y-79084705D01*
X84969955Y-79228099D01*
X85091901Y-79350045D01*
X85235295Y-79445858D01*
X85394626Y-79511855D01*
X85394632Y-79511856D01*
X85394635Y-79511857D01*
X85563765Y-79545499D01*
X85563768Y-79545499D01*
X85563771Y-79545500D01*
X85563772Y-79545500D01*
X85736228Y-79545500D01*
X85736229Y-79545500D01*
X85905374Y-79511855D01*
X86064705Y-79445858D01*
X86208099Y-79350045D01*
X86330045Y-79228099D01*
X86425858Y-79084705D01*
X86491855Y-78925374D01*
X86525500Y-78756229D01*
X86525500Y-78583771D01*
X86522800Y-78570197D01*
X86491857Y-78414635D01*
X86491854Y-78414624D01*
X86425858Y-78255295D01*
X86330045Y-78111901D01*
X86208099Y-77989955D01*
X86064705Y-77894142D01*
X86064702Y-77894140D01*
X86064701Y-77894140D01*
X85905375Y-77828145D01*
X85905364Y-77828142D01*
X85736234Y-77794500D01*
X85736229Y-77794500D01*
X85563771Y-77794500D01*
X85563765Y-77794500D01*
X85394635Y-77828142D01*
X85394624Y-77828145D01*
X85235298Y-77894140D01*
X85091901Y-77989954D01*
X84969954Y-78111901D01*
X84874140Y-78255298D01*
X84808145Y-78414624D01*
X84808142Y-78414635D01*
X84774500Y-78583765D01*
X84525499Y-78583765D01*
X84522800Y-78570197D01*
X84491857Y-78414635D01*
X84491854Y-78414624D01*
X84425858Y-78255295D01*
X84330045Y-78111901D01*
X84208099Y-77989955D01*
X84064705Y-77894142D01*
X84064702Y-77894140D01*
X84064701Y-77894140D01*
X83905375Y-77828145D01*
X83905364Y-77828142D01*
X83736234Y-77794500D01*
X83736229Y-77794500D01*
X83563771Y-77794500D01*
X83563765Y-77794500D01*
X83394635Y-77828142D01*
X83394624Y-77828145D01*
X83235298Y-77894140D01*
X83091901Y-77989954D01*
X82969954Y-78111901D01*
X82874140Y-78255298D01*
X82808145Y-78414624D01*
X82808142Y-78414635D01*
X82774500Y-78583765D01*
X82525499Y-78583765D01*
X82522800Y-78570197D01*
X82491857Y-78414635D01*
X82491854Y-78414624D01*
X82425858Y-78255295D01*
X82330045Y-78111901D01*
X82208099Y-77989955D01*
X82208098Y-77989954D01*
X82206560Y-77988416D01*
X82192208Y-77953768D01*
X82206559Y-77919121D01*
X82500830Y-77624852D01*
X82535478Y-77610500D01*
X87124522Y-77610500D01*
X87159170Y-77624852D01*
X88095148Y-78560830D01*
X88109500Y-78595478D01*
X88109500Y-95912954D01*
X88102935Y-95937454D01*
X88086794Y-95965411D01*
X88086791Y-95965417D01*
X88059500Y-96067269D01*
X88059500Y-96172730D01*
X88086792Y-96274585D01*
X88086793Y-96274589D01*
X88132184Y-96353207D01*
X88139520Y-96365913D01*
X88214087Y-96440480D01*
X88247513Y-96459778D01*
X88305410Y-96493206D01*
X88305412Y-96493206D01*
X88305413Y-96493207D01*
X88385747Y-96514732D01*
X88407269Y-96520499D01*
X88407270Y-96520500D01*
X88407273Y-96520500D01*
X88512730Y-96520500D01*
X88512730Y-96520499D01*
X88614587Y-96493207D01*
X88705913Y-96440480D01*
X88780480Y-96365913D01*
X88833207Y-96274587D01*
X88860499Y-96172730D01*
X88860500Y-96172730D01*
X88860500Y-96067270D01*
X88860499Y-96067269D01*
X88833208Y-95965417D01*
X88833207Y-95965413D01*
X88817063Y-95937450D01*
X88811656Y-95917269D01*
X96509500Y-95917269D01*
X96509500Y-96022730D01*
X96536792Y-96124585D01*
X96536793Y-96124589D01*
X96564588Y-96172730D01*
X96589520Y-96215913D01*
X96664087Y-96290480D01*
X96681406Y-96300479D01*
X96755410Y-96343206D01*
X96755412Y-96343206D01*
X96755413Y-96343207D01*
X96792734Y-96353207D01*
X96857269Y-96370499D01*
X96857270Y-96370500D01*
X96857273Y-96370500D01*
X96962730Y-96370500D01*
X96962730Y-96370499D01*
X97064587Y-96343207D01*
X97155913Y-96290480D01*
X97175352Y-96271041D01*
X97210000Y-96256689D01*
X97244648Y-96271041D01*
X97274087Y-96300480D01*
X97307513Y-96319778D01*
X97365410Y-96353206D01*
X97365412Y-96353206D01*
X97365413Y-96353207D01*
X97429952Y-96370500D01*
X97467269Y-96380499D01*
X97467270Y-96380500D01*
X97467273Y-96380500D01*
X97572730Y-96380500D01*
X97572730Y-96380499D01*
X97674587Y-96353207D01*
X97765913Y-96300480D01*
X97840480Y-96225913D01*
X97893207Y-96134587D01*
X97920499Y-96032730D01*
X97920500Y-96032730D01*
X97920500Y-95927270D01*
X97920499Y-95927269D01*
X97895833Y-95835215D01*
X97893207Y-95825413D01*
X97893206Y-95825412D01*
X97893206Y-95825410D01*
X97840479Y-95734086D01*
X97765913Y-95659520D01*
X97674589Y-95606793D01*
X97674585Y-95606792D01*
X97572730Y-95579500D01*
X97572727Y-95579500D01*
X97467273Y-95579500D01*
X97467270Y-95579500D01*
X97365414Y-95606792D01*
X97365410Y-95606793D01*
X97274086Y-95659520D01*
X97274086Y-95659521D01*
X97254648Y-95678959D01*
X97220000Y-95693311D01*
X97185352Y-95678959D01*
X97155913Y-95649520D01*
X97064589Y-95596793D01*
X97064585Y-95596792D01*
X96962730Y-95569500D01*
X96962727Y-95569500D01*
X96857273Y-95569500D01*
X96857270Y-95569500D01*
X96755414Y-95596792D01*
X96755410Y-95596793D01*
X96664086Y-95649520D01*
X96664086Y-95649521D01*
X96589521Y-95724086D01*
X96589520Y-95724086D01*
X96536793Y-95815410D01*
X96536792Y-95815414D01*
X96509500Y-95917269D01*
X88811656Y-95917269D01*
X88810500Y-95912954D01*
X88810500Y-87097269D01*
X108709500Y-87097269D01*
X108709500Y-87202730D01*
X108736792Y-87304585D01*
X108736793Y-87304589D01*
X108780931Y-87381036D01*
X108789520Y-87395913D01*
X108864087Y-87470480D01*
X108897513Y-87489778D01*
X108955410Y-87523206D01*
X108955412Y-87523206D01*
X108955413Y-87523207D01*
X109035747Y-87544732D01*
X109057269Y-87550499D01*
X109057270Y-87550500D01*
X109057273Y-87550500D01*
X109162730Y-87550500D01*
X109162730Y-87550499D01*
X109229640Y-87532571D01*
X109264726Y-87523170D01*
X109277408Y-87521500D01*
X120035522Y-87521500D01*
X120070170Y-87535852D01*
X120526148Y-87991830D01*
X120538583Y-88021852D01*
X120540081Y-88021655D01*
X120540500Y-88024839D01*
X120571472Y-88140430D01*
X120571473Y-88140433D01*
X120625989Y-88234856D01*
X120631309Y-88244070D01*
X120715930Y-88328691D01*
X120728439Y-88335913D01*
X120819566Y-88388526D01*
X120819569Y-88388527D01*
X120935160Y-88419499D01*
X120935161Y-88419500D01*
X120935164Y-88419500D01*
X121054839Y-88419500D01*
X121054839Y-88419499D01*
X121170431Y-88388527D01*
X121178257Y-88384009D01*
X121184317Y-88380509D01*
X121274070Y-88328691D01*
X121358691Y-88244070D01*
X121417200Y-88142730D01*
X121418526Y-88140433D01*
X121418527Y-88140430D01*
X121446168Y-88037273D01*
X121449499Y-88024839D01*
X121449500Y-88024839D01*
X121449500Y-87905161D01*
X121449499Y-87905160D01*
X121418527Y-87789569D01*
X121418526Y-87789566D01*
X121372502Y-87709852D01*
X121358691Y-87685930D01*
X121274070Y-87601309D01*
X121170433Y-87541473D01*
X121170430Y-87541472D01*
X121054839Y-87510500D01*
X121051655Y-87510081D01*
X121051852Y-87508583D01*
X121021830Y-87496148D01*
X120416212Y-86890530D01*
X120336290Y-86844386D01*
X120336286Y-86844385D01*
X120247147Y-86820500D01*
X120247144Y-86820500D01*
X109353419Y-86820500D01*
X109328919Y-86813935D01*
X109264589Y-86776793D01*
X109264585Y-86776792D01*
X109162730Y-86749500D01*
X109162727Y-86749500D01*
X109057273Y-86749500D01*
X109057270Y-86749500D01*
X108955414Y-86776792D01*
X108955410Y-86776793D01*
X108864086Y-86829520D01*
X108864086Y-86829521D01*
X108789521Y-86904086D01*
X108789520Y-86904086D01*
X108736795Y-86995409D01*
X108736793Y-86995413D01*
X108709500Y-87097269D01*
X88810500Y-87097269D01*
X88810500Y-86242269D01*
X111474500Y-86242269D01*
X111474500Y-86347730D01*
X111501792Y-86449585D01*
X111501793Y-86449589D01*
X111536095Y-86509000D01*
X111554520Y-86540913D01*
X111629087Y-86615480D01*
X111662513Y-86634778D01*
X111720410Y-86668206D01*
X111720412Y-86668206D01*
X111720413Y-86668207D01*
X111800747Y-86689732D01*
X111822269Y-86695499D01*
X111822270Y-86695500D01*
X111822273Y-86695500D01*
X111927730Y-86695500D01*
X111927730Y-86695499D01*
X112029587Y-86668207D01*
X112120913Y-86615480D01*
X112195480Y-86540913D01*
X112248207Y-86449587D01*
X112268469Y-86373965D01*
X112281147Y-86352006D01*
X116097942Y-82535212D01*
X117375886Y-81257269D01*
X123939500Y-81257269D01*
X123939500Y-81362730D01*
X123966792Y-81464585D01*
X123966793Y-81464589D01*
X123994083Y-81511855D01*
X124019520Y-81555913D01*
X124094087Y-81630480D01*
X124113204Y-81641517D01*
X124185410Y-81683206D01*
X124185412Y-81683206D01*
X124185413Y-81683207D01*
X124265747Y-81704732D01*
X124287269Y-81710499D01*
X124287270Y-81710500D01*
X124287273Y-81710500D01*
X124392730Y-81710500D01*
X124392730Y-81710499D01*
X124494587Y-81683207D01*
X124585913Y-81630480D01*
X124660480Y-81555913D01*
X124713207Y-81464587D01*
X124740499Y-81362730D01*
X124740500Y-81362730D01*
X124740500Y-81354767D01*
X124754852Y-81320119D01*
X124880386Y-81194585D01*
X125035460Y-81039511D01*
X125051416Y-81011874D01*
X125064323Y-80989518D01*
X125075020Y-80970991D01*
X125075020Y-80970990D01*
X125075021Y-80970989D01*
X125095500Y-80894562D01*
X125095500Y-80123311D01*
X125109852Y-80088663D01*
X125122255Y-80079652D01*
X125233335Y-80023054D01*
X125233337Y-80023052D01*
X125233342Y-80023050D01*
X125323050Y-79933342D01*
X125323054Y-79933335D01*
X125380644Y-79820309D01*
X125380644Y-79820307D01*
X125380646Y-79820304D01*
X125395500Y-79726519D01*
X125395499Y-79113482D01*
X125395499Y-79113481D01*
X125844500Y-79113481D01*
X125844500Y-79113482D01*
X125844500Y-79726517D01*
X125859353Y-79820303D01*
X125916945Y-79933335D01*
X125916950Y-79933342D01*
X126006657Y-80023049D01*
X126006664Y-80023054D01*
X126117745Y-80079652D01*
X126142102Y-80108169D01*
X126144500Y-80123311D01*
X126144500Y-80854563D01*
X126164978Y-80930987D01*
X126164979Y-80930991D01*
X126198771Y-80989518D01*
X126198772Y-80989520D01*
X126204537Y-80999507D01*
X126204542Y-80999513D01*
X126465148Y-81260119D01*
X126479500Y-81294767D01*
X126479500Y-81302730D01*
X126506792Y-81404585D01*
X126506793Y-81404589D01*
X126541434Y-81464587D01*
X126559520Y-81495913D01*
X126634087Y-81570480D01*
X126667513Y-81589778D01*
X126725410Y-81623206D01*
X126725412Y-81623206D01*
X126725413Y-81623207D01*
X126752553Y-81630479D01*
X126827269Y-81650499D01*
X126827270Y-81650500D01*
X126827273Y-81650500D01*
X126932730Y-81650500D01*
X126932730Y-81650499D01*
X127034587Y-81623207D01*
X127125913Y-81570480D01*
X127200480Y-81495913D01*
X127253207Y-81404587D01*
X127280499Y-81302730D01*
X127280500Y-81302730D01*
X127280500Y-81197270D01*
X127280499Y-81197269D01*
X127257521Y-81111513D01*
X127253207Y-81095413D01*
X127253206Y-81095412D01*
X127253206Y-81095410D01*
X127207085Y-81015527D01*
X127200480Y-81004087D01*
X127125913Y-80929520D01*
X127109424Y-80920000D01*
X127034589Y-80876793D01*
X127034585Y-80876792D01*
X126932730Y-80849500D01*
X126932727Y-80849500D01*
X126924767Y-80849500D01*
X126890119Y-80835148D01*
X126759852Y-80704881D01*
X126745500Y-80670233D01*
X126745500Y-80123311D01*
X126759852Y-80088663D01*
X126772255Y-80079652D01*
X126883335Y-80023054D01*
X126883337Y-80023052D01*
X126883342Y-80023050D01*
X126973050Y-79933342D01*
X126973054Y-79933335D01*
X127030644Y-79820309D01*
X127030644Y-79820307D01*
X127030646Y-79820304D01*
X127045500Y-79726519D01*
X127045499Y-79546682D01*
X135720000Y-79546682D01*
X135720000Y-79570000D01*
X136445000Y-79570000D01*
X136445000Y-78870000D01*
X136396683Y-78870000D01*
X136297396Y-78880143D01*
X136136515Y-78933453D01*
X135992266Y-79022428D01*
X135872428Y-79142266D01*
X135783453Y-79286515D01*
X135730143Y-79447396D01*
X135720000Y-79546682D01*
X127045499Y-79546682D01*
X127045499Y-79409500D01*
X127045499Y-79113482D01*
X127030646Y-79019696D01*
X126973054Y-78906664D01*
X126973049Y-78906657D01*
X126883342Y-78816950D01*
X126883335Y-78816945D01*
X126770308Y-78759355D01*
X126770305Y-78759354D01*
X126770304Y-78759354D01*
X126676519Y-78744500D01*
X126676517Y-78744500D01*
X126213482Y-78744500D01*
X126119696Y-78759353D01*
X126006664Y-78816945D01*
X126006657Y-78816950D01*
X125916950Y-78906657D01*
X125916945Y-78906664D01*
X125859355Y-79019690D01*
X125859355Y-79019692D01*
X125859354Y-79019694D01*
X125859354Y-79019696D01*
X125844500Y-79113481D01*
X125395499Y-79113481D01*
X125380646Y-79019696D01*
X125365556Y-78990080D01*
X125323054Y-78906664D01*
X125323049Y-78906657D01*
X125233342Y-78816950D01*
X125233335Y-78816945D01*
X125120308Y-78759355D01*
X125120305Y-78759354D01*
X125120304Y-78759354D01*
X125026519Y-78744500D01*
X125026517Y-78744500D01*
X124563482Y-78744500D01*
X124469696Y-78759353D01*
X124356664Y-78816945D01*
X124356657Y-78816950D01*
X124266950Y-78906657D01*
X124266945Y-78906664D01*
X124209355Y-79019690D01*
X124209355Y-79019692D01*
X124209354Y-79019694D01*
X124209354Y-79019696D01*
X124194500Y-79113481D01*
X124194500Y-79113482D01*
X124194500Y-79726517D01*
X124209353Y-79820303D01*
X124266945Y-79933335D01*
X124266950Y-79933342D01*
X124356657Y-80023049D01*
X124356664Y-80023054D01*
X124467745Y-80079652D01*
X124492102Y-80108169D01*
X124494500Y-80123311D01*
X124494500Y-80710233D01*
X124480148Y-80744881D01*
X124329881Y-80895148D01*
X124295233Y-80909500D01*
X124287270Y-80909500D01*
X124185414Y-80936792D01*
X124185410Y-80936793D01*
X124094086Y-80989520D01*
X124019521Y-81064086D01*
X124019520Y-81064086D01*
X123966793Y-81155410D01*
X123966792Y-81155414D01*
X123939500Y-81257269D01*
X117375886Y-81257269D01*
X117413742Y-81219413D01*
X118662464Y-79970690D01*
X118662534Y-79970608D01*
X118741941Y-79891204D01*
X118943686Y-79645379D01*
X119120365Y-79380964D01*
X119270275Y-79100504D01*
X119391973Y-78806701D01*
X119484288Y-78502384D01*
X119501743Y-78414635D01*
X119546326Y-78190500D01*
X119546326Y-78190496D01*
X119546329Y-78190484D01*
X119577500Y-77874005D01*
X119577500Y-77715000D01*
X119577500Y-77663129D01*
X119577500Y-76756882D01*
X119584065Y-76732382D01*
X119623206Y-76664588D01*
X119623207Y-76664587D01*
X119650499Y-76562730D01*
X119650500Y-76562730D01*
X119650500Y-76457270D01*
X119650499Y-76457269D01*
X119623207Y-76355414D01*
X119623206Y-76355410D01*
X119570479Y-76264086D01*
X119495913Y-76189520D01*
X119404589Y-76136793D01*
X119404585Y-76136792D01*
X119302730Y-76109500D01*
X119302727Y-76109500D01*
X119197273Y-76109500D01*
X119197270Y-76109500D01*
X119095414Y-76136792D01*
X119095410Y-76136793D01*
X119004086Y-76189520D01*
X119004086Y-76189521D01*
X118929521Y-76264086D01*
X118929520Y-76264086D01*
X118876793Y-76355410D01*
X118876792Y-76355414D01*
X118849500Y-76457269D01*
X118849500Y-76562730D01*
X118876792Y-76664585D01*
X118876793Y-76664588D01*
X118915935Y-76732382D01*
X118922500Y-76756882D01*
X118922500Y-77713623D01*
X118922423Y-77716371D01*
X118906421Y-78001300D01*
X118905806Y-78006760D01*
X118858233Y-78286754D01*
X118857010Y-78292111D01*
X118778388Y-78565010D01*
X118776573Y-78570197D01*
X118667889Y-78832582D01*
X118665505Y-78837532D01*
X118528127Y-79086097D01*
X118525203Y-79090750D01*
X118360859Y-79322368D01*
X118357433Y-79326664D01*
X118167188Y-79539546D01*
X118165300Y-79541543D01*
X111817994Y-85888849D01*
X111796028Y-85901531D01*
X111720416Y-85921791D01*
X111720410Y-85921793D01*
X111629086Y-85974520D01*
X111629086Y-85974521D01*
X111554521Y-86049086D01*
X111554520Y-86049086D01*
X111501793Y-86140410D01*
X111501792Y-86140414D01*
X111474500Y-86242269D01*
X88810500Y-86242269D01*
X88810500Y-78383853D01*
X88786614Y-78294713D01*
X88786614Y-78294712D01*
X88766844Y-78260470D01*
X88740470Y-78214788D01*
X87505212Y-76979530D01*
X87425290Y-76933386D01*
X87425286Y-76933385D01*
X87336147Y-76909500D01*
X87336144Y-76909500D01*
X82416144Y-76909500D01*
X82323856Y-76909500D01*
X82323853Y-76909500D01*
X82234713Y-76933385D01*
X82234709Y-76933386D01*
X82154787Y-76979530D01*
X82154787Y-76979531D01*
X81369532Y-77764785D01*
X81369527Y-77764791D01*
X81356664Y-77787072D01*
X81352376Y-77794500D01*
X81337102Y-77820955D01*
X81321882Y-77847316D01*
X81298199Y-77868085D01*
X81235298Y-77894140D01*
X81091901Y-77989954D01*
X80969954Y-78111901D01*
X80874140Y-78255298D01*
X80808145Y-78414624D01*
X80808142Y-78414635D01*
X80774500Y-78583765D01*
X80525499Y-78583765D01*
X80522800Y-78570197D01*
X80491857Y-78414635D01*
X80491854Y-78414624D01*
X80425858Y-78255295D01*
X80330045Y-78111901D01*
X80208099Y-77989955D01*
X80064705Y-77894142D01*
X80064702Y-77894140D01*
X80064701Y-77894140D01*
X79905375Y-77828145D01*
X79905364Y-77828142D01*
X79736234Y-77794500D01*
X79736229Y-77794500D01*
X79563771Y-77794500D01*
X79563765Y-77794500D01*
X79394635Y-77828142D01*
X79394624Y-77828145D01*
X79235298Y-77894140D01*
X79091901Y-77989954D01*
X78969954Y-78111901D01*
X78914742Y-78194533D01*
X78883559Y-78215368D01*
X78846777Y-78208052D01*
X78825942Y-78176869D01*
X78825000Y-78167310D01*
X78825000Y-77947165D01*
X78818598Y-77887627D01*
X78818598Y-77887626D01*
X78768351Y-77752908D01*
X78682188Y-77637811D01*
X78567091Y-77551648D01*
X78432373Y-77501401D01*
X78372834Y-77495000D01*
X77900000Y-77495000D01*
X77900000Y-78354314D01*
X77895606Y-78349920D01*
X77804394Y-78297259D01*
X77702661Y-78270000D01*
X77597339Y-78270000D01*
X77495606Y-78297259D01*
X77404394Y-78349920D01*
X77400000Y-78354314D01*
X77400000Y-77495000D01*
X76927166Y-77495000D01*
X76867627Y-77501401D01*
X76867626Y-77501401D01*
X76732908Y-77551648D01*
X76617811Y-77637811D01*
X76531648Y-77752908D01*
X76481401Y-77887626D01*
X76481401Y-77887627D01*
X76475000Y-77947165D01*
X75290500Y-77947165D01*
X75290500Y-75889500D01*
X75304852Y-75854852D01*
X75339500Y-75840500D01*
X156940500Y-75840500D01*
X156975148Y-75854852D01*
G37*
G04 #@! TD.AperFunction*
M02*
