G04 #@! TF.GenerationSoftware,KiCad,Pcbnew,(7.0.0-0)*
G04 #@! TF.CreationDate,2023-02-22T15:23:43+03:00*
G04 #@! TF.ProjectId,RP2040_minimal,52503230-3430-45f6-9d69-6e696d616c2e,REV1*
G04 #@! TF.SameCoordinates,Original*
G04 #@! TF.FileFunction,Paste,Top*
G04 #@! TF.FilePolarity,Positive*
%FSLAX46Y46*%
G04 Gerber Fmt 4.6, Leading zero omitted, Abs format (unit mm)*
G04 Created by KiCad (PCBNEW (7.0.0-0)) date 2023-02-22 15:23:43*
%MOMM*%
%LPD*%
G01*
G04 APERTURE LIST*
G04 Aperture macros list*
%AMRoundRect*
0 Rectangle with rounded corners*
0 $1 Rounding radius*
0 $2 $3 $4 $5 $6 $7 $8 $9 X,Y pos of 4 corners*
0 Add a 4 corners polygon primitive as box body*
4,1,4,$2,$3,$4,$5,$6,$7,$8,$9,$2,$3,0*
0 Add four circle primitives for the rounded corners*
1,1,$1+$1,$2,$3*
1,1,$1+$1,$4,$5*
1,1,$1+$1,$6,$7*
1,1,$1+$1,$8,$9*
0 Add four rect primitives between the rounded corners*
20,1,$1+$1,$2,$3,$4,$5,0*
20,1,$1+$1,$4,$5,$6,$7,0*
20,1,$1+$1,$6,$7,$8,$9,0*
20,1,$1+$1,$8,$9,$2,$3,0*%
G04 Aperture macros list end*
%ADD10R,1.000000X2.300000*%
%ADD11R,1.100000X1.000000*%
%ADD12R,1.000000X0.800000*%
%ADD13RoundRect,0.200000X0.200000X0.275000X-0.200000X0.275000X-0.200000X-0.275000X0.200000X-0.275000X0*%
%ADD14RoundRect,0.200000X0.275000X-0.200000X0.275000X0.200000X-0.275000X0.200000X-0.275000X-0.200000X0*%
%ADD15RoundRect,0.140000X-0.140000X-0.170000X0.140000X-0.170000X0.140000X0.170000X-0.140000X0.170000X0*%
%ADD16RoundRect,0.225000X-0.250000X0.225000X-0.250000X-0.225000X0.250000X-0.225000X0.250000X0.225000X0*%
%ADD17RoundRect,0.200000X-0.200000X-0.275000X0.200000X-0.275000X0.200000X0.275000X-0.200000X0.275000X0*%
%ADD18RoundRect,0.200000X-0.275000X0.200000X-0.275000X-0.200000X0.275000X-0.200000X0.275000X0.200000X0*%
%ADD19RoundRect,0.140000X0.140000X0.170000X-0.140000X0.170000X-0.140000X-0.170000X0.140000X-0.170000X0*%
%ADD20RoundRect,0.237500X-0.237500X0.300000X-0.237500X-0.300000X0.237500X-0.300000X0.237500X0.300000X0*%
%ADD21RoundRect,0.150000X0.150000X-0.587500X0.150000X0.587500X-0.150000X0.587500X-0.150000X-0.587500X0*%
%ADD22RoundRect,0.225000X0.225000X0.250000X-0.225000X0.250000X-0.225000X-0.250000X0.225000X-0.250000X0*%
%ADD23RoundRect,0.250000X-0.550000X1.250000X-0.550000X-1.250000X0.550000X-1.250000X0.550000X1.250000X0*%
%ADD24R,0.400000X1.200000*%
%ADD25RoundRect,0.225000X0.250000X-0.225000X0.250000X0.225000X-0.250000X0.225000X-0.250000X-0.225000X0*%
%ADD26RoundRect,0.140000X-0.170000X0.140000X-0.170000X-0.140000X0.170000X-0.140000X0.170000X0.140000X0*%
%ADD27RoundRect,0.140000X0.170000X-0.140000X0.170000X0.140000X-0.170000X0.140000X-0.170000X-0.140000X0*%
%ADD28R,0.700000X1.550000*%
%ADD29R,1.670000X0.760000*%
%ADD30R,1.000000X1.400000*%
%ADD31R,2.900000X5.400000*%
%ADD32R,1.400000X0.900000*%
%ADD33RoundRect,0.250000X0.550000X-1.250000X0.550000X1.250000X-0.550000X1.250000X-0.550000X-1.250000X0*%
%ADD34R,0.600000X0.150000*%
%ADD35RoundRect,0.150000X0.825000X0.150000X-0.825000X0.150000X-0.825000X-0.150000X0.825000X-0.150000X0*%
%ADD36R,0.900000X1.400000*%
%ADD37RoundRect,0.041300X0.943700X0.253700X-0.943700X0.253700X-0.943700X-0.253700X0.943700X-0.253700X0*%
%ADD38R,3.150000X1.000000*%
%ADD39RoundRect,0.150000X0.650000X0.150000X-0.650000X0.150000X-0.650000X-0.150000X0.650000X-0.150000X0*%
%ADD40R,2.120000X1.500000*%
%ADD41RoundRect,0.150000X0.150000X0.625000X-0.150000X0.625000X-0.150000X-0.625000X0.150000X-0.625000X0*%
%ADD42RoundRect,0.250000X0.350000X0.650000X-0.350000X0.650000X-0.350000X-0.650000X0.350000X-0.650000X0*%
%ADD43RoundRect,0.250000X0.292217X0.292217X-0.292217X0.292217X-0.292217X-0.292217X0.292217X-0.292217X0*%
%ADD44RoundRect,0.050000X0.387500X0.050000X-0.387500X0.050000X-0.387500X-0.050000X0.387500X-0.050000X0*%
%ADD45RoundRect,0.050000X0.050000X0.387500X-0.050000X0.387500X-0.050000X-0.387500X0.050000X-0.387500X0*%
%ADD46R,0.600000X1.250000*%
%ADD47RoundRect,0.225000X-0.225000X-0.250000X0.225000X-0.250000X0.225000X0.250000X-0.225000X0.250000X0*%
%ADD48R,2.170000X1.120000*%
%ADD49R,0.850000X0.850000*%
%ADD50R,1.200000X1.400000*%
%ADD51R,0.100000X0.500000*%
%ADD52R,0.200000X0.750000*%
%ADD53R,0.150000X0.500000*%
%ADD54R,0.500000X0.150000*%
%ADD55R,0.750000X0.200000*%
%ADD56R,0.500000X0.100000*%
%ADD57R,1.750000X1.590000*%
G04 APERTURE END LIST*
D10*
X202612499Y-41614999D03*
X202612499Y-48814999D03*
X192412499Y-48814999D03*
X192412499Y-41614999D03*
D11*
X199332499Y-52739999D03*
X195692499Y-52739999D03*
D12*
X192612499Y-44464999D03*
X192612499Y-45664999D03*
X202412499Y-44464999D03*
X192612499Y-46864999D03*
X202412499Y-45664999D03*
X202412499Y-46864999D03*
D13*
X199487500Y-56575000D03*
X197837500Y-56575000D03*
D14*
X137020000Y-71560000D03*
X137020000Y-69910000D03*
D15*
X204132500Y-43115000D03*
X205092500Y-43115000D03*
D16*
X194730000Y-116555000D03*
X194730000Y-118105000D03*
D17*
X168979750Y-90310000D03*
X170629750Y-90310000D03*
X150067250Y-86975000D03*
X151717250Y-86975000D03*
D18*
X160902250Y-74220000D03*
X160902250Y-75870000D03*
D19*
X151112250Y-82765000D03*
X150152250Y-82765000D03*
D14*
X143320000Y-65385000D03*
X143320000Y-63735000D03*
D20*
X143350000Y-73207500D03*
X143350000Y-74932500D03*
D19*
X145150000Y-66570000D03*
X144190000Y-66570000D03*
D21*
X133540000Y-71250000D03*
X135440000Y-71250000D03*
X134490000Y-69375000D03*
D19*
X190482500Y-42605000D03*
X189522500Y-42605000D03*
D22*
X173364750Y-87730000D03*
X171814750Y-87730000D03*
D14*
X159382250Y-75880000D03*
X159382250Y-74230000D03*
D23*
X145720000Y-76820000D03*
X145720000Y-81220000D03*
D24*
X152487499Y-52219999D03*
X151852499Y-52219999D03*
X151217499Y-52219999D03*
X150582499Y-52219999D03*
X149947499Y-52219999D03*
X149312499Y-52219999D03*
X148677499Y-52219999D03*
X148042499Y-52219999D03*
X147407499Y-52219999D03*
X146772499Y-52219999D03*
X146137499Y-52219999D03*
X145502499Y-52219999D03*
X144867499Y-52219999D03*
X144232499Y-52219999D03*
X144232499Y-57419999D03*
X144867499Y-57419999D03*
X145502499Y-57419999D03*
X146137499Y-57419999D03*
X146772499Y-57419999D03*
X147407499Y-57419999D03*
X148042499Y-57419999D03*
X148677499Y-57419999D03*
X149312499Y-57419999D03*
X149947499Y-57419999D03*
X150582499Y-57419999D03*
X151217499Y-57419999D03*
X151852499Y-57419999D03*
X152487499Y-57419999D03*
D25*
X193200000Y-118105000D03*
X193200000Y-116555000D03*
D22*
X177599750Y-100700000D03*
X176049750Y-100700000D03*
D18*
X139760000Y-48700000D03*
X139760000Y-50350000D03*
D13*
X206007500Y-47495000D03*
X204357500Y-47495000D03*
D17*
X147990000Y-60710000D03*
X149640000Y-60710000D03*
D19*
X151112250Y-81785000D03*
X150152250Y-81785000D03*
D15*
X163762250Y-85305000D03*
X164722250Y-85305000D03*
D22*
X149585000Y-63760000D03*
X148035000Y-63760000D03*
D16*
X128810000Y-68410000D03*
X128810000Y-69960000D03*
D13*
X206007500Y-45935000D03*
X204357500Y-45935000D03*
D26*
X149340000Y-45740000D03*
X149340000Y-46700000D03*
D16*
X204510000Y-116295000D03*
X204510000Y-117845000D03*
D14*
X182480000Y-45260000D03*
X182480000Y-43610000D03*
D19*
X151112250Y-80805000D03*
X150152250Y-80805000D03*
D27*
X161182250Y-73075000D03*
X161182250Y-72115000D03*
D15*
X163762250Y-84325000D03*
X164722250Y-84325000D03*
D28*
X141614999Y-73434999D03*
X140344999Y-73434999D03*
X139074999Y-73434999D03*
X137804999Y-73434999D03*
X137804999Y-78884999D03*
X139074999Y-78884999D03*
X140344999Y-78884999D03*
X141614999Y-78884999D03*
D15*
X147780000Y-59460000D03*
X148740000Y-59460000D03*
D27*
X157422250Y-76105000D03*
X157422250Y-75145000D03*
D17*
X130430000Y-71520000D03*
X132080000Y-71520000D03*
D18*
X179180000Y-43560000D03*
X179180000Y-45210000D03*
D19*
X151112250Y-79815000D03*
X150152250Y-79815000D03*
D18*
X179854750Y-83975000D03*
X179854750Y-85625000D03*
D13*
X173759750Y-95950000D03*
X172109750Y-95950000D03*
D16*
X173344750Y-84550000D03*
X173344750Y-86100000D03*
D14*
X191670000Y-118145000D03*
X191670000Y-116495000D03*
D13*
X190257500Y-43865000D03*
X188607500Y-43865000D03*
D29*
X198739999Y-113019999D03*
X198739999Y-111749999D03*
X198739999Y-110479999D03*
X198739999Y-109209999D03*
X198739999Y-107939999D03*
X198739999Y-106669999D03*
X198739999Y-105399999D03*
X198739999Y-104129999D03*
X190209999Y-104129999D03*
X190209999Y-105399999D03*
X190209999Y-106669999D03*
X190209999Y-107939999D03*
X190209999Y-109209999D03*
X190209999Y-110479999D03*
X190209999Y-111749999D03*
X190209999Y-113019999D03*
D14*
X182480000Y-48335000D03*
X182480000Y-46685000D03*
D30*
X202852499Y-54584999D03*
X201902499Y-56784999D03*
X200952499Y-54584999D03*
D14*
X184080000Y-48330000D03*
X184080000Y-46680000D03*
X146370000Y-65380000D03*
X146370000Y-63730000D03*
D17*
X188607500Y-45565000D03*
X190257500Y-45565000D03*
D31*
X124959999Y-79069999D03*
X134859999Y-79069999D03*
D32*
X153259999Y-67409999D03*
X153259999Y-65509999D03*
D18*
X142000000Y-48625000D03*
X142000000Y-50275000D03*
D33*
X139840000Y-86230000D03*
X139840000Y-81830000D03*
D16*
X170304750Y-84545000D03*
X170304750Y-86095000D03*
D25*
X154380000Y-57640000D03*
X154380000Y-56090000D03*
D16*
X202980000Y-116290000D03*
X202980000Y-117840000D03*
D14*
X151150000Y-62325000D03*
X151150000Y-60675000D03*
D15*
X163762250Y-83345000D03*
X164722250Y-83345000D03*
D14*
X156430000Y-73470000D03*
X156430000Y-71820000D03*
D13*
X171717250Y-75365000D03*
X170067250Y-75365000D03*
D27*
X153780000Y-49080000D03*
X153780000Y-48120000D03*
D13*
X206007500Y-44385000D03*
X204357500Y-44385000D03*
D14*
X190140000Y-118140000D03*
X190140000Y-116490000D03*
D34*
X196842499Y-54044999D03*
X196842499Y-54394999D03*
X196842499Y-54744999D03*
X197942499Y-54744999D03*
X197942499Y-54394999D03*
X197942499Y-54044999D03*
D16*
X171824750Y-84550000D03*
X171824750Y-86100000D03*
D14*
X144840000Y-65390000D03*
X144840000Y-63740000D03*
D32*
X148459999Y-67409999D03*
X148459999Y-65509999D03*
D17*
X168979750Y-91840000D03*
X170629750Y-91840000D03*
D14*
X177640000Y-45210000D03*
X177640000Y-43560000D03*
D35*
X177614750Y-94315000D03*
X177614750Y-93045000D03*
X177614750Y-91775000D03*
X177614750Y-90505000D03*
X172664750Y-90505000D03*
X172664750Y-91775000D03*
X172664750Y-93045000D03*
X172664750Y-94315000D03*
D19*
X151112250Y-78835000D03*
X150152250Y-78835000D03*
D17*
X150067250Y-85445000D03*
X151717250Y-85445000D03*
D18*
X131900000Y-68330000D03*
X131900000Y-69980000D03*
D36*
X194792499Y-55894999D03*
X192892499Y-55894999D03*
D37*
X171122250Y-80815000D03*
X171122250Y-79545000D03*
X171122250Y-78275000D03*
X171122250Y-77005000D03*
X166172250Y-77005000D03*
X166172250Y-78275000D03*
X166172250Y-79545000D03*
X166172250Y-80815000D03*
D15*
X145900000Y-59130000D03*
X146860000Y-59130000D03*
D13*
X178369750Y-84030000D03*
X176719750Y-84030000D03*
D17*
X147985000Y-62240000D03*
X149635000Y-62240000D03*
D18*
X152710000Y-60635000D03*
X152710000Y-62285000D03*
D27*
X156442250Y-76105000D03*
X156442250Y-75145000D03*
D38*
X138260993Y-63629999D03*
X133210993Y-63629999D03*
X138260993Y-61089999D03*
X133210993Y-61089999D03*
X138260993Y-58549999D03*
X133210993Y-58549999D03*
X138260993Y-56009999D03*
X133210993Y-56009999D03*
D14*
X144220000Y-49020000D03*
X144220000Y-47370000D03*
D27*
X155462250Y-76105000D03*
X155462250Y-75145000D03*
D38*
X138311793Y-104269999D03*
X133261793Y-104269999D03*
X138311793Y-101729999D03*
X133261793Y-101729999D03*
X138311793Y-99189999D03*
X133261793Y-99189999D03*
X138311793Y-96649999D03*
X133261793Y-96649999D03*
D39*
X161387250Y-92360000D03*
X161387250Y-91090000D03*
X161387250Y-89820000D03*
X161387250Y-88550000D03*
X154187250Y-88550000D03*
X154187250Y-89820000D03*
X154187250Y-91090000D03*
X154187250Y-92360000D03*
D40*
X172754749Y-98319999D03*
X176984749Y-98319999D03*
D41*
X168100000Y-104265000D03*
X167100000Y-104265000D03*
X166100000Y-104265000D03*
X165100000Y-104265000D03*
X164100000Y-104265000D03*
X163100000Y-104265000D03*
X162100000Y-104265000D03*
X161100000Y-104265000D03*
D42*
X169400000Y-106790000D03*
X159800000Y-106790000D03*
D14*
X204242500Y-52810000D03*
X204242500Y-51160000D03*
D43*
X158264750Y-82317500D03*
X158264750Y-81042500D03*
X156989750Y-82317500D03*
X156989750Y-81042500D03*
D44*
X161064750Y-84280000D03*
X161064750Y-83880000D03*
X161064750Y-83480000D03*
X161064750Y-83080000D03*
X161064750Y-82680000D03*
X161064750Y-82280000D03*
X161064750Y-81880000D03*
X161064750Y-81480000D03*
X161064750Y-81080000D03*
X161064750Y-80680000D03*
X161064750Y-80280000D03*
X161064750Y-79880000D03*
X161064750Y-79480000D03*
X161064750Y-79080000D03*
D45*
X160227250Y-78242500D03*
X159827250Y-78242500D03*
X159427250Y-78242500D03*
X159027250Y-78242500D03*
X158627250Y-78242500D03*
X158227250Y-78242500D03*
X157827250Y-78242500D03*
X157427250Y-78242500D03*
X157027250Y-78242500D03*
X156627250Y-78242500D03*
X156227250Y-78242500D03*
X155827250Y-78242500D03*
X155427250Y-78242500D03*
X155027250Y-78242500D03*
D44*
X154189750Y-79080000D03*
X154189750Y-79480000D03*
X154189750Y-79880000D03*
X154189750Y-80280000D03*
X154189750Y-80680000D03*
X154189750Y-81080000D03*
X154189750Y-81480000D03*
X154189750Y-81880000D03*
X154189750Y-82280000D03*
X154189750Y-82680000D03*
X154189750Y-83080000D03*
X154189750Y-83480000D03*
X154189750Y-83880000D03*
X154189750Y-84280000D03*
D45*
X155027250Y-85117500D03*
X155427250Y-85117500D03*
X155827250Y-85117500D03*
X156227250Y-85117500D03*
X156627250Y-85117500D03*
X157027250Y-85117500D03*
X157427250Y-85117500D03*
X157827250Y-85117500D03*
X158227250Y-85117500D03*
X158627250Y-85117500D03*
X159027250Y-85117500D03*
X159427250Y-85117500D03*
X159827250Y-85117500D03*
X160227250Y-85117500D03*
D46*
X145939999Y-61319999D03*
X144139999Y-61319999D03*
D47*
X152710000Y-59180000D03*
X154260000Y-59180000D03*
D27*
X156712250Y-70665000D03*
X156712250Y-69705000D03*
D25*
X167504750Y-91860000D03*
X167504750Y-90310000D03*
D19*
X190482500Y-46825000D03*
X189522500Y-46825000D03*
D48*
X141969999Y-70259999D03*
D49*
X139289999Y-70259999D03*
D18*
X185610000Y-46675000D03*
X185610000Y-48325000D03*
D14*
X130380000Y-69985000D03*
X130380000Y-68335000D03*
D50*
X150709999Y-46309999D03*
X150709999Y-48509999D03*
X152409999Y-48509999D03*
X152409999Y-46309999D03*
D15*
X163762250Y-82365000D03*
X164722250Y-82365000D03*
D51*
X177714749Y-86019999D03*
D52*
X177314749Y-86019999D03*
X176914749Y-86019999D03*
X176514749Y-86019999D03*
X176114749Y-86019999D03*
D53*
X175714749Y-86019999D03*
D54*
X175214749Y-86519999D03*
D55*
X175214749Y-86919999D03*
X175214749Y-87319999D03*
X175214749Y-87719999D03*
X175214749Y-88119999D03*
D54*
X175214749Y-88519999D03*
D53*
X175714749Y-89019999D03*
D52*
X176114749Y-89019999D03*
X176514749Y-89019999D03*
X176914749Y-89019999D03*
X177314749Y-89019999D03*
D53*
X177714749Y-89019999D03*
D54*
X178214749Y-88519999D03*
D55*
X178214749Y-88119999D03*
X178214749Y-87719999D03*
X178214749Y-87319999D03*
X178214749Y-86919999D03*
D56*
X178214749Y-86519999D03*
D57*
X176714749Y-87519999D03*
D13*
X171717250Y-82455000D03*
X170067250Y-82455000D03*
D50*
X158102249Y-70294999D03*
X158102249Y-72494999D03*
X159802249Y-72494999D03*
X159802249Y-70294999D03*
D32*
X150859999Y-65509999D03*
X150859999Y-67409999D03*
D16*
X154240000Y-60680000D03*
X154240000Y-62230000D03*
M02*
