M48
; DRILL file {KiCad (7.0.0-0)} date 22 February 2023 Wednesday 15:23:46
; FORMAT={-:-/ absolute / inch / decimal}
; #@! TF.CreationDate,2023-02-22T15:23:46+03:00
; #@! TF.GenerationSoftware,Kicad,Pcbnew,(7.0.0-0)
; #@! TF.FileFunction,Plated,1,4,PTH
FMAT,2
INCH
; #@! TA.AperFunction,Plated,PTH,ViaDrill
T1C0.0138
; #@! TA.AperFunction,Plated,PTH,ComponentDrill
T2C0.0138
; #@! TA.AperFunction,Plated,PTH,ComponentDrill
T3C0.0197
; #@! TA.AperFunction,Plated,PTH,ComponentDrill
T4C0.0295
; #@! TA.AperFunction,Plated,PTH,ComponentDrill
T5C0.0299
; #@! TA.AperFunction,Plated,PTH,ComponentDrill
T6C0.0315
; #@! TA.AperFunction,Plated,PTH,ComponentDrill
T7C0.0354
; #@! TA.AperFunction,Plated,PTH,ComponentDrill
T8C0.0394
; #@! TA.AperFunction,Plated,PTH,ComponentDrill
T9C0.0551
; #@! TA.AperFunction,Plated,PTH,ComponentDrill
T10C0.0606
; #@! TA.AperFunction,Plated,PTH,ViaDrill
T11C0.0787
%
G90
G05
T1
X5.0815Y-2.8213
X5.1327Y-2.9465
X5.1327Y-3.0618
X5.1563Y-3.0976
X5.2626Y-2.9354
X5.2701Y-4.3449
X5.3425Y-2.7141
X5.4512Y-1.9126
X5.5299Y-2.3551
X5.5465Y-1.9402
X5.6012Y-2.3319
X5.6059Y-2.2925
X5.6126Y-2.2287
X5.6189Y-3.5024
X5.6252Y-4.4488
X5.6417Y-2.6217
X5.6587Y-4.4547
X5.6921Y-2.1724
X5.6957Y-3.3193
X5.7087Y-2.3646
X5.7106Y-3.6445
X5.711Y-2.4618
X5.7173Y-4.4008
X5.7264Y-2.2118
X5.7441Y-4.6049
X5.7441Y-4.6384
X5.7472Y-3.3319
X5.7536Y-2.2004
X5.7575Y-4.3988
X5.7622Y-3.3839
X5.774Y-3.3031
X5.7748Y-2.4551
X5.7799Y-2.2138
X5.7827Y-2.3752
X5.7835Y-2.4193
X5.7929Y-3.8165
X5.7964Y-1.9839
X5.7984Y-3.7724
X5.7988Y-1.8384
X5.7988Y-1.8719
X5.7996Y-2.5573
X5.8132Y-3.328
X5.8236Y-2.3071
X5.8256Y-1.9791
X5.8445Y-4.1461
X5.8467Y-3.328
X5.8508Y-3.7213
X5.8528Y-3.6665
X5.8531Y-2.2067
X5.8638Y-1.8815
X5.8768Y-1.9988
X5.8768Y-3.4874
X5.8807Y-3.7949
X5.8823Y-3.5783
X5.9004Y-1.9752
X5.9283Y-2.3209
X5.9331Y-2.9827
X5.9437Y-3.4693
X5.9457Y-2.5035
X5.9534Y-3.063
X5.9571Y-2.9583
X5.9646Y-1.9673
X5.974Y-3.0102
X5.9862Y-1.75
X5.9893Y-2.4872
X6.0051Y-3.2587
X6.0157Y-3.7626
X6.0173Y-3.3209
X6.0258Y-3.197
X6.0272Y-3.2307
X6.0339Y-2.9488
X6.0389Y-2.5367
X6.0516Y-2.8949
X6.0697Y-2.9422
X6.0728Y-1.8142
X6.0819Y-2.9913
X6.0972Y-2.9213
X6.098Y-3.3882
X6.1161Y-3.0252
X6.1228Y-3.811
X6.1413Y-3.0407
X6.1425Y-3.1189
X6.154Y-3.4169
X6.1594Y-3.7102
X6.161Y-2.3772
X6.1622Y-2.2961
X6.1906Y-3.8941
X6.2024Y-3.8472
X6.2138Y-2.2992
X6.2299Y-2.4213
X6.2394Y-2.9673
X6.2398Y-3.4248
X6.2403Y-3.0366
X6.2532Y-3.5055
X6.2638Y-2.3681
X6.2717Y-3.122
X6.2831Y-3.7134
X6.2843Y-2.6138
X6.2874Y-2.4417
X6.2941Y-3.4102
X6.2961Y-3.1508
X6.3115Y-3.0214
X6.3276Y-3.7969
X6.3327Y-2.587
X6.3374Y-2.6358
X6.3398Y-3.0299
X6.3634Y-3.7291
X6.3764Y-2.8911
X6.3843Y-2.3992
X6.3906Y-2.9524
X6.3941Y-3.2654
X6.399Y-3.2945
X6.4047Y-2.2799
X6.4047Y-2.3343
X6.4087Y-3.1449
X6.4094Y-2.4374
X6.435Y-3.5106
X6.437Y-2.5843
X6.4382Y-3.0606
X6.4396Y-3.1996
X6.4409Y-3.3925
X6.4461Y-2.637
X6.4579Y-2.3138
X6.4638Y-2.3799
X6.4638Y-2.4504
X6.4642Y-3.0394
X6.4827Y-2.5902
X6.4857Y-3.1406
X6.4921Y-2.9472
X6.4945Y-2.4197
X6.4961Y-2.665
X6.502Y-3.6244
X6.5189Y-3.5669
X6.5217Y-2.7909
X6.5219Y-2.8276
X6.528Y-3.4031
X6.5427Y-3.2949
X6.545Y-3.2655
X6.5472Y-2.1465
X6.5487Y-2.1759
X6.5874Y-3.9016
X6.6063Y-2.3138
X6.6063Y-2.361
X6.6063Y-2.4079
X6.6063Y-2.6693
X6.6075Y-2.5917
X6.6185Y-3.1398
X6.6193Y-2.8394
X6.7297Y-2.2378
X6.7632Y-2.2378
X6.7815Y-4.3892
X6.7815Y-4.4226
X6.7839Y-2.6343
X6.8053Y-3.0343
X6.8075Y-2.4197
X6.8126Y-3.1807
X6.8252Y-2.8705
X6.8315Y-3.2327
X6.8339Y-2.6886
X6.837Y-2.2287
X6.837Y-2.6122
X6.8386Y-2.324
X6.8632Y-3.4846
X6.8644Y-3.1323
X6.8722Y-3.3705
X6.885Y-1.9571
X6.8978Y-3.1323
X6.8996Y-4.0197
X6.9287Y-1.9406
X6.9526Y-4.1224
X6.9591Y-4.0425
X6.9657Y-3.2047
X6.986Y-4.1224
X7.0189Y-2.9528
X7.0189Y-2.9929
X7.024Y-3.5118
X7.0307Y-2.6358
X7.0555Y-3.4382
X7.0598Y-3.4776
X7.0606Y-3.5193
X7.0689Y-3.9488
X7.0839Y-2.1331
X7.085Y-3.4996
X7.122Y-1.9142
X7.1299Y-2.489
X7.15Y-2.0173
X7.1559Y-3.0252
X7.163Y-2.6823
X7.165Y-3.8173
X7.1665Y-2.7764
X7.1929Y-3.0685
X7.2197Y-2.8024
X7.2232Y-2.7087
X7.2299Y-3.7606
X7.2618Y-2.6366
X7.3083Y-4.126
X7.3161Y-3.587
X7.335Y-3.9846
X7.3587Y-2.6563
X7.387Y-1.8976
X7.3913Y-2.4433
X7.3941Y-4.0476
X7.413Y-4.4768
X7.4311Y-4.1488
X7.4319Y-4.3941
X7.4382Y-2.7236
X7.439Y-2.7795
X7.4465Y-2.9173
X7.4524Y-2.9953
X7.4543Y-3.0925
X7.4591Y-2.8465
X7.4657Y-3.022
X7.4768Y-2.9701
X7.4823Y-2.9053
X7.4839Y-4.5091
X7.487Y-2.8622
X7.4941Y-2.6801
X7.5134Y-2.7228
X7.5346Y-3.0854
X7.5362Y-2.7846
X7.5457Y-3.0272
X7.5504Y-2.2949
X7.5691Y-2.7153
X7.5728Y-3.0913
X7.5831Y-2.476
X7.6106Y-1.9831
X7.6118Y-4.5394
X7.6132Y-3.0362
X7.6205Y-2.6946
X7.6309Y-2.7457
X7.632Y-1.8293
X7.6323Y-3.0846
X7.6339Y-2.1209
X7.6506Y-2.7232
X7.6506Y-3.0607
X7.6587Y-2.0524
X7.6693Y-2.0114
X7.6736Y-1.9512
X7.6791Y-2.6476
X7.6919Y-3.0539
X7.6984Y-3.0913
X7.7137Y-1.8772
X7.7232Y-2.2724
X7.7252Y-1.9531
X7.726Y-4.6236
X7.7287Y-2.0083
X7.7291Y-3.1343
X7.7331Y-2.7335
X7.7413Y-2.7843
X7.7413Y-3.0366
X7.7543Y-3.0724
X7.7661Y-4.5929
X7.7693Y-2.5937
X7.7795Y-2.0028
X7.8012Y-2.5929
X7.824Y-4.5346
X7.8492Y-4.6382
X7.8496Y-2.7343
X7.8528Y-3.0213
X7.8734Y-2.9921
X7.8823Y-4.402
X7.889Y-4.1563
X7.9052Y-1.7333
X7.9079Y-4.5134
X7.9079Y-4.6031
X7.9413Y-2.4539
X7.9417Y-1.9783
X7.95Y-4.4713
X7.9661Y-3.2559
X7.9882Y-2.4406
X7.9886Y-3.7189
X8.0087Y-4.2941
X8.011Y-4.1335
X8.0248Y-2.7303
X8.071Y-1.9289
X8.0913Y-4.3154
X8.0933Y-4.1335
X8.0969Y-1.9488
X8.102Y-4.2728
X8.1323Y-3.7142
X8.1421Y-4.311
X8.15Y-1.8543
X8.1575Y-1.7461
X8.1929Y-2.8717
X8.1972Y-4.2854
X8.2224Y-4.3764
X8.2394Y-4.2941
X8.2563Y-2.5634
X8.3028Y-4.1756
X8.3193Y-3.3685
X8.3492Y-4.3764
X8.3772Y-1.6661
X8.5606Y-1.6965
T2
X6.1556Y-3.1656
X6.1556Y-3.2157
X6.1556Y-3.2659
X6.2058Y-3.1656
X6.2058Y-3.2157
X6.2058Y-3.2659
X6.256Y-3.1656
X6.256Y-3.2157
X6.256Y-3.2659
T3
X7.09Y-4.0961
X7.19Y-4.0961
T4
X6.3996Y-4.361
X6.4783Y-4.361
T5
X6.3031Y-2.022
X6.3531Y-1.922
X6.4031Y-2.022
X6.4531Y-1.922
X6.5031Y-2.022
X6.5531Y-1.922
X6.6031Y-2.022
X6.6531Y-1.922
X6.8728Y-4.3543
X6.9228Y-4.2543
X6.9728Y-4.3543
X7.0228Y-4.2543
X7.0728Y-4.3543
X7.1228Y-4.2543
X7.1728Y-4.3543
X7.2228Y-4.2543
T6
X7.0291Y-1.6268
X7.1079Y-1.6268
X7.1866Y-1.6268
X7.2654Y-1.6268
X7.3441Y-1.6268
T8
X8.4528Y-1.9878
X8.4528Y-2.0878
X8.4528Y-2.1878
X8.4528Y-2.2878
X8.4528Y-2.3878
X8.4528Y-2.4878
X8.4528Y-2.5878
X8.4528Y-2.6878
X8.4528Y-2.7878
X8.4528Y-2.8878
X8.4528Y-2.9878
X8.4528Y-3.0878
X8.4528Y-3.1878
X8.4528Y-3.2878
X8.4528Y-3.3878
X8.4528Y-3.4878
X8.4528Y-3.5878
X8.4528Y-3.6878
X8.4528Y-3.7878
X8.4528Y-3.8878
X8.4528Y-4.1878
X8.4528Y-4.2878
X8.5528Y-1.9878
X8.5528Y-2.0878
X8.5528Y-2.1878
X8.5528Y-2.2878
X8.5528Y-2.3878
X8.5528Y-2.4878
X8.5528Y-2.5878
X8.5528Y-2.6878
X8.5528Y-2.7878
X8.5528Y-2.8878
X8.5528Y-2.9878
X8.5528Y-3.0878
X8.5528Y-3.1878
X8.5528Y-3.2878
X8.5528Y-3.3878
X8.5528Y-3.4878
X8.5528Y-3.5878
X8.5528Y-3.6878
X8.5528Y-3.7878
X8.5528Y-3.8878
X8.5528Y-4.1878
X8.5528Y-4.2878
T9
X6.2169Y-4.5929
X6.4169Y-4.5929
T10
X6.6915Y-3.7043
X6.6915Y-3.9043
T11
X5.7909Y-3.5276
X5.9693Y-2.8469
X6.1496Y-2.5358
X6.4339Y-3.9831
X7.3283Y-2.5339
X7.4201Y-3.8028
X7.6854Y-2.3454
T7
G00X5.3063Y-1.6307
M15
G01X5.3693Y-1.6307
M16
G05
G00X5.3063Y-2.0795
M15
G01X5.3693Y-2.0795
M16
G05
T0
M30
