%TF.GenerationSoftware,KiCad,Pcbnew,8.0.0-rc1*%
%TF.CreationDate,2025-03-12T12:31:09+03:00*%
%TF.ProjectId,IMX219_V2.0,494d5832-3139-45f5-9632-2e302e6b6963,rev?*%
%TF.SameCoordinates,Original*%
%TF.FileFunction,Copper,L2,Inr*%
%TF.FilePolarity,Positive*%
%FSLAX46Y46*%
G04 Gerber Fmt 4.6, Leading zero omitted, Abs format (unit mm)*
G04 Created by KiCad (PCBNEW 8.0.0-rc1) date 2025-03-12 12:31:09*
%MOMM*%
%LPD*%
G01*
G04 APERTURE LIST*
%TA.AperFunction,ComponentPad*%
%ADD10C,4.300000*%
%TD*%
%TA.AperFunction,ComponentPad*%
%ADD11C,3.600000*%
%TD*%
%TA.AperFunction,ComponentPad*%
%ADD12C,0.700000*%
%TD*%
%TA.AperFunction,ComponentPad*%
%ADD13R,0.850000X0.850000*%
%TD*%
%TA.AperFunction,ComponentPad*%
%ADD14O,0.850000X0.850000*%
%TD*%
%TA.AperFunction,ViaPad*%
%ADD15C,0.600000*%
%TD*%
G04 APERTURE END LIST*
D10*
X168090000Y-97490000D03*
D11*
X179090000Y-94790000D03*
X179090000Y-74790000D03*
D10*
X168090000Y-70490000D03*
D12*
X177710000Y-83630000D03*
X177710000Y-84390000D03*
X177710000Y-85190000D03*
X177710000Y-85950000D03*
X178600000Y-83630000D03*
X178600000Y-84390000D03*
X178600000Y-85190000D03*
X178600000Y-85950000D03*
X179580000Y-83630000D03*
X179580000Y-84390000D03*
X179580000Y-85190000D03*
X179580000Y-85950000D03*
X180470000Y-83630000D03*
X180470000Y-84390000D03*
X180470000Y-85190000D03*
X180470000Y-85950000D03*
D10*
X190090000Y-97490000D03*
X190090000Y-70490000D03*
D13*
X183515000Y-98515000D03*
D14*
X184765000Y-98515000D03*
D15*
X173290000Y-83690000D03*
X174690000Y-90590000D03*
X174690000Y-85890000D03*
X179240000Y-70320000D03*
X182110000Y-70320000D03*
X176830000Y-69410000D03*
X183900000Y-76310000D03*
X178035000Y-79485000D03*
X184270000Y-83740000D03*
X181560000Y-69370000D03*
X171820000Y-81180000D03*
X170850000Y-81180000D03*
X171450000Y-75890000D03*
X176640000Y-79430000D03*
X181690000Y-89590000D03*
X187280000Y-71180000D03*
X188900000Y-76450000D03*
X167970000Y-74050000D03*
X168278500Y-94490000D03*
X187690000Y-92468500D03*
X168278500Y-80890000D03*
X167551500Y-80890000D03*
X167551500Y-94490000D03*
X187690000Y-91741500D03*
X171179962Y-92745875D03*
X188190000Y-88718500D03*
X171178500Y-83562600D03*
X170451500Y-83562600D03*
X188190000Y-87991500D03*
X170452962Y-92743877D03*
X173790000Y-90890000D03*
X189090000Y-84968500D03*
X173778500Y-85662600D03*
X173051500Y-85662600D03*
X173062997Y-90890000D03*
X189090000Y-84241500D03*
X189350000Y-81480000D03*
X182220000Y-71270000D03*
X182530000Y-73410000D03*
X185300000Y-73400000D03*
X184400000Y-77930000D03*
X181670000Y-82340000D03*
X181690000Y-79530000D03*
X180680000Y-79540000D03*
X187090000Y-78590000D03*
X187090000Y-81090000D03*
X184370000Y-84990000D03*
X180680000Y-89590000D03*
X175260000Y-73220000D03*
X184370000Y-85990000D03*
%TA.AperFunction,Conductor*%
G36*
X177460000Y-85140272D02*
G01*
X177460000Y-85239728D01*
X177498059Y-85331612D01*
X177391095Y-85224648D01*
X177376743Y-85190000D01*
X177391095Y-85155352D01*
X177498059Y-85048387D01*
X177460000Y-85140272D01*
G37*
%TD.AperFunction*%
%TA.AperFunction,Conductor*%
G36*
X177460000Y-84340272D02*
G01*
X177460000Y-84439728D01*
X177498059Y-84531612D01*
X177391095Y-84424648D01*
X177376743Y-84390000D01*
X177391095Y-84355352D01*
X177498059Y-84248387D01*
X177460000Y-84340272D01*
G37*
%TD.AperFunction*%
%TA.AperFunction,Conductor*%
G36*
X180788905Y-85155352D02*
G01*
X180803257Y-85190000D01*
X180788905Y-85224648D01*
X180681940Y-85331612D01*
X180720000Y-85239728D01*
X180720000Y-85140272D01*
X180681940Y-85048387D01*
X180788905Y-85155352D01*
G37*
%TD.AperFunction*%
%TA.AperFunction,Conductor*%
G36*
X180788905Y-84355352D02*
G01*
X180803257Y-84390000D01*
X180788905Y-84424648D01*
X180681940Y-84531612D01*
X180720000Y-84439728D01*
X180720000Y-84340272D01*
X180681940Y-84248387D01*
X180788905Y-84355352D01*
G37*
%TD.AperFunction*%
%TA.AperFunction,Conductor*%
G36*
X175830232Y-68829852D02*
G01*
X175844584Y-68864500D01*
X175830232Y-68899148D01*
X175809044Y-68920335D01*
X175809042Y-68920338D01*
X175781949Y-68960885D01*
X175764492Y-68987010D01*
X175750145Y-69021645D01*
X175750142Y-69021655D01*
X175745680Y-69044089D01*
X175734500Y-69100296D01*
X175734500Y-69100299D01*
X175734500Y-71904582D01*
X175720148Y-71939230D01*
X175166618Y-72492759D01*
X175166608Y-72492770D01*
X175135192Y-72533213D01*
X175135188Y-72533219D01*
X175122830Y-72554048D01*
X175122822Y-72554063D01*
X175105938Y-72590056D01*
X175105938Y-72590058D01*
X175095236Y-72680884D01*
X175095236Y-72680885D01*
X175097723Y-72704018D01*
X175087156Y-72740002D01*
X175062811Y-72756268D01*
X175049951Y-72760044D01*
X174928871Y-72837857D01*
X174834625Y-72946623D01*
X174834624Y-72946625D01*
X174774833Y-73077545D01*
X174754353Y-73219997D01*
X174754353Y-73220002D01*
X174774834Y-73362455D01*
X174774834Y-73362457D01*
X174805744Y-73430139D01*
X174807083Y-73467618D01*
X174790444Y-73488053D01*
X174790923Y-73488560D01*
X174787416Y-73491874D01*
X174734496Y-73566457D01*
X174720144Y-73601104D01*
X174720142Y-73601110D01*
X174714082Y-73631580D01*
X174704500Y-73679751D01*
X174704500Y-77889704D01*
X174712516Y-77930002D01*
X174720142Y-77968344D01*
X174720145Y-77968354D01*
X174734492Y-78002989D01*
X174734493Y-78002991D01*
X174734495Y-78002995D01*
X174779042Y-78069662D01*
X174779044Y-78069664D01*
X175280232Y-78570852D01*
X175294584Y-78605500D01*
X175280232Y-78640148D01*
X175245584Y-78654500D01*
X172645416Y-78654500D01*
X172610768Y-78640148D01*
X172559852Y-78589232D01*
X172545500Y-78554584D01*
X172545500Y-75520299D01*
X172545500Y-75520296D01*
X172529857Y-75441653D01*
X172515505Y-75407005D01*
X172470958Y-75340338D01*
X172219662Y-75089042D01*
X172152995Y-75044495D01*
X172152991Y-75044493D01*
X172152989Y-75044492D01*
X172118354Y-75030145D01*
X172118344Y-75030142D01*
X172086630Y-75023834D01*
X172039704Y-75014500D01*
X170990296Y-75014500D01*
X170951155Y-75022285D01*
X170911655Y-75030142D01*
X170911645Y-75030145D01*
X170877010Y-75044492D01*
X170877006Y-75044494D01*
X170877005Y-75044495D01*
X170819816Y-75082709D01*
X170810335Y-75089044D01*
X170519044Y-75380335D01*
X170519042Y-75380338D01*
X170475740Y-75445143D01*
X170474492Y-75447010D01*
X170460145Y-75481645D01*
X170460142Y-75481655D01*
X170452456Y-75520296D01*
X170444500Y-75560296D01*
X170444500Y-75560299D01*
X170444500Y-80014584D01*
X170430148Y-80049232D01*
X170209044Y-80270335D01*
X170164492Y-80337010D01*
X170150145Y-80371645D01*
X170150142Y-80371655D01*
X170146593Y-80389500D01*
X170134500Y-80450296D01*
X170134500Y-81509704D01*
X170142506Y-81549953D01*
X170150142Y-81588344D01*
X170150145Y-81588354D01*
X170164492Y-81622989D01*
X170164493Y-81622991D01*
X170164495Y-81622995D01*
X170209042Y-81689662D01*
X170430338Y-81910958D01*
X170497005Y-81955505D01*
X170497010Y-81955507D01*
X170531645Y-81969854D01*
X170531647Y-81969854D01*
X170531653Y-81969857D01*
X170610296Y-81985500D01*
X170610299Y-81985500D01*
X172219701Y-81985500D01*
X172219704Y-81985500D01*
X172298347Y-81969857D01*
X172332995Y-81955505D01*
X172399662Y-81910958D01*
X172540958Y-81769662D01*
X172585505Y-81702995D01*
X172599857Y-81668347D01*
X172615500Y-81589704D01*
X172615500Y-80205416D01*
X172629852Y-80170768D01*
X172690770Y-80109850D01*
X172725417Y-80095500D01*
X176949701Y-80095500D01*
X176949704Y-80095500D01*
X177028347Y-80079857D01*
X177062995Y-80065505D01*
X177129662Y-80020958D01*
X177140788Y-80009831D01*
X177175433Y-79995480D01*
X177210082Y-80009830D01*
X177223493Y-80034920D01*
X177230140Y-80068336D01*
X177230145Y-80068354D01*
X177244492Y-80102989D01*
X177244493Y-80102991D01*
X177244495Y-80102995D01*
X177289042Y-80169662D01*
X177490338Y-80370958D01*
X177557005Y-80415505D01*
X177557010Y-80415507D01*
X177591645Y-80429854D01*
X177591647Y-80429854D01*
X177591653Y-80429857D01*
X177670296Y-80445500D01*
X177670299Y-80445500D01*
X178549701Y-80445500D01*
X178549704Y-80445500D01*
X178628347Y-80429857D01*
X178662995Y-80415505D01*
X178729662Y-80370958D01*
X178940958Y-80159662D01*
X178985505Y-80092995D01*
X178999857Y-80058347D01*
X179015500Y-79979704D01*
X179015500Y-79540002D01*
X180174353Y-79540002D01*
X180194833Y-79682454D01*
X180226935Y-79752746D01*
X180254623Y-79813373D01*
X180254624Y-79813374D01*
X180254625Y-79813376D01*
X180340206Y-79912142D01*
X180348872Y-79922143D01*
X180469947Y-79999953D01*
X180541481Y-80020957D01*
X180608034Y-80040499D01*
X180608037Y-80040499D01*
X180608039Y-80040500D01*
X180608040Y-80040500D01*
X180751960Y-80040500D01*
X180751961Y-80040500D01*
X180751963Y-80040499D01*
X180751965Y-80040499D01*
X180786018Y-80030500D01*
X180890053Y-79999953D01*
X181011128Y-79922143D01*
X181105377Y-79813373D01*
X181142711Y-79731622D01*
X181170159Y-79706067D01*
X181207638Y-79707406D01*
X181231855Y-79731622D01*
X181234675Y-79737798D01*
X181264623Y-79803373D01*
X181264624Y-79803374D01*
X181264625Y-79803376D01*
X181358871Y-79912142D01*
X181358872Y-79912143D01*
X181479947Y-79989953D01*
X181547643Y-80009830D01*
X181618034Y-80030499D01*
X181618037Y-80030499D01*
X181618039Y-80030500D01*
X181618040Y-80030500D01*
X181761960Y-80030500D01*
X181761961Y-80030500D01*
X181761963Y-80030499D01*
X181761965Y-80030499D01*
X181794462Y-80020957D01*
X181900053Y-79989953D01*
X182021128Y-79912143D01*
X182115377Y-79803373D01*
X182175165Y-79672457D01*
X182175165Y-79672455D01*
X182175166Y-79672454D01*
X182195647Y-79530002D01*
X182195647Y-79529997D01*
X182175166Y-79387545D01*
X182164382Y-79363932D01*
X182115377Y-79256627D01*
X182021128Y-79147857D01*
X181900053Y-79070047D01*
X181900050Y-79070046D01*
X181761965Y-79029500D01*
X181761961Y-79029500D01*
X181618039Y-79029500D01*
X181618034Y-79029500D01*
X181479949Y-79070046D01*
X181479947Y-79070046D01*
X181479947Y-79070047D01*
X181442722Y-79093969D01*
X181358871Y-79147857D01*
X181264625Y-79256623D01*
X181264624Y-79256625D01*
X181227288Y-79338377D01*
X181199839Y-79363932D01*
X181162360Y-79362593D01*
X181138144Y-79338377D01*
X181105377Y-79266627D01*
X181096710Y-79256625D01*
X181011128Y-79157857D01*
X180890053Y-79080047D01*
X180890050Y-79080046D01*
X180751965Y-79039500D01*
X180751961Y-79039500D01*
X180608039Y-79039500D01*
X180608034Y-79039500D01*
X180469949Y-79080046D01*
X180469947Y-79080046D01*
X180469947Y-79080047D01*
X180453682Y-79090500D01*
X180348871Y-79157857D01*
X180254625Y-79266623D01*
X180254624Y-79266625D01*
X180194833Y-79397545D01*
X180174353Y-79539997D01*
X180174353Y-79540002D01*
X179015500Y-79540002D01*
X179015500Y-78805416D01*
X179029852Y-78770768D01*
X179160769Y-78639852D01*
X179195417Y-78625500D01*
X182779701Y-78625500D01*
X182779704Y-78625500D01*
X182858347Y-78609857D01*
X182892995Y-78595505D01*
X182959662Y-78550958D01*
X183310958Y-78199662D01*
X183355505Y-78132995D01*
X183369857Y-78098347D01*
X183385500Y-78019704D01*
X183385500Y-77235417D01*
X183399852Y-77200769D01*
X183399853Y-77200768D01*
X183420771Y-77179851D01*
X183455418Y-77165500D01*
X184399701Y-77165500D01*
X184399704Y-77165500D01*
X184478347Y-77149857D01*
X184512995Y-77135505D01*
X184579662Y-77090958D01*
X184820958Y-76849662D01*
X184865505Y-76782995D01*
X184879857Y-76748347D01*
X184887441Y-76710215D01*
X184908277Y-76679034D01*
X184945059Y-76671717D01*
X184976242Y-76692553D01*
X184984500Y-76719776D01*
X184984500Y-77793320D01*
X184970148Y-77827968D01*
X184935500Y-77842320D01*
X184900852Y-77827968D01*
X184886999Y-77800294D01*
X184885165Y-77787544D01*
X184885165Y-77787543D01*
X184825377Y-77656627D01*
X184731128Y-77547857D01*
X184610053Y-77470047D01*
X184610050Y-77470046D01*
X184471965Y-77429500D01*
X184471961Y-77429500D01*
X184328039Y-77429500D01*
X184328034Y-77429500D01*
X184189949Y-77470046D01*
X184068871Y-77547857D01*
X183974625Y-77656623D01*
X183974624Y-77656625D01*
X183914833Y-77787545D01*
X183894353Y-77929997D01*
X183894353Y-77930002D01*
X183914833Y-78072454D01*
X183941135Y-78130046D01*
X183974623Y-78203373D01*
X183974624Y-78203374D01*
X183974625Y-78203376D01*
X183978508Y-78207857D01*
X184068872Y-78312143D01*
X184189947Y-78389953D01*
X184266785Y-78412514D01*
X184328034Y-78430499D01*
X184328037Y-78430499D01*
X184328039Y-78430500D01*
X184328040Y-78430500D01*
X184471960Y-78430500D01*
X184471961Y-78430500D01*
X184471963Y-78430499D01*
X184471965Y-78430499D01*
X184494795Y-78423795D01*
X184610053Y-78389953D01*
X184731128Y-78312143D01*
X184825377Y-78203373D01*
X184885165Y-78072457D01*
X184885165Y-78072455D01*
X184885166Y-78072454D01*
X184886999Y-78059706D01*
X184906135Y-78027453D01*
X184942473Y-78018178D01*
X184974726Y-78037314D01*
X184984500Y-78066679D01*
X184984500Y-82584584D01*
X184970148Y-82619232D01*
X184799232Y-82790148D01*
X184764584Y-82804500D01*
X183680296Y-82804500D01*
X183641155Y-82812285D01*
X183601655Y-82820142D01*
X183601645Y-82820145D01*
X183567010Y-82834492D01*
X183567006Y-82834494D01*
X183567005Y-82834495D01*
X183502975Y-82877280D01*
X183500335Y-82879044D01*
X183219044Y-83160335D01*
X183219042Y-83160338D01*
X183205597Y-83180460D01*
X183174492Y-83227010D01*
X183160145Y-83261645D01*
X183160142Y-83261655D01*
X183154658Y-83289227D01*
X183144500Y-83340296D01*
X183144500Y-84109704D01*
X183154880Y-84161891D01*
X183160142Y-84188344D01*
X183160145Y-84188354D01*
X183174492Y-84222989D01*
X183174493Y-84222991D01*
X183174495Y-84222995D01*
X183219042Y-84289662D01*
X183430338Y-84500958D01*
X183497005Y-84545505D01*
X183497010Y-84545507D01*
X183531645Y-84559854D01*
X183531647Y-84559854D01*
X183531653Y-84559857D01*
X183610296Y-84575500D01*
X183959614Y-84575500D01*
X183994262Y-84589852D01*
X184008614Y-84624500D01*
X183996646Y-84656588D01*
X183944625Y-84716623D01*
X183944624Y-84716625D01*
X183884833Y-84847545D01*
X183864353Y-84989997D01*
X183864353Y-84990002D01*
X183884833Y-85132454D01*
X183901980Y-85169999D01*
X183944623Y-85263373D01*
X183944624Y-85263374D01*
X183944625Y-85263376D01*
X184020241Y-85350642D01*
X184038872Y-85372143D01*
X184144460Y-85440000D01*
X184158119Y-85448778D01*
X184179508Y-85479584D01*
X184172850Y-85516491D01*
X184158119Y-85531222D01*
X184038871Y-85607857D01*
X183944625Y-85716623D01*
X183944624Y-85716625D01*
X183884833Y-85847545D01*
X183864353Y-85989997D01*
X183864353Y-85990002D01*
X183884833Y-86132454D01*
X183898829Y-86163099D01*
X183944623Y-86263373D01*
X183944624Y-86263374D01*
X183944625Y-86263376D01*
X184018037Y-86348098D01*
X184038872Y-86372143D01*
X184159947Y-86449953D01*
X184236785Y-86472514D01*
X184298034Y-86490499D01*
X184298037Y-86490499D01*
X184298039Y-86490500D01*
X184298040Y-86490500D01*
X184441960Y-86490500D01*
X184441961Y-86490500D01*
X184441963Y-86490499D01*
X184441965Y-86490499D01*
X184464795Y-86483795D01*
X184580053Y-86449953D01*
X184701128Y-86372143D01*
X184795377Y-86263373D01*
X184855165Y-86132457D01*
X184855165Y-86132455D01*
X184855166Y-86132454D01*
X184875647Y-85990002D01*
X184875647Y-85989997D01*
X184855166Y-85847545D01*
X184835762Y-85805057D01*
X184795377Y-85716627D01*
X184748564Y-85662602D01*
X184701128Y-85607857D01*
X184692584Y-85602366D01*
X184581878Y-85531220D01*
X184560491Y-85500416D01*
X184567149Y-85463509D01*
X184581877Y-85448780D01*
X184701128Y-85372143D01*
X184795377Y-85263373D01*
X184855165Y-85132457D01*
X184855165Y-85132455D01*
X184855166Y-85132454D01*
X184875647Y-84990002D01*
X184875647Y-84989997D01*
X184872557Y-84968502D01*
X188584353Y-84968502D01*
X188604833Y-85110954D01*
X188628865Y-85163575D01*
X188664623Y-85241873D01*
X188664624Y-85241874D01*
X188664625Y-85241876D01*
X188699698Y-85282352D01*
X188758872Y-85350643D01*
X188879947Y-85428453D01*
X188953170Y-85449953D01*
X189018034Y-85468999D01*
X189018037Y-85468999D01*
X189018039Y-85469000D01*
X189018040Y-85469000D01*
X189161960Y-85469000D01*
X189161961Y-85469000D01*
X189161963Y-85468999D01*
X189161965Y-85468999D01*
X189184795Y-85462295D01*
X189300053Y-85428453D01*
X189421128Y-85350643D01*
X189515377Y-85241873D01*
X189575165Y-85110957D01*
X189575165Y-85110955D01*
X189575166Y-85110954D01*
X189595647Y-84968502D01*
X189595647Y-84968497D01*
X189575166Y-84826045D01*
X189564497Y-84802683D01*
X189515377Y-84695127D01*
X189465085Y-84637087D01*
X189453243Y-84601505D01*
X189465086Y-84572912D01*
X189476401Y-84559854D01*
X189515377Y-84514873D01*
X189575165Y-84383957D01*
X189575165Y-84383955D01*
X189575166Y-84383954D01*
X189595647Y-84241502D01*
X189595647Y-84241497D01*
X189575166Y-84099045D01*
X189549283Y-84042370D01*
X189515377Y-83968127D01*
X189502265Y-83952995D01*
X189421128Y-83859357D01*
X189300053Y-83781547D01*
X189300050Y-83781546D01*
X189161965Y-83741000D01*
X189161961Y-83741000D01*
X189018039Y-83741000D01*
X189018034Y-83741000D01*
X188879949Y-83781546D01*
X188758871Y-83859357D01*
X188664625Y-83968123D01*
X188664624Y-83968125D01*
X188604833Y-84099045D01*
X188584353Y-84241497D01*
X188584353Y-84241502D01*
X188604833Y-84383954D01*
X188664623Y-84514873D01*
X188714913Y-84572912D01*
X188726756Y-84608496D01*
X188714912Y-84637088D01*
X188664627Y-84695123D01*
X188664624Y-84695126D01*
X188664623Y-84695126D01*
X188604833Y-84826045D01*
X188584353Y-84968497D01*
X188584353Y-84968502D01*
X184872557Y-84968502D01*
X184855166Y-84847545D01*
X184845346Y-84826043D01*
X184795377Y-84716627D01*
X184795374Y-84716623D01*
X184743354Y-84656588D01*
X184731511Y-84621004D01*
X184748298Y-84587468D01*
X184780386Y-84575500D01*
X185739701Y-84575500D01*
X185739704Y-84575500D01*
X185818347Y-84559857D01*
X185852995Y-84545505D01*
X185919662Y-84500958D01*
X186400958Y-84019662D01*
X186445505Y-83952995D01*
X186459857Y-83918347D01*
X186475500Y-83839704D01*
X186475500Y-81090002D01*
X186584353Y-81090002D01*
X186604833Y-81232454D01*
X186622959Y-81272143D01*
X186664623Y-81363373D01*
X186664624Y-81363374D01*
X186664625Y-81363376D01*
X186688128Y-81390500D01*
X186758872Y-81472143D01*
X186879947Y-81549953D01*
X186956785Y-81572514D01*
X187018034Y-81590499D01*
X187018037Y-81590499D01*
X187018039Y-81590500D01*
X187018040Y-81590500D01*
X187161960Y-81590500D01*
X187161961Y-81590500D01*
X187161963Y-81590499D01*
X187161965Y-81590499D01*
X187184795Y-81583795D01*
X187300053Y-81549953D01*
X187408899Y-81480002D01*
X188844353Y-81480002D01*
X188864833Y-81622454D01*
X188895527Y-81689662D01*
X188924623Y-81753373D01*
X188924624Y-81753374D01*
X188924625Y-81753376D01*
X188938737Y-81769662D01*
X189018872Y-81862143D01*
X189139947Y-81939953D01*
X189216785Y-81962514D01*
X189278034Y-81980499D01*
X189278037Y-81980499D01*
X189278039Y-81980500D01*
X189278040Y-81980500D01*
X189421960Y-81980500D01*
X189421961Y-81980500D01*
X189421963Y-81980499D01*
X189421965Y-81980499D01*
X189458218Y-81969854D01*
X189560053Y-81939953D01*
X189681128Y-81862143D01*
X189775377Y-81753373D01*
X189835165Y-81622457D01*
X189835165Y-81622455D01*
X189835166Y-81622454D01*
X189855647Y-81480002D01*
X189855647Y-81479997D01*
X189835166Y-81337545D01*
X189805297Y-81272142D01*
X189775377Y-81206627D01*
X189737898Y-81163374D01*
X189681128Y-81097857D01*
X189668902Y-81090000D01*
X189560053Y-81020047D01*
X189560050Y-81020046D01*
X189421965Y-80979500D01*
X189421961Y-80979500D01*
X189278039Y-80979500D01*
X189278034Y-80979500D01*
X189139949Y-81020046D01*
X189139947Y-81020046D01*
X189139947Y-81020047D01*
X189120637Y-81032457D01*
X189018871Y-81097857D01*
X188924625Y-81206623D01*
X188924624Y-81206625D01*
X188864833Y-81337545D01*
X188844353Y-81479997D01*
X188844353Y-81480002D01*
X187408899Y-81480002D01*
X187421128Y-81472143D01*
X187515377Y-81363373D01*
X187575165Y-81232457D01*
X187575165Y-81232455D01*
X187575166Y-81232454D01*
X187595647Y-81090002D01*
X187595647Y-81089997D01*
X187575166Y-80947545D01*
X187570751Y-80937879D01*
X187515377Y-80816627D01*
X187421128Y-80707857D01*
X187300053Y-80630047D01*
X187300050Y-80630046D01*
X187161965Y-80589500D01*
X187161961Y-80589500D01*
X187018039Y-80589500D01*
X187018034Y-80589500D01*
X186879949Y-80630046D01*
X186758871Y-80707857D01*
X186664625Y-80816623D01*
X186664624Y-80816625D01*
X186604833Y-80947545D01*
X186584353Y-81089997D01*
X186584353Y-81090002D01*
X186475500Y-81090002D01*
X186475500Y-78590002D01*
X186584353Y-78590002D01*
X186604833Y-78732454D01*
X186636935Y-78802746D01*
X186664623Y-78863373D01*
X186664624Y-78863374D01*
X186664625Y-78863376D01*
X186758871Y-78972142D01*
X186758872Y-78972143D01*
X186879947Y-79049953D01*
X186948378Y-79070046D01*
X187018034Y-79090499D01*
X187018037Y-79090499D01*
X187018039Y-79090500D01*
X187018040Y-79090500D01*
X187161960Y-79090500D01*
X187161961Y-79090500D01*
X187161963Y-79090499D01*
X187161965Y-79090499D01*
X187197564Y-79080046D01*
X187300053Y-79049953D01*
X187421128Y-78972143D01*
X187515377Y-78863373D01*
X187575165Y-78732457D01*
X187575165Y-78732455D01*
X187575166Y-78732454D01*
X187595647Y-78590002D01*
X187595647Y-78589997D01*
X187575166Y-78447545D01*
X187548864Y-78389953D01*
X187515377Y-78316627D01*
X187421128Y-78207857D01*
X187300053Y-78130047D01*
X187300050Y-78130046D01*
X187161965Y-78089500D01*
X187161961Y-78089500D01*
X187018039Y-78089500D01*
X187018034Y-78089500D01*
X186879949Y-78130046D01*
X186879947Y-78130046D01*
X186879947Y-78130047D01*
X186875360Y-78132995D01*
X186758871Y-78207857D01*
X186664625Y-78316623D01*
X186664624Y-78316625D01*
X186604833Y-78447545D01*
X186584353Y-78589997D01*
X186584353Y-78590002D01*
X186475500Y-78590002D01*
X186475500Y-74944416D01*
X186489852Y-74909768D01*
X186524500Y-74895416D01*
X186559148Y-74909768D01*
X186990338Y-75340958D01*
X187057005Y-75385505D01*
X187057010Y-75385507D01*
X187091645Y-75399854D01*
X187091647Y-75399854D01*
X187091653Y-75399857D01*
X187170296Y-75415500D01*
X187694584Y-75415500D01*
X187729232Y-75429852D01*
X187850148Y-75550768D01*
X187864500Y-75585416D01*
X187864500Y-76959704D01*
X187874880Y-77011891D01*
X187880142Y-77038344D01*
X187880145Y-77038354D01*
X187894492Y-77072989D01*
X187894493Y-77072991D01*
X187894495Y-77072995D01*
X187939042Y-77139662D01*
X188190338Y-77390958D01*
X188257005Y-77435505D01*
X188257010Y-77435507D01*
X188291645Y-77449854D01*
X188291647Y-77449854D01*
X188291653Y-77449857D01*
X188370296Y-77465500D01*
X188370299Y-77465500D01*
X189419701Y-77465500D01*
X189419704Y-77465500D01*
X189498347Y-77449857D01*
X189532995Y-77435505D01*
X189599662Y-77390958D01*
X189860958Y-77129662D01*
X189905505Y-77062995D01*
X189919857Y-77028347D01*
X189935500Y-76949704D01*
X189935500Y-74870296D01*
X189919857Y-74791653D01*
X189919172Y-74790000D01*
X189905507Y-74757010D01*
X189905505Y-74757005D01*
X189860958Y-74690338D01*
X189299662Y-74129042D01*
X189232995Y-74084495D01*
X189232991Y-74084493D01*
X189232989Y-74084492D01*
X189198354Y-74070145D01*
X189198344Y-74070142D01*
X189166630Y-74063834D01*
X189119704Y-74054500D01*
X189119701Y-74054500D01*
X188155416Y-74054500D01*
X188120768Y-74040148D01*
X187939852Y-73859232D01*
X187925500Y-73824584D01*
X187925500Y-72166149D01*
X187939852Y-72131501D01*
X187974500Y-72117149D01*
X188009148Y-72131501D01*
X188013072Y-72135930D01*
X188047092Y-72179353D01*
X188759952Y-71466493D01*
X188831451Y-71564903D01*
X189015097Y-71748549D01*
X189113505Y-71820046D01*
X188400645Y-72532906D01*
X188400645Y-72532907D01*
X188581874Y-72674892D01*
X188581875Y-72674893D01*
X188856232Y-72840747D01*
X189148567Y-72972317D01*
X189148589Y-72972325D01*
X189454638Y-73067694D01*
X189454664Y-73067700D01*
X189769981Y-73125484D01*
X189769993Y-73125486D01*
X190090000Y-73144843D01*
X190410006Y-73125486D01*
X190410018Y-73125484D01*
X190725335Y-73067700D01*
X190725361Y-73067694D01*
X191031410Y-72972325D01*
X191031432Y-72972317D01*
X191323767Y-72840747D01*
X191598124Y-72674893D01*
X191598125Y-72674892D01*
X191779353Y-72532907D01*
X191779353Y-72532906D01*
X191066494Y-71820047D01*
X191164903Y-71748549D01*
X191348549Y-71564903D01*
X191420047Y-71466494D01*
X192132906Y-72179353D01*
X192132907Y-72179353D01*
X192274892Y-71998125D01*
X192274893Y-71998124D01*
X192299067Y-71958136D01*
X192329274Y-71935910D01*
X192366350Y-71941553D01*
X192388576Y-71971760D01*
X192390000Y-71983486D01*
X192390000Y-95996513D01*
X192375648Y-96031161D01*
X192341000Y-96045513D01*
X192306352Y-96031161D01*
X192299067Y-96021863D01*
X192274893Y-95981875D01*
X192274892Y-95981874D01*
X192132906Y-95800645D01*
X191420046Y-96513505D01*
X191348549Y-96415097D01*
X191164903Y-96231451D01*
X191066492Y-96159952D01*
X191779353Y-95447092D01*
X191779353Y-95447091D01*
X191598125Y-95305107D01*
X191598124Y-95305106D01*
X191323767Y-95139252D01*
X191031432Y-95007682D01*
X191031410Y-95007674D01*
X190725361Y-94912305D01*
X190725335Y-94912299D01*
X190410018Y-94854515D01*
X190410006Y-94854513D01*
X190090000Y-94835156D01*
X189769993Y-94854513D01*
X189769981Y-94854515D01*
X189454664Y-94912299D01*
X189454638Y-94912305D01*
X189148589Y-95007674D01*
X189148567Y-95007682D01*
X188856232Y-95139252D01*
X188581875Y-95305106D01*
X188581874Y-95305107D01*
X188400645Y-95447091D01*
X188400645Y-95447092D01*
X189113505Y-96159952D01*
X189015097Y-96231451D01*
X188831451Y-96415097D01*
X188759952Y-96513505D01*
X188047092Y-95800645D01*
X188047091Y-95800645D01*
X187905107Y-95981874D01*
X187905106Y-95981875D01*
X187739252Y-96256232D01*
X187607682Y-96548567D01*
X187607674Y-96548589D01*
X187512305Y-96854638D01*
X187512299Y-96854664D01*
X187454515Y-97169981D01*
X187454513Y-97169993D01*
X187435156Y-97490000D01*
X187454513Y-97810006D01*
X187454515Y-97810018D01*
X187512299Y-98125335D01*
X187512305Y-98125361D01*
X187607674Y-98431410D01*
X187607682Y-98431432D01*
X187739252Y-98723767D01*
X187905106Y-98998124D01*
X187905107Y-98998125D01*
X188047092Y-99179353D01*
X188759952Y-98466493D01*
X188831451Y-98564903D01*
X189015097Y-98748549D01*
X189113505Y-98820046D01*
X188400645Y-99532906D01*
X188400645Y-99532907D01*
X188581874Y-99674892D01*
X188581875Y-99674893D01*
X188856232Y-99840747D01*
X189148567Y-99972317D01*
X189148589Y-99972325D01*
X189454638Y-100067694D01*
X189454664Y-100067700D01*
X189769981Y-100125484D01*
X189769993Y-100125486D01*
X190090000Y-100144843D01*
X190410006Y-100125486D01*
X190410018Y-100125484D01*
X190725335Y-100067700D01*
X190725361Y-100067694D01*
X191031410Y-99972325D01*
X191031432Y-99972317D01*
X191323767Y-99840747D01*
X191598124Y-99674893D01*
X191598125Y-99674892D01*
X191779353Y-99532907D01*
X191779353Y-99532906D01*
X191066494Y-98820047D01*
X191164903Y-98748549D01*
X191348549Y-98564903D01*
X191420047Y-98466494D01*
X192132906Y-99179353D01*
X192132907Y-99179353D01*
X192274892Y-98998125D01*
X192274893Y-98998124D01*
X192299067Y-98958136D01*
X192329274Y-98935910D01*
X192366350Y-98941553D01*
X192388576Y-98971760D01*
X192390000Y-98983486D01*
X192390000Y-100241000D01*
X192375648Y-100275648D01*
X192341000Y-100290000D01*
X165839000Y-100290000D01*
X165804352Y-100275648D01*
X165790000Y-100241000D01*
X165790000Y-98983486D01*
X165804352Y-98948838D01*
X165839000Y-98934486D01*
X165873648Y-98948838D01*
X165880933Y-98958136D01*
X165905106Y-98998124D01*
X165905107Y-98998125D01*
X166047092Y-99179353D01*
X166759952Y-98466493D01*
X166831451Y-98564903D01*
X167015097Y-98748549D01*
X167113505Y-98820046D01*
X166400645Y-99532906D01*
X166400645Y-99532907D01*
X166581874Y-99674892D01*
X166581875Y-99674893D01*
X166856232Y-99840747D01*
X167148567Y-99972317D01*
X167148589Y-99972325D01*
X167454638Y-100067694D01*
X167454664Y-100067700D01*
X167769981Y-100125484D01*
X167769993Y-100125486D01*
X168090000Y-100144843D01*
X168410006Y-100125486D01*
X168410018Y-100125484D01*
X168725335Y-100067700D01*
X168725361Y-100067694D01*
X169031410Y-99972325D01*
X169031432Y-99972317D01*
X169323767Y-99840747D01*
X169598124Y-99674893D01*
X169598125Y-99674892D01*
X169779353Y-99532907D01*
X169779353Y-99532906D01*
X169066494Y-98820047D01*
X169164903Y-98748549D01*
X169348549Y-98564903D01*
X169420047Y-98466494D01*
X170132906Y-99179353D01*
X170132907Y-99179353D01*
X170274892Y-98998125D01*
X170274893Y-98998124D01*
X170298092Y-98959748D01*
X182889500Y-98959748D01*
X182901133Y-99018231D01*
X182901724Y-99019115D01*
X182945447Y-99084552D01*
X182967626Y-99099371D01*
X183011769Y-99128867D01*
X183070252Y-99140500D01*
X183070255Y-99140500D01*
X183959745Y-99140500D01*
X183959748Y-99140500D01*
X184018231Y-99128867D01*
X184018233Y-99128865D01*
X184022690Y-99127020D01*
X184023248Y-99128367D01*
X184053945Y-99122252D01*
X184080813Y-99137525D01*
X184142642Y-99206192D01*
X184299952Y-99320485D01*
X184477588Y-99399573D01*
X184477586Y-99399573D01*
X184514999Y-99407524D01*
X184515000Y-99407524D01*
X184515000Y-98681988D01*
X184524940Y-98699205D01*
X184580795Y-98755060D01*
X184649204Y-98794556D01*
X184725504Y-98815000D01*
X184804496Y-98815000D01*
X184880796Y-98794556D01*
X184931988Y-98765000D01*
X185015000Y-98765000D01*
X185015000Y-99407524D01*
X185052412Y-99399573D01*
X185230047Y-99320485D01*
X185387360Y-99206190D01*
X185517459Y-99061699D01*
X185517465Y-99061691D01*
X185614681Y-98893307D01*
X185614683Y-98893304D01*
X185656372Y-98765000D01*
X185015000Y-98765000D01*
X184931988Y-98765000D01*
X184949205Y-98755060D01*
X185005060Y-98699205D01*
X185044556Y-98630796D01*
X185065000Y-98554496D01*
X185065000Y-98475504D01*
X185044556Y-98399204D01*
X185005060Y-98330795D01*
X184949205Y-98274940D01*
X184880796Y-98235444D01*
X184804496Y-98215000D01*
X184725504Y-98215000D01*
X184649204Y-98235444D01*
X184580795Y-98274940D01*
X184524940Y-98330795D01*
X184515000Y-98348011D01*
X184515000Y-97622473D01*
X185015000Y-97622473D01*
X185015000Y-98265000D01*
X185656371Y-98265000D01*
X185614683Y-98136695D01*
X185614681Y-98136692D01*
X185517465Y-97968308D01*
X185517459Y-97968300D01*
X185387360Y-97823809D01*
X185230047Y-97709514D01*
X185052417Y-97630428D01*
X185052407Y-97630425D01*
X185015000Y-97622473D01*
X184515000Y-97622473D01*
X184514999Y-97622473D01*
X184477592Y-97630425D01*
X184477582Y-97630428D01*
X184299953Y-97709514D01*
X184142642Y-97823807D01*
X184080813Y-97892474D01*
X184046963Y-97908619D01*
X184023072Y-97902050D01*
X184022688Y-97902979D01*
X184018234Y-97901134D01*
X184018231Y-97901133D01*
X183959748Y-97889500D01*
X183070252Y-97889500D01*
X183011769Y-97901133D01*
X182945447Y-97945447D01*
X182901133Y-98011769D01*
X182889500Y-98070252D01*
X182889500Y-98959748D01*
X170298092Y-98959748D01*
X170440747Y-98723767D01*
X170572317Y-98431432D01*
X170572325Y-98431410D01*
X170667694Y-98125361D01*
X170667700Y-98125335D01*
X170725484Y-97810018D01*
X170725486Y-97810006D01*
X170744843Y-97490000D01*
X170725486Y-97169993D01*
X170725484Y-97169981D01*
X170667700Y-96854664D01*
X170667694Y-96854638D01*
X170572325Y-96548589D01*
X170572317Y-96548567D01*
X170440747Y-96256232D01*
X170274893Y-95981875D01*
X170274892Y-95981874D01*
X170132906Y-95800645D01*
X169420046Y-96513505D01*
X169348549Y-96415097D01*
X169164903Y-96231451D01*
X169066492Y-96159952D01*
X169779353Y-95447092D01*
X169779353Y-95447091D01*
X169598125Y-95305107D01*
X169598124Y-95305106D01*
X169323767Y-95139252D01*
X169031432Y-95007682D01*
X169031410Y-95007674D01*
X168725361Y-94912305D01*
X168725340Y-94912300D01*
X168679824Y-94903958D01*
X168648331Y-94883595D01*
X168640461Y-94846927D01*
X168651625Y-94823674D01*
X168680804Y-94790000D01*
X176785065Y-94790000D01*
X176804783Y-95090848D01*
X176863602Y-95386555D01*
X176960518Y-95672060D01*
X177093868Y-95942468D01*
X177261371Y-96193156D01*
X177294973Y-96231470D01*
X177294974Y-96231471D01*
X178046320Y-95480125D01*
X178136554Y-95604320D01*
X178275680Y-95743446D01*
X178399873Y-95833678D01*
X177648527Y-96585024D01*
X177648528Y-96585025D01*
X177686844Y-96618628D01*
X177686843Y-96618628D01*
X177937531Y-96786131D01*
X178207939Y-96919481D01*
X178493444Y-97016397D01*
X178789151Y-97075216D01*
X179089999Y-97094935D01*
X179090001Y-97094935D01*
X179390848Y-97075216D01*
X179686555Y-97016397D01*
X179972060Y-96919481D01*
X180242468Y-96786131D01*
X180493155Y-96618628D01*
X180531470Y-96585025D01*
X180531471Y-96585024D01*
X179780126Y-95833679D01*
X179904320Y-95743446D01*
X180043446Y-95604320D01*
X180133679Y-95480126D01*
X180885024Y-96231471D01*
X180885025Y-96231470D01*
X180918628Y-96193155D01*
X181086131Y-95942468D01*
X181219481Y-95672060D01*
X181316397Y-95386555D01*
X181375216Y-95090848D01*
X181394935Y-94790000D01*
X181394935Y-94789999D01*
X181375216Y-94489151D01*
X181316397Y-94193444D01*
X181219482Y-93907941D01*
X181086131Y-93637532D01*
X180918628Y-93386843D01*
X180885025Y-93348528D01*
X180885024Y-93348527D01*
X180133678Y-94099873D01*
X180043446Y-93975680D01*
X179904320Y-93836554D01*
X179780124Y-93746320D01*
X180531471Y-92994974D01*
X180531470Y-92994973D01*
X180493155Y-92961371D01*
X180493156Y-92961371D01*
X180242468Y-92793868D01*
X179972060Y-92660518D01*
X179686555Y-92563602D01*
X179390848Y-92504783D01*
X179090001Y-92485065D01*
X179089999Y-92485065D01*
X178789151Y-92504783D01*
X178493444Y-92563602D01*
X178207941Y-92660517D01*
X177937532Y-92793868D01*
X177686843Y-92961371D01*
X177648528Y-92994973D01*
X177648527Y-92994974D01*
X178399873Y-93746320D01*
X178275680Y-93836554D01*
X178136554Y-93975680D01*
X178046320Y-94099873D01*
X177294974Y-93348527D01*
X177294973Y-93348528D01*
X177261371Y-93386843D01*
X177093868Y-93637532D01*
X176960517Y-93907941D01*
X176863602Y-94193444D01*
X176804783Y-94489151D01*
X176785065Y-94789999D01*
X176785065Y-94790000D01*
X168680804Y-94790000D01*
X168703877Y-94763373D01*
X168763665Y-94632457D01*
X168763665Y-94632455D01*
X168763666Y-94632454D01*
X168784147Y-94490002D01*
X168784147Y-94489997D01*
X168763666Y-94347545D01*
X168746596Y-94310167D01*
X168703877Y-94216627D01*
X168633023Y-94134857D01*
X168609628Y-94107857D01*
X168488553Y-94030047D01*
X168488550Y-94030046D01*
X168350465Y-93989500D01*
X168350461Y-93989500D01*
X168206539Y-93989500D01*
X168206534Y-93989500D01*
X168068449Y-94030046D01*
X167947366Y-94107860D01*
X167947084Y-94108105D01*
X167946880Y-94108172D01*
X167944423Y-94109752D01*
X167944019Y-94109124D01*
X167911499Y-94119945D01*
X167885853Y-94109321D01*
X167885577Y-94109752D01*
X167883192Y-94108219D01*
X167882916Y-94108105D01*
X167882633Y-94107860D01*
X167860003Y-94093317D01*
X167761553Y-94030047D01*
X167761550Y-94030046D01*
X167623465Y-93989500D01*
X167623461Y-93989500D01*
X167479539Y-93989500D01*
X167479534Y-93989500D01*
X167341449Y-94030046D01*
X167220371Y-94107857D01*
X167126125Y-94216623D01*
X167126124Y-94216625D01*
X167066333Y-94347545D01*
X167045853Y-94489997D01*
X167045853Y-94490002D01*
X167066333Y-94632454D01*
X167098435Y-94702746D01*
X167126123Y-94763373D01*
X167126124Y-94763374D01*
X167126125Y-94763376D01*
X167220372Y-94872144D01*
X167220374Y-94872146D01*
X167250627Y-94891588D01*
X167272016Y-94922393D01*
X167265357Y-94959300D01*
X167238714Y-94979590D01*
X167148590Y-95007674D01*
X167148567Y-95007682D01*
X166856232Y-95139252D01*
X166581875Y-95305106D01*
X166581874Y-95305107D01*
X166400645Y-95447091D01*
X166400645Y-95447092D01*
X167113505Y-96159952D01*
X167015097Y-96231451D01*
X166831451Y-96415097D01*
X166759953Y-96513505D01*
X166047092Y-95800645D01*
X166047091Y-95800645D01*
X165905107Y-95981874D01*
X165905106Y-95981875D01*
X165880933Y-96021863D01*
X165850726Y-96044089D01*
X165813650Y-96038446D01*
X165791424Y-96008239D01*
X165790000Y-95996513D01*
X165790000Y-92743879D01*
X169947315Y-92743879D01*
X169967795Y-92886331D01*
X169968709Y-92888332D01*
X170027585Y-93017250D01*
X170027586Y-93017251D01*
X170027587Y-93017253D01*
X170090327Y-93089659D01*
X170121834Y-93126020D01*
X170242909Y-93203830D01*
X170319747Y-93226391D01*
X170380996Y-93244376D01*
X170380999Y-93244376D01*
X170381001Y-93244377D01*
X170381002Y-93244377D01*
X170524922Y-93244377D01*
X170524923Y-93244377D01*
X170524925Y-93244376D01*
X170524927Y-93244376D01*
X170547757Y-93237672D01*
X170663015Y-93203830D01*
X170780987Y-93128014D01*
X170787039Y-93124125D01*
X170787771Y-93125264D01*
X170818782Y-93114928D01*
X170845872Y-93126141D01*
X170845885Y-93126123D01*
X170845989Y-93126189D01*
X170847393Y-93126771D01*
X170848828Y-93128014D01*
X170848833Y-93128017D01*
X170848834Y-93128018D01*
X170969909Y-93205828D01*
X171046747Y-93228389D01*
X171107996Y-93246374D01*
X171107999Y-93246374D01*
X171108001Y-93246375D01*
X171108002Y-93246375D01*
X171251922Y-93246375D01*
X171251923Y-93246375D01*
X171251925Y-93246374D01*
X171251927Y-93246374D01*
X171274757Y-93239670D01*
X171390015Y-93205828D01*
X171511090Y-93128018D01*
X171605339Y-93019248D01*
X171665127Y-92888332D01*
X171665127Y-92888330D01*
X171665128Y-92888329D01*
X171685609Y-92745877D01*
X171685609Y-92745872D01*
X171665128Y-92603420D01*
X171620081Y-92504783D01*
X171605339Y-92472502D01*
X171603604Y-92470500D01*
X171601873Y-92468502D01*
X187184353Y-92468502D01*
X187204833Y-92610954D01*
X187227469Y-92660518D01*
X187264623Y-92741873D01*
X187264624Y-92741874D01*
X187264625Y-92741876D01*
X187358871Y-92850642D01*
X187358872Y-92850643D01*
X187479947Y-92928453D01*
X187556785Y-92951014D01*
X187618034Y-92968999D01*
X187618037Y-92968999D01*
X187618039Y-92969000D01*
X187618040Y-92969000D01*
X187761960Y-92969000D01*
X187761961Y-92969000D01*
X187761963Y-92968999D01*
X187761965Y-92968999D01*
X187787943Y-92961371D01*
X187900053Y-92928453D01*
X188021128Y-92850643D01*
X188115377Y-92741873D01*
X188175165Y-92610957D01*
X188175165Y-92610955D01*
X188175166Y-92610954D01*
X188195647Y-92468502D01*
X188195647Y-92468497D01*
X188175166Y-92326045D01*
X188156842Y-92285922D01*
X188115377Y-92195127D01*
X188065085Y-92137087D01*
X188053243Y-92101505D01*
X188065086Y-92072912D01*
X188115374Y-92014876D01*
X188115377Y-92014873D01*
X188175165Y-91883957D01*
X188175165Y-91883955D01*
X188175166Y-91883954D01*
X188195647Y-91741502D01*
X188195647Y-91741497D01*
X188175166Y-91599045D01*
X188170751Y-91589379D01*
X188115377Y-91468127D01*
X188048112Y-91390499D01*
X188021128Y-91359357D01*
X188006495Y-91349953D01*
X187900053Y-91281547D01*
X187900050Y-91281546D01*
X187761965Y-91241000D01*
X187761961Y-91241000D01*
X187618039Y-91241000D01*
X187618034Y-91241000D01*
X187479949Y-91281546D01*
X187358871Y-91359357D01*
X187264625Y-91468123D01*
X187264624Y-91468125D01*
X187204833Y-91599045D01*
X187184353Y-91741497D01*
X187184353Y-91741502D01*
X187204833Y-91883954D01*
X187264623Y-92014873D01*
X187314913Y-92072912D01*
X187326756Y-92108496D01*
X187314912Y-92137088D01*
X187264627Y-92195123D01*
X187264624Y-92195126D01*
X187264623Y-92195126D01*
X187204833Y-92326045D01*
X187184353Y-92468497D01*
X187184353Y-92468502D01*
X171601873Y-92468502D01*
X171511090Y-92363732D01*
X171507981Y-92361734D01*
X171390015Y-92285922D01*
X171390012Y-92285921D01*
X171251927Y-92245375D01*
X171251923Y-92245375D01*
X171108001Y-92245375D01*
X171107996Y-92245375D01*
X170969908Y-92285922D01*
X170845886Y-92365626D01*
X170845158Y-92364493D01*
X170814113Y-92374822D01*
X170787051Y-92363609D01*
X170787039Y-92363629D01*
X170786930Y-92363559D01*
X170785525Y-92362977D01*
X170784091Y-92361734D01*
X170728557Y-92326045D01*
X170663015Y-92283924D01*
X170663012Y-92283923D01*
X170524927Y-92243377D01*
X170524923Y-92243377D01*
X170381001Y-92243377D01*
X170380996Y-92243377D01*
X170242911Y-92283923D01*
X170121833Y-92361734D01*
X170027587Y-92470500D01*
X170027586Y-92470502D01*
X170027585Y-92470503D01*
X170027585Y-92470504D01*
X170026673Y-92472502D01*
X169967795Y-92601422D01*
X169947315Y-92743874D01*
X169947315Y-92743879D01*
X165790000Y-92743879D01*
X165790000Y-90890002D01*
X172557350Y-90890002D01*
X172577830Y-91032454D01*
X172609932Y-91102746D01*
X172637620Y-91163373D01*
X172637621Y-91163374D01*
X172637622Y-91163376D01*
X172731663Y-91271905D01*
X172731869Y-91272143D01*
X172852944Y-91349953D01*
X172929782Y-91372514D01*
X172991031Y-91390499D01*
X172991034Y-91390499D01*
X172991036Y-91390500D01*
X172991037Y-91390500D01*
X173134957Y-91390500D01*
X173134958Y-91390500D01*
X173134960Y-91390499D01*
X173134962Y-91390499D01*
X173157792Y-91383795D01*
X173273050Y-91349953D01*
X173394125Y-91272143D01*
X173394130Y-91272136D01*
X173394399Y-91271905D01*
X173394599Y-91271838D01*
X173397074Y-91270248D01*
X173397479Y-91270878D01*
X173429979Y-91260051D01*
X173455645Y-91270679D01*
X173455923Y-91270248D01*
X173458312Y-91271783D01*
X173458591Y-91271899D01*
X173458869Y-91272140D01*
X173458872Y-91272143D01*
X173579947Y-91349953D01*
X173656785Y-91372514D01*
X173718034Y-91390499D01*
X173718037Y-91390499D01*
X173718039Y-91390500D01*
X173718040Y-91390500D01*
X173861960Y-91390500D01*
X173861961Y-91390500D01*
X173861963Y-91390499D01*
X173861965Y-91390499D01*
X173884795Y-91383795D01*
X174000053Y-91349953D01*
X174121128Y-91272143D01*
X174215377Y-91163373D01*
X174275165Y-91032457D01*
X174275165Y-91032455D01*
X174275166Y-91032454D01*
X174295647Y-90890002D01*
X174295647Y-90889997D01*
X174275166Y-90747545D01*
X174270751Y-90737879D01*
X174215377Y-90616627D01*
X174121128Y-90507857D01*
X174000053Y-90430047D01*
X174000050Y-90430046D01*
X173861965Y-90389500D01*
X173861961Y-90389500D01*
X173718039Y-90389500D01*
X173718034Y-90389500D01*
X173579949Y-90430046D01*
X173458866Y-90507860D01*
X173458577Y-90508111D01*
X173458368Y-90508180D01*
X173455923Y-90509752D01*
X173455521Y-90509127D01*
X173422990Y-90519945D01*
X173397349Y-90509322D01*
X173397074Y-90509752D01*
X173394693Y-90508222D01*
X173394413Y-90508106D01*
X173394126Y-90507857D01*
X173344583Y-90476018D01*
X173273050Y-90430047D01*
X173273047Y-90430046D01*
X173134962Y-90389500D01*
X173134958Y-90389500D01*
X172991036Y-90389500D01*
X172991031Y-90389500D01*
X172852946Y-90430046D01*
X172731868Y-90507857D01*
X172637622Y-90616623D01*
X172637621Y-90616625D01*
X172577830Y-90747545D01*
X172557350Y-90889997D01*
X172557350Y-90890002D01*
X165790000Y-90890002D01*
X165790000Y-89590002D01*
X180174353Y-89590002D01*
X180194833Y-89732454D01*
X180226935Y-89802746D01*
X180254623Y-89863373D01*
X180254624Y-89863374D01*
X180254625Y-89863376D01*
X180348871Y-89972142D01*
X180348872Y-89972143D01*
X180469947Y-90049953D01*
X180546785Y-90072514D01*
X180608034Y-90090499D01*
X180608037Y-90090499D01*
X180608039Y-90090500D01*
X180608040Y-90090500D01*
X180751960Y-90090500D01*
X180751961Y-90090500D01*
X180751963Y-90090499D01*
X180751965Y-90090499D01*
X180774795Y-90083795D01*
X180890053Y-90049953D01*
X181011128Y-89972143D01*
X181105377Y-89863373D01*
X181140428Y-89786621D01*
X181167877Y-89761067D01*
X181205356Y-89762406D01*
X181229571Y-89786621D01*
X181264623Y-89863373D01*
X181264624Y-89863374D01*
X181264625Y-89863376D01*
X181358871Y-89972142D01*
X181358872Y-89972143D01*
X181479947Y-90049953D01*
X181556785Y-90072514D01*
X181618034Y-90090499D01*
X181618037Y-90090499D01*
X181618039Y-90090500D01*
X181618040Y-90090500D01*
X181761960Y-90090500D01*
X181761961Y-90090500D01*
X181761963Y-90090499D01*
X181761965Y-90090499D01*
X181784795Y-90083795D01*
X181900053Y-90049953D01*
X182021128Y-89972143D01*
X182115377Y-89863373D01*
X182175165Y-89732457D01*
X182175165Y-89732455D01*
X182175166Y-89732454D01*
X182195647Y-89590002D01*
X182195647Y-89589997D01*
X182175166Y-89447545D01*
X182170751Y-89437879D01*
X182115377Y-89316627D01*
X182021128Y-89207857D01*
X181900053Y-89130047D01*
X181900050Y-89130046D01*
X181761965Y-89089500D01*
X181761961Y-89089500D01*
X181618039Y-89089500D01*
X181618034Y-89089500D01*
X181479949Y-89130046D01*
X181358871Y-89207857D01*
X181264625Y-89316623D01*
X181264624Y-89316625D01*
X181229572Y-89393377D01*
X181202123Y-89418932D01*
X181164644Y-89417593D01*
X181140428Y-89393377D01*
X181138624Y-89389428D01*
X181105377Y-89316627D01*
X181011128Y-89207857D01*
X180890053Y-89130047D01*
X180890050Y-89130046D01*
X180751965Y-89089500D01*
X180751961Y-89089500D01*
X180608039Y-89089500D01*
X180608034Y-89089500D01*
X180469949Y-89130046D01*
X180348871Y-89207857D01*
X180254625Y-89316623D01*
X180254624Y-89316625D01*
X180194833Y-89447545D01*
X180174353Y-89589997D01*
X180174353Y-89590002D01*
X165790000Y-89590002D01*
X165790000Y-88718502D01*
X187684353Y-88718502D01*
X187704833Y-88860954D01*
X187736935Y-88931246D01*
X187764623Y-88991873D01*
X187764624Y-88991874D01*
X187764625Y-88991876D01*
X187858871Y-89100642D01*
X187858872Y-89100643D01*
X187979947Y-89178453D01*
X188056785Y-89201014D01*
X188118034Y-89218999D01*
X188118037Y-89218999D01*
X188118039Y-89219000D01*
X188118040Y-89219000D01*
X188261960Y-89219000D01*
X188261961Y-89219000D01*
X188261963Y-89218999D01*
X188261965Y-89218999D01*
X188299911Y-89207857D01*
X188400053Y-89178453D01*
X188521128Y-89100643D01*
X188615377Y-88991873D01*
X188675165Y-88860957D01*
X188675165Y-88860955D01*
X188675166Y-88860954D01*
X188695647Y-88718502D01*
X188695647Y-88718497D01*
X188675166Y-88576045D01*
X188670751Y-88566379D01*
X188615377Y-88445127D01*
X188565085Y-88387087D01*
X188553243Y-88351505D01*
X188565086Y-88322912D01*
X188615374Y-88264876D01*
X188615377Y-88264873D01*
X188675165Y-88133957D01*
X188675165Y-88133955D01*
X188675166Y-88133954D01*
X188695647Y-87991502D01*
X188695647Y-87991497D01*
X188675166Y-87849045D01*
X188670751Y-87839379D01*
X188615377Y-87718127D01*
X188521128Y-87609357D01*
X188400053Y-87531547D01*
X188400050Y-87531546D01*
X188261965Y-87491000D01*
X188261961Y-87491000D01*
X188118039Y-87491000D01*
X188118034Y-87491000D01*
X187979949Y-87531546D01*
X187858871Y-87609357D01*
X187764625Y-87718123D01*
X187764624Y-87718125D01*
X187704833Y-87849045D01*
X187684353Y-87991497D01*
X187684353Y-87991502D01*
X187704833Y-88133954D01*
X187764623Y-88264873D01*
X187814913Y-88322912D01*
X187826756Y-88358496D01*
X187814912Y-88387088D01*
X187764627Y-88445123D01*
X187764624Y-88445126D01*
X187764623Y-88445126D01*
X187704833Y-88576045D01*
X187684353Y-88718497D01*
X187684353Y-88718502D01*
X165790000Y-88718502D01*
X165790000Y-85662602D01*
X172545853Y-85662602D01*
X172566333Y-85805054D01*
X172567855Y-85808386D01*
X172626123Y-85935973D01*
X172626124Y-85935974D01*
X172626125Y-85935976D01*
X172720161Y-86044500D01*
X172720372Y-86044743D01*
X172841447Y-86122553D01*
X172918285Y-86145114D01*
X172979534Y-86163099D01*
X172979537Y-86163099D01*
X172979539Y-86163100D01*
X172979540Y-86163100D01*
X173123460Y-86163100D01*
X173123461Y-86163100D01*
X173123463Y-86163099D01*
X173123465Y-86163099D01*
X173146295Y-86156395D01*
X173261553Y-86122553D01*
X173382628Y-86044743D01*
X173382629Y-86044742D01*
X173382909Y-86044500D01*
X173383111Y-86044432D01*
X173385577Y-86042848D01*
X173385981Y-86043477D01*
X173418492Y-86032654D01*
X173444145Y-86043279D01*
X173444423Y-86042848D01*
X173446816Y-86044386D01*
X173447091Y-86044500D01*
X173447370Y-86044742D01*
X173447372Y-86044743D01*
X173568447Y-86122553D01*
X173645285Y-86145114D01*
X173706534Y-86163099D01*
X173706537Y-86163099D01*
X173706539Y-86163100D01*
X173706540Y-86163100D01*
X173850460Y-86163100D01*
X173850461Y-86163100D01*
X173850463Y-86163099D01*
X173850465Y-86163099D01*
X173873295Y-86156395D01*
X173988553Y-86122553D01*
X174109628Y-86044743D01*
X174191723Y-85950000D01*
X176855318Y-85950000D01*
X176873995Y-86127698D01*
X176929209Y-86297630D01*
X176929211Y-86297633D01*
X176958346Y-86348098D01*
X176958347Y-86348099D01*
X177498059Y-85808387D01*
X177460000Y-85900272D01*
X177460000Y-85999728D01*
X177498060Y-86091614D01*
X177568386Y-86161940D01*
X177660272Y-86200000D01*
X177759728Y-86200000D01*
X177851611Y-86161940D01*
X177710000Y-86303553D01*
X177310833Y-86702718D01*
X177310833Y-86702719D01*
X177445886Y-86762849D01*
X177445895Y-86762852D01*
X177620661Y-86800000D01*
X177799339Y-86800000D01*
X177974104Y-86762852D01*
X177974113Y-86762849D01*
X178135070Y-86691186D01*
X178172560Y-86690204D01*
X178174930Y-86691186D01*
X178335886Y-86762849D01*
X178335895Y-86762852D01*
X178510661Y-86800000D01*
X178689339Y-86800000D01*
X178864104Y-86762852D01*
X178864113Y-86762849D01*
X178999165Y-86702719D01*
X179180833Y-86702719D01*
X179315886Y-86762849D01*
X179315895Y-86762852D01*
X179490661Y-86800000D01*
X179669339Y-86800000D01*
X179844104Y-86762852D01*
X179844113Y-86762849D01*
X180005070Y-86691186D01*
X180042560Y-86690204D01*
X180044930Y-86691186D01*
X180205886Y-86762849D01*
X180205895Y-86762852D01*
X180380661Y-86800000D01*
X180559339Y-86800000D01*
X180734104Y-86762852D01*
X180734113Y-86762849D01*
X180869165Y-86702719D01*
X180869165Y-86702718D01*
X180328387Y-86161940D01*
X180420272Y-86200000D01*
X180519728Y-86200000D01*
X180611614Y-86161940D01*
X180681940Y-86091614D01*
X180720000Y-85999728D01*
X180720000Y-85900272D01*
X180681940Y-85808388D01*
X181221651Y-86348099D01*
X181221652Y-86348098D01*
X181250788Y-86297633D01*
X181250790Y-86297630D01*
X181306004Y-86127698D01*
X181324681Y-85950000D01*
X181306004Y-85772301D01*
X181250790Y-85602370D01*
X181246247Y-85594501D01*
X181241351Y-85557319D01*
X181246247Y-85545499D01*
X181250790Y-85537629D01*
X181306004Y-85367698D01*
X181324681Y-85190000D01*
X181306004Y-85012301D01*
X181250790Y-84842369D01*
X181250788Y-84842366D01*
X181234700Y-84814500D01*
X181229805Y-84777318D01*
X181234700Y-84765500D01*
X181250788Y-84737633D01*
X181250790Y-84737630D01*
X181306004Y-84567698D01*
X181324681Y-84390000D01*
X181306004Y-84212301D01*
X181250790Y-84042370D01*
X181246247Y-84034501D01*
X181241351Y-83997319D01*
X181246247Y-83985499D01*
X181250790Y-83977629D01*
X181306004Y-83807698D01*
X181324681Y-83630000D01*
X181306004Y-83452301D01*
X181250790Y-83282369D01*
X181250788Y-83282366D01*
X181221652Y-83231900D01*
X181221651Y-83231899D01*
X180681941Y-83771610D01*
X180720000Y-83679728D01*
X180720000Y-83580272D01*
X180681940Y-83488386D01*
X180611614Y-83418060D01*
X180519728Y-83380000D01*
X180420272Y-83380000D01*
X180328386Y-83418060D01*
X180258060Y-83488386D01*
X180220000Y-83580272D01*
X180220000Y-83679728D01*
X180258060Y-83771614D01*
X180328386Y-83841940D01*
X180420272Y-83880000D01*
X180519728Y-83880000D01*
X180611611Y-83841941D01*
X180470000Y-83983553D01*
X180443553Y-84010000D01*
X180611612Y-84178059D01*
X180519728Y-84140000D01*
X180420272Y-84140000D01*
X180328386Y-84178060D01*
X180258060Y-84248386D01*
X180220000Y-84340272D01*
X180220000Y-84439728D01*
X180258060Y-84531614D01*
X180328386Y-84601940D01*
X180420272Y-84640000D01*
X180519728Y-84640000D01*
X180611612Y-84601940D01*
X180423553Y-84790000D01*
X180611612Y-84978059D01*
X180519728Y-84940000D01*
X180420272Y-84940000D01*
X180328386Y-84978060D01*
X180258060Y-85048386D01*
X180220000Y-85140272D01*
X180220000Y-85239728D01*
X180258060Y-85331614D01*
X180328386Y-85401940D01*
X180420272Y-85440000D01*
X180519728Y-85440000D01*
X180611612Y-85401940D01*
X180443553Y-85570000D01*
X180470000Y-85596447D01*
X180611611Y-85738059D01*
X180519728Y-85700000D01*
X180420272Y-85700000D01*
X180328386Y-85738060D01*
X180258060Y-85808386D01*
X180220000Y-85900272D01*
X180220000Y-85999728D01*
X180258059Y-86091612D01*
X180099669Y-85933222D01*
X180099668Y-85933222D01*
X180059647Y-85973243D01*
X180024999Y-85987595D01*
X179990351Y-85973243D01*
X179990350Y-85973243D01*
X179950330Y-85933222D01*
X179791941Y-86091611D01*
X179830000Y-85999728D01*
X179830000Y-85900272D01*
X179791940Y-85808386D01*
X179721614Y-85738060D01*
X179629728Y-85700000D01*
X179530272Y-85700000D01*
X179438386Y-85738060D01*
X179368060Y-85808386D01*
X179330000Y-85900272D01*
X179330000Y-85999728D01*
X179368060Y-86091614D01*
X179438386Y-86161940D01*
X179530272Y-86200000D01*
X179629728Y-86200000D01*
X179721611Y-86161940D01*
X179580000Y-86303553D01*
X179180833Y-86702718D01*
X179180833Y-86702719D01*
X178999165Y-86702719D01*
X178999165Y-86702718D01*
X178458387Y-86161940D01*
X178550272Y-86200000D01*
X178649728Y-86200000D01*
X178741614Y-86161940D01*
X178811940Y-86091614D01*
X178850000Y-85999728D01*
X178850000Y-85950000D01*
X178953553Y-85950000D01*
X179090000Y-86086447D01*
X179226447Y-85950000D01*
X179200000Y-85923553D01*
X179159978Y-85963575D01*
X179125330Y-85977926D01*
X179090681Y-85963574D01*
X179090681Y-85963573D01*
X179090000Y-85962892D01*
X179089999Y-85962892D01*
X179089317Y-85963574D01*
X179054669Y-85977926D01*
X179020021Y-85963574D01*
X178980000Y-85923553D01*
X178953553Y-85950000D01*
X178850000Y-85950000D01*
X178850000Y-85900272D01*
X178811940Y-85808386D01*
X178741614Y-85738060D01*
X178649728Y-85700000D01*
X178550272Y-85700000D01*
X178458386Y-85738060D01*
X178388060Y-85808386D01*
X178350000Y-85900272D01*
X178350000Y-85999728D01*
X178388059Y-86091612D01*
X178229669Y-85933222D01*
X178229668Y-85933222D01*
X178189647Y-85973243D01*
X178154999Y-85987595D01*
X178120351Y-85973243D01*
X178120350Y-85973243D01*
X178080330Y-85933222D01*
X177921941Y-86091611D01*
X177960000Y-85999728D01*
X177960000Y-85900272D01*
X177921940Y-85808386D01*
X177851614Y-85738060D01*
X177759728Y-85700000D01*
X177660272Y-85700000D01*
X177568387Y-85738059D01*
X177736447Y-85570000D01*
X178573553Y-85570000D01*
X178600000Y-85596447D01*
X178626447Y-85570000D01*
X179553553Y-85570000D01*
X179580000Y-85596447D01*
X179606447Y-85570000D01*
X179580000Y-85543553D01*
X179553553Y-85570000D01*
X178626447Y-85570000D01*
X178600000Y-85543553D01*
X178573553Y-85570000D01*
X177736447Y-85570000D01*
X177568387Y-85401940D01*
X177660272Y-85440000D01*
X177759728Y-85440000D01*
X177851614Y-85401940D01*
X177921940Y-85331614D01*
X177960000Y-85239728D01*
X178350000Y-85239728D01*
X178388060Y-85331614D01*
X178458386Y-85401940D01*
X178550272Y-85440000D01*
X178649728Y-85440000D01*
X178741614Y-85401940D01*
X178811940Y-85331614D01*
X178850000Y-85239728D01*
X179330000Y-85239728D01*
X179368060Y-85331614D01*
X179438386Y-85401940D01*
X179530272Y-85440000D01*
X179629728Y-85440000D01*
X179721614Y-85401940D01*
X179791940Y-85331614D01*
X179830000Y-85239728D01*
X179830000Y-85190000D01*
X179933553Y-85190000D01*
X179950330Y-85206776D01*
X179987107Y-85169999D01*
X180062890Y-85169999D01*
X180099668Y-85206777D01*
X180116446Y-85189999D01*
X180079669Y-85153222D01*
X180079668Y-85153222D01*
X180062890Y-85169999D01*
X179987107Y-85169999D01*
X179970330Y-85153222D01*
X179933553Y-85190000D01*
X179830000Y-85190000D01*
X179830000Y-85140272D01*
X179791940Y-85048386D01*
X179721614Y-84978060D01*
X179629728Y-84940000D01*
X179530272Y-84940000D01*
X179438386Y-84978060D01*
X179368060Y-85048386D01*
X179330000Y-85140272D01*
X179330000Y-85239728D01*
X178850000Y-85239728D01*
X178850000Y-85190000D01*
X178953553Y-85190000D01*
X178979999Y-85216446D01*
X179020020Y-85176425D01*
X179035532Y-85169999D01*
X179035530Y-85169998D01*
X179073806Y-85169998D01*
X179089315Y-85176422D01*
X179090000Y-85177106D01*
X179090682Y-85176425D01*
X179106193Y-85169999D01*
X179144466Y-85169999D01*
X179159978Y-85176425D01*
X179200000Y-85216447D01*
X179226447Y-85190000D01*
X179180000Y-85143553D01*
X179159978Y-85163575D01*
X179144466Y-85169999D01*
X179106193Y-85169999D01*
X179090681Y-85163574D01*
X179090679Y-85163572D01*
X179089999Y-85162891D01*
X179089317Y-85163574D01*
X179073806Y-85169998D01*
X179035530Y-85169998D01*
X179020021Y-85163574D01*
X179000000Y-85143553D01*
X178953553Y-85190000D01*
X178850000Y-85190000D01*
X178850000Y-85140272D01*
X178811940Y-85048386D01*
X178741614Y-84978060D01*
X178649728Y-84940000D01*
X178550272Y-84940000D01*
X178458386Y-84978060D01*
X178388060Y-85048386D01*
X178350000Y-85140272D01*
X178350000Y-85239728D01*
X177960000Y-85239728D01*
X177960000Y-85190000D01*
X178063553Y-85190000D01*
X178080330Y-85206776D01*
X178117107Y-85169999D01*
X178192890Y-85169999D01*
X178229668Y-85206777D01*
X178246446Y-85189999D01*
X178209669Y-85153222D01*
X178209668Y-85153222D01*
X178192890Y-85169999D01*
X178117107Y-85169999D01*
X178100330Y-85153222D01*
X178063553Y-85190000D01*
X177960000Y-85190000D01*
X177960000Y-85140272D01*
X177921940Y-85048386D01*
X177851614Y-84978060D01*
X177759728Y-84940000D01*
X177660272Y-84940000D01*
X177568387Y-84978059D01*
X177756447Y-84790000D01*
X178553553Y-84790000D01*
X178600000Y-84836447D01*
X178646447Y-84790000D01*
X179533553Y-84790000D01*
X179580000Y-84836447D01*
X179626447Y-84790000D01*
X179580000Y-84743553D01*
X179533553Y-84790000D01*
X178646447Y-84790000D01*
X178600000Y-84743553D01*
X178553553Y-84790000D01*
X177756447Y-84790000D01*
X177568387Y-84601940D01*
X177660272Y-84640000D01*
X177759728Y-84640000D01*
X177851614Y-84601940D01*
X177921940Y-84531614D01*
X177960000Y-84439728D01*
X178350000Y-84439728D01*
X178388060Y-84531614D01*
X178458386Y-84601940D01*
X178550272Y-84640000D01*
X178649728Y-84640000D01*
X178741614Y-84601940D01*
X178811940Y-84531614D01*
X178850000Y-84439728D01*
X179330000Y-84439728D01*
X179368060Y-84531614D01*
X179438386Y-84601940D01*
X179530272Y-84640000D01*
X179629728Y-84640000D01*
X179721614Y-84601940D01*
X179791940Y-84531614D01*
X179830000Y-84439728D01*
X179830000Y-84390000D01*
X179933553Y-84390000D01*
X179970329Y-84426777D01*
X179987106Y-84410000D01*
X180062891Y-84410000D01*
X180079668Y-84426777D01*
X180116446Y-84389999D01*
X180099669Y-84373222D01*
X180062891Y-84410000D01*
X179987106Y-84410000D01*
X179950329Y-84373222D01*
X179933553Y-84390000D01*
X179830000Y-84390000D01*
X179830000Y-84340272D01*
X179791940Y-84248386D01*
X179721614Y-84178060D01*
X179629728Y-84140000D01*
X179530272Y-84140000D01*
X179438386Y-84178060D01*
X179368060Y-84248386D01*
X179330000Y-84340272D01*
X179330000Y-84439728D01*
X178850000Y-84439728D01*
X178850000Y-84390000D01*
X178953553Y-84390000D01*
X178999999Y-84436446D01*
X179020020Y-84416425D01*
X179035532Y-84409999D01*
X179035530Y-84409998D01*
X179073806Y-84409998D01*
X179089315Y-84416422D01*
X179090000Y-84417106D01*
X179090682Y-84416425D01*
X179106193Y-84409999D01*
X179144466Y-84409999D01*
X179159978Y-84416425D01*
X179180000Y-84436447D01*
X179226447Y-84390000D01*
X179200000Y-84363553D01*
X179159978Y-84403575D01*
X179144466Y-84409999D01*
X179106193Y-84409999D01*
X179090681Y-84403574D01*
X179090679Y-84403572D01*
X179089999Y-84402891D01*
X179089317Y-84403574D01*
X179073806Y-84409998D01*
X179035530Y-84409998D01*
X179020021Y-84403574D01*
X178980000Y-84363553D01*
X178953553Y-84390000D01*
X178850000Y-84390000D01*
X178850000Y-84340272D01*
X178811940Y-84248386D01*
X178741614Y-84178060D01*
X178649728Y-84140000D01*
X178550272Y-84140000D01*
X178458386Y-84178060D01*
X178388060Y-84248386D01*
X178350000Y-84340272D01*
X178350000Y-84439728D01*
X177960000Y-84439728D01*
X177960000Y-84390000D01*
X178063553Y-84390000D01*
X178100329Y-84426777D01*
X178117106Y-84410000D01*
X178192891Y-84410000D01*
X178209668Y-84426777D01*
X178246446Y-84389999D01*
X178229669Y-84373222D01*
X178192891Y-84410000D01*
X178117106Y-84410000D01*
X178080329Y-84373222D01*
X178063553Y-84390000D01*
X177960000Y-84390000D01*
X177960000Y-84340272D01*
X177921940Y-84248386D01*
X177851614Y-84178060D01*
X177759728Y-84140000D01*
X177660272Y-84140000D01*
X177568387Y-84178059D01*
X177736447Y-84010000D01*
X178573553Y-84010000D01*
X178600000Y-84036447D01*
X178626447Y-84010000D01*
X179553553Y-84010000D01*
X179580000Y-84036447D01*
X179606447Y-84010000D01*
X179580000Y-83983553D01*
X179553553Y-84010000D01*
X178626447Y-84010000D01*
X178600000Y-83983553D01*
X178573553Y-84010000D01*
X177736447Y-84010000D01*
X177568387Y-83841940D01*
X177660272Y-83880000D01*
X177759728Y-83880000D01*
X177851614Y-83841940D01*
X177921940Y-83771614D01*
X177960000Y-83679728D01*
X178350000Y-83679728D01*
X178388060Y-83771614D01*
X178458386Y-83841940D01*
X178550272Y-83880000D01*
X178649728Y-83880000D01*
X178741614Y-83841940D01*
X178811940Y-83771614D01*
X178850000Y-83679728D01*
X178850000Y-83630000D01*
X178953553Y-83630000D01*
X178980000Y-83656447D01*
X179020022Y-83616425D01*
X179054670Y-83602073D01*
X179089318Y-83616425D01*
X179090000Y-83617107D01*
X179090682Y-83616425D01*
X179125330Y-83602073D01*
X179159978Y-83616425D01*
X179200000Y-83656447D01*
X179226447Y-83630000D01*
X179090000Y-83493553D01*
X178953553Y-83630000D01*
X178850000Y-83630000D01*
X178850000Y-83580272D01*
X178811940Y-83488386D01*
X178741614Y-83418060D01*
X178649728Y-83380000D01*
X178550272Y-83380000D01*
X178458386Y-83418060D01*
X178388060Y-83488386D01*
X178350000Y-83580272D01*
X178350000Y-83679728D01*
X177960000Y-83679728D01*
X177960000Y-83580272D01*
X177921940Y-83488387D01*
X178080329Y-83646776D01*
X178120350Y-83606755D01*
X178154999Y-83592403D01*
X178189647Y-83606754D01*
X178229669Y-83646776D01*
X178600000Y-83276447D01*
X178999166Y-82877280D01*
X179180832Y-82877280D01*
X179580000Y-83276447D01*
X179721612Y-83418059D01*
X179629728Y-83380000D01*
X179530272Y-83380000D01*
X179438386Y-83418060D01*
X179368060Y-83488386D01*
X179330000Y-83580272D01*
X179330000Y-83679728D01*
X179368060Y-83771614D01*
X179438386Y-83841940D01*
X179530272Y-83880000D01*
X179629728Y-83880000D01*
X179721614Y-83841940D01*
X179791940Y-83771614D01*
X179830000Y-83679728D01*
X179830000Y-83580272D01*
X179791940Y-83488387D01*
X179950329Y-83646776D01*
X179990350Y-83606755D01*
X180024999Y-83592403D01*
X180059647Y-83606754D01*
X180099669Y-83646776D01*
X180470000Y-83276447D01*
X180869166Y-82877280D01*
X180734113Y-82817150D01*
X180734104Y-82817147D01*
X180559339Y-82780000D01*
X180380661Y-82780000D01*
X180205895Y-82817147D01*
X180205886Y-82817150D01*
X180044930Y-82888813D01*
X180007440Y-82889794D01*
X180005070Y-82888813D01*
X179844113Y-82817150D01*
X179844104Y-82817147D01*
X179669339Y-82780000D01*
X179490661Y-82780000D01*
X179315895Y-82817147D01*
X179315886Y-82817150D01*
X179180832Y-82877280D01*
X178999166Y-82877280D01*
X178864113Y-82817150D01*
X178864104Y-82817147D01*
X178689339Y-82780000D01*
X178510661Y-82780000D01*
X178335895Y-82817147D01*
X178335886Y-82817150D01*
X178174930Y-82888813D01*
X178137440Y-82889794D01*
X178135070Y-82888813D01*
X177974113Y-82817150D01*
X177974104Y-82817147D01*
X177799339Y-82780000D01*
X177620661Y-82780000D01*
X177445895Y-82817147D01*
X177445886Y-82817150D01*
X177310832Y-82877280D01*
X177710000Y-83276447D01*
X177851612Y-83418059D01*
X177759728Y-83380000D01*
X177660272Y-83380000D01*
X177568386Y-83418060D01*
X177498060Y-83488386D01*
X177460000Y-83580272D01*
X177460000Y-83679728D01*
X177498059Y-83771612D01*
X176958346Y-83231899D01*
X176929209Y-83282369D01*
X176873995Y-83452301D01*
X176855318Y-83630000D01*
X176873995Y-83807698D01*
X176929209Y-83977630D01*
X176929211Y-83977633D01*
X176933753Y-83985501D01*
X176938647Y-84022683D01*
X176933753Y-84034499D01*
X176929211Y-84042366D01*
X176929209Y-84042369D01*
X176873995Y-84212301D01*
X176855318Y-84390000D01*
X176873995Y-84567698D01*
X176929209Y-84737630D01*
X176945300Y-84765501D01*
X176950194Y-84802683D01*
X176945300Y-84814499D01*
X176929209Y-84842369D01*
X176873995Y-85012301D01*
X176855318Y-85190000D01*
X176873995Y-85367698D01*
X176929209Y-85537630D01*
X176929211Y-85537633D01*
X176933753Y-85545501D01*
X176938647Y-85582683D01*
X176933753Y-85594499D01*
X176929211Y-85602366D01*
X176929209Y-85602369D01*
X176873995Y-85772301D01*
X176855318Y-85950000D01*
X174191723Y-85950000D01*
X174203877Y-85935973D01*
X174263665Y-85805057D01*
X174263665Y-85805055D01*
X174263666Y-85805054D01*
X174284147Y-85662602D01*
X174284147Y-85662597D01*
X174263666Y-85520145D01*
X174245142Y-85479584D01*
X174203877Y-85389227D01*
X174185222Y-85367698D01*
X174109628Y-85280457D01*
X174083046Y-85263374D01*
X173988553Y-85202647D01*
X173988550Y-85202646D01*
X173850465Y-85162100D01*
X173850461Y-85162100D01*
X173706539Y-85162100D01*
X173706534Y-85162100D01*
X173568449Y-85202646D01*
X173447366Y-85280460D01*
X173447084Y-85280705D01*
X173446880Y-85280772D01*
X173444423Y-85282352D01*
X173444019Y-85281724D01*
X173411499Y-85292545D01*
X173385853Y-85281921D01*
X173385577Y-85282352D01*
X173383192Y-85280819D01*
X173382916Y-85280705D01*
X173382633Y-85280460D01*
X173356045Y-85263373D01*
X173261553Y-85202647D01*
X173261550Y-85202646D01*
X173123465Y-85162100D01*
X173123461Y-85162100D01*
X172979539Y-85162100D01*
X172979534Y-85162100D01*
X172841449Y-85202646D01*
X172841447Y-85202646D01*
X172841447Y-85202647D01*
X172835021Y-85206777D01*
X172720371Y-85280457D01*
X172626125Y-85389223D01*
X172626124Y-85389225D01*
X172566333Y-85520145D01*
X172545853Y-85662597D01*
X172545853Y-85662602D01*
X165790000Y-85662602D01*
X165790000Y-83562602D01*
X169945853Y-83562602D01*
X169966333Y-83705054D01*
X169996731Y-83771614D01*
X170026123Y-83835973D01*
X170026124Y-83835974D01*
X170026125Y-83835976D01*
X170120161Y-83944500D01*
X170120372Y-83944743D01*
X170241447Y-84022553D01*
X170318285Y-84045114D01*
X170379534Y-84063099D01*
X170379537Y-84063099D01*
X170379539Y-84063100D01*
X170379540Y-84063100D01*
X170523460Y-84063100D01*
X170523461Y-84063100D01*
X170523463Y-84063099D01*
X170523465Y-84063099D01*
X170546295Y-84056395D01*
X170661553Y-84022553D01*
X170782628Y-83944743D01*
X170782629Y-83944742D01*
X170782909Y-83944500D01*
X170783111Y-83944432D01*
X170785577Y-83942848D01*
X170785981Y-83943477D01*
X170818492Y-83932654D01*
X170844145Y-83943279D01*
X170844423Y-83942848D01*
X170846816Y-83944386D01*
X170847091Y-83944500D01*
X170847370Y-83944742D01*
X170847372Y-83944743D01*
X170968447Y-84022553D01*
X171045285Y-84045114D01*
X171106534Y-84063099D01*
X171106537Y-84063099D01*
X171106539Y-84063100D01*
X171106540Y-84063100D01*
X171250460Y-84063100D01*
X171250461Y-84063100D01*
X171250463Y-84063099D01*
X171250465Y-84063099D01*
X171273295Y-84056395D01*
X171388553Y-84022553D01*
X171509628Y-83944743D01*
X171603877Y-83835973D01*
X171663665Y-83705057D01*
X171663665Y-83705055D01*
X171663666Y-83705054D01*
X171684147Y-83562602D01*
X171684147Y-83562597D01*
X171663666Y-83420145D01*
X171645332Y-83380000D01*
X171603877Y-83289227D01*
X171592803Y-83276447D01*
X171509628Y-83180457D01*
X171478317Y-83160335D01*
X171388553Y-83102647D01*
X171388550Y-83102646D01*
X171250465Y-83062100D01*
X171250461Y-83062100D01*
X171106539Y-83062100D01*
X171106534Y-83062100D01*
X170968449Y-83102646D01*
X170847366Y-83180460D01*
X170847084Y-83180705D01*
X170846880Y-83180772D01*
X170844423Y-83182352D01*
X170844019Y-83181724D01*
X170811499Y-83192545D01*
X170785853Y-83181921D01*
X170785577Y-83182352D01*
X170783192Y-83180819D01*
X170782916Y-83180705D01*
X170782633Y-83180460D01*
X170751317Y-83160335D01*
X170661553Y-83102647D01*
X170661550Y-83102646D01*
X170523465Y-83062100D01*
X170523461Y-83062100D01*
X170379539Y-83062100D01*
X170379534Y-83062100D01*
X170241449Y-83102646D01*
X170120371Y-83180457D01*
X170026125Y-83289223D01*
X170026124Y-83289225D01*
X169966333Y-83420145D01*
X169945853Y-83562597D01*
X169945853Y-83562602D01*
X165790000Y-83562602D01*
X165790000Y-82340002D01*
X181164353Y-82340002D01*
X181184833Y-82482454D01*
X181216935Y-82552746D01*
X181244623Y-82613373D01*
X181244624Y-82613374D01*
X181244625Y-82613376D01*
X181338871Y-82722142D01*
X181338872Y-82722143D01*
X181459947Y-82799953D01*
X181536785Y-82822514D01*
X181598034Y-82840499D01*
X181598037Y-82840499D01*
X181598039Y-82840500D01*
X181598040Y-82840500D01*
X181741960Y-82840500D01*
X181741961Y-82840500D01*
X181741963Y-82840499D01*
X181741965Y-82840499D01*
X181764795Y-82833795D01*
X181880053Y-82799953D01*
X182001128Y-82722143D01*
X182095377Y-82613373D01*
X182155165Y-82482457D01*
X182155165Y-82482455D01*
X182155166Y-82482454D01*
X182175647Y-82340002D01*
X182175647Y-82339997D01*
X182155166Y-82197545D01*
X182150751Y-82187879D01*
X182095377Y-82066627D01*
X182001128Y-81957857D01*
X181880053Y-81880047D01*
X181880050Y-81880046D01*
X181741965Y-81839500D01*
X181741961Y-81839500D01*
X181598039Y-81839500D01*
X181598034Y-81839500D01*
X181459949Y-81880046D01*
X181338871Y-81957857D01*
X181244625Y-82066623D01*
X181244624Y-82066625D01*
X181184833Y-82197545D01*
X181164353Y-82339997D01*
X181164353Y-82340002D01*
X165790000Y-82340002D01*
X165790000Y-80890002D01*
X167045853Y-80890002D01*
X167066333Y-81032454D01*
X167098435Y-81102746D01*
X167126123Y-81163373D01*
X167126124Y-81163374D01*
X167126125Y-81163376D01*
X167220161Y-81271900D01*
X167220372Y-81272143D01*
X167341447Y-81349953D01*
X167418285Y-81372514D01*
X167479534Y-81390499D01*
X167479537Y-81390499D01*
X167479539Y-81390500D01*
X167479540Y-81390500D01*
X167623460Y-81390500D01*
X167623461Y-81390500D01*
X167623463Y-81390499D01*
X167623465Y-81390499D01*
X167646295Y-81383795D01*
X167761553Y-81349953D01*
X167882628Y-81272143D01*
X167882629Y-81272142D01*
X167882909Y-81271900D01*
X167883111Y-81271832D01*
X167885577Y-81270248D01*
X167885981Y-81270877D01*
X167918492Y-81260054D01*
X167944145Y-81270679D01*
X167944423Y-81270248D01*
X167946816Y-81271786D01*
X167947091Y-81271900D01*
X167947370Y-81272142D01*
X167947372Y-81272143D01*
X168068447Y-81349953D01*
X168145285Y-81372514D01*
X168206534Y-81390499D01*
X168206537Y-81390499D01*
X168206539Y-81390500D01*
X168206540Y-81390500D01*
X168350460Y-81390500D01*
X168350461Y-81390500D01*
X168350463Y-81390499D01*
X168350465Y-81390499D01*
X168373295Y-81383795D01*
X168488553Y-81349953D01*
X168609628Y-81272143D01*
X168703877Y-81163373D01*
X168763665Y-81032457D01*
X168763665Y-81032455D01*
X168763666Y-81032454D01*
X168784147Y-80890002D01*
X168784147Y-80889997D01*
X168763666Y-80747545D01*
X168745541Y-80707857D01*
X168703877Y-80616627D01*
X168609628Y-80507857D01*
X168488553Y-80430047D01*
X168487896Y-80429854D01*
X168350465Y-80389500D01*
X168350461Y-80389500D01*
X168206539Y-80389500D01*
X168206534Y-80389500D01*
X168068449Y-80430046D01*
X167947366Y-80507860D01*
X167947084Y-80508105D01*
X167946880Y-80508172D01*
X167944423Y-80509752D01*
X167944019Y-80509124D01*
X167911499Y-80519945D01*
X167885853Y-80509321D01*
X167885577Y-80509752D01*
X167883192Y-80508219D01*
X167882916Y-80508105D01*
X167882633Y-80507860D01*
X167860003Y-80493317D01*
X167761553Y-80430047D01*
X167760896Y-80429854D01*
X167623465Y-80389500D01*
X167623461Y-80389500D01*
X167479539Y-80389500D01*
X167479534Y-80389500D01*
X167341449Y-80430046D01*
X167220371Y-80507857D01*
X167126125Y-80616623D01*
X167126124Y-80616625D01*
X167066333Y-80747545D01*
X167045853Y-80889997D01*
X167045853Y-80890002D01*
X165790000Y-80890002D01*
X165790000Y-71983486D01*
X165804352Y-71948838D01*
X165839000Y-71934486D01*
X165873648Y-71948838D01*
X165880933Y-71958136D01*
X165905106Y-71998124D01*
X165905107Y-71998125D01*
X166047092Y-72179353D01*
X166759952Y-71466493D01*
X166831451Y-71564903D01*
X167015097Y-71748549D01*
X167113505Y-71820046D01*
X166400645Y-72532906D01*
X166400645Y-72532907D01*
X166581874Y-72674892D01*
X166581875Y-72674893D01*
X166856232Y-72840747D01*
X167148567Y-72972317D01*
X167148589Y-72972325D01*
X167454638Y-73067694D01*
X167454664Y-73067700D01*
X167568225Y-73088511D01*
X167599719Y-73108873D01*
X167607590Y-73145540D01*
X167587228Y-73177034D01*
X167568953Y-73184766D01*
X167491663Y-73200140D01*
X167491645Y-73200145D01*
X167457010Y-73214492D01*
X167457006Y-73214494D01*
X167457005Y-73214495D01*
X167392581Y-73257543D01*
X167390335Y-73259044D01*
X167249044Y-73400335D01*
X167249042Y-73400338D01*
X167242585Y-73410002D01*
X167204492Y-73467010D01*
X167190145Y-73501645D01*
X167190142Y-73501655D01*
X167182515Y-73540000D01*
X167174500Y-73580296D01*
X167174500Y-74339704D01*
X167184880Y-74391891D01*
X167190142Y-74418344D01*
X167190145Y-74418354D01*
X167204492Y-74452989D01*
X167204493Y-74452991D01*
X167204495Y-74452995D01*
X167249042Y-74519662D01*
X167410338Y-74680958D01*
X167477005Y-74725505D01*
X167477010Y-74725507D01*
X167511645Y-74739854D01*
X167511647Y-74739854D01*
X167511653Y-74739857D01*
X167590296Y-74755500D01*
X167590299Y-74755500D01*
X173299701Y-74755500D01*
X173299704Y-74755500D01*
X173378347Y-74739857D01*
X173412995Y-74725505D01*
X173479662Y-74680958D01*
X174130958Y-74029662D01*
X174175505Y-73962995D01*
X174189857Y-73928347D01*
X174205500Y-73849704D01*
X174205500Y-69095416D01*
X174219852Y-69060768D01*
X174450769Y-68829852D01*
X174485417Y-68815500D01*
X175795584Y-68815500D01*
X175830232Y-68829852D01*
G37*
%TD.AperFunction*%
%TA.AperFunction,Conductor*%
G36*
X180920232Y-68829852D02*
G01*
X180934584Y-68864500D01*
X180920232Y-68899148D01*
X180909044Y-68910335D01*
X180909042Y-68910338D01*
X180875267Y-68960885D01*
X180864492Y-68977010D01*
X180850145Y-69011645D01*
X180850142Y-69011655D01*
X180843691Y-69044089D01*
X180834500Y-69090296D01*
X180834500Y-69579704D01*
X180843552Y-69625212D01*
X180850142Y-69658344D01*
X180850145Y-69658354D01*
X180864492Y-69692989D01*
X180864493Y-69692991D01*
X180864495Y-69692995D01*
X180909042Y-69759662D01*
X181130338Y-69980958D01*
X181197005Y-70025505D01*
X181197010Y-70025507D01*
X181231645Y-70039854D01*
X181231647Y-70039854D01*
X181231653Y-70039857D01*
X181310296Y-70055500D01*
X181310299Y-70055500D01*
X181927127Y-70055500D01*
X181956368Y-70053408D01*
X181970159Y-70051425D01*
X181970162Y-70051424D01*
X181970172Y-70051423D01*
X181998822Y-70045190D01*
X182060821Y-70026985D01*
X182074626Y-70025000D01*
X182145370Y-70025000D01*
X182159175Y-70026985D01*
X182221181Y-70045191D01*
X182249828Y-70051423D01*
X182249832Y-70051423D01*
X182249840Y-70051425D01*
X182263631Y-70053408D01*
X182292873Y-70055500D01*
X182292881Y-70055500D01*
X184744584Y-70055500D01*
X184779232Y-70069852D01*
X184970148Y-70260768D01*
X184984500Y-70295416D01*
X184984500Y-72850500D01*
X185000143Y-72929143D01*
X185006919Y-72945501D01*
X185006920Y-72983002D01*
X184988142Y-73005472D01*
X184968872Y-73017857D01*
X184968869Y-73017859D01*
X184968868Y-73017860D01*
X184874625Y-73126623D01*
X184874624Y-73126625D01*
X184814833Y-73257545D01*
X184794353Y-73399997D01*
X184794353Y-73400002D01*
X184814833Y-73542454D01*
X184832117Y-73580299D01*
X184874623Y-73673373D01*
X184874624Y-73673374D01*
X184874625Y-73673376D01*
X184945713Y-73755416D01*
X184968872Y-73782143D01*
X184988139Y-73794525D01*
X185009528Y-73825331D01*
X185006919Y-73854497D01*
X185000144Y-73870853D01*
X185000142Y-73870859D01*
X184992767Y-73907941D01*
X184984500Y-73949500D01*
X184984500Y-73949503D01*
X184984500Y-75840223D01*
X184970148Y-75874871D01*
X184935500Y-75889223D01*
X184900852Y-75874871D01*
X184887442Y-75849782D01*
X184879859Y-75811664D01*
X184879857Y-75811653D01*
X184865505Y-75777005D01*
X184820958Y-75710338D01*
X184539662Y-75429042D01*
X184472995Y-75384495D01*
X184472991Y-75384493D01*
X184472989Y-75384492D01*
X184438354Y-75370145D01*
X184438344Y-75370142D01*
X184406630Y-75363834D01*
X184359704Y-75354500D01*
X182160296Y-75354500D01*
X182121155Y-75362285D01*
X182081655Y-75370142D01*
X182081645Y-75370145D01*
X182047010Y-75384492D01*
X182047006Y-75384494D01*
X182047005Y-75384495D01*
X182024015Y-75399857D01*
X181980335Y-75429044D01*
X181669044Y-75740335D01*
X181624492Y-75807010D01*
X181610145Y-75841645D01*
X181610142Y-75841655D01*
X181602285Y-75881155D01*
X181594500Y-75920296D01*
X181594500Y-75920299D01*
X181594500Y-77074584D01*
X181580148Y-77109232D01*
X181429232Y-77260148D01*
X181394584Y-77274500D01*
X177075416Y-77274500D01*
X177040768Y-77260148D01*
X176639852Y-76859232D01*
X176625500Y-76824584D01*
X176625500Y-74790000D01*
X176785065Y-74790000D01*
X176804783Y-75090848D01*
X176863602Y-75386555D01*
X176960518Y-75672060D01*
X177093868Y-75942468D01*
X177261371Y-76193156D01*
X177294973Y-76231470D01*
X177294974Y-76231471D01*
X178046320Y-75480125D01*
X178136554Y-75604320D01*
X178275680Y-75743446D01*
X178399873Y-75833678D01*
X177648527Y-76585024D01*
X177648528Y-76585025D01*
X177686844Y-76618628D01*
X177686843Y-76618628D01*
X177937531Y-76786131D01*
X178207939Y-76919481D01*
X178493444Y-77016397D01*
X178789151Y-77075216D01*
X179089999Y-77094935D01*
X179090001Y-77094935D01*
X179390848Y-77075216D01*
X179686555Y-77016397D01*
X179972060Y-76919481D01*
X180242468Y-76786131D01*
X180493155Y-76618628D01*
X180531470Y-76585025D01*
X180531471Y-76585024D01*
X179780126Y-75833679D01*
X179904320Y-75743446D01*
X180043446Y-75604320D01*
X180133679Y-75480126D01*
X180885024Y-76231471D01*
X180885025Y-76231470D01*
X180918628Y-76193155D01*
X181086131Y-75942468D01*
X181219481Y-75672060D01*
X181316397Y-75386555D01*
X181375216Y-75090848D01*
X181394935Y-74790000D01*
X181394935Y-74789999D01*
X181375216Y-74489151D01*
X181316397Y-74193444D01*
X181219482Y-73907941D01*
X181086131Y-73637532D01*
X180934102Y-73410002D01*
X182024353Y-73410002D01*
X182044833Y-73552454D01*
X182067053Y-73601108D01*
X182104623Y-73683373D01*
X182104624Y-73683374D01*
X182104625Y-73683376D01*
X182167048Y-73755416D01*
X182198872Y-73792143D01*
X182319947Y-73869953D01*
X182396785Y-73892514D01*
X182458034Y-73910499D01*
X182458037Y-73910499D01*
X182458039Y-73910500D01*
X182458040Y-73910500D01*
X182601960Y-73910500D01*
X182601961Y-73910500D01*
X182601963Y-73910499D01*
X182601965Y-73910499D01*
X182624795Y-73903795D01*
X182740053Y-73869953D01*
X182861128Y-73792143D01*
X182955377Y-73683373D01*
X183015165Y-73552457D01*
X183015165Y-73552455D01*
X183015166Y-73552454D01*
X183035647Y-73410002D01*
X183035647Y-73409997D01*
X183015166Y-73267545D01*
X183010598Y-73257543D01*
X182955377Y-73136627D01*
X182954400Y-73135500D01*
X182861128Y-73027857D01*
X182845571Y-73017859D01*
X182740053Y-72950047D01*
X182740050Y-72950046D01*
X182601965Y-72909500D01*
X182601961Y-72909500D01*
X182458039Y-72909500D01*
X182458034Y-72909500D01*
X182319949Y-72950046D01*
X182319947Y-72950046D01*
X182319947Y-72950047D01*
X182298561Y-72963791D01*
X182198871Y-73027857D01*
X182104625Y-73136623D01*
X182104624Y-73136625D01*
X182044833Y-73267545D01*
X182024353Y-73409997D01*
X182024353Y-73410002D01*
X180934102Y-73410002D01*
X180918628Y-73386843D01*
X180885025Y-73348528D01*
X180885024Y-73348527D01*
X180133678Y-74099873D01*
X180043446Y-73975680D01*
X179904320Y-73836554D01*
X179780124Y-73746320D01*
X180531471Y-72994974D01*
X180531470Y-72994973D01*
X180493155Y-72961371D01*
X180493156Y-72961371D01*
X180242468Y-72793868D01*
X179972060Y-72660518D01*
X179686555Y-72563602D01*
X179390848Y-72504783D01*
X179090001Y-72485065D01*
X179089999Y-72485065D01*
X178789151Y-72504783D01*
X178493444Y-72563602D01*
X178207941Y-72660517D01*
X177937532Y-72793868D01*
X177686843Y-72961371D01*
X177648528Y-72994973D01*
X177648527Y-72994974D01*
X178399873Y-73746320D01*
X178275680Y-73836554D01*
X178136554Y-73975680D01*
X178046320Y-74099873D01*
X177294974Y-73348527D01*
X177294973Y-73348528D01*
X177261371Y-73386843D01*
X177093868Y-73637532D01*
X176960517Y-73907941D01*
X176863602Y-74193444D01*
X176804783Y-74489151D01*
X176785065Y-74789999D01*
X176785065Y-74790000D01*
X176625500Y-74790000D01*
X176625500Y-73755416D01*
X176639852Y-73720768D01*
X177225120Y-73135500D01*
X177820958Y-72539662D01*
X177865505Y-72472995D01*
X177879857Y-72438347D01*
X177895500Y-72359704D01*
X177895500Y-71270002D01*
X181714353Y-71270002D01*
X181734833Y-71412454D01*
X181766935Y-71482746D01*
X181794623Y-71543373D01*
X181794624Y-71543374D01*
X181794625Y-71543376D01*
X181888871Y-71652142D01*
X181888872Y-71652143D01*
X182009947Y-71729953D01*
X182073280Y-71748549D01*
X182148034Y-71770499D01*
X182148037Y-71770499D01*
X182148039Y-71770500D01*
X182148040Y-71770500D01*
X182291960Y-71770500D01*
X182291961Y-71770500D01*
X182291963Y-71770499D01*
X182291965Y-71770499D01*
X182314795Y-71763795D01*
X182430053Y-71729953D01*
X182551128Y-71652143D01*
X182645377Y-71543373D01*
X182705165Y-71412457D01*
X182705165Y-71412455D01*
X182705166Y-71412454D01*
X182725647Y-71270002D01*
X182725647Y-71269997D01*
X182705166Y-71127545D01*
X182700751Y-71117879D01*
X182645377Y-70996627D01*
X182551128Y-70887857D01*
X182430053Y-70810047D01*
X182430050Y-70810046D01*
X182291965Y-70769500D01*
X182291961Y-70769500D01*
X182148039Y-70769500D01*
X182148034Y-70769500D01*
X182009949Y-70810046D01*
X181888871Y-70887857D01*
X181794625Y-70996623D01*
X181794624Y-70996625D01*
X181734833Y-71127545D01*
X181714353Y-71269997D01*
X181714353Y-71270002D01*
X177895500Y-71270002D01*
X177895500Y-69110296D01*
X177879857Y-69031653D01*
X177879653Y-69031161D01*
X177865507Y-68997010D01*
X177865505Y-68997005D01*
X177820958Y-68930338D01*
X177789768Y-68899148D01*
X177775416Y-68864500D01*
X177789768Y-68829852D01*
X177824416Y-68815500D01*
X180885584Y-68815500D01*
X180920232Y-68829852D01*
G37*
%TD.AperFunction*%
%TA.AperFunction,Conductor*%
G36*
X173325732Y-67704352D02*
G01*
X173340084Y-67739000D01*
X173325732Y-67773648D01*
X172859044Y-68240335D01*
X172859042Y-68240338D01*
X172815764Y-68305107D01*
X172814492Y-68307010D01*
X172800145Y-68341645D01*
X172800142Y-68341655D01*
X172798416Y-68350335D01*
X172784500Y-68420296D01*
X172784500Y-68420299D01*
X172784500Y-72874584D01*
X172770148Y-72909232D01*
X172509232Y-73170148D01*
X172474584Y-73184500D01*
X168627202Y-73184500D01*
X168592554Y-73170148D01*
X168578202Y-73135500D01*
X168592554Y-73100852D01*
X168618370Y-73087303D01*
X168725335Y-73067700D01*
X168725361Y-73067694D01*
X169031410Y-72972325D01*
X169031432Y-72972317D01*
X169323767Y-72840747D01*
X169598124Y-72674893D01*
X169598125Y-72674892D01*
X169779353Y-72532907D01*
X169779353Y-72532906D01*
X169066494Y-71820047D01*
X169164903Y-71748549D01*
X169348549Y-71564903D01*
X169420047Y-71466494D01*
X170132906Y-72179353D01*
X170132907Y-72179353D01*
X170274892Y-71998125D01*
X170274893Y-71998124D01*
X170440747Y-71723767D01*
X170572317Y-71431432D01*
X170572325Y-71431410D01*
X170667694Y-71125361D01*
X170667700Y-71125335D01*
X170725484Y-70810018D01*
X170725486Y-70810006D01*
X170744843Y-70490000D01*
X170725486Y-70169993D01*
X170725484Y-70169981D01*
X170667700Y-69854664D01*
X170667694Y-69854638D01*
X170572325Y-69548589D01*
X170572317Y-69548567D01*
X170440747Y-69256232D01*
X170274893Y-68981875D01*
X170274892Y-68981874D01*
X170132906Y-68800645D01*
X169420046Y-69513505D01*
X169348549Y-69415097D01*
X169164903Y-69231451D01*
X169066492Y-69159952D01*
X169779353Y-68447092D01*
X169779353Y-68447091D01*
X169598125Y-68305107D01*
X169598124Y-68305106D01*
X169323767Y-68139252D01*
X169031432Y-68007682D01*
X169031410Y-68007674D01*
X168725361Y-67912305D01*
X168725335Y-67912299D01*
X168410018Y-67854515D01*
X168410006Y-67854513D01*
X168090000Y-67835156D01*
X167769993Y-67854513D01*
X167769981Y-67854515D01*
X167454664Y-67912299D01*
X167454638Y-67912305D01*
X167148589Y-68007674D01*
X167148567Y-68007682D01*
X166856232Y-68139252D01*
X166581875Y-68305106D01*
X166581874Y-68305107D01*
X166400645Y-68447091D01*
X166400645Y-68447092D01*
X167113505Y-69159952D01*
X167015097Y-69231451D01*
X166831451Y-69415097D01*
X166759953Y-69513505D01*
X166047092Y-68800645D01*
X166047091Y-68800645D01*
X165905107Y-68981874D01*
X165905106Y-68981875D01*
X165880933Y-69021863D01*
X165850726Y-69044089D01*
X165813650Y-69038446D01*
X165791424Y-69008239D01*
X165790000Y-68996513D01*
X165790000Y-67739000D01*
X165804352Y-67704352D01*
X165839000Y-67690000D01*
X173291084Y-67690000D01*
X173325732Y-67704352D01*
G37*
%TD.AperFunction*%
%TA.AperFunction,Conductor*%
G36*
X192375648Y-67704352D02*
G01*
X192390000Y-67739000D01*
X192390000Y-68996513D01*
X192375648Y-69031161D01*
X192341000Y-69045513D01*
X192306352Y-69031161D01*
X192299067Y-69021863D01*
X192274893Y-68981875D01*
X192274892Y-68981874D01*
X192132906Y-68800645D01*
X191420046Y-69513505D01*
X191348549Y-69415097D01*
X191164903Y-69231451D01*
X191066492Y-69159952D01*
X191779353Y-68447092D01*
X191779353Y-68447091D01*
X191598125Y-68305107D01*
X191598124Y-68305106D01*
X191323767Y-68139252D01*
X191031432Y-68007682D01*
X191031410Y-68007674D01*
X190725361Y-67912305D01*
X190725335Y-67912299D01*
X190410018Y-67854515D01*
X190410006Y-67854513D01*
X190090000Y-67835156D01*
X189769993Y-67854513D01*
X189769981Y-67854515D01*
X189454664Y-67912299D01*
X189454638Y-67912305D01*
X189148589Y-68007674D01*
X189148567Y-68007682D01*
X188856232Y-68139252D01*
X188581875Y-68305106D01*
X188581874Y-68305107D01*
X188400645Y-68447091D01*
X188400645Y-68447092D01*
X189113505Y-69159952D01*
X189015097Y-69231451D01*
X188831451Y-69415097D01*
X188759952Y-69513505D01*
X188047092Y-68800645D01*
X188047091Y-68800645D01*
X188013072Y-68844068D01*
X187980406Y-68862492D01*
X187944281Y-68852421D01*
X187925857Y-68819755D01*
X187925500Y-68813849D01*
X187925500Y-68530299D01*
X187925500Y-68530296D01*
X187909857Y-68451653D01*
X187907967Y-68447091D01*
X187895507Y-68417010D01*
X187895505Y-68417005D01*
X187850958Y-68350338D01*
X187274268Y-67773648D01*
X187259916Y-67739000D01*
X187274268Y-67704352D01*
X187308916Y-67690000D01*
X192341000Y-67690000D01*
X192375648Y-67704352D01*
G37*
%TD.AperFunction*%
%TA.AperFunction,Conductor*%
G36*
X187094352Y-67884352D02*
G01*
X187705648Y-68495648D01*
X187720000Y-68530296D01*
X187720000Y-73930000D01*
X188050000Y-74260000D01*
X189119704Y-74260000D01*
X189154352Y-74274352D01*
X189715648Y-74835648D01*
X189730000Y-74870296D01*
X189730000Y-76949704D01*
X189715648Y-76984352D01*
X189454352Y-77245648D01*
X189419704Y-77260000D01*
X188370296Y-77260000D01*
X188335648Y-77245648D01*
X188084352Y-76994352D01*
X188070000Y-76959704D01*
X188070000Y-75480000D01*
X187800000Y-75210000D01*
X187170296Y-75210000D01*
X187135648Y-75195648D01*
X186504352Y-74564352D01*
X186490000Y-74529704D01*
X186490000Y-69300000D01*
X186445899Y-69255899D01*
X186439806Y-69248475D01*
X186400959Y-69190340D01*
X186400958Y-69190338D01*
X185889662Y-68679042D01*
X185852926Y-68654495D01*
X185831526Y-68640195D01*
X185824102Y-68634102D01*
X185800000Y-68610000D01*
X185742179Y-68610000D01*
X185732619Y-68609058D01*
X185709707Y-68604500D01*
X185709704Y-68604500D01*
X181320296Y-68604500D01*
X181320292Y-68604500D01*
X181297381Y-68609058D01*
X181287821Y-68610000D01*
X174380000Y-68610000D01*
X174000000Y-68989999D01*
X174000000Y-73849704D01*
X173985648Y-73884352D01*
X173334352Y-74535648D01*
X173299704Y-74550000D01*
X167590296Y-74550000D01*
X167555648Y-74535648D01*
X167394352Y-74374352D01*
X167380000Y-74339704D01*
X167380000Y-73580296D01*
X167394352Y-73545648D01*
X167535648Y-73404352D01*
X167570296Y-73390000D01*
X172579999Y-73390000D01*
X172580000Y-73390000D01*
X172990000Y-72980000D01*
X172990000Y-68420296D01*
X173004352Y-68385648D01*
X173505648Y-67884352D01*
X173540296Y-67870000D01*
X187059704Y-67870000D01*
X187094352Y-67884352D01*
G37*
%TD.AperFunction*%
%TA.AperFunction,Conductor*%
G36*
X172074352Y-75234352D02*
G01*
X172325648Y-75485648D01*
X172340000Y-75520296D01*
X172340000Y-78660000D01*
X172540000Y-78860000D01*
X176929704Y-78860000D01*
X176964352Y-78874352D01*
X177145648Y-79055648D01*
X177160000Y-79090296D01*
X177160000Y-79679704D01*
X177145648Y-79714352D01*
X176984352Y-79875648D01*
X176949704Y-79890000D01*
X172620000Y-79890000D01*
X172410000Y-80099999D01*
X172410000Y-81589704D01*
X172395648Y-81624352D01*
X172254352Y-81765648D01*
X172219704Y-81780000D01*
X170610296Y-81780000D01*
X170575648Y-81765648D01*
X170354352Y-81544352D01*
X170340000Y-81509704D01*
X170340000Y-80450296D01*
X170354352Y-80415648D01*
X170650000Y-80120000D01*
X170650000Y-75560296D01*
X170664352Y-75525648D01*
X170955648Y-75234352D01*
X170990296Y-75220000D01*
X172039704Y-75220000D01*
X172074352Y-75234352D01*
G37*
%TD.AperFunction*%
%TA.AperFunction,Conductor*%
G36*
X177444352Y-68844352D02*
G01*
X177675648Y-69075648D01*
X177690000Y-69110296D01*
X177690000Y-72359704D01*
X177675648Y-72394352D01*
X176420000Y-73649999D01*
X176420000Y-73650000D01*
X176420000Y-76930000D01*
X176970000Y-77480000D01*
X181499999Y-77480000D01*
X181500000Y-77480000D01*
X181800000Y-77180000D01*
X181800000Y-75920296D01*
X181814352Y-75885648D01*
X182125648Y-75574352D01*
X182160296Y-75560000D01*
X184359704Y-75560000D01*
X184394352Y-75574352D01*
X184675648Y-75855648D01*
X184690000Y-75890296D01*
X184690000Y-76669704D01*
X184675648Y-76704352D01*
X184434352Y-76945648D01*
X184399704Y-76960000D01*
X183350000Y-76960000D01*
X183180000Y-77129999D01*
X183180000Y-78019704D01*
X183165648Y-78054352D01*
X182814352Y-78405648D01*
X182779704Y-78420000D01*
X179090000Y-78420000D01*
X178810000Y-78699999D01*
X178810000Y-79979704D01*
X178795648Y-80014352D01*
X178584352Y-80225648D01*
X178549704Y-80240000D01*
X177670296Y-80240000D01*
X177635648Y-80225648D01*
X177434352Y-80024352D01*
X177420000Y-79989704D01*
X177420000Y-78720000D01*
X177170000Y-78470000D01*
X175490296Y-78470000D01*
X175455648Y-78455648D01*
X174924352Y-77924352D01*
X174910000Y-77889704D01*
X174910000Y-73679751D01*
X174924352Y-73645103D01*
X174959000Y-73630751D01*
X174985491Y-73638530D01*
X175003339Y-73650000D01*
X175049947Y-73679953D01*
X175132996Y-73704338D01*
X175188034Y-73720499D01*
X175188037Y-73720499D01*
X175188039Y-73720500D01*
X175188040Y-73720500D01*
X175331960Y-73720500D01*
X175331961Y-73720500D01*
X175331963Y-73720499D01*
X175331965Y-73720499D01*
X175354795Y-73713795D01*
X175470053Y-73679953D01*
X175591128Y-73602143D01*
X175685377Y-73493373D01*
X175745165Y-73362457D01*
X175745165Y-73362455D01*
X175745166Y-73362454D01*
X175765647Y-73220002D01*
X175765647Y-73219997D01*
X175745166Y-73077545D01*
X175722474Y-73027857D01*
X175685377Y-72946627D01*
X175591128Y-72837857D01*
X175470053Y-72760047D01*
X175470050Y-72760046D01*
X175332769Y-72719736D01*
X175303568Y-72696204D01*
X175299559Y-72658916D01*
X175311924Y-72638075D01*
X175940000Y-72010000D01*
X175940000Y-69100296D01*
X175954352Y-69065648D01*
X176175648Y-68844352D01*
X176210296Y-68830000D01*
X177409704Y-68830000D01*
X177444352Y-68844352D01*
G37*
%TD.AperFunction*%
%TA.AperFunction,Conductor*%
G36*
X185744352Y-68824352D02*
G01*
X186255648Y-69335648D01*
X186270000Y-69370296D01*
X186270000Y-83839704D01*
X186255648Y-83874352D01*
X185774352Y-84355648D01*
X185739704Y-84370000D01*
X183610296Y-84370000D01*
X183575648Y-84355648D01*
X183364352Y-84144352D01*
X183350000Y-84109704D01*
X183350000Y-83340296D01*
X183364352Y-83305648D01*
X183645648Y-83024352D01*
X183680296Y-83010000D01*
X184869999Y-83010000D01*
X184870000Y-83010000D01*
X185190000Y-82690000D01*
X185190000Y-73949500D01*
X185204352Y-73914852D01*
X185239000Y-73900500D01*
X185371960Y-73900500D01*
X185371961Y-73900500D01*
X185371963Y-73900499D01*
X185371965Y-73900499D01*
X185394795Y-73893795D01*
X185510053Y-73859953D01*
X185631128Y-73782143D01*
X185725377Y-73673373D01*
X185785165Y-73542457D01*
X185785165Y-73542455D01*
X185785166Y-73542454D01*
X185805647Y-73400002D01*
X185805647Y-73399997D01*
X185785166Y-73257545D01*
X185780751Y-73247879D01*
X185725377Y-73126627D01*
X185704708Y-73102774D01*
X185631128Y-73017857D01*
X185510053Y-72940047D01*
X185510050Y-72940046D01*
X185371965Y-72899500D01*
X185371961Y-72899500D01*
X185239000Y-72899500D01*
X185204352Y-72885148D01*
X185190000Y-72850500D01*
X185190000Y-70190000D01*
X184850000Y-69850000D01*
X182292881Y-69850000D01*
X182279076Y-69848015D01*
X182181965Y-69819500D01*
X182181961Y-69819500D01*
X182038039Y-69819500D01*
X182038034Y-69819500D01*
X181940924Y-69848015D01*
X181927119Y-69850000D01*
X181310296Y-69850000D01*
X181275648Y-69835648D01*
X181054352Y-69614352D01*
X181040000Y-69579704D01*
X181040000Y-69090296D01*
X181054352Y-69055648D01*
X181285648Y-68824352D01*
X181320296Y-68810000D01*
X185709704Y-68810000D01*
X185744352Y-68824352D01*
G37*
%TD.AperFunction*%
M02*
