%TF.GenerationSoftware,KiCad,Pcbnew,8.0.0-rc1*%
%TF.CreationDate,2025-03-12T12:31:09+03:00*%
%TF.ProjectId,IMX219_V2.0,494d5832-3139-45f5-9632-2e302e6b6963,rev?*%
%TF.SameCoordinates,Original*%
%TF.FileFunction,Soldermask,Bot*%
%TF.FilePolarity,Negative*%
%FSLAX46Y46*%
G04 Gerber Fmt 4.6, Leading zero omitted, Abs format (unit mm)*
G04 Created by KiCad (PCBNEW 8.0.0-rc1) date 2025-03-12 12:31:09*
%MOMM*%
%LPD*%
G01*
G04 APERTURE LIST*
G04 Aperture macros list*
%AMRoundRect*
0 Rectangle with rounded corners*
0 $1 Rounding radius*
0 $2 $3 $4 $5 $6 $7 $8 $9 X,Y pos of 4 corners*
0 Add a 4 corners polygon primitive as box body*
4,1,4,$2,$3,$4,$5,$6,$7,$8,$9,$2,$3,0*
0 Add four circle primitives for the rounded corners*
1,1,$1+$1,$2,$3*
1,1,$1+$1,$4,$5*
1,1,$1+$1,$6,$7*
1,1,$1+$1,$8,$9*
0 Add four rect primitives between the rounded corners*
20,1,$1+$1,$2,$3,$4,$5,0*
20,1,$1+$1,$4,$5,$6,$7,0*
20,1,$1+$1,$6,$7,$8,$9,0*
20,1,$1+$1,$8,$9,$2,$3,0*%
G04 Aperture macros list end*
%ADD10R,1.200000X1.400000*%
%ADD11C,4.300000*%
%ADD12C,3.600000*%
%ADD13C,0.700000*%
%ADD14R,0.850000X0.850000*%
%ADD15O,0.850000X0.850000*%
%ADD16RoundRect,0.140000X-0.170000X0.140000X-0.170000X-0.140000X0.170000X-0.140000X0.170000X0.140000X0*%
%ADD17RoundRect,0.140000X0.140000X0.170000X-0.140000X0.170000X-0.140000X-0.170000X0.140000X-0.170000X0*%
%ADD18R,0.300000X0.700000*%
%ADD19RoundRect,0.250000X0.250000X0.475000X-0.250000X0.475000X-0.250000X-0.475000X0.250000X-0.475000X0*%
%ADD20R,0.340000X0.700000*%
%ADD21R,0.700000X0.750000*%
%ADD22RoundRect,0.135000X0.185000X-0.135000X0.185000X0.135000X-0.185000X0.135000X-0.185000X-0.135000X0*%
%ADD23RoundRect,0.140000X-0.140000X-0.170000X0.140000X-0.170000X0.140000X0.170000X-0.140000X0.170000X0*%
%ADD24RoundRect,0.135000X-0.135000X-0.185000X0.135000X-0.185000X0.135000X0.185000X-0.135000X0.185000X0*%
%ADD25RoundRect,0.135000X-0.185000X0.135000X-0.185000X-0.135000X0.185000X-0.135000X0.185000X0.135000X0*%
%ADD26R,1.050000X0.600000*%
%ADD27RoundRect,0.150000X0.512500X0.150000X-0.512500X0.150000X-0.512500X-0.150000X0.512500X-0.150000X0*%
%ADD28RoundRect,0.140000X0.170000X-0.140000X0.170000X0.140000X-0.170000X0.140000X-0.170000X-0.140000X0*%
%ADD29RoundRect,0.250000X0.375000X0.850000X-0.375000X0.850000X-0.375000X-0.850000X0.375000X-0.850000X0*%
%ADD30RoundRect,0.150000X0.700000X-0.150000X0.700000X0.150000X-0.700000X0.150000X-0.700000X-0.150000X0*%
%ADD31RoundRect,0.250000X1.100000X-0.250000X1.100000X0.250000X-1.100000X0.250000X-1.100000X-0.250000X0*%
%ADD32R,0.750000X0.700000*%
%ADD33RoundRect,0.225000X0.250000X-0.225000X0.250000X0.225000X-0.250000X0.225000X-0.250000X-0.225000X0*%
G04 APERTURE END LIST*
D10*
X171955000Y-69375000D03*
X171955000Y-71575000D03*
X173655000Y-71575000D03*
X173655000Y-69375000D03*
D11*
X168090000Y-97490000D03*
D12*
X179090000Y-94790000D03*
X179090000Y-74790000D03*
D11*
X168090000Y-70490000D03*
D13*
X177710000Y-83630000D03*
X177710000Y-84390000D03*
X177710000Y-85190000D03*
X177710000Y-85950000D03*
X178600000Y-83630000D03*
X178600000Y-84390000D03*
X178600000Y-85190000D03*
X178600000Y-85950000D03*
X179580000Y-83630000D03*
X179580000Y-84390000D03*
X179580000Y-85190000D03*
X179580000Y-85950000D03*
X180470000Y-83630000D03*
X180470000Y-84390000D03*
X180470000Y-85190000D03*
X180470000Y-85950000D03*
D11*
X190090000Y-97490000D03*
X190090000Y-70490000D03*
D14*
X183515000Y-98515000D03*
D15*
X184765000Y-98515000D03*
D16*
X175720000Y-80350000D03*
X175720000Y-81310000D03*
D17*
X185310000Y-68840000D03*
X184350000Y-68840000D03*
D18*
X173690000Y-89490000D03*
X173690000Y-88240000D03*
X173140000Y-88240000D03*
X173140000Y-89490000D03*
D19*
X169750000Y-79160000D03*
X167850000Y-79160000D03*
D18*
X171090000Y-89490000D03*
X171090000Y-88240000D03*
X170540000Y-88240000D03*
X170540000Y-89490000D03*
D20*
X183400000Y-75540000D03*
X183900000Y-75540000D03*
X184400000Y-75540000D03*
X184400000Y-77040000D03*
X183900000Y-77040000D03*
X183400000Y-77040000D03*
D21*
X167960000Y-75525000D03*
X167960000Y-76975000D03*
D22*
X180680000Y-81360000D03*
X180680000Y-80340000D03*
D23*
X182570000Y-83020000D03*
X183530000Y-83020000D03*
D17*
X185310000Y-69870000D03*
X184350000Y-69870000D03*
D24*
X173460000Y-73210000D03*
X174480000Y-73210000D03*
D17*
X183530000Y-84000000D03*
X182570000Y-84000000D03*
D25*
X181680000Y-87970000D03*
X181680000Y-88990000D03*
D23*
X169110000Y-80690000D03*
X170070000Y-80690000D03*
D26*
X183095000Y-69370000D03*
X183105000Y-70320000D03*
X183105000Y-71270000D03*
X180415000Y-71270000D03*
X180395000Y-69370000D03*
D27*
X173727500Y-75110000D03*
X173727500Y-76060000D03*
X173727500Y-77010000D03*
X171452500Y-77010000D03*
X171452500Y-75110000D03*
D24*
X182560000Y-84990000D03*
X183580000Y-84990000D03*
D22*
X183400000Y-74420000D03*
X183400000Y-73400000D03*
D28*
X176720000Y-81310000D03*
X176720000Y-80350000D03*
D22*
X181690000Y-81360000D03*
X181690000Y-80340000D03*
D29*
X173725000Y-79520000D03*
X171575000Y-79520000D03*
D30*
X190800000Y-92730000D03*
X190800000Y-91480000D03*
X190800000Y-90230000D03*
X190800000Y-88980000D03*
X190800000Y-87730000D03*
X190800000Y-86480000D03*
X190800000Y-85230000D03*
X190800000Y-83980000D03*
X190800000Y-82730000D03*
X190800000Y-81480000D03*
X190800000Y-80230000D03*
X190800000Y-78980000D03*
D31*
X187600000Y-94580000D03*
D30*
X190800000Y-77730000D03*
D31*
X187600000Y-73380000D03*
D30*
X190800000Y-76480000D03*
X190800000Y-75230000D03*
D26*
X178310000Y-69370000D03*
X178320000Y-70320000D03*
X178320000Y-71270000D03*
X175630000Y-71270000D03*
X175610000Y-69370000D03*
D32*
X186120000Y-71170000D03*
X184670000Y-71170000D03*
D28*
X178690000Y-81310000D03*
X178690000Y-80350000D03*
D25*
X180680000Y-87970000D03*
X180680000Y-88990000D03*
X179680000Y-80330000D03*
X179680000Y-81350000D03*
D18*
X168190000Y-89489997D03*
X168190000Y-88239997D03*
X167640000Y-88239997D03*
X167640000Y-89489997D03*
D16*
X177710000Y-80350000D03*
X177710000Y-81310000D03*
D24*
X182560000Y-85990000D03*
X183580000Y-85990000D03*
D22*
X184480000Y-74420000D03*
X184480000Y-73400000D03*
D33*
X169520000Y-77015000D03*
X169520000Y-75465000D03*
D24*
X171480000Y-73210000D03*
X172500000Y-73210000D03*
M02*
