G04 #@! TF.GenerationSoftware,KiCad,Pcbnew,8.0.0-rc1*
G04 #@! TF.CreationDate,2025-03-22T13:15:10+03:00*
G04 #@! TF.ProjectId,Movita_CM4_CT_Router_V1.0,4d6f7669-7461-45f4-934d-345f43545f52,REV1*
G04 #@! TF.SameCoordinates,Original*
G04 #@! TF.FileFunction,Other,User*
%FSLAX46Y46*%
G04 Gerber Fmt 4.6, Leading zero omitted, Abs format (unit mm)*
G04 Created by KiCad (PCBNEW 8.0.0-rc1) date 2025-03-22 13:15:10*
%MOMM*%
%LPD*%
G01*
G04 APERTURE LIST*
%ADD10C,0.050000*%
%ADD11C,0.100000*%
G04 APERTURE END LIST*
D10*
X122093767Y-94124190D02*
X130593767Y-94124190D01*
X130593767Y-102344190D01*
X122093767Y-102344190D01*
X122093767Y-94124190D01*
X131082030Y-115852454D02*
X131082030Y-109902454D01*
X126482030Y-117102454D02*
X126482030Y-115852454D01*
X131082030Y-109902454D02*
X129932030Y-108752454D01*
X128582030Y-115852454D02*
X128582030Y-117102454D01*
X123982030Y-115852454D02*
X123982030Y-109902454D01*
X126482030Y-107502454D02*
X126482030Y-108752454D01*
X123982030Y-109902454D02*
X125132030Y-108752454D01*
X129932030Y-108752454D02*
X128582030Y-108752454D01*
X128582030Y-107502454D02*
X126482030Y-107502454D01*
X131082030Y-115852454D02*
X128582030Y-115852454D01*
X126482030Y-108752454D02*
X125132030Y-108752454D01*
X128582030Y-108752454D02*
X128582030Y-107502454D01*
X126482030Y-115852454D02*
X123982030Y-115852454D01*
X128582030Y-117102454D02*
X126482030Y-117102454D01*
X123712030Y-108142454D02*
X119312030Y-108142454D01*
X119312030Y-113342454D02*
X119312030Y-108142454D01*
X123712030Y-113342454D02*
X123712030Y-108142454D01*
X123712030Y-113342454D02*
X119312030Y-113342454D01*
X117602030Y-104412454D02*
X121902030Y-104412454D01*
X121902030Y-104412454D02*
X121902030Y-108012454D01*
X117602030Y-108012454D02*
X117602030Y-104412454D01*
X121902030Y-108012454D02*
X117602030Y-108012454D01*
X131819530Y-105152454D02*
X136379530Y-105152454D01*
X136379530Y-107392454D02*
X131819530Y-107392454D01*
X136379530Y-105152454D02*
X136379530Y-107392454D01*
X131819530Y-107392454D02*
X131819530Y-105152454D01*
X131819530Y-112122454D02*
X136379530Y-112122454D01*
X136379530Y-114362454D02*
X131819530Y-114362454D01*
X136379530Y-112122454D02*
X136379530Y-114362454D01*
X131819530Y-114362454D02*
X131819530Y-112122454D01*
X131819530Y-109802454D02*
X136379530Y-109802454D01*
X136379530Y-112042454D02*
X131819530Y-112042454D01*
X136379530Y-109802454D02*
X136379530Y-112042454D01*
X131819530Y-112042454D02*
X131819530Y-109802454D01*
X131809530Y-107462454D02*
X136369530Y-107462454D01*
X136369530Y-109702454D02*
X131809530Y-109702454D01*
X136369530Y-107462454D02*
X136369530Y-109702454D01*
X131809530Y-109702454D02*
X131809530Y-107462454D01*
X114522030Y-102932454D02*
X117482030Y-102932454D01*
X114522030Y-104392454D02*
X114522030Y-102932454D01*
X117482030Y-102932454D02*
X117482030Y-104392454D01*
X117482030Y-104392454D02*
X114522030Y-104392454D01*
X117482030Y-105962454D02*
X114522030Y-105962454D01*
X117482030Y-104502454D02*
X117482030Y-105962454D01*
X114522030Y-105962454D02*
X114522030Y-104502454D01*
X114522030Y-104502454D02*
X117482030Y-104502454D01*
X129727030Y-104412454D02*
X129727030Y-107372454D01*
X128267030Y-104412454D02*
X129727030Y-104412454D01*
X129727030Y-107372454D02*
X128267030Y-107372454D01*
X128267030Y-107372454D02*
X128267030Y-104412454D01*
X122022030Y-107367454D02*
X122022030Y-104407454D01*
X123482030Y-107367454D02*
X122022030Y-107367454D01*
X122022030Y-104407454D02*
X123482030Y-104407454D01*
X123482030Y-104407454D02*
X123482030Y-107367454D01*
X125052030Y-104232454D02*
X122092030Y-104232454D01*
X125052030Y-102772454D02*
X125052030Y-104232454D01*
X122092030Y-104232454D02*
X122092030Y-102772454D01*
X122092030Y-102772454D02*
X125052030Y-102772454D01*
X111472030Y-107582454D02*
X114432030Y-107582454D01*
X114432030Y-109042454D02*
X111472030Y-109042454D01*
X114432030Y-107582454D02*
X114432030Y-109042454D01*
X111472030Y-109042454D02*
X111472030Y-107582454D01*
X117502030Y-107602454D02*
X117502030Y-109062454D01*
X114542030Y-109062454D02*
X114542030Y-107602454D01*
X114542030Y-107602454D02*
X117502030Y-107602454D01*
X117502030Y-109062454D02*
X114542030Y-109062454D01*
X111472030Y-107492454D02*
X111472030Y-106032454D01*
X114432030Y-106032454D02*
X114432030Y-107492454D01*
X114432030Y-107492454D02*
X111472030Y-107492454D01*
X111472030Y-106032454D02*
X114432030Y-106032454D01*
X111472030Y-105912454D02*
X111472030Y-104452454D01*
X114432030Y-104452454D02*
X114432030Y-105912454D01*
X114432030Y-105912454D02*
X111472030Y-105912454D01*
X111472030Y-104452454D02*
X114432030Y-104452454D01*
X117502030Y-106032454D02*
X117502030Y-107492454D01*
X114542030Y-107492454D02*
X114542030Y-106032454D01*
X114542030Y-106032454D02*
X117502030Y-106032454D01*
X117502030Y-107492454D02*
X114542030Y-107492454D01*
X117722030Y-108122454D02*
X119182030Y-108122454D01*
X119182030Y-111082454D02*
X117722030Y-111082454D01*
X117722030Y-111082454D02*
X117722030Y-108122454D01*
X119182030Y-108122454D02*
X119182030Y-111082454D01*
X125052030Y-104407454D02*
X125052030Y-107367454D01*
X123592030Y-107367454D02*
X123592030Y-104407454D01*
X125052030Y-107367454D02*
X123592030Y-107367454D01*
X123592030Y-104407454D02*
X125052030Y-104407454D01*
X128142030Y-104417454D02*
X128142030Y-107377454D01*
X126682030Y-107377454D02*
X126682030Y-104417454D01*
X128142030Y-107377454D02*
X126682030Y-107377454D01*
X126682030Y-104417454D02*
X128142030Y-104417454D01*
X126592030Y-104417454D02*
X126592030Y-107377454D01*
X125132030Y-107377454D02*
X125132030Y-104417454D01*
X126592030Y-107377454D02*
X125132030Y-107377454D01*
X125132030Y-104417454D02*
X126592030Y-104417454D01*
X197293767Y-104414190D02*
X198753767Y-104414190D01*
X197293767Y-107374190D02*
X197293767Y-104414190D01*
X198753767Y-104414190D02*
X198753767Y-107374190D01*
X198753767Y-107374190D02*
X197293767Y-107374190D01*
X136413767Y-102346690D02*
X139373767Y-102346690D01*
X136413767Y-103806690D02*
X136413767Y-102346690D01*
X139373767Y-102346690D02*
X139373767Y-103806690D01*
X139373767Y-103806690D02*
X136413767Y-103806690D01*
X181013767Y-96144190D02*
X181933767Y-96144190D01*
X181013767Y-97964190D02*
X181013767Y-96144190D01*
X181933767Y-96144190D02*
X181933767Y-97964190D01*
X181933767Y-97964190D02*
X181013767Y-97964190D01*
X175471267Y-104616690D02*
X177291267Y-104616690D01*
X175471267Y-105536690D02*
X175471267Y-104616690D01*
X177291267Y-104616690D02*
X177291267Y-105536690D01*
X177291267Y-105536690D02*
X175471267Y-105536690D01*
X114948767Y-97156190D02*
X116408767Y-97156190D01*
X114948767Y-100116190D02*
X114948767Y-97156190D01*
X116408767Y-97156190D02*
X116408767Y-100116190D01*
X116408767Y-100116190D02*
X114948767Y-100116190D01*
X201128767Y-89264190D02*
X204088767Y-89264190D01*
X201128767Y-90724190D02*
X201128767Y-89264190D01*
X204088767Y-89264190D02*
X204088767Y-90724190D01*
X204088767Y-90724190D02*
X201128767Y-90724190D01*
X114583767Y-114544190D02*
X117543767Y-114544190D01*
X114583767Y-116004190D02*
X114583767Y-114544190D01*
X117543767Y-114544190D02*
X117543767Y-116004190D01*
X117543767Y-116004190D02*
X114583767Y-116004190D01*
X183083767Y-96144190D02*
X184003767Y-96144190D01*
X183083767Y-97964190D02*
X183083767Y-96144190D01*
X184003767Y-96144190D02*
X184003767Y-97964190D01*
X184003767Y-97964190D02*
X183083767Y-97964190D01*
X174562030Y-92162454D02*
X175502030Y-92162454D01*
X174562030Y-94022454D02*
X174562030Y-92162454D01*
X175502030Y-92162454D02*
X175502030Y-94022454D01*
X175502030Y-94022454D02*
X174562030Y-94022454D01*
X161278767Y-103514190D02*
X164238767Y-103514190D01*
X161278767Y-104974190D02*
X161278767Y-103514190D01*
X164238767Y-103514190D02*
X164238767Y-104974190D01*
X164238767Y-104974190D02*
X161278767Y-104974190D01*
X114583767Y-116054190D02*
X117543767Y-116054190D01*
X114583767Y-117514190D02*
X114583767Y-116054190D01*
X117543767Y-116054190D02*
X117543767Y-117514190D01*
X117543767Y-117514190D02*
X114583767Y-117514190D01*
X114583767Y-113004190D02*
X117543767Y-113004190D01*
X114583767Y-114464190D02*
X114583767Y-113004190D01*
X117543767Y-113004190D02*
X117543767Y-114464190D01*
X117543767Y-114464190D02*
X114583767Y-114464190D01*
X116518767Y-97146190D02*
X117978767Y-97146190D01*
X116518767Y-100106190D02*
X116518767Y-97146190D01*
X117978767Y-97146190D02*
X117978767Y-100106190D01*
X117978767Y-100106190D02*
X116518767Y-100106190D01*
X125782030Y-91082454D02*
X130382030Y-91082454D01*
X125782030Y-93382454D02*
X125782030Y-91082454D01*
X130382030Y-91082454D02*
X130382030Y-93382454D01*
X130382030Y-93382454D02*
X125782030Y-93382454D01*
X191203767Y-104274190D02*
X192663767Y-104274190D01*
X191203767Y-107234190D02*
X191203767Y-104274190D01*
X192663767Y-104274190D02*
X192663767Y-107234190D01*
X192663767Y-107234190D02*
X191203767Y-107234190D01*
X140433767Y-99764190D02*
X143393767Y-99764190D01*
X140433767Y-101224190D02*
X140433767Y-99764190D01*
X143393767Y-99764190D02*
X143393767Y-101224190D01*
X143393767Y-101224190D02*
X140433767Y-101224190D01*
X218573767Y-83654190D02*
X218573767Y-99154190D01*
X218573767Y-99154190D02*
X220073767Y-99154190D01*
X220073767Y-83654190D02*
X218573767Y-83654190D01*
X220073767Y-84654190D02*
X220073767Y-83654190D01*
X220073767Y-98154190D02*
X227323767Y-98154190D01*
X220073767Y-99154190D02*
X220073767Y-98154190D01*
X227323767Y-83654190D02*
X227323767Y-84654190D01*
X227323767Y-83654190D02*
X228623767Y-82754190D01*
X227323767Y-84654190D02*
X220073767Y-84654190D01*
X227323767Y-99154190D02*
X227323767Y-98154190D01*
X227323767Y-99154190D02*
X228623767Y-100054190D01*
X228623767Y-82754190D02*
X230073767Y-82754190D01*
X230073767Y-100054190D02*
X228623767Y-100054190D01*
X231373767Y-83654190D02*
X230073767Y-82754190D01*
X231373767Y-83654190D02*
X231373767Y-84654190D01*
X231373767Y-99154190D02*
X230073767Y-100054190D01*
X231373767Y-99154190D02*
X231373767Y-98154190D01*
X233573767Y-84654190D02*
X231373767Y-84654190D01*
X233573767Y-98154190D02*
X231373767Y-98154190D01*
X233573767Y-98154190D02*
X233573767Y-84654190D01*
X202833767Y-108174190D02*
G75*
G02*
X200833767Y-108174190I-1000000J0D01*
G01*
X200833767Y-108174190D02*
G75*
G02*
X202833767Y-108174190I1000000J0D01*
G01*
X161278767Y-100414190D02*
X164238767Y-100414190D01*
X161278767Y-101874190D02*
X161278767Y-100414190D01*
X164238767Y-100414190D02*
X164238767Y-101874190D01*
X164238767Y-101874190D02*
X161278767Y-101874190D01*
X187993767Y-101024190D02*
X189813767Y-101024190D01*
X187993767Y-101944190D02*
X187993767Y-101024190D01*
X189813767Y-101024190D02*
X189813767Y-101944190D01*
X189813767Y-101944190D02*
X187993767Y-101944190D01*
X119502030Y-100202454D02*
X119502030Y-101662454D01*
X116542030Y-100202454D02*
X119502030Y-100202454D01*
X119502030Y-101662454D02*
X116542030Y-101662454D01*
X116542030Y-101662454D02*
X116542030Y-100202454D01*
X148453767Y-97764190D02*
X148453767Y-108874190D01*
X148453767Y-108874190D02*
X153053767Y-108874190D01*
X153053767Y-97764190D02*
X148453767Y-97764190D01*
X153053767Y-108874190D02*
X153053767Y-97764190D01*
X118078767Y-97136190D02*
X119538767Y-97136190D01*
X118078767Y-100096190D02*
X118078767Y-97136190D01*
X119538767Y-97136190D02*
X119538767Y-100096190D01*
X119538767Y-100096190D02*
X118078767Y-100096190D01*
X119152030Y-86452454D02*
X120612030Y-86452454D01*
X119152030Y-89412454D02*
X119152030Y-86452454D01*
X120612030Y-86452454D02*
X120612030Y-89412454D01*
X120612030Y-89412454D02*
X119152030Y-89412454D01*
X180003767Y-96134190D02*
X180923767Y-96134190D01*
X180003767Y-97954190D02*
X180003767Y-96134190D01*
X180923767Y-96134190D02*
X180923767Y-97954190D01*
X180923767Y-97954190D02*
X180003767Y-97954190D01*
X175409530Y-101094954D02*
X177269530Y-101094954D01*
X175409530Y-102034954D02*
X175409530Y-101094954D01*
X177269530Y-101094954D02*
X177269530Y-102034954D01*
X177269530Y-102034954D02*
X175409530Y-102034954D01*
X153793767Y-90404190D02*
X156753767Y-90404190D01*
X153793767Y-91864190D02*
X153793767Y-90404190D01*
X156753767Y-90404190D02*
X156753767Y-91864190D01*
X156753767Y-91864190D02*
X153793767Y-91864190D01*
X164403767Y-103574190D02*
X166803767Y-103574190D01*
X166803767Y-108024190D01*
X164403767Y-108024190D01*
X164403767Y-103574190D01*
X201128767Y-90804190D02*
X204088767Y-90804190D01*
X201128767Y-92264190D02*
X201128767Y-90804190D01*
X204088767Y-90804190D02*
X204088767Y-92264190D01*
X204088767Y-92264190D02*
X201128767Y-92264190D01*
X138873767Y-95716690D02*
X140333767Y-95716690D01*
X138873767Y-98676690D02*
X138873767Y-95716690D01*
X140333767Y-95716690D02*
X140333767Y-98676690D01*
X140333767Y-98676690D02*
X138873767Y-98676690D01*
X202833767Y-103234190D02*
G75*
G02*
X200833767Y-103234190I-1000000J0D01*
G01*
X200833767Y-103234190D02*
G75*
G02*
X202833767Y-103234190I1000000J0D01*
G01*
X112242030Y-117797454D02*
X112242030Y-132247454D01*
X112242030Y-132247454D02*
X118642030Y-132247454D01*
X118642030Y-117797454D02*
X112242030Y-117797454D01*
X118642030Y-132247454D02*
X118642030Y-117797454D01*
X187983767Y-102034190D02*
X189803767Y-102034190D01*
X187983767Y-102954190D02*
X187983767Y-102034190D01*
X189803767Y-102034190D02*
X189803767Y-102954190D01*
X189803767Y-102954190D02*
X187983767Y-102954190D01*
X190313767Y-92034190D02*
X192133767Y-92034190D01*
X190313767Y-92954190D02*
X190313767Y-92034190D01*
X192133767Y-92034190D02*
X192133767Y-92954190D01*
X192133767Y-92954190D02*
X190313767Y-92954190D01*
X175481267Y-103626690D02*
X177301267Y-103626690D01*
X175481267Y-104546690D02*
X175481267Y-103626690D01*
X177301267Y-103626690D02*
X177301267Y-104546690D01*
X177301267Y-104546690D02*
X175481267Y-104546690D01*
X161318767Y-106704190D02*
X164278767Y-106704190D01*
X161318767Y-108164190D02*
X161318767Y-106704190D01*
X164278767Y-106704190D02*
X164278767Y-108164190D01*
X164278767Y-108164190D02*
X161318767Y-108164190D01*
X113348767Y-97156190D02*
X114808767Y-97156190D01*
X113348767Y-100116190D02*
X113348767Y-97156190D01*
X114808767Y-97156190D02*
X114808767Y-100116190D01*
X114808767Y-100116190D02*
X113348767Y-100116190D01*
X113312030Y-90772454D02*
X114772030Y-90772454D01*
X113312030Y-93732454D02*
X113312030Y-90772454D01*
X114772030Y-90772454D02*
X114772030Y-93732454D01*
X114772030Y-93732454D02*
X113312030Y-93732454D01*
X140503767Y-96549190D02*
X143503767Y-96549190D01*
X140503767Y-99699190D02*
X140503767Y-96549190D01*
X140503767Y-99699190D02*
X143503767Y-99699190D01*
X143503767Y-99699190D02*
X143503767Y-96549190D01*
X188032030Y-105622454D02*
X189852030Y-105622454D01*
X188032030Y-106542454D02*
X188032030Y-105622454D01*
X189852030Y-105622454D02*
X189852030Y-106542454D01*
X189852030Y-106542454D02*
X188032030Y-106542454D01*
D11*
X222058767Y-108089190D02*
X233712767Y-108089190D01*
X222058767Y-132264190D02*
X222058767Y-108089190D01*
X233712767Y-108089190D02*
X233712767Y-132264190D01*
X233712767Y-132264190D02*
X222058767Y-132264190D01*
D10*
X215368767Y-104424190D02*
X218328767Y-104424190D01*
X215368767Y-105884190D02*
X215368767Y-104424190D01*
X218328767Y-104424190D02*
X218328767Y-105884190D01*
X218328767Y-105884190D02*
X215368767Y-105884190D01*
X202833767Y-101174190D02*
G75*
G02*
X200833767Y-101174190I-1000000J0D01*
G01*
X200833767Y-101174190D02*
G75*
G02*
X202833767Y-101174190I1000000J0D01*
G01*
X141793767Y-85124190D02*
X144753767Y-85124190D01*
X141793767Y-86584190D02*
X141793767Y-85124190D01*
X144753767Y-85124190D02*
X144753767Y-86584190D01*
X144753767Y-86584190D02*
X141793767Y-86584190D01*
X136223767Y-98786690D02*
X136223767Y-102186690D01*
X136223767Y-102186690D02*
X140323767Y-102186690D01*
X140323767Y-98786690D02*
X136223767Y-98786690D01*
X140323767Y-102186690D02*
X140323767Y-98786690D01*
X134203767Y-95726690D02*
X135663767Y-95726690D01*
X134203767Y-98686690D02*
X134203767Y-95726690D01*
X135663767Y-95726690D02*
X135663767Y-98686690D01*
X135663767Y-98686690D02*
X134203767Y-98686690D01*
X175623767Y-107984190D02*
X177483767Y-107984190D01*
X175623767Y-108924190D02*
X175623767Y-107984190D01*
X177483767Y-107984190D02*
X177483767Y-108924190D01*
X177483767Y-108924190D02*
X175623767Y-108924190D01*
X193938767Y-91789190D02*
X196898767Y-91789190D01*
X193938767Y-93249190D02*
X193938767Y-91789190D01*
X196898767Y-91789190D02*
X196898767Y-93249190D01*
X196898767Y-93249190D02*
X193938767Y-93249190D01*
X145773767Y-96614190D02*
X147233767Y-96614190D01*
X145773767Y-99574190D02*
X145773767Y-96614190D01*
X147233767Y-96614190D02*
X147233767Y-99574190D01*
X147233767Y-99574190D02*
X145773767Y-99574190D01*
X178593767Y-99956690D02*
X178593767Y-108196690D01*
X178593767Y-108196690D02*
X186833767Y-108196690D01*
X186833767Y-99956690D02*
X178593767Y-99956690D01*
X186833767Y-108196690D02*
X186833767Y-99956690D01*
X139742030Y-126362454D02*
X139742030Y-131862454D01*
X139742030Y-131862454D02*
X146642030Y-131862454D01*
X146642030Y-126362454D02*
X139742030Y-126362454D01*
X146642030Y-131862454D02*
X146642030Y-126362454D01*
X137323767Y-95726690D02*
X138783767Y-95726690D01*
X137323767Y-98686690D02*
X137323767Y-95726690D01*
X138783767Y-95726690D02*
X138783767Y-98686690D01*
X138783767Y-98686690D02*
X137323767Y-98686690D01*
X161278767Y-101944190D02*
X164238767Y-101944190D01*
X161278767Y-103404190D02*
X161278767Y-101944190D01*
X164238767Y-101944190D02*
X164238767Y-103404190D01*
X164238767Y-103404190D02*
X161278767Y-103404190D01*
X215368767Y-105974190D02*
X218328767Y-105974190D01*
X215368767Y-107434190D02*
X215368767Y-105974190D01*
X218328767Y-105974190D02*
X218328767Y-107434190D01*
X218328767Y-107434190D02*
X215368767Y-107434190D01*
X143883767Y-96604190D02*
X145343767Y-96604190D01*
X143883767Y-99564190D02*
X143883767Y-96604190D01*
X145343767Y-96604190D02*
X145343767Y-99564190D01*
X145343767Y-99564190D02*
X143883767Y-99564190D01*
X192923767Y-104114190D02*
X192923767Y-107514190D01*
X192923767Y-107514190D02*
X197123767Y-107514190D01*
X197123767Y-104114190D02*
X192923767Y-104114190D01*
X197123767Y-107514190D02*
X197123767Y-104114190D01*
X119628767Y-97136190D02*
X121088767Y-97136190D01*
X119628767Y-100096190D02*
X119628767Y-97136190D01*
X121088767Y-97136190D02*
X121088767Y-100096190D01*
X121088767Y-100096190D02*
X119628767Y-100096190D01*
X215358767Y-102884190D02*
X218318767Y-102884190D01*
X215358767Y-104344190D02*
X215358767Y-102884190D01*
X218318767Y-102884190D02*
X218318767Y-104344190D01*
X218318767Y-104344190D02*
X215358767Y-104344190D01*
X175402030Y-102132454D02*
X177262030Y-102132454D01*
X175402030Y-103072454D02*
X175402030Y-102132454D01*
X177262030Y-102132454D02*
X177262030Y-103072454D01*
X177262030Y-103072454D02*
X175402030Y-103072454D01*
X113298767Y-93881190D02*
X114758767Y-93881190D01*
X113298767Y-96841190D02*
X113298767Y-93881190D01*
X114758767Y-93881190D02*
X114758767Y-96841190D01*
X114758767Y-96841190D02*
X113298767Y-96841190D01*
X193803767Y-107734190D02*
X196763767Y-107734190D01*
X193803767Y-109194190D02*
X193803767Y-107734190D01*
X196763767Y-107734190D02*
X196763767Y-109194190D01*
X196763767Y-109194190D02*
X193803767Y-109194190D01*
X153793767Y-88874190D02*
X156753767Y-88874190D01*
X153793767Y-90334190D02*
X153793767Y-88874190D01*
X156753767Y-88874190D02*
X156753767Y-90334190D01*
X156753767Y-90334190D02*
X153793767Y-90334190D01*
X161298767Y-105134190D02*
X164258767Y-105134190D01*
X161298767Y-106594190D02*
X161298767Y-105134190D01*
X164258767Y-105134190D02*
X164258767Y-106594190D01*
X164258767Y-106594190D02*
X161298767Y-106594190D01*
X206483767Y-98681690D02*
X206483767Y-109081690D01*
X213383767Y-98681690D02*
X206483767Y-98681690D01*
X213383767Y-98681690D02*
X213383767Y-109081690D01*
X213383767Y-109081690D02*
X206483767Y-109081690D01*
X206683767Y-97084190D02*
X209643767Y-97084190D01*
X206683767Y-98544190D02*
X206683767Y-97084190D01*
X209643767Y-97084190D02*
X209643767Y-98544190D01*
X209643767Y-98544190D02*
X206683767Y-98544190D01*
X139383767Y-85134190D02*
X141683767Y-85134190D01*
X139383767Y-87534190D02*
X139383767Y-85134190D01*
X141683767Y-85134190D02*
X141683767Y-87534190D01*
X141683767Y-87534190D02*
X139383767Y-87534190D01*
X175592030Y-92212454D02*
X176512030Y-92212454D01*
X175592030Y-94032454D02*
X175592030Y-92212454D01*
X176512030Y-92212454D02*
X176512030Y-94032454D01*
X176512030Y-94032454D02*
X175592030Y-94032454D01*
X230722030Y-100282454D02*
X233722030Y-100282454D01*
X230722030Y-107282454D02*
X230722030Y-100282454D01*
X233722030Y-100282454D02*
X233722030Y-107282454D01*
X233722030Y-107282454D02*
X230722030Y-107282454D01*
X131668767Y-104844190D02*
X136118767Y-104844190D01*
X136118767Y-102444190D01*
X131668767Y-102444190D01*
X131668767Y-104844190D01*
X175473767Y-99024190D02*
X177333767Y-99024190D01*
X175473767Y-99964190D02*
X175473767Y-99024190D01*
X177333767Y-99024190D02*
X177333767Y-99964190D01*
X177333767Y-99964190D02*
X175473767Y-99964190D01*
X115093767Y-89529190D02*
X120593767Y-89529190D01*
X115093767Y-96979190D02*
X115093767Y-89529190D01*
X120593767Y-89529190D02*
X120593767Y-96979190D01*
X120593767Y-96979190D02*
X115093767Y-96979190D01*
X195602030Y-87412454D02*
X196522030Y-87412454D01*
X195602030Y-89232454D02*
X195602030Y-87412454D01*
X196522030Y-87412454D02*
X196522030Y-89232454D01*
X196522030Y-89232454D02*
X195602030Y-89232454D01*
X134173767Y-98816690D02*
X135873767Y-98816690D01*
X134173767Y-102316690D02*
X134173767Y-98816690D01*
X135873767Y-98816690D02*
X135873767Y-102316690D01*
X135873767Y-102316690D02*
X134173767Y-102316690D01*
X132553767Y-98824190D02*
X134013767Y-98824190D01*
X132553767Y-101784190D02*
X132553767Y-98824190D01*
X134013767Y-98824190D02*
X134013767Y-101784190D01*
X134013767Y-101784190D02*
X132553767Y-101784190D01*
X196602030Y-87412454D02*
X197522030Y-87412454D01*
X196602030Y-89232454D02*
X196602030Y-87412454D01*
X197522030Y-87412454D02*
X197522030Y-89232454D01*
X197522030Y-89232454D02*
X196602030Y-89232454D01*
X202833767Y-106064190D02*
G75*
G02*
X200833767Y-106064190I-1000000J0D01*
G01*
X200833767Y-106064190D02*
G75*
G02*
X202833767Y-106064190I1000000J0D01*
G01*
X215378767Y-102804190D02*
X218298767Y-102804190D01*
X218298767Y-100954190D01*
X215378767Y-100954190D01*
X215378767Y-102804190D01*
X135743767Y-95736690D02*
X137203767Y-95736690D01*
X135743767Y-98696690D02*
X135743767Y-95736690D01*
X137203767Y-95736690D02*
X137203767Y-98696690D01*
X137203767Y-98696690D02*
X135743767Y-98696690D01*
X178013767Y-96124190D02*
X178933767Y-96124190D01*
X178013767Y-97944190D02*
X178013767Y-96124190D01*
X178933767Y-96124190D02*
X178933767Y-97944190D01*
X178933767Y-97944190D02*
X178013767Y-97944190D01*
X215363767Y-99414190D02*
X218323767Y-99414190D01*
X215363767Y-100874190D02*
X215363767Y-99414190D01*
X218323767Y-99414190D02*
X218323767Y-100874190D01*
X218323767Y-100874190D02*
X215363767Y-100874190D01*
X153743767Y-103474190D02*
X153743767Y-108874190D01*
X153743767Y-108874190D02*
X161143767Y-108874190D01*
X161143767Y-103474190D02*
X153743767Y-103474190D01*
X161143767Y-108874190D02*
X161143767Y-103474190D01*
X188013767Y-104614190D02*
X189833767Y-104614190D01*
X188013767Y-105534190D02*
X188013767Y-104614190D01*
X189833767Y-104614190D02*
X189833767Y-105534190D01*
X189833767Y-105534190D02*
X188013767Y-105534190D01*
X120712030Y-91132454D02*
X125472030Y-91132454D01*
X120712030Y-93332454D02*
X120712030Y-91132454D01*
X125472030Y-91132454D02*
X125472030Y-93332454D01*
X125472030Y-93332454D02*
X120712030Y-93332454D01*
X190643767Y-93369190D02*
X190643767Y-99089190D01*
X190643767Y-99089190D02*
X199943767Y-99089190D01*
X199943767Y-93369190D02*
X190643767Y-93369190D01*
X199943767Y-99089190D02*
X199943767Y-93369190D01*
X164338767Y-101924190D02*
X167298767Y-101924190D01*
X164338767Y-103384190D02*
X164338767Y-101924190D01*
X167298767Y-101924190D02*
X167298767Y-103384190D01*
X167298767Y-103384190D02*
X164338767Y-103384190D01*
X146793767Y-105854190D02*
X148253767Y-105854190D01*
X146793767Y-108814190D02*
X146793767Y-105854190D01*
X148253767Y-105854190D02*
X148253767Y-108814190D01*
X148253767Y-108814190D02*
X146793767Y-108814190D01*
X179003767Y-96144190D02*
X179923767Y-96144190D01*
X179003767Y-97964190D02*
X179003767Y-96144190D01*
X179923767Y-96144190D02*
X179923767Y-97964190D01*
X179923767Y-97964190D02*
X179003767Y-97964190D01*
X175471267Y-98006690D02*
X177331267Y-98006690D01*
X175471267Y-98946690D02*
X175471267Y-98006690D01*
X177331267Y-98006690D02*
X177331267Y-98946690D01*
X177331267Y-98946690D02*
X175471267Y-98946690D01*
X215583767Y-98444190D02*
X217403767Y-98444190D01*
X215583767Y-99364190D02*
X215583767Y-98444190D01*
X217403767Y-98444190D02*
X217403767Y-99364190D01*
X217403767Y-99364190D02*
X215583767Y-99364190D01*
M02*
