M48
; DRILL file {KiCad 8.0.0-rc1} date 2025-03-22T13:15:12+0300
; FORMAT={-:-/ absolute / metric / decimal}
; #@! TF.CreationDate,2025-03-22T13:15:12+03:00
; #@! TF.GenerationSoftware,Kicad,Pcbnew,8.0.0-rc1
; #@! TF.FileFunction,Plated,1,6,PTH
FMAT,2
METRIC
; #@! TA.AperFunction,Plated,PTH,ViaDrill
T1C0.200
; #@! TA.AperFunction,Plated,PTH,ComponentDrill
T2C0.350
; #@! TA.AperFunction,Plated,PTH,ComponentDrill
T3C0.500
; #@! TA.AperFunction,Plated,PTH,ComponentDrill
T4C0.600
; #@! TA.AperFunction,Plated,PTH,ComponentDrill
T5C0.750
; #@! TA.AperFunction,Plated,PTH,ComponentDrill
T6C0.800
; #@! TA.AperFunction,Plated,PTH,ComponentDrill
T7C0.830
; #@! TA.AperFunction,Plated,PTH,ComponentDrill
T8C0.850
; #@! TA.AperFunction,Plated,PTH,ComponentDrill
T9C0.920
; #@! TA.AperFunction,Plated,PTH,ComponentDrill
T10C2.300
; #@! TA.AperFunction,Plated,PTH,ComponentDrill
T11C4.220
%
G90
G05
T1
X111.962Y-124.752
X111.982Y-125.372
X113.304Y-99.454
X114.404Y-115.264
X114.432Y-116.782
X115.034Y-93.394
X115.062Y-92.762
X115.242Y-112.312
X116.884Y-117.764
X116.962Y-87.672
X117.35Y-121.267
X117.634Y-115.244
X117.862Y-87.662
X118.484Y-91.502
X119.512Y-127.612
X119.684Y-100.884
X120.442Y-117.744
X121.434Y-97.794
X121.922Y-117.832
X123.562Y-107.592
X123.805Y-94.172
X124.472Y-107.602
X125.012Y-98.852
X125.052Y-101.192
X126.002Y-103.492
X128.872Y-95.352
X128.992Y-105.862
X129.502Y-95.352
X130.384Y-121.272
X130.732Y-127.652
X130.762Y-120.622
X132.224Y-98.254
X133.104Y-98.244
X134.632Y-95.182
X136.474Y-95.234
X136.752Y-106.272
X136.792Y-110.912
X136.792Y-113.262
X136.832Y-108.582
X138.054Y-95.164
X138.292Y-100.142
X138.657Y-121.406
X138.672Y-121.932
X139.262Y-124.182
X139.594Y-94.934
X140.566Y-85.004
X141.139Y-101.384
X142.144Y-84.994
X142.274Y-93.391
X142.274Y-93.918
X144.312Y-101.332
X145.134Y-85.854
X152.499Y-97.269
X159.082Y-91.342
X159.102Y-89.482
X159.862Y-91.342
X159.882Y-89.482
X159.919Y-109.186
X159.919Y-111.156
X160.702Y-91.342
X160.722Y-89.482
X162.252Y-91.342
X162.272Y-89.482
X162.334Y-130.104
X163.032Y-91.342
X163.052Y-89.482
X163.364Y-128.932
X163.872Y-91.342
X163.892Y-89.482
X165.572Y-115.182
X166.422Y-91.332
X166.442Y-89.472
X166.612Y-117.072
X166.914Y-104.224
X167.202Y-91.332
X167.222Y-89.472
X167.392Y-117.072
X167.784Y-112.842
X168.042Y-91.332
X168.062Y-89.472
X168.162Y-115.122
X168.232Y-117.072
X168.284Y-110.234
X169.21Y-110.894
X169.562Y-119.782
X169.662Y-117.072
X169.737Y-110.894
X170.342Y-119.782
X170.442Y-117.072
X170.632Y-128.962
X171.182Y-119.782
X171.282Y-117.072
X171.592Y-104.012
X172.302Y-97.852
X172.612Y-119.782
X173.602Y-103.032
X173.759Y-90.952
X174.262Y-102.602
X174.286Y-90.952
X174.874Y-116.464
X174.894Y-115.674
X175.022Y-91.342
X176.082Y-118.162
X176.082Y-118.942
X176.082Y-119.782
X176.102Y-120.582
X176.102Y-121.362
X176.102Y-122.202
X176.664Y-111.384
X176.694Y-112.334
X177.359Y-87.922
X177.886Y-87.922
X178.382Y-118.192
X178.382Y-118.972
X178.382Y-119.812
X178.392Y-120.562
X178.392Y-121.342
X178.392Y-122.182
X178.482Y-108.446
X178.559Y-90.244
X179.086Y-90.244
X179.514Y-110.544
X179.759Y-90.241
X180.152Y-118.192
X180.152Y-118.972
X180.152Y-119.812
X180.152Y-120.732
X180.152Y-121.512
X180.152Y-122.352
X180.164Y-99.154
X180.286Y-90.241
X180.394Y-110.564
X180.482Y-103.162
X180.502Y-104.882
X180.664Y-109.088
X180.674Y-98.294
X180.959Y-90.236
X181.392Y-118.102
X181.392Y-118.882
X181.392Y-119.722
X181.432Y-120.662
X181.432Y-121.442
X181.432Y-122.282
X181.486Y-90.236
X181.672Y-95.189
X181.672Y-95.716
X181.964Y-127.104
X181.964Y-127.954
X182.354Y-108.714
X182.408Y-91.028
X182.408Y-91.555
X182.442Y-93.349
X182.442Y-93.876
X182.512Y-106.382
X183.154Y-98.094
X183.272Y-122.342
X183.302Y-118.482
X183.302Y-119.262
X183.302Y-120.102
X183.312Y-120.752
X183.312Y-121.532
X183.382Y-128.282
X183.674Y-110.961
X183.674Y-111.488
X183.872Y-115.112
X184.212Y-128.392
X184.222Y-92.997
X185.172Y-115.122
X185.282Y-117.522
X185.282Y-118.362
X185.322Y-119.182
X185.322Y-119.962
X185.322Y-120.802
X185.432Y-92.997
X185.734Y-121.994
X186.442Y-115.102
X186.554Y-121.984
X186.632Y-92.997
X186.972Y-117.242
X187.344Y-121.974
X187.424Y-101.474
X187.434Y-105.074
X187.692Y-115.362
X187.782Y-118.042
X187.822Y-92.997
X188.422Y-118.942
X188.422Y-119.782
X188.422Y-120.562
X188.464Y-121.334
X188.632Y-115.872
X189.047Y-92.997
X189.254Y-127.074
X189.322Y-116.582
X190.004Y-127.064
X190.024Y-122.344
X190.182Y-117.402
X190.202Y-118.332
X190.212Y-92.997
X190.212Y-120.292
X190.232Y-119.352
X190.542Y-101.992
X190.824Y-122.344
X191.292Y-114.032
X191.292Y-114.872
X191.292Y-115.652
X192.224Y-128.204
X192.614Y-125.324
X193.342Y-114.032
X193.342Y-114.872
X193.342Y-115.652
X193.482Y-101.472
X193.482Y-102.312
X193.482Y-103.092
X193.792Y-92.494
X194.442Y-94.149
X195.452Y-114.042
X195.452Y-114.882
X195.452Y-115.662
X195.482Y-101.472
X195.482Y-102.312
X195.482Y-103.092
X195.684Y-127.954
X196.092Y-120.162
X196.102Y-122.192
X196.299Y-90.06
X196.826Y-90.06
X196.872Y-120.162
X196.882Y-122.192
X197.252Y-101.482
X197.252Y-102.262
X197.252Y-103.102
X197.254Y-127.964
X197.422Y-114.032
X197.422Y-114.872
X197.422Y-115.652
X197.712Y-120.162
X197.722Y-122.192
X199.152Y-122.192
X199.312Y-117.492
X199.512Y-120.122
X199.932Y-122.192
X200.092Y-117.492
X200.292Y-120.122
X200.772Y-122.192
X200.932Y-117.492
X201.132Y-120.122
X202.062Y-122.192
X202.362Y-117.492
X202.762Y-120.162
X202.842Y-122.192
X203.142Y-117.492
X203.542Y-120.162
X203.682Y-122.192
X203.762Y-93.852
X203.982Y-117.492
X204.382Y-120.162
X205.272Y-117.492
X205.772Y-120.162
X205.984Y-100.384
X206.052Y-117.492
X206.3Y-87.974
X206.552Y-120.162
X206.672Y-92.422
X206.827Y-87.974
X206.892Y-117.492
X207.392Y-120.162
X207.989Y-90.182
X208.516Y-90.182
X208.682Y-108.124
X208.844Y-124.054
X208.864Y-125.094
X210.814Y-106.404
X211.354Y-122.244
X211.412Y-127.672
X211.534Y-100.874
X211.564Y-102.324
X211.634Y-104.194
X211.644Y-91.141
X211.644Y-91.668
X211.832Y-93.832
X212.364Y-94.441
X212.364Y-94.968
X212.365Y-95.581
X212.365Y-96.108
X212.434Y-96.751
X212.434Y-97.278
X212.952Y-129.152
X213.052Y-117.492
X213.494Y-108.014
X213.679Y-101.659
X214.194Y-90.354
X214.374Y-98.744
X214.504Y-125.844
X215.204Y-108.204
X215.224Y-106.684
X215.224Y-109.734
X216.382Y-122.502
X218.504Y-100.134
X219.214Y-105.164
X219.374Y-101.904
X219.784Y-103.604
X220.764Y-122.984
X221.814Y-107.734
X221.814Y-108.994
X222.264Y-125.504
X222.284Y-126.594
X225.144Y-112.044
X225.324Y-126.004
X225.344Y-127.594
X229.142Y-120.192
X229.593Y-120.588
T2
X181.539Y-102.902
X181.539Y-104.077
X181.539Y-105.252
X182.714Y-102.902
X182.714Y-105.252
X183.889Y-102.902
X183.889Y-104.077
X183.889Y-105.252
T3
X149.454Y-108.074
X151.994Y-108.074
T4
X139.154Y-114.244
X139.904Y-112.394
X139.904Y-116.094
X141.754Y-111.644
X141.754Y-116.844
X143.604Y-112.394
X143.604Y-116.094
X144.354Y-114.244
X145.191Y-120.314
X145.941Y-118.464
X145.941Y-122.164
X147.791Y-117.714
X147.791Y-122.914
X149.641Y-118.464
X149.641Y-122.164
X150.391Y-120.314
X212.654Y-114.244
X213.404Y-112.394
X213.404Y-116.094
X215.254Y-111.644
X215.254Y-116.844
X217.104Y-112.394
X217.104Y-116.094
X217.854Y-114.244
T5
X125.422Y-86.002
X127.422Y-86.002
X142.192Y-128.562
X144.192Y-128.562
T6
X133.302Y-120.662
X133.302Y-122.662
X133.302Y-124.662
X133.302Y-126.662
X135.302Y-120.662
X135.302Y-122.662
X135.302Y-124.662
X135.302Y-126.662
X139.014Y-89.424
X139.014Y-91.424
X141.014Y-89.424
X141.014Y-91.424
X143.014Y-89.424
X143.014Y-91.424
X145.014Y-89.424
X145.014Y-91.424
X147.014Y-89.424
X147.014Y-91.424
X182.714Y-104.077
X232.222Y-101.782
X232.222Y-103.782
X232.222Y-105.782
T8
X212.924Y-87.718
X217.924Y-87.718
T9
X232.064Y-87.904
X232.064Y-90.404
X232.064Y-92.404
X232.064Y-94.904
T10
X229.354Y-84.834
X229.354Y-97.974
T11
X141.754Y-114.244
X147.791Y-120.314
X215.254Y-114.244
T3
G00X113.362Y-85.762
M15
G01X113.362Y-85.062
M16
G05
G00X113.362Y-89.562
M15
G01X113.362Y-88.862
M16
G05
G00X122.002Y-85.762
M15
G01X122.002Y-85.062
M16
G05
G00X122.002Y-89.562
M15
G01X122.002Y-88.862
M16
G05
T7
G00X211.799Y-85.273
M15
G01X211.799Y-84.803
M16
G05
G00X219.049Y-84.803
M15
G01X219.049Y-85.273
M16
G05
M30
