G04 #@! TF.GenerationSoftware,KiCad,Pcbnew,8.0.0-rc1*
G04 #@! TF.CreationDate,2025-04-08T13:29:49+03:00*
G04 #@! TF.ProjectId,ST_Board_V1.0,53545f42-6f61-4726-945f-56312e302e6b,rev?*
G04 #@! TF.SameCoordinates,Original*
G04 #@! TF.FileFunction,Legend,Top*
G04 #@! TF.FilePolarity,Positive*
%FSLAX46Y46*%
G04 Gerber Fmt 4.6, Leading zero omitted, Abs format (unit mm)*
G04 Created by KiCad (PCBNEW 8.0.0-rc1) date 2025-04-08 13:29:49*
%MOMM*%
%LPD*%
G01*
G04 APERTURE LIST*
G04 Aperture macros list*
%AMRoundRect*
0 Rectangle with rounded corners*
0 $1 Rounding radius*
0 $2 $3 $4 $5 $6 $7 $8 $9 X,Y pos of 4 corners*
0 Add a 4 corners polygon primitive as box body*
4,1,4,$2,$3,$4,$5,$6,$7,$8,$9,$2,$3,0*
0 Add four circle primitives for the rounded corners*
1,1,$1+$1,$2,$3*
1,1,$1+$1,$4,$5*
1,1,$1+$1,$6,$7*
1,1,$1+$1,$8,$9*
0 Add four rect primitives between the rounded corners*
20,1,$1+$1,$2,$3,$4,$5,0*
20,1,$1+$1,$4,$5,$6,$7,0*
20,1,$1+$1,$6,$7,$8,$9,0*
20,1,$1+$1,$8,$9,$2,$3,0*%
G04 Aperture macros list end*
%ADD10C,0.100000*%
%ADD11C,0.070000*%
%ADD12C,1.524000*%
%ADD13C,0.900000*%
%ADD14C,6.200000*%
%ADD15O,1.750000X1.200000*%
%ADD16RoundRect,0.250000X-0.625000X0.350000X-0.625000X-0.350000X0.625000X-0.350000X0.625000X0.350000X0*%
G04 APERTURE END LIST*
D10*
X155223333Y-99088180D02*
X155175714Y-99135800D01*
X155175714Y-99135800D02*
X155032857Y-99183419D01*
X155032857Y-99183419D02*
X154937619Y-99183419D01*
X154937619Y-99183419D02*
X154794762Y-99135800D01*
X154794762Y-99135800D02*
X154699524Y-99040561D01*
X154699524Y-99040561D02*
X154651905Y-98945323D01*
X154651905Y-98945323D02*
X154604286Y-98754847D01*
X154604286Y-98754847D02*
X154604286Y-98611990D01*
X154604286Y-98611990D02*
X154651905Y-98421514D01*
X154651905Y-98421514D02*
X154699524Y-98326276D01*
X154699524Y-98326276D02*
X154794762Y-98231038D01*
X154794762Y-98231038D02*
X154937619Y-98183419D01*
X154937619Y-98183419D02*
X155032857Y-98183419D01*
X155032857Y-98183419D02*
X155175714Y-98231038D01*
X155175714Y-98231038D02*
X155223333Y-98278657D01*
X156080476Y-98516752D02*
X156080476Y-99183419D01*
X155842381Y-98135800D02*
X155604286Y-98850085D01*
X155604286Y-98850085D02*
X156223333Y-98850085D01*
D11*
X172009999Y-89770931D02*
X172009999Y-90199502D01*
X172009999Y-90199502D02*
X171981428Y-90285217D01*
X171981428Y-90285217D02*
X171924285Y-90342360D01*
X171924285Y-90342360D02*
X171838571Y-90370931D01*
X171838571Y-90370931D02*
X171781428Y-90370931D01*
X172267142Y-89828074D02*
X172295714Y-89799502D01*
X172295714Y-89799502D02*
X172352857Y-89770931D01*
X172352857Y-89770931D02*
X172495714Y-89770931D01*
X172495714Y-89770931D02*
X172552857Y-89799502D01*
X172552857Y-89799502D02*
X172581428Y-89828074D01*
X172581428Y-89828074D02*
X172609999Y-89885217D01*
X172609999Y-89885217D02*
X172609999Y-89942360D01*
X172609999Y-89942360D02*
X172581428Y-90028074D01*
X172581428Y-90028074D02*
X172238571Y-90370931D01*
X172238571Y-90370931D02*
X172609999Y-90370931D01*
D10*
X164003333Y-98848180D02*
X163955714Y-98895800D01*
X163955714Y-98895800D02*
X163812857Y-98943419D01*
X163812857Y-98943419D02*
X163717619Y-98943419D01*
X163717619Y-98943419D02*
X163574762Y-98895800D01*
X163574762Y-98895800D02*
X163479524Y-98800561D01*
X163479524Y-98800561D02*
X163431905Y-98705323D01*
X163431905Y-98705323D02*
X163384286Y-98514847D01*
X163384286Y-98514847D02*
X163384286Y-98371990D01*
X163384286Y-98371990D02*
X163431905Y-98181514D01*
X163431905Y-98181514D02*
X163479524Y-98086276D01*
X163479524Y-98086276D02*
X163574762Y-97991038D01*
X163574762Y-97991038D02*
X163717619Y-97943419D01*
X163717619Y-97943419D02*
X163812857Y-97943419D01*
X163812857Y-97943419D02*
X163955714Y-97991038D01*
X163955714Y-97991038D02*
X164003333Y-98038657D01*
X164908095Y-97943419D02*
X164431905Y-97943419D01*
X164431905Y-97943419D02*
X164384286Y-98419609D01*
X164384286Y-98419609D02*
X164431905Y-98371990D01*
X164431905Y-98371990D02*
X164527143Y-98324371D01*
X164527143Y-98324371D02*
X164765238Y-98324371D01*
X164765238Y-98324371D02*
X164860476Y-98371990D01*
X164860476Y-98371990D02*
X164908095Y-98419609D01*
X164908095Y-98419609D02*
X164955714Y-98514847D01*
X164955714Y-98514847D02*
X164955714Y-98752942D01*
X164955714Y-98752942D02*
X164908095Y-98848180D01*
X164908095Y-98848180D02*
X164860476Y-98895800D01*
X164860476Y-98895800D02*
X164765238Y-98943419D01*
X164765238Y-98943419D02*
X164527143Y-98943419D01*
X164527143Y-98943419D02*
X164431905Y-98895800D01*
X164431905Y-98895800D02*
X164384286Y-98848180D01*
X137583333Y-99088180D02*
X137535714Y-99135800D01*
X137535714Y-99135800D02*
X137392857Y-99183419D01*
X137392857Y-99183419D02*
X137297619Y-99183419D01*
X137297619Y-99183419D02*
X137154762Y-99135800D01*
X137154762Y-99135800D02*
X137059524Y-99040561D01*
X137059524Y-99040561D02*
X137011905Y-98945323D01*
X137011905Y-98945323D02*
X136964286Y-98754847D01*
X136964286Y-98754847D02*
X136964286Y-98611990D01*
X136964286Y-98611990D02*
X137011905Y-98421514D01*
X137011905Y-98421514D02*
X137059524Y-98326276D01*
X137059524Y-98326276D02*
X137154762Y-98231038D01*
X137154762Y-98231038D02*
X137297619Y-98183419D01*
X137297619Y-98183419D02*
X137392857Y-98183419D01*
X137392857Y-98183419D02*
X137535714Y-98231038D01*
X137535714Y-98231038D02*
X137583333Y-98278657D01*
X137964286Y-98278657D02*
X138011905Y-98231038D01*
X138011905Y-98231038D02*
X138107143Y-98183419D01*
X138107143Y-98183419D02*
X138345238Y-98183419D01*
X138345238Y-98183419D02*
X138440476Y-98231038D01*
X138440476Y-98231038D02*
X138488095Y-98278657D01*
X138488095Y-98278657D02*
X138535714Y-98373895D01*
X138535714Y-98373895D02*
X138535714Y-98469133D01*
X138535714Y-98469133D02*
X138488095Y-98611990D01*
X138488095Y-98611990D02*
X137916667Y-99183419D01*
X137916667Y-99183419D02*
X138535714Y-99183419D01*
X146493333Y-99088180D02*
X146445714Y-99135800D01*
X146445714Y-99135800D02*
X146302857Y-99183419D01*
X146302857Y-99183419D02*
X146207619Y-99183419D01*
X146207619Y-99183419D02*
X146064762Y-99135800D01*
X146064762Y-99135800D02*
X145969524Y-99040561D01*
X145969524Y-99040561D02*
X145921905Y-98945323D01*
X145921905Y-98945323D02*
X145874286Y-98754847D01*
X145874286Y-98754847D02*
X145874286Y-98611990D01*
X145874286Y-98611990D02*
X145921905Y-98421514D01*
X145921905Y-98421514D02*
X145969524Y-98326276D01*
X145969524Y-98326276D02*
X146064762Y-98231038D01*
X146064762Y-98231038D02*
X146207619Y-98183419D01*
X146207619Y-98183419D02*
X146302857Y-98183419D01*
X146302857Y-98183419D02*
X146445714Y-98231038D01*
X146445714Y-98231038D02*
X146493333Y-98278657D01*
X146826667Y-98183419D02*
X147445714Y-98183419D01*
X147445714Y-98183419D02*
X147112381Y-98564371D01*
X147112381Y-98564371D02*
X147255238Y-98564371D01*
X147255238Y-98564371D02*
X147350476Y-98611990D01*
X147350476Y-98611990D02*
X147398095Y-98659609D01*
X147398095Y-98659609D02*
X147445714Y-98754847D01*
X147445714Y-98754847D02*
X147445714Y-98992942D01*
X147445714Y-98992942D02*
X147398095Y-99088180D01*
X147398095Y-99088180D02*
X147350476Y-99135800D01*
X147350476Y-99135800D02*
X147255238Y-99183419D01*
X147255238Y-99183419D02*
X146969524Y-99183419D01*
X146969524Y-99183419D02*
X146874286Y-99135800D01*
X146874286Y-99135800D02*
X146826667Y-99088180D01*
X128503333Y-99088180D02*
X128455714Y-99135800D01*
X128455714Y-99135800D02*
X128312857Y-99183419D01*
X128312857Y-99183419D02*
X128217619Y-99183419D01*
X128217619Y-99183419D02*
X128074762Y-99135800D01*
X128074762Y-99135800D02*
X127979524Y-99040561D01*
X127979524Y-99040561D02*
X127931905Y-98945323D01*
X127931905Y-98945323D02*
X127884286Y-98754847D01*
X127884286Y-98754847D02*
X127884286Y-98611990D01*
X127884286Y-98611990D02*
X127931905Y-98421514D01*
X127931905Y-98421514D02*
X127979524Y-98326276D01*
X127979524Y-98326276D02*
X128074762Y-98231038D01*
X128074762Y-98231038D02*
X128217619Y-98183419D01*
X128217619Y-98183419D02*
X128312857Y-98183419D01*
X128312857Y-98183419D02*
X128455714Y-98231038D01*
X128455714Y-98231038D02*
X128503333Y-98278657D01*
X129455714Y-99183419D02*
X128884286Y-99183419D01*
X129170000Y-99183419D02*
X129170000Y-98183419D01*
X129170000Y-98183419D02*
X129074762Y-98326276D01*
X129074762Y-98326276D02*
X128979524Y-98421514D01*
X128979524Y-98421514D02*
X128884286Y-98469133D01*
X153610000Y-101040000D02*
X153610000Y-99540000D01*
X157110000Y-101040000D02*
X157110000Y-99540000D01*
X151360000Y-79540000D02*
X159360000Y-79540000D01*
X159360000Y-99540000D01*
X151360000Y-99540000D01*
X151360000Y-79540000D01*
X162430000Y-101040000D02*
X162430000Y-99540000D01*
X165930000Y-101040000D02*
X165930000Y-99540000D01*
X160180000Y-79540000D02*
X168180000Y-79540000D01*
X168180000Y-99540000D01*
X160180000Y-99540000D01*
X160180000Y-79540000D01*
X135970000Y-101040000D02*
X135970000Y-99540000D01*
X139470000Y-101040000D02*
X139470000Y-99540000D01*
X133720000Y-79540000D02*
X141720000Y-79540000D01*
X141720000Y-99540000D01*
X133720000Y-99540000D01*
X133720000Y-79540000D01*
X144880000Y-101040000D02*
X144880000Y-99540000D01*
X148380000Y-101040000D02*
X148380000Y-99540000D01*
X142630000Y-79540000D02*
X150630000Y-79540000D01*
X150630000Y-99540000D01*
X142630000Y-99540000D01*
X142630000Y-79540000D01*
X126890000Y-101040000D02*
X126890000Y-99540000D01*
X130390000Y-101040000D02*
X130390000Y-99540000D01*
X124640000Y-79540000D02*
X132640000Y-79540000D01*
X132640000Y-99540000D01*
X124640000Y-99540000D01*
X124640000Y-79540000D01*
%LPC*%
D12*
X153610000Y-101040000D03*
X157110000Y-101040000D03*
D13*
X174827580Y-86212000D03*
X174077580Y-88062000D03*
X174077580Y-84362000D03*
X172227580Y-88812000D03*
D14*
X172227580Y-86212000D03*
D13*
X172227580Y-83612000D03*
X170377580Y-88062000D03*
X170377580Y-84362000D03*
X169627580Y-86212000D03*
D12*
X162430000Y-101040000D03*
X165930000Y-101040000D03*
X135970000Y-101040000D03*
X139470000Y-101040000D03*
X144880000Y-101040000D03*
X148380000Y-101040000D03*
X126890000Y-101040000D03*
X130390000Y-101040000D03*
D15*
X122150000Y-93457000D03*
D16*
X122150000Y-91457000D03*
%LPD*%
M02*
