M48
; DRILL file {KiCad 8.0.0-rc1} date 2025-04-08T13:29:51+0300
; FORMAT={-:-/ absolute / inch / decimal}
; #@! TF.CreationDate,2025-04-08T13:29:51+03:00
; #@! TF.GenerationSoftware,Kicad,Pcbnew,8.0.0-rc1
; #@! TF.FileFunction,Plated,1,2,PTH
FMAT,2
INCH
; #@! TA.AperFunction,Plated,PTH,ComponentDrill
T1C0.0236
; #@! TA.AperFunction,Plated,PTH,ComponentDrill
T2C0.0295
; #@! TA.AperFunction,Plated,PTH,ComponentDrill
T3C0.0300
; #@! TA.AperFunction,Plated,PTH,ComponentDrill
T4C0.1661
%
G90
G05
T1
X6.6783Y-3.3942
X6.7078Y-3.3213
X6.7078Y-3.467
X6.7806Y-3.2918
X6.7806Y-3.4965
X6.8534Y-3.3213
X6.8534Y-3.467
X6.883Y-3.3942
T2
X4.8091Y-3.6007
X4.8091Y-3.6794
T3
X4.9957Y-3.978
X5.1335Y-3.978
X5.3531Y-3.978
X5.4909Y-3.978
X5.7039Y-3.978
X5.8417Y-3.978
X6.0476Y-3.978
X6.1854Y-3.978
X6.3949Y-3.978
X6.5327Y-3.978
T4
X6.7806Y-3.3942
M30
