%TF.GenerationSoftware,KiCad,Pcbnew,8.0.0-rc1*%
%TF.CreationDate,2025-04-08T13:29:52+03:00*%
%TF.ProjectId,ST_Board_V1.0,53545f42-6f61-4726-945f-56312e302e6b,rev?*%
%TF.SameCoordinates,Original*%
%TF.FileFunction,Drillmap*%
%TF.FilePolarity,Positive*%
%FSLAX45Y45*%
G04 Gerber Fmt 4.5, Leading zero omitted, Abs format (unit mm)*
G04 Created by KiCad (PCBNEW 8.0.0-rc1) date 2025-04-08 13:29:52*
%MOMM*%
%LPD*%
G01*
G04 APERTURE LIST*
%ADD10C,0.150000*%
%ADD11C,0.200000*%
%ADD12C,0.100000*%
%ADD13C,0.422000*%
G04 APERTURE END LIST*
D10*
X12000000Y-10214000D02*
X12000000Y-7914000D01*
X17596000Y-7914000D02*
X17596000Y-10214000D01*
X17596000Y-10214000D02*
X12000000Y-10214000D01*
X12000000Y-7914000D02*
X17596000Y-7914000D01*
D11*
D12*
X16932758Y-8591200D02*
X16992758Y-8651200D01*
X16992758Y-8591200D02*
X16932758Y-8651200D01*
X17007758Y-8406200D02*
X17067758Y-8466200D01*
X17067758Y-8406200D02*
X17007758Y-8466200D01*
X17007758Y-8776200D02*
X17067758Y-8836200D01*
X17067758Y-8776200D02*
X17007758Y-8836200D01*
X17192758Y-8331200D02*
X17252758Y-8391200D01*
X17252758Y-8331200D02*
X17192758Y-8391200D01*
X17192758Y-8851200D02*
X17252758Y-8911200D01*
X17252758Y-8851200D02*
X17192758Y-8911200D01*
X17377758Y-8406200D02*
X17437758Y-8466200D01*
X17437758Y-8406200D02*
X17377758Y-8466200D01*
X17377758Y-8776200D02*
X17437758Y-8836200D01*
X17437758Y-8776200D02*
X17377758Y-8836200D01*
X17452758Y-8591200D02*
X17512758Y-8651200D01*
X17512758Y-8591200D02*
X17452758Y-8651200D01*
X12252500Y-9145700D02*
G75*
G02*
X12177500Y-9145700I-37500J0D01*
G01*
X12177500Y-9145700D02*
G75*
G02*
X12252500Y-9145700I37500J0D01*
G01*
X12252500Y-9345700D02*
G75*
G02*
X12177500Y-9345700I-37500J0D01*
G01*
X12177500Y-9345700D02*
G75*
G02*
X12252500Y-9345700I37500J0D01*
G01*
X12689000Y-10065900D02*
X12689000Y-10142100D01*
X12650900Y-10104000D02*
X12727100Y-10104000D01*
X13039000Y-10065900D02*
X13039000Y-10142100D01*
X13000900Y-10104000D02*
X13077100Y-10104000D01*
X13597000Y-10065900D02*
X13597000Y-10142100D01*
X13558900Y-10104000D02*
X13635100Y-10104000D01*
X13947000Y-10065900D02*
X13947000Y-10142100D01*
X13908900Y-10104000D02*
X13985100Y-10104000D01*
X14488000Y-10065900D02*
X14488000Y-10142100D01*
X14449900Y-10104000D02*
X14526100Y-10104000D01*
X14838000Y-10065900D02*
X14838000Y-10142100D01*
X14799900Y-10104000D02*
X14876100Y-10104000D01*
X15361000Y-10065900D02*
X15361000Y-10142100D01*
X15322900Y-10104000D02*
X15399100Y-10104000D01*
X15711000Y-10065900D02*
X15711000Y-10142100D01*
X15672900Y-10104000D02*
X15749100Y-10104000D01*
X16243000Y-10065900D02*
X16243000Y-10142100D01*
X16204900Y-10104000D02*
X16281100Y-10104000D01*
X16593000Y-10065900D02*
X16593000Y-10142100D01*
X16554900Y-10104000D02*
X16631100Y-10104000D01*
D13*
X17371959Y-8770401D02*
X17371959Y-8471999D01*
X17073557Y-8471999D01*
X17073557Y-8770401D01*
X17371959Y-8770401D01*
D11*
X12253277Y-10532984D02*
X12253277Y-10332984D01*
X12253277Y-10332984D02*
X12300896Y-10332984D01*
X12300896Y-10332984D02*
X12329467Y-10342508D01*
X12329467Y-10342508D02*
X12348515Y-10361555D01*
X12348515Y-10361555D02*
X12358039Y-10380603D01*
X12358039Y-10380603D02*
X12367562Y-10418698D01*
X12367562Y-10418698D02*
X12367562Y-10447270D01*
X12367562Y-10447270D02*
X12358039Y-10485365D01*
X12358039Y-10485365D02*
X12348515Y-10504412D01*
X12348515Y-10504412D02*
X12329467Y-10523460D01*
X12329467Y-10523460D02*
X12300896Y-10532984D01*
X12300896Y-10532984D02*
X12253277Y-10532984D01*
X12453277Y-10532984D02*
X12453277Y-10399650D01*
X12453277Y-10437746D02*
X12462801Y-10418698D01*
X12462801Y-10418698D02*
X12472324Y-10409174D01*
X12472324Y-10409174D02*
X12491372Y-10399650D01*
X12491372Y-10399650D02*
X12510420Y-10399650D01*
X12577086Y-10532984D02*
X12577086Y-10399650D01*
X12577086Y-10332984D02*
X12567562Y-10342508D01*
X12567562Y-10342508D02*
X12577086Y-10352031D01*
X12577086Y-10352031D02*
X12586610Y-10342508D01*
X12586610Y-10342508D02*
X12577086Y-10332984D01*
X12577086Y-10332984D02*
X12577086Y-10352031D01*
X12700896Y-10532984D02*
X12681848Y-10523460D01*
X12681848Y-10523460D02*
X12672324Y-10504412D01*
X12672324Y-10504412D02*
X12672324Y-10332984D01*
X12805658Y-10532984D02*
X12786610Y-10523460D01*
X12786610Y-10523460D02*
X12777086Y-10504412D01*
X12777086Y-10504412D02*
X12777086Y-10332984D01*
X13034229Y-10532984D02*
X13034229Y-10332984D01*
X13034229Y-10332984D02*
X13100896Y-10475841D01*
X13100896Y-10475841D02*
X13167562Y-10332984D01*
X13167562Y-10332984D02*
X13167562Y-10532984D01*
X13348515Y-10532984D02*
X13348515Y-10428222D01*
X13348515Y-10428222D02*
X13338991Y-10409174D01*
X13338991Y-10409174D02*
X13319943Y-10399650D01*
X13319943Y-10399650D02*
X13281848Y-10399650D01*
X13281848Y-10399650D02*
X13262801Y-10409174D01*
X13348515Y-10523460D02*
X13329467Y-10532984D01*
X13329467Y-10532984D02*
X13281848Y-10532984D01*
X13281848Y-10532984D02*
X13262801Y-10523460D01*
X13262801Y-10523460D02*
X13253277Y-10504412D01*
X13253277Y-10504412D02*
X13253277Y-10485365D01*
X13253277Y-10485365D02*
X13262801Y-10466317D01*
X13262801Y-10466317D02*
X13281848Y-10456793D01*
X13281848Y-10456793D02*
X13329467Y-10456793D01*
X13329467Y-10456793D02*
X13348515Y-10447270D01*
X13443753Y-10399650D02*
X13443753Y-10599650D01*
X13443753Y-10409174D02*
X13462801Y-10399650D01*
X13462801Y-10399650D02*
X13500896Y-10399650D01*
X13500896Y-10399650D02*
X13519943Y-10409174D01*
X13519943Y-10409174D02*
X13529467Y-10418698D01*
X13529467Y-10418698D02*
X13538991Y-10437746D01*
X13538991Y-10437746D02*
X13538991Y-10494889D01*
X13538991Y-10494889D02*
X13529467Y-10513936D01*
X13529467Y-10513936D02*
X13519943Y-10523460D01*
X13519943Y-10523460D02*
X13500896Y-10532984D01*
X13500896Y-10532984D02*
X13462801Y-10532984D01*
X13462801Y-10532984D02*
X13443753Y-10523460D01*
X13624705Y-10513936D02*
X13634229Y-10523460D01*
X13634229Y-10523460D02*
X13624705Y-10532984D01*
X13624705Y-10532984D02*
X13615182Y-10523460D01*
X13615182Y-10523460D02*
X13624705Y-10513936D01*
X13624705Y-10513936D02*
X13624705Y-10532984D01*
X13624705Y-10409174D02*
X13634229Y-10418698D01*
X13634229Y-10418698D02*
X13624705Y-10428222D01*
X13624705Y-10428222D02*
X13615182Y-10418698D01*
X13615182Y-10418698D02*
X13624705Y-10409174D01*
X13624705Y-10409174D02*
X13624705Y-10428222D01*
D12*
X11932500Y-10831500D02*
X11992500Y-10891500D01*
X11992500Y-10831500D02*
X11932500Y-10891500D01*
D11*
X12291372Y-10752984D02*
X12310420Y-10752984D01*
X12310420Y-10752984D02*
X12329467Y-10762508D01*
X12329467Y-10762508D02*
X12338991Y-10772031D01*
X12338991Y-10772031D02*
X12348515Y-10791079D01*
X12348515Y-10791079D02*
X12358039Y-10829174D01*
X12358039Y-10829174D02*
X12358039Y-10876793D01*
X12358039Y-10876793D02*
X12348515Y-10914889D01*
X12348515Y-10914889D02*
X12338991Y-10933936D01*
X12338991Y-10933936D02*
X12329467Y-10943460D01*
X12329467Y-10943460D02*
X12310420Y-10952984D01*
X12310420Y-10952984D02*
X12291372Y-10952984D01*
X12291372Y-10952984D02*
X12272324Y-10943460D01*
X12272324Y-10943460D02*
X12262801Y-10933936D01*
X12262801Y-10933936D02*
X12253277Y-10914889D01*
X12253277Y-10914889D02*
X12243753Y-10876793D01*
X12243753Y-10876793D02*
X12243753Y-10829174D01*
X12243753Y-10829174D02*
X12253277Y-10791079D01*
X12253277Y-10791079D02*
X12262801Y-10772031D01*
X12262801Y-10772031D02*
X12272324Y-10762508D01*
X12272324Y-10762508D02*
X12291372Y-10752984D01*
X12443753Y-10933936D02*
X12453277Y-10943460D01*
X12453277Y-10943460D02*
X12443753Y-10952984D01*
X12443753Y-10952984D02*
X12434229Y-10943460D01*
X12434229Y-10943460D02*
X12443753Y-10933936D01*
X12443753Y-10933936D02*
X12443753Y-10952984D01*
X12624705Y-10752984D02*
X12586610Y-10752984D01*
X12586610Y-10752984D02*
X12567562Y-10762508D01*
X12567562Y-10762508D02*
X12558039Y-10772031D01*
X12558039Y-10772031D02*
X12538991Y-10800603D01*
X12538991Y-10800603D02*
X12529467Y-10838698D01*
X12529467Y-10838698D02*
X12529467Y-10914889D01*
X12529467Y-10914889D02*
X12538991Y-10933936D01*
X12538991Y-10933936D02*
X12548515Y-10943460D01*
X12548515Y-10943460D02*
X12567562Y-10952984D01*
X12567562Y-10952984D02*
X12605658Y-10952984D01*
X12605658Y-10952984D02*
X12624705Y-10943460D01*
X12624705Y-10943460D02*
X12634229Y-10933936D01*
X12634229Y-10933936D02*
X12643753Y-10914889D01*
X12643753Y-10914889D02*
X12643753Y-10867270D01*
X12643753Y-10867270D02*
X12634229Y-10848222D01*
X12634229Y-10848222D02*
X12624705Y-10838698D01*
X12624705Y-10838698D02*
X12605658Y-10829174D01*
X12605658Y-10829174D02*
X12567562Y-10829174D01*
X12567562Y-10829174D02*
X12548515Y-10838698D01*
X12548515Y-10838698D02*
X12538991Y-10848222D01*
X12538991Y-10848222D02*
X12529467Y-10867270D01*
X12767562Y-10752984D02*
X12786610Y-10752984D01*
X12786610Y-10752984D02*
X12805658Y-10762508D01*
X12805658Y-10762508D02*
X12815182Y-10772031D01*
X12815182Y-10772031D02*
X12824705Y-10791079D01*
X12824705Y-10791079D02*
X12834229Y-10829174D01*
X12834229Y-10829174D02*
X12834229Y-10876793D01*
X12834229Y-10876793D02*
X12824705Y-10914889D01*
X12824705Y-10914889D02*
X12815182Y-10933936D01*
X12815182Y-10933936D02*
X12805658Y-10943460D01*
X12805658Y-10943460D02*
X12786610Y-10952984D01*
X12786610Y-10952984D02*
X12767562Y-10952984D01*
X12767562Y-10952984D02*
X12748515Y-10943460D01*
X12748515Y-10943460D02*
X12738991Y-10933936D01*
X12738991Y-10933936D02*
X12729467Y-10914889D01*
X12729467Y-10914889D02*
X12719943Y-10876793D01*
X12719943Y-10876793D02*
X12719943Y-10829174D01*
X12719943Y-10829174D02*
X12729467Y-10791079D01*
X12729467Y-10791079D02*
X12738991Y-10772031D01*
X12738991Y-10772031D02*
X12748515Y-10762508D01*
X12748515Y-10762508D02*
X12767562Y-10752984D01*
X12958039Y-10752984D02*
X12977086Y-10752984D01*
X12977086Y-10752984D02*
X12996134Y-10762508D01*
X12996134Y-10762508D02*
X13005658Y-10772031D01*
X13005658Y-10772031D02*
X13015182Y-10791079D01*
X13015182Y-10791079D02*
X13024705Y-10829174D01*
X13024705Y-10829174D02*
X13024705Y-10876793D01*
X13024705Y-10876793D02*
X13015182Y-10914889D01*
X13015182Y-10914889D02*
X13005658Y-10933936D01*
X13005658Y-10933936D02*
X12996134Y-10943460D01*
X12996134Y-10943460D02*
X12977086Y-10952984D01*
X12977086Y-10952984D02*
X12958039Y-10952984D01*
X12958039Y-10952984D02*
X12938991Y-10943460D01*
X12938991Y-10943460D02*
X12929467Y-10933936D01*
X12929467Y-10933936D02*
X12919943Y-10914889D01*
X12919943Y-10914889D02*
X12910420Y-10876793D01*
X12910420Y-10876793D02*
X12910420Y-10829174D01*
X12910420Y-10829174D02*
X12919943Y-10791079D01*
X12919943Y-10791079D02*
X12929467Y-10772031D01*
X12929467Y-10772031D02*
X12938991Y-10762508D01*
X12938991Y-10762508D02*
X12958039Y-10752984D01*
X13110420Y-10952984D02*
X13110420Y-10819650D01*
X13110420Y-10838698D02*
X13119943Y-10829174D01*
X13119943Y-10829174D02*
X13138991Y-10819650D01*
X13138991Y-10819650D02*
X13167563Y-10819650D01*
X13167563Y-10819650D02*
X13186610Y-10829174D01*
X13186610Y-10829174D02*
X13196134Y-10848222D01*
X13196134Y-10848222D02*
X13196134Y-10952984D01*
X13196134Y-10848222D02*
X13205658Y-10829174D01*
X13205658Y-10829174D02*
X13224705Y-10819650D01*
X13224705Y-10819650D02*
X13253277Y-10819650D01*
X13253277Y-10819650D02*
X13272324Y-10829174D01*
X13272324Y-10829174D02*
X13281848Y-10848222D01*
X13281848Y-10848222D02*
X13281848Y-10952984D01*
X13377086Y-10952984D02*
X13377086Y-10819650D01*
X13377086Y-10838698D02*
X13386610Y-10829174D01*
X13386610Y-10829174D02*
X13405658Y-10819650D01*
X13405658Y-10819650D02*
X13434229Y-10819650D01*
X13434229Y-10819650D02*
X13453277Y-10829174D01*
X13453277Y-10829174D02*
X13462801Y-10848222D01*
X13462801Y-10848222D02*
X13462801Y-10952984D01*
X13462801Y-10848222D02*
X13472324Y-10829174D01*
X13472324Y-10829174D02*
X13491372Y-10819650D01*
X13491372Y-10819650D02*
X13519943Y-10819650D01*
X13519943Y-10819650D02*
X13538991Y-10829174D01*
X13538991Y-10829174D02*
X13548515Y-10848222D01*
X13548515Y-10848222D02*
X13548515Y-10952984D01*
X13938991Y-10743460D02*
X13767563Y-11000603D01*
X14196134Y-10752984D02*
X14215182Y-10752984D01*
X14215182Y-10752984D02*
X14234229Y-10762508D01*
X14234229Y-10762508D02*
X14243753Y-10772031D01*
X14243753Y-10772031D02*
X14253277Y-10791079D01*
X14253277Y-10791079D02*
X14262801Y-10829174D01*
X14262801Y-10829174D02*
X14262801Y-10876793D01*
X14262801Y-10876793D02*
X14253277Y-10914889D01*
X14253277Y-10914889D02*
X14243753Y-10933936D01*
X14243753Y-10933936D02*
X14234229Y-10943460D01*
X14234229Y-10943460D02*
X14215182Y-10952984D01*
X14215182Y-10952984D02*
X14196134Y-10952984D01*
X14196134Y-10952984D02*
X14177086Y-10943460D01*
X14177086Y-10943460D02*
X14167563Y-10933936D01*
X14167563Y-10933936D02*
X14158039Y-10914889D01*
X14158039Y-10914889D02*
X14148515Y-10876793D01*
X14148515Y-10876793D02*
X14148515Y-10829174D01*
X14148515Y-10829174D02*
X14158039Y-10791079D01*
X14158039Y-10791079D02*
X14167563Y-10772031D01*
X14167563Y-10772031D02*
X14177086Y-10762508D01*
X14177086Y-10762508D02*
X14196134Y-10752984D01*
X14348515Y-10933936D02*
X14358039Y-10943460D01*
X14358039Y-10943460D02*
X14348515Y-10952984D01*
X14348515Y-10952984D02*
X14338991Y-10943460D01*
X14338991Y-10943460D02*
X14348515Y-10933936D01*
X14348515Y-10933936D02*
X14348515Y-10952984D01*
X14481848Y-10752984D02*
X14500896Y-10752984D01*
X14500896Y-10752984D02*
X14519944Y-10762508D01*
X14519944Y-10762508D02*
X14529467Y-10772031D01*
X14529467Y-10772031D02*
X14538991Y-10791079D01*
X14538991Y-10791079D02*
X14548515Y-10829174D01*
X14548515Y-10829174D02*
X14548515Y-10876793D01*
X14548515Y-10876793D02*
X14538991Y-10914889D01*
X14538991Y-10914889D02*
X14529467Y-10933936D01*
X14529467Y-10933936D02*
X14519944Y-10943460D01*
X14519944Y-10943460D02*
X14500896Y-10952984D01*
X14500896Y-10952984D02*
X14481848Y-10952984D01*
X14481848Y-10952984D02*
X14462801Y-10943460D01*
X14462801Y-10943460D02*
X14453277Y-10933936D01*
X14453277Y-10933936D02*
X14443753Y-10914889D01*
X14443753Y-10914889D02*
X14434229Y-10876793D01*
X14434229Y-10876793D02*
X14434229Y-10829174D01*
X14434229Y-10829174D02*
X14443753Y-10791079D01*
X14443753Y-10791079D02*
X14453277Y-10772031D01*
X14453277Y-10772031D02*
X14462801Y-10762508D01*
X14462801Y-10762508D02*
X14481848Y-10752984D01*
X14624706Y-10772031D02*
X14634229Y-10762508D01*
X14634229Y-10762508D02*
X14653277Y-10752984D01*
X14653277Y-10752984D02*
X14700896Y-10752984D01*
X14700896Y-10752984D02*
X14719944Y-10762508D01*
X14719944Y-10762508D02*
X14729467Y-10772031D01*
X14729467Y-10772031D02*
X14738991Y-10791079D01*
X14738991Y-10791079D02*
X14738991Y-10810127D01*
X14738991Y-10810127D02*
X14729467Y-10838698D01*
X14729467Y-10838698D02*
X14615182Y-10952984D01*
X14615182Y-10952984D02*
X14738991Y-10952984D01*
X14805658Y-10752984D02*
X14929467Y-10752984D01*
X14929467Y-10752984D02*
X14862801Y-10829174D01*
X14862801Y-10829174D02*
X14891372Y-10829174D01*
X14891372Y-10829174D02*
X14910420Y-10838698D01*
X14910420Y-10838698D02*
X14919944Y-10848222D01*
X14919944Y-10848222D02*
X14929467Y-10867270D01*
X14929467Y-10867270D02*
X14929467Y-10914889D01*
X14929467Y-10914889D02*
X14919944Y-10933936D01*
X14919944Y-10933936D02*
X14910420Y-10943460D01*
X14910420Y-10943460D02*
X14891372Y-10952984D01*
X14891372Y-10952984D02*
X14834229Y-10952984D01*
X14834229Y-10952984D02*
X14815182Y-10943460D01*
X14815182Y-10943460D02*
X14805658Y-10933936D01*
X15100896Y-10752984D02*
X15062801Y-10752984D01*
X15062801Y-10752984D02*
X15043753Y-10762508D01*
X15043753Y-10762508D02*
X15034229Y-10772031D01*
X15034229Y-10772031D02*
X15015182Y-10800603D01*
X15015182Y-10800603D02*
X15005658Y-10838698D01*
X15005658Y-10838698D02*
X15005658Y-10914889D01*
X15005658Y-10914889D02*
X15015182Y-10933936D01*
X15015182Y-10933936D02*
X15024706Y-10943460D01*
X15024706Y-10943460D02*
X15043753Y-10952984D01*
X15043753Y-10952984D02*
X15081848Y-10952984D01*
X15081848Y-10952984D02*
X15100896Y-10943460D01*
X15100896Y-10943460D02*
X15110420Y-10933936D01*
X15110420Y-10933936D02*
X15119944Y-10914889D01*
X15119944Y-10914889D02*
X15119944Y-10867270D01*
X15119944Y-10867270D02*
X15110420Y-10848222D01*
X15110420Y-10848222D02*
X15100896Y-10838698D01*
X15100896Y-10838698D02*
X15081848Y-10829174D01*
X15081848Y-10829174D02*
X15043753Y-10829174D01*
X15043753Y-10829174D02*
X15024706Y-10838698D01*
X15024706Y-10838698D02*
X15015182Y-10848222D01*
X15015182Y-10848222D02*
X15005658Y-10867270D01*
X15196134Y-10752984D02*
X15196134Y-10791079D01*
X15272325Y-10752984D02*
X15272325Y-10791079D01*
X15567563Y-11029174D02*
X15558039Y-11019650D01*
X15558039Y-11019650D02*
X15538991Y-10991079D01*
X15538991Y-10991079D02*
X15529468Y-10972031D01*
X15529468Y-10972031D02*
X15519944Y-10943460D01*
X15519944Y-10943460D02*
X15510420Y-10895841D01*
X15510420Y-10895841D02*
X15510420Y-10857746D01*
X15510420Y-10857746D02*
X15519944Y-10810127D01*
X15519944Y-10810127D02*
X15529468Y-10781555D01*
X15529468Y-10781555D02*
X15538991Y-10762508D01*
X15538991Y-10762508D02*
X15558039Y-10733936D01*
X15558039Y-10733936D02*
X15567563Y-10724412D01*
X15672325Y-10838698D02*
X15653277Y-10829174D01*
X15653277Y-10829174D02*
X15643753Y-10819650D01*
X15643753Y-10819650D02*
X15634229Y-10800603D01*
X15634229Y-10800603D02*
X15634229Y-10791079D01*
X15634229Y-10791079D02*
X15643753Y-10772031D01*
X15643753Y-10772031D02*
X15653277Y-10762508D01*
X15653277Y-10762508D02*
X15672325Y-10752984D01*
X15672325Y-10752984D02*
X15710420Y-10752984D01*
X15710420Y-10752984D02*
X15729468Y-10762508D01*
X15729468Y-10762508D02*
X15738991Y-10772031D01*
X15738991Y-10772031D02*
X15748515Y-10791079D01*
X15748515Y-10791079D02*
X15748515Y-10800603D01*
X15748515Y-10800603D02*
X15738991Y-10819650D01*
X15738991Y-10819650D02*
X15729468Y-10829174D01*
X15729468Y-10829174D02*
X15710420Y-10838698D01*
X15710420Y-10838698D02*
X15672325Y-10838698D01*
X15672325Y-10838698D02*
X15653277Y-10848222D01*
X15653277Y-10848222D02*
X15643753Y-10857746D01*
X15643753Y-10857746D02*
X15634229Y-10876793D01*
X15634229Y-10876793D02*
X15634229Y-10914889D01*
X15634229Y-10914889D02*
X15643753Y-10933936D01*
X15643753Y-10933936D02*
X15653277Y-10943460D01*
X15653277Y-10943460D02*
X15672325Y-10952984D01*
X15672325Y-10952984D02*
X15710420Y-10952984D01*
X15710420Y-10952984D02*
X15729468Y-10943460D01*
X15729468Y-10943460D02*
X15738991Y-10933936D01*
X15738991Y-10933936D02*
X15748515Y-10914889D01*
X15748515Y-10914889D02*
X15748515Y-10876793D01*
X15748515Y-10876793D02*
X15738991Y-10857746D01*
X15738991Y-10857746D02*
X15729468Y-10848222D01*
X15729468Y-10848222D02*
X15710420Y-10838698D01*
X15986610Y-10952984D02*
X15986610Y-10752984D01*
X16072325Y-10952984D02*
X16072325Y-10848222D01*
X16072325Y-10848222D02*
X16062801Y-10829174D01*
X16062801Y-10829174D02*
X16043753Y-10819650D01*
X16043753Y-10819650D02*
X16015182Y-10819650D01*
X16015182Y-10819650D02*
X15996134Y-10829174D01*
X15996134Y-10829174D02*
X15986610Y-10838698D01*
X16196134Y-10952984D02*
X16177087Y-10943460D01*
X16177087Y-10943460D02*
X16167563Y-10933936D01*
X16167563Y-10933936D02*
X16158039Y-10914889D01*
X16158039Y-10914889D02*
X16158039Y-10857746D01*
X16158039Y-10857746D02*
X16167563Y-10838698D01*
X16167563Y-10838698D02*
X16177087Y-10829174D01*
X16177087Y-10829174D02*
X16196134Y-10819650D01*
X16196134Y-10819650D02*
X16224706Y-10819650D01*
X16224706Y-10819650D02*
X16243753Y-10829174D01*
X16243753Y-10829174D02*
X16253277Y-10838698D01*
X16253277Y-10838698D02*
X16262801Y-10857746D01*
X16262801Y-10857746D02*
X16262801Y-10914889D01*
X16262801Y-10914889D02*
X16253277Y-10933936D01*
X16253277Y-10933936D02*
X16243753Y-10943460D01*
X16243753Y-10943460D02*
X16224706Y-10952984D01*
X16224706Y-10952984D02*
X16196134Y-10952984D01*
X16377087Y-10952984D02*
X16358039Y-10943460D01*
X16358039Y-10943460D02*
X16348515Y-10924412D01*
X16348515Y-10924412D02*
X16348515Y-10752984D01*
X16529468Y-10943460D02*
X16510420Y-10952984D01*
X16510420Y-10952984D02*
X16472325Y-10952984D01*
X16472325Y-10952984D02*
X16453277Y-10943460D01*
X16453277Y-10943460D02*
X16443753Y-10924412D01*
X16443753Y-10924412D02*
X16443753Y-10848222D01*
X16443753Y-10848222D02*
X16453277Y-10829174D01*
X16453277Y-10829174D02*
X16472325Y-10819650D01*
X16472325Y-10819650D02*
X16510420Y-10819650D01*
X16510420Y-10819650D02*
X16529468Y-10829174D01*
X16529468Y-10829174D02*
X16538991Y-10848222D01*
X16538991Y-10848222D02*
X16538991Y-10867270D01*
X16538991Y-10867270D02*
X16443753Y-10886317D01*
X16615182Y-10943460D02*
X16634230Y-10952984D01*
X16634230Y-10952984D02*
X16672325Y-10952984D01*
X16672325Y-10952984D02*
X16691372Y-10943460D01*
X16691372Y-10943460D02*
X16700896Y-10924412D01*
X16700896Y-10924412D02*
X16700896Y-10914889D01*
X16700896Y-10914889D02*
X16691372Y-10895841D01*
X16691372Y-10895841D02*
X16672325Y-10886317D01*
X16672325Y-10886317D02*
X16643753Y-10886317D01*
X16643753Y-10886317D02*
X16624706Y-10876793D01*
X16624706Y-10876793D02*
X16615182Y-10857746D01*
X16615182Y-10857746D02*
X16615182Y-10848222D01*
X16615182Y-10848222D02*
X16624706Y-10829174D01*
X16624706Y-10829174D02*
X16643753Y-10819650D01*
X16643753Y-10819650D02*
X16672325Y-10819650D01*
X16672325Y-10819650D02*
X16691372Y-10829174D01*
X16767563Y-11029174D02*
X16777087Y-11019650D01*
X16777087Y-11019650D02*
X16796134Y-10991079D01*
X16796134Y-10991079D02*
X16805658Y-10972031D01*
X16805658Y-10972031D02*
X16815182Y-10943460D01*
X16815182Y-10943460D02*
X16824706Y-10895841D01*
X16824706Y-10895841D02*
X16824706Y-10857746D01*
X16824706Y-10857746D02*
X16815182Y-10810127D01*
X16815182Y-10810127D02*
X16805658Y-10781555D01*
X16805658Y-10781555D02*
X16796134Y-10762508D01*
X16796134Y-10762508D02*
X16777087Y-10733936D01*
X16777087Y-10733936D02*
X16767563Y-10724412D01*
D12*
X11992500Y-11125500D02*
G75*
G02*
X11917500Y-11125500I-37500J0D01*
G01*
X11917500Y-11125500D02*
G75*
G02*
X11992500Y-11125500I37500J0D01*
G01*
D11*
X12291372Y-11016984D02*
X12310420Y-11016984D01*
X12310420Y-11016984D02*
X12329467Y-11026508D01*
X12329467Y-11026508D02*
X12338991Y-11036031D01*
X12338991Y-11036031D02*
X12348515Y-11055079D01*
X12348515Y-11055079D02*
X12358039Y-11093174D01*
X12358039Y-11093174D02*
X12358039Y-11140793D01*
X12358039Y-11140793D02*
X12348515Y-11178889D01*
X12348515Y-11178889D02*
X12338991Y-11197936D01*
X12338991Y-11197936D02*
X12329467Y-11207460D01*
X12329467Y-11207460D02*
X12310420Y-11216984D01*
X12310420Y-11216984D02*
X12291372Y-11216984D01*
X12291372Y-11216984D02*
X12272324Y-11207460D01*
X12272324Y-11207460D02*
X12262801Y-11197936D01*
X12262801Y-11197936D02*
X12253277Y-11178889D01*
X12253277Y-11178889D02*
X12243753Y-11140793D01*
X12243753Y-11140793D02*
X12243753Y-11093174D01*
X12243753Y-11093174D02*
X12253277Y-11055079D01*
X12253277Y-11055079D02*
X12262801Y-11036031D01*
X12262801Y-11036031D02*
X12272324Y-11026508D01*
X12272324Y-11026508D02*
X12291372Y-11016984D01*
X12443753Y-11197936D02*
X12453277Y-11207460D01*
X12453277Y-11207460D02*
X12443753Y-11216984D01*
X12443753Y-11216984D02*
X12434229Y-11207460D01*
X12434229Y-11207460D02*
X12443753Y-11197936D01*
X12443753Y-11197936D02*
X12443753Y-11216984D01*
X12519943Y-11016984D02*
X12653277Y-11016984D01*
X12653277Y-11016984D02*
X12567562Y-11216984D01*
X12824705Y-11016984D02*
X12729467Y-11016984D01*
X12729467Y-11016984D02*
X12719943Y-11112222D01*
X12719943Y-11112222D02*
X12729467Y-11102698D01*
X12729467Y-11102698D02*
X12748515Y-11093174D01*
X12748515Y-11093174D02*
X12796134Y-11093174D01*
X12796134Y-11093174D02*
X12815182Y-11102698D01*
X12815182Y-11102698D02*
X12824705Y-11112222D01*
X12824705Y-11112222D02*
X12834229Y-11131270D01*
X12834229Y-11131270D02*
X12834229Y-11178889D01*
X12834229Y-11178889D02*
X12824705Y-11197936D01*
X12824705Y-11197936D02*
X12815182Y-11207460D01*
X12815182Y-11207460D02*
X12796134Y-11216984D01*
X12796134Y-11216984D02*
X12748515Y-11216984D01*
X12748515Y-11216984D02*
X12729467Y-11207460D01*
X12729467Y-11207460D02*
X12719943Y-11197936D01*
X12958039Y-11016984D02*
X12977086Y-11016984D01*
X12977086Y-11016984D02*
X12996134Y-11026508D01*
X12996134Y-11026508D02*
X13005658Y-11036031D01*
X13005658Y-11036031D02*
X13015182Y-11055079D01*
X13015182Y-11055079D02*
X13024705Y-11093174D01*
X13024705Y-11093174D02*
X13024705Y-11140793D01*
X13024705Y-11140793D02*
X13015182Y-11178889D01*
X13015182Y-11178889D02*
X13005658Y-11197936D01*
X13005658Y-11197936D02*
X12996134Y-11207460D01*
X12996134Y-11207460D02*
X12977086Y-11216984D01*
X12977086Y-11216984D02*
X12958039Y-11216984D01*
X12958039Y-11216984D02*
X12938991Y-11207460D01*
X12938991Y-11207460D02*
X12929467Y-11197936D01*
X12929467Y-11197936D02*
X12919943Y-11178889D01*
X12919943Y-11178889D02*
X12910420Y-11140793D01*
X12910420Y-11140793D02*
X12910420Y-11093174D01*
X12910420Y-11093174D02*
X12919943Y-11055079D01*
X12919943Y-11055079D02*
X12929467Y-11036031D01*
X12929467Y-11036031D02*
X12938991Y-11026508D01*
X12938991Y-11026508D02*
X12958039Y-11016984D01*
X13110420Y-11216984D02*
X13110420Y-11083650D01*
X13110420Y-11102698D02*
X13119943Y-11093174D01*
X13119943Y-11093174D02*
X13138991Y-11083650D01*
X13138991Y-11083650D02*
X13167563Y-11083650D01*
X13167563Y-11083650D02*
X13186610Y-11093174D01*
X13186610Y-11093174D02*
X13196134Y-11112222D01*
X13196134Y-11112222D02*
X13196134Y-11216984D01*
X13196134Y-11112222D02*
X13205658Y-11093174D01*
X13205658Y-11093174D02*
X13224705Y-11083650D01*
X13224705Y-11083650D02*
X13253277Y-11083650D01*
X13253277Y-11083650D02*
X13272324Y-11093174D01*
X13272324Y-11093174D02*
X13281848Y-11112222D01*
X13281848Y-11112222D02*
X13281848Y-11216984D01*
X13377086Y-11216984D02*
X13377086Y-11083650D01*
X13377086Y-11102698D02*
X13386610Y-11093174D01*
X13386610Y-11093174D02*
X13405658Y-11083650D01*
X13405658Y-11083650D02*
X13434229Y-11083650D01*
X13434229Y-11083650D02*
X13453277Y-11093174D01*
X13453277Y-11093174D02*
X13462801Y-11112222D01*
X13462801Y-11112222D02*
X13462801Y-11216984D01*
X13462801Y-11112222D02*
X13472324Y-11093174D01*
X13472324Y-11093174D02*
X13491372Y-11083650D01*
X13491372Y-11083650D02*
X13519943Y-11083650D01*
X13519943Y-11083650D02*
X13538991Y-11093174D01*
X13538991Y-11093174D02*
X13548515Y-11112222D01*
X13548515Y-11112222D02*
X13548515Y-11216984D01*
X13938991Y-11007460D02*
X13767563Y-11264603D01*
X14196134Y-11016984D02*
X14215182Y-11016984D01*
X14215182Y-11016984D02*
X14234229Y-11026508D01*
X14234229Y-11026508D02*
X14243753Y-11036031D01*
X14243753Y-11036031D02*
X14253277Y-11055079D01*
X14253277Y-11055079D02*
X14262801Y-11093174D01*
X14262801Y-11093174D02*
X14262801Y-11140793D01*
X14262801Y-11140793D02*
X14253277Y-11178889D01*
X14253277Y-11178889D02*
X14243753Y-11197936D01*
X14243753Y-11197936D02*
X14234229Y-11207460D01*
X14234229Y-11207460D02*
X14215182Y-11216984D01*
X14215182Y-11216984D02*
X14196134Y-11216984D01*
X14196134Y-11216984D02*
X14177086Y-11207460D01*
X14177086Y-11207460D02*
X14167563Y-11197936D01*
X14167563Y-11197936D02*
X14158039Y-11178889D01*
X14158039Y-11178889D02*
X14148515Y-11140793D01*
X14148515Y-11140793D02*
X14148515Y-11093174D01*
X14148515Y-11093174D02*
X14158039Y-11055079D01*
X14158039Y-11055079D02*
X14167563Y-11036031D01*
X14167563Y-11036031D02*
X14177086Y-11026508D01*
X14177086Y-11026508D02*
X14196134Y-11016984D01*
X14348515Y-11197936D02*
X14358039Y-11207460D01*
X14358039Y-11207460D02*
X14348515Y-11216984D01*
X14348515Y-11216984D02*
X14338991Y-11207460D01*
X14338991Y-11207460D02*
X14348515Y-11197936D01*
X14348515Y-11197936D02*
X14348515Y-11216984D01*
X14481848Y-11016984D02*
X14500896Y-11016984D01*
X14500896Y-11016984D02*
X14519944Y-11026508D01*
X14519944Y-11026508D02*
X14529467Y-11036031D01*
X14529467Y-11036031D02*
X14538991Y-11055079D01*
X14538991Y-11055079D02*
X14548515Y-11093174D01*
X14548515Y-11093174D02*
X14548515Y-11140793D01*
X14548515Y-11140793D02*
X14538991Y-11178889D01*
X14538991Y-11178889D02*
X14529467Y-11197936D01*
X14529467Y-11197936D02*
X14519944Y-11207460D01*
X14519944Y-11207460D02*
X14500896Y-11216984D01*
X14500896Y-11216984D02*
X14481848Y-11216984D01*
X14481848Y-11216984D02*
X14462801Y-11207460D01*
X14462801Y-11207460D02*
X14453277Y-11197936D01*
X14453277Y-11197936D02*
X14443753Y-11178889D01*
X14443753Y-11178889D02*
X14434229Y-11140793D01*
X14434229Y-11140793D02*
X14434229Y-11093174D01*
X14434229Y-11093174D02*
X14443753Y-11055079D01*
X14443753Y-11055079D02*
X14453277Y-11036031D01*
X14453277Y-11036031D02*
X14462801Y-11026508D01*
X14462801Y-11026508D02*
X14481848Y-11016984D01*
X14624706Y-11036031D02*
X14634229Y-11026508D01*
X14634229Y-11026508D02*
X14653277Y-11016984D01*
X14653277Y-11016984D02*
X14700896Y-11016984D01*
X14700896Y-11016984D02*
X14719944Y-11026508D01*
X14719944Y-11026508D02*
X14729467Y-11036031D01*
X14729467Y-11036031D02*
X14738991Y-11055079D01*
X14738991Y-11055079D02*
X14738991Y-11074127D01*
X14738991Y-11074127D02*
X14729467Y-11102698D01*
X14729467Y-11102698D02*
X14615182Y-11216984D01*
X14615182Y-11216984D02*
X14738991Y-11216984D01*
X14834229Y-11216984D02*
X14872325Y-11216984D01*
X14872325Y-11216984D02*
X14891372Y-11207460D01*
X14891372Y-11207460D02*
X14900896Y-11197936D01*
X14900896Y-11197936D02*
X14919944Y-11169365D01*
X14919944Y-11169365D02*
X14929467Y-11131270D01*
X14929467Y-11131270D02*
X14929467Y-11055079D01*
X14929467Y-11055079D02*
X14919944Y-11036031D01*
X14919944Y-11036031D02*
X14910420Y-11026508D01*
X14910420Y-11026508D02*
X14891372Y-11016984D01*
X14891372Y-11016984D02*
X14853277Y-11016984D01*
X14853277Y-11016984D02*
X14834229Y-11026508D01*
X14834229Y-11026508D02*
X14824706Y-11036031D01*
X14824706Y-11036031D02*
X14815182Y-11055079D01*
X14815182Y-11055079D02*
X14815182Y-11102698D01*
X14815182Y-11102698D02*
X14824706Y-11121746D01*
X14824706Y-11121746D02*
X14834229Y-11131270D01*
X14834229Y-11131270D02*
X14853277Y-11140793D01*
X14853277Y-11140793D02*
X14891372Y-11140793D01*
X14891372Y-11140793D02*
X14910420Y-11131270D01*
X14910420Y-11131270D02*
X14919944Y-11121746D01*
X14919944Y-11121746D02*
X14929467Y-11102698D01*
X15110420Y-11016984D02*
X15015182Y-11016984D01*
X15015182Y-11016984D02*
X15005658Y-11112222D01*
X15005658Y-11112222D02*
X15015182Y-11102698D01*
X15015182Y-11102698D02*
X15034229Y-11093174D01*
X15034229Y-11093174D02*
X15081848Y-11093174D01*
X15081848Y-11093174D02*
X15100896Y-11102698D01*
X15100896Y-11102698D02*
X15110420Y-11112222D01*
X15110420Y-11112222D02*
X15119944Y-11131270D01*
X15119944Y-11131270D02*
X15119944Y-11178889D01*
X15119944Y-11178889D02*
X15110420Y-11197936D01*
X15110420Y-11197936D02*
X15100896Y-11207460D01*
X15100896Y-11207460D02*
X15081848Y-11216984D01*
X15081848Y-11216984D02*
X15034229Y-11216984D01*
X15034229Y-11216984D02*
X15015182Y-11207460D01*
X15015182Y-11207460D02*
X15005658Y-11197936D01*
X15196134Y-11016984D02*
X15196134Y-11055079D01*
X15272325Y-11016984D02*
X15272325Y-11055079D01*
X15567563Y-11293174D02*
X15558039Y-11283650D01*
X15558039Y-11283650D02*
X15538991Y-11255079D01*
X15538991Y-11255079D02*
X15529468Y-11236031D01*
X15529468Y-11236031D02*
X15519944Y-11207460D01*
X15519944Y-11207460D02*
X15510420Y-11159841D01*
X15510420Y-11159841D02*
X15510420Y-11121746D01*
X15510420Y-11121746D02*
X15519944Y-11074127D01*
X15519944Y-11074127D02*
X15529468Y-11045555D01*
X15529468Y-11045555D02*
X15538991Y-11026508D01*
X15538991Y-11026508D02*
X15558039Y-10997936D01*
X15558039Y-10997936D02*
X15567563Y-10988412D01*
X15634229Y-11036031D02*
X15643753Y-11026508D01*
X15643753Y-11026508D02*
X15662801Y-11016984D01*
X15662801Y-11016984D02*
X15710420Y-11016984D01*
X15710420Y-11016984D02*
X15729468Y-11026508D01*
X15729468Y-11026508D02*
X15738991Y-11036031D01*
X15738991Y-11036031D02*
X15748515Y-11055079D01*
X15748515Y-11055079D02*
X15748515Y-11074127D01*
X15748515Y-11074127D02*
X15738991Y-11102698D01*
X15738991Y-11102698D02*
X15624706Y-11216984D01*
X15624706Y-11216984D02*
X15748515Y-11216984D01*
X15986610Y-11216984D02*
X15986610Y-11016984D01*
X16072325Y-11216984D02*
X16072325Y-11112222D01*
X16072325Y-11112222D02*
X16062801Y-11093174D01*
X16062801Y-11093174D02*
X16043753Y-11083650D01*
X16043753Y-11083650D02*
X16015182Y-11083650D01*
X16015182Y-11083650D02*
X15996134Y-11093174D01*
X15996134Y-11093174D02*
X15986610Y-11102698D01*
X16196134Y-11216984D02*
X16177087Y-11207460D01*
X16177087Y-11207460D02*
X16167563Y-11197936D01*
X16167563Y-11197936D02*
X16158039Y-11178889D01*
X16158039Y-11178889D02*
X16158039Y-11121746D01*
X16158039Y-11121746D02*
X16167563Y-11102698D01*
X16167563Y-11102698D02*
X16177087Y-11093174D01*
X16177087Y-11093174D02*
X16196134Y-11083650D01*
X16196134Y-11083650D02*
X16224706Y-11083650D01*
X16224706Y-11083650D02*
X16243753Y-11093174D01*
X16243753Y-11093174D02*
X16253277Y-11102698D01*
X16253277Y-11102698D02*
X16262801Y-11121746D01*
X16262801Y-11121746D02*
X16262801Y-11178889D01*
X16262801Y-11178889D02*
X16253277Y-11197936D01*
X16253277Y-11197936D02*
X16243753Y-11207460D01*
X16243753Y-11207460D02*
X16224706Y-11216984D01*
X16224706Y-11216984D02*
X16196134Y-11216984D01*
X16377087Y-11216984D02*
X16358039Y-11207460D01*
X16358039Y-11207460D02*
X16348515Y-11188412D01*
X16348515Y-11188412D02*
X16348515Y-11016984D01*
X16529468Y-11207460D02*
X16510420Y-11216984D01*
X16510420Y-11216984D02*
X16472325Y-11216984D01*
X16472325Y-11216984D02*
X16453277Y-11207460D01*
X16453277Y-11207460D02*
X16443753Y-11188412D01*
X16443753Y-11188412D02*
X16443753Y-11112222D01*
X16443753Y-11112222D02*
X16453277Y-11093174D01*
X16453277Y-11093174D02*
X16472325Y-11083650D01*
X16472325Y-11083650D02*
X16510420Y-11083650D01*
X16510420Y-11083650D02*
X16529468Y-11093174D01*
X16529468Y-11093174D02*
X16538991Y-11112222D01*
X16538991Y-11112222D02*
X16538991Y-11131270D01*
X16538991Y-11131270D02*
X16443753Y-11150317D01*
X16615182Y-11207460D02*
X16634230Y-11216984D01*
X16634230Y-11216984D02*
X16672325Y-11216984D01*
X16672325Y-11216984D02*
X16691372Y-11207460D01*
X16691372Y-11207460D02*
X16700896Y-11188412D01*
X16700896Y-11188412D02*
X16700896Y-11178889D01*
X16700896Y-11178889D02*
X16691372Y-11159841D01*
X16691372Y-11159841D02*
X16672325Y-11150317D01*
X16672325Y-11150317D02*
X16643753Y-11150317D01*
X16643753Y-11150317D02*
X16624706Y-11140793D01*
X16624706Y-11140793D02*
X16615182Y-11121746D01*
X16615182Y-11121746D02*
X16615182Y-11112222D01*
X16615182Y-11112222D02*
X16624706Y-11093174D01*
X16624706Y-11093174D02*
X16643753Y-11083650D01*
X16643753Y-11083650D02*
X16672325Y-11083650D01*
X16672325Y-11083650D02*
X16691372Y-11093174D01*
X16767563Y-11293174D02*
X16777087Y-11283650D01*
X16777087Y-11283650D02*
X16796134Y-11255079D01*
X16796134Y-11255079D02*
X16805658Y-11236031D01*
X16805658Y-11236031D02*
X16815182Y-11207460D01*
X16815182Y-11207460D02*
X16824706Y-11159841D01*
X16824706Y-11159841D02*
X16824706Y-11121746D01*
X16824706Y-11121746D02*
X16815182Y-11074127D01*
X16815182Y-11074127D02*
X16805658Y-11045555D01*
X16805658Y-11045555D02*
X16796134Y-11026508D01*
X16796134Y-11026508D02*
X16777087Y-10997936D01*
X16777087Y-10997936D02*
X16767563Y-10988412D01*
D12*
X11954400Y-11351400D02*
X11954400Y-11427600D01*
X11916300Y-11389500D02*
X11992500Y-11389500D01*
D11*
X12291372Y-11280984D02*
X12310420Y-11280984D01*
X12310420Y-11280984D02*
X12329467Y-11290508D01*
X12329467Y-11290508D02*
X12338991Y-11300031D01*
X12338991Y-11300031D02*
X12348515Y-11319079D01*
X12348515Y-11319079D02*
X12358039Y-11357174D01*
X12358039Y-11357174D02*
X12358039Y-11404793D01*
X12358039Y-11404793D02*
X12348515Y-11442888D01*
X12348515Y-11442888D02*
X12338991Y-11461936D01*
X12338991Y-11461936D02*
X12329467Y-11471460D01*
X12329467Y-11471460D02*
X12310420Y-11480984D01*
X12310420Y-11480984D02*
X12291372Y-11480984D01*
X12291372Y-11480984D02*
X12272324Y-11471460D01*
X12272324Y-11471460D02*
X12262801Y-11461936D01*
X12262801Y-11461936D02*
X12253277Y-11442888D01*
X12253277Y-11442888D02*
X12243753Y-11404793D01*
X12243753Y-11404793D02*
X12243753Y-11357174D01*
X12243753Y-11357174D02*
X12253277Y-11319079D01*
X12253277Y-11319079D02*
X12262801Y-11300031D01*
X12262801Y-11300031D02*
X12272324Y-11290508D01*
X12272324Y-11290508D02*
X12291372Y-11280984D01*
X12443753Y-11461936D02*
X12453277Y-11471460D01*
X12453277Y-11471460D02*
X12443753Y-11480984D01*
X12443753Y-11480984D02*
X12434229Y-11471460D01*
X12434229Y-11471460D02*
X12443753Y-11461936D01*
X12443753Y-11461936D02*
X12443753Y-11480984D01*
X12519943Y-11280984D02*
X12653277Y-11280984D01*
X12653277Y-11280984D02*
X12567562Y-11480984D01*
X12815182Y-11280984D02*
X12777086Y-11280984D01*
X12777086Y-11280984D02*
X12758039Y-11290508D01*
X12758039Y-11290508D02*
X12748515Y-11300031D01*
X12748515Y-11300031D02*
X12729467Y-11328603D01*
X12729467Y-11328603D02*
X12719943Y-11366698D01*
X12719943Y-11366698D02*
X12719943Y-11442888D01*
X12719943Y-11442888D02*
X12729467Y-11461936D01*
X12729467Y-11461936D02*
X12738991Y-11471460D01*
X12738991Y-11471460D02*
X12758039Y-11480984D01*
X12758039Y-11480984D02*
X12796134Y-11480984D01*
X12796134Y-11480984D02*
X12815182Y-11471460D01*
X12815182Y-11471460D02*
X12824705Y-11461936D01*
X12824705Y-11461936D02*
X12834229Y-11442888D01*
X12834229Y-11442888D02*
X12834229Y-11395269D01*
X12834229Y-11395269D02*
X12824705Y-11376222D01*
X12824705Y-11376222D02*
X12815182Y-11366698D01*
X12815182Y-11366698D02*
X12796134Y-11357174D01*
X12796134Y-11357174D02*
X12758039Y-11357174D01*
X12758039Y-11357174D02*
X12738991Y-11366698D01*
X12738991Y-11366698D02*
X12729467Y-11376222D01*
X12729467Y-11376222D02*
X12719943Y-11395269D01*
X12910420Y-11300031D02*
X12919943Y-11290508D01*
X12919943Y-11290508D02*
X12938991Y-11280984D01*
X12938991Y-11280984D02*
X12986610Y-11280984D01*
X12986610Y-11280984D02*
X13005658Y-11290508D01*
X13005658Y-11290508D02*
X13015182Y-11300031D01*
X13015182Y-11300031D02*
X13024705Y-11319079D01*
X13024705Y-11319079D02*
X13024705Y-11338127D01*
X13024705Y-11338127D02*
X13015182Y-11366698D01*
X13015182Y-11366698D02*
X12900896Y-11480984D01*
X12900896Y-11480984D02*
X13024705Y-11480984D01*
X13110420Y-11480984D02*
X13110420Y-11347650D01*
X13110420Y-11366698D02*
X13119943Y-11357174D01*
X13119943Y-11357174D02*
X13138991Y-11347650D01*
X13138991Y-11347650D02*
X13167563Y-11347650D01*
X13167563Y-11347650D02*
X13186610Y-11357174D01*
X13186610Y-11357174D02*
X13196134Y-11376222D01*
X13196134Y-11376222D02*
X13196134Y-11480984D01*
X13196134Y-11376222D02*
X13205658Y-11357174D01*
X13205658Y-11357174D02*
X13224705Y-11347650D01*
X13224705Y-11347650D02*
X13253277Y-11347650D01*
X13253277Y-11347650D02*
X13272324Y-11357174D01*
X13272324Y-11357174D02*
X13281848Y-11376222D01*
X13281848Y-11376222D02*
X13281848Y-11480984D01*
X13377086Y-11480984D02*
X13377086Y-11347650D01*
X13377086Y-11366698D02*
X13386610Y-11357174D01*
X13386610Y-11357174D02*
X13405658Y-11347650D01*
X13405658Y-11347650D02*
X13434229Y-11347650D01*
X13434229Y-11347650D02*
X13453277Y-11357174D01*
X13453277Y-11357174D02*
X13462801Y-11376222D01*
X13462801Y-11376222D02*
X13462801Y-11480984D01*
X13462801Y-11376222D02*
X13472324Y-11357174D01*
X13472324Y-11357174D02*
X13491372Y-11347650D01*
X13491372Y-11347650D02*
X13519943Y-11347650D01*
X13519943Y-11347650D02*
X13538991Y-11357174D01*
X13538991Y-11357174D02*
X13548515Y-11376222D01*
X13548515Y-11376222D02*
X13548515Y-11480984D01*
X13938991Y-11271460D02*
X13767563Y-11528603D01*
X14196134Y-11280984D02*
X14215182Y-11280984D01*
X14215182Y-11280984D02*
X14234229Y-11290508D01*
X14234229Y-11290508D02*
X14243753Y-11300031D01*
X14243753Y-11300031D02*
X14253277Y-11319079D01*
X14253277Y-11319079D02*
X14262801Y-11357174D01*
X14262801Y-11357174D02*
X14262801Y-11404793D01*
X14262801Y-11404793D02*
X14253277Y-11442888D01*
X14253277Y-11442888D02*
X14243753Y-11461936D01*
X14243753Y-11461936D02*
X14234229Y-11471460D01*
X14234229Y-11471460D02*
X14215182Y-11480984D01*
X14215182Y-11480984D02*
X14196134Y-11480984D01*
X14196134Y-11480984D02*
X14177086Y-11471460D01*
X14177086Y-11471460D02*
X14167563Y-11461936D01*
X14167563Y-11461936D02*
X14158039Y-11442888D01*
X14158039Y-11442888D02*
X14148515Y-11404793D01*
X14148515Y-11404793D02*
X14148515Y-11357174D01*
X14148515Y-11357174D02*
X14158039Y-11319079D01*
X14158039Y-11319079D02*
X14167563Y-11300031D01*
X14167563Y-11300031D02*
X14177086Y-11290508D01*
X14177086Y-11290508D02*
X14196134Y-11280984D01*
X14348515Y-11461936D02*
X14358039Y-11471460D01*
X14358039Y-11471460D02*
X14348515Y-11480984D01*
X14348515Y-11480984D02*
X14338991Y-11471460D01*
X14338991Y-11471460D02*
X14348515Y-11461936D01*
X14348515Y-11461936D02*
X14348515Y-11480984D01*
X14481848Y-11280984D02*
X14500896Y-11280984D01*
X14500896Y-11280984D02*
X14519944Y-11290508D01*
X14519944Y-11290508D02*
X14529467Y-11300031D01*
X14529467Y-11300031D02*
X14538991Y-11319079D01*
X14538991Y-11319079D02*
X14548515Y-11357174D01*
X14548515Y-11357174D02*
X14548515Y-11404793D01*
X14548515Y-11404793D02*
X14538991Y-11442888D01*
X14538991Y-11442888D02*
X14529467Y-11461936D01*
X14529467Y-11461936D02*
X14519944Y-11471460D01*
X14519944Y-11471460D02*
X14500896Y-11480984D01*
X14500896Y-11480984D02*
X14481848Y-11480984D01*
X14481848Y-11480984D02*
X14462801Y-11471460D01*
X14462801Y-11471460D02*
X14453277Y-11461936D01*
X14453277Y-11461936D02*
X14443753Y-11442888D01*
X14443753Y-11442888D02*
X14434229Y-11404793D01*
X14434229Y-11404793D02*
X14434229Y-11357174D01*
X14434229Y-11357174D02*
X14443753Y-11319079D01*
X14443753Y-11319079D02*
X14453277Y-11300031D01*
X14453277Y-11300031D02*
X14462801Y-11290508D01*
X14462801Y-11290508D02*
X14481848Y-11280984D01*
X14615182Y-11280984D02*
X14738991Y-11280984D01*
X14738991Y-11280984D02*
X14672325Y-11357174D01*
X14672325Y-11357174D02*
X14700896Y-11357174D01*
X14700896Y-11357174D02*
X14719944Y-11366698D01*
X14719944Y-11366698D02*
X14729467Y-11376222D01*
X14729467Y-11376222D02*
X14738991Y-11395269D01*
X14738991Y-11395269D02*
X14738991Y-11442888D01*
X14738991Y-11442888D02*
X14729467Y-11461936D01*
X14729467Y-11461936D02*
X14719944Y-11471460D01*
X14719944Y-11471460D02*
X14700896Y-11480984D01*
X14700896Y-11480984D02*
X14643753Y-11480984D01*
X14643753Y-11480984D02*
X14624706Y-11471460D01*
X14624706Y-11471460D02*
X14615182Y-11461936D01*
X14862801Y-11280984D02*
X14881848Y-11280984D01*
X14881848Y-11280984D02*
X14900896Y-11290508D01*
X14900896Y-11290508D02*
X14910420Y-11300031D01*
X14910420Y-11300031D02*
X14919944Y-11319079D01*
X14919944Y-11319079D02*
X14929467Y-11357174D01*
X14929467Y-11357174D02*
X14929467Y-11404793D01*
X14929467Y-11404793D02*
X14919944Y-11442888D01*
X14919944Y-11442888D02*
X14910420Y-11461936D01*
X14910420Y-11461936D02*
X14900896Y-11471460D01*
X14900896Y-11471460D02*
X14881848Y-11480984D01*
X14881848Y-11480984D02*
X14862801Y-11480984D01*
X14862801Y-11480984D02*
X14843753Y-11471460D01*
X14843753Y-11471460D02*
X14834229Y-11461936D01*
X14834229Y-11461936D02*
X14824706Y-11442888D01*
X14824706Y-11442888D02*
X14815182Y-11404793D01*
X14815182Y-11404793D02*
X14815182Y-11357174D01*
X14815182Y-11357174D02*
X14824706Y-11319079D01*
X14824706Y-11319079D02*
X14834229Y-11300031D01*
X14834229Y-11300031D02*
X14843753Y-11290508D01*
X14843753Y-11290508D02*
X14862801Y-11280984D01*
X15053277Y-11280984D02*
X15072325Y-11280984D01*
X15072325Y-11280984D02*
X15091372Y-11290508D01*
X15091372Y-11290508D02*
X15100896Y-11300031D01*
X15100896Y-11300031D02*
X15110420Y-11319079D01*
X15110420Y-11319079D02*
X15119944Y-11357174D01*
X15119944Y-11357174D02*
X15119944Y-11404793D01*
X15119944Y-11404793D02*
X15110420Y-11442888D01*
X15110420Y-11442888D02*
X15100896Y-11461936D01*
X15100896Y-11461936D02*
X15091372Y-11471460D01*
X15091372Y-11471460D02*
X15072325Y-11480984D01*
X15072325Y-11480984D02*
X15053277Y-11480984D01*
X15053277Y-11480984D02*
X15034229Y-11471460D01*
X15034229Y-11471460D02*
X15024706Y-11461936D01*
X15024706Y-11461936D02*
X15015182Y-11442888D01*
X15015182Y-11442888D02*
X15005658Y-11404793D01*
X15005658Y-11404793D02*
X15005658Y-11357174D01*
X15005658Y-11357174D02*
X15015182Y-11319079D01*
X15015182Y-11319079D02*
X15024706Y-11300031D01*
X15024706Y-11300031D02*
X15034229Y-11290508D01*
X15034229Y-11290508D02*
X15053277Y-11280984D01*
X15196134Y-11280984D02*
X15196134Y-11319079D01*
X15272325Y-11280984D02*
X15272325Y-11319079D01*
X15567563Y-11557174D02*
X15558039Y-11547650D01*
X15558039Y-11547650D02*
X15538991Y-11519079D01*
X15538991Y-11519079D02*
X15529468Y-11500031D01*
X15529468Y-11500031D02*
X15519944Y-11471460D01*
X15519944Y-11471460D02*
X15510420Y-11423841D01*
X15510420Y-11423841D02*
X15510420Y-11385746D01*
X15510420Y-11385746D02*
X15519944Y-11338127D01*
X15519944Y-11338127D02*
X15529468Y-11309555D01*
X15529468Y-11309555D02*
X15538991Y-11290508D01*
X15538991Y-11290508D02*
X15558039Y-11261936D01*
X15558039Y-11261936D02*
X15567563Y-11252412D01*
X15748515Y-11480984D02*
X15634229Y-11480984D01*
X15691372Y-11480984D02*
X15691372Y-11280984D01*
X15691372Y-11280984D02*
X15672325Y-11309555D01*
X15672325Y-11309555D02*
X15653277Y-11328603D01*
X15653277Y-11328603D02*
X15634229Y-11338127D01*
X15872325Y-11280984D02*
X15891372Y-11280984D01*
X15891372Y-11280984D02*
X15910420Y-11290508D01*
X15910420Y-11290508D02*
X15919944Y-11300031D01*
X15919944Y-11300031D02*
X15929468Y-11319079D01*
X15929468Y-11319079D02*
X15938991Y-11357174D01*
X15938991Y-11357174D02*
X15938991Y-11404793D01*
X15938991Y-11404793D02*
X15929468Y-11442888D01*
X15929468Y-11442888D02*
X15919944Y-11461936D01*
X15919944Y-11461936D02*
X15910420Y-11471460D01*
X15910420Y-11471460D02*
X15891372Y-11480984D01*
X15891372Y-11480984D02*
X15872325Y-11480984D01*
X15872325Y-11480984D02*
X15853277Y-11471460D01*
X15853277Y-11471460D02*
X15843753Y-11461936D01*
X15843753Y-11461936D02*
X15834229Y-11442888D01*
X15834229Y-11442888D02*
X15824706Y-11404793D01*
X15824706Y-11404793D02*
X15824706Y-11357174D01*
X15824706Y-11357174D02*
X15834229Y-11319079D01*
X15834229Y-11319079D02*
X15843753Y-11300031D01*
X15843753Y-11300031D02*
X15853277Y-11290508D01*
X15853277Y-11290508D02*
X15872325Y-11280984D01*
X16177087Y-11480984D02*
X16177087Y-11280984D01*
X16262801Y-11480984D02*
X16262801Y-11376222D01*
X16262801Y-11376222D02*
X16253277Y-11357174D01*
X16253277Y-11357174D02*
X16234230Y-11347650D01*
X16234230Y-11347650D02*
X16205658Y-11347650D01*
X16205658Y-11347650D02*
X16186610Y-11357174D01*
X16186610Y-11357174D02*
X16177087Y-11366698D01*
X16386610Y-11480984D02*
X16367563Y-11471460D01*
X16367563Y-11471460D02*
X16358039Y-11461936D01*
X16358039Y-11461936D02*
X16348515Y-11442888D01*
X16348515Y-11442888D02*
X16348515Y-11385746D01*
X16348515Y-11385746D02*
X16358039Y-11366698D01*
X16358039Y-11366698D02*
X16367563Y-11357174D01*
X16367563Y-11357174D02*
X16386610Y-11347650D01*
X16386610Y-11347650D02*
X16415182Y-11347650D01*
X16415182Y-11347650D02*
X16434230Y-11357174D01*
X16434230Y-11357174D02*
X16443753Y-11366698D01*
X16443753Y-11366698D02*
X16453277Y-11385746D01*
X16453277Y-11385746D02*
X16453277Y-11442888D01*
X16453277Y-11442888D02*
X16443753Y-11461936D01*
X16443753Y-11461936D02*
X16434230Y-11471460D01*
X16434230Y-11471460D02*
X16415182Y-11480984D01*
X16415182Y-11480984D02*
X16386610Y-11480984D01*
X16567563Y-11480984D02*
X16548515Y-11471460D01*
X16548515Y-11471460D02*
X16538991Y-11452412D01*
X16538991Y-11452412D02*
X16538991Y-11280984D01*
X16719944Y-11471460D02*
X16700896Y-11480984D01*
X16700896Y-11480984D02*
X16662801Y-11480984D01*
X16662801Y-11480984D02*
X16643753Y-11471460D01*
X16643753Y-11471460D02*
X16634230Y-11452412D01*
X16634230Y-11452412D02*
X16634230Y-11376222D01*
X16634230Y-11376222D02*
X16643753Y-11357174D01*
X16643753Y-11357174D02*
X16662801Y-11347650D01*
X16662801Y-11347650D02*
X16700896Y-11347650D01*
X16700896Y-11347650D02*
X16719944Y-11357174D01*
X16719944Y-11357174D02*
X16729468Y-11376222D01*
X16729468Y-11376222D02*
X16729468Y-11395269D01*
X16729468Y-11395269D02*
X16634230Y-11414317D01*
X16805658Y-11471460D02*
X16824706Y-11480984D01*
X16824706Y-11480984D02*
X16862801Y-11480984D01*
X16862801Y-11480984D02*
X16881849Y-11471460D01*
X16881849Y-11471460D02*
X16891373Y-11452412D01*
X16891373Y-11452412D02*
X16891373Y-11442888D01*
X16891373Y-11442888D02*
X16881849Y-11423841D01*
X16881849Y-11423841D02*
X16862801Y-11414317D01*
X16862801Y-11414317D02*
X16834230Y-11414317D01*
X16834230Y-11414317D02*
X16815182Y-11404793D01*
X16815182Y-11404793D02*
X16805658Y-11385746D01*
X16805658Y-11385746D02*
X16805658Y-11376222D01*
X16805658Y-11376222D02*
X16815182Y-11357174D01*
X16815182Y-11357174D02*
X16834230Y-11347650D01*
X16834230Y-11347650D02*
X16862801Y-11347650D01*
X16862801Y-11347650D02*
X16881849Y-11357174D01*
X16958039Y-11557174D02*
X16967563Y-11547650D01*
X16967563Y-11547650D02*
X16986611Y-11519079D01*
X16986611Y-11519079D02*
X16996134Y-11500031D01*
X16996134Y-11500031D02*
X17005658Y-11471460D01*
X17005658Y-11471460D02*
X17015182Y-11423841D01*
X17015182Y-11423841D02*
X17015182Y-11385746D01*
X17015182Y-11385746D02*
X17005658Y-11338127D01*
X17005658Y-11338127D02*
X16996134Y-11309555D01*
X16996134Y-11309555D02*
X16986611Y-11290508D01*
X16986611Y-11290508D02*
X16967563Y-11261936D01*
X16967563Y-11261936D02*
X16958039Y-11252412D01*
X11963211Y-11724211D02*
X11963211Y-11582789D01*
X11821789Y-11582789D01*
X11821789Y-11724211D01*
X11963211Y-11724211D01*
X12338991Y-11611650D02*
X12338991Y-11744984D01*
X12291372Y-11535460D02*
X12243753Y-11678317D01*
X12243753Y-11678317D02*
X12367562Y-11678317D01*
X12443753Y-11725936D02*
X12453277Y-11735460D01*
X12453277Y-11735460D02*
X12443753Y-11744984D01*
X12443753Y-11744984D02*
X12434229Y-11735460D01*
X12434229Y-11735460D02*
X12443753Y-11725936D01*
X12443753Y-11725936D02*
X12443753Y-11744984D01*
X12529467Y-11564031D02*
X12538991Y-11554508D01*
X12538991Y-11554508D02*
X12558039Y-11544984D01*
X12558039Y-11544984D02*
X12605658Y-11544984D01*
X12605658Y-11544984D02*
X12624705Y-11554508D01*
X12624705Y-11554508D02*
X12634229Y-11564031D01*
X12634229Y-11564031D02*
X12643753Y-11583079D01*
X12643753Y-11583079D02*
X12643753Y-11602127D01*
X12643753Y-11602127D02*
X12634229Y-11630698D01*
X12634229Y-11630698D02*
X12519943Y-11744984D01*
X12519943Y-11744984D02*
X12643753Y-11744984D01*
X12719943Y-11564031D02*
X12729467Y-11554508D01*
X12729467Y-11554508D02*
X12748515Y-11544984D01*
X12748515Y-11544984D02*
X12796134Y-11544984D01*
X12796134Y-11544984D02*
X12815182Y-11554508D01*
X12815182Y-11554508D02*
X12824705Y-11564031D01*
X12824705Y-11564031D02*
X12834229Y-11583079D01*
X12834229Y-11583079D02*
X12834229Y-11602127D01*
X12834229Y-11602127D02*
X12824705Y-11630698D01*
X12824705Y-11630698D02*
X12710420Y-11744984D01*
X12710420Y-11744984D02*
X12834229Y-11744984D01*
X12958039Y-11544984D02*
X12977086Y-11544984D01*
X12977086Y-11544984D02*
X12996134Y-11554508D01*
X12996134Y-11554508D02*
X13005658Y-11564031D01*
X13005658Y-11564031D02*
X13015182Y-11583079D01*
X13015182Y-11583079D02*
X13024705Y-11621174D01*
X13024705Y-11621174D02*
X13024705Y-11668793D01*
X13024705Y-11668793D02*
X13015182Y-11706888D01*
X13015182Y-11706888D02*
X13005658Y-11725936D01*
X13005658Y-11725936D02*
X12996134Y-11735460D01*
X12996134Y-11735460D02*
X12977086Y-11744984D01*
X12977086Y-11744984D02*
X12958039Y-11744984D01*
X12958039Y-11744984D02*
X12938991Y-11735460D01*
X12938991Y-11735460D02*
X12929467Y-11725936D01*
X12929467Y-11725936D02*
X12919943Y-11706888D01*
X12919943Y-11706888D02*
X12910420Y-11668793D01*
X12910420Y-11668793D02*
X12910420Y-11621174D01*
X12910420Y-11621174D02*
X12919943Y-11583079D01*
X12919943Y-11583079D02*
X12929467Y-11564031D01*
X12929467Y-11564031D02*
X12938991Y-11554508D01*
X12938991Y-11554508D02*
X12958039Y-11544984D01*
X13110420Y-11744984D02*
X13110420Y-11611650D01*
X13110420Y-11630698D02*
X13119943Y-11621174D01*
X13119943Y-11621174D02*
X13138991Y-11611650D01*
X13138991Y-11611650D02*
X13167563Y-11611650D01*
X13167563Y-11611650D02*
X13186610Y-11621174D01*
X13186610Y-11621174D02*
X13196134Y-11640222D01*
X13196134Y-11640222D02*
X13196134Y-11744984D01*
X13196134Y-11640222D02*
X13205658Y-11621174D01*
X13205658Y-11621174D02*
X13224705Y-11611650D01*
X13224705Y-11611650D02*
X13253277Y-11611650D01*
X13253277Y-11611650D02*
X13272324Y-11621174D01*
X13272324Y-11621174D02*
X13281848Y-11640222D01*
X13281848Y-11640222D02*
X13281848Y-11744984D01*
X13377086Y-11744984D02*
X13377086Y-11611650D01*
X13377086Y-11630698D02*
X13386610Y-11621174D01*
X13386610Y-11621174D02*
X13405658Y-11611650D01*
X13405658Y-11611650D02*
X13434229Y-11611650D01*
X13434229Y-11611650D02*
X13453277Y-11621174D01*
X13453277Y-11621174D02*
X13462801Y-11640222D01*
X13462801Y-11640222D02*
X13462801Y-11744984D01*
X13462801Y-11640222D02*
X13472324Y-11621174D01*
X13472324Y-11621174D02*
X13491372Y-11611650D01*
X13491372Y-11611650D02*
X13519943Y-11611650D01*
X13519943Y-11611650D02*
X13538991Y-11621174D01*
X13538991Y-11621174D02*
X13548515Y-11640222D01*
X13548515Y-11640222D02*
X13548515Y-11744984D01*
X13938991Y-11535460D02*
X13767563Y-11792603D01*
X14196134Y-11544984D02*
X14215182Y-11544984D01*
X14215182Y-11544984D02*
X14234229Y-11554508D01*
X14234229Y-11554508D02*
X14243753Y-11564031D01*
X14243753Y-11564031D02*
X14253277Y-11583079D01*
X14253277Y-11583079D02*
X14262801Y-11621174D01*
X14262801Y-11621174D02*
X14262801Y-11668793D01*
X14262801Y-11668793D02*
X14253277Y-11706888D01*
X14253277Y-11706888D02*
X14243753Y-11725936D01*
X14243753Y-11725936D02*
X14234229Y-11735460D01*
X14234229Y-11735460D02*
X14215182Y-11744984D01*
X14215182Y-11744984D02*
X14196134Y-11744984D01*
X14196134Y-11744984D02*
X14177086Y-11735460D01*
X14177086Y-11735460D02*
X14167563Y-11725936D01*
X14167563Y-11725936D02*
X14158039Y-11706888D01*
X14158039Y-11706888D02*
X14148515Y-11668793D01*
X14148515Y-11668793D02*
X14148515Y-11621174D01*
X14148515Y-11621174D02*
X14158039Y-11583079D01*
X14158039Y-11583079D02*
X14167563Y-11564031D01*
X14167563Y-11564031D02*
X14177086Y-11554508D01*
X14177086Y-11554508D02*
X14196134Y-11544984D01*
X14348515Y-11725936D02*
X14358039Y-11735460D01*
X14358039Y-11735460D02*
X14348515Y-11744984D01*
X14348515Y-11744984D02*
X14338991Y-11735460D01*
X14338991Y-11735460D02*
X14348515Y-11725936D01*
X14348515Y-11725936D02*
X14348515Y-11744984D01*
X14548515Y-11744984D02*
X14434229Y-11744984D01*
X14491372Y-11744984D02*
X14491372Y-11544984D01*
X14491372Y-11544984D02*
X14472325Y-11573555D01*
X14472325Y-11573555D02*
X14453277Y-11592603D01*
X14453277Y-11592603D02*
X14434229Y-11602127D01*
X14719944Y-11544984D02*
X14681848Y-11544984D01*
X14681848Y-11544984D02*
X14662801Y-11554508D01*
X14662801Y-11554508D02*
X14653277Y-11564031D01*
X14653277Y-11564031D02*
X14634229Y-11592603D01*
X14634229Y-11592603D02*
X14624706Y-11630698D01*
X14624706Y-11630698D02*
X14624706Y-11706888D01*
X14624706Y-11706888D02*
X14634229Y-11725936D01*
X14634229Y-11725936D02*
X14643753Y-11735460D01*
X14643753Y-11735460D02*
X14662801Y-11744984D01*
X14662801Y-11744984D02*
X14700896Y-11744984D01*
X14700896Y-11744984D02*
X14719944Y-11735460D01*
X14719944Y-11735460D02*
X14729467Y-11725936D01*
X14729467Y-11725936D02*
X14738991Y-11706888D01*
X14738991Y-11706888D02*
X14738991Y-11659269D01*
X14738991Y-11659269D02*
X14729467Y-11640222D01*
X14729467Y-11640222D02*
X14719944Y-11630698D01*
X14719944Y-11630698D02*
X14700896Y-11621174D01*
X14700896Y-11621174D02*
X14662801Y-11621174D01*
X14662801Y-11621174D02*
X14643753Y-11630698D01*
X14643753Y-11630698D02*
X14634229Y-11640222D01*
X14634229Y-11640222D02*
X14624706Y-11659269D01*
X14910420Y-11544984D02*
X14872325Y-11544984D01*
X14872325Y-11544984D02*
X14853277Y-11554508D01*
X14853277Y-11554508D02*
X14843753Y-11564031D01*
X14843753Y-11564031D02*
X14824706Y-11592603D01*
X14824706Y-11592603D02*
X14815182Y-11630698D01*
X14815182Y-11630698D02*
X14815182Y-11706888D01*
X14815182Y-11706888D02*
X14824706Y-11725936D01*
X14824706Y-11725936D02*
X14834229Y-11735460D01*
X14834229Y-11735460D02*
X14853277Y-11744984D01*
X14853277Y-11744984D02*
X14891372Y-11744984D01*
X14891372Y-11744984D02*
X14910420Y-11735460D01*
X14910420Y-11735460D02*
X14919944Y-11725936D01*
X14919944Y-11725936D02*
X14929467Y-11706888D01*
X14929467Y-11706888D02*
X14929467Y-11659269D01*
X14929467Y-11659269D02*
X14919944Y-11640222D01*
X14919944Y-11640222D02*
X14910420Y-11630698D01*
X14910420Y-11630698D02*
X14891372Y-11621174D01*
X14891372Y-11621174D02*
X14853277Y-11621174D01*
X14853277Y-11621174D02*
X14834229Y-11630698D01*
X14834229Y-11630698D02*
X14824706Y-11640222D01*
X14824706Y-11640222D02*
X14815182Y-11659269D01*
X15119944Y-11744984D02*
X15005658Y-11744984D01*
X15062801Y-11744984D02*
X15062801Y-11544984D01*
X15062801Y-11544984D02*
X15043753Y-11573555D01*
X15043753Y-11573555D02*
X15024706Y-11592603D01*
X15024706Y-11592603D02*
X15005658Y-11602127D01*
X15196134Y-11544984D02*
X15196134Y-11583079D01*
X15272325Y-11544984D02*
X15272325Y-11583079D01*
X15567563Y-11821174D02*
X15558039Y-11811650D01*
X15558039Y-11811650D02*
X15538991Y-11783079D01*
X15538991Y-11783079D02*
X15529468Y-11764031D01*
X15529468Y-11764031D02*
X15519944Y-11735460D01*
X15519944Y-11735460D02*
X15510420Y-11687841D01*
X15510420Y-11687841D02*
X15510420Y-11649746D01*
X15510420Y-11649746D02*
X15519944Y-11602127D01*
X15519944Y-11602127D02*
X15529468Y-11573555D01*
X15529468Y-11573555D02*
X15538991Y-11554508D01*
X15538991Y-11554508D02*
X15558039Y-11525936D01*
X15558039Y-11525936D02*
X15567563Y-11516412D01*
X15748515Y-11744984D02*
X15634229Y-11744984D01*
X15691372Y-11744984D02*
X15691372Y-11544984D01*
X15691372Y-11544984D02*
X15672325Y-11573555D01*
X15672325Y-11573555D02*
X15653277Y-11592603D01*
X15653277Y-11592603D02*
X15634229Y-11602127D01*
X15986610Y-11744984D02*
X15986610Y-11544984D01*
X16072325Y-11744984D02*
X16072325Y-11640222D01*
X16072325Y-11640222D02*
X16062801Y-11621174D01*
X16062801Y-11621174D02*
X16043753Y-11611650D01*
X16043753Y-11611650D02*
X16015182Y-11611650D01*
X16015182Y-11611650D02*
X15996134Y-11621174D01*
X15996134Y-11621174D02*
X15986610Y-11630698D01*
X16196134Y-11744984D02*
X16177087Y-11735460D01*
X16177087Y-11735460D02*
X16167563Y-11725936D01*
X16167563Y-11725936D02*
X16158039Y-11706888D01*
X16158039Y-11706888D02*
X16158039Y-11649746D01*
X16158039Y-11649746D02*
X16167563Y-11630698D01*
X16167563Y-11630698D02*
X16177087Y-11621174D01*
X16177087Y-11621174D02*
X16196134Y-11611650D01*
X16196134Y-11611650D02*
X16224706Y-11611650D01*
X16224706Y-11611650D02*
X16243753Y-11621174D01*
X16243753Y-11621174D02*
X16253277Y-11630698D01*
X16253277Y-11630698D02*
X16262801Y-11649746D01*
X16262801Y-11649746D02*
X16262801Y-11706888D01*
X16262801Y-11706888D02*
X16253277Y-11725936D01*
X16253277Y-11725936D02*
X16243753Y-11735460D01*
X16243753Y-11735460D02*
X16224706Y-11744984D01*
X16224706Y-11744984D02*
X16196134Y-11744984D01*
X16377087Y-11744984D02*
X16358039Y-11735460D01*
X16358039Y-11735460D02*
X16348515Y-11716412D01*
X16348515Y-11716412D02*
X16348515Y-11544984D01*
X16529468Y-11735460D02*
X16510420Y-11744984D01*
X16510420Y-11744984D02*
X16472325Y-11744984D01*
X16472325Y-11744984D02*
X16453277Y-11735460D01*
X16453277Y-11735460D02*
X16443753Y-11716412D01*
X16443753Y-11716412D02*
X16443753Y-11640222D01*
X16443753Y-11640222D02*
X16453277Y-11621174D01*
X16453277Y-11621174D02*
X16472325Y-11611650D01*
X16472325Y-11611650D02*
X16510420Y-11611650D01*
X16510420Y-11611650D02*
X16529468Y-11621174D01*
X16529468Y-11621174D02*
X16538991Y-11640222D01*
X16538991Y-11640222D02*
X16538991Y-11659269D01*
X16538991Y-11659269D02*
X16443753Y-11678317D01*
X16605658Y-11821174D02*
X16615182Y-11811650D01*
X16615182Y-11811650D02*
X16634230Y-11783079D01*
X16634230Y-11783079D02*
X16643753Y-11764031D01*
X16643753Y-11764031D02*
X16653277Y-11735460D01*
X16653277Y-11735460D02*
X16662801Y-11687841D01*
X16662801Y-11687841D02*
X16662801Y-11649746D01*
X16662801Y-11649746D02*
X16653277Y-11602127D01*
X16653277Y-11602127D02*
X16643753Y-11573555D01*
X16643753Y-11573555D02*
X16634230Y-11554508D01*
X16634230Y-11554508D02*
X16615182Y-11525936D01*
X16615182Y-11525936D02*
X16605658Y-11516412D01*
M02*
