G04*
G04 #@! TF.GenerationSoftware,Altium Limited,Altium Designer,20.0.13 (296)*
G04*
G04 Layer_Color=8421504*
%FSLAX25Y25*%
%MOIN*%
G70*
G01*
G75*
%ADD15R,0.02362X0.04134*%
%ADD16R,0.04331X0.02559*%
%ADD17R,0.02559X0.01378*%
%ADD18R,0.08661X0.04134*%
%ADD19R,0.04134X0.03937*%
%ADD20R,0.02362X0.02953*%
%ADD21R,0.02953X0.02362*%
%ADD22R,0.04921X0.07087*%
G04:AMPARAMS|DCode=23|XSize=98.43mil|YSize=28.35mil|CornerRadius=14.17mil|HoleSize=0mil|Usage=FLASHONLY|Rotation=180.000|XOffset=0mil|YOffset=0mil|HoleType=Round|Shape=RoundedRectangle|*
%AMROUNDEDRECTD23*
21,1,0.09843,0.00000,0,0,180.0*
21,1,0.07008,0.02835,0,0,180.0*
1,1,0.02835,-0.03504,0.00000*
1,1,0.02835,0.03504,0.00000*
1,1,0.02835,0.03504,0.00000*
1,1,0.02835,-0.03504,0.00000*
%
%ADD23ROUNDEDRECTD23*%
G04:AMPARAMS|DCode=24|XSize=98.43mil|YSize=28.35mil|CornerRadius=14.17mil|HoleSize=0mil|Usage=FLASHONLY|Rotation=270.000|XOffset=0mil|YOffset=0mil|HoleType=Round|Shape=RoundedRectangle|*
%AMROUNDEDRECTD24*
21,1,0.09843,0.00000,0,0,270.0*
21,1,0.07008,0.02835,0,0,270.0*
1,1,0.02835,0.00000,-0.03504*
1,1,0.02835,0.00000,0.03504*
1,1,0.02835,0.00000,0.03504*
1,1,0.02835,0.00000,-0.03504*
%
%ADD24ROUNDEDRECTD24*%
%ADD25R,0.07874X0.11811*%
%ADD26R,0.04331X0.04331*%
%ADD27R,0.07874X0.04331*%
%ADD28R,0.03150X0.04331*%
%ADD29R,0.04331X0.07874*%
%ADD30R,0.04331X0.03150*%
%ADD31R,0.02441X0.02205*%
%ADD32R,0.02205X0.02441*%
D15*
X163465Y24626D02*
D03*
Y14193D02*
D03*
X167402D02*
D03*
Y24626D02*
D03*
D16*
X178347Y18032D02*
D03*
Y10551D02*
D03*
X187402Y14291D02*
D03*
D17*
X29134Y93602D02*
D03*
Y90256D02*
D03*
D18*
X14253Y63089D02*
D03*
Y51475D02*
D03*
Y100136D02*
D03*
Y88522D02*
D03*
X14174Y135097D02*
D03*
Y123483D02*
D03*
D19*
X20256Y57282D02*
D03*
Y94329D02*
D03*
X20178Y129290D02*
D03*
D20*
X32835Y84842D02*
D03*
Y89173D02*
D03*
X115866Y8307D02*
D03*
Y12638D02*
D03*
X157323Y26496D02*
D03*
Y22165D02*
D03*
D21*
X29409Y129252D02*
D03*
X33740D02*
D03*
X34213Y57402D02*
D03*
X29882D02*
D03*
D22*
X59488Y15984D02*
D03*
Y26221D02*
D03*
X83583Y15984D02*
D03*
Y26221D02*
D03*
D23*
X198721Y46339D02*
D03*
Y51457D02*
D03*
Y56575D02*
D03*
Y61693D02*
D03*
Y66811D02*
D03*
Y71929D02*
D03*
Y77047D02*
D03*
Y94370D02*
D03*
Y99488D02*
D03*
Y104606D02*
D03*
Y109724D02*
D03*
Y114842D02*
D03*
Y119961D02*
D03*
Y125079D02*
D03*
Y130197D02*
D03*
Y135315D02*
D03*
Y140433D02*
D03*
Y145551D02*
D03*
X74705D02*
D03*
Y140433D02*
D03*
Y135315D02*
D03*
Y130197D02*
D03*
Y125079D02*
D03*
Y119961D02*
D03*
Y114842D02*
D03*
Y109724D02*
D03*
Y104606D02*
D03*
Y99488D02*
D03*
Y94370D02*
D03*
Y77047D02*
D03*
Y71929D02*
D03*
Y66811D02*
D03*
Y61693D02*
D03*
Y56575D02*
D03*
Y51457D02*
D03*
Y46339D02*
D03*
X198721Y84134D02*
D03*
Y89252D02*
D03*
X74705D02*
D03*
Y84134D02*
D03*
D24*
X174311Y152047D02*
D03*
X169193D02*
D03*
X164075D02*
D03*
X158957D02*
D03*
X153839D02*
D03*
X148721D02*
D03*
X143602D02*
D03*
X138484D02*
D03*
X133366D02*
D03*
X128248D02*
D03*
X123130D02*
D03*
X118012D02*
D03*
X112894D02*
D03*
X107776D02*
D03*
X102657D02*
D03*
X97539D02*
D03*
X92421D02*
D03*
X87303D02*
D03*
Y39843D02*
D03*
X92421D02*
D03*
X97539D02*
D03*
X102657D02*
D03*
X107776D02*
D03*
X112894D02*
D03*
X118012D02*
D03*
X123130D02*
D03*
X128248D02*
D03*
X133366D02*
D03*
X138484D02*
D03*
X143602D02*
D03*
X148721D02*
D03*
X153839D02*
D03*
X158957D02*
D03*
X164075D02*
D03*
X169193D02*
D03*
X174311D02*
D03*
X179429D02*
D03*
X184547D02*
D03*
X179429Y152047D02*
D03*
X184547D02*
D03*
D25*
X104429Y58150D02*
D03*
Y77047D02*
D03*
Y95945D02*
D03*
Y114842D02*
D03*
Y133740D02*
D03*
X117028Y58150D02*
D03*
Y77047D02*
D03*
Y95945D02*
D03*
Y114842D02*
D03*
Y133740D02*
D03*
X130413Y58150D02*
D03*
Y77047D02*
D03*
Y114842D02*
D03*
Y133740D02*
D03*
X143012Y58150D02*
D03*
Y77047D02*
D03*
Y114842D02*
D03*
Y133740D02*
D03*
X156398Y58150D02*
D03*
Y77047D02*
D03*
Y95945D02*
D03*
Y114842D02*
D03*
Y133740D02*
D03*
X168996Y58150D02*
D03*
Y77047D02*
D03*
Y95945D02*
D03*
Y114842D02*
D03*
Y133740D02*
D03*
D26*
X180020Y52638D02*
D03*
Y60512D02*
D03*
Y68386D02*
D03*
Y76260D02*
D03*
Y84134D02*
D03*
Y92008D02*
D03*
Y99882D02*
D03*
Y107756D02*
D03*
Y115630D02*
D03*
Y123504D02*
D03*
Y131378D02*
D03*
Y139252D02*
D03*
X187894Y52638D02*
D03*
Y60512D02*
D03*
Y68386D02*
D03*
Y76260D02*
D03*
Y84134D02*
D03*
Y92008D02*
D03*
Y99882D02*
D03*
Y107756D02*
D03*
Y115630D02*
D03*
Y123504D02*
D03*
Y131378D02*
D03*
Y139252D02*
D03*
D27*
X94961Y11181D02*
D03*
D28*
X102441D02*
D03*
D29*
X37362Y23898D02*
D03*
D30*
Y16417D02*
D03*
D31*
X48297Y20000D02*
D03*
Y23779D02*
D03*
X76917Y20000D02*
D03*
Y23779D02*
D03*
X68513Y20000D02*
D03*
Y23779D02*
D03*
X52499Y20000D02*
D03*
Y23779D02*
D03*
X44094Y20000D02*
D03*
Y23779D02*
D03*
X72715Y20000D02*
D03*
Y23779D02*
D03*
X37835Y125551D02*
D03*
Y129331D02*
D03*
X25315Y132992D02*
D03*
Y129213D02*
D03*
X25336Y90629D02*
D03*
Y94409D02*
D03*
X40433Y98071D02*
D03*
Y94291D02*
D03*
X38740Y53622D02*
D03*
Y57402D02*
D03*
X25315Y61063D02*
D03*
Y57284D02*
D03*
X36654Y89449D02*
D03*
Y85669D02*
D03*
D32*
X36614Y94252D02*
D03*
X32835D02*
D03*
M02*
