G04*
G04 #@! TF.GenerationSoftware,Altium Limited,Altium Designer,20.0.13 (296)*
G04*
G04 Layer_Color=32896*
%FSLAX25Y25*%
%MOIN*%
G70*
G01*
G75*
%ADD11C,0.00787*%
%ADD13C,0.00500*%
%ADD61C,0.01000*%
D11*
X152260Y2150D02*
Y8150D01*
X119882Y2150D02*
X152260D01*
X119882D02*
Y14150D01*
X146339D01*
X8661Y148685D02*
X64449D01*
Y160685D01*
X2740D02*
X64449D01*
X2740Y154685D02*
Y160685D01*
X152260Y17307D02*
Y23307D01*
X90551Y17307D02*
X152260D01*
X90551D02*
Y29307D01*
X146339D01*
D13*
X159894Y33374D02*
X158844D01*
X159369D01*
Y36523D01*
X159894Y35998D01*
X157270Y36523D02*
Y34424D01*
X156220Y33374D01*
X155171Y34424D01*
Y36523D01*
X154121Y35998D02*
X153596Y36523D01*
X152547D01*
X152022Y35998D01*
Y35473D01*
X152547Y34948D01*
X152022Y34424D01*
Y33899D01*
X152547Y33374D01*
X153596D01*
X154121Y33899D01*
Y34424D01*
X153596Y34948D01*
X154121Y35473D01*
Y35998D01*
X153596Y34948D02*
X152547D01*
X147824Y33374D02*
Y36523D01*
X146250D01*
X145725Y35998D01*
Y34948D01*
X146250Y34424D01*
X147824D01*
X144676Y33374D02*
Y36523D01*
X143101D01*
X142576Y35998D01*
Y34948D01*
X143101Y34424D01*
X144676D01*
X143626D02*
X142576Y33374D01*
X139428Y36523D02*
X141527D01*
Y33374D01*
X139428D01*
X141527Y34948D02*
X140477D01*
X135230Y33374D02*
Y36523D01*
X133655D01*
X133131Y35998D01*
Y34948D01*
X133655Y34424D01*
X135230D01*
X134180D02*
X133131Y33374D01*
X129982Y35998D02*
X130507Y36523D01*
X131556D01*
X132081Y35998D01*
Y35473D01*
X131556Y34948D01*
X130507D01*
X129982Y34424D01*
Y33899D01*
X130507Y33374D01*
X131556D01*
X132081Y33899D01*
X128933Y36523D02*
X126833D01*
X127883D01*
Y33374D01*
X122635Y36523D02*
Y34424D01*
X121586Y33374D01*
X120536Y34424D01*
Y36523D01*
X119487D02*
Y33374D01*
X117912D01*
X117388Y33899D01*
Y35998D01*
X117912Y36523D01*
X119487D01*
X116338D02*
Y33374D01*
X114764D01*
X114239Y33899D01*
Y35998D01*
X114764Y36523D01*
X116338D01*
X107942Y35998D02*
X108467Y36523D01*
X109516D01*
X110041Y35998D01*
Y33899D01*
X109516Y33374D01*
X108467D01*
X107942Y33899D01*
X106892Y36523D02*
Y33374D01*
X104793D01*
X103744Y36523D02*
Y33374D01*
Y34424D01*
X101645Y36523D01*
X103219Y34948D01*
X101645Y33374D01*
X97447Y36523D02*
Y33374D01*
X95872D01*
X95348Y33899D01*
Y35998D01*
X95872Y36523D01*
X97447D01*
X94298Y33374D02*
Y35473D01*
X93248Y36523D01*
X92199Y35473D01*
Y33374D01*
Y34948D01*
X94298D01*
X91149Y36523D02*
X89050D01*
X90100D01*
Y33374D01*
X88001D02*
Y35473D01*
X86951Y36523D01*
X85902Y35473D01*
Y33374D01*
Y34948D01*
X88001D01*
X136272Y156050D02*
Y152902D01*
X134697D01*
X134173Y153426D01*
Y155525D01*
X134697Y156050D01*
X136272D01*
X133123Y154476D02*
X131024D01*
X126826Y156050D02*
Y152902D01*
X125252D01*
X124727Y153426D01*
Y155525D01*
X125252Y156050D01*
X126826D01*
X123677Y154476D02*
X121578D01*
X122628Y155525D02*
Y153426D01*
X115281Y155525D02*
X115806Y156050D01*
X116855D01*
X117380Y155525D01*
Y153426D01*
X116855Y152902D01*
X115806D01*
X115281Y153426D01*
Y154476D01*
X116331D01*
X114232Y152902D02*
Y156050D01*
X112133Y152902D01*
Y156050D01*
X111083D02*
Y152902D01*
X109509D01*
X108984Y153426D01*
Y155525D01*
X109509Y156050D01*
X111083D01*
X102687D02*
X104786D01*
Y154476D01*
X103736Y155001D01*
X103211D01*
X102687Y154476D01*
Y153426D01*
X103211Y152902D01*
X104261D01*
X104786Y153426D01*
X101637Y156050D02*
Y153951D01*
X100588Y152902D01*
X99538Y153951D01*
Y156050D01*
X95340Y155525D02*
X94815Y156050D01*
X93766D01*
X93241Y155525D01*
Y155001D01*
X93766Y154476D01*
X94290D01*
X93766D01*
X93241Y153951D01*
Y153426D01*
X93766Y152902D01*
X94815D01*
X95340Y153426D01*
X92191Y156050D02*
Y153951D01*
X91142Y152902D01*
X90092Y153951D01*
Y156050D01*
X89043Y155525D02*
X88518Y156050D01*
X87468D01*
X86944Y155525D01*
Y155001D01*
X87468Y154476D01*
X86944Y153951D01*
Y153426D01*
X87468Y152902D01*
X88518D01*
X89043Y153426D01*
Y153951D01*
X88518Y154476D01*
X89043Y155001D01*
Y155525D01*
X88518Y154476D02*
X87468D01*
X80647Y155525D02*
X81171Y156050D01*
X82221D01*
X82746Y155525D01*
Y153426D01*
X82221Y152902D01*
X81171D01*
X80647Y153426D01*
Y154476D01*
X81696D01*
X79597Y152902D02*
Y156050D01*
X77498Y152902D01*
Y156050D01*
X76448D02*
Y152902D01*
X74874D01*
X74349Y153426D01*
Y155525D01*
X74874Y156050D01*
X76448D01*
X115015Y8984D02*
X115540Y9509D01*
X116589D01*
X117114Y8984D01*
Y6885D01*
X116589Y6360D01*
X115540D01*
X115015Y6885D01*
Y7934D01*
X116065D01*
X113965Y6360D02*
Y9509D01*
X111866Y6360D01*
Y9509D01*
X110817D02*
Y6360D01*
X109243D01*
X108718Y6885D01*
Y8984D01*
X109243Y9509D01*
X110817D01*
X104520Y6360D02*
Y9509D01*
X102421Y6360D01*
Y9509D01*
X99272D02*
X101371D01*
Y6360D01*
X99272D01*
X101371Y7934D02*
X100322D01*
X98223Y9509D02*
X96123D01*
X97173D01*
Y6360D01*
X95074Y7934D02*
X92975D01*
X89826Y8984D02*
X90351Y9509D01*
X91401D01*
X91925Y8984D01*
Y8459D01*
X91401Y7934D01*
X90351D01*
X89826Y7410D01*
Y6885D01*
X90351Y6360D01*
X91401D01*
X91925Y6885D01*
X88777Y9509D02*
X86678D01*
X87727D01*
Y6360D01*
X85628D02*
Y8459D01*
X84579Y9509D01*
X83529Y8459D01*
Y6360D01*
Y7934D01*
X85628D01*
X82480Y9509D02*
X80380D01*
X81430D01*
Y6360D01*
X76182D02*
Y9509D01*
X74608D01*
X74083Y8984D01*
Y7934D01*
X74608Y7410D01*
X76182D01*
X73034Y9509D02*
Y6360D01*
X71984Y7410D01*
X70935Y6360D01*
Y9509D01*
X69885Y6360D02*
Y9509D01*
X68311D01*
X67786Y8984D01*
Y7934D01*
X68311Y7410D01*
X69885D01*
X68836D02*
X67786Y6360D01*
X66737Y9509D02*
Y6360D01*
Y7410D01*
X64638Y9509D01*
X66212Y7934D01*
X64638Y6360D01*
X61489Y9509D02*
X63588D01*
Y6360D01*
X61489D01*
X63588Y7934D02*
X62538D01*
X60439Y9509D02*
Y8984D01*
X59390Y7934D01*
X58340Y8984D01*
Y9509D01*
X59390Y7934D02*
Y6360D01*
X157559Y6483D02*
Y5434D01*
Y5958D01*
X154935D01*
X154410Y5434D01*
Y4909D01*
X154935Y4384D01*
X157559Y9632D02*
X157034Y8582D01*
X155984Y7533D01*
X154935D01*
X154410Y8057D01*
Y9107D01*
X154935Y9632D01*
X155459D01*
X155984Y9107D01*
Y7533D01*
X8806Y146023D02*
X9856D01*
X9331D01*
Y143399D01*
X9856Y142874D01*
X10381D01*
X10905Y143399D01*
X5658Y142874D02*
X7757D01*
X5658Y144973D01*
Y145498D01*
X6183Y146023D01*
X7232D01*
X7757Y145498D01*
X86652Y23595D02*
Y22546D01*
Y23070D01*
X84029D01*
X83504Y22546D01*
Y22021D01*
X84029Y21496D01*
X83504Y24645D02*
Y25694D01*
Y25169D01*
X86652D01*
X86128Y24645D01*
D61*
X189250Y120592D02*
X189906Y121248D01*
X191218D01*
X191874Y120592D01*
Y119936D01*
X191218Y119280D01*
X189906D01*
X189250Y118624D01*
Y117968D01*
X189906Y117312D01*
X191218D01*
X191874Y117968D01*
X187938Y117312D02*
Y119936D01*
X187282D01*
X186626Y119280D01*
Y117312D01*
Y119280D01*
X185970Y119936D01*
X185315Y119280D01*
Y117312D01*
X183347Y119936D02*
X182035D01*
X181379Y119280D01*
Y117312D01*
X183347D01*
X184002Y117968D01*
X183347Y118624D01*
X181379D01*
X180067Y119936D02*
Y117312D01*
Y118624D01*
X179411Y119280D01*
X178755Y119936D01*
X178099D01*
X175475Y120592D02*
Y119936D01*
X176131D01*
X174819D01*
X175475D01*
Y117968D01*
X174819Y117312D01*
X170227Y121248D02*
X172851D01*
Y117312D01*
X170227D01*
X172851Y119280D02*
X171539D01*
X166292Y116000D02*
Y119936D01*
X168260D01*
X168915Y119280D01*
Y117968D01*
X168260Y117312D01*
X166292D01*
X161044Y121248D02*
Y117312D01*
X159076D01*
X158420Y117968D01*
Y118624D01*
X159076Y119280D01*
X161044D01*
X159076D01*
X158420Y119936D01*
Y120592D01*
X159076Y121248D01*
X161044D01*
X157108Y117312D02*
X155796D01*
X156452D01*
Y119936D01*
X157108D01*
X153829Y117312D02*
X152517D01*
X153173D01*
Y121248D01*
X153829D01*
X150549Y117312D02*
X149237D01*
X149893D01*
Y119936D01*
X150549D01*
X147269Y117312D02*
X145301D01*
X144645Y117968D01*
X145301Y118624D01*
X146613D01*
X147269Y119280D01*
X146613Y119936D01*
X144645D01*
X143333Y117312D02*
X142021D01*
X142677D01*
Y119936D01*
X143333D01*
X140053Y117312D02*
Y119936D01*
X139398D01*
X138742Y119280D01*
Y117312D01*
Y119280D01*
X138086Y119936D01*
X137430Y119280D01*
Y117312D01*
X129558D02*
X132182D01*
X129558Y119936D01*
Y120592D01*
X130214Y121248D01*
X131526D01*
X132182Y120592D01*
X128246D02*
X127590Y121248D01*
X126278D01*
X125622Y120592D01*
Y117968D01*
X126278Y117312D01*
X127590D01*
X128246Y117968D01*
Y120592D01*
X121687Y117312D02*
X124311D01*
X121687Y119936D01*
Y120592D01*
X122343Y121248D01*
X123654D01*
X124311Y120592D01*
X120375D02*
X119719Y121248D01*
X118407D01*
X117751Y120592D01*
Y117968D01*
X118407Y117312D01*
X119719D01*
X120375Y117968D01*
Y120592D01*
X202386Y124359D02*
Y128295D01*
X201074Y126983D01*
X199762Y128295D01*
Y124359D01*
X197794D02*
X196482D01*
X195826Y125015D01*
Y126327D01*
X196482Y126983D01*
X197794D01*
X198450Y126327D01*
Y125015D01*
X197794Y124359D01*
X194514Y126983D02*
X193202Y124359D01*
X191891Y126983D01*
X190579Y124359D02*
X189267D01*
X189923D01*
Y126983D01*
X190579D01*
X186643Y127639D02*
Y126983D01*
X187299D01*
X185987D01*
X186643D01*
Y125015D01*
X185987Y124359D01*
X183363Y126983D02*
X182051D01*
X181395Y126327D01*
Y124359D01*
X183363D01*
X184019Y125015D01*
X183363Y125671D01*
X181395D01*
X179427Y123703D02*
X178771Y124359D01*
Y125015D01*
X179427D01*
Y124359D01*
X178771D01*
X179427Y123703D01*
X180083Y123047D01*
X172212Y124359D02*
Y128295D01*
X170900Y126983D01*
X169588Y128295D01*
Y124359D01*
X168276D02*
Y128295D01*
X165652Y124359D01*
Y128295D01*
X164340D02*
Y125671D01*
X163028Y124359D01*
X161716Y125671D01*
Y128295D01*
X160405Y124359D02*
Y128295D01*
X158437D01*
X157781Y127639D01*
Y126327D01*
X158437Y125671D01*
X160405D01*
X159093D02*
X157781Y124359D01*
X156469Y126327D02*
X153845D01*
X152533Y124359D02*
Y128295D01*
X150565D01*
X149909Y127639D01*
Y126327D01*
X150565Y125671D01*
X152533D01*
X148597Y126983D02*
Y124359D01*
Y125671D01*
X147941Y126327D01*
X147285Y126983D01*
X146630D01*
X144006Y124359D02*
X142694D01*
X142038Y125015D01*
Y126327D01*
X142694Y126983D01*
X144006D01*
X144662Y126327D01*
Y125015D01*
X144006Y124359D01*
X134166Y127639D02*
X134822Y128295D01*
X136134D01*
X136790Y127639D01*
Y125015D01*
X136134Y124359D01*
X134822D01*
X134166Y125015D01*
Y126327D01*
X135478D01*
X130231Y127639D02*
X130887Y128295D01*
X132199D01*
X132854Y127639D01*
Y126983D01*
X132199Y126327D01*
X130887D01*
X130231Y125671D01*
Y125015D01*
X130887Y124359D01*
X132199D01*
X132854Y125015D01*
X128919Y124359D02*
Y128295D01*
X127607Y126983D01*
X126295Y128295D01*
Y124359D01*
X121047D02*
Y128295D01*
X119079D01*
X118423Y127639D01*
Y126327D01*
X119079Y125671D01*
X121047D01*
X119735D02*
X118423Y124359D01*
X115144D02*
X116455D01*
X117112Y125015D01*
Y126327D01*
X116455Y126983D01*
X115144D01*
X114488Y126327D01*
Y125671D01*
X117112D01*
X113176Y126983D02*
X111864Y124359D01*
X110552Y126983D01*
X109240Y124359D02*
Y125015D01*
X108584D01*
Y124359D01*
X109240D01*
X105960Y127639D02*
X105304Y128295D01*
X103992D01*
X103336Y127639D01*
Y125015D01*
X103992Y124359D01*
X105304D01*
X105960Y125015D01*
Y127639D01*
X99401Y124359D02*
X102024D01*
X99401Y126983D01*
Y127639D01*
X100057Y128295D01*
X101368D01*
X102024Y127639D01*
M02*
