G04*
G04 #@! TF.GenerationSoftware,Altium Limited,Altium Designer,20.0.13 (296)*
G04*
G04 Layer_Physical_Order=2*
G04 Layer_Color=36540*
%FSLAX25Y25*%
%MOIN*%
G70*
G01*
G75*
%ADD61C,0.01000*%
%ADD63R,0.06496X0.06496*%
%ADD64C,0.06496*%
%ADD65C,0.02362*%
G36*
X221063Y1457D02*
X1575D01*
Y162205D01*
X221063D01*
Y1457D01*
D02*
G37*
%LPC*%
G36*
X58740Y159978D02*
X57370Y159798D01*
X56093Y159269D01*
X54997Y158428D01*
X54156Y157332D01*
X53990Y156931D01*
X53490D01*
X53324Y157332D01*
X52483Y158428D01*
X51387Y159269D01*
X50110Y159798D01*
X48740Y159978D01*
X47370Y159798D01*
X46093Y159269D01*
X44997Y158428D01*
X44156Y157332D01*
X43627Y156055D01*
X43447Y154685D01*
X43627Y153315D01*
X44156Y152038D01*
X44997Y150942D01*
X46093Y150101D01*
X47370Y149572D01*
X48740Y149392D01*
X50110Y149572D01*
X51387Y150101D01*
X52483Y150942D01*
X53324Y152038D01*
X53490Y152439D01*
X53990D01*
X54156Y152038D01*
X54997Y150942D01*
X56093Y150101D01*
X57370Y149572D01*
X58740Y149392D01*
X60110Y149572D01*
X61387Y150101D01*
X62483Y150942D01*
X63324Y152038D01*
X63853Y153315D01*
X64033Y154685D01*
X63853Y156055D01*
X63324Y157332D01*
X62483Y158428D01*
X61387Y159269D01*
X60110Y159798D01*
X58740Y159978D01*
D02*
G37*
G36*
X28740Y158557D02*
X27738Y158425D01*
X26804Y158038D01*
X26002Y157423D01*
X25387Y156621D01*
X25000Y155687D01*
X24869Y154685D01*
X25000Y153683D01*
X25387Y152749D01*
X26002Y151947D01*
X26804Y151332D01*
X27738Y150945D01*
X28740Y150813D01*
X29742Y150945D01*
X30676Y151332D01*
X31478Y151947D01*
X32093Y152749D01*
X32480Y153683D01*
X32612Y154685D01*
X32480Y155687D01*
X32093Y156621D01*
X31478Y157423D01*
X30676Y158038D01*
X29742Y158425D01*
X28740Y158557D01*
D02*
G37*
G36*
X18740D02*
X17738Y158425D01*
X16804Y158038D01*
X16002Y157423D01*
X15387Y156621D01*
X15000Y155687D01*
X14868Y154685D01*
X15000Y153683D01*
X15387Y152749D01*
X16002Y151947D01*
X16804Y151332D01*
X17738Y150945D01*
X18740Y150813D01*
X19742Y150945D01*
X20676Y151332D01*
X21478Y151947D01*
X22093Y152749D01*
X22480Y153683D01*
X22612Y154685D01*
X22480Y155687D01*
X22093Y156621D01*
X21478Y157423D01*
X20676Y158038D01*
X19742Y158425D01*
X18740Y158557D01*
D02*
G37*
G36*
X164094Y146373D02*
X163403Y146236D01*
X162817Y145844D01*
X162426Y145258D01*
X162288Y144567D01*
X162426Y143876D01*
X162817Y143290D01*
X163403Y142898D01*
X164094Y142761D01*
X164786Y142898D01*
X165372Y143290D01*
X165763Y143876D01*
X165901Y144567D01*
X165763Y145258D01*
X165372Y145844D01*
X164786Y146236D01*
X164094Y146373D01*
D02*
G37*
G36*
X92480Y146295D02*
X91789Y146157D01*
X91203Y145765D01*
X90812Y145179D01*
X90674Y144488D01*
X90812Y143797D01*
X91203Y143211D01*
X91789Y142819D01*
X92480Y142682D01*
X93172Y142819D01*
X93758Y143211D01*
X94149Y143797D01*
X94287Y144488D01*
X94149Y145179D01*
X93758Y145765D01*
X93172Y146157D01*
X92480Y146295D01*
D02*
G37*
G36*
X65945Y131295D02*
X65254Y131157D01*
X64668Y130765D01*
X64276Y130179D01*
X64139Y129488D01*
X64276Y128797D01*
X64668Y128211D01*
X65254Y127819D01*
X65945Y127682D01*
X66636Y127819D01*
X67222Y128211D01*
X67614Y128797D01*
X67751Y129488D01*
X67614Y130179D01*
X67222Y130765D01*
X66636Y131157D01*
X65945Y131295D01*
D02*
G37*
G36*
X210512Y143132D02*
X209844Y143044D01*
X209221Y142787D01*
X208687Y142376D01*
X208277Y141842D01*
X208019Y141219D01*
X207931Y140551D01*
X208019Y139883D01*
X208277Y139261D01*
X208687Y138726D01*
X209221Y138316D01*
X209445Y138223D01*
Y137682D01*
X209221Y137590D01*
X208687Y137179D01*
X208277Y136645D01*
X208019Y136022D01*
X207931Y135354D01*
X208019Y134686D01*
X208277Y134064D01*
X208687Y133529D01*
X209221Y133119D01*
X209302Y133086D01*
Y132544D01*
X209221Y132511D01*
X208687Y132101D01*
X208277Y131566D01*
X208019Y130944D01*
X207931Y130276D01*
X208019Y129607D01*
X208277Y128985D01*
X208687Y128451D01*
X209221Y128040D01*
X209397Y127967D01*
Y127426D01*
X209221Y127353D01*
X208687Y126943D01*
X208277Y126409D01*
X208019Y125786D01*
X207931Y125118D01*
X208019Y124450D01*
X208277Y123828D01*
X208687Y123293D01*
X209221Y122883D01*
X209844Y122625D01*
X210512Y122537D01*
X211180Y122625D01*
X211802Y122883D01*
X212337Y123293D01*
X212747Y123828D01*
X213005Y124450D01*
X213093Y125118D01*
X213005Y125786D01*
X212747Y126409D01*
X212337Y126943D01*
X211802Y127353D01*
X211627Y127426D01*
Y127967D01*
X211802Y128040D01*
X212337Y128451D01*
X212747Y128985D01*
X213005Y129607D01*
X213093Y130276D01*
X213005Y130944D01*
X212747Y131566D01*
X212337Y132101D01*
X211802Y132511D01*
X211722Y132544D01*
Y133086D01*
X211802Y133119D01*
X212337Y133529D01*
X212747Y134064D01*
X213005Y134686D01*
X213093Y135354D01*
X213005Y136022D01*
X212747Y136645D01*
X212337Y137179D01*
X211802Y137590D01*
X211579Y137682D01*
Y138223D01*
X211802Y138316D01*
X212337Y138726D01*
X212747Y139261D01*
X213005Y139883D01*
X213093Y140551D01*
X213005Y141219D01*
X212747Y141842D01*
X212337Y142376D01*
X211802Y142787D01*
X211180Y143044D01*
X210512Y143132D01*
D02*
G37*
G36*
X210705Y121955D02*
X210037Y121867D01*
X209415Y121609D01*
X208880Y121199D01*
X208470Y120664D01*
X208212Y120042D01*
X208124Y119374D01*
X208212Y118705D01*
X208470Y118083D01*
X208880Y117549D01*
X209415Y117138D01*
X210037Y116880D01*
X210705Y116793D01*
X211373Y116880D01*
X211996Y117138D01*
X212530Y117549D01*
X212941Y118083D01*
X213198Y118705D01*
X213286Y119374D01*
X213198Y120042D01*
X212941Y120664D01*
X212530Y121199D01*
X211996Y121609D01*
X211373Y121867D01*
X210705Y121955D01*
D02*
G37*
G36*
X213150Y109956D02*
X212458Y109818D01*
X211872Y109427D01*
X211481Y108841D01*
X211343Y108150D01*
X211481Y107458D01*
X211872Y106872D01*
X212458Y106481D01*
X213150Y106343D01*
X213841Y106481D01*
X214427Y106872D01*
X214819Y107458D01*
X214956Y108150D01*
X214819Y108841D01*
X214427Y109427D01*
X213841Y109818D01*
X213150Y109956D01*
D02*
G37*
G36*
X151142Y108513D02*
X122205D01*
X121753Y108326D01*
X121565Y107874D01*
Y83976D01*
X121753Y83524D01*
X122205Y83337D01*
X151142D01*
X151594Y83524D01*
X151781Y83976D01*
Y107874D01*
X151594Y108326D01*
X151142Y108513D01*
D02*
G37*
G36*
X36929Y83408D02*
X36261Y83320D01*
X35639Y83062D01*
X35104Y82652D01*
X34694Y82117D01*
X34436Y81495D01*
X34348Y80827D01*
X34436Y80159D01*
X34694Y79536D01*
X35104Y79002D01*
X35639Y78591D01*
X36261Y78334D01*
X36929Y78246D01*
X37597Y78334D01*
X38220Y78591D01*
X38754Y79002D01*
X39164Y79536D01*
X39422Y80159D01*
X39510Y80827D01*
X39422Y81495D01*
X39164Y82117D01*
X38754Y82652D01*
X38220Y83062D01*
X37597Y83320D01*
X36929Y83408D01*
D02*
G37*
G36*
X207520Y79550D02*
X206852Y79462D01*
X206229Y79204D01*
X205695Y78794D01*
X205284Y78259D01*
X205027Y77636D01*
X204939Y76968D01*
X205027Y76300D01*
X205284Y75678D01*
X205695Y75143D01*
X206229Y74733D01*
X206852Y74475D01*
X207520Y74387D01*
X208188Y74475D01*
X208810Y74733D01*
X209345Y75143D01*
X209755Y75678D01*
X210013Y76300D01*
X210101Y76968D01*
X210013Y77636D01*
X209755Y78259D01*
X209345Y78794D01*
X208810Y79204D01*
X208188Y79462D01*
X207520Y79550D01*
D02*
G37*
G36*
X212874Y73775D02*
X212183Y73637D01*
X211597Y73246D01*
X211205Y72660D01*
X211068Y71969D01*
X211205Y71277D01*
X211597Y70691D01*
X212183Y70300D01*
X212874Y70162D01*
X213565Y70300D01*
X214151Y70691D01*
X214543Y71277D01*
X214680Y71969D01*
X214543Y72660D01*
X214151Y73246D01*
X213565Y73637D01*
X212874Y73775D01*
D02*
G37*
G36*
X213661Y54117D02*
X212993Y54029D01*
X212371Y53771D01*
X211836Y53361D01*
X211426Y52826D01*
X211168Y52204D01*
X211080Y51535D01*
X211168Y50867D01*
X211426Y50245D01*
X211836Y49710D01*
X212371Y49300D01*
X212993Y49042D01*
X213661Y48954D01*
X214330Y49042D01*
X214952Y49300D01*
X215487Y49710D01*
X215897Y50245D01*
X216155Y50867D01*
X216243Y51535D01*
X216155Y52204D01*
X215897Y52826D01*
X215487Y53361D01*
X214952Y53771D01*
X214330Y54029D01*
X213661Y54117D01*
D02*
G37*
G36*
X86339Y51098D02*
X85647Y50960D01*
X85061Y50569D01*
X84670Y49983D01*
X84532Y49291D01*
X84670Y48600D01*
X85061Y48014D01*
X85647Y47622D01*
X86339Y47485D01*
X87030Y47622D01*
X87616Y48014D01*
X88007Y48600D01*
X88145Y49291D01*
X88007Y49983D01*
X87616Y50569D01*
X87030Y50960D01*
X86339Y51098D01*
D02*
G37*
G36*
X58622Y45494D02*
X57954Y45407D01*
X57332Y45149D01*
X56797Y44739D01*
X56387Y44204D01*
X56129Y43581D01*
X56041Y42913D01*
X56129Y42245D01*
X56387Y41623D01*
X56797Y41088D01*
X57332Y40678D01*
X57954Y40420D01*
X58622Y40332D01*
X59290Y40420D01*
X59913Y40678D01*
X60447Y41088D01*
X60857Y41623D01*
X61115Y42245D01*
X61203Y42913D01*
X61115Y43581D01*
X60857Y44204D01*
X60447Y44739D01*
X59913Y45149D01*
X59290Y45407D01*
X58622Y45494D01*
D02*
G37*
G36*
X182953Y30586D02*
X182262Y30448D01*
X181676Y30057D01*
X181284Y29471D01*
X181146Y28780D01*
X181284Y28088D01*
X181676Y27502D01*
X182262Y27111D01*
X182953Y26973D01*
X183644Y27111D01*
X184230Y27502D01*
X184622Y28088D01*
X184759Y28780D01*
X184622Y29471D01*
X184230Y30057D01*
X183644Y30448D01*
X182953Y30586D01*
D02*
G37*
G36*
X200630Y26754D02*
X199962Y26666D01*
X199339Y26409D01*
X198805Y25998D01*
X198395Y25464D01*
X198137Y24841D01*
X198049Y24173D01*
X198137Y23505D01*
X198395Y22883D01*
X198805Y22348D01*
X199339Y21938D01*
X199962Y21680D01*
X200630Y21592D01*
X201298Y21680D01*
X201921Y21938D01*
X202455Y22348D01*
X202865Y22883D01*
X203123Y23505D01*
X203211Y24173D01*
X203123Y24841D01*
X202865Y25464D01*
X202455Y25998D01*
X201921Y26409D01*
X201298Y26666D01*
X200630Y26754D01*
D02*
G37*
G36*
X191575D02*
X190907Y26666D01*
X190284Y26409D01*
X189750Y25998D01*
X189339Y25464D01*
X189082Y24841D01*
X188994Y24173D01*
X189082Y23505D01*
X189339Y22883D01*
X189750Y22348D01*
X190284Y21938D01*
X190907Y21680D01*
X191575Y21592D01*
X192243Y21680D01*
X192865Y21938D01*
X193400Y22348D01*
X193810Y22883D01*
X194068Y23505D01*
X194156Y24173D01*
X194068Y24841D01*
X193810Y25464D01*
X193400Y25998D01*
X192865Y26409D01*
X192243Y26666D01*
X191575Y26754D01*
D02*
G37*
G36*
X167288Y22159D02*
X166457Y22049D01*
X165683Y21729D01*
X165207Y21363D01*
X164861Y21629D01*
X164087Y21949D01*
X163256Y22059D01*
X162426Y21949D01*
X161652Y21629D01*
X160988Y21119D01*
X160478Y20454D01*
X160157Y19680D01*
X160048Y18850D01*
X160157Y18020D01*
X160478Y17246D01*
X160988Y16581D01*
X161652Y16071D01*
X162426Y15751D01*
X163256Y15642D01*
X164087Y15751D01*
X164861Y16071D01*
X165337Y16437D01*
X165683Y16171D01*
X166457Y15851D01*
X167288Y15741D01*
X168118Y15851D01*
X168892Y16171D01*
X169556Y16681D01*
X170066Y17346D01*
X170387Y18120D01*
X170496Y18950D01*
X170387Y19780D01*
X170066Y20554D01*
X169556Y21219D01*
X168892Y21729D01*
X168118Y22049D01*
X167288Y22159D01*
D02*
G37*
G36*
X150098Y27146D02*
X142421D01*
Y19468D01*
X150098D01*
Y27146D01*
D02*
G37*
G36*
X136260Y27179D02*
X135258Y27047D01*
X134324Y26660D01*
X133522Y26045D01*
X132907Y25243D01*
X132520Y24309D01*
X132388Y23307D01*
X132520Y22305D01*
X132907Y21371D01*
X133522Y20569D01*
X134324Y19954D01*
X135258Y19567D01*
X136260Y19435D01*
X137262Y19567D01*
X138196Y19954D01*
X138998Y20569D01*
X139613Y21371D01*
X140000Y22305D01*
X140131Y23307D01*
X140000Y24309D01*
X139613Y25243D01*
X138998Y26045D01*
X138196Y26660D01*
X137262Y27047D01*
X136260Y27179D01*
D02*
G37*
G36*
X126260D02*
X125258Y27047D01*
X124324Y26660D01*
X123522Y26045D01*
X122907Y25243D01*
X122520Y24309D01*
X122388Y23307D01*
X122520Y22305D01*
X122907Y21371D01*
X123522Y20569D01*
X124324Y19954D01*
X125258Y19567D01*
X126260Y19435D01*
X127262Y19567D01*
X128196Y19954D01*
X128998Y20569D01*
X129613Y21371D01*
X130000Y22305D01*
X130131Y23307D01*
X130000Y24309D01*
X129613Y25243D01*
X128998Y26045D01*
X128196Y26660D01*
X127262Y27047D01*
X126260Y27179D01*
D02*
G37*
G36*
X116260D02*
X115258Y27047D01*
X114324Y26660D01*
X113522Y26045D01*
X112907Y25243D01*
X112520Y24309D01*
X112388Y23307D01*
X112520Y22305D01*
X112907Y21371D01*
X113522Y20569D01*
X114324Y19954D01*
X115258Y19567D01*
X116260Y19435D01*
X117262Y19567D01*
X118196Y19954D01*
X118998Y20569D01*
X119613Y21371D01*
X120000Y22305D01*
X120132Y23307D01*
X120000Y24309D01*
X119613Y25243D01*
X118998Y26045D01*
X118196Y26660D01*
X117262Y27047D01*
X116260Y27179D01*
D02*
G37*
G36*
X106260D02*
X105258Y27047D01*
X104324Y26660D01*
X103522Y26045D01*
X102907Y25243D01*
X102520Y24309D01*
X102388Y23307D01*
X102520Y22305D01*
X102907Y21371D01*
X103522Y20569D01*
X104324Y19954D01*
X105258Y19567D01*
X106260Y19435D01*
X107262Y19567D01*
X108196Y19954D01*
X108998Y20569D01*
X109613Y21371D01*
X110000Y22305D01*
X110132Y23307D01*
X110000Y24309D01*
X109613Y25243D01*
X108998Y26045D01*
X108196Y26660D01*
X107262Y27047D01*
X106260Y27179D01*
D02*
G37*
G36*
X96260D02*
X95258Y27047D01*
X94324Y26660D01*
X93522Y26045D01*
X92907Y25243D01*
X92520Y24309D01*
X92388Y23307D01*
X92520Y22305D01*
X92907Y21371D01*
X93522Y20569D01*
X94324Y19954D01*
X95258Y19567D01*
X96260Y19435D01*
X97262Y19567D01*
X98196Y19954D01*
X98998Y20569D01*
X99613Y21371D01*
X100000Y22305D01*
X100132Y23307D01*
X100000Y24309D01*
X99613Y25243D01*
X98998Y26045D01*
X98196Y26660D01*
X97262Y27047D01*
X96260Y27179D01*
D02*
G37*
G36*
X136260Y12021D02*
X135258Y11889D01*
X134324Y11503D01*
X133522Y10887D01*
X132907Y10086D01*
X132520Y9152D01*
X132388Y8150D01*
X132520Y7147D01*
X132907Y6214D01*
X133522Y5412D01*
X134324Y4797D01*
X135258Y4410D01*
X136260Y4278D01*
X137262Y4410D01*
X138196Y4797D01*
X138998Y5412D01*
X139613Y6214D01*
X140000Y7147D01*
X140131Y8150D01*
X140000Y9152D01*
X139613Y10086D01*
X138998Y10887D01*
X138196Y11503D01*
X137262Y11889D01*
X136260Y12021D01*
D02*
G37*
G36*
X126260D02*
X125258Y11889D01*
X124324Y11503D01*
X123522Y10887D01*
X122907Y10086D01*
X122520Y9152D01*
X122388Y8150D01*
X122520Y7147D01*
X122907Y6214D01*
X123522Y5412D01*
X124324Y4797D01*
X125258Y4410D01*
X126260Y4278D01*
X127262Y4410D01*
X128196Y4797D01*
X128998Y5412D01*
X129613Y6214D01*
X130000Y7147D01*
X130131Y8150D01*
X130000Y9152D01*
X129613Y10086D01*
X128998Y10887D01*
X128196Y11503D01*
X127262Y11889D01*
X126260Y12021D01*
D02*
G37*
G36*
X32244Y12913D02*
X6890D01*
Y3819D01*
X12572D01*
Y3740D01*
X19689D01*
Y3819D01*
X32244D01*
Y12913D01*
D02*
G37*
%LPD*%
D61*
X18098Y5331D02*
X14163D01*
X18098Y9266D01*
Y10250D01*
X17115Y11234D01*
X15147D01*
X14163Y10250D01*
D63*
X146339Y8150D02*
D03*
X8740Y154685D02*
D03*
D64*
X38740D02*
D03*
D65*
X208268Y25354D02*
D03*
X4173Y14685D02*
D03*
X30089Y15314D02*
D03*
X31693Y33386D02*
D03*
X32008Y47638D02*
D03*
X31693Y119961D02*
D03*
X69095Y155709D02*
D03*
X68465Y149724D02*
D03*
X66929Y142756D02*
D03*
X63898Y145984D02*
D03*
X56968Y73819D02*
D03*
X41457Y76929D02*
D03*
X27126Y104016D02*
D03*
X26299Y139842D02*
D03*
X38583Y137953D02*
D03*
X31732Y145394D02*
D03*
X38865Y145386D02*
D03*
X46137Y145528D02*
D03*
X54976Y143104D02*
D03*
X59095Y138268D02*
D03*
X52267Y138685D02*
D03*
X44291Y139685D02*
D03*
X61968Y119291D02*
D03*
X54134Y119724D02*
D03*
X45866Y118583D02*
D03*
X62835Y104055D02*
D03*
X54843Y103740D02*
D03*
X48845Y103896D02*
D03*
X21186Y77662D02*
D03*
X13504Y77362D02*
D03*
X26024Y68425D02*
D03*
X37520Y68543D02*
D03*
X43858Y65827D02*
D03*
X47323Y68661D02*
D03*
X29882Y76417D02*
D03*
X59961Y78661D02*
D03*
X54331Y78311D02*
D03*
X46654Y77795D02*
D03*
X51614Y84291D02*
D03*
X58622Y85158D02*
D03*
X63583Y84291D02*
D03*
X64921Y57953D02*
D03*
X61339Y53504D02*
D03*
X54173Y49606D02*
D03*
X46457Y46850D02*
D03*
X212638Y28307D02*
D03*
X101693Y3622D02*
D03*
X92441Y4370D02*
D03*
X83976Y2874D02*
D03*
X65276Y3386D02*
D03*
X74488Y3110D02*
D03*
X75000Y13858D02*
D03*
X69764Y13110D02*
D03*
X55551Y4134D02*
D03*
X48583D02*
D03*
X43347D02*
D03*
X37835Y4606D02*
D03*
X46063Y8622D02*
D03*
X51063Y8110D02*
D03*
X50551Y13583D02*
D03*
X46063Y13347D02*
D03*
X29646Y24055D02*
D03*
X28622Y29055D02*
D03*
X26142Y19094D02*
D03*
X18898Y15827D02*
D03*
X17913Y21339D02*
D03*
X13189Y17835D02*
D03*
X7437Y19334D02*
D03*
X5945Y24803D02*
D03*
X11693Y30551D02*
D03*
X12165Y24567D02*
D03*
X18425Y28071D02*
D03*
X22402Y24567D02*
D03*
X22913Y31811D02*
D03*
X18150Y31535D02*
D03*
X6929D02*
D03*
X209646Y7126D02*
D03*
X218858Y17835D02*
D03*
X213858Y97874D02*
D03*
X214124Y86651D02*
D03*
X213858Y79173D02*
D03*
X218425Y23071D02*
D03*
X217362Y35551D02*
D03*
X217598Y29291D02*
D03*
X207402Y20079D02*
D03*
X192677Y6850D02*
D03*
X196181Y12362D02*
D03*
X200276Y18543D02*
D03*
X202480Y11772D02*
D03*
X201890Y5630D02*
D03*
X215869Y5373D02*
D03*
X215276Y12913D02*
D03*
X208386Y14095D02*
D03*
X213228Y59252D02*
D03*
X213386Y21654D02*
D03*
X25394Y53858D02*
D03*
X29724Y53976D02*
D03*
X29528Y60787D02*
D03*
X25157Y97716D02*
D03*
X32835Y97677D02*
D03*
X68541Y74705D02*
D03*
X65256Y73988D02*
D03*
X62269Y72444D02*
D03*
X59743Y70225D02*
D03*
X57366Y67847D02*
D03*
X54989Y65470D02*
D03*
X52611Y63092D02*
D03*
X49980Y60999D02*
D03*
X46697Y60275D02*
D03*
X43335D02*
D03*
X40002Y60720D02*
D03*
X36643Y60568D02*
D03*
X33289Y60807D02*
D03*
X33679Y53997D02*
D03*
X43741Y54528D02*
D03*
X47103Y54558D02*
D03*
X50425Y55073D02*
D03*
X53497Y56439D02*
D03*
X56151Y58504D02*
D03*
X58528Y60882D02*
D03*
X60906Y63259D02*
D03*
X63283Y65636D02*
D03*
X65749Y67922D02*
D03*
X81534Y70482D02*
D03*
X81313Y73837D02*
D03*
X67279Y97204D02*
D03*
X63916D02*
D03*
X60554D02*
D03*
X57192D02*
D03*
X53830D02*
D03*
X50468D02*
D03*
X47105D02*
D03*
X43743D02*
D03*
X37045Y97696D02*
D03*
X42055Y91045D02*
D03*
X45392Y91457D02*
D03*
X48754D02*
D03*
X52116D02*
D03*
X55479D02*
D03*
X58841D02*
D03*
X62203D02*
D03*
X65565D02*
D03*
X81534Y92923D02*
D03*
X89528Y145827D02*
D03*
X87241Y143313D02*
D03*
X84864Y140935D02*
D03*
X82486Y138558D02*
D03*
X67967Y132232D02*
D03*
X64626Y132606D02*
D03*
X61273Y132361D02*
D03*
X57911D02*
D03*
X54548D02*
D03*
X51186D02*
D03*
X47824D02*
D03*
X44462D02*
D03*
X41100D02*
D03*
X37751Y132657D02*
D03*
X34388Y132657D02*
D03*
X31063Y132598D02*
D03*
X29409Y125748D02*
D03*
X33622D02*
D03*
X41506Y126615D02*
D03*
X44868D02*
D03*
X48230D02*
D03*
X51592D02*
D03*
X54954D02*
D03*
X58317D02*
D03*
X61679D02*
D03*
X65017Y126208D02*
D03*
X83659Y131603D02*
D03*
X86036Y133981D02*
D03*
X88414Y136358D02*
D03*
X90791Y138736D02*
D03*
X93169Y141113D02*
D03*
X95675Y143354D02*
D03*
M02*
