G04*
G04 #@! TF.GenerationSoftware,Altium Limited,Altium Designer,20.0.13 (296)*
G04*
G04 Layer_Physical_Order=3*
G04 Layer_Color=16440176*
%FSLAX25Y25*%
%MOIN*%
G70*
G01*
G75*
%ADD11C,0.00787*%
%ADD57C,0.02000*%
%ADD59C,0.07874*%
%ADD61C,0.01000*%
%ADD62C,0.03937*%
%ADD63R,0.06496X0.06496*%
%ADD64C,0.06496*%
%ADD65C,0.02362*%
G36*
X221850Y11969D02*
Y669D01*
X168937D01*
Y5583D01*
X171772D01*
X172392Y5706D01*
X172918Y6058D01*
X179178Y12318D01*
X179530Y12844D01*
X179653Y13465D01*
Y39929D01*
X210946Y71222D01*
X211549Y71117D01*
X211739Y70833D01*
X212260Y70485D01*
X212874Y70363D01*
X213489Y70485D01*
X214009Y70833D01*
X214357Y71354D01*
X214480Y71969D01*
X214357Y72583D01*
X214009Y73104D01*
X213696Y73313D01*
X213307Y73583D01*
X213307Y77283D01*
X213694Y77600D01*
X213858Y77568D01*
X214473Y77690D01*
X214994Y78038D01*
X215342Y78559D01*
X215464Y79173D01*
X215342Y79788D01*
X214994Y80309D01*
X214473Y80657D01*
X213858Y80779D01*
X213462Y80700D01*
X213307Y80827D01*
X209095Y85039D01*
X199252D01*
X161519Y47306D01*
X140004Y68822D01*
X139212Y69351D01*
X138278Y69537D01*
X135608D01*
X122307Y82837D01*
X122514Y83337D01*
X151142D01*
X151594Y83524D01*
X151781Y83976D01*
Y107874D01*
X151594Y108326D01*
X151142Y108513D01*
X122205D01*
X121753Y108326D01*
X121565Y107874D01*
Y84286D01*
X121065Y84079D01*
X85118Y120027D01*
Y122697D01*
X84932Y123631D01*
X84403Y124423D01*
X67828Y140998D01*
X67877Y141495D01*
X68064Y141621D01*
X68413Y142141D01*
X68535Y142756D01*
X68413Y143370D01*
X68064Y143891D01*
X67544Y144239D01*
X66929Y144362D01*
X66315Y144239D01*
X65794Y143891D01*
X65668Y143704D01*
X65171Y143655D01*
X64749Y144077D01*
X64824Y144709D01*
X65033Y144849D01*
X65381Y145370D01*
X65503Y145984D01*
X65381Y146599D01*
X65033Y147120D01*
X64512Y147468D01*
X63898Y147590D01*
X63283Y147468D01*
X62762Y147120D01*
X62622Y146910D01*
X61990Y146835D01*
X59753Y149073D01*
X59913Y149546D01*
X60110Y149572D01*
X61387Y150101D01*
X62483Y150942D01*
X63324Y152038D01*
X63853Y153315D01*
X64033Y154685D01*
X63853Y156055D01*
X63324Y157332D01*
X62483Y158428D01*
X61387Y159269D01*
X60110Y159798D01*
X58740Y159978D01*
X57370Y159798D01*
X56093Y159269D01*
X54997Y158428D01*
X54156Y157332D01*
X53990Y156931D01*
X53490D01*
X53324Y157332D01*
X52483Y158428D01*
X51387Y159269D01*
X50110Y159798D01*
X48740Y159978D01*
X47370Y159798D01*
X46093Y159269D01*
X44997Y158428D01*
X44156Y157332D01*
X43627Y156055D01*
X43447Y154685D01*
X43627Y153315D01*
X44156Y152038D01*
X44997Y150942D01*
X46093Y150101D01*
X47370Y149572D01*
X48740Y149392D01*
X50110Y149572D01*
X50316Y149657D01*
X54791Y145183D01*
X54626Y144640D01*
X54362Y144588D01*
X53841Y144240D01*
X53493Y143719D01*
X53371Y143104D01*
X53493Y142490D01*
X53841Y141969D01*
X54362Y141621D01*
X54976Y141499D01*
X55591Y141621D01*
X56112Y141969D01*
X56460Y142490D01*
X56512Y142754D01*
X57055Y142919D01*
X59714Y140260D01*
X59467Y139799D01*
X59095Y139873D01*
X58480Y139751D01*
X57959Y139403D01*
X57611Y138882D01*
X57489Y138268D01*
X57611Y137653D01*
X57959Y137132D01*
X58480Y136784D01*
X59095Y136662D01*
X59709Y136784D01*
X60230Y137132D01*
X60578Y137653D01*
X60700Y138268D01*
X60626Y138641D01*
X61087Y138887D01*
X65456Y134518D01*
X65347Y134301D01*
X65161Y134105D01*
X64626Y134212D01*
X64012Y134090D01*
X63491Y133742D01*
X63168Y133259D01*
X62946Y133203D01*
X62624Y133174D01*
X62408Y133497D01*
X61887Y133845D01*
X61273Y133967D01*
X60658Y133845D01*
X60137Y133497D01*
X59869Y133096D01*
X59740Y133063D01*
X59443D01*
X59314Y133096D01*
X59046Y133497D01*
X58525Y133845D01*
X57911Y133967D01*
X57296Y133845D01*
X56775Y133497D01*
X56507Y133096D01*
X56378Y133063D01*
X56081D01*
X55952Y133096D01*
X55684Y133497D01*
X55163Y133845D01*
X54548Y133967D01*
X53934Y133845D01*
X53413Y133497D01*
X53145Y133096D01*
X53016Y133063D01*
X52719D01*
X52589Y133096D01*
X52322Y133497D01*
X51801Y133845D01*
X51186Y133967D01*
X50572Y133845D01*
X50051Y133497D01*
X49783Y133096D01*
X49653Y133063D01*
X49357D01*
X49227Y133096D01*
X48959Y133497D01*
X48439Y133845D01*
X47824Y133967D01*
X47210Y133845D01*
X46689Y133497D01*
X46421Y133096D01*
X46291Y133063D01*
X45995D01*
X45865Y133096D01*
X45597Y133497D01*
X45076Y133845D01*
X44462Y133967D01*
X43847Y133845D01*
X43327Y133497D01*
X43058Y133096D01*
X42929Y133063D01*
X42632D01*
X42503Y133096D01*
X42235Y133497D01*
X41714Y133845D01*
X41100Y133967D01*
X40485Y133845D01*
X39964Y133497D01*
X39760Y133191D01*
X39234Y133271D01*
X38886Y133792D01*
X38365Y134140D01*
X37751Y134263D01*
X37136Y134140D01*
X36615Y133792D01*
X36347Y133391D01*
X36218Y133359D01*
X35921Y133359D01*
X35792Y133391D01*
X35524Y133792D01*
X35003Y134140D01*
X34388Y134263D01*
X33774Y134140D01*
X33253Y133792D01*
X32984Y133390D01*
X32979Y133388D01*
X32541Y133362D01*
X32428Y133390D01*
X32198Y133734D01*
X31677Y134082D01*
X31063Y134204D01*
X30448Y134082D01*
X29928Y133734D01*
X29580Y133213D01*
X29457Y132598D01*
X29580Y131984D01*
X29928Y131463D01*
X30448Y131115D01*
X31063Y130993D01*
X31677Y131115D01*
X32198Y131463D01*
X32467Y131866D01*
X32473Y131868D01*
X32910Y131894D01*
X33023Y131866D01*
X33253Y131521D01*
X33774Y131174D01*
X34388Y131051D01*
X35003Y131174D01*
X35524Y131521D01*
X35792Y131922D01*
X35921Y131955D01*
X36218Y131955D01*
X36347Y131922D01*
X36615Y131521D01*
X37136Y131174D01*
X37751Y131051D01*
X38365Y131174D01*
X38886Y131521D01*
X39090Y131828D01*
X39616Y131747D01*
X39964Y131226D01*
X40485Y130878D01*
X41100Y130756D01*
X41714Y130878D01*
X42235Y131226D01*
X42503Y131627D01*
X42632Y131660D01*
X42929D01*
X43058Y131627D01*
X43327Y131226D01*
X43847Y130878D01*
X44462Y130756D01*
X45076Y130878D01*
X45597Y131226D01*
X45865Y131627D01*
X45995Y131660D01*
X46291D01*
X46421Y131627D01*
X46689Y131226D01*
X47210Y130878D01*
X47824Y130756D01*
X48439Y130878D01*
X48959Y131226D01*
X49227Y131627D01*
X49357Y131660D01*
X49653D01*
X49783Y131627D01*
X50051Y131226D01*
X50572Y130878D01*
X51186Y130756D01*
X51801Y130878D01*
X52322Y131226D01*
X52589Y131627D01*
X52719Y131660D01*
X53016D01*
X53145Y131627D01*
X53413Y131226D01*
X53934Y130878D01*
X54548Y130756D01*
X55163Y130878D01*
X55684Y131226D01*
X55952Y131627D01*
X56081Y131660D01*
X56378D01*
X56507Y131627D01*
X56775Y131226D01*
X57296Y130878D01*
X57911Y130756D01*
X58525Y130878D01*
X59046Y131226D01*
X59314Y131627D01*
X59443Y131660D01*
X59740D01*
X59869Y131627D01*
X60137Y131226D01*
X60658Y130878D01*
X61273Y130756D01*
X61887Y130878D01*
X62408Y131226D01*
X62731Y131709D01*
X62953Y131765D01*
X63275Y131793D01*
X63491Y131471D01*
X64012Y131123D01*
X64520Y131022D01*
X64618Y130887D01*
X64685Y130736D01*
X64735Y130512D01*
X64461Y130103D01*
X64339Y129488D01*
X64461Y128874D01*
X64810Y128353D01*
X64890Y128299D01*
X64785Y127768D01*
X64402Y127692D01*
X63881Y127344D01*
X63703Y127077D01*
X63172Y127182D01*
X63162Y127229D01*
X62814Y127750D01*
X62293Y128098D01*
X61679Y128221D01*
X61064Y128098D01*
X60544Y127750D01*
X60276Y127349D01*
X60146Y127317D01*
X59850D01*
X59720Y127349D01*
X59452Y127750D01*
X58931Y128098D01*
X58317Y128221D01*
X57702Y128098D01*
X57181Y127750D01*
X56913Y127349D01*
X56784Y127317D01*
X56487D01*
X56358Y127349D01*
X56090Y127750D01*
X55569Y128098D01*
X54954Y128221D01*
X54340Y128098D01*
X53819Y127750D01*
X53551Y127349D01*
X53422Y127317D01*
X53125D01*
X52996Y127349D01*
X52728Y127750D01*
X52207Y128098D01*
X51592Y128221D01*
X50978Y128098D01*
X50457Y127750D01*
X50189Y127349D01*
X50060Y127317D01*
X49763D01*
X49633Y127349D01*
X49365Y127750D01*
X48845Y128098D01*
X48230Y128221D01*
X47616Y128098D01*
X47095Y127750D01*
X46827Y127349D01*
X46697Y127317D01*
X46401D01*
X46271Y127349D01*
X46003Y127750D01*
X45482Y128098D01*
X44868Y128221D01*
X44254Y128098D01*
X43733Y127750D01*
X43465Y127349D01*
X43335Y127317D01*
X43038D01*
X42909Y127349D01*
X42641Y127750D01*
X42120Y128098D01*
X41506Y128221D01*
X40891Y128098D01*
X40370Y127750D01*
X40022Y127229D01*
X39900Y126615D01*
X40022Y126000D01*
X40370Y125479D01*
X40891Y125131D01*
X41506Y125009D01*
X42120Y125131D01*
X42641Y125479D01*
X42909Y125881D01*
X43038Y125913D01*
X43335D01*
X43465Y125881D01*
X43733Y125479D01*
X44254Y125131D01*
X44868Y125009D01*
X45482Y125131D01*
X46003Y125479D01*
X46271Y125881D01*
X46401Y125913D01*
X46697D01*
X46827Y125881D01*
X47095Y125479D01*
X47616Y125131D01*
X48230Y125009D01*
X48845Y125131D01*
X49365Y125479D01*
X49633Y125881D01*
X49763Y125913D01*
X50060D01*
X50189Y125881D01*
X50457Y125479D01*
X50978Y125131D01*
X51592Y125009D01*
X52207Y125131D01*
X52728Y125479D01*
X52996Y125881D01*
X53125Y125913D01*
X53422D01*
X53551Y125881D01*
X53819Y125479D01*
X54340Y125131D01*
X54954Y125009D01*
X55569Y125131D01*
X56090Y125479D01*
X56358Y125881D01*
X56487Y125913D01*
X56784D01*
X56913Y125881D01*
X57181Y125479D01*
X57702Y125131D01*
X58317Y125009D01*
X58931Y125131D01*
X59452Y125479D01*
X59720Y125881D01*
X59850Y125913D01*
X60146D01*
X60276Y125881D01*
X60544Y125479D01*
X61064Y125131D01*
X61679Y125009D01*
X62293Y125131D01*
X62814Y125479D01*
X62993Y125747D01*
X63524Y125641D01*
X63533Y125594D01*
X63881Y125073D01*
X64402Y124725D01*
X65017Y124603D01*
X65631Y124725D01*
X66152Y125073D01*
X66500Y125594D01*
X66622Y126208D01*
X66500Y126823D01*
X66152Y127344D01*
X66071Y127398D01*
X66177Y127929D01*
X66559Y128005D01*
X67080Y128353D01*
X67428Y128874D01*
X67550Y129488D01*
X67428Y130103D01*
X67335Y130242D01*
X67636Y130692D01*
X67967Y130626D01*
X68582Y130748D01*
X68967Y131006D01*
X78859Y121115D01*
Y118425D01*
X79044Y117491D01*
X79574Y116699D01*
X131247Y65026D01*
X131306Y64986D01*
X132300Y63992D01*
X133092Y63463D01*
X134026Y63278D01*
X136696D01*
X157093Y42880D01*
X155118Y40905D01*
X148504D01*
X73504Y115905D01*
X72524D01*
X72521Y115907D01*
X71339Y116063D01*
X71338Y116063D01*
X26654D01*
X24094Y118622D01*
Y163150D01*
X221850D01*
Y11969D01*
D02*
G37*
G36*
X211575Y79921D02*
Y73661D01*
X208386Y70472D01*
X168926Y31013D01*
X168464Y31204D01*
Y39350D01*
X168278Y40284D01*
X167749Y41076D01*
X162484Y46342D01*
X199882Y83740D01*
X207756D01*
X211575Y79921D01*
D02*
G37*
G36*
X22890Y118622D02*
X22982Y118161D01*
X23243Y117771D01*
X23243Y117771D01*
X23307Y117706D01*
Y117480D01*
X30748Y110039D01*
X77667Y110039D01*
X147652Y40054D01*
X148043Y39793D01*
X148504Y39701D01*
X148504Y39701D01*
X154634D01*
X155134Y39208D01*
X155134Y12379D01*
X154672Y12188D01*
X147958Y18902D01*
Y19468D01*
X150098D01*
Y27146D01*
X142421D01*
Y19468D01*
X144715D01*
Y18231D01*
X144838Y17610D01*
X145190Y17084D01*
X149785Y12488D01*
X149578Y11988D01*
X142500D01*
Y4311D01*
X150177D01*
Y11389D01*
X150677Y11596D01*
X155134Y7139D01*
Y630D01*
X155070Y551D01*
X630Y551D01*
Y163150D01*
X22890D01*
Y118622D01*
D02*
G37*
G36*
X176410Y36032D02*
Y14136D01*
X171100Y8826D01*
X168937D01*
Y13425D01*
Y16206D01*
X169556Y16681D01*
X170066Y17346D01*
X170387Y18120D01*
X170496Y18950D01*
X170387Y19780D01*
X170066Y20554D01*
X169556Y21219D01*
X168937Y21694D01*
Y29213D01*
X175948Y36223D01*
X176410Y36032D01*
D02*
G37*
G36*
X162205Y37769D02*
Y21858D01*
X161652Y21629D01*
X160988Y21119D01*
X160478Y20454D01*
X160157Y19680D01*
X160048Y18850D01*
X160157Y18020D01*
X160478Y17246D01*
X160988Y16581D01*
X161652Y16071D01*
X162426Y15751D01*
X163256Y15642D01*
X164087Y15751D01*
X164861Y16071D01*
X165337Y16437D01*
X165683Y16171D01*
X166457Y15851D01*
X167288Y15741D01*
X167480Y15573D01*
X167480Y630D01*
X156339Y630D01*
X156339Y40197D01*
X158058Y41916D01*
X162205Y37769D01*
D02*
G37*
%LPC*%
G36*
X69095Y157314D02*
X68480Y157192D01*
X67959Y156844D01*
X67611Y156323D01*
X67489Y155709D01*
X67611Y155094D01*
X67959Y154573D01*
X68480Y154225D01*
X69095Y154103D01*
X69709Y154225D01*
X70230Y154573D01*
X70578Y155094D01*
X70700Y155709D01*
X70578Y156323D01*
X70230Y156844D01*
X69709Y157192D01*
X69095Y157314D01*
D02*
G37*
G36*
X38740Y158557D02*
X37738Y158425D01*
X36804Y158038D01*
X36002Y157423D01*
X35387Y156621D01*
X35000Y155687D01*
X34868Y154685D01*
X35000Y153683D01*
X35387Y152749D01*
X36002Y151947D01*
X36804Y151332D01*
X37738Y150945D01*
X38740Y150813D01*
X39742Y150945D01*
X40676Y151332D01*
X41478Y151947D01*
X42093Y152749D01*
X42480Y153683D01*
X42612Y154685D01*
X42480Y155687D01*
X42093Y156621D01*
X41478Y157423D01*
X40676Y158038D01*
X39742Y158425D01*
X38740Y158557D01*
D02*
G37*
G36*
X68465Y151330D02*
X67850Y151208D01*
X67329Y150860D01*
X66981Y150339D01*
X66859Y149724D01*
X66981Y149110D01*
X67329Y148589D01*
X67850Y148241D01*
X68465Y148119D01*
X69079Y148241D01*
X69600Y148589D01*
X69948Y149110D01*
X70070Y149724D01*
X69948Y150339D01*
X69600Y150860D01*
X69079Y151208D01*
X68465Y151330D01*
D02*
G37*
G36*
X89528Y147432D02*
X88913Y147310D01*
X88392Y146962D01*
X88044Y146441D01*
X87922Y145827D01*
X88041Y145230D01*
X88037Y145222D01*
X87980Y145140D01*
X87700Y144827D01*
X87241Y144918D01*
X86627Y144796D01*
X86106Y144448D01*
X85758Y143927D01*
X85636Y143313D01*
X85730Y142840D01*
X85661Y142725D01*
X85452Y142515D01*
X85337Y142447D01*
X84864Y142541D01*
X84249Y142419D01*
X83728Y142070D01*
X83380Y141550D01*
X83258Y140935D01*
X83352Y140462D01*
X83284Y140348D01*
X83074Y140138D01*
X82959Y140069D01*
X82486Y140163D01*
X81872Y140041D01*
X81351Y139693D01*
X81003Y139172D01*
X80881Y138558D01*
X81003Y137943D01*
X81351Y137422D01*
X81872Y137074D01*
X82486Y136952D01*
X83101Y137074D01*
X83622Y137422D01*
X83970Y137943D01*
X84092Y138558D01*
X83998Y139031D01*
X84066Y139145D01*
X84276Y139355D01*
X84391Y139424D01*
X84864Y139330D01*
X85478Y139452D01*
X85999Y139800D01*
X86347Y140321D01*
X86470Y140935D01*
X86375Y141408D01*
X86444Y141523D01*
X86654Y141733D01*
X86768Y141801D01*
X87241Y141707D01*
X87856Y141829D01*
X88377Y142177D01*
X88725Y142698D01*
X88847Y143313D01*
X88728Y143909D01*
X88732Y143917D01*
X88789Y143999D01*
X89069Y144312D01*
X89528Y144221D01*
X90142Y144343D01*
X90398Y144515D01*
X90430Y144513D01*
X90920Y144262D01*
X90997Y143874D01*
X91345Y143353D01*
X91866Y143005D01*
X92173Y142944D01*
X92279Y142413D01*
X92033Y142249D01*
X91685Y141728D01*
X91563Y141113D01*
X91657Y140640D01*
X91589Y140525D01*
X91379Y140316D01*
X91264Y140247D01*
X90791Y140341D01*
X90177Y140219D01*
X89656Y139871D01*
X89308Y139350D01*
X89186Y138736D01*
X89280Y138263D01*
X89211Y138148D01*
X89002Y137938D01*
X88887Y137870D01*
X88414Y137964D01*
X87799Y137842D01*
X87278Y137494D01*
X86930Y136973D01*
X86808Y136358D01*
X86902Y135885D01*
X86834Y135771D01*
X86624Y135561D01*
X86509Y135492D01*
X86036Y135587D01*
X85422Y135464D01*
X84901Y135116D01*
X84553Y134595D01*
X84431Y133981D01*
X84525Y133508D01*
X84456Y133393D01*
X84247Y133184D01*
X84132Y133115D01*
X83659Y133209D01*
X83044Y133087D01*
X82524Y132739D01*
X82175Y132218D01*
X82053Y131603D01*
X82175Y130989D01*
X82524Y130468D01*
X83044Y130120D01*
X83659Y129998D01*
X84273Y130120D01*
X84794Y130468D01*
X85142Y130989D01*
X85265Y131603D01*
X85171Y132077D01*
X85239Y132191D01*
X85449Y132401D01*
X85563Y132469D01*
X86036Y132375D01*
X86651Y132498D01*
X87172Y132845D01*
X87520Y133366D01*
X87642Y133981D01*
X87548Y134454D01*
X87616Y134569D01*
X87826Y134778D01*
X87941Y134847D01*
X88414Y134753D01*
X89028Y134875D01*
X89549Y135223D01*
X89897Y135744D01*
X90020Y136358D01*
X89925Y136831D01*
X89994Y136946D01*
X90204Y137156D01*
X90318Y137224D01*
X90791Y137130D01*
X91406Y137252D01*
X91927Y137600D01*
X92275Y138121D01*
X92397Y138736D01*
X92303Y139209D01*
X92371Y139323D01*
X92581Y139533D01*
X92696Y139602D01*
X93169Y139507D01*
X93783Y139630D01*
X94304Y139978D01*
X94652Y140499D01*
X94774Y141113D01*
X94695Y141514D01*
X94891Y141706D01*
X95120Y141859D01*
X95675Y141749D01*
X96289Y141871D01*
X96810Y142219D01*
X97158Y142740D01*
X97281Y143354D01*
X97158Y143969D01*
X96810Y144490D01*
X96289Y144838D01*
X95675Y144960D01*
X95060Y144838D01*
X94560Y144503D01*
X94412Y144534D01*
X94052Y144660D01*
X93964Y145103D01*
X93616Y145624D01*
X93095Y145972D01*
X92480Y146094D01*
X91866Y145972D01*
X91610Y145800D01*
X91578Y145802D01*
X91088Y146053D01*
X91011Y146441D01*
X90663Y146962D01*
X90142Y147310D01*
X89528Y147432D01*
D02*
G37*
G36*
X46137Y147134D02*
X45522Y147012D01*
X45001Y146664D01*
X44653Y146143D01*
X44531Y145528D01*
X44653Y144914D01*
X45001Y144393D01*
X45522Y144045D01*
X46137Y143923D01*
X46751Y144045D01*
X47272Y144393D01*
X47620Y144914D01*
X47742Y145528D01*
X47620Y146143D01*
X47272Y146664D01*
X46751Y147012D01*
X46137Y147134D01*
D02*
G37*
G36*
X31732Y146999D02*
X31118Y146877D01*
X30597Y146529D01*
X30249Y146008D01*
X30127Y145394D01*
X30249Y144779D01*
X30597Y144258D01*
X31118Y143910D01*
X31732Y143788D01*
X32347Y143910D01*
X32868Y144258D01*
X33216Y144779D01*
X33338Y145394D01*
X33216Y146008D01*
X32868Y146529D01*
X32347Y146877D01*
X31732Y146999D01*
D02*
G37*
G36*
X38865Y146991D02*
X38251Y146869D01*
X37730Y146521D01*
X37382Y146000D01*
X37260Y145386D01*
X37382Y144771D01*
X37730Y144250D01*
X38251Y143902D01*
X38865Y143780D01*
X39480Y143902D01*
X40001Y144250D01*
X40349Y144771D01*
X40471Y145386D01*
X40349Y146000D01*
X40001Y146521D01*
X39480Y146869D01*
X38865Y146991D01*
D02*
G37*
G36*
X164094Y146173D02*
X163480Y146050D01*
X162959Y145702D01*
X162611Y145181D01*
X162489Y144567D01*
X162611Y143953D01*
X162959Y143432D01*
X163480Y143084D01*
X164094Y142961D01*
X164709Y143084D01*
X165230Y143432D01*
X165578Y143953D01*
X165700Y144567D01*
X165578Y145181D01*
X165230Y145702D01*
X164709Y146050D01*
X164094Y146173D01*
D02*
G37*
G36*
X26299Y141448D02*
X25685Y141326D01*
X25164Y140978D01*
X24816Y140457D01*
X24694Y139842D01*
X24816Y139228D01*
X25164Y138707D01*
X25685Y138359D01*
X26299Y138237D01*
X26914Y138359D01*
X27435Y138707D01*
X27783Y139228D01*
X27905Y139842D01*
X27783Y140457D01*
X27435Y140978D01*
X26914Y141326D01*
X26299Y141448D01*
D02*
G37*
G36*
X44291Y141291D02*
X43677Y141168D01*
X43156Y140820D01*
X42808Y140299D01*
X42686Y139685D01*
X42808Y139071D01*
X43156Y138550D01*
X43677Y138202D01*
X44291Y138079D01*
X44906Y138202D01*
X45427Y138550D01*
X45775Y139071D01*
X45897Y139685D01*
X45775Y140299D01*
X45427Y140820D01*
X44906Y141168D01*
X44291Y141291D01*
D02*
G37*
G36*
X52267Y140290D02*
X51653Y140168D01*
X51132Y139820D01*
X50784Y139299D01*
X50662Y138685D01*
X50784Y138070D01*
X51132Y137549D01*
X51653Y137201D01*
X52267Y137079D01*
X52882Y137201D01*
X53403Y137549D01*
X53751Y138070D01*
X53873Y138685D01*
X53751Y139299D01*
X53403Y139820D01*
X52882Y140168D01*
X52267Y140290D01*
D02*
G37*
G36*
X38583Y139558D02*
X37968Y139436D01*
X37447Y139088D01*
X37099Y138567D01*
X36977Y137953D01*
X37099Y137338D01*
X37447Y136817D01*
X37968Y136469D01*
X38583Y136347D01*
X39197Y136469D01*
X39718Y136817D01*
X40066Y137338D01*
X40188Y137953D01*
X40066Y138567D01*
X39718Y139088D01*
X39197Y139436D01*
X38583Y139558D01*
D02*
G37*
G36*
X33622Y127354D02*
X33008Y127232D01*
X32487Y126883D01*
X32139Y126363D01*
X32016Y125748D01*
X32139Y125134D01*
X32487Y124613D01*
X33008Y124265D01*
X33622Y124142D01*
X34236Y124265D01*
X34757Y124613D01*
X35105Y125134D01*
X35228Y125748D01*
X35105Y126363D01*
X34757Y126883D01*
X34236Y127232D01*
X33622Y127354D01*
D02*
G37*
G36*
X29409D02*
X28795Y127232D01*
X28274Y126883D01*
X27926Y126363D01*
X27804Y125748D01*
X27926Y125134D01*
X28274Y124613D01*
X28795Y124265D01*
X29409Y124142D01*
X30024Y124265D01*
X30545Y124613D01*
X30893Y125134D01*
X31015Y125748D01*
X30893Y126363D01*
X30545Y126883D01*
X30024Y127232D01*
X29409Y127354D01*
D02*
G37*
G36*
X210512Y142960D02*
X209590Y142776D01*
X208809Y142254D01*
X208287Y141473D01*
X208103Y140551D01*
X208287Y139629D01*
X208809Y138848D01*
X209590Y138326D01*
X210185Y138208D01*
Y137698D01*
X209590Y137580D01*
X208809Y137057D01*
X208287Y136276D01*
X208103Y135354D01*
X208287Y134433D01*
X208809Y133651D01*
X209590Y133129D01*
X209888Y133070D01*
Y132560D01*
X209590Y132501D01*
X208809Y131979D01*
X208287Y131197D01*
X208103Y130276D01*
X208287Y129354D01*
X208809Y128572D01*
X209590Y128050D01*
X210086Y127952D01*
Y127442D01*
X209590Y127343D01*
X208809Y126821D01*
X208287Y126040D01*
X208103Y125118D01*
X208287Y124196D01*
X208809Y123415D01*
X209590Y122893D01*
X210512Y122710D01*
X211434Y122893D01*
X212215Y123415D01*
X212737Y124196D01*
X212920Y125118D01*
X212737Y126040D01*
X212215Y126821D01*
X211434Y127343D01*
X210937Y127442D01*
Y127952D01*
X211434Y128050D01*
X212215Y128572D01*
X212737Y129354D01*
X212920Y130276D01*
X212737Y131197D01*
X212215Y131979D01*
X211434Y132501D01*
X211135Y132560D01*
Y133070D01*
X211434Y133129D01*
X212215Y133651D01*
X212737Y134433D01*
X212920Y135354D01*
X212737Y136276D01*
X212215Y137057D01*
X211434Y137580D01*
X210838Y137698D01*
Y138208D01*
X211434Y138326D01*
X212215Y138848D01*
X212737Y139629D01*
X212920Y140551D01*
X212737Y141473D01*
X212215Y142254D01*
X211434Y142776D01*
X210512Y142960D01*
D02*
G37*
G36*
X31693Y121566D02*
X31078Y121444D01*
X30558Y121096D01*
X30209Y120575D01*
X30087Y119961D01*
X30209Y119346D01*
X30558Y118825D01*
X31078Y118477D01*
X31693Y118355D01*
X32307Y118477D01*
X32828Y118825D01*
X33176Y119346D01*
X33299Y119961D01*
X33176Y120575D01*
X32828Y121096D01*
X32307Y121444D01*
X31693Y121566D01*
D02*
G37*
G36*
X54134Y121330D02*
X53519Y121208D01*
X52999Y120860D01*
X52650Y120339D01*
X52528Y119724D01*
X52650Y119110D01*
X52999Y118589D01*
X53519Y118241D01*
X54134Y118119D01*
X54748Y118241D01*
X55269Y118589D01*
X55617Y119110D01*
X55739Y119724D01*
X55617Y120339D01*
X55269Y120860D01*
X54748Y121208D01*
X54134Y121330D01*
D02*
G37*
G36*
X61968Y120897D02*
X61354Y120775D01*
X60833Y120427D01*
X60485Y119906D01*
X60363Y119291D01*
X60485Y118677D01*
X60833Y118156D01*
X61354Y117808D01*
X61968Y117686D01*
X62583Y117808D01*
X63104Y118156D01*
X63452Y118677D01*
X63574Y119291D01*
X63452Y119906D01*
X63104Y120427D01*
X62583Y120775D01*
X61968Y120897D01*
D02*
G37*
G36*
X45866Y120188D02*
X45252Y120066D01*
X44731Y119718D01*
X44383Y119197D01*
X44260Y118583D01*
X44383Y117968D01*
X44731Y117447D01*
X45252Y117099D01*
X45866Y116977D01*
X46481Y117099D01*
X47001Y117447D01*
X47350Y117968D01*
X47472Y118583D01*
X47350Y119197D01*
X47001Y119718D01*
X46481Y120066D01*
X45866Y120188D01*
D02*
G37*
G36*
X210705Y121782D02*
X209784Y121599D01*
X209002Y121077D01*
X208480Y120295D01*
X208297Y119374D01*
X208480Y118452D01*
X209002Y117671D01*
X209784Y117148D01*
X210705Y116965D01*
X211627Y117148D01*
X212408Y117671D01*
X212930Y118452D01*
X213114Y119374D01*
X212930Y120295D01*
X212408Y121077D01*
X211627Y121599D01*
X210705Y121782D01*
D02*
G37*
G36*
X213150Y109755D02*
X212535Y109633D01*
X212014Y109285D01*
X211666Y108764D01*
X211544Y108150D01*
X211666Y107535D01*
X212014Y107014D01*
X212535Y106666D01*
X213150Y106544D01*
X213764Y106666D01*
X214285Y107014D01*
X214633Y107535D01*
X214755Y108150D01*
X214633Y108764D01*
X214285Y109285D01*
X213764Y109633D01*
X213150Y109755D01*
D02*
G37*
G36*
X213858Y99480D02*
X213244Y99357D01*
X212723Y99009D01*
X212375Y98488D01*
X212253Y97874D01*
X212375Y97260D01*
X212723Y96739D01*
X213244Y96391D01*
X213858Y96268D01*
X214473Y96391D01*
X214994Y96739D01*
X215342Y97260D01*
X215464Y97874D01*
X215342Y98488D01*
X214994Y99009D01*
X214473Y99357D01*
X213858Y99480D01*
D02*
G37*
G36*
X214124Y88257D02*
X213510Y88135D01*
X212989Y87787D01*
X212641Y87266D01*
X212519Y86651D01*
X212641Y86037D01*
X212989Y85516D01*
X213510Y85168D01*
X214124Y85046D01*
X214739Y85168D01*
X215260Y85516D01*
X215608Y86037D01*
X215730Y86651D01*
X215608Y87266D01*
X215260Y87787D01*
X214739Y88135D01*
X214124Y88257D01*
D02*
G37*
G36*
X213228Y60858D02*
X212614Y60735D01*
X212093Y60387D01*
X211745Y59866D01*
X211623Y59252D01*
X211745Y58637D01*
X212093Y58117D01*
X212614Y57768D01*
X213228Y57646D01*
X213843Y57768D01*
X214364Y58117D01*
X214712Y58637D01*
X214834Y59252D01*
X214712Y59866D01*
X214364Y60387D01*
X213843Y60735D01*
X213228Y60858D01*
D02*
G37*
G36*
X213661Y54117D02*
X212993Y54029D01*
X212371Y53771D01*
X211836Y53361D01*
X211426Y52826D01*
X211168Y52204D01*
X211080Y51535D01*
X211168Y50867D01*
X211426Y50245D01*
X211836Y49710D01*
X212371Y49300D01*
X212993Y49042D01*
X213661Y48954D01*
X214330Y49042D01*
X214952Y49300D01*
X215487Y49710D01*
X215897Y50245D01*
X216155Y50867D01*
X216243Y51535D01*
X216155Y52204D01*
X215897Y52826D01*
X215487Y53361D01*
X214952Y53771D01*
X214330Y54029D01*
X213661Y54117D01*
D02*
G37*
G36*
X217362Y37157D02*
X216748Y37035D01*
X216227Y36687D01*
X215879Y36166D01*
X215757Y35551D01*
X215879Y34937D01*
X216227Y34416D01*
X216748Y34068D01*
X217362Y33946D01*
X217977Y34068D01*
X218498Y34416D01*
X218846Y34937D01*
X218968Y35551D01*
X218846Y36166D01*
X218498Y36687D01*
X217977Y37035D01*
X217362Y37157D01*
D02*
G37*
G36*
X217598Y30897D02*
X216984Y30775D01*
X216463Y30427D01*
X216115Y29906D01*
X215993Y29291D01*
X216115Y28677D01*
X216463Y28156D01*
X216984Y27808D01*
X217598Y27686D01*
X218213Y27808D01*
X218734Y28156D01*
X219082Y28677D01*
X219204Y29291D01*
X219082Y29906D01*
X218734Y30427D01*
X218213Y30775D01*
X217598Y30897D01*
D02*
G37*
G36*
X212638Y29913D02*
X212023Y29790D01*
X211502Y29443D01*
X211154Y28922D01*
X211032Y28307D01*
X211154Y27693D01*
X211502Y27172D01*
X212023Y26824D01*
X212638Y26701D01*
X213252Y26824D01*
X213773Y27172D01*
X214121Y27693D01*
X214243Y28307D01*
X214121Y28922D01*
X213773Y29443D01*
X213252Y29790D01*
X212638Y29913D01*
D02*
G37*
G36*
X208268Y26960D02*
X207653Y26838D01*
X207132Y26490D01*
X206784Y25969D01*
X206662Y25354D01*
X206784Y24740D01*
X207132Y24219D01*
X207653Y23871D01*
X208268Y23749D01*
X208882Y23871D01*
X209403Y24219D01*
X209751Y24740D01*
X209873Y25354D01*
X209751Y25969D01*
X209403Y26490D01*
X208882Y26838D01*
X208268Y26960D01*
D02*
G37*
G36*
X200630Y26754D02*
X199962Y26666D01*
X199339Y26409D01*
X198805Y25998D01*
X198395Y25464D01*
X198137Y24841D01*
X198049Y24173D01*
X198137Y23505D01*
X198395Y22883D01*
X198805Y22348D01*
X199339Y21938D01*
X199962Y21680D01*
X200630Y21592D01*
X201298Y21680D01*
X201921Y21938D01*
X202455Y22348D01*
X202865Y22883D01*
X203123Y23505D01*
X203211Y24173D01*
X203123Y24841D01*
X202865Y25464D01*
X202455Y25998D01*
X201921Y26409D01*
X201298Y26666D01*
X200630Y26754D01*
D02*
G37*
G36*
X191575D02*
X190907Y26666D01*
X190284Y26409D01*
X189750Y25998D01*
X189339Y25464D01*
X189082Y24841D01*
X188994Y24173D01*
X189082Y23505D01*
X189339Y22883D01*
X189750Y22348D01*
X190284Y21938D01*
X190907Y21680D01*
X191575Y21592D01*
X192243Y21680D01*
X192865Y21938D01*
X193400Y22348D01*
X193810Y22883D01*
X194068Y23505D01*
X194156Y24173D01*
X194068Y24841D01*
X193810Y25464D01*
X193400Y25998D01*
X192865Y26409D01*
X192243Y26666D01*
X191575Y26754D01*
D02*
G37*
G36*
X218425Y24677D02*
X217811Y24554D01*
X217290Y24206D01*
X216942Y23685D01*
X216820Y23071D01*
X216942Y22456D01*
X217290Y21936D01*
X217811Y21587D01*
X218425Y21465D01*
X219040Y21587D01*
X219561Y21936D01*
X219909Y22456D01*
X220031Y23071D01*
X219909Y23685D01*
X219561Y24206D01*
X219040Y24554D01*
X218425Y24677D01*
D02*
G37*
G36*
X213386Y23259D02*
X212771Y23137D01*
X212250Y22789D01*
X211902Y22268D01*
X211780Y21654D01*
X211902Y21039D01*
X212250Y20518D01*
X212771Y20170D01*
X213386Y20048D01*
X214000Y20170D01*
X214521Y20518D01*
X214869Y21039D01*
X214991Y21654D01*
X214869Y22268D01*
X214521Y22789D01*
X214000Y23137D01*
X213386Y23259D01*
D02*
G37*
G36*
X207402Y21684D02*
X206787Y21562D01*
X206266Y21214D01*
X205918Y20693D01*
X205796Y20079D01*
X205918Y19464D01*
X206266Y18943D01*
X206787Y18595D01*
X207402Y18473D01*
X208016Y18595D01*
X208537Y18943D01*
X208885Y19464D01*
X209007Y20079D01*
X208885Y20693D01*
X208537Y21214D01*
X208016Y21562D01*
X207402Y21684D01*
D02*
G37*
G36*
X200276Y20149D02*
X199661Y20027D01*
X199140Y19679D01*
X198792Y19158D01*
X198670Y18543D01*
X198792Y17929D01*
X199140Y17408D01*
X199661Y17060D01*
X200276Y16938D01*
X200890Y17060D01*
X201411Y17408D01*
X201759Y17929D01*
X201881Y18543D01*
X201759Y19158D01*
X201411Y19679D01*
X200890Y20027D01*
X200276Y20149D01*
D02*
G37*
G36*
X218858Y19440D02*
X218244Y19318D01*
X217723Y18970D01*
X217375Y18449D01*
X217253Y17835D01*
X217375Y17220D01*
X217723Y16699D01*
X218244Y16351D01*
X218858Y16229D01*
X219473Y16351D01*
X219994Y16699D01*
X220342Y17220D01*
X220464Y17835D01*
X220342Y18449D01*
X219994Y18970D01*
X219473Y19318D01*
X218858Y19440D01*
D02*
G37*
G36*
X208386Y15700D02*
X207771Y15578D01*
X207250Y15230D01*
X206902Y14709D01*
X206780Y14095D01*
X206902Y13480D01*
X207250Y12959D01*
X207771Y12611D01*
X208386Y12489D01*
X209000Y12611D01*
X209521Y12959D01*
X209869Y13480D01*
X209992Y14095D01*
X209869Y14709D01*
X209521Y15230D01*
X209000Y15578D01*
X208386Y15700D01*
D02*
G37*
G36*
X215276Y14519D02*
X214661Y14397D01*
X214140Y14049D01*
X213792Y13528D01*
X213670Y12913D01*
X213792Y12299D01*
X214140Y11778D01*
X214661Y11430D01*
X215276Y11308D01*
X215890Y11430D01*
X216411Y11778D01*
X216759Y12299D01*
X216881Y12913D01*
X216759Y13528D01*
X216411Y14049D01*
X215890Y14397D01*
X215276Y14519D01*
D02*
G37*
G36*
X196181Y13968D02*
X195567Y13846D01*
X195046Y13498D01*
X194698Y12977D01*
X194576Y12362D01*
X194698Y11748D01*
X195046Y11227D01*
X195567Y10879D01*
X196181Y10757D01*
X196796Y10879D01*
X197317Y11227D01*
X197664Y11748D01*
X197787Y12362D01*
X197664Y12977D01*
X197317Y13498D01*
X196796Y13846D01*
X196181Y13968D01*
D02*
G37*
G36*
X202480Y13377D02*
X201866Y13255D01*
X201345Y12907D01*
X200997Y12386D01*
X200875Y11772D01*
X200997Y11157D01*
X201345Y10636D01*
X201866Y10288D01*
X202480Y10166D01*
X203095Y10288D01*
X203616Y10636D01*
X203964Y11157D01*
X204086Y11772D01*
X203964Y12386D01*
X203616Y12907D01*
X203095Y13255D01*
X202480Y13377D01*
D02*
G37*
G36*
X209646Y8732D02*
X209031Y8609D01*
X208510Y8261D01*
X208162Y7740D01*
X208040Y7126D01*
X208162Y6511D01*
X208510Y5991D01*
X209031Y5643D01*
X209646Y5520D01*
X210260Y5643D01*
X210781Y5991D01*
X211129Y6511D01*
X211251Y7126D01*
X211129Y7740D01*
X210781Y8261D01*
X210260Y8609D01*
X209646Y8732D01*
D02*
G37*
G36*
X192677Y8456D02*
X192063Y8334D01*
X191542Y7986D01*
X191194Y7465D01*
X191071Y6850D01*
X191194Y6236D01*
X191542Y5715D01*
X192063Y5367D01*
X192677Y5245D01*
X193292Y5367D01*
X193813Y5715D01*
X194161Y6236D01*
X194283Y6850D01*
X194161Y7465D01*
X193813Y7986D01*
X193292Y8334D01*
X192677Y8456D01*
D02*
G37*
G36*
X201890Y7236D02*
X201275Y7113D01*
X200754Y6765D01*
X200406Y6244D01*
X200284Y5630D01*
X200406Y5015D01*
X200754Y4495D01*
X201275Y4146D01*
X201890Y4024D01*
X202504Y4146D01*
X203025Y4495D01*
X203373Y5015D01*
X203495Y5630D01*
X203373Y6244D01*
X203025Y6765D01*
X202504Y7113D01*
X201890Y7236D01*
D02*
G37*
G36*
X215869Y6978D02*
X215255Y6856D01*
X214734Y6508D01*
X214386Y5987D01*
X214264Y5373D01*
X214386Y4758D01*
X214734Y4237D01*
X215255Y3889D01*
X215869Y3767D01*
X216484Y3889D01*
X217005Y4237D01*
X217353Y4758D01*
X217475Y5373D01*
X217353Y5987D01*
X217005Y6508D01*
X216484Y6856D01*
X215869Y6978D01*
D02*
G37*
G36*
X12579Y158524D02*
X4902D01*
Y150847D01*
X12579D01*
Y158524D01*
D02*
G37*
G36*
X62835Y105661D02*
X62220Y105539D01*
X61699Y105191D01*
X61351Y104670D01*
X61229Y104055D01*
X61351Y103441D01*
X61699Y102920D01*
X62220Y102572D01*
X62835Y102450D01*
X63449Y102572D01*
X63970Y102920D01*
X64318Y103441D01*
X64440Y104055D01*
X64318Y104670D01*
X63970Y105191D01*
X63449Y105539D01*
X62835Y105661D01*
D02*
G37*
G36*
X27126Y105621D02*
X26511Y105499D01*
X25991Y105151D01*
X25642Y104630D01*
X25520Y104016D01*
X25642Y103401D01*
X25991Y102880D01*
X26511Y102532D01*
X27126Y102410D01*
X27740Y102532D01*
X28261Y102880D01*
X28609Y103401D01*
X28732Y104016D01*
X28609Y104630D01*
X28261Y105151D01*
X27740Y105499D01*
X27126Y105621D01*
D02*
G37*
G36*
X48845Y105502D02*
X48231Y105379D01*
X47710Y105031D01*
X47362Y104510D01*
X47240Y103896D01*
X47362Y103282D01*
X47710Y102761D01*
X48231Y102413D01*
X48845Y102290D01*
X49460Y102413D01*
X49981Y102761D01*
X50329Y103282D01*
X50451Y103896D01*
X50329Y104510D01*
X49981Y105031D01*
X49460Y105379D01*
X48845Y105502D01*
D02*
G37*
G36*
X54843Y105346D02*
X54228Y105224D01*
X53707Y104876D01*
X53359Y104355D01*
X53237Y103740D01*
X53359Y103126D01*
X53707Y102605D01*
X54228Y102257D01*
X54843Y102135D01*
X55457Y102257D01*
X55978Y102605D01*
X56326Y103126D01*
X56448Y103740D01*
X56326Y104355D01*
X55978Y104876D01*
X55457Y105224D01*
X54843Y105346D01*
D02*
G37*
G36*
X67279Y98810D02*
X66664Y98688D01*
X66143Y98340D01*
X65875Y97939D01*
X65746Y97906D01*
X65449D01*
X65320Y97939D01*
X65052Y98340D01*
X64531Y98688D01*
X63916Y98810D01*
X63302Y98688D01*
X62781Y98340D01*
X62513Y97939D01*
X62384Y97906D01*
X62087D01*
X61958Y97939D01*
X61690Y98340D01*
X61169Y98688D01*
X60554Y98810D01*
X59940Y98688D01*
X59419Y98340D01*
X59151Y97939D01*
X59021Y97906D01*
X58725D01*
X58595Y97939D01*
X58327Y98340D01*
X57806Y98688D01*
X57192Y98810D01*
X56578Y98688D01*
X56057Y98340D01*
X55789Y97939D01*
X55659Y97906D01*
X55363D01*
X55233Y97939D01*
X54965Y98340D01*
X54444Y98688D01*
X53830Y98810D01*
X53215Y98688D01*
X52694Y98340D01*
X52426Y97939D01*
X52297Y97906D01*
X52000D01*
X51871Y97939D01*
X51603Y98340D01*
X51082Y98688D01*
X50468Y98810D01*
X49853Y98688D01*
X49332Y98340D01*
X49064Y97939D01*
X48935Y97906D01*
X48638D01*
X48509Y97939D01*
X48241Y98340D01*
X47720Y98688D01*
X47105Y98810D01*
X46491Y98688D01*
X45970Y98340D01*
X45702Y97939D01*
X45573Y97906D01*
X45276D01*
X45147Y97939D01*
X44879Y98340D01*
X44358Y98688D01*
X43743Y98810D01*
X43129Y98688D01*
X42608Y98340D01*
X42260Y97819D01*
X42138Y97204D01*
X42260Y96590D01*
X42608Y96069D01*
X43129Y95721D01*
X43743Y95599D01*
X44358Y95721D01*
X44879Y96069D01*
X45147Y96470D01*
X45276Y96503D01*
X45573D01*
X45702Y96470D01*
X45970Y96069D01*
X46491Y95721D01*
X47105Y95599D01*
X47720Y95721D01*
X48241Y96069D01*
X48509Y96470D01*
X48638Y96503D01*
X48935D01*
X49064Y96470D01*
X49332Y96069D01*
X49853Y95721D01*
X50468Y95599D01*
X51082Y95721D01*
X51603Y96069D01*
X51871Y96470D01*
X52000Y96503D01*
X52297D01*
X52426Y96470D01*
X52694Y96069D01*
X53215Y95721D01*
X53830Y95599D01*
X54444Y95721D01*
X54965Y96069D01*
X55233Y96470D01*
X55363Y96503D01*
X55659D01*
X55789Y96470D01*
X56057Y96069D01*
X56578Y95721D01*
X57192Y95599D01*
X57806Y95721D01*
X58327Y96069D01*
X58595Y96470D01*
X58725Y96503D01*
X59021D01*
X59151Y96470D01*
X59419Y96069D01*
X59940Y95721D01*
X60554Y95599D01*
X61169Y95721D01*
X61690Y96069D01*
X61958Y96470D01*
X62087Y96503D01*
X62384D01*
X62513Y96470D01*
X62781Y96069D01*
X63302Y95721D01*
X63916Y95599D01*
X64531Y95721D01*
X65052Y96069D01*
X65320Y96470D01*
X65449Y96503D01*
X65746D01*
X65875Y96470D01*
X66143Y96069D01*
X66664Y95721D01*
X67279Y95599D01*
X67893Y95721D01*
X68414Y96069D01*
X68762Y96590D01*
X68884Y97204D01*
X68762Y97819D01*
X68414Y98340D01*
X67893Y98688D01*
X67279Y98810D01*
D02*
G37*
G36*
X25157Y99322D02*
X24543Y99200D01*
X24022Y98852D01*
X23674Y98331D01*
X23552Y97716D01*
X23674Y97102D01*
X24022Y96581D01*
X24543Y96233D01*
X25157Y96111D01*
X25772Y96233D01*
X26293Y96581D01*
X26641Y97102D01*
X26763Y97716D01*
X26641Y98331D01*
X26293Y98852D01*
X25772Y99200D01*
X25157Y99322D01*
D02*
G37*
G36*
X37045Y99302D02*
X36431Y99180D01*
X35910Y98832D01*
X35562Y98311D01*
X35440Y97696D01*
X35562Y97082D01*
X35910Y96561D01*
X36431Y96213D01*
X37045Y96091D01*
X37660Y96213D01*
X38181Y96561D01*
X38529Y97082D01*
X38651Y97696D01*
X38529Y98311D01*
X38181Y98832D01*
X37660Y99180D01*
X37045Y99302D01*
D02*
G37*
G36*
X32835Y99283D02*
X32220Y99161D01*
X31699Y98813D01*
X31351Y98292D01*
X31229Y97677D01*
X31351Y97063D01*
X31699Y96542D01*
X32220Y96194D01*
X32835Y96071D01*
X33449Y96194D01*
X33970Y96542D01*
X34318Y97063D01*
X34440Y97677D01*
X34318Y98292D01*
X33970Y98813D01*
X33449Y99161D01*
X32835Y99283D01*
D02*
G37*
G36*
X65565Y93063D02*
X64951Y92940D01*
X64430Y92592D01*
X64162Y92191D01*
X64032Y92159D01*
X63736D01*
X63606Y92191D01*
X63338Y92592D01*
X62817Y92940D01*
X62203Y93063D01*
X61589Y92940D01*
X61068Y92592D01*
X60800Y92191D01*
X60670Y92159D01*
X60374D01*
X60244Y92191D01*
X59976Y92592D01*
X59455Y92940D01*
X58841Y93063D01*
X58226Y92940D01*
X57705Y92592D01*
X57437Y92191D01*
X57308Y92159D01*
X57011D01*
X56882Y92191D01*
X56614Y92592D01*
X56093Y92940D01*
X55479Y93063D01*
X54864Y92940D01*
X54343Y92592D01*
X54075Y92191D01*
X53946Y92159D01*
X53649D01*
X53520Y92191D01*
X53252Y92592D01*
X52731Y92940D01*
X52116Y93063D01*
X51502Y92940D01*
X50981Y92592D01*
X50713Y92191D01*
X50583Y92159D01*
X50287D01*
X50157Y92191D01*
X49889Y92592D01*
X49369Y92940D01*
X48754Y93063D01*
X48140Y92940D01*
X47619Y92592D01*
X47351Y92191D01*
X47221Y92159D01*
X46925D01*
X46795Y92191D01*
X46527Y92592D01*
X46006Y92940D01*
X45392Y93063D01*
X44778Y92940D01*
X44257Y92592D01*
X43909Y92071D01*
X43898Y92021D01*
X43368Y91915D01*
X43190Y92180D01*
X42669Y92528D01*
X42055Y92651D01*
X41441Y92528D01*
X40920Y92180D01*
X40572Y91659D01*
X40449Y91045D01*
X40572Y90431D01*
X40920Y89910D01*
X41441Y89562D01*
X42055Y89439D01*
X42669Y89562D01*
X43190Y89910D01*
X43538Y90431D01*
X43549Y90481D01*
X44079Y90587D01*
X44257Y90322D01*
X44778Y89974D01*
X45392Y89851D01*
X46006Y89974D01*
X46527Y90322D01*
X46795Y90723D01*
X46925Y90755D01*
X47221D01*
X47351Y90723D01*
X47619Y90322D01*
X48140Y89974D01*
X48754Y89851D01*
X49369Y89974D01*
X49889Y90322D01*
X50157Y90723D01*
X50287Y90755D01*
X50583D01*
X50713Y90723D01*
X50981Y90322D01*
X51502Y89974D01*
X52116Y89851D01*
X52731Y89974D01*
X53252Y90322D01*
X53520Y90723D01*
X53649Y90755D01*
X53946D01*
X54075Y90723D01*
X54343Y90322D01*
X54864Y89974D01*
X55479Y89851D01*
X56093Y89974D01*
X56614Y90322D01*
X56882Y90723D01*
X57011Y90755D01*
X57308D01*
X57437Y90723D01*
X57705Y90322D01*
X58226Y89974D01*
X58841Y89851D01*
X59455Y89974D01*
X59976Y90322D01*
X60244Y90723D01*
X60374Y90755D01*
X60670D01*
X60800Y90723D01*
X61068Y90322D01*
X61589Y89974D01*
X62203Y89851D01*
X62817Y89974D01*
X63338Y90322D01*
X63606Y90723D01*
X63736Y90755D01*
X64032D01*
X64162Y90723D01*
X64430Y90322D01*
X64951Y89974D01*
X65565Y89851D01*
X66180Y89974D01*
X66701Y90322D01*
X67049Y90843D01*
X67171Y91457D01*
X67049Y92071D01*
X66701Y92592D01*
X66180Y92940D01*
X65565Y93063D01*
D02*
G37*
G36*
X81534Y94528D02*
X80920Y94406D01*
X80399Y94058D01*
X80051Y93537D01*
X79928Y92923D01*
X80051Y92308D01*
X80399Y91787D01*
X80920Y91439D01*
X81534Y91317D01*
X82149Y91439D01*
X82670Y91787D01*
X83017Y92308D01*
X83140Y92923D01*
X83017Y93537D01*
X82670Y94058D01*
X82149Y94406D01*
X81534Y94528D01*
D02*
G37*
G36*
X58622Y86763D02*
X58008Y86641D01*
X57487Y86293D01*
X57139Y85772D01*
X57016Y85158D01*
X57139Y84543D01*
X57487Y84022D01*
X58008Y83674D01*
X58622Y83552D01*
X59237Y83674D01*
X59757Y84022D01*
X60106Y84543D01*
X60228Y85158D01*
X60106Y85772D01*
X59757Y86293D01*
X59237Y86641D01*
X58622Y86763D01*
D02*
G37*
G36*
X63583Y85897D02*
X62968Y85775D01*
X62447Y85427D01*
X62099Y84906D01*
X61977Y84291D01*
X62099Y83677D01*
X62447Y83156D01*
X62968Y82808D01*
X63583Y82686D01*
X64197Y82808D01*
X64718Y83156D01*
X65066Y83677D01*
X65188Y84291D01*
X65066Y84906D01*
X64718Y85427D01*
X64197Y85775D01*
X63583Y85897D01*
D02*
G37*
G36*
X51614D02*
X51000Y85775D01*
X50479Y85427D01*
X50131Y84906D01*
X50008Y84291D01*
X50131Y83677D01*
X50479Y83156D01*
X51000Y82808D01*
X51614Y82686D01*
X52229Y82808D01*
X52750Y83156D01*
X53098Y83677D01*
X53220Y84291D01*
X53098Y84906D01*
X52750Y85427D01*
X52229Y85775D01*
X51614Y85897D01*
D02*
G37*
G36*
X59961Y80267D02*
X59346Y80145D01*
X58825Y79797D01*
X58477Y79276D01*
X58355Y78661D01*
X58477Y78047D01*
X58825Y77526D01*
X59346Y77178D01*
X59961Y77056D01*
X60575Y77178D01*
X61096Y77526D01*
X61444Y78047D01*
X61566Y78661D01*
X61444Y79276D01*
X61096Y79797D01*
X60575Y80145D01*
X59961Y80267D01*
D02*
G37*
G36*
X54331Y79916D02*
X53716Y79794D01*
X53195Y79446D01*
X52847Y78925D01*
X52725Y78311D01*
X52847Y77696D01*
X53195Y77175D01*
X53716Y76827D01*
X54331Y76705D01*
X54945Y76827D01*
X55466Y77175D01*
X55814Y77696D01*
X55936Y78311D01*
X55814Y78925D01*
X55466Y79446D01*
X54945Y79794D01*
X54331Y79916D01*
D02*
G37*
G36*
X46654Y79401D02*
X46039Y79279D01*
X45518Y78931D01*
X45170Y78410D01*
X45048Y77795D01*
X45170Y77181D01*
X45518Y76660D01*
X46039Y76312D01*
X46654Y76190D01*
X47268Y76312D01*
X47789Y76660D01*
X48137Y77181D01*
X48259Y77795D01*
X48137Y78410D01*
X47789Y78931D01*
X47268Y79279D01*
X46654Y79401D01*
D02*
G37*
G36*
X21186Y79268D02*
X20571Y79145D01*
X20051Y78798D01*
X19702Y78277D01*
X19580Y77662D01*
X19702Y77048D01*
X20051Y76527D01*
X20571Y76179D01*
X21186Y76056D01*
X21800Y76179D01*
X22321Y76527D01*
X22669Y77048D01*
X22792Y77662D01*
X22669Y78277D01*
X22321Y78798D01*
X21800Y79145D01*
X21186Y79268D01*
D02*
G37*
G36*
X13504Y78968D02*
X12889Y78846D01*
X12369Y78498D01*
X12021Y77977D01*
X11898Y77362D01*
X12021Y76748D01*
X12369Y76227D01*
X12889Y75879D01*
X13504Y75757D01*
X14118Y75879D01*
X14639Y76227D01*
X14987Y76748D01*
X15110Y77362D01*
X14987Y77977D01*
X14639Y78498D01*
X14118Y78846D01*
X13504Y78968D01*
D02*
G37*
G36*
X41457Y78535D02*
X40842Y78413D01*
X40321Y78065D01*
X39973Y77544D01*
X39851Y76929D01*
X39973Y76315D01*
X40321Y75794D01*
X40842Y75446D01*
X41457Y75323D01*
X42071Y75446D01*
X42592Y75794D01*
X42940Y76315D01*
X43062Y76929D01*
X42940Y77544D01*
X42592Y78065D01*
X42071Y78413D01*
X41457Y78535D01*
D02*
G37*
G36*
X68541Y76311D02*
X67926Y76189D01*
X67405Y75841D01*
X67057Y75320D01*
X67012Y75094D01*
X66481Y74988D01*
X66391Y75124D01*
X65870Y75472D01*
X65256Y75594D01*
X64641Y75472D01*
X64120Y75124D01*
X63772Y74603D01*
X63650Y73988D01*
X63194Y73721D01*
X62883Y73928D01*
X62269Y74050D01*
X61655Y73928D01*
X61134Y73580D01*
X60786Y73059D01*
X60663Y72444D01*
X60741Y72053D01*
X60522Y71856D01*
X60304Y71719D01*
X59743Y71830D01*
X59129Y71708D01*
X58608Y71360D01*
X58260Y70839D01*
X58138Y70225D01*
X58232Y69752D01*
X58163Y69637D01*
X57954Y69427D01*
X57839Y69359D01*
X57366Y69453D01*
X56752Y69331D01*
X56231Y68983D01*
X55883Y68462D01*
X55760Y67847D01*
X55854Y67374D01*
X55786Y67260D01*
X55576Y67050D01*
X55462Y66981D01*
X54989Y67076D01*
X54374Y66953D01*
X53853Y66605D01*
X53505Y66084D01*
X53383Y65470D01*
X53477Y64997D01*
X53408Y64882D01*
X53199Y64672D01*
X53084Y64604D01*
X52611Y64698D01*
X51997Y64576D01*
X51476Y64228D01*
X51128Y63707D01*
X51006Y63092D01*
X51070Y62766D01*
X50620Y62465D01*
X50595Y62483D01*
X49980Y62605D01*
X49366Y62483D01*
X48845Y62134D01*
X48497Y61614D01*
X48451Y61384D01*
X47920Y61279D01*
X47832Y61411D01*
X47311Y61759D01*
X46697Y61881D01*
X46082Y61759D01*
X45561Y61411D01*
X45294Y61010D01*
X45164Y60977D01*
X44867D01*
X44738Y61010D01*
X44470Y61411D01*
X43949Y61759D01*
X43335Y61881D01*
X42720Y61759D01*
X42199Y61411D01*
X42030Y61158D01*
X41499Y61263D01*
X41485Y61334D01*
X41137Y61855D01*
X40616Y62203D01*
X40002Y62325D01*
X39387Y62203D01*
X38866Y61855D01*
X38556Y61391D01*
X38263Y61344D01*
X38012Y61353D01*
X37778Y61704D01*
X37258Y62052D01*
X36643Y62174D01*
X36029Y62052D01*
X35508Y61704D01*
X35291Y61379D01*
X34979Y61404D01*
X34745Y61462D01*
X34425Y61942D01*
X33904Y62290D01*
X33289Y62412D01*
X32675Y62290D01*
X32154Y61942D01*
X31806Y61421D01*
X31684Y60807D01*
X31806Y60192D01*
X32154Y59671D01*
X32675Y59323D01*
X33289Y59201D01*
X33904Y59323D01*
X34425Y59671D01*
X34642Y59996D01*
X34953Y59970D01*
X35187Y59913D01*
X35508Y59433D01*
X36029Y59085D01*
X36643Y58963D01*
X37258Y59085D01*
X37778Y59433D01*
X38089Y59897D01*
X38382Y59944D01*
X38632Y59935D01*
X38866Y59584D01*
X39387Y59236D01*
X40002Y59114D01*
X40616Y59236D01*
X41137Y59584D01*
X41306Y59837D01*
X41837Y59732D01*
X41851Y59661D01*
X42199Y59140D01*
X42720Y58792D01*
X43335Y58670D01*
X43949Y58792D01*
X44470Y59140D01*
X44738Y59541D01*
X44867Y59574D01*
X45164D01*
X45294Y59541D01*
X45561Y59140D01*
X46082Y58792D01*
X46697Y58670D01*
X47311Y58792D01*
X47832Y59140D01*
X48180Y59661D01*
X48226Y59890D01*
X48757Y59996D01*
X48845Y59864D01*
X49366Y59516D01*
X49980Y59393D01*
X50595Y59516D01*
X51116Y59864D01*
X51464Y60385D01*
X51586Y60999D01*
X51521Y61326D01*
X51971Y61626D01*
X51997Y61609D01*
X52611Y61487D01*
X53226Y61609D01*
X53746Y61957D01*
X54095Y62478D01*
X54217Y63092D01*
X54123Y63565D01*
X54191Y63680D01*
X54401Y63890D01*
X54515Y63958D01*
X54989Y63864D01*
X55603Y63986D01*
X56124Y64334D01*
X56472Y64855D01*
X56594Y65470D01*
X56500Y65943D01*
X56569Y66058D01*
X56778Y66267D01*
X56893Y66336D01*
X57366Y66242D01*
X57980Y66364D01*
X58501Y66712D01*
X58849Y67233D01*
X58972Y67847D01*
X58877Y68320D01*
X58946Y68435D01*
X59156Y68645D01*
X59270Y68713D01*
X59743Y68619D01*
X60358Y68741D01*
X60879Y69089D01*
X61227Y69610D01*
X61349Y70225D01*
X61271Y70615D01*
X61490Y70813D01*
X61708Y70950D01*
X62269Y70839D01*
X62883Y70961D01*
X63404Y71309D01*
X63752Y71830D01*
X63875Y72444D01*
X64331Y72712D01*
X64641Y72505D01*
X65256Y72382D01*
X65870Y72505D01*
X66391Y72853D01*
X66739Y73374D01*
X66784Y73599D01*
X67315Y73705D01*
X67405Y73570D01*
X67926Y73222D01*
X68541Y73100D01*
X69155Y73222D01*
X69676Y73570D01*
X70024Y74091D01*
X70146Y74705D01*
X70024Y75320D01*
X69676Y75841D01*
X69155Y76189D01*
X68541Y76311D01*
D02*
G37*
G36*
X29882Y78023D02*
X29267Y77901D01*
X28747Y77553D01*
X28398Y77032D01*
X28276Y76417D01*
X28398Y75803D01*
X28747Y75282D01*
X29267Y74934D01*
X29882Y74812D01*
X30496Y74934D01*
X31017Y75282D01*
X31365Y75803D01*
X31488Y76417D01*
X31365Y77032D01*
X31017Y77553D01*
X30496Y77901D01*
X29882Y78023D01*
D02*
G37*
G36*
X56968Y75424D02*
X56354Y75302D01*
X55833Y74954D01*
X55485Y74433D01*
X55363Y73819D01*
X55485Y73204D01*
X55833Y72684D01*
X56354Y72335D01*
X56968Y72213D01*
X57583Y72335D01*
X58104Y72684D01*
X58452Y73204D01*
X58574Y73819D01*
X58452Y74433D01*
X58104Y74954D01*
X57583Y75302D01*
X56968Y75424D01*
D02*
G37*
G36*
X81313Y75442D02*
X80699Y75320D01*
X80178Y74972D01*
X79830Y74451D01*
X79708Y73837D01*
X79830Y73222D01*
X80178Y72701D01*
X80654Y72383D01*
X80711Y72135D01*
X80729Y71838D01*
X80399Y71617D01*
X80051Y71096D01*
X79928Y70482D01*
X80051Y69867D01*
X80399Y69346D01*
X80920Y68998D01*
X81534Y68876D01*
X82149Y68998D01*
X82670Y69346D01*
X83017Y69867D01*
X83140Y70482D01*
X83017Y71096D01*
X82670Y71617D01*
X82193Y71935D01*
X82136Y72184D01*
X82119Y72481D01*
X82449Y72701D01*
X82797Y73222D01*
X82919Y73837D01*
X82797Y74451D01*
X82449Y74972D01*
X81928Y75320D01*
X81313Y75442D01*
D02*
G37*
G36*
X65749Y69528D02*
X65135Y69405D01*
X64614Y69057D01*
X64266Y68536D01*
X64144Y67922D01*
X64227Y67501D01*
X64073Y67322D01*
X63826Y67134D01*
X63283Y67242D01*
X62669Y67120D01*
X62148Y66772D01*
X61800Y66251D01*
X61677Y65636D01*
X61772Y65163D01*
X61703Y65049D01*
X61493Y64839D01*
X61379Y64771D01*
X60906Y64865D01*
X60291Y64742D01*
X59770Y64394D01*
X59422Y63873D01*
X59300Y63259D01*
X59394Y62786D01*
X59326Y62671D01*
X59116Y62462D01*
X59001Y62393D01*
X58528Y62487D01*
X57914Y62365D01*
X57393Y62017D01*
X57045Y61496D01*
X56923Y60882D01*
X57017Y60409D01*
X56948Y60294D01*
X56739Y60084D01*
X56624Y60016D01*
X56151Y60110D01*
X55536Y59988D01*
X55015Y59640D01*
X54667Y59119D01*
X54545Y58504D01*
X54607Y58193D01*
X54157Y57893D01*
X54112Y57923D01*
X53497Y58045D01*
X52883Y57923D01*
X52362Y57575D01*
X52014Y57054D01*
X51910Y56531D01*
X51886Y56509D01*
X51613Y56365D01*
X51407Y56311D01*
X51040Y56557D01*
X50425Y56679D01*
X49811Y56557D01*
X49290Y56208D01*
X48942Y55688D01*
X48919Y55574D01*
X48388Y55469D01*
X48238Y55694D01*
X47717Y56042D01*
X47103Y56164D01*
X46488Y56042D01*
X45967Y55694D01*
X45689Y55278D01*
X45597Y55251D01*
X45302Y55241D01*
X45134Y55278D01*
X44876Y55663D01*
X44355Y56011D01*
X43741Y56134D01*
X43126Y56011D01*
X42605Y55663D01*
X42257Y55142D01*
X42135Y54528D01*
X42257Y53913D01*
X42605Y53392D01*
X43126Y53044D01*
X43741Y52922D01*
X44355Y53044D01*
X44876Y53392D01*
X45154Y53809D01*
X45246Y53835D01*
X45542Y53845D01*
X45710Y53809D01*
X45967Y53423D01*
X46488Y53075D01*
X47103Y52952D01*
X47717Y53075D01*
X48238Y53423D01*
X48586Y53944D01*
X48609Y54057D01*
X49139Y54163D01*
X49290Y53938D01*
X49811Y53590D01*
X50425Y53468D01*
X51040Y53590D01*
X51561Y53938D01*
X51909Y54459D01*
X52013Y54982D01*
X52036Y55003D01*
X52310Y55147D01*
X52515Y55202D01*
X52883Y54956D01*
X53497Y54834D01*
X54112Y54956D01*
X54633Y55304D01*
X54981Y55825D01*
X55103Y56439D01*
X55041Y56750D01*
X55491Y57051D01*
X55536Y57021D01*
X56151Y56898D01*
X56765Y57021D01*
X57286Y57369D01*
X57634Y57890D01*
X57757Y58504D01*
X57662Y58977D01*
X57731Y59092D01*
X57941Y59302D01*
X58055Y59370D01*
X58528Y59276D01*
X59143Y59398D01*
X59664Y59746D01*
X60012Y60267D01*
X60134Y60882D01*
X60040Y61355D01*
X60108Y61469D01*
X60318Y61679D01*
X60433Y61747D01*
X60906Y61653D01*
X61520Y61776D01*
X62041Y62124D01*
X62389Y62645D01*
X62511Y63259D01*
X62417Y63732D01*
X62486Y63847D01*
X62695Y64056D01*
X62810Y64125D01*
X63283Y64031D01*
X63898Y64153D01*
X64419Y64501D01*
X64767Y65022D01*
X64889Y65636D01*
X64805Y66057D01*
X64960Y66236D01*
X65206Y66424D01*
X65749Y66316D01*
X66364Y66438D01*
X66885Y66786D01*
X67233Y67307D01*
X67355Y67922D01*
X67233Y68536D01*
X66885Y69057D01*
X66364Y69405D01*
X65749Y69528D01*
D02*
G37*
G36*
X47323Y70267D02*
X46708Y70145D01*
X46187Y69797D01*
X45839Y69276D01*
X45717Y68661D01*
X45839Y68047D01*
X46187Y67526D01*
X46708Y67178D01*
X47323Y67056D01*
X47937Y67178D01*
X48458Y67526D01*
X48806Y68047D01*
X48928Y68661D01*
X48806Y69276D01*
X48458Y69797D01*
X47937Y70145D01*
X47323Y70267D01*
D02*
G37*
G36*
X37520Y70149D02*
X36905Y70027D01*
X36384Y69679D01*
X36036Y69158D01*
X35914Y68543D01*
X36036Y67929D01*
X36384Y67408D01*
X36905Y67060D01*
X37520Y66938D01*
X38134Y67060D01*
X38655Y67408D01*
X39003Y67929D01*
X39125Y68543D01*
X39003Y69158D01*
X38655Y69679D01*
X38134Y70027D01*
X37520Y70149D01*
D02*
G37*
G36*
X26024Y70031D02*
X25409Y69909D01*
X24888Y69561D01*
X24540Y69040D01*
X24418Y68425D01*
X24540Y67811D01*
X24888Y67290D01*
X25409Y66942D01*
X26024Y66820D01*
X26638Y66942D01*
X27159Y67290D01*
X27507Y67811D01*
X27629Y68425D01*
X27507Y69040D01*
X27159Y69561D01*
X26638Y69909D01*
X26024Y70031D01*
D02*
G37*
G36*
X43858Y67432D02*
X43244Y67310D01*
X42723Y66962D01*
X42375Y66441D01*
X42253Y65827D01*
X42375Y65212D01*
X42723Y64691D01*
X43244Y64343D01*
X43858Y64221D01*
X44473Y64343D01*
X44994Y64691D01*
X45342Y65212D01*
X45464Y65827D01*
X45342Y66441D01*
X44994Y66962D01*
X44473Y67310D01*
X43858Y67432D01*
D02*
G37*
G36*
X29528Y62393D02*
X28913Y62271D01*
X28392Y61923D01*
X28044Y61402D01*
X27922Y60787D01*
X28044Y60173D01*
X28392Y59652D01*
X28913Y59304D01*
X29528Y59182D01*
X30142Y59304D01*
X30663Y59652D01*
X31011Y60173D01*
X31133Y60787D01*
X31011Y61402D01*
X30663Y61923D01*
X30142Y62271D01*
X29528Y62393D01*
D02*
G37*
G36*
X64921Y59558D02*
X64307Y59436D01*
X63786Y59088D01*
X63438Y58567D01*
X63316Y57953D01*
X63438Y57338D01*
X63786Y56817D01*
X64307Y56469D01*
X64921Y56347D01*
X65536Y56469D01*
X66057Y56817D01*
X66405Y57338D01*
X66527Y57953D01*
X66405Y58567D01*
X66057Y59088D01*
X65536Y59436D01*
X64921Y59558D01*
D02*
G37*
G36*
X33679Y55602D02*
X33064Y55480D01*
X32543Y55132D01*
X32195Y54611D01*
X32073Y53997D01*
X32195Y53382D01*
X32543Y52861D01*
X33064Y52513D01*
X33679Y52391D01*
X34293Y52513D01*
X34814Y52861D01*
X35162Y53382D01*
X35284Y53997D01*
X35162Y54611D01*
X34814Y55132D01*
X34293Y55480D01*
X33679Y55602D01*
D02*
G37*
G36*
X29724Y55582D02*
X29110Y55460D01*
X28589Y55112D01*
X28241Y54591D01*
X28119Y53976D01*
X28241Y53362D01*
X28589Y52841D01*
X29110Y52493D01*
X29724Y52371D01*
X30339Y52493D01*
X30860Y52841D01*
X31208Y53362D01*
X31330Y53976D01*
X31208Y54591D01*
X30860Y55112D01*
X30339Y55460D01*
X29724Y55582D01*
D02*
G37*
G36*
X25394Y55464D02*
X24779Y55342D01*
X24258Y54994D01*
X23910Y54473D01*
X23788Y53858D01*
X23910Y53244D01*
X24258Y52723D01*
X24779Y52375D01*
X25394Y52253D01*
X26008Y52375D01*
X26529Y52723D01*
X26877Y53244D01*
X26999Y53858D01*
X26877Y54473D01*
X26529Y54994D01*
X26008Y55342D01*
X25394Y55464D01*
D02*
G37*
G36*
X61339Y55110D02*
X60724Y54987D01*
X60203Y54639D01*
X59855Y54118D01*
X59733Y53504D01*
X59855Y52890D01*
X60203Y52369D01*
X60724Y52021D01*
X61339Y51898D01*
X61953Y52021D01*
X62474Y52369D01*
X62822Y52890D01*
X62944Y53504D01*
X62822Y54118D01*
X62474Y54639D01*
X61953Y54987D01*
X61339Y55110D01*
D02*
G37*
G36*
X54173Y51212D02*
X53559Y51090D01*
X53038Y50742D01*
X52690Y50221D01*
X52568Y49606D01*
X52690Y48992D01*
X53038Y48471D01*
X53559Y48123D01*
X54173Y48001D01*
X54788Y48123D01*
X55309Y48471D01*
X55657Y48992D01*
X55779Y49606D01*
X55657Y50221D01*
X55309Y50742D01*
X54788Y51090D01*
X54173Y51212D01*
D02*
G37*
G36*
X32008Y49244D02*
X31393Y49121D01*
X30872Y48773D01*
X30524Y48252D01*
X30402Y47638D01*
X30524Y47023D01*
X30872Y46502D01*
X31393Y46154D01*
X32008Y46032D01*
X32622Y46154D01*
X33143Y46502D01*
X33491Y47023D01*
X33613Y47638D01*
X33491Y48252D01*
X33143Y48773D01*
X32622Y49121D01*
X32008Y49244D01*
D02*
G37*
G36*
X46457Y48456D02*
X45842Y48334D01*
X45321Y47986D01*
X44973Y47465D01*
X44851Y46850D01*
X44973Y46236D01*
X45321Y45715D01*
X45842Y45367D01*
X46457Y45245D01*
X47071Y45367D01*
X47592Y45715D01*
X47940Y46236D01*
X48062Y46850D01*
X47940Y47465D01*
X47592Y47986D01*
X47071Y48334D01*
X46457Y48456D01*
D02*
G37*
G36*
X31693Y34991D02*
X31078Y34869D01*
X30558Y34521D01*
X30209Y34000D01*
X30087Y33386D01*
X30209Y32771D01*
X30558Y32250D01*
X31078Y31902D01*
X31693Y31780D01*
X32307Y31902D01*
X32828Y32250D01*
X33176Y32771D01*
X33299Y33386D01*
X33176Y34000D01*
X32828Y34521D01*
X32307Y34869D01*
X31693Y34991D01*
D02*
G37*
G36*
X22913Y33417D02*
X22299Y33294D01*
X21778Y32946D01*
X21430Y32425D01*
X21308Y31811D01*
X21430Y31197D01*
X21778Y30676D01*
X22299Y30328D01*
X22913Y30205D01*
X23528Y30328D01*
X24049Y30676D01*
X24397Y31197D01*
X24519Y31811D01*
X24397Y32425D01*
X24049Y32946D01*
X23528Y33294D01*
X22913Y33417D01*
D02*
G37*
G36*
X6929Y33141D02*
X6315Y33019D01*
X5794Y32671D01*
X5446Y32150D01*
X5324Y31535D01*
X5446Y30921D01*
X5794Y30400D01*
X6315Y30052D01*
X6929Y29930D01*
X7544Y30052D01*
X8065Y30400D01*
X8413Y30921D01*
X8535Y31535D01*
X8413Y32150D01*
X8065Y32671D01*
X7544Y33019D01*
X6929Y33141D01*
D02*
G37*
G36*
X11693Y32157D02*
X11078Y32035D01*
X10558Y31686D01*
X10210Y31166D01*
X10087Y30551D01*
X10210Y29937D01*
X10558Y29416D01*
X11078Y29068D01*
X11693Y28945D01*
X12307Y29068D01*
X12828Y29416D01*
X13176Y29937D01*
X13299Y30551D01*
X13176Y31166D01*
X12828Y31686D01*
X12307Y32035D01*
X11693Y32157D01*
D02*
G37*
G36*
X28622Y30661D02*
X28008Y30538D01*
X27487Y30191D01*
X27139Y29670D01*
X27016Y29055D01*
X27139Y28441D01*
X27487Y27920D01*
X28008Y27572D01*
X28622Y27450D01*
X29237Y27572D01*
X29757Y27920D01*
X30106Y28441D01*
X30228Y29055D01*
X30106Y29670D01*
X29757Y30191D01*
X29237Y30538D01*
X28622Y30661D01*
D02*
G37*
G36*
X18150Y33141D02*
X17535Y33019D01*
X17014Y32671D01*
X16666Y32150D01*
X16544Y31535D01*
X16666Y30921D01*
X17014Y30400D01*
X17535Y30052D01*
X17681Y30023D01*
X17738Y29818D01*
X17734Y29503D01*
X17290Y29206D01*
X16942Y28685D01*
X16820Y28071D01*
X16942Y27456D01*
X17290Y26935D01*
X17811Y26587D01*
X18425Y26465D01*
X19040Y26587D01*
X19561Y26935D01*
X19909Y27456D01*
X20031Y28071D01*
X19909Y28685D01*
X19561Y29206D01*
X19040Y29554D01*
X18894Y29583D01*
X18837Y29788D01*
X18841Y30104D01*
X19285Y30400D01*
X19633Y30921D01*
X19755Y31535D01*
X19633Y32150D01*
X19285Y32671D01*
X18764Y33019D01*
X18150Y33141D01*
D02*
G37*
G36*
X5945Y26409D02*
X5330Y26287D01*
X4809Y25938D01*
X4461Y25418D01*
X4339Y24803D01*
X4461Y24189D01*
X4809Y23668D01*
X5330Y23320D01*
X5945Y23198D01*
X6559Y23320D01*
X7080Y23668D01*
X7428Y24189D01*
X7551Y24803D01*
X7428Y25418D01*
X7080Y25938D01*
X6559Y26287D01*
X5945Y26409D01*
D02*
G37*
G36*
X22402Y26173D02*
X21787Y26050D01*
X21266Y25702D01*
X20918Y25181D01*
X20796Y24567D01*
X20918Y23953D01*
X21266Y23432D01*
X21787Y23084D01*
X22402Y22961D01*
X23016Y23084D01*
X23537Y23432D01*
X23885Y23953D01*
X24007Y24567D01*
X23885Y25181D01*
X23537Y25702D01*
X23016Y26050D01*
X22402Y26173D01*
D02*
G37*
G36*
X12165D02*
X11551Y26050D01*
X11030Y25702D01*
X10682Y25181D01*
X10560Y24567D01*
X10682Y23953D01*
X11030Y23432D01*
X11551Y23084D01*
X12165Y22961D01*
X12780Y23084D01*
X13301Y23432D01*
X13649Y23953D01*
X13771Y24567D01*
X13649Y25181D01*
X13301Y25702D01*
X12780Y26050D01*
X12165Y26173D01*
D02*
G37*
G36*
X29646Y25661D02*
X29031Y25539D01*
X28510Y25190D01*
X28162Y24670D01*
X28040Y24055D01*
X28162Y23441D01*
X28510Y22920D01*
X29031Y22572D01*
X29646Y22449D01*
X30260Y22572D01*
X30781Y22920D01*
X31129Y23441D01*
X31251Y24055D01*
X31129Y24670D01*
X30781Y25190D01*
X30260Y25539D01*
X29646Y25661D01*
D02*
G37*
G36*
X17913Y22944D02*
X17299Y22822D01*
X16778Y22474D01*
X16430Y21953D01*
X16308Y21339D01*
X16430Y20724D01*
X16778Y20203D01*
X17299Y19855D01*
X17913Y19733D01*
X18528Y19855D01*
X19049Y20203D01*
X19397Y20724D01*
X19519Y21339D01*
X19397Y21953D01*
X19049Y22474D01*
X18528Y22822D01*
X17913Y22944D01*
D02*
G37*
G36*
X136260Y27179D02*
X135258Y27047D01*
X134324Y26660D01*
X133522Y26045D01*
X132907Y25243D01*
X132520Y24309D01*
X132388Y23307D01*
X132520Y22305D01*
X132907Y21371D01*
X133522Y20569D01*
X134324Y19954D01*
X135258Y19567D01*
X136260Y19435D01*
X137262Y19567D01*
X138196Y19954D01*
X138998Y20569D01*
X139613Y21371D01*
X140000Y22305D01*
X140131Y23307D01*
X140000Y24309D01*
X139613Y25243D01*
X138998Y26045D01*
X138196Y26660D01*
X137262Y27047D01*
X136260Y27179D01*
D02*
G37*
G36*
X126260D02*
X125258Y27047D01*
X124324Y26660D01*
X123522Y26045D01*
X122907Y25243D01*
X122520Y24309D01*
X122388Y23307D01*
X122520Y22305D01*
X122907Y21371D01*
X123522Y20569D01*
X124324Y19954D01*
X125258Y19567D01*
X126260Y19435D01*
X127262Y19567D01*
X128196Y19954D01*
X128998Y20569D01*
X129613Y21371D01*
X130000Y22305D01*
X130131Y23307D01*
X130000Y24309D01*
X129613Y25243D01*
X128998Y26045D01*
X128196Y26660D01*
X127262Y27047D01*
X126260Y27179D01*
D02*
G37*
G36*
X116260D02*
X115258Y27047D01*
X114324Y26660D01*
X113522Y26045D01*
X112907Y25243D01*
X112520Y24309D01*
X112388Y23307D01*
X112520Y22305D01*
X112907Y21371D01*
X113522Y20569D01*
X114324Y19954D01*
X115258Y19567D01*
X116260Y19435D01*
X117262Y19567D01*
X118196Y19954D01*
X118998Y20569D01*
X119613Y21371D01*
X120000Y22305D01*
X120132Y23307D01*
X120000Y24309D01*
X119613Y25243D01*
X118998Y26045D01*
X118196Y26660D01*
X117262Y27047D01*
X116260Y27179D01*
D02*
G37*
G36*
X106260D02*
X105258Y27047D01*
X104324Y26660D01*
X103522Y26045D01*
X102907Y25243D01*
X102520Y24309D01*
X102388Y23307D01*
X102520Y22305D01*
X102907Y21371D01*
X103522Y20569D01*
X104324Y19954D01*
X105258Y19567D01*
X106260Y19435D01*
X107262Y19567D01*
X108196Y19954D01*
X108998Y20569D01*
X109613Y21371D01*
X110000Y22305D01*
X110132Y23307D01*
X110000Y24309D01*
X109613Y25243D01*
X108998Y26045D01*
X108196Y26660D01*
X107262Y27047D01*
X106260Y27179D01*
D02*
G37*
G36*
X96260D02*
X95258Y27047D01*
X94324Y26660D01*
X93522Y26045D01*
X92907Y25243D01*
X92520Y24309D01*
X92388Y23307D01*
X92520Y22305D01*
X92907Y21371D01*
X93522Y20569D01*
X94324Y19954D01*
X95258Y19567D01*
X96260Y19435D01*
X97262Y19567D01*
X98196Y19954D01*
X98998Y20569D01*
X99613Y21371D01*
X100000Y22305D01*
X100132Y23307D01*
X100000Y24309D01*
X99613Y25243D01*
X98998Y26045D01*
X98196Y26660D01*
X97262Y27047D01*
X96260Y27179D01*
D02*
G37*
G36*
X7437Y20940D02*
X6823Y20818D01*
X6302Y20470D01*
X5954Y19949D01*
X5831Y19334D01*
X5954Y18720D01*
X6302Y18199D01*
X6823Y17851D01*
X7437Y17729D01*
X8051Y17851D01*
X8572Y18199D01*
X8920Y18720D01*
X9043Y19334D01*
X8920Y19949D01*
X8572Y20470D01*
X8051Y20818D01*
X7437Y20940D01*
D02*
G37*
G36*
X26142Y20700D02*
X25527Y20578D01*
X25006Y20230D01*
X24658Y19709D01*
X24536Y19094D01*
X24658Y18480D01*
X25006Y17959D01*
X25527Y17611D01*
X26142Y17489D01*
X26756Y17611D01*
X27277Y17959D01*
X27625Y18480D01*
X27747Y19094D01*
X27625Y19709D01*
X27277Y20230D01*
X26756Y20578D01*
X26142Y20700D01*
D02*
G37*
G36*
X13189Y19440D02*
X12574Y19318D01*
X12054Y18970D01*
X11705Y18449D01*
X11583Y17835D01*
X11705Y17220D01*
X12054Y16699D01*
X12574Y16351D01*
X13189Y16229D01*
X13803Y16351D01*
X14324Y16699D01*
X14672Y17220D01*
X14795Y17835D01*
X14672Y18449D01*
X14324Y18970D01*
X13803Y19318D01*
X13189Y19440D01*
D02*
G37*
G36*
X18898Y17432D02*
X18283Y17310D01*
X17762Y16962D01*
X17414Y16441D01*
X17292Y15827D01*
X17414Y15212D01*
X17762Y14691D01*
X18283Y14343D01*
X18898Y14221D01*
X19512Y14343D01*
X20033Y14691D01*
X20381Y15212D01*
X20503Y15827D01*
X20381Y16441D01*
X20033Y16962D01*
X19512Y17310D01*
X18898Y17432D01*
D02*
G37*
G36*
X30089Y16920D02*
X29475Y16798D01*
X28954Y16450D01*
X28606Y15929D01*
X28484Y15314D01*
X28606Y14700D01*
X28954Y14179D01*
X29475Y13831D01*
X30089Y13709D01*
X30704Y13831D01*
X31225Y14179D01*
X31573Y14700D01*
X31695Y15314D01*
X31573Y15929D01*
X31225Y16450D01*
X30704Y16798D01*
X30089Y16920D01*
D02*
G37*
G36*
X4173Y16291D02*
X3559Y16169D01*
X3038Y15820D01*
X2690Y15300D01*
X2568Y14685D01*
X2690Y14071D01*
X3038Y13550D01*
X3559Y13202D01*
X4173Y13079D01*
X4788Y13202D01*
X5309Y13550D01*
X5657Y14071D01*
X5779Y14685D01*
X5657Y15300D01*
X5309Y15820D01*
X4788Y16169D01*
X4173Y16291D01*
D02*
G37*
G36*
X75000Y15464D02*
X74385Y15342D01*
X73865Y14994D01*
X73517Y14473D01*
X73394Y13858D01*
X73517Y13244D01*
X73865Y12723D01*
X74385Y12375D01*
X75000Y12253D01*
X75615Y12375D01*
X76135Y12723D01*
X76483Y13244D01*
X76606Y13858D01*
X76483Y14473D01*
X76135Y14994D01*
X75615Y15342D01*
X75000Y15464D01*
D02*
G37*
G36*
X50551Y15188D02*
X49937Y15066D01*
X49416Y14718D01*
X49068Y14197D01*
X48946Y13583D01*
X49068Y12968D01*
X49416Y12447D01*
X49937Y12099D01*
X50551Y11977D01*
X51166Y12099D01*
X51687Y12447D01*
X52035Y12968D01*
X52157Y13583D01*
X52035Y14197D01*
X51687Y14718D01*
X51166Y15066D01*
X50551Y15188D01*
D02*
G37*
G36*
X46063Y14952D02*
X45448Y14830D01*
X44928Y14482D01*
X44580Y13961D01*
X44457Y13347D01*
X44580Y12732D01*
X44928Y12211D01*
X45448Y11863D01*
X46063Y11741D01*
X46677Y11863D01*
X47198Y12211D01*
X47546Y12732D01*
X47669Y13347D01*
X47546Y13961D01*
X47198Y14482D01*
X46677Y14830D01*
X46063Y14952D01*
D02*
G37*
G36*
X69764Y14716D02*
X69149Y14594D01*
X68628Y14246D01*
X68280Y13725D01*
X68158Y13110D01*
X68280Y12496D01*
X68628Y11975D01*
X69149Y11627D01*
X69764Y11505D01*
X70378Y11627D01*
X70899Y11975D01*
X71247Y12496D01*
X71369Y13110D01*
X71247Y13725D01*
X70899Y14246D01*
X70378Y14594D01*
X69764Y14716D01*
D02*
G37*
G36*
X46063Y10228D02*
X45448Y10106D01*
X44928Y9757D01*
X44580Y9236D01*
X44457Y8622D01*
X44580Y8008D01*
X44928Y7487D01*
X45448Y7139D01*
X46063Y7016D01*
X46677Y7139D01*
X47198Y7487D01*
X47546Y8008D01*
X47669Y8622D01*
X47546Y9236D01*
X47198Y9757D01*
X46677Y10106D01*
X46063Y10228D01*
D02*
G37*
G36*
X51063Y9716D02*
X50449Y9594D01*
X49928Y9246D01*
X49580Y8725D01*
X49457Y8110D01*
X49580Y7496D01*
X49928Y6975D01*
X50449Y6627D01*
X51063Y6505D01*
X51677Y6627D01*
X52198Y6975D01*
X52546Y7496D01*
X52669Y8110D01*
X52546Y8725D01*
X52198Y9246D01*
X51677Y9594D01*
X51063Y9716D01*
D02*
G37*
G36*
X136260Y12021D02*
X135258Y11889D01*
X134324Y11503D01*
X133522Y10887D01*
X132907Y10086D01*
X132520Y9152D01*
X132388Y8150D01*
X132520Y7147D01*
X132907Y6214D01*
X133522Y5412D01*
X134324Y4797D01*
X135258Y4410D01*
X136260Y4278D01*
X137262Y4410D01*
X138196Y4797D01*
X138998Y5412D01*
X139613Y6214D01*
X140000Y7147D01*
X140131Y8150D01*
X140000Y9152D01*
X139613Y10086D01*
X138998Y10887D01*
X138196Y11503D01*
X137262Y11889D01*
X136260Y12021D01*
D02*
G37*
G36*
X126260D02*
X125258Y11889D01*
X124324Y11503D01*
X123522Y10887D01*
X122907Y10086D01*
X122520Y9152D01*
X122388Y8150D01*
X122520Y7147D01*
X122907Y6214D01*
X123522Y5412D01*
X124324Y4797D01*
X125258Y4410D01*
X126260Y4278D01*
X127262Y4410D01*
X128196Y4797D01*
X128998Y5412D01*
X129613Y6214D01*
X130000Y7147D01*
X130131Y8150D01*
X130000Y9152D01*
X129613Y10086D01*
X128998Y10887D01*
X128196Y11503D01*
X127262Y11889D01*
X126260Y12021D01*
D02*
G37*
G36*
X32244Y12913D02*
X6890D01*
Y3819D01*
X18766D01*
Y3740D01*
X25883D01*
Y3819D01*
X32244D01*
Y12913D01*
D02*
G37*
G36*
X37835Y6212D02*
X37220Y6090D01*
X36699Y5742D01*
X36351Y5221D01*
X36229Y4606D01*
X36351Y3992D01*
X36699Y3471D01*
X37220Y3123D01*
X37835Y3001D01*
X38449Y3123D01*
X38970Y3471D01*
X39318Y3992D01*
X39440Y4606D01*
X39318Y5221D01*
X38970Y5742D01*
X38449Y6090D01*
X37835Y6212D01*
D02*
G37*
G36*
X92441Y5976D02*
X91826Y5853D01*
X91306Y5505D01*
X90957Y4984D01*
X90835Y4370D01*
X90957Y3756D01*
X91306Y3235D01*
X91826Y2887D01*
X92441Y2764D01*
X93055Y2887D01*
X93576Y3235D01*
X93924Y3756D01*
X94047Y4370D01*
X93924Y4984D01*
X93576Y5505D01*
X93055Y5853D01*
X92441Y5976D01*
D02*
G37*
G36*
X55551Y5740D02*
X54937Y5617D01*
X54416Y5269D01*
X54068Y4748D01*
X53945Y4134D01*
X54068Y3519D01*
X54416Y2998D01*
X54937Y2650D01*
X55551Y2528D01*
X56166Y2650D01*
X56687Y2998D01*
X57035Y3519D01*
X57157Y4134D01*
X57035Y4748D01*
X56687Y5269D01*
X56166Y5617D01*
X55551Y5740D01*
D02*
G37*
G36*
X48583D02*
X47968Y5617D01*
X47447Y5269D01*
X47099Y4748D01*
X46977Y4134D01*
X47099Y3519D01*
X47447Y2998D01*
X47968Y2650D01*
X48583Y2528D01*
X49197Y2650D01*
X49718Y2998D01*
X50066Y3519D01*
X50188Y4134D01*
X50066Y4748D01*
X49718Y5269D01*
X49197Y5617D01*
X48583Y5740D01*
D02*
G37*
G36*
X43347D02*
X42732Y5617D01*
X42211Y5269D01*
X41863Y4748D01*
X41741Y4134D01*
X41863Y3519D01*
X42211Y2998D01*
X42732Y2650D01*
X43347Y2528D01*
X43961Y2650D01*
X44482Y2998D01*
X44830Y3519D01*
X44952Y4134D01*
X44830Y4748D01*
X44482Y5269D01*
X43961Y5617D01*
X43347Y5740D01*
D02*
G37*
G36*
X101693Y5228D02*
X101078Y5105D01*
X100557Y4757D01*
X100209Y4236D01*
X100087Y3622D01*
X100209Y3008D01*
X100557Y2487D01*
X101078Y2139D01*
X101693Y2016D01*
X102307Y2139D01*
X102828Y2487D01*
X103176Y3008D01*
X103299Y3622D01*
X103176Y4236D01*
X102828Y4757D01*
X102307Y5105D01*
X101693Y5228D01*
D02*
G37*
G36*
X65276Y4992D02*
X64661Y4869D01*
X64140Y4521D01*
X63792Y4000D01*
X63670Y3386D01*
X63792Y2771D01*
X64140Y2251D01*
X64661Y1902D01*
X65276Y1780D01*
X65890Y1902D01*
X66411Y2251D01*
X66759Y2771D01*
X66881Y3386D01*
X66759Y4000D01*
X66411Y4521D01*
X65890Y4869D01*
X65276Y4992D01*
D02*
G37*
G36*
X74488Y4716D02*
X73874Y4594D01*
X73353Y4246D01*
X73005Y3725D01*
X72882Y3110D01*
X73005Y2496D01*
X73353Y1975D01*
X73874Y1627D01*
X74488Y1505D01*
X75103Y1627D01*
X75624Y1975D01*
X75972Y2496D01*
X76094Y3110D01*
X75972Y3725D01*
X75624Y4246D01*
X75103Y4594D01*
X74488Y4716D01*
D02*
G37*
G36*
X83976Y4480D02*
X83362Y4358D01*
X82841Y4009D01*
X82493Y3489D01*
X82371Y2874D01*
X82493Y2260D01*
X82841Y1739D01*
X83362Y1391D01*
X83976Y1268D01*
X84591Y1391D01*
X85112Y1739D01*
X85460Y2260D01*
X85582Y2874D01*
X85460Y3489D01*
X85112Y4009D01*
X84591Y4358D01*
X83976Y4480D01*
D02*
G37*
%LPD*%
D11*
X164646Y20099D02*
Y38780D01*
X163397Y18850D02*
X164646Y20099D01*
X163256Y18850D02*
X163397D01*
X81299Y118425D02*
Y122126D01*
X52756Y150669D02*
X81299Y122126D01*
X132973Y66752D02*
X132992D01*
X48740Y154685D02*
X52756Y150669D01*
Y150669D02*
Y150669D01*
X137707Y65718D02*
X164646Y38780D01*
X132992Y66752D02*
X134026Y65718D01*
X81299Y118425D02*
X132973Y66752D01*
X134026Y65718D02*
X137707D01*
X167113Y18950D02*
X167288D01*
X82677Y119016D02*
Y122697D01*
X55041Y150333D02*
X82677Y122697D01*
X134597Y67096D02*
X138278D01*
X55041Y150986D02*
X58740Y154685D01*
X55041Y150333D02*
Y150986D01*
X166024Y20039D02*
X167113Y18950D01*
X138278Y67096D02*
X166024Y39350D01*
X82677Y119016D02*
X134597Y67096D01*
X166024Y20039D02*
Y39350D01*
D57*
X182953Y28780D02*
X205354D01*
X217874Y41299D01*
Y155748D01*
X213071Y160551D02*
X217874Y155748D01*
X178032Y47480D02*
X207520Y76968D01*
X207520D01*
X178032Y13465D02*
Y47480D01*
X157362Y7205D02*
X171772D01*
X146336Y18231D02*
X157362Y7205D01*
X146260Y23307D02*
X146336Y23231D01*
Y18231D02*
Y23231D01*
X171772Y7205D02*
X178032Y13465D01*
X31693Y160551D02*
X213071D01*
X28740Y154685D02*
Y157598D01*
X31693Y160551D01*
D59*
X71339Y111496D02*
X94095Y88740D01*
X23353Y111496D02*
X71339D01*
X18740Y116109D02*
Y154685D01*
Y116109D02*
X23353Y111496D01*
X94095Y57047D02*
Y88740D01*
X86339Y49291D02*
X94095Y57047D01*
X79961Y42913D02*
X86339Y49291D01*
X58622Y42913D02*
X79961D01*
D61*
X20357Y10250D02*
X21341Y11234D01*
X23309D01*
X24293Y10250D01*
Y9266D01*
X23309Y8282D01*
X22325D01*
X23309D01*
X24293Y7299D01*
Y6315D01*
X23309Y5331D01*
X21341D01*
X20357Y6315D01*
D62*
X36929Y80827D02*
D03*
X58622Y42913D02*
D03*
X207520Y76968D02*
D03*
D63*
X146260Y23307D02*
D03*
D64*
X28740Y154685D02*
D03*
X18740D02*
D03*
X48740D02*
D03*
X58740D02*
D03*
D65*
X163256Y18850D02*
D03*
X167288Y18950D02*
D03*
X182953Y28780D02*
D03*
X86339Y49291D02*
D03*
M02*
