G04*
G04 #@! TF.GenerationSoftware,Altium Limited,Altium Designer,20.0.13 (296)*
G04*
G04 Layer_Color=32768*
%FSLAX25Y25*%
%MOIN*%
G70*
G01*
G75*
%ADD10C,0.00394*%
%ADD67C,0.00197*%
D10*
X169449Y11417D02*
Y27402D01*
X161378Y11417D02*
X169449D01*
X161378D02*
Y27402D01*
X169449D01*
X8386Y48621D02*
X23111D01*
Y65943D01*
X8386D02*
X23111D01*
X8386Y48621D02*
Y65943D01*
Y85667D02*
X23111D01*
Y102990D01*
X8386D02*
X23111D01*
X8386Y85667D02*
Y102990D01*
X8308Y120628D02*
X23032D01*
Y137951D01*
X8308D02*
X23032D01*
X8308Y120628D02*
Y137951D01*
X65847Y30984D02*
X210531D01*
X65847D02*
Y160906D01*
X210531D01*
Y30984D02*
Y160906D01*
X105394Y6850D02*
Y15512D01*
X89646Y6850D02*
X105394D01*
X89646D02*
Y15512D01*
X105394D01*
X33031Y13465D02*
X41693D01*
X33031D02*
Y29213D01*
X41693D01*
Y13465D02*
Y29213D01*
D67*
X175466Y20618D02*
X190312D01*
Y7887D02*
Y20618D01*
X175466Y7887D02*
X190312D01*
X175466D02*
Y20618D01*
X31102Y88858D02*
Y95000D01*
X27205Y88858D02*
X31102D01*
X27205D02*
Y95000D01*
X31102D01*
X31102Y91181D02*
X34567D01*
X31102Y82835D02*
Y91181D01*
Y82835D02*
X34567D01*
Y91181D01*
X35748Y127520D02*
Y130984D01*
X27402D02*
X35748D01*
X27402Y127520D02*
Y130984D01*
Y127520D02*
X35748D01*
X153260Y1150D02*
Y15150D01*
X119016D02*
X153260D01*
X119016Y1150D02*
Y15150D01*
Y1150D02*
X153260D01*
X113701Y15098D02*
X118032D01*
X113701Y5847D02*
Y15098D01*
Y5847D02*
X118032D01*
Y15098D01*
X54961Y30748D02*
X64016D01*
X54961Y11457D02*
Y30748D01*
Y11457D02*
X64016D01*
Y30748D01*
X79055D02*
X88110D01*
X79055Y11457D02*
Y30748D01*
Y11457D02*
X88110D01*
Y30748D01*
X1740Y161685D02*
X65315D01*
Y147685D02*
Y161685D01*
X1740Y147685D02*
X65315D01*
X1740D02*
Y161685D01*
X153260Y16307D02*
Y30307D01*
X89685D02*
X153260D01*
X89685Y16307D02*
Y30307D01*
Y16307D02*
X153260D01*
X159488Y19705D02*
Y28957D01*
X155157Y19705D02*
X159488D01*
X155157D02*
Y28957D01*
X159488D01*
X46486Y18307D02*
Y25472D01*
X50108D01*
Y18307D02*
Y25472D01*
X46486Y18307D02*
X50108D01*
X75106D02*
Y25472D01*
X78728D01*
Y18307D02*
Y25472D01*
X75106Y18307D02*
X78728D01*
X66702D02*
Y25472D01*
X70324D01*
Y18307D02*
Y25472D01*
X66702Y18307D02*
X70324D01*
X50688D02*
Y25472D01*
X54310D01*
Y18307D02*
Y25472D01*
X50688Y18307D02*
X54310D01*
X42283D02*
Y25472D01*
X45906D01*
Y18307D02*
Y25472D01*
X42283Y18307D02*
X45906D01*
X70904D02*
Y25472D01*
X74526D01*
Y18307D02*
Y25472D01*
X70904Y18307D02*
X74526D01*
X36024Y123858D02*
Y131024D01*
X39646D01*
Y123858D02*
Y131024D01*
X36024Y123858D02*
X39646D01*
X27126Y127520D02*
Y134685D01*
X23504Y127520D02*
X27126D01*
X23504D02*
Y134685D01*
X27126D01*
X31142Y92441D02*
X38307D01*
X31142D02*
Y96063D01*
X38307D01*
Y92441D02*
Y96063D01*
X23525Y88936D02*
Y96101D01*
X27147D01*
Y88936D02*
Y96101D01*
X23525Y88936D02*
X27147D01*
X42244Y92598D02*
Y99764D01*
X38622Y92598D02*
X42244D01*
X38622D02*
Y99764D01*
X42244D01*
X36929Y51929D02*
Y59095D01*
X40551D01*
Y51929D02*
Y59095D01*
X36929Y51929D02*
X40551D01*
X27126Y55590D02*
Y62756D01*
X23504Y55590D02*
X27126D01*
X23504D02*
Y62756D01*
X27126D01*
X27421Y55236D02*
X36673D01*
X27421D02*
Y59567D01*
X36673D01*
Y55236D02*
Y59567D01*
X38465Y83976D02*
Y91142D01*
X34843Y83976D02*
X38465D01*
X34843D02*
Y91142D01*
X38465D01*
M02*
