M48
;Layer_Color=9474304
;FILE_FORMAT=2:5
INCH,TZ
;TYPE=PLATED
T1F00S00C0.01181
T2F00S00C0.01968
T3F00S00C0.02756
T4F00S00C0.04331
%
T01
X4173Y14685
X7437Y19334
X5945Y24803
X12165Y24567
X11693Y30551
X6929Y31535
X18150
X18425Y28071
X17913Y21339
X18898Y15827
X13189Y17835
X26142Y19094
X30089Y15314
X29646Y24055
X28622Y29055
X31693Y33386
X22913Y31811
X22402Y24567
X25394Y53858
X29724Y53976
X33679Y53997
X33289Y60807
X36643Y60568
X40002Y60720
X43335Y60275
X46697
X49980Y60999
X52611Y63092
X54989Y65470
X57366Y67847
X59743Y70225
X62269Y72444
X65256Y73988
X68541Y74705
X65749Y67922
X63283Y65636
X60906Y63259
X58528Y60882
X56151Y58504
X53497Y56439
X50425Y55073
X47103Y54558
X43741Y54528
X46457Y46850
X54173Y49606
X61339Y53504
X64921Y57953
X56968Y73819
X54331Y78311
X59961Y78661
X58622Y85158
X63583Y84291
X62203Y91457
X58841
X55479
X52116
X48754
X45392
X42055Y91045
X43743Y97204
X47105
X50468
X53830
X57192
X60554
X63916
X67279
X65565Y91457
X62835Y104055
X54843Y103740
X48845Y103896
X45866Y118583
X44868Y126615
X41506
X41100Y132361
X44462
X47824
X51186
X54548
X57911
X61273
X64626Y132606
X67967Y132232
X65945Y129488
X65017Y126208
X61679Y126615
X58317
X54954
X51592
X48230
X54134Y119724
X61968Y119291
X59095Y138268
X52267Y138685
X54976Y143104
X46137Y145528
X38865Y145386
X31732Y145394
X26299Y139842
X31063Y132598
X34388Y132657
X37751Y132657
X38583Y137953
X44291Y139685
X33622Y125748
X29409
X31693Y119961
X27126Y104016
X25157Y97716
X32835Y97677
X37045Y97696
X41457Y76929
X46654Y77795
X47323Y68661
X43858Y65827
X37520Y68543
X26024Y68425
X29528Y60787
X32008Y47638
X29882Y76417
X21186Y77662
X13504Y77362
X51614Y84291
X81534Y92923
X81313Y73837
X81534Y70482
X86339Y49291
X75000Y13858
X69764Y13110
X65276Y3386
X74488Y3110
X83976Y2874
X92441Y4370
X101693Y3622
X55551Y4134
X48583
X43347
X37835Y4606
X46063Y8622
Y13347
X50551Y13583
X51063Y8110
X66929Y142756
X63898Y145984
X68465Y149724
X69095Y155709
X89528Y145827
X92480Y144488
X93169Y141113
X95675Y143354
X87241Y143313
X84864Y140935
X82486Y138558
X83659Y131603
X86036Y133981
X88414Y136358
X90791Y138736
X164094Y144567
X213150Y108150
X213858Y97874
X214124Y86651
X213858Y79173
X212874Y71969
X213228Y59252
X217362Y35551
X217598Y29291
X212638Y28307
X208268Y25354
X207402Y20079
X208386Y14095
X215276Y12913
X215869Y5373
X209646Y7126
X201890Y5630
X202480Y11772
X196181Y12362
X192677Y6850
X200276Y18543
X213386Y21654
X218425Y23071
X218858Y17835
X182953Y28780
X167288Y18950
X163256Y18850
T02
X58622Y42913
X36929Y80827
X207520Y76968
X210705Y119374
X210512Y125118
Y130276
Y135354
Y140551
T03
X191575Y24173
X200630
X213661Y51535
T04
X96260Y23307
X106260
X116260
X126260
X136260
X146260
X146339Y8150
X136260
X126260
X58740Y154685
X48740
X38740
X28740
X18740
X8740
M30
