G04 #@! TF.GenerationSoftware,KiCad,Pcbnew,8.0.0-rc1*
G04 #@! TF.CreationDate,2025-03-27T12:12:56+03:00*
G04 #@! TF.ProjectId,GSM_CT_V1.0,47534d5f-4354-45f5-9631-2e302e6b6963,rev?*
G04 #@! TF.SameCoordinates,Original*
G04 #@! TF.FileFunction,Legend,Top*
G04 #@! TF.FilePolarity,Positive*
%FSLAX46Y46*%
G04 Gerber Fmt 4.6, Leading zero omitted, Abs format (unit mm)*
G04 Created by KiCad (PCBNEW 8.0.0-rc1) date 2025-03-27 12:12:56*
%MOMM*%
%LPD*%
G01*
G04 APERTURE LIST*
G04 Aperture macros list*
%AMRoundRect*
0 Rectangle with rounded corners*
0 $1 Rounding radius*
0 $2 $3 $4 $5 $6 $7 $8 $9 X,Y pos of 4 corners*
0 Add a 4 corners polygon primitive as box body*
4,1,4,$2,$3,$4,$5,$6,$7,$8,$9,$2,$3,0*
0 Add four circle primitives for the rounded corners*
1,1,$1+$1,$2,$3*
1,1,$1+$1,$4,$5*
1,1,$1+$1,$6,$7*
1,1,$1+$1,$8,$9*
0 Add four rect primitives between the rounded corners*
20,1,$1+$1,$2,$3,$4,$5,0*
20,1,$1+$1,$4,$5,$6,$7,0*
20,1,$1+$1,$6,$7,$8,$9,0*
20,1,$1+$1,$8,$9,$2,$3,0*%
%AMFreePoly0*
4,1,12,-0.135000,0.500000,0.135000,0.500000,0.135000,-0.365000,0.124724,-0.416662,0.095459,-0.460459,0.051662,-0.489724,0.000000,-0.500000,-0.051662,-0.489724,-0.095459,-0.460459,-0.124724,-0.416662,-0.135000,-0.365000,-0.135000,0.500000,-0.135000,0.500000,$1*%
%AMFreePoly1*
4,1,5,3.000000,-3.000000,-3.000000,-3.000000,-3.000000,3.000000,3.000000,3.000000,3.000000,-3.000000,3.000000,-3.000000,$1*%
G04 Aperture macros list end*
%ADD10C,0.120000*%
%ADD11C,0.150000*%
%ADD12C,0.050000*%
%ADD13C,0.100000*%
%ADD14C,0.250000*%
%ADD15C,0.200000*%
%ADD16RoundRect,0.225000X-0.225000X-0.250000X0.225000X-0.250000X0.225000X0.250000X-0.225000X0.250000X0*%
%ADD17RoundRect,0.225000X-0.250000X0.225000X-0.250000X-0.225000X0.250000X-0.225000X0.250000X0.225000X0*%
%ADD18RoundRect,0.150000X-0.150000X-0.700000X0.150000X-0.700000X0.150000X0.700000X-0.150000X0.700000X0*%
%ADD19RoundRect,0.250000X-0.250000X-1.100000X0.250000X-1.100000X0.250000X1.100000X-0.250000X1.100000X0*%
%ADD20RoundRect,0.200000X0.275000X-0.200000X0.275000X0.200000X-0.275000X0.200000X-0.275000X-0.200000X0*%
%ADD21RoundRect,0.225000X0.225000X0.250000X-0.225000X0.250000X-0.225000X-0.250000X0.225000X-0.250000X0*%
%ADD22RoundRect,0.200000X0.200000X0.275000X-0.200000X0.275000X-0.200000X-0.275000X0.200000X-0.275000X0*%
%ADD23R,1.400000X1.000000*%
%ADD24C,5.200000*%
%ADD25R,2.200000X1.600000*%
%ADD26R,1.220000X1.120000*%
%ADD27RoundRect,0.200000X-0.200000X-0.275000X0.200000X-0.275000X0.200000X0.275000X-0.200000X0.275000X0*%
%ADD28R,2.000000X1.100000*%
%ADD29R,0.800000X1.100000*%
%ADD30FreePoly0,270.000000*%
%ADD31FreePoly0,0.000000*%
%ADD32FreePoly0,90.000000*%
%ADD33FreePoly0,180.000000*%
%ADD34FreePoly1,270.000000*%
%ADD35RoundRect,0.243750X-0.456250X0.243750X-0.456250X-0.243750X0.456250X-0.243750X0.456250X0.243750X0*%
%ADD36R,1.400000X1.200000*%
%ADD37C,0.500000*%
%ADD38R,1.000000X0.850000*%
%ADD39RoundRect,0.225000X0.250000X-0.225000X0.250000X0.225000X-0.250000X0.225000X-0.250000X-0.225000X0*%
%ADD40C,0.900000*%
%ADD41C,6.200000*%
%ADD42RoundRect,0.200000X-0.275000X0.200000X-0.275000X-0.200000X0.275000X-0.200000X0.275000X0.200000X0*%
%ADD43RoundRect,0.250000X0.325000X0.650000X-0.325000X0.650000X-0.325000X-0.650000X0.325000X-0.650000X0*%
%ADD44RoundRect,0.218750X-0.256250X0.218750X-0.256250X-0.218750X0.256250X-0.218750X0.256250X0.218750X0*%
%ADD45RoundRect,0.250000X-0.325000X-0.650000X0.325000X-0.650000X0.325000X0.650000X-0.325000X0.650000X0*%
%ADD46R,1.800000X1.230000*%
%ADD47RoundRect,0.375000X1.125000X0.375000X-1.125000X0.375000X-1.125000X-0.375000X1.125000X-0.375000X0*%
%ADD48RoundRect,0.375000X-0.375000X1.125000X-0.375000X-1.125000X0.375000X-1.125000X0.375000X1.125000X0*%
%ADD49R,1.000000X1.050000*%
%ADD50R,1.050000X2.200000*%
%ADD51R,0.700000X0.650000*%
%ADD52R,0.700000X1.525000*%
%ADD53R,3.450000X2.560000*%
G04 APERTURE END LIST*
D10*
X104580000Y-109700000D02*
X104290000Y-109410000D01*
X103290000Y-109700000D02*
X104580000Y-109700000D01*
D11*
X135730000Y-115045000D02*
X134940000Y-115045000D01*
X149485000Y-114910000D02*
X149255000Y-115140000D01*
D10*
X88770000Y-109770000D02*
X88500000Y-110040000D01*
X87480000Y-109770000D02*
X88770000Y-109770000D01*
D11*
X135720000Y-117925000D02*
X135440000Y-118205000D01*
X148595000Y-117930000D02*
X149365000Y-117930000D01*
X87842500Y-80962500D02*
X88772500Y-80962500D01*
X134940000Y-117925000D02*
X135720000Y-117925000D01*
D12*
X83760000Y-108290000D02*
X87250000Y-108290000D01*
X87250000Y-111480000D01*
X83760000Y-111480000D01*
X83760000Y-108290000D01*
D11*
X148595000Y-114910000D02*
X148595000Y-117930000D01*
D10*
X62360000Y-98790000D02*
X61210000Y-98790000D01*
D11*
X149755000Y-113600000D02*
X154685000Y-113600000D01*
X154685000Y-116790000D01*
X149755000Y-116790000D01*
X149755000Y-113600000D01*
X135990000Y-117105000D02*
X142300000Y-117105000D01*
X142300000Y-120595000D01*
X135990000Y-120595000D01*
X135990000Y-117105000D01*
D10*
X61210000Y-100300000D02*
X60820000Y-99910000D01*
X87480000Y-109770000D02*
X87780000Y-109470000D01*
X67600000Y-92390000D02*
X67870000Y-92120000D01*
D12*
X60460000Y-90870000D02*
X67340000Y-90870000D01*
X67340000Y-93840000D01*
X60460000Y-93840000D01*
X60460000Y-90870000D01*
D10*
X103290000Y-109700000D02*
X103610000Y-110020000D01*
X103290000Y-109700000D02*
X103590000Y-109400000D01*
X68960000Y-92390000D02*
X67600000Y-92390000D01*
D11*
X135730000Y-115045000D02*
X135460000Y-115315000D01*
D10*
X67600000Y-92390000D02*
X67890000Y-92680000D01*
D12*
X73020000Y-108350000D02*
X75830000Y-108350000D01*
X75830000Y-111430000D01*
X73020000Y-111430000D01*
X73020000Y-108350000D01*
D10*
X72760000Y-109910000D02*
X72470000Y-109620000D01*
D11*
X122010000Y-114940000D02*
X122010000Y-117960000D01*
X149485000Y-114910000D02*
X149255000Y-114680000D01*
X122010000Y-117960000D02*
X122850000Y-117960000D01*
D12*
X104840000Y-108140000D02*
X107650000Y-108140000D01*
X107650000Y-111220000D01*
X104840000Y-111220000D01*
X104840000Y-108140000D01*
D10*
X65820000Y-105550000D02*
X67130000Y-105550000D01*
X61210000Y-100300000D02*
X61600000Y-99910000D01*
D13*
X89022500Y-79562500D02*
X100842500Y-79562500D01*
X100842500Y-82652500D01*
X89022500Y-82652500D01*
X89022500Y-79562500D01*
D10*
X72760000Y-109910000D02*
X72490000Y-110180000D01*
D11*
X122850000Y-117960000D02*
X122550000Y-118260000D01*
D12*
X67770000Y-108290000D02*
X71120000Y-108290000D01*
X71120000Y-111490000D01*
X67770000Y-111490000D01*
X67770000Y-108290000D01*
X63680000Y-94310000D02*
X72960000Y-94310000D01*
X72960000Y-97380000D01*
X63680000Y-97380000D01*
X63680000Y-94310000D01*
X67310000Y-104010000D02*
X70440000Y-104010000D01*
X70440000Y-107110000D01*
X67310000Y-107110000D01*
X67310000Y-104010000D01*
D11*
X136000000Y-113615000D02*
X142290000Y-113615000D01*
X142290000Y-116885000D01*
X136000000Y-116885000D01*
X136000000Y-113615000D01*
X123170000Y-113630000D02*
X128010000Y-113630000D01*
X128010000Y-116820000D01*
X123170000Y-116820000D01*
X123170000Y-113630000D01*
D10*
X65820000Y-105550000D02*
X66140000Y-105230000D01*
X87480000Y-109770000D02*
X87800000Y-110090000D01*
D11*
X88772500Y-80962500D02*
X88562500Y-80752500D01*
D12*
X60280000Y-100650000D02*
X67740000Y-100650000D01*
X67740000Y-103730000D01*
X60280000Y-103730000D01*
X60280000Y-100650000D01*
D11*
X88772500Y-85207500D02*
X88532500Y-85447500D01*
D10*
X62360000Y-98790000D02*
X61970000Y-99180000D01*
X67130000Y-105550000D02*
X66780000Y-105200000D01*
D11*
X149725000Y-117050000D02*
X154695000Y-117050000D01*
X154695000Y-120460000D01*
X149725000Y-120460000D01*
X149725000Y-117050000D01*
X87842500Y-85207500D02*
X87842500Y-80962500D01*
X148595000Y-114910000D02*
X149485000Y-114910000D01*
D10*
X67130000Y-105550000D02*
X66800000Y-105880000D01*
X68960000Y-94100000D02*
X69350000Y-93710000D01*
D11*
X122920000Y-114940000D02*
X122010000Y-114940000D01*
X88772500Y-80962500D02*
X88532500Y-81202500D01*
D10*
X104580000Y-109700000D02*
X104310000Y-109970000D01*
D11*
X88772500Y-85207500D02*
X88562500Y-84997500D01*
X135720000Y-117925000D02*
X135460000Y-117665000D01*
D10*
X65820000Y-105550000D02*
X66130000Y-105860000D01*
D11*
X149365000Y-117930000D02*
X149098446Y-118196554D01*
D12*
X99580000Y-108280000D02*
X102940000Y-108280000D01*
X102940000Y-111510000D01*
X99580000Y-111510000D01*
X99580000Y-108280000D01*
D10*
X62360000Y-98790000D02*
X61970000Y-98400000D01*
D11*
X135730000Y-115045000D02*
X135430000Y-114745000D01*
D12*
X62820000Y-97380000D02*
X73280000Y-97380000D01*
X73280000Y-100460000D01*
X62820000Y-100460000D01*
X62820000Y-97380000D01*
D11*
X122920000Y-114940000D02*
X122610000Y-115250000D01*
D13*
X88972500Y-83197500D02*
X100852500Y-83197500D01*
X100852500Y-86927500D01*
X88972500Y-86927500D01*
X88972500Y-83197500D01*
D12*
X62530000Y-104010000D02*
X65660000Y-104010000D01*
X65660000Y-107110000D01*
X62530000Y-107110000D01*
X62530000Y-104010000D01*
D10*
X71470000Y-109910000D02*
X71770000Y-109610000D01*
X68960000Y-94100000D02*
X68590000Y-93730000D01*
X68960000Y-94100000D02*
X68960000Y-92390000D01*
D11*
X123190000Y-117050000D02*
X128030000Y-117050000D01*
X128030000Y-120360000D01*
X123190000Y-120360000D01*
X123190000Y-117050000D01*
D10*
X71470000Y-109910000D02*
X72760000Y-109910000D01*
X71470000Y-109910000D02*
X71790000Y-110230000D01*
X88770000Y-109770000D02*
X88480000Y-109480000D01*
D11*
X122920000Y-114940000D02*
X122580000Y-114600000D01*
D10*
X61210000Y-98790000D02*
X61210000Y-100300000D01*
D12*
X89030000Y-108210000D02*
X91840000Y-108210000D01*
X91840000Y-111290000D01*
X89030000Y-111290000D01*
X89030000Y-108210000D01*
D11*
X122850000Y-117960000D02*
X122560000Y-117670000D01*
X134940000Y-115045000D02*
X134940000Y-117925000D01*
X149365000Y-117930000D02*
X149105000Y-117670000D01*
X87842500Y-85207500D02*
X88772500Y-85207500D01*
D13*
X101123014Y-87267068D02*
X101123014Y-86802782D01*
X101123014Y-86802782D02*
X101408728Y-87052782D01*
X101408728Y-87052782D02*
X101408728Y-86945639D01*
X101408728Y-86945639D02*
X101444442Y-86874211D01*
X101444442Y-86874211D02*
X101480157Y-86838496D01*
X101480157Y-86838496D02*
X101551585Y-86802782D01*
X101551585Y-86802782D02*
X101730157Y-86802782D01*
X101730157Y-86802782D02*
X101801585Y-86838496D01*
X101801585Y-86838496D02*
X101837300Y-86874211D01*
X101837300Y-86874211D02*
X101873014Y-86945639D01*
X101873014Y-86945639D02*
X101873014Y-87159925D01*
X101873014Y-87159925D02*
X101837300Y-87231353D01*
X101837300Y-87231353D02*
X101801585Y-87267068D01*
X101123014Y-86588496D02*
X101873014Y-86338496D01*
X101873014Y-86338496D02*
X101123014Y-86088496D01*
X101444442Y-85731353D02*
X101408728Y-85802782D01*
X101408728Y-85802782D02*
X101373014Y-85838496D01*
X101373014Y-85838496D02*
X101301585Y-85874210D01*
X101301585Y-85874210D02*
X101265871Y-85874210D01*
X101265871Y-85874210D02*
X101194442Y-85838496D01*
X101194442Y-85838496D02*
X101158728Y-85802782D01*
X101158728Y-85802782D02*
X101123014Y-85731353D01*
X101123014Y-85731353D02*
X101123014Y-85588496D01*
X101123014Y-85588496D02*
X101158728Y-85517068D01*
X101158728Y-85517068D02*
X101194442Y-85481353D01*
X101194442Y-85481353D02*
X101265871Y-85445639D01*
X101265871Y-85445639D02*
X101301585Y-85445639D01*
X101301585Y-85445639D02*
X101373014Y-85481353D01*
X101373014Y-85481353D02*
X101408728Y-85517068D01*
X101408728Y-85517068D02*
X101444442Y-85588496D01*
X101444442Y-85588496D02*
X101444442Y-85731353D01*
X101444442Y-85731353D02*
X101480157Y-85802782D01*
X101480157Y-85802782D02*
X101515871Y-85838496D01*
X101515871Y-85838496D02*
X101587300Y-85874210D01*
X101587300Y-85874210D02*
X101730157Y-85874210D01*
X101730157Y-85874210D02*
X101801585Y-85838496D01*
X101801585Y-85838496D02*
X101837300Y-85802782D01*
X101837300Y-85802782D02*
X101873014Y-85731353D01*
X101873014Y-85731353D02*
X101873014Y-85588496D01*
X101873014Y-85588496D02*
X101837300Y-85517068D01*
X101837300Y-85517068D02*
X101801585Y-85481353D01*
X101801585Y-85481353D02*
X101730157Y-85445639D01*
X101730157Y-85445639D02*
X101587300Y-85445639D01*
X101587300Y-85445639D02*
X101515871Y-85481353D01*
X101515871Y-85481353D02*
X101480157Y-85517068D01*
X101480157Y-85517068D02*
X101444442Y-85588496D01*
X101873014Y-84195638D02*
X101873014Y-84552781D01*
X101873014Y-84552781D02*
X101123014Y-84552781D01*
X101480157Y-83945638D02*
X101480157Y-83695638D01*
X101873014Y-83588495D02*
X101873014Y-83945638D01*
X101873014Y-83945638D02*
X101123014Y-83945638D01*
X101123014Y-83945638D02*
X101123014Y-83588495D01*
X101873014Y-83267067D02*
X101123014Y-83267067D01*
X101123014Y-83267067D02*
X101123014Y-83088496D01*
X101123014Y-83088496D02*
X101158728Y-82981353D01*
X101158728Y-82981353D02*
X101230157Y-82909924D01*
X101230157Y-82909924D02*
X101301585Y-82874210D01*
X101301585Y-82874210D02*
X101444442Y-82838496D01*
X101444442Y-82838496D02*
X101551585Y-82838496D01*
X101551585Y-82838496D02*
X101694442Y-82874210D01*
X101694442Y-82874210D02*
X101765871Y-82909924D01*
X101765871Y-82909924D02*
X101837300Y-82981353D01*
X101837300Y-82981353D02*
X101873014Y-83088496D01*
X101873014Y-83088496D02*
X101873014Y-83267067D01*
D14*
X73680187Y-76088209D02*
X73680187Y-74888209D01*
X73680187Y-74888209D02*
X74080187Y-75745352D01*
X74080187Y-75745352D02*
X74480187Y-74888209D01*
X74480187Y-74888209D02*
X74480187Y-76088209D01*
X75223044Y-76088209D02*
X75108759Y-76031067D01*
X75108759Y-76031067D02*
X75051616Y-75973924D01*
X75051616Y-75973924D02*
X74994473Y-75859638D01*
X74994473Y-75859638D02*
X74994473Y-75516781D01*
X74994473Y-75516781D02*
X75051616Y-75402495D01*
X75051616Y-75402495D02*
X75108759Y-75345352D01*
X75108759Y-75345352D02*
X75223044Y-75288209D01*
X75223044Y-75288209D02*
X75394473Y-75288209D01*
X75394473Y-75288209D02*
X75508759Y-75345352D01*
X75508759Y-75345352D02*
X75565902Y-75402495D01*
X75565902Y-75402495D02*
X75623044Y-75516781D01*
X75623044Y-75516781D02*
X75623044Y-75859638D01*
X75623044Y-75859638D02*
X75565902Y-75973924D01*
X75565902Y-75973924D02*
X75508759Y-76031067D01*
X75508759Y-76031067D02*
X75394473Y-76088209D01*
X75394473Y-76088209D02*
X75223044Y-76088209D01*
X76023044Y-75288209D02*
X76308758Y-76088209D01*
X76308758Y-76088209D02*
X76594473Y-75288209D01*
X77051616Y-76088209D02*
X77051616Y-75288209D01*
X77051616Y-74888209D02*
X76994473Y-74945352D01*
X76994473Y-74945352D02*
X77051616Y-75002495D01*
X77051616Y-75002495D02*
X77108759Y-74945352D01*
X77108759Y-74945352D02*
X77051616Y-74888209D01*
X77051616Y-74888209D02*
X77051616Y-75002495D01*
X77451616Y-75288209D02*
X77908759Y-75288209D01*
X77623045Y-74888209D02*
X77623045Y-75916781D01*
X77623045Y-75916781D02*
X77680188Y-76031067D01*
X77680188Y-76031067D02*
X77794473Y-76088209D01*
X77794473Y-76088209D02*
X77908759Y-76088209D01*
X78823045Y-76088209D02*
X78823045Y-75459638D01*
X78823045Y-75459638D02*
X78765902Y-75345352D01*
X78765902Y-75345352D02*
X78651616Y-75288209D01*
X78651616Y-75288209D02*
X78423045Y-75288209D01*
X78423045Y-75288209D02*
X78308759Y-75345352D01*
X78823045Y-76031067D02*
X78708759Y-76088209D01*
X78708759Y-76088209D02*
X78423045Y-76088209D01*
X78423045Y-76088209D02*
X78308759Y-76031067D01*
X78308759Y-76031067D02*
X78251616Y-75916781D01*
X78251616Y-75916781D02*
X78251616Y-75802495D01*
X78251616Y-75802495D02*
X78308759Y-75688209D01*
X78308759Y-75688209D02*
X78423045Y-75631067D01*
X78423045Y-75631067D02*
X78708759Y-75631067D01*
X78708759Y-75631067D02*
X78823045Y-75573924D01*
X79451616Y-76031067D02*
X79451616Y-76088209D01*
X79451616Y-76088209D02*
X79394473Y-76202495D01*
X79394473Y-76202495D02*
X79337330Y-76259638D01*
X81508759Y-74945352D02*
X81394474Y-74888209D01*
X81394474Y-74888209D02*
X81223045Y-74888209D01*
X81223045Y-74888209D02*
X81051616Y-74945352D01*
X81051616Y-74945352D02*
X80937331Y-75059638D01*
X80937331Y-75059638D02*
X80880188Y-75173924D01*
X80880188Y-75173924D02*
X80823045Y-75402495D01*
X80823045Y-75402495D02*
X80823045Y-75573924D01*
X80823045Y-75573924D02*
X80880188Y-75802495D01*
X80880188Y-75802495D02*
X80937331Y-75916781D01*
X80937331Y-75916781D02*
X81051616Y-76031067D01*
X81051616Y-76031067D02*
X81223045Y-76088209D01*
X81223045Y-76088209D02*
X81337331Y-76088209D01*
X81337331Y-76088209D02*
X81508759Y-76031067D01*
X81508759Y-76031067D02*
X81565902Y-75973924D01*
X81565902Y-75973924D02*
X81565902Y-75573924D01*
X81565902Y-75573924D02*
X81337331Y-75573924D01*
X82023045Y-76031067D02*
X82194474Y-76088209D01*
X82194474Y-76088209D02*
X82480188Y-76088209D01*
X82480188Y-76088209D02*
X82594474Y-76031067D01*
X82594474Y-76031067D02*
X82651616Y-75973924D01*
X82651616Y-75973924D02*
X82708759Y-75859638D01*
X82708759Y-75859638D02*
X82708759Y-75745352D01*
X82708759Y-75745352D02*
X82651616Y-75631067D01*
X82651616Y-75631067D02*
X82594474Y-75573924D01*
X82594474Y-75573924D02*
X82480188Y-75516781D01*
X82480188Y-75516781D02*
X82251616Y-75459638D01*
X82251616Y-75459638D02*
X82137331Y-75402495D01*
X82137331Y-75402495D02*
X82080188Y-75345352D01*
X82080188Y-75345352D02*
X82023045Y-75231067D01*
X82023045Y-75231067D02*
X82023045Y-75116781D01*
X82023045Y-75116781D02*
X82080188Y-75002495D01*
X82080188Y-75002495D02*
X82137331Y-74945352D01*
X82137331Y-74945352D02*
X82251616Y-74888209D01*
X82251616Y-74888209D02*
X82537331Y-74888209D01*
X82537331Y-74888209D02*
X82708759Y-74945352D01*
X83223045Y-76088209D02*
X83223045Y-74888209D01*
X83223045Y-74888209D02*
X83623045Y-75745352D01*
X83623045Y-75745352D02*
X84023045Y-74888209D01*
X84023045Y-74888209D02*
X84023045Y-76088209D01*
X84308760Y-76202495D02*
X85223045Y-76202495D01*
X86194474Y-75973924D02*
X86137331Y-76031067D01*
X86137331Y-76031067D02*
X85965903Y-76088209D01*
X85965903Y-76088209D02*
X85851617Y-76088209D01*
X85851617Y-76088209D02*
X85680188Y-76031067D01*
X85680188Y-76031067D02*
X85565903Y-75916781D01*
X85565903Y-75916781D02*
X85508760Y-75802495D01*
X85508760Y-75802495D02*
X85451617Y-75573924D01*
X85451617Y-75573924D02*
X85451617Y-75402495D01*
X85451617Y-75402495D02*
X85508760Y-75173924D01*
X85508760Y-75173924D02*
X85565903Y-75059638D01*
X85565903Y-75059638D02*
X85680188Y-74945352D01*
X85680188Y-74945352D02*
X85851617Y-74888209D01*
X85851617Y-74888209D02*
X85965903Y-74888209D01*
X85965903Y-74888209D02*
X86137331Y-74945352D01*
X86137331Y-74945352D02*
X86194474Y-75002495D01*
X86537331Y-74888209D02*
X87223046Y-74888209D01*
X86880188Y-76088209D02*
X86880188Y-74888209D01*
X87337332Y-76202495D02*
X88251617Y-76202495D01*
X89223046Y-76088209D02*
X88823046Y-75516781D01*
X88537332Y-76088209D02*
X88537332Y-74888209D01*
X88537332Y-74888209D02*
X88994475Y-74888209D01*
X88994475Y-74888209D02*
X89108760Y-74945352D01*
X89108760Y-74945352D02*
X89165903Y-75002495D01*
X89165903Y-75002495D02*
X89223046Y-75116781D01*
X89223046Y-75116781D02*
X89223046Y-75288209D01*
X89223046Y-75288209D02*
X89165903Y-75402495D01*
X89165903Y-75402495D02*
X89108760Y-75459638D01*
X89108760Y-75459638D02*
X88994475Y-75516781D01*
X88994475Y-75516781D02*
X88537332Y-75516781D01*
X90194475Y-76031067D02*
X90080189Y-76088209D01*
X90080189Y-76088209D02*
X89851618Y-76088209D01*
X89851618Y-76088209D02*
X89737332Y-76031067D01*
X89737332Y-76031067D02*
X89680189Y-75916781D01*
X89680189Y-75916781D02*
X89680189Y-75459638D01*
X89680189Y-75459638D02*
X89737332Y-75345352D01*
X89737332Y-75345352D02*
X89851618Y-75288209D01*
X89851618Y-75288209D02*
X90080189Y-75288209D01*
X90080189Y-75288209D02*
X90194475Y-75345352D01*
X90194475Y-75345352D02*
X90251618Y-75459638D01*
X90251618Y-75459638D02*
X90251618Y-75573924D01*
X90251618Y-75573924D02*
X89680189Y-75688209D01*
X90651617Y-75288209D02*
X90937331Y-76088209D01*
X90937331Y-76088209D02*
X91223046Y-75288209D01*
X91680189Y-75973924D02*
X91737332Y-76031067D01*
X91737332Y-76031067D02*
X91680189Y-76088209D01*
X91680189Y-76088209D02*
X91623046Y-76031067D01*
X91623046Y-76031067D02*
X91680189Y-75973924D01*
X91680189Y-75973924D02*
X91680189Y-76088209D01*
X92880189Y-76088209D02*
X92194475Y-76088209D01*
X92537332Y-76088209D02*
X92537332Y-74888209D01*
X92537332Y-74888209D02*
X92423046Y-75059638D01*
X92423046Y-75059638D02*
X92308761Y-75173924D01*
X92308761Y-75173924D02*
X92194475Y-75231067D01*
X93394475Y-75973924D02*
X93451618Y-76031067D01*
X93451618Y-76031067D02*
X93394475Y-76088209D01*
X93394475Y-76088209D02*
X93337332Y-76031067D01*
X93337332Y-76031067D02*
X93394475Y-75973924D01*
X93394475Y-75973924D02*
X93394475Y-76088209D01*
X94194475Y-74888209D02*
X94308761Y-74888209D01*
X94308761Y-74888209D02*
X94423047Y-74945352D01*
X94423047Y-74945352D02*
X94480190Y-75002495D01*
X94480190Y-75002495D02*
X94537332Y-75116781D01*
X94537332Y-75116781D02*
X94594475Y-75345352D01*
X94594475Y-75345352D02*
X94594475Y-75631067D01*
X94594475Y-75631067D02*
X94537332Y-75859638D01*
X94537332Y-75859638D02*
X94480190Y-75973924D01*
X94480190Y-75973924D02*
X94423047Y-76031067D01*
X94423047Y-76031067D02*
X94308761Y-76088209D01*
X94308761Y-76088209D02*
X94194475Y-76088209D01*
X94194475Y-76088209D02*
X94080190Y-76031067D01*
X94080190Y-76031067D02*
X94023047Y-75973924D01*
X94023047Y-75973924D02*
X93965904Y-75859638D01*
X93965904Y-75859638D02*
X93908761Y-75631067D01*
X93908761Y-75631067D02*
X93908761Y-75345352D01*
X93908761Y-75345352D02*
X93965904Y-75116781D01*
X93965904Y-75116781D02*
X94023047Y-75002495D01*
X94023047Y-75002495D02*
X94080190Y-74945352D01*
X94080190Y-74945352D02*
X94194475Y-74888209D01*
X74537330Y-77963000D02*
X74708759Y-78020142D01*
X74708759Y-78020142D02*
X74994473Y-78020142D01*
X74994473Y-78020142D02*
X75108759Y-77963000D01*
X75108759Y-77963000D02*
X75165901Y-77905857D01*
X75165901Y-77905857D02*
X75223044Y-77791571D01*
X75223044Y-77791571D02*
X75223044Y-77677285D01*
X75223044Y-77677285D02*
X75165901Y-77563000D01*
X75165901Y-77563000D02*
X75108759Y-77505857D01*
X75108759Y-77505857D02*
X74994473Y-77448714D01*
X74994473Y-77448714D02*
X74765901Y-77391571D01*
X74765901Y-77391571D02*
X74651616Y-77334428D01*
X74651616Y-77334428D02*
X74594473Y-77277285D01*
X74594473Y-77277285D02*
X74537330Y-77163000D01*
X74537330Y-77163000D02*
X74537330Y-77048714D01*
X74537330Y-77048714D02*
X74594473Y-76934428D01*
X74594473Y-76934428D02*
X74651616Y-76877285D01*
X74651616Y-76877285D02*
X74765901Y-76820142D01*
X74765901Y-76820142D02*
X75051616Y-76820142D01*
X75051616Y-76820142D02*
X75223044Y-76877285D01*
X75737330Y-78020142D02*
X75737330Y-77220142D01*
X75737330Y-77334428D02*
X75794473Y-77277285D01*
X75794473Y-77277285D02*
X75908758Y-77220142D01*
X75908758Y-77220142D02*
X76080187Y-77220142D01*
X76080187Y-77220142D02*
X76194473Y-77277285D01*
X76194473Y-77277285D02*
X76251616Y-77391571D01*
X76251616Y-77391571D02*
X76251616Y-78020142D01*
X76251616Y-77391571D02*
X76308758Y-77277285D01*
X76308758Y-77277285D02*
X76423044Y-77220142D01*
X76423044Y-77220142D02*
X76594473Y-77220142D01*
X76594473Y-77220142D02*
X76708758Y-77277285D01*
X76708758Y-77277285D02*
X76765901Y-77391571D01*
X76765901Y-77391571D02*
X76765901Y-78020142D01*
X77851616Y-78020142D02*
X77851616Y-77391571D01*
X77851616Y-77391571D02*
X77794473Y-77277285D01*
X77794473Y-77277285D02*
X77680187Y-77220142D01*
X77680187Y-77220142D02*
X77451616Y-77220142D01*
X77451616Y-77220142D02*
X77337330Y-77277285D01*
X77851616Y-77963000D02*
X77737330Y-78020142D01*
X77737330Y-78020142D02*
X77451616Y-78020142D01*
X77451616Y-78020142D02*
X77337330Y-77963000D01*
X77337330Y-77963000D02*
X77280187Y-77848714D01*
X77280187Y-77848714D02*
X77280187Y-77734428D01*
X77280187Y-77734428D02*
X77337330Y-77620142D01*
X77337330Y-77620142D02*
X77451616Y-77563000D01*
X77451616Y-77563000D02*
X77737330Y-77563000D01*
X77737330Y-77563000D02*
X77851616Y-77505857D01*
X78423044Y-78020142D02*
X78423044Y-77220142D01*
X78423044Y-77448714D02*
X78480187Y-77334428D01*
X78480187Y-77334428D02*
X78537330Y-77277285D01*
X78537330Y-77277285D02*
X78651615Y-77220142D01*
X78651615Y-77220142D02*
X78765901Y-77220142D01*
X78994472Y-77220142D02*
X79451615Y-77220142D01*
X79165901Y-76820142D02*
X79165901Y-77848714D01*
X79165901Y-77848714D02*
X79223044Y-77963000D01*
X79223044Y-77963000D02*
X79337329Y-78020142D01*
X79337329Y-78020142D02*
X79451615Y-78020142D01*
X79851615Y-77391571D02*
X80251615Y-77391571D01*
X80423043Y-78020142D02*
X79851615Y-78020142D01*
X79851615Y-78020142D02*
X79851615Y-76820142D01*
X79851615Y-76820142D02*
X80423043Y-76820142D01*
X81451615Y-77220142D02*
X81451615Y-78420142D01*
X81451615Y-77963000D02*
X81337329Y-78020142D01*
X81337329Y-78020142D02*
X81108757Y-78020142D01*
X81108757Y-78020142D02*
X80994472Y-77963000D01*
X80994472Y-77963000D02*
X80937329Y-77905857D01*
X80937329Y-77905857D02*
X80880186Y-77791571D01*
X80880186Y-77791571D02*
X80880186Y-77448714D01*
X80880186Y-77448714D02*
X80937329Y-77334428D01*
X80937329Y-77334428D02*
X80994472Y-77277285D01*
X80994472Y-77277285D02*
X81108757Y-77220142D01*
X81108757Y-77220142D02*
X81337329Y-77220142D01*
X81337329Y-77220142D02*
X81451615Y-77277285D01*
X83337329Y-77391571D02*
X83508757Y-77448714D01*
X83508757Y-77448714D02*
X83565900Y-77505857D01*
X83565900Y-77505857D02*
X83623043Y-77620142D01*
X83623043Y-77620142D02*
X83623043Y-77791571D01*
X83623043Y-77791571D02*
X83565900Y-77905857D01*
X83565900Y-77905857D02*
X83508757Y-77963000D01*
X83508757Y-77963000D02*
X83394472Y-78020142D01*
X83394472Y-78020142D02*
X82937329Y-78020142D01*
X82937329Y-78020142D02*
X82937329Y-76820142D01*
X82937329Y-76820142D02*
X83337329Y-76820142D01*
X83337329Y-76820142D02*
X83451615Y-76877285D01*
X83451615Y-76877285D02*
X83508757Y-76934428D01*
X83508757Y-76934428D02*
X83565900Y-77048714D01*
X83565900Y-77048714D02*
X83565900Y-77163000D01*
X83565900Y-77163000D02*
X83508757Y-77277285D01*
X83508757Y-77277285D02*
X83451615Y-77334428D01*
X83451615Y-77334428D02*
X83337329Y-77391571D01*
X83337329Y-77391571D02*
X82937329Y-77391571D01*
X84137329Y-78020142D02*
X84137329Y-77220142D01*
X84137329Y-76820142D02*
X84080186Y-76877285D01*
X84080186Y-76877285D02*
X84137329Y-76934428D01*
X84137329Y-76934428D02*
X84194472Y-76877285D01*
X84194472Y-76877285D02*
X84137329Y-76820142D01*
X84137329Y-76820142D02*
X84137329Y-76934428D01*
X84880186Y-78020142D02*
X84765901Y-77963000D01*
X84765901Y-77963000D02*
X84708758Y-77848714D01*
X84708758Y-77848714D02*
X84708758Y-76820142D01*
X85337329Y-78020142D02*
X85337329Y-77220142D01*
X85337329Y-76820142D02*
X85280186Y-76877285D01*
X85280186Y-76877285D02*
X85337329Y-76934428D01*
X85337329Y-76934428D02*
X85394472Y-76877285D01*
X85394472Y-76877285D02*
X85337329Y-76820142D01*
X85337329Y-76820142D02*
X85337329Y-76934428D01*
X85851615Y-77963000D02*
X85965901Y-78020142D01*
X85965901Y-78020142D02*
X86194472Y-78020142D01*
X86194472Y-78020142D02*
X86308758Y-77963000D01*
X86308758Y-77963000D02*
X86365901Y-77848714D01*
X86365901Y-77848714D02*
X86365901Y-77791571D01*
X86365901Y-77791571D02*
X86308758Y-77677285D01*
X86308758Y-77677285D02*
X86194472Y-77620142D01*
X86194472Y-77620142D02*
X86023044Y-77620142D01*
X86023044Y-77620142D02*
X85908758Y-77563000D01*
X85908758Y-77563000D02*
X85851615Y-77448714D01*
X85851615Y-77448714D02*
X85851615Y-77391571D01*
X85851615Y-77391571D02*
X85908758Y-77277285D01*
X85908758Y-77277285D02*
X86023044Y-77220142D01*
X86023044Y-77220142D02*
X86194472Y-77220142D01*
X86194472Y-77220142D02*
X86308758Y-77277285D01*
X86880187Y-78020142D02*
X86880187Y-77220142D01*
X86880187Y-76820142D02*
X86823044Y-76877285D01*
X86823044Y-76877285D02*
X86880187Y-76934428D01*
X86880187Y-76934428D02*
X86937330Y-76877285D01*
X86937330Y-76877285D02*
X86880187Y-76820142D01*
X86880187Y-76820142D02*
X86880187Y-76934428D01*
X87451616Y-78020142D02*
X87451616Y-77220142D01*
X87451616Y-77334428D02*
X87508759Y-77277285D01*
X87508759Y-77277285D02*
X87623044Y-77220142D01*
X87623044Y-77220142D02*
X87794473Y-77220142D01*
X87794473Y-77220142D02*
X87908759Y-77277285D01*
X87908759Y-77277285D02*
X87965902Y-77391571D01*
X87965902Y-77391571D02*
X87965902Y-78020142D01*
X87965902Y-77391571D02*
X88023044Y-77277285D01*
X88023044Y-77277285D02*
X88137330Y-77220142D01*
X88137330Y-77220142D02*
X88308759Y-77220142D01*
X88308759Y-77220142D02*
X88423044Y-77277285D01*
X88423044Y-77277285D02*
X88480187Y-77391571D01*
X88480187Y-77391571D02*
X88480187Y-78020142D01*
X89908759Y-76934428D02*
X89965902Y-76877285D01*
X89965902Y-76877285D02*
X90080188Y-76820142D01*
X90080188Y-76820142D02*
X90365902Y-76820142D01*
X90365902Y-76820142D02*
X90480188Y-76877285D01*
X90480188Y-76877285D02*
X90537330Y-76934428D01*
X90537330Y-76934428D02*
X90594473Y-77048714D01*
X90594473Y-77048714D02*
X90594473Y-77163000D01*
X90594473Y-77163000D02*
X90537330Y-77334428D01*
X90537330Y-77334428D02*
X89851616Y-78020142D01*
X89851616Y-78020142D02*
X90594473Y-78020142D01*
X91337330Y-76820142D02*
X91451616Y-76820142D01*
X91451616Y-76820142D02*
X91565902Y-76877285D01*
X91565902Y-76877285D02*
X91623045Y-76934428D01*
X91623045Y-76934428D02*
X91680187Y-77048714D01*
X91680187Y-77048714D02*
X91737330Y-77277285D01*
X91737330Y-77277285D02*
X91737330Y-77563000D01*
X91737330Y-77563000D02*
X91680187Y-77791571D01*
X91680187Y-77791571D02*
X91623045Y-77905857D01*
X91623045Y-77905857D02*
X91565902Y-77963000D01*
X91565902Y-77963000D02*
X91451616Y-78020142D01*
X91451616Y-78020142D02*
X91337330Y-78020142D01*
X91337330Y-78020142D02*
X91223045Y-77963000D01*
X91223045Y-77963000D02*
X91165902Y-77905857D01*
X91165902Y-77905857D02*
X91108759Y-77791571D01*
X91108759Y-77791571D02*
X91051616Y-77563000D01*
X91051616Y-77563000D02*
X91051616Y-77277285D01*
X91051616Y-77277285D02*
X91108759Y-77048714D01*
X91108759Y-77048714D02*
X91165902Y-76934428D01*
X91165902Y-76934428D02*
X91223045Y-76877285D01*
X91223045Y-76877285D02*
X91337330Y-76820142D01*
X92194473Y-76934428D02*
X92251616Y-76877285D01*
X92251616Y-76877285D02*
X92365902Y-76820142D01*
X92365902Y-76820142D02*
X92651616Y-76820142D01*
X92651616Y-76820142D02*
X92765902Y-76877285D01*
X92765902Y-76877285D02*
X92823044Y-76934428D01*
X92823044Y-76934428D02*
X92880187Y-77048714D01*
X92880187Y-77048714D02*
X92880187Y-77163000D01*
X92880187Y-77163000D02*
X92823044Y-77334428D01*
X92823044Y-77334428D02*
X92137330Y-78020142D01*
X92137330Y-78020142D02*
X92880187Y-78020142D01*
X93908759Y-77220142D02*
X93908759Y-78020142D01*
X93623044Y-76763000D02*
X93337330Y-77620142D01*
X93337330Y-77620142D02*
X94080187Y-77620142D01*
D13*
X117634360Y-114623014D02*
X117634360Y-113873014D01*
X117634360Y-113873014D02*
X117884360Y-114408728D01*
X117884360Y-114408728D02*
X118134360Y-113873014D01*
X118134360Y-113873014D02*
X118134360Y-114623014D01*
X118455789Y-114408728D02*
X118812932Y-114408728D01*
X118384360Y-114623014D02*
X118634360Y-113873014D01*
X118634360Y-113873014D02*
X118884360Y-114623014D01*
X119134360Y-114623014D02*
X119134360Y-113873014D01*
X119491503Y-114623014D02*
X119491503Y-113873014D01*
X119491503Y-113873014D02*
X119920074Y-114623014D01*
X119920074Y-114623014D02*
X119920074Y-113873014D01*
X145094360Y-114763014D02*
X145094360Y-114013014D01*
X145094360Y-114013014D02*
X145272931Y-114013014D01*
X145272931Y-114013014D02*
X145380074Y-114048728D01*
X145380074Y-114048728D02*
X145451503Y-114120157D01*
X145451503Y-114120157D02*
X145487217Y-114191585D01*
X145487217Y-114191585D02*
X145522931Y-114334442D01*
X145522931Y-114334442D02*
X145522931Y-114441585D01*
X145522931Y-114441585D02*
X145487217Y-114584442D01*
X145487217Y-114584442D02*
X145451503Y-114655871D01*
X145451503Y-114655871D02*
X145380074Y-114727300D01*
X145380074Y-114727300D02*
X145272931Y-114763014D01*
X145272931Y-114763014D02*
X145094360Y-114763014D01*
X145844360Y-114763014D02*
X145844360Y-114013014D01*
X146094360Y-114013014D02*
X146344360Y-114763014D01*
X146344360Y-114763014D02*
X146594360Y-114013014D01*
X131157217Y-113848728D02*
X131085789Y-113813014D01*
X131085789Y-113813014D02*
X130978646Y-113813014D01*
X130978646Y-113813014D02*
X130871503Y-113848728D01*
X130871503Y-113848728D02*
X130800074Y-113920157D01*
X130800074Y-113920157D02*
X130764360Y-113991585D01*
X130764360Y-113991585D02*
X130728646Y-114134442D01*
X130728646Y-114134442D02*
X130728646Y-114241585D01*
X130728646Y-114241585D02*
X130764360Y-114384442D01*
X130764360Y-114384442D02*
X130800074Y-114455871D01*
X130800074Y-114455871D02*
X130871503Y-114527300D01*
X130871503Y-114527300D02*
X130978646Y-114563014D01*
X130978646Y-114563014D02*
X131050074Y-114563014D01*
X131050074Y-114563014D02*
X131157217Y-114527300D01*
X131157217Y-114527300D02*
X131192931Y-114491585D01*
X131192931Y-114491585D02*
X131192931Y-114241585D01*
X131192931Y-114241585D02*
X131050074Y-114241585D01*
X131514360Y-114563014D02*
X131514360Y-113813014D01*
X131514360Y-113813014D02*
X131942931Y-114563014D01*
X131942931Y-114563014D02*
X131942931Y-113813014D01*
X132264360Y-114527300D02*
X132371503Y-114563014D01*
X132371503Y-114563014D02*
X132550074Y-114563014D01*
X132550074Y-114563014D02*
X132621503Y-114527300D01*
X132621503Y-114527300D02*
X132657217Y-114491585D01*
X132657217Y-114491585D02*
X132692931Y-114420157D01*
X132692931Y-114420157D02*
X132692931Y-114348728D01*
X132692931Y-114348728D02*
X132657217Y-114277300D01*
X132657217Y-114277300D02*
X132621503Y-114241585D01*
X132621503Y-114241585D02*
X132550074Y-114205871D01*
X132550074Y-114205871D02*
X132407217Y-114170157D01*
X132407217Y-114170157D02*
X132335788Y-114134442D01*
X132335788Y-114134442D02*
X132300074Y-114098728D01*
X132300074Y-114098728D02*
X132264360Y-114027300D01*
X132264360Y-114027300D02*
X132264360Y-113955871D01*
X132264360Y-113955871D02*
X132300074Y-113884442D01*
X132300074Y-113884442D02*
X132335788Y-113848728D01*
X132335788Y-113848728D02*
X132407217Y-113813014D01*
X132407217Y-113813014D02*
X132585788Y-113813014D01*
X132585788Y-113813014D02*
X132692931Y-113848728D01*
X132978646Y-114527300D02*
X133085789Y-114563014D01*
X133085789Y-114563014D02*
X133264360Y-114563014D01*
X133264360Y-114563014D02*
X133335789Y-114527300D01*
X133335789Y-114527300D02*
X133371503Y-114491585D01*
X133371503Y-114491585D02*
X133407217Y-114420157D01*
X133407217Y-114420157D02*
X133407217Y-114348728D01*
X133407217Y-114348728D02*
X133371503Y-114277300D01*
X133371503Y-114277300D02*
X133335789Y-114241585D01*
X133335789Y-114241585D02*
X133264360Y-114205871D01*
X133264360Y-114205871D02*
X133121503Y-114170157D01*
X133121503Y-114170157D02*
X133050074Y-114134442D01*
X133050074Y-114134442D02*
X133014360Y-114098728D01*
X133014360Y-114098728D02*
X132978646Y-114027300D01*
X132978646Y-114027300D02*
X132978646Y-113955871D01*
X132978646Y-113955871D02*
X133014360Y-113884442D01*
X133014360Y-113884442D02*
X133050074Y-113848728D01*
X133050074Y-113848728D02*
X133121503Y-113813014D01*
X133121503Y-113813014D02*
X133300074Y-113813014D01*
X133300074Y-113813014D02*
X133407217Y-113848728D01*
X106483333Y-98702180D02*
X106435714Y-98749800D01*
X106435714Y-98749800D02*
X106292857Y-98797419D01*
X106292857Y-98797419D02*
X106197619Y-98797419D01*
X106197619Y-98797419D02*
X106054762Y-98749800D01*
X106054762Y-98749800D02*
X105959524Y-98654561D01*
X105959524Y-98654561D02*
X105911905Y-98559323D01*
X105911905Y-98559323D02*
X105864286Y-98368847D01*
X105864286Y-98368847D02*
X105864286Y-98225990D01*
X105864286Y-98225990D02*
X105911905Y-98035514D01*
X105911905Y-98035514D02*
X105959524Y-97940276D01*
X105959524Y-97940276D02*
X106054762Y-97845038D01*
X106054762Y-97845038D02*
X106197619Y-97797419D01*
X106197619Y-97797419D02*
X106292857Y-97797419D01*
X106292857Y-97797419D02*
X106435714Y-97845038D01*
X106435714Y-97845038D02*
X106483333Y-97892657D01*
X107388095Y-97797419D02*
X106911905Y-97797419D01*
X106911905Y-97797419D02*
X106864286Y-98273609D01*
X106864286Y-98273609D02*
X106911905Y-98225990D01*
X106911905Y-98225990D02*
X107007143Y-98178371D01*
X107007143Y-98178371D02*
X107245238Y-98178371D01*
X107245238Y-98178371D02*
X107340476Y-98225990D01*
X107340476Y-98225990D02*
X107388095Y-98273609D01*
X107388095Y-98273609D02*
X107435714Y-98368847D01*
X107435714Y-98368847D02*
X107435714Y-98606942D01*
X107435714Y-98606942D02*
X107388095Y-98702180D01*
X107388095Y-98702180D02*
X107340476Y-98749800D01*
X107340476Y-98749800D02*
X107245238Y-98797419D01*
X107245238Y-98797419D02*
X107007143Y-98797419D01*
X107007143Y-98797419D02*
X106911905Y-98749800D01*
X106911905Y-98749800D02*
X106864286Y-98702180D01*
X138832180Y-119522857D02*
X138879800Y-119570476D01*
X138879800Y-119570476D02*
X138927419Y-119713333D01*
X138927419Y-119713333D02*
X138927419Y-119808571D01*
X138927419Y-119808571D02*
X138879800Y-119951428D01*
X138879800Y-119951428D02*
X138784561Y-120046666D01*
X138784561Y-120046666D02*
X138689323Y-120094285D01*
X138689323Y-120094285D02*
X138498847Y-120141904D01*
X138498847Y-120141904D02*
X138355990Y-120141904D01*
X138355990Y-120141904D02*
X138165514Y-120094285D01*
X138165514Y-120094285D02*
X138070276Y-120046666D01*
X138070276Y-120046666D02*
X137975038Y-119951428D01*
X137975038Y-119951428D02*
X137927419Y-119808571D01*
X137927419Y-119808571D02*
X137927419Y-119713333D01*
X137927419Y-119713333D02*
X137975038Y-119570476D01*
X137975038Y-119570476D02*
X138022657Y-119522857D01*
X138022657Y-119141904D02*
X137975038Y-119094285D01*
X137975038Y-119094285D02*
X137927419Y-118999047D01*
X137927419Y-118999047D02*
X137927419Y-118760952D01*
X137927419Y-118760952D02*
X137975038Y-118665714D01*
X137975038Y-118665714D02*
X138022657Y-118618095D01*
X138022657Y-118618095D02*
X138117895Y-118570476D01*
X138117895Y-118570476D02*
X138213133Y-118570476D01*
X138213133Y-118570476D02*
X138355990Y-118618095D01*
X138355990Y-118618095D02*
X138927419Y-119189523D01*
X138927419Y-119189523D02*
X138927419Y-118570476D01*
X138260752Y-117713333D02*
X138927419Y-117713333D01*
X137879800Y-117951428D02*
X138594085Y-118189523D01*
X138594085Y-118189523D02*
X138594085Y-117570476D01*
X113021666Y-113507419D02*
X113021666Y-114221704D01*
X113021666Y-114221704D02*
X112974047Y-114364561D01*
X112974047Y-114364561D02*
X112878809Y-114459800D01*
X112878809Y-114459800D02*
X112735952Y-114507419D01*
X112735952Y-114507419D02*
X112640714Y-114507419D01*
X113545476Y-114507419D02*
X113735952Y-114507419D01*
X113735952Y-114507419D02*
X113831190Y-114459800D01*
X113831190Y-114459800D02*
X113878809Y-114412180D01*
X113878809Y-114412180D02*
X113974047Y-114269323D01*
X113974047Y-114269323D02*
X114021666Y-114078847D01*
X114021666Y-114078847D02*
X114021666Y-113697895D01*
X114021666Y-113697895D02*
X113974047Y-113602657D01*
X113974047Y-113602657D02*
X113926428Y-113555038D01*
X113926428Y-113555038D02*
X113831190Y-113507419D01*
X113831190Y-113507419D02*
X113640714Y-113507419D01*
X113640714Y-113507419D02*
X113545476Y-113555038D01*
X113545476Y-113555038D02*
X113497857Y-113602657D01*
X113497857Y-113602657D02*
X113450238Y-113697895D01*
X113450238Y-113697895D02*
X113450238Y-113935990D01*
X113450238Y-113935990D02*
X113497857Y-114031228D01*
X113497857Y-114031228D02*
X113545476Y-114078847D01*
X113545476Y-114078847D02*
X113640714Y-114126466D01*
X113640714Y-114126466D02*
X113831190Y-114126466D01*
X113831190Y-114126466D02*
X113926428Y-114078847D01*
X113926428Y-114078847D02*
X113974047Y-114031228D01*
X113974047Y-114031228D02*
X114021666Y-113935990D01*
X81121666Y-113507419D02*
X81121666Y-114221704D01*
X81121666Y-114221704D02*
X81074047Y-114364561D01*
X81074047Y-114364561D02*
X80978809Y-114459800D01*
X80978809Y-114459800D02*
X80835952Y-114507419D01*
X80835952Y-114507419D02*
X80740714Y-114507419D01*
X81502619Y-113507419D02*
X82169285Y-113507419D01*
X82169285Y-113507419D02*
X81740714Y-114507419D01*
X106463333Y-97182180D02*
X106415714Y-97229800D01*
X106415714Y-97229800D02*
X106272857Y-97277419D01*
X106272857Y-97277419D02*
X106177619Y-97277419D01*
X106177619Y-97277419D02*
X106034762Y-97229800D01*
X106034762Y-97229800D02*
X105939524Y-97134561D01*
X105939524Y-97134561D02*
X105891905Y-97039323D01*
X105891905Y-97039323D02*
X105844286Y-96848847D01*
X105844286Y-96848847D02*
X105844286Y-96705990D01*
X105844286Y-96705990D02*
X105891905Y-96515514D01*
X105891905Y-96515514D02*
X105939524Y-96420276D01*
X105939524Y-96420276D02*
X106034762Y-96325038D01*
X106034762Y-96325038D02*
X106177619Y-96277419D01*
X106177619Y-96277419D02*
X106272857Y-96277419D01*
X106272857Y-96277419D02*
X106415714Y-96325038D01*
X106415714Y-96325038D02*
X106463333Y-96372657D01*
X107320476Y-96277419D02*
X107130000Y-96277419D01*
X107130000Y-96277419D02*
X107034762Y-96325038D01*
X107034762Y-96325038D02*
X106987143Y-96372657D01*
X106987143Y-96372657D02*
X106891905Y-96515514D01*
X106891905Y-96515514D02*
X106844286Y-96705990D01*
X106844286Y-96705990D02*
X106844286Y-97086942D01*
X106844286Y-97086942D02*
X106891905Y-97182180D01*
X106891905Y-97182180D02*
X106939524Y-97229800D01*
X106939524Y-97229800D02*
X107034762Y-97277419D01*
X107034762Y-97277419D02*
X107225238Y-97277419D01*
X107225238Y-97277419D02*
X107320476Y-97229800D01*
X107320476Y-97229800D02*
X107368095Y-97182180D01*
X107368095Y-97182180D02*
X107415714Y-97086942D01*
X107415714Y-97086942D02*
X107415714Y-96848847D01*
X107415714Y-96848847D02*
X107368095Y-96753609D01*
X107368095Y-96753609D02*
X107320476Y-96705990D01*
X107320476Y-96705990D02*
X107225238Y-96658371D01*
X107225238Y-96658371D02*
X107034762Y-96658371D01*
X107034762Y-96658371D02*
X106939524Y-96705990D01*
X106939524Y-96705990D02*
X106891905Y-96753609D01*
X106891905Y-96753609D02*
X106844286Y-96848847D01*
X64007419Y-102892857D02*
X63531228Y-103226190D01*
X64007419Y-103464285D02*
X63007419Y-103464285D01*
X63007419Y-103464285D02*
X63007419Y-103083333D01*
X63007419Y-103083333D02*
X63055038Y-102988095D01*
X63055038Y-102988095D02*
X63102657Y-102940476D01*
X63102657Y-102940476D02*
X63197895Y-102892857D01*
X63197895Y-102892857D02*
X63340752Y-102892857D01*
X63340752Y-102892857D02*
X63435990Y-102940476D01*
X63435990Y-102940476D02*
X63483609Y-102988095D01*
X63483609Y-102988095D02*
X63531228Y-103083333D01*
X63531228Y-103083333D02*
X63531228Y-103464285D01*
X63102657Y-102511904D02*
X63055038Y-102464285D01*
X63055038Y-102464285D02*
X63007419Y-102369047D01*
X63007419Y-102369047D02*
X63007419Y-102130952D01*
X63007419Y-102130952D02*
X63055038Y-102035714D01*
X63055038Y-102035714D02*
X63102657Y-101988095D01*
X63102657Y-101988095D02*
X63197895Y-101940476D01*
X63197895Y-101940476D02*
X63293133Y-101940476D01*
X63293133Y-101940476D02*
X63435990Y-101988095D01*
X63435990Y-101988095D02*
X64007419Y-102559523D01*
X64007419Y-102559523D02*
X64007419Y-101940476D01*
X63007419Y-101607142D02*
X63007419Y-100940476D01*
X63007419Y-100940476D02*
X64007419Y-101369047D01*
X63437142Y-105322180D02*
X63389523Y-105369800D01*
X63389523Y-105369800D02*
X63246666Y-105417419D01*
X63246666Y-105417419D02*
X63151428Y-105417419D01*
X63151428Y-105417419D02*
X63008571Y-105369800D01*
X63008571Y-105369800D02*
X62913333Y-105274561D01*
X62913333Y-105274561D02*
X62865714Y-105179323D01*
X62865714Y-105179323D02*
X62818095Y-104988847D01*
X62818095Y-104988847D02*
X62818095Y-104845990D01*
X62818095Y-104845990D02*
X62865714Y-104655514D01*
X62865714Y-104655514D02*
X62913333Y-104560276D01*
X62913333Y-104560276D02*
X63008571Y-104465038D01*
X63008571Y-104465038D02*
X63151428Y-104417419D01*
X63151428Y-104417419D02*
X63246666Y-104417419D01*
X63246666Y-104417419D02*
X63389523Y-104465038D01*
X63389523Y-104465038D02*
X63437142Y-104512657D01*
X64389523Y-105417419D02*
X63818095Y-105417419D01*
X64103809Y-105417419D02*
X64103809Y-104417419D01*
X64103809Y-104417419D02*
X64008571Y-104560276D01*
X64008571Y-104560276D02*
X63913333Y-104655514D01*
X63913333Y-104655514D02*
X63818095Y-104703133D01*
X65246666Y-104417419D02*
X65056190Y-104417419D01*
X65056190Y-104417419D02*
X64960952Y-104465038D01*
X64960952Y-104465038D02*
X64913333Y-104512657D01*
X64913333Y-104512657D02*
X64818095Y-104655514D01*
X64818095Y-104655514D02*
X64770476Y-104845990D01*
X64770476Y-104845990D02*
X64770476Y-105226942D01*
X64770476Y-105226942D02*
X64818095Y-105322180D01*
X64818095Y-105322180D02*
X64865714Y-105369800D01*
X64865714Y-105369800D02*
X64960952Y-105417419D01*
X64960952Y-105417419D02*
X65151428Y-105417419D01*
X65151428Y-105417419D02*
X65246666Y-105369800D01*
X65246666Y-105369800D02*
X65294285Y-105322180D01*
X65294285Y-105322180D02*
X65341904Y-105226942D01*
X65341904Y-105226942D02*
X65341904Y-104988847D01*
X65341904Y-104988847D02*
X65294285Y-104893609D01*
X65294285Y-104893609D02*
X65246666Y-104845990D01*
X65246666Y-104845990D02*
X65151428Y-104798371D01*
X65151428Y-104798371D02*
X64960952Y-104798371D01*
X64960952Y-104798371D02*
X64865714Y-104845990D01*
X64865714Y-104845990D02*
X64818095Y-104893609D01*
X64818095Y-104893609D02*
X64770476Y-104988847D01*
X63467142Y-106787419D02*
X63133809Y-106311228D01*
X62895714Y-106787419D02*
X62895714Y-105787419D01*
X62895714Y-105787419D02*
X63276666Y-105787419D01*
X63276666Y-105787419D02*
X63371904Y-105835038D01*
X63371904Y-105835038D02*
X63419523Y-105882657D01*
X63419523Y-105882657D02*
X63467142Y-105977895D01*
X63467142Y-105977895D02*
X63467142Y-106120752D01*
X63467142Y-106120752D02*
X63419523Y-106215990D01*
X63419523Y-106215990D02*
X63371904Y-106263609D01*
X63371904Y-106263609D02*
X63276666Y-106311228D01*
X63276666Y-106311228D02*
X62895714Y-106311228D01*
X63800476Y-105787419D02*
X64419523Y-105787419D01*
X64419523Y-105787419D02*
X64086190Y-106168371D01*
X64086190Y-106168371D02*
X64229047Y-106168371D01*
X64229047Y-106168371D02*
X64324285Y-106215990D01*
X64324285Y-106215990D02*
X64371904Y-106263609D01*
X64371904Y-106263609D02*
X64419523Y-106358847D01*
X64419523Y-106358847D02*
X64419523Y-106596942D01*
X64419523Y-106596942D02*
X64371904Y-106692180D01*
X64371904Y-106692180D02*
X64324285Y-106739800D01*
X64324285Y-106739800D02*
X64229047Y-106787419D01*
X64229047Y-106787419D02*
X63943333Y-106787419D01*
X63943333Y-106787419D02*
X63848095Y-106739800D01*
X63848095Y-106739800D02*
X63800476Y-106692180D01*
X65276666Y-105787419D02*
X65086190Y-105787419D01*
X65086190Y-105787419D02*
X64990952Y-105835038D01*
X64990952Y-105835038D02*
X64943333Y-105882657D01*
X64943333Y-105882657D02*
X64848095Y-106025514D01*
X64848095Y-106025514D02*
X64800476Y-106215990D01*
X64800476Y-106215990D02*
X64800476Y-106596942D01*
X64800476Y-106596942D02*
X64848095Y-106692180D01*
X64848095Y-106692180D02*
X64895714Y-106739800D01*
X64895714Y-106739800D02*
X64990952Y-106787419D01*
X64990952Y-106787419D02*
X65181428Y-106787419D01*
X65181428Y-106787419D02*
X65276666Y-106739800D01*
X65276666Y-106739800D02*
X65324285Y-106692180D01*
X65324285Y-106692180D02*
X65371904Y-106596942D01*
X65371904Y-106596942D02*
X65371904Y-106358847D01*
X65371904Y-106358847D02*
X65324285Y-106263609D01*
X65324285Y-106263609D02*
X65276666Y-106215990D01*
X65276666Y-106215990D02*
X65181428Y-106168371D01*
X65181428Y-106168371D02*
X64990952Y-106168371D01*
X64990952Y-106168371D02*
X64895714Y-106215990D01*
X64895714Y-106215990D02*
X64848095Y-106263609D01*
X64848095Y-106263609D02*
X64800476Y-106358847D01*
X100328095Y-76627419D02*
X100328095Y-77436942D01*
X100328095Y-77436942D02*
X100375714Y-77532180D01*
X100375714Y-77532180D02*
X100423333Y-77579800D01*
X100423333Y-77579800D02*
X100518571Y-77627419D01*
X100518571Y-77627419D02*
X100709047Y-77627419D01*
X100709047Y-77627419D02*
X100804285Y-77579800D01*
X100804285Y-77579800D02*
X100851904Y-77532180D01*
X100851904Y-77532180D02*
X100899523Y-77436942D01*
X100899523Y-77436942D02*
X100899523Y-76627419D01*
X101899523Y-77627419D02*
X101328095Y-77627419D01*
X101613809Y-77627419D02*
X101613809Y-76627419D01*
X101613809Y-76627419D02*
X101518571Y-76770276D01*
X101518571Y-76770276D02*
X101423333Y-76865514D01*
X101423333Y-76865514D02*
X101328095Y-76913133D01*
X95563334Y-88067418D02*
X95087144Y-88067418D01*
X95087144Y-88067418D02*
X95087144Y-87067418D01*
X96420477Y-88067418D02*
X95849049Y-88067418D01*
X96134763Y-88067418D02*
X96134763Y-87067418D01*
X96134763Y-87067418D02*
X96039525Y-87210275D01*
X96039525Y-87210275D02*
X95944287Y-87305513D01*
X95944287Y-87305513D02*
X95849049Y-87353132D01*
X106607419Y-90888094D02*
X105607419Y-90888094D01*
X105607419Y-90888094D02*
X105607419Y-90649999D01*
X105607419Y-90649999D02*
X105655038Y-90507142D01*
X105655038Y-90507142D02*
X105750276Y-90411904D01*
X105750276Y-90411904D02*
X105845514Y-90364285D01*
X105845514Y-90364285D02*
X106035990Y-90316666D01*
X106035990Y-90316666D02*
X106178847Y-90316666D01*
X106178847Y-90316666D02*
X106369323Y-90364285D01*
X106369323Y-90364285D02*
X106464561Y-90411904D01*
X106464561Y-90411904D02*
X106559800Y-90507142D01*
X106559800Y-90507142D02*
X106607419Y-90649999D01*
X106607419Y-90649999D02*
X106607419Y-90888094D01*
X105940752Y-89459523D02*
X106607419Y-89459523D01*
X105559800Y-89697618D02*
X106274085Y-89935713D01*
X106274085Y-89935713D02*
X106274085Y-89316666D01*
X63407142Y-88847419D02*
X63073809Y-88371228D01*
X62835714Y-88847419D02*
X62835714Y-87847419D01*
X62835714Y-87847419D02*
X63216666Y-87847419D01*
X63216666Y-87847419D02*
X63311904Y-87895038D01*
X63311904Y-87895038D02*
X63359523Y-87942657D01*
X63359523Y-87942657D02*
X63407142Y-88037895D01*
X63407142Y-88037895D02*
X63407142Y-88180752D01*
X63407142Y-88180752D02*
X63359523Y-88275990D01*
X63359523Y-88275990D02*
X63311904Y-88323609D01*
X63311904Y-88323609D02*
X63216666Y-88371228D01*
X63216666Y-88371228D02*
X62835714Y-88371228D01*
X63740476Y-87847419D02*
X64359523Y-87847419D01*
X64359523Y-87847419D02*
X64026190Y-88228371D01*
X64026190Y-88228371D02*
X64169047Y-88228371D01*
X64169047Y-88228371D02*
X64264285Y-88275990D01*
X64264285Y-88275990D02*
X64311904Y-88323609D01*
X64311904Y-88323609D02*
X64359523Y-88418847D01*
X64359523Y-88418847D02*
X64359523Y-88656942D01*
X64359523Y-88656942D02*
X64311904Y-88752180D01*
X64311904Y-88752180D02*
X64264285Y-88799800D01*
X64264285Y-88799800D02*
X64169047Y-88847419D01*
X64169047Y-88847419D02*
X63883333Y-88847419D01*
X63883333Y-88847419D02*
X63788095Y-88799800D01*
X63788095Y-88799800D02*
X63740476Y-88752180D01*
X64930952Y-88275990D02*
X64835714Y-88228371D01*
X64835714Y-88228371D02*
X64788095Y-88180752D01*
X64788095Y-88180752D02*
X64740476Y-88085514D01*
X64740476Y-88085514D02*
X64740476Y-88037895D01*
X64740476Y-88037895D02*
X64788095Y-87942657D01*
X64788095Y-87942657D02*
X64835714Y-87895038D01*
X64835714Y-87895038D02*
X64930952Y-87847419D01*
X64930952Y-87847419D02*
X65121428Y-87847419D01*
X65121428Y-87847419D02*
X65216666Y-87895038D01*
X65216666Y-87895038D02*
X65264285Y-87942657D01*
X65264285Y-87942657D02*
X65311904Y-88037895D01*
X65311904Y-88037895D02*
X65311904Y-88085514D01*
X65311904Y-88085514D02*
X65264285Y-88180752D01*
X65264285Y-88180752D02*
X65216666Y-88228371D01*
X65216666Y-88228371D02*
X65121428Y-88275990D01*
X65121428Y-88275990D02*
X64930952Y-88275990D01*
X64930952Y-88275990D02*
X64835714Y-88323609D01*
X64835714Y-88323609D02*
X64788095Y-88371228D01*
X64788095Y-88371228D02*
X64740476Y-88466466D01*
X64740476Y-88466466D02*
X64740476Y-88656942D01*
X64740476Y-88656942D02*
X64788095Y-88752180D01*
X64788095Y-88752180D02*
X64835714Y-88799800D01*
X64835714Y-88799800D02*
X64930952Y-88847419D01*
X64930952Y-88847419D02*
X65121428Y-88847419D01*
X65121428Y-88847419D02*
X65216666Y-88799800D01*
X65216666Y-88799800D02*
X65264285Y-88752180D01*
X65264285Y-88752180D02*
X65311904Y-88656942D01*
X65311904Y-88656942D02*
X65311904Y-88466466D01*
X65311904Y-88466466D02*
X65264285Y-88371228D01*
X65264285Y-88371228D02*
X65216666Y-88323609D01*
X65216666Y-88323609D02*
X65121428Y-88275990D01*
X106621905Y-103647419D02*
X106621905Y-102647419D01*
X106621905Y-102647419D02*
X106860000Y-102647419D01*
X106860000Y-102647419D02*
X107002857Y-102695038D01*
X107002857Y-102695038D02*
X107098095Y-102790276D01*
X107098095Y-102790276D02*
X107145714Y-102885514D01*
X107145714Y-102885514D02*
X107193333Y-103075990D01*
X107193333Y-103075990D02*
X107193333Y-103218847D01*
X107193333Y-103218847D02*
X107145714Y-103409323D01*
X107145714Y-103409323D02*
X107098095Y-103504561D01*
X107098095Y-103504561D02*
X107002857Y-103599800D01*
X107002857Y-103599800D02*
X106860000Y-103647419D01*
X106860000Y-103647419D02*
X106621905Y-103647419D01*
X108145714Y-103647419D02*
X107574286Y-103647419D01*
X107860000Y-103647419D02*
X107860000Y-102647419D01*
X107860000Y-102647419D02*
X107764762Y-102790276D01*
X107764762Y-102790276D02*
X107669524Y-102885514D01*
X107669524Y-102885514D02*
X107574286Y-102933133D01*
X81413810Y-85537419D02*
X81413810Y-84537419D01*
X82461428Y-85442180D02*
X82413809Y-85489800D01*
X82413809Y-85489800D02*
X82270952Y-85537419D01*
X82270952Y-85537419D02*
X82175714Y-85537419D01*
X82175714Y-85537419D02*
X82032857Y-85489800D01*
X82032857Y-85489800D02*
X81937619Y-85394561D01*
X81937619Y-85394561D02*
X81890000Y-85299323D01*
X81890000Y-85299323D02*
X81842381Y-85108847D01*
X81842381Y-85108847D02*
X81842381Y-84965990D01*
X81842381Y-84965990D02*
X81890000Y-84775514D01*
X81890000Y-84775514D02*
X81937619Y-84680276D01*
X81937619Y-84680276D02*
X82032857Y-84585038D01*
X82032857Y-84585038D02*
X82175714Y-84537419D01*
X82175714Y-84537419D02*
X82270952Y-84537419D01*
X82270952Y-84537419D02*
X82413809Y-84585038D01*
X82413809Y-84585038D02*
X82461428Y-84632657D01*
X82842381Y-84632657D02*
X82890000Y-84585038D01*
X82890000Y-84585038D02*
X82985238Y-84537419D01*
X82985238Y-84537419D02*
X83223333Y-84537419D01*
X83223333Y-84537419D02*
X83318571Y-84585038D01*
X83318571Y-84585038D02*
X83366190Y-84632657D01*
X83366190Y-84632657D02*
X83413809Y-84727895D01*
X83413809Y-84727895D02*
X83413809Y-84823133D01*
X83413809Y-84823133D02*
X83366190Y-84965990D01*
X83366190Y-84965990D02*
X82794762Y-85537419D01*
X82794762Y-85537419D02*
X83413809Y-85537419D01*
X97001666Y-113507419D02*
X97001666Y-114221704D01*
X97001666Y-114221704D02*
X96954047Y-114364561D01*
X96954047Y-114364561D02*
X96858809Y-114459800D01*
X96858809Y-114459800D02*
X96715952Y-114507419D01*
X96715952Y-114507419D02*
X96620714Y-114507419D01*
X97620714Y-113935990D02*
X97525476Y-113888371D01*
X97525476Y-113888371D02*
X97477857Y-113840752D01*
X97477857Y-113840752D02*
X97430238Y-113745514D01*
X97430238Y-113745514D02*
X97430238Y-113697895D01*
X97430238Y-113697895D02*
X97477857Y-113602657D01*
X97477857Y-113602657D02*
X97525476Y-113555038D01*
X97525476Y-113555038D02*
X97620714Y-113507419D01*
X97620714Y-113507419D02*
X97811190Y-113507419D01*
X97811190Y-113507419D02*
X97906428Y-113555038D01*
X97906428Y-113555038D02*
X97954047Y-113602657D01*
X97954047Y-113602657D02*
X98001666Y-113697895D01*
X98001666Y-113697895D02*
X98001666Y-113745514D01*
X98001666Y-113745514D02*
X97954047Y-113840752D01*
X97954047Y-113840752D02*
X97906428Y-113888371D01*
X97906428Y-113888371D02*
X97811190Y-113935990D01*
X97811190Y-113935990D02*
X97620714Y-113935990D01*
X97620714Y-113935990D02*
X97525476Y-113983609D01*
X97525476Y-113983609D02*
X97477857Y-114031228D01*
X97477857Y-114031228D02*
X97430238Y-114126466D01*
X97430238Y-114126466D02*
X97430238Y-114316942D01*
X97430238Y-114316942D02*
X97477857Y-114412180D01*
X97477857Y-114412180D02*
X97525476Y-114459800D01*
X97525476Y-114459800D02*
X97620714Y-114507419D01*
X97620714Y-114507419D02*
X97811190Y-114507419D01*
X97811190Y-114507419D02*
X97906428Y-114459800D01*
X97906428Y-114459800D02*
X97954047Y-114412180D01*
X97954047Y-114412180D02*
X98001666Y-114316942D01*
X98001666Y-114316942D02*
X98001666Y-114126466D01*
X98001666Y-114126466D02*
X97954047Y-114031228D01*
X97954047Y-114031228D02*
X97906428Y-113983609D01*
X97906428Y-113983609D02*
X97811190Y-113935990D01*
X69457142Y-84312180D02*
X69409523Y-84359800D01*
X69409523Y-84359800D02*
X69266666Y-84407419D01*
X69266666Y-84407419D02*
X69171428Y-84407419D01*
X69171428Y-84407419D02*
X69028571Y-84359800D01*
X69028571Y-84359800D02*
X68933333Y-84264561D01*
X68933333Y-84264561D02*
X68885714Y-84169323D01*
X68885714Y-84169323D02*
X68838095Y-83978847D01*
X68838095Y-83978847D02*
X68838095Y-83835990D01*
X68838095Y-83835990D02*
X68885714Y-83645514D01*
X68885714Y-83645514D02*
X68933333Y-83550276D01*
X68933333Y-83550276D02*
X69028571Y-83455038D01*
X69028571Y-83455038D02*
X69171428Y-83407419D01*
X69171428Y-83407419D02*
X69266666Y-83407419D01*
X69266666Y-83407419D02*
X69409523Y-83455038D01*
X69409523Y-83455038D02*
X69457142Y-83502657D01*
X69790476Y-83407419D02*
X70409523Y-83407419D01*
X70409523Y-83407419D02*
X70076190Y-83788371D01*
X70076190Y-83788371D02*
X70219047Y-83788371D01*
X70219047Y-83788371D02*
X70314285Y-83835990D01*
X70314285Y-83835990D02*
X70361904Y-83883609D01*
X70361904Y-83883609D02*
X70409523Y-83978847D01*
X70409523Y-83978847D02*
X70409523Y-84216942D01*
X70409523Y-84216942D02*
X70361904Y-84312180D01*
X70361904Y-84312180D02*
X70314285Y-84359800D01*
X70314285Y-84359800D02*
X70219047Y-84407419D01*
X70219047Y-84407419D02*
X69933333Y-84407419D01*
X69933333Y-84407419D02*
X69838095Y-84359800D01*
X69838095Y-84359800D02*
X69790476Y-84312180D01*
X71028571Y-83407419D02*
X71123809Y-83407419D01*
X71123809Y-83407419D02*
X71219047Y-83455038D01*
X71219047Y-83455038D02*
X71266666Y-83502657D01*
X71266666Y-83502657D02*
X71314285Y-83597895D01*
X71314285Y-83597895D02*
X71361904Y-83788371D01*
X71361904Y-83788371D02*
X71361904Y-84026466D01*
X71361904Y-84026466D02*
X71314285Y-84216942D01*
X71314285Y-84216942D02*
X71266666Y-84312180D01*
X71266666Y-84312180D02*
X71219047Y-84359800D01*
X71219047Y-84359800D02*
X71123809Y-84407419D01*
X71123809Y-84407419D02*
X71028571Y-84407419D01*
X71028571Y-84407419D02*
X70933333Y-84359800D01*
X70933333Y-84359800D02*
X70885714Y-84312180D01*
X70885714Y-84312180D02*
X70838095Y-84216942D01*
X70838095Y-84216942D02*
X70790476Y-84026466D01*
X70790476Y-84026466D02*
X70790476Y-83788371D01*
X70790476Y-83788371D02*
X70838095Y-83597895D01*
X70838095Y-83597895D02*
X70885714Y-83502657D01*
X70885714Y-83502657D02*
X70933333Y-83455038D01*
X70933333Y-83455038D02*
X71028571Y-83407419D01*
X151072180Y-119392857D02*
X151119800Y-119440476D01*
X151119800Y-119440476D02*
X151167419Y-119583333D01*
X151167419Y-119583333D02*
X151167419Y-119678571D01*
X151167419Y-119678571D02*
X151119800Y-119821428D01*
X151119800Y-119821428D02*
X151024561Y-119916666D01*
X151024561Y-119916666D02*
X150929323Y-119964285D01*
X150929323Y-119964285D02*
X150738847Y-120011904D01*
X150738847Y-120011904D02*
X150595990Y-120011904D01*
X150595990Y-120011904D02*
X150405514Y-119964285D01*
X150405514Y-119964285D02*
X150310276Y-119916666D01*
X150310276Y-119916666D02*
X150215038Y-119821428D01*
X150215038Y-119821428D02*
X150167419Y-119678571D01*
X150167419Y-119678571D02*
X150167419Y-119583333D01*
X150167419Y-119583333D02*
X150215038Y-119440476D01*
X150215038Y-119440476D02*
X150262657Y-119392857D01*
X151167419Y-118440476D02*
X151167419Y-119011904D01*
X151167419Y-118726190D02*
X150167419Y-118726190D01*
X150167419Y-118726190D02*
X150310276Y-118821428D01*
X150310276Y-118821428D02*
X150405514Y-118916666D01*
X150405514Y-118916666D02*
X150453133Y-119011904D01*
X151167419Y-117964285D02*
X151167419Y-117773809D01*
X151167419Y-117773809D02*
X151119800Y-117678571D01*
X151119800Y-117678571D02*
X151072180Y-117630952D01*
X151072180Y-117630952D02*
X150929323Y-117535714D01*
X150929323Y-117535714D02*
X150738847Y-117488095D01*
X150738847Y-117488095D02*
X150357895Y-117488095D01*
X150357895Y-117488095D02*
X150262657Y-117535714D01*
X150262657Y-117535714D02*
X150215038Y-117583333D01*
X150215038Y-117583333D02*
X150167419Y-117678571D01*
X150167419Y-117678571D02*
X150167419Y-117869047D01*
X150167419Y-117869047D02*
X150215038Y-117964285D01*
X150215038Y-117964285D02*
X150262657Y-118011904D01*
X150262657Y-118011904D02*
X150357895Y-118059523D01*
X150357895Y-118059523D02*
X150595990Y-118059523D01*
X150595990Y-118059523D02*
X150691228Y-118011904D01*
X150691228Y-118011904D02*
X150738847Y-117964285D01*
X150738847Y-117964285D02*
X150786466Y-117869047D01*
X150786466Y-117869047D02*
X150786466Y-117678571D01*
X150786466Y-117678571D02*
X150738847Y-117583333D01*
X150738847Y-117583333D02*
X150691228Y-117535714D01*
X150691228Y-117535714D02*
X150595990Y-117488095D01*
X64417419Y-92992857D02*
X63941228Y-93326190D01*
X64417419Y-93564285D02*
X63417419Y-93564285D01*
X63417419Y-93564285D02*
X63417419Y-93183333D01*
X63417419Y-93183333D02*
X63465038Y-93088095D01*
X63465038Y-93088095D02*
X63512657Y-93040476D01*
X63512657Y-93040476D02*
X63607895Y-92992857D01*
X63607895Y-92992857D02*
X63750752Y-92992857D01*
X63750752Y-92992857D02*
X63845990Y-93040476D01*
X63845990Y-93040476D02*
X63893609Y-93088095D01*
X63893609Y-93088095D02*
X63941228Y-93183333D01*
X63941228Y-93183333D02*
X63941228Y-93564285D01*
X63512657Y-92611904D02*
X63465038Y-92564285D01*
X63465038Y-92564285D02*
X63417419Y-92469047D01*
X63417419Y-92469047D02*
X63417419Y-92230952D01*
X63417419Y-92230952D02*
X63465038Y-92135714D01*
X63465038Y-92135714D02*
X63512657Y-92088095D01*
X63512657Y-92088095D02*
X63607895Y-92040476D01*
X63607895Y-92040476D02*
X63703133Y-92040476D01*
X63703133Y-92040476D02*
X63845990Y-92088095D01*
X63845990Y-92088095D02*
X64417419Y-92659523D01*
X64417419Y-92659523D02*
X64417419Y-92040476D01*
X63417419Y-91135714D02*
X63417419Y-91611904D01*
X63417419Y-91611904D02*
X63893609Y-91659523D01*
X63893609Y-91659523D02*
X63845990Y-91611904D01*
X63845990Y-91611904D02*
X63798371Y-91516666D01*
X63798371Y-91516666D02*
X63798371Y-91278571D01*
X63798371Y-91278571D02*
X63845990Y-91183333D01*
X63845990Y-91183333D02*
X63893609Y-91135714D01*
X63893609Y-91135714D02*
X63988847Y-91088095D01*
X63988847Y-91088095D02*
X64226942Y-91088095D01*
X64226942Y-91088095D02*
X64322180Y-91135714D01*
X64322180Y-91135714D02*
X64369800Y-91183333D01*
X64369800Y-91183333D02*
X64417419Y-91278571D01*
X64417419Y-91278571D02*
X64417419Y-91516666D01*
X64417419Y-91516666D02*
X64369800Y-91611904D01*
X64369800Y-91611904D02*
X64322180Y-91659523D01*
X100127419Y-81788094D02*
X99127419Y-81788094D01*
X99127419Y-81788094D02*
X99127419Y-81549999D01*
X99127419Y-81549999D02*
X99175038Y-81407142D01*
X99175038Y-81407142D02*
X99270276Y-81311904D01*
X99270276Y-81311904D02*
X99365514Y-81264285D01*
X99365514Y-81264285D02*
X99555990Y-81216666D01*
X99555990Y-81216666D02*
X99698847Y-81216666D01*
X99698847Y-81216666D02*
X99889323Y-81264285D01*
X99889323Y-81264285D02*
X99984561Y-81311904D01*
X99984561Y-81311904D02*
X100079800Y-81407142D01*
X100079800Y-81407142D02*
X100127419Y-81549999D01*
X100127419Y-81549999D02*
X100127419Y-81788094D01*
X99127419Y-80311904D02*
X99127419Y-80788094D01*
X99127419Y-80788094D02*
X99603609Y-80835713D01*
X99603609Y-80835713D02*
X99555990Y-80788094D01*
X99555990Y-80788094D02*
X99508371Y-80692856D01*
X99508371Y-80692856D02*
X99508371Y-80454761D01*
X99508371Y-80454761D02*
X99555990Y-80359523D01*
X99555990Y-80359523D02*
X99603609Y-80311904D01*
X99603609Y-80311904D02*
X99698847Y-80264285D01*
X99698847Y-80264285D02*
X99936942Y-80264285D01*
X99936942Y-80264285D02*
X100032180Y-80311904D01*
X100032180Y-80311904D02*
X100079800Y-80359523D01*
X100079800Y-80359523D02*
X100127419Y-80454761D01*
X100127419Y-80454761D02*
X100127419Y-80692856D01*
X100127419Y-80692856D02*
X100079800Y-80788094D01*
X100079800Y-80788094D02*
X100032180Y-80835713D01*
X72553809Y-102201228D02*
X72553809Y-102677419D01*
X72220476Y-101677419D02*
X72553809Y-102201228D01*
X72553809Y-102201228D02*
X72887142Y-101677419D01*
X73744285Y-102677419D02*
X73172857Y-102677419D01*
X73458571Y-102677419D02*
X73458571Y-101677419D01*
X73458571Y-101677419D02*
X73363333Y-101820276D01*
X73363333Y-101820276D02*
X73268095Y-101915514D01*
X73268095Y-101915514D02*
X73172857Y-101963133D01*
X105601904Y-79693609D02*
X105268571Y-79693609D01*
X105268571Y-80217419D02*
X105268571Y-79217419D01*
X105268571Y-79217419D02*
X105744761Y-79217419D01*
X106601904Y-80217419D02*
X106125714Y-80217419D01*
X106125714Y-80217419D02*
X106125714Y-79217419D01*
X107459047Y-80217419D02*
X106887619Y-80217419D01*
X107173333Y-80217419D02*
X107173333Y-79217419D01*
X107173333Y-79217419D02*
X107078095Y-79360276D01*
X107078095Y-79360276D02*
X106982857Y-79455514D01*
X106982857Y-79455514D02*
X106887619Y-79503133D01*
X65717419Y-92952857D02*
X65241228Y-93286190D01*
X65717419Y-93524285D02*
X64717419Y-93524285D01*
X64717419Y-93524285D02*
X64717419Y-93143333D01*
X64717419Y-93143333D02*
X64765038Y-93048095D01*
X64765038Y-93048095D02*
X64812657Y-93000476D01*
X64812657Y-93000476D02*
X64907895Y-92952857D01*
X64907895Y-92952857D02*
X65050752Y-92952857D01*
X65050752Y-92952857D02*
X65145990Y-93000476D01*
X65145990Y-93000476D02*
X65193609Y-93048095D01*
X65193609Y-93048095D02*
X65241228Y-93143333D01*
X65241228Y-93143333D02*
X65241228Y-93524285D01*
X65717419Y-92000476D02*
X65717419Y-92571904D01*
X65717419Y-92286190D02*
X64717419Y-92286190D01*
X64717419Y-92286190D02*
X64860276Y-92381428D01*
X64860276Y-92381428D02*
X64955514Y-92476666D01*
X64955514Y-92476666D02*
X65003133Y-92571904D01*
X65717419Y-91524285D02*
X65717419Y-91333809D01*
X65717419Y-91333809D02*
X65669800Y-91238571D01*
X65669800Y-91238571D02*
X65622180Y-91190952D01*
X65622180Y-91190952D02*
X65479323Y-91095714D01*
X65479323Y-91095714D02*
X65288847Y-91048095D01*
X65288847Y-91048095D02*
X64907895Y-91048095D01*
X64907895Y-91048095D02*
X64812657Y-91095714D01*
X64812657Y-91095714D02*
X64765038Y-91143333D01*
X64765038Y-91143333D02*
X64717419Y-91238571D01*
X64717419Y-91238571D02*
X64717419Y-91429047D01*
X64717419Y-91429047D02*
X64765038Y-91524285D01*
X64765038Y-91524285D02*
X64812657Y-91571904D01*
X64812657Y-91571904D02*
X64907895Y-91619523D01*
X64907895Y-91619523D02*
X65145990Y-91619523D01*
X65145990Y-91619523D02*
X65241228Y-91571904D01*
X65241228Y-91571904D02*
X65288847Y-91524285D01*
X65288847Y-91524285D02*
X65336466Y-91429047D01*
X65336466Y-91429047D02*
X65336466Y-91238571D01*
X65336466Y-91238571D02*
X65288847Y-91143333D01*
X65288847Y-91143333D02*
X65241228Y-91095714D01*
X65241228Y-91095714D02*
X65145990Y-91048095D01*
X96642180Y-81316666D02*
X96689800Y-81364285D01*
X96689800Y-81364285D02*
X96737419Y-81507142D01*
X96737419Y-81507142D02*
X96737419Y-81602380D01*
X96737419Y-81602380D02*
X96689800Y-81745237D01*
X96689800Y-81745237D02*
X96594561Y-81840475D01*
X96594561Y-81840475D02*
X96499323Y-81888094D01*
X96499323Y-81888094D02*
X96308847Y-81935713D01*
X96308847Y-81935713D02*
X96165990Y-81935713D01*
X96165990Y-81935713D02*
X95975514Y-81888094D01*
X95975514Y-81888094D02*
X95880276Y-81840475D01*
X95880276Y-81840475D02*
X95785038Y-81745237D01*
X95785038Y-81745237D02*
X95737419Y-81602380D01*
X95737419Y-81602380D02*
X95737419Y-81507142D01*
X95737419Y-81507142D02*
X95785038Y-81364285D01*
X95785038Y-81364285D02*
X95832657Y-81316666D01*
X96165990Y-80745237D02*
X96118371Y-80840475D01*
X96118371Y-80840475D02*
X96070752Y-80888094D01*
X96070752Y-80888094D02*
X95975514Y-80935713D01*
X95975514Y-80935713D02*
X95927895Y-80935713D01*
X95927895Y-80935713D02*
X95832657Y-80888094D01*
X95832657Y-80888094D02*
X95785038Y-80840475D01*
X95785038Y-80840475D02*
X95737419Y-80745237D01*
X95737419Y-80745237D02*
X95737419Y-80554761D01*
X95737419Y-80554761D02*
X95785038Y-80459523D01*
X95785038Y-80459523D02*
X95832657Y-80411904D01*
X95832657Y-80411904D02*
X95927895Y-80364285D01*
X95927895Y-80364285D02*
X95975514Y-80364285D01*
X95975514Y-80364285D02*
X96070752Y-80411904D01*
X96070752Y-80411904D02*
X96118371Y-80459523D01*
X96118371Y-80459523D02*
X96165990Y-80554761D01*
X96165990Y-80554761D02*
X96165990Y-80745237D01*
X96165990Y-80745237D02*
X96213609Y-80840475D01*
X96213609Y-80840475D02*
X96261228Y-80888094D01*
X96261228Y-80888094D02*
X96356466Y-80935713D01*
X96356466Y-80935713D02*
X96546942Y-80935713D01*
X96546942Y-80935713D02*
X96642180Y-80888094D01*
X96642180Y-80888094D02*
X96689800Y-80840475D01*
X96689800Y-80840475D02*
X96737419Y-80745237D01*
X96737419Y-80745237D02*
X96737419Y-80554761D01*
X96737419Y-80554761D02*
X96689800Y-80459523D01*
X96689800Y-80459523D02*
X96642180Y-80411904D01*
X96642180Y-80411904D02*
X96546942Y-80364285D01*
X96546942Y-80364285D02*
X96356466Y-80364285D01*
X96356466Y-80364285D02*
X96261228Y-80411904D01*
X96261228Y-80411904D02*
X96213609Y-80459523D01*
X96213609Y-80459523D02*
X96165990Y-80554761D01*
X67492180Y-102912857D02*
X67539800Y-102960476D01*
X67539800Y-102960476D02*
X67587419Y-103103333D01*
X67587419Y-103103333D02*
X67587419Y-103198571D01*
X67587419Y-103198571D02*
X67539800Y-103341428D01*
X67539800Y-103341428D02*
X67444561Y-103436666D01*
X67444561Y-103436666D02*
X67349323Y-103484285D01*
X67349323Y-103484285D02*
X67158847Y-103531904D01*
X67158847Y-103531904D02*
X67015990Y-103531904D01*
X67015990Y-103531904D02*
X66825514Y-103484285D01*
X66825514Y-103484285D02*
X66730276Y-103436666D01*
X66730276Y-103436666D02*
X66635038Y-103341428D01*
X66635038Y-103341428D02*
X66587419Y-103198571D01*
X66587419Y-103198571D02*
X66587419Y-103103333D01*
X66587419Y-103103333D02*
X66635038Y-102960476D01*
X66635038Y-102960476D02*
X66682657Y-102912857D01*
X66682657Y-102531904D02*
X66635038Y-102484285D01*
X66635038Y-102484285D02*
X66587419Y-102389047D01*
X66587419Y-102389047D02*
X66587419Y-102150952D01*
X66587419Y-102150952D02*
X66635038Y-102055714D01*
X66635038Y-102055714D02*
X66682657Y-102008095D01*
X66682657Y-102008095D02*
X66777895Y-101960476D01*
X66777895Y-101960476D02*
X66873133Y-101960476D01*
X66873133Y-101960476D02*
X67015990Y-102008095D01*
X67015990Y-102008095D02*
X67587419Y-102579523D01*
X67587419Y-102579523D02*
X67587419Y-101960476D01*
X67015990Y-101389047D02*
X66968371Y-101484285D01*
X66968371Y-101484285D02*
X66920752Y-101531904D01*
X66920752Y-101531904D02*
X66825514Y-101579523D01*
X66825514Y-101579523D02*
X66777895Y-101579523D01*
X66777895Y-101579523D02*
X66682657Y-101531904D01*
X66682657Y-101531904D02*
X66635038Y-101484285D01*
X66635038Y-101484285D02*
X66587419Y-101389047D01*
X66587419Y-101389047D02*
X66587419Y-101198571D01*
X66587419Y-101198571D02*
X66635038Y-101103333D01*
X66635038Y-101103333D02*
X66682657Y-101055714D01*
X66682657Y-101055714D02*
X66777895Y-101008095D01*
X66777895Y-101008095D02*
X66825514Y-101008095D01*
X66825514Y-101008095D02*
X66920752Y-101055714D01*
X66920752Y-101055714D02*
X66968371Y-101103333D01*
X66968371Y-101103333D02*
X67015990Y-101198571D01*
X67015990Y-101198571D02*
X67015990Y-101389047D01*
X67015990Y-101389047D02*
X67063609Y-101484285D01*
X67063609Y-101484285D02*
X67111228Y-101531904D01*
X67111228Y-101531904D02*
X67206466Y-101579523D01*
X67206466Y-101579523D02*
X67396942Y-101579523D01*
X67396942Y-101579523D02*
X67492180Y-101531904D01*
X67492180Y-101531904D02*
X67539800Y-101484285D01*
X67539800Y-101484285D02*
X67587419Y-101389047D01*
X67587419Y-101389047D02*
X67587419Y-101198571D01*
X67587419Y-101198571D02*
X67539800Y-101103333D01*
X67539800Y-101103333D02*
X67492180Y-101055714D01*
X67492180Y-101055714D02*
X67396942Y-101008095D01*
X67396942Y-101008095D02*
X67206466Y-101008095D01*
X67206466Y-101008095D02*
X67111228Y-101055714D01*
X67111228Y-101055714D02*
X67063609Y-101103333D01*
X67063609Y-101103333D02*
X67015990Y-101198571D01*
X141802180Y-119462857D02*
X141849800Y-119510476D01*
X141849800Y-119510476D02*
X141897419Y-119653333D01*
X141897419Y-119653333D02*
X141897419Y-119748571D01*
X141897419Y-119748571D02*
X141849800Y-119891428D01*
X141849800Y-119891428D02*
X141754561Y-119986666D01*
X141754561Y-119986666D02*
X141659323Y-120034285D01*
X141659323Y-120034285D02*
X141468847Y-120081904D01*
X141468847Y-120081904D02*
X141325990Y-120081904D01*
X141325990Y-120081904D02*
X141135514Y-120034285D01*
X141135514Y-120034285D02*
X141040276Y-119986666D01*
X141040276Y-119986666D02*
X140945038Y-119891428D01*
X140945038Y-119891428D02*
X140897419Y-119748571D01*
X140897419Y-119748571D02*
X140897419Y-119653333D01*
X140897419Y-119653333D02*
X140945038Y-119510476D01*
X140945038Y-119510476D02*
X140992657Y-119462857D01*
X140992657Y-119081904D02*
X140945038Y-119034285D01*
X140945038Y-119034285D02*
X140897419Y-118939047D01*
X140897419Y-118939047D02*
X140897419Y-118700952D01*
X140897419Y-118700952D02*
X140945038Y-118605714D01*
X140945038Y-118605714D02*
X140992657Y-118558095D01*
X140992657Y-118558095D02*
X141087895Y-118510476D01*
X141087895Y-118510476D02*
X141183133Y-118510476D01*
X141183133Y-118510476D02*
X141325990Y-118558095D01*
X141325990Y-118558095D02*
X141897419Y-119129523D01*
X141897419Y-119129523D02*
X141897419Y-118510476D01*
X140897419Y-117653333D02*
X140897419Y-117843809D01*
X140897419Y-117843809D02*
X140945038Y-117939047D01*
X140945038Y-117939047D02*
X140992657Y-117986666D01*
X140992657Y-117986666D02*
X141135514Y-118081904D01*
X141135514Y-118081904D02*
X141325990Y-118129523D01*
X141325990Y-118129523D02*
X141706942Y-118129523D01*
X141706942Y-118129523D02*
X141802180Y-118081904D01*
X141802180Y-118081904D02*
X141849800Y-118034285D01*
X141849800Y-118034285D02*
X141897419Y-117939047D01*
X141897419Y-117939047D02*
X141897419Y-117748571D01*
X141897419Y-117748571D02*
X141849800Y-117653333D01*
X141849800Y-117653333D02*
X141802180Y-117605714D01*
X141802180Y-117605714D02*
X141706942Y-117558095D01*
X141706942Y-117558095D02*
X141468847Y-117558095D01*
X141468847Y-117558095D02*
X141373609Y-117605714D01*
X141373609Y-117605714D02*
X141325990Y-117653333D01*
X141325990Y-117653333D02*
X141278371Y-117748571D01*
X141278371Y-117748571D02*
X141278371Y-117939047D01*
X141278371Y-117939047D02*
X141325990Y-118034285D01*
X141325990Y-118034285D02*
X141373609Y-118081904D01*
X141373609Y-118081904D02*
X141468847Y-118129523D01*
X106631905Y-102067419D02*
X106631905Y-101067419D01*
X106631905Y-101067419D02*
X106870000Y-101067419D01*
X106870000Y-101067419D02*
X107012857Y-101115038D01*
X107012857Y-101115038D02*
X107108095Y-101210276D01*
X107108095Y-101210276D02*
X107155714Y-101305514D01*
X107155714Y-101305514D02*
X107203333Y-101495990D01*
X107203333Y-101495990D02*
X107203333Y-101638847D01*
X107203333Y-101638847D02*
X107155714Y-101829323D01*
X107155714Y-101829323D02*
X107108095Y-101924561D01*
X107108095Y-101924561D02*
X107012857Y-102019800D01*
X107012857Y-102019800D02*
X106870000Y-102067419D01*
X106870000Y-102067419D02*
X106631905Y-102067419D01*
X107584286Y-101162657D02*
X107631905Y-101115038D01*
X107631905Y-101115038D02*
X107727143Y-101067419D01*
X107727143Y-101067419D02*
X107965238Y-101067419D01*
X107965238Y-101067419D02*
X108060476Y-101115038D01*
X108060476Y-101115038D02*
X108108095Y-101162657D01*
X108108095Y-101162657D02*
X108155714Y-101257895D01*
X108155714Y-101257895D02*
X108155714Y-101353133D01*
X108155714Y-101353133D02*
X108108095Y-101495990D01*
X108108095Y-101495990D02*
X107536667Y-102067419D01*
X107536667Y-102067419D02*
X108155714Y-102067419D01*
X152632180Y-119272857D02*
X152679800Y-119320476D01*
X152679800Y-119320476D02*
X152727419Y-119463333D01*
X152727419Y-119463333D02*
X152727419Y-119558571D01*
X152727419Y-119558571D02*
X152679800Y-119701428D01*
X152679800Y-119701428D02*
X152584561Y-119796666D01*
X152584561Y-119796666D02*
X152489323Y-119844285D01*
X152489323Y-119844285D02*
X152298847Y-119891904D01*
X152298847Y-119891904D02*
X152155990Y-119891904D01*
X152155990Y-119891904D02*
X151965514Y-119844285D01*
X151965514Y-119844285D02*
X151870276Y-119796666D01*
X151870276Y-119796666D02*
X151775038Y-119701428D01*
X151775038Y-119701428D02*
X151727419Y-119558571D01*
X151727419Y-119558571D02*
X151727419Y-119463333D01*
X151727419Y-119463333D02*
X151775038Y-119320476D01*
X151775038Y-119320476D02*
X151822657Y-119272857D01*
X151822657Y-118891904D02*
X151775038Y-118844285D01*
X151775038Y-118844285D02*
X151727419Y-118749047D01*
X151727419Y-118749047D02*
X151727419Y-118510952D01*
X151727419Y-118510952D02*
X151775038Y-118415714D01*
X151775038Y-118415714D02*
X151822657Y-118368095D01*
X151822657Y-118368095D02*
X151917895Y-118320476D01*
X151917895Y-118320476D02*
X152013133Y-118320476D01*
X152013133Y-118320476D02*
X152155990Y-118368095D01*
X152155990Y-118368095D02*
X152727419Y-118939523D01*
X152727419Y-118939523D02*
X152727419Y-118320476D01*
X152727419Y-117368095D02*
X152727419Y-117939523D01*
X152727419Y-117653809D02*
X151727419Y-117653809D01*
X151727419Y-117653809D02*
X151870276Y-117749047D01*
X151870276Y-117749047D02*
X151965514Y-117844285D01*
X151965514Y-117844285D02*
X152013133Y-117939523D01*
X74257419Y-110572857D02*
X73781228Y-110906190D01*
X74257419Y-111144285D02*
X73257419Y-111144285D01*
X73257419Y-111144285D02*
X73257419Y-110763333D01*
X73257419Y-110763333D02*
X73305038Y-110668095D01*
X73305038Y-110668095D02*
X73352657Y-110620476D01*
X73352657Y-110620476D02*
X73447895Y-110572857D01*
X73447895Y-110572857D02*
X73590752Y-110572857D01*
X73590752Y-110572857D02*
X73685990Y-110620476D01*
X73685990Y-110620476D02*
X73733609Y-110668095D01*
X73733609Y-110668095D02*
X73781228Y-110763333D01*
X73781228Y-110763333D02*
X73781228Y-111144285D01*
X73590752Y-109715714D02*
X74257419Y-109715714D01*
X73209800Y-109953809D02*
X73924085Y-110191904D01*
X73924085Y-110191904D02*
X73924085Y-109572857D01*
X74257419Y-108668095D02*
X74257419Y-109239523D01*
X74257419Y-108953809D02*
X73257419Y-108953809D01*
X73257419Y-108953809D02*
X73400276Y-109049047D01*
X73400276Y-109049047D02*
X73495514Y-109144285D01*
X73495514Y-109144285D02*
X73543133Y-109239523D01*
X99477142Y-105992180D02*
X99429523Y-106039800D01*
X99429523Y-106039800D02*
X99286666Y-106087419D01*
X99286666Y-106087419D02*
X99191428Y-106087419D01*
X99191428Y-106087419D02*
X99048571Y-106039800D01*
X99048571Y-106039800D02*
X98953333Y-105944561D01*
X98953333Y-105944561D02*
X98905714Y-105849323D01*
X98905714Y-105849323D02*
X98858095Y-105658847D01*
X98858095Y-105658847D02*
X98858095Y-105515990D01*
X98858095Y-105515990D02*
X98905714Y-105325514D01*
X98905714Y-105325514D02*
X98953333Y-105230276D01*
X98953333Y-105230276D02*
X99048571Y-105135038D01*
X99048571Y-105135038D02*
X99191428Y-105087419D01*
X99191428Y-105087419D02*
X99286666Y-105087419D01*
X99286666Y-105087419D02*
X99429523Y-105135038D01*
X99429523Y-105135038D02*
X99477142Y-105182657D01*
X99858095Y-105182657D02*
X99905714Y-105135038D01*
X99905714Y-105135038D02*
X100000952Y-105087419D01*
X100000952Y-105087419D02*
X100239047Y-105087419D01*
X100239047Y-105087419D02*
X100334285Y-105135038D01*
X100334285Y-105135038D02*
X100381904Y-105182657D01*
X100381904Y-105182657D02*
X100429523Y-105277895D01*
X100429523Y-105277895D02*
X100429523Y-105373133D01*
X100429523Y-105373133D02*
X100381904Y-105515990D01*
X100381904Y-105515990D02*
X99810476Y-106087419D01*
X99810476Y-106087419D02*
X100429523Y-106087419D01*
X100762857Y-105087419D02*
X101429523Y-105087419D01*
X101429523Y-105087419D02*
X101000952Y-106087419D01*
X98307419Y-81702857D02*
X97831228Y-82036190D01*
X98307419Y-82274285D02*
X97307419Y-82274285D01*
X97307419Y-82274285D02*
X97307419Y-81893333D01*
X97307419Y-81893333D02*
X97355038Y-81798095D01*
X97355038Y-81798095D02*
X97402657Y-81750476D01*
X97402657Y-81750476D02*
X97497895Y-81702857D01*
X97497895Y-81702857D02*
X97640752Y-81702857D01*
X97640752Y-81702857D02*
X97735990Y-81750476D01*
X97735990Y-81750476D02*
X97783609Y-81798095D01*
X97783609Y-81798095D02*
X97831228Y-81893333D01*
X97831228Y-81893333D02*
X97831228Y-82274285D01*
X98307419Y-80750476D02*
X98307419Y-81321904D01*
X98307419Y-81036190D02*
X97307419Y-81036190D01*
X97307419Y-81036190D02*
X97450276Y-81131428D01*
X97450276Y-81131428D02*
X97545514Y-81226666D01*
X97545514Y-81226666D02*
X97593133Y-81321904D01*
X97640752Y-79893333D02*
X98307419Y-79893333D01*
X97259800Y-80131428D02*
X97974085Y-80369523D01*
X97974085Y-80369523D02*
X97974085Y-79750476D01*
X104437419Y-80502857D02*
X103961228Y-80836190D01*
X104437419Y-81074285D02*
X103437419Y-81074285D01*
X103437419Y-81074285D02*
X103437419Y-80693333D01*
X103437419Y-80693333D02*
X103485038Y-80598095D01*
X103485038Y-80598095D02*
X103532657Y-80550476D01*
X103532657Y-80550476D02*
X103627895Y-80502857D01*
X103627895Y-80502857D02*
X103770752Y-80502857D01*
X103770752Y-80502857D02*
X103865990Y-80550476D01*
X103865990Y-80550476D02*
X103913609Y-80598095D01*
X103913609Y-80598095D02*
X103961228Y-80693333D01*
X103961228Y-80693333D02*
X103961228Y-81074285D01*
X104437419Y-79550476D02*
X104437419Y-80121904D01*
X104437419Y-79836190D02*
X103437419Y-79836190D01*
X103437419Y-79836190D02*
X103580276Y-79931428D01*
X103580276Y-79931428D02*
X103675514Y-80026666D01*
X103675514Y-80026666D02*
X103723133Y-80121904D01*
X103437419Y-78693333D02*
X103437419Y-78883809D01*
X103437419Y-78883809D02*
X103485038Y-78979047D01*
X103485038Y-78979047D02*
X103532657Y-79026666D01*
X103532657Y-79026666D02*
X103675514Y-79121904D01*
X103675514Y-79121904D02*
X103865990Y-79169523D01*
X103865990Y-79169523D02*
X104246942Y-79169523D01*
X104246942Y-79169523D02*
X104342180Y-79121904D01*
X104342180Y-79121904D02*
X104389800Y-79074285D01*
X104389800Y-79074285D02*
X104437419Y-78979047D01*
X104437419Y-78979047D02*
X104437419Y-78788571D01*
X104437419Y-78788571D02*
X104389800Y-78693333D01*
X104389800Y-78693333D02*
X104342180Y-78645714D01*
X104342180Y-78645714D02*
X104246942Y-78598095D01*
X104246942Y-78598095D02*
X104008847Y-78598095D01*
X104008847Y-78598095D02*
X103913609Y-78645714D01*
X103913609Y-78645714D02*
X103865990Y-78693333D01*
X103865990Y-78693333D02*
X103818371Y-78788571D01*
X103818371Y-78788571D02*
X103818371Y-78979047D01*
X103818371Y-78979047D02*
X103865990Y-79074285D01*
X103865990Y-79074285D02*
X103913609Y-79121904D01*
X103913609Y-79121904D02*
X104008847Y-79169523D01*
X65227419Y-102892857D02*
X64751228Y-103226190D01*
X65227419Y-103464285D02*
X64227419Y-103464285D01*
X64227419Y-103464285D02*
X64227419Y-103083333D01*
X64227419Y-103083333D02*
X64275038Y-102988095D01*
X64275038Y-102988095D02*
X64322657Y-102940476D01*
X64322657Y-102940476D02*
X64417895Y-102892857D01*
X64417895Y-102892857D02*
X64560752Y-102892857D01*
X64560752Y-102892857D02*
X64655990Y-102940476D01*
X64655990Y-102940476D02*
X64703609Y-102988095D01*
X64703609Y-102988095D02*
X64751228Y-103083333D01*
X64751228Y-103083333D02*
X64751228Y-103464285D01*
X64322657Y-102511904D02*
X64275038Y-102464285D01*
X64275038Y-102464285D02*
X64227419Y-102369047D01*
X64227419Y-102369047D02*
X64227419Y-102130952D01*
X64227419Y-102130952D02*
X64275038Y-102035714D01*
X64275038Y-102035714D02*
X64322657Y-101988095D01*
X64322657Y-101988095D02*
X64417895Y-101940476D01*
X64417895Y-101940476D02*
X64513133Y-101940476D01*
X64513133Y-101940476D02*
X64655990Y-101988095D01*
X64655990Y-101988095D02*
X65227419Y-102559523D01*
X65227419Y-102559523D02*
X65227419Y-101940476D01*
X64227419Y-101607142D02*
X64227419Y-100988095D01*
X64227419Y-100988095D02*
X64608371Y-101321428D01*
X64608371Y-101321428D02*
X64608371Y-101178571D01*
X64608371Y-101178571D02*
X64655990Y-101083333D01*
X64655990Y-101083333D02*
X64703609Y-101035714D01*
X64703609Y-101035714D02*
X64798847Y-100988095D01*
X64798847Y-100988095D02*
X65036942Y-100988095D01*
X65036942Y-100988095D02*
X65132180Y-101035714D01*
X65132180Y-101035714D02*
X65179800Y-101083333D01*
X65179800Y-101083333D02*
X65227419Y-101178571D01*
X65227419Y-101178571D02*
X65227419Y-101464285D01*
X65227419Y-101464285D02*
X65179800Y-101559523D01*
X65179800Y-101559523D02*
X65132180Y-101607142D01*
X94912180Y-81296666D02*
X94959800Y-81344285D01*
X94959800Y-81344285D02*
X95007419Y-81487142D01*
X95007419Y-81487142D02*
X95007419Y-81582380D01*
X95007419Y-81582380D02*
X94959800Y-81725237D01*
X94959800Y-81725237D02*
X94864561Y-81820475D01*
X94864561Y-81820475D02*
X94769323Y-81868094D01*
X94769323Y-81868094D02*
X94578847Y-81915713D01*
X94578847Y-81915713D02*
X94435990Y-81915713D01*
X94435990Y-81915713D02*
X94245514Y-81868094D01*
X94245514Y-81868094D02*
X94150276Y-81820475D01*
X94150276Y-81820475D02*
X94055038Y-81725237D01*
X94055038Y-81725237D02*
X94007419Y-81582380D01*
X94007419Y-81582380D02*
X94007419Y-81487142D01*
X94007419Y-81487142D02*
X94055038Y-81344285D01*
X94055038Y-81344285D02*
X94102657Y-81296666D01*
X94340752Y-80439523D02*
X95007419Y-80439523D01*
X93959800Y-80677618D02*
X94674085Y-80915713D01*
X94674085Y-80915713D02*
X94674085Y-80296666D01*
X69587142Y-90297419D02*
X69253809Y-89821228D01*
X69015714Y-90297419D02*
X69015714Y-89297419D01*
X69015714Y-89297419D02*
X69396666Y-89297419D01*
X69396666Y-89297419D02*
X69491904Y-89345038D01*
X69491904Y-89345038D02*
X69539523Y-89392657D01*
X69539523Y-89392657D02*
X69587142Y-89487895D01*
X69587142Y-89487895D02*
X69587142Y-89630752D01*
X69587142Y-89630752D02*
X69539523Y-89725990D01*
X69539523Y-89725990D02*
X69491904Y-89773609D01*
X69491904Y-89773609D02*
X69396666Y-89821228D01*
X69396666Y-89821228D02*
X69015714Y-89821228D01*
X69920476Y-89297419D02*
X70539523Y-89297419D01*
X70539523Y-89297419D02*
X70206190Y-89678371D01*
X70206190Y-89678371D02*
X70349047Y-89678371D01*
X70349047Y-89678371D02*
X70444285Y-89725990D01*
X70444285Y-89725990D02*
X70491904Y-89773609D01*
X70491904Y-89773609D02*
X70539523Y-89868847D01*
X70539523Y-89868847D02*
X70539523Y-90106942D01*
X70539523Y-90106942D02*
X70491904Y-90202180D01*
X70491904Y-90202180D02*
X70444285Y-90249800D01*
X70444285Y-90249800D02*
X70349047Y-90297419D01*
X70349047Y-90297419D02*
X70063333Y-90297419D01*
X70063333Y-90297419D02*
X69968095Y-90249800D01*
X69968095Y-90249800D02*
X69920476Y-90202180D01*
X70872857Y-89297419D02*
X71539523Y-89297419D01*
X71539523Y-89297419D02*
X71110952Y-90297419D01*
X124632180Y-119302857D02*
X124679800Y-119350476D01*
X124679800Y-119350476D02*
X124727419Y-119493333D01*
X124727419Y-119493333D02*
X124727419Y-119588571D01*
X124727419Y-119588571D02*
X124679800Y-119731428D01*
X124679800Y-119731428D02*
X124584561Y-119826666D01*
X124584561Y-119826666D02*
X124489323Y-119874285D01*
X124489323Y-119874285D02*
X124298847Y-119921904D01*
X124298847Y-119921904D02*
X124155990Y-119921904D01*
X124155990Y-119921904D02*
X123965514Y-119874285D01*
X123965514Y-119874285D02*
X123870276Y-119826666D01*
X123870276Y-119826666D02*
X123775038Y-119731428D01*
X123775038Y-119731428D02*
X123727419Y-119588571D01*
X123727419Y-119588571D02*
X123727419Y-119493333D01*
X123727419Y-119493333D02*
X123775038Y-119350476D01*
X123775038Y-119350476D02*
X123822657Y-119302857D01*
X124727419Y-118350476D02*
X124727419Y-118921904D01*
X124727419Y-118636190D02*
X123727419Y-118636190D01*
X123727419Y-118636190D02*
X123870276Y-118731428D01*
X123870276Y-118731428D02*
X123965514Y-118826666D01*
X123965514Y-118826666D02*
X124013133Y-118921904D01*
X124155990Y-117779047D02*
X124108371Y-117874285D01*
X124108371Y-117874285D02*
X124060752Y-117921904D01*
X124060752Y-117921904D02*
X123965514Y-117969523D01*
X123965514Y-117969523D02*
X123917895Y-117969523D01*
X123917895Y-117969523D02*
X123822657Y-117921904D01*
X123822657Y-117921904D02*
X123775038Y-117874285D01*
X123775038Y-117874285D02*
X123727419Y-117779047D01*
X123727419Y-117779047D02*
X123727419Y-117588571D01*
X123727419Y-117588571D02*
X123775038Y-117493333D01*
X123775038Y-117493333D02*
X123822657Y-117445714D01*
X123822657Y-117445714D02*
X123917895Y-117398095D01*
X123917895Y-117398095D02*
X123965514Y-117398095D01*
X123965514Y-117398095D02*
X124060752Y-117445714D01*
X124060752Y-117445714D02*
X124108371Y-117493333D01*
X124108371Y-117493333D02*
X124155990Y-117588571D01*
X124155990Y-117588571D02*
X124155990Y-117779047D01*
X124155990Y-117779047D02*
X124203609Y-117874285D01*
X124203609Y-117874285D02*
X124251228Y-117921904D01*
X124251228Y-117921904D02*
X124346466Y-117969523D01*
X124346466Y-117969523D02*
X124536942Y-117969523D01*
X124536942Y-117969523D02*
X124632180Y-117921904D01*
X124632180Y-117921904D02*
X124679800Y-117874285D01*
X124679800Y-117874285D02*
X124727419Y-117779047D01*
X124727419Y-117779047D02*
X124727419Y-117588571D01*
X124727419Y-117588571D02*
X124679800Y-117493333D01*
X124679800Y-117493333D02*
X124632180Y-117445714D01*
X124632180Y-117445714D02*
X124536942Y-117398095D01*
X124536942Y-117398095D02*
X124346466Y-117398095D01*
X124346466Y-117398095D02*
X124251228Y-117445714D01*
X124251228Y-117445714D02*
X124203609Y-117493333D01*
X124203609Y-117493333D02*
X124155990Y-117588571D01*
X66397419Y-103468094D02*
X65397419Y-103468094D01*
X65397419Y-103468094D02*
X65397419Y-103229999D01*
X65397419Y-103229999D02*
X65445038Y-103087142D01*
X65445038Y-103087142D02*
X65540276Y-102991904D01*
X65540276Y-102991904D02*
X65635514Y-102944285D01*
X65635514Y-102944285D02*
X65825990Y-102896666D01*
X65825990Y-102896666D02*
X65968847Y-102896666D01*
X65968847Y-102896666D02*
X66159323Y-102944285D01*
X66159323Y-102944285D02*
X66254561Y-102991904D01*
X66254561Y-102991904D02*
X66349800Y-103087142D01*
X66349800Y-103087142D02*
X66397419Y-103229999D01*
X66397419Y-103229999D02*
X66397419Y-103468094D01*
X65397419Y-102039523D02*
X65397419Y-102229999D01*
X65397419Y-102229999D02*
X65445038Y-102325237D01*
X65445038Y-102325237D02*
X65492657Y-102372856D01*
X65492657Y-102372856D02*
X65635514Y-102468094D01*
X65635514Y-102468094D02*
X65825990Y-102515713D01*
X65825990Y-102515713D02*
X66206942Y-102515713D01*
X66206942Y-102515713D02*
X66302180Y-102468094D01*
X66302180Y-102468094D02*
X66349800Y-102420475D01*
X66349800Y-102420475D02*
X66397419Y-102325237D01*
X66397419Y-102325237D02*
X66397419Y-102134761D01*
X66397419Y-102134761D02*
X66349800Y-102039523D01*
X66349800Y-102039523D02*
X66302180Y-101991904D01*
X66302180Y-101991904D02*
X66206942Y-101944285D01*
X66206942Y-101944285D02*
X65968847Y-101944285D01*
X65968847Y-101944285D02*
X65873609Y-101991904D01*
X65873609Y-101991904D02*
X65825990Y-102039523D01*
X65825990Y-102039523D02*
X65778371Y-102134761D01*
X65778371Y-102134761D02*
X65778371Y-102325237D01*
X65778371Y-102325237D02*
X65825990Y-102420475D01*
X65825990Y-102420475D02*
X65873609Y-102468094D01*
X65873609Y-102468094D02*
X65968847Y-102515713D01*
X89467142Y-97752180D02*
X89419523Y-97799800D01*
X89419523Y-97799800D02*
X89276666Y-97847419D01*
X89276666Y-97847419D02*
X89181428Y-97847419D01*
X89181428Y-97847419D02*
X89038571Y-97799800D01*
X89038571Y-97799800D02*
X88943333Y-97704561D01*
X88943333Y-97704561D02*
X88895714Y-97609323D01*
X88895714Y-97609323D02*
X88848095Y-97418847D01*
X88848095Y-97418847D02*
X88848095Y-97275990D01*
X88848095Y-97275990D02*
X88895714Y-97085514D01*
X88895714Y-97085514D02*
X88943333Y-96990276D01*
X88943333Y-96990276D02*
X89038571Y-96895038D01*
X89038571Y-96895038D02*
X89181428Y-96847419D01*
X89181428Y-96847419D02*
X89276666Y-96847419D01*
X89276666Y-96847419D02*
X89419523Y-96895038D01*
X89419523Y-96895038D02*
X89467142Y-96942657D01*
X90419523Y-97847419D02*
X89848095Y-97847419D01*
X90133809Y-97847419D02*
X90133809Y-96847419D01*
X90133809Y-96847419D02*
X90038571Y-96990276D01*
X90038571Y-96990276D02*
X89943333Y-97085514D01*
X89943333Y-97085514D02*
X89848095Y-97133133D01*
X90752857Y-96847419D02*
X91371904Y-96847419D01*
X91371904Y-96847419D02*
X91038571Y-97228371D01*
X91038571Y-97228371D02*
X91181428Y-97228371D01*
X91181428Y-97228371D02*
X91276666Y-97275990D01*
X91276666Y-97275990D02*
X91324285Y-97323609D01*
X91324285Y-97323609D02*
X91371904Y-97418847D01*
X91371904Y-97418847D02*
X91371904Y-97656942D01*
X91371904Y-97656942D02*
X91324285Y-97752180D01*
X91324285Y-97752180D02*
X91276666Y-97799800D01*
X91276666Y-97799800D02*
X91181428Y-97847419D01*
X91181428Y-97847419D02*
X90895714Y-97847419D01*
X90895714Y-97847419D02*
X90800476Y-97799800D01*
X90800476Y-97799800D02*
X90752857Y-97752180D01*
X140282180Y-119482857D02*
X140329800Y-119530476D01*
X140329800Y-119530476D02*
X140377419Y-119673333D01*
X140377419Y-119673333D02*
X140377419Y-119768571D01*
X140377419Y-119768571D02*
X140329800Y-119911428D01*
X140329800Y-119911428D02*
X140234561Y-120006666D01*
X140234561Y-120006666D02*
X140139323Y-120054285D01*
X140139323Y-120054285D02*
X139948847Y-120101904D01*
X139948847Y-120101904D02*
X139805990Y-120101904D01*
X139805990Y-120101904D02*
X139615514Y-120054285D01*
X139615514Y-120054285D02*
X139520276Y-120006666D01*
X139520276Y-120006666D02*
X139425038Y-119911428D01*
X139425038Y-119911428D02*
X139377419Y-119768571D01*
X139377419Y-119768571D02*
X139377419Y-119673333D01*
X139377419Y-119673333D02*
X139425038Y-119530476D01*
X139425038Y-119530476D02*
X139472657Y-119482857D01*
X139472657Y-119101904D02*
X139425038Y-119054285D01*
X139425038Y-119054285D02*
X139377419Y-118959047D01*
X139377419Y-118959047D02*
X139377419Y-118720952D01*
X139377419Y-118720952D02*
X139425038Y-118625714D01*
X139425038Y-118625714D02*
X139472657Y-118578095D01*
X139472657Y-118578095D02*
X139567895Y-118530476D01*
X139567895Y-118530476D02*
X139663133Y-118530476D01*
X139663133Y-118530476D02*
X139805990Y-118578095D01*
X139805990Y-118578095D02*
X140377419Y-119149523D01*
X140377419Y-119149523D02*
X140377419Y-118530476D01*
X139377419Y-117625714D02*
X139377419Y-118101904D01*
X139377419Y-118101904D02*
X139853609Y-118149523D01*
X139853609Y-118149523D02*
X139805990Y-118101904D01*
X139805990Y-118101904D02*
X139758371Y-118006666D01*
X139758371Y-118006666D02*
X139758371Y-117768571D01*
X139758371Y-117768571D02*
X139805990Y-117673333D01*
X139805990Y-117673333D02*
X139853609Y-117625714D01*
X139853609Y-117625714D02*
X139948847Y-117578095D01*
X139948847Y-117578095D02*
X140186942Y-117578095D01*
X140186942Y-117578095D02*
X140282180Y-117625714D01*
X140282180Y-117625714D02*
X140329800Y-117673333D01*
X140329800Y-117673333D02*
X140377419Y-117768571D01*
X140377419Y-117768571D02*
X140377419Y-118006666D01*
X140377419Y-118006666D02*
X140329800Y-118101904D01*
X140329800Y-118101904D02*
X140282180Y-118149523D01*
X125972180Y-119222857D02*
X126019800Y-119270476D01*
X126019800Y-119270476D02*
X126067419Y-119413333D01*
X126067419Y-119413333D02*
X126067419Y-119508571D01*
X126067419Y-119508571D02*
X126019800Y-119651428D01*
X126019800Y-119651428D02*
X125924561Y-119746666D01*
X125924561Y-119746666D02*
X125829323Y-119794285D01*
X125829323Y-119794285D02*
X125638847Y-119841904D01*
X125638847Y-119841904D02*
X125495990Y-119841904D01*
X125495990Y-119841904D02*
X125305514Y-119794285D01*
X125305514Y-119794285D02*
X125210276Y-119746666D01*
X125210276Y-119746666D02*
X125115038Y-119651428D01*
X125115038Y-119651428D02*
X125067419Y-119508571D01*
X125067419Y-119508571D02*
X125067419Y-119413333D01*
X125067419Y-119413333D02*
X125115038Y-119270476D01*
X125115038Y-119270476D02*
X125162657Y-119222857D01*
X125162657Y-118841904D02*
X125115038Y-118794285D01*
X125115038Y-118794285D02*
X125067419Y-118699047D01*
X125067419Y-118699047D02*
X125067419Y-118460952D01*
X125067419Y-118460952D02*
X125115038Y-118365714D01*
X125115038Y-118365714D02*
X125162657Y-118318095D01*
X125162657Y-118318095D02*
X125257895Y-118270476D01*
X125257895Y-118270476D02*
X125353133Y-118270476D01*
X125353133Y-118270476D02*
X125495990Y-118318095D01*
X125495990Y-118318095D02*
X126067419Y-118889523D01*
X126067419Y-118889523D02*
X126067419Y-118270476D01*
X125067419Y-117651428D02*
X125067419Y-117556190D01*
X125067419Y-117556190D02*
X125115038Y-117460952D01*
X125115038Y-117460952D02*
X125162657Y-117413333D01*
X125162657Y-117413333D02*
X125257895Y-117365714D01*
X125257895Y-117365714D02*
X125448371Y-117318095D01*
X125448371Y-117318095D02*
X125686466Y-117318095D01*
X125686466Y-117318095D02*
X125876942Y-117365714D01*
X125876942Y-117365714D02*
X125972180Y-117413333D01*
X125972180Y-117413333D02*
X126019800Y-117460952D01*
X126019800Y-117460952D02*
X126067419Y-117556190D01*
X126067419Y-117556190D02*
X126067419Y-117651428D01*
X126067419Y-117651428D02*
X126019800Y-117746666D01*
X126019800Y-117746666D02*
X125972180Y-117794285D01*
X125972180Y-117794285D02*
X125876942Y-117841904D01*
X125876942Y-117841904D02*
X125686466Y-117889523D01*
X125686466Y-117889523D02*
X125448371Y-117889523D01*
X125448371Y-117889523D02*
X125257895Y-117841904D01*
X125257895Y-117841904D02*
X125162657Y-117794285D01*
X125162657Y-117794285D02*
X125115038Y-117746666D01*
X125115038Y-117746666D02*
X125067419Y-117651428D01*
X63117419Y-93012857D02*
X62641228Y-93346190D01*
X63117419Y-93584285D02*
X62117419Y-93584285D01*
X62117419Y-93584285D02*
X62117419Y-93203333D01*
X62117419Y-93203333D02*
X62165038Y-93108095D01*
X62165038Y-93108095D02*
X62212657Y-93060476D01*
X62212657Y-93060476D02*
X62307895Y-93012857D01*
X62307895Y-93012857D02*
X62450752Y-93012857D01*
X62450752Y-93012857D02*
X62545990Y-93060476D01*
X62545990Y-93060476D02*
X62593609Y-93108095D01*
X62593609Y-93108095D02*
X62641228Y-93203333D01*
X62641228Y-93203333D02*
X62641228Y-93584285D01*
X62212657Y-92631904D02*
X62165038Y-92584285D01*
X62165038Y-92584285D02*
X62117419Y-92489047D01*
X62117419Y-92489047D02*
X62117419Y-92250952D01*
X62117419Y-92250952D02*
X62165038Y-92155714D01*
X62165038Y-92155714D02*
X62212657Y-92108095D01*
X62212657Y-92108095D02*
X62307895Y-92060476D01*
X62307895Y-92060476D02*
X62403133Y-92060476D01*
X62403133Y-92060476D02*
X62545990Y-92108095D01*
X62545990Y-92108095D02*
X63117419Y-92679523D01*
X63117419Y-92679523D02*
X63117419Y-92060476D01*
X63117419Y-91584285D02*
X63117419Y-91393809D01*
X63117419Y-91393809D02*
X63069800Y-91298571D01*
X63069800Y-91298571D02*
X63022180Y-91250952D01*
X63022180Y-91250952D02*
X62879323Y-91155714D01*
X62879323Y-91155714D02*
X62688847Y-91108095D01*
X62688847Y-91108095D02*
X62307895Y-91108095D01*
X62307895Y-91108095D02*
X62212657Y-91155714D01*
X62212657Y-91155714D02*
X62165038Y-91203333D01*
X62165038Y-91203333D02*
X62117419Y-91298571D01*
X62117419Y-91298571D02*
X62117419Y-91489047D01*
X62117419Y-91489047D02*
X62165038Y-91584285D01*
X62165038Y-91584285D02*
X62212657Y-91631904D01*
X62212657Y-91631904D02*
X62307895Y-91679523D01*
X62307895Y-91679523D02*
X62545990Y-91679523D01*
X62545990Y-91679523D02*
X62641228Y-91631904D01*
X62641228Y-91631904D02*
X62688847Y-91584285D01*
X62688847Y-91584285D02*
X62736466Y-91489047D01*
X62736466Y-91489047D02*
X62736466Y-91298571D01*
X62736466Y-91298571D02*
X62688847Y-91203333D01*
X62688847Y-91203333D02*
X62641228Y-91155714D01*
X62641228Y-91155714D02*
X62545990Y-91108095D01*
X95693333Y-99802180D02*
X95645714Y-99849800D01*
X95645714Y-99849800D02*
X95502857Y-99897419D01*
X95502857Y-99897419D02*
X95407619Y-99897419D01*
X95407619Y-99897419D02*
X95264762Y-99849800D01*
X95264762Y-99849800D02*
X95169524Y-99754561D01*
X95169524Y-99754561D02*
X95121905Y-99659323D01*
X95121905Y-99659323D02*
X95074286Y-99468847D01*
X95074286Y-99468847D02*
X95074286Y-99325990D01*
X95074286Y-99325990D02*
X95121905Y-99135514D01*
X95121905Y-99135514D02*
X95169524Y-99040276D01*
X95169524Y-99040276D02*
X95264762Y-98945038D01*
X95264762Y-98945038D02*
X95407619Y-98897419D01*
X95407619Y-98897419D02*
X95502857Y-98897419D01*
X95502857Y-98897419D02*
X95645714Y-98945038D01*
X95645714Y-98945038D02*
X95693333Y-98992657D01*
X96074286Y-98992657D02*
X96121905Y-98945038D01*
X96121905Y-98945038D02*
X96217143Y-98897419D01*
X96217143Y-98897419D02*
X96455238Y-98897419D01*
X96455238Y-98897419D02*
X96550476Y-98945038D01*
X96550476Y-98945038D02*
X96598095Y-98992657D01*
X96598095Y-98992657D02*
X96645714Y-99087895D01*
X96645714Y-99087895D02*
X96645714Y-99183133D01*
X96645714Y-99183133D02*
X96598095Y-99325990D01*
X96598095Y-99325990D02*
X96026667Y-99897419D01*
X96026667Y-99897419D02*
X96645714Y-99897419D01*
X106513333Y-100192180D02*
X106465714Y-100239800D01*
X106465714Y-100239800D02*
X106322857Y-100287419D01*
X106322857Y-100287419D02*
X106227619Y-100287419D01*
X106227619Y-100287419D02*
X106084762Y-100239800D01*
X106084762Y-100239800D02*
X105989524Y-100144561D01*
X105989524Y-100144561D02*
X105941905Y-100049323D01*
X105941905Y-100049323D02*
X105894286Y-99858847D01*
X105894286Y-99858847D02*
X105894286Y-99715990D01*
X105894286Y-99715990D02*
X105941905Y-99525514D01*
X105941905Y-99525514D02*
X105989524Y-99430276D01*
X105989524Y-99430276D02*
X106084762Y-99335038D01*
X106084762Y-99335038D02*
X106227619Y-99287419D01*
X106227619Y-99287419D02*
X106322857Y-99287419D01*
X106322857Y-99287419D02*
X106465714Y-99335038D01*
X106465714Y-99335038D02*
X106513333Y-99382657D01*
X106846667Y-99287419D02*
X107513333Y-99287419D01*
X107513333Y-99287419D02*
X107084762Y-100287419D01*
X61447419Y-102842857D02*
X60971228Y-103176190D01*
X61447419Y-103414285D02*
X60447419Y-103414285D01*
X60447419Y-103414285D02*
X60447419Y-103033333D01*
X60447419Y-103033333D02*
X60495038Y-102938095D01*
X60495038Y-102938095D02*
X60542657Y-102890476D01*
X60542657Y-102890476D02*
X60637895Y-102842857D01*
X60637895Y-102842857D02*
X60780752Y-102842857D01*
X60780752Y-102842857D02*
X60875990Y-102890476D01*
X60875990Y-102890476D02*
X60923609Y-102938095D01*
X60923609Y-102938095D02*
X60971228Y-103033333D01*
X60971228Y-103033333D02*
X60971228Y-103414285D01*
X60447419Y-102509523D02*
X60447419Y-101890476D01*
X60447419Y-101890476D02*
X60828371Y-102223809D01*
X60828371Y-102223809D02*
X60828371Y-102080952D01*
X60828371Y-102080952D02*
X60875990Y-101985714D01*
X60875990Y-101985714D02*
X60923609Y-101938095D01*
X60923609Y-101938095D02*
X61018847Y-101890476D01*
X61018847Y-101890476D02*
X61256942Y-101890476D01*
X61256942Y-101890476D02*
X61352180Y-101938095D01*
X61352180Y-101938095D02*
X61399800Y-101985714D01*
X61399800Y-101985714D02*
X61447419Y-102080952D01*
X61447419Y-102080952D02*
X61447419Y-102366666D01*
X61447419Y-102366666D02*
X61399800Y-102461904D01*
X61399800Y-102461904D02*
X61352180Y-102509523D01*
X60447419Y-100985714D02*
X60447419Y-101461904D01*
X60447419Y-101461904D02*
X60923609Y-101509523D01*
X60923609Y-101509523D02*
X60875990Y-101461904D01*
X60875990Y-101461904D02*
X60828371Y-101366666D01*
X60828371Y-101366666D02*
X60828371Y-101128571D01*
X60828371Y-101128571D02*
X60875990Y-101033333D01*
X60875990Y-101033333D02*
X60923609Y-100985714D01*
X60923609Y-100985714D02*
X61018847Y-100938095D01*
X61018847Y-100938095D02*
X61256942Y-100938095D01*
X61256942Y-100938095D02*
X61352180Y-100985714D01*
X61352180Y-100985714D02*
X61399800Y-101033333D01*
X61399800Y-101033333D02*
X61447419Y-101128571D01*
X61447419Y-101128571D02*
X61447419Y-101366666D01*
X61447419Y-101366666D02*
X61399800Y-101461904D01*
X61399800Y-101461904D02*
X61352180Y-101509523D01*
X106067419Y-110452857D02*
X105591228Y-110786190D01*
X106067419Y-111024285D02*
X105067419Y-111024285D01*
X105067419Y-111024285D02*
X105067419Y-110643333D01*
X105067419Y-110643333D02*
X105115038Y-110548095D01*
X105115038Y-110548095D02*
X105162657Y-110500476D01*
X105162657Y-110500476D02*
X105257895Y-110452857D01*
X105257895Y-110452857D02*
X105400752Y-110452857D01*
X105400752Y-110452857D02*
X105495990Y-110500476D01*
X105495990Y-110500476D02*
X105543609Y-110548095D01*
X105543609Y-110548095D02*
X105591228Y-110643333D01*
X105591228Y-110643333D02*
X105591228Y-111024285D01*
X105162657Y-110071904D02*
X105115038Y-110024285D01*
X105115038Y-110024285D02*
X105067419Y-109929047D01*
X105067419Y-109929047D02*
X105067419Y-109690952D01*
X105067419Y-109690952D02*
X105115038Y-109595714D01*
X105115038Y-109595714D02*
X105162657Y-109548095D01*
X105162657Y-109548095D02*
X105257895Y-109500476D01*
X105257895Y-109500476D02*
X105353133Y-109500476D01*
X105353133Y-109500476D02*
X105495990Y-109548095D01*
X105495990Y-109548095D02*
X106067419Y-110119523D01*
X106067419Y-110119523D02*
X106067419Y-109500476D01*
X105067419Y-108881428D02*
X105067419Y-108786190D01*
X105067419Y-108786190D02*
X105115038Y-108690952D01*
X105115038Y-108690952D02*
X105162657Y-108643333D01*
X105162657Y-108643333D02*
X105257895Y-108595714D01*
X105257895Y-108595714D02*
X105448371Y-108548095D01*
X105448371Y-108548095D02*
X105686466Y-108548095D01*
X105686466Y-108548095D02*
X105876942Y-108595714D01*
X105876942Y-108595714D02*
X105972180Y-108643333D01*
X105972180Y-108643333D02*
X106019800Y-108690952D01*
X106019800Y-108690952D02*
X106067419Y-108786190D01*
X106067419Y-108786190D02*
X106067419Y-108881428D01*
X106067419Y-108881428D02*
X106019800Y-108976666D01*
X106019800Y-108976666D02*
X105972180Y-109024285D01*
X105972180Y-109024285D02*
X105876942Y-109071904D01*
X105876942Y-109071904D02*
X105686466Y-109119523D01*
X105686466Y-109119523D02*
X105448371Y-109119523D01*
X105448371Y-109119523D02*
X105257895Y-109071904D01*
X105257895Y-109071904D02*
X105162657Y-109024285D01*
X105162657Y-109024285D02*
X105115038Y-108976666D01*
X105115038Y-108976666D02*
X105067419Y-108881428D01*
X90387419Y-81682857D02*
X89911228Y-82016190D01*
X90387419Y-82254285D02*
X89387419Y-82254285D01*
X89387419Y-82254285D02*
X89387419Y-81873333D01*
X89387419Y-81873333D02*
X89435038Y-81778095D01*
X89435038Y-81778095D02*
X89482657Y-81730476D01*
X89482657Y-81730476D02*
X89577895Y-81682857D01*
X89577895Y-81682857D02*
X89720752Y-81682857D01*
X89720752Y-81682857D02*
X89815990Y-81730476D01*
X89815990Y-81730476D02*
X89863609Y-81778095D01*
X89863609Y-81778095D02*
X89911228Y-81873333D01*
X89911228Y-81873333D02*
X89911228Y-82254285D01*
X90387419Y-80730476D02*
X90387419Y-81301904D01*
X90387419Y-81016190D02*
X89387419Y-81016190D01*
X89387419Y-81016190D02*
X89530276Y-81111428D01*
X89530276Y-81111428D02*
X89625514Y-81206666D01*
X89625514Y-81206666D02*
X89673133Y-81301904D01*
X90387419Y-79778095D02*
X90387419Y-80349523D01*
X90387419Y-80063809D02*
X89387419Y-80063809D01*
X89387419Y-80063809D02*
X89530276Y-80159047D01*
X89530276Y-80159047D02*
X89625514Y-80254285D01*
X89625514Y-80254285D02*
X89673133Y-80349523D01*
X66477142Y-87287419D02*
X66143809Y-86811228D01*
X65905714Y-87287419D02*
X65905714Y-86287419D01*
X65905714Y-86287419D02*
X66286666Y-86287419D01*
X66286666Y-86287419D02*
X66381904Y-86335038D01*
X66381904Y-86335038D02*
X66429523Y-86382657D01*
X66429523Y-86382657D02*
X66477142Y-86477895D01*
X66477142Y-86477895D02*
X66477142Y-86620752D01*
X66477142Y-86620752D02*
X66429523Y-86715990D01*
X66429523Y-86715990D02*
X66381904Y-86763609D01*
X66381904Y-86763609D02*
X66286666Y-86811228D01*
X66286666Y-86811228D02*
X65905714Y-86811228D01*
X67334285Y-86620752D02*
X67334285Y-87287419D01*
X67096190Y-86239800D02*
X66858095Y-86954085D01*
X66858095Y-86954085D02*
X67477142Y-86954085D01*
X68048571Y-86287419D02*
X68143809Y-86287419D01*
X68143809Y-86287419D02*
X68239047Y-86335038D01*
X68239047Y-86335038D02*
X68286666Y-86382657D01*
X68286666Y-86382657D02*
X68334285Y-86477895D01*
X68334285Y-86477895D02*
X68381904Y-86668371D01*
X68381904Y-86668371D02*
X68381904Y-86906466D01*
X68381904Y-86906466D02*
X68334285Y-87096942D01*
X68334285Y-87096942D02*
X68286666Y-87192180D01*
X68286666Y-87192180D02*
X68239047Y-87239800D01*
X68239047Y-87239800D02*
X68143809Y-87287419D01*
X68143809Y-87287419D02*
X68048571Y-87287419D01*
X68048571Y-87287419D02*
X67953333Y-87239800D01*
X67953333Y-87239800D02*
X67905714Y-87192180D01*
X67905714Y-87192180D02*
X67858095Y-87096942D01*
X67858095Y-87096942D02*
X67810476Y-86906466D01*
X67810476Y-86906466D02*
X67810476Y-86668371D01*
X67810476Y-86668371D02*
X67858095Y-86477895D01*
X67858095Y-86477895D02*
X67905714Y-86382657D01*
X67905714Y-86382657D02*
X67953333Y-86335038D01*
X67953333Y-86335038D02*
X68048571Y-86287419D01*
X150728095Y-77467419D02*
X150728095Y-78276942D01*
X150728095Y-78276942D02*
X150775714Y-78372180D01*
X150775714Y-78372180D02*
X150823333Y-78419800D01*
X150823333Y-78419800D02*
X150918571Y-78467419D01*
X150918571Y-78467419D02*
X151109047Y-78467419D01*
X151109047Y-78467419D02*
X151204285Y-78419800D01*
X151204285Y-78419800D02*
X151251904Y-78372180D01*
X151251904Y-78372180D02*
X151299523Y-78276942D01*
X151299523Y-78276942D02*
X151299523Y-77467419D01*
X151728095Y-77562657D02*
X151775714Y-77515038D01*
X151775714Y-77515038D02*
X151870952Y-77467419D01*
X151870952Y-77467419D02*
X152109047Y-77467419D01*
X152109047Y-77467419D02*
X152204285Y-77515038D01*
X152204285Y-77515038D02*
X152251904Y-77562657D01*
X152251904Y-77562657D02*
X152299523Y-77657895D01*
X152299523Y-77657895D02*
X152299523Y-77753133D01*
X152299523Y-77753133D02*
X152251904Y-77895990D01*
X152251904Y-77895990D02*
X151680476Y-78467419D01*
X151680476Y-78467419D02*
X152299523Y-78467419D01*
D14*
X135334949Y-75477000D02*
X135477806Y-75524619D01*
X135477806Y-75524619D02*
X135715901Y-75524619D01*
X135715901Y-75524619D02*
X135811139Y-75477000D01*
X135811139Y-75477000D02*
X135858758Y-75429380D01*
X135858758Y-75429380D02*
X135906377Y-75334142D01*
X135906377Y-75334142D02*
X135906377Y-75238904D01*
X135906377Y-75238904D02*
X135858758Y-75143666D01*
X135858758Y-75143666D02*
X135811139Y-75096047D01*
X135811139Y-75096047D02*
X135715901Y-75048428D01*
X135715901Y-75048428D02*
X135525425Y-75000809D01*
X135525425Y-75000809D02*
X135430187Y-74953190D01*
X135430187Y-74953190D02*
X135382568Y-74905571D01*
X135382568Y-74905571D02*
X135334949Y-74810333D01*
X135334949Y-74810333D02*
X135334949Y-74715095D01*
X135334949Y-74715095D02*
X135382568Y-74619857D01*
X135382568Y-74619857D02*
X135430187Y-74572238D01*
X135430187Y-74572238D02*
X135525425Y-74524619D01*
X135525425Y-74524619D02*
X135763520Y-74524619D01*
X135763520Y-74524619D02*
X135906377Y-74572238D01*
X136334949Y-75524619D02*
X136334949Y-74857952D01*
X136334949Y-74953190D02*
X136382568Y-74905571D01*
X136382568Y-74905571D02*
X136477806Y-74857952D01*
X136477806Y-74857952D02*
X136620663Y-74857952D01*
X136620663Y-74857952D02*
X136715901Y-74905571D01*
X136715901Y-74905571D02*
X136763520Y-75000809D01*
X136763520Y-75000809D02*
X136763520Y-75524619D01*
X136763520Y-75000809D02*
X136811139Y-74905571D01*
X136811139Y-74905571D02*
X136906377Y-74857952D01*
X136906377Y-74857952D02*
X137049234Y-74857952D01*
X137049234Y-74857952D02*
X137144473Y-74905571D01*
X137144473Y-74905571D02*
X137192092Y-75000809D01*
X137192092Y-75000809D02*
X137192092Y-75524619D01*
X138096853Y-75524619D02*
X138096853Y-75000809D01*
X138096853Y-75000809D02*
X138049234Y-74905571D01*
X138049234Y-74905571D02*
X137953996Y-74857952D01*
X137953996Y-74857952D02*
X137763520Y-74857952D01*
X137763520Y-74857952D02*
X137668282Y-74905571D01*
X138096853Y-75477000D02*
X138001615Y-75524619D01*
X138001615Y-75524619D02*
X137763520Y-75524619D01*
X137763520Y-75524619D02*
X137668282Y-75477000D01*
X137668282Y-75477000D02*
X137620663Y-75381761D01*
X137620663Y-75381761D02*
X137620663Y-75286523D01*
X137620663Y-75286523D02*
X137668282Y-75191285D01*
X137668282Y-75191285D02*
X137763520Y-75143666D01*
X137763520Y-75143666D02*
X138001615Y-75143666D01*
X138001615Y-75143666D02*
X138096853Y-75096047D01*
X138573044Y-75524619D02*
X138573044Y-74857952D01*
X138573044Y-75048428D02*
X138620663Y-74953190D01*
X138620663Y-74953190D02*
X138668282Y-74905571D01*
X138668282Y-74905571D02*
X138763520Y-74857952D01*
X138763520Y-74857952D02*
X138858758Y-74857952D01*
X139049235Y-74857952D02*
X139430187Y-74857952D01*
X139192092Y-74524619D02*
X139192092Y-75381761D01*
X139192092Y-75381761D02*
X139239711Y-75477000D01*
X139239711Y-75477000D02*
X139334949Y-75524619D01*
X139334949Y-75524619D02*
X139430187Y-75524619D01*
X139763521Y-75000809D02*
X140096854Y-75000809D01*
X140239711Y-75524619D02*
X139763521Y-75524619D01*
X139763521Y-75524619D02*
X139763521Y-74524619D01*
X139763521Y-74524619D02*
X140239711Y-74524619D01*
X141096854Y-74857952D02*
X141096854Y-75857952D01*
X141096854Y-75477000D02*
X141001616Y-75524619D01*
X141001616Y-75524619D02*
X140811140Y-75524619D01*
X140811140Y-75524619D02*
X140715902Y-75477000D01*
X140715902Y-75477000D02*
X140668283Y-75429380D01*
X140668283Y-75429380D02*
X140620664Y-75334142D01*
X140620664Y-75334142D02*
X140620664Y-75048428D01*
X140620664Y-75048428D02*
X140668283Y-74953190D01*
X140668283Y-74953190D02*
X140715902Y-74905571D01*
X140715902Y-74905571D02*
X140811140Y-74857952D01*
X140811140Y-74857952D02*
X141001616Y-74857952D01*
X141001616Y-74857952D02*
X141096854Y-74905571D01*
X142668283Y-75000809D02*
X142811140Y-75048428D01*
X142811140Y-75048428D02*
X142858759Y-75096047D01*
X142858759Y-75096047D02*
X142906378Y-75191285D01*
X142906378Y-75191285D02*
X142906378Y-75334142D01*
X142906378Y-75334142D02*
X142858759Y-75429380D01*
X142858759Y-75429380D02*
X142811140Y-75477000D01*
X142811140Y-75477000D02*
X142715902Y-75524619D01*
X142715902Y-75524619D02*
X142334950Y-75524619D01*
X142334950Y-75524619D02*
X142334950Y-74524619D01*
X142334950Y-74524619D02*
X142668283Y-74524619D01*
X142668283Y-74524619D02*
X142763521Y-74572238D01*
X142763521Y-74572238D02*
X142811140Y-74619857D01*
X142811140Y-74619857D02*
X142858759Y-74715095D01*
X142858759Y-74715095D02*
X142858759Y-74810333D01*
X142858759Y-74810333D02*
X142811140Y-74905571D01*
X142811140Y-74905571D02*
X142763521Y-74953190D01*
X142763521Y-74953190D02*
X142668283Y-75000809D01*
X142668283Y-75000809D02*
X142334950Y-75000809D01*
X143334950Y-75524619D02*
X143334950Y-74857952D01*
X143334950Y-74524619D02*
X143287331Y-74572238D01*
X143287331Y-74572238D02*
X143334950Y-74619857D01*
X143334950Y-74619857D02*
X143382569Y-74572238D01*
X143382569Y-74572238D02*
X143334950Y-74524619D01*
X143334950Y-74524619D02*
X143334950Y-74619857D01*
X143953997Y-75524619D02*
X143858759Y-75477000D01*
X143858759Y-75477000D02*
X143811140Y-75381761D01*
X143811140Y-75381761D02*
X143811140Y-74524619D01*
X144334950Y-75524619D02*
X144334950Y-74857952D01*
X144334950Y-74524619D02*
X144287331Y-74572238D01*
X144287331Y-74572238D02*
X144334950Y-74619857D01*
X144334950Y-74619857D02*
X144382569Y-74572238D01*
X144382569Y-74572238D02*
X144334950Y-74524619D01*
X144334950Y-74524619D02*
X144334950Y-74619857D01*
X144763521Y-75477000D02*
X144858759Y-75524619D01*
X144858759Y-75524619D02*
X145049235Y-75524619D01*
X145049235Y-75524619D02*
X145144473Y-75477000D01*
X145144473Y-75477000D02*
X145192092Y-75381761D01*
X145192092Y-75381761D02*
X145192092Y-75334142D01*
X145192092Y-75334142D02*
X145144473Y-75238904D01*
X145144473Y-75238904D02*
X145049235Y-75191285D01*
X145049235Y-75191285D02*
X144906378Y-75191285D01*
X144906378Y-75191285D02*
X144811140Y-75143666D01*
X144811140Y-75143666D02*
X144763521Y-75048428D01*
X144763521Y-75048428D02*
X144763521Y-75000809D01*
X144763521Y-75000809D02*
X144811140Y-74905571D01*
X144811140Y-74905571D02*
X144906378Y-74857952D01*
X144906378Y-74857952D02*
X145049235Y-74857952D01*
X145049235Y-74857952D02*
X145144473Y-74905571D01*
X145620664Y-75524619D02*
X145620664Y-74857952D01*
X145620664Y-74524619D02*
X145573045Y-74572238D01*
X145573045Y-74572238D02*
X145620664Y-74619857D01*
X145620664Y-74619857D02*
X145668283Y-74572238D01*
X145668283Y-74572238D02*
X145620664Y-74524619D01*
X145620664Y-74524619D02*
X145620664Y-74619857D01*
X146096854Y-75524619D02*
X146096854Y-74857952D01*
X146096854Y-74953190D02*
X146144473Y-74905571D01*
X146144473Y-74905571D02*
X146239711Y-74857952D01*
X146239711Y-74857952D02*
X146382568Y-74857952D01*
X146382568Y-74857952D02*
X146477806Y-74905571D01*
X146477806Y-74905571D02*
X146525425Y-75000809D01*
X146525425Y-75000809D02*
X146525425Y-75524619D01*
X146525425Y-75000809D02*
X146573044Y-74905571D01*
X146573044Y-74905571D02*
X146668282Y-74857952D01*
X146668282Y-74857952D02*
X146811139Y-74857952D01*
X146811139Y-74857952D02*
X146906378Y-74905571D01*
X146906378Y-74905571D02*
X146953997Y-75000809D01*
X146953997Y-75000809D02*
X146953997Y-75524619D01*
D13*
X127522180Y-119272857D02*
X127569800Y-119320476D01*
X127569800Y-119320476D02*
X127617419Y-119463333D01*
X127617419Y-119463333D02*
X127617419Y-119558571D01*
X127617419Y-119558571D02*
X127569800Y-119701428D01*
X127569800Y-119701428D02*
X127474561Y-119796666D01*
X127474561Y-119796666D02*
X127379323Y-119844285D01*
X127379323Y-119844285D02*
X127188847Y-119891904D01*
X127188847Y-119891904D02*
X127045990Y-119891904D01*
X127045990Y-119891904D02*
X126855514Y-119844285D01*
X126855514Y-119844285D02*
X126760276Y-119796666D01*
X126760276Y-119796666D02*
X126665038Y-119701428D01*
X126665038Y-119701428D02*
X126617419Y-119558571D01*
X126617419Y-119558571D02*
X126617419Y-119463333D01*
X126617419Y-119463333D02*
X126665038Y-119320476D01*
X126665038Y-119320476D02*
X126712657Y-119272857D01*
X126712657Y-118891904D02*
X126665038Y-118844285D01*
X126665038Y-118844285D02*
X126617419Y-118749047D01*
X126617419Y-118749047D02*
X126617419Y-118510952D01*
X126617419Y-118510952D02*
X126665038Y-118415714D01*
X126665038Y-118415714D02*
X126712657Y-118368095D01*
X126712657Y-118368095D02*
X126807895Y-118320476D01*
X126807895Y-118320476D02*
X126903133Y-118320476D01*
X126903133Y-118320476D02*
X127045990Y-118368095D01*
X127045990Y-118368095D02*
X127617419Y-118939523D01*
X127617419Y-118939523D02*
X127617419Y-118320476D01*
X126712657Y-117939523D02*
X126665038Y-117891904D01*
X126665038Y-117891904D02*
X126617419Y-117796666D01*
X126617419Y-117796666D02*
X126617419Y-117558571D01*
X126617419Y-117558571D02*
X126665038Y-117463333D01*
X126665038Y-117463333D02*
X126712657Y-117415714D01*
X126712657Y-117415714D02*
X126807895Y-117368095D01*
X126807895Y-117368095D02*
X126903133Y-117368095D01*
X126903133Y-117368095D02*
X127045990Y-117415714D01*
X127045990Y-117415714D02*
X127617419Y-117987142D01*
X127617419Y-117987142D02*
X127617419Y-117368095D01*
X131646666Y-119177419D02*
X131646666Y-119891704D01*
X131646666Y-119891704D02*
X131599047Y-120034561D01*
X131599047Y-120034561D02*
X131503809Y-120129800D01*
X131503809Y-120129800D02*
X131360952Y-120177419D01*
X131360952Y-120177419D02*
X131265714Y-120177419D01*
X132599047Y-119177419D02*
X132122857Y-119177419D01*
X132122857Y-119177419D02*
X132075238Y-119653609D01*
X132075238Y-119653609D02*
X132122857Y-119605990D01*
X132122857Y-119605990D02*
X132218095Y-119558371D01*
X132218095Y-119558371D02*
X132456190Y-119558371D01*
X132456190Y-119558371D02*
X132551428Y-119605990D01*
X132551428Y-119605990D02*
X132599047Y-119653609D01*
X132599047Y-119653609D02*
X132646666Y-119748847D01*
X132646666Y-119748847D02*
X132646666Y-119986942D01*
X132646666Y-119986942D02*
X132599047Y-120082180D01*
X132599047Y-120082180D02*
X132551428Y-120129800D01*
X132551428Y-120129800D02*
X132456190Y-120177419D01*
X132456190Y-120177419D02*
X132218095Y-120177419D01*
X132218095Y-120177419D02*
X132122857Y-120129800D01*
X132122857Y-120129800D02*
X132075238Y-120082180D01*
X145456666Y-119147419D02*
X145456666Y-119861704D01*
X145456666Y-119861704D02*
X145409047Y-120004561D01*
X145409047Y-120004561D02*
X145313809Y-120099800D01*
X145313809Y-120099800D02*
X145170952Y-120147419D01*
X145170952Y-120147419D02*
X145075714Y-120147419D01*
X146361428Y-119480752D02*
X146361428Y-120147419D01*
X146123333Y-119099800D02*
X145885238Y-119814085D01*
X145885238Y-119814085D02*
X146504285Y-119814085D01*
X61777419Y-93072857D02*
X61301228Y-93406190D01*
X61777419Y-93644285D02*
X60777419Y-93644285D01*
X60777419Y-93644285D02*
X60777419Y-93263333D01*
X60777419Y-93263333D02*
X60825038Y-93168095D01*
X60825038Y-93168095D02*
X60872657Y-93120476D01*
X60872657Y-93120476D02*
X60967895Y-93072857D01*
X60967895Y-93072857D02*
X61110752Y-93072857D01*
X61110752Y-93072857D02*
X61205990Y-93120476D01*
X61205990Y-93120476D02*
X61253609Y-93168095D01*
X61253609Y-93168095D02*
X61301228Y-93263333D01*
X61301228Y-93263333D02*
X61301228Y-93644285D01*
X60777419Y-92739523D02*
X60777419Y-92120476D01*
X60777419Y-92120476D02*
X61158371Y-92453809D01*
X61158371Y-92453809D02*
X61158371Y-92310952D01*
X61158371Y-92310952D02*
X61205990Y-92215714D01*
X61205990Y-92215714D02*
X61253609Y-92168095D01*
X61253609Y-92168095D02*
X61348847Y-92120476D01*
X61348847Y-92120476D02*
X61586942Y-92120476D01*
X61586942Y-92120476D02*
X61682180Y-92168095D01*
X61682180Y-92168095D02*
X61729800Y-92215714D01*
X61729800Y-92215714D02*
X61777419Y-92310952D01*
X61777419Y-92310952D02*
X61777419Y-92596666D01*
X61777419Y-92596666D02*
X61729800Y-92691904D01*
X61729800Y-92691904D02*
X61682180Y-92739523D01*
X60777419Y-91787142D02*
X60777419Y-91168095D01*
X60777419Y-91168095D02*
X61158371Y-91501428D01*
X61158371Y-91501428D02*
X61158371Y-91358571D01*
X61158371Y-91358571D02*
X61205990Y-91263333D01*
X61205990Y-91263333D02*
X61253609Y-91215714D01*
X61253609Y-91215714D02*
X61348847Y-91168095D01*
X61348847Y-91168095D02*
X61586942Y-91168095D01*
X61586942Y-91168095D02*
X61682180Y-91215714D01*
X61682180Y-91215714D02*
X61729800Y-91263333D01*
X61729800Y-91263333D02*
X61777419Y-91358571D01*
X61777419Y-91358571D02*
X61777419Y-91644285D01*
X61777419Y-91644285D02*
X61729800Y-91739523D01*
X61729800Y-91739523D02*
X61682180Y-91787142D01*
X109207419Y-80372857D02*
X108731228Y-80706190D01*
X109207419Y-80944285D02*
X108207419Y-80944285D01*
X108207419Y-80944285D02*
X108207419Y-80563333D01*
X108207419Y-80563333D02*
X108255038Y-80468095D01*
X108255038Y-80468095D02*
X108302657Y-80420476D01*
X108302657Y-80420476D02*
X108397895Y-80372857D01*
X108397895Y-80372857D02*
X108540752Y-80372857D01*
X108540752Y-80372857D02*
X108635990Y-80420476D01*
X108635990Y-80420476D02*
X108683609Y-80468095D01*
X108683609Y-80468095D02*
X108731228Y-80563333D01*
X108731228Y-80563333D02*
X108731228Y-80944285D01*
X109207419Y-79420476D02*
X109207419Y-79991904D01*
X109207419Y-79706190D02*
X108207419Y-79706190D01*
X108207419Y-79706190D02*
X108350276Y-79801428D01*
X108350276Y-79801428D02*
X108445514Y-79896666D01*
X108445514Y-79896666D02*
X108493133Y-79991904D01*
X108207419Y-78515714D02*
X108207419Y-78991904D01*
X108207419Y-78991904D02*
X108683609Y-79039523D01*
X108683609Y-79039523D02*
X108635990Y-78991904D01*
X108635990Y-78991904D02*
X108588371Y-78896666D01*
X108588371Y-78896666D02*
X108588371Y-78658571D01*
X108588371Y-78658571D02*
X108635990Y-78563333D01*
X108635990Y-78563333D02*
X108683609Y-78515714D01*
X108683609Y-78515714D02*
X108778847Y-78468095D01*
X108778847Y-78468095D02*
X109016942Y-78468095D01*
X109016942Y-78468095D02*
X109112180Y-78515714D01*
X109112180Y-78515714D02*
X109159800Y-78563333D01*
X109159800Y-78563333D02*
X109207419Y-78658571D01*
X109207419Y-78658571D02*
X109207419Y-78896666D01*
X109207419Y-78896666D02*
X109159800Y-78991904D01*
X109159800Y-78991904D02*
X109112180Y-79039523D01*
X118406666Y-119267419D02*
X118406666Y-119981704D01*
X118406666Y-119981704D02*
X118359047Y-120124561D01*
X118359047Y-120124561D02*
X118263809Y-120219800D01*
X118263809Y-120219800D02*
X118120952Y-120267419D01*
X118120952Y-120267419D02*
X118025714Y-120267419D01*
X118787619Y-119267419D02*
X119406666Y-119267419D01*
X119406666Y-119267419D02*
X119073333Y-119648371D01*
X119073333Y-119648371D02*
X119216190Y-119648371D01*
X119216190Y-119648371D02*
X119311428Y-119695990D01*
X119311428Y-119695990D02*
X119359047Y-119743609D01*
X119359047Y-119743609D02*
X119406666Y-119838847D01*
X119406666Y-119838847D02*
X119406666Y-120076942D01*
X119406666Y-120076942D02*
X119359047Y-120172180D01*
X119359047Y-120172180D02*
X119311428Y-120219800D01*
X119311428Y-120219800D02*
X119216190Y-120267419D01*
X119216190Y-120267419D02*
X118930476Y-120267419D01*
X118930476Y-120267419D02*
X118835238Y-120219800D01*
X118835238Y-120219800D02*
X118787619Y-120172180D01*
X154172180Y-119322857D02*
X154219800Y-119370476D01*
X154219800Y-119370476D02*
X154267419Y-119513333D01*
X154267419Y-119513333D02*
X154267419Y-119608571D01*
X154267419Y-119608571D02*
X154219800Y-119751428D01*
X154219800Y-119751428D02*
X154124561Y-119846666D01*
X154124561Y-119846666D02*
X154029323Y-119894285D01*
X154029323Y-119894285D02*
X153838847Y-119941904D01*
X153838847Y-119941904D02*
X153695990Y-119941904D01*
X153695990Y-119941904D02*
X153505514Y-119894285D01*
X153505514Y-119894285D02*
X153410276Y-119846666D01*
X153410276Y-119846666D02*
X153315038Y-119751428D01*
X153315038Y-119751428D02*
X153267419Y-119608571D01*
X153267419Y-119608571D02*
X153267419Y-119513333D01*
X153267419Y-119513333D02*
X153315038Y-119370476D01*
X153315038Y-119370476D02*
X153362657Y-119322857D01*
X153362657Y-118941904D02*
X153315038Y-118894285D01*
X153315038Y-118894285D02*
X153267419Y-118799047D01*
X153267419Y-118799047D02*
X153267419Y-118560952D01*
X153267419Y-118560952D02*
X153315038Y-118465714D01*
X153315038Y-118465714D02*
X153362657Y-118418095D01*
X153362657Y-118418095D02*
X153457895Y-118370476D01*
X153457895Y-118370476D02*
X153553133Y-118370476D01*
X153553133Y-118370476D02*
X153695990Y-118418095D01*
X153695990Y-118418095D02*
X154267419Y-118989523D01*
X154267419Y-118989523D02*
X154267419Y-118370476D01*
X153267419Y-118037142D02*
X153267419Y-117418095D01*
X153267419Y-117418095D02*
X153648371Y-117751428D01*
X153648371Y-117751428D02*
X153648371Y-117608571D01*
X153648371Y-117608571D02*
X153695990Y-117513333D01*
X153695990Y-117513333D02*
X153743609Y-117465714D01*
X153743609Y-117465714D02*
X153838847Y-117418095D01*
X153838847Y-117418095D02*
X154076942Y-117418095D01*
X154076942Y-117418095D02*
X154172180Y-117465714D01*
X154172180Y-117465714D02*
X154219800Y-117513333D01*
X154219800Y-117513333D02*
X154267419Y-117608571D01*
X154267419Y-117608571D02*
X154267419Y-117894285D01*
X154267419Y-117894285D02*
X154219800Y-117989523D01*
X154219800Y-117989523D02*
X154172180Y-118037142D01*
X90337419Y-110542857D02*
X89861228Y-110876190D01*
X90337419Y-111114285D02*
X89337419Y-111114285D01*
X89337419Y-111114285D02*
X89337419Y-110733333D01*
X89337419Y-110733333D02*
X89385038Y-110638095D01*
X89385038Y-110638095D02*
X89432657Y-110590476D01*
X89432657Y-110590476D02*
X89527895Y-110542857D01*
X89527895Y-110542857D02*
X89670752Y-110542857D01*
X89670752Y-110542857D02*
X89765990Y-110590476D01*
X89765990Y-110590476D02*
X89813609Y-110638095D01*
X89813609Y-110638095D02*
X89861228Y-110733333D01*
X89861228Y-110733333D02*
X89861228Y-111114285D01*
X89432657Y-110161904D02*
X89385038Y-110114285D01*
X89385038Y-110114285D02*
X89337419Y-110019047D01*
X89337419Y-110019047D02*
X89337419Y-109780952D01*
X89337419Y-109780952D02*
X89385038Y-109685714D01*
X89385038Y-109685714D02*
X89432657Y-109638095D01*
X89432657Y-109638095D02*
X89527895Y-109590476D01*
X89527895Y-109590476D02*
X89623133Y-109590476D01*
X89623133Y-109590476D02*
X89765990Y-109638095D01*
X89765990Y-109638095D02*
X90337419Y-110209523D01*
X90337419Y-110209523D02*
X90337419Y-109590476D01*
X90337419Y-108638095D02*
X90337419Y-109209523D01*
X90337419Y-108923809D02*
X89337419Y-108923809D01*
X89337419Y-108923809D02*
X89480276Y-109019047D01*
X89480276Y-109019047D02*
X89575514Y-109114285D01*
X89575514Y-109114285D02*
X89623133Y-109209523D01*
X66533609Y-92988095D02*
X66533609Y-93321428D01*
X67057419Y-93321428D02*
X66057419Y-93321428D01*
X66057419Y-93321428D02*
X66057419Y-92845238D01*
X67057419Y-91988095D02*
X67057419Y-92464285D01*
X67057419Y-92464285D02*
X66057419Y-92464285D01*
X66152657Y-91702380D02*
X66105038Y-91654761D01*
X66105038Y-91654761D02*
X66057419Y-91559523D01*
X66057419Y-91559523D02*
X66057419Y-91321428D01*
X66057419Y-91321428D02*
X66105038Y-91226190D01*
X66105038Y-91226190D02*
X66152657Y-91178571D01*
X66152657Y-91178571D02*
X66247895Y-91130952D01*
X66247895Y-91130952D02*
X66343133Y-91130952D01*
X66343133Y-91130952D02*
X66485990Y-91178571D01*
X66485990Y-91178571D02*
X67057419Y-91749999D01*
X67057419Y-91749999D02*
X67057419Y-91130952D01*
X137317419Y-119046666D02*
X137317419Y-119522856D01*
X137317419Y-119522856D02*
X136317419Y-119522856D01*
X136412657Y-118760951D02*
X136365038Y-118713332D01*
X136365038Y-118713332D02*
X136317419Y-118618094D01*
X136317419Y-118618094D02*
X136317419Y-118379999D01*
X136317419Y-118379999D02*
X136365038Y-118284761D01*
X136365038Y-118284761D02*
X136412657Y-118237142D01*
X136412657Y-118237142D02*
X136507895Y-118189523D01*
X136507895Y-118189523D02*
X136603133Y-118189523D01*
X136603133Y-118189523D02*
X136745990Y-118237142D01*
X136745990Y-118237142D02*
X137317419Y-118808570D01*
X137317419Y-118808570D02*
X137317419Y-118189523D01*
X88837419Y-92946189D02*
X87837419Y-92946189D01*
X88742180Y-91898571D02*
X88789800Y-91946190D01*
X88789800Y-91946190D02*
X88837419Y-92089047D01*
X88837419Y-92089047D02*
X88837419Y-92184285D01*
X88837419Y-92184285D02*
X88789800Y-92327142D01*
X88789800Y-92327142D02*
X88694561Y-92422380D01*
X88694561Y-92422380D02*
X88599323Y-92469999D01*
X88599323Y-92469999D02*
X88408847Y-92517618D01*
X88408847Y-92517618D02*
X88265990Y-92517618D01*
X88265990Y-92517618D02*
X88075514Y-92469999D01*
X88075514Y-92469999D02*
X87980276Y-92422380D01*
X87980276Y-92422380D02*
X87885038Y-92327142D01*
X87885038Y-92327142D02*
X87837419Y-92184285D01*
X87837419Y-92184285D02*
X87837419Y-92089047D01*
X87837419Y-92089047D02*
X87885038Y-91946190D01*
X87885038Y-91946190D02*
X87932657Y-91898571D01*
X88837419Y-90946190D02*
X88837419Y-91517618D01*
X88837419Y-91231904D02*
X87837419Y-91231904D01*
X87837419Y-91231904D02*
X87980276Y-91327142D01*
X87980276Y-91327142D02*
X88075514Y-91422380D01*
X88075514Y-91422380D02*
X88123133Y-91517618D01*
X95748333Y-101297180D02*
X95700714Y-101344800D01*
X95700714Y-101344800D02*
X95557857Y-101392419D01*
X95557857Y-101392419D02*
X95462619Y-101392419D01*
X95462619Y-101392419D02*
X95319762Y-101344800D01*
X95319762Y-101344800D02*
X95224524Y-101249561D01*
X95224524Y-101249561D02*
X95176905Y-101154323D01*
X95176905Y-101154323D02*
X95129286Y-100963847D01*
X95129286Y-100963847D02*
X95129286Y-100820990D01*
X95129286Y-100820990D02*
X95176905Y-100630514D01*
X95176905Y-100630514D02*
X95224524Y-100535276D01*
X95224524Y-100535276D02*
X95319762Y-100440038D01*
X95319762Y-100440038D02*
X95462619Y-100392419D01*
X95462619Y-100392419D02*
X95557857Y-100392419D01*
X95557857Y-100392419D02*
X95700714Y-100440038D01*
X95700714Y-100440038D02*
X95748333Y-100487657D01*
X96700714Y-101392419D02*
X96129286Y-101392419D01*
X96415000Y-101392419D02*
X96415000Y-100392419D01*
X96415000Y-100392419D02*
X96319762Y-100535276D01*
X96319762Y-100535276D02*
X96224524Y-100630514D01*
X96224524Y-100630514D02*
X96129286Y-100678133D01*
X62687419Y-102872857D02*
X62211228Y-103206190D01*
X62687419Y-103444285D02*
X61687419Y-103444285D01*
X61687419Y-103444285D02*
X61687419Y-103063333D01*
X61687419Y-103063333D02*
X61735038Y-102968095D01*
X61735038Y-102968095D02*
X61782657Y-102920476D01*
X61782657Y-102920476D02*
X61877895Y-102872857D01*
X61877895Y-102872857D02*
X62020752Y-102872857D01*
X62020752Y-102872857D02*
X62115990Y-102920476D01*
X62115990Y-102920476D02*
X62163609Y-102968095D01*
X62163609Y-102968095D02*
X62211228Y-103063333D01*
X62211228Y-103063333D02*
X62211228Y-103444285D01*
X61687419Y-102539523D02*
X61687419Y-101920476D01*
X61687419Y-101920476D02*
X62068371Y-102253809D01*
X62068371Y-102253809D02*
X62068371Y-102110952D01*
X62068371Y-102110952D02*
X62115990Y-102015714D01*
X62115990Y-102015714D02*
X62163609Y-101968095D01*
X62163609Y-101968095D02*
X62258847Y-101920476D01*
X62258847Y-101920476D02*
X62496942Y-101920476D01*
X62496942Y-101920476D02*
X62592180Y-101968095D01*
X62592180Y-101968095D02*
X62639800Y-102015714D01*
X62639800Y-102015714D02*
X62687419Y-102110952D01*
X62687419Y-102110952D02*
X62687419Y-102396666D01*
X62687419Y-102396666D02*
X62639800Y-102491904D01*
X62639800Y-102491904D02*
X62592180Y-102539523D01*
X62687419Y-100968095D02*
X62687419Y-101539523D01*
X62687419Y-101253809D02*
X61687419Y-101253809D01*
X61687419Y-101253809D02*
X61830276Y-101349047D01*
X61830276Y-101349047D02*
X61925514Y-101444285D01*
X61925514Y-101444285D02*
X61973133Y-101539523D01*
X91707419Y-111148094D02*
X90707419Y-111148094D01*
X90707419Y-111148094D02*
X90707419Y-110909999D01*
X90707419Y-110909999D02*
X90755038Y-110767142D01*
X90755038Y-110767142D02*
X90850276Y-110671904D01*
X90850276Y-110671904D02*
X90945514Y-110624285D01*
X90945514Y-110624285D02*
X91135990Y-110576666D01*
X91135990Y-110576666D02*
X91278847Y-110576666D01*
X91278847Y-110576666D02*
X91469323Y-110624285D01*
X91469323Y-110624285D02*
X91564561Y-110671904D01*
X91564561Y-110671904D02*
X91659800Y-110767142D01*
X91659800Y-110767142D02*
X91707419Y-110909999D01*
X91707419Y-110909999D02*
X91707419Y-111148094D01*
X91135990Y-110005237D02*
X91088371Y-110100475D01*
X91088371Y-110100475D02*
X91040752Y-110148094D01*
X91040752Y-110148094D02*
X90945514Y-110195713D01*
X90945514Y-110195713D02*
X90897895Y-110195713D01*
X90897895Y-110195713D02*
X90802657Y-110148094D01*
X90802657Y-110148094D02*
X90755038Y-110100475D01*
X90755038Y-110100475D02*
X90707419Y-110005237D01*
X90707419Y-110005237D02*
X90707419Y-109814761D01*
X90707419Y-109814761D02*
X90755038Y-109719523D01*
X90755038Y-109719523D02*
X90802657Y-109671904D01*
X90802657Y-109671904D02*
X90897895Y-109624285D01*
X90897895Y-109624285D02*
X90945514Y-109624285D01*
X90945514Y-109624285D02*
X91040752Y-109671904D01*
X91040752Y-109671904D02*
X91088371Y-109719523D01*
X91088371Y-109719523D02*
X91135990Y-109814761D01*
X91135990Y-109814761D02*
X91135990Y-110005237D01*
X91135990Y-110005237D02*
X91183609Y-110100475D01*
X91183609Y-110100475D02*
X91231228Y-110148094D01*
X91231228Y-110148094D02*
X91326466Y-110195713D01*
X91326466Y-110195713D02*
X91516942Y-110195713D01*
X91516942Y-110195713D02*
X91612180Y-110148094D01*
X91612180Y-110148094D02*
X91659800Y-110100475D01*
X91659800Y-110100475D02*
X91707419Y-110005237D01*
X91707419Y-110005237D02*
X91707419Y-109814761D01*
X91707419Y-109814761D02*
X91659800Y-109719523D01*
X91659800Y-109719523D02*
X91612180Y-109671904D01*
X91612180Y-109671904D02*
X91516942Y-109624285D01*
X91516942Y-109624285D02*
X91326466Y-109624285D01*
X91326466Y-109624285D02*
X91231228Y-109671904D01*
X91231228Y-109671904D02*
X91183609Y-109719523D01*
X91183609Y-109719523D02*
X91135990Y-109814761D01*
X75447419Y-111168094D02*
X74447419Y-111168094D01*
X74447419Y-111168094D02*
X74447419Y-110929999D01*
X74447419Y-110929999D02*
X74495038Y-110787142D01*
X74495038Y-110787142D02*
X74590276Y-110691904D01*
X74590276Y-110691904D02*
X74685514Y-110644285D01*
X74685514Y-110644285D02*
X74875990Y-110596666D01*
X74875990Y-110596666D02*
X75018847Y-110596666D01*
X75018847Y-110596666D02*
X75209323Y-110644285D01*
X75209323Y-110644285D02*
X75304561Y-110691904D01*
X75304561Y-110691904D02*
X75399800Y-110787142D01*
X75399800Y-110787142D02*
X75447419Y-110929999D01*
X75447419Y-110929999D02*
X75447419Y-111168094D01*
X75447419Y-110120475D02*
X75447419Y-109929999D01*
X75447419Y-109929999D02*
X75399800Y-109834761D01*
X75399800Y-109834761D02*
X75352180Y-109787142D01*
X75352180Y-109787142D02*
X75209323Y-109691904D01*
X75209323Y-109691904D02*
X75018847Y-109644285D01*
X75018847Y-109644285D02*
X74637895Y-109644285D01*
X74637895Y-109644285D02*
X74542657Y-109691904D01*
X74542657Y-109691904D02*
X74495038Y-109739523D01*
X74495038Y-109739523D02*
X74447419Y-109834761D01*
X74447419Y-109834761D02*
X74447419Y-110025237D01*
X74447419Y-110025237D02*
X74495038Y-110120475D01*
X74495038Y-110120475D02*
X74542657Y-110168094D01*
X74542657Y-110168094D02*
X74637895Y-110215713D01*
X74637895Y-110215713D02*
X74875990Y-110215713D01*
X74875990Y-110215713D02*
X74971228Y-110168094D01*
X74971228Y-110168094D02*
X75018847Y-110120475D01*
X75018847Y-110120475D02*
X75066466Y-110025237D01*
X75066466Y-110025237D02*
X75066466Y-109834761D01*
X75066466Y-109834761D02*
X75018847Y-109739523D01*
X75018847Y-109739523D02*
X74971228Y-109691904D01*
X74971228Y-109691904D02*
X74875990Y-109644285D01*
X106337142Y-94237419D02*
X106003809Y-93761228D01*
X105765714Y-94237419D02*
X105765714Y-93237419D01*
X105765714Y-93237419D02*
X106146666Y-93237419D01*
X106146666Y-93237419D02*
X106241904Y-93285038D01*
X106241904Y-93285038D02*
X106289523Y-93332657D01*
X106289523Y-93332657D02*
X106337142Y-93427895D01*
X106337142Y-93427895D02*
X106337142Y-93570752D01*
X106337142Y-93570752D02*
X106289523Y-93665990D01*
X106289523Y-93665990D02*
X106241904Y-93713609D01*
X106241904Y-93713609D02*
X106146666Y-93761228D01*
X106146666Y-93761228D02*
X105765714Y-93761228D01*
X107289523Y-94237419D02*
X106718095Y-94237419D01*
X107003809Y-94237419D02*
X107003809Y-93237419D01*
X107003809Y-93237419D02*
X106908571Y-93380276D01*
X106908571Y-93380276D02*
X106813333Y-93475514D01*
X106813333Y-93475514D02*
X106718095Y-93523133D01*
X107622857Y-93237419D02*
X108241904Y-93237419D01*
X108241904Y-93237419D02*
X107908571Y-93618371D01*
X107908571Y-93618371D02*
X108051428Y-93618371D01*
X108051428Y-93618371D02*
X108146666Y-93665990D01*
X108146666Y-93665990D02*
X108194285Y-93713609D01*
X108194285Y-93713609D02*
X108241904Y-93808847D01*
X108241904Y-93808847D02*
X108241904Y-94046942D01*
X108241904Y-94046942D02*
X108194285Y-94142180D01*
X108194285Y-94142180D02*
X108146666Y-94189800D01*
X108146666Y-94189800D02*
X108051428Y-94237419D01*
X108051428Y-94237419D02*
X107765714Y-94237419D01*
X107765714Y-94237419D02*
X107670476Y-94189800D01*
X107670476Y-94189800D02*
X107622857Y-94142180D01*
X106473333Y-95652180D02*
X106425714Y-95699800D01*
X106425714Y-95699800D02*
X106282857Y-95747419D01*
X106282857Y-95747419D02*
X106187619Y-95747419D01*
X106187619Y-95747419D02*
X106044762Y-95699800D01*
X106044762Y-95699800D02*
X105949524Y-95604561D01*
X105949524Y-95604561D02*
X105901905Y-95509323D01*
X105901905Y-95509323D02*
X105854286Y-95318847D01*
X105854286Y-95318847D02*
X105854286Y-95175990D01*
X105854286Y-95175990D02*
X105901905Y-94985514D01*
X105901905Y-94985514D02*
X105949524Y-94890276D01*
X105949524Y-94890276D02*
X106044762Y-94795038D01*
X106044762Y-94795038D02*
X106187619Y-94747419D01*
X106187619Y-94747419D02*
X106282857Y-94747419D01*
X106282857Y-94747419D02*
X106425714Y-94795038D01*
X106425714Y-94795038D02*
X106473333Y-94842657D01*
X106806667Y-94747419D02*
X107425714Y-94747419D01*
X107425714Y-94747419D02*
X107092381Y-95128371D01*
X107092381Y-95128371D02*
X107235238Y-95128371D01*
X107235238Y-95128371D02*
X107330476Y-95175990D01*
X107330476Y-95175990D02*
X107378095Y-95223609D01*
X107378095Y-95223609D02*
X107425714Y-95318847D01*
X107425714Y-95318847D02*
X107425714Y-95556942D01*
X107425714Y-95556942D02*
X107378095Y-95652180D01*
X107378095Y-95652180D02*
X107330476Y-95699800D01*
X107330476Y-95699800D02*
X107235238Y-95747419D01*
X107235238Y-95747419D02*
X106949524Y-95747419D01*
X106949524Y-95747419D02*
X106854286Y-95699800D01*
X106854286Y-95699800D02*
X106806667Y-95652180D01*
X91797419Y-81742857D02*
X91321228Y-82076190D01*
X91797419Y-82314285D02*
X90797419Y-82314285D01*
X90797419Y-82314285D02*
X90797419Y-81933333D01*
X90797419Y-81933333D02*
X90845038Y-81838095D01*
X90845038Y-81838095D02*
X90892657Y-81790476D01*
X90892657Y-81790476D02*
X90987895Y-81742857D01*
X90987895Y-81742857D02*
X91130752Y-81742857D01*
X91130752Y-81742857D02*
X91225990Y-81790476D01*
X91225990Y-81790476D02*
X91273609Y-81838095D01*
X91273609Y-81838095D02*
X91321228Y-81933333D01*
X91321228Y-81933333D02*
X91321228Y-82314285D01*
X91797419Y-80790476D02*
X91797419Y-81361904D01*
X91797419Y-81076190D02*
X90797419Y-81076190D01*
X90797419Y-81076190D02*
X90940276Y-81171428D01*
X90940276Y-81171428D02*
X91035514Y-81266666D01*
X91035514Y-81266666D02*
X91083133Y-81361904D01*
X90892657Y-80409523D02*
X90845038Y-80361904D01*
X90845038Y-80361904D02*
X90797419Y-80266666D01*
X90797419Y-80266666D02*
X90797419Y-80028571D01*
X90797419Y-80028571D02*
X90845038Y-79933333D01*
X90845038Y-79933333D02*
X90892657Y-79885714D01*
X90892657Y-79885714D02*
X90987895Y-79838095D01*
X90987895Y-79838095D02*
X91083133Y-79838095D01*
X91083133Y-79838095D02*
X91225990Y-79885714D01*
X91225990Y-79885714D02*
X91797419Y-80457142D01*
X91797419Y-80457142D02*
X91797419Y-79838095D01*
X107507419Y-111028094D02*
X106507419Y-111028094D01*
X106507419Y-111028094D02*
X106507419Y-110789999D01*
X106507419Y-110789999D02*
X106555038Y-110647142D01*
X106555038Y-110647142D02*
X106650276Y-110551904D01*
X106650276Y-110551904D02*
X106745514Y-110504285D01*
X106745514Y-110504285D02*
X106935990Y-110456666D01*
X106935990Y-110456666D02*
X107078847Y-110456666D01*
X107078847Y-110456666D02*
X107269323Y-110504285D01*
X107269323Y-110504285D02*
X107364561Y-110551904D01*
X107364561Y-110551904D02*
X107459800Y-110647142D01*
X107459800Y-110647142D02*
X107507419Y-110789999D01*
X107507419Y-110789999D02*
X107507419Y-111028094D01*
X106507419Y-110123332D02*
X106507419Y-109456666D01*
X106507419Y-109456666D02*
X107507419Y-109885237D01*
X93202180Y-81742857D02*
X93249800Y-81790476D01*
X93249800Y-81790476D02*
X93297419Y-81933333D01*
X93297419Y-81933333D02*
X93297419Y-82028571D01*
X93297419Y-82028571D02*
X93249800Y-82171428D01*
X93249800Y-82171428D02*
X93154561Y-82266666D01*
X93154561Y-82266666D02*
X93059323Y-82314285D01*
X93059323Y-82314285D02*
X92868847Y-82361904D01*
X92868847Y-82361904D02*
X92725990Y-82361904D01*
X92725990Y-82361904D02*
X92535514Y-82314285D01*
X92535514Y-82314285D02*
X92440276Y-82266666D01*
X92440276Y-82266666D02*
X92345038Y-82171428D01*
X92345038Y-82171428D02*
X92297419Y-82028571D01*
X92297419Y-82028571D02*
X92297419Y-81933333D01*
X92297419Y-81933333D02*
X92345038Y-81790476D01*
X92345038Y-81790476D02*
X92392657Y-81742857D01*
X93297419Y-80790476D02*
X93297419Y-81361904D01*
X93297419Y-81076190D02*
X92297419Y-81076190D01*
X92297419Y-81076190D02*
X92440276Y-81171428D01*
X92440276Y-81171428D02*
X92535514Y-81266666D01*
X92535514Y-81266666D02*
X92583133Y-81361904D01*
X92297419Y-80457142D02*
X92297419Y-79790476D01*
X92297419Y-79790476D02*
X93297419Y-80219047D01*
D10*
X104124420Y-97830000D02*
X104405580Y-97830000D01*
X104124420Y-98850000D02*
X104405580Y-98850000D01*
X137870000Y-115071920D02*
X137870000Y-115353080D01*
X138890000Y-115071920D02*
X138890000Y-115353080D01*
X100325000Y-114740000D02*
X102125000Y-114740000D01*
X100325000Y-116190000D02*
X100325000Y-114740000D01*
X101595000Y-119010000D02*
X112435000Y-119000000D01*
X102125000Y-114740000D02*
X102125000Y-113750000D01*
X113795000Y-114740000D02*
X111995000Y-114740000D01*
X113795000Y-116190000D02*
X113795000Y-114740000D01*
X68425000Y-114740000D02*
X70225000Y-114740000D01*
X68425000Y-116190000D02*
X68425000Y-114740000D01*
X69695000Y-119010000D02*
X80535000Y-119000000D01*
X70225000Y-114740000D02*
X70225000Y-113750000D01*
X81895000Y-114740000D02*
X80095000Y-114740000D01*
X81895000Y-116190000D02*
X81895000Y-114740000D01*
X104119420Y-96310000D02*
X104400580Y-96310000D01*
X104119420Y-97330000D02*
X104400580Y-97330000D01*
X66917500Y-99147258D02*
X66917500Y-98672742D01*
X67962500Y-99147258D02*
X67962500Y-98672742D01*
X69020580Y-104300000D02*
X68739420Y-104300000D01*
X69020580Y-105320000D02*
X68739420Y-105320000D01*
X69107258Y-105797500D02*
X68632742Y-105797500D01*
X69107258Y-106842500D02*
X68632742Y-106842500D01*
D13*
X96945980Y-76830000D02*
X96945980Y-77330000D01*
X97695980Y-75980000D02*
X99095980Y-75980000D01*
X97745980Y-78130000D02*
X99095980Y-78130000D01*
X99095980Y-75980000D02*
X99095980Y-76430000D01*
X99095980Y-78130000D02*
X99095980Y-77680000D01*
D10*
X94857500Y-88187500D02*
X97157500Y-88187500D01*
X94857500Y-95587500D02*
X94857500Y-88187500D01*
X97157500Y-95587500D02*
X94857500Y-95587500D01*
X99957500Y-88187500D02*
X102257500Y-88187500D01*
X102257500Y-88187500D02*
X102257500Y-95587500D01*
X102257500Y-95587500D02*
X99957500Y-95587500D01*
D13*
X102987500Y-87872500D02*
X102987500Y-89292500D01*
X103207500Y-88072500D02*
X105007500Y-88072500D01*
X103207500Y-92472500D02*
X103207500Y-88072500D01*
X105007500Y-92472500D02*
X103207500Y-92472500D01*
X105007500Y-92472500D02*
X105007500Y-88072500D01*
X105247500Y-87872500D02*
X102987500Y-87872500D01*
X105247500Y-89282500D02*
X105247500Y-87872500D01*
D10*
X66772742Y-87807500D02*
X67247258Y-87807500D01*
X66772742Y-88852500D02*
X67247258Y-88852500D01*
D13*
X106400000Y-102580000D02*
X102900000Y-102580000D01*
X102900000Y-103880000D01*
X106400000Y-103880000D01*
X106400000Y-102580000D01*
X82370000Y-95950000D02*
X83290000Y-95950000D01*
X82550000Y-96160000D02*
X83470000Y-96160000D01*
X83290000Y-95000000D02*
X83290000Y-95950000D01*
X83470000Y-95210000D02*
X83470000Y-96160000D01*
X73770000Y-95460000D02*
X82770000Y-95460000D01*
X82770000Y-86460000D01*
X73770000Y-86460000D01*
X73770000Y-95460000D01*
D15*
X83030000Y-95630000D02*
G75*
G02*
X82850000Y-95630000I-90000J0D01*
G01*
X82850000Y-95630000D02*
G75*
G02*
X83030000Y-95630000I90000J0D01*
G01*
D10*
X84305000Y-114740000D02*
X86105000Y-114740000D01*
X84305000Y-116190000D02*
X84305000Y-114740000D01*
X85575000Y-119010000D02*
X96415000Y-119000000D01*
X86105000Y-114740000D02*
X86105000Y-113750000D01*
X97775000Y-114740000D02*
X95975000Y-114740000D01*
X97775000Y-116190000D02*
X97775000Y-114740000D01*
X70215580Y-84800000D02*
X69934420Y-84800000D01*
X70215580Y-85820000D02*
X69934420Y-85820000D01*
X150205000Y-115089420D02*
X150205000Y-115370580D01*
X151225000Y-115089420D02*
X151225000Y-115370580D01*
X67857500Y-96112258D02*
X67857500Y-95637742D01*
X68902500Y-96112258D02*
X68902500Y-95637742D01*
X98767500Y-83387500D02*
X98767500Y-86072500D01*
X100687500Y-83387500D02*
X98767500Y-83387500D01*
X100687500Y-86072500D02*
X100687500Y-83387500D01*
X67960000Y-100580000D02*
X67960000Y-103880000D01*
X67960000Y-103880000D02*
X71960000Y-103880000D01*
D13*
X104870000Y-84210000D02*
X104870000Y-83780000D01*
X105250000Y-84210000D02*
X104870000Y-84210000D01*
X105110000Y-83950000D02*
X107610000Y-83950000D01*
X107610000Y-80750000D01*
X105110000Y-80750000D01*
X105110000Y-83950000D01*
D10*
X69767500Y-96112258D02*
X69767500Y-95637742D01*
X70812500Y-96112258D02*
X70812500Y-95637742D01*
X95822500Y-85086920D02*
X95822500Y-85368080D01*
X96842500Y-85086920D02*
X96842500Y-85368080D01*
X71930000Y-99060580D02*
X71930000Y-98779420D01*
X72950000Y-99060580D02*
X72950000Y-98779420D01*
X140920000Y-115074420D02*
X140920000Y-115355580D01*
X141940000Y-115074420D02*
X141940000Y-115355580D01*
D13*
X106400000Y-100880000D02*
X102900000Y-100880000D01*
X102900000Y-102180000D01*
X106400000Y-102180000D01*
X106400000Y-100880000D01*
D10*
X151740000Y-115350580D02*
X151740000Y-115069420D01*
X152760000Y-115350580D02*
X152760000Y-115069420D01*
X68077500Y-109655242D02*
X68077500Y-110129758D01*
X69122500Y-109655242D02*
X69122500Y-110129758D01*
X100861252Y-102850000D02*
X99438748Y-102850000D01*
X100861252Y-104670000D02*
X99438748Y-104670000D01*
X97375000Y-85489758D02*
X97375000Y-85015242D01*
X98420000Y-85489758D02*
X98420000Y-85015242D01*
X103417500Y-82957258D02*
X103417500Y-82482742D01*
X104462500Y-82957258D02*
X104462500Y-82482742D01*
X68787500Y-99152258D02*
X68787500Y-98677742D01*
X69832500Y-99152258D02*
X69832500Y-98677742D01*
X94122500Y-85116920D02*
X94122500Y-85398080D01*
X95142500Y-85116920D02*
X95142500Y-85398080D01*
X70292258Y-87827500D02*
X69817742Y-87827500D01*
X70292258Y-88872500D02*
X69817742Y-88872500D01*
X123560000Y-115079420D02*
X123560000Y-115360580D01*
X124580000Y-115079420D02*
X124580000Y-115360580D01*
X70135000Y-97445000D02*
X70135000Y-99730000D01*
X71605000Y-97445000D02*
X70135000Y-97445000D01*
X71605000Y-99730000D02*
X71605000Y-97445000D01*
X93113748Y-96420000D02*
X94536252Y-96420000D01*
X93113748Y-98240000D02*
X94536252Y-98240000D01*
X139390000Y-115350580D02*
X139390000Y-115069420D01*
X140410000Y-115350580D02*
X140410000Y-115069420D01*
X125100000Y-115355580D02*
X125100000Y-115074420D01*
X126120000Y-115355580D02*
X126120000Y-115074420D01*
X65977500Y-96102258D02*
X65977500Y-95627742D01*
X67022500Y-96102258D02*
X67022500Y-95627742D01*
D13*
X101075000Y-99230000D02*
X102345000Y-99230000D01*
X102345000Y-96310000D02*
X101050000Y-96310000D01*
X102345000Y-99230000D02*
X102345000Y-96310000D01*
X102150000Y-98960000D02*
X97240000Y-98960000D01*
X97240000Y-96560000D01*
X102150000Y-96560000D01*
X102150000Y-98960000D01*
D10*
X104119420Y-99370000D02*
X104400580Y-99370000D01*
X104119420Y-100390000D02*
X104400580Y-100390000D01*
X63097500Y-99152258D02*
X63097500Y-98677742D01*
X64142500Y-99152258D02*
X64142500Y-98677742D01*
X99897500Y-109652742D02*
X99897500Y-110127258D01*
X100942500Y-109652742D02*
X100942500Y-110127258D01*
X89290000Y-85534758D02*
X89290000Y-85060242D01*
X90335000Y-85534758D02*
X90335000Y-85060242D01*
X69827742Y-86307500D02*
X70302258Y-86307500D01*
X69827742Y-87352500D02*
X70302258Y-87352500D01*
D13*
X108400000Y-90220000D02*
X108400000Y-103600000D01*
X108400000Y-103600000D02*
X110350000Y-103600000D01*
X110350000Y-103600000D02*
X110360000Y-111040000D01*
X110360000Y-74040000D02*
X110360000Y-90220000D01*
X110360000Y-90220000D02*
X108400000Y-90220000D01*
X117260000Y-71990000D02*
X130810000Y-71990000D01*
X117260000Y-74030000D02*
X110360000Y-74040000D01*
X117260000Y-74030000D02*
X117260000Y-71990000D01*
X128350000Y-111030000D02*
X110360000Y-111040000D01*
X128350000Y-111030000D02*
X128350000Y-112850000D01*
X128350000Y-112850000D02*
X141860000Y-112850000D01*
X130810000Y-71990000D02*
X130810000Y-74040000D01*
X141860000Y-111040000D02*
X150370000Y-111040000D01*
X141860000Y-112850000D02*
X141860000Y-111040000D01*
X150370000Y-74040000D02*
X130810000Y-74040000D01*
X150370000Y-78870000D02*
X150370000Y-74040000D01*
X150370000Y-78870000D02*
X152140000Y-78870000D01*
X150370000Y-111040000D02*
X150380000Y-93890000D01*
X152140000Y-78870000D02*
X152160000Y-93890000D01*
X152160000Y-93890000D02*
X150380000Y-93890000D01*
D10*
X126650000Y-115084420D02*
X126650000Y-115365580D01*
X127670000Y-115084420D02*
X127670000Y-115365580D01*
D13*
X129860000Y-118925000D02*
X134110000Y-118925000D01*
X134110000Y-115325000D01*
X129860000Y-115325000D01*
X129860000Y-118925000D01*
X143670000Y-118925000D02*
X147920000Y-118925000D01*
X147920000Y-115325000D01*
X143670000Y-115325000D01*
X143670000Y-118925000D01*
D10*
X63977500Y-96112258D02*
X63977500Y-95637742D01*
X65022500Y-96112258D02*
X65022500Y-95637742D01*
X108227500Y-82967258D02*
X108227500Y-82492742D01*
X109272500Y-82967258D02*
X109272500Y-82492742D01*
D13*
X116590000Y-118925000D02*
X120840000Y-118925000D01*
X120840000Y-115325000D01*
X116590000Y-115325000D01*
X116590000Y-118925000D01*
D10*
X153325000Y-115084420D02*
X153325000Y-115365580D01*
X154345000Y-115084420D02*
X154345000Y-115365580D01*
X84087500Y-109652742D02*
X84087500Y-110127258D01*
X85132500Y-109652742D02*
X85132500Y-110127258D01*
D15*
X71820000Y-95860000D02*
X72420000Y-95860000D01*
D10*
X136350000Y-115052221D02*
X136350000Y-115377779D01*
X137370000Y-115052221D02*
X137370000Y-115377779D01*
D13*
X89277500Y-90077500D02*
X92927500Y-90077500D01*
X89277500Y-93947500D02*
X89277500Y-90077500D01*
D15*
X92812500Y-88315000D02*
X94337500Y-88315000D01*
D13*
X92927500Y-90077500D02*
X94147500Y-91297500D01*
X94147500Y-91297500D02*
X94147500Y-93947500D01*
X94147500Y-93947500D02*
X89277500Y-93947500D01*
D15*
X94337500Y-88315000D02*
X94337500Y-89840000D01*
D13*
X101080000Y-102405000D02*
X102350000Y-102405000D01*
X102350000Y-99485000D02*
X101055000Y-99485000D01*
X102350000Y-102405000D02*
X102350000Y-99485000D01*
X102155000Y-102135000D02*
X97245000Y-102135000D01*
X97245000Y-99735000D01*
X102155000Y-99735000D01*
X102155000Y-102135000D01*
D10*
X64947500Y-99142258D02*
X64947500Y-98667742D01*
X65992500Y-99142258D02*
X65992500Y-98667742D01*
X85472500Y-108437500D02*
X85472500Y-110722500D01*
X86942500Y-108437500D02*
X85472500Y-108437500D01*
X86942500Y-110722500D02*
X86942500Y-108437500D01*
X69465000Y-108437500D02*
X69465000Y-110722500D01*
X70935000Y-108437500D02*
X69465000Y-108437500D01*
X70935000Y-110722500D02*
X70935000Y-108437500D01*
X104022742Y-93222500D02*
X104497258Y-93222500D01*
X104022742Y-94267500D02*
X104497258Y-94267500D01*
X104119420Y-94780000D02*
X104400580Y-94780000D01*
X104119420Y-95800000D02*
X104400580Y-95800000D01*
X90920000Y-85554758D02*
X90920000Y-85080242D01*
X91965000Y-85554758D02*
X91965000Y-85080242D01*
X101285000Y-108437500D02*
X101285000Y-110722500D01*
X102755000Y-108437500D02*
X101285000Y-108437500D01*
X102755000Y-110722500D02*
X102755000Y-108437500D01*
X92552500Y-85146920D02*
X92552500Y-85428080D01*
X93572500Y-85146920D02*
X93572500Y-85428080D01*
%LPC*%
D16*
X103490000Y-98340000D03*
X105040000Y-98340000D03*
D17*
X138380000Y-114437500D03*
X138380000Y-115987500D03*
D18*
X102685000Y-114600000D03*
X103935000Y-114600000D03*
X105185000Y-114600000D03*
X106435000Y-114600000D03*
X107685000Y-114600000D03*
X108935000Y-114600000D03*
X110185000Y-114600000D03*
X111435000Y-114600000D03*
D19*
X100835000Y-117800000D03*
X113285000Y-117800000D03*
D18*
X70785000Y-114600000D03*
X72035000Y-114600000D03*
X73285000Y-114600000D03*
X74535000Y-114600000D03*
X75785000Y-114600000D03*
X77035000Y-114600000D03*
X78285000Y-114600000D03*
X79535000Y-114600000D03*
D19*
X68935000Y-117800000D03*
X81385000Y-117800000D03*
D16*
X103485000Y-96820000D03*
X105035000Y-96820000D03*
D20*
X67440000Y-99735000D03*
X67440000Y-98085000D03*
D21*
X69655000Y-104810000D03*
X68105000Y-104810000D03*
D22*
X69695000Y-106320000D03*
X68045000Y-106320000D03*
D23*
X96945980Y-76130000D03*
X96945980Y-78030000D03*
X99145980Y-77080000D03*
D24*
X163120000Y-75070000D03*
X162840000Y-117710000D03*
D25*
X98557500Y-88687500D03*
X98557500Y-95087500D03*
D26*
X104107500Y-88722500D03*
X104107500Y-91822500D03*
D27*
X66185000Y-88330000D03*
X67835000Y-88330000D03*
D24*
X63460000Y-118310000D03*
D28*
X104000000Y-103230000D03*
D29*
X105900000Y-103230000D03*
D30*
X82870000Y-94710000D03*
X82870000Y-94210000D03*
X82870000Y-93710000D03*
X82870000Y-93210000D03*
X82870000Y-92710000D03*
X82870000Y-92210000D03*
X82870000Y-91710000D03*
X82870000Y-91210000D03*
X82870000Y-90710000D03*
X82870000Y-90210000D03*
X82870000Y-89710000D03*
X82870000Y-89210000D03*
X82870000Y-88710000D03*
X82870000Y-88210000D03*
X82870000Y-87710000D03*
X82870000Y-87210000D03*
D31*
X82020000Y-86360000D03*
X81520000Y-86360000D03*
X81020000Y-86360000D03*
X80520000Y-86360000D03*
X80020000Y-86360000D03*
X79520000Y-86360000D03*
X79020000Y-86360000D03*
X78520000Y-86360000D03*
X78020000Y-86360000D03*
X77520000Y-86360000D03*
X77020000Y-86360000D03*
X76520000Y-86360000D03*
X76020000Y-86360000D03*
X75520000Y-86360000D03*
X75020000Y-86360000D03*
X74520000Y-86360000D03*
D32*
X73670000Y-87210000D03*
X73670000Y-87710000D03*
X73670000Y-88210000D03*
X73670000Y-88710000D03*
X73670000Y-89210000D03*
X73670000Y-89710000D03*
X73670000Y-90210000D03*
X73670000Y-90710000D03*
X73670000Y-91210000D03*
X73670000Y-91710000D03*
X73670000Y-92210000D03*
X73670000Y-92710000D03*
X73670000Y-93210000D03*
X73670000Y-93710000D03*
X73670000Y-94210000D03*
X73670000Y-94710000D03*
D33*
X74520000Y-95560000D03*
X75020000Y-95560000D03*
X75520000Y-95560000D03*
X76020000Y-95560000D03*
X76520000Y-95560000D03*
X77020000Y-95560000D03*
X77520000Y-95560000D03*
X78020000Y-95560000D03*
X78520000Y-95560000D03*
X79020000Y-95560000D03*
X79520000Y-95560000D03*
X80020000Y-95560000D03*
X80520000Y-95560000D03*
X81020000Y-95560000D03*
X81520000Y-95560000D03*
X82020000Y-95560000D03*
D34*
X78270000Y-90960000D03*
D18*
X86665000Y-114600000D03*
X87915000Y-114600000D03*
X89165000Y-114600000D03*
X90415000Y-114600000D03*
X91665000Y-114600000D03*
X92915000Y-114600000D03*
X94165000Y-114600000D03*
X95415000Y-114600000D03*
D19*
X84815000Y-117800000D03*
X97265000Y-117800000D03*
D21*
X70850000Y-85310000D03*
X69300000Y-85310000D03*
D17*
X150715000Y-114455000D03*
X150715000Y-116005000D03*
D20*
X68380000Y-96700000D03*
X68380000Y-95050000D03*
D35*
X99727500Y-84135000D03*
X99727500Y-86010000D03*
D36*
X68860000Y-103080000D03*
X71060000Y-103080000D03*
X71060000Y-101380000D03*
X68860000Y-101380000D03*
D37*
X83920000Y-96610000D03*
D38*
X105510000Y-83625000D03*
X107210000Y-83625000D03*
X107210000Y-81075000D03*
X105510000Y-81075000D03*
D20*
X70290000Y-96700000D03*
X70290000Y-95050000D03*
D17*
X96332500Y-84452500D03*
X96332500Y-86002500D03*
D39*
X72440000Y-99695000D03*
X72440000Y-98145000D03*
D40*
X77790000Y-103490000D03*
X78540000Y-101640000D03*
X78540000Y-105340000D03*
X80390000Y-100890000D03*
D41*
X80390000Y-103490000D03*
D40*
X80390000Y-106090000D03*
X82240000Y-101640000D03*
X82240000Y-105340000D03*
X82990000Y-103490000D03*
D17*
X141430000Y-114440000D03*
X141430000Y-115990000D03*
D28*
X104000000Y-101530000D03*
D29*
X105900000Y-101530000D03*
D39*
X152250000Y-115985000D03*
X152250000Y-114435000D03*
D42*
X68600000Y-109067500D03*
X68600000Y-110717500D03*
D43*
X101625000Y-103760000D03*
X98675000Y-103760000D03*
D20*
X97897500Y-86077500D03*
X97897500Y-84427500D03*
D37*
X72620000Y-85310000D03*
D20*
X103940000Y-83545000D03*
X103940000Y-81895000D03*
D24*
X63460000Y-84410000D03*
D20*
X69310000Y-99740000D03*
X69310000Y-98090000D03*
D17*
X94632500Y-84482500D03*
X94632500Y-86032500D03*
D22*
X70880000Y-88350000D03*
X69230000Y-88350000D03*
D17*
X124070000Y-114445000D03*
X124070000Y-115995000D03*
D44*
X70870000Y-98142500D03*
X70870000Y-99717500D03*
D45*
X92350000Y-97330000D03*
X95300000Y-97330000D03*
D39*
X139900000Y-115985000D03*
X139900000Y-114435000D03*
X125610000Y-115990000D03*
X125610000Y-114440000D03*
D20*
X66500000Y-96690000D03*
X66500000Y-95040000D03*
D46*
X101060000Y-97680000D03*
X98440000Y-97680000D03*
D16*
X103485000Y-99880000D03*
X105035000Y-99880000D03*
D20*
X63620000Y-99740000D03*
X63620000Y-98090000D03*
D42*
X100420000Y-109065000D03*
X100420000Y-110715000D03*
D20*
X89812500Y-86122500D03*
X89812500Y-84472500D03*
D27*
X69240000Y-86830000D03*
X70890000Y-86830000D03*
D40*
X151290000Y-103490000D03*
X152040000Y-101640000D03*
X152040000Y-105340000D03*
X153890000Y-100890000D03*
D41*
X153890000Y-103490000D03*
D40*
X153890000Y-106090000D03*
X155740000Y-101640000D03*
X155740000Y-105340000D03*
X156490000Y-103490000D03*
D47*
X110360000Y-102150000D03*
X110360000Y-99610000D03*
X110360000Y-97070000D03*
X110360000Y-94530000D03*
X110360000Y-91990000D03*
D48*
X119150000Y-74040000D03*
X121690000Y-74040000D03*
X124230000Y-74040000D03*
X126770000Y-74040000D03*
X129310000Y-74040000D03*
D47*
X150370000Y-80020000D03*
X150370000Y-82560000D03*
X150370000Y-85100000D03*
X150370000Y-87640000D03*
X150370000Y-90180000D03*
X150370000Y-92720000D03*
D48*
X140460000Y-111040000D03*
X137920000Y-111040000D03*
X135380000Y-111040000D03*
X132840000Y-111040000D03*
X130300000Y-111040000D03*
D17*
X127160000Y-114450000D03*
X127160000Y-116000000D03*
D49*
X131985000Y-116000000D03*
D50*
X133460000Y-117525000D03*
X130510000Y-117525000D03*
D49*
X145795000Y-116000000D03*
D50*
X147270000Y-117525000D03*
X144320000Y-117525000D03*
D20*
X64500000Y-96700000D03*
X64500000Y-95050000D03*
X108750000Y-83555000D03*
X108750000Y-81905000D03*
D49*
X118715000Y-116000000D03*
D50*
X120190000Y-117525000D03*
X117240000Y-117525000D03*
D17*
X153835000Y-114450000D03*
X153835000Y-116000000D03*
D42*
X84610000Y-109065000D03*
X84610000Y-110715000D03*
D51*
X72120000Y-96535000D03*
X72120000Y-95185000D03*
D44*
X136860000Y-114427500D03*
X136860000Y-116002500D03*
D52*
X93617500Y-89307500D03*
X92347500Y-89307500D03*
X91077500Y-89307500D03*
X89807500Y-89307500D03*
X89807500Y-94731500D03*
X91077500Y-94731500D03*
X92347500Y-94731500D03*
X93617500Y-94731500D03*
D53*
X91712500Y-92019500D03*
D46*
X101065000Y-100855000D03*
X98445000Y-100855000D03*
D20*
X65470000Y-99730000D03*
X65470000Y-98080000D03*
D44*
X86207500Y-109135000D03*
X86207500Y-110710000D03*
X70200000Y-109135000D03*
X70200000Y-110710000D03*
D27*
X103435000Y-93745000D03*
X105085000Y-93745000D03*
D16*
X103485000Y-95290000D03*
X105035000Y-95290000D03*
D20*
X91442500Y-86142500D03*
X91442500Y-84492500D03*
D44*
X102020000Y-109135000D03*
X102020000Y-110710000D03*
D17*
X93062500Y-84512500D03*
X93062500Y-86062500D03*
%LPD*%
M02*
