G04 #@! TF.GenerationSoftware,KiCad,Pcbnew,8.0.0-rc1*
G04 #@! TF.CreationDate,2025-03-27T12:12:56+03:00*
G04 #@! TF.ProjectId,GSM_CT_V1.0,47534d5f-4354-45f5-9631-2e302e6b6963,rev?*
G04 #@! TF.SameCoordinates,Original*
G04 #@! TF.FileFunction,Paste,Bot*
G04 #@! TF.FilePolarity,Positive*
%FSLAX46Y46*%
G04 Gerber Fmt 4.6, Leading zero omitted, Abs format (unit mm)*
G04 Created by KiCad (PCBNEW 8.0.0-rc1) date 2025-03-27 12:12:56*
%MOMM*%
%LPD*%
G01*
G04 APERTURE LIST*
G04 Aperture macros list*
%AMRoundRect*
0 Rectangle with rounded corners*
0 $1 Rounding radius*
0 $2 $3 $4 $5 $6 $7 $8 $9 X,Y pos of 4 corners*
0 Add a 4 corners polygon primitive as box body*
4,1,4,$2,$3,$4,$5,$6,$7,$8,$9,$2,$3,0*
0 Add four circle primitives for the rounded corners*
1,1,$1+$1,$2,$3*
1,1,$1+$1,$4,$5*
1,1,$1+$1,$6,$7*
1,1,$1+$1,$8,$9*
0 Add four rect primitives between the rounded corners*
20,1,$1+$1,$2,$3,$4,$5,0*
20,1,$1+$1,$4,$5,$6,$7,0*
20,1,$1+$1,$6,$7,$8,$9,0*
20,1,$1+$1,$8,$9,$2,$3,0*%
G04 Aperture macros list end*
%ADD10RoundRect,0.225000X0.225000X0.250000X-0.225000X0.250000X-0.225000X-0.250000X0.225000X-0.250000X0*%
%ADD11RoundRect,0.225000X-0.225000X-0.250000X0.225000X-0.250000X0.225000X0.250000X-0.225000X0.250000X0*%
%ADD12RoundRect,0.218750X-0.256250X0.218750X-0.256250X-0.218750X0.256250X-0.218750X0.256250X0.218750X0*%
%ADD13RoundRect,0.140000X0.170000X-0.140000X0.170000X0.140000X-0.170000X0.140000X-0.170000X-0.140000X0*%
%ADD14RoundRect,0.225000X-0.250000X0.225000X-0.250000X-0.225000X0.250000X-0.225000X0.250000X0.225000X0*%
%ADD15RoundRect,0.200000X0.200000X0.275000X-0.200000X0.275000X-0.200000X-0.275000X0.200000X-0.275000X0*%
%ADD16R,2.750000X1.000000*%
%ADD17RoundRect,0.200000X-0.275000X0.200000X-0.275000X-0.200000X0.275000X-0.200000X0.275000X0.200000X0*%
%ADD18RoundRect,0.140000X0.140000X0.170000X-0.140000X0.170000X-0.140000X-0.170000X0.140000X-0.170000X0*%
%ADD19R,0.700000X0.650000*%
%ADD20RoundRect,0.130435X-0.419565X0.169565X-0.419565X-0.169565X0.419565X-0.169565X0.419565X0.169565X0*%
%ADD21RoundRect,0.200000X-0.200000X-0.275000X0.200000X-0.275000X0.200000X0.275000X-0.200000X0.275000X0*%
%ADD22RoundRect,0.140000X-0.170000X0.140000X-0.170000X-0.140000X0.170000X-0.140000X0.170000X0.140000X0*%
%ADD23RoundRect,0.225000X0.250000X-0.225000X0.250000X0.225000X-0.250000X0.225000X-0.250000X-0.225000X0*%
%ADD24RoundRect,0.140000X-0.140000X-0.170000X0.140000X-0.170000X0.140000X0.170000X-0.140000X0.170000X0*%
%ADD25RoundRect,0.135000X-0.135000X-0.185000X0.135000X-0.185000X0.135000X0.185000X-0.135000X0.185000X0*%
%ADD26R,1.000000X2.750000*%
%ADD27R,1.300000X2.400000*%
G04 APERTURE END LIST*
D10*
X95177500Y-89327500D03*
X93627500Y-89327500D03*
D11*
X140225000Y-84810000D03*
X141775000Y-84810000D03*
D12*
X75200000Y-97172500D03*
X75200000Y-98747500D03*
D13*
X75790000Y-95400000D03*
X75790000Y-94440000D03*
D14*
X76760000Y-97185000D03*
X76760000Y-98735000D03*
D10*
X91072500Y-89352500D03*
X89522500Y-89352500D03*
D15*
X95215000Y-92410000D03*
X93565000Y-92410000D03*
D16*
X69813263Y-109908264D03*
X76063263Y-109908264D03*
X69813263Y-111908264D03*
X76063263Y-111908264D03*
X69813263Y-113908264D03*
X76063263Y-113908264D03*
X69813263Y-115908264D03*
X76063263Y-115908264D03*
D17*
X63620000Y-98090000D03*
X63620000Y-99740000D03*
D13*
X83850000Y-91910000D03*
X83850000Y-90950000D03*
D17*
X68380000Y-95050000D03*
X68380000Y-96700000D03*
D13*
X76780000Y-95400000D03*
X76780000Y-94440000D03*
D18*
X73650000Y-90270000D03*
X72690000Y-90270000D03*
D17*
X67440000Y-98095000D03*
X67440000Y-99745000D03*
X137600000Y-79770000D03*
X137600000Y-81420000D03*
D13*
X82850000Y-91910000D03*
X82850000Y-90950000D03*
D18*
X73640000Y-87200000D03*
X72680000Y-87200000D03*
D14*
X78320000Y-97165000D03*
X78320000Y-98715000D03*
X72410000Y-98150000D03*
X72410000Y-99700000D03*
D10*
X133115000Y-85550000D03*
X131565000Y-85550000D03*
D17*
X64500000Y-95050000D03*
X64500000Y-96700000D03*
D13*
X78290000Y-95400000D03*
X78290000Y-94440000D03*
X74600000Y-87140000D03*
X74600000Y-86180000D03*
D17*
X69320000Y-98090000D03*
X69320000Y-99740000D03*
D19*
X79870000Y-98635000D03*
X79870000Y-97285000D03*
D18*
X73620000Y-89190000D03*
X72660000Y-89190000D03*
D20*
X135090000Y-84805000D03*
X135090000Y-83855000D03*
X135090000Y-82905000D03*
X137590000Y-82905000D03*
X137590000Y-83855000D03*
X137590000Y-84805000D03*
D21*
X124745000Y-78090000D03*
X126395000Y-78090000D03*
D15*
X133125000Y-82410000D03*
X131475000Y-82410000D03*
D22*
X78530000Y-86190000D03*
X78530000Y-87150000D03*
D23*
X85130000Y-91635000D03*
X85130000Y-90085000D03*
D22*
X77020000Y-86180000D03*
X77020000Y-87140000D03*
D18*
X73660000Y-91250000D03*
X72700000Y-91250000D03*
D23*
X136060000Y-81375000D03*
X136060000Y-79825000D03*
D13*
X79280000Y-95400000D03*
X79280000Y-94440000D03*
D24*
X82840000Y-89980000D03*
X83800000Y-89980000D03*
D23*
X86690000Y-91625000D03*
X86690000Y-90075000D03*
D25*
X82860000Y-88980000D03*
X83880000Y-88980000D03*
D13*
X75580000Y-87140000D03*
X75580000Y-86180000D03*
D14*
X72120000Y-95115000D03*
X72120000Y-96665000D03*
D17*
X66500000Y-95040000D03*
X66500000Y-96690000D03*
D26*
X77650000Y-76545000D03*
X77650000Y-82795000D03*
X79650000Y-76545000D03*
X79650000Y-82795000D03*
X81650000Y-76545000D03*
X81650000Y-82795000D03*
X83650000Y-76545000D03*
X83650000Y-82795000D03*
X85650000Y-76545000D03*
X85650000Y-82795000D03*
D21*
X89515000Y-90890000D03*
X91165000Y-90890000D03*
D17*
X70870000Y-98085000D03*
X70870000Y-99735000D03*
D21*
X93565000Y-90880000D03*
X95215000Y-90880000D03*
X131475000Y-83990000D03*
X133125000Y-83990000D03*
D17*
X65470000Y-98080000D03*
X65470000Y-99730000D03*
D15*
X91145000Y-92410000D03*
X89495000Y-92410000D03*
D17*
X70290000Y-95050000D03*
X70290000Y-96700000D03*
D21*
X140175000Y-83250000D03*
X141825000Y-83250000D03*
D18*
X73610000Y-88200000D03*
X72650000Y-88200000D03*
D27*
X138990000Y-116450000D03*
X136450000Y-116450000D03*
X133910000Y-116450000D03*
X133910000Y-93250000D03*
X136450000Y-93250000D03*
X138990000Y-93250000D03*
X126590000Y-116450000D03*
X126590000Y-93250000D03*
D11*
X140225000Y-81700000D03*
X141775000Y-81700000D03*
D15*
X141825000Y-86380000D03*
X140175000Y-86380000D03*
D22*
X79510000Y-86180000D03*
X79510000Y-87140000D03*
M02*
