M48
; DRILL file {KiCad 8.0.0-rc1} date 2024-11-18T12:36:57+0300
; FORMAT={-:-/ absolute / inch / decimal}
; #@! TF.CreationDate,2024-11-18T12:36:57+03:00
; #@! TF.GenerationSoftware,Kicad,Pcbnew,8.0.0-rc1
; #@! TF.FileFunction,Plated,1,6,PTH
FMAT,2
INCH
; #@! TA.AperFunction,Plated,PTH,ViaDrill
T1C0.0079
; #@! TA.AperFunction,Plated,PTH,ViaDrill
T2C0.0100
; #@! TA.AperFunction,Plated,PTH,ViaDrill
T3C0.0138
; #@! TA.AperFunction,Plated,PTH,ComponentDrill
T4C0.0138
; #@! TA.AperFunction,Plated,PTH,ViaDrill
T5C0.0157
; #@! TA.AperFunction,Plated,PTH,ViaDrill
T6C0.0197
; #@! TA.AperFunction,Plated,PTH,ComponentDrill
T7C0.0197
; #@! TA.AperFunction,Plated,PTH,ComponentDrill
T8C0.0217
; #@! TA.AperFunction,Plated,PTH,ViaDrill
T9C0.0236
; #@! TA.AperFunction,Plated,PTH,ComponentDrill
T10C0.0236
; #@! TA.AperFunction,Plated,PTH,ViaDrill
T11C0.0276
; #@! TA.AperFunction,Plated,PTH,ComponentDrill
T12C0.0276
; #@! TA.AperFunction,Plated,PTH,ViaDrill
T13C0.0295
; #@! TA.AperFunction,Plated,PTH,ComponentDrill
T14C0.0295
; #@! TA.AperFunction,Plated,PTH,ComponentDrill
T15C0.0299
; #@! TA.AperFunction,Plated,PTH,ComponentDrill
T16C0.0300
; #@! TA.AperFunction,Plated,PTH,ComponentDrill
T17C0.0315
; #@! TA.AperFunction,Plated,PTH,ComponentDrill
T18C0.0335
; #@! TA.AperFunction,Plated,PTH,ComponentDrill
T19C0.0350
; #@! TA.AperFunction,Plated,PTH,ComponentDrill
T20C0.0394
; #@! TA.AperFunction,Plated,PTH,ComponentDrill
T21C0.0398
; #@! TA.AperFunction,Plated,PTH,ComponentDrill
T22C0.0433
; #@! TA.AperFunction,Plated,PTH,ComponentDrill
T23C0.0472
; #@! TA.AperFunction,Plated,PTH,ComponentDrill
T24C0.0551
; #@! TA.AperFunction,Plated,PTH,ComponentDrill
T25C0.0591
; #@! TA.AperFunction,Plated,PTH,ComponentDrill
T26C0.0630
; #@! TA.AperFunction,Plated,PTH,ComponentDrill
T27C0.0709
; #@! TA.AperFunction,Plated,PTH,ComponentDrill
T28C0.1575
; #@! TA.AperFunction,Plated,PTH,ComponentDrill
T29C0.1661
%
G90
G05
T1
X1.998Y-5.928
X1.998Y-6.0606
X1.998Y-6.3996
X1.998Y-6.5323
X1.9988Y-6.1433
X1.9988Y-6.276
X2.0173Y-5.2744
X2.0173Y-5.4071
X2.035Y-4.0571
X2.035Y-4.1898
X2.1039Y-5.928
X2.1039Y-5.9748
X2.1614Y-3.3413
X2.1972Y-2.6323
X2.2146Y-2.6134
X2.2366Y-5.928
X2.2366Y-5.9748
X2.2374Y-5.8752
X2.2906Y-1.9709
X2.2906Y-2.1035
X2.3449Y-6.2244
X2.3457Y-6.0256
X2.3457Y-6.0917
X2.3457Y-6.1575
X2.352Y-5.5882
X2.3701Y-5.8752
X2.3858Y-4.2346
X2.3866Y-4.1579
X2.3866Y-4.3252
X2.4512Y-3.8843
X2.4555Y-3.9543
X2.4713Y-4.0059
X2.4776Y-6.2244
X2.4776Y-6.3126
X2.4776Y-6.4453
X2.4783Y-6.0256
X2.4783Y-6.0917
X2.4783Y-6.1575
X2.4846Y-5.5882
X2.4996Y-4.0508
X2.5571Y-2.9906
X2.5591Y-2.6075
X2.563Y-4.102
X2.5728Y-1.972
X2.5728Y-2.1047
X2.6835Y-5.1646
X2.6846Y-5.2394
X2.6858Y-5.3157
X2.7248Y-5.0684
X2.7248Y-5.0891
X2.7417Y-1.2189
X2.7437Y-1.4161
X2.7508Y-1.3516
X2.7902Y-5.4207
X2.7902Y-5.4415
X2.7984Y-5.1933
X2.7984Y-5.2689
X2.8016Y-5.1157
X2.8098Y-3.448
X2.8106Y-2.8815
X2.8394Y-3.1783
X2.8516Y-3.335
X2.8744Y-1.2189
X2.8764Y-1.4161
X2.8835Y-1.3516
X2.9024Y-1.787
X2.9047Y-1.7
X2.9228Y-4.2071
X2.9295Y-4.3449
X2.9311Y-5.1933
X2.9311Y-5.2689
X2.9343Y-5.1157
X2.9433Y-2.9512
X2.9587Y-2.2213
X2.9622Y-2.278
X2.963Y-2.0232
X2.9717Y-4.5563
X2.9807Y-4.8272
X2.9839Y-4.0862
X2.9945Y-1.2189
X2.9965Y-1.4161
X3.0035Y-1.3516
X3.0173Y-3.15
X3.0224Y-6.0335
X3.0285Y-2.7381
X3.035Y-1.787
X3.0374Y-1.7
X3.0555Y-4.2071
X3.0634Y-3.6835
X3.0894Y-5.248
X3.0949Y-2.1925
X3.0949Y-2.278
X3.0957Y-2.0232
X3.0957Y-2.1102
X3.1043Y-4.5563
X3.1134Y-4.8272
X3.1165Y-4.0862
X3.1197Y-2.9886
X3.1547Y-3.0146
X3.1551Y-1.787
X3.1575Y-1.7
X3.1756Y-4.2071
X3.1961Y-3.6835
X3.215Y-2.1925
X3.215Y-2.278
X3.2157Y-2.0232
X3.2157Y-2.1102
X3.2165Y-2.8224
X3.2244Y-4.5563
X3.2335Y-4.8272
X3.2366Y-4.0862
X3.2382Y-2.8224
X3.2673Y-1.5394
X3.2673Y-1.7252
X3.2681Y-1.672
X3.2689Y-1.5957
X3.2925Y-5.3685
X3.3031Y-2.1386
X3.3039Y-2.0705
X3.3146Y-1.8161
X3.3161Y-3.6835
X3.3461Y-2.9661
X3.3752Y-3.1378
X3.4Y-1.5394
X3.4Y-1.7252
X3.4008Y-1.672
X3.4016Y-1.5957
X3.4059Y-2.3083
X3.4067Y-1.8118
X3.4067Y-2.3764
X3.4075Y-2.0602
X3.4098Y-2.1228
X3.4106Y-2.1953
X3.4469Y-5.3587
X3.4469Y-5.4882
X3.4839Y-1.4937
X3.4862Y-4.1508
X3.489Y-3.0461
X3.5012Y-2.8689
X3.5075Y-2.7976
X3.5079Y-2.0622
X3.5083Y-2.1866
X3.5087Y-2.1303
X3.5102Y-1.811
X3.511Y-2.2898
X3.5118Y-2.3693
X3.5201Y-1.5394
X3.5201Y-1.7252
X3.5209Y-1.672
X3.5217Y-1.5957
X3.5332Y-2.7764
X3.535Y-3.0091
X3.5449Y-1.4921
X3.549Y-2.9179
X3.55Y-2.8929
X3.5539Y-3.398
X3.5583Y-2.7579
X3.5591Y-2.9846
X3.6087Y-1.7386
X3.6118Y-1.813
X3.6122Y-1.598
X3.6126Y-1.6705
X3.6177Y-4.5346
X3.6299Y-2.8803
X3.633Y-2.9138
X3.6548Y-2.7689
X3.6583Y-5.3654
X3.6583Y-5.4882
X3.6602Y-2.9694
X3.6835Y-4.2161
X3.6937Y-2.7665
X3.6984Y-3.0583
X3.71Y-2.9729
X3.7203Y-2.6748
X3.7244Y-2.098
X3.7244Y-2.2181
X3.7252Y-3.0774
X3.7307Y-1.6791
X3.7307Y-1.7992
X3.7307Y-1.9319
X3.735Y-2.6394
X3.7354Y-1.5197
X3.7429Y-3.0555
X3.7449Y-1.598
X3.7504Y-4.5346
X3.7598Y-1.3362
X3.7618Y-2.6394
X3.7673Y-3.2512
X3.7705Y-3.0551
X3.7713Y-2.7681
X3.7724Y-2.9701
X3.7783Y-5.3654
X3.7783Y-5.4882
X3.7866Y-2.7
X3.7886Y-4.2453
X3.7926Y-3.0484
X3.8047Y-2.6752
X3.8208Y-2.9714
X3.8358Y-2.8173
X3.839Y-2.6823
X3.8394Y-1.7988
X3.8394Y-1.9315
X3.8476Y-2.7071
X3.8524Y-5.489
X3.8681Y-1.5197
X3.8685Y-5.3681
X3.8705Y-4.5346
X3.8724Y-1.572
X3.8925Y-1.3362
X3.8984Y-4.8976
X3.9051Y-4.7395
X3.9159Y-2.8902
X3.9173Y-5.5681
X3.9213Y-3.0055
X3.9234Y-2.7439
X3.9394Y-2.8266
X3.9447Y-2.7713
X3.9547Y-2.4953
X3.9601Y-2.8468
X3.9654Y-2.8004
X3.9665Y-2.6551
X3.9765Y-2.228
X3.977Y-1.1211
X3.9807Y-4.4173
X3.9807Y-4.5374
X3.9807Y-4.6701
X3.9835Y-4.9343
X3.9835Y-5.0543
X3.9835Y-5.187
X3.985Y-5.489
X3.9972Y-1.3362
X4.0012Y-5.3681
X4.0022Y-2.228
X4.0311Y-2.4134
X4.0362Y-1.0705
X4.0551Y-2.3272
X4.0659Y-3.9526
X4.0843Y-4.3535
X4.0843Y-4.4736
X4.0843Y-4.6063
X4.1008Y-4.9343
X4.1008Y-5.0543
X4.1008Y-5.187
X4.1051Y-5.489
X4.1213Y-5.3681
X4.1264Y-3.039
X4.1299Y-1.3362
X4.1638Y-2.4134
X4.1689Y-1.0705
X4.178Y-4.1925
X4.1787Y-3.0583
X4.1878Y-2.3272
X4.1937Y-3.2075
X4.198Y-4.2386
X4.2087Y-4.1488
X4.2127Y-2.2248
X4.2146Y-6.4264
X4.2146Y-6.5382
X4.215Y-6.2028
X4.215Y-6.3087
X4.2201Y-1.3327
X4.2248Y-2.6374
X4.2299Y-5.9831
X4.2299Y-6.0965
X4.2303Y-4.2661
X4.2311Y-4.4693
X4.2311Y-4.5248
X4.2315Y-4.3102
X4.2315Y-4.3594
X4.2315Y-4.4083
X4.2315Y-4.5831
X4.2315Y-4.6339
X4.2315Y-5.6681
X4.2315Y-5.7701
X4.2315Y-5.8823
X4.2323Y-4.6925
X4.2323Y-4.7413
X4.2327Y-4.8004
X4.2331Y-4.9559
X4.2331Y-5.265
X4.2331Y-5.3543
X4.2331Y-5.4539
X4.2331Y-5.5673
X4.2335Y-5.0283
X4.2335Y-5.1031
X4.2335Y-5.1768
X4.237Y-4.8709
X4.2385Y-2.2248
X4.2555Y-2.4551
X4.2567Y-4.1488
X4.278Y-4.9106
X4.2827Y-1.7035
X4.2933Y-2.561
X4.2937Y-2.6252
X4.3016Y-4.5783
X4.3016Y-4.6315
X4.3016Y-4.6921
X4.302Y-4.5244
X4.302Y-4.7413
X4.302Y-4.7969
X4.3024Y-4.4075
X4.3024Y-4.4614
X4.3028Y-4.313
X4.3028Y-4.3622
X4.3079Y-2.3272
X4.313Y-4.1488
X4.313Y-4.2228
X4.3161Y-2.7193
X4.3161Y-2.8394
X4.3161Y-2.972
X4.3327Y-4.8453
X4.3398Y-2.3945
X4.3429Y-1.726
X4.3472Y-6.4264
X4.3472Y-6.5382
X4.3476Y-6.2028
X4.3476Y-6.3087
X4.3524Y-1.2217
X4.3528Y-1.3327
X4.3531Y-4.9248
X4.3622Y-5.2181
X4.3681Y-5.4579
X4.3681Y-5.578
X4.3681Y-5.7106
X4.3685Y-4.2228
X4.3709Y-4.1488
X4.3713Y-5.8429
X4.3713Y-5.963
X4.3713Y-6.0957
X4.3736Y-5.3563
X4.3773Y-2.2264
X4.3827Y-1.0732
X4.3882Y-2.4551
X4.3953Y-4.8567
X4.3988Y-4.5717
X4.4Y-2.7756
X4.4Y-2.8394
X4.4008Y-3.1213
X4.4008Y-4.6323
X4.4008Y-4.6878
X4.4008Y-4.7386
X4.4012Y-4.3142
X4.4012Y-4.3638
X4.4012Y-4.4079
X4.403Y-2.2264
X4.4043Y-2.9728
X4.4122Y-4.9984
X4.4201Y-4.9248
X4.426Y-2.561
X4.4264Y-2.6252
X4.428Y-4.7831
X4.4299Y-4.2228
X4.4315Y-5.2169
X4.4323Y-4.1488
X4.4469Y-4.9976
X4.45Y-4.2949
X4.4673Y-6.5382
X4.4724Y-2.3945
X4.4728Y-1.3354
X4.4756Y-1.2217
X4.4764Y-2.4543
X4.4783Y-2.3252
X4.4858Y-2.7417
X4.487Y-4.1488
X4.4925Y-4.8571
X4.4937Y-5.3563
X4.4941Y-5.2728
X4.502Y-4.7902
X4.5051Y-4.9248
X4.5106Y-4.4465
X4.5106Y-4.5185
X4.5106Y-4.5752
X4.5106Y-4.6406
X4.5106Y-4.7012
X4.511Y-4.374
X4.5154Y-1.0732
X4.5287Y-4.2976
X4.5378Y-4.222
X4.5382Y-4.1488
X4.5445Y-2.9693
X4.5465Y-2.6252
X4.5524Y-5.2748
X4.5563Y-2.9366
X4.5579Y-2.7567
X4.5587Y-1.6618
X4.5717Y-6.5382
X4.572Y-4.9248
X4.5921Y-2.3859
X4.5949Y-6.1358
X4.5957Y-5.3909
X4.602Y-4.8571
X4.6055Y-1.3354
X4.608Y-2.2248
X4.6091Y-2.4543
X4.6102Y-4.637
X4.6103Y-2.3677
X4.611Y-2.3252
X4.6287Y-6.1685
X4.6337Y-2.2248
X4.6398Y-5.9823
X4.6449Y-4.7012
X4.6492Y-4.4512
X4.6492Y-4.5043
X4.6492Y-4.5622
X4.6492Y-4.6224
X4.6555Y-2.8272
X4.6563Y-2.863
X4.6587Y-6.1386
X4.6602Y-2.7925
X4.6606Y-5.4154
X4.6606Y-5.5272
X4.661Y-5.1917
X4.661Y-5.2976
X4.6634Y-1.0732
X4.6685Y-2.598
X4.6795Y-2.3658
X4.6917Y-6.1173
X4.6953Y-2.7685
X4.6977Y-2.3476
X4.702Y-4.924
X4.7039Y-3.522
X4.7039Y-3.6028
X4.7039Y-3.6996
X4.7043Y-1.3291
X4.7043Y-2.6051
X4.7043Y-6.5382
X4.7134Y-4.8567
X4.7181Y-4.5051
X4.7185Y-4.4602
X4.7209Y-4.5937
X4.7209Y-4.6362
X4.7254Y-4.2138
X4.7256Y-6.1697
X4.7339Y-4.7008
X4.7429Y-1.726
X4.747Y-4.2138
X4.7528Y-2.3728
X4.7594Y-6.1354
X4.7642Y-4.924
X4.7673Y-3.2169
X4.7717Y-3.1465
X4.7803Y-4.6366
X4.7807Y-4.5937
X4.7811Y-3.252
X4.7837Y-4.2157
X4.7839Y-1.5236
X4.785Y-2.6673
X4.7929Y-3.1106
X4.7933Y-5.4154
X4.7933Y-5.5272
X4.7937Y-5.1917
X4.7937Y-5.2976
X4.7961Y-1.0732
X4.7996Y-3.076
X4.8004Y-5.8713
X4.8004Y-5.9831
X4.8008Y-5.6476
X4.8008Y-5.7535
X4.8016Y-2.2165
X4.8016Y-2.3591
X4.8016Y-3.0382
X4.802Y-6.1319
X4.8053Y-4.2157
X4.8075Y-2.7709
X4.8244Y-4.7051
X4.8244Y-6.5382
X4.8264Y-4.3181
X4.8366Y-3.522
X4.8366Y-3.6028
X4.8366Y-3.6996
X4.837Y-1.3291
X4.839Y-4.6055
X4.8394Y-3.0031
X4.8394Y-6.1394
X4.8402Y-5.0331
X4.8406Y-4.924
X4.8406Y-4.9787
X4.8413Y-4.8575
X4.8461Y-2.6016
X4.8463Y-4.2165
X4.8571Y-1.8839
X4.8571Y-2.0165
X4.8626Y-6.1067
X4.8679Y-4.2165
X4.8945Y-4.6055
X4.8972Y-6.1748
X4.9043Y-4.924
X4.9043Y-5.0331
X4.9049Y-4.2138
X4.9051Y-1.7024
X4.9059Y-1.3248
X4.9064Y-4.9792
X4.9134Y-5.4154
X4.9134Y-5.5272
X4.9138Y-5.1917
X4.9138Y-5.2976
X4.9205Y-4.4925
X4.9266Y-4.2138
X4.9287Y-4.8575
X4.9331Y-5.8713
X4.9331Y-5.9831
X4.9335Y-5.6476
X4.9335Y-5.7535
X4.9343Y-2.2165
X4.9343Y-2.3591
X4.9378Y-2.7705
X4.9409Y-4.9516
X4.9531Y-6.1413
X4.9567Y-3.522
X4.9567Y-3.6028
X4.9567Y-3.6996
X4.9595Y-4.3057
X4.963Y-4.7886
X4.965Y-4.7268
X4.9657Y-6.5295
X4.9713Y-6.1071
X4.978Y-2.6732
X4.9803Y-4.3057
X5.0047Y-4.4839
X5.0047Y-4.8681
X5.0058Y-3.1831
X5.0264Y-4.7886
X5.0287Y-4.911
X5.0287Y-4.9681
X5.0291Y-2.3917
X5.0304Y-4.3063
X5.0378Y-2.6024
X5.0382Y-5.0933
X5.0386Y-1.3248
X5.0398Y-4.6094
X5.0445Y-6.139
X5.0511Y-4.3063
X5.0531Y-5.8713
X5.0531Y-5.9831
X5.0535Y-5.6476
X5.0535Y-5.7535
X5.0547Y-5.4067
X5.0547Y-5.5185
X5.0551Y-5.1831
X5.0551Y-5.289
X5.0654Y-3.1386
X5.0748Y-4.8177
X5.0984Y-6.5295
X5.1Y-4.4776
X5.1012Y-4.2354
X5.1189Y-4.865
X5.1205Y-6.139
X5.122Y-4.2354
X5.1248Y-4.6059
X5.1291Y-4.9083
X5.1291Y-4.9567
X5.1362Y-5.0933
X5.1378Y-4.0819
X5.1516Y-1.3232
X5.1602Y-3.6996
X5.1602Y-4.478
X5.161Y-3.5232
X5.161Y-3.6146
X5.1614Y-6.0508
X5.1622Y-6.0154
X5.1622Y-6.0898
X5.1626Y-6.1346
X5.1713Y-5.8492
X5.1713Y-5.961
X5.1717Y-5.6256
X5.1717Y-5.7315
X5.1721Y-4.0059
X5.1752Y-3.2882
X5.1799Y-1.5217
X5.1874Y-5.4067
X5.1874Y-5.5185
X5.1878Y-5.1831
X5.1878Y-5.289
X5.1929Y-4.0059
X5.1972Y-4.7701
X5.198Y-3.1386
X5.2004Y-6.1398
X5.2177Y-5.0933
X5.2185Y-6.5295
X5.2268Y-4.9591
X5.2303Y-4.7087
X5.2311Y-4.6039
X5.243Y-4.0858
X5.2437Y-3.3236
X5.2563Y-4.4736
X5.2614Y-1.7634
X5.2622Y-6.139
X5.2637Y-4.0858
X5.2787Y-3.3591
X5.2815Y-4.6031
X5.2843Y-1.3232
X5.3039Y-5.8492
X5.3039Y-5.961
X5.3043Y-5.6256
X5.3043Y-5.7315
X5.3047Y-6.5264
X5.3051Y-6.1909
X5.3075Y-5.4067
X5.3075Y-5.5185
X5.3079Y-5.1831
X5.3079Y-5.289
X5.3098Y-3.3941
X5.3138Y-3.9382
X5.3146Y-4.6437
X5.3181Y-3.1386
X5.3331Y-5.1429
X5.3339Y-4.7134
X5.3339Y-4.8122
X5.3346Y-3.9382
X5.335Y-4.9071
X5.3402Y-5.8496
X5.3421Y-2.5816
X5.3429Y-6.163
X5.352Y-2.8075
X5.3567Y-4.2701
X5.3618Y-2.3866
X5.3618Y-6.1197
X5.3639Y-2.2345
X5.3642Y-5.9736
X5.3728Y-2.8878
X5.3736Y-4.4736
X5.3815Y-3.4228
X5.3847Y-4.0902
X5.3897Y-2.2345
X5.3937Y-5.4035
X5.3937Y-5.5154
X5.3941Y-5.1799
X5.3941Y-5.2858
X5.3954Y-2.8747
X5.3976Y-2.7823
X5.4Y-5.7803
X5.4024Y-3.9126
X5.4055Y-4.0902
X5.4055Y-6.1846
X5.415Y-1.7008
X5.4201Y-2.8587
X5.4218Y-1.1079
X5.4236Y-5.1343
X5.424Y-2.761
X5.424Y-5.8492
X5.424Y-5.961
X5.4244Y-5.6256
X5.4244Y-5.7315
X5.426Y-3.9114
X5.4276Y-4.7488
X5.4276Y-4.8083
X5.4276Y-4.9079
X5.4299Y-1.326
X5.4303Y-1.4252
X5.4315Y-4.5299
X5.4354Y-4.6555
X5.4362Y-5.0917
X5.437Y-6.1102
X5.4374Y-6.5264
X5.4378Y-6.1441
X5.4378Y-6.1909
X5.4421Y-5.1969
X5.4457Y-3.7276
X5.472Y-6.1346
X5.4823Y-5.1343
X5.4884Y-5.8729
X5.4945Y-2.3866
X5.4961Y-4.5906
X5.5015Y-5.2388
X5.5028Y-4.8465
X5.5079Y-5.6402
X5.5079Y-5.752
X5.5083Y-5.4165
X5.5083Y-5.5224
X5.5152Y-2.6991
X5.524Y-4.7378
X5.5358Y-6.135
X5.536Y-2.6991
X5.5449Y-5.2379
X5.5492Y-5.1705
X5.5551Y-3.9197
X5.5555Y-3.0909
X5.5575Y-6.5264
X5.5579Y-6.1909
X5.5619Y-2.6976
X5.5626Y-1.326
X5.563Y-1.4252
X5.5654Y-6.1626
X5.5657Y-5.1343
X5.5689Y-5.9685
X5.5792Y-5.87
X5.5799Y-3.0051
X5.5799Y-3.9189
X5.5826Y-2.6976
X5.5843Y-5.2339
X5.5976Y-4.5846
X5.6009Y-2.2228
X5.6063Y-3.0693
X5.6063Y-3.9169
X5.6118Y-4.7067
X5.6197Y-5.9669
X5.6209Y-4.8701
X5.6209Y-4.9362
X5.6224Y-6.1657
X5.6254Y-2.5988
X5.6267Y-2.2228
X5.6276Y-5.0969
X5.6289Y-3.3427
X5.6295Y-4.8142
X5.6311Y-3.9169
X5.6362Y-4.3087
X5.6406Y-5.6402
X5.6406Y-5.752
X5.6409Y-5.4165
X5.6409Y-5.5224
X5.6449Y-5.8693
X5.6476Y-4.6374
X5.6492Y-4.7437
X5.6516Y-3.4024
X5.6547Y-1.3205
X5.6547Y-3.9169
X5.6559Y-5.1406
X5.6705Y-5.9669
X5.6783Y-6.1717
X5.68Y-2.6031
X5.6811Y-3.4646
X5.6811Y-3.9181
X5.6976Y-2.3882
X5.7058Y-2.6031
X5.7087Y-5.8563
X5.7118Y-3.9213
X5.7122Y-2.6949
X5.7311Y-5.9677
X5.7343Y-1.0705
X5.7429Y-4.4453
X5.7457Y-2.8906
X5.7457Y-3.665
X5.752Y-5.8268
X5.7602Y-6.0618
X5.7606Y-5.6402
X5.7606Y-5.752
X5.7606Y-6.0087
X5.7607Y-2.2268
X5.761Y-5.4165
X5.761Y-5.5224
X5.7634Y-5.0898
X5.7634Y-5.1681
X5.765Y-6.1248
X5.7681Y-4.4457
X5.7756Y-4.7567
X5.776Y-4.9362
X5.7768Y-4.813
X5.7772Y-4.8724
X5.7865Y-2.2268
X5.7874Y-1.3205
X5.7929Y-6.1579
X5.8161Y-5.3898
X5.8287Y-4.0461
X5.8303Y-2.3882
X5.8319Y-5.1681
X5.8323Y-5.0898
X5.8362Y-5.9815
X5.8398Y-2.8898
X5.8398Y-5.878
X5.8433Y-3.128
X5.8508Y-4.8724
X5.8563Y-4.8146
X5.8575Y-3.3886
X5.8579Y-4.9362
X5.8591Y-1.7008
X5.8591Y-5.3898
X5.8598Y-6.0937
X5.8602Y-3.9024
X5.861Y-3.9657
X5.8626Y-3.6937
X5.863Y-3.5709
X5.8669Y-1.0705
X5.8705Y-2.7579
X5.8732Y-4.5094
X5.8736Y-4.4531
X5.8748Y-6.5236
X5.8752Y-6.1882
X5.8819Y-5.1681
X5.8874Y-5.2949
X5.8878Y-5.3472
X5.8894Y-5.448
X5.8902Y-4.113
X5.8906Y-5.5087
X5.8906Y-5.5811
X5.8913Y-5.6465
X5.8933Y-3.0165
X5.902Y-5.0898
X5.9047Y-5.7906
X5.9134Y-1.3161
X5.9276Y-4.8118
X5.928Y-4.8724
X5.9287Y-4.9362
X5.935Y-5.1976
X5.9394Y-5.3409
X5.9398Y-4.1146
X5.961Y-2.3866
X5.9642Y-5.6465
X5.9646Y-4.1945
X5.9657Y-5.2374
X5.9689Y-5.9815
X5.9701Y-5.0898
X5.9724Y-2.8898
X5.9724Y-5.878
X5.9728Y-5.2862
X5.976Y-3.128
X5.9803Y-1.0705
X5.9813Y-3.0073
X5.985Y-5.7902
X5.9902Y-3.3886
X5.9913Y-4.0528
X5.9925Y-6.0937
X5.9929Y-3.9024
X5.9937Y-3.9657
X5.9953Y-3.6937
X5.9957Y-3.5709
X5.9965Y-4.9374
X5.9966Y-2.2248
X5.9976Y-4.872
X6.0024Y-5.3673
X6.0031Y-2.7579
X6.0075Y-6.5236
X6.0079Y-6.1882
X6.0102Y-5.3087
X6.0114Y-4.811
X6.0223Y-2.2248
X6.0295Y-5.1063
X6.0343Y-4.261
X6.0386Y-5.6469
X6.0417Y-3.0098
X6.0461Y-1.3161
X6.0555Y-4.939
X6.0559Y-5.7902
X6.0567Y-4.8106
X6.0571Y-4.872
X6.0717Y-5.1488
X6.0862Y-4.3374
X6.0925Y-2.8898
X6.0937Y-2.3866
X6.0961Y-3.128
X6.1047Y-5.6472
X6.1098Y-5.1866
X6.1102Y-3.3886
X6.1106Y-4.0504
X6.1126Y-6.0937
X6.113Y-1.0705
X6.113Y-3.9024
X6.1138Y-3.9657
X6.115Y-5.7902
X6.1157Y-3.5709
X6.1209Y-4.3374
X6.1213Y-3.0677
X6.1224Y-4.9638
X6.1232Y-2.7579
X6.1276Y-6.5236
X6.128Y-1.4185
X6.128Y-6.1882
X6.1469Y-5.2217
X6.1701Y-5.5843
X6.1713Y-5.0091
X6.1752Y-1.3154
X6.1776Y-5.9772
X6.1929Y-1.774
X6.1929Y-1.8685
X6.2094Y-1.5154
X6.2098Y-5.2035
X6.213Y-5.0528
X6.2256Y-2.385
X6.2307Y-1.0705
X6.2413Y-3.9827
X6.2425Y-2.8205
X6.2469Y-2.9118
X6.2492Y-3.678
X6.2496Y-3.5343
X6.2516Y-5.0913
X6.2567Y-4.3169
X6.2606Y-1.4185
X6.2774Y-4.0122
X6.2882Y-4.7764
X6.2921Y-2.7528
X6.2982Y-4.0122
X6.3Y-5.1398
X6.3079Y-1.3154
X6.31Y-4.3621
X6.3122Y-4.3366
X6.313Y-2.8984
X6.3188Y-3.8732
X6.3209Y-4.1913
X6.3232Y-6.4102
X6.3232Y-6.522
X6.3236Y-6.1866
X6.3236Y-6.2925
X6.3256Y-1.774
X6.3256Y-1.8685
X6.3366Y-5.176
X6.3395Y-3.8732
X6.3476Y-4.8362
X6.3583Y-2.385
X6.3634Y-1.0705
X6.3701Y-5.5189
X6.3732Y-2.9799
X6.3756Y-3.2051
X6.3783Y-1.7071
X6.3909Y-5.2287
X6.4059Y-5.3362
X6.4059Y-5.4543
X6.4063Y-4.8941
X6.4063Y-5.2799
X6.4067Y-5.3913
X6.4102Y-4.7417
X6.4268Y-5.5031
X6.428Y-1.7736
X6.4461Y-3.9815
X6.4476Y-4.2331
X6.4504Y-2.7421
X6.4508Y-2.7665
X6.4559Y-6.4102
X6.4559Y-6.522
X6.4563Y-6.1866
X6.4563Y-6.2925
X6.4575Y-5.6854
X6.463Y-5.539
X6.4668Y-4.8014
X6.4744Y-5.6232
X6.4839Y-4.3355
X6.4925Y-4.9815
X6.4925Y-5.7205
X6.5047Y-5.5823
X6.5191Y-5.6679
X6.5236Y-5.7524
X6.5277Y-2.215
X6.5335Y-4.7406
X6.5346Y-4.8677
X6.5398Y-5.0276
X6.548Y-5.6252
X6.5534Y-2.215
X6.5614Y-5.7106
X6.576Y-6.4102
X6.576Y-6.522
X6.5764Y-6.1866
X6.5764Y-6.2925
X6.5886Y-4.913
X6.5898Y-5.6646
X6.5957Y-5.5882
X6.5969Y-1.3043
X6.6012Y-5.7508
X6.6071Y-3.1898
X6.6079Y-3.1319
X6.6146Y-2.8205
X6.6172Y-1.5236
X6.6197Y-1.7094
X6.6209Y-3.9492
X6.623Y-3.8566
X6.624Y-5.6996
X6.6358Y-5.6315
X6.6362Y-5.7854
X6.6398Y-4.6173
X6.6425Y-3.8724
X6.65Y-4.2795
X6.6516Y-4.9843
X6.6572Y-3.9907
X6.6646Y-4.8165
X6.6661Y-4.7406
X6.6697Y-3.8079
X6.6728Y-5.6555
X6.6736Y-5.9008
X6.6791Y-1.5665
X6.6803Y-5.4161
X6.6846Y-2.7672
X6.6846Y-2.7879
X6.6846Y-3.8236
X6.6945Y-5.7657
X6.6965Y-2.898
X6.7004Y-5.9008
X6.7035Y-5.0354
X6.7083Y-2.6882
X6.7087Y-4.2161
X6.715Y-5.2591
X6.7165Y-5.9173
X6.7165Y-5.9429
X6.7169Y-4.0831
X6.7197Y-2.7278
X6.7197Y-2.7486
X6.7217Y-2.4352
X6.7217Y-2.4609
X6.7232Y-1.3067
X6.735Y-1.0748
X6.7398Y-3.1898
X6.7406Y-3.1319
X6.7433Y-1.4193
X6.7457Y-1.6933
X6.7457Y-2.5285
X6.7457Y-2.5542
X6.7465Y-4.0713
X6.7512Y-6.0268
X6.7528Y-5.7657
X6.7535Y-5.4959
X6.7606Y-5.6528
X6.7606Y-5.6933
X6.7623Y-2.2122
X6.763Y-4.8921
X6.7862Y-4.7406
X6.7881Y-2.2122
X6.7913Y-6.0921
X6.7972Y-4.8165
X6.8Y-5.0295
X6.8039Y-3.8043
X6.8043Y-5.6516
X6.8051Y-5.502
X6.8051Y-5.6957
X6.8083Y-5.3941
X6.8091Y-5.3557
X6.811Y-6.0283
X6.8122Y-5.7654
X6.8145Y-2.4413
X6.8146Y-2.8934
X6.8232Y-2.5626
X6.8236Y-2.7311
X6.8252Y-1.3122
X6.8303Y-2.6315
X6.8352Y-2.4415
X6.8421Y-6.1228
X6.8512Y-2.4102
X6.8677Y-1.0748
X6.8715Y-5.6803
X6.8728Y-6.0287
X6.876Y-1.4193
X6.8763Y-2.4099
X6.8783Y-4.1898
X6.8811Y-3.2909
X6.8831Y-3.0409
X6.887Y-4.8941
X6.891Y-2.5199
X6.8921Y-5.7469
X6.8931Y-5.6803
X6.8957Y-1.6035
X6.8965Y-6.0839
X6.9118Y-5.2402
X6.9118Y-5.7118
X6.9122Y-5.5858
X6.9126Y-5.6449
X6.913Y-2.7992
X6.9173Y-4.8165
X6.9181Y-2.518
X6.919Y-2.213
X6.922Y-5.9126
X6.9244Y-5.0091
X6.9296Y-2.3508
X6.9305Y-5.6815
X6.9315Y-5.8024
X6.9362Y-2.7949
X6.9448Y-2.213
X6.9522Y-5.6815
X6.9554Y-2.3508
X6.9579Y-1.3122
X6.9622Y-5.7772
X6.9681Y-2.798
X6.9709Y-5.6472
X6.9717Y-5.7248
X6.9718Y-2.885
X6.9787Y-3.0472
X6.9838Y-2.3539
X6.9896Y-5.6839
X7.002Y-2.3721
X7.011Y-3.8634
X7.011Y-4.2492
X7.0112Y-5.6839
X7.0114Y-1.0748
X7.0114Y-2.4398
X7.0114Y-2.8035
X7.0154Y-4.1307
X7.0161Y-4.1697
X7.0205Y-6.2217
X7.0209Y-6.2886
X7.0232Y-3.5909
X7.027Y-3.3915
X7.0272Y-2.4157
X7.0287Y-4.2732
X7.0291Y-5.5736
X7.0295Y-5.7685
X7.0295Y-5.8126
X7.0299Y-5.2402
X7.0299Y-5.6449
X7.0303Y-5.722
X7.0441Y-3.0681
X7.0461Y-2.8031
X7.0486Y-5.6819
X7.0551Y-2.4157
X7.0665Y-4.2086
X7.0671Y-4.8667
X7.0674Y-2.5193
X7.0703Y-5.6819
X7.0705Y-1.711
X7.0705Y-2.8764
X7.0768Y-2.3866
X7.0772Y-6.2217
X7.078Y-6.2894
X7.0783Y-3.5004
X7.0787Y-3.4413
X7.0799Y-3.4661
X7.0909Y-5.7161
X7.0917Y-2.8722
X7.0932Y-2.5193
X7.0941Y-5.6547
X7.0949Y-5.8134
X7.0953Y-5.7622
X7.0957Y-5.8665
X7.0957Y-5.9165
X7.0996Y-5.9783
X7.1004Y-6.0024
X7.1011Y-2.8917
X7.1012Y-6.0272
X7.1031Y-2.6165
X7.1119Y-2.9114
X7.1265Y-4.8667
X7.1272Y-5.0622
X7.1287Y-4.5327
X7.1287Y-4.7169
X7.1315Y-6.222
X7.1327Y-1.7154
X7.135Y-6.2902
X7.1437Y-2.828
X7.1441Y-1.0748
X7.1547Y-4.1264
X7.1559Y-2.9563
X7.1564Y-2.265
X7.1583Y-4.2051
X7.1583Y-5.3754
X7.1606Y-4.2854
X7.163Y-4.2453
X7.1673Y-3.9752
X7.1677Y-4.0862
X7.1736Y-5.5645
X7.174Y-2.6886
X7.1822Y-2.265
X7.1902Y-5.4157
X7.1906Y-1.3181
X7.1913Y-2.8256
X7.1969Y-2.3642
X7.2079Y-6.0205
X7.2083Y-2.6466
X7.2083Y-2.6723
X7.2091Y-5.724
X7.2091Y-5.8441
X7.2106Y-5.9197
X7.2134Y-6.1346
X7.2157Y-2.4701
X7.228Y-3.6012
X7.2291Y-3.7323
X7.2291Y-3.8622
X7.2472Y-2.6072
X7.2472Y-2.633
X7.2518Y-4.514
X7.2558Y-4.7121
X7.2572Y-4.8636
X7.2733Y-2.3826
X7.2991Y-2.3826
X7.3024Y-2.3083
X7.3194Y-4.8541
X7.3213Y-2.5481
X7.3213Y-2.5739
X7.3232Y-1.3181
X7.3264Y-2.1657
X7.3319Y-1.0732
X7.3406Y-6.0205
X7.3433Y-5.9197
X7.3461Y-6.1346
X7.3484Y-5.2972
X7.3547Y-6.2689
X7.3557Y-1.7163
X7.3563Y-1.8689
X7.3567Y-6.3783
X7.3569Y-1.7776
X7.3579Y-6.5051
X7.3583Y-1.9917
X7.3606Y-3.6012
X7.3618Y-3.7323
X7.3618Y-3.8622
X7.3787Y-5.7492
X7.3799Y-4.2854
X7.3799Y-4.3823
X7.3807Y-4.0571
X7.3807Y-4.1713
X7.3815Y-2.5088
X7.3815Y-2.5345
X7.4169Y-5.4465
X7.4177Y-3.3138
X7.4177Y-3.3972
X7.4193Y-5.4024
X7.4213Y-1.689
X7.4228Y-5.2555
X7.4421Y-5.529
X7.4421Y-5.5497
X7.4449Y-5.5772
X7.4453Y-5.6
X7.4465Y-1.6618
X7.4476Y-5.463
X7.4484Y-5.484
X7.4584Y-4.7278
X7.4584Y-4.8652
X7.4606Y-6.0205
X7.4634Y-5.9197
X7.4646Y-1.0732
X7.4661Y-6.1346
X7.4669Y-5.7252
X7.4693Y-1.7413
X7.4704Y-2.274
X7.4748Y-6.2689
X7.4764Y-5.1394
X7.4768Y-6.3783
X7.478Y-6.5051
X7.4866Y-2.0846
X7.4873Y-1.9676
X7.489Y-5.7551
X7.4902Y-2.1783
X7.5126Y-4.2854
X7.5126Y-4.3823
X7.5134Y-4.0571
X7.5134Y-4.1713
X7.5327Y-3.6012
X7.5331Y-1.3197
X7.5354Y-3.7346
X7.5504Y-3.3138
X7.5504Y-3.3972
X7.5667Y-4.8537
X7.5752Y-1.7209
X7.5839Y-5.3504
X7.611Y-6.5016
X7.6138Y-5.1776
X7.6142Y-6.3807
X7.6283Y-1.6949
X7.6327Y-4.2854
X7.6327Y-4.3823
X7.6335Y-4.0571
X7.6335Y-4.1713
X7.635Y-1.8543
X7.6354Y-6.0616
X7.6362Y-5.7378
X7.6366Y-1.9732
X7.6378Y-2.0953
X7.6378Y-2.228
X7.6378Y-2.3697
X7.6378Y-2.5024
X7.6378Y-3.9047
X7.6382Y-2.6508
X7.639Y-1.8039
X7.6406Y-1.7472
X7.6654Y-3.6012
X7.6657Y-1.3197
X7.6681Y-3.7346
X7.6745Y-4.8526
X7.6818Y-5.5985
X7.7025Y-5.598
X7.7114Y-1.8685
X7.7169Y-2.7441
X7.7421Y-2.7228
X7.7421Y-2.8425
X7.7433Y-3.0465
X7.7437Y-6.5016
X7.7469Y-6.3807
X7.7539Y-1.0783
X7.7572Y-4.8526
X7.7693Y-2.3705
X7.7693Y-2.5031
X7.7705Y-3.9047
X7.7709Y-2.6508
X7.7717Y-2.0953
X7.7717Y-2.228
X7.772Y-4.1713
X7.772Y-4.2913
X7.7728Y-4.3866
X7.7744Y-1.9736
X7.7839Y-1.8665
X7.7854Y-5.6402
X7.7866Y-5.6165
X7.7933Y-5.5591
X7.7933Y-5.5799
X7.8043Y-1.211
X7.8043Y-1.3437
X7.8063Y-1.4626
X7.8063Y-1.5953
X7.8638Y-6.5016
X7.8669Y-6.3807
X7.8866Y-1.0783
X7.8866Y-1.2102
X7.8866Y-1.3429
X7.8878Y-1.4634
X7.8878Y-1.5961
X7.8882Y-1.7335
X7.8882Y-1.8661
X7.8988Y-1.9744
X7.8996Y-2.3705
X7.8996Y-2.5031
X7.9004Y-2.0953
X7.9004Y-2.228
X7.9024Y-2.6516
X7.9024Y-2.7843
T2
X2.5524Y-5.7506
X2.5524Y-5.7714
X3.2516Y-2.526
X4.1346Y-2.9091
X4.1346Y-2.9346
X4.2559Y-2.5287
X4.2559Y-3.8768
X6.4358Y-4.0894
X6.4409Y-4.1717
X6.4864Y-3.9323
X6.5386Y-4.3764
X6.5407Y-4.4041
X6.5431Y-4.3427
X6.6016Y-4.3764
X6.6303Y-4.3764
X6.7665Y-5.3567
X6.7669Y-5.3894
X7.3126Y-5.2917
X7.3581Y-5.2183
X7.4181Y-5.613
T3
X2.1315Y-2.5319
X2.6213Y-4.4378
X2.7236Y-2.8307
X2.7827Y-4.611
X2.7882Y-4.3882
X2.8291Y-3.1521
X2.8295Y-2.4343
X2.8429Y-3.2634
X2.8563Y-4.3902
X2.8669Y-3.4008
X2.8835Y-2.9496
X2.8925Y-2.7008
X2.8937Y-2.776
X2.8972Y-2.8378
X2.9276Y-5.3799
X2.9563Y-2.5118
X2.9945Y-3.1177
X3.0598Y-3.5728
X3.2193Y-2.5213
X3.3073Y-1.4904
X3.3081Y-2.024
X3.313Y-3.0657
X3.3146Y-1.3394
X3.3427Y-2.8811
X3.3665Y-1.4909
X3.3685Y-1.3079
X3.3882Y-1.0878
X3.409Y-1.9948
X3.4305Y-1.4961
X3.4311Y-1.3173
X3.4906Y-1.1472
X3.5291Y-5.2374
X3.5295Y-3.4248
X3.5756Y-1.313
X3.6071Y-1.4909
X3.6091Y-2.4327
X3.635Y-4.7315
X3.6543Y-1.4894
X3.6693Y-1.3354
X3.6701Y-1.1575
X3.6972Y-3.5209
X3.7303Y-3.2185
X3.8053Y-1.9941
X3.8356Y-3.0741
X3.8392Y-2.024
X3.8476Y-3.4695
X3.8937Y-3.2884
X3.9079Y-1.5606
X3.9189Y-3.3386
X3.9197Y-3.3894
X3.9512Y-3.7854
X3.9978Y-3.3429
X4.0321Y-3.3839
X4.0575Y-3.4406
X4.0772Y-2.7161
X4.078Y-2.5858
X4.1152Y-2.8315
X4.1772Y-3.0079
X4.1805Y-3.0876
X4.2933Y-3.1547
X4.4035Y-1.5602
X4.5579Y-2.5567
X5.0094Y-1.6717
X5.1075Y-1.727
X5.6732Y-1.5563
X5.7268Y-1.7354
X5.9752Y-1.5433
X6.8425Y-5.0732
X7.3906Y-1.5461
X7.4227Y-2.785
X7.4276Y-5.3571
X7.4921Y-1.572
X7.5013Y-2.8066
X7.5272Y-2.7756
X7.5516Y-2.8157
X7.5862Y-2.8094
X7.6425Y-5.8736
X7.7Y-2.9768
X7.9004Y-3.2224
T4
X3.6829Y-2.8222
X3.6829Y-2.8724
X3.6829Y-2.9226
X3.7331Y-2.8222
X3.7331Y-2.8724
X3.7331Y-2.9226
X3.7833Y-2.8222
X3.7833Y-2.8724
X3.7833Y-2.9226
X6.5319Y-4.0878
X6.5339Y-4.1154
X6.5339Y-4.1429
X6.5339Y-4.1705
X6.5594Y-4.0878
X6.5614Y-4.1154
X6.5614Y-4.1429
X6.5614Y-4.1705
X6.589Y-4.0878
X6.5909Y-4.1154
X6.5909Y-4.1429
X6.5909Y-4.1705
X6.6165Y-4.0878
X6.6185Y-4.1154
X6.6185Y-4.1429
X6.6185Y-4.1705
X6.8823Y-5.3065
X6.8823Y-5.3656
X6.8823Y-5.4443
X6.8823Y-5.5033
X6.9413Y-5.3065
X6.9413Y-5.3656
X6.9413Y-5.4443
X6.9413Y-5.5033
X7.0201Y-5.3065
X7.0201Y-5.3656
X7.0201Y-5.4443
X7.0201Y-5.5033
X7.0791Y-5.3065
X7.0791Y-5.3656
X7.0791Y-5.4443
X7.0791Y-5.5033
T5
X2.9724Y-2.5535
X3.7008Y-4.6736
X3.726Y-4.0197
X3.7925Y-4.4153
X4.226Y-3.6193
T6
X2.5047Y-3.3677
X2.7087Y-5.0157
X2.711Y-3.9244
X3.1917Y-6.1732
X3.3492Y-5.9374
X3.7087Y-4.1303
X7.5016Y-5.8547
T7
X6.8835Y-2.6945
X7.0016Y-2.6945
T8
X6.8835Y-2.624
X6.9228Y-2.624
X6.9228Y-2.6945
X6.9622Y-2.624
X6.9622Y-2.6945
X7.0016Y-2.624
X7.0409Y-2.624
X7.0429Y-2.6945
T9
X2.2843Y-3.9378
X2.4902Y-4.3461
X3.7858Y-3.8685
T10
X3.0835Y-5.0957
X3.113Y-5.0228
X3.113Y-5.1685
X3.1858Y-4.9933
X3.1858Y-5.198
X3.2587Y-5.0228
X3.2587Y-5.1685
X3.2882Y-5.0957
X3.4831Y-5.8878
X3.5126Y-5.815
X3.5126Y-5.9606
X3.5854Y-5.7854
X3.5854Y-5.9902
X3.6583Y-5.815
X3.6583Y-5.9606
X3.6878Y-5.8878
X4.4829Y-5.7329
X4.5124Y-5.66
X4.5124Y-5.8057
X4.5852Y-5.6305
X4.5852Y-5.8352
X4.6581Y-5.66
X4.6581Y-5.8057
X4.6876Y-5.7329
X6.3768Y-5.8878
X6.4063Y-5.815
X6.4063Y-5.9606
X6.4791Y-5.7854
X6.4791Y-5.9902
X6.552Y-5.815
X6.552Y-5.9606
X6.5815Y-5.8878
T11
X2.322Y-5.1492
X2.5205Y-5.452
T12
X3.9173Y-6.0661
X3.9173Y-6.1449
X3.9173Y-6.2236
X3.9173Y-6.3024
X3.9173Y-6.3811
X3.9882Y-6.0858
X3.9882Y-6.1843
X3.9882Y-6.263
X3.9882Y-6.3614
T13
X2.0134Y-1.4886
X2.2913Y-2.8965
T14
X2.037Y-5.5634
X2.037Y-5.6421
X2.037Y-5.7209
X2.037Y-5.7996
X2.0461Y-2.5055
X2.0461Y-2.5843
X2.0461Y-2.663
X2.0461Y-2.7417
X2.0461Y-2.8205
T15
X2.662Y-6.2393
X2.712Y-6.1393
X2.762Y-6.2393
X2.812Y-6.1393
X2.862Y-6.2393
X2.912Y-6.1393
X2.962Y-6.2393
X3.012Y-6.1393
T16
X2.9091Y-1.9118
X3.0091Y-1.9118
X3.1091Y-1.9118
X3.2091Y-1.9118
X3.3091Y-1.9118
X3.4091Y-1.9118
X3.5091Y-1.9118
X3.6091Y-1.9118
T17
X3.0795Y-3.4815
X3.1583Y-3.4815
X3.237Y-3.4815
X3.3157Y-3.4815
X3.339Y-1.0449
X3.339Y-1.1197
X3.339Y-1.1945
X3.339Y-1.2693
X3.439Y-1.0449
X3.439Y-1.1197
X3.439Y-1.1945
X3.439Y-1.2693
X3.5256Y-1.0449
X3.5256Y-1.1197
X3.5256Y-1.1945
X3.5256Y-1.2693
X3.6256Y-1.0449
X3.6256Y-1.1197
X3.6256Y-1.1945
X3.6256Y-1.2693
X3.8787Y-3.6327
X3.9575Y-3.6327
X7.8634Y-2.9354
X7.8634Y-3.0142
X7.8634Y-3.0929
T18
X3.9524Y-1.8051
X3.9524Y-2.1051
X4.0311Y-1.8051
X4.0311Y-2.1051
X4.1098Y-1.8051
X4.1098Y-2.1051
X4.1886Y-1.8051
X4.1886Y-2.1051
X4.2673Y-1.8051
X4.2673Y-2.1051
X4.3461Y-1.8051
X4.3461Y-2.1051
X4.4248Y-1.8051
X4.4248Y-2.1051
X4.5035Y-1.8051
X4.5035Y-2.1051
X4.5823Y-1.8051
X4.5823Y-2.1051
X4.661Y-1.8051
X4.661Y-2.1051
X5.0386Y-1.8575
X5.0386Y-2.0543
X5.3398Y-1.8043
X5.3398Y-2.1043
X5.4185Y-1.8043
X5.4185Y-2.1043
X5.4972Y-1.8043
X5.4972Y-2.1043
X5.576Y-1.8043
X5.576Y-2.1043
X5.6547Y-1.8043
X5.6547Y-2.1043
X5.7335Y-1.8043
X5.7335Y-2.1043
X5.8122Y-1.8043
X5.8122Y-2.1043
X5.8909Y-1.8043
X5.8909Y-2.1043
X5.9697Y-1.8043
X5.9697Y-2.1043
X6.0484Y-1.8043
X6.0484Y-2.1043
X6.5004Y-1.7917
X6.5004Y-2.0917
X6.5791Y-1.7917
X6.5791Y-2.0917
X6.6579Y-1.7917
X6.6579Y-2.0917
X6.7366Y-1.7917
X6.7366Y-2.0917
X6.8154Y-1.7917
X6.8154Y-2.0917
X6.8941Y-1.7917
X6.8941Y-2.0917
X6.9728Y-1.7917
X6.9728Y-2.0917
X7.0516Y-1.7917
X7.0516Y-2.0917
X7.1303Y-1.7917
X7.1303Y-2.0917
X7.2091Y-1.7917
X7.2091Y-2.0917
X7.5398Y-1.8016
X7.7366Y-1.8016
T19
X3.9335Y-1.1894
X3.9736Y-1.2594
X4.0138Y-1.1894
X4.0539Y-1.2594
X4.0941Y-1.1894
X4.1343Y-1.2594
X4.1744Y-1.1894
X4.2146Y-1.2594
X4.5555Y-1.1894
X4.5957Y-1.2594
X4.6358Y-1.1894
X4.676Y-1.2594
X4.7161Y-1.1894
X4.7563Y-1.2594
X4.7965Y-1.1894
X4.8366Y-1.2594
X5.3817Y-1.1894
X5.4219Y-1.2594
X5.462Y-1.1894
X5.5022Y-1.2594
X5.5423Y-1.1894
X5.5825Y-1.2594
X5.6226Y-1.1894
X5.6628Y-1.2594
X6.0037Y-1.1894
X6.0439Y-1.2594
X6.0841Y-1.1894
X6.1242Y-1.2594
X6.1644Y-1.1894
X6.2045Y-1.2594
X6.2447Y-1.1894
X6.2848Y-1.2594
X6.6258Y-1.1894
X6.6659Y-1.2594
X6.7061Y-1.1894
X6.7463Y-1.2594
X6.7864Y-1.1894
X6.8266Y-1.2594
X6.8667Y-1.1894
X6.9069Y-1.2594
X7.2478Y-1.1894
X7.288Y-1.2594
X7.3281Y-1.1894
X7.3683Y-1.2594
X7.4085Y-1.1894
X7.4486Y-1.2594
X7.4888Y-1.1894
X7.5289Y-1.2594
T20
X2.2854Y-2.4594
X2.903Y-3.5087
X2.903Y-3.6087
X3.0134Y-2.1677
X3.3087Y-2.2228
X5.1917Y-2.3236
X6.1776Y-1.9654
X6.2614Y-2.1555
X6.3248Y-1.9626
T21
X3.8043Y-1.4488
X3.8945Y-1.4488
X4.2543Y-1.4488
X4.3445Y-1.4488
X4.4268Y-1.4488
X4.5169Y-1.4488
X4.8768Y-1.4488
X4.9669Y-1.4488
X5.2522Y-1.4488
X5.3423Y-1.4488
X5.7022Y-1.4488
X5.7923Y-1.4488
X5.8746Y-1.4488
X5.9648Y-1.4488
X6.3246Y-1.4488
X6.4148Y-1.4488
X6.497Y-1.4488
X6.5872Y-1.4488
X6.947Y-1.4488
X7.0372Y-1.4488
X7.1195Y-1.4488
X7.2096Y-1.4488
X7.5695Y-1.4488
X7.6596Y-1.4488
T22
X2.0378Y-2.1232
X2.0378Y-2.3083
X2.0394Y-1.7563
X2.0394Y-1.9413
X2.4906Y-2.3083
X2.4921Y-1.9413
X2.7661Y-2.3083
X2.7677Y-1.9413
T23
X3.1571Y-3.785
X3.1571Y-3.9819
X7.4882Y-3.1394
X7.4882Y-3.9268
T24
X2.1228Y-6.3035
X2.1228Y-6.5043
X2.3236Y-6.3035
X2.3236Y-6.5043
T25
X2.0725Y-1.1428
X2.2232Y-6.4039
X2.2725Y-1.1428
X2.4725Y-1.1428
T26
X2.6685Y-5.7909
X2.6685Y-5.9409
X2.7053Y-1.0795
X2.7053Y-1.5795
X2.8553Y-1.0795
X2.8553Y-1.5795
X3.0053Y-1.0795
X3.0053Y-1.5795
X3.1553Y-1.0795
X3.1553Y-1.5795
X3.4142Y-6.4122
X3.5642Y-6.4122
T27
X3.7551Y-1.2295
X5.015Y-1.2295
X5.2033Y-1.2295
X6.1443Y-1.489
X6.7663Y-1.489
X7.7073Y-1.2295
T28
X3.1858Y-5.0957
T29
X3.5854Y-5.8878
X4.5852Y-5.7329
X6.4791Y-5.8878
T18
G00X3.8461Y-5.9982
M15
G01X3.8461Y-6.0278
M16
G05
G00X3.8461Y-6.4096
M15
G01X3.8461Y-6.4589
M16
G05
G00X4.0594Y-5.9982
M15
G01X4.0594Y-6.0278
M16
G05
G00X4.0594Y-6.4096
M15
G01X4.0594Y-6.4589
M16
G05
T23
G00X6.8795Y-2.9809
M15
G01X6.8402Y-2.9809
M16
G05
G00X6.8795Y-4.4541
M15
G01X6.8402Y-4.4541
M16
G05
T25
G00X6.9287Y-6.228
M15
G01X6.9287Y-6.2831
M16
G05
G00X7.0961Y-6.3854
M15
G01X7.0567Y-6.3854
M16
G05
G00X7.224Y-6.228
M15
G01X7.224Y-6.2831
M16
G05
M30
