M48
; DRILL file {KiCad 8.0.0-rc1} date 2024-04-08T12:56:42+0300
; FORMAT={-:-/ absolute / inch / decimal}
; #@! TF.CreationDate,2024-04-08T12:56:42+03:00
; #@! TF.GenerationSoftware,Kicad,Pcbnew,8.0.0-rc1
; #@! TF.FileFunction,Plated,1,6,PTH
FMAT,2
INCH
; #@! TA.AperFunction,Plated,PTH,ViaDrill
T1C0.0079
; #@! TA.AperFunction,Plated,PTH,ViaDrill
T2C0.0100
; #@! TA.AperFunction,Plated,PTH,ViaDrill
T3C0.0138
; #@! TA.AperFunction,Plated,PTH,ComponentDrill
T4C0.0138
; #@! TA.AperFunction,Plated,PTH,ViaDrill
T5C0.0150
; #@! TA.AperFunction,Plated,PTH,ViaDrill
T6C0.0157
; #@! TA.AperFunction,Plated,PTH,ViaDrill
T7C0.0177
; #@! TA.AperFunction,Plated,PTH,ViaDrill
T8C0.0197
; #@! TA.AperFunction,Plated,PTH,ViaDrill
T9C0.0236
; #@! TA.AperFunction,Plated,PTH,ComponentDrill
T10C0.0236
; #@! TA.AperFunction,Plated,PTH,ComponentDrill
T11C0.0256
; #@! TA.AperFunction,Plated,PTH,ComponentDrill
T12C0.0276
; #@! TA.AperFunction,Plated,PTH,ViaDrill
T13C0.0295
; #@! TA.AperFunction,Plated,PTH,ComponentDrill
T14C0.0295
; #@! TA.AperFunction,Plated,PTH,ComponentDrill
T15C0.0299
; #@! TA.AperFunction,Plated,PTH,ComponentDrill
T16C0.0300
; #@! TA.AperFunction,Plated,PTH,ComponentDrill
T17C0.0315
; #@! TA.AperFunction,Plated,PTH,ComponentDrill
T18C0.0335
; #@! TA.AperFunction,Plated,PTH,ComponentDrill
T19C0.0350
; #@! TA.AperFunction,Plated,PTH,ComponentDrill
T20C0.0394
; #@! TA.AperFunction,Plated,PTH,ComponentDrill
T21C0.0398
; #@! TA.AperFunction,Plated,PTH,ComponentDrill
T22C0.0433
; #@! TA.AperFunction,Plated,PTH,ComponentDrill
T23C0.0472
; #@! TA.AperFunction,Plated,PTH,ComponentDrill
T24C0.0551
; #@! TA.AperFunction,Plated,PTH,ViaDrill
T25C0.0591
; #@! TA.AperFunction,Plated,PTH,ComponentDrill
T26C0.0591
; #@! TA.AperFunction,Plated,PTH,ComponentDrill
T27C0.0606
; #@! TA.AperFunction,Plated,PTH,ComponentDrill
T28C0.0630
; #@! TA.AperFunction,Plated,PTH,ComponentDrill
T29C0.0709
; #@! TA.AperFunction,Plated,PTH,ComponentDrill
T30C0.1661
%
G90
G05
T1
X2.1614Y-3.3413
X2.1972Y-2.6323
X2.2146Y-2.6134
X2.5571Y-2.9906
X2.5591Y-2.6075
X2.6835Y-5.1646
X2.6846Y-5.2394
X2.6858Y-5.3157
X2.7248Y-5.0684
X2.7248Y-5.0891
X2.7902Y-5.4207
X2.7902Y-5.4415
X2.8394Y-3.1783
X2.8516Y-3.335
X2.898Y-4.1524
X2.9138Y-4.8516
X2.9433Y-2.9512
X2.9437Y-2.6327
X2.9583Y-4.3512
X2.9984Y-3.4339
X3.0173Y-3.15
X3.0461Y-5.4207
X3.0461Y-5.4415
X3.1197Y-2.9886
X3.1398Y-4.289
X3.1413Y-2.7031
X3.1547Y-3.0146
X3.165Y-2.7285
X3.1752Y-4.8437
X3.1811Y-4.5898
X3.1858Y-5.6417
X3.2469Y-4.1118
X3.2665Y-5.2016
X3.2925Y-5.3685
X3.3031Y-2.1386
X3.3031Y-2.2087
X3.3039Y-2.0705
X3.3752Y-3.1378
X3.4059Y-2.3083
X3.4067Y-2.3764
X3.4075Y-2.0602
X3.4098Y-2.1228
X3.4106Y-2.1953
X3.489Y-3.0461
X3.5012Y-2.8689
X3.5075Y-2.7976
X3.5079Y-2.0622
X3.5083Y-2.1866
X3.5087Y-2.1303
X3.511Y-2.2898
X3.5118Y-2.3693
X3.5332Y-2.7764
X3.535Y-3.0091
X3.549Y-2.9179
X3.55Y-2.8929
X3.5535Y-3.3571
X3.5583Y-2.7579
X3.5591Y-2.9846
X3.5976Y-2.727
X3.6146Y-5.5587
X3.6256Y-5.3756
X3.6276Y-2.7004
X3.6299Y-2.8803
X3.633Y-2.9138
X3.6548Y-2.7689
X3.6602Y-2.9694
X3.664Y-4.9909
X3.678Y-5.5614
X3.6815Y-5.374
X3.6835Y-4.2161
X3.6848Y-4.9909
X3.6937Y-2.7665
X3.6984Y-3.0583
X3.71Y-2.9729
X3.7203Y-2.6748
X3.7252Y-3.0774
X3.7295Y-2.6415
X3.7374Y-5.563
X3.7441Y-3.0587
X3.7476Y-5.376
X3.7606Y-3.0453
X3.7673Y-3.2512
X3.7689Y-2.6396
X3.7713Y-2.7681
X3.7724Y-2.9701
X3.7866Y-2.7
X3.7886Y-3.0591
X3.7886Y-4.2453
X3.8012Y-5.5705
X3.8047Y-2.6752
X3.813Y-5.376
X3.8208Y-2.9714
X3.8268Y-5.8303
X3.8358Y-2.8173
X3.839Y-2.6823
X3.8476Y-2.7071
X3.8701Y-5.8295
X3.8709Y-2.9996
X3.8894Y-5.2484
X3.8953Y-5.4323
X3.8984Y-4.8976
X3.9051Y-4.7395
X3.9126Y-5.8299
X3.9159Y-2.8902
X3.9234Y-2.7439
X3.9394Y-2.8266
X3.9447Y-2.7713
X3.9506Y-5.2573
X3.9547Y-2.4953
X3.9547Y-5.4386
X3.9601Y-2.8468
X3.9654Y-2.8004
X3.9665Y-2.6551
X3.9765Y-2.228
X3.977Y-1.1211
X3.9846Y-5.826
X3.9902Y-4.5185
X4.0022Y-2.228
X4.0055Y-5.2543
X4.0091Y-5.4362
X4.0323Y-4.4976
X4.0433Y-5.9409
X4.0606Y-5.8256
X4.0864Y-3.7569
X4.0864Y-3.7825
X4.0902Y-4.4681
X4.1031Y-5.8264
X4.1205Y-4.5748
X4.1268Y-3.0375
X4.137Y-4.6429
X4.1524Y-5.826
X4.165Y-5.4843
X4.1811Y-4.6528
X4.1831Y-3.0583
X4.1937Y-3.2075
X4.2127Y-2.2248
X4.2248Y-2.6374
X4.2299Y-4.6602
X4.2385Y-2.2248
X4.2796Y-4.261
X4.2817Y-4.5598
X4.2827Y-1.7035
X4.2844Y-4.3933
X4.3054Y-4.261
X4.3073Y-4.5598
X4.31Y-4.3933
X4.3429Y-1.726
X4.3773Y-2.2264
X4.4008Y-3.1213
X4.403Y-2.2264
X4.4776Y-3.3323
X4.4843Y-5.0031
X4.4858Y-2.7417
X4.5012Y-4.8406
X4.5055Y-2.7894
X4.5059Y-2.8213
X4.5142Y-2.9685
X4.5433Y-2.9335
X4.5441Y-3.8921
X4.5575Y-2.728
X4.5587Y-1.6618
X4.5591Y-4.3206
X4.5591Y-4.3463
X4.5736Y-5.1756
X4.5921Y-2.3859
X4.608Y-2.2248
X4.6087Y-5.3591
X4.6094Y-5.1697
X4.6103Y-2.3677
X4.6272Y-5.3386
X4.6337Y-2.2248
X4.6685Y-2.598
X4.6787Y-3.4835
X4.6795Y-2.3658
X4.6882Y-3.8063
X4.6894Y-3.3957
X4.6977Y-2.3476
X4.7041Y-2.5846
X4.7098Y-3.4372
X4.7098Y-3.458
X4.7098Y-4.2961
X4.7102Y-4.2154
X4.7201Y-3.1811
X4.7209Y-3.111
X4.7209Y-3.2165
X4.7213Y-3.1461
X4.7213Y-3.2551
X4.7232Y-3.2906
X4.7306Y-4.2961
X4.731Y-4.2162
X4.7429Y-1.726
X4.7461Y-3.6941
X4.7476Y-2.3764
X4.7559Y-3.6213
X4.7638Y-3.9437
X4.7728Y-3.8039
X4.7744Y-3.7207
X4.7744Y-3.7415
X4.7819Y-2.6913
X4.7823Y-2.8719
X4.7823Y-2.8927
X4.7839Y-1.5236
X4.7866Y-2.9314
X4.7866Y-2.9521
X4.7976Y-3.8661
X4.8118Y-4.4866
X4.8134Y-3.6494
X4.8134Y-3.6702
X4.826Y-2.7921
X4.826Y-2.9843
X4.8469Y-3.5806
X4.8469Y-3.6013
X4.8484Y-5.2311
X4.852Y-3.5144
X4.852Y-3.5352
X4.8531Y-5.4654
X4.8752Y-2.7976
X4.8795Y-3.6256
X4.8835Y-4.2799
X4.8854Y-3.698
X4.8984Y-2.7965
X4.9012Y-3.4843
X4.9051Y-1.7024
X4.9098Y-5.5193
X4.9118Y-3.5539
X4.9358Y-3.8669
X4.9441Y-5.2744
X4.9563Y-5.2988
X4.9567Y-5.424
X4.9567Y-5.4571
X4.9575Y-5.3776
X4.9689Y-5.7331
X4.9731Y-5.6952
X4.9744Y-5.2232
X4.9835Y-4.698
X4.989Y-5.5992
X5.0008Y-5.2258
X5.0118Y-3.4685
X5.0193Y-3.8955
X5.0193Y-3.9211
X5.0228Y-4.0372
X5.0228Y-4.0628
X5.037Y-2.4007
X5.0378Y-2.6024
X5.0528Y-5.2984
X5.0677Y-5.6008
X5.0717Y-5.7681
X5.0803Y-3.463
X5.0996Y-5.2969
X5.1076Y-5.7159
X5.1232Y-5.4526
X5.1465Y-5.6008
X5.1469Y-5.2972
X5.1634Y-3.4787
X5.1799Y-1.5217
X5.1815Y-4.0994
X5.1815Y-4.125
X5.1886Y-3.6823
X5.1886Y-5.7673
X5.1921Y-5.7134
X5.2252Y-5.2988
X5.2256Y-5.6035
X5.2469Y-5.8224
X5.261Y-2.6598
X5.2614Y-1.7634
X5.2815Y-5.1709
X5.2846Y-5.715
X5.2858Y-5.5035
X5.2872Y-5.7568
X5.2874Y-5.2988
X5.2886Y-5.4406
X5.2957Y-2.8516
X5.3283Y-2.622
X5.3386Y-4.8728
X5.3488Y-5.4768
X5.357Y-2.5828
X5.3606Y-5.2236
X5.3639Y-2.2345
X5.3669Y-5.5508
X5.373Y-3.8276
X5.3876Y-4.164
X5.3876Y-4.1896
X5.3897Y-2.2345
X5.3986Y-3.8276
X5.4125Y-4.4634
X5.415Y-1.7008
X5.4218Y-1.1079
X5.4397Y-4.4633
X5.4555Y-4.6777
X5.4555Y-4.7034
X5.4555Y-4.7426
X5.4555Y-4.7684
X5.4962Y-5.0339
X5.5516Y-2.8071
X5.6006Y-4.6831
X5.6009Y-2.2228
X5.6214Y-4.6831
X5.622Y-4.9917
X5.6267Y-2.2228
X5.6291Y-5.2953
X5.6291Y-5.3559
X5.6457Y-2.6894
X5.6503Y-4.6685
X5.671Y-4.6685
X5.68Y-2.6031
X5.6858Y-4.7988
X5.6949Y-5.5177
X5.7046Y-4.924
X5.7058Y-2.6031
X5.7253Y-4.924
X5.7264Y-4.2909
X5.7437Y-4.7862
X5.7437Y-4.9012
X5.7445Y-4.6673
X5.7607Y-2.2268
X5.7642Y-4.3004
X5.7664Y-4.9507
X5.7865Y-2.2268
X5.7871Y-4.9507
X5.8078Y-4.3228
X5.8142Y-4.8004
X5.8146Y-4.8925
X5.8388Y-4.9051
X5.8394Y-4.4315
X5.8591Y-1.7008
X5.8596Y-4.9051
X5.8602Y-4.3075
X5.8787Y-4.3236
X5.8929Y-4.4492
X5.8933Y-3.0165
X5.898Y-4.3055
X5.9063Y-4.5031
X5.9094Y-4.7409
X5.913Y-4.952
X5.9161Y-4.5327
X5.9272Y-2.7016
X5.9346Y-5.4236
X5.9346Y-5.7827
X5.9756Y-5.037
X5.9925Y-2.9008
X5.9961Y-2.7724
X5.9966Y-2.2248
X5.998Y-3.0382
X6.0012Y-4.5618
X6.0223Y-2.2248
X6.0295Y-2.748
X6.0417Y-3.0098
X6.0776Y-5.3252
X6.0811Y-2.6617
X6.0827Y-2.8091
X6.0969Y-4.4976
X6.0972Y-5.0551
X6.0984Y-2.913
X6.1016Y-3.9567
X6.1083Y-2.7571
X6.1165Y-2.9949
X6.1201Y-4.8961
X6.1213Y-3.0677
X6.1252Y-3.9929
X6.1252Y-4.5079
X6.1268Y-4.3315
X6.1327Y-2.7917
X6.1386Y-2.9339
X6.1795Y-4.9437
X6.1957Y-4.385
X6.2094Y-1.5154
X6.2292Y-4.4161
X6.2413Y-3.9827
X6.2425Y-2.8205
X6.2469Y-2.9118
X6.2469Y-3.0618
X6.2492Y-3.678
X6.2496Y-3.5343
X6.2575Y-1.8409
X6.2602Y-2.7209
X6.2774Y-4.0122
X6.2982Y-4.0122
X6.313Y-2.8984
X6.3188Y-3.8732
X6.3326Y-4.1846
X6.3395Y-3.8732
X6.3569Y-3.7632
X6.3732Y-2.9799
X6.3756Y-3.2051
X6.3777Y-3.7632
X6.3783Y-1.7071
X6.4081Y-3.4441
X6.428Y-1.7736
X6.4289Y-3.4441
X6.4413Y-4.4563
X6.4461Y-3.9815
X6.4476Y-4.2331
X6.4504Y-2.7421
X6.4508Y-2.7665
X6.4541Y-3.5394
X6.4798Y-3.5394
X6.4843Y-4.474
X6.4998Y-3.6866
X6.5206Y-3.6866
X6.5277Y-2.215
X6.5534Y-2.215
X6.563Y-3.8374
X6.5752Y-4.1311
X6.5776Y-4.9429
X6.5862Y-5.0559
X6.5953Y-5.5728
X6.5969Y-4.8283
X6.6083Y-5.0476
X6.6146Y-2.8205
X6.6197Y-1.7094
X6.6197Y-3.935
X6.6197Y-5.7429
X6.6346Y-4.8504
X6.6398Y-4.6173
X6.6524Y-4.513
X6.6528Y-4.4862
X6.6571Y-3.8268
X6.6594Y-4.0036
X6.6669Y-4.3602
X6.6727Y-3.7632
X6.6823Y-4.889
X6.6846Y-2.7672
X6.6846Y-2.7879
X6.6935Y-3.7632
X6.7075Y-2.6744
X6.7118Y-3.4594
X6.7197Y-2.7278
X6.7197Y-2.7486
X6.7217Y-2.4352
X6.7217Y-2.4609
X6.7419Y-2.9033
X6.7457Y-1.6933
X6.7457Y-2.5285
X6.7457Y-2.5542
X6.7623Y-2.2122
X6.763Y-3.9917
X6.7783Y-3.839
X6.7807Y-4.2126
X6.7845Y-4.3388
X6.7845Y-4.3644
X6.7881Y-2.2122
X6.8Y-5.0295
X6.8039Y-3.8043
X6.8047Y-5.4937
X6.8083Y-5.3941
X6.8091Y-5.3557
X6.8115Y-2.4629
X6.8142Y-4.9224
X6.8176Y-4.4148
X6.8176Y-4.4404
X6.8232Y-2.5626
X6.8236Y-2.6669
X6.8236Y-2.7311
X6.8256Y-2.8855
X6.8311Y-4.0138
X6.8343Y-4.2667
X6.8343Y-4.2923
X6.8373Y-2.4629
X6.8409Y-3.935
X6.8488Y-4.0717
X6.8509Y-2.4445
X6.8598Y-4.3769
X6.8598Y-4.4026
X6.8705Y-4.8972
X6.8767Y-2.4445
X6.891Y-2.5197
X6.9039Y-2.7961
X6.9098Y-5.8114
X6.9118Y-5.2402
X6.9126Y-2.5189
X6.9146Y-5.7067
X6.919Y-2.213
X6.9296Y-2.3508
X6.9362Y-2.7949
X6.9448Y-2.213
X6.9554Y-2.3508
X6.9681Y-2.798
X6.9709Y-5.6094
X6.9731Y-6.1516
X6.9736Y-4.9685
X6.9756Y-3.0441
X6.976Y-2.8831
X6.9838Y-2.3539
X6.9938Y-6.1516
X7.002Y-2.3721
X7.0094Y-2.4531
X7.011Y-3.8634
X7.0213Y-4.2202
X7.0213Y-4.2459
X7.0276Y-2.8587
X7.0281Y-2.4283
X7.0291Y-5.5736
X7.0299Y-5.2402
X7.0368Y-2.8037
X7.0467Y-5.5967
X7.052Y-4.4315
X7.0538Y-2.4283
X7.0674Y-2.5193
X7.0705Y-1.711
X7.0708Y-2.8565
X7.0722Y-5.5967
X7.0932Y-2.5193
X7.0951Y-2.8571
X7.0976Y-2.8976
X7.1026Y-2.6748
X7.1031Y-2.6067
X7.1063Y-2.8756
X7.1264Y-3.9961
X7.1488Y-2.815
X7.1504Y-3.9303
X7.1555Y-2.9291
X7.1564Y-2.265
X7.1681Y-2.4909
X7.1685Y-3.4004
X7.1728Y-5.5575
X7.1732Y-5.3754
X7.174Y-2.6886
X7.1787Y-2.8185
X7.1822Y-2.265
X7.1902Y-5.4157
X7.1961Y-4.9665
X7.1984Y-2.3898
X7.2035Y-4.0594
X7.2079Y-3.7657
X7.2083Y-2.6466
X7.2083Y-2.6723
X7.2169Y-5.9606
X7.2472Y-2.6072
X7.2472Y-2.633
X7.2733Y-2.3826
X7.2748Y-4.0846
X7.287Y-3.763
X7.2874Y-3.2291
X7.2991Y-2.3826
X7.2996Y-4.998
X7.3024Y-2.3083
X7.3213Y-2.5481
X7.3213Y-2.5739
X7.3264Y-2.1657
X7.3291Y-3.0559
X7.3484Y-5.2894
X7.3657Y-3.2949
X7.3783Y-5.7429
X7.3815Y-2.5088
X7.3815Y-2.5345
X7.4051Y-3.6433
X7.4051Y-3.7602
X7.4114Y-5.2551
X7.4197Y-5.2283
X7.4213Y-1.689
X7.4358Y-5.3807
X7.4807Y-2.2637
X7.4839Y-3.261
X7.489Y-5.7551
X7.5067Y-5.5583
X7.5295Y-5.75
X7.5634Y-3.7598
X7.5638Y-3.6374
X7.5697Y-1.7087
X7.5976Y-5.2106
X7.6035Y-3.7598
X7.6039Y-3.374
X7.6244Y-2.8094
X7.6283Y-1.6949
X7.6283Y-5.687
X7.635Y-1.8543
X7.635Y-1.9307
X7.639Y-1.8039
X7.6406Y-1.7472
X7.6437Y-3.6382
X7.661Y-5.4531
X7.6642Y-3.0665
X7.6835Y-3.7571
X7.6913Y-4.122
X7.7024Y-1.9319
X7.7111Y-2.289
X7.7114Y-1.8685
X7.7146Y-2.1168
X7.7169Y-2.7441
X7.722Y-4.1016
X7.7228Y-3.3433
X7.7354Y-2.1168
X7.7369Y-2.289
X7.7421Y-2.7228
X7.7421Y-2.8425
X7.7433Y-3.0465
X7.7512Y-5.4858
X7.7744Y-3.785
X7.7764Y-1.9327
X7.7839Y-1.8665
X7.8071Y-2.8075
X7.8268Y-5.4071
X7.8929Y-4.1488
X7.8933Y-5.0457
T2
X2.5524Y-5.7506
X2.5524Y-5.7714
X3.2516Y-2.526
X4.1346Y-2.9091
X4.1346Y-2.9346
X4.1394Y-5.0354
X4.1413Y-5.2787
X4.1457Y-4.998
X4.1866Y-5.7079
X4.2492Y-5.2693
X4.2559Y-2.5287
X4.2559Y-3.8768
X4.2709Y-5.6531
X4.294Y-5.5385
X4.3862Y-4.998
X4.4281Y-5.7118
X4.4854Y-4.1789
X4.4854Y-4.2045
X4.5028Y-4.2496
X4.5028Y-4.2752
X4.5547Y-5.315
X4.6563Y-5.3146
X4.6579Y-5.4268
X4.6736Y-4.502
X4.6886Y-5.1346
X4.6886Y-5.1602
X4.6992Y-4.502
X4.7193Y-5.0787
X4.7201Y-5.5207
X4.7449Y-4.4638
X4.7528Y-5.7035
X4.7705Y-4.4638
X4.8232Y-5.4268
X4.8724Y-4.828
X4.8724Y-4.8535
X4.8742Y-4.9811
X4.8742Y-5.0067
X4.9098Y-5.0831
X4.9516Y-2.6972
X4.9571Y-4.3193
X4.9571Y-5.535
X4.9827Y-4.3193
X5.028Y-4.4579
X5.0366Y-5.6016
X5.0535Y-4.4579
X5.0988Y-4.3173
X5.1154Y-5.6012
X5.1244Y-4.3173
X5.1941Y-5.6016
X5.2087Y-4.938
X5.2343Y-4.938
X5.25Y-5.1972
X5.2728Y-5.6024
X5.314Y-4.3055
X5.3299Y-4.9411
X5.3348Y-4.3055
X5.3555Y-4.9411
X5.4252Y-5.4717
X5.5138Y-2.6965
X5.5138Y-4.8642
X5.5864Y-4.901
X5.6823Y-3.0756
X5.6827Y-4.2079
X5.7016Y-5.4213
X5.7024Y-4.9894
X5.7236Y-3.0063
X5.724Y-4.1776
X5.7559Y-3.0378
X5.7579Y-4.1492
X5.7886Y-3.326
X5.7941Y-4.1201
X5.8138Y-4.9535
X5.8185Y-3.3654
X5.8185Y-4.0953
X5.8563Y-2.9713
X5.9106Y-4.8946
X5.9606Y-4.6787
X5.9626Y-2.7213
X5.9882Y-5.5421
X6.0106Y-3.465
X6.0126Y-4.5272
X6.0413Y-3.4319
X6.0417Y-4.5693
X6.0445Y-4.9878
X6.0689Y-3.5008
X6.0689Y-4.587
X6.0728Y-4.8709
X6.0917Y-4.2087
X6.1037Y-4.4358
X6.1559Y-4.75
X6.2283Y-6.1559
X6.2323Y-4.1797
X6.2323Y-4.324
X6.2634Y-4.1508
X6.2634Y-4.3618
X6.2724Y-6.4539
X6.2803Y-5.3594
X6.2898Y-4.1201
X6.2898Y-4.3402
X6.3059Y-5.4768
X6.3079Y-5.5394
X6.3087Y-6.5563
X6.3201Y-4.1126
X6.3201Y-4.3146
X6.4405Y-4.0854
X6.4409Y-4.1717
X6.4864Y-3.9323
X6.4884Y-4.2978
X6.5394Y-4.3146
X6.5614Y-4.324
X6.5866Y-4.3717
X6.6059Y-4.3917
X6.6303Y-4.398
X6.7594Y-5.474
X6.7669Y-5.5193
X6.7839Y-5.3567
X6.7839Y-5.415
X6.8674Y-5.5768
X6.8881Y-5.5768
X6.9294Y-5.5811
X6.9501Y-5.5811
X6.99Y-5.5924
X7.0108Y-5.5924
X7.0236Y-5.9117
X7.0236Y-5.9371
X7.1472Y-6.489
X7.1472Y-6.5146
X7.1592Y-6.189
X7.1592Y-6.2146
X7.3126Y-5.2917
X7.3134Y-6.4354
X7.3142Y-5.6539
X7.3581Y-5.2183
X7.4094Y-5.6134
X7.474Y-5.5173
X7.474Y-5.5429
X7.4882Y-5.6377
X7.4882Y-5.6584
X7.489Y-5.5788
X7.489Y-5.5995
X7.6551Y-5.6354
X7.6551Y-5.661
X7.6579Y-5.5173
X7.6579Y-5.5429
X7.6579Y-5.5764
X7.6579Y-5.602
T3
X2.1315Y-2.5319
X2.6213Y-4.4378
X2.7236Y-2.8307
X2.7508Y-4.6075
X2.7882Y-4.3882
X2.8291Y-3.1521
X2.8295Y-2.4343
X2.8429Y-3.2634
X2.8563Y-4.3902
X2.8669Y-3.4008
X2.8835Y-2.9496
X2.8925Y-2.7008
X2.8937Y-2.776
X2.8972Y-2.8378
X2.9276Y-5.3799
X2.9563Y-2.5118
X2.9874Y-3.1102
X3.0598Y-3.5728
X3.075Y-2.8581
X3.138Y-2.6526
X3.1838Y-2.6699
X3.2193Y-2.5213
X3.2882Y-2.7213
X3.2884Y-2.6539
X3.3073Y-1.4904
X3.3081Y-2.024
X3.313Y-3.0657
X3.3146Y-1.3394
X3.3427Y-2.8811
X3.3437Y-2.8224
X3.3441Y-2.6756
X3.3665Y-1.4909
X3.3685Y-1.3079
X3.3882Y-1.0878
X3.409Y-1.9948
X3.4305Y-1.4961
X3.4311Y-1.3173
X3.4888Y-1.4965
X3.4906Y-1.1472
X3.5295Y-3.6098
X3.5407Y-1.4907
X3.5563Y-4.9882
X3.5756Y-1.313
X3.5781Y-1.4915
X3.6091Y-2.4327
X3.6346Y-4.6956
X3.6543Y-1.4894
X3.6693Y-1.3354
X3.6701Y-1.1575
X3.6972Y-3.5209
X3.7183Y-2.5041
X3.7303Y-3.2185
X3.8053Y-1.9941
X3.8356Y-3.0741
X3.8392Y-2.024
X3.8476Y-3.4695
X3.8937Y-3.2884
X3.9079Y-1.5606
X3.9189Y-3.3386
X3.9197Y-3.3894
X3.9512Y-3.7854
X3.9978Y-3.3429
X4.0321Y-3.3839
X4.0575Y-3.4406
X4.0772Y-2.7161
X4.078Y-2.5748
X4.1152Y-2.8315
X4.1772Y-3.0079
X4.1805Y-3.0876
X4.2933Y-3.1547
X4.4035Y-1.5602
X4.4543Y-5.1051
X4.5579Y-2.5567
X5.0094Y-1.6717
X5.1791Y-1.6488
X5.3925Y-5.65
X5.5835Y-4.988
X5.6732Y-1.5563
X5.726Y-5.6453
X5.7268Y-1.7354
X5.7358Y-5.4898
X5.739Y-5.4181
X5.9059Y-5.6453
X5.9752Y-1.5433
X6.124Y-5.5335
X6.6172Y-1.5236
X6.6319Y-6.1031
X6.6657Y-5.2504
X6.6709Y-5.0484
X6.6876Y-1.575
X6.6988Y-5.222
X6.7016Y-6.1122
X6.711Y-4.9504
X6.8425Y-5.0732
X6.8776Y-3.4602
X6.8803Y-3.6591
X6.9154Y-1.6071
X6.9642Y-2.6665
X6.9807Y-5.4049
X7.0027Y-5.0729
X7.074Y-5.7949
X7.1327Y-1.7154
X7.1618Y-5.6425
X7.3508Y-1.7114
X7.3906Y-1.5461
X7.4157Y-5.3398
X7.4227Y-2.785
X7.4465Y-1.6618
X7.4693Y-1.7413
X7.489Y-2.8394
X7.4921Y-1.572
X7.5272Y-2.7756
X7.5331Y-3.4268
X7.5516Y-2.8157
X7.5862Y-2.8094
X7.6421Y-6.0425
X7.6693Y-5.3756
X7.6697Y-5.8843
X7.7134Y-2.9957
X7.9004Y-3.2224
T4
X3.6829Y-2.8222
X3.6829Y-2.8724
X3.6829Y-2.9226
X3.7331Y-2.8222
X3.7331Y-2.8724
X3.7331Y-2.9226
X3.7833Y-2.8222
X3.7833Y-2.8724
X3.7833Y-2.9226
T5
X7.039Y-3.5559
T6
X2.8972Y-1.6866
X2.9217Y-1.7807
X2.9724Y-2.5535
X3.013Y-1.7791
X3.1043Y-1.7791
X3.1957Y-1.7752
X3.2228Y-1.6772
X3.287Y-1.7764
X3.4028Y-1.7709
X3.4051Y-1.6787
X3.5106Y-1.7685
X3.5126Y-1.6929
X3.6043Y-1.6551
X3.6126Y-1.7657
X3.7008Y-4.6736
X3.726Y-4.0197
X3.7925Y-4.4153
X4.0488Y-4.3535
X4.1343Y-4.1827
X4.226Y-3.6193
X6.7949Y-5.8327
X7.3354Y-1.8248
X7.3433Y-1.9524
X7.4862Y-2.1098
X7.4886Y-1.9748
X7.6248Y-2.4059
X7.8748Y-1.4453
X7.8768Y-1.8461
X7.8831Y-1.1795
X7.885Y-1.7071
X7.887Y-1.5764
X7.8953Y-1.3063
T7
X6.1197Y-5.4764
T8
X2.5047Y-3.3677
X2.6091Y-3.7882
X2.7087Y-5.0157
X3.1917Y-6.1732
X3.3591Y-5.9551
X3.7087Y-4.1303
X7.5016Y-5.8547
T9
X2.2843Y-3.9378
X2.4902Y-4.3461
X3.3886Y-4.2921
X3.7858Y-3.8685
X7.824Y-2.3902
T10
X2.9291Y-2.1791
X2.9291Y-5.1713
X2.9587Y-2.1063
X2.9587Y-2.252
X2.9587Y-5.0984
X2.9587Y-5.2441
X3.0315Y-2.0768
X3.0315Y-2.2815
X3.0315Y-5.0689
X3.0315Y-5.2736
X3.1043Y-2.1063
X3.1043Y-2.252
X3.1043Y-5.0984
X3.1043Y-5.2441
X3.1339Y-2.1791
X3.1339Y-5.1713
X3.4831Y-5.8878
X3.5126Y-5.815
X3.5126Y-5.9606
X3.5854Y-5.7854
X3.5854Y-5.9902
X3.6583Y-5.815
X3.6583Y-5.9606
X3.6878Y-5.8878
X4.4829Y-5.6935
X4.5124Y-5.6207
X4.5124Y-5.7663
X4.5852Y-5.5911
X4.5852Y-5.7959
X4.6581Y-5.6207
X4.6581Y-5.7663
X4.6876Y-5.6935
X4.785Y-2.2795
X4.8146Y-2.2067
X4.8146Y-2.3524
X4.8874Y-2.1772
X4.8874Y-2.3819
X4.9602Y-2.2067
X4.9602Y-2.3524
X4.9898Y-2.2795
X5.0764Y-4.7795
X5.1059Y-4.7067
X5.1059Y-4.8524
X5.1787Y-4.6772
X5.1787Y-4.8819
X5.2516Y-4.7067
X5.2516Y-4.8524
X5.2811Y-4.7795
X6.3768Y-5.8878
X6.4063Y-5.815
X6.4063Y-5.9606
X6.4791Y-5.7854
X6.4791Y-5.9902
X6.552Y-5.815
X6.552Y-5.9606
X6.5815Y-5.8878
T11
X5.6028Y-5.1335
X5.6028Y-5.1835
X5.6528Y-5.1335
X5.6528Y-5.1835
X5.7028Y-5.1335
X5.7028Y-5.1835
X5.7528Y-5.1335
X5.7528Y-5.1835
X5.8028Y-5.1335
X5.8028Y-5.1835
X5.8528Y-5.1335
X5.8528Y-5.1835
X5.9028Y-5.1335
X5.9028Y-5.1835
X5.9528Y-5.1335
X5.9528Y-5.1835
X6.0028Y-5.1335
X6.0028Y-5.1835
X6.0528Y-5.1335
X6.0528Y-5.1835
X6.1028Y-5.1335
X6.1028Y-5.1835
X6.1528Y-5.1335
X6.1528Y-5.1835
X6.2028Y-5.1335
X6.2028Y-5.1835
X6.2528Y-5.1335
X6.2528Y-5.1835
X6.3028Y-5.1335
X6.3028Y-5.1835
X6.3528Y-5.1335
X6.3528Y-5.1835
X6.4028Y-5.1335
X6.4028Y-5.1835
X6.4528Y-5.1335
X6.4528Y-5.1835
X6.5028Y-5.1335
X6.5028Y-5.1835
X6.5528Y-5.1335
X6.5528Y-5.1835
T12
X3.9173Y-6.0661
X3.9173Y-6.1449
X3.9173Y-6.2236
X3.9173Y-6.3024
X3.9173Y-6.3811
X3.9882Y-6.0858
X3.9882Y-6.1843
X3.9882Y-6.263
X3.9882Y-6.3614
T13
X2.0535Y-1.4862
X2.2957Y-2.887
T14
X2.0461Y-2.5055
X2.0461Y-2.5843
X2.0461Y-2.663
X2.0461Y-2.7417
X2.0461Y-2.8205
X2.0465Y-5.5638
X2.0465Y-5.6425
X2.0465Y-5.7213
X2.0465Y-5.8
X2.6102Y-5.9378
X2.689Y-5.9378
T15
X2.662Y-6.2393
X2.712Y-6.1393
X2.762Y-6.2393
X2.812Y-6.1393
X2.862Y-6.2393
X2.912Y-6.1393
X2.962Y-6.2393
X3.012Y-6.1393
T16
X2.9091Y-1.9118
X3.0091Y-1.9118
X3.1091Y-1.9118
X3.2091Y-1.9118
X3.3091Y-1.9118
X3.4091Y-1.9118
X3.5091Y-1.9118
X3.6091Y-1.9118
T17
X3.0795Y-3.4815
X3.1583Y-3.4815
X3.237Y-3.4815
X3.3157Y-3.4815
X3.339Y-1.0449
X3.339Y-1.1197
X3.339Y-1.1945
X3.339Y-1.2693
X3.439Y-1.0449
X3.439Y-1.1197
X3.439Y-1.1945
X3.439Y-1.2693
X3.5256Y-1.0449
X3.5256Y-1.1197
X3.5256Y-1.1945
X3.5256Y-1.2693
X3.6256Y-1.0449
X3.6256Y-1.1197
X3.6256Y-1.1945
X3.6256Y-1.2693
X3.8787Y-3.6327
X3.9575Y-3.6327
X7.8634Y-2.9354
X7.8634Y-3.0142
X7.8634Y-3.0929
T18
X3.9524Y-1.8051
X3.9524Y-2.1051
X4.0311Y-1.8051
X4.0311Y-2.1051
X4.1098Y-1.8051
X4.1098Y-2.1051
X4.1886Y-1.8051
X4.1886Y-2.1051
X4.2673Y-1.8051
X4.2673Y-2.1051
X4.3461Y-1.8051
X4.3461Y-2.1051
X4.4248Y-1.8051
X4.4248Y-2.1051
X4.5035Y-1.8051
X4.5035Y-2.1051
X4.5823Y-1.8051
X4.5823Y-2.1051
X4.661Y-1.8051
X4.661Y-2.1051
X5.0386Y-1.8575
X5.0386Y-2.0543
X5.3398Y-1.8043
X5.3398Y-2.1043
X5.4185Y-1.8043
X5.4185Y-2.1043
X5.4972Y-1.8043
X5.4972Y-2.1043
X5.576Y-1.8043
X5.576Y-2.1043
X5.6547Y-1.8043
X5.6547Y-2.1043
X5.7335Y-1.8043
X5.7335Y-2.1043
X5.8122Y-1.8043
X5.8122Y-2.1043
X5.8909Y-1.8043
X5.8909Y-2.1043
X5.9697Y-1.8043
X5.9697Y-2.1043
X6.0484Y-1.8043
X6.0484Y-2.1043
X6.5004Y-1.7917
X6.5004Y-2.0917
X6.5791Y-1.7917
X6.5791Y-2.0917
X6.6579Y-1.7917
X6.6579Y-2.0917
X6.7366Y-1.7917
X6.7366Y-2.0917
X6.8154Y-1.7917
X6.8154Y-2.0917
X6.8941Y-1.7917
X6.8941Y-2.0917
X6.9728Y-1.7917
X6.9728Y-2.0917
X7.0516Y-1.7917
X7.0516Y-2.0917
X7.1303Y-1.7917
X7.1303Y-2.0917
X7.2091Y-1.7917
X7.2091Y-2.0917
X7.5398Y-1.8016
X7.7366Y-1.8016
T19
X3.9335Y-1.1894
X3.9736Y-1.2594
X4.0138Y-1.1894
X4.0539Y-1.2594
X4.0941Y-1.1894
X4.1343Y-1.2594
X4.1744Y-1.1894
X4.2146Y-1.2594
X4.5555Y-1.1894
X4.5957Y-1.2594
X4.6358Y-1.1894
X4.676Y-1.2594
X4.7161Y-1.1894
X4.7563Y-1.2594
X4.7965Y-1.1894
X4.8366Y-1.2594
X5.3817Y-1.1894
X5.4219Y-1.2594
X5.462Y-1.1894
X5.5022Y-1.2594
X5.5423Y-1.1894
X5.5825Y-1.2594
X5.6226Y-1.1894
X5.6628Y-1.2594
X6.0037Y-1.1894
X6.0439Y-1.2594
X6.0841Y-1.1894
X6.1242Y-1.2594
X6.1644Y-1.1894
X6.2045Y-1.2594
X6.2447Y-1.1894
X6.2848Y-1.2594
X6.6258Y-1.1894
X6.6659Y-1.2594
X6.7061Y-1.1894
X6.7463Y-1.2594
X6.7864Y-1.1894
X6.8266Y-1.2594
X6.8667Y-1.1894
X6.9069Y-1.2594
X7.2478Y-1.1894
X7.288Y-1.2594
X7.3281Y-1.1894
X7.3683Y-1.2594
X7.4085Y-1.1894
X7.4486Y-1.2594
X7.4888Y-1.1894
X7.5289Y-1.2594
T20
X2.0126Y-5.2677
X2.022Y-1.5713
X2.2969Y-2.463
X2.5567Y-1.5354
X2.903Y-3.5087
X2.903Y-3.6087
X3.3043Y-4.3665
X4.0772Y-5.128
X4.237Y-5.7949
X4.4563Y-5.837
X4.5748Y-5.4803
X4.802Y-4.972
X5.1917Y-2.3236
X5.4984Y-5.7154
X5.7819Y-5.8303
X5.9319Y-5.8657
X6.0358Y-5.7957
X6.0622Y-5.6051
X6.1634Y-5.8634
X6.1776Y-1.9654
X6.2614Y-2.1555
X6.3248Y-1.9626
X6.5358Y-5.4193
X6.6917Y-5.9268
X7.1744Y-4.4463
X7.1744Y-4.5463
X7.2744Y-4.4463
X7.2744Y-4.5463
X7.3744Y-4.4463
X7.3744Y-4.5463
X7.4744Y-4.2461
X7.4744Y-4.3461
X7.4744Y-4.4463
X7.4744Y-4.5463
X7.5744Y-4.2461
X7.5744Y-4.3461
X7.5744Y-4.4463
X7.5744Y-4.5463
X7.6744Y-4.4463
X7.6744Y-4.5463
X7.7744Y-4.4463
X7.7744Y-4.5463
T21
X3.8043Y-1.4488
X3.8945Y-1.4488
X4.2543Y-1.4488
X4.3445Y-1.4488
X4.4268Y-1.4488
X4.5169Y-1.4488
X4.8768Y-1.4488
X4.9669Y-1.4488
X5.2522Y-1.4488
X5.3423Y-1.4488
X5.7022Y-1.4488
X5.7923Y-1.4488
X5.8746Y-1.4488
X5.9648Y-1.4488
X6.3246Y-1.4488
X6.4148Y-1.4488
X6.497Y-1.4488
X6.5872Y-1.4488
X6.947Y-1.4488
X7.0372Y-1.4488
X7.1195Y-1.4488
X7.2096Y-1.4488
X7.5695Y-1.4488
X7.6596Y-1.4488
T22
X2.0378Y-2.1232
X2.0378Y-2.3083
X2.0394Y-1.7563
X2.0394Y-1.9413
X2.4906Y-2.3083
X2.4921Y-1.9413
X2.7661Y-2.3083
X2.7677Y-1.9413
T23
X7.4882Y-3.1394
X7.4882Y-3.9268
T24
X2.1228Y-6.3035
X2.1228Y-6.5043
X2.3236Y-6.3035
X2.3236Y-6.5043
T25
X2.3409Y-5.148
X2.4705Y-5.452
T26
X2.0725Y-1.1428
X2.2232Y-6.4039
X2.2725Y-1.1428
X2.4725Y-1.1428
T27
X2.9906Y-3.8938
X3.1906Y-3.8938
T28
X2.7053Y-1.0795
X2.7053Y-1.5795
X2.8553Y-1.0795
X2.8553Y-1.5795
X3.0053Y-1.0795
X3.0053Y-1.5795
X3.1553Y-1.0795
X3.1553Y-1.5795
X3.4142Y-6.4122
X3.5642Y-6.4122
T29
X3.7551Y-1.2295
X5.015Y-1.2295
X5.2033Y-1.2295
X6.1443Y-1.489
X6.7663Y-1.489
X7.7073Y-1.2295
T30
X3.0315Y-2.1791
X3.0315Y-5.1713
X3.5854Y-5.8878
X4.5852Y-5.6935
X4.8874Y-2.2795
X5.1787Y-4.7795
X6.4791Y-5.8878
T18
G00X3.8461Y-5.9982
M15
G01X3.8461Y-6.0278
M16
G05
G00X3.8461Y-6.4096
M15
G01X3.8461Y-6.4589
M16
G05
G00X4.0594Y-5.9982
M15
G01X4.0594Y-6.0278
M16
G05
G00X4.0594Y-6.4096
M15
G01X4.0594Y-6.4589
M16
G05
T23
G00X6.8795Y-3.099
M15
G01X6.8402Y-3.099
M16
G05
G00X6.8795Y-4.5722
M15
G01X6.8402Y-4.5722
M16
G05
T26
G00X4.2445Y-6.1957
M15
G01X4.2445Y-6.2429
M16
G05
G00X4.4118Y-6.3453
M15
G01X4.3724Y-6.3453
M16
G05
G00X4.5398Y-6.1957
M15
G01X4.5398Y-6.2429
M16
G05
G00X4.7598Y-6.1945
M15
G01X4.7598Y-6.2417
M16
G05
G00X4.9272Y-6.3441
M15
G01X4.8878Y-6.3441
M16
G05
G00X5.0551Y-6.1945
M15
G01X5.0551Y-6.2417
M16
G05
G00X5.2902Y-6.1945
M15
G01X5.2902Y-6.2417
M16
G05
G00X5.4575Y-6.3441
M15
G01X5.4181Y-6.3441
M16
G05
G00X5.5854Y-6.1945
M15
G01X5.5854Y-6.2417
M16
G05
G00X5.8098Y-6.1961
M15
G01X5.8098Y-6.2433
M16
G05
G00X5.9772Y-6.3457
M15
G01X5.9378Y-6.3457
M16
G05
G00X6.1051Y-6.1961
M15
G01X6.1051Y-6.2433
M16
G05
G00X6.7713Y-6.2075
M15
G01X6.7713Y-6.2547
M16
G05
G00X6.9386Y-6.3571
M15
G01X6.8992Y-6.3571
M16
G05
G00X7.0665Y-6.2075
M15
G01X7.0665Y-6.2547
M16
G05
M30
