G04 #@! TF.GenerationSoftware,KiCad,Pcbnew,8.0.0-rc1*
G04 #@! TF.CreationDate,2024-04-08T12:56:38+03:00*
G04 #@! TF.ProjectId,MXVR_3566,4d585652-5f33-4353-9636-2e6b69636164,REV1*
G04 #@! TF.SameCoordinates,Original*
G04 #@! TF.FileFunction,Paste,Bot*
G04 #@! TF.FilePolarity,Positive*
%FSLAX46Y46*%
G04 Gerber Fmt 4.6, Leading zero omitted, Abs format (unit mm)*
G04 Created by KiCad (PCBNEW 8.0.0-rc1) date 2024-04-08 12:56:38*
%MOMM*%
%LPD*%
G01*
G04 APERTURE LIST*
G04 Aperture macros list*
%AMRoundRect*
0 Rectangle with rounded corners*
0 $1 Rounding radius*
0 $2 $3 $4 $5 $6 $7 $8 $9 X,Y pos of 4 corners*
0 Add a 4 corners polygon primitive as box body*
4,1,4,$2,$3,$4,$5,$6,$7,$8,$9,$2,$3,0*
0 Add four circle primitives for the rounded corners*
1,1,$1+$1,$2,$3*
1,1,$1+$1,$4,$5*
1,1,$1+$1,$6,$7*
1,1,$1+$1,$8,$9*
0 Add four rect primitives between the rounded corners*
20,1,$1+$1,$2,$3,$4,$5,0*
20,1,$1+$1,$4,$5,$6,$7,0*
20,1,$1+$1,$6,$7,$8,$9,0*
20,1,$1+$1,$8,$9,$2,$3,0*%
G04 Aperture macros list end*
%ADD10RoundRect,0.135000X-0.185000X0.135000X-0.185000X-0.135000X0.185000X-0.135000X0.185000X0.135000X0*%
%ADD11RoundRect,0.140000X-0.170000X0.140000X-0.170000X-0.140000X0.170000X-0.140000X0.170000X0.140000X0*%
%ADD12RoundRect,0.140000X0.170000X-0.140000X0.170000X0.140000X-0.170000X0.140000X-0.170000X-0.140000X0*%
%ADD13RoundRect,0.200000X-0.275000X0.200000X-0.275000X-0.200000X0.275000X-0.200000X0.275000X0.200000X0*%
%ADD14RoundRect,0.150000X0.587500X0.150000X-0.587500X0.150000X-0.587500X-0.150000X0.587500X-0.150000X0*%
%ADD15RoundRect,0.200000X0.275000X-0.200000X0.275000X0.200000X-0.275000X0.200000X-0.275000X-0.200000X0*%
%ADD16R,1.120000X2.170000*%
%ADD17R,0.850000X0.850000*%
%ADD18RoundRect,0.135000X0.185000X-0.135000X0.185000X0.135000X-0.185000X0.135000X-0.185000X-0.135000X0*%
%ADD19RoundRect,0.218750X0.218750X0.256250X-0.218750X0.256250X-0.218750X-0.256250X0.218750X-0.256250X0*%
%ADD20RoundRect,0.140000X-0.140000X-0.170000X0.140000X-0.170000X0.140000X0.170000X-0.140000X0.170000X0*%
%ADD21RoundRect,0.140000X0.140000X0.170000X-0.140000X0.170000X-0.140000X-0.170000X0.140000X-0.170000X0*%
%ADD22RoundRect,0.200000X0.200000X0.275000X-0.200000X0.275000X-0.200000X-0.275000X0.200000X-0.275000X0*%
%ADD23R,0.700000X1.600000*%
%ADD24R,1.200000X1.400000*%
%ADD25R,1.200000X2.200000*%
%ADD26R,1.600000X1.400000*%
%ADD27R,1.800000X1.200000*%
%ADD28R,1.500000X1.250000*%
%ADD29R,0.400000X0.510000*%
%ADD30R,1.550000X0.300000*%
%ADD31R,2.750000X1.200000*%
%ADD32RoundRect,0.200000X-0.200000X-0.275000X0.200000X-0.275000X0.200000X0.275000X-0.200000X0.275000X0*%
%ADD33R,2.400000X0.900000*%
%ADD34RoundRect,0.225000X-0.225000X-0.250000X0.225000X-0.250000X0.225000X0.250000X-0.225000X0.250000X0*%
%ADD35RoundRect,0.250000X-0.250000X-1.500000X0.250000X-1.500000X0.250000X1.500000X-0.250000X1.500000X0*%
%ADD36RoundRect,0.250001X-0.499999X-1.449999X0.499999X-1.449999X0.499999X1.449999X-0.499999X1.449999X0*%
G04 APERTURE END LIST*
D10*
X187090000Y-93200000D03*
X187090000Y-94220000D03*
D11*
X139350000Y-55340000D03*
X139350000Y-56300000D03*
D12*
X134620000Y-141510000D03*
X134620000Y-140550000D03*
D13*
X108450000Y-55575000D03*
X108450000Y-57225000D03*
X116360000Y-55570000D03*
X116360000Y-57220000D03*
D11*
X119660000Y-55350000D03*
X119660000Y-56310000D03*
D10*
X191120000Y-93210000D03*
X191120000Y-94230000D03*
X196160000Y-93190000D03*
X196160000Y-94210000D03*
D12*
X128730000Y-141510000D03*
X128730000Y-140550000D03*
D14*
X71395000Y-72120000D03*
X71395000Y-74020000D03*
X69520000Y-73070000D03*
X71420000Y-75660000D03*
X71420000Y-77560000D03*
X69545000Y-76610000D03*
D11*
X133240000Y-144840000D03*
X133240000Y-145800000D03*
D15*
X53770000Y-83005000D03*
X53770000Y-81355000D03*
D11*
X104990000Y-55360000D03*
X104990000Y-56320000D03*
D13*
X167210000Y-55240000D03*
X167210000Y-56890000D03*
X151500000Y-55570000D03*
X151500000Y-57220000D03*
D15*
X145665000Y-42280000D03*
X145665000Y-40630000D03*
D12*
X127750000Y-141510000D03*
X127750000Y-140550000D03*
D11*
X131700000Y-135450000D03*
X131700000Y-136410000D03*
D16*
X163130000Y-30380000D03*
D17*
X163130000Y-33060000D03*
D18*
X194150000Y-94220000D03*
X194150000Y-93200000D03*
D13*
X163530000Y-40895000D03*
X163530000Y-42545000D03*
D10*
X186090000Y-93200000D03*
X186090000Y-94220000D03*
D19*
X137887500Y-140100000D03*
X136312500Y-140100000D03*
D10*
X184080000Y-93200000D03*
X184080000Y-94220000D03*
D13*
X145590000Y-55555000D03*
X145590000Y-57205000D03*
X126100000Y-40860000D03*
X126100000Y-42510000D03*
X111840000Y-40745000D03*
X111840000Y-42395000D03*
D18*
X129250000Y-145830000D03*
X129250000Y-144810000D03*
X195150000Y-94220000D03*
X195150000Y-93200000D03*
D11*
X133730000Y-135460000D03*
X133730000Y-136420000D03*
D13*
X168090000Y-40885000D03*
X168090000Y-42535000D03*
D20*
X126730000Y-135570000D03*
X127690000Y-135570000D03*
D13*
X183000000Y-55225000D03*
X183000000Y-56875000D03*
D12*
X126770000Y-141520000D03*
X126770000Y-140560000D03*
D15*
X124710000Y-131845000D03*
X124710000Y-130195000D03*
D21*
X127680000Y-134580000D03*
X126720000Y-134580000D03*
D12*
X132400000Y-132060000D03*
X132400000Y-131100000D03*
D13*
X173150000Y-55245000D03*
X173150000Y-56895000D03*
X182680000Y-41000000D03*
X182680000Y-42650000D03*
X134840000Y-40755000D03*
X134840000Y-42405000D03*
D22*
X74860000Y-80570000D03*
X73210000Y-80570000D03*
D15*
X76280000Y-77575000D03*
X76280000Y-75925000D03*
D22*
X69720000Y-82910000D03*
X68070000Y-82910000D03*
D13*
X171030000Y-55245000D03*
X171030000Y-56895000D03*
D15*
X73240000Y-77585000D03*
X73240000Y-75935000D03*
D13*
X118390000Y-55575000D03*
X118390000Y-57225000D03*
X193710000Y-40470000D03*
X193710000Y-42120000D03*
X161990000Y-40895000D03*
X161990000Y-42545000D03*
X136370000Y-40755000D03*
X136370000Y-42405000D03*
D12*
X131420000Y-132060000D03*
X131420000Y-131100000D03*
D22*
X54885000Y-85990000D03*
X53235000Y-85990000D03*
D20*
X126740000Y-136590000D03*
X127700000Y-136590000D03*
D13*
X195230000Y-40470000D03*
X195230000Y-42120000D03*
X141590000Y-55565000D03*
X141590000Y-57215000D03*
D12*
X131670000Y-141510000D03*
X131670000Y-140550000D03*
D13*
X100270000Y-55585000D03*
X100270000Y-57235000D03*
D16*
X139600000Y-37800000D03*
D17*
X139600000Y-40480000D03*
D23*
X106000000Y-149560000D03*
X104900000Y-149560000D03*
X103800000Y-149560000D03*
X102700000Y-149560000D03*
X101600000Y-149560000D03*
X100500000Y-149560000D03*
X99400000Y-149560000D03*
X98300000Y-149560000D03*
X97200000Y-149560000D03*
D24*
X96000000Y-149060000D03*
D25*
X96000000Y-139460000D03*
X111500000Y-139460000D03*
D26*
X110600000Y-149060000D03*
D13*
X106240000Y-55585000D03*
X106240000Y-57235000D03*
D11*
X140330000Y-55340000D03*
X140330000Y-56300000D03*
D27*
X129690000Y-42195000D03*
X129690000Y-39295000D03*
D13*
X151795000Y-40620000D03*
X151795000Y-42270000D03*
D18*
X131270000Y-145820000D03*
X131270000Y-144800000D03*
D10*
X189100000Y-93200000D03*
X189100000Y-94220000D03*
D13*
X110310000Y-40740000D03*
X110310000Y-42390000D03*
X178110000Y-41000000D03*
X178110000Y-42650000D03*
X176580000Y-41020000D03*
X176580000Y-42670000D03*
D11*
X130700000Y-135450000D03*
X130700000Y-136410000D03*
D13*
X110440000Y-55585000D03*
X110440000Y-57235000D03*
D28*
X56530000Y-87570000D03*
X56530000Y-85030000D03*
X66190000Y-85030000D03*
X66190000Y-87570000D03*
D11*
X179320000Y-55030000D03*
X179320000Y-55990000D03*
X163700000Y-55020000D03*
X163700000Y-55980000D03*
X178380000Y-55010000D03*
X178380000Y-55970000D03*
D15*
X74760000Y-77575000D03*
X74760000Y-75925000D03*
D16*
X179525000Y-31705000D03*
D17*
X179525000Y-34385000D03*
D13*
X143600000Y-55550000D03*
X143600000Y-57200000D03*
X166570000Y-40900000D03*
X166570000Y-42550000D03*
D18*
X192120000Y-94220000D03*
X192120000Y-93200000D03*
D22*
X74855000Y-79050000D03*
X73205000Y-79050000D03*
D29*
X67830000Y-73195000D03*
X66830000Y-73195000D03*
X67330000Y-71905000D03*
D30*
X200184900Y-153715000D03*
X192634900Y-153465000D03*
X200184900Y-153215000D03*
X192634900Y-152965000D03*
X200184900Y-152715000D03*
X192634900Y-152465000D03*
X200184900Y-152215000D03*
X192634900Y-151965000D03*
X200184900Y-151715000D03*
X192634900Y-151465000D03*
X200184900Y-151215000D03*
X192634900Y-150965000D03*
X200184900Y-150715000D03*
X192634900Y-150465000D03*
X200184900Y-150215000D03*
X192634900Y-149965000D03*
X200184900Y-149715000D03*
X192634900Y-149465000D03*
X200184900Y-149215000D03*
X192634900Y-148965000D03*
X200184900Y-148715000D03*
X192634900Y-148465000D03*
X200184900Y-148215000D03*
X192634900Y-147965000D03*
X200184900Y-147715000D03*
X192634900Y-147465000D03*
X200184900Y-147215000D03*
X192634900Y-146965000D03*
X200184900Y-146715000D03*
X192634900Y-146465000D03*
X200184900Y-146215000D03*
X192634900Y-145965000D03*
X200184900Y-145715000D03*
X192634900Y-145465000D03*
X200184900Y-145215000D03*
X192634900Y-144965000D03*
X200184900Y-144715000D03*
X192634900Y-144465000D03*
X200184900Y-144215000D03*
X192634900Y-143965000D03*
X200184900Y-143715000D03*
X192634900Y-143465000D03*
X200184900Y-143215000D03*
X192634900Y-142965000D03*
X200184900Y-142715000D03*
X192634900Y-142465000D03*
X200184900Y-142215000D03*
X192634900Y-141965000D03*
X200184900Y-141715000D03*
X192634900Y-141465000D03*
X200184900Y-141215000D03*
X192634900Y-140965000D03*
X200184900Y-140715000D03*
X192634900Y-140465000D03*
X200184900Y-140215000D03*
X192634900Y-139965000D03*
X200184900Y-139715000D03*
X192634900Y-139465000D03*
X200184900Y-137215000D03*
X192634900Y-136965000D03*
X200184900Y-136715000D03*
X192634900Y-136465000D03*
X200184900Y-136215000D03*
X192634900Y-135965000D03*
X200184900Y-135715000D03*
X192634900Y-135465000D03*
X200184900Y-135215000D03*
D31*
X199409900Y-154815000D03*
X199409900Y-134115000D03*
D18*
X188090000Y-94220000D03*
X188090000Y-93200000D03*
D13*
X102420000Y-55585000D03*
X102420000Y-57235000D03*
D18*
X133240000Y-143930000D03*
X133240000Y-142910000D03*
D13*
X165050000Y-40895000D03*
X165050000Y-42545000D03*
X192180000Y-40470000D03*
X192180000Y-42120000D03*
D18*
X127260000Y-145840000D03*
X127260000Y-144820000D03*
D13*
X177090000Y-55230000D03*
X177090000Y-56880000D03*
X126240000Y-130195000D03*
X126240000Y-131845000D03*
X160470000Y-40885000D03*
X160470000Y-42535000D03*
D18*
X129250000Y-143910000D03*
X129250000Y-142890000D03*
D13*
X113360000Y-40735000D03*
X113360000Y-42385000D03*
X133310000Y-40740000D03*
X133310000Y-42390000D03*
X147690000Y-55555000D03*
X147690000Y-57205000D03*
X99160000Y-40780000D03*
X99160000Y-42430000D03*
X181160000Y-41000000D03*
X181160000Y-42650000D03*
X153680000Y-55570000D03*
X153680000Y-57220000D03*
D10*
X183070000Y-93200000D03*
X183070000Y-94220000D03*
D13*
X148735000Y-40635000D03*
X148735000Y-42285000D03*
X135450000Y-55555000D03*
X135450000Y-57205000D03*
X108780000Y-40740000D03*
X108780000Y-42390000D03*
D12*
X133630000Y-141510000D03*
X133630000Y-140550000D03*
X127490000Y-132060000D03*
X127490000Y-131100000D03*
D32*
X197895000Y-81850000D03*
X199545000Y-81850000D03*
X53235000Y-87580000D03*
X54885000Y-87580000D03*
X67955000Y-86020000D03*
X69605000Y-86020000D03*
D13*
X123070000Y-40850000D03*
X123070000Y-42500000D03*
D20*
X126740000Y-137620000D03*
X127700000Y-137620000D03*
D11*
X154950000Y-55345000D03*
X154950000Y-56305000D03*
D13*
X164960000Y-55235000D03*
X164960000Y-56885000D03*
D10*
X185090000Y-93190000D03*
X185090000Y-94210000D03*
D13*
X175080000Y-55245000D03*
X175080000Y-56895000D03*
X112575000Y-55575000D03*
X112575000Y-57225000D03*
D33*
X176480000Y-99315000D03*
X176480000Y-98035000D03*
X176480000Y-96765000D03*
X175980000Y-95495000D03*
X176480000Y-94225000D03*
X176480000Y-92955000D03*
X176480000Y-91685000D03*
X176480000Y-90415000D03*
X176480000Y-89145000D03*
X176480000Y-87875000D03*
X176480000Y-86605000D03*
X175980000Y-85335000D03*
X176480000Y-84065000D03*
X176480000Y-82795000D03*
X176480000Y-81525000D03*
X176480000Y-113275000D03*
X176480000Y-112005000D03*
X176480000Y-110735000D03*
X176480000Y-109465000D03*
X176480000Y-108195000D03*
X176480000Y-106925000D03*
X176480000Y-105655000D03*
D11*
X169630000Y-55010000D03*
X169630000Y-55970000D03*
D16*
X103385000Y-37520000D03*
D17*
X103385000Y-40200000D03*
D32*
X65975000Y-74500000D03*
X67625000Y-74500000D03*
D22*
X69620000Y-84480000D03*
X67970000Y-84480000D03*
D16*
X187765000Y-37615000D03*
D17*
X187765000Y-40295000D03*
D13*
X97600000Y-40790000D03*
X97600000Y-42440000D03*
D10*
X193140000Y-93200000D03*
X193140000Y-94220000D03*
D11*
X148960000Y-55330000D03*
X148960000Y-56290000D03*
D12*
X129710000Y-141510000D03*
X129710000Y-140550000D03*
D21*
X127700000Y-139610000D03*
X126740000Y-139610000D03*
D15*
X147205000Y-42285000D03*
X147205000Y-40635000D03*
D13*
X181120000Y-55235000D03*
X181120000Y-56885000D03*
D11*
X134200000Y-55330000D03*
X134200000Y-56290000D03*
D20*
X126740000Y-138630000D03*
X127700000Y-138630000D03*
D10*
X190110000Y-93200000D03*
X190110000Y-94220000D03*
D13*
X124580000Y-40855000D03*
X124580000Y-42505000D03*
X144105000Y-40620000D03*
X144105000Y-42270000D03*
D11*
X128670000Y-135450000D03*
X128670000Y-136410000D03*
D13*
X169640000Y-40885000D03*
X169640000Y-42535000D03*
D22*
X69605000Y-87560000D03*
X67955000Y-87560000D03*
D32*
X65975000Y-76010000D03*
X67625000Y-76010000D03*
D21*
X133720000Y-137390000D03*
X132760000Y-137390000D03*
D16*
X119475000Y-37430000D03*
D17*
X119475000Y-40110000D03*
D12*
X129470000Y-132060000D03*
X129470000Y-131100000D03*
D11*
X135150000Y-142930000D03*
X135150000Y-143890000D03*
X184260000Y-55010000D03*
X184260000Y-55970000D03*
D13*
X150255000Y-40620000D03*
X150255000Y-42270000D03*
D22*
X70835000Y-70530000D03*
X69185000Y-70530000D03*
D11*
X132730000Y-135450000D03*
X132730000Y-136410000D03*
D12*
X132650000Y-141510000D03*
X132650000Y-140550000D03*
X130690000Y-141510000D03*
X130690000Y-140550000D03*
D11*
X168590000Y-55000000D03*
X168590000Y-55960000D03*
D21*
X133690000Y-138390000D03*
X132730000Y-138390000D03*
D18*
X131270000Y-143900000D03*
X131270000Y-142880000D03*
D11*
X99010000Y-55360000D03*
X99010000Y-56320000D03*
D28*
X56552500Y-82317500D03*
X56552500Y-79777500D03*
X66212500Y-79777500D03*
X66212500Y-82317500D03*
D13*
X179620000Y-41000000D03*
X179620000Y-42650000D03*
D11*
X113830000Y-55340000D03*
X113830000Y-56300000D03*
D34*
X66035000Y-77550000D03*
X67585000Y-77550000D03*
D18*
X127260000Y-143920000D03*
X127260000Y-142900000D03*
D13*
X107250000Y-40735000D03*
X107250000Y-42385000D03*
D11*
X182080000Y-93230000D03*
X182080000Y-94190000D03*
D35*
X74910000Y-150670000D03*
X76910000Y-150670000D03*
X78910000Y-150670000D03*
X80910000Y-150670000D03*
D36*
X72560000Y-144920000D03*
X83260000Y-144920000D03*
D12*
X130440000Y-132060000D03*
X130440000Y-131100000D03*
D13*
X137700000Y-55555000D03*
X137700000Y-57205000D03*
D12*
X128480000Y-132060000D03*
X128480000Y-131100000D03*
D11*
X129690000Y-135440000D03*
X129690000Y-136400000D03*
X149960000Y-55330000D03*
X149960000Y-56290000D03*
M02*
