G04 #@! TF.GenerationSoftware,KiCad,Pcbnew,8.0.0-rc1*
G04 #@! TF.CreationDate,2024-01-27T15:59:42+03:00*
G04 #@! TF.ProjectId,RP2040_minimal,52503230-3430-45f6-9d69-6e696d616c2e,REV1*
G04 #@! TF.SameCoordinates,Original*
G04 #@! TF.FileFunction,Paste,Top*
G04 #@! TF.FilePolarity,Positive*
%FSLAX46Y46*%
G04 Gerber Fmt 4.6, Leading zero omitted, Abs format (unit mm)*
G04 Created by KiCad (PCBNEW 8.0.0-rc1) date 2024-01-27 15:59:42*
%MOMM*%
%LPD*%
G01*
G04 APERTURE LIST*
G04 Aperture macros list*
%AMRoundRect*
0 Rectangle with rounded corners*
0 $1 Rounding radius*
0 $2 $3 $4 $5 $6 $7 $8 $9 X,Y pos of 4 corners*
0 Add a 4 corners polygon primitive as box body*
4,1,4,$2,$3,$4,$5,$6,$7,$8,$9,$2,$3,0*
0 Add four circle primitives for the rounded corners*
1,1,$1+$1,$2,$3*
1,1,$1+$1,$4,$5*
1,1,$1+$1,$6,$7*
1,1,$1+$1,$8,$9*
0 Add four rect primitives between the rounded corners*
20,1,$1+$1,$2,$3,$4,$5,0*
20,1,$1+$1,$4,$5,$6,$7,0*
20,1,$1+$1,$6,$7,$8,$9,0*
20,1,$1+$1,$8,$9,$2,$3,0*%
G04 Aperture macros list end*
%ADD10RoundRect,0.150000X-0.150000X0.825000X-0.150000X-0.825000X0.150000X-0.825000X0.150000X0.825000X0*%
%ADD11RoundRect,0.200000X-0.200000X-0.275000X0.200000X-0.275000X0.200000X0.275000X-0.200000X0.275000X0*%
%ADD12R,2.120000X1.500000*%
%ADD13RoundRect,0.200000X0.200000X0.275000X-0.200000X0.275000X-0.200000X-0.275000X0.200000X-0.275000X0*%
%ADD14R,1.670000X0.760000*%
%ADD15RoundRect,0.225000X0.225000X0.250000X-0.225000X0.250000X-0.225000X-0.250000X0.225000X-0.250000X0*%
%ADD16RoundRect,0.225000X-0.225000X-0.250000X0.225000X-0.250000X0.225000X0.250000X-0.225000X0.250000X0*%
%ADD17R,1.120000X1.220000*%
%ADD18R,1.525000X0.700000*%
%ADD19R,2.560000X3.450000*%
%ADD20R,0.200000X0.700000*%
%ADD21R,2.170000X1.120000*%
%ADD22R,0.850000X0.850000*%
%ADD23RoundRect,0.150000X0.150000X0.700000X-0.150000X0.700000X-0.150000X-0.700000X0.150000X-0.700000X0*%
%ADD24RoundRect,0.250000X0.250000X1.150000X-0.250000X1.150000X-0.250000X-1.150000X0.250000X-1.150000X0*%
%ADD25RoundRect,0.150000X-0.150000X-0.700000X0.150000X-0.700000X0.150000X0.700000X-0.150000X0.700000X0*%
%ADD26RoundRect,0.250000X-0.250000X-1.100000X0.250000X-1.100000X0.250000X1.100000X-0.250000X1.100000X0*%
%ADD27R,2.800000X4.400000*%
G04 APERTURE END LIST*
D10*
X232522500Y-106596000D03*
X231252500Y-106596000D03*
X229982500Y-106596000D03*
X228712500Y-106596000D03*
X228712500Y-111546000D03*
X229982500Y-111546000D03*
X231252500Y-111546000D03*
X232522500Y-111546000D03*
D11*
X221152500Y-104806000D03*
X222802500Y-104806000D03*
D12*
X214797500Y-105556000D03*
X219027500Y-105556000D03*
D13*
X202257500Y-122386000D03*
X200607500Y-122386000D03*
D14*
X128002500Y-110384200D03*
X128002500Y-109114200D03*
X128002500Y-107844200D03*
X128002500Y-106574200D03*
X128002500Y-105304200D03*
X128002500Y-104034200D03*
X128002500Y-102764200D03*
X128002500Y-101494200D03*
X119472500Y-101494200D03*
X119472500Y-102764200D03*
X119472500Y-104034200D03*
X119472500Y-105304200D03*
X119472500Y-106574200D03*
X119472500Y-107844200D03*
X119472500Y-109114200D03*
X119472500Y-110384200D03*
D13*
X202272500Y-128556000D03*
X200622500Y-128556000D03*
X202287500Y-127036000D03*
X200637500Y-127036000D03*
D15*
X217327500Y-123566000D03*
X215777500Y-123566000D03*
D13*
X222802500Y-103236000D03*
X221152500Y-103236000D03*
D15*
X219642500Y-107946000D03*
X218092500Y-107946000D03*
D16*
X209517500Y-120286000D03*
X211067500Y-120286000D03*
D17*
X207802500Y-120196000D03*
X204702500Y-120196000D03*
D11*
X221142500Y-107896000D03*
X222792500Y-107896000D03*
D16*
X200672500Y-123956000D03*
X202222500Y-123956000D03*
D18*
X207550500Y-122341000D03*
X207550500Y-123611000D03*
X207550500Y-124881000D03*
X207550500Y-126151000D03*
X212974500Y-126151000D03*
X212974500Y-124881000D03*
X212974500Y-123611000D03*
X212974500Y-122341000D03*
D19*
X210262500Y-124246000D03*
D11*
X221157500Y-106366000D03*
X222807500Y-106366000D03*
D20*
X161240000Y-124240000D03*
X161240000Y-121160000D03*
X161640000Y-124240000D03*
X161640000Y-121160000D03*
X162040000Y-124240000D03*
X162040000Y-121160000D03*
X162440000Y-124240000D03*
X162440000Y-121160000D03*
X162840000Y-124240000D03*
X162840000Y-121160000D03*
X163240000Y-124240000D03*
X163240000Y-121160000D03*
X163640000Y-124240000D03*
X163640000Y-121160000D03*
X164040000Y-124240000D03*
X164040000Y-121160000D03*
X164440000Y-124240000D03*
X164440000Y-121160000D03*
X164840000Y-124240000D03*
X164840000Y-121160000D03*
X165240000Y-124240000D03*
X165240000Y-121160000D03*
X165640000Y-124240000D03*
X165640000Y-121160000D03*
X166040000Y-124240000D03*
X166040000Y-121160000D03*
X166440000Y-124240000D03*
X166440000Y-121160000D03*
X166840000Y-124240000D03*
X166840000Y-121160000D03*
X167240000Y-124240000D03*
X167240000Y-121160000D03*
X167640000Y-124240000D03*
X167640000Y-121160000D03*
X168040000Y-124240000D03*
X168040000Y-121160000D03*
X168440000Y-124240000D03*
X168440000Y-121160000D03*
X168840000Y-124240000D03*
X168840000Y-121160000D03*
X169240000Y-124240000D03*
X169240000Y-121160000D03*
X169640000Y-124240000D03*
X169640000Y-121160000D03*
X170040000Y-124240000D03*
X170040000Y-121160000D03*
X170440000Y-124240000D03*
X170440000Y-121160000D03*
X170840000Y-124240000D03*
X170840000Y-121160000D03*
X171240000Y-124240000D03*
X171240000Y-121160000D03*
X171640000Y-124240000D03*
X171640000Y-121160000D03*
X172040000Y-124240000D03*
X172040000Y-121160000D03*
X172440000Y-124240000D03*
X172440000Y-121160000D03*
X172840000Y-124240000D03*
X172840000Y-121160000D03*
X173240000Y-124240000D03*
X173240000Y-121160000D03*
X173640000Y-124240000D03*
X173640000Y-121160000D03*
X174040000Y-124240000D03*
X174040000Y-121160000D03*
X174440000Y-124240000D03*
X174440000Y-121160000D03*
X174840000Y-124240000D03*
X174840000Y-121160000D03*
X175240000Y-124240000D03*
X175240000Y-121160000D03*
X175640000Y-124240000D03*
X175640000Y-121160000D03*
X176040000Y-124240000D03*
X176040000Y-121160000D03*
X176440000Y-124240000D03*
X176440000Y-121160000D03*
X176840000Y-124240000D03*
X176840000Y-121160000D03*
X177240000Y-124240000D03*
X177240000Y-121160000D03*
X177640000Y-124240000D03*
X177640000Y-121160000D03*
X178040000Y-124240000D03*
X178040000Y-121160000D03*
X178440000Y-124240000D03*
X178440000Y-121160000D03*
X178840000Y-124240000D03*
X178840000Y-121160000D03*
X179240000Y-124240000D03*
X179240000Y-121160000D03*
X179640000Y-124240000D03*
X179640000Y-121160000D03*
X180040000Y-124240000D03*
X180040000Y-121160000D03*
X180440000Y-124240000D03*
X180440000Y-121160000D03*
X180840000Y-124240000D03*
X180840000Y-121160000D03*
D13*
X222757500Y-110956000D03*
X221107500Y-110956000D03*
X222767500Y-109426000D03*
X221117500Y-109426000D03*
D21*
X135872500Y-122866000D03*
D22*
X133192500Y-122866000D03*
D23*
X160282500Y-127756000D03*
X159032500Y-127756000D03*
X157782500Y-127756000D03*
X156532500Y-127756000D03*
X155282500Y-127756000D03*
X154032500Y-127756000D03*
X152782500Y-127756000D03*
X151532500Y-127756000D03*
D24*
X162132500Y-131106000D03*
X149682500Y-131106000D03*
D15*
X231297500Y-104146000D03*
X229747500Y-104146000D03*
D25*
X115402500Y-93846000D03*
X116652500Y-93846000D03*
X117902500Y-93846000D03*
X119152500Y-93846000D03*
X120402500Y-93846000D03*
X121652500Y-93846000D03*
X122902500Y-93846000D03*
X124152500Y-93846000D03*
X125402500Y-93846000D03*
X126652500Y-93846000D03*
X127902500Y-93846000D03*
X129152500Y-93846000D03*
D26*
X113552500Y-97046000D03*
D25*
X130402500Y-93846000D03*
D26*
X134752500Y-97046000D03*
D25*
X131652500Y-93846000D03*
X132902500Y-93846000D03*
X212522500Y-92426000D03*
X213772500Y-92426000D03*
X215022500Y-92426000D03*
X216272500Y-92426000D03*
X217522500Y-92426000D03*
X218772500Y-92426000D03*
X220022500Y-92426000D03*
X221272500Y-92426000D03*
X222522500Y-92426000D03*
X223772500Y-92426000D03*
X225022500Y-92426000D03*
X226272500Y-92426000D03*
D26*
X210672500Y-95626000D03*
D25*
X227522500Y-92426000D03*
D26*
X231872500Y-95626000D03*
D25*
X228772500Y-92426000D03*
X230022500Y-92426000D03*
D20*
X161240000Y-90240000D03*
X161240000Y-87160000D03*
X161640000Y-90240000D03*
X161640000Y-87160000D03*
X162040000Y-90240000D03*
X162040000Y-87160000D03*
X162440000Y-90240000D03*
X162440000Y-87160000D03*
X162840000Y-90240000D03*
X162840000Y-87160000D03*
X163240000Y-90240000D03*
X163240000Y-87160000D03*
X163640000Y-90240000D03*
X163640000Y-87160000D03*
X164040000Y-90240000D03*
X164040000Y-87160000D03*
X164440000Y-90240000D03*
X164440000Y-87160000D03*
X164840000Y-90240000D03*
X164840000Y-87160000D03*
X165240000Y-90240000D03*
X165240000Y-87160000D03*
X165640000Y-90240000D03*
X165640000Y-87160000D03*
X166040000Y-90240000D03*
X166040000Y-87160000D03*
X166440000Y-90240000D03*
X166440000Y-87160000D03*
X166840000Y-90240000D03*
X166840000Y-87160000D03*
X167240000Y-90240000D03*
X167240000Y-87160000D03*
X167640000Y-90240000D03*
X167640000Y-87160000D03*
X168040000Y-90240000D03*
X168040000Y-87160000D03*
X168440000Y-90240000D03*
X168440000Y-87160000D03*
X168840000Y-90240000D03*
X168840000Y-87160000D03*
X169240000Y-90240000D03*
X169240000Y-87160000D03*
X169640000Y-90240000D03*
X169640000Y-87160000D03*
X170040000Y-90240000D03*
X170040000Y-87160000D03*
X170440000Y-90240000D03*
X170440000Y-87160000D03*
X170840000Y-90240000D03*
X170840000Y-87160000D03*
X171240000Y-90240000D03*
X171240000Y-87160000D03*
X171640000Y-90240000D03*
X171640000Y-87160000D03*
X172040000Y-90240000D03*
X172040000Y-87160000D03*
X172440000Y-90240000D03*
X172440000Y-87160000D03*
X172840000Y-90240000D03*
X172840000Y-87160000D03*
X173240000Y-90240000D03*
X173240000Y-87160000D03*
X173640000Y-90240000D03*
X173640000Y-87160000D03*
X174040000Y-90240000D03*
X174040000Y-87160000D03*
X174440000Y-90240000D03*
X174440000Y-87160000D03*
X174840000Y-90240000D03*
X174840000Y-87160000D03*
X175240000Y-90240000D03*
X175240000Y-87160000D03*
X175640000Y-90240000D03*
X175640000Y-87160000D03*
X176040000Y-90240000D03*
X176040000Y-87160000D03*
X176440000Y-90240000D03*
X176440000Y-87160000D03*
X176840000Y-90240000D03*
X176840000Y-87160000D03*
X177240000Y-90240000D03*
X177240000Y-87160000D03*
X177640000Y-90240000D03*
X177640000Y-87160000D03*
X178040000Y-90240000D03*
X178040000Y-87160000D03*
X178440000Y-90240000D03*
X178440000Y-87160000D03*
X178840000Y-90240000D03*
X178840000Y-87160000D03*
X179240000Y-90240000D03*
X179240000Y-87160000D03*
X179640000Y-90240000D03*
X179640000Y-87160000D03*
X180040000Y-90240000D03*
X180040000Y-87160000D03*
X180440000Y-90240000D03*
X180440000Y-87160000D03*
X180840000Y-90240000D03*
X180840000Y-87160000D03*
D11*
X200637500Y-125496000D03*
X202287500Y-125496000D03*
D13*
X202277500Y-120846000D03*
X200627500Y-120846000D03*
X215722500Y-107946000D03*
X214072500Y-107946000D03*
D27*
X202102500Y-107356000D03*
X202102500Y-91506000D03*
D11*
X215697500Y-125106000D03*
X217347500Y-125106000D03*
M02*
