M48
; DRILL file {KiCad 8.0.0-rc1} date 2024-01-27T15:59:47+0300
; FORMAT={-:-/ absolute / inch / decimal}
; #@! TF.CreationDate,2024-01-27T15:59:47+03:00
; #@! TF.GenerationSoftware,Kicad,Pcbnew,8.0.0-rc1
; #@! TF.FileFunction,Plated,1,6,PTH
FMAT,2
INCH
; #@! TA.AperFunction,Plated,PTH,ViaDrill
T1C0.0098
; #@! TA.AperFunction,Plated,PTH,ComponentDrill
T2C0.0098
; #@! TA.AperFunction,Plated,PTH,ComponentDrill
T3C0.0197
; #@! TA.AperFunction,Plated,PTH,ComponentDrill
T4C0.0295
; #@! TA.AperFunction,Plated,PTH,ComponentDrill
T5C0.0299
; #@! TA.AperFunction,Plated,PTH,ComponentDrill
T6C0.0300
; #@! TA.AperFunction,Plated,PTH,ComponentDrill
T7C0.0315
; #@! TA.AperFunction,Plated,PTH,ComponentDrill
T8C0.0394
; #@! TA.AperFunction,Plated,PTH,ComponentDrill
T9C0.0453
; #@! TA.AperFunction,Plated,PTH,ComponentDrill
T10C0.0551
; #@! TA.AperFunction,Plated,PTH,ComponentDrill
T11C0.0650
%
G90
G05
T1
X4.606Y-3.49
X4.6103Y-3.4483
X4.6108Y-3.4156
X4.6469Y-4.0458
X4.6469Y-4.2958
X4.7607Y-3.4073
X4.8544Y-4.5073
X4.8544Y-4.5396
X4.9859Y-3.7542
X5.1009Y-4.0451
X5.1052Y-4.2817
X5.1367Y-4.7302
X5.1485Y-4.2392
X5.1595Y-4.7073
X5.1623Y-4.0624
X5.1832Y-3.7609
X5.232Y-3.7845
X5.4225Y-4.8447
X5.4501Y-4.8723
X5.4572Y-4.7266
X5.4595Y-4.4392
X5.4906Y-4.8908
X5.5489Y-3.8471
X5.5655Y-3.4542
X5.7418Y-3.5101
X5.9198Y-4.4683
X5.9206Y-3.9821
X5.9983Y-4.6107
X6.019Y-4.1471
X6.0225Y-3.3353
X6.0229Y-3.3006
X6.0304Y-4.018
X6.0447Y-4.2715
X6.0812Y-3.9817
X6.1879Y-4.018
X6.2115Y-3.403
X6.2225Y-4.264
X6.2903Y-4.6176
X6.3332Y-3.6467
X6.3351Y-4.0014
X6.3462Y-3.375
X6.3569Y-3.6187
X6.3866Y-3.6187
X6.4026Y-3.5051
X6.4349Y-3.5051
X6.4477Y-4.2821
X6.451Y-3.48
X6.4833Y-3.48
X6.4977Y-3.5069
X6.5048Y-4.8506
X6.5265Y-3.9782
X6.53Y-3.5069
X6.5375Y-4.8286
X6.5448Y-3.3777
X6.5771Y-3.3777
X6.5918Y-3.4778
X6.593Y-4.3416
X6.5997Y-4.3993
X6.6151Y-3.7286
X6.6162Y-4.8081
X6.6162Y-4.8526
X6.6241Y-3.4778
X6.6395Y-3.514
X6.6473Y-3.7286
X6.6718Y-3.514
X6.706Y-3.7294
X6.735Y-4.8583
X6.7383Y-3.7294
X6.7851Y-4.6683
X6.7959Y-4.6975
X6.8273Y-4.068
X6.8313Y-4.9841
X6.8539Y-4.9615
X6.8562Y-3.948
X6.8885Y-3.948
X6.8993Y-4.8392
X6.8997Y-4.8097
X6.9103Y-4.675
X6.9513Y-4.7239
X6.9592Y-4.9218
X6.9828Y-5.0002
X6.9832Y-4.9609
X6.9883Y-4.7239
X6.9997Y-4.3778
X7.0017Y-4.805
X7.0092Y-5.0931
X7.021Y-4.2672
X7.0284Y-5.0648
X7.0332Y-4.8046
X7.0879Y-4.8018
X7.1143Y-4.93
X7.1469Y-4.6874
X7.1469Y-4.717
X7.1635Y-4.3345
X7.1749Y-4.0026
X7.1749Y-4.2069
X7.1808Y-4.2707
X7.1832Y-4.4857
X7.3296Y-4.2703
X7.3564Y-4.0741
X7.4127Y-5.1176
X7.419Y-4.3592
X7.4442Y-4.7504
X7.4473Y-4.2597
X7.4505Y-4.6463
X7.4521Y-4.7211
X7.4548Y-4.6778
X7.4552Y-4.5609
X7.456Y-4.3829
X7.4864Y-4.1354
X7.4867Y-4.366
X7.492Y-4.9845
X7.5135Y-4.405
X7.5225Y-4.1514
X7.5477Y-4.3837
X7.5501Y-4.7535
X7.5525Y-4.5546
X7.5781Y-4.3463
X7.584Y-4.5581
X7.5903Y-4.4691
X7.6088Y-4.3467
X7.6089Y-4.7552
X7.6169Y-4.5634
X7.6249Y-4.4699
X7.6375Y-4.6599
X7.6383Y-4.6908
X7.7191Y-4.6064
X7.7221Y-4.577
X7.7395Y-3.9746
X7.7454Y-4.551
X7.7475Y-4.3855
X7.767Y-4.7637
X7.7832Y-4.5741
X7.7942Y-4.6772
X7.7985Y-4.7317
X7.8219Y-4.6546
X7.8304Y-5.0416
X7.8588Y-4.7589
X7.9371Y-3.9298
X7.9958Y-4.4002
X7.9977Y-4.7577
X8.0391Y-4.0231
X8.2481Y-4.6939
X8.3387Y-4.4073
X8.3753Y-4.4089
X8.3755Y-3.8219
X8.4078Y-3.8219
X8.4186Y-4.3057
X8.4442Y-4.864
X8.4698Y-4.338
X8.5066Y-4.7508
X8.5231Y-3.7707
X8.5554Y-3.7707
X8.6017Y-4.5313
X8.6233Y-4.1006
X8.6257Y-3.5046
X8.6292Y-4.3683
X8.6603Y-4.0632
X8.6708Y-3.7065
X8.6907Y-3.5468
X8.6922Y-3.5849
X8.7031Y-3.7065
X8.7332Y-3.5853
X8.8064Y-3.512
X8.8509Y-4.5695
X8.8592Y-3.6983
X8.8592Y-4.6061
X8.8592Y-4.6384
X8.8607Y-3.5475
X8.8765Y-4.079
X8.8796Y-4.1325
X8.9103Y-3.7321
X8.9615Y-4.0026
X8.9808Y-4.6652
X8.9808Y-4.6975
X9.0036Y-3.5467
X9.0064Y-4.5471
X9.0064Y-4.5794
X9.0151Y-4.7498
X9.0552Y-3.74
X9.154Y-4.3223
T2
X7.4947Y-4.6042
X7.4947Y-4.6544
X7.4947Y-4.7046
X7.5449Y-4.6042
X7.5449Y-4.6544
X7.5449Y-4.7046
X7.5951Y-4.6042
X7.5951Y-4.6544
X7.5951Y-4.7046
T3
X9.1792Y-3.8837
X9.1792Y-3.9837
T4
X5.6674Y-5.105
X5.7462Y-5.105
T5
X4.5394Y-4.887
X4.5894Y-4.787
X4.6394Y-4.887
X4.6894Y-4.787
X4.7394Y-4.887
X4.7894Y-4.787
X4.8394Y-4.887
X4.8894Y-4.787
T6
X4.4302Y-3.9275
X4.4302Y-4.0275
X4.4302Y-4.1275
X4.4302Y-4.2275
X4.4302Y-4.3275
X4.4302Y-4.4275
X4.4302Y-4.5275
X4.4302Y-4.6275
T7
X5.1706Y-3.39
X5.1706Y-3.4687
X5.2493Y-3.39
X5.2493Y-3.4687
X5.3281Y-3.39
X5.3281Y-3.4687
X5.4068Y-3.39
X5.4068Y-3.4687
X5.4855Y-3.39
X5.4855Y-3.4687
X6.6859Y-5.1774
X6.7647Y-5.1774
X6.8434Y-5.1774
X6.9221Y-5.1774
X7.0009Y-5.1774
T8
X7.4891Y-5.1668
X7.5891Y-5.1668
X7.6891Y-5.1668
X7.7891Y-5.1668
X7.8891Y-5.1668
X7.9891Y-5.1668
X8.0891Y-5.1668
X8.1891Y-5.1668
T9
X8.875Y-5.1144
T10
X5.2025Y-5.0148
X5.4025Y-5.0148
T11
X8.875Y-4.327
M30
