G04 #@! TF.GenerationSoftware,KiCad,Pcbnew,8.0.0-rc1*
G04 #@! TF.CreationDate,2024-01-27T15:59:43+03:00*
G04 #@! TF.ProjectId,RP2040_minimal,52503230-3430-45f6-9d69-6e696d616c2e,REV1*
G04 #@! TF.SameCoordinates,Original*
G04 #@! TF.FileFunction,Other,User*
%FSLAX46Y46*%
G04 Gerber Fmt 4.6, Leading zero omitted, Abs format (unit mm)*
G04 Created by KiCad (PCBNEW 8.0.0-rc1) date 2024-01-27 15:59:43*
%MOMM*%
%LPD*%
G01*
G04 APERTURE LIST*
%ADD10C,0.050000*%
%ADD11C,0.100000*%
G04 APERTURE END LIST*
D10*
X182862500Y-102766000D02*
X185822500Y-102766000D01*
X182862500Y-104226000D02*
X182862500Y-102766000D01*
X185822500Y-102766000D02*
X185822500Y-104226000D01*
X185822500Y-104226000D02*
X182862500Y-104226000D01*
X177132500Y-122511000D02*
X178592500Y-122511000D01*
X177132500Y-125471000D02*
X177132500Y-122511000D01*
X178592500Y-122511000D02*
X178592500Y-125471000D01*
X178592500Y-125471000D02*
X177132500Y-125471000D01*
X174592500Y-95266000D02*
X176052500Y-95266000D01*
X174592500Y-98226000D02*
X174592500Y-95266000D01*
X176052500Y-95266000D02*
X176052500Y-98226000D01*
X176052500Y-98226000D02*
X174592500Y-98226000D01*
X191092500Y-123231000D02*
X192552500Y-123231000D01*
X191092500Y-126191000D02*
X191092500Y-123231000D01*
X192552500Y-123231000D02*
X192552500Y-126191000D01*
X192552500Y-126191000D02*
X191092500Y-126191000D01*
X217317500Y-125846000D02*
X220277500Y-125846000D01*
X217317500Y-127306000D02*
X217317500Y-125846000D01*
X220277500Y-125846000D02*
X220277500Y-127306000D01*
X220277500Y-127306000D02*
X217317500Y-127306000D01*
X185092500Y-127866000D02*
X186912500Y-127866000D01*
X185092500Y-128786000D02*
X185092500Y-127866000D01*
X186912500Y-127866000D02*
X186912500Y-128786000D01*
X186912500Y-128786000D02*
X185092500Y-128786000D01*
X192724000Y-102126000D02*
X195684000Y-102126000D01*
X192724000Y-103586000D02*
X192724000Y-102126000D01*
X195684000Y-102126000D02*
X195684000Y-103586000D01*
X195684000Y-103586000D02*
X192724000Y-103586000D01*
X149642500Y-101471000D02*
X151102500Y-101471000D01*
X149642500Y-104431000D02*
X149642500Y-101471000D01*
X151102500Y-101471000D02*
X151102500Y-104431000D01*
X151102500Y-104431000D02*
X149642500Y-104431000D01*
X132082500Y-101196000D02*
X135042500Y-101196000D01*
X132082500Y-102656000D02*
X132082500Y-101196000D01*
X135042500Y-101196000D02*
X135042500Y-102656000D01*
X135042500Y-102656000D02*
X132082500Y-102656000D01*
X164242500Y-108546000D02*
X166062500Y-108546000D01*
X164242500Y-109466000D02*
X164242500Y-108546000D01*
X166062500Y-108546000D02*
X166062500Y-109466000D01*
X166062500Y-109466000D02*
X164242500Y-109466000D01*
X192724000Y-103666000D02*
X195684000Y-103666000D01*
X192724000Y-105126000D02*
X192724000Y-103666000D01*
X195684000Y-103666000D02*
X195684000Y-105126000D01*
X195684000Y-105126000D02*
X192724000Y-105126000D01*
X182867500Y-109206000D02*
X185827500Y-109206000D01*
X182867500Y-110666000D02*
X182867500Y-109206000D01*
X185827500Y-109206000D02*
X185827500Y-110666000D01*
X185827500Y-110666000D02*
X182867500Y-110666000D01*
D11*
X221375109Y-107681000D02*
X233029109Y-107681000D01*
X221375109Y-131856000D02*
X221375109Y-107681000D01*
X233029109Y-107681000D02*
X233029109Y-131856000D01*
X233029109Y-131856000D02*
X221375109Y-131856000D01*
D10*
X132092500Y-104346000D02*
X135052500Y-104346000D01*
X132092500Y-105806000D02*
X132092500Y-104346000D01*
X135052500Y-104346000D02*
X135052500Y-105806000D01*
X135052500Y-105806000D02*
X132092500Y-105806000D01*
X185072500Y-128846000D02*
X186892500Y-128846000D01*
X185072500Y-129766000D02*
X185072500Y-128846000D01*
X186892500Y-128846000D02*
X186892500Y-129766000D01*
X186892500Y-129766000D02*
X185072500Y-129766000D01*
X199572500Y-117226000D02*
X202532500Y-117226000D01*
X199572500Y-118686000D02*
X199572500Y-117226000D01*
X202532500Y-117226000D02*
X202532500Y-118686000D01*
X202532500Y-118686000D02*
X199572500Y-118686000D01*
X187520000Y-113352500D02*
G75*
G02*
X186020000Y-113352500I-750000J0D01*
G01*
X186020000Y-113352500D02*
G75*
G02*
X187520000Y-113352500I750000J0D01*
G01*
X132087500Y-102806000D02*
X135047500Y-102806000D01*
X132087500Y-104266000D02*
X132087500Y-102806000D01*
X135047500Y-102806000D02*
X135047500Y-104266000D01*
X135047500Y-104266000D02*
X132087500Y-104266000D01*
X217282500Y-118136000D02*
X220242500Y-118136000D01*
X217282500Y-119596000D02*
X217282500Y-118136000D01*
X220242500Y-118136000D02*
X220242500Y-119596000D01*
X220242500Y-119596000D02*
X217282500Y-119596000D01*
X207162500Y-101716000D02*
X208622500Y-101716000D01*
X207162500Y-104676000D02*
X207162500Y-101716000D01*
X208622500Y-101716000D02*
X208622500Y-104676000D01*
X208622500Y-104676000D02*
X207162500Y-104676000D01*
X148652500Y-108706000D02*
X148652500Y-115606000D01*
X148652500Y-108706000D02*
X159052500Y-108706000D01*
X148652500Y-115606000D02*
X159052500Y-115606000D01*
X159052500Y-108706000D02*
X159052500Y-115606000D01*
X216372500Y-89351000D02*
X219332500Y-89351000D01*
X216372500Y-90811000D02*
X216372500Y-89351000D01*
X219332500Y-89351000D02*
X219332500Y-90811000D01*
X219332500Y-90811000D02*
X216372500Y-90811000D01*
X166012500Y-95711000D02*
X168312500Y-95711000D01*
X166012500Y-99411000D02*
X166012500Y-95711000D01*
X168312500Y-95711000D02*
X168312500Y-99411000D01*
X168312500Y-99411000D02*
X166012500Y-99411000D01*
X189567500Y-123231000D02*
X191027500Y-123231000D01*
X189567500Y-126191000D02*
X189567500Y-123231000D01*
X191027500Y-123231000D02*
X191027500Y-126191000D01*
X191027500Y-126191000D02*
X189567500Y-126191000D01*
X182847500Y-117946000D02*
X185807500Y-117946000D01*
X182847500Y-119406000D02*
X182847500Y-117946000D01*
X185807500Y-117946000D02*
X185807500Y-119406000D01*
X185807500Y-119406000D02*
X182847500Y-119406000D01*
X220522500Y-99706000D02*
X230322500Y-99706000D01*
X220522500Y-107506000D02*
X220522500Y-99706000D01*
X230322500Y-99706000D02*
X230322500Y-107506000D01*
X230322500Y-107506000D02*
X220522500Y-107506000D01*
D11*
X157812500Y-101171000D02*
X162212500Y-101171000D01*
X157812500Y-104421000D02*
X157812500Y-101171000D01*
X162212500Y-101171000D02*
X162212500Y-104421000D01*
X162212500Y-104421000D02*
X157812500Y-104421000D01*
D10*
X187520000Y-114102500D02*
X187520000Y-122342500D01*
X187520000Y-122342500D02*
X195760000Y-122342500D01*
X195760000Y-114102500D02*
X187520000Y-114102500D01*
X195760000Y-122342500D02*
X195760000Y-114102500D01*
X217317500Y-128906000D02*
X220277500Y-128906000D01*
X217317500Y-130366000D02*
X217317500Y-128906000D01*
X220277500Y-128906000D02*
X220277500Y-130366000D01*
X220277500Y-130366000D02*
X217317500Y-130366000D01*
X193482500Y-106086000D02*
X194942500Y-106086000D01*
X193482500Y-109046000D02*
X193482500Y-106086000D01*
X194942500Y-106086000D02*
X194942500Y-109046000D01*
X194942500Y-109046000D02*
X193482500Y-109046000D01*
X152192500Y-118306000D02*
X153652500Y-118306000D01*
X152192500Y-121266000D02*
X152192500Y-118306000D01*
X153652500Y-118306000D02*
X153652500Y-121266000D01*
X153652500Y-121266000D02*
X152192500Y-121266000D01*
X217242500Y-116576000D02*
X220202500Y-116576000D01*
X217242500Y-118036000D02*
X217242500Y-116576000D01*
X220202500Y-116576000D02*
X220202500Y-118036000D01*
X220202500Y-118036000D02*
X217242500Y-118036000D01*
X217302500Y-124286000D02*
X220262500Y-124286000D01*
X217302500Y-125746000D02*
X217302500Y-124286000D01*
X220262500Y-124286000D02*
X220262500Y-125746000D01*
X220262500Y-125746000D02*
X217302500Y-125746000D01*
X183176500Y-127888500D02*
X184996500Y-127888500D01*
X183176500Y-128808500D02*
X183176500Y-127888500D01*
X184996500Y-127888500D02*
X184996500Y-128808500D01*
X184996500Y-128808500D02*
X183176500Y-128808500D01*
X164242500Y-111106000D02*
X167202500Y-111106000D01*
X164242500Y-112566000D02*
X164242500Y-111106000D01*
X167202500Y-111106000D02*
X167202500Y-112566000D01*
X167202500Y-112566000D02*
X164242500Y-112566000D01*
X203012500Y-112956000D02*
X203932500Y-112956000D01*
X203012500Y-114776000D02*
X203012500Y-112956000D01*
X203932500Y-112956000D02*
X203932500Y-114776000D01*
X203932500Y-114776000D02*
X203012500Y-114776000D01*
X183987500Y-110756000D02*
X185807500Y-110756000D01*
X183987500Y-111676000D02*
X183987500Y-110756000D01*
X185807500Y-110756000D02*
X185807500Y-111676000D01*
X185807500Y-111676000D02*
X183987500Y-111676000D01*
X166852500Y-116076000D02*
G75*
G02*
X164852500Y-116076000I-1000000J0D01*
G01*
X164852500Y-116076000D02*
G75*
G02*
X166852500Y-116076000I1000000J0D01*
G01*
X137567500Y-92986000D02*
X140007500Y-92986000D01*
X137567500Y-94986000D02*
X137567500Y-92986000D01*
X140007500Y-92986000D02*
X140007500Y-94986000D01*
X140007500Y-94986000D02*
X137567500Y-94986000D01*
X156772500Y-102636000D02*
X157692500Y-102636000D01*
X156772500Y-104456000D02*
X156772500Y-102636000D01*
X157692500Y-102636000D02*
X157692500Y-104456000D01*
X157692500Y-104456000D02*
X156772500Y-104456000D01*
X217317500Y-127366000D02*
X220277500Y-127366000D01*
X217317500Y-128826000D02*
X217317500Y-127366000D01*
X220277500Y-127366000D02*
X220277500Y-128826000D01*
X220277500Y-128826000D02*
X217317500Y-128826000D01*
X156802500Y-117856000D02*
X156802500Y-121256000D01*
X156802500Y-121256000D02*
X161002500Y-121256000D01*
X161002500Y-117856000D02*
X156802500Y-117856000D01*
X161002500Y-121256000D02*
X161002500Y-117856000D01*
X156782500Y-116836000D02*
X158602500Y-116836000D01*
X156782500Y-117756000D02*
X156782500Y-116836000D01*
X158602500Y-116836000D02*
X158602500Y-117756000D01*
X158602500Y-117756000D02*
X156782500Y-117756000D01*
X166602500Y-101406000D02*
X168062500Y-101406000D01*
X166602500Y-104366000D02*
X166602500Y-101406000D01*
X168062500Y-101406000D02*
X168062500Y-104366000D01*
X168062500Y-104366000D02*
X166602500Y-104366000D01*
X188412500Y-106086000D02*
X188412500Y-109926000D01*
X188412500Y-109926000D02*
X191812500Y-109926000D01*
X191812500Y-106086000D02*
X188412500Y-106086000D01*
X191812500Y-109926000D02*
X191812500Y-106086000D01*
X165042500Y-101396000D02*
X166502500Y-101396000D01*
X165042500Y-104356000D02*
X165042500Y-101396000D01*
X166502500Y-101396000D02*
X166502500Y-104356000D01*
X166502500Y-104356000D02*
X165042500Y-104356000D01*
D11*
X210722500Y-99296000D02*
X220022500Y-99296000D01*
X210722500Y-109296000D02*
X210722500Y-99296000D01*
X220022500Y-99296000D02*
X220022500Y-109296000D01*
X220022500Y-109296000D02*
X210722500Y-109296000D01*
D10*
X168452500Y-95701000D02*
X170752500Y-95701000D01*
X168452500Y-99401000D02*
X168452500Y-95701000D01*
X170752500Y-95701000D02*
X170752500Y-99401000D01*
X170752500Y-99401000D02*
X168452500Y-99401000D01*
X151192500Y-101466000D02*
X152652500Y-101466000D01*
X151192500Y-104426000D02*
X151192500Y-101466000D01*
X152652500Y-101466000D02*
X152652500Y-104426000D01*
X152652500Y-104426000D02*
X151192500Y-104426000D01*
X155212500Y-101496000D02*
X156672500Y-101496000D01*
X155212500Y-104456000D02*
X155212500Y-101496000D01*
X156672500Y-101496000D02*
X156672500Y-104456000D01*
X156672500Y-104456000D02*
X155212500Y-104456000D01*
X199532500Y-112936000D02*
X199532500Y-117136000D01*
X199532500Y-117136000D02*
X202932500Y-117136000D01*
X202932500Y-112936000D02*
X199532500Y-112936000D01*
X202932500Y-117136000D02*
X202932500Y-112936000D01*
X183162500Y-126876000D02*
X184982500Y-126876000D01*
X183162500Y-127796000D02*
X183162500Y-126876000D01*
X184982500Y-126876000D02*
X184982500Y-127796000D01*
X184982500Y-127796000D02*
X183162500Y-127796000D01*
X153722500Y-118291000D02*
X155182500Y-118291000D01*
X153722500Y-121251000D02*
X153722500Y-118291000D01*
X155182500Y-118291000D02*
X155182500Y-121251000D01*
X155182500Y-121251000D02*
X153722500Y-121251000D01*
X182830000Y-121880000D02*
X183750000Y-121880000D01*
X182830000Y-123700000D02*
X182830000Y-121880000D01*
X183750000Y-121880000D02*
X183750000Y-123700000D01*
X183750000Y-123700000D02*
X182830000Y-123700000D01*
X188061500Y-100841000D02*
X192551500Y-100841000D01*
X192551500Y-104331000D01*
X188061500Y-104331000D01*
X188061500Y-100841000D01*
X178312500Y-125536000D02*
X180172500Y-125536000D01*
X178312500Y-126476000D02*
X178312500Y-125536000D01*
X180172500Y-125536000D02*
X180172500Y-126476000D01*
X180172500Y-126476000D02*
X178312500Y-126476000D01*
X163512500Y-101426000D02*
X164972500Y-101426000D01*
X163512500Y-104386000D02*
X163512500Y-101426000D01*
X164972500Y-101426000D02*
X164972500Y-104386000D01*
X164972500Y-104386000D02*
X163512500Y-104386000D01*
X168072500Y-112726000D02*
X168072500Y-115526000D01*
X168072500Y-112726000D02*
X171272500Y-112726000D01*
X168072500Y-115526000D02*
X171272500Y-115526000D01*
X171272500Y-115526000D02*
X171272500Y-112726000D01*
X183192500Y-128866000D02*
X185012500Y-128866000D01*
X183192500Y-129786000D02*
X183192500Y-128866000D01*
X185012500Y-128866000D02*
X185012500Y-129786000D01*
X185012500Y-129786000D02*
X183192500Y-129786000D01*
X198542500Y-114746000D02*
X199462500Y-114746000D01*
X198542500Y-116566000D02*
X198542500Y-114746000D01*
X199462500Y-114746000D02*
X199462500Y-116566000D01*
X199462500Y-116566000D02*
X198542500Y-116566000D01*
X182820000Y-123770000D02*
X185780000Y-123770000D01*
X182820000Y-125230000D02*
X182820000Y-123770000D01*
X185780000Y-123770000D02*
X185780000Y-125230000D01*
X185780000Y-125230000D02*
X182820000Y-125230000D01*
X185092500Y-126886000D02*
X186912500Y-126886000D01*
X185092500Y-127806000D02*
X185092500Y-126886000D01*
X186912500Y-126886000D02*
X186912500Y-127806000D01*
X186912500Y-127806000D02*
X185092500Y-127806000D01*
X217292500Y-119666000D02*
X220252500Y-119666000D01*
X217292500Y-121126000D02*
X217292500Y-119666000D01*
X220252500Y-119666000D02*
X220252500Y-121126000D01*
X220252500Y-121126000D02*
X217292500Y-121126000D01*
X148082500Y-101476000D02*
X149542500Y-101476000D01*
X148082500Y-104436000D02*
X148082500Y-101476000D01*
X149542500Y-101476000D02*
X149542500Y-104436000D01*
X149542500Y-104436000D02*
X148082500Y-104436000D01*
X152722500Y-102596000D02*
X153642500Y-102596000D01*
X152722500Y-104416000D02*
X152722500Y-102596000D01*
X153642500Y-102596000D02*
X153642500Y-104416000D01*
X153642500Y-104416000D02*
X152722500Y-104416000D01*
X182857500Y-111736000D02*
X185817500Y-111736000D01*
X182857500Y-113196000D02*
X182857500Y-111736000D01*
X185817500Y-111736000D02*
X185817500Y-113196000D01*
X185817500Y-113196000D02*
X182857500Y-113196000D01*
X217297500Y-121206000D02*
X220257500Y-121206000D01*
X217297500Y-122666000D02*
X217297500Y-121206000D01*
X220257500Y-121206000D02*
X220257500Y-122666000D01*
X220257500Y-122666000D02*
X217297500Y-122666000D01*
X182857500Y-107676000D02*
X185817500Y-107676000D01*
X182857500Y-109136000D02*
X182857500Y-107676000D01*
X185817500Y-107676000D02*
X185817500Y-109136000D01*
X185817500Y-109136000D02*
X182857500Y-109136000D01*
X182800000Y-125290000D02*
X185760000Y-125290000D01*
X182800000Y-126750000D02*
X182800000Y-125290000D01*
X185760000Y-125290000D02*
X185760000Y-126750000D01*
X185760000Y-126750000D02*
X182800000Y-126750000D01*
X150652500Y-118321000D02*
X152112500Y-118321000D01*
X150652500Y-121281000D02*
X150652500Y-118321000D01*
X152112500Y-118321000D02*
X152112500Y-121281000D01*
X152112500Y-121281000D02*
X150652500Y-121281000D01*
X182847500Y-104566000D02*
X185807500Y-104566000D01*
X182847500Y-106026000D02*
X182847500Y-104566000D01*
X185807500Y-104566000D02*
X185807500Y-106026000D01*
X185807500Y-106026000D02*
X182847500Y-106026000D01*
X127672500Y-97076000D02*
X130632500Y-97076000D01*
X127672500Y-98536000D02*
X127672500Y-97076000D01*
X130632500Y-97076000D02*
X130632500Y-98536000D01*
X130632500Y-98536000D02*
X127672500Y-98536000D01*
X168162500Y-101406000D02*
X169622500Y-101406000D01*
X168162500Y-104366000D02*
X168162500Y-101406000D01*
X169622500Y-101406000D02*
X169622500Y-104366000D01*
X169622500Y-104366000D02*
X168162500Y-104366000D01*
X191922500Y-106086000D02*
X193382500Y-106086000D01*
X191922500Y-109046000D02*
X191922500Y-106086000D01*
X193382500Y-106086000D02*
X193382500Y-109046000D01*
X193382500Y-109046000D02*
X191922500Y-109046000D01*
X173062500Y-95266000D02*
X174522500Y-95266000D01*
X173062500Y-98226000D02*
X173062500Y-95266000D01*
X174522500Y-95266000D02*
X174522500Y-98226000D01*
X174522500Y-98226000D02*
X173062500Y-98226000D01*
X119182500Y-85846000D02*
X120642500Y-85846000D01*
X119182500Y-88806000D02*
X119182500Y-85846000D01*
X120642500Y-85846000D02*
X120642500Y-88806000D01*
X120642500Y-88806000D02*
X119182500Y-88806000D01*
X168312500Y-115626000D02*
X170172500Y-115626000D01*
X168312500Y-116566000D02*
X168312500Y-115626000D01*
X170172500Y-115626000D02*
X170172500Y-116566000D01*
X170172500Y-116566000D02*
X168312500Y-116566000D01*
X217312500Y-122746000D02*
X220272500Y-122746000D01*
X217312500Y-124206000D02*
X217312500Y-122746000D01*
X220272500Y-122746000D02*
X220272500Y-124206000D01*
X220272500Y-124206000D02*
X217312500Y-124206000D01*
X198472500Y-106646000D02*
X199932500Y-106646000D01*
X198472500Y-109606000D02*
X198472500Y-106646000D01*
X199932500Y-106646000D02*
X199932500Y-109606000D01*
X199932500Y-109606000D02*
X198472500Y-109606000D01*
X195002500Y-106088500D02*
X195002500Y-109928500D01*
X195002500Y-109928500D02*
X198402500Y-109928500D01*
X198402500Y-106088500D02*
X195002500Y-106088500D01*
X198402500Y-109928500D02*
X198402500Y-106088500D01*
X178292500Y-126546000D02*
X180152500Y-126546000D01*
X178292500Y-127486000D02*
X178292500Y-126546000D01*
X180152500Y-126546000D02*
X180152500Y-127486000D01*
X180152500Y-127486000D02*
X178292500Y-127486000D01*
X184800000Y-121870000D02*
X185720000Y-121870000D01*
X184800000Y-123690000D02*
X184800000Y-121870000D01*
X185720000Y-121870000D02*
X185720000Y-123690000D01*
X185720000Y-123690000D02*
X184800000Y-123690000D01*
X115342500Y-89121000D02*
X119102500Y-89121000D01*
X119102500Y-84426000D01*
X115342500Y-84426000D01*
X115342500Y-89121000D01*
X199552500Y-118756000D02*
X202512500Y-118756000D01*
X199552500Y-120216000D02*
X199552500Y-118756000D01*
X202512500Y-118756000D02*
X202512500Y-120216000D01*
X202512500Y-120216000D02*
X199552500Y-120216000D01*
X132092500Y-99626000D02*
X135052500Y-99626000D01*
X132092500Y-101086000D02*
X132092500Y-99626000D01*
X135052500Y-99626000D02*
X135052500Y-101086000D01*
X135052500Y-101086000D02*
X132092500Y-101086000D01*
X198242500Y-96286000D02*
X198242500Y-103486000D01*
X198242500Y-103486000D02*
X207042500Y-103486000D01*
X207042500Y-96286000D02*
X198242500Y-96286000D01*
X207042500Y-103486000D02*
X207042500Y-96286000D01*
X128102500Y-124876000D02*
X128102500Y-132964000D01*
X128102500Y-132964000D02*
X141262500Y-132964000D01*
X141262500Y-124876000D02*
X128102500Y-124876000D01*
X141262500Y-132964000D02*
X141262500Y-124876000D01*
X218062500Y-115576000D02*
X219922500Y-115576000D01*
X218062500Y-116516000D02*
X218062500Y-115576000D01*
X219922500Y-115576000D02*
X219922500Y-116516000D01*
X219922500Y-116516000D02*
X218062500Y-116516000D01*
X136802500Y-96566000D02*
X140502500Y-96566000D01*
X136802500Y-98866000D02*
X136802500Y-96566000D01*
X140502500Y-96566000D02*
X140502500Y-98866000D01*
X140502500Y-98866000D02*
X136802500Y-98866000D01*
X182857500Y-113286000D02*
X185817500Y-113286000D01*
X182857500Y-114746000D02*
X182857500Y-113286000D01*
X185817500Y-113286000D02*
X185817500Y-114746000D01*
X185817500Y-114746000D02*
X182857500Y-114746000D01*
X164142500Y-109536000D02*
X167102500Y-109536000D01*
X164142500Y-110996000D02*
X164142500Y-109536000D01*
X167102500Y-109536000D02*
X167102500Y-110996000D01*
X167102500Y-110996000D02*
X164142500Y-110996000D01*
X142192500Y-92876000D02*
X142192500Y-87226000D01*
X142192500Y-92876000D02*
X142822500Y-92876000D01*
X142812500Y-100486000D02*
X142822500Y-92876000D01*
X142812500Y-100486000D02*
X155852500Y-100486000D01*
X144792500Y-85586000D02*
X153892500Y-85586000D01*
X144792500Y-87226000D02*
X142192500Y-87226000D01*
X144792500Y-87226000D02*
X144792500Y-85586000D01*
X153892500Y-87296000D02*
X153892500Y-85586000D01*
X155852500Y-100486000D02*
X155862500Y-92816000D01*
X155862500Y-92816000D02*
X156492500Y-92816000D01*
X156492500Y-87296000D02*
X153892500Y-87296000D01*
X156492500Y-92816000D02*
X156492500Y-87296000D01*
X161092500Y-119976000D02*
X162012500Y-119976000D01*
X161092500Y-121796000D02*
X161092500Y-119976000D01*
X162012500Y-119976000D02*
X162012500Y-121796000D01*
X162012500Y-121796000D02*
X161092500Y-121796000D01*
X185062500Y-129866000D02*
X186882500Y-129866000D01*
X185062500Y-130786000D02*
X185062500Y-129866000D01*
X186882500Y-129866000D02*
X186882500Y-130786000D01*
X186882500Y-130786000D02*
X185062500Y-130786000D01*
X225372500Y-89356000D02*
X228332500Y-89356000D01*
X225372500Y-90816000D02*
X225372500Y-89356000D01*
X228332500Y-89356000D02*
X228332500Y-90816000D01*
X228332500Y-90816000D02*
X225372500Y-90816000D01*
X196142500Y-97336000D02*
X197602500Y-97336000D01*
X196142500Y-100296000D02*
X196142500Y-97336000D01*
X197602500Y-97336000D02*
X197602500Y-100296000D01*
X197602500Y-100296000D02*
X196142500Y-100296000D01*
X153702500Y-101471000D02*
X155162500Y-101471000D01*
X153702500Y-104431000D02*
X153702500Y-101471000D01*
X155162500Y-101471000D02*
X155162500Y-104431000D01*
X155162500Y-104431000D02*
X153702500Y-104431000D01*
X182842500Y-106146000D02*
X185802500Y-106146000D01*
X182842500Y-107606000D02*
X182842500Y-106146000D01*
X185802500Y-106146000D02*
X185802500Y-107606000D01*
X185802500Y-107606000D02*
X182842500Y-107606000D01*
X182847500Y-119466000D02*
X185807500Y-119466000D01*
X182847500Y-120926000D02*
X182847500Y-119466000D01*
X185807500Y-119466000D02*
X185807500Y-120926000D01*
X185807500Y-120926000D02*
X182847500Y-120926000D01*
X155262500Y-118281000D02*
X156722500Y-118281000D01*
X155262500Y-121241000D02*
X155262500Y-118281000D01*
X156722500Y-118281000D02*
X156722500Y-121241000D01*
X156722500Y-121241000D02*
X155262500Y-121241000D01*
X192724000Y-100576000D02*
X195684000Y-100576000D01*
X192724000Y-102036000D02*
X192724000Y-100576000D01*
X195684000Y-100576000D02*
X195684000Y-102036000D01*
X195684000Y-102036000D02*
X192724000Y-102036000D01*
X164512500Y-112676000D02*
X166372500Y-112676000D01*
X164512500Y-113616000D02*
X164512500Y-112676000D01*
X166372500Y-112676000D02*
X166372500Y-113616000D01*
X166372500Y-113616000D02*
X164512500Y-113616000D01*
X137037500Y-95056000D02*
X139997500Y-95056000D01*
X137037500Y-96516000D02*
X137037500Y-95056000D01*
X139997500Y-95056000D02*
X139997500Y-96516000D01*
X139997500Y-96516000D02*
X137037500Y-96516000D01*
X170842500Y-95946000D02*
X172302500Y-95946000D01*
X170842500Y-98906000D02*
X170842500Y-95946000D01*
X172302500Y-95946000D02*
X172302500Y-98906000D01*
X172302500Y-98906000D02*
X170842500Y-98906000D01*
X185072500Y-130846000D02*
X186892500Y-130846000D01*
X185072500Y-131766000D02*
X185072500Y-130846000D01*
X186892500Y-130846000D02*
X186892500Y-131766000D01*
X186892500Y-131766000D02*
X185072500Y-131766000D01*
X132082500Y-105916000D02*
X135042500Y-105916000D01*
X132082500Y-107376000D02*
X132082500Y-105916000D01*
X135042500Y-105916000D02*
X135042500Y-107376000D01*
X135042500Y-107376000D02*
X132082500Y-107376000D01*
X168060000Y-111086000D02*
X171020000Y-111086000D01*
X168060000Y-112546000D02*
X168060000Y-111086000D01*
X171020000Y-111086000D02*
X171020000Y-112546000D01*
X171020000Y-112546000D02*
X168060000Y-112546000D01*
X182847500Y-100806000D02*
X185807500Y-100806000D01*
X182847500Y-102266000D02*
X182847500Y-100806000D01*
X185807500Y-100806000D02*
X185807500Y-102266000D01*
X185807500Y-102266000D02*
X182847500Y-102266000D01*
X163602500Y-95741000D02*
X165902500Y-95741000D01*
X163602500Y-99441000D02*
X163602500Y-95741000D01*
X165902500Y-95741000D02*
X165902500Y-99441000D01*
X165902500Y-99441000D02*
X163602500Y-99441000D01*
X171362500Y-109796000D02*
G75*
G02*
X169362500Y-109796000I-1000000J0D01*
G01*
X169362500Y-109796000D02*
G75*
G02*
X171362500Y-109796000I1000000J0D01*
G01*
X219522500Y-92641000D02*
X223282500Y-92641000D01*
X223282500Y-87946000D01*
X219522500Y-87946000D01*
X219522500Y-92641000D01*
X197260000Y-123092500D02*
G75*
G02*
X195760000Y-123092500I-750000J0D01*
G01*
X195760000Y-123092500D02*
G75*
G02*
X197260000Y-123092500I750000J0D01*
G01*
X178682500Y-122486000D02*
X180142500Y-122486000D01*
X178682500Y-125446000D02*
X178682500Y-122486000D01*
X180142500Y-122486000D02*
X180142500Y-125446000D01*
X180142500Y-125446000D02*
X178682500Y-125446000D01*
X199592500Y-111326000D02*
X202552500Y-111326000D01*
X199592500Y-112786000D02*
X199592500Y-111326000D01*
X202552500Y-111326000D02*
X202552500Y-112786000D01*
X202552500Y-112786000D02*
X199592500Y-112786000D01*
X170922500Y-102236000D02*
X170922500Y-107956000D01*
X170922500Y-107956000D02*
X180222500Y-107956000D01*
X180222500Y-102236000D02*
X170922500Y-102236000D01*
X180222500Y-107956000D02*
X180222500Y-102236000D01*
X183810000Y-121880000D02*
X184730000Y-121880000D01*
X183810000Y-123700000D02*
X183810000Y-121880000D01*
X184730000Y-121880000D02*
X184730000Y-123700000D01*
X184730000Y-123700000D02*
X183810000Y-123700000D01*
X167392500Y-124266000D02*
X170352500Y-124266000D01*
X167392500Y-125726000D02*
X167392500Y-124266000D01*
X170352500Y-124266000D02*
X170352500Y-125726000D01*
X170352500Y-125726000D02*
X167392500Y-125726000D01*
M02*
