G04 #@! TF.GenerationSoftware,KiCad,Pcbnew,7.99.0-1900-g89780d353a*
G04 #@! TF.CreationDate,2023-08-29T18:06:46+03:00*
G04 #@! TF.ProjectId,RP2040_minimal,52503230-3430-45f6-9d69-6e696d616c2e,REV1*
G04 #@! TF.SameCoordinates,Original*
G04 #@! TF.FileFunction,Soldermask,Bot*
G04 #@! TF.FilePolarity,Negative*
%FSLAX46Y46*%
G04 Gerber Fmt 4.6, Leading zero omitted, Abs format (unit mm)*
G04 Created by KiCad (PCBNEW 7.99.0-1900-g89780d353a) date 2023-08-29 18:06:46*
%MOMM*%
%LPD*%
G01*
G04 APERTURE LIST*
G04 APERTURE END LIST*
G36*
X108498630Y-134246495D02*
G01*
X108735285Y-134303311D01*
X108960139Y-134396449D01*
X109167655Y-134523615D01*
X109352723Y-134681677D01*
X109510785Y-134866745D01*
X109637951Y-135074261D01*
X109731089Y-135299115D01*
X109787905Y-135535770D01*
X109807000Y-135778400D01*
X109787905Y-136021030D01*
X109731089Y-136257685D01*
X109637951Y-136482539D01*
X109510785Y-136690055D01*
X109352723Y-136875123D01*
X109167655Y-137033185D01*
X108960139Y-137160351D01*
X108735285Y-137253489D01*
X108498630Y-137310305D01*
X108256000Y-137329400D01*
X108013370Y-137310305D01*
X107776715Y-137253489D01*
X107551861Y-137160351D01*
X107344345Y-137033185D01*
X107159277Y-136875123D01*
X107001215Y-136690055D01*
X106874049Y-136482539D01*
X106780911Y-136257685D01*
X106724095Y-136021030D01*
X106705000Y-135778400D01*
X106724095Y-135535770D01*
X106780911Y-135299115D01*
X106874049Y-135074261D01*
X107001215Y-134866745D01*
X107159277Y-134681677D01*
X107344345Y-134523615D01*
X107551861Y-134396449D01*
X107776715Y-134303311D01*
X108013370Y-134246495D01*
X108256000Y-134227400D01*
X108498630Y-134246495D01*
G37*
G36*
X187098630Y-134246495D02*
G01*
X187335285Y-134303311D01*
X187560139Y-134396449D01*
X187767655Y-134523615D01*
X187952723Y-134681677D01*
X188110785Y-134866745D01*
X188237951Y-135074261D01*
X188331089Y-135299115D01*
X188387905Y-135535770D01*
X188407000Y-135778400D01*
X188387905Y-136021030D01*
X188331089Y-136257685D01*
X188237951Y-136482539D01*
X188110785Y-136690055D01*
X187952723Y-136875123D01*
X187767655Y-137033185D01*
X187560139Y-137160351D01*
X187335285Y-137253489D01*
X187098630Y-137310305D01*
X186856000Y-137329400D01*
X186613370Y-137310305D01*
X186376715Y-137253489D01*
X186151861Y-137160351D01*
X185944345Y-137033185D01*
X185759277Y-136875123D01*
X185601215Y-136690055D01*
X185474049Y-136482539D01*
X185380911Y-136257685D01*
X185324095Y-136021030D01*
X185305000Y-135778400D01*
X185324095Y-135535770D01*
X185380911Y-135299115D01*
X185474049Y-135074261D01*
X185601215Y-134866745D01*
X185759277Y-134681677D01*
X185944345Y-134523615D01*
X186151861Y-134396449D01*
X186376715Y-134303311D01*
X186613370Y-134246495D01*
X186856000Y-134227400D01*
X187098630Y-134246495D01*
G37*
G36*
X184477550Y-132270602D02*
G01*
X184631000Y-132324297D01*
X184768654Y-132410790D01*
X184883610Y-132525746D01*
X184970103Y-132663400D01*
X185023798Y-132816850D01*
X185042000Y-132978400D01*
X185023798Y-133139950D01*
X184970103Y-133293400D01*
X184883610Y-133431054D01*
X184768654Y-133546010D01*
X184631000Y-133632503D01*
X184477550Y-133686198D01*
X184316000Y-133704400D01*
X184154450Y-133686198D01*
X184001000Y-133632503D01*
X183863346Y-133546010D01*
X183748390Y-133431054D01*
X183661897Y-133293400D01*
X183608202Y-133139950D01*
X183590000Y-132978400D01*
X183608202Y-132816850D01*
X183661897Y-132663400D01*
X183748390Y-132525746D01*
X183863346Y-132410790D01*
X184001000Y-132324297D01*
X184154450Y-132270602D01*
X184316000Y-132252400D01*
X184477550Y-132270602D01*
G37*
G36*
X184477550Y-130270602D02*
G01*
X184631000Y-130324297D01*
X184768654Y-130410790D01*
X184883610Y-130525746D01*
X184970103Y-130663400D01*
X185023798Y-130816850D01*
X185042000Y-130978400D01*
X185023798Y-131139950D01*
X184970103Y-131293400D01*
X184883610Y-131431054D01*
X184768654Y-131546010D01*
X184631000Y-131632503D01*
X184477550Y-131686198D01*
X184316000Y-131704400D01*
X184154450Y-131686198D01*
X184001000Y-131632503D01*
X183863346Y-131546010D01*
X183748390Y-131431054D01*
X183661897Y-131293400D01*
X183608202Y-131139950D01*
X183590000Y-130978400D01*
X183608202Y-130816850D01*
X183661897Y-130663400D01*
X183748390Y-130525746D01*
X183863346Y-130410790D01*
X184001000Y-130324297D01*
X184154450Y-130270602D01*
X184316000Y-130252400D01*
X184477550Y-130270602D01*
G37*
G36*
X184477550Y-128270602D02*
G01*
X184631000Y-128324297D01*
X184768654Y-128410790D01*
X184883610Y-128525746D01*
X184970103Y-128663400D01*
X185023798Y-128816850D01*
X185042000Y-128978400D01*
X185023798Y-129139950D01*
X184970103Y-129293400D01*
X184883610Y-129431054D01*
X184768654Y-129546010D01*
X184631000Y-129632503D01*
X184477550Y-129686198D01*
X184316000Y-129704400D01*
X184154450Y-129686198D01*
X184001000Y-129632503D01*
X183863346Y-129546010D01*
X183748390Y-129431054D01*
X183661897Y-129293400D01*
X183608202Y-129139950D01*
X183590000Y-128978400D01*
X183608202Y-128816850D01*
X183661897Y-128663400D01*
X183748390Y-128525746D01*
X183863346Y-128410790D01*
X184001000Y-128324297D01*
X184154450Y-128270602D01*
X184316000Y-128252400D01*
X184477550Y-128270602D01*
G37*
G36*
X184477550Y-126270602D02*
G01*
X184631000Y-126324297D01*
X184768654Y-126410790D01*
X184883610Y-126525746D01*
X184970103Y-126663400D01*
X185023798Y-126816850D01*
X185042000Y-126978400D01*
X185023798Y-127139950D01*
X184970103Y-127293400D01*
X184883610Y-127431054D01*
X184768654Y-127546010D01*
X184631000Y-127632503D01*
X184477550Y-127686198D01*
X184316000Y-127704400D01*
X184154450Y-127686198D01*
X184001000Y-127632503D01*
X183863346Y-127546010D01*
X183748390Y-127431054D01*
X183661897Y-127293400D01*
X183608202Y-127139950D01*
X183590000Y-126978400D01*
X183608202Y-126816850D01*
X183661897Y-126663400D01*
X183748390Y-126525746D01*
X183863346Y-126410790D01*
X184001000Y-126324297D01*
X184154450Y-126270602D01*
X184316000Y-126252400D01*
X184477550Y-126270602D01*
G37*
G36*
X185010517Y-124256282D02*
G01*
X185027062Y-124267338D01*
X185038118Y-124283883D01*
X185042000Y-124303400D01*
X185042000Y-125653400D01*
X185038118Y-125672917D01*
X185027062Y-125689462D01*
X185010517Y-125700518D01*
X184991000Y-125704400D01*
X183641000Y-125704400D01*
X183621483Y-125700518D01*
X183604938Y-125689462D01*
X183593882Y-125672917D01*
X183590000Y-125653400D01*
X183590000Y-124303400D01*
X183593882Y-124283883D01*
X183604938Y-124267338D01*
X183621483Y-124256282D01*
X183641000Y-124252400D01*
X184991000Y-124252400D01*
X185010517Y-124256282D01*
G37*
G36*
X171232058Y-121797511D02*
G01*
X171321001Y-121802022D01*
X171369185Y-121811923D01*
X171418328Y-121817089D01*
X171459640Y-121830512D01*
X171500656Y-121838941D01*
X171547655Y-121859110D01*
X171597470Y-121875296D01*
X171632497Y-121895518D01*
X171668141Y-121910815D01*
X171712656Y-121941798D01*
X171760595Y-121969476D01*
X171788429Y-121994538D01*
X171817737Y-122014937D01*
X171857249Y-122056504D01*
X171900573Y-122095513D01*
X171920820Y-122123381D01*
X171943305Y-122147035D01*
X171975297Y-122198362D01*
X172011289Y-122247900D01*
X172024075Y-122276618D01*
X172039713Y-122301707D01*
X172061813Y-122361379D01*
X172087902Y-122419976D01*
X172093811Y-122447777D01*
X172103012Y-122472620D01*
X172113130Y-122538667D01*
X172127064Y-122604220D01*
X172127064Y-122629617D01*
X172130612Y-122652777D01*
X172127064Y-122722730D01*
X172127064Y-122792580D01*
X172122410Y-122814470D01*
X172121380Y-122834798D01*
X172103008Y-122905755D01*
X172087902Y-122976824D01*
X172080028Y-122994508D01*
X172075695Y-123011245D01*
X172041927Y-123080084D01*
X172011289Y-123148900D01*
X172001693Y-123162106D01*
X171995432Y-123174872D01*
X171946350Y-123238279D01*
X171900573Y-123301287D01*
X171890693Y-123310182D01*
X171883869Y-123318999D01*
X171820153Y-123373697D01*
X171760595Y-123427324D01*
X171751711Y-123432452D01*
X171745582Y-123437715D01*
X171668320Y-123480598D01*
X171597470Y-123521504D01*
X171590603Y-123523735D01*
X171586220Y-123526168D01*
X171495923Y-123554498D01*
X171418328Y-123579711D01*
X171414173Y-123580147D01*
X171412324Y-123580728D01*
X171299069Y-123592245D01*
X171231000Y-123599400D01*
X171228719Y-123599400D01*
X170982135Y-123599400D01*
X170981000Y-123599400D01*
X170979941Y-123599288D01*
X170890998Y-123594777D01*
X170842822Y-123584876D01*
X170793672Y-123579711D01*
X170752352Y-123566285D01*
X170711343Y-123557858D01*
X170664349Y-123537691D01*
X170614530Y-123521504D01*
X170579498Y-123501278D01*
X170543858Y-123485984D01*
X170499345Y-123455002D01*
X170451405Y-123427324D01*
X170423568Y-123402260D01*
X170394262Y-123381862D01*
X170354750Y-123340295D01*
X170311427Y-123301287D01*
X170291179Y-123273418D01*
X170268694Y-123249764D01*
X170236699Y-123198434D01*
X170200711Y-123148900D01*
X170187925Y-123120183D01*
X170172286Y-123095092D01*
X170150183Y-123035412D01*
X170124098Y-122976824D01*
X170118189Y-122949026D01*
X170108987Y-122924179D01*
X170098866Y-122858118D01*
X170084936Y-122792580D01*
X170084936Y-122767187D01*
X170081387Y-122744022D01*
X170084936Y-122674048D01*
X170084936Y-122604220D01*
X170089587Y-122582335D01*
X170090619Y-122562001D01*
X170108997Y-122491017D01*
X170124098Y-122419976D01*
X170131968Y-122402298D01*
X170136304Y-122385554D01*
X170170087Y-122316682D01*
X170200711Y-122247900D01*
X170210301Y-122234699D01*
X170216567Y-122221927D01*
X170265676Y-122158483D01*
X170311427Y-122095513D01*
X170321300Y-122086622D01*
X170328130Y-122077800D01*
X170391891Y-122023062D01*
X170451405Y-121969476D01*
X170460281Y-121964351D01*
X170466417Y-121959084D01*
X170543749Y-121916160D01*
X170614530Y-121875296D01*
X170621390Y-121873066D01*
X170625779Y-121870631D01*
X170716194Y-121842263D01*
X170793672Y-121817089D01*
X170797819Y-121816653D01*
X170799675Y-121816071D01*
X170913054Y-121804541D01*
X170981000Y-121797400D01*
X171231000Y-121797400D01*
X171232058Y-121797511D01*
G37*
G36*
X168000517Y-121206282D02*
G01*
X168017062Y-121217338D01*
X168028118Y-121233883D01*
X168032000Y-121253400D01*
X168032000Y-122103400D01*
X168028118Y-122122917D01*
X168017062Y-122139462D01*
X168000517Y-122150518D01*
X167981000Y-122154400D01*
X167131000Y-122154400D01*
X167111483Y-122150518D01*
X167094938Y-122139462D01*
X167083882Y-122122917D01*
X167080000Y-122103400D01*
X167080000Y-121253400D01*
X167083882Y-121233883D01*
X167094938Y-121217338D01*
X167111483Y-121206282D01*
X167131000Y-121202400D01*
X167981000Y-121202400D01*
X168000517Y-121206282D01*
G37*
G36*
X171232058Y-119297511D02*
G01*
X171321001Y-119302022D01*
X171369185Y-119311923D01*
X171418328Y-119317089D01*
X171459640Y-119330512D01*
X171500656Y-119338941D01*
X171547655Y-119359110D01*
X171597470Y-119375296D01*
X171632497Y-119395518D01*
X171668141Y-119410815D01*
X171712656Y-119441798D01*
X171760595Y-119469476D01*
X171788429Y-119494538D01*
X171817737Y-119514937D01*
X171857249Y-119556504D01*
X171900573Y-119595513D01*
X171920820Y-119623381D01*
X171943305Y-119647035D01*
X171975297Y-119698362D01*
X172011289Y-119747900D01*
X172024075Y-119776618D01*
X172039713Y-119801707D01*
X172061813Y-119861379D01*
X172087902Y-119919976D01*
X172093811Y-119947777D01*
X172103012Y-119972620D01*
X172113130Y-120038667D01*
X172127064Y-120104220D01*
X172127064Y-120129617D01*
X172130612Y-120152777D01*
X172127064Y-120222730D01*
X172127064Y-120292580D01*
X172122410Y-120314470D01*
X172121380Y-120334798D01*
X172103008Y-120405755D01*
X172087902Y-120476824D01*
X172080028Y-120494508D01*
X172075695Y-120511245D01*
X172041927Y-120580084D01*
X172011289Y-120648900D01*
X172001693Y-120662106D01*
X171995432Y-120674872D01*
X171946350Y-120738279D01*
X171900573Y-120801287D01*
X171890693Y-120810182D01*
X171883869Y-120818999D01*
X171820153Y-120873697D01*
X171760595Y-120927324D01*
X171751711Y-120932452D01*
X171745582Y-120937715D01*
X171668320Y-120980598D01*
X171597470Y-121021504D01*
X171590603Y-121023735D01*
X171586220Y-121026168D01*
X171495923Y-121054498D01*
X171418328Y-121079711D01*
X171414173Y-121080147D01*
X171412324Y-121080728D01*
X171299069Y-121092245D01*
X171231000Y-121099400D01*
X171228719Y-121099400D01*
X170982135Y-121099400D01*
X170981000Y-121099400D01*
X170979941Y-121099288D01*
X170890998Y-121094777D01*
X170842822Y-121084876D01*
X170793672Y-121079711D01*
X170752352Y-121066285D01*
X170711343Y-121057858D01*
X170664349Y-121037691D01*
X170614530Y-121021504D01*
X170579498Y-121001278D01*
X170543858Y-120985984D01*
X170499345Y-120955002D01*
X170451405Y-120927324D01*
X170423568Y-120902260D01*
X170394262Y-120881862D01*
X170354750Y-120840295D01*
X170311427Y-120801287D01*
X170291179Y-120773418D01*
X170268694Y-120749764D01*
X170236699Y-120698434D01*
X170200711Y-120648900D01*
X170187925Y-120620183D01*
X170172286Y-120595092D01*
X170150183Y-120535412D01*
X170124098Y-120476824D01*
X170118189Y-120449026D01*
X170108987Y-120424179D01*
X170098866Y-120358118D01*
X170084936Y-120292580D01*
X170084936Y-120267187D01*
X170081387Y-120244022D01*
X170084936Y-120174048D01*
X170084936Y-120104220D01*
X170089587Y-120082335D01*
X170090619Y-120062001D01*
X170108997Y-119991017D01*
X170124098Y-119919976D01*
X170131968Y-119902298D01*
X170136304Y-119885554D01*
X170170087Y-119816682D01*
X170200711Y-119747900D01*
X170210301Y-119734699D01*
X170216567Y-119721927D01*
X170265676Y-119658483D01*
X170311427Y-119595513D01*
X170321300Y-119586622D01*
X170328130Y-119577800D01*
X170391891Y-119523062D01*
X170451405Y-119469476D01*
X170460281Y-119464351D01*
X170466417Y-119459084D01*
X170543749Y-119416160D01*
X170614530Y-119375296D01*
X170621390Y-119373066D01*
X170625779Y-119370631D01*
X170716194Y-119342263D01*
X170793672Y-119317089D01*
X170797819Y-119316653D01*
X170799675Y-119316071D01*
X170913054Y-119304541D01*
X170981000Y-119297400D01*
X171231000Y-119297400D01*
X171232058Y-119297511D01*
G37*
G36*
X171232058Y-116797511D02*
G01*
X171321001Y-116802022D01*
X171369185Y-116811923D01*
X171418328Y-116817089D01*
X171459640Y-116830512D01*
X171500656Y-116838941D01*
X171547655Y-116859110D01*
X171597470Y-116875296D01*
X171632497Y-116895518D01*
X171668141Y-116910815D01*
X171712656Y-116941798D01*
X171760595Y-116969476D01*
X171788429Y-116994538D01*
X171817737Y-117014937D01*
X171857249Y-117056504D01*
X171900573Y-117095513D01*
X171920820Y-117123381D01*
X171943305Y-117147035D01*
X171975297Y-117198362D01*
X172011289Y-117247900D01*
X172024075Y-117276618D01*
X172039713Y-117301707D01*
X172061813Y-117361379D01*
X172087902Y-117419976D01*
X172093811Y-117447777D01*
X172103012Y-117472620D01*
X172113130Y-117538667D01*
X172127064Y-117604220D01*
X172127064Y-117629617D01*
X172130612Y-117652777D01*
X172127064Y-117722730D01*
X172127064Y-117792580D01*
X172122410Y-117814470D01*
X172121380Y-117834798D01*
X172103008Y-117905755D01*
X172087902Y-117976824D01*
X172080028Y-117994508D01*
X172075695Y-118011245D01*
X172041927Y-118080084D01*
X172011289Y-118148900D01*
X172001693Y-118162106D01*
X171995432Y-118174872D01*
X171946350Y-118238279D01*
X171900573Y-118301287D01*
X171890693Y-118310182D01*
X171883869Y-118318999D01*
X171820153Y-118373697D01*
X171760595Y-118427324D01*
X171751711Y-118432452D01*
X171745582Y-118437715D01*
X171668320Y-118480598D01*
X171597470Y-118521504D01*
X171590603Y-118523735D01*
X171586220Y-118526168D01*
X171495923Y-118554498D01*
X171418328Y-118579711D01*
X171414173Y-118580147D01*
X171412324Y-118580728D01*
X171299069Y-118592245D01*
X171231000Y-118599400D01*
X171228719Y-118599400D01*
X170982135Y-118599400D01*
X170981000Y-118599400D01*
X170979941Y-118599288D01*
X170890998Y-118594777D01*
X170842822Y-118584876D01*
X170793672Y-118579711D01*
X170752352Y-118566285D01*
X170711343Y-118557858D01*
X170664349Y-118537691D01*
X170614530Y-118521504D01*
X170579498Y-118501278D01*
X170543858Y-118485984D01*
X170499345Y-118455002D01*
X170451405Y-118427324D01*
X170423568Y-118402260D01*
X170394262Y-118381862D01*
X170354750Y-118340295D01*
X170311427Y-118301287D01*
X170291179Y-118273418D01*
X170268694Y-118249764D01*
X170236699Y-118198434D01*
X170200711Y-118148900D01*
X170187925Y-118120183D01*
X170172286Y-118095092D01*
X170150183Y-118035412D01*
X170124098Y-117976824D01*
X170118189Y-117949026D01*
X170108987Y-117924179D01*
X170098866Y-117858118D01*
X170084936Y-117792580D01*
X170084936Y-117767187D01*
X170081387Y-117744022D01*
X170084936Y-117674048D01*
X170084936Y-117604220D01*
X170089587Y-117582335D01*
X170090619Y-117562001D01*
X170108997Y-117491017D01*
X170124098Y-117419976D01*
X170131968Y-117402298D01*
X170136304Y-117385554D01*
X170170087Y-117316682D01*
X170200711Y-117247900D01*
X170210301Y-117234699D01*
X170216567Y-117221927D01*
X170265676Y-117158483D01*
X170311427Y-117095513D01*
X170321300Y-117086622D01*
X170328130Y-117077800D01*
X170391891Y-117023062D01*
X170451405Y-116969476D01*
X170460281Y-116964351D01*
X170466417Y-116959084D01*
X170543749Y-116916160D01*
X170614530Y-116875296D01*
X170621390Y-116873066D01*
X170625779Y-116870631D01*
X170716194Y-116842263D01*
X170793672Y-116817089D01*
X170797819Y-116816653D01*
X170799675Y-116816071D01*
X170913054Y-116804541D01*
X170981000Y-116797400D01*
X171231000Y-116797400D01*
X171232058Y-116797511D01*
G37*
G36*
X171232058Y-114297511D02*
G01*
X171321001Y-114302022D01*
X171369185Y-114311923D01*
X171418328Y-114317089D01*
X171459640Y-114330512D01*
X171500656Y-114338941D01*
X171547655Y-114359110D01*
X171597470Y-114375296D01*
X171632497Y-114395518D01*
X171668141Y-114410815D01*
X171712656Y-114441798D01*
X171760595Y-114469476D01*
X171788429Y-114494538D01*
X171817737Y-114514937D01*
X171857249Y-114556504D01*
X171900573Y-114595513D01*
X171920820Y-114623381D01*
X171943305Y-114647035D01*
X171975297Y-114698362D01*
X172011289Y-114747900D01*
X172024075Y-114776618D01*
X172039713Y-114801707D01*
X172061813Y-114861379D01*
X172087902Y-114919976D01*
X172093811Y-114947777D01*
X172103012Y-114972620D01*
X172113130Y-115038667D01*
X172127064Y-115104220D01*
X172127064Y-115129617D01*
X172130612Y-115152777D01*
X172127064Y-115222730D01*
X172127064Y-115292580D01*
X172122410Y-115314470D01*
X172121380Y-115334798D01*
X172103008Y-115405755D01*
X172087902Y-115476824D01*
X172080028Y-115494508D01*
X172075695Y-115511245D01*
X172041927Y-115580084D01*
X172011289Y-115648900D01*
X172001693Y-115662106D01*
X171995432Y-115674872D01*
X171946350Y-115738279D01*
X171900573Y-115801287D01*
X171890693Y-115810182D01*
X171883869Y-115818999D01*
X171820153Y-115873697D01*
X171760595Y-115927324D01*
X171751711Y-115932452D01*
X171745582Y-115937715D01*
X171668320Y-115980598D01*
X171597470Y-116021504D01*
X171590603Y-116023735D01*
X171586220Y-116026168D01*
X171495923Y-116054498D01*
X171418328Y-116079711D01*
X171414173Y-116080147D01*
X171412324Y-116080728D01*
X171299069Y-116092245D01*
X171231000Y-116099400D01*
X171228719Y-116099400D01*
X170982135Y-116099400D01*
X170981000Y-116099400D01*
X170979941Y-116099288D01*
X170890998Y-116094777D01*
X170842822Y-116084876D01*
X170793672Y-116079711D01*
X170752352Y-116066285D01*
X170711343Y-116057858D01*
X170664349Y-116037691D01*
X170614530Y-116021504D01*
X170579498Y-116001278D01*
X170543858Y-115985984D01*
X170499345Y-115955002D01*
X170451405Y-115927324D01*
X170423568Y-115902260D01*
X170394262Y-115881862D01*
X170354750Y-115840295D01*
X170311427Y-115801287D01*
X170291179Y-115773418D01*
X170268694Y-115749764D01*
X170236699Y-115698434D01*
X170200711Y-115648900D01*
X170187925Y-115620183D01*
X170172286Y-115595092D01*
X170150183Y-115535412D01*
X170124098Y-115476824D01*
X170118189Y-115449026D01*
X170108987Y-115424179D01*
X170098866Y-115358118D01*
X170084936Y-115292580D01*
X170084936Y-115267187D01*
X170081387Y-115244022D01*
X170084936Y-115174048D01*
X170084936Y-115104220D01*
X170089587Y-115082335D01*
X170090619Y-115062001D01*
X170108997Y-114991017D01*
X170124098Y-114919976D01*
X170131968Y-114902298D01*
X170136304Y-114885554D01*
X170170087Y-114816682D01*
X170200711Y-114747900D01*
X170210301Y-114734699D01*
X170216567Y-114721927D01*
X170265676Y-114658483D01*
X170311427Y-114595513D01*
X170321300Y-114586622D01*
X170328130Y-114577800D01*
X170391891Y-114523062D01*
X170451405Y-114469476D01*
X170460281Y-114464351D01*
X170466417Y-114459084D01*
X170543749Y-114416160D01*
X170614530Y-114375296D01*
X170621390Y-114373066D01*
X170625779Y-114370631D01*
X170716194Y-114342263D01*
X170793672Y-114317089D01*
X170797819Y-114316653D01*
X170799675Y-114316071D01*
X170913054Y-114304541D01*
X170981000Y-114297400D01*
X171231000Y-114297400D01*
X171232058Y-114297511D01*
G37*
G36*
X171232058Y-111797511D02*
G01*
X171321001Y-111802022D01*
X171369185Y-111811923D01*
X171418328Y-111817089D01*
X171459640Y-111830512D01*
X171500656Y-111838941D01*
X171547655Y-111859110D01*
X171597470Y-111875296D01*
X171632497Y-111895518D01*
X171668141Y-111910815D01*
X171712656Y-111941798D01*
X171760595Y-111969476D01*
X171788429Y-111994538D01*
X171817737Y-112014937D01*
X171857249Y-112056504D01*
X171900573Y-112095513D01*
X171920820Y-112123381D01*
X171943305Y-112147035D01*
X171975297Y-112198362D01*
X172011289Y-112247900D01*
X172024075Y-112276618D01*
X172039713Y-112301707D01*
X172061813Y-112361379D01*
X172087902Y-112419976D01*
X172093811Y-112447777D01*
X172103012Y-112472620D01*
X172113130Y-112538667D01*
X172127064Y-112604220D01*
X172127064Y-112629617D01*
X172130612Y-112652777D01*
X172127064Y-112722730D01*
X172127064Y-112792580D01*
X172122410Y-112814470D01*
X172121380Y-112834798D01*
X172103008Y-112905755D01*
X172087902Y-112976824D01*
X172080028Y-112994508D01*
X172075695Y-113011245D01*
X172041927Y-113080084D01*
X172011289Y-113148900D01*
X172001693Y-113162106D01*
X171995432Y-113174872D01*
X171946350Y-113238279D01*
X171900573Y-113301287D01*
X171890693Y-113310182D01*
X171883869Y-113318999D01*
X171820153Y-113373697D01*
X171760595Y-113427324D01*
X171751711Y-113432452D01*
X171745582Y-113437715D01*
X171668320Y-113480598D01*
X171597470Y-113521504D01*
X171590603Y-113523735D01*
X171586220Y-113526168D01*
X171495923Y-113554498D01*
X171418328Y-113579711D01*
X171414173Y-113580147D01*
X171412324Y-113580728D01*
X171299069Y-113592245D01*
X171231000Y-113599400D01*
X171228719Y-113599400D01*
X170982135Y-113599400D01*
X170981000Y-113599400D01*
X170979941Y-113599288D01*
X170890998Y-113594777D01*
X170842822Y-113584876D01*
X170793672Y-113579711D01*
X170752352Y-113566285D01*
X170711343Y-113557858D01*
X170664349Y-113537691D01*
X170614530Y-113521504D01*
X170579498Y-113501278D01*
X170543858Y-113485984D01*
X170499345Y-113455002D01*
X170451405Y-113427324D01*
X170423568Y-113402260D01*
X170394262Y-113381862D01*
X170354750Y-113340295D01*
X170311427Y-113301287D01*
X170291179Y-113273418D01*
X170268694Y-113249764D01*
X170236699Y-113198434D01*
X170200711Y-113148900D01*
X170187925Y-113120183D01*
X170172286Y-113095092D01*
X170150183Y-113035412D01*
X170124098Y-112976824D01*
X170118189Y-112949026D01*
X170108987Y-112924179D01*
X170098866Y-112858118D01*
X170084936Y-112792580D01*
X170084936Y-112767187D01*
X170081387Y-112744022D01*
X170084936Y-112674048D01*
X170084936Y-112604220D01*
X170089587Y-112582335D01*
X170090619Y-112562001D01*
X170108997Y-112491017D01*
X170124098Y-112419976D01*
X170131968Y-112402298D01*
X170136304Y-112385554D01*
X170170087Y-112316682D01*
X170200711Y-112247900D01*
X170210301Y-112234699D01*
X170216567Y-112221927D01*
X170265676Y-112158483D01*
X170311427Y-112095513D01*
X170321300Y-112086622D01*
X170328130Y-112077800D01*
X170391891Y-112023062D01*
X170451405Y-111969476D01*
X170460281Y-111964351D01*
X170466417Y-111959084D01*
X170543749Y-111916160D01*
X170614530Y-111875296D01*
X170621390Y-111873066D01*
X170625779Y-111870631D01*
X170716194Y-111842263D01*
X170793672Y-111817089D01*
X170797819Y-111816653D01*
X170799675Y-111816071D01*
X170913054Y-111804541D01*
X170981000Y-111797400D01*
X171231000Y-111797400D01*
X171232058Y-111797511D01*
G37*
G36*
X171232058Y-109297511D02*
G01*
X171321001Y-109302022D01*
X171369185Y-109311923D01*
X171418328Y-109317089D01*
X171459640Y-109330512D01*
X171500656Y-109338941D01*
X171547655Y-109359110D01*
X171597470Y-109375296D01*
X171632497Y-109395518D01*
X171668141Y-109410815D01*
X171712656Y-109441798D01*
X171760595Y-109469476D01*
X171788429Y-109494538D01*
X171817737Y-109514937D01*
X171857249Y-109556504D01*
X171900573Y-109595513D01*
X171920820Y-109623381D01*
X171943305Y-109647035D01*
X171975297Y-109698362D01*
X172011289Y-109747900D01*
X172024075Y-109776618D01*
X172039713Y-109801707D01*
X172061813Y-109861379D01*
X172087902Y-109919976D01*
X172093811Y-109947777D01*
X172103012Y-109972620D01*
X172113130Y-110038667D01*
X172127064Y-110104220D01*
X172127064Y-110129617D01*
X172130612Y-110152777D01*
X172127064Y-110222730D01*
X172127064Y-110292580D01*
X172122410Y-110314470D01*
X172121380Y-110334798D01*
X172103008Y-110405755D01*
X172087902Y-110476824D01*
X172080028Y-110494508D01*
X172075695Y-110511245D01*
X172041927Y-110580084D01*
X172011289Y-110648900D01*
X172001693Y-110662106D01*
X171995432Y-110674872D01*
X171946350Y-110738279D01*
X171900573Y-110801287D01*
X171890693Y-110810182D01*
X171883869Y-110818999D01*
X171820153Y-110873697D01*
X171760595Y-110927324D01*
X171751711Y-110932452D01*
X171745582Y-110937715D01*
X171668320Y-110980598D01*
X171597470Y-111021504D01*
X171590603Y-111023735D01*
X171586220Y-111026168D01*
X171495923Y-111054498D01*
X171418328Y-111079711D01*
X171414173Y-111080147D01*
X171412324Y-111080728D01*
X171299069Y-111092245D01*
X171231000Y-111099400D01*
X171228719Y-111099400D01*
X170982135Y-111099400D01*
X170981000Y-111099400D01*
X170979941Y-111099288D01*
X170890998Y-111094777D01*
X170842822Y-111084876D01*
X170793672Y-111079711D01*
X170752352Y-111066285D01*
X170711343Y-111057858D01*
X170664349Y-111037691D01*
X170614530Y-111021504D01*
X170579498Y-111001278D01*
X170543858Y-110985984D01*
X170499345Y-110955002D01*
X170451405Y-110927324D01*
X170423568Y-110902260D01*
X170394262Y-110881862D01*
X170354750Y-110840295D01*
X170311427Y-110801287D01*
X170291179Y-110773418D01*
X170268694Y-110749764D01*
X170236699Y-110698434D01*
X170200711Y-110648900D01*
X170187925Y-110620183D01*
X170172286Y-110595092D01*
X170150183Y-110535412D01*
X170124098Y-110476824D01*
X170118189Y-110449026D01*
X170108987Y-110424179D01*
X170098866Y-110358118D01*
X170084936Y-110292580D01*
X170084936Y-110267187D01*
X170081387Y-110244022D01*
X170084936Y-110174048D01*
X170084936Y-110104220D01*
X170089587Y-110082335D01*
X170090619Y-110062001D01*
X170108997Y-109991017D01*
X170124098Y-109919976D01*
X170131968Y-109902298D01*
X170136304Y-109885554D01*
X170170087Y-109816682D01*
X170200711Y-109747900D01*
X170210301Y-109734699D01*
X170216567Y-109721927D01*
X170265676Y-109658483D01*
X170311427Y-109595513D01*
X170321300Y-109586622D01*
X170328130Y-109577800D01*
X170391891Y-109523062D01*
X170451405Y-109469476D01*
X170460281Y-109464351D01*
X170466417Y-109459084D01*
X170543749Y-109416160D01*
X170614530Y-109375296D01*
X170621390Y-109373066D01*
X170625779Y-109370631D01*
X170716194Y-109342263D01*
X170793672Y-109317089D01*
X170797819Y-109316653D01*
X170799675Y-109316071D01*
X170913054Y-109304541D01*
X170981000Y-109297400D01*
X171231000Y-109297400D01*
X171232058Y-109297511D01*
G37*
G36*
X171232058Y-106797511D02*
G01*
X171321001Y-106802022D01*
X171369185Y-106811923D01*
X171418328Y-106817089D01*
X171459640Y-106830512D01*
X171500656Y-106838941D01*
X171547655Y-106859110D01*
X171597470Y-106875296D01*
X171632497Y-106895518D01*
X171668141Y-106910815D01*
X171712656Y-106941798D01*
X171760595Y-106969476D01*
X171788429Y-106994538D01*
X171817737Y-107014937D01*
X171857249Y-107056504D01*
X171900573Y-107095513D01*
X171920820Y-107123381D01*
X171943305Y-107147035D01*
X171975297Y-107198362D01*
X172011289Y-107247900D01*
X172024075Y-107276618D01*
X172039713Y-107301707D01*
X172061813Y-107361379D01*
X172087902Y-107419976D01*
X172093811Y-107447777D01*
X172103012Y-107472620D01*
X172113130Y-107538667D01*
X172127064Y-107604220D01*
X172127064Y-107629617D01*
X172130612Y-107652777D01*
X172127064Y-107722730D01*
X172127064Y-107792580D01*
X172122410Y-107814470D01*
X172121380Y-107834798D01*
X172103008Y-107905755D01*
X172087902Y-107976824D01*
X172080028Y-107994508D01*
X172075695Y-108011245D01*
X172041927Y-108080084D01*
X172011289Y-108148900D01*
X172001693Y-108162106D01*
X171995432Y-108174872D01*
X171946350Y-108238279D01*
X171900573Y-108301287D01*
X171890693Y-108310182D01*
X171883869Y-108318999D01*
X171820153Y-108373697D01*
X171760595Y-108427324D01*
X171751711Y-108432452D01*
X171745582Y-108437715D01*
X171668320Y-108480598D01*
X171597470Y-108521504D01*
X171590603Y-108523735D01*
X171586220Y-108526168D01*
X171495923Y-108554498D01*
X171418328Y-108579711D01*
X171414173Y-108580147D01*
X171412324Y-108580728D01*
X171299069Y-108592245D01*
X171231000Y-108599400D01*
X171228719Y-108599400D01*
X170982135Y-108599400D01*
X170981000Y-108599400D01*
X170979941Y-108599288D01*
X170890998Y-108594777D01*
X170842822Y-108584876D01*
X170793672Y-108579711D01*
X170752352Y-108566285D01*
X170711343Y-108557858D01*
X170664349Y-108537691D01*
X170614530Y-108521504D01*
X170579498Y-108501278D01*
X170543858Y-108485984D01*
X170499345Y-108455002D01*
X170451405Y-108427324D01*
X170423568Y-108402260D01*
X170394262Y-108381862D01*
X170354750Y-108340295D01*
X170311427Y-108301287D01*
X170291179Y-108273418D01*
X170268694Y-108249764D01*
X170236699Y-108198434D01*
X170200711Y-108148900D01*
X170187925Y-108120183D01*
X170172286Y-108095092D01*
X170150183Y-108035412D01*
X170124098Y-107976824D01*
X170118189Y-107949026D01*
X170108987Y-107924179D01*
X170098866Y-107858118D01*
X170084936Y-107792580D01*
X170084936Y-107767187D01*
X170081387Y-107744022D01*
X170084936Y-107674048D01*
X170084936Y-107604220D01*
X170089587Y-107582335D01*
X170090619Y-107562001D01*
X170108997Y-107491017D01*
X170124098Y-107419976D01*
X170131968Y-107402298D01*
X170136304Y-107385554D01*
X170170087Y-107316682D01*
X170200711Y-107247900D01*
X170210301Y-107234699D01*
X170216567Y-107221927D01*
X170265676Y-107158483D01*
X170311427Y-107095513D01*
X170321300Y-107086622D01*
X170328130Y-107077800D01*
X170391891Y-107023062D01*
X170451405Y-106969476D01*
X170460281Y-106964351D01*
X170466417Y-106959084D01*
X170543749Y-106916160D01*
X170614530Y-106875296D01*
X170621390Y-106873066D01*
X170625779Y-106870631D01*
X170716194Y-106842263D01*
X170793672Y-106817089D01*
X170797819Y-106816653D01*
X170799675Y-106816071D01*
X170913054Y-106804541D01*
X170981000Y-106797400D01*
X171231000Y-106797400D01*
X171232058Y-106797511D01*
G37*
G36*
X171899914Y-104305395D02*
G01*
X171904645Y-104307484D01*
X171907811Y-104307901D01*
X171947442Y-104326381D01*
X172001106Y-104350076D01*
X172079324Y-104428294D01*
X172103028Y-104481979D01*
X172121498Y-104521588D01*
X172121914Y-104524751D01*
X172124005Y-104529486D01*
X172132000Y-104598400D01*
X172132000Y-105798400D01*
X172124005Y-105867314D01*
X172121914Y-105872048D01*
X172121498Y-105875211D01*
X172103036Y-105914802D01*
X172079324Y-105968506D01*
X172001106Y-106046724D01*
X171947402Y-106070436D01*
X171907811Y-106088898D01*
X171904648Y-106089314D01*
X171899914Y-106091405D01*
X171831000Y-106099400D01*
X170381000Y-106099400D01*
X170312086Y-106091405D01*
X170307351Y-106089314D01*
X170304188Y-106088898D01*
X170264579Y-106070428D01*
X170210894Y-106046724D01*
X170132676Y-105968506D01*
X170108981Y-105914842D01*
X170090501Y-105875211D01*
X170090084Y-105872045D01*
X170087995Y-105867314D01*
X170080000Y-105798400D01*
X170080000Y-104598400D01*
X170087995Y-104529486D01*
X170090084Y-104524754D01*
X170090501Y-104521588D01*
X170108989Y-104481938D01*
X170132676Y-104428294D01*
X170210894Y-104350076D01*
X170264538Y-104326389D01*
X170304188Y-104307901D01*
X170307354Y-104307484D01*
X170312086Y-104305395D01*
X170381000Y-104297400D01*
X171831000Y-104297400D01*
X171899914Y-104305395D01*
G37*
G36*
X185270517Y-100226282D02*
G01*
X185287062Y-100237338D01*
X185298118Y-100253883D01*
X185302000Y-100273400D01*
X185302000Y-101623400D01*
X185298118Y-101642917D01*
X185287062Y-101659462D01*
X185270517Y-101670518D01*
X185251000Y-101674400D01*
X183901000Y-101674400D01*
X183881483Y-101670518D01*
X183864938Y-101659462D01*
X183853882Y-101642917D01*
X183850000Y-101623400D01*
X183850000Y-100273400D01*
X183853882Y-100253883D01*
X183864938Y-100237338D01*
X183881483Y-100226282D01*
X183901000Y-100222400D01*
X185251000Y-100222400D01*
X185270517Y-100226282D01*
G37*
G36*
X184737550Y-98240602D02*
G01*
X184891000Y-98294297D01*
X185028654Y-98380790D01*
X185143610Y-98495746D01*
X185230103Y-98633400D01*
X185283798Y-98786850D01*
X185302000Y-98948400D01*
X185283798Y-99109950D01*
X185230103Y-99263400D01*
X185143610Y-99401054D01*
X185028654Y-99516010D01*
X184891000Y-99602503D01*
X184737550Y-99656198D01*
X184576000Y-99674400D01*
X184414450Y-99656198D01*
X184261000Y-99602503D01*
X184123346Y-99516010D01*
X184008390Y-99401054D01*
X183921897Y-99263400D01*
X183868202Y-99109950D01*
X183850000Y-98948400D01*
X183868202Y-98786850D01*
X183921897Y-98633400D01*
X184008390Y-98495746D01*
X184123346Y-98380790D01*
X184261000Y-98294297D01*
X184414450Y-98240602D01*
X184576000Y-98222400D01*
X184737550Y-98240602D01*
G37*
G36*
X184737550Y-96240602D02*
G01*
X184891000Y-96294297D01*
X185028654Y-96380790D01*
X185143610Y-96495746D01*
X185230103Y-96633400D01*
X185283798Y-96786850D01*
X185302000Y-96948400D01*
X185283798Y-97109950D01*
X185230103Y-97263400D01*
X185143610Y-97401054D01*
X185028654Y-97516010D01*
X184891000Y-97602503D01*
X184737550Y-97656198D01*
X184576000Y-97674400D01*
X184414450Y-97656198D01*
X184261000Y-97602503D01*
X184123346Y-97516010D01*
X184008390Y-97401054D01*
X183921897Y-97263400D01*
X183868202Y-97109950D01*
X183850000Y-96948400D01*
X183868202Y-96786850D01*
X183921897Y-96633400D01*
X184008390Y-96495746D01*
X184123346Y-96380790D01*
X184261000Y-96294297D01*
X184414450Y-96240602D01*
X184576000Y-96222400D01*
X184737550Y-96240602D01*
G37*
G36*
X184737550Y-94240602D02*
G01*
X184891000Y-94294297D01*
X185028654Y-94380790D01*
X185143610Y-94495746D01*
X185230103Y-94633400D01*
X185283798Y-94786850D01*
X185302000Y-94948400D01*
X185283798Y-95109950D01*
X185230103Y-95263400D01*
X185143610Y-95401054D01*
X185028654Y-95516010D01*
X184891000Y-95602503D01*
X184737550Y-95656198D01*
X184576000Y-95674400D01*
X184414450Y-95656198D01*
X184261000Y-95602503D01*
X184123346Y-95516010D01*
X184008390Y-95401054D01*
X183921897Y-95263400D01*
X183868202Y-95109950D01*
X183850000Y-94948400D01*
X183868202Y-94786850D01*
X183921897Y-94633400D01*
X184008390Y-94495746D01*
X184123346Y-94380790D01*
X184261000Y-94294297D01*
X184414450Y-94240602D01*
X184576000Y-94222400D01*
X184737550Y-94240602D01*
G37*
G36*
X108558630Y-90586495D02*
G01*
X108795285Y-90643311D01*
X109020139Y-90736449D01*
X109227655Y-90863615D01*
X109412723Y-91021677D01*
X109570785Y-91206745D01*
X109697951Y-91414261D01*
X109791089Y-91639115D01*
X109847905Y-91875770D01*
X109867000Y-92118400D01*
X109847905Y-92361030D01*
X109791089Y-92597685D01*
X109697951Y-92822539D01*
X109570785Y-93030055D01*
X109412723Y-93215123D01*
X109227655Y-93373185D01*
X109020139Y-93500351D01*
X108795285Y-93593489D01*
X108558630Y-93650305D01*
X108316000Y-93669400D01*
X108073370Y-93650305D01*
X107836715Y-93593489D01*
X107611861Y-93500351D01*
X107404345Y-93373185D01*
X107219277Y-93215123D01*
X107061215Y-93030055D01*
X106934049Y-92822539D01*
X106840911Y-92597685D01*
X106784095Y-92361030D01*
X106765000Y-92118400D01*
X106784095Y-91875770D01*
X106840911Y-91639115D01*
X106934049Y-91414261D01*
X107061215Y-91206745D01*
X107219277Y-91021677D01*
X107404345Y-90863615D01*
X107611861Y-90736449D01*
X107836715Y-90643311D01*
X108073370Y-90586495D01*
X108316000Y-90567400D01*
X108558630Y-90586495D01*
G37*
G36*
X187098630Y-90586495D02*
G01*
X187335285Y-90643311D01*
X187560139Y-90736449D01*
X187767655Y-90863615D01*
X187952723Y-91021677D01*
X188110785Y-91206745D01*
X188237951Y-91414261D01*
X188331089Y-91639115D01*
X188387905Y-91875770D01*
X188407000Y-92118400D01*
X188387905Y-92361030D01*
X188331089Y-92597685D01*
X188237951Y-92822539D01*
X188110785Y-93030055D01*
X187952723Y-93215123D01*
X187767655Y-93373185D01*
X187560139Y-93500351D01*
X187335285Y-93593489D01*
X187098630Y-93650305D01*
X186856000Y-93669400D01*
X186613370Y-93650305D01*
X186376715Y-93593489D01*
X186151861Y-93500351D01*
X185944345Y-93373185D01*
X185759277Y-93215123D01*
X185601215Y-93030055D01*
X185474049Y-92822539D01*
X185380911Y-92597685D01*
X185324095Y-92361030D01*
X185305000Y-92118400D01*
X185324095Y-91875770D01*
X185380911Y-91639115D01*
X185474049Y-91414261D01*
X185601215Y-91206745D01*
X185759277Y-91021677D01*
X185944345Y-90863615D01*
X186151861Y-90736449D01*
X186376715Y-90643311D01*
X186613370Y-90586495D01*
X186856000Y-90567400D01*
X187098630Y-90586495D01*
G37*
M02*
