G04 #@! TF.GenerationSoftware,KiCad,Pcbnew,7.99.0-1900-g89780d353a*
G04 #@! TF.CreationDate,2023-08-29T18:06:46+03:00*
G04 #@! TF.ProjectId,RP2040_minimal,52503230-3430-45f6-9d69-6e696d616c2e,REV1*
G04 #@! TF.SameCoordinates,Original*
G04 #@! TF.FileFunction,Paste,Top*
G04 #@! TF.FilePolarity,Positive*
%FSLAX46Y46*%
G04 Gerber Fmt 4.6, Leading zero omitted, Abs format (unit mm)*
G04 Created by KiCad (PCBNEW 7.99.0-1900-g89780d353a) date 2023-08-29 18:06:46*
%MOMM*%
%LPD*%
G01*
G04 APERTURE LIST*
G04 Aperture macros list*
%AMRoundRect*
0 Rectangle with rounded corners*
0 $1 Rounding radius*
0 $2 $3 $4 $5 $6 $7 $8 $9 X,Y pos of 4 corners*
0 Add a 4 corners polygon primitive as box body*
4,1,4,$2,$3,$4,$5,$6,$7,$8,$9,$2,$3,0*
0 Add four circle primitives for the rounded corners*
1,1,$1+$1,$2,$3*
1,1,$1+$1,$4,$5*
1,1,$1+$1,$6,$7*
1,1,$1+$1,$8,$9*
0 Add four rect primitives between the rounded corners*
20,1,$1+$1,$2,$3,$4,$5,0*
20,1,$1+$1,$4,$5,$6,$7,0*
20,1,$1+$1,$6,$7,$8,$9,0*
20,1,$1+$1,$8,$9,$2,$3,0*%
G04 Aperture macros list end*
%ADD10RoundRect,0.150000X0.150000X-0.650000X0.150000X0.650000X-0.150000X0.650000X-0.150000X-0.650000X0*%
%ADD11R,0.900000X1.500000*%
%ADD12RoundRect,0.140000X0.170000X-0.140000X0.170000X0.140000X-0.170000X0.140000X-0.170000X-0.140000X0*%
%ADD13RoundRect,0.225000X0.250000X-0.225000X0.250000X0.225000X-0.250000X0.225000X-0.250000X-0.225000X0*%
%ADD14RoundRect,0.041300X0.943700X0.253700X-0.943700X0.253700X-0.943700X-0.253700X0.943700X-0.253700X0*%
%ADD15RoundRect,0.140000X-0.140000X-0.170000X0.140000X-0.170000X0.140000X0.170000X-0.140000X0.170000X0*%
%ADD16RoundRect,0.140000X-0.170000X0.140000X-0.170000X-0.140000X0.170000X-0.140000X0.170000X0.140000X0*%
%ADD17RoundRect,0.250000X0.292217X0.292217X-0.292217X0.292217X-0.292217X-0.292217X0.292217X-0.292217X0*%
%ADD18RoundRect,0.050000X0.387500X0.050000X-0.387500X0.050000X-0.387500X-0.050000X0.387500X-0.050000X0*%
%ADD19RoundRect,0.050000X0.050000X0.387500X-0.050000X0.387500X-0.050000X-0.387500X0.050000X-0.387500X0*%
%ADD20RoundRect,0.250000X0.250000X0.475000X-0.250000X0.475000X-0.250000X-0.475000X0.250000X-0.475000X0*%
%ADD21R,1.200000X1.400000*%
%ADD22RoundRect,0.140000X0.140000X0.170000X-0.140000X0.170000X-0.140000X-0.170000X0.140000X-0.170000X0*%
%ADD23RoundRect,0.225000X-0.250000X0.225000X-0.250000X-0.225000X0.250000X-0.225000X0.250000X0.225000X0*%
%ADD24RoundRect,0.200000X0.275000X-0.200000X0.275000X0.200000X-0.275000X0.200000X-0.275000X-0.200000X0*%
%ADD25R,1.600000X1.600000*%
%ADD26R,2.000000X1.500000*%
%ADD27R,2.000000X3.800000*%
%ADD28R,0.900000X1.200000*%
%ADD29RoundRect,0.243750X0.456250X-0.243750X0.456250X0.243750X-0.456250X0.243750X-0.456250X-0.243750X0*%
G04 APERTURE END LIST*
D10*
X177221000Y-131748400D03*
X178491000Y-131748400D03*
X179761000Y-131748400D03*
X181031000Y-131748400D03*
X181031000Y-125348400D03*
X179761000Y-125348400D03*
X178491000Y-125348400D03*
X177221000Y-125348400D03*
D11*
X159456000Y-123898400D03*
X162756000Y-123898400D03*
X162756000Y-118998400D03*
X159456000Y-118998400D03*
D12*
X142376000Y-116978400D03*
X142376000Y-116018400D03*
D13*
X145974400Y-109342400D03*
X145974400Y-107792400D03*
X146774400Y-125647400D03*
X146774400Y-124097400D03*
X126164400Y-97752400D03*
X126164400Y-96202400D03*
X114764400Y-107202400D03*
X114764400Y-105652400D03*
D14*
X181511000Y-98253400D03*
X181511000Y-96983400D03*
X181511000Y-95713400D03*
X181511000Y-94443400D03*
X176561000Y-94443400D03*
X176561000Y-95713400D03*
X176561000Y-96983400D03*
X176561000Y-98253400D03*
D15*
X184596000Y-113418400D03*
X185556000Y-113418400D03*
D16*
X175386000Y-121758400D03*
X175386000Y-122718400D03*
D15*
X184596000Y-115448400D03*
X185556000Y-115448400D03*
X152946000Y-114838400D03*
X153906000Y-114838400D03*
D17*
X178791900Y-116157400D03*
X178791900Y-114882400D03*
X177516900Y-116157400D03*
X177516900Y-114882400D03*
D18*
X181591900Y-118119900D03*
X181591900Y-117719900D03*
X181591900Y-117319900D03*
X181591900Y-116919900D03*
X181591900Y-116519900D03*
X181591900Y-116119900D03*
X181591900Y-115719900D03*
X181591900Y-115319900D03*
X181591900Y-114919900D03*
X181591900Y-114519900D03*
X181591900Y-114119900D03*
X181591900Y-113719900D03*
X181591900Y-113319900D03*
X181591900Y-112919900D03*
D19*
X180754400Y-112082400D03*
X180354400Y-112082400D03*
X179954400Y-112082400D03*
X179554400Y-112082400D03*
X179154400Y-112082400D03*
X178754400Y-112082400D03*
X178354400Y-112082400D03*
X177954400Y-112082400D03*
X177554400Y-112082400D03*
X177154400Y-112082400D03*
X176754400Y-112082400D03*
X176354400Y-112082400D03*
X175954400Y-112082400D03*
X175554400Y-112082400D03*
D18*
X174716900Y-112919900D03*
X174716900Y-113319900D03*
X174716900Y-113719900D03*
X174716900Y-114119900D03*
X174716900Y-114519900D03*
X174716900Y-114919900D03*
X174716900Y-115319900D03*
X174716900Y-115719900D03*
X174716900Y-116119900D03*
X174716900Y-116519900D03*
X174716900Y-116919900D03*
X174716900Y-117319900D03*
X174716900Y-117719900D03*
X174716900Y-118119900D03*
D19*
X175554400Y-118957400D03*
X175954400Y-118957400D03*
X176354400Y-118957400D03*
X176754400Y-118957400D03*
X177154400Y-118957400D03*
X177554400Y-118957400D03*
X177954400Y-118957400D03*
X178354400Y-118957400D03*
X178754400Y-118957400D03*
X179154400Y-118957400D03*
X179554400Y-118957400D03*
X179954400Y-118957400D03*
X180354400Y-118957400D03*
X180754400Y-118957400D03*
D11*
X129456000Y-108898400D03*
X132756000Y-108898400D03*
X132756000Y-103998400D03*
X129456000Y-103998400D03*
D15*
X152946000Y-113848400D03*
X153906000Y-113848400D03*
D12*
X179196000Y-108168400D03*
X179196000Y-107208400D03*
D20*
X115116000Y-112648400D03*
X113216000Y-112648400D03*
D11*
X149456000Y-133898400D03*
X152756000Y-133898400D03*
X152756000Y-128998400D03*
X149456000Y-128998400D03*
D13*
X136274400Y-135422400D03*
X136274400Y-133872400D03*
D21*
X183664400Y-107122400D03*
X183664400Y-104922400D03*
X181964400Y-104922400D03*
X181964400Y-107122400D03*
D16*
X127726000Y-112108400D03*
X127726000Y-113068400D03*
D15*
X180046000Y-135468400D03*
X181006000Y-135468400D03*
D11*
X119456000Y-123898400D03*
X122756000Y-123898400D03*
X122756000Y-118998400D03*
X119456000Y-118998400D03*
X149456000Y-108898400D03*
X152756000Y-108898400D03*
X152756000Y-103998400D03*
X149456000Y-103998400D03*
D20*
X109226000Y-106398400D03*
X107326000Y-106398400D03*
D12*
X174546000Y-107788400D03*
X174546000Y-106828400D03*
D15*
X152836000Y-116618400D03*
X153796000Y-116618400D03*
D11*
X119456000Y-98898400D03*
X122756000Y-98898400D03*
X122756000Y-93998400D03*
X119456000Y-93998400D03*
D22*
X185556000Y-119478400D03*
X184596000Y-119478400D03*
D12*
X185096000Y-107728400D03*
X185096000Y-106768400D03*
D15*
X184616000Y-112388400D03*
X185576000Y-112388400D03*
D11*
X129456000Y-98898400D03*
X132756000Y-98898400D03*
X132756000Y-93998400D03*
X129456000Y-93998400D03*
X129456000Y-133898400D03*
X132756000Y-133898400D03*
X132756000Y-128998400D03*
X129456000Y-128998400D03*
D23*
X156186000Y-104563400D03*
X156186000Y-106113400D03*
D16*
X140576000Y-115188400D03*
X140576000Y-116148400D03*
X151776000Y-114078400D03*
X151776000Y-115038400D03*
X141326000Y-112828400D03*
X141326000Y-113788400D03*
D24*
X166276000Y-136508400D03*
X166276000Y-134858400D03*
D13*
X117316000Y-123958400D03*
X117316000Y-122408400D03*
D24*
X166106000Y-93363400D03*
X166106000Y-91713400D03*
D22*
X184096000Y-108668400D03*
X183136000Y-108668400D03*
D13*
X156514400Y-125582400D03*
X156514400Y-124032400D03*
X156516000Y-134153400D03*
X156516000Y-132603400D03*
D25*
X129816000Y-113198400D03*
X129816000Y-115738400D03*
X138436000Y-115738400D03*
X138436000Y-113198400D03*
D11*
X149456000Y-98898400D03*
X152756000Y-98898400D03*
X152756000Y-93998400D03*
X149456000Y-93998400D03*
D12*
X175666000Y-107788400D03*
X175666000Y-106828400D03*
D11*
X159456000Y-108898400D03*
X162756000Y-108898400D03*
X162756000Y-103998400D03*
X159456000Y-103998400D03*
D13*
X115914400Y-97072400D03*
X115914400Y-95522400D03*
X156286000Y-102133400D03*
X156286000Y-100583400D03*
D11*
X119456000Y-133898400D03*
X122756000Y-133898400D03*
X122756000Y-128998400D03*
X119456000Y-128998400D03*
D16*
X184346000Y-121958400D03*
X184346000Y-122918400D03*
D26*
X114614400Y-120072400D03*
X114614400Y-117772400D03*
D27*
X108314400Y-117772400D03*
D26*
X114614400Y-115472400D03*
D11*
X159466000Y-116348400D03*
X162766000Y-116348400D03*
X162766000Y-111448400D03*
X159466000Y-111448400D03*
X139456000Y-133898400D03*
X142756000Y-133898400D03*
X142756000Y-128998400D03*
X139456000Y-128998400D03*
D13*
X126404400Y-134807400D03*
X126404400Y-133257400D03*
D15*
X147776000Y-114348400D03*
X148736000Y-114348400D03*
D16*
X174376000Y-121588400D03*
X174376000Y-122548400D03*
X185346000Y-121958400D03*
X185346000Y-122918400D03*
D13*
X126384400Y-124637400D03*
X126384400Y-123087400D03*
D28*
X168806000Y-127348400D03*
X168806000Y-135548400D03*
X173306000Y-127348400D03*
X173306000Y-135548400D03*
D13*
X116826000Y-135153400D03*
X116826000Y-133603400D03*
X135944400Y-109002400D03*
X135944400Y-107452400D03*
X136214400Y-124502400D03*
X136214400Y-122952400D03*
D15*
X181396000Y-99908400D03*
X182356000Y-99908400D03*
D13*
X125934400Y-109362400D03*
X125934400Y-107812400D03*
D28*
X173346000Y-100178400D03*
X173346000Y-91978400D03*
X168846000Y-100178400D03*
X168846000Y-91978400D03*
D12*
X176666000Y-107788400D03*
X176666000Y-106828400D03*
D15*
X147756000Y-116398400D03*
X148716000Y-116398400D03*
D11*
X139456000Y-108898400D03*
X142756000Y-108898400D03*
X142756000Y-103998400D03*
X139456000Y-103998400D03*
D29*
X107236000Y-99828400D03*
X107236000Y-97953400D03*
D15*
X184596000Y-114448400D03*
X185556000Y-114448400D03*
D11*
X159456000Y-98898400D03*
X162756000Y-98898400D03*
X162756000Y-93998400D03*
X159456000Y-93998400D03*
X139456000Y-123898400D03*
X142756000Y-123898400D03*
X142756000Y-118998400D03*
X139456000Y-118998400D03*
X149456000Y-123898400D03*
X152756000Y-123898400D03*
X152756000Y-118998400D03*
X149456000Y-118998400D03*
D20*
X109226000Y-112418400D03*
X107326000Y-112418400D03*
D11*
X139456000Y-98898400D03*
X142756000Y-98898400D03*
X142756000Y-93998400D03*
X139456000Y-93998400D03*
D20*
X109226000Y-109408400D03*
X107326000Y-109408400D03*
D16*
X177996000Y-100398400D03*
X177996000Y-101358400D03*
D26*
X114956000Y-130538400D03*
X114956000Y-128238400D03*
D27*
X108656000Y-128238400D03*
D26*
X114956000Y-125938400D03*
D11*
X159456000Y-133898400D03*
X162756000Y-133898400D03*
X162756000Y-128998400D03*
X159456000Y-128998400D03*
D23*
X157416000Y-115213400D03*
X157416000Y-116763400D03*
D11*
X129456000Y-123898400D03*
X132756000Y-123898400D03*
X132756000Y-118998400D03*
X129456000Y-118998400D03*
D15*
X184596000Y-117438400D03*
X185556000Y-117438400D03*
X147776000Y-115338400D03*
X148736000Y-115338400D03*
D12*
X177896000Y-122678400D03*
X177896000Y-121718400D03*
D22*
X180996000Y-134448400D03*
X180036000Y-134448400D03*
D11*
X119456000Y-108898400D03*
X122756000Y-108898400D03*
X122756000Y-103998400D03*
X119456000Y-103998400D03*
D13*
X145664400Y-99732400D03*
X145664400Y-98182400D03*
D15*
X184596000Y-116448400D03*
X185556000Y-116448400D03*
D12*
X176826000Y-122668400D03*
X176826000Y-121708400D03*
X109436000Y-99298400D03*
X109436000Y-98338400D03*
D13*
X136284400Y-99762400D03*
X136284400Y-98212400D03*
D16*
X183346000Y-121958400D03*
X183346000Y-122918400D03*
D15*
X181536000Y-103378400D03*
X182496000Y-103378400D03*
X184596000Y-118478400D03*
X185556000Y-118478400D03*
D13*
X146616000Y-133813400D03*
X146616000Y-132263400D03*
M02*
