G04 #@! TF.GenerationSoftware,KiCad,Pcbnew,7.99.0-1900-g89780d353a*
G04 #@! TF.CreationDate,2023-08-29T18:06:46+03:00*
G04 #@! TF.ProjectId,RP2040_minimal,52503230-3430-45f6-9d69-6e696d616c2e,REV1*
G04 #@! TF.SameCoordinates,Original*
G04 #@! TF.FileFunction,Legend,Top*
G04 #@! TF.FilePolarity,Positive*
%FSLAX46Y46*%
G04 Gerber Fmt 4.6, Leading zero omitted, Abs format (unit mm)*
G04 Created by KiCad (PCBNEW 7.99.0-1900-g89780d353a) date 2023-08-29 18:06:46*
%MOMM*%
%LPD*%
G01*
G04 APERTURE LIST*
%ADD10C,0.150000*%
%ADD11C,0.120000*%
%ADD12C,0.127000*%
%ADD13C,0.200000*%
G04 APERTURE END LIST*
D10*
X138735160Y-90820600D02*
X138830398Y-90868219D01*
X138830398Y-90868219D02*
X139020874Y-90868219D01*
X139020874Y-90868219D02*
X139116112Y-90820600D01*
X139116112Y-90820600D02*
X139163731Y-90725361D01*
X139163731Y-90725361D02*
X139163731Y-90677742D01*
X139163731Y-90677742D02*
X139116112Y-90582504D01*
X139116112Y-90582504D02*
X139020874Y-90534885D01*
X139020874Y-90534885D02*
X138878017Y-90534885D01*
X138878017Y-90534885D02*
X138782779Y-90487266D01*
X138782779Y-90487266D02*
X138735160Y-90392028D01*
X138735160Y-90392028D02*
X138735160Y-90344409D01*
X138735160Y-90344409D02*
X138782779Y-90249171D01*
X138782779Y-90249171D02*
X138878017Y-90201552D01*
X138878017Y-90201552D02*
X139020874Y-90201552D01*
X139020874Y-90201552D02*
X139116112Y-90249171D01*
X139592303Y-90868219D02*
X139592303Y-90201552D01*
X139592303Y-90296790D02*
X139639922Y-90249171D01*
X139639922Y-90249171D02*
X139735160Y-90201552D01*
X139735160Y-90201552D02*
X139878017Y-90201552D01*
X139878017Y-90201552D02*
X139973255Y-90249171D01*
X139973255Y-90249171D02*
X140020874Y-90344409D01*
X140020874Y-90344409D02*
X140020874Y-90868219D01*
X140020874Y-90344409D02*
X140068493Y-90249171D01*
X140068493Y-90249171D02*
X140163731Y-90201552D01*
X140163731Y-90201552D02*
X140306588Y-90201552D01*
X140306588Y-90201552D02*
X140401827Y-90249171D01*
X140401827Y-90249171D02*
X140449446Y-90344409D01*
X140449446Y-90344409D02*
X140449446Y-90868219D01*
X141354207Y-90868219D02*
X141354207Y-90344409D01*
X141354207Y-90344409D02*
X141306588Y-90249171D01*
X141306588Y-90249171D02*
X141211350Y-90201552D01*
X141211350Y-90201552D02*
X141020874Y-90201552D01*
X141020874Y-90201552D02*
X140925636Y-90249171D01*
X141354207Y-90820600D02*
X141258969Y-90868219D01*
X141258969Y-90868219D02*
X141020874Y-90868219D01*
X141020874Y-90868219D02*
X140925636Y-90820600D01*
X140925636Y-90820600D02*
X140878017Y-90725361D01*
X140878017Y-90725361D02*
X140878017Y-90630123D01*
X140878017Y-90630123D02*
X140925636Y-90534885D01*
X140925636Y-90534885D02*
X141020874Y-90487266D01*
X141020874Y-90487266D02*
X141258969Y-90487266D01*
X141258969Y-90487266D02*
X141354207Y-90439647D01*
X141830398Y-90868219D02*
X141830398Y-90201552D01*
X141830398Y-90392028D02*
X141878017Y-90296790D01*
X141878017Y-90296790D02*
X141925636Y-90249171D01*
X141925636Y-90249171D02*
X142020874Y-90201552D01*
X142020874Y-90201552D02*
X142116112Y-90201552D01*
X142306589Y-90201552D02*
X142687541Y-90201552D01*
X142449446Y-89868219D02*
X142449446Y-90725361D01*
X142449446Y-90725361D02*
X142497065Y-90820600D01*
X142497065Y-90820600D02*
X142592303Y-90868219D01*
X142592303Y-90868219D02*
X142687541Y-90868219D01*
X143020875Y-90344409D02*
X143354208Y-90344409D01*
X143497065Y-90868219D02*
X143020875Y-90868219D01*
X143020875Y-90868219D02*
X143020875Y-89868219D01*
X143020875Y-89868219D02*
X143497065Y-89868219D01*
X144354208Y-90201552D02*
X144354208Y-91201552D01*
X144354208Y-90820600D02*
X144258970Y-90868219D01*
X144258970Y-90868219D02*
X144068494Y-90868219D01*
X144068494Y-90868219D02*
X143973256Y-90820600D01*
X143973256Y-90820600D02*
X143925637Y-90772980D01*
X143925637Y-90772980D02*
X143878018Y-90677742D01*
X143878018Y-90677742D02*
X143878018Y-90392028D01*
X143878018Y-90392028D02*
X143925637Y-90296790D01*
X143925637Y-90296790D02*
X143973256Y-90249171D01*
X143973256Y-90249171D02*
X144068494Y-90201552D01*
X144068494Y-90201552D02*
X144258970Y-90201552D01*
X144258970Y-90201552D02*
X144354208Y-90249171D01*
X145925637Y-90344409D02*
X146068494Y-90392028D01*
X146068494Y-90392028D02*
X146116113Y-90439647D01*
X146116113Y-90439647D02*
X146163732Y-90534885D01*
X146163732Y-90534885D02*
X146163732Y-90677742D01*
X146163732Y-90677742D02*
X146116113Y-90772980D01*
X146116113Y-90772980D02*
X146068494Y-90820600D01*
X146068494Y-90820600D02*
X145973256Y-90868219D01*
X145973256Y-90868219D02*
X145592304Y-90868219D01*
X145592304Y-90868219D02*
X145592304Y-89868219D01*
X145592304Y-89868219D02*
X145925637Y-89868219D01*
X145925637Y-89868219D02*
X146020875Y-89915838D01*
X146020875Y-89915838D02*
X146068494Y-89963457D01*
X146068494Y-89963457D02*
X146116113Y-90058695D01*
X146116113Y-90058695D02*
X146116113Y-90153933D01*
X146116113Y-90153933D02*
X146068494Y-90249171D01*
X146068494Y-90249171D02*
X146020875Y-90296790D01*
X146020875Y-90296790D02*
X145925637Y-90344409D01*
X145925637Y-90344409D02*
X145592304Y-90344409D01*
X146592304Y-90868219D02*
X146592304Y-90201552D01*
X146592304Y-89868219D02*
X146544685Y-89915838D01*
X146544685Y-89915838D02*
X146592304Y-89963457D01*
X146592304Y-89963457D02*
X146639923Y-89915838D01*
X146639923Y-89915838D02*
X146592304Y-89868219D01*
X146592304Y-89868219D02*
X146592304Y-89963457D01*
X147211351Y-90868219D02*
X147116113Y-90820600D01*
X147116113Y-90820600D02*
X147068494Y-90725361D01*
X147068494Y-90725361D02*
X147068494Y-89868219D01*
X147592304Y-90868219D02*
X147592304Y-90201552D01*
X147592304Y-89868219D02*
X147544685Y-89915838D01*
X147544685Y-89915838D02*
X147592304Y-89963457D01*
X147592304Y-89963457D02*
X147639923Y-89915838D01*
X147639923Y-89915838D02*
X147592304Y-89868219D01*
X147592304Y-89868219D02*
X147592304Y-89963457D01*
X148020875Y-90820600D02*
X148116113Y-90868219D01*
X148116113Y-90868219D02*
X148306589Y-90868219D01*
X148306589Y-90868219D02*
X148401827Y-90820600D01*
X148401827Y-90820600D02*
X148449446Y-90725361D01*
X148449446Y-90725361D02*
X148449446Y-90677742D01*
X148449446Y-90677742D02*
X148401827Y-90582504D01*
X148401827Y-90582504D02*
X148306589Y-90534885D01*
X148306589Y-90534885D02*
X148163732Y-90534885D01*
X148163732Y-90534885D02*
X148068494Y-90487266D01*
X148068494Y-90487266D02*
X148020875Y-90392028D01*
X148020875Y-90392028D02*
X148020875Y-90344409D01*
X148020875Y-90344409D02*
X148068494Y-90249171D01*
X148068494Y-90249171D02*
X148163732Y-90201552D01*
X148163732Y-90201552D02*
X148306589Y-90201552D01*
X148306589Y-90201552D02*
X148401827Y-90249171D01*
X148878018Y-90868219D02*
X148878018Y-90201552D01*
X148878018Y-89868219D02*
X148830399Y-89915838D01*
X148830399Y-89915838D02*
X148878018Y-89963457D01*
X148878018Y-89963457D02*
X148925637Y-89915838D01*
X148925637Y-89915838D02*
X148878018Y-89868219D01*
X148878018Y-89868219D02*
X148878018Y-89963457D01*
X149354208Y-90868219D02*
X149354208Y-90201552D01*
X149354208Y-90296790D02*
X149401827Y-90249171D01*
X149401827Y-90249171D02*
X149497065Y-90201552D01*
X149497065Y-90201552D02*
X149639922Y-90201552D01*
X149639922Y-90201552D02*
X149735160Y-90249171D01*
X149735160Y-90249171D02*
X149782779Y-90344409D01*
X149782779Y-90344409D02*
X149782779Y-90868219D01*
X149782779Y-90344409D02*
X149830398Y-90249171D01*
X149830398Y-90249171D02*
X149925636Y-90201552D01*
X149925636Y-90201552D02*
X150068493Y-90201552D01*
X150068493Y-90201552D02*
X150163732Y-90249171D01*
X150163732Y-90249171D02*
X150211351Y-90344409D01*
X150211351Y-90344409D02*
X150211351Y-90868219D01*
X151925636Y-90868219D02*
X151449446Y-90868219D01*
X151449446Y-90868219D02*
X151449446Y-89868219D01*
X152639922Y-90820600D02*
X152544684Y-90868219D01*
X152544684Y-90868219D02*
X152354208Y-90868219D01*
X152354208Y-90868219D02*
X152258970Y-90820600D01*
X152258970Y-90820600D02*
X152211351Y-90725361D01*
X152211351Y-90725361D02*
X152211351Y-90344409D01*
X152211351Y-90344409D02*
X152258970Y-90249171D01*
X152258970Y-90249171D02*
X152354208Y-90201552D01*
X152354208Y-90201552D02*
X152544684Y-90201552D01*
X152544684Y-90201552D02*
X152639922Y-90249171D01*
X152639922Y-90249171D02*
X152687541Y-90344409D01*
X152687541Y-90344409D02*
X152687541Y-90439647D01*
X152687541Y-90439647D02*
X152211351Y-90534885D01*
X153544684Y-90868219D02*
X153544684Y-89868219D01*
X153544684Y-90820600D02*
X153449446Y-90868219D01*
X153449446Y-90868219D02*
X153258970Y-90868219D01*
X153258970Y-90868219D02*
X153163732Y-90820600D01*
X153163732Y-90820600D02*
X153116113Y-90772980D01*
X153116113Y-90772980D02*
X153068494Y-90677742D01*
X153068494Y-90677742D02*
X153068494Y-90392028D01*
X153068494Y-90392028D02*
X153116113Y-90296790D01*
X153116113Y-90296790D02*
X153163732Y-90249171D01*
X153163732Y-90249171D02*
X153258970Y-90201552D01*
X153258970Y-90201552D02*
X153449446Y-90201552D01*
X153449446Y-90201552D02*
X153544684Y-90249171D01*
X176145164Y-135059828D02*
X176752307Y-135059828D01*
X176752307Y-135059828D02*
X176823735Y-135024114D01*
X176823735Y-135024114D02*
X176859450Y-134988400D01*
X176859450Y-134988400D02*
X176895164Y-134916971D01*
X176895164Y-134916971D02*
X176895164Y-134774114D01*
X176895164Y-134774114D02*
X176859450Y-134702685D01*
X176859450Y-134702685D02*
X176823735Y-134666971D01*
X176823735Y-134666971D02*
X176752307Y-134631257D01*
X176752307Y-134631257D02*
X176145164Y-134631257D01*
X176145164Y-134345543D02*
X176145164Y-133881257D01*
X176145164Y-133881257D02*
X176430878Y-134131257D01*
X176430878Y-134131257D02*
X176430878Y-134024114D01*
X176430878Y-134024114D02*
X176466592Y-133952686D01*
X176466592Y-133952686D02*
X176502307Y-133916971D01*
X176502307Y-133916971D02*
X176573735Y-133881257D01*
X176573735Y-133881257D02*
X176752307Y-133881257D01*
X176752307Y-133881257D02*
X176823735Y-133916971D01*
X176823735Y-133916971D02*
X176859450Y-133952686D01*
X176859450Y-133952686D02*
X176895164Y-134024114D01*
X176895164Y-134024114D02*
X176895164Y-134238400D01*
X176895164Y-134238400D02*
X176859450Y-134309828D01*
X176859450Y-134309828D02*
X176823735Y-134345543D01*
X157945164Y-122359114D02*
X157195164Y-122359114D01*
X157195164Y-122359114D02*
X157195164Y-122180543D01*
X157195164Y-122180543D02*
X157230878Y-122073400D01*
X157230878Y-122073400D02*
X157302307Y-122001971D01*
X157302307Y-122001971D02*
X157373735Y-121966257D01*
X157373735Y-121966257D02*
X157516592Y-121930543D01*
X157516592Y-121930543D02*
X157623735Y-121930543D01*
X157623735Y-121930543D02*
X157766592Y-121966257D01*
X157766592Y-121966257D02*
X157838021Y-122001971D01*
X157838021Y-122001971D02*
X157909450Y-122073400D01*
X157909450Y-122073400D02*
X157945164Y-122180543D01*
X157945164Y-122180543D02*
X157945164Y-122359114D01*
X157945164Y-121216257D02*
X157945164Y-121644828D01*
X157945164Y-121430543D02*
X157195164Y-121430543D01*
X157195164Y-121430543D02*
X157302307Y-121501971D01*
X157302307Y-121501971D02*
X157373735Y-121573400D01*
X157373735Y-121573400D02*
X157409450Y-121644828D01*
X157516592Y-120787685D02*
X157480878Y-120859114D01*
X157480878Y-120859114D02*
X157445164Y-120894828D01*
X157445164Y-120894828D02*
X157373735Y-120930542D01*
X157373735Y-120930542D02*
X157338021Y-120930542D01*
X157338021Y-120930542D02*
X157266592Y-120894828D01*
X157266592Y-120894828D02*
X157230878Y-120859114D01*
X157230878Y-120859114D02*
X157195164Y-120787685D01*
X157195164Y-120787685D02*
X157195164Y-120644828D01*
X157195164Y-120644828D02*
X157230878Y-120573400D01*
X157230878Y-120573400D02*
X157266592Y-120537685D01*
X157266592Y-120537685D02*
X157338021Y-120501971D01*
X157338021Y-120501971D02*
X157373735Y-120501971D01*
X157373735Y-120501971D02*
X157445164Y-120537685D01*
X157445164Y-120537685D02*
X157480878Y-120573400D01*
X157480878Y-120573400D02*
X157516592Y-120644828D01*
X157516592Y-120644828D02*
X157516592Y-120787685D01*
X157516592Y-120787685D02*
X157552307Y-120859114D01*
X157552307Y-120859114D02*
X157588021Y-120894828D01*
X157588021Y-120894828D02*
X157659450Y-120930542D01*
X157659450Y-120930542D02*
X157802307Y-120930542D01*
X157802307Y-120930542D02*
X157873735Y-120894828D01*
X157873735Y-120894828D02*
X157909450Y-120859114D01*
X157909450Y-120859114D02*
X157945164Y-120787685D01*
X157945164Y-120787685D02*
X157945164Y-120644828D01*
X157945164Y-120644828D02*
X157909450Y-120573400D01*
X157909450Y-120573400D02*
X157873735Y-120537685D01*
X157873735Y-120537685D02*
X157802307Y-120501971D01*
X157802307Y-120501971D02*
X157659450Y-120501971D01*
X157659450Y-120501971D02*
X157588021Y-120537685D01*
X157588021Y-120537685D02*
X157552307Y-120573400D01*
X157552307Y-120573400D02*
X157516592Y-120644828D01*
X159845164Y-125384114D02*
X159845164Y-125812685D01*
X159845164Y-125598400D02*
X159095164Y-125598400D01*
X159095164Y-125598400D02*
X159202307Y-125669828D01*
X159202307Y-125669828D02*
X159273735Y-125741257D01*
X159273735Y-125741257D02*
X159309450Y-125812685D01*
X145040819Y-117541257D02*
X144564628Y-117874590D01*
X145040819Y-118112685D02*
X144040819Y-118112685D01*
X144040819Y-118112685D02*
X144040819Y-117731733D01*
X144040819Y-117731733D02*
X144088438Y-117636495D01*
X144088438Y-117636495D02*
X144136057Y-117588876D01*
X144136057Y-117588876D02*
X144231295Y-117541257D01*
X144231295Y-117541257D02*
X144374152Y-117541257D01*
X144374152Y-117541257D02*
X144469390Y-117588876D01*
X144469390Y-117588876D02*
X144517009Y-117636495D01*
X144517009Y-117636495D02*
X144564628Y-117731733D01*
X144564628Y-117731733D02*
X144564628Y-118112685D01*
X144136057Y-117160304D02*
X144088438Y-117112685D01*
X144088438Y-117112685D02*
X144040819Y-117017447D01*
X144040819Y-117017447D02*
X144040819Y-116779352D01*
X144040819Y-116779352D02*
X144088438Y-116684114D01*
X144088438Y-116684114D02*
X144136057Y-116636495D01*
X144136057Y-116636495D02*
X144231295Y-116588876D01*
X144231295Y-116588876D02*
X144326533Y-116588876D01*
X144326533Y-116588876D02*
X144469390Y-116636495D01*
X144469390Y-116636495D02*
X145040819Y-117207923D01*
X145040819Y-117207923D02*
X145040819Y-116588876D01*
X144040819Y-115684114D02*
X144040819Y-116160304D01*
X144040819Y-116160304D02*
X144517009Y-116207923D01*
X144517009Y-116207923D02*
X144469390Y-116160304D01*
X144469390Y-116160304D02*
X144421771Y-116065066D01*
X144421771Y-116065066D02*
X144421771Y-115826971D01*
X144421771Y-115826971D02*
X144469390Y-115731733D01*
X144469390Y-115731733D02*
X144517009Y-115684114D01*
X144517009Y-115684114D02*
X144612247Y-115636495D01*
X144612247Y-115636495D02*
X144850342Y-115636495D01*
X144850342Y-115636495D02*
X144945580Y-115684114D01*
X144945580Y-115684114D02*
X144993200Y-115731733D01*
X144993200Y-115731733D02*
X145040819Y-115826971D01*
X145040819Y-115826971D02*
X145040819Y-116065066D01*
X145040819Y-116065066D02*
X144993200Y-116160304D01*
X144993200Y-116160304D02*
X144945580Y-116207923D01*
X144812135Y-109049543D02*
X144847850Y-109085257D01*
X144847850Y-109085257D02*
X144883564Y-109192400D01*
X144883564Y-109192400D02*
X144883564Y-109263828D01*
X144883564Y-109263828D02*
X144847850Y-109370971D01*
X144847850Y-109370971D02*
X144776421Y-109442400D01*
X144776421Y-109442400D02*
X144704992Y-109478114D01*
X144704992Y-109478114D02*
X144562135Y-109513828D01*
X144562135Y-109513828D02*
X144454992Y-109513828D01*
X144454992Y-109513828D02*
X144312135Y-109478114D01*
X144312135Y-109478114D02*
X144240707Y-109442400D01*
X144240707Y-109442400D02*
X144169278Y-109370971D01*
X144169278Y-109370971D02*
X144133564Y-109263828D01*
X144133564Y-109263828D02*
X144133564Y-109192400D01*
X144133564Y-109192400D02*
X144169278Y-109085257D01*
X144169278Y-109085257D02*
X144204992Y-109049543D01*
X144204992Y-108763828D02*
X144169278Y-108728114D01*
X144169278Y-108728114D02*
X144133564Y-108656686D01*
X144133564Y-108656686D02*
X144133564Y-108478114D01*
X144133564Y-108478114D02*
X144169278Y-108406686D01*
X144169278Y-108406686D02*
X144204992Y-108370971D01*
X144204992Y-108370971D02*
X144276421Y-108335257D01*
X144276421Y-108335257D02*
X144347850Y-108335257D01*
X144347850Y-108335257D02*
X144454992Y-108370971D01*
X144454992Y-108370971D02*
X144883564Y-108799543D01*
X144883564Y-108799543D02*
X144883564Y-108335257D01*
X144133564Y-107692400D02*
X144133564Y-107835257D01*
X144133564Y-107835257D02*
X144169278Y-107906685D01*
X144169278Y-107906685D02*
X144204992Y-107942400D01*
X144204992Y-107942400D02*
X144312135Y-108013828D01*
X144312135Y-108013828D02*
X144454992Y-108049542D01*
X144454992Y-108049542D02*
X144740707Y-108049542D01*
X144740707Y-108049542D02*
X144812135Y-108013828D01*
X144812135Y-108013828D02*
X144847850Y-107978114D01*
X144847850Y-107978114D02*
X144883564Y-107906685D01*
X144883564Y-107906685D02*
X144883564Y-107763828D01*
X144883564Y-107763828D02*
X144847850Y-107692400D01*
X144847850Y-107692400D02*
X144812135Y-107656685D01*
X144812135Y-107656685D02*
X144740707Y-107620971D01*
X144740707Y-107620971D02*
X144562135Y-107620971D01*
X144562135Y-107620971D02*
X144490707Y-107656685D01*
X144490707Y-107656685D02*
X144454992Y-107692400D01*
X144454992Y-107692400D02*
X144419278Y-107763828D01*
X144419278Y-107763828D02*
X144419278Y-107906685D01*
X144419278Y-107906685D02*
X144454992Y-107978114D01*
X144454992Y-107978114D02*
X144490707Y-108013828D01*
X144490707Y-108013828D02*
X144562135Y-108049542D01*
X145612135Y-125354543D02*
X145647850Y-125390257D01*
X145647850Y-125390257D02*
X145683564Y-125497400D01*
X145683564Y-125497400D02*
X145683564Y-125568828D01*
X145683564Y-125568828D02*
X145647850Y-125675971D01*
X145647850Y-125675971D02*
X145576421Y-125747400D01*
X145576421Y-125747400D02*
X145504992Y-125783114D01*
X145504992Y-125783114D02*
X145362135Y-125818828D01*
X145362135Y-125818828D02*
X145254992Y-125818828D01*
X145254992Y-125818828D02*
X145112135Y-125783114D01*
X145112135Y-125783114D02*
X145040707Y-125747400D01*
X145040707Y-125747400D02*
X144969278Y-125675971D01*
X144969278Y-125675971D02*
X144933564Y-125568828D01*
X144933564Y-125568828D02*
X144933564Y-125497400D01*
X144933564Y-125497400D02*
X144969278Y-125390257D01*
X144969278Y-125390257D02*
X145004992Y-125354543D01*
X145004992Y-125068828D02*
X144969278Y-125033114D01*
X144969278Y-125033114D02*
X144933564Y-124961686D01*
X144933564Y-124961686D02*
X144933564Y-124783114D01*
X144933564Y-124783114D02*
X144969278Y-124711686D01*
X144969278Y-124711686D02*
X145004992Y-124675971D01*
X145004992Y-124675971D02*
X145076421Y-124640257D01*
X145076421Y-124640257D02*
X145147850Y-124640257D01*
X145147850Y-124640257D02*
X145254992Y-124675971D01*
X145254992Y-124675971D02*
X145683564Y-125104543D01*
X145683564Y-125104543D02*
X145683564Y-124640257D01*
X144933564Y-124175971D02*
X144933564Y-124104542D01*
X144933564Y-124104542D02*
X144969278Y-124033114D01*
X144969278Y-124033114D02*
X145004992Y-123997400D01*
X145004992Y-123997400D02*
X145076421Y-123961685D01*
X145076421Y-123961685D02*
X145219278Y-123925971D01*
X145219278Y-123925971D02*
X145397850Y-123925971D01*
X145397850Y-123925971D02*
X145540707Y-123961685D01*
X145540707Y-123961685D02*
X145612135Y-123997400D01*
X145612135Y-123997400D02*
X145647850Y-124033114D01*
X145647850Y-124033114D02*
X145683564Y-124104542D01*
X145683564Y-124104542D02*
X145683564Y-124175971D01*
X145683564Y-124175971D02*
X145647850Y-124247400D01*
X145647850Y-124247400D02*
X145612135Y-124283114D01*
X145612135Y-124283114D02*
X145540707Y-124318828D01*
X145540707Y-124318828D02*
X145397850Y-124354542D01*
X145397850Y-124354542D02*
X145219278Y-124354542D01*
X145219278Y-124354542D02*
X145076421Y-124318828D01*
X145076421Y-124318828D02*
X145004992Y-124283114D01*
X145004992Y-124283114D02*
X144969278Y-124247400D01*
X144969278Y-124247400D02*
X144933564Y-124175971D01*
X125002135Y-97459543D02*
X125037850Y-97495257D01*
X125037850Y-97495257D02*
X125073564Y-97602400D01*
X125073564Y-97602400D02*
X125073564Y-97673828D01*
X125073564Y-97673828D02*
X125037850Y-97780971D01*
X125037850Y-97780971D02*
X124966421Y-97852400D01*
X124966421Y-97852400D02*
X124894992Y-97888114D01*
X124894992Y-97888114D02*
X124752135Y-97923828D01*
X124752135Y-97923828D02*
X124644992Y-97923828D01*
X124644992Y-97923828D02*
X124502135Y-97888114D01*
X124502135Y-97888114D02*
X124430707Y-97852400D01*
X124430707Y-97852400D02*
X124359278Y-97780971D01*
X124359278Y-97780971D02*
X124323564Y-97673828D01*
X124323564Y-97673828D02*
X124323564Y-97602400D01*
X124323564Y-97602400D02*
X124359278Y-97495257D01*
X124359278Y-97495257D02*
X124394992Y-97459543D01*
X124323564Y-97209543D02*
X124323564Y-96745257D01*
X124323564Y-96745257D02*
X124609278Y-96995257D01*
X124609278Y-96995257D02*
X124609278Y-96888114D01*
X124609278Y-96888114D02*
X124644992Y-96816686D01*
X124644992Y-96816686D02*
X124680707Y-96780971D01*
X124680707Y-96780971D02*
X124752135Y-96745257D01*
X124752135Y-96745257D02*
X124930707Y-96745257D01*
X124930707Y-96745257D02*
X125002135Y-96780971D01*
X125002135Y-96780971D02*
X125037850Y-96816686D01*
X125037850Y-96816686D02*
X125073564Y-96888114D01*
X125073564Y-96888114D02*
X125073564Y-97102400D01*
X125073564Y-97102400D02*
X125037850Y-97173828D01*
X125037850Y-97173828D02*
X125002135Y-97209543D01*
X124323564Y-96280971D02*
X124323564Y-96209542D01*
X124323564Y-96209542D02*
X124359278Y-96138114D01*
X124359278Y-96138114D02*
X124394992Y-96102400D01*
X124394992Y-96102400D02*
X124466421Y-96066685D01*
X124466421Y-96066685D02*
X124609278Y-96030971D01*
X124609278Y-96030971D02*
X124787850Y-96030971D01*
X124787850Y-96030971D02*
X124930707Y-96066685D01*
X124930707Y-96066685D02*
X125002135Y-96102400D01*
X125002135Y-96102400D02*
X125037850Y-96138114D01*
X125037850Y-96138114D02*
X125073564Y-96209542D01*
X125073564Y-96209542D02*
X125073564Y-96280971D01*
X125073564Y-96280971D02*
X125037850Y-96352400D01*
X125037850Y-96352400D02*
X125002135Y-96388114D01*
X125002135Y-96388114D02*
X124930707Y-96423828D01*
X124930707Y-96423828D02*
X124787850Y-96459542D01*
X124787850Y-96459542D02*
X124609278Y-96459542D01*
X124609278Y-96459542D02*
X124466421Y-96423828D01*
X124466421Y-96423828D02*
X124394992Y-96388114D01*
X124394992Y-96388114D02*
X124359278Y-96352400D01*
X124359278Y-96352400D02*
X124323564Y-96280971D01*
X113602135Y-106909543D02*
X113637850Y-106945257D01*
X113637850Y-106945257D02*
X113673564Y-107052400D01*
X113673564Y-107052400D02*
X113673564Y-107123828D01*
X113673564Y-107123828D02*
X113637850Y-107230971D01*
X113637850Y-107230971D02*
X113566421Y-107302400D01*
X113566421Y-107302400D02*
X113494992Y-107338114D01*
X113494992Y-107338114D02*
X113352135Y-107373828D01*
X113352135Y-107373828D02*
X113244992Y-107373828D01*
X113244992Y-107373828D02*
X113102135Y-107338114D01*
X113102135Y-107338114D02*
X113030707Y-107302400D01*
X113030707Y-107302400D02*
X112959278Y-107230971D01*
X112959278Y-107230971D02*
X112923564Y-107123828D01*
X112923564Y-107123828D02*
X112923564Y-107052400D01*
X112923564Y-107052400D02*
X112959278Y-106945257D01*
X112959278Y-106945257D02*
X112994992Y-106909543D01*
X112923564Y-106659543D02*
X112923564Y-106195257D01*
X112923564Y-106195257D02*
X113209278Y-106445257D01*
X113209278Y-106445257D02*
X113209278Y-106338114D01*
X113209278Y-106338114D02*
X113244992Y-106266686D01*
X113244992Y-106266686D02*
X113280707Y-106230971D01*
X113280707Y-106230971D02*
X113352135Y-106195257D01*
X113352135Y-106195257D02*
X113530707Y-106195257D01*
X113530707Y-106195257D02*
X113602135Y-106230971D01*
X113602135Y-106230971D02*
X113637850Y-106266686D01*
X113637850Y-106266686D02*
X113673564Y-106338114D01*
X113673564Y-106338114D02*
X113673564Y-106552400D01*
X113673564Y-106552400D02*
X113637850Y-106623828D01*
X113637850Y-106623828D02*
X113602135Y-106659543D01*
X112994992Y-105909542D02*
X112959278Y-105873828D01*
X112959278Y-105873828D02*
X112923564Y-105802400D01*
X112923564Y-105802400D02*
X112923564Y-105623828D01*
X112923564Y-105623828D02*
X112959278Y-105552400D01*
X112959278Y-105552400D02*
X112994992Y-105516685D01*
X112994992Y-105516685D02*
X113066421Y-105480971D01*
X113066421Y-105480971D02*
X113137850Y-105480971D01*
X113137850Y-105480971D02*
X113244992Y-105516685D01*
X113244992Y-105516685D02*
X113673564Y-105945257D01*
X113673564Y-105945257D02*
X113673564Y-105480971D01*
X179214571Y-99467564D02*
X179214571Y-100074707D01*
X179214571Y-100074707D02*
X179250285Y-100146135D01*
X179250285Y-100146135D02*
X179286000Y-100181850D01*
X179286000Y-100181850D02*
X179357428Y-100217564D01*
X179357428Y-100217564D02*
X179500285Y-100217564D01*
X179500285Y-100217564D02*
X179571714Y-100181850D01*
X179571714Y-100181850D02*
X179607428Y-100146135D01*
X179607428Y-100146135D02*
X179643142Y-100074707D01*
X179643142Y-100074707D02*
X179643142Y-99467564D01*
X180393142Y-100217564D02*
X179964571Y-100217564D01*
X180178856Y-100217564D02*
X180178856Y-99467564D01*
X180178856Y-99467564D02*
X180107428Y-99574707D01*
X180107428Y-99574707D02*
X180035999Y-99646135D01*
X180035999Y-99646135D02*
X179964571Y-99681850D01*
X186693856Y-113397564D02*
X186443856Y-113040421D01*
X186265285Y-113397564D02*
X186265285Y-112647564D01*
X186265285Y-112647564D02*
X186550999Y-112647564D01*
X186550999Y-112647564D02*
X186622428Y-112683278D01*
X186622428Y-112683278D02*
X186658142Y-112718992D01*
X186658142Y-112718992D02*
X186693856Y-112790421D01*
X186693856Y-112790421D02*
X186693856Y-112897564D01*
X186693856Y-112897564D02*
X186658142Y-112968992D01*
X186658142Y-112968992D02*
X186622428Y-113004707D01*
X186622428Y-113004707D02*
X186550999Y-113040421D01*
X186550999Y-113040421D02*
X186265285Y-113040421D01*
X187408142Y-113397564D02*
X186979571Y-113397564D01*
X187193856Y-113397564D02*
X187193856Y-112647564D01*
X187193856Y-112647564D02*
X187122428Y-112754707D01*
X187122428Y-112754707D02*
X187050999Y-112826135D01*
X187050999Y-112826135D02*
X186979571Y-112861850D01*
X187658142Y-112647564D02*
X188122428Y-112647564D01*
X188122428Y-112647564D02*
X187872428Y-112933278D01*
X187872428Y-112933278D02*
X187979571Y-112933278D01*
X187979571Y-112933278D02*
X188051000Y-112968992D01*
X188051000Y-112968992D02*
X188086714Y-113004707D01*
X188086714Y-113004707D02*
X188122428Y-113076135D01*
X188122428Y-113076135D02*
X188122428Y-113254707D01*
X188122428Y-113254707D02*
X188086714Y-113326135D01*
X188086714Y-113326135D02*
X188051000Y-113361850D01*
X188051000Y-113361850D02*
X187979571Y-113397564D01*
X187979571Y-113397564D02*
X187765285Y-113397564D01*
X187765285Y-113397564D02*
X187693857Y-113361850D01*
X187693857Y-113361850D02*
X187658142Y-113326135D01*
X175663735Y-125120543D02*
X175699450Y-125156257D01*
X175699450Y-125156257D02*
X175735164Y-125263400D01*
X175735164Y-125263400D02*
X175735164Y-125334828D01*
X175735164Y-125334828D02*
X175699450Y-125441971D01*
X175699450Y-125441971D02*
X175628021Y-125513400D01*
X175628021Y-125513400D02*
X175556592Y-125549114D01*
X175556592Y-125549114D02*
X175413735Y-125584828D01*
X175413735Y-125584828D02*
X175306592Y-125584828D01*
X175306592Y-125584828D02*
X175163735Y-125549114D01*
X175163735Y-125549114D02*
X175092307Y-125513400D01*
X175092307Y-125513400D02*
X175020878Y-125441971D01*
X175020878Y-125441971D02*
X174985164Y-125334828D01*
X174985164Y-125334828D02*
X174985164Y-125263400D01*
X174985164Y-125263400D02*
X175020878Y-125156257D01*
X175020878Y-125156257D02*
X175056592Y-125120543D01*
X175735164Y-124406257D02*
X175735164Y-124834828D01*
X175735164Y-124620543D02*
X174985164Y-124620543D01*
X174985164Y-124620543D02*
X175092307Y-124691971D01*
X175092307Y-124691971D02*
X175163735Y-124763400D01*
X175163735Y-124763400D02*
X175199450Y-124834828D01*
X174985164Y-124156257D02*
X174985164Y-123691971D01*
X174985164Y-123691971D02*
X175270878Y-123941971D01*
X175270878Y-123941971D02*
X175270878Y-123834828D01*
X175270878Y-123834828D02*
X175306592Y-123763400D01*
X175306592Y-123763400D02*
X175342307Y-123727685D01*
X175342307Y-123727685D02*
X175413735Y-123691971D01*
X175413735Y-123691971D02*
X175592307Y-123691971D01*
X175592307Y-123691971D02*
X175663735Y-123727685D01*
X175663735Y-123727685D02*
X175699450Y-123763400D01*
X175699450Y-123763400D02*
X175735164Y-123834828D01*
X175735164Y-123834828D02*
X175735164Y-124049114D01*
X175735164Y-124049114D02*
X175699450Y-124120542D01*
X175699450Y-124120542D02*
X175663735Y-124156257D01*
X187160999Y-115626135D02*
X187125285Y-115661850D01*
X187125285Y-115661850D02*
X187018142Y-115697564D01*
X187018142Y-115697564D02*
X186946714Y-115697564D01*
X186946714Y-115697564D02*
X186839571Y-115661850D01*
X186839571Y-115661850D02*
X186768142Y-115590421D01*
X186768142Y-115590421D02*
X186732428Y-115518992D01*
X186732428Y-115518992D02*
X186696714Y-115376135D01*
X186696714Y-115376135D02*
X186696714Y-115268992D01*
X186696714Y-115268992D02*
X186732428Y-115126135D01*
X186732428Y-115126135D02*
X186768142Y-115054707D01*
X186768142Y-115054707D02*
X186839571Y-114983278D01*
X186839571Y-114983278D02*
X186946714Y-114947564D01*
X186946714Y-114947564D02*
X187018142Y-114947564D01*
X187018142Y-114947564D02*
X187125285Y-114983278D01*
X187125285Y-114983278D02*
X187160999Y-115018992D01*
X187803857Y-114947564D02*
X187660999Y-114947564D01*
X187660999Y-114947564D02*
X187589571Y-114983278D01*
X187589571Y-114983278D02*
X187553857Y-115018992D01*
X187553857Y-115018992D02*
X187482428Y-115126135D01*
X187482428Y-115126135D02*
X187446714Y-115268992D01*
X187446714Y-115268992D02*
X187446714Y-115554707D01*
X187446714Y-115554707D02*
X187482428Y-115626135D01*
X187482428Y-115626135D02*
X187518142Y-115661850D01*
X187518142Y-115661850D02*
X187589571Y-115697564D01*
X187589571Y-115697564D02*
X187732428Y-115697564D01*
X187732428Y-115697564D02*
X187803857Y-115661850D01*
X187803857Y-115661850D02*
X187839571Y-115626135D01*
X187839571Y-115626135D02*
X187875285Y-115554707D01*
X187875285Y-115554707D02*
X187875285Y-115376135D01*
X187875285Y-115376135D02*
X187839571Y-115304707D01*
X187839571Y-115304707D02*
X187803857Y-115268992D01*
X187803857Y-115268992D02*
X187732428Y-115233278D01*
X187732428Y-115233278D02*
X187589571Y-115233278D01*
X187589571Y-115233278D02*
X187518142Y-115268992D01*
X187518142Y-115268992D02*
X187482428Y-115304707D01*
X187482428Y-115304707D02*
X187446714Y-115376135D01*
X155295164Y-115440543D02*
X154938021Y-115690543D01*
X155295164Y-115869114D02*
X154545164Y-115869114D01*
X154545164Y-115869114D02*
X154545164Y-115583400D01*
X154545164Y-115583400D02*
X154580878Y-115511971D01*
X154580878Y-115511971D02*
X154616592Y-115476257D01*
X154616592Y-115476257D02*
X154688021Y-115440543D01*
X154688021Y-115440543D02*
X154795164Y-115440543D01*
X154795164Y-115440543D02*
X154866592Y-115476257D01*
X154866592Y-115476257D02*
X154902307Y-115511971D01*
X154902307Y-115511971D02*
X154938021Y-115583400D01*
X154938021Y-115583400D02*
X154938021Y-115869114D01*
X154616592Y-115154828D02*
X154580878Y-115119114D01*
X154580878Y-115119114D02*
X154545164Y-115047686D01*
X154545164Y-115047686D02*
X154545164Y-114869114D01*
X154545164Y-114869114D02*
X154580878Y-114797686D01*
X154580878Y-114797686D02*
X154616592Y-114761971D01*
X154616592Y-114761971D02*
X154688021Y-114726257D01*
X154688021Y-114726257D02*
X154759450Y-114726257D01*
X154759450Y-114726257D02*
X154866592Y-114761971D01*
X154866592Y-114761971D02*
X155295164Y-115190543D01*
X155295164Y-115190543D02*
X155295164Y-114726257D01*
X154545164Y-114261971D02*
X154545164Y-114190542D01*
X154545164Y-114190542D02*
X154580878Y-114119114D01*
X154580878Y-114119114D02*
X154616592Y-114083400D01*
X154616592Y-114083400D02*
X154688021Y-114047685D01*
X154688021Y-114047685D02*
X154830878Y-114011971D01*
X154830878Y-114011971D02*
X155009450Y-114011971D01*
X155009450Y-114011971D02*
X155152307Y-114047685D01*
X155152307Y-114047685D02*
X155223735Y-114083400D01*
X155223735Y-114083400D02*
X155259450Y-114119114D01*
X155259450Y-114119114D02*
X155295164Y-114190542D01*
X155295164Y-114190542D02*
X155295164Y-114261971D01*
X155295164Y-114261971D02*
X155259450Y-114333400D01*
X155259450Y-114333400D02*
X155223735Y-114369114D01*
X155223735Y-114369114D02*
X155152307Y-114404828D01*
X155152307Y-114404828D02*
X155009450Y-114440542D01*
X155009450Y-114440542D02*
X154830878Y-114440542D01*
X154830878Y-114440542D02*
X154688021Y-114404828D01*
X154688021Y-114404828D02*
X154616592Y-114369114D01*
X154616592Y-114369114D02*
X154580878Y-114333400D01*
X154580878Y-114333400D02*
X154545164Y-114261971D01*
X177582971Y-119929064D02*
X177582971Y-120536207D01*
X177582971Y-120536207D02*
X177618685Y-120607635D01*
X177618685Y-120607635D02*
X177654400Y-120643350D01*
X177654400Y-120643350D02*
X177725828Y-120679064D01*
X177725828Y-120679064D02*
X177868685Y-120679064D01*
X177868685Y-120679064D02*
X177940114Y-120643350D01*
X177940114Y-120643350D02*
X177975828Y-120607635D01*
X177975828Y-120607635D02*
X178011542Y-120536207D01*
X178011542Y-120536207D02*
X178011542Y-119929064D01*
X178725828Y-119929064D02*
X178368685Y-119929064D01*
X178368685Y-119929064D02*
X178332971Y-120286207D01*
X178332971Y-120286207D02*
X178368685Y-120250492D01*
X178368685Y-120250492D02*
X178440114Y-120214778D01*
X178440114Y-120214778D02*
X178618685Y-120214778D01*
X178618685Y-120214778D02*
X178690114Y-120250492D01*
X178690114Y-120250492D02*
X178725828Y-120286207D01*
X178725828Y-120286207D02*
X178761542Y-120357635D01*
X178761542Y-120357635D02*
X178761542Y-120536207D01*
X178761542Y-120536207D02*
X178725828Y-120607635D01*
X178725828Y-120607635D02*
X178690114Y-120643350D01*
X178690114Y-120643350D02*
X178618685Y-120679064D01*
X178618685Y-120679064D02*
X178440114Y-120679064D01*
X178440114Y-120679064D02*
X178368685Y-120643350D01*
X178368685Y-120643350D02*
X178332971Y-120607635D01*
X127945164Y-107001971D02*
X127195164Y-107001971D01*
X127195164Y-107001971D02*
X127195164Y-106823400D01*
X127195164Y-106823400D02*
X127230878Y-106716257D01*
X127230878Y-106716257D02*
X127302307Y-106644828D01*
X127302307Y-106644828D02*
X127373735Y-106609114D01*
X127373735Y-106609114D02*
X127516592Y-106573400D01*
X127516592Y-106573400D02*
X127623735Y-106573400D01*
X127623735Y-106573400D02*
X127766592Y-106609114D01*
X127766592Y-106609114D02*
X127838021Y-106644828D01*
X127838021Y-106644828D02*
X127909450Y-106716257D01*
X127909450Y-106716257D02*
X127945164Y-106823400D01*
X127945164Y-106823400D02*
X127945164Y-107001971D01*
X127195164Y-106323400D02*
X127195164Y-105823400D01*
X127195164Y-105823400D02*
X127945164Y-106144828D01*
X129845164Y-110384114D02*
X129845164Y-110812685D01*
X129845164Y-110598400D02*
X129095164Y-110598400D01*
X129095164Y-110598400D02*
X129202307Y-110669828D01*
X129202307Y-110669828D02*
X129273735Y-110741257D01*
X129273735Y-110741257D02*
X129309450Y-110812685D01*
X153013856Y-113117564D02*
X152763856Y-112760421D01*
X152585285Y-113117564D02*
X152585285Y-112367564D01*
X152585285Y-112367564D02*
X152870999Y-112367564D01*
X152870999Y-112367564D02*
X152942428Y-112403278D01*
X152942428Y-112403278D02*
X152978142Y-112438992D01*
X152978142Y-112438992D02*
X153013856Y-112510421D01*
X153013856Y-112510421D02*
X153013856Y-112617564D01*
X153013856Y-112617564D02*
X152978142Y-112688992D01*
X152978142Y-112688992D02*
X152942428Y-112724707D01*
X152942428Y-112724707D02*
X152870999Y-112760421D01*
X152870999Y-112760421D02*
X152585285Y-112760421D01*
X153299571Y-112438992D02*
X153335285Y-112403278D01*
X153335285Y-112403278D02*
X153406714Y-112367564D01*
X153406714Y-112367564D02*
X153585285Y-112367564D01*
X153585285Y-112367564D02*
X153656714Y-112403278D01*
X153656714Y-112403278D02*
X153692428Y-112438992D01*
X153692428Y-112438992D02*
X153728142Y-112510421D01*
X153728142Y-112510421D02*
X153728142Y-112581850D01*
X153728142Y-112581850D02*
X153692428Y-112688992D01*
X153692428Y-112688992D02*
X153263856Y-113117564D01*
X153263856Y-113117564D02*
X153728142Y-113117564D01*
X154442428Y-113117564D02*
X154013857Y-113117564D01*
X154228142Y-113117564D02*
X154228142Y-112367564D01*
X154228142Y-112367564D02*
X154156714Y-112474707D01*
X154156714Y-112474707D02*
X154085285Y-112546135D01*
X154085285Y-112546135D02*
X154013857Y-112581850D01*
X178375164Y-107813400D02*
X178018021Y-108063400D01*
X178375164Y-108241971D02*
X177625164Y-108241971D01*
X177625164Y-108241971D02*
X177625164Y-107956257D01*
X177625164Y-107956257D02*
X177660878Y-107884828D01*
X177660878Y-107884828D02*
X177696592Y-107849114D01*
X177696592Y-107849114D02*
X177768021Y-107813400D01*
X177768021Y-107813400D02*
X177875164Y-107813400D01*
X177875164Y-107813400D02*
X177946592Y-107849114D01*
X177946592Y-107849114D02*
X177982307Y-107884828D01*
X177982307Y-107884828D02*
X178018021Y-107956257D01*
X178018021Y-107956257D02*
X178018021Y-108241971D01*
X177625164Y-107134828D02*
X177625164Y-107491971D01*
X177625164Y-107491971D02*
X177982307Y-107527685D01*
X177982307Y-107527685D02*
X177946592Y-107491971D01*
X177946592Y-107491971D02*
X177910878Y-107420543D01*
X177910878Y-107420543D02*
X177910878Y-107241971D01*
X177910878Y-107241971D02*
X177946592Y-107170543D01*
X177946592Y-107170543D02*
X177982307Y-107134828D01*
X177982307Y-107134828D02*
X178053735Y-107099114D01*
X178053735Y-107099114D02*
X178232307Y-107099114D01*
X178232307Y-107099114D02*
X178303735Y-107134828D01*
X178303735Y-107134828D02*
X178339450Y-107170543D01*
X178339450Y-107170543D02*
X178375164Y-107241971D01*
X178375164Y-107241971D02*
X178375164Y-107420543D01*
X178375164Y-107420543D02*
X178339450Y-107491971D01*
X178339450Y-107491971D02*
X178303735Y-107527685D01*
X112670999Y-111186135D02*
X112635285Y-111221850D01*
X112635285Y-111221850D02*
X112528142Y-111257564D01*
X112528142Y-111257564D02*
X112456714Y-111257564D01*
X112456714Y-111257564D02*
X112349571Y-111221850D01*
X112349571Y-111221850D02*
X112278142Y-111150421D01*
X112278142Y-111150421D02*
X112242428Y-111078992D01*
X112242428Y-111078992D02*
X112206714Y-110936135D01*
X112206714Y-110936135D02*
X112206714Y-110828992D01*
X112206714Y-110828992D02*
X112242428Y-110686135D01*
X112242428Y-110686135D02*
X112278142Y-110614707D01*
X112278142Y-110614707D02*
X112349571Y-110543278D01*
X112349571Y-110543278D02*
X112456714Y-110507564D01*
X112456714Y-110507564D02*
X112528142Y-110507564D01*
X112528142Y-110507564D02*
X112635285Y-110543278D01*
X112635285Y-110543278D02*
X112670999Y-110578992D01*
X112920999Y-110507564D02*
X113420999Y-110507564D01*
X113420999Y-110507564D02*
X113099571Y-111257564D01*
X147745164Y-130909114D02*
X146995164Y-130909114D01*
X146995164Y-130909114D02*
X146995164Y-130730543D01*
X146995164Y-130730543D02*
X147030878Y-130623400D01*
X147030878Y-130623400D02*
X147102307Y-130551971D01*
X147102307Y-130551971D02*
X147173735Y-130516257D01*
X147173735Y-130516257D02*
X147316592Y-130480543D01*
X147316592Y-130480543D02*
X147423735Y-130480543D01*
X147423735Y-130480543D02*
X147566592Y-130516257D01*
X147566592Y-130516257D02*
X147638021Y-130551971D01*
X147638021Y-130551971D02*
X147709450Y-130623400D01*
X147709450Y-130623400D02*
X147745164Y-130730543D01*
X147745164Y-130730543D02*
X147745164Y-130909114D01*
X147745164Y-129766257D02*
X147745164Y-130194828D01*
X147745164Y-129980543D02*
X146995164Y-129980543D01*
X146995164Y-129980543D02*
X147102307Y-130051971D01*
X147102307Y-130051971D02*
X147173735Y-130123400D01*
X147173735Y-130123400D02*
X147209450Y-130194828D01*
X146995164Y-129516257D02*
X146995164Y-129051971D01*
X146995164Y-129051971D02*
X147280878Y-129301971D01*
X147280878Y-129301971D02*
X147280878Y-129194828D01*
X147280878Y-129194828D02*
X147316592Y-129123400D01*
X147316592Y-129123400D02*
X147352307Y-129087685D01*
X147352307Y-129087685D02*
X147423735Y-129051971D01*
X147423735Y-129051971D02*
X147602307Y-129051971D01*
X147602307Y-129051971D02*
X147673735Y-129087685D01*
X147673735Y-129087685D02*
X147709450Y-129123400D01*
X147709450Y-129123400D02*
X147745164Y-129194828D01*
X147745164Y-129194828D02*
X147745164Y-129409114D01*
X147745164Y-129409114D02*
X147709450Y-129480542D01*
X147709450Y-129480542D02*
X147673735Y-129516257D01*
X149845164Y-135384114D02*
X149845164Y-135812685D01*
X149845164Y-135598400D02*
X149095164Y-135598400D01*
X149095164Y-135598400D02*
X149202307Y-135669828D01*
X149202307Y-135669828D02*
X149273735Y-135741257D01*
X149273735Y-135741257D02*
X149309450Y-135812685D01*
X135112135Y-135129543D02*
X135147850Y-135165257D01*
X135147850Y-135165257D02*
X135183564Y-135272400D01*
X135183564Y-135272400D02*
X135183564Y-135343828D01*
X135183564Y-135343828D02*
X135147850Y-135450971D01*
X135147850Y-135450971D02*
X135076421Y-135522400D01*
X135076421Y-135522400D02*
X135004992Y-135558114D01*
X135004992Y-135558114D02*
X134862135Y-135593828D01*
X134862135Y-135593828D02*
X134754992Y-135593828D01*
X134754992Y-135593828D02*
X134612135Y-135558114D01*
X134612135Y-135558114D02*
X134540707Y-135522400D01*
X134540707Y-135522400D02*
X134469278Y-135450971D01*
X134469278Y-135450971D02*
X134433564Y-135343828D01*
X134433564Y-135343828D02*
X134433564Y-135272400D01*
X134433564Y-135272400D02*
X134469278Y-135165257D01*
X134469278Y-135165257D02*
X134504992Y-135129543D01*
X134504992Y-134843828D02*
X134469278Y-134808114D01*
X134469278Y-134808114D02*
X134433564Y-134736686D01*
X134433564Y-134736686D02*
X134433564Y-134558114D01*
X134433564Y-134558114D02*
X134469278Y-134486686D01*
X134469278Y-134486686D02*
X134504992Y-134450971D01*
X134504992Y-134450971D02*
X134576421Y-134415257D01*
X134576421Y-134415257D02*
X134647850Y-134415257D01*
X134647850Y-134415257D02*
X134754992Y-134450971D01*
X134754992Y-134450971D02*
X135183564Y-134879543D01*
X135183564Y-134879543D02*
X135183564Y-134415257D01*
X135183564Y-133700971D02*
X135183564Y-134129542D01*
X135183564Y-133915257D02*
X134433564Y-133915257D01*
X134433564Y-133915257D02*
X134540707Y-133986685D01*
X134540707Y-133986685D02*
X134612135Y-134058114D01*
X134612135Y-134058114D02*
X134647850Y-134129542D01*
X185218021Y-106015542D02*
X185575164Y-106015542D01*
X184825164Y-106265542D02*
X185218021Y-106015542D01*
X185218021Y-106015542D02*
X184825164Y-105765542D01*
X185575164Y-105122685D02*
X185575164Y-105551256D01*
X185575164Y-105336971D02*
X184825164Y-105336971D01*
X184825164Y-105336971D02*
X184932307Y-105408399D01*
X184932307Y-105408399D02*
X185003735Y-105479828D01*
X185003735Y-105479828D02*
X185039450Y-105551256D01*
X127280819Y-115621257D02*
X126804628Y-115954590D01*
X127280819Y-116192685D02*
X126280819Y-116192685D01*
X126280819Y-116192685D02*
X126280819Y-115811733D01*
X126280819Y-115811733D02*
X126328438Y-115716495D01*
X126328438Y-115716495D02*
X126376057Y-115668876D01*
X126376057Y-115668876D02*
X126471295Y-115621257D01*
X126471295Y-115621257D02*
X126614152Y-115621257D01*
X126614152Y-115621257D02*
X126709390Y-115668876D01*
X126709390Y-115668876D02*
X126757009Y-115716495D01*
X126757009Y-115716495D02*
X126804628Y-115811733D01*
X126804628Y-115811733D02*
X126804628Y-116192685D01*
X126376057Y-115240304D02*
X126328438Y-115192685D01*
X126328438Y-115192685D02*
X126280819Y-115097447D01*
X126280819Y-115097447D02*
X126280819Y-114859352D01*
X126280819Y-114859352D02*
X126328438Y-114764114D01*
X126328438Y-114764114D02*
X126376057Y-114716495D01*
X126376057Y-114716495D02*
X126471295Y-114668876D01*
X126471295Y-114668876D02*
X126566533Y-114668876D01*
X126566533Y-114668876D02*
X126709390Y-114716495D01*
X126709390Y-114716495D02*
X127280819Y-115287923D01*
X127280819Y-115287923D02*
X127280819Y-114668876D01*
X126280819Y-114335542D02*
X126280819Y-113716495D01*
X126280819Y-113716495D02*
X126661771Y-114049828D01*
X126661771Y-114049828D02*
X126661771Y-113906971D01*
X126661771Y-113906971D02*
X126709390Y-113811733D01*
X126709390Y-113811733D02*
X126757009Y-113764114D01*
X126757009Y-113764114D02*
X126852247Y-113716495D01*
X126852247Y-113716495D02*
X127090342Y-113716495D01*
X127090342Y-113716495D02*
X127185580Y-113764114D01*
X127185580Y-113764114D02*
X127233200Y-113811733D01*
X127233200Y-113811733D02*
X127280819Y-113906971D01*
X127280819Y-113906971D02*
X127280819Y-114192685D01*
X127280819Y-114192685D02*
X127233200Y-114287923D01*
X127233200Y-114287923D02*
X127185580Y-114335542D01*
X178430999Y-135877564D02*
X178180999Y-135520421D01*
X178002428Y-135877564D02*
X178002428Y-135127564D01*
X178002428Y-135127564D02*
X178288142Y-135127564D01*
X178288142Y-135127564D02*
X178359571Y-135163278D01*
X178359571Y-135163278D02*
X178395285Y-135198992D01*
X178395285Y-135198992D02*
X178430999Y-135270421D01*
X178430999Y-135270421D02*
X178430999Y-135377564D01*
X178430999Y-135377564D02*
X178395285Y-135448992D01*
X178395285Y-135448992D02*
X178359571Y-135484707D01*
X178359571Y-135484707D02*
X178288142Y-135520421D01*
X178288142Y-135520421D02*
X178002428Y-135520421D01*
X178716714Y-135198992D02*
X178752428Y-135163278D01*
X178752428Y-135163278D02*
X178823857Y-135127564D01*
X178823857Y-135127564D02*
X179002428Y-135127564D01*
X179002428Y-135127564D02*
X179073857Y-135163278D01*
X179073857Y-135163278D02*
X179109571Y-135198992D01*
X179109571Y-135198992D02*
X179145285Y-135270421D01*
X179145285Y-135270421D02*
X179145285Y-135341850D01*
X179145285Y-135341850D02*
X179109571Y-135448992D01*
X179109571Y-135448992D02*
X178680999Y-135877564D01*
X178680999Y-135877564D02*
X179145285Y-135877564D01*
X117885164Y-121021971D02*
X117135164Y-121021971D01*
X117135164Y-121021971D02*
X117135164Y-120843400D01*
X117135164Y-120843400D02*
X117170878Y-120736257D01*
X117170878Y-120736257D02*
X117242307Y-120664828D01*
X117242307Y-120664828D02*
X117313735Y-120629114D01*
X117313735Y-120629114D02*
X117456592Y-120593400D01*
X117456592Y-120593400D02*
X117563735Y-120593400D01*
X117563735Y-120593400D02*
X117706592Y-120629114D01*
X117706592Y-120629114D02*
X117778021Y-120664828D01*
X117778021Y-120664828D02*
X117849450Y-120736257D01*
X117849450Y-120736257D02*
X117885164Y-120843400D01*
X117885164Y-120843400D02*
X117885164Y-121021971D01*
X117206592Y-120307685D02*
X117170878Y-120271971D01*
X117170878Y-120271971D02*
X117135164Y-120200543D01*
X117135164Y-120200543D02*
X117135164Y-120021971D01*
X117135164Y-120021971D02*
X117170878Y-119950543D01*
X117170878Y-119950543D02*
X117206592Y-119914828D01*
X117206592Y-119914828D02*
X117278021Y-119879114D01*
X117278021Y-119879114D02*
X117349450Y-119879114D01*
X117349450Y-119879114D02*
X117456592Y-119914828D01*
X117456592Y-119914828D02*
X117885164Y-120343400D01*
X117885164Y-120343400D02*
X117885164Y-119879114D01*
X119845164Y-125384114D02*
X119845164Y-125812685D01*
X119845164Y-125598400D02*
X119095164Y-125598400D01*
X119095164Y-125598400D02*
X119202307Y-125669828D01*
X119202307Y-125669828D02*
X119273735Y-125741257D01*
X119273735Y-125741257D02*
X119309450Y-125812685D01*
X147945164Y-107359114D02*
X147195164Y-107359114D01*
X147195164Y-107359114D02*
X147195164Y-107180543D01*
X147195164Y-107180543D02*
X147230878Y-107073400D01*
X147230878Y-107073400D02*
X147302307Y-107001971D01*
X147302307Y-107001971D02*
X147373735Y-106966257D01*
X147373735Y-106966257D02*
X147516592Y-106930543D01*
X147516592Y-106930543D02*
X147623735Y-106930543D01*
X147623735Y-106930543D02*
X147766592Y-106966257D01*
X147766592Y-106966257D02*
X147838021Y-107001971D01*
X147838021Y-107001971D02*
X147909450Y-107073400D01*
X147909450Y-107073400D02*
X147945164Y-107180543D01*
X147945164Y-107180543D02*
X147945164Y-107359114D01*
X147945164Y-106216257D02*
X147945164Y-106644828D01*
X147945164Y-106430543D02*
X147195164Y-106430543D01*
X147195164Y-106430543D02*
X147302307Y-106501971D01*
X147302307Y-106501971D02*
X147373735Y-106573400D01*
X147373735Y-106573400D02*
X147409450Y-106644828D01*
X147195164Y-105537685D02*
X147195164Y-105894828D01*
X147195164Y-105894828D02*
X147552307Y-105930542D01*
X147552307Y-105930542D02*
X147516592Y-105894828D01*
X147516592Y-105894828D02*
X147480878Y-105823400D01*
X147480878Y-105823400D02*
X147480878Y-105644828D01*
X147480878Y-105644828D02*
X147516592Y-105573400D01*
X147516592Y-105573400D02*
X147552307Y-105537685D01*
X147552307Y-105537685D02*
X147623735Y-105501971D01*
X147623735Y-105501971D02*
X147802307Y-105501971D01*
X147802307Y-105501971D02*
X147873735Y-105537685D01*
X147873735Y-105537685D02*
X147909450Y-105573400D01*
X147909450Y-105573400D02*
X147945164Y-105644828D01*
X147945164Y-105644828D02*
X147945164Y-105823400D01*
X147945164Y-105823400D02*
X147909450Y-105894828D01*
X147909450Y-105894828D02*
X147873735Y-105930542D01*
X149845164Y-110384114D02*
X149845164Y-110812685D01*
X149845164Y-110598400D02*
X149095164Y-110598400D01*
X149095164Y-110598400D02*
X149202307Y-110669828D01*
X149202307Y-110669828D02*
X149273735Y-110741257D01*
X149273735Y-110741257D02*
X149309450Y-110812685D01*
X108150999Y-108346135D02*
X108115285Y-108381850D01*
X108115285Y-108381850D02*
X108008142Y-108417564D01*
X108008142Y-108417564D02*
X107936714Y-108417564D01*
X107936714Y-108417564D02*
X107829571Y-108381850D01*
X107829571Y-108381850D02*
X107758142Y-108310421D01*
X107758142Y-108310421D02*
X107722428Y-108238992D01*
X107722428Y-108238992D02*
X107686714Y-108096135D01*
X107686714Y-108096135D02*
X107686714Y-107988992D01*
X107686714Y-107988992D02*
X107722428Y-107846135D01*
X107722428Y-107846135D02*
X107758142Y-107774707D01*
X107758142Y-107774707D02*
X107829571Y-107703278D01*
X107829571Y-107703278D02*
X107936714Y-107667564D01*
X107936714Y-107667564D02*
X108008142Y-107667564D01*
X108008142Y-107667564D02*
X108115285Y-107703278D01*
X108115285Y-107703278D02*
X108150999Y-107738992D01*
X108829571Y-107667564D02*
X108472428Y-107667564D01*
X108472428Y-107667564D02*
X108436714Y-108024707D01*
X108436714Y-108024707D02*
X108472428Y-107988992D01*
X108472428Y-107988992D02*
X108543857Y-107953278D01*
X108543857Y-107953278D02*
X108722428Y-107953278D01*
X108722428Y-107953278D02*
X108793857Y-107988992D01*
X108793857Y-107988992D02*
X108829571Y-108024707D01*
X108829571Y-108024707D02*
X108865285Y-108096135D01*
X108865285Y-108096135D02*
X108865285Y-108274707D01*
X108865285Y-108274707D02*
X108829571Y-108346135D01*
X108829571Y-108346135D02*
X108793857Y-108381850D01*
X108793857Y-108381850D02*
X108722428Y-108417564D01*
X108722428Y-108417564D02*
X108543857Y-108417564D01*
X108543857Y-108417564D02*
X108472428Y-108381850D01*
X108472428Y-108381850D02*
X108436714Y-108346135D01*
X174783735Y-109880543D02*
X174819450Y-109916257D01*
X174819450Y-109916257D02*
X174855164Y-110023400D01*
X174855164Y-110023400D02*
X174855164Y-110094828D01*
X174855164Y-110094828D02*
X174819450Y-110201971D01*
X174819450Y-110201971D02*
X174748021Y-110273400D01*
X174748021Y-110273400D02*
X174676592Y-110309114D01*
X174676592Y-110309114D02*
X174533735Y-110344828D01*
X174533735Y-110344828D02*
X174426592Y-110344828D01*
X174426592Y-110344828D02*
X174283735Y-110309114D01*
X174283735Y-110309114D02*
X174212307Y-110273400D01*
X174212307Y-110273400D02*
X174140878Y-110201971D01*
X174140878Y-110201971D02*
X174105164Y-110094828D01*
X174105164Y-110094828D02*
X174105164Y-110023400D01*
X174105164Y-110023400D02*
X174140878Y-109916257D01*
X174140878Y-109916257D02*
X174176592Y-109880543D01*
X174855164Y-109166257D02*
X174855164Y-109594828D01*
X174855164Y-109380543D02*
X174105164Y-109380543D01*
X174105164Y-109380543D02*
X174212307Y-109451971D01*
X174212307Y-109451971D02*
X174283735Y-109523400D01*
X174283735Y-109523400D02*
X174319450Y-109594828D01*
X174426592Y-108737685D02*
X174390878Y-108809114D01*
X174390878Y-108809114D02*
X174355164Y-108844828D01*
X174355164Y-108844828D02*
X174283735Y-108880542D01*
X174283735Y-108880542D02*
X174248021Y-108880542D01*
X174248021Y-108880542D02*
X174176592Y-108844828D01*
X174176592Y-108844828D02*
X174140878Y-108809114D01*
X174140878Y-108809114D02*
X174105164Y-108737685D01*
X174105164Y-108737685D02*
X174105164Y-108594828D01*
X174105164Y-108594828D02*
X174140878Y-108523400D01*
X174140878Y-108523400D02*
X174176592Y-108487685D01*
X174176592Y-108487685D02*
X174248021Y-108451971D01*
X174248021Y-108451971D02*
X174283735Y-108451971D01*
X174283735Y-108451971D02*
X174355164Y-108487685D01*
X174355164Y-108487685D02*
X174390878Y-108523400D01*
X174390878Y-108523400D02*
X174426592Y-108594828D01*
X174426592Y-108594828D02*
X174426592Y-108737685D01*
X174426592Y-108737685D02*
X174462307Y-108809114D01*
X174462307Y-108809114D02*
X174498021Y-108844828D01*
X174498021Y-108844828D02*
X174569450Y-108880542D01*
X174569450Y-108880542D02*
X174712307Y-108880542D01*
X174712307Y-108880542D02*
X174783735Y-108844828D01*
X174783735Y-108844828D02*
X174819450Y-108809114D01*
X174819450Y-108809114D02*
X174855164Y-108737685D01*
X174855164Y-108737685D02*
X174855164Y-108594828D01*
X174855164Y-108594828D02*
X174819450Y-108523400D01*
X174819450Y-108523400D02*
X174783735Y-108487685D01*
X174783735Y-108487685D02*
X174712307Y-108451971D01*
X174712307Y-108451971D02*
X174569450Y-108451971D01*
X174569450Y-108451971D02*
X174498021Y-108487685D01*
X174498021Y-108487685D02*
X174462307Y-108523400D01*
X174462307Y-108523400D02*
X174426592Y-108594828D01*
X156535164Y-117940543D02*
X156178021Y-118190543D01*
X156535164Y-118369114D02*
X155785164Y-118369114D01*
X155785164Y-118369114D02*
X155785164Y-118083400D01*
X155785164Y-118083400D02*
X155820878Y-118011971D01*
X155820878Y-118011971D02*
X155856592Y-117976257D01*
X155856592Y-117976257D02*
X155928021Y-117940543D01*
X155928021Y-117940543D02*
X156035164Y-117940543D01*
X156035164Y-117940543D02*
X156106592Y-117976257D01*
X156106592Y-117976257D02*
X156142307Y-118011971D01*
X156142307Y-118011971D02*
X156178021Y-118083400D01*
X156178021Y-118083400D02*
X156178021Y-118369114D01*
X156535164Y-117226257D02*
X156535164Y-117654828D01*
X156535164Y-117440543D02*
X155785164Y-117440543D01*
X155785164Y-117440543D02*
X155892307Y-117511971D01*
X155892307Y-117511971D02*
X155963735Y-117583400D01*
X155963735Y-117583400D02*
X155999450Y-117654828D01*
X156535164Y-116511971D02*
X156535164Y-116940542D01*
X156535164Y-116726257D02*
X155785164Y-116726257D01*
X155785164Y-116726257D02*
X155892307Y-116797685D01*
X155892307Y-116797685D02*
X155963735Y-116869114D01*
X155963735Y-116869114D02*
X155999450Y-116940542D01*
X117945164Y-97001971D02*
X117195164Y-97001971D01*
X117195164Y-97001971D02*
X117195164Y-96823400D01*
X117195164Y-96823400D02*
X117230878Y-96716257D01*
X117230878Y-96716257D02*
X117302307Y-96644828D01*
X117302307Y-96644828D02*
X117373735Y-96609114D01*
X117373735Y-96609114D02*
X117516592Y-96573400D01*
X117516592Y-96573400D02*
X117623735Y-96573400D01*
X117623735Y-96573400D02*
X117766592Y-96609114D01*
X117766592Y-96609114D02*
X117838021Y-96644828D01*
X117838021Y-96644828D02*
X117909450Y-96716257D01*
X117909450Y-96716257D02*
X117945164Y-96823400D01*
X117945164Y-96823400D02*
X117945164Y-97001971D01*
X117445164Y-95930543D02*
X117945164Y-95930543D01*
X117159450Y-96109114D02*
X117695164Y-96287685D01*
X117695164Y-96287685D02*
X117695164Y-95823400D01*
X119845164Y-100384114D02*
X119845164Y-100812685D01*
X119845164Y-100598400D02*
X119095164Y-100598400D01*
X119095164Y-100598400D02*
X119202307Y-100669828D01*
X119202307Y-100669828D02*
X119273735Y-100741257D01*
X119273735Y-100741257D02*
X119309450Y-100812685D01*
X186830999Y-120107564D02*
X186580999Y-119750421D01*
X186402428Y-120107564D02*
X186402428Y-119357564D01*
X186402428Y-119357564D02*
X186688142Y-119357564D01*
X186688142Y-119357564D02*
X186759571Y-119393278D01*
X186759571Y-119393278D02*
X186795285Y-119428992D01*
X186795285Y-119428992D02*
X186830999Y-119500421D01*
X186830999Y-119500421D02*
X186830999Y-119607564D01*
X186830999Y-119607564D02*
X186795285Y-119678992D01*
X186795285Y-119678992D02*
X186759571Y-119714707D01*
X186759571Y-119714707D02*
X186688142Y-119750421D01*
X186688142Y-119750421D02*
X186402428Y-119750421D01*
X187080999Y-119357564D02*
X187580999Y-119357564D01*
X187580999Y-119357564D02*
X187259571Y-120107564D01*
X186853735Y-107393400D02*
X186889450Y-107429114D01*
X186889450Y-107429114D02*
X186925164Y-107536257D01*
X186925164Y-107536257D02*
X186925164Y-107607685D01*
X186925164Y-107607685D02*
X186889450Y-107714828D01*
X186889450Y-107714828D02*
X186818021Y-107786257D01*
X186818021Y-107786257D02*
X186746592Y-107821971D01*
X186746592Y-107821971D02*
X186603735Y-107857685D01*
X186603735Y-107857685D02*
X186496592Y-107857685D01*
X186496592Y-107857685D02*
X186353735Y-107821971D01*
X186353735Y-107821971D02*
X186282307Y-107786257D01*
X186282307Y-107786257D02*
X186210878Y-107714828D01*
X186210878Y-107714828D02*
X186175164Y-107607685D01*
X186175164Y-107607685D02*
X186175164Y-107536257D01*
X186175164Y-107536257D02*
X186210878Y-107429114D01*
X186210878Y-107429114D02*
X186246592Y-107393400D01*
X186246592Y-107107685D02*
X186210878Y-107071971D01*
X186210878Y-107071971D02*
X186175164Y-107000543D01*
X186175164Y-107000543D02*
X186175164Y-106821971D01*
X186175164Y-106821971D02*
X186210878Y-106750543D01*
X186210878Y-106750543D02*
X186246592Y-106714828D01*
X186246592Y-106714828D02*
X186318021Y-106679114D01*
X186318021Y-106679114D02*
X186389450Y-106679114D01*
X186389450Y-106679114D02*
X186496592Y-106714828D01*
X186496592Y-106714828D02*
X186925164Y-107143400D01*
X186925164Y-107143400D02*
X186925164Y-106679114D01*
X186773856Y-112067564D02*
X186523856Y-111710421D01*
X186345285Y-112067564D02*
X186345285Y-111317564D01*
X186345285Y-111317564D02*
X186630999Y-111317564D01*
X186630999Y-111317564D02*
X186702428Y-111353278D01*
X186702428Y-111353278D02*
X186738142Y-111388992D01*
X186738142Y-111388992D02*
X186773856Y-111460421D01*
X186773856Y-111460421D02*
X186773856Y-111567564D01*
X186773856Y-111567564D02*
X186738142Y-111638992D01*
X186738142Y-111638992D02*
X186702428Y-111674707D01*
X186702428Y-111674707D02*
X186630999Y-111710421D01*
X186630999Y-111710421D02*
X186345285Y-111710421D01*
X187488142Y-112067564D02*
X187059571Y-112067564D01*
X187273856Y-112067564D02*
X187273856Y-111317564D01*
X187273856Y-111317564D02*
X187202428Y-111424707D01*
X187202428Y-111424707D02*
X187130999Y-111496135D01*
X187130999Y-111496135D02*
X187059571Y-111531850D01*
X187773857Y-111388992D02*
X187809571Y-111353278D01*
X187809571Y-111353278D02*
X187881000Y-111317564D01*
X187881000Y-111317564D02*
X188059571Y-111317564D01*
X188059571Y-111317564D02*
X188131000Y-111353278D01*
X188131000Y-111353278D02*
X188166714Y-111388992D01*
X188166714Y-111388992D02*
X188202428Y-111460421D01*
X188202428Y-111460421D02*
X188202428Y-111531850D01*
X188202428Y-111531850D02*
X188166714Y-111638992D01*
X188166714Y-111638992D02*
X187738142Y-112067564D01*
X187738142Y-112067564D02*
X188202428Y-112067564D01*
X127945164Y-97001971D02*
X127195164Y-97001971D01*
X127195164Y-97001971D02*
X127195164Y-96823400D01*
X127195164Y-96823400D02*
X127230878Y-96716257D01*
X127230878Y-96716257D02*
X127302307Y-96644828D01*
X127302307Y-96644828D02*
X127373735Y-96609114D01*
X127373735Y-96609114D02*
X127516592Y-96573400D01*
X127516592Y-96573400D02*
X127623735Y-96573400D01*
X127623735Y-96573400D02*
X127766592Y-96609114D01*
X127766592Y-96609114D02*
X127838021Y-96644828D01*
X127838021Y-96644828D02*
X127909450Y-96716257D01*
X127909450Y-96716257D02*
X127945164Y-96823400D01*
X127945164Y-96823400D02*
X127945164Y-97001971D01*
X127516592Y-96144828D02*
X127480878Y-96216257D01*
X127480878Y-96216257D02*
X127445164Y-96251971D01*
X127445164Y-96251971D02*
X127373735Y-96287685D01*
X127373735Y-96287685D02*
X127338021Y-96287685D01*
X127338021Y-96287685D02*
X127266592Y-96251971D01*
X127266592Y-96251971D02*
X127230878Y-96216257D01*
X127230878Y-96216257D02*
X127195164Y-96144828D01*
X127195164Y-96144828D02*
X127195164Y-96001971D01*
X127195164Y-96001971D02*
X127230878Y-95930543D01*
X127230878Y-95930543D02*
X127266592Y-95894828D01*
X127266592Y-95894828D02*
X127338021Y-95859114D01*
X127338021Y-95859114D02*
X127373735Y-95859114D01*
X127373735Y-95859114D02*
X127445164Y-95894828D01*
X127445164Y-95894828D02*
X127480878Y-95930543D01*
X127480878Y-95930543D02*
X127516592Y-96001971D01*
X127516592Y-96001971D02*
X127516592Y-96144828D01*
X127516592Y-96144828D02*
X127552307Y-96216257D01*
X127552307Y-96216257D02*
X127588021Y-96251971D01*
X127588021Y-96251971D02*
X127659450Y-96287685D01*
X127659450Y-96287685D02*
X127802307Y-96287685D01*
X127802307Y-96287685D02*
X127873735Y-96251971D01*
X127873735Y-96251971D02*
X127909450Y-96216257D01*
X127909450Y-96216257D02*
X127945164Y-96144828D01*
X127945164Y-96144828D02*
X127945164Y-96001971D01*
X127945164Y-96001971D02*
X127909450Y-95930543D01*
X127909450Y-95930543D02*
X127873735Y-95894828D01*
X127873735Y-95894828D02*
X127802307Y-95859114D01*
X127802307Y-95859114D02*
X127659450Y-95859114D01*
X127659450Y-95859114D02*
X127588021Y-95894828D01*
X127588021Y-95894828D02*
X127552307Y-95930543D01*
X127552307Y-95930543D02*
X127516592Y-96001971D01*
X129845164Y-100384114D02*
X129845164Y-100812685D01*
X129845164Y-100598400D02*
X129095164Y-100598400D01*
X129095164Y-100598400D02*
X129202307Y-100669828D01*
X129202307Y-100669828D02*
X129273735Y-100741257D01*
X129273735Y-100741257D02*
X129309450Y-100812685D01*
X127945164Y-132001971D02*
X127195164Y-132001971D01*
X127195164Y-132001971D02*
X127195164Y-131823400D01*
X127195164Y-131823400D02*
X127230878Y-131716257D01*
X127230878Y-131716257D02*
X127302307Y-131644828D01*
X127302307Y-131644828D02*
X127373735Y-131609114D01*
X127373735Y-131609114D02*
X127516592Y-131573400D01*
X127516592Y-131573400D02*
X127623735Y-131573400D01*
X127623735Y-131573400D02*
X127766592Y-131609114D01*
X127766592Y-131609114D02*
X127838021Y-131644828D01*
X127838021Y-131644828D02*
X127909450Y-131716257D01*
X127909450Y-131716257D02*
X127945164Y-131823400D01*
X127945164Y-131823400D02*
X127945164Y-132001971D01*
X127195164Y-130894828D02*
X127195164Y-131251971D01*
X127195164Y-131251971D02*
X127552307Y-131287685D01*
X127552307Y-131287685D02*
X127516592Y-131251971D01*
X127516592Y-131251971D02*
X127480878Y-131180543D01*
X127480878Y-131180543D02*
X127480878Y-131001971D01*
X127480878Y-131001971D02*
X127516592Y-130930543D01*
X127516592Y-130930543D02*
X127552307Y-130894828D01*
X127552307Y-130894828D02*
X127623735Y-130859114D01*
X127623735Y-130859114D02*
X127802307Y-130859114D01*
X127802307Y-130859114D02*
X127873735Y-130894828D01*
X127873735Y-130894828D02*
X127909450Y-130930543D01*
X127909450Y-130930543D02*
X127945164Y-131001971D01*
X127945164Y-131001971D02*
X127945164Y-131180543D01*
X127945164Y-131180543D02*
X127909450Y-131251971D01*
X127909450Y-131251971D02*
X127873735Y-131287685D01*
X129845164Y-135384114D02*
X129845164Y-135812685D01*
X129845164Y-135598400D02*
X129095164Y-135598400D01*
X129095164Y-135598400D02*
X129202307Y-135669828D01*
X129202307Y-135669828D02*
X129273735Y-135741257D01*
X129273735Y-135741257D02*
X129309450Y-135812685D01*
X186396000Y-124717564D02*
X186396000Y-125253278D01*
X186396000Y-125253278D02*
X186360285Y-125360421D01*
X186360285Y-125360421D02*
X186288857Y-125431850D01*
X186288857Y-125431850D02*
X186181714Y-125467564D01*
X186181714Y-125467564D02*
X186110285Y-125467564D01*
X187146000Y-125467564D02*
X186717429Y-125467564D01*
X186931714Y-125467564D02*
X186931714Y-124717564D01*
X186931714Y-124717564D02*
X186860286Y-124824707D01*
X186860286Y-124824707D02*
X186788857Y-124896135D01*
X186788857Y-124896135D02*
X186717429Y-124931850D01*
X155165580Y-104261257D02*
X155213200Y-104308876D01*
X155213200Y-104308876D02*
X155260819Y-104451733D01*
X155260819Y-104451733D02*
X155260819Y-104546971D01*
X155260819Y-104546971D02*
X155213200Y-104689828D01*
X155213200Y-104689828D02*
X155117961Y-104785066D01*
X155117961Y-104785066D02*
X155022723Y-104832685D01*
X155022723Y-104832685D02*
X154832247Y-104880304D01*
X154832247Y-104880304D02*
X154689390Y-104880304D01*
X154689390Y-104880304D02*
X154498914Y-104832685D01*
X154498914Y-104832685D02*
X154403676Y-104785066D01*
X154403676Y-104785066D02*
X154308438Y-104689828D01*
X154308438Y-104689828D02*
X154260819Y-104546971D01*
X154260819Y-104546971D02*
X154260819Y-104451733D01*
X154260819Y-104451733D02*
X154308438Y-104308876D01*
X154308438Y-104308876D02*
X154356057Y-104261257D01*
X154260819Y-103927923D02*
X154260819Y-103308876D01*
X154260819Y-103308876D02*
X154641771Y-103642209D01*
X154641771Y-103642209D02*
X154641771Y-103499352D01*
X154641771Y-103499352D02*
X154689390Y-103404114D01*
X154689390Y-103404114D02*
X154737009Y-103356495D01*
X154737009Y-103356495D02*
X154832247Y-103308876D01*
X154832247Y-103308876D02*
X155070342Y-103308876D01*
X155070342Y-103308876D02*
X155165580Y-103356495D01*
X155165580Y-103356495D02*
X155213200Y-103404114D01*
X155213200Y-103404114D02*
X155260819Y-103499352D01*
X155260819Y-103499352D02*
X155260819Y-103785066D01*
X155260819Y-103785066D02*
X155213200Y-103880304D01*
X155213200Y-103880304D02*
X155165580Y-103927923D01*
X154260819Y-102975542D02*
X154260819Y-102308876D01*
X154260819Y-102308876D02*
X155260819Y-102737447D01*
X142123142Y-115413219D02*
X141789809Y-114937028D01*
X141551714Y-115413219D02*
X141551714Y-114413219D01*
X141551714Y-114413219D02*
X141932666Y-114413219D01*
X141932666Y-114413219D02*
X142027904Y-114460838D01*
X142027904Y-114460838D02*
X142075523Y-114508457D01*
X142075523Y-114508457D02*
X142123142Y-114603695D01*
X142123142Y-114603695D02*
X142123142Y-114746552D01*
X142123142Y-114746552D02*
X142075523Y-114841790D01*
X142075523Y-114841790D02*
X142027904Y-114889409D01*
X142027904Y-114889409D02*
X141932666Y-114937028D01*
X141932666Y-114937028D02*
X141551714Y-114937028D01*
X142504095Y-114508457D02*
X142551714Y-114460838D01*
X142551714Y-114460838D02*
X142646952Y-114413219D01*
X142646952Y-114413219D02*
X142885047Y-114413219D01*
X142885047Y-114413219D02*
X142980285Y-114460838D01*
X142980285Y-114460838D02*
X143027904Y-114508457D01*
X143027904Y-114508457D02*
X143075523Y-114603695D01*
X143075523Y-114603695D02*
X143075523Y-114698933D01*
X143075523Y-114698933D02*
X143027904Y-114841790D01*
X143027904Y-114841790D02*
X142456476Y-115413219D01*
X142456476Y-115413219D02*
X143075523Y-115413219D01*
X143932666Y-114413219D02*
X143742190Y-114413219D01*
X143742190Y-114413219D02*
X143646952Y-114460838D01*
X143646952Y-114460838D02*
X143599333Y-114508457D01*
X143599333Y-114508457D02*
X143504095Y-114651314D01*
X143504095Y-114651314D02*
X143456476Y-114841790D01*
X143456476Y-114841790D02*
X143456476Y-115222742D01*
X143456476Y-115222742D02*
X143504095Y-115317980D01*
X143504095Y-115317980D02*
X143551714Y-115365600D01*
X143551714Y-115365600D02*
X143646952Y-115413219D01*
X143646952Y-115413219D02*
X143837428Y-115413219D01*
X143837428Y-115413219D02*
X143932666Y-115365600D01*
X143932666Y-115365600D02*
X143980285Y-115317980D01*
X143980285Y-115317980D02*
X144027904Y-115222742D01*
X144027904Y-115222742D02*
X144027904Y-114984647D01*
X144027904Y-114984647D02*
X143980285Y-114889409D01*
X143980285Y-114889409D02*
X143932666Y-114841790D01*
X143932666Y-114841790D02*
X143837428Y-114794171D01*
X143837428Y-114794171D02*
X143646952Y-114794171D01*
X143646952Y-114794171D02*
X143551714Y-114841790D01*
X143551714Y-114841790D02*
X143504095Y-114889409D01*
X143504095Y-114889409D02*
X143456476Y-114984647D01*
X152065164Y-109880543D02*
X151708021Y-110130543D01*
X152065164Y-110309114D02*
X151315164Y-110309114D01*
X151315164Y-110309114D02*
X151315164Y-110023400D01*
X151315164Y-110023400D02*
X151350878Y-109951971D01*
X151350878Y-109951971D02*
X151386592Y-109916257D01*
X151386592Y-109916257D02*
X151458021Y-109880543D01*
X151458021Y-109880543D02*
X151565164Y-109880543D01*
X151565164Y-109880543D02*
X151636592Y-109916257D01*
X151636592Y-109916257D02*
X151672307Y-109951971D01*
X151672307Y-109951971D02*
X151708021Y-110023400D01*
X151708021Y-110023400D02*
X151708021Y-110309114D01*
X152065164Y-109166257D02*
X152065164Y-109594828D01*
X152065164Y-109380543D02*
X151315164Y-109380543D01*
X151315164Y-109380543D02*
X151422307Y-109451971D01*
X151422307Y-109451971D02*
X151493735Y-109523400D01*
X151493735Y-109523400D02*
X151529450Y-109594828D01*
X151315164Y-108701971D02*
X151315164Y-108630542D01*
X151315164Y-108630542D02*
X151350878Y-108559114D01*
X151350878Y-108559114D02*
X151386592Y-108523400D01*
X151386592Y-108523400D02*
X151458021Y-108487685D01*
X151458021Y-108487685D02*
X151600878Y-108451971D01*
X151600878Y-108451971D02*
X151779450Y-108451971D01*
X151779450Y-108451971D02*
X151922307Y-108487685D01*
X151922307Y-108487685D02*
X151993735Y-108523400D01*
X151993735Y-108523400D02*
X152029450Y-108559114D01*
X152029450Y-108559114D02*
X152065164Y-108630542D01*
X152065164Y-108630542D02*
X152065164Y-108701971D01*
X152065164Y-108701971D02*
X152029450Y-108773400D01*
X152029450Y-108773400D02*
X151993735Y-108809114D01*
X151993735Y-108809114D02*
X151922307Y-108844828D01*
X151922307Y-108844828D02*
X151779450Y-108880542D01*
X151779450Y-108880542D02*
X151600878Y-108880542D01*
X151600878Y-108880542D02*
X151458021Y-108844828D01*
X151458021Y-108844828D02*
X151386592Y-108809114D01*
X151386592Y-108809114D02*
X151350878Y-108773400D01*
X151350878Y-108773400D02*
X151315164Y-108701971D01*
X143010819Y-113481257D02*
X142534628Y-113814590D01*
X143010819Y-114052685D02*
X142010819Y-114052685D01*
X142010819Y-114052685D02*
X142010819Y-113671733D01*
X142010819Y-113671733D02*
X142058438Y-113576495D01*
X142058438Y-113576495D02*
X142106057Y-113528876D01*
X142106057Y-113528876D02*
X142201295Y-113481257D01*
X142201295Y-113481257D02*
X142344152Y-113481257D01*
X142344152Y-113481257D02*
X142439390Y-113528876D01*
X142439390Y-113528876D02*
X142487009Y-113576495D01*
X142487009Y-113576495D02*
X142534628Y-113671733D01*
X142534628Y-113671733D02*
X142534628Y-114052685D01*
X142106057Y-113100304D02*
X142058438Y-113052685D01*
X142058438Y-113052685D02*
X142010819Y-112957447D01*
X142010819Y-112957447D02*
X142010819Y-112719352D01*
X142010819Y-112719352D02*
X142058438Y-112624114D01*
X142058438Y-112624114D02*
X142106057Y-112576495D01*
X142106057Y-112576495D02*
X142201295Y-112528876D01*
X142201295Y-112528876D02*
X142296533Y-112528876D01*
X142296533Y-112528876D02*
X142439390Y-112576495D01*
X142439390Y-112576495D02*
X143010819Y-113147923D01*
X143010819Y-113147923D02*
X143010819Y-112528876D01*
X142344152Y-111671733D02*
X143010819Y-111671733D01*
X141963200Y-111909828D02*
X142677485Y-112147923D01*
X142677485Y-112147923D02*
X142677485Y-111528876D01*
X165185164Y-136165543D02*
X164828021Y-136415543D01*
X165185164Y-136594114D02*
X164435164Y-136594114D01*
X164435164Y-136594114D02*
X164435164Y-136308400D01*
X164435164Y-136308400D02*
X164470878Y-136236971D01*
X164470878Y-136236971D02*
X164506592Y-136201257D01*
X164506592Y-136201257D02*
X164578021Y-136165543D01*
X164578021Y-136165543D02*
X164685164Y-136165543D01*
X164685164Y-136165543D02*
X164756592Y-136201257D01*
X164756592Y-136201257D02*
X164792307Y-136236971D01*
X164792307Y-136236971D02*
X164828021Y-136308400D01*
X164828021Y-136308400D02*
X164828021Y-136594114D01*
X165185164Y-135451257D02*
X165185164Y-135879828D01*
X165185164Y-135665543D02*
X164435164Y-135665543D01*
X164435164Y-135665543D02*
X164542307Y-135736971D01*
X164542307Y-135736971D02*
X164613735Y-135808400D01*
X164613735Y-135808400D02*
X164649450Y-135879828D01*
X164435164Y-135201257D02*
X164435164Y-134701257D01*
X164435164Y-134701257D02*
X165185164Y-135022685D01*
X116153735Y-123665543D02*
X116189450Y-123701257D01*
X116189450Y-123701257D02*
X116225164Y-123808400D01*
X116225164Y-123808400D02*
X116225164Y-123879828D01*
X116225164Y-123879828D02*
X116189450Y-123986971D01*
X116189450Y-123986971D02*
X116118021Y-124058400D01*
X116118021Y-124058400D02*
X116046592Y-124094114D01*
X116046592Y-124094114D02*
X115903735Y-124129828D01*
X115903735Y-124129828D02*
X115796592Y-124129828D01*
X115796592Y-124129828D02*
X115653735Y-124094114D01*
X115653735Y-124094114D02*
X115582307Y-124058400D01*
X115582307Y-124058400D02*
X115510878Y-123986971D01*
X115510878Y-123986971D02*
X115475164Y-123879828D01*
X115475164Y-123879828D02*
X115475164Y-123808400D01*
X115475164Y-123808400D02*
X115510878Y-123701257D01*
X115510878Y-123701257D02*
X115546592Y-123665543D01*
X115475164Y-123415543D02*
X115475164Y-122951257D01*
X115475164Y-122951257D02*
X115760878Y-123201257D01*
X115760878Y-123201257D02*
X115760878Y-123094114D01*
X115760878Y-123094114D02*
X115796592Y-123022686D01*
X115796592Y-123022686D02*
X115832307Y-122986971D01*
X115832307Y-122986971D02*
X115903735Y-122951257D01*
X115903735Y-122951257D02*
X116082307Y-122951257D01*
X116082307Y-122951257D02*
X116153735Y-122986971D01*
X116153735Y-122986971D02*
X116189450Y-123022686D01*
X116189450Y-123022686D02*
X116225164Y-123094114D01*
X116225164Y-123094114D02*
X116225164Y-123308400D01*
X116225164Y-123308400D02*
X116189450Y-123379828D01*
X116189450Y-123379828D02*
X116153735Y-123415543D01*
X115475164Y-122701257D02*
X115475164Y-122236971D01*
X115475164Y-122236971D02*
X115760878Y-122486971D01*
X115760878Y-122486971D02*
X115760878Y-122379828D01*
X115760878Y-122379828D02*
X115796592Y-122308400D01*
X115796592Y-122308400D02*
X115832307Y-122272685D01*
X115832307Y-122272685D02*
X115903735Y-122236971D01*
X115903735Y-122236971D02*
X116082307Y-122236971D01*
X116082307Y-122236971D02*
X116153735Y-122272685D01*
X116153735Y-122272685D02*
X116189450Y-122308400D01*
X116189450Y-122308400D02*
X116225164Y-122379828D01*
X116225164Y-122379828D02*
X116225164Y-122594114D01*
X116225164Y-122594114D02*
X116189450Y-122665542D01*
X116189450Y-122665542D02*
X116153735Y-122701257D01*
X165015164Y-93020543D02*
X164658021Y-93270543D01*
X165015164Y-93449114D02*
X164265164Y-93449114D01*
X164265164Y-93449114D02*
X164265164Y-93163400D01*
X164265164Y-93163400D02*
X164300878Y-93091971D01*
X164300878Y-93091971D02*
X164336592Y-93056257D01*
X164336592Y-93056257D02*
X164408021Y-93020543D01*
X164408021Y-93020543D02*
X164515164Y-93020543D01*
X164515164Y-93020543D02*
X164586592Y-93056257D01*
X164586592Y-93056257D02*
X164622307Y-93091971D01*
X164622307Y-93091971D02*
X164658021Y-93163400D01*
X164658021Y-93163400D02*
X164658021Y-93449114D01*
X165015164Y-92306257D02*
X165015164Y-92734828D01*
X165015164Y-92520543D02*
X164265164Y-92520543D01*
X164265164Y-92520543D02*
X164372307Y-92591971D01*
X164372307Y-92591971D02*
X164443735Y-92663400D01*
X164443735Y-92663400D02*
X164479450Y-92734828D01*
X164265164Y-91663400D02*
X164265164Y-91806257D01*
X164265164Y-91806257D02*
X164300878Y-91877685D01*
X164300878Y-91877685D02*
X164336592Y-91913400D01*
X164336592Y-91913400D02*
X164443735Y-91984828D01*
X164443735Y-91984828D02*
X164586592Y-92020542D01*
X164586592Y-92020542D02*
X164872307Y-92020542D01*
X164872307Y-92020542D02*
X164943735Y-91984828D01*
X164943735Y-91984828D02*
X164979450Y-91949114D01*
X164979450Y-91949114D02*
X165015164Y-91877685D01*
X165015164Y-91877685D02*
X165015164Y-91734828D01*
X165015164Y-91734828D02*
X164979450Y-91663400D01*
X164979450Y-91663400D02*
X164943735Y-91627685D01*
X164943735Y-91627685D02*
X164872307Y-91591971D01*
X164872307Y-91591971D02*
X164693735Y-91591971D01*
X164693735Y-91591971D02*
X164622307Y-91627685D01*
X164622307Y-91627685D02*
X164586592Y-91663400D01*
X164586592Y-91663400D02*
X164550878Y-91734828D01*
X164550878Y-91734828D02*
X164550878Y-91877685D01*
X164550878Y-91877685D02*
X164586592Y-91949114D01*
X164586592Y-91949114D02*
X164622307Y-91984828D01*
X164622307Y-91984828D02*
X164693735Y-92020542D01*
X181450999Y-109307564D02*
X181200999Y-108950421D01*
X181022428Y-109307564D02*
X181022428Y-108557564D01*
X181022428Y-108557564D02*
X181308142Y-108557564D01*
X181308142Y-108557564D02*
X181379571Y-108593278D01*
X181379571Y-108593278D02*
X181415285Y-108628992D01*
X181415285Y-108628992D02*
X181450999Y-108700421D01*
X181450999Y-108700421D02*
X181450999Y-108807564D01*
X181450999Y-108807564D02*
X181415285Y-108878992D01*
X181415285Y-108878992D02*
X181379571Y-108914707D01*
X181379571Y-108914707D02*
X181308142Y-108950421D01*
X181308142Y-108950421D02*
X181022428Y-108950421D01*
X182093857Y-108807564D02*
X182093857Y-109307564D01*
X181915285Y-108521850D02*
X181736714Y-109057564D01*
X181736714Y-109057564D02*
X182200999Y-109057564D01*
X157303735Y-128050543D02*
X157339450Y-128086257D01*
X157339450Y-128086257D02*
X157375164Y-128193400D01*
X157375164Y-128193400D02*
X157375164Y-128264828D01*
X157375164Y-128264828D02*
X157339450Y-128371971D01*
X157339450Y-128371971D02*
X157268021Y-128443400D01*
X157268021Y-128443400D02*
X157196592Y-128479114D01*
X157196592Y-128479114D02*
X157053735Y-128514828D01*
X157053735Y-128514828D02*
X156946592Y-128514828D01*
X156946592Y-128514828D02*
X156803735Y-128479114D01*
X156803735Y-128479114D02*
X156732307Y-128443400D01*
X156732307Y-128443400D02*
X156660878Y-128371971D01*
X156660878Y-128371971D02*
X156625164Y-128264828D01*
X156625164Y-128264828D02*
X156625164Y-128193400D01*
X156625164Y-128193400D02*
X156660878Y-128086257D01*
X156660878Y-128086257D02*
X156696592Y-128050543D01*
X156625164Y-127800543D02*
X156625164Y-127336257D01*
X156625164Y-127336257D02*
X156910878Y-127586257D01*
X156910878Y-127586257D02*
X156910878Y-127479114D01*
X156910878Y-127479114D02*
X156946592Y-127407686D01*
X156946592Y-127407686D02*
X156982307Y-127371971D01*
X156982307Y-127371971D02*
X157053735Y-127336257D01*
X157053735Y-127336257D02*
X157232307Y-127336257D01*
X157232307Y-127336257D02*
X157303735Y-127371971D01*
X157303735Y-127371971D02*
X157339450Y-127407686D01*
X157339450Y-127407686D02*
X157375164Y-127479114D01*
X157375164Y-127479114D02*
X157375164Y-127693400D01*
X157375164Y-127693400D02*
X157339450Y-127764828D01*
X157339450Y-127764828D02*
X157303735Y-127800543D01*
X156625164Y-126693400D02*
X156625164Y-126836257D01*
X156625164Y-126836257D02*
X156660878Y-126907685D01*
X156660878Y-126907685D02*
X156696592Y-126943400D01*
X156696592Y-126943400D02*
X156803735Y-127014828D01*
X156803735Y-127014828D02*
X156946592Y-127050542D01*
X156946592Y-127050542D02*
X157232307Y-127050542D01*
X157232307Y-127050542D02*
X157303735Y-127014828D01*
X157303735Y-127014828D02*
X157339450Y-126979114D01*
X157339450Y-126979114D02*
X157375164Y-126907685D01*
X157375164Y-126907685D02*
X157375164Y-126764828D01*
X157375164Y-126764828D02*
X157339450Y-126693400D01*
X157339450Y-126693400D02*
X157303735Y-126657685D01*
X157303735Y-126657685D02*
X157232307Y-126621971D01*
X157232307Y-126621971D02*
X157053735Y-126621971D01*
X157053735Y-126621971D02*
X156982307Y-126657685D01*
X156982307Y-126657685D02*
X156946592Y-126693400D01*
X156946592Y-126693400D02*
X156910878Y-126764828D01*
X156910878Y-126764828D02*
X156910878Y-126907685D01*
X156910878Y-126907685D02*
X156946592Y-126979114D01*
X156946592Y-126979114D02*
X156982307Y-127014828D01*
X156982307Y-127014828D02*
X157053735Y-127050542D01*
X155353735Y-133860543D02*
X155389450Y-133896257D01*
X155389450Y-133896257D02*
X155425164Y-134003400D01*
X155425164Y-134003400D02*
X155425164Y-134074828D01*
X155425164Y-134074828D02*
X155389450Y-134181971D01*
X155389450Y-134181971D02*
X155318021Y-134253400D01*
X155318021Y-134253400D02*
X155246592Y-134289114D01*
X155246592Y-134289114D02*
X155103735Y-134324828D01*
X155103735Y-134324828D02*
X154996592Y-134324828D01*
X154996592Y-134324828D02*
X154853735Y-134289114D01*
X154853735Y-134289114D02*
X154782307Y-134253400D01*
X154782307Y-134253400D02*
X154710878Y-134181971D01*
X154710878Y-134181971D02*
X154675164Y-134074828D01*
X154675164Y-134074828D02*
X154675164Y-134003400D01*
X154675164Y-134003400D02*
X154710878Y-133896257D01*
X154710878Y-133896257D02*
X154746592Y-133860543D01*
X154675164Y-133610543D02*
X154675164Y-133146257D01*
X154675164Y-133146257D02*
X154960878Y-133396257D01*
X154960878Y-133396257D02*
X154960878Y-133289114D01*
X154960878Y-133289114D02*
X154996592Y-133217686D01*
X154996592Y-133217686D02*
X155032307Y-133181971D01*
X155032307Y-133181971D02*
X155103735Y-133146257D01*
X155103735Y-133146257D02*
X155282307Y-133146257D01*
X155282307Y-133146257D02*
X155353735Y-133181971D01*
X155353735Y-133181971D02*
X155389450Y-133217686D01*
X155389450Y-133217686D02*
X155425164Y-133289114D01*
X155425164Y-133289114D02*
X155425164Y-133503400D01*
X155425164Y-133503400D02*
X155389450Y-133574828D01*
X155389450Y-133574828D02*
X155353735Y-133610543D01*
X154675164Y-132467685D02*
X154675164Y-132824828D01*
X154675164Y-132824828D02*
X155032307Y-132860542D01*
X155032307Y-132860542D02*
X154996592Y-132824828D01*
X154996592Y-132824828D02*
X154960878Y-132753400D01*
X154960878Y-132753400D02*
X154960878Y-132574828D01*
X154960878Y-132574828D02*
X154996592Y-132503400D01*
X154996592Y-132503400D02*
X155032307Y-132467685D01*
X155032307Y-132467685D02*
X155103735Y-132431971D01*
X155103735Y-132431971D02*
X155282307Y-132431971D01*
X155282307Y-132431971D02*
X155353735Y-132467685D01*
X155353735Y-132467685D02*
X155389450Y-132503400D01*
X155389450Y-132503400D02*
X155425164Y-132574828D01*
X155425164Y-132574828D02*
X155425164Y-132753400D01*
X155425164Y-132753400D02*
X155389450Y-132824828D01*
X155389450Y-132824828D02*
X155353735Y-132860542D01*
X125800819Y-112960304D02*
X126610342Y-112960304D01*
X126610342Y-112960304D02*
X126705580Y-112912685D01*
X126705580Y-112912685D02*
X126753200Y-112865066D01*
X126753200Y-112865066D02*
X126800819Y-112769828D01*
X126800819Y-112769828D02*
X126800819Y-112579352D01*
X126800819Y-112579352D02*
X126753200Y-112484114D01*
X126753200Y-112484114D02*
X126705580Y-112436495D01*
X126705580Y-112436495D02*
X126610342Y-112388876D01*
X126610342Y-112388876D02*
X125800819Y-112388876D01*
X125800819Y-111484114D02*
X125800819Y-111674590D01*
X125800819Y-111674590D02*
X125848438Y-111769828D01*
X125848438Y-111769828D02*
X125896057Y-111817447D01*
X125896057Y-111817447D02*
X126038914Y-111912685D01*
X126038914Y-111912685D02*
X126229390Y-111960304D01*
X126229390Y-111960304D02*
X126610342Y-111960304D01*
X126610342Y-111960304D02*
X126705580Y-111912685D01*
X126705580Y-111912685D02*
X126753200Y-111865066D01*
X126753200Y-111865066D02*
X126800819Y-111769828D01*
X126800819Y-111769828D02*
X126800819Y-111579352D01*
X126800819Y-111579352D02*
X126753200Y-111484114D01*
X126753200Y-111484114D02*
X126705580Y-111436495D01*
X126705580Y-111436495D02*
X126610342Y-111388876D01*
X126610342Y-111388876D02*
X126372247Y-111388876D01*
X126372247Y-111388876D02*
X126277009Y-111436495D01*
X126277009Y-111436495D02*
X126229390Y-111484114D01*
X126229390Y-111484114D02*
X126181771Y-111579352D01*
X126181771Y-111579352D02*
X126181771Y-111769828D01*
X126181771Y-111769828D02*
X126229390Y-111865066D01*
X126229390Y-111865066D02*
X126277009Y-111912685D01*
X126277009Y-111912685D02*
X126372247Y-111960304D01*
X165905164Y-121918399D02*
X166440878Y-121918399D01*
X166440878Y-121918399D02*
X166548021Y-121954114D01*
X166548021Y-121954114D02*
X166619450Y-122025542D01*
X166619450Y-122025542D02*
X166655164Y-122132685D01*
X166655164Y-122132685D02*
X166655164Y-122204114D01*
X165905164Y-121632685D02*
X165905164Y-121168399D01*
X165905164Y-121168399D02*
X166190878Y-121418399D01*
X166190878Y-121418399D02*
X166190878Y-121311256D01*
X166190878Y-121311256D02*
X166226592Y-121239828D01*
X166226592Y-121239828D02*
X166262307Y-121204113D01*
X166262307Y-121204113D02*
X166333735Y-121168399D01*
X166333735Y-121168399D02*
X166512307Y-121168399D01*
X166512307Y-121168399D02*
X166583735Y-121204113D01*
X166583735Y-121204113D02*
X166619450Y-121239828D01*
X166619450Y-121239828D02*
X166655164Y-121311256D01*
X166655164Y-121311256D02*
X166655164Y-121525542D01*
X166655164Y-121525542D02*
X166619450Y-121596970D01*
X166619450Y-121596970D02*
X166583735Y-121632685D01*
X147945164Y-97359114D02*
X147195164Y-97359114D01*
X147195164Y-97359114D02*
X147195164Y-97180543D01*
X147195164Y-97180543D02*
X147230878Y-97073400D01*
X147230878Y-97073400D02*
X147302307Y-97001971D01*
X147302307Y-97001971D02*
X147373735Y-96966257D01*
X147373735Y-96966257D02*
X147516592Y-96930543D01*
X147516592Y-96930543D02*
X147623735Y-96930543D01*
X147623735Y-96930543D02*
X147766592Y-96966257D01*
X147766592Y-96966257D02*
X147838021Y-97001971D01*
X147838021Y-97001971D02*
X147909450Y-97073400D01*
X147909450Y-97073400D02*
X147945164Y-97180543D01*
X147945164Y-97180543D02*
X147945164Y-97359114D01*
X147945164Y-96216257D02*
X147945164Y-96644828D01*
X147945164Y-96430543D02*
X147195164Y-96430543D01*
X147195164Y-96430543D02*
X147302307Y-96501971D01*
X147302307Y-96501971D02*
X147373735Y-96573400D01*
X147373735Y-96573400D02*
X147409450Y-96644828D01*
X147195164Y-95573400D02*
X147195164Y-95716257D01*
X147195164Y-95716257D02*
X147230878Y-95787685D01*
X147230878Y-95787685D02*
X147266592Y-95823400D01*
X147266592Y-95823400D02*
X147373735Y-95894828D01*
X147373735Y-95894828D02*
X147516592Y-95930542D01*
X147516592Y-95930542D02*
X147802307Y-95930542D01*
X147802307Y-95930542D02*
X147873735Y-95894828D01*
X147873735Y-95894828D02*
X147909450Y-95859114D01*
X147909450Y-95859114D02*
X147945164Y-95787685D01*
X147945164Y-95787685D02*
X147945164Y-95644828D01*
X147945164Y-95644828D02*
X147909450Y-95573400D01*
X147909450Y-95573400D02*
X147873735Y-95537685D01*
X147873735Y-95537685D02*
X147802307Y-95501971D01*
X147802307Y-95501971D02*
X147623735Y-95501971D01*
X147623735Y-95501971D02*
X147552307Y-95537685D01*
X147552307Y-95537685D02*
X147516592Y-95573400D01*
X147516592Y-95573400D02*
X147480878Y-95644828D01*
X147480878Y-95644828D02*
X147480878Y-95787685D01*
X147480878Y-95787685D02*
X147516592Y-95859114D01*
X147516592Y-95859114D02*
X147552307Y-95894828D01*
X147552307Y-95894828D02*
X147623735Y-95930542D01*
X149845164Y-100384114D02*
X149845164Y-100812685D01*
X149845164Y-100598400D02*
X149095164Y-100598400D01*
X149095164Y-100598400D02*
X149202307Y-100669828D01*
X149202307Y-100669828D02*
X149273735Y-100741257D01*
X149273735Y-100741257D02*
X149309450Y-100812685D01*
X176023735Y-105500543D02*
X176059450Y-105536257D01*
X176059450Y-105536257D02*
X176095164Y-105643400D01*
X176095164Y-105643400D02*
X176095164Y-105714828D01*
X176095164Y-105714828D02*
X176059450Y-105821971D01*
X176059450Y-105821971D02*
X175988021Y-105893400D01*
X175988021Y-105893400D02*
X175916592Y-105929114D01*
X175916592Y-105929114D02*
X175773735Y-105964828D01*
X175773735Y-105964828D02*
X175666592Y-105964828D01*
X175666592Y-105964828D02*
X175523735Y-105929114D01*
X175523735Y-105929114D02*
X175452307Y-105893400D01*
X175452307Y-105893400D02*
X175380878Y-105821971D01*
X175380878Y-105821971D02*
X175345164Y-105714828D01*
X175345164Y-105714828D02*
X175345164Y-105643400D01*
X175345164Y-105643400D02*
X175380878Y-105536257D01*
X175380878Y-105536257D02*
X175416592Y-105500543D01*
X176095164Y-104786257D02*
X176095164Y-105214828D01*
X176095164Y-105000543D02*
X175345164Y-105000543D01*
X175345164Y-105000543D02*
X175452307Y-105071971D01*
X175452307Y-105071971D02*
X175523735Y-105143400D01*
X175523735Y-105143400D02*
X175559450Y-105214828D01*
X175345164Y-104536257D02*
X175345164Y-104036257D01*
X175345164Y-104036257D02*
X176095164Y-104357685D01*
X158060819Y-107662685D02*
X157060819Y-107662685D01*
X157060819Y-107662685D02*
X157060819Y-107424590D01*
X157060819Y-107424590D02*
X157108438Y-107281733D01*
X157108438Y-107281733D02*
X157203676Y-107186495D01*
X157203676Y-107186495D02*
X157298914Y-107138876D01*
X157298914Y-107138876D02*
X157489390Y-107091257D01*
X157489390Y-107091257D02*
X157632247Y-107091257D01*
X157632247Y-107091257D02*
X157822723Y-107138876D01*
X157822723Y-107138876D02*
X157917961Y-107186495D01*
X157917961Y-107186495D02*
X158013200Y-107281733D01*
X158013200Y-107281733D02*
X158060819Y-107424590D01*
X158060819Y-107424590D02*
X158060819Y-107662685D01*
X158060819Y-106138876D02*
X158060819Y-106710304D01*
X158060819Y-106424590D02*
X157060819Y-106424590D01*
X157060819Y-106424590D02*
X157203676Y-106519828D01*
X157203676Y-106519828D02*
X157298914Y-106615066D01*
X157298914Y-106615066D02*
X157346533Y-106710304D01*
X158060819Y-105662685D02*
X158060819Y-105472209D01*
X158060819Y-105472209D02*
X158013200Y-105376971D01*
X158013200Y-105376971D02*
X157965580Y-105329352D01*
X157965580Y-105329352D02*
X157822723Y-105234114D01*
X157822723Y-105234114D02*
X157632247Y-105186495D01*
X157632247Y-105186495D02*
X157251295Y-105186495D01*
X157251295Y-105186495D02*
X157156057Y-105234114D01*
X157156057Y-105234114D02*
X157108438Y-105281733D01*
X157108438Y-105281733D02*
X157060819Y-105376971D01*
X157060819Y-105376971D02*
X157060819Y-105567447D01*
X157060819Y-105567447D02*
X157108438Y-105662685D01*
X157108438Y-105662685D02*
X157156057Y-105710304D01*
X157156057Y-105710304D02*
X157251295Y-105757923D01*
X157251295Y-105757923D02*
X157489390Y-105757923D01*
X157489390Y-105757923D02*
X157584628Y-105710304D01*
X157584628Y-105710304D02*
X157632247Y-105662685D01*
X157632247Y-105662685D02*
X157679866Y-105567447D01*
X157679866Y-105567447D02*
X157679866Y-105376971D01*
X157679866Y-105376971D02*
X157632247Y-105281733D01*
X157632247Y-105281733D02*
X157584628Y-105234114D01*
X157584628Y-105234114D02*
X157489390Y-105186495D01*
X158000819Y-109102685D02*
X158000819Y-109674113D01*
X158000819Y-109388399D02*
X157000819Y-109388399D01*
X157000819Y-109388399D02*
X157143676Y-109483637D01*
X157143676Y-109483637D02*
X157238914Y-109578875D01*
X157238914Y-109578875D02*
X157286533Y-109674113D01*
X114752135Y-96779543D02*
X114787850Y-96815257D01*
X114787850Y-96815257D02*
X114823564Y-96922400D01*
X114823564Y-96922400D02*
X114823564Y-96993828D01*
X114823564Y-96993828D02*
X114787850Y-97100971D01*
X114787850Y-97100971D02*
X114716421Y-97172400D01*
X114716421Y-97172400D02*
X114644992Y-97208114D01*
X114644992Y-97208114D02*
X114502135Y-97243828D01*
X114502135Y-97243828D02*
X114394992Y-97243828D01*
X114394992Y-97243828D02*
X114252135Y-97208114D01*
X114252135Y-97208114D02*
X114180707Y-97172400D01*
X114180707Y-97172400D02*
X114109278Y-97100971D01*
X114109278Y-97100971D02*
X114073564Y-96993828D01*
X114073564Y-96993828D02*
X114073564Y-96922400D01*
X114073564Y-96922400D02*
X114109278Y-96815257D01*
X114109278Y-96815257D02*
X114144992Y-96779543D01*
X114073564Y-96529543D02*
X114073564Y-96065257D01*
X114073564Y-96065257D02*
X114359278Y-96315257D01*
X114359278Y-96315257D02*
X114359278Y-96208114D01*
X114359278Y-96208114D02*
X114394992Y-96136686D01*
X114394992Y-96136686D02*
X114430707Y-96100971D01*
X114430707Y-96100971D02*
X114502135Y-96065257D01*
X114502135Y-96065257D02*
X114680707Y-96065257D01*
X114680707Y-96065257D02*
X114752135Y-96100971D01*
X114752135Y-96100971D02*
X114787850Y-96136686D01*
X114787850Y-96136686D02*
X114823564Y-96208114D01*
X114823564Y-96208114D02*
X114823564Y-96422400D01*
X114823564Y-96422400D02*
X114787850Y-96493828D01*
X114787850Y-96493828D02*
X114752135Y-96529543D01*
X114823564Y-95350971D02*
X114823564Y-95779542D01*
X114823564Y-95565257D02*
X114073564Y-95565257D01*
X114073564Y-95565257D02*
X114180707Y-95636685D01*
X114180707Y-95636685D02*
X114252135Y-95708114D01*
X114252135Y-95708114D02*
X114287850Y-95779542D01*
X155215580Y-100961257D02*
X155263200Y-101008876D01*
X155263200Y-101008876D02*
X155310819Y-101151733D01*
X155310819Y-101151733D02*
X155310819Y-101246971D01*
X155310819Y-101246971D02*
X155263200Y-101389828D01*
X155263200Y-101389828D02*
X155167961Y-101485066D01*
X155167961Y-101485066D02*
X155072723Y-101532685D01*
X155072723Y-101532685D02*
X154882247Y-101580304D01*
X154882247Y-101580304D02*
X154739390Y-101580304D01*
X154739390Y-101580304D02*
X154548914Y-101532685D01*
X154548914Y-101532685D02*
X154453676Y-101485066D01*
X154453676Y-101485066D02*
X154358438Y-101389828D01*
X154358438Y-101389828D02*
X154310819Y-101246971D01*
X154310819Y-101246971D02*
X154310819Y-101151733D01*
X154310819Y-101151733D02*
X154358438Y-101008876D01*
X154358438Y-101008876D02*
X154406057Y-100961257D01*
X154310819Y-100627923D02*
X154310819Y-100008876D01*
X154310819Y-100008876D02*
X154691771Y-100342209D01*
X154691771Y-100342209D02*
X154691771Y-100199352D01*
X154691771Y-100199352D02*
X154739390Y-100104114D01*
X154739390Y-100104114D02*
X154787009Y-100056495D01*
X154787009Y-100056495D02*
X154882247Y-100008876D01*
X154882247Y-100008876D02*
X155120342Y-100008876D01*
X155120342Y-100008876D02*
X155215580Y-100056495D01*
X155215580Y-100056495D02*
X155263200Y-100104114D01*
X155263200Y-100104114D02*
X155310819Y-100199352D01*
X155310819Y-100199352D02*
X155310819Y-100485066D01*
X155310819Y-100485066D02*
X155263200Y-100580304D01*
X155263200Y-100580304D02*
X155215580Y-100627923D01*
X154739390Y-99437447D02*
X154691771Y-99532685D01*
X154691771Y-99532685D02*
X154644152Y-99580304D01*
X154644152Y-99580304D02*
X154548914Y-99627923D01*
X154548914Y-99627923D02*
X154501295Y-99627923D01*
X154501295Y-99627923D02*
X154406057Y-99580304D01*
X154406057Y-99580304D02*
X154358438Y-99532685D01*
X154358438Y-99532685D02*
X154310819Y-99437447D01*
X154310819Y-99437447D02*
X154310819Y-99246971D01*
X154310819Y-99246971D02*
X154358438Y-99151733D01*
X154358438Y-99151733D02*
X154406057Y-99104114D01*
X154406057Y-99104114D02*
X154501295Y-99056495D01*
X154501295Y-99056495D02*
X154548914Y-99056495D01*
X154548914Y-99056495D02*
X154644152Y-99104114D01*
X154644152Y-99104114D02*
X154691771Y-99151733D01*
X154691771Y-99151733D02*
X154739390Y-99246971D01*
X154739390Y-99246971D02*
X154739390Y-99437447D01*
X154739390Y-99437447D02*
X154787009Y-99532685D01*
X154787009Y-99532685D02*
X154834628Y-99580304D01*
X154834628Y-99580304D02*
X154929866Y-99627923D01*
X154929866Y-99627923D02*
X155120342Y-99627923D01*
X155120342Y-99627923D02*
X155215580Y-99580304D01*
X155215580Y-99580304D02*
X155263200Y-99532685D01*
X155263200Y-99532685D02*
X155310819Y-99437447D01*
X155310819Y-99437447D02*
X155310819Y-99246971D01*
X155310819Y-99246971D02*
X155263200Y-99151733D01*
X155263200Y-99151733D02*
X155215580Y-99104114D01*
X155215580Y-99104114D02*
X155120342Y-99056495D01*
X155120342Y-99056495D02*
X154929866Y-99056495D01*
X154929866Y-99056495D02*
X154834628Y-99104114D01*
X154834628Y-99104114D02*
X154787009Y-99151733D01*
X154787009Y-99151733D02*
X154739390Y-99246971D01*
X117945164Y-132001971D02*
X117195164Y-132001971D01*
X117195164Y-132001971D02*
X117195164Y-131823400D01*
X117195164Y-131823400D02*
X117230878Y-131716257D01*
X117230878Y-131716257D02*
X117302307Y-131644828D01*
X117302307Y-131644828D02*
X117373735Y-131609114D01*
X117373735Y-131609114D02*
X117516592Y-131573400D01*
X117516592Y-131573400D02*
X117623735Y-131573400D01*
X117623735Y-131573400D02*
X117766592Y-131609114D01*
X117766592Y-131609114D02*
X117838021Y-131644828D01*
X117838021Y-131644828D02*
X117909450Y-131716257D01*
X117909450Y-131716257D02*
X117945164Y-131823400D01*
X117945164Y-131823400D02*
X117945164Y-132001971D01*
X117945164Y-130859114D02*
X117945164Y-131287685D01*
X117945164Y-131073400D02*
X117195164Y-131073400D01*
X117195164Y-131073400D02*
X117302307Y-131144828D01*
X117302307Y-131144828D02*
X117373735Y-131216257D01*
X117373735Y-131216257D02*
X117409450Y-131287685D01*
X119845164Y-135384114D02*
X119845164Y-135812685D01*
X119845164Y-135598400D02*
X119095164Y-135598400D01*
X119095164Y-135598400D02*
X119202307Y-135669828D01*
X119202307Y-135669828D02*
X119273735Y-135741257D01*
X119273735Y-135741257D02*
X119309450Y-135812685D01*
X184450999Y-121126135D02*
X184415285Y-121161850D01*
X184415285Y-121161850D02*
X184308142Y-121197564D01*
X184308142Y-121197564D02*
X184236714Y-121197564D01*
X184236714Y-121197564D02*
X184129571Y-121161850D01*
X184129571Y-121161850D02*
X184058142Y-121090421D01*
X184058142Y-121090421D02*
X184022428Y-121018992D01*
X184022428Y-121018992D02*
X183986714Y-120876135D01*
X183986714Y-120876135D02*
X183986714Y-120768992D01*
X183986714Y-120768992D02*
X184022428Y-120626135D01*
X184022428Y-120626135D02*
X184058142Y-120554707D01*
X184058142Y-120554707D02*
X184129571Y-120483278D01*
X184129571Y-120483278D02*
X184236714Y-120447564D01*
X184236714Y-120447564D02*
X184308142Y-120447564D01*
X184308142Y-120447564D02*
X184415285Y-120483278D01*
X184415285Y-120483278D02*
X184450999Y-120518992D01*
X184879571Y-120768992D02*
X184808142Y-120733278D01*
X184808142Y-120733278D02*
X184772428Y-120697564D01*
X184772428Y-120697564D02*
X184736714Y-120626135D01*
X184736714Y-120626135D02*
X184736714Y-120590421D01*
X184736714Y-120590421D02*
X184772428Y-120518992D01*
X184772428Y-120518992D02*
X184808142Y-120483278D01*
X184808142Y-120483278D02*
X184879571Y-120447564D01*
X184879571Y-120447564D02*
X185022428Y-120447564D01*
X185022428Y-120447564D02*
X185093857Y-120483278D01*
X185093857Y-120483278D02*
X185129571Y-120518992D01*
X185129571Y-120518992D02*
X185165285Y-120590421D01*
X185165285Y-120590421D02*
X185165285Y-120626135D01*
X185165285Y-120626135D02*
X185129571Y-120697564D01*
X185129571Y-120697564D02*
X185093857Y-120733278D01*
X185093857Y-120733278D02*
X185022428Y-120768992D01*
X185022428Y-120768992D02*
X184879571Y-120768992D01*
X184879571Y-120768992D02*
X184808142Y-120804707D01*
X184808142Y-120804707D02*
X184772428Y-120840421D01*
X184772428Y-120840421D02*
X184736714Y-120911850D01*
X184736714Y-120911850D02*
X184736714Y-121054707D01*
X184736714Y-121054707D02*
X184772428Y-121126135D01*
X184772428Y-121126135D02*
X184808142Y-121161850D01*
X184808142Y-121161850D02*
X184879571Y-121197564D01*
X184879571Y-121197564D02*
X185022428Y-121197564D01*
X185022428Y-121197564D02*
X185093857Y-121161850D01*
X185093857Y-121161850D02*
X185129571Y-121126135D01*
X185129571Y-121126135D02*
X185165285Y-121054707D01*
X185165285Y-121054707D02*
X185165285Y-120911850D01*
X185165285Y-120911850D02*
X185129571Y-120840421D01*
X185129571Y-120840421D02*
X185093857Y-120804707D01*
X185093857Y-120804707D02*
X185022428Y-120768992D01*
X110892971Y-121861564D02*
X110892971Y-122468707D01*
X110892971Y-122468707D02*
X110928685Y-122540135D01*
X110928685Y-122540135D02*
X110964400Y-122575850D01*
X110964400Y-122575850D02*
X111035828Y-122611564D01*
X111035828Y-122611564D02*
X111178685Y-122611564D01*
X111178685Y-122611564D02*
X111250114Y-122575850D01*
X111250114Y-122575850D02*
X111285828Y-122540135D01*
X111285828Y-122540135D02*
X111321542Y-122468707D01*
X111321542Y-122468707D02*
X111321542Y-121861564D01*
X112000114Y-122111564D02*
X112000114Y-122611564D01*
X111821542Y-121825850D02*
X111642971Y-122361564D01*
X111642971Y-122361564D02*
X112107256Y-122361564D01*
X186734095Y-96243219D02*
X186734095Y-95243219D01*
X186734095Y-95719409D02*
X187305523Y-95719409D01*
X187305523Y-96243219D02*
X187305523Y-95243219D01*
X188210285Y-95576552D02*
X188210285Y-96243219D01*
X187972190Y-95195600D02*
X187734095Y-95909885D01*
X187734095Y-95909885D02*
X188353142Y-95909885D01*
X157830819Y-112912685D02*
X156830819Y-112912685D01*
X156830819Y-112912685D02*
X156830819Y-112674590D01*
X156830819Y-112674590D02*
X156878438Y-112531733D01*
X156878438Y-112531733D02*
X156973676Y-112436495D01*
X156973676Y-112436495D02*
X157068914Y-112388876D01*
X157068914Y-112388876D02*
X157259390Y-112341257D01*
X157259390Y-112341257D02*
X157402247Y-112341257D01*
X157402247Y-112341257D02*
X157592723Y-112388876D01*
X157592723Y-112388876D02*
X157687961Y-112436495D01*
X157687961Y-112436495D02*
X157783200Y-112531733D01*
X157783200Y-112531733D02*
X157830819Y-112674590D01*
X157830819Y-112674590D02*
X157830819Y-112912685D01*
X156926057Y-111960304D02*
X156878438Y-111912685D01*
X156878438Y-111912685D02*
X156830819Y-111817447D01*
X156830819Y-111817447D02*
X156830819Y-111579352D01*
X156830819Y-111579352D02*
X156878438Y-111484114D01*
X156878438Y-111484114D02*
X156926057Y-111436495D01*
X156926057Y-111436495D02*
X157021295Y-111388876D01*
X157021295Y-111388876D02*
X157116533Y-111388876D01*
X157116533Y-111388876D02*
X157259390Y-111436495D01*
X157259390Y-111436495D02*
X157830819Y-112007923D01*
X157830819Y-112007923D02*
X157830819Y-111388876D01*
X157830819Y-110436495D02*
X157830819Y-111007923D01*
X157830819Y-110722209D02*
X156830819Y-110722209D01*
X156830819Y-110722209D02*
X156973676Y-110817447D01*
X156973676Y-110817447D02*
X157068914Y-110912685D01*
X157068914Y-110912685D02*
X157116533Y-111007923D01*
X158100819Y-117582685D02*
X158100819Y-118154113D01*
X158100819Y-117868399D02*
X157100819Y-117868399D01*
X157100819Y-117868399D02*
X157243676Y-117963637D01*
X157243676Y-117963637D02*
X157338914Y-118058875D01*
X157338914Y-118058875D02*
X157386533Y-118154113D01*
X137945164Y-132001971D02*
X137195164Y-132001971D01*
X137195164Y-132001971D02*
X137195164Y-131823400D01*
X137195164Y-131823400D02*
X137230878Y-131716257D01*
X137230878Y-131716257D02*
X137302307Y-131644828D01*
X137302307Y-131644828D02*
X137373735Y-131609114D01*
X137373735Y-131609114D02*
X137516592Y-131573400D01*
X137516592Y-131573400D02*
X137623735Y-131573400D01*
X137623735Y-131573400D02*
X137766592Y-131609114D01*
X137766592Y-131609114D02*
X137838021Y-131644828D01*
X137838021Y-131644828D02*
X137909450Y-131716257D01*
X137909450Y-131716257D02*
X137945164Y-131823400D01*
X137945164Y-131823400D02*
X137945164Y-132001971D01*
X137945164Y-131216257D02*
X137945164Y-131073400D01*
X137945164Y-131073400D02*
X137909450Y-131001971D01*
X137909450Y-131001971D02*
X137873735Y-130966257D01*
X137873735Y-130966257D02*
X137766592Y-130894828D01*
X137766592Y-130894828D02*
X137623735Y-130859114D01*
X137623735Y-130859114D02*
X137338021Y-130859114D01*
X137338021Y-130859114D02*
X137266592Y-130894828D01*
X137266592Y-130894828D02*
X137230878Y-130930543D01*
X137230878Y-130930543D02*
X137195164Y-131001971D01*
X137195164Y-131001971D02*
X137195164Y-131144828D01*
X137195164Y-131144828D02*
X137230878Y-131216257D01*
X137230878Y-131216257D02*
X137266592Y-131251971D01*
X137266592Y-131251971D02*
X137338021Y-131287685D01*
X137338021Y-131287685D02*
X137516592Y-131287685D01*
X137516592Y-131287685D02*
X137588021Y-131251971D01*
X137588021Y-131251971D02*
X137623735Y-131216257D01*
X137623735Y-131216257D02*
X137659450Y-131144828D01*
X137659450Y-131144828D02*
X137659450Y-131001971D01*
X137659450Y-131001971D02*
X137623735Y-130930543D01*
X137623735Y-130930543D02*
X137588021Y-130894828D01*
X137588021Y-130894828D02*
X137516592Y-130859114D01*
X139845164Y-135384114D02*
X139845164Y-135812685D01*
X139845164Y-135598400D02*
X139095164Y-135598400D01*
X139095164Y-135598400D02*
X139202307Y-135669828D01*
X139202307Y-135669828D02*
X139273735Y-135741257D01*
X139273735Y-135741257D02*
X139309450Y-135812685D01*
X125242135Y-134514543D02*
X125277850Y-134550257D01*
X125277850Y-134550257D02*
X125313564Y-134657400D01*
X125313564Y-134657400D02*
X125313564Y-134728828D01*
X125313564Y-134728828D02*
X125277850Y-134835971D01*
X125277850Y-134835971D02*
X125206421Y-134907400D01*
X125206421Y-134907400D02*
X125134992Y-134943114D01*
X125134992Y-134943114D02*
X124992135Y-134978828D01*
X124992135Y-134978828D02*
X124884992Y-134978828D01*
X124884992Y-134978828D02*
X124742135Y-134943114D01*
X124742135Y-134943114D02*
X124670707Y-134907400D01*
X124670707Y-134907400D02*
X124599278Y-134835971D01*
X124599278Y-134835971D02*
X124563564Y-134728828D01*
X124563564Y-134728828D02*
X124563564Y-134657400D01*
X124563564Y-134657400D02*
X124599278Y-134550257D01*
X124599278Y-134550257D02*
X124634992Y-134514543D01*
X124634992Y-134228828D02*
X124599278Y-134193114D01*
X124599278Y-134193114D02*
X124563564Y-134121686D01*
X124563564Y-134121686D02*
X124563564Y-133943114D01*
X124563564Y-133943114D02*
X124599278Y-133871686D01*
X124599278Y-133871686D02*
X124634992Y-133835971D01*
X124634992Y-133835971D02*
X124706421Y-133800257D01*
X124706421Y-133800257D02*
X124777850Y-133800257D01*
X124777850Y-133800257D02*
X124884992Y-133835971D01*
X124884992Y-133835971D02*
X125313564Y-134264543D01*
X125313564Y-134264543D02*
X125313564Y-133800257D01*
X124563564Y-133550257D02*
X124563564Y-133050257D01*
X124563564Y-133050257D02*
X125313564Y-133371685D01*
X147155164Y-114110543D02*
X146798021Y-114360543D01*
X147155164Y-114539114D02*
X146405164Y-114539114D01*
X146405164Y-114539114D02*
X146405164Y-114253400D01*
X146405164Y-114253400D02*
X146440878Y-114181971D01*
X146440878Y-114181971D02*
X146476592Y-114146257D01*
X146476592Y-114146257D02*
X146548021Y-114110543D01*
X146548021Y-114110543D02*
X146655164Y-114110543D01*
X146655164Y-114110543D02*
X146726592Y-114146257D01*
X146726592Y-114146257D02*
X146762307Y-114181971D01*
X146762307Y-114181971D02*
X146798021Y-114253400D01*
X146798021Y-114253400D02*
X146798021Y-114539114D01*
X147155164Y-113396257D02*
X147155164Y-113824828D01*
X147155164Y-113610543D02*
X146405164Y-113610543D01*
X146405164Y-113610543D02*
X146512307Y-113681971D01*
X146512307Y-113681971D02*
X146583735Y-113753400D01*
X146583735Y-113753400D02*
X146619450Y-113824828D01*
X147155164Y-113039114D02*
X147155164Y-112896257D01*
X147155164Y-112896257D02*
X147119450Y-112824828D01*
X147119450Y-112824828D02*
X147083735Y-112789114D01*
X147083735Y-112789114D02*
X146976592Y-112717685D01*
X146976592Y-112717685D02*
X146833735Y-112681971D01*
X146833735Y-112681971D02*
X146548021Y-112681971D01*
X146548021Y-112681971D02*
X146476592Y-112717685D01*
X146476592Y-112717685D02*
X146440878Y-112753400D01*
X146440878Y-112753400D02*
X146405164Y-112824828D01*
X146405164Y-112824828D02*
X146405164Y-112967685D01*
X146405164Y-112967685D02*
X146440878Y-113039114D01*
X146440878Y-113039114D02*
X146476592Y-113074828D01*
X146476592Y-113074828D02*
X146548021Y-113110542D01*
X146548021Y-113110542D02*
X146726592Y-113110542D01*
X146726592Y-113110542D02*
X146798021Y-113074828D01*
X146798021Y-113074828D02*
X146833735Y-113039114D01*
X146833735Y-113039114D02*
X146869450Y-112967685D01*
X146869450Y-112967685D02*
X146869450Y-112824828D01*
X146869450Y-112824828D02*
X146833735Y-112753400D01*
X146833735Y-112753400D02*
X146798021Y-112717685D01*
X146798021Y-112717685D02*
X146726592Y-112681971D01*
X173843856Y-120566135D02*
X173808142Y-120601850D01*
X173808142Y-120601850D02*
X173700999Y-120637564D01*
X173700999Y-120637564D02*
X173629571Y-120637564D01*
X173629571Y-120637564D02*
X173522428Y-120601850D01*
X173522428Y-120601850D02*
X173450999Y-120530421D01*
X173450999Y-120530421D02*
X173415285Y-120458992D01*
X173415285Y-120458992D02*
X173379571Y-120316135D01*
X173379571Y-120316135D02*
X173379571Y-120208992D01*
X173379571Y-120208992D02*
X173415285Y-120066135D01*
X173415285Y-120066135D02*
X173450999Y-119994707D01*
X173450999Y-119994707D02*
X173522428Y-119923278D01*
X173522428Y-119923278D02*
X173629571Y-119887564D01*
X173629571Y-119887564D02*
X173700999Y-119887564D01*
X173700999Y-119887564D02*
X173808142Y-119923278D01*
X173808142Y-119923278D02*
X173843856Y-119958992D01*
X174558142Y-120637564D02*
X174129571Y-120637564D01*
X174343856Y-120637564D02*
X174343856Y-119887564D01*
X174343856Y-119887564D02*
X174272428Y-119994707D01*
X174272428Y-119994707D02*
X174200999Y-120066135D01*
X174200999Y-120066135D02*
X174129571Y-120101850D01*
X174843857Y-119958992D02*
X174879571Y-119923278D01*
X174879571Y-119923278D02*
X174951000Y-119887564D01*
X174951000Y-119887564D02*
X175129571Y-119887564D01*
X175129571Y-119887564D02*
X175201000Y-119923278D01*
X175201000Y-119923278D02*
X175236714Y-119958992D01*
X175236714Y-119958992D02*
X175272428Y-120030421D01*
X175272428Y-120030421D02*
X175272428Y-120101850D01*
X175272428Y-120101850D02*
X175236714Y-120208992D01*
X175236714Y-120208992D02*
X174808142Y-120637564D01*
X174808142Y-120637564D02*
X175272428Y-120637564D01*
X186983735Y-122673400D02*
X187019450Y-122709114D01*
X187019450Y-122709114D02*
X187055164Y-122816257D01*
X187055164Y-122816257D02*
X187055164Y-122887685D01*
X187055164Y-122887685D02*
X187019450Y-122994828D01*
X187019450Y-122994828D02*
X186948021Y-123066257D01*
X186948021Y-123066257D02*
X186876592Y-123101971D01*
X186876592Y-123101971D02*
X186733735Y-123137685D01*
X186733735Y-123137685D02*
X186626592Y-123137685D01*
X186626592Y-123137685D02*
X186483735Y-123101971D01*
X186483735Y-123101971D02*
X186412307Y-123066257D01*
X186412307Y-123066257D02*
X186340878Y-122994828D01*
X186340878Y-122994828D02*
X186305164Y-122887685D01*
X186305164Y-122887685D02*
X186305164Y-122816257D01*
X186305164Y-122816257D02*
X186340878Y-122709114D01*
X186340878Y-122709114D02*
X186376592Y-122673400D01*
X187055164Y-122316257D02*
X187055164Y-122173400D01*
X187055164Y-122173400D02*
X187019450Y-122101971D01*
X187019450Y-122101971D02*
X186983735Y-122066257D01*
X186983735Y-122066257D02*
X186876592Y-121994828D01*
X186876592Y-121994828D02*
X186733735Y-121959114D01*
X186733735Y-121959114D02*
X186448021Y-121959114D01*
X186448021Y-121959114D02*
X186376592Y-121994828D01*
X186376592Y-121994828D02*
X186340878Y-122030543D01*
X186340878Y-122030543D02*
X186305164Y-122101971D01*
X186305164Y-122101971D02*
X186305164Y-122244828D01*
X186305164Y-122244828D02*
X186340878Y-122316257D01*
X186340878Y-122316257D02*
X186376592Y-122351971D01*
X186376592Y-122351971D02*
X186448021Y-122387685D01*
X186448021Y-122387685D02*
X186626592Y-122387685D01*
X186626592Y-122387685D02*
X186698021Y-122351971D01*
X186698021Y-122351971D02*
X186733735Y-122316257D01*
X186733735Y-122316257D02*
X186769450Y-122244828D01*
X186769450Y-122244828D02*
X186769450Y-122101971D01*
X186769450Y-122101971D02*
X186733735Y-122030543D01*
X186733735Y-122030543D02*
X186698021Y-121994828D01*
X186698021Y-121994828D02*
X186626592Y-121959114D01*
X125222135Y-124344543D02*
X125257850Y-124380257D01*
X125257850Y-124380257D02*
X125293564Y-124487400D01*
X125293564Y-124487400D02*
X125293564Y-124558828D01*
X125293564Y-124558828D02*
X125257850Y-124665971D01*
X125257850Y-124665971D02*
X125186421Y-124737400D01*
X125186421Y-124737400D02*
X125114992Y-124773114D01*
X125114992Y-124773114D02*
X124972135Y-124808828D01*
X124972135Y-124808828D02*
X124864992Y-124808828D01*
X124864992Y-124808828D02*
X124722135Y-124773114D01*
X124722135Y-124773114D02*
X124650707Y-124737400D01*
X124650707Y-124737400D02*
X124579278Y-124665971D01*
X124579278Y-124665971D02*
X124543564Y-124558828D01*
X124543564Y-124558828D02*
X124543564Y-124487400D01*
X124543564Y-124487400D02*
X124579278Y-124380257D01*
X124579278Y-124380257D02*
X124614992Y-124344543D01*
X124614992Y-124058828D02*
X124579278Y-124023114D01*
X124579278Y-124023114D02*
X124543564Y-123951686D01*
X124543564Y-123951686D02*
X124543564Y-123773114D01*
X124543564Y-123773114D02*
X124579278Y-123701686D01*
X124579278Y-123701686D02*
X124614992Y-123665971D01*
X124614992Y-123665971D02*
X124686421Y-123630257D01*
X124686421Y-123630257D02*
X124757850Y-123630257D01*
X124757850Y-123630257D02*
X124864992Y-123665971D01*
X124864992Y-123665971D02*
X125293564Y-124094543D01*
X125293564Y-124094543D02*
X125293564Y-123630257D01*
X124864992Y-123201685D02*
X124829278Y-123273114D01*
X124829278Y-123273114D02*
X124793564Y-123308828D01*
X124793564Y-123308828D02*
X124722135Y-123344542D01*
X124722135Y-123344542D02*
X124686421Y-123344542D01*
X124686421Y-123344542D02*
X124614992Y-123308828D01*
X124614992Y-123308828D02*
X124579278Y-123273114D01*
X124579278Y-123273114D02*
X124543564Y-123201685D01*
X124543564Y-123201685D02*
X124543564Y-123058828D01*
X124543564Y-123058828D02*
X124579278Y-122987400D01*
X124579278Y-122987400D02*
X124614992Y-122951685D01*
X124614992Y-122951685D02*
X124686421Y-122915971D01*
X124686421Y-122915971D02*
X124722135Y-122915971D01*
X124722135Y-122915971D02*
X124793564Y-122951685D01*
X124793564Y-122951685D02*
X124829278Y-122987400D01*
X124829278Y-122987400D02*
X124864992Y-123058828D01*
X124864992Y-123058828D02*
X124864992Y-123201685D01*
X124864992Y-123201685D02*
X124900707Y-123273114D01*
X124900707Y-123273114D02*
X124936421Y-123308828D01*
X124936421Y-123308828D02*
X125007850Y-123344542D01*
X125007850Y-123344542D02*
X125150707Y-123344542D01*
X125150707Y-123344542D02*
X125222135Y-123308828D01*
X125222135Y-123308828D02*
X125257850Y-123273114D01*
X125257850Y-123273114D02*
X125293564Y-123201685D01*
X125293564Y-123201685D02*
X125293564Y-123058828D01*
X125293564Y-123058828D02*
X125257850Y-122987400D01*
X125257850Y-122987400D02*
X125222135Y-122951685D01*
X125222135Y-122951685D02*
X125150707Y-122915971D01*
X125150707Y-122915971D02*
X125007850Y-122915971D01*
X125007850Y-122915971D02*
X124936421Y-122951685D01*
X124936421Y-122951685D02*
X124900707Y-122987400D01*
X124900707Y-122987400D02*
X124864992Y-123058828D01*
X116033856Y-137086135D02*
X115998142Y-137121850D01*
X115998142Y-137121850D02*
X115890999Y-137157564D01*
X115890999Y-137157564D02*
X115819571Y-137157564D01*
X115819571Y-137157564D02*
X115712428Y-137121850D01*
X115712428Y-137121850D02*
X115640999Y-137050421D01*
X115640999Y-137050421D02*
X115605285Y-136978992D01*
X115605285Y-136978992D02*
X115569571Y-136836135D01*
X115569571Y-136836135D02*
X115569571Y-136728992D01*
X115569571Y-136728992D02*
X115605285Y-136586135D01*
X115605285Y-136586135D02*
X115640999Y-136514707D01*
X115640999Y-136514707D02*
X115712428Y-136443278D01*
X115712428Y-136443278D02*
X115819571Y-136407564D01*
X115819571Y-136407564D02*
X115890999Y-136407564D01*
X115890999Y-136407564D02*
X115998142Y-136443278D01*
X115998142Y-136443278D02*
X116033856Y-136478992D01*
X116283856Y-136407564D02*
X116748142Y-136407564D01*
X116748142Y-136407564D02*
X116498142Y-136693278D01*
X116498142Y-136693278D02*
X116605285Y-136693278D01*
X116605285Y-136693278D02*
X116676714Y-136728992D01*
X116676714Y-136728992D02*
X116712428Y-136764707D01*
X116712428Y-136764707D02*
X116748142Y-136836135D01*
X116748142Y-136836135D02*
X116748142Y-137014707D01*
X116748142Y-137014707D02*
X116712428Y-137086135D01*
X116712428Y-137086135D02*
X116676714Y-137121850D01*
X116676714Y-137121850D02*
X116605285Y-137157564D01*
X116605285Y-137157564D02*
X116390999Y-137157564D01*
X116390999Y-137157564D02*
X116319571Y-137121850D01*
X116319571Y-137121850D02*
X116283856Y-137086135D01*
X117391000Y-136657564D02*
X117391000Y-137157564D01*
X117212428Y-136371850D02*
X117033857Y-136907564D01*
X117033857Y-136907564D02*
X117498142Y-136907564D01*
X134782135Y-108709543D02*
X134817850Y-108745257D01*
X134817850Y-108745257D02*
X134853564Y-108852400D01*
X134853564Y-108852400D02*
X134853564Y-108923828D01*
X134853564Y-108923828D02*
X134817850Y-109030971D01*
X134817850Y-109030971D02*
X134746421Y-109102400D01*
X134746421Y-109102400D02*
X134674992Y-109138114D01*
X134674992Y-109138114D02*
X134532135Y-109173828D01*
X134532135Y-109173828D02*
X134424992Y-109173828D01*
X134424992Y-109173828D02*
X134282135Y-109138114D01*
X134282135Y-109138114D02*
X134210707Y-109102400D01*
X134210707Y-109102400D02*
X134139278Y-109030971D01*
X134139278Y-109030971D02*
X134103564Y-108923828D01*
X134103564Y-108923828D02*
X134103564Y-108852400D01*
X134103564Y-108852400D02*
X134139278Y-108745257D01*
X134139278Y-108745257D02*
X134174992Y-108709543D01*
X134174992Y-108423828D02*
X134139278Y-108388114D01*
X134139278Y-108388114D02*
X134103564Y-108316686D01*
X134103564Y-108316686D02*
X134103564Y-108138114D01*
X134103564Y-108138114D02*
X134139278Y-108066686D01*
X134139278Y-108066686D02*
X134174992Y-108030971D01*
X134174992Y-108030971D02*
X134246421Y-107995257D01*
X134246421Y-107995257D02*
X134317850Y-107995257D01*
X134317850Y-107995257D02*
X134424992Y-108030971D01*
X134424992Y-108030971D02*
X134853564Y-108459543D01*
X134853564Y-108459543D02*
X134853564Y-107995257D01*
X134103564Y-107745257D02*
X134103564Y-107280971D01*
X134103564Y-107280971D02*
X134389278Y-107530971D01*
X134389278Y-107530971D02*
X134389278Y-107423828D01*
X134389278Y-107423828D02*
X134424992Y-107352400D01*
X134424992Y-107352400D02*
X134460707Y-107316685D01*
X134460707Y-107316685D02*
X134532135Y-107280971D01*
X134532135Y-107280971D02*
X134710707Y-107280971D01*
X134710707Y-107280971D02*
X134782135Y-107316685D01*
X134782135Y-107316685D02*
X134817850Y-107352400D01*
X134817850Y-107352400D02*
X134853564Y-107423828D01*
X134853564Y-107423828D02*
X134853564Y-107638114D01*
X134853564Y-107638114D02*
X134817850Y-107709542D01*
X134817850Y-107709542D02*
X134782135Y-107745257D01*
X135052135Y-124209543D02*
X135087850Y-124245257D01*
X135087850Y-124245257D02*
X135123564Y-124352400D01*
X135123564Y-124352400D02*
X135123564Y-124423828D01*
X135123564Y-124423828D02*
X135087850Y-124530971D01*
X135087850Y-124530971D02*
X135016421Y-124602400D01*
X135016421Y-124602400D02*
X134944992Y-124638114D01*
X134944992Y-124638114D02*
X134802135Y-124673828D01*
X134802135Y-124673828D02*
X134694992Y-124673828D01*
X134694992Y-124673828D02*
X134552135Y-124638114D01*
X134552135Y-124638114D02*
X134480707Y-124602400D01*
X134480707Y-124602400D02*
X134409278Y-124530971D01*
X134409278Y-124530971D02*
X134373564Y-124423828D01*
X134373564Y-124423828D02*
X134373564Y-124352400D01*
X134373564Y-124352400D02*
X134409278Y-124245257D01*
X134409278Y-124245257D02*
X134444992Y-124209543D01*
X134444992Y-123923828D02*
X134409278Y-123888114D01*
X134409278Y-123888114D02*
X134373564Y-123816686D01*
X134373564Y-123816686D02*
X134373564Y-123638114D01*
X134373564Y-123638114D02*
X134409278Y-123566686D01*
X134409278Y-123566686D02*
X134444992Y-123530971D01*
X134444992Y-123530971D02*
X134516421Y-123495257D01*
X134516421Y-123495257D02*
X134587850Y-123495257D01*
X134587850Y-123495257D02*
X134694992Y-123530971D01*
X134694992Y-123530971D02*
X135123564Y-123959543D01*
X135123564Y-123959543D02*
X135123564Y-123495257D01*
X134444992Y-123209542D02*
X134409278Y-123173828D01*
X134409278Y-123173828D02*
X134373564Y-123102400D01*
X134373564Y-123102400D02*
X134373564Y-122923828D01*
X134373564Y-122923828D02*
X134409278Y-122852400D01*
X134409278Y-122852400D02*
X134444992Y-122816685D01*
X134444992Y-122816685D02*
X134516421Y-122780971D01*
X134516421Y-122780971D02*
X134587850Y-122780971D01*
X134587850Y-122780971D02*
X134694992Y-122816685D01*
X134694992Y-122816685D02*
X135123564Y-123245257D01*
X135123564Y-123245257D02*
X135123564Y-122780971D01*
X181433856Y-101357564D02*
X181183856Y-101000421D01*
X181005285Y-101357564D02*
X181005285Y-100607564D01*
X181005285Y-100607564D02*
X181290999Y-100607564D01*
X181290999Y-100607564D02*
X181362428Y-100643278D01*
X181362428Y-100643278D02*
X181398142Y-100678992D01*
X181398142Y-100678992D02*
X181433856Y-100750421D01*
X181433856Y-100750421D02*
X181433856Y-100857564D01*
X181433856Y-100857564D02*
X181398142Y-100928992D01*
X181398142Y-100928992D02*
X181362428Y-100964707D01*
X181362428Y-100964707D02*
X181290999Y-101000421D01*
X181290999Y-101000421D02*
X181005285Y-101000421D01*
X182148142Y-101357564D02*
X181719571Y-101357564D01*
X181933856Y-101357564D02*
X181933856Y-100607564D01*
X181933856Y-100607564D02*
X181862428Y-100714707D01*
X181862428Y-100714707D02*
X181790999Y-100786135D01*
X181790999Y-100786135D02*
X181719571Y-100821850D01*
X182791000Y-100857564D02*
X182791000Y-101357564D01*
X182612428Y-100571850D02*
X182433857Y-101107564D01*
X182433857Y-101107564D02*
X182898142Y-101107564D01*
X111324095Y-136933219D02*
X111324095Y-135933219D01*
X111324095Y-136409409D02*
X111895523Y-136409409D01*
X111895523Y-136933219D02*
X111895523Y-135933219D01*
X112324095Y-136028457D02*
X112371714Y-135980838D01*
X112371714Y-135980838D02*
X112466952Y-135933219D01*
X112466952Y-135933219D02*
X112705047Y-135933219D01*
X112705047Y-135933219D02*
X112800285Y-135980838D01*
X112800285Y-135980838D02*
X112847904Y-136028457D01*
X112847904Y-136028457D02*
X112895523Y-136123695D01*
X112895523Y-136123695D02*
X112895523Y-136218933D01*
X112895523Y-136218933D02*
X112847904Y-136361790D01*
X112847904Y-136361790D02*
X112276476Y-136933219D01*
X112276476Y-136933219D02*
X112895523Y-136933219D01*
X124772135Y-109069543D02*
X124807850Y-109105257D01*
X124807850Y-109105257D02*
X124843564Y-109212400D01*
X124843564Y-109212400D02*
X124843564Y-109283828D01*
X124843564Y-109283828D02*
X124807850Y-109390971D01*
X124807850Y-109390971D02*
X124736421Y-109462400D01*
X124736421Y-109462400D02*
X124664992Y-109498114D01*
X124664992Y-109498114D02*
X124522135Y-109533828D01*
X124522135Y-109533828D02*
X124414992Y-109533828D01*
X124414992Y-109533828D02*
X124272135Y-109498114D01*
X124272135Y-109498114D02*
X124200707Y-109462400D01*
X124200707Y-109462400D02*
X124129278Y-109390971D01*
X124129278Y-109390971D02*
X124093564Y-109283828D01*
X124093564Y-109283828D02*
X124093564Y-109212400D01*
X124093564Y-109212400D02*
X124129278Y-109105257D01*
X124129278Y-109105257D02*
X124164992Y-109069543D01*
X124164992Y-108783828D02*
X124129278Y-108748114D01*
X124129278Y-108748114D02*
X124093564Y-108676686D01*
X124093564Y-108676686D02*
X124093564Y-108498114D01*
X124093564Y-108498114D02*
X124129278Y-108426686D01*
X124129278Y-108426686D02*
X124164992Y-108390971D01*
X124164992Y-108390971D02*
X124236421Y-108355257D01*
X124236421Y-108355257D02*
X124307850Y-108355257D01*
X124307850Y-108355257D02*
X124414992Y-108390971D01*
X124414992Y-108390971D02*
X124843564Y-108819543D01*
X124843564Y-108819543D02*
X124843564Y-108355257D01*
X124843564Y-107998114D02*
X124843564Y-107855257D01*
X124843564Y-107855257D02*
X124807850Y-107783828D01*
X124807850Y-107783828D02*
X124772135Y-107748114D01*
X124772135Y-107748114D02*
X124664992Y-107676685D01*
X124664992Y-107676685D02*
X124522135Y-107640971D01*
X124522135Y-107640971D02*
X124236421Y-107640971D01*
X124236421Y-107640971D02*
X124164992Y-107676685D01*
X124164992Y-107676685D02*
X124129278Y-107712400D01*
X124129278Y-107712400D02*
X124093564Y-107783828D01*
X124093564Y-107783828D02*
X124093564Y-107926685D01*
X124093564Y-107926685D02*
X124129278Y-107998114D01*
X124129278Y-107998114D02*
X124164992Y-108033828D01*
X124164992Y-108033828D02*
X124236421Y-108069542D01*
X124236421Y-108069542D02*
X124414992Y-108069542D01*
X124414992Y-108069542D02*
X124486421Y-108033828D01*
X124486421Y-108033828D02*
X124522135Y-107998114D01*
X124522135Y-107998114D02*
X124557850Y-107926685D01*
X124557850Y-107926685D02*
X124557850Y-107783828D01*
X124557850Y-107783828D02*
X124522135Y-107712400D01*
X124522135Y-107712400D02*
X124486421Y-107676685D01*
X124486421Y-107676685D02*
X124414992Y-107640971D01*
X170376000Y-94901850D02*
X170483143Y-94937564D01*
X170483143Y-94937564D02*
X170661714Y-94937564D01*
X170661714Y-94937564D02*
X170733143Y-94901850D01*
X170733143Y-94901850D02*
X170768857Y-94866135D01*
X170768857Y-94866135D02*
X170804571Y-94794707D01*
X170804571Y-94794707D02*
X170804571Y-94723278D01*
X170804571Y-94723278D02*
X170768857Y-94651850D01*
X170768857Y-94651850D02*
X170733143Y-94616135D01*
X170733143Y-94616135D02*
X170661714Y-94580421D01*
X170661714Y-94580421D02*
X170518857Y-94544707D01*
X170518857Y-94544707D02*
X170447428Y-94508992D01*
X170447428Y-94508992D02*
X170411714Y-94473278D01*
X170411714Y-94473278D02*
X170376000Y-94401850D01*
X170376000Y-94401850D02*
X170376000Y-94330421D01*
X170376000Y-94330421D02*
X170411714Y-94258992D01*
X170411714Y-94258992D02*
X170447428Y-94223278D01*
X170447428Y-94223278D02*
X170518857Y-94187564D01*
X170518857Y-94187564D02*
X170697428Y-94187564D01*
X170697428Y-94187564D02*
X170804571Y-94223278D01*
X171054571Y-94187564D02*
X171233143Y-94937564D01*
X171233143Y-94937564D02*
X171376000Y-94401850D01*
X171376000Y-94401850D02*
X171518857Y-94937564D01*
X171518857Y-94937564D02*
X171697429Y-94187564D01*
X172376000Y-94937564D02*
X171947429Y-94937564D01*
X172161714Y-94937564D02*
X172161714Y-94187564D01*
X172161714Y-94187564D02*
X172090286Y-94294707D01*
X172090286Y-94294707D02*
X172018857Y-94366135D01*
X172018857Y-94366135D02*
X171947429Y-94401850D01*
X186094095Y-132233219D02*
X186094095Y-131233219D01*
X186094095Y-131709409D02*
X186665523Y-131709409D01*
X186665523Y-132233219D02*
X186665523Y-131233219D01*
X187046476Y-131233219D02*
X187665523Y-131233219D01*
X187665523Y-131233219D02*
X187332190Y-131614171D01*
X187332190Y-131614171D02*
X187475047Y-131614171D01*
X187475047Y-131614171D02*
X187570285Y-131661790D01*
X187570285Y-131661790D02*
X187617904Y-131709409D01*
X187617904Y-131709409D02*
X187665523Y-131804647D01*
X187665523Y-131804647D02*
X187665523Y-132042742D01*
X187665523Y-132042742D02*
X187617904Y-132137980D01*
X187617904Y-132137980D02*
X187570285Y-132185600D01*
X187570285Y-132185600D02*
X187475047Y-132233219D01*
X187475047Y-132233219D02*
X187189333Y-132233219D01*
X187189333Y-132233219D02*
X187094095Y-132185600D01*
X187094095Y-132185600D02*
X187046476Y-132137980D01*
X177023735Y-105550543D02*
X177059450Y-105586257D01*
X177059450Y-105586257D02*
X177095164Y-105693400D01*
X177095164Y-105693400D02*
X177095164Y-105764828D01*
X177095164Y-105764828D02*
X177059450Y-105871971D01*
X177059450Y-105871971D02*
X176988021Y-105943400D01*
X176988021Y-105943400D02*
X176916592Y-105979114D01*
X176916592Y-105979114D02*
X176773735Y-106014828D01*
X176773735Y-106014828D02*
X176666592Y-106014828D01*
X176666592Y-106014828D02*
X176523735Y-105979114D01*
X176523735Y-105979114D02*
X176452307Y-105943400D01*
X176452307Y-105943400D02*
X176380878Y-105871971D01*
X176380878Y-105871971D02*
X176345164Y-105764828D01*
X176345164Y-105764828D02*
X176345164Y-105693400D01*
X176345164Y-105693400D02*
X176380878Y-105586257D01*
X176380878Y-105586257D02*
X176416592Y-105550543D01*
X177095164Y-104836257D02*
X177095164Y-105264828D01*
X177095164Y-105050543D02*
X176345164Y-105050543D01*
X176345164Y-105050543D02*
X176452307Y-105121971D01*
X176452307Y-105121971D02*
X176523735Y-105193400D01*
X176523735Y-105193400D02*
X176559450Y-105264828D01*
X176345164Y-104193400D02*
X176345164Y-104336257D01*
X176345164Y-104336257D02*
X176380878Y-104407685D01*
X176380878Y-104407685D02*
X176416592Y-104443400D01*
X176416592Y-104443400D02*
X176523735Y-104514828D01*
X176523735Y-104514828D02*
X176666592Y-104550542D01*
X176666592Y-104550542D02*
X176952307Y-104550542D01*
X176952307Y-104550542D02*
X177023735Y-104514828D01*
X177023735Y-104514828D02*
X177059450Y-104479114D01*
X177059450Y-104479114D02*
X177095164Y-104407685D01*
X177095164Y-104407685D02*
X177095164Y-104264828D01*
X177095164Y-104264828D02*
X177059450Y-104193400D01*
X177059450Y-104193400D02*
X177023735Y-104157685D01*
X177023735Y-104157685D02*
X176952307Y-104121971D01*
X176952307Y-104121971D02*
X176773735Y-104121971D01*
X176773735Y-104121971D02*
X176702307Y-104157685D01*
X176702307Y-104157685D02*
X176666592Y-104193400D01*
X176666592Y-104193400D02*
X176630878Y-104264828D01*
X176630878Y-104264828D02*
X176630878Y-104407685D01*
X176630878Y-104407685D02*
X176666592Y-104479114D01*
X176666592Y-104479114D02*
X176702307Y-104514828D01*
X176702307Y-104514828D02*
X176773735Y-104550542D01*
X146575164Y-117360543D02*
X146218021Y-117610543D01*
X146575164Y-117789114D02*
X145825164Y-117789114D01*
X145825164Y-117789114D02*
X145825164Y-117503400D01*
X145825164Y-117503400D02*
X145860878Y-117431971D01*
X145860878Y-117431971D02*
X145896592Y-117396257D01*
X145896592Y-117396257D02*
X145968021Y-117360543D01*
X145968021Y-117360543D02*
X146075164Y-117360543D01*
X146075164Y-117360543D02*
X146146592Y-117396257D01*
X146146592Y-117396257D02*
X146182307Y-117431971D01*
X146182307Y-117431971D02*
X146218021Y-117503400D01*
X146218021Y-117503400D02*
X146218021Y-117789114D01*
X146575164Y-116646257D02*
X146575164Y-117074828D01*
X146575164Y-116860543D02*
X145825164Y-116860543D01*
X145825164Y-116860543D02*
X145932307Y-116931971D01*
X145932307Y-116931971D02*
X146003735Y-117003400D01*
X146003735Y-117003400D02*
X146039450Y-117074828D01*
X146146592Y-116217685D02*
X146110878Y-116289114D01*
X146110878Y-116289114D02*
X146075164Y-116324828D01*
X146075164Y-116324828D02*
X146003735Y-116360542D01*
X146003735Y-116360542D02*
X145968021Y-116360542D01*
X145968021Y-116360542D02*
X145896592Y-116324828D01*
X145896592Y-116324828D02*
X145860878Y-116289114D01*
X145860878Y-116289114D02*
X145825164Y-116217685D01*
X145825164Y-116217685D02*
X145825164Y-116074828D01*
X145825164Y-116074828D02*
X145860878Y-116003400D01*
X145860878Y-116003400D02*
X145896592Y-115967685D01*
X145896592Y-115967685D02*
X145968021Y-115931971D01*
X145968021Y-115931971D02*
X146003735Y-115931971D01*
X146003735Y-115931971D02*
X146075164Y-115967685D01*
X146075164Y-115967685D02*
X146110878Y-116003400D01*
X146110878Y-116003400D02*
X146146592Y-116074828D01*
X146146592Y-116074828D02*
X146146592Y-116217685D01*
X146146592Y-116217685D02*
X146182307Y-116289114D01*
X146182307Y-116289114D02*
X146218021Y-116324828D01*
X146218021Y-116324828D02*
X146289450Y-116360542D01*
X146289450Y-116360542D02*
X146432307Y-116360542D01*
X146432307Y-116360542D02*
X146503735Y-116324828D01*
X146503735Y-116324828D02*
X146539450Y-116289114D01*
X146539450Y-116289114D02*
X146575164Y-116217685D01*
X146575164Y-116217685D02*
X146575164Y-116074828D01*
X146575164Y-116074828D02*
X146539450Y-116003400D01*
X146539450Y-116003400D02*
X146503735Y-115967685D01*
X146503735Y-115967685D02*
X146432307Y-115931971D01*
X146432307Y-115931971D02*
X146289450Y-115931971D01*
X146289450Y-115931971D02*
X146218021Y-115967685D01*
X146218021Y-115967685D02*
X146182307Y-116003400D01*
X146182307Y-116003400D02*
X146146592Y-116074828D01*
X137945164Y-107359114D02*
X137195164Y-107359114D01*
X137195164Y-107359114D02*
X137195164Y-107180543D01*
X137195164Y-107180543D02*
X137230878Y-107073400D01*
X137230878Y-107073400D02*
X137302307Y-107001971D01*
X137302307Y-107001971D02*
X137373735Y-106966257D01*
X137373735Y-106966257D02*
X137516592Y-106930543D01*
X137516592Y-106930543D02*
X137623735Y-106930543D01*
X137623735Y-106930543D02*
X137766592Y-106966257D01*
X137766592Y-106966257D02*
X137838021Y-107001971D01*
X137838021Y-107001971D02*
X137909450Y-107073400D01*
X137909450Y-107073400D02*
X137945164Y-107180543D01*
X137945164Y-107180543D02*
X137945164Y-107359114D01*
X137945164Y-106216257D02*
X137945164Y-106644828D01*
X137945164Y-106430543D02*
X137195164Y-106430543D01*
X137195164Y-106430543D02*
X137302307Y-106501971D01*
X137302307Y-106501971D02*
X137373735Y-106573400D01*
X137373735Y-106573400D02*
X137409450Y-106644828D01*
X137945164Y-105501971D02*
X137945164Y-105930542D01*
X137945164Y-105716257D02*
X137195164Y-105716257D01*
X137195164Y-105716257D02*
X137302307Y-105787685D01*
X137302307Y-105787685D02*
X137373735Y-105859114D01*
X137373735Y-105859114D02*
X137409450Y-105930542D01*
X139845164Y-110384114D02*
X139845164Y-110812685D01*
X139845164Y-110598400D02*
X139095164Y-110598400D01*
X139095164Y-110598400D02*
X139202307Y-110669828D01*
X139202307Y-110669828D02*
X139273735Y-110741257D01*
X139273735Y-110741257D02*
X139309450Y-110812685D01*
X106256714Y-95997564D02*
X105899571Y-95997564D01*
X105899571Y-95997564D02*
X105899571Y-95247564D01*
X106506714Y-95604707D02*
X106756714Y-95604707D01*
X106863857Y-95997564D02*
X106506714Y-95997564D01*
X106506714Y-95997564D02*
X106506714Y-95247564D01*
X106506714Y-95247564D02*
X106863857Y-95247564D01*
X107185285Y-95997564D02*
X107185285Y-95247564D01*
X107185285Y-95247564D02*
X107363856Y-95247564D01*
X107363856Y-95247564D02*
X107470999Y-95283278D01*
X107470999Y-95283278D02*
X107542428Y-95354707D01*
X107542428Y-95354707D02*
X107578142Y-95426135D01*
X107578142Y-95426135D02*
X107613856Y-95568992D01*
X107613856Y-95568992D02*
X107613856Y-95676135D01*
X107613856Y-95676135D02*
X107578142Y-95818992D01*
X107578142Y-95818992D02*
X107542428Y-95890421D01*
X107542428Y-95890421D02*
X107470999Y-95961850D01*
X107470999Y-95961850D02*
X107363856Y-95997564D01*
X107363856Y-95997564D02*
X107185285Y-95997564D01*
X108328142Y-95997564D02*
X107899571Y-95997564D01*
X108113856Y-95997564D02*
X108113856Y-95247564D01*
X108113856Y-95247564D02*
X108042428Y-95354707D01*
X108042428Y-95354707D02*
X107970999Y-95426135D01*
X107970999Y-95426135D02*
X107899571Y-95461850D01*
X186643856Y-114496135D02*
X186608142Y-114531850D01*
X186608142Y-114531850D02*
X186500999Y-114567564D01*
X186500999Y-114567564D02*
X186429571Y-114567564D01*
X186429571Y-114567564D02*
X186322428Y-114531850D01*
X186322428Y-114531850D02*
X186250999Y-114460421D01*
X186250999Y-114460421D02*
X186215285Y-114388992D01*
X186215285Y-114388992D02*
X186179571Y-114246135D01*
X186179571Y-114246135D02*
X186179571Y-114138992D01*
X186179571Y-114138992D02*
X186215285Y-113996135D01*
X186215285Y-113996135D02*
X186250999Y-113924707D01*
X186250999Y-113924707D02*
X186322428Y-113853278D01*
X186322428Y-113853278D02*
X186429571Y-113817564D01*
X186429571Y-113817564D02*
X186500999Y-113817564D01*
X186500999Y-113817564D02*
X186608142Y-113853278D01*
X186608142Y-113853278D02*
X186643856Y-113888992D01*
X187358142Y-114567564D02*
X186929571Y-114567564D01*
X187143856Y-114567564D02*
X187143856Y-113817564D01*
X187143856Y-113817564D02*
X187072428Y-113924707D01*
X187072428Y-113924707D02*
X187000999Y-113996135D01*
X187000999Y-113996135D02*
X186929571Y-114031850D01*
X188001000Y-114067564D02*
X188001000Y-114567564D01*
X187822428Y-113781850D02*
X187643857Y-114317564D01*
X187643857Y-114317564D02*
X188108142Y-114317564D01*
X158060819Y-97662685D02*
X157060819Y-97662685D01*
X157060819Y-97662685D02*
X157060819Y-97424590D01*
X157060819Y-97424590D02*
X157108438Y-97281733D01*
X157108438Y-97281733D02*
X157203676Y-97186495D01*
X157203676Y-97186495D02*
X157298914Y-97138876D01*
X157298914Y-97138876D02*
X157489390Y-97091257D01*
X157489390Y-97091257D02*
X157632247Y-97091257D01*
X157632247Y-97091257D02*
X157822723Y-97138876D01*
X157822723Y-97138876D02*
X157917961Y-97186495D01*
X157917961Y-97186495D02*
X158013200Y-97281733D01*
X158013200Y-97281733D02*
X158060819Y-97424590D01*
X158060819Y-97424590D02*
X158060819Y-97662685D01*
X157156057Y-96710304D02*
X157108438Y-96662685D01*
X157108438Y-96662685D02*
X157060819Y-96567447D01*
X157060819Y-96567447D02*
X157060819Y-96329352D01*
X157060819Y-96329352D02*
X157108438Y-96234114D01*
X157108438Y-96234114D02*
X157156057Y-96186495D01*
X157156057Y-96186495D02*
X157251295Y-96138876D01*
X157251295Y-96138876D02*
X157346533Y-96138876D01*
X157346533Y-96138876D02*
X157489390Y-96186495D01*
X157489390Y-96186495D02*
X158060819Y-96757923D01*
X158060819Y-96757923D02*
X158060819Y-96138876D01*
X157060819Y-95519828D02*
X157060819Y-95424590D01*
X157060819Y-95424590D02*
X157108438Y-95329352D01*
X157108438Y-95329352D02*
X157156057Y-95281733D01*
X157156057Y-95281733D02*
X157251295Y-95234114D01*
X157251295Y-95234114D02*
X157441771Y-95186495D01*
X157441771Y-95186495D02*
X157679866Y-95186495D01*
X157679866Y-95186495D02*
X157870342Y-95234114D01*
X157870342Y-95234114D02*
X157965580Y-95281733D01*
X157965580Y-95281733D02*
X158013200Y-95329352D01*
X158013200Y-95329352D02*
X158060819Y-95424590D01*
X158060819Y-95424590D02*
X158060819Y-95519828D01*
X158060819Y-95519828D02*
X158013200Y-95615066D01*
X158013200Y-95615066D02*
X157965580Y-95662685D01*
X157965580Y-95662685D02*
X157870342Y-95710304D01*
X157870342Y-95710304D02*
X157679866Y-95757923D01*
X157679866Y-95757923D02*
X157441771Y-95757923D01*
X157441771Y-95757923D02*
X157251295Y-95710304D01*
X157251295Y-95710304D02*
X157156057Y-95662685D01*
X157156057Y-95662685D02*
X157108438Y-95615066D01*
X157108438Y-95615066D02*
X157060819Y-95519828D01*
X159960819Y-100312685D02*
X159960819Y-100884113D01*
X159960819Y-100598399D02*
X158960819Y-100598399D01*
X158960819Y-100598399D02*
X159103676Y-100693637D01*
X159103676Y-100693637D02*
X159198914Y-100788875D01*
X159198914Y-100788875D02*
X159246533Y-100884113D01*
X138005164Y-120479114D02*
X137255164Y-120479114D01*
X137255164Y-120479114D02*
X137255164Y-120300543D01*
X137255164Y-120300543D02*
X137290878Y-120193400D01*
X137290878Y-120193400D02*
X137362307Y-120121971D01*
X137362307Y-120121971D02*
X137433735Y-120086257D01*
X137433735Y-120086257D02*
X137576592Y-120050543D01*
X137576592Y-120050543D02*
X137683735Y-120050543D01*
X137683735Y-120050543D02*
X137826592Y-120086257D01*
X137826592Y-120086257D02*
X137898021Y-120121971D01*
X137898021Y-120121971D02*
X137969450Y-120193400D01*
X137969450Y-120193400D02*
X138005164Y-120300543D01*
X138005164Y-120300543D02*
X138005164Y-120479114D01*
X138005164Y-119336257D02*
X138005164Y-119764828D01*
X138005164Y-119550543D02*
X137255164Y-119550543D01*
X137255164Y-119550543D02*
X137362307Y-119621971D01*
X137362307Y-119621971D02*
X137433735Y-119693400D01*
X137433735Y-119693400D02*
X137469450Y-119764828D01*
X137255164Y-118871971D02*
X137255164Y-118800542D01*
X137255164Y-118800542D02*
X137290878Y-118729114D01*
X137290878Y-118729114D02*
X137326592Y-118693400D01*
X137326592Y-118693400D02*
X137398021Y-118657685D01*
X137398021Y-118657685D02*
X137540878Y-118621971D01*
X137540878Y-118621971D02*
X137719450Y-118621971D01*
X137719450Y-118621971D02*
X137862307Y-118657685D01*
X137862307Y-118657685D02*
X137933735Y-118693400D01*
X137933735Y-118693400D02*
X137969450Y-118729114D01*
X137969450Y-118729114D02*
X138005164Y-118800542D01*
X138005164Y-118800542D02*
X138005164Y-118871971D01*
X138005164Y-118871971D02*
X137969450Y-118943400D01*
X137969450Y-118943400D02*
X137933735Y-118979114D01*
X137933735Y-118979114D02*
X137862307Y-119014828D01*
X137862307Y-119014828D02*
X137719450Y-119050542D01*
X137719450Y-119050542D02*
X137540878Y-119050542D01*
X137540878Y-119050542D02*
X137398021Y-119014828D01*
X137398021Y-119014828D02*
X137326592Y-118979114D01*
X137326592Y-118979114D02*
X137290878Y-118943400D01*
X137290878Y-118943400D02*
X137255164Y-118871971D01*
X139845164Y-125384114D02*
X139845164Y-125812685D01*
X139845164Y-125598400D02*
X139095164Y-125598400D01*
X139095164Y-125598400D02*
X139202307Y-125669828D01*
X139202307Y-125669828D02*
X139273735Y-125741257D01*
X139273735Y-125741257D02*
X139309450Y-125812685D01*
X147945164Y-122359114D02*
X147195164Y-122359114D01*
X147195164Y-122359114D02*
X147195164Y-122180543D01*
X147195164Y-122180543D02*
X147230878Y-122073400D01*
X147230878Y-122073400D02*
X147302307Y-122001971D01*
X147302307Y-122001971D02*
X147373735Y-121966257D01*
X147373735Y-121966257D02*
X147516592Y-121930543D01*
X147516592Y-121930543D02*
X147623735Y-121930543D01*
X147623735Y-121930543D02*
X147766592Y-121966257D01*
X147766592Y-121966257D02*
X147838021Y-122001971D01*
X147838021Y-122001971D02*
X147909450Y-122073400D01*
X147909450Y-122073400D02*
X147945164Y-122180543D01*
X147945164Y-122180543D02*
X147945164Y-122359114D01*
X147945164Y-121216257D02*
X147945164Y-121644828D01*
X147945164Y-121430543D02*
X147195164Y-121430543D01*
X147195164Y-121430543D02*
X147302307Y-121501971D01*
X147302307Y-121501971D02*
X147373735Y-121573400D01*
X147373735Y-121573400D02*
X147409450Y-121644828D01*
X147445164Y-120573400D02*
X147945164Y-120573400D01*
X147159450Y-120751971D02*
X147695164Y-120930542D01*
X147695164Y-120930542D02*
X147695164Y-120466257D01*
X150845164Y-125584114D02*
X150845164Y-126012685D01*
X150845164Y-125798400D02*
X150095164Y-125798400D01*
X150095164Y-125798400D02*
X150202307Y-125869828D01*
X150202307Y-125869828D02*
X150273735Y-125941257D01*
X150273735Y-125941257D02*
X150309450Y-126012685D01*
X108150999Y-114366135D02*
X108115285Y-114401850D01*
X108115285Y-114401850D02*
X108008142Y-114437564D01*
X108008142Y-114437564D02*
X107936714Y-114437564D01*
X107936714Y-114437564D02*
X107829571Y-114401850D01*
X107829571Y-114401850D02*
X107758142Y-114330421D01*
X107758142Y-114330421D02*
X107722428Y-114258992D01*
X107722428Y-114258992D02*
X107686714Y-114116135D01*
X107686714Y-114116135D02*
X107686714Y-114008992D01*
X107686714Y-114008992D02*
X107722428Y-113866135D01*
X107722428Y-113866135D02*
X107758142Y-113794707D01*
X107758142Y-113794707D02*
X107829571Y-113723278D01*
X107829571Y-113723278D02*
X107936714Y-113687564D01*
X107936714Y-113687564D02*
X108008142Y-113687564D01*
X108008142Y-113687564D02*
X108115285Y-113723278D01*
X108115285Y-113723278D02*
X108150999Y-113758992D01*
X108400999Y-113687564D02*
X108865285Y-113687564D01*
X108865285Y-113687564D02*
X108615285Y-113973278D01*
X108615285Y-113973278D02*
X108722428Y-113973278D01*
X108722428Y-113973278D02*
X108793857Y-114008992D01*
X108793857Y-114008992D02*
X108829571Y-114044707D01*
X108829571Y-114044707D02*
X108865285Y-114116135D01*
X108865285Y-114116135D02*
X108865285Y-114294707D01*
X108865285Y-114294707D02*
X108829571Y-114366135D01*
X108829571Y-114366135D02*
X108793857Y-114401850D01*
X108793857Y-114401850D02*
X108722428Y-114437564D01*
X108722428Y-114437564D02*
X108508142Y-114437564D01*
X108508142Y-114437564D02*
X108436714Y-114401850D01*
X108436714Y-114401850D02*
X108400999Y-114366135D01*
X137945164Y-97359114D02*
X137195164Y-97359114D01*
X137195164Y-97359114D02*
X137195164Y-97180543D01*
X137195164Y-97180543D02*
X137230878Y-97073400D01*
X137230878Y-97073400D02*
X137302307Y-97001971D01*
X137302307Y-97001971D02*
X137373735Y-96966257D01*
X137373735Y-96966257D02*
X137516592Y-96930543D01*
X137516592Y-96930543D02*
X137623735Y-96930543D01*
X137623735Y-96930543D02*
X137766592Y-96966257D01*
X137766592Y-96966257D02*
X137838021Y-97001971D01*
X137838021Y-97001971D02*
X137909450Y-97073400D01*
X137909450Y-97073400D02*
X137945164Y-97180543D01*
X137945164Y-97180543D02*
X137945164Y-97359114D01*
X137945164Y-96216257D02*
X137945164Y-96644828D01*
X137945164Y-96430543D02*
X137195164Y-96430543D01*
X137195164Y-96430543D02*
X137302307Y-96501971D01*
X137302307Y-96501971D02*
X137373735Y-96573400D01*
X137373735Y-96573400D02*
X137409450Y-96644828D01*
X137266592Y-95930542D02*
X137230878Y-95894828D01*
X137230878Y-95894828D02*
X137195164Y-95823400D01*
X137195164Y-95823400D02*
X137195164Y-95644828D01*
X137195164Y-95644828D02*
X137230878Y-95573400D01*
X137230878Y-95573400D02*
X137266592Y-95537685D01*
X137266592Y-95537685D02*
X137338021Y-95501971D01*
X137338021Y-95501971D02*
X137409450Y-95501971D01*
X137409450Y-95501971D02*
X137516592Y-95537685D01*
X137516592Y-95537685D02*
X137945164Y-95966257D01*
X137945164Y-95966257D02*
X137945164Y-95501971D01*
X139845164Y-100384114D02*
X139845164Y-100812685D01*
X139845164Y-100598400D02*
X139095164Y-100598400D01*
X139095164Y-100598400D02*
X139202307Y-100669828D01*
X139202307Y-100669828D02*
X139273735Y-100741257D01*
X139273735Y-100741257D02*
X139309450Y-100812685D01*
X108150999Y-111356135D02*
X108115285Y-111391850D01*
X108115285Y-111391850D02*
X108008142Y-111427564D01*
X108008142Y-111427564D02*
X107936714Y-111427564D01*
X107936714Y-111427564D02*
X107829571Y-111391850D01*
X107829571Y-111391850D02*
X107758142Y-111320421D01*
X107758142Y-111320421D02*
X107722428Y-111248992D01*
X107722428Y-111248992D02*
X107686714Y-111106135D01*
X107686714Y-111106135D02*
X107686714Y-110998992D01*
X107686714Y-110998992D02*
X107722428Y-110856135D01*
X107722428Y-110856135D02*
X107758142Y-110784707D01*
X107758142Y-110784707D02*
X107829571Y-110713278D01*
X107829571Y-110713278D02*
X107936714Y-110677564D01*
X107936714Y-110677564D02*
X108008142Y-110677564D01*
X108008142Y-110677564D02*
X108115285Y-110713278D01*
X108115285Y-110713278D02*
X108150999Y-110748992D01*
X108793857Y-110927564D02*
X108793857Y-111427564D01*
X108615285Y-110641850D02*
X108436714Y-111177564D01*
X108436714Y-111177564D02*
X108900999Y-111177564D01*
X177235164Y-101320543D02*
X176878021Y-101570543D01*
X177235164Y-101749114D02*
X176485164Y-101749114D01*
X176485164Y-101749114D02*
X176485164Y-101463400D01*
X176485164Y-101463400D02*
X176520878Y-101391971D01*
X176520878Y-101391971D02*
X176556592Y-101356257D01*
X176556592Y-101356257D02*
X176628021Y-101320543D01*
X176628021Y-101320543D02*
X176735164Y-101320543D01*
X176735164Y-101320543D02*
X176806592Y-101356257D01*
X176806592Y-101356257D02*
X176842307Y-101391971D01*
X176842307Y-101391971D02*
X176878021Y-101463400D01*
X176878021Y-101463400D02*
X176878021Y-101749114D01*
X177235164Y-100606257D02*
X177235164Y-101034828D01*
X177235164Y-100820543D02*
X176485164Y-100820543D01*
X176485164Y-100820543D02*
X176592307Y-100891971D01*
X176592307Y-100891971D02*
X176663735Y-100963400D01*
X176663735Y-100963400D02*
X176699450Y-101034828D01*
X176485164Y-99927685D02*
X176485164Y-100284828D01*
X176485164Y-100284828D02*
X176842307Y-100320542D01*
X176842307Y-100320542D02*
X176806592Y-100284828D01*
X176806592Y-100284828D02*
X176770878Y-100213400D01*
X176770878Y-100213400D02*
X176770878Y-100034828D01*
X176770878Y-100034828D02*
X176806592Y-99963400D01*
X176806592Y-99963400D02*
X176842307Y-99927685D01*
X176842307Y-99927685D02*
X176913735Y-99891971D01*
X176913735Y-99891971D02*
X177092307Y-99891971D01*
X177092307Y-99891971D02*
X177163735Y-99927685D01*
X177163735Y-99927685D02*
X177199450Y-99963400D01*
X177199450Y-99963400D02*
X177235164Y-100034828D01*
X177235164Y-100034828D02*
X177235164Y-100213400D01*
X177235164Y-100213400D02*
X177199450Y-100284828D01*
X177199450Y-100284828D02*
X177163735Y-100320542D01*
X111234571Y-132327564D02*
X111234571Y-132934707D01*
X111234571Y-132934707D02*
X111270285Y-133006135D01*
X111270285Y-133006135D02*
X111306000Y-133041850D01*
X111306000Y-133041850D02*
X111377428Y-133077564D01*
X111377428Y-133077564D02*
X111520285Y-133077564D01*
X111520285Y-133077564D02*
X111591714Y-133041850D01*
X111591714Y-133041850D02*
X111627428Y-133006135D01*
X111627428Y-133006135D02*
X111663142Y-132934707D01*
X111663142Y-132934707D02*
X111663142Y-132327564D01*
X111984571Y-132398992D02*
X112020285Y-132363278D01*
X112020285Y-132363278D02*
X112091714Y-132327564D01*
X112091714Y-132327564D02*
X112270285Y-132327564D01*
X112270285Y-132327564D02*
X112341714Y-132363278D01*
X112341714Y-132363278D02*
X112377428Y-132398992D01*
X112377428Y-132398992D02*
X112413142Y-132470421D01*
X112413142Y-132470421D02*
X112413142Y-132541850D01*
X112413142Y-132541850D02*
X112377428Y-132648992D01*
X112377428Y-132648992D02*
X111948856Y-133077564D01*
X111948856Y-133077564D02*
X112413142Y-133077564D01*
X157945164Y-132359114D02*
X157195164Y-132359114D01*
X157195164Y-132359114D02*
X157195164Y-132180543D01*
X157195164Y-132180543D02*
X157230878Y-132073400D01*
X157230878Y-132073400D02*
X157302307Y-132001971D01*
X157302307Y-132001971D02*
X157373735Y-131966257D01*
X157373735Y-131966257D02*
X157516592Y-131930543D01*
X157516592Y-131930543D02*
X157623735Y-131930543D01*
X157623735Y-131930543D02*
X157766592Y-131966257D01*
X157766592Y-131966257D02*
X157838021Y-132001971D01*
X157838021Y-132001971D02*
X157909450Y-132073400D01*
X157909450Y-132073400D02*
X157945164Y-132180543D01*
X157945164Y-132180543D02*
X157945164Y-132359114D01*
X157945164Y-131216257D02*
X157945164Y-131644828D01*
X157945164Y-131430543D02*
X157195164Y-131430543D01*
X157195164Y-131430543D02*
X157302307Y-131501971D01*
X157302307Y-131501971D02*
X157373735Y-131573400D01*
X157373735Y-131573400D02*
X157409450Y-131644828D01*
X157195164Y-130966257D02*
X157195164Y-130466257D01*
X157195164Y-130466257D02*
X157945164Y-130787685D01*
X160265164Y-135554114D02*
X160265164Y-135982685D01*
X160265164Y-135768400D02*
X159515164Y-135768400D01*
X159515164Y-135768400D02*
X159622307Y-135839828D01*
X159622307Y-135839828D02*
X159693735Y-135911257D01*
X159693735Y-135911257D02*
X159729450Y-135982685D01*
X156053142Y-114137980D02*
X156005523Y-114185600D01*
X156005523Y-114185600D02*
X155862666Y-114233219D01*
X155862666Y-114233219D02*
X155767428Y-114233219D01*
X155767428Y-114233219D02*
X155624571Y-114185600D01*
X155624571Y-114185600D02*
X155529333Y-114090361D01*
X155529333Y-114090361D02*
X155481714Y-113995123D01*
X155481714Y-113995123D02*
X155434095Y-113804647D01*
X155434095Y-113804647D02*
X155434095Y-113661790D01*
X155434095Y-113661790D02*
X155481714Y-113471314D01*
X155481714Y-113471314D02*
X155529333Y-113376076D01*
X155529333Y-113376076D02*
X155624571Y-113280838D01*
X155624571Y-113280838D02*
X155767428Y-113233219D01*
X155767428Y-113233219D02*
X155862666Y-113233219D01*
X155862666Y-113233219D02*
X156005523Y-113280838D01*
X156005523Y-113280838D02*
X156053142Y-113328457D01*
X156386476Y-113233219D02*
X157005523Y-113233219D01*
X157005523Y-113233219D02*
X156672190Y-113614171D01*
X156672190Y-113614171D02*
X156815047Y-113614171D01*
X156815047Y-113614171D02*
X156910285Y-113661790D01*
X156910285Y-113661790D02*
X156957904Y-113709409D01*
X156957904Y-113709409D02*
X157005523Y-113804647D01*
X157005523Y-113804647D02*
X157005523Y-114042742D01*
X157005523Y-114042742D02*
X156957904Y-114137980D01*
X156957904Y-114137980D02*
X156910285Y-114185600D01*
X156910285Y-114185600D02*
X156815047Y-114233219D01*
X156815047Y-114233219D02*
X156529333Y-114233219D01*
X156529333Y-114233219D02*
X156434095Y-114185600D01*
X156434095Y-114185600D02*
X156386476Y-114137980D01*
X157481714Y-114233219D02*
X157672190Y-114233219D01*
X157672190Y-114233219D02*
X157767428Y-114185600D01*
X157767428Y-114185600D02*
X157815047Y-114137980D01*
X157815047Y-114137980D02*
X157910285Y-113995123D01*
X157910285Y-113995123D02*
X157957904Y-113804647D01*
X157957904Y-113804647D02*
X157957904Y-113423695D01*
X157957904Y-113423695D02*
X157910285Y-113328457D01*
X157910285Y-113328457D02*
X157862666Y-113280838D01*
X157862666Y-113280838D02*
X157767428Y-113233219D01*
X157767428Y-113233219D02*
X157576952Y-113233219D01*
X157576952Y-113233219D02*
X157481714Y-113280838D01*
X157481714Y-113280838D02*
X157434095Y-113328457D01*
X157434095Y-113328457D02*
X157386476Y-113423695D01*
X157386476Y-113423695D02*
X157386476Y-113661790D01*
X157386476Y-113661790D02*
X157434095Y-113757028D01*
X157434095Y-113757028D02*
X157481714Y-113804647D01*
X157481714Y-113804647D02*
X157576952Y-113852266D01*
X157576952Y-113852266D02*
X157767428Y-113852266D01*
X157767428Y-113852266D02*
X157862666Y-113804647D01*
X157862666Y-113804647D02*
X157910285Y-113757028D01*
X157910285Y-113757028D02*
X157957904Y-113661790D01*
X127945164Y-122001971D02*
X127195164Y-122001971D01*
X127195164Y-122001971D02*
X127195164Y-121823400D01*
X127195164Y-121823400D02*
X127230878Y-121716257D01*
X127230878Y-121716257D02*
X127302307Y-121644828D01*
X127302307Y-121644828D02*
X127373735Y-121609114D01*
X127373735Y-121609114D02*
X127516592Y-121573400D01*
X127516592Y-121573400D02*
X127623735Y-121573400D01*
X127623735Y-121573400D02*
X127766592Y-121609114D01*
X127766592Y-121609114D02*
X127838021Y-121644828D01*
X127838021Y-121644828D02*
X127909450Y-121716257D01*
X127909450Y-121716257D02*
X127945164Y-121823400D01*
X127945164Y-121823400D02*
X127945164Y-122001971D01*
X127195164Y-120930543D02*
X127195164Y-121073400D01*
X127195164Y-121073400D02*
X127230878Y-121144828D01*
X127230878Y-121144828D02*
X127266592Y-121180543D01*
X127266592Y-121180543D02*
X127373735Y-121251971D01*
X127373735Y-121251971D02*
X127516592Y-121287685D01*
X127516592Y-121287685D02*
X127802307Y-121287685D01*
X127802307Y-121287685D02*
X127873735Y-121251971D01*
X127873735Y-121251971D02*
X127909450Y-121216257D01*
X127909450Y-121216257D02*
X127945164Y-121144828D01*
X127945164Y-121144828D02*
X127945164Y-121001971D01*
X127945164Y-121001971D02*
X127909450Y-120930543D01*
X127909450Y-120930543D02*
X127873735Y-120894828D01*
X127873735Y-120894828D02*
X127802307Y-120859114D01*
X127802307Y-120859114D02*
X127623735Y-120859114D01*
X127623735Y-120859114D02*
X127552307Y-120894828D01*
X127552307Y-120894828D02*
X127516592Y-120930543D01*
X127516592Y-120930543D02*
X127480878Y-121001971D01*
X127480878Y-121001971D02*
X127480878Y-121144828D01*
X127480878Y-121144828D02*
X127516592Y-121216257D01*
X127516592Y-121216257D02*
X127552307Y-121251971D01*
X127552307Y-121251971D02*
X127623735Y-121287685D01*
X129845164Y-125384114D02*
X129845164Y-125812685D01*
X129845164Y-125598400D02*
X129095164Y-125598400D01*
X129095164Y-125598400D02*
X129202307Y-125669828D01*
X129202307Y-125669828D02*
X129273735Y-125741257D01*
X129273735Y-125741257D02*
X129309450Y-125812685D01*
X186733856Y-117796135D02*
X186698142Y-117831850D01*
X186698142Y-117831850D02*
X186590999Y-117867564D01*
X186590999Y-117867564D02*
X186519571Y-117867564D01*
X186519571Y-117867564D02*
X186412428Y-117831850D01*
X186412428Y-117831850D02*
X186340999Y-117760421D01*
X186340999Y-117760421D02*
X186305285Y-117688992D01*
X186305285Y-117688992D02*
X186269571Y-117546135D01*
X186269571Y-117546135D02*
X186269571Y-117438992D01*
X186269571Y-117438992D02*
X186305285Y-117296135D01*
X186305285Y-117296135D02*
X186340999Y-117224707D01*
X186340999Y-117224707D02*
X186412428Y-117153278D01*
X186412428Y-117153278D02*
X186519571Y-117117564D01*
X186519571Y-117117564D02*
X186590999Y-117117564D01*
X186590999Y-117117564D02*
X186698142Y-117153278D01*
X186698142Y-117153278D02*
X186733856Y-117188992D01*
X187448142Y-117867564D02*
X187019571Y-117867564D01*
X187233856Y-117867564D02*
X187233856Y-117117564D01*
X187233856Y-117117564D02*
X187162428Y-117224707D01*
X187162428Y-117224707D02*
X187090999Y-117296135D01*
X187090999Y-117296135D02*
X187019571Y-117331850D01*
X188162428Y-117867564D02*
X187733857Y-117867564D01*
X187948142Y-117867564D02*
X187948142Y-117117564D01*
X187948142Y-117117564D02*
X187876714Y-117224707D01*
X187876714Y-117224707D02*
X187805285Y-117296135D01*
X187805285Y-117296135D02*
X187733857Y-117331850D01*
X145543856Y-115587564D02*
X145293856Y-115230421D01*
X145115285Y-115587564D02*
X145115285Y-114837564D01*
X145115285Y-114837564D02*
X145400999Y-114837564D01*
X145400999Y-114837564D02*
X145472428Y-114873278D01*
X145472428Y-114873278D02*
X145508142Y-114908992D01*
X145508142Y-114908992D02*
X145543856Y-114980421D01*
X145543856Y-114980421D02*
X145543856Y-115087564D01*
X145543856Y-115087564D02*
X145508142Y-115158992D01*
X145508142Y-115158992D02*
X145472428Y-115194707D01*
X145472428Y-115194707D02*
X145400999Y-115230421D01*
X145400999Y-115230421D02*
X145115285Y-115230421D01*
X145829571Y-114908992D02*
X145865285Y-114873278D01*
X145865285Y-114873278D02*
X145936714Y-114837564D01*
X145936714Y-114837564D02*
X146115285Y-114837564D01*
X146115285Y-114837564D02*
X146186714Y-114873278D01*
X146186714Y-114873278D02*
X146222428Y-114908992D01*
X146222428Y-114908992D02*
X146258142Y-114980421D01*
X146258142Y-114980421D02*
X146258142Y-115051850D01*
X146258142Y-115051850D02*
X146222428Y-115158992D01*
X146222428Y-115158992D02*
X145793856Y-115587564D01*
X145793856Y-115587564D02*
X146258142Y-115587564D01*
X146543857Y-114908992D02*
X146579571Y-114873278D01*
X146579571Y-114873278D02*
X146651000Y-114837564D01*
X146651000Y-114837564D02*
X146829571Y-114837564D01*
X146829571Y-114837564D02*
X146901000Y-114873278D01*
X146901000Y-114873278D02*
X146936714Y-114908992D01*
X146936714Y-114908992D02*
X146972428Y-114980421D01*
X146972428Y-114980421D02*
X146972428Y-115051850D01*
X146972428Y-115051850D02*
X146936714Y-115158992D01*
X146936714Y-115158992D02*
X146508142Y-115587564D01*
X146508142Y-115587564D02*
X146972428Y-115587564D01*
X180885164Y-122383400D02*
X180528021Y-122633400D01*
X180885164Y-122811971D02*
X180135164Y-122811971D01*
X180135164Y-122811971D02*
X180135164Y-122526257D01*
X180135164Y-122526257D02*
X180170878Y-122454828D01*
X180170878Y-122454828D02*
X180206592Y-122419114D01*
X180206592Y-122419114D02*
X180278021Y-122383400D01*
X180278021Y-122383400D02*
X180385164Y-122383400D01*
X180385164Y-122383400D02*
X180456592Y-122419114D01*
X180456592Y-122419114D02*
X180492307Y-122454828D01*
X180492307Y-122454828D02*
X180528021Y-122526257D01*
X180528021Y-122526257D02*
X180528021Y-122811971D01*
X180456592Y-121954828D02*
X180420878Y-122026257D01*
X180420878Y-122026257D02*
X180385164Y-122061971D01*
X180385164Y-122061971D02*
X180313735Y-122097685D01*
X180313735Y-122097685D02*
X180278021Y-122097685D01*
X180278021Y-122097685D02*
X180206592Y-122061971D01*
X180206592Y-122061971D02*
X180170878Y-122026257D01*
X180170878Y-122026257D02*
X180135164Y-121954828D01*
X180135164Y-121954828D02*
X180135164Y-121811971D01*
X180135164Y-121811971D02*
X180170878Y-121740543D01*
X180170878Y-121740543D02*
X180206592Y-121704828D01*
X180206592Y-121704828D02*
X180278021Y-121669114D01*
X180278021Y-121669114D02*
X180313735Y-121669114D01*
X180313735Y-121669114D02*
X180385164Y-121704828D01*
X180385164Y-121704828D02*
X180420878Y-121740543D01*
X180420878Y-121740543D02*
X180456592Y-121811971D01*
X180456592Y-121811971D02*
X180456592Y-121954828D01*
X180456592Y-121954828D02*
X180492307Y-122026257D01*
X180492307Y-122026257D02*
X180528021Y-122061971D01*
X180528021Y-122061971D02*
X180599450Y-122097685D01*
X180599450Y-122097685D02*
X180742307Y-122097685D01*
X180742307Y-122097685D02*
X180813735Y-122061971D01*
X180813735Y-122061971D02*
X180849450Y-122026257D01*
X180849450Y-122026257D02*
X180885164Y-121954828D01*
X180885164Y-121954828D02*
X180885164Y-121811971D01*
X180885164Y-121811971D02*
X180849450Y-121740543D01*
X180849450Y-121740543D02*
X180813735Y-121704828D01*
X180813735Y-121704828D02*
X180742307Y-121669114D01*
X180742307Y-121669114D02*
X180599450Y-121669114D01*
X180599450Y-121669114D02*
X180528021Y-121704828D01*
X180528021Y-121704828D02*
X180492307Y-121740543D01*
X180492307Y-121740543D02*
X180456592Y-121811971D01*
X111974095Y-91673219D02*
X111974095Y-90673219D01*
X111974095Y-91149409D02*
X112545523Y-91149409D01*
X112545523Y-91673219D02*
X112545523Y-90673219D01*
X113545523Y-91673219D02*
X112974095Y-91673219D01*
X113259809Y-91673219D02*
X113259809Y-90673219D01*
X113259809Y-90673219D02*
X113164571Y-90816076D01*
X113164571Y-90816076D02*
X113069333Y-90911314D01*
X113069333Y-90911314D02*
X112974095Y-90958933D01*
X178460999Y-134577564D02*
X178210999Y-134220421D01*
X178032428Y-134577564D02*
X178032428Y-133827564D01*
X178032428Y-133827564D02*
X178318142Y-133827564D01*
X178318142Y-133827564D02*
X178389571Y-133863278D01*
X178389571Y-133863278D02*
X178425285Y-133898992D01*
X178425285Y-133898992D02*
X178460999Y-133970421D01*
X178460999Y-133970421D02*
X178460999Y-134077564D01*
X178460999Y-134077564D02*
X178425285Y-134148992D01*
X178425285Y-134148992D02*
X178389571Y-134184707D01*
X178389571Y-134184707D02*
X178318142Y-134220421D01*
X178318142Y-134220421D02*
X178032428Y-134220421D01*
X178710999Y-133827564D02*
X179175285Y-133827564D01*
X179175285Y-133827564D02*
X178925285Y-134113278D01*
X178925285Y-134113278D02*
X179032428Y-134113278D01*
X179032428Y-134113278D02*
X179103857Y-134148992D01*
X179103857Y-134148992D02*
X179139571Y-134184707D01*
X179139571Y-134184707D02*
X179175285Y-134256135D01*
X179175285Y-134256135D02*
X179175285Y-134434707D01*
X179175285Y-134434707D02*
X179139571Y-134506135D01*
X179139571Y-134506135D02*
X179103857Y-134541850D01*
X179103857Y-134541850D02*
X179032428Y-134577564D01*
X179032428Y-134577564D02*
X178818142Y-134577564D01*
X178818142Y-134577564D02*
X178746714Y-134541850D01*
X178746714Y-134541850D02*
X178710999Y-134506135D01*
X117945164Y-107001971D02*
X117195164Y-107001971D01*
X117195164Y-107001971D02*
X117195164Y-106823400D01*
X117195164Y-106823400D02*
X117230878Y-106716257D01*
X117230878Y-106716257D02*
X117302307Y-106644828D01*
X117302307Y-106644828D02*
X117373735Y-106609114D01*
X117373735Y-106609114D02*
X117516592Y-106573400D01*
X117516592Y-106573400D02*
X117623735Y-106573400D01*
X117623735Y-106573400D02*
X117766592Y-106609114D01*
X117766592Y-106609114D02*
X117838021Y-106644828D01*
X117838021Y-106644828D02*
X117909450Y-106716257D01*
X117909450Y-106716257D02*
X117945164Y-106823400D01*
X117945164Y-106823400D02*
X117945164Y-107001971D01*
X117195164Y-106323400D02*
X117195164Y-105859114D01*
X117195164Y-105859114D02*
X117480878Y-106109114D01*
X117480878Y-106109114D02*
X117480878Y-106001971D01*
X117480878Y-106001971D02*
X117516592Y-105930543D01*
X117516592Y-105930543D02*
X117552307Y-105894828D01*
X117552307Y-105894828D02*
X117623735Y-105859114D01*
X117623735Y-105859114D02*
X117802307Y-105859114D01*
X117802307Y-105859114D02*
X117873735Y-105894828D01*
X117873735Y-105894828D02*
X117909450Y-105930543D01*
X117909450Y-105930543D02*
X117945164Y-106001971D01*
X117945164Y-106001971D02*
X117945164Y-106216257D01*
X117945164Y-106216257D02*
X117909450Y-106287685D01*
X117909450Y-106287685D02*
X117873735Y-106323400D01*
X119845164Y-110384114D02*
X119845164Y-110812685D01*
X119845164Y-110598400D02*
X119095164Y-110598400D01*
X119095164Y-110598400D02*
X119202307Y-110669828D01*
X119202307Y-110669828D02*
X119273735Y-110741257D01*
X119273735Y-110741257D02*
X119309450Y-110812685D01*
X146343735Y-96570543D02*
X146379450Y-96606257D01*
X146379450Y-96606257D02*
X146415164Y-96713400D01*
X146415164Y-96713400D02*
X146415164Y-96784828D01*
X146415164Y-96784828D02*
X146379450Y-96891971D01*
X146379450Y-96891971D02*
X146308021Y-96963400D01*
X146308021Y-96963400D02*
X146236592Y-96999114D01*
X146236592Y-96999114D02*
X146093735Y-97034828D01*
X146093735Y-97034828D02*
X145986592Y-97034828D01*
X145986592Y-97034828D02*
X145843735Y-96999114D01*
X145843735Y-96999114D02*
X145772307Y-96963400D01*
X145772307Y-96963400D02*
X145700878Y-96891971D01*
X145700878Y-96891971D02*
X145665164Y-96784828D01*
X145665164Y-96784828D02*
X145665164Y-96713400D01*
X145665164Y-96713400D02*
X145700878Y-96606257D01*
X145700878Y-96606257D02*
X145736592Y-96570543D01*
X145736592Y-96284828D02*
X145700878Y-96249114D01*
X145700878Y-96249114D02*
X145665164Y-96177686D01*
X145665164Y-96177686D02*
X145665164Y-95999114D01*
X145665164Y-95999114D02*
X145700878Y-95927686D01*
X145700878Y-95927686D02*
X145736592Y-95891971D01*
X145736592Y-95891971D02*
X145808021Y-95856257D01*
X145808021Y-95856257D02*
X145879450Y-95856257D01*
X145879450Y-95856257D02*
X145986592Y-95891971D01*
X145986592Y-95891971D02*
X146415164Y-96320543D01*
X146415164Y-96320543D02*
X146415164Y-95856257D01*
X145665164Y-95177685D02*
X145665164Y-95534828D01*
X145665164Y-95534828D02*
X146022307Y-95570542D01*
X146022307Y-95570542D02*
X145986592Y-95534828D01*
X145986592Y-95534828D02*
X145950878Y-95463400D01*
X145950878Y-95463400D02*
X145950878Y-95284828D01*
X145950878Y-95284828D02*
X145986592Y-95213400D01*
X145986592Y-95213400D02*
X146022307Y-95177685D01*
X146022307Y-95177685D02*
X146093735Y-95141971D01*
X146093735Y-95141971D02*
X146272307Y-95141971D01*
X146272307Y-95141971D02*
X146343735Y-95177685D01*
X146343735Y-95177685D02*
X146379450Y-95213400D01*
X146379450Y-95213400D02*
X146415164Y-95284828D01*
X146415164Y-95284828D02*
X146415164Y-95463400D01*
X146415164Y-95463400D02*
X146379450Y-95534828D01*
X146379450Y-95534828D02*
X146343735Y-95570542D01*
X186703856Y-116686135D02*
X186668142Y-116721850D01*
X186668142Y-116721850D02*
X186560999Y-116757564D01*
X186560999Y-116757564D02*
X186489571Y-116757564D01*
X186489571Y-116757564D02*
X186382428Y-116721850D01*
X186382428Y-116721850D02*
X186310999Y-116650421D01*
X186310999Y-116650421D02*
X186275285Y-116578992D01*
X186275285Y-116578992D02*
X186239571Y-116436135D01*
X186239571Y-116436135D02*
X186239571Y-116328992D01*
X186239571Y-116328992D02*
X186275285Y-116186135D01*
X186275285Y-116186135D02*
X186310999Y-116114707D01*
X186310999Y-116114707D02*
X186382428Y-116043278D01*
X186382428Y-116043278D02*
X186489571Y-116007564D01*
X186489571Y-116007564D02*
X186560999Y-116007564D01*
X186560999Y-116007564D02*
X186668142Y-116043278D01*
X186668142Y-116043278D02*
X186703856Y-116078992D01*
X187418142Y-116757564D02*
X186989571Y-116757564D01*
X187203856Y-116757564D02*
X187203856Y-116007564D01*
X187203856Y-116007564D02*
X187132428Y-116114707D01*
X187132428Y-116114707D02*
X187060999Y-116186135D01*
X187060999Y-116186135D02*
X186989571Y-116221850D01*
X188096714Y-116007564D02*
X187739571Y-116007564D01*
X187739571Y-116007564D02*
X187703857Y-116364707D01*
X187703857Y-116364707D02*
X187739571Y-116328992D01*
X187739571Y-116328992D02*
X187811000Y-116293278D01*
X187811000Y-116293278D02*
X187989571Y-116293278D01*
X187989571Y-116293278D02*
X188061000Y-116328992D01*
X188061000Y-116328992D02*
X188096714Y-116364707D01*
X188096714Y-116364707D02*
X188132428Y-116436135D01*
X188132428Y-116436135D02*
X188132428Y-116614707D01*
X188132428Y-116614707D02*
X188096714Y-116686135D01*
X188096714Y-116686135D02*
X188061000Y-116721850D01*
X188061000Y-116721850D02*
X187989571Y-116757564D01*
X187989571Y-116757564D02*
X187811000Y-116757564D01*
X187811000Y-116757564D02*
X187739571Y-116721850D01*
X187739571Y-116721850D02*
X187703857Y-116686135D01*
X179675164Y-122343400D02*
X179318021Y-122593400D01*
X179675164Y-122771971D02*
X178925164Y-122771971D01*
X178925164Y-122771971D02*
X178925164Y-122486257D01*
X178925164Y-122486257D02*
X178960878Y-122414828D01*
X178960878Y-122414828D02*
X178996592Y-122379114D01*
X178996592Y-122379114D02*
X179068021Y-122343400D01*
X179068021Y-122343400D02*
X179175164Y-122343400D01*
X179175164Y-122343400D02*
X179246592Y-122379114D01*
X179246592Y-122379114D02*
X179282307Y-122414828D01*
X179282307Y-122414828D02*
X179318021Y-122486257D01*
X179318021Y-122486257D02*
X179318021Y-122771971D01*
X179675164Y-121986257D02*
X179675164Y-121843400D01*
X179675164Y-121843400D02*
X179639450Y-121771971D01*
X179639450Y-121771971D02*
X179603735Y-121736257D01*
X179603735Y-121736257D02*
X179496592Y-121664828D01*
X179496592Y-121664828D02*
X179353735Y-121629114D01*
X179353735Y-121629114D02*
X179068021Y-121629114D01*
X179068021Y-121629114D02*
X178996592Y-121664828D01*
X178996592Y-121664828D02*
X178960878Y-121700543D01*
X178960878Y-121700543D02*
X178925164Y-121771971D01*
X178925164Y-121771971D02*
X178925164Y-121914828D01*
X178925164Y-121914828D02*
X178960878Y-121986257D01*
X178960878Y-121986257D02*
X178996592Y-122021971D01*
X178996592Y-122021971D02*
X179068021Y-122057685D01*
X179068021Y-122057685D02*
X179246592Y-122057685D01*
X179246592Y-122057685D02*
X179318021Y-122021971D01*
X179318021Y-122021971D02*
X179353735Y-121986257D01*
X179353735Y-121986257D02*
X179389450Y-121914828D01*
X179389450Y-121914828D02*
X179389450Y-121771971D01*
X179389450Y-121771971D02*
X179353735Y-121700543D01*
X179353735Y-121700543D02*
X179318021Y-121664828D01*
X179318021Y-121664828D02*
X179246592Y-121629114D01*
X109755164Y-96943400D02*
X109398021Y-97193400D01*
X109755164Y-97371971D02*
X109005164Y-97371971D01*
X109005164Y-97371971D02*
X109005164Y-97086257D01*
X109005164Y-97086257D02*
X109040878Y-97014828D01*
X109040878Y-97014828D02*
X109076592Y-96979114D01*
X109076592Y-96979114D02*
X109148021Y-96943400D01*
X109148021Y-96943400D02*
X109255164Y-96943400D01*
X109255164Y-96943400D02*
X109326592Y-96979114D01*
X109326592Y-96979114D02*
X109362307Y-97014828D01*
X109362307Y-97014828D02*
X109398021Y-97086257D01*
X109398021Y-97086257D02*
X109398021Y-97371971D01*
X109755164Y-96229114D02*
X109755164Y-96657685D01*
X109755164Y-96443400D02*
X109005164Y-96443400D01*
X109005164Y-96443400D02*
X109112307Y-96514828D01*
X109112307Y-96514828D02*
X109183735Y-96586257D01*
X109183735Y-96586257D02*
X109219450Y-96657685D01*
X135122135Y-99469543D02*
X135157850Y-99505257D01*
X135157850Y-99505257D02*
X135193564Y-99612400D01*
X135193564Y-99612400D02*
X135193564Y-99683828D01*
X135193564Y-99683828D02*
X135157850Y-99790971D01*
X135157850Y-99790971D02*
X135086421Y-99862400D01*
X135086421Y-99862400D02*
X135014992Y-99898114D01*
X135014992Y-99898114D02*
X134872135Y-99933828D01*
X134872135Y-99933828D02*
X134764992Y-99933828D01*
X134764992Y-99933828D02*
X134622135Y-99898114D01*
X134622135Y-99898114D02*
X134550707Y-99862400D01*
X134550707Y-99862400D02*
X134479278Y-99790971D01*
X134479278Y-99790971D02*
X134443564Y-99683828D01*
X134443564Y-99683828D02*
X134443564Y-99612400D01*
X134443564Y-99612400D02*
X134479278Y-99505257D01*
X134479278Y-99505257D02*
X134514992Y-99469543D01*
X134514992Y-99183828D02*
X134479278Y-99148114D01*
X134479278Y-99148114D02*
X134443564Y-99076686D01*
X134443564Y-99076686D02*
X134443564Y-98898114D01*
X134443564Y-98898114D02*
X134479278Y-98826686D01*
X134479278Y-98826686D02*
X134514992Y-98790971D01*
X134514992Y-98790971D02*
X134586421Y-98755257D01*
X134586421Y-98755257D02*
X134657850Y-98755257D01*
X134657850Y-98755257D02*
X134764992Y-98790971D01*
X134764992Y-98790971D02*
X135193564Y-99219543D01*
X135193564Y-99219543D02*
X135193564Y-98755257D01*
X134693564Y-98112400D02*
X135193564Y-98112400D01*
X134407850Y-98290971D02*
X134943564Y-98469542D01*
X134943564Y-98469542D02*
X134943564Y-98005257D01*
X182083735Y-122820543D02*
X182119450Y-122856257D01*
X182119450Y-122856257D02*
X182155164Y-122963400D01*
X182155164Y-122963400D02*
X182155164Y-123034828D01*
X182155164Y-123034828D02*
X182119450Y-123141971D01*
X182119450Y-123141971D02*
X182048021Y-123213400D01*
X182048021Y-123213400D02*
X181976592Y-123249114D01*
X181976592Y-123249114D02*
X181833735Y-123284828D01*
X181833735Y-123284828D02*
X181726592Y-123284828D01*
X181726592Y-123284828D02*
X181583735Y-123249114D01*
X181583735Y-123249114D02*
X181512307Y-123213400D01*
X181512307Y-123213400D02*
X181440878Y-123141971D01*
X181440878Y-123141971D02*
X181405164Y-123034828D01*
X181405164Y-123034828D02*
X181405164Y-122963400D01*
X181405164Y-122963400D02*
X181440878Y-122856257D01*
X181440878Y-122856257D02*
X181476592Y-122820543D01*
X182155164Y-122106257D02*
X182155164Y-122534828D01*
X182155164Y-122320543D02*
X181405164Y-122320543D01*
X181405164Y-122320543D02*
X181512307Y-122391971D01*
X181512307Y-122391971D02*
X181583735Y-122463400D01*
X181583735Y-122463400D02*
X181619450Y-122534828D01*
X181405164Y-121641971D02*
X181405164Y-121570542D01*
X181405164Y-121570542D02*
X181440878Y-121499114D01*
X181440878Y-121499114D02*
X181476592Y-121463400D01*
X181476592Y-121463400D02*
X181548021Y-121427685D01*
X181548021Y-121427685D02*
X181690878Y-121391971D01*
X181690878Y-121391971D02*
X181869450Y-121391971D01*
X181869450Y-121391971D02*
X182012307Y-121427685D01*
X182012307Y-121427685D02*
X182083735Y-121463400D01*
X182083735Y-121463400D02*
X182119450Y-121499114D01*
X182119450Y-121499114D02*
X182155164Y-121570542D01*
X182155164Y-121570542D02*
X182155164Y-121641971D01*
X182155164Y-121641971D02*
X182119450Y-121713400D01*
X182119450Y-121713400D02*
X182083735Y-121749114D01*
X182083735Y-121749114D02*
X182012307Y-121784828D01*
X182012307Y-121784828D02*
X181869450Y-121820542D01*
X181869450Y-121820542D02*
X181690878Y-121820542D01*
X181690878Y-121820542D02*
X181548021Y-121784828D01*
X181548021Y-121784828D02*
X181476592Y-121749114D01*
X181476592Y-121749114D02*
X181440878Y-121713400D01*
X181440878Y-121713400D02*
X181405164Y-121641971D01*
X180190999Y-103606135D02*
X180155285Y-103641850D01*
X180155285Y-103641850D02*
X180048142Y-103677564D01*
X180048142Y-103677564D02*
X179976714Y-103677564D01*
X179976714Y-103677564D02*
X179869571Y-103641850D01*
X179869571Y-103641850D02*
X179798142Y-103570421D01*
X179798142Y-103570421D02*
X179762428Y-103498992D01*
X179762428Y-103498992D02*
X179726714Y-103356135D01*
X179726714Y-103356135D02*
X179726714Y-103248992D01*
X179726714Y-103248992D02*
X179762428Y-103106135D01*
X179762428Y-103106135D02*
X179798142Y-103034707D01*
X179798142Y-103034707D02*
X179869571Y-102963278D01*
X179869571Y-102963278D02*
X179976714Y-102927564D01*
X179976714Y-102927564D02*
X180048142Y-102927564D01*
X180048142Y-102927564D02*
X180155285Y-102963278D01*
X180155285Y-102963278D02*
X180190999Y-102998992D01*
X180905285Y-103677564D02*
X180476714Y-103677564D01*
X180690999Y-103677564D02*
X180690999Y-102927564D01*
X180690999Y-102927564D02*
X180619571Y-103034707D01*
X180619571Y-103034707D02*
X180548142Y-103106135D01*
X180548142Y-103106135D02*
X180476714Y-103141850D01*
X186980999Y-118927564D02*
X186730999Y-118570421D01*
X186552428Y-118927564D02*
X186552428Y-118177564D01*
X186552428Y-118177564D02*
X186838142Y-118177564D01*
X186838142Y-118177564D02*
X186909571Y-118213278D01*
X186909571Y-118213278D02*
X186945285Y-118248992D01*
X186945285Y-118248992D02*
X186980999Y-118320421D01*
X186980999Y-118320421D02*
X186980999Y-118427564D01*
X186980999Y-118427564D02*
X186945285Y-118498992D01*
X186945285Y-118498992D02*
X186909571Y-118534707D01*
X186909571Y-118534707D02*
X186838142Y-118570421D01*
X186838142Y-118570421D02*
X186552428Y-118570421D01*
X187623857Y-118177564D02*
X187480999Y-118177564D01*
X187480999Y-118177564D02*
X187409571Y-118213278D01*
X187409571Y-118213278D02*
X187373857Y-118248992D01*
X187373857Y-118248992D02*
X187302428Y-118356135D01*
X187302428Y-118356135D02*
X187266714Y-118498992D01*
X187266714Y-118498992D02*
X187266714Y-118784707D01*
X187266714Y-118784707D02*
X187302428Y-118856135D01*
X187302428Y-118856135D02*
X187338142Y-118891850D01*
X187338142Y-118891850D02*
X187409571Y-118927564D01*
X187409571Y-118927564D02*
X187552428Y-118927564D01*
X187552428Y-118927564D02*
X187623857Y-118891850D01*
X187623857Y-118891850D02*
X187659571Y-118856135D01*
X187659571Y-118856135D02*
X187695285Y-118784707D01*
X187695285Y-118784707D02*
X187695285Y-118606135D01*
X187695285Y-118606135D02*
X187659571Y-118534707D01*
X187659571Y-118534707D02*
X187623857Y-118498992D01*
X187623857Y-118498992D02*
X187552428Y-118463278D01*
X187552428Y-118463278D02*
X187409571Y-118463278D01*
X187409571Y-118463278D02*
X187338142Y-118498992D01*
X187338142Y-118498992D02*
X187302428Y-118534707D01*
X187302428Y-118534707D02*
X187266714Y-118606135D01*
X145453735Y-133520543D02*
X145489450Y-133556257D01*
X145489450Y-133556257D02*
X145525164Y-133663400D01*
X145525164Y-133663400D02*
X145525164Y-133734828D01*
X145525164Y-133734828D02*
X145489450Y-133841971D01*
X145489450Y-133841971D02*
X145418021Y-133913400D01*
X145418021Y-133913400D02*
X145346592Y-133949114D01*
X145346592Y-133949114D02*
X145203735Y-133984828D01*
X145203735Y-133984828D02*
X145096592Y-133984828D01*
X145096592Y-133984828D02*
X144953735Y-133949114D01*
X144953735Y-133949114D02*
X144882307Y-133913400D01*
X144882307Y-133913400D02*
X144810878Y-133841971D01*
X144810878Y-133841971D02*
X144775164Y-133734828D01*
X144775164Y-133734828D02*
X144775164Y-133663400D01*
X144775164Y-133663400D02*
X144810878Y-133556257D01*
X144810878Y-133556257D02*
X144846592Y-133520543D01*
X145525164Y-132806257D02*
X145525164Y-133234828D01*
X145525164Y-133020543D02*
X144775164Y-133020543D01*
X144775164Y-133020543D02*
X144882307Y-133091971D01*
X144882307Y-133091971D02*
X144953735Y-133163400D01*
X144953735Y-133163400D02*
X144989450Y-133234828D01*
X145525164Y-132449114D02*
X145525164Y-132306257D01*
X145525164Y-132306257D02*
X145489450Y-132234828D01*
X145489450Y-132234828D02*
X145453735Y-132199114D01*
X145453735Y-132199114D02*
X145346592Y-132127685D01*
X145346592Y-132127685D02*
X145203735Y-132091971D01*
X145203735Y-132091971D02*
X144918021Y-132091971D01*
X144918021Y-132091971D02*
X144846592Y-132127685D01*
X144846592Y-132127685D02*
X144810878Y-132163400D01*
X144810878Y-132163400D02*
X144775164Y-132234828D01*
X144775164Y-132234828D02*
X144775164Y-132377685D01*
X144775164Y-132377685D02*
X144810878Y-132449114D01*
X144810878Y-132449114D02*
X144846592Y-132484828D01*
X144846592Y-132484828D02*
X144918021Y-132520542D01*
X144918021Y-132520542D02*
X145096592Y-132520542D01*
X145096592Y-132520542D02*
X145168021Y-132484828D01*
X145168021Y-132484828D02*
X145203735Y-132449114D01*
X145203735Y-132449114D02*
X145239450Y-132377685D01*
X145239450Y-132377685D02*
X145239450Y-132234828D01*
X145239450Y-132234828D02*
X145203735Y-132163400D01*
X145203735Y-132163400D02*
X145168021Y-132127685D01*
X145168021Y-132127685D02*
X145096592Y-132091971D01*
D11*
X176401000Y-131273400D02*
X176661000Y-131273400D01*
X176661000Y-131273400D02*
X176661000Y-132518400D01*
X181851000Y-131273400D02*
X181591000Y-131273400D01*
X176401000Y-128548400D02*
X176401000Y-131273400D01*
X176401000Y-128548400D02*
X176401000Y-125823400D01*
X181851000Y-128548400D02*
X181851000Y-131273400D01*
X181851000Y-128548400D02*
X181851000Y-125823400D01*
X176401000Y-125823400D02*
X176661000Y-125823400D01*
X181851000Y-125823400D02*
X181591000Y-125823400D01*
X158356000Y-125098400D02*
X158356000Y-117798400D01*
X163856000Y-117798400D02*
X162706000Y-117798400D01*
X163856000Y-125098400D02*
X163856000Y-117798400D01*
X142016000Y-116606236D02*
X142016000Y-116390564D01*
X142736000Y-116606236D02*
X142736000Y-116390564D01*
X145464400Y-108707980D02*
X145464400Y-108426820D01*
X146484400Y-108707980D02*
X146484400Y-108426820D01*
X146264400Y-125012980D02*
X146264400Y-124731820D01*
X147284400Y-125012980D02*
X147284400Y-124731820D01*
X125654400Y-97117980D02*
X125654400Y-96836820D01*
X126674400Y-97117980D02*
X126674400Y-96836820D01*
X114254400Y-106567980D02*
X114254400Y-106286820D01*
X115274400Y-106567980D02*
X115274400Y-106286820D01*
D12*
X181036000Y-93828400D02*
X177036000Y-93828400D01*
X181036000Y-98868400D02*
X177036000Y-98868400D01*
D13*
X183581000Y-98843400D02*
G75*
G03*
X183581000Y-98843400I-100000J0D01*
G01*
D11*
X184968164Y-113058400D02*
X185183836Y-113058400D01*
X184968164Y-113778400D02*
X185183836Y-113778400D01*
X175026000Y-122130564D02*
X175026000Y-122346236D01*
X175746000Y-122130564D02*
X175746000Y-122346236D01*
X184968164Y-115088400D02*
X185183836Y-115088400D01*
X184968164Y-115808400D02*
X185183836Y-115808400D01*
X153318164Y-114478400D02*
X153533836Y-114478400D01*
X153318164Y-115198400D02*
X153533836Y-115198400D01*
X174544400Y-111909900D02*
X174544400Y-112559900D01*
X174544400Y-119129900D02*
X174544400Y-118479900D01*
X175194400Y-111909900D02*
X174544400Y-111909900D01*
X175194400Y-119129900D02*
X174544400Y-119129900D01*
X181114400Y-111909900D02*
X181764400Y-111909900D01*
X181114400Y-119129900D02*
X181764400Y-119129900D01*
X181764400Y-111909900D02*
X181764400Y-112559900D01*
X128356000Y-110098400D02*
X128356000Y-102798400D01*
X133856000Y-102798400D02*
X132706000Y-102798400D01*
X133856000Y-110098400D02*
X133856000Y-102798400D01*
X153318164Y-113488400D02*
X153533836Y-113488400D01*
X153318164Y-114208400D02*
X153533836Y-114208400D01*
X178836000Y-107796236D02*
X178836000Y-107580564D01*
X179556000Y-107796236D02*
X179556000Y-107580564D01*
X114427252Y-111913400D02*
X113904748Y-111913400D01*
X114427252Y-113383400D02*
X113904748Y-113383400D01*
X148356000Y-135098400D02*
X148356000Y-127798400D01*
X153856000Y-127798400D02*
X152706000Y-127798400D01*
X153856000Y-135098400D02*
X153856000Y-127798400D01*
X135764400Y-134787980D02*
X135764400Y-134506820D01*
X136784400Y-134787980D02*
X136784400Y-134506820D01*
X181164400Y-108022400D02*
X184464400Y-108022400D01*
X184464400Y-108022400D02*
X184464400Y-104022400D01*
X127366000Y-112480564D02*
X127366000Y-112696236D01*
X128086000Y-112480564D02*
X128086000Y-112696236D01*
X180418164Y-135108400D02*
X180633836Y-135108400D01*
X180418164Y-135828400D02*
X180633836Y-135828400D01*
X118356000Y-125098400D02*
X118356000Y-117798400D01*
X123856000Y-117798400D02*
X122706000Y-117798400D01*
X123856000Y-125098400D02*
X123856000Y-117798400D01*
X148356000Y-110098400D02*
X148356000Y-102798400D01*
X153856000Y-102798400D02*
X152706000Y-102798400D01*
X153856000Y-110098400D02*
X153856000Y-102798400D01*
X108537252Y-105663400D02*
X108014748Y-105663400D01*
X108537252Y-107133400D02*
X108014748Y-107133400D01*
X174186000Y-107416236D02*
X174186000Y-107200564D01*
X174906000Y-107416236D02*
X174906000Y-107200564D01*
X153208164Y-116258400D02*
X153423836Y-116258400D01*
X153208164Y-116978400D02*
X153423836Y-116978400D01*
X118356000Y-100098400D02*
X118356000Y-92798400D01*
X123856000Y-92798400D02*
X122706000Y-92798400D01*
X123856000Y-100098400D02*
X123856000Y-92798400D01*
X185183836Y-119118400D02*
X184968164Y-119118400D01*
X185183836Y-119838400D02*
X184968164Y-119838400D01*
X184736000Y-107356236D02*
X184736000Y-107140564D01*
X185456000Y-107356236D02*
X185456000Y-107140564D01*
X184988164Y-112028400D02*
X185203836Y-112028400D01*
X184988164Y-112748400D02*
X185203836Y-112748400D01*
X128356000Y-100098400D02*
X128356000Y-92798400D01*
X133856000Y-92798400D02*
X132706000Y-92798400D01*
X133856000Y-100098400D02*
X133856000Y-92798400D01*
X128356000Y-135098400D02*
X128356000Y-127798400D01*
X133856000Y-127798400D02*
X132706000Y-127798400D01*
X133856000Y-135098400D02*
X133856000Y-127798400D01*
X183256000Y-123918400D02*
X184316000Y-123918400D01*
X183256000Y-124978400D02*
X183256000Y-123918400D01*
X183256000Y-125978400D02*
X185376000Y-125978400D01*
X155676000Y-105197820D02*
X155676000Y-105478980D01*
X156696000Y-105197820D02*
X156696000Y-105478980D01*
X140216000Y-115560564D02*
X140216000Y-115776236D01*
X140936000Y-115560564D02*
X140936000Y-115776236D01*
X151416000Y-114450564D02*
X151416000Y-114666236D01*
X152136000Y-114450564D02*
X152136000Y-114666236D01*
X140966000Y-113200564D02*
X140966000Y-113416236D01*
X141686000Y-113200564D02*
X141686000Y-113416236D01*
X165753500Y-135920658D02*
X165753500Y-135446142D01*
X166798500Y-135920658D02*
X166798500Y-135446142D01*
X116806000Y-123323980D02*
X116806000Y-123042820D01*
X117826000Y-123323980D02*
X117826000Y-123042820D01*
X165583500Y-92775658D02*
X165583500Y-92301142D01*
X166628500Y-92775658D02*
X166628500Y-92301142D01*
X183723836Y-108308400D02*
X183508164Y-108308400D01*
X183723836Y-109028400D02*
X183508164Y-109028400D01*
X156004400Y-124947980D02*
X156004400Y-124666820D01*
X157024400Y-124947980D02*
X157024400Y-124666820D01*
X156006000Y-133518980D02*
X156006000Y-133237820D01*
X157026000Y-133518980D02*
X157026000Y-133237820D01*
X128466000Y-111798400D02*
X128466000Y-117118400D01*
X128466000Y-117118400D02*
X139766000Y-117128400D01*
X131976000Y-111868400D02*
X131976000Y-117068400D01*
X131976000Y-117068400D02*
X137276000Y-117068400D01*
X133626000Y-111868400D02*
X131976000Y-111868400D01*
X137276000Y-111868400D02*
X135626000Y-111868400D01*
X137276000Y-117068400D02*
X137276000Y-111868400D01*
X139766000Y-111808400D02*
X128466000Y-111798400D01*
X139766000Y-117128400D02*
X139766000Y-111808400D01*
X133626000Y-111868400D02*
G75*
G03*
X135626000Y-111868400I1000000J0D01*
G01*
X148356000Y-100098400D02*
X148356000Y-92798400D01*
X153856000Y-92798400D02*
X152706000Y-92798400D01*
X153856000Y-100098400D02*
X153856000Y-92798400D01*
X175306000Y-107416236D02*
X175306000Y-107200564D01*
X176026000Y-107416236D02*
X176026000Y-107200564D01*
X158356000Y-110098400D02*
X158356000Y-102798400D01*
X163856000Y-102798400D02*
X162706000Y-102798400D01*
X163856000Y-110098400D02*
X163856000Y-102798400D01*
X115404400Y-96437980D02*
X115404400Y-96156820D01*
X116424400Y-96437980D02*
X116424400Y-96156820D01*
X155776000Y-101498980D02*
X155776000Y-101217820D01*
X156796000Y-101498980D02*
X156796000Y-101217820D01*
X118356000Y-135098400D02*
X118356000Y-127798400D01*
X123856000Y-127798400D02*
X122706000Y-127798400D01*
X123856000Y-135098400D02*
X123856000Y-127798400D01*
X183986000Y-122330564D02*
X183986000Y-122546236D01*
X184706000Y-122330564D02*
X184706000Y-122546236D01*
X109554400Y-114362400D02*
X109554400Y-115622400D01*
X109554400Y-121182400D02*
X109554400Y-119922400D01*
X113314400Y-114362400D02*
X109554400Y-114362400D01*
X115564400Y-121182400D02*
X109554400Y-121182400D01*
X158366000Y-117548400D02*
X158366000Y-110248400D01*
X163866000Y-110248400D02*
X162716000Y-110248400D01*
X163866000Y-117548400D02*
X163866000Y-110248400D01*
X138356000Y-135098400D02*
X138356000Y-127798400D01*
X143856000Y-127798400D02*
X142706000Y-127798400D01*
X143856000Y-135098400D02*
X143856000Y-127798400D01*
X125894400Y-134172980D02*
X125894400Y-133891820D01*
X126914400Y-134172980D02*
X126914400Y-133891820D01*
X148148164Y-113988400D02*
X148363836Y-113988400D01*
X148148164Y-114708400D02*
X148363836Y-114708400D01*
X174016000Y-121960564D02*
X174016000Y-122176236D01*
X174736000Y-121960564D02*
X174736000Y-122176236D01*
X184986000Y-122330564D02*
X184986000Y-122546236D01*
X185706000Y-122330564D02*
X185706000Y-122546236D01*
X125874400Y-124002980D02*
X125874400Y-123721820D01*
X126894400Y-124002980D02*
X126894400Y-123721820D01*
X116316000Y-134518980D02*
X116316000Y-134237820D01*
X117336000Y-134518980D02*
X117336000Y-134237820D01*
X135434400Y-108367980D02*
X135434400Y-108086820D01*
X136454400Y-108367980D02*
X136454400Y-108086820D01*
X135704400Y-123867980D02*
X135704400Y-123586820D01*
X136724400Y-123867980D02*
X136724400Y-123586820D01*
X181768164Y-99548400D02*
X181983836Y-99548400D01*
X181768164Y-100268400D02*
X181983836Y-100268400D01*
X125424400Y-108727980D02*
X125424400Y-108446820D01*
X126444400Y-108727980D02*
X126444400Y-108446820D01*
X176306000Y-107416236D02*
X176306000Y-107200564D01*
X177026000Y-107416236D02*
X177026000Y-107200564D01*
X148128164Y-116038400D02*
X148343836Y-116038400D01*
X148128164Y-116758400D02*
X148343836Y-116758400D01*
X138356000Y-110098400D02*
X138356000Y-102798400D01*
X143856000Y-102798400D02*
X142706000Y-102798400D01*
X143856000Y-110098400D02*
X143856000Y-102798400D01*
X106276000Y-97890900D02*
X106276000Y-100575900D01*
X106276000Y-100575900D02*
X108196000Y-100575900D01*
X108196000Y-100575900D02*
X108196000Y-97890900D01*
X184968164Y-114088400D02*
X185183836Y-114088400D01*
X184968164Y-114808400D02*
X185183836Y-114808400D01*
X158356000Y-100098400D02*
X158356000Y-92798400D01*
X163856000Y-92798400D02*
X162706000Y-92798400D01*
X163856000Y-100098400D02*
X163856000Y-92798400D01*
X138356000Y-125098400D02*
X138356000Y-117798400D01*
X143856000Y-117798400D02*
X142706000Y-117798400D01*
X143856000Y-125098400D02*
X143856000Y-117798400D01*
X148356000Y-125098400D02*
X148356000Y-117798400D01*
X153856000Y-117798400D02*
X152706000Y-117798400D01*
X153856000Y-125098400D02*
X153856000Y-117798400D01*
X108537252Y-111683400D02*
X108014748Y-111683400D01*
X108537252Y-113153400D02*
X108014748Y-113153400D01*
X138356000Y-100098400D02*
X138356000Y-92798400D01*
X143856000Y-92798400D02*
X142706000Y-92798400D01*
X143856000Y-100098400D02*
X143856000Y-92798400D01*
X108537252Y-108673400D02*
X108014748Y-108673400D01*
X108537252Y-110143400D02*
X108014748Y-110143400D01*
X177636000Y-100770564D02*
X177636000Y-100986236D01*
X178356000Y-100770564D02*
X178356000Y-100986236D01*
X109896000Y-124828400D02*
X109896000Y-126088400D01*
X109896000Y-131648400D02*
X109896000Y-130388400D01*
X113656000Y-124828400D02*
X109896000Y-124828400D01*
X115906000Y-131648400D02*
X109896000Y-131648400D01*
X158356000Y-135098400D02*
X158356000Y-127798400D01*
X163856000Y-127798400D02*
X162706000Y-127798400D01*
X163856000Y-135098400D02*
X163856000Y-127798400D01*
X156906000Y-115847820D02*
X156906000Y-116128980D01*
X157926000Y-115847820D02*
X157926000Y-116128980D01*
X128356000Y-125098400D02*
X128356000Y-117798400D01*
X133856000Y-117798400D02*
X132706000Y-117798400D01*
X133856000Y-125098400D02*
X133856000Y-117798400D01*
X184968164Y-117078400D02*
X185183836Y-117078400D01*
X184968164Y-117798400D02*
X185183836Y-117798400D01*
X148148164Y-114978400D02*
X148363836Y-114978400D01*
X148148164Y-115698400D02*
X148363836Y-115698400D01*
X177536000Y-122306236D02*
X177536000Y-122090564D01*
X178256000Y-122306236D02*
X178256000Y-122090564D01*
X180623836Y-134088400D02*
X180408164Y-134088400D01*
X180623836Y-134808400D02*
X180408164Y-134808400D01*
X118356000Y-110098400D02*
X118356000Y-102798400D01*
X123856000Y-102798400D02*
X122706000Y-102798400D01*
X123856000Y-110098400D02*
X123856000Y-102798400D01*
X145154400Y-99097980D02*
X145154400Y-98816820D01*
X146174400Y-99097980D02*
X146174400Y-98816820D01*
X184968164Y-116088400D02*
X185183836Y-116088400D01*
X184968164Y-116808400D02*
X185183836Y-116808400D01*
X176466000Y-122296236D02*
X176466000Y-122080564D01*
X177186000Y-122296236D02*
X177186000Y-122080564D01*
X109076000Y-98926236D02*
X109076000Y-98710564D01*
X109796000Y-98926236D02*
X109796000Y-98710564D01*
X135774400Y-99127980D02*
X135774400Y-98846820D01*
X136794400Y-99127980D02*
X136794400Y-98846820D01*
X182986000Y-122330564D02*
X182986000Y-122546236D01*
X183706000Y-122330564D02*
X183706000Y-122546236D01*
X181908164Y-103018400D02*
X182123836Y-103018400D01*
X181908164Y-103738400D02*
X182123836Y-103738400D01*
X184968164Y-118118400D02*
X185183836Y-118118400D01*
X184968164Y-118838400D02*
X185183836Y-118838400D01*
X146106000Y-133178980D02*
X146106000Y-132897820D01*
X147126000Y-133178980D02*
X147126000Y-132897820D01*
M02*
