%TF.GenerationSoftware,KiCad,Pcbnew,8.0.0-rc1*%
%TF.CreationDate,2025-03-14T12:06:20+03:00*%
%TF.ProjectId,Movita_IO_Expansion_Board_V2.0,4d6f7669-7461-45f4-994f-5f457870616e,REV1*%
%TF.SameCoordinates,Original*%
%TF.FileFunction,Drillmap*%
%TF.FilePolarity,Positive*%
%FSLAX45Y45*%
G04 Gerber Fmt 4.5, Leading zero omitted, Abs format (unit mm)*
G04 Created by KiCad (PCBNEW 8.0.0-rc1) date 2025-03-14 12:06:20*
%MOMM*%
%LPD*%
G01*
G04 APERTURE LIST*
%ADD10C,0.050000*%
%ADD11C,0.200000*%
G04 APERTURE END LIST*
D10*
X15547010Y-9802830D02*
X7261007Y-9802830D01*
X7261007Y-5921000D01*
X8880010Y-5921000D01*
X8880010Y-5094839D01*
X8880000Y-4992830D01*
X15547010Y-4992830D01*
X15547010Y-9802830D01*
D11*
X7519284Y-10116814D02*
X7519284Y-9916814D01*
X7519284Y-9916814D02*
X7566903Y-9916814D01*
X7566903Y-9916814D02*
X7595474Y-9926337D01*
X7595474Y-9926337D02*
X7614522Y-9945385D01*
X7614522Y-9945385D02*
X7624046Y-9964433D01*
X7624046Y-9964433D02*
X7633569Y-10002528D01*
X7633569Y-10002528D02*
X7633569Y-10031099D01*
X7633569Y-10031099D02*
X7624046Y-10069194D01*
X7624046Y-10069194D02*
X7614522Y-10088242D01*
X7614522Y-10088242D02*
X7595474Y-10107290D01*
X7595474Y-10107290D02*
X7566903Y-10116814D01*
X7566903Y-10116814D02*
X7519284Y-10116814D01*
X7719284Y-10116814D02*
X7719284Y-9983480D01*
X7719284Y-10021575D02*
X7728808Y-10002528D01*
X7728808Y-10002528D02*
X7738331Y-9993004D01*
X7738331Y-9993004D02*
X7757379Y-9983480D01*
X7757379Y-9983480D02*
X7776427Y-9983480D01*
X7843093Y-10116814D02*
X7843093Y-9983480D01*
X7843093Y-9916814D02*
X7833569Y-9926337D01*
X7833569Y-9926337D02*
X7843093Y-9935861D01*
X7843093Y-9935861D02*
X7852617Y-9926337D01*
X7852617Y-9926337D02*
X7843093Y-9916814D01*
X7843093Y-9916814D02*
X7843093Y-9935861D01*
X7966903Y-10116814D02*
X7947855Y-10107290D01*
X7947855Y-10107290D02*
X7938331Y-10088242D01*
X7938331Y-10088242D02*
X7938331Y-9916814D01*
X8071665Y-10116814D02*
X8052617Y-10107290D01*
X8052617Y-10107290D02*
X8043093Y-10088242D01*
X8043093Y-10088242D02*
X8043093Y-9916814D01*
X8300236Y-10116814D02*
X8300236Y-9916814D01*
X8300236Y-9916814D02*
X8366903Y-10059671D01*
X8366903Y-10059671D02*
X8433570Y-9916814D01*
X8433570Y-9916814D02*
X8433570Y-10116814D01*
X8614522Y-10116814D02*
X8614522Y-10012052D01*
X8614522Y-10012052D02*
X8604998Y-9993004D01*
X8604998Y-9993004D02*
X8585951Y-9983480D01*
X8585951Y-9983480D02*
X8547855Y-9983480D01*
X8547855Y-9983480D02*
X8528808Y-9993004D01*
X8614522Y-10107290D02*
X8595474Y-10116814D01*
X8595474Y-10116814D02*
X8547855Y-10116814D01*
X8547855Y-10116814D02*
X8528808Y-10107290D01*
X8528808Y-10107290D02*
X8519284Y-10088242D01*
X8519284Y-10088242D02*
X8519284Y-10069194D01*
X8519284Y-10069194D02*
X8528808Y-10050147D01*
X8528808Y-10050147D02*
X8547855Y-10040623D01*
X8547855Y-10040623D02*
X8595474Y-10040623D01*
X8595474Y-10040623D02*
X8614522Y-10031099D01*
X8709760Y-9983480D02*
X8709760Y-10183480D01*
X8709760Y-9993004D02*
X8728808Y-9983480D01*
X8728808Y-9983480D02*
X8766903Y-9983480D01*
X8766903Y-9983480D02*
X8785951Y-9993004D01*
X8785951Y-9993004D02*
X8795474Y-10002528D01*
X8795474Y-10002528D02*
X8804998Y-10021575D01*
X8804998Y-10021575D02*
X8804998Y-10078718D01*
X8804998Y-10078718D02*
X8795474Y-10097766D01*
X8795474Y-10097766D02*
X8785951Y-10107290D01*
X8785951Y-10107290D02*
X8766903Y-10116814D01*
X8766903Y-10116814D02*
X8728808Y-10116814D01*
X8728808Y-10116814D02*
X8709760Y-10107290D01*
X8890712Y-10097766D02*
X8900236Y-10107290D01*
X8900236Y-10107290D02*
X8890712Y-10116814D01*
X8890712Y-10116814D02*
X8881189Y-10107290D01*
X8881189Y-10107290D02*
X8890712Y-10097766D01*
X8890712Y-10097766D02*
X8890712Y-10116814D01*
X8890712Y-9993004D02*
X8900236Y-10002528D01*
X8900236Y-10002528D02*
X8890712Y-10012052D01*
X8890712Y-10012052D02*
X8881189Y-10002528D01*
X8881189Y-10002528D02*
X8890712Y-9993004D01*
X8890712Y-9993004D02*
X8890712Y-10012052D01*
M02*
