G04 #@! TF.GenerationSoftware,KiCad,Pcbnew,8.0.0-rc1*
G04 #@! TF.CreationDate,2025-03-14T12:06:17+03:00*
G04 #@! TF.ProjectId,Movita_IO_Expansion_Board_V2.0,4d6f7669-7461-45f4-994f-5f457870616e,REV1*
G04 #@! TF.SameCoordinates,Original*
G04 #@! TF.FileFunction,Copper,L2,Inr*
G04 #@! TF.FilePolarity,Positive*
%FSLAX46Y46*%
G04 Gerber Fmt 4.6, Leading zero omitted, Abs format (unit mm)*
G04 Created by KiCad (PCBNEW 8.0.0-rc1) date 2025-03-14 12:06:17*
%MOMM*%
%LPD*%
G01*
G04 APERTURE LIST*
G04 Aperture macros list*
%AMRoundRect*
0 Rectangle with rounded corners*
0 $1 Rounding radius*
0 $2 $3 $4 $5 $6 $7 $8 $9 X,Y pos of 4 corners*
0 Add a 4 corners polygon primitive as box body*
4,1,4,$2,$3,$4,$5,$6,$7,$8,$9,$2,$3,0*
0 Add four circle primitives for the rounded corners*
1,1,$1+$1,$2,$3*
1,1,$1+$1,$4,$5*
1,1,$1+$1,$6,$7*
1,1,$1+$1,$8,$9*
0 Add four rect primitives between the rounded corners*
20,1,$1+$1,$2,$3,$4,$5,0*
20,1,$1+$1,$4,$5,$6,$7,0*
20,1,$1+$1,$6,$7,$8,$9,0*
20,1,$1+$1,$8,$9,$2,$3,0*%
G04 Aperture macros list end*
G04 #@! TA.AperFunction,ComponentPad*
%ADD10C,0.600000*%
G04 #@! TD*
G04 #@! TA.AperFunction,ComponentPad*
%ADD11C,1.300000*%
G04 #@! TD*
G04 #@! TA.AperFunction,ComponentPad*
%ADD12C,0.900000*%
G04 #@! TD*
G04 #@! TA.AperFunction,ComponentPad*
%ADD13C,6.200000*%
G04 #@! TD*
G04 #@! TA.AperFunction,ComponentPad*
%ADD14RoundRect,0.250000X0.600000X0.725000X-0.600000X0.725000X-0.600000X-0.725000X0.600000X-0.725000X0*%
G04 #@! TD*
G04 #@! TA.AperFunction,ComponentPad*
%ADD15O,1.700000X1.950000*%
G04 #@! TD*
G04 #@! TA.AperFunction,ComponentPad*
%ADD16R,1.350000X1.350000*%
G04 #@! TD*
G04 #@! TA.AperFunction,ComponentPad*
%ADD17O,1.350000X1.350000*%
G04 #@! TD*
G04 #@! TA.AperFunction,ViaPad*
%ADD18C,0.400000*%
G04 #@! TD*
G04 #@! TA.AperFunction,ViaPad*
%ADD19C,0.508000*%
G04 #@! TD*
G04 #@! TA.AperFunction,ViaPad*
%ADD20C,0.600000*%
G04 #@! TD*
G04 APERTURE END LIST*
D10*
X118640000Y-71180000D03*
X119680000Y-71180000D03*
X120773927Y-71180000D03*
D11*
X119680000Y-70146150D03*
D10*
X118640000Y-70146150D03*
X120773927Y-70146150D03*
X118640000Y-69063388D03*
X119680000Y-69063388D03*
X120773927Y-69063388D03*
D12*
X75260097Y-79828297D03*
X76010097Y-77978297D03*
X76010097Y-81678297D03*
X77860097Y-77228297D03*
D13*
X77860097Y-79828297D03*
D12*
X77860097Y-82428297D03*
X79710097Y-77978297D03*
X79710097Y-81678297D03*
X80460097Y-79828297D03*
X148760097Y-79828297D03*
X149510097Y-77978297D03*
X149510097Y-81678297D03*
X151360097Y-77228297D03*
D13*
X151360097Y-79828297D03*
D12*
X151360097Y-82428297D03*
X153210097Y-77978297D03*
X153210097Y-81678297D03*
X153960097Y-79828297D03*
D14*
X138730000Y-90718297D03*
D15*
X136230000Y-90718297D03*
X133730000Y-90718297D03*
X131230000Y-90718297D03*
X128730000Y-90718297D03*
X126230000Y-90718297D03*
X123730000Y-90718297D03*
X121230000Y-90718297D03*
X118730000Y-90718297D03*
D16*
X149932097Y-54090000D03*
D17*
X149932097Y-52090000D03*
X147932097Y-54090000D03*
X147932097Y-52090000D03*
X145932097Y-54090000D03*
X145932097Y-52090000D03*
X143932097Y-54090000D03*
X143932097Y-52090000D03*
X141932097Y-54090000D03*
X141932097Y-52090000D03*
X139932097Y-54090000D03*
X139932097Y-52090000D03*
X137932097Y-54090000D03*
X137932097Y-52090000D03*
D16*
X150560000Y-68630000D03*
D17*
X152560000Y-68630000D03*
X150560000Y-66630000D03*
X152560000Y-66630000D03*
X150560000Y-64630000D03*
X152560000Y-64630000D03*
D18*
X133599990Y-74939990D03*
X152560000Y-94870000D03*
X109800000Y-52930000D03*
X147160000Y-80720000D03*
X130893927Y-75115884D03*
X130889990Y-86359990D03*
X88030000Y-78080000D03*
X140360000Y-85490000D03*
X98599990Y-69849990D03*
X150500000Y-91410000D03*
X101370000Y-87200000D03*
X138880000Y-86890000D03*
X107539990Y-74499990D03*
X153970000Y-91430000D03*
X119150000Y-56000000D03*
X76750000Y-62810000D03*
X125999990Y-68199990D03*
X122450000Y-88920000D03*
X86320000Y-90110000D03*
X133159990Y-80789990D03*
X81200000Y-88670000D03*
X89780000Y-62780000D03*
X78810000Y-60350000D03*
X136910000Y-85410000D03*
X89070000Y-59500000D03*
X142700000Y-82190000D03*
X128789990Y-68479990D03*
X96550000Y-96000000D03*
X150500000Y-89930000D03*
X105549990Y-57169990D03*
X103140000Y-52910000D03*
X96690000Y-70410000D03*
X123809990Y-86459990D03*
X114150000Y-96140000D03*
X89590000Y-75030000D03*
X88250000Y-62750000D03*
X137329990Y-75569990D03*
X102550000Y-82720000D03*
X110233927Y-77425884D03*
X93390000Y-57500000D03*
X91810000Y-54570000D03*
X142540000Y-74830000D03*
X79560000Y-90000000D03*
X107269990Y-65439990D03*
X88310000Y-81160000D03*
X93160000Y-64490000D03*
X102480000Y-79350000D03*
X79760000Y-74500000D03*
X84660000Y-78150000D03*
X118433927Y-79075884D03*
X129860000Y-96140000D03*
X78370000Y-62720000D03*
X99810000Y-88880000D03*
X117829990Y-63779990D03*
X108760000Y-85510000D03*
X104639990Y-86129990D03*
X96600000Y-68790000D03*
X113593927Y-78765884D03*
X106636930Y-83168998D03*
X76730000Y-66280000D03*
X84940000Y-68720000D03*
X96920000Y-53260000D03*
X102370000Y-94680000D03*
X78350000Y-66190000D03*
X116240000Y-96120000D03*
X91750000Y-57460000D03*
X84940000Y-81230000D03*
X147210000Y-91320000D03*
X110680000Y-94640000D03*
X140910000Y-57470000D03*
X134749990Y-77769990D03*
X81230000Y-86960000D03*
X86060000Y-91170000D03*
X135360000Y-53820000D03*
X139940000Y-74830000D03*
X95070000Y-68760000D03*
X132799990Y-77639990D03*
X131829990Y-83219990D03*
X78330000Y-72850000D03*
X119520000Y-92950000D03*
X114843927Y-76515884D03*
X144520000Y-58980000D03*
X152590000Y-93160000D03*
X118303927Y-80335884D03*
X90190000Y-51440000D03*
X79810000Y-72850000D03*
X115220000Y-88090000D03*
X123149990Y-71749990D03*
X116150000Y-93020000D03*
X129563927Y-64798884D03*
X132753927Y-75835884D03*
X135260000Y-86840000D03*
X124590000Y-87710000D03*
X91330000Y-88780000D03*
X143900000Y-85370000D03*
X116003927Y-72795884D03*
X93130000Y-68770000D03*
X91600000Y-68740000D03*
X86450000Y-94350000D03*
X149120000Y-93140000D03*
X116240000Y-94640000D03*
X90720000Y-59440000D03*
X101490000Y-52970000D03*
X74670000Y-94370000D03*
X98370000Y-95970000D03*
X145590000Y-88190000D03*
X110880000Y-90510000D03*
X130093927Y-62165884D03*
X76640000Y-69570000D03*
X82850000Y-90090000D03*
X147160000Y-82200000D03*
X132433927Y-75155884D03*
X133140000Y-92970000D03*
X134199990Y-61729990D03*
X91350000Y-75090000D03*
X145400000Y-76290000D03*
X119900000Y-51400000D03*
X97480000Y-61030000D03*
X144030000Y-56930000D03*
X138550000Y-76480000D03*
X96340000Y-90230000D03*
X145400000Y-77660000D03*
X86560000Y-84360000D03*
X120390000Y-55060000D03*
X108539990Y-83179990D03*
X112500000Y-96090000D03*
X79800000Y-64370000D03*
X115919990Y-86389990D03*
X95040000Y-71840000D03*
X106510000Y-52840000D03*
X102520000Y-77710000D03*
X86230000Y-87010000D03*
X84800000Y-94410000D03*
X97900000Y-87180000D03*
X122579990Y-63989990D03*
X94700000Y-90190000D03*
X134310000Y-55920000D03*
X102500000Y-84370000D03*
X99460000Y-74210000D03*
X78040000Y-94300000D03*
X81360000Y-92680000D03*
X107539990Y-72859990D03*
X127973927Y-62165884D03*
X99810000Y-90250000D03*
X93450000Y-54610000D03*
X121293927Y-79065884D03*
X127210000Y-55040000D03*
X93390000Y-56130000D03*
X145650000Y-83650000D03*
X124750000Y-93030000D03*
X126803927Y-61085884D03*
X131663927Y-61215884D03*
X101130000Y-84370000D03*
X142770000Y-83690000D03*
X136380000Y-63030000D03*
X109163927Y-63905884D03*
X145460000Y-58000000D03*
X105849990Y-69039990D03*
X154030000Y-86890000D03*
X94010000Y-61010000D03*
X140230000Y-80920000D03*
X116120000Y-57070000D03*
X115203927Y-78145884D03*
X99440000Y-77680000D03*
X120870000Y-88570000D03*
X147050000Y-76230000D03*
X102590000Y-72590000D03*
X112379990Y-59519990D03*
X93220000Y-70390000D03*
X134870000Y-94740000D03*
X109030000Y-94700000D03*
X91570000Y-70450000D03*
X93220000Y-82900000D03*
X101000000Y-79350000D03*
X91570000Y-71820000D03*
X89930000Y-82810000D03*
X104020000Y-96100000D03*
X113180000Y-51330000D03*
X95040000Y-82980000D03*
X99450000Y-82810000D03*
X143860000Y-82270000D03*
X128129421Y-80928137D03*
X102540000Y-74240000D03*
X115773927Y-62565884D03*
X147270000Y-85300000D03*
X150740000Y-96270000D03*
X86500000Y-64470000D03*
X88280000Y-84240000D03*
X101060000Y-81000000D03*
X140360000Y-86970000D03*
X98570000Y-53200000D03*
X129860000Y-94660000D03*
X81330000Y-95760000D03*
X116127927Y-68665884D03*
X119059990Y-63789990D03*
X116343927Y-71045884D03*
X129000000Y-81759980D03*
X135310000Y-56770000D03*
X84880000Y-62820000D03*
X126370000Y-94680000D03*
X127970000Y-87300000D03*
X91570000Y-82960000D03*
X136480000Y-54890000D03*
X135480000Y-82580000D03*
X95040000Y-56070000D03*
X150410000Y-88310000D03*
X142040000Y-55560000D03*
X95830000Y-60980000D03*
X111259990Y-58419990D03*
X96690000Y-71890000D03*
X100020000Y-94540000D03*
X142630000Y-76470000D03*
X105770000Y-92900000D03*
X104559990Y-84309990D03*
X77940000Y-86870000D03*
X98480000Y-51580000D03*
X152560000Y-96240000D03*
X137130000Y-56790000D03*
X153940000Y-83790000D03*
X76680000Y-74470000D03*
X101170000Y-74240000D03*
X116630000Y-55290000D03*
X134870000Y-96110000D03*
X111650000Y-51300000D03*
X113903927Y-76975884D03*
X113073927Y-80075884D03*
X139900000Y-93080000D03*
X96440000Y-76760000D03*
X112190000Y-86880000D03*
X135080000Y-51400000D03*
X100209990Y-63989990D03*
X121490000Y-53670000D03*
X84690000Y-75070000D03*
X93170000Y-92810000D03*
X109795649Y-81905510D03*
X146090000Y-55540000D03*
X107300000Y-92930000D03*
X89930000Y-71780000D03*
X117322669Y-73051058D03*
X131580000Y-94650000D03*
X104319990Y-65339990D03*
X139990000Y-96180000D03*
X91330000Y-90260000D03*
X105439990Y-83229990D03*
X140020000Y-55570000D03*
X117960000Y-96000000D03*
X110589990Y-57679990D03*
X143990000Y-88310000D03*
X152350000Y-88300000D03*
X130030000Y-89350000D03*
X90100000Y-57410000D03*
X109043927Y-76295884D03*
X88060000Y-75000000D03*
X128240000Y-93010000D03*
X96370000Y-87150000D03*
X141633286Y-56868283D03*
X101110000Y-72590000D03*
X79780000Y-67840000D03*
X121263927Y-73045884D03*
X145620000Y-85360000D03*
X74540000Y-90020000D03*
X79850000Y-62720000D03*
X76190000Y-88590000D03*
X109060000Y-92990000D03*
X131610000Y-92940000D03*
X112013927Y-80475884D03*
X112530000Y-93010000D03*
X82980000Y-94330000D03*
X148850000Y-89990000D03*
X138340000Y-96130000D03*
X86500000Y-65950000D03*
X86450000Y-95830000D03*
X124840000Y-55020000D03*
X89930000Y-84290000D03*
X115263927Y-80285884D03*
X119610000Y-94570000D03*
X138550000Y-77850000D03*
X128689990Y-69829990D03*
X74540000Y-88650000D03*
X140030000Y-76450000D03*
X126370000Y-96160000D03*
X143990000Y-93150000D03*
X85680000Y-59800000D03*
X143700000Y-76510000D03*
X112500000Y-94720000D03*
X113893927Y-75015884D03*
X139990000Y-94700000D03*
X84910000Y-70430000D03*
X93220000Y-84380000D03*
X104599990Y-85249990D03*
X121250000Y-94720000D03*
X152320000Y-90010000D03*
X113483927Y-71085884D03*
X123782319Y-78968762D03*
X128210000Y-94720000D03*
X88220000Y-64460000D03*
X89870000Y-65880000D03*
X119829990Y-86229990D03*
X79600000Y-92620000D03*
X84850000Y-65900000D03*
X95830000Y-59610000D03*
X134100000Y-87570000D03*
X101679990Y-65309990D03*
X89680000Y-88840000D03*
X91320000Y-78170000D03*
X134900000Y-93030000D03*
X81330000Y-94390000D03*
X102400000Y-92970000D03*
X98510000Y-56090000D03*
X132773927Y-79051884D03*
X111339990Y-59469990D03*
X76320000Y-95790000D03*
X123789990Y-84689990D03*
X130900000Y-83239980D03*
X116640000Y-88090000D03*
X144080000Y-94770000D03*
X94980000Y-64570000D03*
X116080000Y-51380000D03*
X113453927Y-68835884D03*
X93220000Y-71870000D03*
X119809990Y-84459990D03*
X121250000Y-96090000D03*
X153970000Y-89950000D03*
X94790000Y-76820000D03*
X95040000Y-57550000D03*
X104940000Y-90650000D03*
X97990000Y-90280000D03*
X106420000Y-51220000D03*
X119780000Y-82530000D03*
X118909990Y-57479990D03*
X89840000Y-68680000D03*
X148910000Y-86820000D03*
X143900000Y-86850000D03*
X96460000Y-92900000D03*
X144080000Y-96250000D03*
X91610000Y-94490000D03*
X145540000Y-79070000D03*
X99490000Y-72680000D03*
X104860000Y-54270000D03*
X107390000Y-94550000D03*
X95040000Y-70470000D03*
X131129893Y-58769990D03*
X107549990Y-67929990D03*
X91540000Y-62840000D03*
X115910000Y-85480000D03*
X115513927Y-77475884D03*
X110429990Y-81689990D03*
X145510000Y-80780000D03*
X116127927Y-69945884D03*
X120819990Y-61399990D03*
X133230000Y-94590000D03*
X86560000Y-70370000D03*
X133790000Y-83269980D03*
X96950000Y-51550000D03*
X93260000Y-94430000D03*
X101460000Y-90300000D03*
X113083927Y-63935884D03*
X77910000Y-88580000D03*
X94610000Y-87090000D03*
X130400000Y-53780000D03*
X128159990Y-81759990D03*
X91750000Y-55980000D03*
X124720000Y-94740000D03*
X76190000Y-90070000D03*
X122233927Y-73045884D03*
X98510000Y-57570000D03*
X135510000Y-79500000D03*
X118449990Y-61109990D03*
X148940000Y-83740000D03*
X114150000Y-94660000D03*
X87330000Y-59740000D03*
X143610000Y-74890000D03*
X113270000Y-54430000D03*
X108779990Y-86439990D03*
X93590000Y-91270000D03*
X143840000Y-89910000D03*
X93450000Y-53240000D03*
X117433927Y-80845884D03*
X129770000Y-93040000D03*
X145800000Y-96130000D03*
X109033927Y-69265884D03*
X99840000Y-87170000D03*
X154210000Y-96290000D03*
X142650000Y-88310000D03*
X76610000Y-71100000D03*
X126483927Y-62165884D03*
X130436808Y-80852960D03*
X86220000Y-75100000D03*
X76320000Y-94310000D03*
X124720000Y-96110000D03*
X78410000Y-67840000D03*
X88240000Y-94560000D03*
X134329990Y-80119990D03*
X92970000Y-76740000D03*
X122183927Y-80805884D03*
X142460000Y-93120000D03*
X79690000Y-94240000D03*
X127390000Y-51320000D03*
X100020000Y-96020000D03*
X122700000Y-55020000D03*
X81700000Y-60410000D03*
X147360000Y-93080000D03*
X130869990Y-84589990D03*
X84910000Y-82940000D03*
X142740000Y-85400000D03*
X109030000Y-96070000D03*
X93070000Y-62870000D03*
X94930000Y-92870000D03*
X102239990Y-67849990D03*
X115899990Y-84619990D03*
X86470000Y-81260000D03*
X133230000Y-96070000D03*
X101460000Y-88820000D03*
X136520000Y-94680000D03*
X128820000Y-53780000D03*
X121280000Y-93010000D03*
X114740000Y-90570000D03*
X123503927Y-68795884D03*
X147050000Y-77710000D03*
X96690000Y-82920000D03*
X152320000Y-91380000D03*
X118999990Y-61899990D03*
X89680000Y-90210000D03*
X113269893Y-59349990D03*
X86560000Y-71850000D03*
X95010000Y-51560000D03*
X135919990Y-75939990D03*
X138370000Y-93050000D03*
X84700000Y-86980000D03*
X100249990Y-57169990D03*
X145430000Y-74580000D03*
X96690000Y-84400000D03*
X104339990Y-66509990D03*
X98729990Y-63989990D03*
X147210000Y-89840000D03*
X107499990Y-71409990D03*
X109043927Y-77435884D03*
X101490000Y-54340000D03*
X89890000Y-95980000D03*
X142700000Y-80820000D03*
X96540000Y-62890000D03*
X154210000Y-94810000D03*
X89730000Y-91210000D03*
X139619990Y-70079990D03*
X94010000Y-59530000D03*
X96630000Y-65990000D03*
X78320000Y-71130000D03*
X131713927Y-75105884D03*
X88270000Y-92850000D03*
X119810000Y-85300000D03*
X123730000Y-51400000D03*
X88280000Y-70360000D03*
X142430000Y-94830000D03*
X153880000Y-88330000D03*
X154030000Y-85410000D03*
X106719990Y-57029990D03*
X125579103Y-78545281D03*
X79830000Y-66190000D03*
X96440000Y-78240000D03*
X104629990Y-83359990D03*
X119220000Y-53710000D03*
X78390000Y-74500000D03*
X89800000Y-92880000D03*
X74700000Y-92660000D03*
X112503927Y-77435884D03*
X94820000Y-75110000D03*
X86360000Y-92730000D03*
X99350000Y-80970000D03*
X109659990Y-57099990D03*
X90160000Y-53150000D03*
X138910000Y-83810000D03*
X131580000Y-96020000D03*
X138340000Y-94760000D03*
X142730000Y-79110000D03*
X96860000Y-57520000D03*
X111620000Y-53010000D03*
X138880000Y-85520000D03*
X95040000Y-84350000D03*
X84670000Y-88690000D03*
X78260000Y-69480000D03*
X143860000Y-80790000D03*
X75730000Y-60320000D03*
X110680000Y-96120000D03*
X80330000Y-60410000D03*
X106987602Y-70061124D03*
X92880000Y-75120000D03*
X152380000Y-86840000D03*
X123620000Y-53710000D03*
X91600000Y-81250000D03*
X99380000Y-79440000D03*
X136520000Y-96160000D03*
X147070000Y-79100000D03*
X91510000Y-65920000D03*
X94900000Y-94580000D03*
X128462226Y-64820416D03*
X124363927Y-80335884D03*
X137130000Y-81150000D03*
X145560000Y-91270000D03*
X132060000Y-87560000D03*
X134219990Y-63019990D03*
X138580000Y-74770000D03*
X92970000Y-78220000D03*
X89870000Y-64400000D03*
X99420000Y-84340000D03*
X142190000Y-91340000D03*
X113593927Y-66235884D03*
X101070000Y-82720000D03*
X84800000Y-95780000D03*
X86560000Y-82880000D03*
X147450000Y-94700000D03*
X105740000Y-94610000D03*
X98400000Y-92890000D03*
X93080000Y-87060000D03*
X93130000Y-81280000D03*
X109710000Y-51310000D03*
X90160000Y-54520000D03*
X88240000Y-95930000D03*
X96340000Y-88860000D03*
X110033927Y-69265884D03*
X91720000Y-51470000D03*
X113793927Y-62815884D03*
X93050000Y-90140000D03*
X112493927Y-76355884D03*
X96630000Y-64510000D03*
X107210000Y-90470000D03*
X94790000Y-78190000D03*
X133713927Y-73825884D03*
X140230000Y-82400000D03*
X132990000Y-53740000D03*
X91640000Y-92780000D03*
X88280000Y-71730000D03*
X112863927Y-74045884D03*
X149090000Y-94850000D03*
X124183927Y-62385884D03*
X108189990Y-56799990D03*
X135450000Y-88960000D03*
X98129990Y-62849990D03*
X114443927Y-63425884D03*
X76710000Y-72940000D03*
X81200000Y-90040000D03*
X143840000Y-91390000D03*
X117960000Y-94630000D03*
X112970000Y-88000000D03*
X113743927Y-80915884D03*
X130563927Y-64695884D03*
X110643927Y-63915884D03*
X103050000Y-51290000D03*
X95100000Y-53180000D03*
X102570000Y-76060000D03*
X104020000Y-94620000D03*
X76230000Y-92690000D03*
X97990000Y-88800000D03*
X79560000Y-88520000D03*
X104949990Y-68159990D03*
X137130000Y-82630000D03*
X86310000Y-78200000D03*
X140140000Y-79300000D03*
X122900000Y-94660000D03*
X138780000Y-79240000D03*
X89070000Y-60870000D03*
X131659990Y-60069990D03*
X101189990Y-58689990D03*
X111499990Y-81459990D03*
X140270000Y-83870000D03*
X91510000Y-64550000D03*
X142430000Y-96200000D03*
X92360000Y-59590000D03*
X79690000Y-95720000D03*
X113270000Y-52950000D03*
X82760000Y-86990000D03*
X147270000Y-86780000D03*
X118020000Y-88090000D03*
X89680000Y-76650000D03*
X93050000Y-88770000D03*
X138750000Y-82320000D03*
X77440000Y-60350000D03*
X93480000Y-51530000D03*
X145510000Y-82150000D03*
X131100000Y-55100000D03*
X93160000Y-65970000D03*
X77910000Y-89950000D03*
X134729990Y-78939990D03*
X93260000Y-95910000D03*
X136453927Y-68655884D03*
X103930000Y-93000000D03*
X128990000Y-88320000D03*
X101090000Y-76060000D03*
X109800000Y-54410000D03*
X116469990Y-61299990D03*
X96350000Y-75140000D03*
X112883927Y-75105884D03*
X147120000Y-88220000D03*
X82850000Y-88610000D03*
X103140000Y-54390000D03*
X126550000Y-53710000D03*
X117620000Y-54200000D03*
X150470000Y-83770000D03*
X143190000Y-58000000D03*
X91320000Y-76800000D03*
X125510000Y-88630000D03*
X84850000Y-64530000D03*
X126953927Y-63755884D03*
X143700000Y-77990000D03*
X119293927Y-73035884D03*
X119530000Y-88090000D03*
X152410000Y-83760000D03*
X111620000Y-54380000D03*
X152380000Y-85470000D03*
X101649990Y-57079990D03*
X146020000Y-56900000D03*
X105740000Y-95980000D03*
X79690000Y-71130000D03*
X129929990Y-81739990D03*
X114060000Y-93040000D03*
X137040000Y-79530000D03*
X101520000Y-51260000D03*
X148880000Y-88280000D03*
X86410000Y-62850000D03*
X122810000Y-93040000D03*
X107799990Y-83129990D03*
X125999990Y-68779990D03*
X91570000Y-84330000D03*
X89680000Y-78130000D03*
X122900000Y-96140000D03*
X98370000Y-94600000D03*
X115633927Y-74075884D03*
X131300000Y-51430000D03*
X136430000Y-93060000D03*
X84670000Y-90060000D03*
X116127927Y-67425884D03*
X135260000Y-85470000D03*
X136910000Y-86890000D03*
X138750000Y-80950000D03*
X108180000Y-51280000D03*
X96920000Y-54630000D03*
X79740000Y-69480000D03*
X99930000Y-92920000D03*
X78070000Y-92590000D03*
X110590000Y-93020000D03*
X119799990Y-83459990D03*
X150560000Y-85390000D03*
X150560000Y-86870000D03*
X94900000Y-95950000D03*
X76720000Y-64340000D03*
X84910000Y-71800000D03*
X138089990Y-70109990D03*
X133220000Y-55120000D03*
X84660000Y-76780000D03*
X135290000Y-83760000D03*
X145830000Y-93050000D03*
X136820000Y-83790000D03*
X86320000Y-88630000D03*
X129673927Y-63085884D03*
X109489990Y-82729990D03*
X87350000Y-60990000D03*
X101150000Y-77710000D03*
X108150000Y-52990000D03*
X135480000Y-81210000D03*
X145620000Y-86730000D03*
X74670000Y-95740000D03*
X95010000Y-62860000D03*
X126789990Y-59529990D03*
X85700000Y-60940000D03*
X76700000Y-67810000D03*
X96860000Y-56150000D03*
X107390000Y-96030000D03*
X104860000Y-52900000D03*
X143770000Y-79170000D03*
X121570000Y-56490000D03*
X104199990Y-57229990D03*
X88220000Y-65830000D03*
X89890000Y-94500000D03*
X154120000Y-93190000D03*
X94700000Y-88710000D03*
X150740000Y-94790000D03*
X140030000Y-77930000D03*
X102430000Y-81000000D03*
X119610000Y-96050000D03*
X89930000Y-70300000D03*
X84910000Y-84310000D03*
X86310000Y-76720000D03*
X108759990Y-84669990D03*
X101619990Y-63989990D03*
X142740000Y-86770000D03*
X147450000Y-96180000D03*
X111443927Y-77435884D03*
X108150000Y-54360000D03*
X148850000Y-91360000D03*
X146960000Y-74610000D03*
X92360000Y-60960000D03*
X128210000Y-96090000D03*
X95070000Y-81270000D03*
X132846178Y-76753633D03*
X89840000Y-81190000D03*
X113349893Y-58429990D03*
X150650000Y-93170000D03*
X79470000Y-86900000D03*
X132763927Y-78376884D03*
X126280000Y-93060000D03*
X102370000Y-96050000D03*
X115263927Y-78865884D03*
X132103927Y-80835884D03*
X142119990Y-65699990D03*
X149090000Y-96220000D03*
X95100000Y-54660000D03*
X88310000Y-68650000D03*
X120990000Y-57690000D03*
X106510000Y-54320000D03*
X138840000Y-56730000D03*
X131623809Y-66068638D03*
X132383927Y-62325884D03*
X76100000Y-86970000D03*
X115643927Y-73355884D03*
X90100000Y-56040000D03*
X130059990Y-83239990D03*
X104890000Y-51190000D03*
X84830000Y-92700000D03*
X82980000Y-95810000D03*
X132949990Y-83269990D03*
X99470000Y-76150000D03*
X89710000Y-87130000D03*
X90720000Y-60920000D03*
X115003927Y-61775884D03*
X98570000Y-54680000D03*
X113473927Y-69855884D03*
X96550000Y-94520000D03*
X145800000Y-94760000D03*
X148910000Y-85450000D03*
X91240000Y-87160000D03*
X144060000Y-55580000D03*
X117990000Y-92920000D03*
X120273927Y-73045884D03*
X128950000Y-55080000D03*
X147180000Y-83680000D03*
X134699990Y-76569990D03*
X118308458Y-73044925D03*
X78430000Y-64370000D03*
X82890000Y-92710000D03*
X88280000Y-82870000D03*
X88030000Y-76710000D03*
X103019990Y-65339990D03*
X119650000Y-89020000D03*
X97480000Y-59550000D03*
X145560000Y-89900000D03*
X94980000Y-65940000D03*
X107389990Y-66739990D03*
X91810000Y-53090000D03*
X86470000Y-68750000D03*
X74570000Y-86940000D03*
X113573927Y-77745884D03*
X91610000Y-95860000D03*
X78040000Y-95670000D03*
X96600000Y-81300000D03*
X143810000Y-83750000D03*
D19*
X111829990Y-68599990D03*
D18*
X125679990Y-71289990D03*
X125200000Y-63699990D03*
X140430000Y-65350000D03*
X105860000Y-67200000D03*
X116619990Y-63420000D03*
X123299990Y-66299990D03*
X108780000Y-70390000D03*
X123530000Y-69680000D03*
X138009990Y-65269990D03*
X108860000Y-75070000D03*
X115923927Y-71793990D03*
X118590000Y-76900000D03*
X116300000Y-76850000D03*
X123320000Y-76890000D03*
X120970000Y-76840000D03*
X118460000Y-74140000D03*
X122365000Y-74185000D03*
X120405000Y-74155000D03*
X116380000Y-74200000D03*
X119029990Y-66339990D03*
X117799990Y-67020000D03*
X122233880Y-66338445D03*
X116570000Y-69279990D03*
X116520000Y-70479990D03*
X116540000Y-68090000D03*
X120240000Y-66339990D03*
X117840000Y-66329990D03*
X112683927Y-67445884D03*
X132143927Y-70885884D03*
X131003927Y-70805884D03*
X132293927Y-71395884D03*
D20*
X123459990Y-62769990D03*
D18*
X112673927Y-68025884D03*
X131033927Y-71415884D03*
X131583927Y-70785884D03*
X131713927Y-71415884D03*
X117440000Y-74300000D03*
X126194990Y-78464990D03*
X121440000Y-74280000D03*
X123315000Y-74305000D03*
X119440000Y-74310000D03*
X134019990Y-69399990D03*
X134138360Y-69981335D03*
X133099990Y-70339990D03*
X129183927Y-75995884D03*
X129183927Y-76545884D03*
X133779990Y-70329990D03*
X128143927Y-77005884D03*
X128753927Y-76995884D03*
G04 #@! TA.AperFunction,Conductor*
G36*
X155305244Y-50093149D02*
G01*
X155319596Y-50127797D01*
X155319596Y-97828797D01*
X155305244Y-97863445D01*
X155270596Y-97877797D01*
X72809570Y-97877797D01*
X72774922Y-97863445D01*
X72760570Y-97828797D01*
X72760570Y-90946762D01*
X117679500Y-90946762D01*
X117683784Y-90968297D01*
X117719869Y-91149714D01*
X117719871Y-91149720D01*
X117799058Y-91340893D01*
X117799059Y-91340895D01*
X117914023Y-91512952D01*
X118060345Y-91659274D01*
X118232402Y-91774238D01*
X118423580Y-91853427D01*
X118626535Y-91893797D01*
X118626538Y-91893797D01*
X118833462Y-91893797D01*
X118833465Y-91893797D01*
X119036420Y-91853427D01*
X119227598Y-91774238D01*
X119399655Y-91659274D01*
X119545977Y-91512952D01*
X119660941Y-91340895D01*
X119740130Y-91149717D01*
X119780500Y-90946762D01*
X119780500Y-90489832D01*
X119776216Y-90468296D01*
X119882969Y-90468296D01*
X119882970Y-90468297D01*
X120825854Y-90468297D01*
X120787370Y-90534954D01*
X120755000Y-90655762D01*
X120755000Y-90780832D01*
X120787370Y-90901640D01*
X120825854Y-90968297D01*
X119882970Y-90968297D01*
X119913241Y-91159420D01*
X119913242Y-91159423D01*
X119978905Y-91361515D01*
X120075377Y-91550850D01*
X120200279Y-91722764D01*
X120200283Y-91722769D01*
X120350528Y-91873014D01*
X120350532Y-91873017D01*
X120522446Y-91997919D01*
X120711781Y-92094391D01*
X120913873Y-92160054D01*
X120913876Y-92160055D01*
X120979999Y-92170527D01*
X120980000Y-92170527D01*
X120980000Y-91122442D01*
X121046657Y-91160927D01*
X121167465Y-91193297D01*
X121292535Y-91193297D01*
X121413343Y-91160927D01*
X121480000Y-91122442D01*
X121480000Y-92170527D01*
X121546123Y-92160055D01*
X121546126Y-92160054D01*
X121748218Y-92094391D01*
X121937553Y-91997919D01*
X122109467Y-91873017D01*
X122109472Y-91873014D01*
X122259717Y-91722769D01*
X122259720Y-91722764D01*
X122384622Y-91550850D01*
X122481094Y-91361515D01*
X122546757Y-91159423D01*
X122546758Y-91159420D01*
X122577030Y-90968297D01*
X121634146Y-90968297D01*
X121646579Y-90946762D01*
X122679500Y-90946762D01*
X122683784Y-90968297D01*
X122719869Y-91149714D01*
X122719871Y-91149720D01*
X122799058Y-91340893D01*
X122799059Y-91340895D01*
X122914023Y-91512952D01*
X123060345Y-91659274D01*
X123232402Y-91774238D01*
X123423580Y-91853427D01*
X123626535Y-91893797D01*
X123626538Y-91893797D01*
X123833462Y-91893797D01*
X123833465Y-91893797D01*
X124036420Y-91853427D01*
X124227598Y-91774238D01*
X124399655Y-91659274D01*
X124545977Y-91512952D01*
X124660941Y-91340895D01*
X124740130Y-91149717D01*
X124780500Y-90946762D01*
X124780500Y-90489832D01*
X124776216Y-90468296D01*
X124882969Y-90468296D01*
X124882970Y-90468297D01*
X125825854Y-90468297D01*
X125787370Y-90534954D01*
X125755000Y-90655762D01*
X125755000Y-90780832D01*
X125787370Y-90901640D01*
X125825854Y-90968297D01*
X124882970Y-90968297D01*
X124913241Y-91159420D01*
X124913242Y-91159423D01*
X124978905Y-91361515D01*
X125075377Y-91550850D01*
X125200279Y-91722764D01*
X125200283Y-91722769D01*
X125350528Y-91873014D01*
X125350532Y-91873017D01*
X125522446Y-91997919D01*
X125711781Y-92094391D01*
X125913873Y-92160054D01*
X125913876Y-92160055D01*
X125979999Y-92170527D01*
X125980000Y-92170527D01*
X125980000Y-91122442D01*
X126046657Y-91160927D01*
X126167465Y-91193297D01*
X126292535Y-91193297D01*
X126413343Y-91160927D01*
X126480000Y-91122442D01*
X126480000Y-92170527D01*
X126546123Y-92160055D01*
X126546126Y-92160054D01*
X126748218Y-92094391D01*
X126937553Y-91997919D01*
X127109467Y-91873017D01*
X127109472Y-91873014D01*
X127259717Y-91722769D01*
X127259720Y-91722764D01*
X127384622Y-91550850D01*
X127481094Y-91361515D01*
X127546757Y-91159423D01*
X127546758Y-91159420D01*
X127577030Y-90968297D01*
X126634146Y-90968297D01*
X126646579Y-90946762D01*
X127679500Y-90946762D01*
X127683784Y-90968297D01*
X127719869Y-91149714D01*
X127719871Y-91149720D01*
X127799058Y-91340893D01*
X127799059Y-91340895D01*
X127914023Y-91512952D01*
X128060345Y-91659274D01*
X128232402Y-91774238D01*
X128423580Y-91853427D01*
X128626535Y-91893797D01*
X128626538Y-91893797D01*
X128833462Y-91893797D01*
X128833465Y-91893797D01*
X129036420Y-91853427D01*
X129227598Y-91774238D01*
X129399655Y-91659274D01*
X129545977Y-91512952D01*
X129660941Y-91340895D01*
X129740130Y-91149717D01*
X129780500Y-90946762D01*
X129780500Y-90489832D01*
X129776216Y-90468296D01*
X129882969Y-90468296D01*
X129882970Y-90468297D01*
X130825854Y-90468297D01*
X130787370Y-90534954D01*
X130755000Y-90655762D01*
X130755000Y-90780832D01*
X130787370Y-90901640D01*
X130825854Y-90968297D01*
X129882970Y-90968297D01*
X129913241Y-91159420D01*
X129913242Y-91159423D01*
X129978905Y-91361515D01*
X130075377Y-91550850D01*
X130200279Y-91722764D01*
X130200283Y-91722769D01*
X130350528Y-91873014D01*
X130350532Y-91873017D01*
X130522446Y-91997919D01*
X130711781Y-92094391D01*
X130913873Y-92160054D01*
X130913876Y-92160055D01*
X130979999Y-92170527D01*
X130980000Y-92170527D01*
X130980000Y-91122442D01*
X131046657Y-91160927D01*
X131167465Y-91193297D01*
X131292535Y-91193297D01*
X131413343Y-91160927D01*
X131480000Y-91122442D01*
X131480000Y-92170527D01*
X131546123Y-92160055D01*
X131546126Y-92160054D01*
X131748218Y-92094391D01*
X131937553Y-91997919D01*
X132109467Y-91873017D01*
X132109472Y-91873014D01*
X132259717Y-91722769D01*
X132259720Y-91722764D01*
X132384622Y-91550850D01*
X132481094Y-91361515D01*
X132546757Y-91159423D01*
X132546758Y-91159420D01*
X132577030Y-90968297D01*
X131634146Y-90968297D01*
X131646579Y-90946762D01*
X132679500Y-90946762D01*
X132683784Y-90968297D01*
X132719869Y-91149714D01*
X132719871Y-91149720D01*
X132799058Y-91340893D01*
X132799059Y-91340895D01*
X132914023Y-91512952D01*
X133060345Y-91659274D01*
X133232402Y-91774238D01*
X133423580Y-91853427D01*
X133626535Y-91893797D01*
X133626538Y-91893797D01*
X133833462Y-91893797D01*
X133833465Y-91893797D01*
X134036420Y-91853427D01*
X134227598Y-91774238D01*
X134399655Y-91659274D01*
X134545977Y-91512952D01*
X134660941Y-91340895D01*
X134740130Y-91149717D01*
X134780500Y-90946762D01*
X134780500Y-90489832D01*
X134776216Y-90468296D01*
X134882969Y-90468296D01*
X134882970Y-90468297D01*
X135825854Y-90468297D01*
X135787370Y-90534954D01*
X135755000Y-90655762D01*
X135755000Y-90780832D01*
X135787370Y-90901640D01*
X135825854Y-90968297D01*
X134882970Y-90968297D01*
X134913241Y-91159420D01*
X134913242Y-91159423D01*
X134978905Y-91361515D01*
X135075377Y-91550850D01*
X135200279Y-91722764D01*
X135200283Y-91722769D01*
X135350528Y-91873014D01*
X135350532Y-91873017D01*
X135522446Y-91997919D01*
X135711781Y-92094391D01*
X135913873Y-92160054D01*
X135913876Y-92160055D01*
X135979999Y-92170527D01*
X135980000Y-92170527D01*
X135980000Y-91122442D01*
X136046657Y-91160927D01*
X136167465Y-91193297D01*
X136292535Y-91193297D01*
X136413343Y-91160927D01*
X136480000Y-91122442D01*
X136480000Y-92170527D01*
X136546123Y-92160055D01*
X136546126Y-92160054D01*
X136748218Y-92094391D01*
X136937553Y-91997919D01*
X137109467Y-91873017D01*
X137109472Y-91873014D01*
X137259717Y-91722769D01*
X137259720Y-91722764D01*
X137384622Y-91550850D01*
X137411769Y-91497572D01*
X137679500Y-91497572D01*
X137682353Y-91527995D01*
X137682353Y-91527996D01*
X137727204Y-91656173D01*
X137727208Y-91656182D01*
X137807849Y-91765447D01*
X137917114Y-91846088D01*
X137917117Y-91846089D01*
X137917118Y-91846090D01*
X137917120Y-91846090D01*
X137917123Y-91846092D01*
X137994071Y-91873017D01*
X138045301Y-91890943D01*
X138075734Y-91893797D01*
X138075744Y-91893797D01*
X139384256Y-91893797D01*
X139384266Y-91893797D01*
X139414699Y-91890943D01*
X139542882Y-91846090D01*
X139652150Y-91765447D01*
X139732793Y-91656179D01*
X139777646Y-91527996D01*
X139780500Y-91497563D01*
X139780500Y-89939031D01*
X139777646Y-89908598D01*
X139732793Y-89780415D01*
X139732792Y-89780414D01*
X139732791Y-89780411D01*
X139652150Y-89671146D01*
X139542885Y-89590505D01*
X139542876Y-89590501D01*
X139414698Y-89545650D01*
X139384275Y-89542797D01*
X139384266Y-89542797D01*
X138075734Y-89542797D01*
X138075724Y-89542797D01*
X138045301Y-89545650D01*
X138045300Y-89545650D01*
X137917123Y-89590501D01*
X137917114Y-89590505D01*
X137807849Y-89671146D01*
X137727208Y-89780411D01*
X137727204Y-89780420D01*
X137682353Y-89908597D01*
X137682353Y-89908598D01*
X137679500Y-89939021D01*
X137679500Y-91497572D01*
X137411769Y-91497572D01*
X137481094Y-91361515D01*
X137546757Y-91159423D01*
X137546758Y-91159420D01*
X137577030Y-90968297D01*
X136634146Y-90968297D01*
X136672630Y-90901640D01*
X136705000Y-90780832D01*
X136705000Y-90655762D01*
X136672630Y-90534954D01*
X136634146Y-90468297D01*
X137577030Y-90468297D01*
X137577030Y-90468296D01*
X137546758Y-90277173D01*
X137546757Y-90277170D01*
X137481094Y-90075078D01*
X137384622Y-89885743D01*
X137259720Y-89713829D01*
X137259717Y-89713825D01*
X137109472Y-89563580D01*
X137109467Y-89563576D01*
X136937553Y-89438674D01*
X136748218Y-89342202D01*
X136546133Y-89276541D01*
X136546129Y-89276540D01*
X136480000Y-89266065D01*
X136480000Y-90314151D01*
X136413343Y-90275667D01*
X136292535Y-90243297D01*
X136167465Y-90243297D01*
X136046657Y-90275667D01*
X135980000Y-90314151D01*
X135980000Y-89266065D01*
X135913870Y-89276540D01*
X135913866Y-89276541D01*
X135711781Y-89342202D01*
X135522446Y-89438674D01*
X135350532Y-89563576D01*
X135200279Y-89713829D01*
X135075377Y-89885743D01*
X134978905Y-90075078D01*
X134913242Y-90277170D01*
X134913241Y-90277173D01*
X134882969Y-90468296D01*
X134776216Y-90468296D01*
X134740130Y-90286877D01*
X134660941Y-90095699D01*
X134545977Y-89923642D01*
X134399655Y-89777320D01*
X134227598Y-89662356D01*
X134227596Y-89662355D01*
X134036423Y-89583168D01*
X134036417Y-89583166D01*
X133954572Y-89566886D01*
X133833465Y-89542797D01*
X133626535Y-89542797D01*
X133525520Y-89562889D01*
X133423582Y-89583166D01*
X133423576Y-89583168D01*
X133232403Y-89662355D01*
X133060345Y-89777319D01*
X132914022Y-89923642D01*
X132799058Y-90095700D01*
X132719871Y-90286873D01*
X132719869Y-90286879D01*
X132709661Y-90338202D01*
X132679500Y-90489832D01*
X132679500Y-90946762D01*
X131646579Y-90946762D01*
X131672630Y-90901640D01*
X131705000Y-90780832D01*
X131705000Y-90655762D01*
X131672630Y-90534954D01*
X131634146Y-90468297D01*
X132577030Y-90468297D01*
X132577030Y-90468296D01*
X132546758Y-90277173D01*
X132546757Y-90277170D01*
X132481094Y-90075078D01*
X132384622Y-89885743D01*
X132259720Y-89713829D01*
X132259717Y-89713825D01*
X132109472Y-89563580D01*
X132109467Y-89563576D01*
X131937553Y-89438674D01*
X131748218Y-89342202D01*
X131546133Y-89276541D01*
X131546129Y-89276540D01*
X131480000Y-89266065D01*
X131480000Y-90314151D01*
X131413343Y-90275667D01*
X131292535Y-90243297D01*
X131167465Y-90243297D01*
X131046657Y-90275667D01*
X130980000Y-90314151D01*
X130980000Y-89266065D01*
X130913870Y-89276540D01*
X130913866Y-89276541D01*
X130711781Y-89342202D01*
X130522446Y-89438674D01*
X130350532Y-89563576D01*
X130200279Y-89713829D01*
X130075377Y-89885743D01*
X129978905Y-90075078D01*
X129913242Y-90277170D01*
X129913241Y-90277173D01*
X129882969Y-90468296D01*
X129776216Y-90468296D01*
X129740130Y-90286877D01*
X129660941Y-90095699D01*
X129545977Y-89923642D01*
X129399655Y-89777320D01*
X129227598Y-89662356D01*
X129227596Y-89662355D01*
X129036423Y-89583168D01*
X129036417Y-89583166D01*
X128954572Y-89566886D01*
X128833465Y-89542797D01*
X128626535Y-89542797D01*
X128525520Y-89562889D01*
X128423582Y-89583166D01*
X128423576Y-89583168D01*
X128232403Y-89662355D01*
X128060345Y-89777319D01*
X127914022Y-89923642D01*
X127799058Y-90095700D01*
X127719871Y-90286873D01*
X127719869Y-90286879D01*
X127709661Y-90338202D01*
X127679500Y-90489832D01*
X127679500Y-90946762D01*
X126646579Y-90946762D01*
X126672630Y-90901640D01*
X126705000Y-90780832D01*
X126705000Y-90655762D01*
X126672630Y-90534954D01*
X126634146Y-90468297D01*
X127577030Y-90468297D01*
X127577030Y-90468296D01*
X127546758Y-90277173D01*
X127546757Y-90277170D01*
X127481094Y-90075078D01*
X127384622Y-89885743D01*
X127259720Y-89713829D01*
X127259717Y-89713825D01*
X127109472Y-89563580D01*
X127109467Y-89563576D01*
X126937553Y-89438674D01*
X126748218Y-89342202D01*
X126546133Y-89276541D01*
X126546129Y-89276540D01*
X126480000Y-89266065D01*
X126480000Y-90314151D01*
X126413343Y-90275667D01*
X126292535Y-90243297D01*
X126167465Y-90243297D01*
X126046657Y-90275667D01*
X125980000Y-90314151D01*
X125980000Y-89266065D01*
X125913870Y-89276540D01*
X125913866Y-89276541D01*
X125711781Y-89342202D01*
X125522446Y-89438674D01*
X125350532Y-89563576D01*
X125200279Y-89713829D01*
X125075377Y-89885743D01*
X124978905Y-90075078D01*
X124913242Y-90277170D01*
X124913241Y-90277173D01*
X124882969Y-90468296D01*
X124776216Y-90468296D01*
X124740130Y-90286877D01*
X124660941Y-90095699D01*
X124545977Y-89923642D01*
X124399655Y-89777320D01*
X124227598Y-89662356D01*
X124227596Y-89662355D01*
X124036423Y-89583168D01*
X124036417Y-89583166D01*
X123954572Y-89566886D01*
X123833465Y-89542797D01*
X123626535Y-89542797D01*
X123525520Y-89562889D01*
X123423582Y-89583166D01*
X123423576Y-89583168D01*
X123232403Y-89662355D01*
X123060345Y-89777319D01*
X122914022Y-89923642D01*
X122799058Y-90095700D01*
X122719871Y-90286873D01*
X122719869Y-90286879D01*
X122709661Y-90338202D01*
X122679500Y-90489832D01*
X122679500Y-90946762D01*
X121646579Y-90946762D01*
X121672630Y-90901640D01*
X121705000Y-90780832D01*
X121705000Y-90655762D01*
X121672630Y-90534954D01*
X121634146Y-90468297D01*
X122577030Y-90468297D01*
X122577030Y-90468296D01*
X122546758Y-90277173D01*
X122546757Y-90277170D01*
X122481094Y-90075078D01*
X122384622Y-89885743D01*
X122259720Y-89713829D01*
X122259717Y-89713825D01*
X122109472Y-89563580D01*
X122109467Y-89563576D01*
X121937553Y-89438674D01*
X121748218Y-89342202D01*
X121546133Y-89276541D01*
X121546129Y-89276540D01*
X121480000Y-89266065D01*
X121480000Y-90314151D01*
X121413343Y-90275667D01*
X121292535Y-90243297D01*
X121167465Y-90243297D01*
X121046657Y-90275667D01*
X120980000Y-90314151D01*
X120980000Y-89266065D01*
X120913870Y-89276540D01*
X120913866Y-89276541D01*
X120711781Y-89342202D01*
X120522446Y-89438674D01*
X120350532Y-89563576D01*
X120200279Y-89713829D01*
X120075377Y-89885743D01*
X119978905Y-90075078D01*
X119913242Y-90277170D01*
X119913241Y-90277173D01*
X119882969Y-90468296D01*
X119776216Y-90468296D01*
X119740130Y-90286877D01*
X119660941Y-90095699D01*
X119545977Y-89923642D01*
X119399655Y-89777320D01*
X119227598Y-89662356D01*
X119227596Y-89662355D01*
X119036423Y-89583168D01*
X119036417Y-89583166D01*
X118954572Y-89566886D01*
X118833465Y-89542797D01*
X118626535Y-89542797D01*
X118525520Y-89562889D01*
X118423582Y-89583166D01*
X118423576Y-89583168D01*
X118232403Y-89662355D01*
X118060345Y-89777319D01*
X117914022Y-89923642D01*
X117799058Y-90095700D01*
X117719871Y-90286873D01*
X117719869Y-90286879D01*
X117709661Y-90338202D01*
X117679500Y-90489832D01*
X117679500Y-90946762D01*
X72760570Y-90946762D01*
X72760570Y-79828298D01*
X74554749Y-79828298D01*
X74574124Y-80185660D01*
X74574124Y-80185662D01*
X74574125Y-80185668D01*
X74620445Y-80468212D01*
X74632026Y-80538850D01*
X74727770Y-80883692D01*
X74727773Y-80883701D01*
X74860242Y-81216173D01*
X74860244Y-81216178D01*
X75027886Y-81532382D01*
X75027890Y-81532390D01*
X75228728Y-81828603D01*
X75460421Y-82101375D01*
X75460429Y-82101383D01*
X75720260Y-82347508D01*
X76005178Y-82564097D01*
X76005185Y-82564102D01*
X76311844Y-82748612D01*
X76636656Y-82898886D01*
X76636662Y-82898888D01*
X76975823Y-83013165D01*
X77158442Y-83053362D01*
X77325341Y-83090100D01*
X77325342Y-83090100D01*
X77325351Y-83090102D01*
X77681149Y-83128797D01*
X77681154Y-83128797D01*
X78039040Y-83128797D01*
X78039045Y-83128797D01*
X78394843Y-83090102D01*
X78744371Y-83013165D01*
X79083532Y-82898888D01*
X79083534Y-82898886D01*
X79083537Y-82898886D01*
X79214668Y-82838218D01*
X79408350Y-82748612D01*
X79715016Y-82564097D01*
X79999934Y-82347508D01*
X80259765Y-82101383D01*
X80491462Y-81828608D01*
X80692308Y-81532382D01*
X80859950Y-81216177D01*
X80992421Y-80883700D01*
X81088168Y-80538849D01*
X81146069Y-80185668D01*
X81165445Y-79828298D01*
X148054749Y-79828298D01*
X148074124Y-80185660D01*
X148074124Y-80185662D01*
X148074125Y-80185668D01*
X148120445Y-80468212D01*
X148132026Y-80538850D01*
X148227770Y-80883692D01*
X148227773Y-80883701D01*
X148360242Y-81216173D01*
X148360244Y-81216178D01*
X148527886Y-81532382D01*
X148527890Y-81532390D01*
X148728728Y-81828603D01*
X148960421Y-82101375D01*
X148960429Y-82101383D01*
X149220260Y-82347508D01*
X149505178Y-82564097D01*
X149505185Y-82564102D01*
X149811844Y-82748612D01*
X150136656Y-82898886D01*
X150136662Y-82898888D01*
X150475823Y-83013165D01*
X150658442Y-83053362D01*
X150825341Y-83090100D01*
X150825342Y-83090100D01*
X150825351Y-83090102D01*
X151181149Y-83128797D01*
X151181154Y-83128797D01*
X151539040Y-83128797D01*
X151539045Y-83128797D01*
X151894843Y-83090102D01*
X152244371Y-83013165D01*
X152583532Y-82898888D01*
X152583534Y-82898886D01*
X152583537Y-82898886D01*
X152714668Y-82838218D01*
X152908350Y-82748612D01*
X153215016Y-82564097D01*
X153499934Y-82347508D01*
X153759765Y-82101383D01*
X153991462Y-81828608D01*
X154192308Y-81532382D01*
X154359950Y-81216177D01*
X154492421Y-80883700D01*
X154588168Y-80538849D01*
X154646069Y-80185668D01*
X154665445Y-79828297D01*
X154646069Y-79470926D01*
X154588168Y-79117745D01*
X154498016Y-78793044D01*
X154492423Y-78772901D01*
X154492420Y-78772892D01*
X154419667Y-78590297D01*
X154359950Y-78440417D01*
X154192308Y-78124212D01*
X154192306Y-78124209D01*
X154192303Y-78124203D01*
X153991465Y-77827990D01*
X153759772Y-77555218D01*
X153759762Y-77555208D01*
X153499944Y-77309095D01*
X153499941Y-77309093D01*
X153499934Y-77309086D01*
X153215016Y-77092497D01*
X153215015Y-77092496D01*
X153215008Y-77092491D01*
X152908349Y-76907981D01*
X152583537Y-76757707D01*
X152244369Y-76643428D01*
X151894852Y-76566493D01*
X151894843Y-76566492D01*
X151539045Y-76527797D01*
X151181149Y-76527797D01*
X150884955Y-76560009D01*
X150825341Y-76566493D01*
X150475825Y-76643428D01*
X150475822Y-76643428D01*
X150136656Y-76757707D01*
X149811844Y-76907981D01*
X149505185Y-77092491D01*
X149358311Y-77204142D01*
X149220260Y-77309086D01*
X149220256Y-77309089D01*
X149220249Y-77309095D01*
X148960431Y-77555208D01*
X148960421Y-77555218D01*
X148728728Y-77827990D01*
X148527890Y-78124203D01*
X148527886Y-78124211D01*
X148360244Y-78440415D01*
X148360242Y-78440420D01*
X148227773Y-78772892D01*
X148227770Y-78772901D01*
X148132026Y-79117743D01*
X148074125Y-79470929D01*
X148074124Y-79470933D01*
X148054749Y-79828295D01*
X148054749Y-79828298D01*
X81165445Y-79828298D01*
X81165445Y-79828297D01*
X81146069Y-79470926D01*
X81088168Y-79117745D01*
X80998016Y-78793044D01*
X80992423Y-78772901D01*
X80992420Y-78772892D01*
X80919667Y-78590297D01*
X80869741Y-78464990D01*
X125789498Y-78464990D01*
X125809344Y-78590294D01*
X125809344Y-78590295D01*
X125809345Y-78590297D01*
X125809345Y-78590299D01*
X125866935Y-78703325D01*
X125866940Y-78703332D01*
X125956647Y-78793039D01*
X125956654Y-78793044D01*
X126069681Y-78850634D01*
X126069682Y-78850634D01*
X126069686Y-78850636D01*
X126194990Y-78870482D01*
X126320294Y-78850636D01*
X126320298Y-78850634D01*
X126320299Y-78850634D01*
X126433325Y-78793044D01*
X126433327Y-78793042D01*
X126433332Y-78793040D01*
X126523040Y-78703332D01*
X126523044Y-78703325D01*
X126580634Y-78590299D01*
X126580634Y-78590297D01*
X126580636Y-78590294D01*
X126600482Y-78464990D01*
X126580636Y-78339686D01*
X126580634Y-78339682D01*
X126580634Y-78339680D01*
X126523044Y-78226654D01*
X126523039Y-78226647D01*
X126433332Y-78136940D01*
X126433325Y-78136935D01*
X126320298Y-78079345D01*
X126320295Y-78079344D01*
X126320294Y-78079344D01*
X126194990Y-78059498D01*
X126069686Y-78079344D01*
X126069684Y-78079344D01*
X126069682Y-78079345D01*
X126069680Y-78079345D01*
X125956654Y-78136935D01*
X125956647Y-78136940D01*
X125866940Y-78226647D01*
X125866935Y-78226654D01*
X125809345Y-78339680D01*
X125809345Y-78339682D01*
X125809344Y-78339684D01*
X125809344Y-78339686D01*
X125789498Y-78464990D01*
X80869741Y-78464990D01*
X80859950Y-78440417D01*
X80692308Y-78124212D01*
X80692306Y-78124209D01*
X80692303Y-78124203D01*
X80491465Y-77827990D01*
X80259772Y-77555218D01*
X80259762Y-77555208D01*
X79999944Y-77309095D01*
X79999941Y-77309093D01*
X79999934Y-77309086D01*
X79715016Y-77092497D01*
X79715015Y-77092496D01*
X79715008Y-77092491D01*
X79408349Y-76907981D01*
X79283025Y-76850000D01*
X115894508Y-76850000D01*
X115914354Y-76975304D01*
X115914354Y-76975305D01*
X115914355Y-76975307D01*
X115914355Y-76975309D01*
X115971945Y-77088335D01*
X115971950Y-77088342D01*
X116061657Y-77178049D01*
X116061664Y-77178054D01*
X116174691Y-77235644D01*
X116174692Y-77235644D01*
X116174696Y-77235646D01*
X116300000Y-77255492D01*
X116425304Y-77235646D01*
X116425308Y-77235644D01*
X116425309Y-77235644D01*
X116538335Y-77178054D01*
X116538337Y-77178052D01*
X116538342Y-77178050D01*
X116628050Y-77088342D01*
X116628054Y-77088335D01*
X116685644Y-76975309D01*
X116685644Y-76975307D01*
X116685646Y-76975304D01*
X116697573Y-76900000D01*
X118184508Y-76900000D01*
X118204354Y-77025304D01*
X118204354Y-77025305D01*
X118204355Y-77025307D01*
X118204355Y-77025309D01*
X118261945Y-77138335D01*
X118261950Y-77138342D01*
X118351657Y-77228049D01*
X118351664Y-77228054D01*
X118464691Y-77285644D01*
X118464692Y-77285644D01*
X118464696Y-77285646D01*
X118590000Y-77305492D01*
X118715304Y-77285646D01*
X118715308Y-77285644D01*
X118715309Y-77285644D01*
X118828335Y-77228054D01*
X118828337Y-77228052D01*
X118828342Y-77228050D01*
X118918050Y-77138342D01*
X118921694Y-77131191D01*
X118975644Y-77025309D01*
X118975644Y-77025307D01*
X118975646Y-77025304D01*
X118995492Y-76900000D01*
X118985989Y-76840000D01*
X120564508Y-76840000D01*
X120584354Y-76965304D01*
X120584354Y-76965305D01*
X120584355Y-76965307D01*
X120584355Y-76965309D01*
X120641945Y-77078335D01*
X120641950Y-77078342D01*
X120731657Y-77168049D01*
X120731664Y-77168054D01*
X120844691Y-77225644D01*
X120844692Y-77225644D01*
X120844696Y-77225646D01*
X120970000Y-77245492D01*
X121095304Y-77225646D01*
X121095308Y-77225644D01*
X121095309Y-77225644D01*
X121208335Y-77168054D01*
X121208337Y-77168052D01*
X121208342Y-77168050D01*
X121298050Y-77078342D01*
X121325073Y-77025307D01*
X121355644Y-76965309D01*
X121355644Y-76965307D01*
X121355646Y-76965304D01*
X121367573Y-76890000D01*
X122914508Y-76890000D01*
X122934354Y-77015304D01*
X122934354Y-77015305D01*
X122934355Y-77015307D01*
X122934355Y-77015309D01*
X122991945Y-77128335D01*
X122991950Y-77128342D01*
X123081657Y-77218049D01*
X123081664Y-77218054D01*
X123194691Y-77275644D01*
X123194692Y-77275644D01*
X123194696Y-77275646D01*
X123320000Y-77295492D01*
X123445304Y-77275646D01*
X123445308Y-77275644D01*
X123445309Y-77275644D01*
X123558335Y-77218054D01*
X123558337Y-77218052D01*
X123558342Y-77218050D01*
X123648050Y-77128342D01*
X123651694Y-77121191D01*
X123705644Y-77015309D01*
X123705644Y-77015307D01*
X123705646Y-77015304D01*
X123707138Y-77005884D01*
X127738435Y-77005884D01*
X127758281Y-77131188D01*
X127758281Y-77131189D01*
X127758282Y-77131191D01*
X127758282Y-77131193D01*
X127815872Y-77244219D01*
X127815877Y-77244226D01*
X127905584Y-77333933D01*
X127905591Y-77333938D01*
X128018618Y-77391528D01*
X128018619Y-77391528D01*
X128018623Y-77391530D01*
X128143927Y-77411376D01*
X128269231Y-77391530D01*
X128269235Y-77391528D01*
X128269236Y-77391528D01*
X128382262Y-77333938D01*
X128382264Y-77333936D01*
X128382269Y-77333934D01*
X128419279Y-77296924D01*
X128453927Y-77282572D01*
X128488575Y-77296924D01*
X128515584Y-77323933D01*
X128515591Y-77323938D01*
X128628618Y-77381528D01*
X128628619Y-77381528D01*
X128628623Y-77381530D01*
X128753927Y-77401376D01*
X128879231Y-77381530D01*
X128879235Y-77381528D01*
X128879236Y-77381528D01*
X128992262Y-77323938D01*
X128992264Y-77323936D01*
X128992269Y-77323934D01*
X129081977Y-77234226D01*
X129085124Y-77228050D01*
X129139571Y-77121193D01*
X129139571Y-77121191D01*
X129139573Y-77121188D01*
X129159419Y-76995884D01*
X129159418Y-76995882D01*
X129160022Y-76992075D01*
X129161412Y-76992295D01*
X129173771Y-76962459D01*
X129200751Y-76948711D01*
X129309231Y-76931530D01*
X129309235Y-76931528D01*
X129309236Y-76931528D01*
X129422262Y-76873938D01*
X129422264Y-76873936D01*
X129422269Y-76873934D01*
X129511977Y-76784226D01*
X129520478Y-76767542D01*
X129569571Y-76671193D01*
X129569571Y-76671191D01*
X129569573Y-76671188D01*
X129589419Y-76545884D01*
X129569573Y-76420580D01*
X129569571Y-76420576D01*
X129569571Y-76420574D01*
X129511981Y-76307548D01*
X129511976Y-76307541D01*
X129509967Y-76305532D01*
X129495615Y-76270884D01*
X129509967Y-76236236D01*
X129511977Y-76234226D01*
X129511981Y-76234219D01*
X129569571Y-76121193D01*
X129569571Y-76121191D01*
X129569573Y-76121188D01*
X129589419Y-75995884D01*
X129569573Y-75870580D01*
X129569571Y-75870576D01*
X129569571Y-75870574D01*
X129511981Y-75757548D01*
X129511976Y-75757541D01*
X129422269Y-75667834D01*
X129422262Y-75667829D01*
X129309235Y-75610239D01*
X129309232Y-75610238D01*
X129309231Y-75610238D01*
X129183927Y-75590392D01*
X129058623Y-75610238D01*
X129058621Y-75610238D01*
X129058619Y-75610239D01*
X129058617Y-75610239D01*
X128945591Y-75667829D01*
X128945584Y-75667834D01*
X128855877Y-75757541D01*
X128855872Y-75757548D01*
X128798282Y-75870574D01*
X128798282Y-75870576D01*
X128798281Y-75870578D01*
X128798281Y-75870580D01*
X128778435Y-75995884D01*
X128798281Y-76121188D01*
X128798281Y-76121189D01*
X128798282Y-76121191D01*
X128798282Y-76121193D01*
X128855872Y-76234219D01*
X128855877Y-76234226D01*
X128857887Y-76236236D01*
X128872239Y-76270884D01*
X128857887Y-76305532D01*
X128855877Y-76307541D01*
X128855872Y-76307548D01*
X128798282Y-76420574D01*
X128798282Y-76420576D01*
X128798281Y-76420578D01*
X128798281Y-76420580D01*
X128783810Y-76511950D01*
X128777832Y-76549693D01*
X128776441Y-76549472D01*
X128764083Y-76579308D01*
X128737101Y-76593056D01*
X128628623Y-76610238D01*
X128628621Y-76610238D01*
X128628619Y-76610239D01*
X128628617Y-76610239D01*
X128515591Y-76667829D01*
X128515584Y-76667834D01*
X128478575Y-76704844D01*
X128443927Y-76719196D01*
X128409279Y-76704844D01*
X128382269Y-76677834D01*
X128382262Y-76677829D01*
X128269235Y-76620239D01*
X128269232Y-76620238D01*
X128269231Y-76620238D01*
X128143927Y-76600392D01*
X128018623Y-76620238D01*
X128018621Y-76620238D01*
X128018619Y-76620239D01*
X128018617Y-76620239D01*
X127905591Y-76677829D01*
X127905584Y-76677834D01*
X127815877Y-76767541D01*
X127815872Y-76767548D01*
X127758282Y-76880574D01*
X127758282Y-76880576D01*
X127758281Y-76880578D01*
X127758281Y-76880580D01*
X127738435Y-77005884D01*
X123707138Y-77005884D01*
X123725492Y-76890000D01*
X123705646Y-76764696D01*
X123705644Y-76764692D01*
X123705644Y-76764690D01*
X123648054Y-76651664D01*
X123648049Y-76651657D01*
X123558342Y-76561950D01*
X123558335Y-76561945D01*
X123445308Y-76504355D01*
X123445305Y-76504354D01*
X123445304Y-76504354D01*
X123320000Y-76484508D01*
X123194696Y-76504354D01*
X123194694Y-76504354D01*
X123194692Y-76504355D01*
X123194690Y-76504355D01*
X123081664Y-76561945D01*
X123081657Y-76561950D01*
X122991950Y-76651657D01*
X122991945Y-76651664D01*
X122934355Y-76764690D01*
X122934355Y-76764692D01*
X122934354Y-76764694D01*
X122934354Y-76764696D01*
X122914508Y-76890000D01*
X121367573Y-76890000D01*
X121375492Y-76840000D01*
X121355646Y-76714696D01*
X121355644Y-76714692D01*
X121355644Y-76714690D01*
X121298054Y-76601664D01*
X121298049Y-76601657D01*
X121208342Y-76511950D01*
X121208335Y-76511945D01*
X121095308Y-76454355D01*
X121095305Y-76454354D01*
X121095304Y-76454354D01*
X120970000Y-76434508D01*
X120844696Y-76454354D01*
X120844694Y-76454354D01*
X120844692Y-76454355D01*
X120844690Y-76454355D01*
X120731664Y-76511945D01*
X120731657Y-76511950D01*
X120641950Y-76601657D01*
X120641945Y-76601664D01*
X120584355Y-76714690D01*
X120584355Y-76714692D01*
X120584354Y-76714694D01*
X120584354Y-76714696D01*
X120564508Y-76840000D01*
X118985989Y-76840000D01*
X118975646Y-76774696D01*
X118975644Y-76774692D01*
X118975644Y-76774690D01*
X118918054Y-76661664D01*
X118918049Y-76661657D01*
X118828342Y-76571950D01*
X118828335Y-76571945D01*
X118715308Y-76514355D01*
X118715305Y-76514354D01*
X118715304Y-76514354D01*
X118590000Y-76494508D01*
X118464696Y-76514354D01*
X118464694Y-76514354D01*
X118464692Y-76514355D01*
X118464690Y-76514355D01*
X118351664Y-76571945D01*
X118351657Y-76571950D01*
X118261950Y-76661657D01*
X118261945Y-76661664D01*
X118204355Y-76774690D01*
X118204355Y-76774692D01*
X118204354Y-76774694D01*
X118204354Y-76774696D01*
X118184508Y-76900000D01*
X116697573Y-76900000D01*
X116705492Y-76850000D01*
X116685646Y-76724696D01*
X116685644Y-76724692D01*
X116685644Y-76724690D01*
X116628054Y-76611664D01*
X116628049Y-76611657D01*
X116538342Y-76521950D01*
X116538335Y-76521945D01*
X116425308Y-76464355D01*
X116425305Y-76464354D01*
X116425304Y-76464354D01*
X116300000Y-76444508D01*
X116174696Y-76464354D01*
X116174694Y-76464354D01*
X116174692Y-76464355D01*
X116174690Y-76464355D01*
X116061664Y-76521945D01*
X116061657Y-76521950D01*
X115971950Y-76611657D01*
X115971945Y-76611664D01*
X115914355Y-76724690D01*
X115914355Y-76724692D01*
X115914354Y-76724694D01*
X115914354Y-76724696D01*
X115894508Y-76850000D01*
X79283025Y-76850000D01*
X79083537Y-76757707D01*
X78744369Y-76643428D01*
X78394852Y-76566493D01*
X78394843Y-76566492D01*
X78039045Y-76527797D01*
X77681149Y-76527797D01*
X77384955Y-76560009D01*
X77325341Y-76566493D01*
X76975825Y-76643428D01*
X76975822Y-76643428D01*
X76636656Y-76757707D01*
X76311844Y-76907981D01*
X76005185Y-77092491D01*
X75858311Y-77204142D01*
X75720260Y-77309086D01*
X75720256Y-77309089D01*
X75720249Y-77309095D01*
X75460431Y-77555208D01*
X75460421Y-77555218D01*
X75228728Y-77827990D01*
X75027890Y-78124203D01*
X75027886Y-78124211D01*
X74860244Y-78440415D01*
X74860242Y-78440420D01*
X74727773Y-78772892D01*
X74727770Y-78772901D01*
X74632026Y-79117743D01*
X74574125Y-79470929D01*
X74574124Y-79470933D01*
X74554749Y-79828295D01*
X74554749Y-79828298D01*
X72760570Y-79828298D01*
X72760570Y-75070000D01*
X108454508Y-75070000D01*
X108474354Y-75195304D01*
X108474354Y-75195305D01*
X108474355Y-75195307D01*
X108474355Y-75195309D01*
X108531945Y-75308335D01*
X108531950Y-75308342D01*
X108621657Y-75398049D01*
X108621664Y-75398054D01*
X108734691Y-75455644D01*
X108734692Y-75455644D01*
X108734696Y-75455646D01*
X108860000Y-75475492D01*
X108985304Y-75455646D01*
X108985308Y-75455644D01*
X108985309Y-75455644D01*
X109098335Y-75398054D01*
X109098337Y-75398052D01*
X109098342Y-75398050D01*
X109188050Y-75308342D01*
X109208585Y-75268040D01*
X109245644Y-75195309D01*
X109245644Y-75195307D01*
X109245646Y-75195304D01*
X109265492Y-75070000D01*
X109245646Y-74944696D01*
X109245644Y-74944692D01*
X109245644Y-74944690D01*
X109243249Y-74939990D01*
X133194498Y-74939990D01*
X133214344Y-75065294D01*
X133214344Y-75065295D01*
X133214345Y-75065297D01*
X133214345Y-75065299D01*
X133271935Y-75178325D01*
X133271940Y-75178332D01*
X133361647Y-75268039D01*
X133361654Y-75268044D01*
X133474681Y-75325634D01*
X133474682Y-75325634D01*
X133474686Y-75325636D01*
X133599990Y-75345482D01*
X133725294Y-75325636D01*
X133725298Y-75325634D01*
X133725299Y-75325634D01*
X133838325Y-75268044D01*
X133838327Y-75268042D01*
X133838332Y-75268040D01*
X133928040Y-75178332D01*
X133928044Y-75178325D01*
X133985634Y-75065299D01*
X133985634Y-75065297D01*
X133985636Y-75065294D01*
X134005482Y-74939990D01*
X133985636Y-74814686D01*
X133985634Y-74814682D01*
X133985634Y-74814680D01*
X133928044Y-74701654D01*
X133928039Y-74701647D01*
X133838332Y-74611940D01*
X133838325Y-74611935D01*
X133725298Y-74554345D01*
X133725295Y-74554344D01*
X133725294Y-74554344D01*
X133599990Y-74534498D01*
X133474686Y-74554344D01*
X133474684Y-74554344D01*
X133474682Y-74554345D01*
X133474680Y-74554345D01*
X133361654Y-74611935D01*
X133361647Y-74611940D01*
X133271940Y-74701647D01*
X133271935Y-74701654D01*
X133214345Y-74814680D01*
X133214345Y-74814682D01*
X133214344Y-74814684D01*
X133214344Y-74814686D01*
X133194498Y-74939990D01*
X109243249Y-74939990D01*
X109188054Y-74831664D01*
X109188049Y-74831657D01*
X109098342Y-74741950D01*
X109098335Y-74741945D01*
X108985308Y-74684355D01*
X108985305Y-74684354D01*
X108985304Y-74684354D01*
X108860000Y-74664508D01*
X108734696Y-74684354D01*
X108734694Y-74684354D01*
X108734692Y-74684355D01*
X108734690Y-74684355D01*
X108621664Y-74741945D01*
X108621657Y-74741950D01*
X108531950Y-74831657D01*
X108531945Y-74831664D01*
X108474355Y-74944690D01*
X108474355Y-74944692D01*
X108474354Y-74944694D01*
X108474354Y-74944696D01*
X108454508Y-75070000D01*
X72760570Y-75070000D01*
X72760570Y-74200000D01*
X115974508Y-74200000D01*
X115994354Y-74325304D01*
X115994354Y-74325305D01*
X115994355Y-74325307D01*
X115994355Y-74325309D01*
X116051945Y-74438335D01*
X116051950Y-74438342D01*
X116141657Y-74528049D01*
X116141664Y-74528054D01*
X116254691Y-74585644D01*
X116254692Y-74585644D01*
X116254696Y-74585646D01*
X116380000Y-74605492D01*
X116505304Y-74585646D01*
X116505308Y-74585644D01*
X116505309Y-74585644D01*
X116618335Y-74528054D01*
X116618337Y-74528052D01*
X116618342Y-74528050D01*
X116708050Y-74438342D01*
X116708054Y-74438335D01*
X116765644Y-74325309D01*
X116765644Y-74325307D01*
X116765646Y-74325304D01*
X116769654Y-74300000D01*
X117034508Y-74300000D01*
X117054354Y-74425304D01*
X117054354Y-74425305D01*
X117054355Y-74425307D01*
X117054355Y-74425309D01*
X117111945Y-74538335D01*
X117111950Y-74538342D01*
X117201657Y-74628049D01*
X117201664Y-74628054D01*
X117314691Y-74685644D01*
X117314692Y-74685644D01*
X117314696Y-74685646D01*
X117440000Y-74705492D01*
X117565304Y-74685646D01*
X117565308Y-74685644D01*
X117565309Y-74685644D01*
X117678335Y-74628054D01*
X117678337Y-74628052D01*
X117678342Y-74628050D01*
X117768050Y-74538342D01*
X117773292Y-74528054D01*
X117825644Y-74425309D01*
X117825644Y-74425307D01*
X117825646Y-74425304D01*
X117845492Y-74300000D01*
X117825646Y-74174696D01*
X117825644Y-74174692D01*
X117825644Y-74174690D01*
X117807968Y-74140000D01*
X118054508Y-74140000D01*
X118074354Y-74265304D01*
X118074354Y-74265305D01*
X118074355Y-74265307D01*
X118074355Y-74265309D01*
X118131945Y-74378335D01*
X118131950Y-74378342D01*
X118221657Y-74468049D01*
X118221664Y-74468054D01*
X118334691Y-74525644D01*
X118334692Y-74525644D01*
X118334696Y-74525646D01*
X118460000Y-74545492D01*
X118585304Y-74525646D01*
X118585308Y-74525644D01*
X118585309Y-74525644D01*
X118698335Y-74468054D01*
X118698337Y-74468052D01*
X118698342Y-74468050D01*
X118788050Y-74378342D01*
X118815073Y-74325307D01*
X118822872Y-74310000D01*
X119034508Y-74310000D01*
X119054354Y-74435304D01*
X119054354Y-74435305D01*
X119054355Y-74435307D01*
X119054355Y-74435309D01*
X119111945Y-74548335D01*
X119111950Y-74548342D01*
X119201657Y-74638049D01*
X119201664Y-74638054D01*
X119314691Y-74695644D01*
X119314692Y-74695644D01*
X119314696Y-74695646D01*
X119440000Y-74715492D01*
X119565304Y-74695646D01*
X119565308Y-74695644D01*
X119565309Y-74695644D01*
X119678335Y-74638054D01*
X119678337Y-74638052D01*
X119678342Y-74638050D01*
X119768050Y-74548342D01*
X119768054Y-74548335D01*
X119825644Y-74435309D01*
X119825644Y-74435307D01*
X119825646Y-74435304D01*
X119845492Y-74310000D01*
X119825646Y-74184696D01*
X119825644Y-74184692D01*
X119825644Y-74184690D01*
X119810516Y-74155000D01*
X119999508Y-74155000D01*
X120019354Y-74280304D01*
X120019354Y-74280305D01*
X120019355Y-74280307D01*
X120019355Y-74280309D01*
X120076945Y-74393335D01*
X120076950Y-74393342D01*
X120166657Y-74483049D01*
X120166664Y-74483054D01*
X120279691Y-74540644D01*
X120279692Y-74540644D01*
X120279696Y-74540646D01*
X120405000Y-74560492D01*
X120530304Y-74540646D01*
X120530308Y-74540644D01*
X120530309Y-74540644D01*
X120643335Y-74483054D01*
X120643337Y-74483052D01*
X120643342Y-74483050D01*
X120733050Y-74393342D01*
X120740693Y-74378342D01*
X120790644Y-74280309D01*
X120790644Y-74280307D01*
X120790646Y-74280304D01*
X120790694Y-74280000D01*
X121034508Y-74280000D01*
X121054354Y-74405304D01*
X121054354Y-74405305D01*
X121054355Y-74405307D01*
X121054355Y-74405309D01*
X121111945Y-74518335D01*
X121111950Y-74518342D01*
X121201657Y-74608049D01*
X121201664Y-74608054D01*
X121314691Y-74665644D01*
X121314692Y-74665644D01*
X121314696Y-74665646D01*
X121440000Y-74685492D01*
X121565304Y-74665646D01*
X121565308Y-74665644D01*
X121565309Y-74665644D01*
X121678335Y-74608054D01*
X121678337Y-74608052D01*
X121678342Y-74608050D01*
X121768050Y-74518342D01*
X121768054Y-74518335D01*
X121825644Y-74405309D01*
X121825644Y-74405307D01*
X121825646Y-74405304D01*
X121845492Y-74280000D01*
X121830446Y-74185000D01*
X121959508Y-74185000D01*
X121979354Y-74310304D01*
X121979354Y-74310305D01*
X121979355Y-74310307D01*
X121979355Y-74310309D01*
X122036945Y-74423335D01*
X122036950Y-74423342D01*
X122126657Y-74513049D01*
X122126664Y-74513054D01*
X122239691Y-74570644D01*
X122239692Y-74570644D01*
X122239696Y-74570646D01*
X122365000Y-74590492D01*
X122490304Y-74570646D01*
X122490308Y-74570644D01*
X122490309Y-74570644D01*
X122603335Y-74513054D01*
X122603337Y-74513052D01*
X122603342Y-74513050D01*
X122693050Y-74423342D01*
X122693054Y-74423335D01*
X122750644Y-74310309D01*
X122750644Y-74310307D01*
X122750646Y-74310304D01*
X122751486Y-74305000D01*
X122909508Y-74305000D01*
X122929354Y-74430304D01*
X122929354Y-74430305D01*
X122929355Y-74430307D01*
X122929355Y-74430309D01*
X122986945Y-74543335D01*
X122986950Y-74543342D01*
X123076657Y-74633049D01*
X123076664Y-74633054D01*
X123189691Y-74690644D01*
X123189692Y-74690644D01*
X123189696Y-74690646D01*
X123315000Y-74710492D01*
X123440304Y-74690646D01*
X123440308Y-74690644D01*
X123440309Y-74690644D01*
X123553335Y-74633054D01*
X123553337Y-74633052D01*
X123553342Y-74633050D01*
X123643050Y-74543342D01*
X123645598Y-74538342D01*
X123700644Y-74430309D01*
X123700644Y-74430307D01*
X123700646Y-74430304D01*
X123720492Y-74305000D01*
X123700646Y-74179696D01*
X123700644Y-74179692D01*
X123700644Y-74179690D01*
X123643054Y-74066664D01*
X123643049Y-74066657D01*
X123553342Y-73976950D01*
X123553335Y-73976945D01*
X123440308Y-73919355D01*
X123440305Y-73919354D01*
X123440304Y-73919354D01*
X123315000Y-73899508D01*
X123189696Y-73919354D01*
X123189694Y-73919354D01*
X123189692Y-73919355D01*
X123189690Y-73919355D01*
X123076664Y-73976945D01*
X123076657Y-73976950D01*
X122986950Y-74066657D01*
X122986945Y-74066664D01*
X122929355Y-74179690D01*
X122929355Y-74179692D01*
X122929354Y-74179694D01*
X122929354Y-74179696D01*
X122909508Y-74305000D01*
X122751486Y-74305000D01*
X122770492Y-74185000D01*
X122750646Y-74059696D01*
X122750644Y-74059692D01*
X122750644Y-74059690D01*
X122693054Y-73946664D01*
X122693049Y-73946657D01*
X122603342Y-73856950D01*
X122603335Y-73856945D01*
X122490308Y-73799355D01*
X122490305Y-73799354D01*
X122490304Y-73799354D01*
X122365000Y-73779508D01*
X122239696Y-73799354D01*
X122239694Y-73799354D01*
X122239692Y-73799355D01*
X122239690Y-73799355D01*
X122126664Y-73856945D01*
X122126657Y-73856950D01*
X122036950Y-73946657D01*
X122036945Y-73946664D01*
X121979355Y-74059690D01*
X121979355Y-74059692D01*
X121979354Y-74059694D01*
X121979354Y-74059696D01*
X121959508Y-74185000D01*
X121830446Y-74185000D01*
X121825646Y-74154696D01*
X121825644Y-74154692D01*
X121825644Y-74154690D01*
X121768054Y-74041664D01*
X121768049Y-74041657D01*
X121678342Y-73951950D01*
X121678335Y-73951945D01*
X121565308Y-73894355D01*
X121565305Y-73894354D01*
X121565304Y-73894354D01*
X121440000Y-73874508D01*
X121314696Y-73894354D01*
X121314694Y-73894354D01*
X121314692Y-73894355D01*
X121314690Y-73894355D01*
X121201664Y-73951945D01*
X121201657Y-73951950D01*
X121111950Y-74041657D01*
X121111945Y-74041664D01*
X121054355Y-74154690D01*
X121054355Y-74154692D01*
X121054354Y-74154694D01*
X121054354Y-74154696D01*
X121034508Y-74280000D01*
X120790694Y-74280000D01*
X120810492Y-74155000D01*
X120790646Y-74029696D01*
X120790644Y-74029692D01*
X120790644Y-74029690D01*
X120733054Y-73916664D01*
X120733049Y-73916657D01*
X120643342Y-73826950D01*
X120643335Y-73826945D01*
X120530308Y-73769355D01*
X120530305Y-73769354D01*
X120530304Y-73769354D01*
X120405000Y-73749508D01*
X120279696Y-73769354D01*
X120279694Y-73769354D01*
X120279692Y-73769355D01*
X120279690Y-73769355D01*
X120166664Y-73826945D01*
X120166657Y-73826950D01*
X120076950Y-73916657D01*
X120076945Y-73916664D01*
X120019355Y-74029690D01*
X120019355Y-74029692D01*
X120019354Y-74029694D01*
X120019354Y-74029696D01*
X119999508Y-74155000D01*
X119810516Y-74155000D01*
X119768054Y-74071664D01*
X119768049Y-74071657D01*
X119678342Y-73981950D01*
X119678335Y-73981945D01*
X119565308Y-73924355D01*
X119565305Y-73924354D01*
X119565304Y-73924354D01*
X119440000Y-73904508D01*
X119314696Y-73924354D01*
X119314694Y-73924354D01*
X119314692Y-73924355D01*
X119314690Y-73924355D01*
X119201664Y-73981945D01*
X119201657Y-73981950D01*
X119111950Y-74071657D01*
X119111945Y-74071664D01*
X119054355Y-74184690D01*
X119054355Y-74184692D01*
X119054354Y-74184694D01*
X119054354Y-74184696D01*
X119034508Y-74310000D01*
X118822872Y-74310000D01*
X118845644Y-74265309D01*
X118845644Y-74265307D01*
X118845646Y-74265304D01*
X118865492Y-74140000D01*
X118845646Y-74014696D01*
X118845644Y-74014692D01*
X118845644Y-74014690D01*
X118788054Y-73901664D01*
X118788049Y-73901657D01*
X118698342Y-73811950D01*
X118698335Y-73811945D01*
X118585308Y-73754355D01*
X118585305Y-73754354D01*
X118585304Y-73754354D01*
X118460000Y-73734508D01*
X118334696Y-73754354D01*
X118334694Y-73754354D01*
X118334692Y-73754355D01*
X118334690Y-73754355D01*
X118221664Y-73811945D01*
X118221657Y-73811950D01*
X118131950Y-73901657D01*
X118131945Y-73901664D01*
X118074355Y-74014690D01*
X118074355Y-74014692D01*
X118074354Y-74014694D01*
X118074354Y-74014696D01*
X118054508Y-74140000D01*
X117807968Y-74140000D01*
X117768054Y-74061664D01*
X117768049Y-74061657D01*
X117678342Y-73971950D01*
X117678335Y-73971945D01*
X117565308Y-73914355D01*
X117565305Y-73914354D01*
X117565304Y-73914354D01*
X117440000Y-73894508D01*
X117314696Y-73914354D01*
X117314694Y-73914354D01*
X117314692Y-73914355D01*
X117314690Y-73914355D01*
X117201664Y-73971945D01*
X117201657Y-73971950D01*
X117111950Y-74061657D01*
X117111945Y-74061664D01*
X117054355Y-74174690D01*
X117054355Y-74174692D01*
X117054354Y-74174694D01*
X117054354Y-74174696D01*
X117034508Y-74300000D01*
X116769654Y-74300000D01*
X116785492Y-74200000D01*
X116765646Y-74074696D01*
X116765644Y-74074692D01*
X116765644Y-74074690D01*
X116708054Y-73961664D01*
X116708049Y-73961657D01*
X116618342Y-73871950D01*
X116618335Y-73871945D01*
X116505308Y-73814355D01*
X116505305Y-73814354D01*
X116505304Y-73814354D01*
X116380000Y-73794508D01*
X116254696Y-73814354D01*
X116254694Y-73814354D01*
X116254692Y-73814355D01*
X116254690Y-73814355D01*
X116141664Y-73871945D01*
X116141657Y-73871950D01*
X116051950Y-73961657D01*
X116051945Y-73961664D01*
X115994355Y-74074690D01*
X115994355Y-74074692D01*
X115994354Y-74074694D01*
X115994354Y-74074696D01*
X115974508Y-74200000D01*
X72760570Y-74200000D01*
X72760570Y-71793990D01*
X115518435Y-71793990D01*
X115538281Y-71919294D01*
X115538281Y-71919295D01*
X115538282Y-71919297D01*
X115538282Y-71919299D01*
X115595872Y-72032325D01*
X115595877Y-72032332D01*
X115685584Y-72122039D01*
X115685591Y-72122044D01*
X115798618Y-72179634D01*
X115798619Y-72179634D01*
X115798623Y-72179636D01*
X115923927Y-72199482D01*
X116049231Y-72179636D01*
X116049235Y-72179634D01*
X116049236Y-72179634D01*
X116162262Y-72122044D01*
X116162264Y-72122042D01*
X116162269Y-72122040D01*
X116251977Y-72032332D01*
X116276063Y-71985061D01*
X116309571Y-71919299D01*
X116309571Y-71919297D01*
X116309573Y-71919294D01*
X116313158Y-71896660D01*
X118276891Y-71896660D01*
X118276892Y-71896661D01*
X118290687Y-71905330D01*
X118290699Y-71905336D01*
X118460853Y-71964875D01*
X118460862Y-71964877D01*
X118640000Y-71985061D01*
X118819137Y-71964877D01*
X118819146Y-71964875D01*
X118989299Y-71905337D01*
X119003106Y-71896660D01*
X119316891Y-71896660D01*
X119316892Y-71896661D01*
X119330687Y-71905330D01*
X119330699Y-71905336D01*
X119500853Y-71964875D01*
X119500862Y-71964877D01*
X119680000Y-71985061D01*
X119859137Y-71964877D01*
X119859146Y-71964875D01*
X120029299Y-71905337D01*
X120043106Y-71896660D01*
X120410818Y-71896660D01*
X120410819Y-71896661D01*
X120424614Y-71905330D01*
X120424626Y-71905336D01*
X120594780Y-71964875D01*
X120594789Y-71964877D01*
X120773927Y-71985061D01*
X120953064Y-71964877D01*
X120953073Y-71964875D01*
X121123226Y-71905337D01*
X121137033Y-71896660D01*
X120773928Y-71533553D01*
X120773927Y-71533553D01*
X120410818Y-71896660D01*
X120043106Y-71896660D01*
X119680001Y-71533553D01*
X119680000Y-71533553D01*
X119316891Y-71896660D01*
X119003106Y-71896660D01*
X118640001Y-71533553D01*
X118640000Y-71533553D01*
X118276891Y-71896660D01*
X116313158Y-71896660D01*
X116329419Y-71793990D01*
X116309573Y-71668686D01*
X116309571Y-71668682D01*
X116309571Y-71668680D01*
X116251981Y-71555654D01*
X116251976Y-71555647D01*
X116162269Y-71465940D01*
X116162262Y-71465935D01*
X116049235Y-71408345D01*
X116049232Y-71408344D01*
X116049231Y-71408344D01*
X115923927Y-71388498D01*
X115798623Y-71408344D01*
X115798621Y-71408344D01*
X115798619Y-71408345D01*
X115798617Y-71408345D01*
X115685591Y-71465935D01*
X115685584Y-71465940D01*
X115595877Y-71555647D01*
X115595872Y-71555654D01*
X115538282Y-71668680D01*
X115538282Y-71668682D01*
X115538281Y-71668684D01*
X115538281Y-71668686D01*
X115518435Y-71793990D01*
X72760570Y-71793990D01*
X72760570Y-71180000D01*
X117834938Y-71180000D01*
X117855122Y-71359137D01*
X117855124Y-71359146D01*
X117914664Y-71529302D01*
X117914664Y-71529304D01*
X117923338Y-71543106D01*
X117923338Y-71543107D01*
X118251636Y-71214810D01*
X118465000Y-71214810D01*
X118491643Y-71279129D01*
X118540871Y-71328357D01*
X118605190Y-71355000D01*
X118674810Y-71355000D01*
X118739129Y-71328357D01*
X118788357Y-71279129D01*
X118815000Y-71214810D01*
X118815000Y-71180000D01*
X118993553Y-71180000D01*
X119159999Y-71346446D01*
X119291636Y-71214810D01*
X119505000Y-71214810D01*
X119531643Y-71279129D01*
X119580871Y-71328357D01*
X119645190Y-71355000D01*
X119714810Y-71355000D01*
X119779129Y-71328357D01*
X119828357Y-71279129D01*
X119855000Y-71214810D01*
X119855000Y-71180000D01*
X120033553Y-71180000D01*
X120226963Y-71373409D01*
X120385563Y-71214810D01*
X120598927Y-71214810D01*
X120625570Y-71279129D01*
X120674798Y-71328357D01*
X120739117Y-71355000D01*
X120808737Y-71355000D01*
X120873056Y-71328357D01*
X120922284Y-71279129D01*
X120948927Y-71214810D01*
X120948927Y-71180000D01*
X121127480Y-71180000D01*
X121490587Y-71543106D01*
X121499264Y-71529299D01*
X121558802Y-71359146D01*
X121558804Y-71359137D01*
X121566595Y-71289990D01*
X125274498Y-71289990D01*
X125294344Y-71415294D01*
X125294344Y-71415295D01*
X125294345Y-71415297D01*
X125294345Y-71415299D01*
X125351935Y-71528325D01*
X125351940Y-71528332D01*
X125441647Y-71618039D01*
X125441654Y-71618044D01*
X125554681Y-71675634D01*
X125554682Y-71675634D01*
X125554686Y-71675636D01*
X125679990Y-71695482D01*
X125805294Y-71675636D01*
X125805298Y-71675634D01*
X125805299Y-71675634D01*
X125918325Y-71618044D01*
X125918327Y-71618042D01*
X125918332Y-71618040D01*
X126008040Y-71528332D01*
X126011679Y-71521191D01*
X126065634Y-71415299D01*
X126065634Y-71415297D01*
X126065636Y-71415294D01*
X126085482Y-71289990D01*
X126065636Y-71164686D01*
X126065634Y-71164682D01*
X126065634Y-71164680D01*
X126008044Y-71051654D01*
X126008039Y-71051647D01*
X125918332Y-70961940D01*
X125918325Y-70961935D01*
X125805298Y-70904345D01*
X125805295Y-70904344D01*
X125805294Y-70904344D01*
X125679990Y-70884498D01*
X125554686Y-70904344D01*
X125554684Y-70904344D01*
X125554682Y-70904345D01*
X125554680Y-70904345D01*
X125441654Y-70961935D01*
X125441647Y-70961940D01*
X125351940Y-71051647D01*
X125351935Y-71051654D01*
X125294345Y-71164680D01*
X125294345Y-71164682D01*
X125294344Y-71164684D01*
X125294344Y-71164686D01*
X125274498Y-71289990D01*
X121566595Y-71289990D01*
X121578988Y-71180000D01*
X121558804Y-71000862D01*
X121558802Y-71000853D01*
X121499263Y-70830699D01*
X121499257Y-70830687D01*
X121490588Y-70816892D01*
X121490587Y-70816891D01*
X121127480Y-71179999D01*
X121127480Y-71180000D01*
X120948927Y-71180000D01*
X120948927Y-71145190D01*
X120922284Y-71080871D01*
X120873056Y-71031643D01*
X120808737Y-71005000D01*
X120739117Y-71005000D01*
X120674798Y-71031643D01*
X120625570Y-71080871D01*
X120598927Y-71145190D01*
X120598927Y-71214810D01*
X120385563Y-71214810D01*
X120420373Y-71180000D01*
X120376840Y-71136466D01*
X120370320Y-71136466D01*
X120346801Y-71146208D01*
X120312153Y-71131856D01*
X120196925Y-71016628D01*
X120033553Y-71180000D01*
X119855000Y-71180000D01*
X119855000Y-71145190D01*
X119828357Y-71080871D01*
X119779129Y-71031643D01*
X119714810Y-71005000D01*
X119645190Y-71005000D01*
X119580871Y-71031643D01*
X119531643Y-71080871D01*
X119505000Y-71145190D01*
X119505000Y-71214810D01*
X119291636Y-71214810D01*
X119326446Y-71180000D01*
X119163074Y-71016628D01*
X119163073Y-71016628D01*
X119030625Y-71149078D01*
X119020126Y-71153426D01*
X118993553Y-71180000D01*
X118815000Y-71180000D01*
X118815000Y-71145190D01*
X118788357Y-71080871D01*
X118739129Y-71031643D01*
X118674810Y-71005000D01*
X118605190Y-71005000D01*
X118540871Y-71031643D01*
X118491643Y-71080871D01*
X118465000Y-71145190D01*
X118465000Y-71214810D01*
X118251636Y-71214810D01*
X118286446Y-71180000D01*
X117923337Y-70816891D01*
X117914661Y-70830700D01*
X117855125Y-71000850D01*
X117855122Y-71000862D01*
X117834938Y-71180000D01*
X72760570Y-71180000D01*
X72760570Y-70390000D01*
X108374508Y-70390000D01*
X108394354Y-70515304D01*
X108394354Y-70515305D01*
X108394355Y-70515307D01*
X108394355Y-70515309D01*
X108451945Y-70628335D01*
X108451950Y-70628342D01*
X108541657Y-70718049D01*
X108541664Y-70718054D01*
X108654691Y-70775644D01*
X108654692Y-70775644D01*
X108654696Y-70775646D01*
X108780000Y-70795492D01*
X108905304Y-70775646D01*
X108905308Y-70775644D01*
X108905309Y-70775644D01*
X109018335Y-70718054D01*
X109018337Y-70718052D01*
X109018342Y-70718050D01*
X109108050Y-70628342D01*
X109108054Y-70628335D01*
X109165644Y-70515309D01*
X109165644Y-70515307D01*
X109165646Y-70515304D01*
X109171239Y-70479990D01*
X116114508Y-70479990D01*
X116134354Y-70605294D01*
X116134354Y-70605295D01*
X116134355Y-70605297D01*
X116134355Y-70605299D01*
X116191945Y-70718325D01*
X116191950Y-70718332D01*
X116281657Y-70808039D01*
X116281664Y-70808044D01*
X116394691Y-70865634D01*
X116394692Y-70865634D01*
X116394696Y-70865636D01*
X116520000Y-70885482D01*
X116645304Y-70865636D01*
X116645308Y-70865634D01*
X116645309Y-70865634D01*
X116758335Y-70808044D01*
X116758337Y-70808042D01*
X116758342Y-70808040D01*
X116848050Y-70718332D01*
X116848194Y-70718050D01*
X116876205Y-70663075D01*
X118476628Y-70663075D01*
X118639999Y-70826446D01*
X118803371Y-70663075D01*
X118803371Y-70663074D01*
X118640001Y-70499703D01*
X118640000Y-70499703D01*
X118476628Y-70663075D01*
X116876205Y-70663075D01*
X116905644Y-70605299D01*
X116905644Y-70605297D01*
X116905646Y-70605294D01*
X116925492Y-70479990D01*
X116905646Y-70354686D01*
X116905644Y-70354682D01*
X116905644Y-70354680D01*
X116848054Y-70241654D01*
X116848049Y-70241647D01*
X116758342Y-70151940D01*
X116758335Y-70151935D01*
X116746981Y-70146150D01*
X117834938Y-70146150D01*
X117855122Y-70325287D01*
X117855124Y-70325296D01*
X117914664Y-70495452D01*
X117914664Y-70495454D01*
X117923338Y-70509256D01*
X117923338Y-70509257D01*
X118251636Y-70180960D01*
X118465000Y-70180960D01*
X118491643Y-70245279D01*
X118540871Y-70294507D01*
X118605190Y-70321150D01*
X118674810Y-70321150D01*
X118739129Y-70294507D01*
X118788357Y-70245279D01*
X118815000Y-70180960D01*
X118815000Y-70146150D01*
X118993553Y-70146150D01*
X119160000Y-70312596D01*
X119197037Y-70275558D01*
X119214075Y-70339143D01*
X119279901Y-70453157D01*
X119372993Y-70546249D01*
X119487007Y-70612075D01*
X119550589Y-70629112D01*
X119516628Y-70663073D01*
X119516628Y-70663074D01*
X119680000Y-70826446D01*
X119680001Y-70826446D01*
X119843370Y-70663075D01*
X120610555Y-70663075D01*
X120773926Y-70826446D01*
X120794488Y-70805884D01*
X130598435Y-70805884D01*
X130618281Y-70931188D01*
X130618281Y-70931189D01*
X130618282Y-70931191D01*
X130618282Y-70931193D01*
X130675872Y-71044219D01*
X130675877Y-71044226D01*
X130722887Y-71091236D01*
X130737239Y-71125884D01*
X130722887Y-71160532D01*
X130705877Y-71177541D01*
X130705872Y-71177548D01*
X130648282Y-71290574D01*
X130648282Y-71290576D01*
X130648281Y-71290578D01*
X130648281Y-71290580D01*
X130628435Y-71415884D01*
X130648281Y-71541188D01*
X130648281Y-71541189D01*
X130648282Y-71541191D01*
X130648282Y-71541193D01*
X130705872Y-71654219D01*
X130705877Y-71654226D01*
X130795584Y-71743933D01*
X130795591Y-71743938D01*
X130908618Y-71801528D01*
X130908619Y-71801528D01*
X130908623Y-71801530D01*
X131033927Y-71821376D01*
X131159231Y-71801530D01*
X131159235Y-71801528D01*
X131159236Y-71801528D01*
X131272262Y-71743938D01*
X131272264Y-71743936D01*
X131272269Y-71743934D01*
X131339279Y-71676924D01*
X131373927Y-71662572D01*
X131408575Y-71676924D01*
X131475584Y-71743933D01*
X131475591Y-71743938D01*
X131588618Y-71801528D01*
X131588619Y-71801528D01*
X131588623Y-71801530D01*
X131713927Y-71821376D01*
X131839231Y-71801530D01*
X131839235Y-71801528D01*
X131839236Y-71801528D01*
X131952262Y-71743938D01*
X131952264Y-71743936D01*
X131952269Y-71743934D01*
X131979279Y-71716924D01*
X132013927Y-71702572D01*
X132048575Y-71716924D01*
X132055584Y-71723933D01*
X132055591Y-71723938D01*
X132168618Y-71781528D01*
X132168619Y-71781528D01*
X132168623Y-71781530D01*
X132293927Y-71801376D01*
X132419231Y-71781530D01*
X132419235Y-71781528D01*
X132419236Y-71781528D01*
X132532262Y-71723938D01*
X132532264Y-71723936D01*
X132532269Y-71723934D01*
X132621977Y-71634226D01*
X132623737Y-71630772D01*
X132679571Y-71521193D01*
X132679571Y-71521191D01*
X132679573Y-71521188D01*
X132699419Y-71395884D01*
X132679573Y-71270580D01*
X132679571Y-71270576D01*
X132679571Y-71270574D01*
X132621981Y-71157548D01*
X132621976Y-71157541D01*
X132536536Y-71072101D01*
X132522184Y-71037453D01*
X132527526Y-71015205D01*
X132529573Y-71011188D01*
X132549419Y-70885884D01*
X132529573Y-70760580D01*
X132529571Y-70760576D01*
X132529571Y-70760574D01*
X132471981Y-70647548D01*
X132471976Y-70647541D01*
X132382269Y-70557834D01*
X132382262Y-70557829D01*
X132269235Y-70500239D01*
X132269232Y-70500238D01*
X132269231Y-70500238D01*
X132143927Y-70480392D01*
X132018621Y-70500238D01*
X131966862Y-70526611D01*
X131948357Y-70536040D01*
X131910970Y-70538983D01*
X131891464Y-70527029D01*
X131822269Y-70457834D01*
X131822262Y-70457829D01*
X131709235Y-70400239D01*
X131709232Y-70400238D01*
X131709231Y-70400238D01*
X131583927Y-70380392D01*
X131458623Y-70400238D01*
X131458621Y-70400238D01*
X131458619Y-70400239D01*
X131458617Y-70400239D01*
X131345591Y-70457829D01*
X131345584Y-70457834D01*
X131318575Y-70484844D01*
X131283927Y-70499196D01*
X131249279Y-70484844D01*
X131242269Y-70477834D01*
X131242262Y-70477829D01*
X131129235Y-70420239D01*
X131129232Y-70420238D01*
X131129231Y-70420238D01*
X131003927Y-70400392D01*
X130878623Y-70420238D01*
X130878621Y-70420238D01*
X130878619Y-70420239D01*
X130878617Y-70420239D01*
X130765591Y-70477829D01*
X130765584Y-70477834D01*
X130675877Y-70567541D01*
X130675872Y-70567548D01*
X130618282Y-70680574D01*
X130618282Y-70680576D01*
X130618281Y-70680578D01*
X130618281Y-70680580D01*
X130598435Y-70805884D01*
X120794488Y-70805884D01*
X120937298Y-70663075D01*
X120937298Y-70663074D01*
X120773928Y-70499703D01*
X120773927Y-70499703D01*
X120610555Y-70663075D01*
X119843370Y-70663075D01*
X119843371Y-70663074D01*
X119843371Y-70663073D01*
X119809410Y-70629112D01*
X119872993Y-70612075D01*
X119987007Y-70546249D01*
X120080099Y-70453157D01*
X120145925Y-70339143D01*
X120162962Y-70275559D01*
X120226963Y-70339560D01*
X120385563Y-70180960D01*
X120598927Y-70180960D01*
X120625570Y-70245279D01*
X120674798Y-70294507D01*
X120739117Y-70321150D01*
X120808737Y-70321150D01*
X120873056Y-70294507D01*
X120922284Y-70245279D01*
X120948927Y-70180960D01*
X120948927Y-70146150D01*
X121127480Y-70146150D01*
X121490587Y-70509256D01*
X121499264Y-70495449D01*
X121553660Y-70339990D01*
X132694498Y-70339990D01*
X132714344Y-70465294D01*
X132714344Y-70465295D01*
X132714345Y-70465297D01*
X132714345Y-70465299D01*
X132771935Y-70578325D01*
X132771940Y-70578332D01*
X132861647Y-70668039D01*
X132861654Y-70668044D01*
X132974681Y-70725634D01*
X132974682Y-70725634D01*
X132974686Y-70725636D01*
X133099990Y-70745482D01*
X133225294Y-70725636D01*
X133225298Y-70725634D01*
X133225299Y-70725634D01*
X133338325Y-70668044D01*
X133338327Y-70668042D01*
X133338332Y-70668040D01*
X133410342Y-70596030D01*
X133444990Y-70581678D01*
X133479638Y-70596030D01*
X133541647Y-70658039D01*
X133541654Y-70658044D01*
X133654681Y-70715634D01*
X133654682Y-70715634D01*
X133654686Y-70715636D01*
X133779990Y-70735482D01*
X133905294Y-70715636D01*
X133905298Y-70715634D01*
X133905299Y-70715634D01*
X134018325Y-70658044D01*
X134018327Y-70658042D01*
X134018332Y-70658040D01*
X134108040Y-70568332D01*
X134108440Y-70567548D01*
X134152848Y-70480392D01*
X134165636Y-70455294D01*
X134171891Y-70415796D01*
X134191485Y-70383820D01*
X134212619Y-70375065D01*
X134263664Y-70366981D01*
X134353612Y-70321150D01*
X134376695Y-70309389D01*
X134376697Y-70309387D01*
X134376702Y-70309385D01*
X134466410Y-70219677D01*
X134468953Y-70214686D01*
X134524004Y-70106644D01*
X134524004Y-70106642D01*
X134524006Y-70106639D01*
X134543852Y-69981335D01*
X134524006Y-69856031D01*
X134524004Y-69856027D01*
X134524004Y-69856025D01*
X134466414Y-69742999D01*
X134466409Y-69742992D01*
X134377840Y-69654423D01*
X134363488Y-69619775D01*
X134368827Y-69597533D01*
X134405636Y-69525294D01*
X134425482Y-69399990D01*
X134413565Y-69324748D01*
X149684500Y-69324748D01*
X149696133Y-69383231D01*
X149702246Y-69392379D01*
X149740447Y-69449552D01*
X149766911Y-69467234D01*
X149806769Y-69493867D01*
X149865252Y-69505500D01*
X149865255Y-69505500D01*
X151254745Y-69505500D01*
X151254748Y-69505500D01*
X151313231Y-69493867D01*
X151379552Y-69449552D01*
X151423867Y-69383231D01*
X151435500Y-69324748D01*
X151435500Y-67935252D01*
X151423867Y-67876769D01*
X151396866Y-67836360D01*
X151379552Y-67810447D01*
X151327297Y-67775532D01*
X151313231Y-67766133D01*
X151254748Y-67754500D01*
X149865252Y-67754500D01*
X149806769Y-67766133D01*
X149740447Y-67810447D01*
X149702247Y-67867619D01*
X149696133Y-67876769D01*
X149684500Y-67935252D01*
X149684500Y-69324748D01*
X134413565Y-69324748D01*
X134405636Y-69274686D01*
X134405634Y-69274682D01*
X134405634Y-69274680D01*
X134348044Y-69161654D01*
X134348039Y-69161647D01*
X134258332Y-69071940D01*
X134258325Y-69071935D01*
X134145298Y-69014345D01*
X134145295Y-69014344D01*
X134145294Y-69014344D01*
X134019990Y-68994498D01*
X133894686Y-69014344D01*
X133894684Y-69014344D01*
X133894682Y-69014345D01*
X133894680Y-69014345D01*
X133781654Y-69071935D01*
X133781647Y-69071940D01*
X133691940Y-69161647D01*
X133691935Y-69161654D01*
X133634345Y-69274680D01*
X133634345Y-69274682D01*
X133634344Y-69274684D01*
X133634344Y-69274686D01*
X133614498Y-69399990D01*
X133634344Y-69525294D01*
X133634344Y-69525295D01*
X133634345Y-69525297D01*
X133634345Y-69525299D01*
X133691935Y-69638325D01*
X133691940Y-69638332D01*
X133780508Y-69726900D01*
X133794860Y-69761548D01*
X133789520Y-69783793D01*
X133752715Y-69856028D01*
X133752714Y-69856029D01*
X133752714Y-69856031D01*
X133746882Y-69892847D01*
X133746458Y-69895529D01*
X133726861Y-69927505D01*
X133705728Y-69936259D01*
X133676623Y-69940869D01*
X133654686Y-69944344D01*
X133654685Y-69944344D01*
X133654681Y-69944345D01*
X133541654Y-70001935D01*
X133541647Y-70001940D01*
X133469638Y-70073950D01*
X133434990Y-70088302D01*
X133400342Y-70073950D01*
X133338332Y-70011940D01*
X133338325Y-70011935D01*
X133225298Y-69954345D01*
X133225295Y-69954344D01*
X133225294Y-69954344D01*
X133099990Y-69934498D01*
X132974686Y-69954344D01*
X132974684Y-69954344D01*
X132974682Y-69954345D01*
X132974680Y-69954345D01*
X132861654Y-70011935D01*
X132861647Y-70011940D01*
X132771940Y-70101647D01*
X132771935Y-70101654D01*
X132714345Y-70214680D01*
X132714345Y-70214682D01*
X132714344Y-70214684D01*
X132714344Y-70214686D01*
X132694498Y-70339990D01*
X121553660Y-70339990D01*
X121558802Y-70325296D01*
X121558804Y-70325287D01*
X121578988Y-70146150D01*
X121558804Y-69967012D01*
X121558802Y-69967003D01*
X121499263Y-69796849D01*
X121499257Y-69796837D01*
X121490588Y-69783042D01*
X121490587Y-69783041D01*
X121127480Y-70146149D01*
X121127480Y-70146150D01*
X120948927Y-70146150D01*
X120948927Y-70111340D01*
X120922284Y-70047021D01*
X120873056Y-69997793D01*
X120808737Y-69971150D01*
X120739117Y-69971150D01*
X120674798Y-69997793D01*
X120625570Y-70047021D01*
X120598927Y-70111340D01*
X120598927Y-70180960D01*
X120385563Y-70180960D01*
X120420373Y-70146150D01*
X120420373Y-70146149D01*
X120226964Y-69952739D01*
X120226962Y-69952739D01*
X120162962Y-70016739D01*
X120145925Y-69953157D01*
X120080099Y-69839143D01*
X119987007Y-69746051D01*
X119872993Y-69680225D01*
X119809409Y-69663187D01*
X119867827Y-69604769D01*
X120586099Y-69604769D01*
X120773926Y-69792596D01*
X120886523Y-69680000D01*
X123124508Y-69680000D01*
X123144354Y-69805304D01*
X123144354Y-69805305D01*
X123144355Y-69805307D01*
X123144355Y-69805309D01*
X123201945Y-69918335D01*
X123201950Y-69918342D01*
X123291657Y-70008049D01*
X123291664Y-70008054D01*
X123404691Y-70065644D01*
X123404692Y-70065644D01*
X123404696Y-70065646D01*
X123530000Y-70085492D01*
X123655304Y-70065646D01*
X123655308Y-70065644D01*
X123655309Y-70065644D01*
X123768335Y-70008054D01*
X123768337Y-70008052D01*
X123768342Y-70008050D01*
X123858050Y-69918342D01*
X123869674Y-69895529D01*
X123915644Y-69805309D01*
X123915644Y-69805307D01*
X123915646Y-69805304D01*
X123935492Y-69680000D01*
X123915646Y-69554696D01*
X123915644Y-69554692D01*
X123915644Y-69554690D01*
X123858054Y-69441664D01*
X123858049Y-69441657D01*
X123768342Y-69351950D01*
X123768335Y-69351945D01*
X123655308Y-69294355D01*
X123655305Y-69294354D01*
X123655304Y-69294354D01*
X123530000Y-69274508D01*
X123404696Y-69294354D01*
X123404694Y-69294354D01*
X123404692Y-69294355D01*
X123404690Y-69294355D01*
X123291664Y-69351945D01*
X123291657Y-69351950D01*
X123201950Y-69441657D01*
X123201945Y-69441664D01*
X123144355Y-69554690D01*
X123144355Y-69554692D01*
X123144354Y-69554694D01*
X123144354Y-69554696D01*
X123124508Y-69680000D01*
X120886523Y-69680000D01*
X120961754Y-69604769D01*
X120961754Y-69604768D01*
X120773928Y-69416941D01*
X120773927Y-69416941D01*
X120586099Y-69604769D01*
X119867827Y-69604769D01*
X119867827Y-69604768D01*
X119680001Y-69416941D01*
X119680000Y-69416941D01*
X119492172Y-69604769D01*
X119550590Y-69663187D01*
X119487007Y-69680225D01*
X119372993Y-69746051D01*
X119279901Y-69839143D01*
X119214075Y-69953157D01*
X119197037Y-70016740D01*
X119160000Y-69979703D01*
X118993553Y-70146150D01*
X118815000Y-70146150D01*
X118815000Y-70111340D01*
X118788357Y-70047021D01*
X118739129Y-69997793D01*
X118674810Y-69971150D01*
X118605190Y-69971150D01*
X118540871Y-69997793D01*
X118491643Y-70047021D01*
X118465000Y-70111340D01*
X118465000Y-70180960D01*
X118251636Y-70180960D01*
X118286446Y-70146150D01*
X117923337Y-69783041D01*
X117914661Y-69796850D01*
X117855125Y-69967000D01*
X117855122Y-69967012D01*
X117834938Y-70146150D01*
X116746981Y-70146150D01*
X116645308Y-70094345D01*
X116645305Y-70094344D01*
X116645304Y-70094344D01*
X116520000Y-70074498D01*
X116394696Y-70094344D01*
X116394694Y-70094344D01*
X116394692Y-70094345D01*
X116394690Y-70094345D01*
X116281664Y-70151935D01*
X116281657Y-70151940D01*
X116191950Y-70241647D01*
X116191945Y-70241654D01*
X116134355Y-70354680D01*
X116134355Y-70354682D01*
X116134354Y-70354684D01*
X116134354Y-70354686D01*
X116114508Y-70479990D01*
X109171239Y-70479990D01*
X109185492Y-70390000D01*
X109165646Y-70264696D01*
X109165644Y-70264692D01*
X109165644Y-70264690D01*
X109108054Y-70151664D01*
X109108049Y-70151657D01*
X109018342Y-70061950D01*
X109018335Y-70061945D01*
X108905308Y-70004355D01*
X108905305Y-70004354D01*
X108905304Y-70004354D01*
X108780000Y-69984508D01*
X108654696Y-70004354D01*
X108654694Y-70004354D01*
X108654692Y-70004355D01*
X108654690Y-70004355D01*
X108541664Y-70061945D01*
X108541657Y-70061950D01*
X108451950Y-70151657D01*
X108451945Y-70151664D01*
X108394355Y-70264690D01*
X108394355Y-70264692D01*
X108394354Y-70264694D01*
X108394354Y-70264696D01*
X108374508Y-70390000D01*
X72760570Y-70390000D01*
X72760570Y-69279990D01*
X116164508Y-69279990D01*
X116184354Y-69405294D01*
X116184354Y-69405295D01*
X116184355Y-69405297D01*
X116184355Y-69405299D01*
X116241945Y-69518325D01*
X116241950Y-69518332D01*
X116331657Y-69608039D01*
X116331664Y-69608044D01*
X116444691Y-69665634D01*
X116444692Y-69665634D01*
X116444696Y-69665636D01*
X116570000Y-69685482D01*
X116695304Y-69665636D01*
X116695308Y-69665634D01*
X116695309Y-69665634D01*
X116808335Y-69608044D01*
X116808337Y-69608042D01*
X116808342Y-69608040D01*
X116811613Y-69604769D01*
X118452172Y-69604769D01*
X118640000Y-69792596D01*
X118640001Y-69792596D01*
X118806446Y-69626149D01*
X118694292Y-69513995D01*
X118679940Y-69479347D01*
X118681025Y-69476727D01*
X118681025Y-69457967D01*
X118640000Y-69416941D01*
X118452172Y-69604769D01*
X116811613Y-69604769D01*
X116898050Y-69518332D01*
X116900260Y-69513995D01*
X116955644Y-69405299D01*
X116955644Y-69405297D01*
X116955646Y-69405294D01*
X116975492Y-69279990D01*
X116955646Y-69154686D01*
X116955644Y-69154682D01*
X116955644Y-69154680D01*
X116909128Y-69063388D01*
X117834938Y-69063388D01*
X117855122Y-69242525D01*
X117855124Y-69242534D01*
X117914664Y-69412690D01*
X117914664Y-69412692D01*
X117923338Y-69426494D01*
X117923338Y-69426495D01*
X118251636Y-69098198D01*
X118465000Y-69098198D01*
X118491643Y-69162517D01*
X118540871Y-69211745D01*
X118605190Y-69238388D01*
X118674810Y-69238388D01*
X118739129Y-69211745D01*
X118788357Y-69162517D01*
X118815000Y-69098198D01*
X118815000Y-69063388D01*
X118993553Y-69063388D01*
X119159999Y-69229834D01*
X119291636Y-69098198D01*
X119505000Y-69098198D01*
X119531643Y-69162517D01*
X119580871Y-69211745D01*
X119645190Y-69238388D01*
X119714810Y-69238388D01*
X119779129Y-69211745D01*
X119828357Y-69162517D01*
X119855000Y-69098198D01*
X119855000Y-69063388D01*
X120033553Y-69063388D01*
X120221380Y-69251215D01*
X120326868Y-69145729D01*
X120345926Y-69137834D01*
X120385563Y-69098198D01*
X120598927Y-69098198D01*
X120625570Y-69162517D01*
X120674798Y-69211745D01*
X120739117Y-69238388D01*
X120808737Y-69238388D01*
X120873056Y-69211745D01*
X120922284Y-69162517D01*
X120948927Y-69098198D01*
X120948927Y-69063388D01*
X121127480Y-69063388D01*
X121490587Y-69426494D01*
X121499264Y-69412687D01*
X121558802Y-69242534D01*
X121558804Y-69242525D01*
X121578988Y-69063388D01*
X121558804Y-68884250D01*
X121558802Y-68884241D01*
X121499263Y-68714087D01*
X121499257Y-68714075D01*
X121490588Y-68700280D01*
X121490587Y-68700279D01*
X121127480Y-69063387D01*
X121127480Y-69063388D01*
X120948927Y-69063388D01*
X120948927Y-69028578D01*
X120922284Y-68964259D01*
X120873056Y-68915031D01*
X120808737Y-68888388D01*
X120739117Y-68888388D01*
X120674798Y-68915031D01*
X120625570Y-68964259D01*
X120598927Y-69028578D01*
X120598927Y-69098198D01*
X120385563Y-69098198D01*
X120420373Y-69063388D01*
X120226963Y-68869978D01*
X120033553Y-69063388D01*
X119855000Y-69063388D01*
X119855000Y-69028578D01*
X119828357Y-68964259D01*
X119779129Y-68915031D01*
X119714810Y-68888388D01*
X119645190Y-68888388D01*
X119580871Y-68915031D01*
X119531643Y-68964259D01*
X119505000Y-69028578D01*
X119505000Y-69098198D01*
X119291636Y-69098198D01*
X119326446Y-69063388D01*
X119326446Y-69063387D01*
X119160001Y-68896941D01*
X119160000Y-68896941D01*
X118993553Y-69063388D01*
X118815000Y-69063388D01*
X118815000Y-69028578D01*
X118788357Y-68964259D01*
X118739129Y-68915031D01*
X118674810Y-68888388D01*
X118605190Y-68888388D01*
X118540871Y-68915031D01*
X118491643Y-68964259D01*
X118465000Y-69028578D01*
X118465000Y-69098198D01*
X118251636Y-69098198D01*
X118286446Y-69063388D01*
X117923337Y-68700279D01*
X117914661Y-68714088D01*
X117855125Y-68884238D01*
X117855122Y-68884250D01*
X117834938Y-69063388D01*
X116909128Y-69063388D01*
X116898054Y-69041654D01*
X116898049Y-69041647D01*
X116808342Y-68951940D01*
X116808335Y-68951935D01*
X116695308Y-68894345D01*
X116695305Y-68894344D01*
X116695304Y-68894344D01*
X116570000Y-68874498D01*
X116444696Y-68894344D01*
X116444694Y-68894344D01*
X116444692Y-68894345D01*
X116444690Y-68894345D01*
X116331664Y-68951935D01*
X116331657Y-68951940D01*
X116241950Y-69041647D01*
X116241945Y-69041654D01*
X116184355Y-69154680D01*
X116184355Y-69154682D01*
X116184354Y-69154684D01*
X116184354Y-69154686D01*
X116164508Y-69279990D01*
X72760570Y-69279990D01*
X72760570Y-68599991D01*
X111370816Y-68599991D01*
X111389416Y-68729355D01*
X111443707Y-68848237D01*
X111443710Y-68848241D01*
X111485909Y-68896941D01*
X111529295Y-68947011D01*
X111639242Y-69017669D01*
X111709017Y-69038156D01*
X111764638Y-69054489D01*
X111764641Y-69054489D01*
X111764643Y-69054490D01*
X111764644Y-69054490D01*
X111895336Y-69054490D01*
X111895337Y-69054490D01*
X111895339Y-69054489D01*
X111895341Y-69054489D01*
X111939052Y-69041654D01*
X112020738Y-69017669D01*
X112130685Y-68947011D01*
X112216272Y-68848238D01*
X112270564Y-68729354D01*
X112289164Y-68599990D01*
X112270564Y-68470626D01*
X112216272Y-68351742D01*
X112130685Y-68252969D01*
X112020738Y-68182311D01*
X112020735Y-68182310D01*
X111895341Y-68145490D01*
X111895337Y-68145490D01*
X111764643Y-68145490D01*
X111764638Y-68145490D01*
X111639244Y-68182310D01*
X111529294Y-68252969D01*
X111443710Y-68351738D01*
X111443707Y-68351742D01*
X111389416Y-68470624D01*
X111370816Y-68599988D01*
X111370816Y-68599991D01*
X72760570Y-68599991D01*
X72760570Y-68025884D01*
X112268435Y-68025884D01*
X112288281Y-68151188D01*
X112288281Y-68151189D01*
X112288282Y-68151191D01*
X112288282Y-68151193D01*
X112345872Y-68264219D01*
X112345877Y-68264226D01*
X112435584Y-68353933D01*
X112435591Y-68353938D01*
X112548618Y-68411528D01*
X112548619Y-68411528D01*
X112548623Y-68411530D01*
X112673927Y-68431376D01*
X112799231Y-68411530D01*
X112799235Y-68411528D01*
X112799236Y-68411528D01*
X112912262Y-68353938D01*
X112912264Y-68353936D01*
X112912269Y-68353934D01*
X113001977Y-68264226D01*
X113001981Y-68264219D01*
X113059571Y-68151193D01*
X113059571Y-68151191D01*
X113059573Y-68151188D01*
X113069264Y-68090000D01*
X116134508Y-68090000D01*
X116154354Y-68215304D01*
X116154354Y-68215305D01*
X116154355Y-68215307D01*
X116154355Y-68215309D01*
X116211945Y-68328335D01*
X116211950Y-68328342D01*
X116301657Y-68418049D01*
X116301664Y-68418054D01*
X116414691Y-68475644D01*
X116414692Y-68475644D01*
X116414696Y-68475646D01*
X116540000Y-68495492D01*
X116665304Y-68475646D01*
X116665308Y-68475644D01*
X116665309Y-68475644D01*
X116778335Y-68418054D01*
X116778337Y-68418052D01*
X116778342Y-68418050D01*
X116849667Y-68346725D01*
X118276891Y-68346725D01*
X118640000Y-68709834D01*
X118640001Y-68709834D01*
X119003107Y-68346726D01*
X119003105Y-68346725D01*
X119316891Y-68346725D01*
X119680000Y-68709834D01*
X119680001Y-68709834D01*
X120043107Y-68346726D01*
X120043105Y-68346725D01*
X120410818Y-68346725D01*
X120773927Y-68709834D01*
X120773928Y-68709834D01*
X121137034Y-68346726D01*
X121123230Y-68338052D01*
X120953073Y-68278512D01*
X120953064Y-68278510D01*
X120773927Y-68258326D01*
X120594789Y-68278510D01*
X120594777Y-68278513D01*
X120424627Y-68338049D01*
X120410818Y-68346725D01*
X120043105Y-68346725D01*
X120029303Y-68338052D01*
X119859146Y-68278512D01*
X119859137Y-68278510D01*
X119680000Y-68258326D01*
X119500862Y-68278510D01*
X119500850Y-68278513D01*
X119330700Y-68338049D01*
X119316891Y-68346725D01*
X119003105Y-68346725D01*
X118989303Y-68338052D01*
X118819146Y-68278512D01*
X118819137Y-68278510D01*
X118640000Y-68258326D01*
X118460862Y-68278510D01*
X118460850Y-68278513D01*
X118290700Y-68338049D01*
X118276891Y-68346725D01*
X116849667Y-68346725D01*
X116868050Y-68328342D01*
X116868054Y-68328335D01*
X116925644Y-68215309D01*
X116925644Y-68215307D01*
X116925646Y-68215304D01*
X116945492Y-68090000D01*
X116925646Y-67964696D01*
X116925644Y-67964692D01*
X116925644Y-67964690D01*
X116868054Y-67851664D01*
X116868049Y-67851657D01*
X116778342Y-67761950D01*
X116778335Y-67761945D01*
X116665308Y-67704355D01*
X116665305Y-67704354D01*
X116665304Y-67704354D01*
X116540000Y-67684508D01*
X116414696Y-67704354D01*
X116414694Y-67704354D01*
X116414692Y-67704355D01*
X116414690Y-67704355D01*
X116301664Y-67761945D01*
X116301657Y-67761950D01*
X116211950Y-67851657D01*
X116211945Y-67851664D01*
X116154355Y-67964690D01*
X116154355Y-67964692D01*
X116154354Y-67964694D01*
X116154354Y-67964696D01*
X116134508Y-68090000D01*
X113069264Y-68090000D01*
X113079419Y-68025884D01*
X113059573Y-67900580D01*
X113059571Y-67900576D01*
X113059571Y-67900574D01*
X113001981Y-67787548D01*
X113001976Y-67787541D01*
X112989967Y-67775532D01*
X112975615Y-67740884D01*
X112989967Y-67706236D01*
X112999967Y-67696236D01*
X113011977Y-67684226D01*
X113011981Y-67684219D01*
X113069571Y-67571193D01*
X113069571Y-67571191D01*
X113069573Y-67571188D01*
X113089419Y-67445884D01*
X113069573Y-67320580D01*
X113069571Y-67320576D01*
X113069571Y-67320574D01*
X113011981Y-67207548D01*
X113011976Y-67207541D01*
X112922269Y-67117834D01*
X112922262Y-67117829D01*
X112809235Y-67060239D01*
X112809232Y-67060238D01*
X112809231Y-67060238D01*
X112683927Y-67040392D01*
X112558623Y-67060238D01*
X112558621Y-67060238D01*
X112558619Y-67060239D01*
X112558617Y-67060239D01*
X112445591Y-67117829D01*
X112445584Y-67117834D01*
X112355877Y-67207541D01*
X112355872Y-67207548D01*
X112298282Y-67320574D01*
X112298282Y-67320576D01*
X112298281Y-67320578D01*
X112298281Y-67320580D01*
X112278435Y-67445884D01*
X112298281Y-67571188D01*
X112298281Y-67571189D01*
X112298282Y-67571191D01*
X112298282Y-67571193D01*
X112355872Y-67684219D01*
X112355877Y-67684226D01*
X112367887Y-67696236D01*
X112382239Y-67730884D01*
X112367887Y-67765532D01*
X112345877Y-67787541D01*
X112345872Y-67787548D01*
X112288282Y-67900574D01*
X112288282Y-67900576D01*
X112288281Y-67900578D01*
X112288281Y-67900580D01*
X112268435Y-68025884D01*
X72760570Y-68025884D01*
X72760570Y-67200000D01*
X105454508Y-67200000D01*
X105474354Y-67325304D01*
X105474354Y-67325305D01*
X105474355Y-67325307D01*
X105474355Y-67325309D01*
X105531945Y-67438335D01*
X105531950Y-67438342D01*
X105621657Y-67528049D01*
X105621664Y-67528054D01*
X105734691Y-67585644D01*
X105734692Y-67585644D01*
X105734696Y-67585646D01*
X105860000Y-67605492D01*
X105985304Y-67585646D01*
X105985308Y-67585644D01*
X105985309Y-67585644D01*
X106098335Y-67528054D01*
X106098337Y-67528052D01*
X106098342Y-67528050D01*
X106188050Y-67438342D01*
X106188054Y-67438335D01*
X106245644Y-67325309D01*
X106245644Y-67325307D01*
X106245646Y-67325304D01*
X106265492Y-67200000D01*
X106245646Y-67074696D01*
X106245644Y-67074692D01*
X106245644Y-67074690D01*
X106217778Y-67020000D01*
X117394498Y-67020000D01*
X117414344Y-67145304D01*
X117414344Y-67145305D01*
X117414345Y-67145307D01*
X117414345Y-67145309D01*
X117471935Y-67258335D01*
X117471940Y-67258342D01*
X117561647Y-67348049D01*
X117561654Y-67348054D01*
X117674681Y-67405644D01*
X117674682Y-67405644D01*
X117674686Y-67405646D01*
X117799990Y-67425492D01*
X117925294Y-67405646D01*
X117925298Y-67405644D01*
X117925299Y-67405644D01*
X118038325Y-67348054D01*
X118038327Y-67348052D01*
X118038332Y-67348050D01*
X118128040Y-67258342D01*
X118128044Y-67258335D01*
X118185634Y-67145309D01*
X118185634Y-67145307D01*
X118185636Y-67145304D01*
X118205482Y-67020000D01*
X118185636Y-66894696D01*
X118185634Y-66894692D01*
X118185634Y-66894690D01*
X118128044Y-66781664D01*
X118128039Y-66781657D01*
X118076030Y-66729648D01*
X118061678Y-66695000D01*
X118076030Y-66660352D01*
X118116041Y-66620341D01*
X118168050Y-66568332D01*
X118183336Y-66538332D01*
X118225644Y-66455299D01*
X118225644Y-66455297D01*
X118225646Y-66455294D01*
X118243908Y-66339990D01*
X118624498Y-66339990D01*
X118644344Y-66465294D01*
X118644344Y-66465295D01*
X118644345Y-66465297D01*
X118644345Y-66465299D01*
X118701935Y-66578325D01*
X118701940Y-66578332D01*
X118791647Y-66668039D01*
X118791654Y-66668044D01*
X118904681Y-66725634D01*
X118904682Y-66725634D01*
X118904686Y-66725636D01*
X119029990Y-66745482D01*
X119155294Y-66725636D01*
X119155298Y-66725634D01*
X119155299Y-66725634D01*
X119268325Y-66668044D01*
X119268327Y-66668042D01*
X119268332Y-66668040D01*
X119358040Y-66578332D01*
X119358546Y-66577339D01*
X119415634Y-66465299D01*
X119415634Y-66465297D01*
X119415636Y-66465294D01*
X119435482Y-66339990D01*
X119834508Y-66339990D01*
X119854354Y-66465294D01*
X119854354Y-66465295D01*
X119854355Y-66465297D01*
X119854355Y-66465299D01*
X119911945Y-66578325D01*
X119911950Y-66578332D01*
X120001657Y-66668039D01*
X120001664Y-66668044D01*
X120114691Y-66725634D01*
X120114692Y-66725634D01*
X120114696Y-66725636D01*
X120240000Y-66745482D01*
X120365304Y-66725636D01*
X120365308Y-66725634D01*
X120365309Y-66725634D01*
X120478335Y-66668044D01*
X120478337Y-66668042D01*
X120478342Y-66668040D01*
X120568050Y-66578332D01*
X120568556Y-66577339D01*
X120625644Y-66465299D01*
X120625644Y-66465297D01*
X120625646Y-66465294D01*
X120645492Y-66339990D01*
X120645247Y-66338445D01*
X121828388Y-66338445D01*
X121848234Y-66463749D01*
X121848234Y-66463750D01*
X121848235Y-66463752D01*
X121848235Y-66463754D01*
X121905825Y-66576780D01*
X121905830Y-66576787D01*
X121995537Y-66666494D01*
X121995544Y-66666499D01*
X122108571Y-66724089D01*
X122108572Y-66724089D01*
X122108576Y-66724091D01*
X122233880Y-66743937D01*
X122359184Y-66724091D01*
X122359188Y-66724089D01*
X122359189Y-66724089D01*
X122472215Y-66666499D01*
X122472217Y-66666497D01*
X122472222Y-66666495D01*
X122561930Y-66576787D01*
X122581524Y-66538332D01*
X122619524Y-66463754D01*
X122619524Y-66463752D01*
X122619526Y-66463749D01*
X122639372Y-66338445D01*
X122633281Y-66299990D01*
X122894498Y-66299990D01*
X122914344Y-66425294D01*
X122914344Y-66425295D01*
X122914345Y-66425297D01*
X122914345Y-66425299D01*
X122971935Y-66538325D01*
X122971940Y-66538332D01*
X123061647Y-66628039D01*
X123061654Y-66628044D01*
X123174681Y-66685634D01*
X123174682Y-66685634D01*
X123174686Y-66685636D01*
X123299990Y-66705482D01*
X123425294Y-66685636D01*
X123425298Y-66685634D01*
X123425299Y-66685634D01*
X123534486Y-66630000D01*
X149679678Y-66630000D01*
X149698915Y-66813029D01*
X149755786Y-66988059D01*
X149774227Y-67020000D01*
X149846573Y-67145307D01*
X149847805Y-67147440D01*
X149847808Y-67147443D01*
X149970945Y-67284203D01*
X149970948Y-67284205D01*
X149970950Y-67284207D01*
X150119839Y-67392381D01*
X150287966Y-67467236D01*
X150467981Y-67505500D01*
X150652019Y-67505500D01*
X150832034Y-67467236D01*
X151000161Y-67392381D01*
X151149050Y-67284207D01*
X151272195Y-67147440D01*
X151357261Y-67000101D01*
X151387012Y-66977273D01*
X151424194Y-66982168D01*
X151446823Y-67011193D01*
X151459650Y-67056274D01*
X151459653Y-67056282D01*
X151556713Y-67251205D01*
X151556716Y-67251209D01*
X151687941Y-67424981D01*
X151687944Y-67424984D01*
X151848866Y-67571683D01*
X152034017Y-67686324D01*
X152187815Y-67745906D01*
X152214939Y-67771805D01*
X152215805Y-67809298D01*
X152190045Y-67836360D01*
X152119839Y-67867618D01*
X151970948Y-67975794D01*
X151970945Y-67975796D01*
X151847808Y-68112556D01*
X151847802Y-68112564D01*
X151755788Y-68271937D01*
X151755786Y-68271940D01*
X151708311Y-68418054D01*
X151698915Y-68446971D01*
X151679678Y-68630000D01*
X151698915Y-68813029D01*
X151755786Y-68988059D01*
X151847805Y-69147440D01*
X151860597Y-69161647D01*
X151970945Y-69284203D01*
X151970948Y-69284205D01*
X151970950Y-69284207D01*
X152119839Y-69392381D01*
X152287966Y-69467236D01*
X152467981Y-69505500D01*
X152652019Y-69505500D01*
X152832034Y-69467236D01*
X153000161Y-69392381D01*
X153149050Y-69284207D01*
X153157627Y-69274682D01*
X153198007Y-69229834D01*
X153272195Y-69147440D01*
X153364214Y-68988059D01*
X153421085Y-68813029D01*
X153440322Y-68630000D01*
X153421085Y-68446971D01*
X153364214Y-68271941D01*
X153272195Y-68112560D01*
X153243285Y-68080453D01*
X153149054Y-67975796D01*
X153149051Y-67975794D01*
X153133771Y-67964692D01*
X153000161Y-67867619D01*
X152952331Y-67846324D01*
X152929955Y-67836361D01*
X152904139Y-67809157D01*
X152905121Y-67771667D01*
X152932184Y-67745906D01*
X153085982Y-67686324D01*
X153271133Y-67571683D01*
X153432055Y-67424984D01*
X153432058Y-67424981D01*
X153563283Y-67251209D01*
X153563286Y-67251205D01*
X153660346Y-67056282D01*
X153660350Y-67056272D01*
X153710505Y-66880000D01*
X152875686Y-66880000D01*
X152880080Y-66875606D01*
X152932741Y-66784394D01*
X152960000Y-66682661D01*
X152960000Y-66577339D01*
X152932741Y-66475606D01*
X152880080Y-66384394D01*
X152875686Y-66380000D01*
X153710505Y-66380000D01*
X153710505Y-66379999D01*
X153660350Y-66203727D01*
X153660346Y-66203717D01*
X153563286Y-66008794D01*
X153563283Y-66008790D01*
X153432058Y-65835018D01*
X153432055Y-65835015D01*
X153271133Y-65688316D01*
X153085982Y-65573675D01*
X152932183Y-65514093D01*
X152905059Y-65488194D01*
X152904193Y-65450701D01*
X152929952Y-65423640D01*
X153000161Y-65392381D01*
X153149050Y-65284207D01*
X153272195Y-65147440D01*
X153364214Y-64988059D01*
X153421085Y-64813029D01*
X153440322Y-64630000D01*
X153421085Y-64446971D01*
X153364214Y-64271941D01*
X153272195Y-64112560D01*
X153196097Y-64028044D01*
X153149054Y-63975796D01*
X153149051Y-63975794D01*
X153097480Y-63938325D01*
X153000161Y-63867619D01*
X152832034Y-63792764D01*
X152832031Y-63792763D01*
X152832027Y-63792762D01*
X152652019Y-63754500D01*
X152467981Y-63754500D01*
X152287972Y-63792762D01*
X152287963Y-63792765D01*
X152119837Y-63867620D01*
X151970948Y-63975794D01*
X151970945Y-63975796D01*
X151847808Y-64112556D01*
X151847802Y-64112564D01*
X151755788Y-64271937D01*
X151755786Y-64271940D01*
X151698915Y-64446970D01*
X151679678Y-64630000D01*
X151698915Y-64813029D01*
X151755786Y-64988059D01*
X151755788Y-64988062D01*
X151846211Y-65144680D01*
X151847805Y-65147440D01*
X151847808Y-65147443D01*
X151970945Y-65284203D01*
X151970948Y-65284205D01*
X151970950Y-65284207D01*
X152119839Y-65392381D01*
X152190046Y-65423639D01*
X152215860Y-65450842D01*
X152214879Y-65488332D01*
X152187816Y-65514093D01*
X152034017Y-65573675D01*
X151848866Y-65688316D01*
X151687944Y-65835015D01*
X151687941Y-65835018D01*
X151556716Y-66008790D01*
X151556713Y-66008794D01*
X151459653Y-66203717D01*
X151459649Y-66203727D01*
X151446823Y-66248805D01*
X151423537Y-66278203D01*
X151386284Y-66282524D01*
X151357259Y-66259895D01*
X151339999Y-66230000D01*
X151272195Y-66112560D01*
X151226353Y-66061647D01*
X151149054Y-65975796D01*
X151149051Y-65975794D01*
X151143747Y-65971940D01*
X151000161Y-65867619D01*
X150832034Y-65792764D01*
X150832031Y-65792763D01*
X150832027Y-65792762D01*
X150652019Y-65754500D01*
X150467981Y-65754500D01*
X150287972Y-65792762D01*
X150287963Y-65792765D01*
X150119837Y-65867620D01*
X149970948Y-65975794D01*
X149970945Y-65975796D01*
X149847808Y-66112556D01*
X149847802Y-66112564D01*
X149755788Y-66271937D01*
X149755786Y-66271940D01*
X149698915Y-66446970D01*
X149685272Y-66576780D01*
X149679678Y-66630000D01*
X123534486Y-66630000D01*
X123538325Y-66628044D01*
X123538327Y-66628042D01*
X123538332Y-66628040D01*
X123628040Y-66538332D01*
X123660001Y-66475606D01*
X123685634Y-66425299D01*
X123685634Y-66425297D01*
X123685636Y-66425294D01*
X123705482Y-66299990D01*
X123685636Y-66174686D01*
X123685634Y-66174682D01*
X123685634Y-66174680D01*
X123628044Y-66061654D01*
X123628039Y-66061647D01*
X123538332Y-65971940D01*
X123538325Y-65971935D01*
X123425298Y-65914345D01*
X123425295Y-65914344D01*
X123425294Y-65914344D01*
X123299990Y-65894498D01*
X123174686Y-65914344D01*
X123174684Y-65914344D01*
X123174682Y-65914345D01*
X123174680Y-65914345D01*
X123061654Y-65971935D01*
X123061647Y-65971940D01*
X122971940Y-66061647D01*
X122971935Y-66061654D01*
X122914345Y-66174680D01*
X122914345Y-66174682D01*
X122914344Y-66174684D01*
X122914344Y-66174686D01*
X122894498Y-66299990D01*
X122633281Y-66299990D01*
X122619526Y-66213141D01*
X122619524Y-66213137D01*
X122619524Y-66213135D01*
X122561934Y-66100109D01*
X122561929Y-66100102D01*
X122472222Y-66010395D01*
X122472215Y-66010390D01*
X122359188Y-65952800D01*
X122359185Y-65952799D01*
X122359184Y-65952799D01*
X122233880Y-65932953D01*
X122108576Y-65952799D01*
X122108574Y-65952799D01*
X122108572Y-65952800D01*
X122108570Y-65952800D01*
X121995544Y-66010390D01*
X121995537Y-66010395D01*
X121905830Y-66100102D01*
X121905825Y-66100109D01*
X121848235Y-66213135D01*
X121848235Y-66213137D01*
X121848234Y-66213139D01*
X121848234Y-66213141D01*
X121828388Y-66338445D01*
X120645247Y-66338445D01*
X120625646Y-66214686D01*
X120625644Y-66214682D01*
X120625644Y-66214680D01*
X120568054Y-66101654D01*
X120568049Y-66101647D01*
X120478342Y-66011940D01*
X120478335Y-66011935D01*
X120365308Y-65954345D01*
X120365305Y-65954344D01*
X120365304Y-65954344D01*
X120240000Y-65934498D01*
X120114696Y-65954344D01*
X120114694Y-65954344D01*
X120114692Y-65954345D01*
X120114690Y-65954345D01*
X120001664Y-66011935D01*
X120001657Y-66011940D01*
X119911950Y-66101647D01*
X119911945Y-66101654D01*
X119854355Y-66214680D01*
X119854355Y-66214682D01*
X119854354Y-66214684D01*
X119854354Y-66214686D01*
X119834508Y-66339990D01*
X119435482Y-66339990D01*
X119415636Y-66214686D01*
X119415634Y-66214682D01*
X119415634Y-66214680D01*
X119358044Y-66101654D01*
X119358039Y-66101647D01*
X119268332Y-66011940D01*
X119268325Y-66011935D01*
X119155298Y-65954345D01*
X119155295Y-65954344D01*
X119155294Y-65954344D01*
X119029990Y-65934498D01*
X118904686Y-65954344D01*
X118904684Y-65954344D01*
X118904682Y-65954345D01*
X118904680Y-65954345D01*
X118791654Y-66011935D01*
X118791647Y-66011940D01*
X118701940Y-66101647D01*
X118701935Y-66101654D01*
X118644345Y-66214680D01*
X118644345Y-66214682D01*
X118644344Y-66214684D01*
X118644344Y-66214686D01*
X118624498Y-66339990D01*
X118243908Y-66339990D01*
X118245492Y-66329990D01*
X118225646Y-66204686D01*
X118225644Y-66204682D01*
X118225644Y-66204680D01*
X118168054Y-66091654D01*
X118168049Y-66091647D01*
X118078342Y-66001940D01*
X118078335Y-66001935D01*
X117965308Y-65944345D01*
X117965305Y-65944344D01*
X117965304Y-65944344D01*
X117840000Y-65924498D01*
X117714696Y-65944344D01*
X117714694Y-65944344D01*
X117714692Y-65944345D01*
X117714690Y-65944345D01*
X117601664Y-66001935D01*
X117601657Y-66001940D01*
X117511950Y-66091647D01*
X117511945Y-66091654D01*
X117454355Y-66204680D01*
X117454355Y-66204682D01*
X117454354Y-66204684D01*
X117454354Y-66204686D01*
X117434508Y-66329990D01*
X117454354Y-66455294D01*
X117454354Y-66455295D01*
X117454355Y-66455297D01*
X117454355Y-66455299D01*
X117511945Y-66568325D01*
X117511950Y-66568332D01*
X117563959Y-66620341D01*
X117578311Y-66654989D01*
X117563960Y-66689637D01*
X117471938Y-66781660D01*
X117471935Y-66781664D01*
X117414345Y-66894690D01*
X117414345Y-66894692D01*
X117414344Y-66894694D01*
X117414344Y-66894696D01*
X117394498Y-67020000D01*
X106217778Y-67020000D01*
X106188054Y-66961664D01*
X106188049Y-66961657D01*
X106098342Y-66871950D01*
X106098335Y-66871945D01*
X105985308Y-66814355D01*
X105985305Y-66814354D01*
X105985304Y-66814354D01*
X105860000Y-66794508D01*
X105734696Y-66814354D01*
X105734694Y-66814354D01*
X105734692Y-66814355D01*
X105734690Y-66814355D01*
X105621664Y-66871945D01*
X105621657Y-66871950D01*
X105531950Y-66961657D01*
X105531945Y-66961664D01*
X105474355Y-67074690D01*
X105474355Y-67074692D01*
X105474354Y-67074694D01*
X105474354Y-67074696D01*
X105454508Y-67200000D01*
X72760570Y-67200000D01*
X72760570Y-65269990D01*
X137604498Y-65269990D01*
X137624344Y-65395294D01*
X137624344Y-65395295D01*
X137624345Y-65395297D01*
X137624345Y-65395299D01*
X137681935Y-65508325D01*
X137681940Y-65508332D01*
X137771647Y-65598039D01*
X137771654Y-65598044D01*
X137884681Y-65655634D01*
X137884682Y-65655634D01*
X137884686Y-65655636D01*
X138009990Y-65675482D01*
X138135294Y-65655636D01*
X138135298Y-65655634D01*
X138135299Y-65655634D01*
X138248325Y-65598044D01*
X138248327Y-65598042D01*
X138248332Y-65598040D01*
X138338040Y-65508332D01*
X138348301Y-65488194D01*
X138395634Y-65395299D01*
X138395634Y-65395297D01*
X138395636Y-65395294D01*
X138402810Y-65350000D01*
X140024508Y-65350000D01*
X140044354Y-65475304D01*
X140044354Y-65475305D01*
X140044355Y-65475307D01*
X140044355Y-65475309D01*
X140101945Y-65588335D01*
X140101950Y-65588342D01*
X140191657Y-65678049D01*
X140191664Y-65678054D01*
X140304691Y-65735644D01*
X140304692Y-65735644D01*
X140304696Y-65735646D01*
X140430000Y-65755492D01*
X140555304Y-65735646D01*
X140555308Y-65735644D01*
X140555309Y-65735644D01*
X140668335Y-65678054D01*
X140668337Y-65678052D01*
X140668342Y-65678050D01*
X140758050Y-65588342D01*
X140758054Y-65588335D01*
X140815644Y-65475309D01*
X140815644Y-65475307D01*
X140815646Y-65475304D01*
X140835492Y-65350000D01*
X140815646Y-65224696D01*
X140815644Y-65224692D01*
X140815644Y-65224690D01*
X140758054Y-65111664D01*
X140758049Y-65111657D01*
X140668342Y-65021950D01*
X140668335Y-65021945D01*
X140555308Y-64964355D01*
X140555305Y-64964354D01*
X140555304Y-64964354D01*
X140430000Y-64944508D01*
X140304696Y-64964354D01*
X140304694Y-64964354D01*
X140304692Y-64964355D01*
X140304690Y-64964355D01*
X140191664Y-65021945D01*
X140191657Y-65021950D01*
X140101950Y-65111657D01*
X140101945Y-65111664D01*
X140044355Y-65224690D01*
X140044355Y-65224692D01*
X140044354Y-65224694D01*
X140044354Y-65224696D01*
X140024508Y-65350000D01*
X138402810Y-65350000D01*
X138415482Y-65269990D01*
X138395636Y-65144686D01*
X138395634Y-65144682D01*
X138395634Y-65144680D01*
X138338044Y-65031654D01*
X138338039Y-65031647D01*
X138248332Y-64941940D01*
X138248325Y-64941935D01*
X138135298Y-64884345D01*
X138135295Y-64884344D01*
X138135294Y-64884344D01*
X138009990Y-64864498D01*
X137884686Y-64884344D01*
X137884684Y-64884344D01*
X137884682Y-64884345D01*
X137884680Y-64884345D01*
X137771654Y-64941935D01*
X137771647Y-64941940D01*
X137681940Y-65031647D01*
X137681935Y-65031654D01*
X137624345Y-65144680D01*
X137624345Y-65144682D01*
X137624344Y-65144684D01*
X137624344Y-65144686D01*
X137604498Y-65269990D01*
X72760570Y-65269990D01*
X72760570Y-64630000D01*
X149679678Y-64630000D01*
X149698915Y-64813029D01*
X149755786Y-64988059D01*
X149755788Y-64988062D01*
X149846211Y-65144680D01*
X149847805Y-65147440D01*
X149847808Y-65147443D01*
X149970945Y-65284203D01*
X149970948Y-65284205D01*
X149970950Y-65284207D01*
X150119839Y-65392381D01*
X150287966Y-65467236D01*
X150467981Y-65505500D01*
X150652019Y-65505500D01*
X150832034Y-65467236D01*
X151000161Y-65392381D01*
X151149050Y-65284207D01*
X151272195Y-65147440D01*
X151364214Y-64988059D01*
X151421085Y-64813029D01*
X151440322Y-64630000D01*
X151421085Y-64446971D01*
X151364214Y-64271941D01*
X151272195Y-64112560D01*
X151196097Y-64028044D01*
X151149054Y-63975796D01*
X151149051Y-63975794D01*
X151097480Y-63938325D01*
X151000161Y-63867619D01*
X150832034Y-63792764D01*
X150832031Y-63792763D01*
X150832027Y-63792762D01*
X150652019Y-63754500D01*
X150467981Y-63754500D01*
X150287972Y-63792762D01*
X150287963Y-63792765D01*
X150119837Y-63867620D01*
X149970948Y-63975794D01*
X149970945Y-63975796D01*
X149847808Y-64112556D01*
X149847802Y-64112564D01*
X149755788Y-64271937D01*
X149755786Y-64271940D01*
X149698915Y-64446970D01*
X149679678Y-64630000D01*
X72760570Y-64630000D01*
X72760570Y-63420000D01*
X116214498Y-63420000D01*
X116234344Y-63545304D01*
X116234344Y-63545305D01*
X116234345Y-63545307D01*
X116234345Y-63545309D01*
X116291935Y-63658335D01*
X116291940Y-63658342D01*
X116381647Y-63748049D01*
X116381654Y-63748054D01*
X116494681Y-63805644D01*
X116494682Y-63805644D01*
X116494686Y-63805646D01*
X116619990Y-63825492D01*
X116745294Y-63805646D01*
X116745298Y-63805644D01*
X116745299Y-63805644D01*
X116858325Y-63748054D01*
X116858327Y-63748052D01*
X116858332Y-63748050D01*
X116906392Y-63699990D01*
X124794508Y-63699990D01*
X124814354Y-63825294D01*
X124814354Y-63825295D01*
X124814355Y-63825297D01*
X124814355Y-63825299D01*
X124871945Y-63938325D01*
X124871950Y-63938332D01*
X124961657Y-64028039D01*
X124961664Y-64028044D01*
X125074691Y-64085634D01*
X125074692Y-64085634D01*
X125074696Y-64085636D01*
X125200000Y-64105482D01*
X125325304Y-64085636D01*
X125325308Y-64085634D01*
X125325309Y-64085634D01*
X125438335Y-64028044D01*
X125438337Y-64028042D01*
X125438342Y-64028040D01*
X125528050Y-63938332D01*
X125564080Y-63867620D01*
X125585644Y-63825299D01*
X125585644Y-63825297D01*
X125585646Y-63825294D01*
X125605492Y-63699990D01*
X125585646Y-63574686D01*
X125585644Y-63574682D01*
X125585644Y-63574680D01*
X125528054Y-63461654D01*
X125528049Y-63461647D01*
X125438342Y-63371940D01*
X125438335Y-63371935D01*
X125325308Y-63314345D01*
X125325305Y-63314344D01*
X125325304Y-63314344D01*
X125200000Y-63294498D01*
X125074696Y-63314344D01*
X125074694Y-63314344D01*
X125074692Y-63314345D01*
X125074690Y-63314345D01*
X124961664Y-63371935D01*
X124961657Y-63371940D01*
X124871950Y-63461647D01*
X124871945Y-63461654D01*
X124814355Y-63574680D01*
X124814355Y-63574682D01*
X124814354Y-63574684D01*
X124814354Y-63574686D01*
X124794508Y-63699990D01*
X116906392Y-63699990D01*
X116948040Y-63658342D01*
X116948044Y-63658335D01*
X117005634Y-63545309D01*
X117005634Y-63545307D01*
X117005636Y-63545304D01*
X117025482Y-63420000D01*
X117005636Y-63294696D01*
X117005634Y-63294692D01*
X117005634Y-63294690D01*
X116948044Y-63181664D01*
X116948039Y-63181657D01*
X116858332Y-63091950D01*
X116858325Y-63091945D01*
X116745298Y-63034355D01*
X116745295Y-63034354D01*
X116745294Y-63034354D01*
X116619990Y-63014508D01*
X116494686Y-63034354D01*
X116494684Y-63034354D01*
X116494682Y-63034355D01*
X116494680Y-63034355D01*
X116381654Y-63091945D01*
X116381647Y-63091950D01*
X116291940Y-63181657D01*
X116291935Y-63181664D01*
X116234345Y-63294690D01*
X116234345Y-63294692D01*
X116234344Y-63294694D01*
X116234344Y-63294696D01*
X116214498Y-63420000D01*
X72760570Y-63420000D01*
X72760570Y-62769992D01*
X122954343Y-62769992D01*
X122974823Y-62912444D01*
X123006925Y-62982736D01*
X123034613Y-63043363D01*
X123034614Y-63043364D01*
X123034615Y-63043366D01*
X123128861Y-63152132D01*
X123128862Y-63152133D01*
X123249937Y-63229943D01*
X123326775Y-63252504D01*
X123388024Y-63270489D01*
X123388027Y-63270489D01*
X123388029Y-63270490D01*
X123388030Y-63270490D01*
X123531950Y-63270490D01*
X123531951Y-63270490D01*
X123531953Y-63270489D01*
X123531955Y-63270489D01*
X123554785Y-63263785D01*
X123670043Y-63229943D01*
X123791118Y-63152133D01*
X123885367Y-63043363D01*
X123945155Y-62912447D01*
X123945155Y-62912445D01*
X123945156Y-62912444D01*
X123965637Y-62769992D01*
X123965637Y-62769987D01*
X123945156Y-62627535D01*
X123940741Y-62617869D01*
X123885367Y-62496617D01*
X123791118Y-62387847D01*
X123670043Y-62310037D01*
X123670040Y-62310036D01*
X123531955Y-62269490D01*
X123531951Y-62269490D01*
X123388029Y-62269490D01*
X123388024Y-62269490D01*
X123249939Y-62310036D01*
X123128861Y-62387847D01*
X123034615Y-62496613D01*
X123034614Y-62496615D01*
X122974823Y-62627535D01*
X122954343Y-62769987D01*
X122954343Y-62769992D01*
X72760570Y-62769992D01*
X72760570Y-59409500D01*
X72774922Y-59374852D01*
X72809570Y-59360500D01*
X88830031Y-59360500D01*
X88830033Y-59360500D01*
X88885348Y-59337587D01*
X88927684Y-59295251D01*
X88950597Y-59239936D01*
X88950597Y-54090000D01*
X137051775Y-54090000D01*
X137071012Y-54273029D01*
X137127883Y-54448059D01*
X137219902Y-54607440D01*
X137219905Y-54607443D01*
X137343042Y-54744203D01*
X137343045Y-54744205D01*
X137343047Y-54744207D01*
X137491936Y-54852381D01*
X137660063Y-54927236D01*
X137840078Y-54965500D01*
X138024116Y-54965500D01*
X138204131Y-54927236D01*
X138372258Y-54852381D01*
X138521147Y-54744207D01*
X138644292Y-54607440D01*
X138736311Y-54448059D01*
X138793182Y-54273029D01*
X138812419Y-54090000D01*
X139051775Y-54090000D01*
X139071012Y-54273029D01*
X139127883Y-54448059D01*
X139219902Y-54607440D01*
X139219905Y-54607443D01*
X139343042Y-54744203D01*
X139343045Y-54744205D01*
X139343047Y-54744207D01*
X139491936Y-54852381D01*
X139660063Y-54927236D01*
X139840078Y-54965500D01*
X140024116Y-54965500D01*
X140204131Y-54927236D01*
X140372258Y-54852381D01*
X140521147Y-54744207D01*
X140644292Y-54607440D01*
X140736311Y-54448059D01*
X140793182Y-54273029D01*
X140812419Y-54090000D01*
X141051775Y-54090000D01*
X141071012Y-54273029D01*
X141127883Y-54448059D01*
X141219902Y-54607440D01*
X141219905Y-54607443D01*
X141343042Y-54744203D01*
X141343045Y-54744205D01*
X141343047Y-54744207D01*
X141491936Y-54852381D01*
X141660063Y-54927236D01*
X141840078Y-54965500D01*
X142024116Y-54965500D01*
X142204131Y-54927236D01*
X142372258Y-54852381D01*
X142521147Y-54744207D01*
X142644292Y-54607440D01*
X142736311Y-54448059D01*
X142793182Y-54273029D01*
X142812419Y-54090000D01*
X143051775Y-54090000D01*
X143071012Y-54273029D01*
X143127883Y-54448059D01*
X143219902Y-54607440D01*
X143219905Y-54607443D01*
X143343042Y-54744203D01*
X143343045Y-54744205D01*
X143343047Y-54744207D01*
X143491936Y-54852381D01*
X143660063Y-54927236D01*
X143840078Y-54965500D01*
X144024116Y-54965500D01*
X144204131Y-54927236D01*
X144372258Y-54852381D01*
X144521147Y-54744207D01*
X144644292Y-54607440D01*
X144736311Y-54448059D01*
X144793182Y-54273029D01*
X144812419Y-54090000D01*
X145051775Y-54090000D01*
X145071012Y-54273029D01*
X145127883Y-54448059D01*
X145219902Y-54607440D01*
X145219905Y-54607443D01*
X145343042Y-54744203D01*
X145343045Y-54744205D01*
X145343047Y-54744207D01*
X145491936Y-54852381D01*
X145660063Y-54927236D01*
X145840078Y-54965500D01*
X146024116Y-54965500D01*
X146204131Y-54927236D01*
X146372258Y-54852381D01*
X146521147Y-54744207D01*
X146644292Y-54607440D01*
X146736311Y-54448059D01*
X146793182Y-54273029D01*
X146812419Y-54090000D01*
X147051775Y-54090000D01*
X147071012Y-54273029D01*
X147127883Y-54448059D01*
X147219902Y-54607440D01*
X147219905Y-54607443D01*
X147343042Y-54744203D01*
X147343045Y-54744205D01*
X147343047Y-54744207D01*
X147491936Y-54852381D01*
X147660063Y-54927236D01*
X147840078Y-54965500D01*
X148024116Y-54965500D01*
X148204131Y-54927236D01*
X148372258Y-54852381D01*
X148465347Y-54784748D01*
X149056597Y-54784748D01*
X149068230Y-54843231D01*
X149074343Y-54852379D01*
X149112544Y-54909552D01*
X149139008Y-54927234D01*
X149178866Y-54953867D01*
X149237349Y-54965500D01*
X149237352Y-54965500D01*
X150626842Y-54965500D01*
X150626845Y-54965500D01*
X150685328Y-54953867D01*
X150751649Y-54909552D01*
X150795964Y-54843231D01*
X150807597Y-54784748D01*
X150807597Y-53395252D01*
X150795964Y-53336769D01*
X150769398Y-53297012D01*
X150751649Y-53270447D01*
X150711892Y-53243882D01*
X150685328Y-53226133D01*
X150626845Y-53214500D01*
X149237349Y-53214500D01*
X149178866Y-53226133D01*
X149112544Y-53270447D01*
X149074344Y-53327619D01*
X149068230Y-53336769D01*
X149056597Y-53395252D01*
X149056597Y-54784748D01*
X148465347Y-54784748D01*
X148521147Y-54744207D01*
X148644292Y-54607440D01*
X148736311Y-54448059D01*
X148793182Y-54273029D01*
X148812419Y-54090000D01*
X148793182Y-53906971D01*
X148736311Y-53731941D01*
X148644292Y-53572560D01*
X148615382Y-53540453D01*
X148521151Y-53435796D01*
X148521148Y-53435794D01*
X148372259Y-53327620D01*
X148372258Y-53327619D01*
X148204131Y-53252764D01*
X148204128Y-53252763D01*
X148204124Y-53252762D01*
X148024116Y-53214500D01*
X147840078Y-53214500D01*
X147660069Y-53252762D01*
X147660060Y-53252765D01*
X147491934Y-53327620D01*
X147343045Y-53435794D01*
X147343042Y-53435796D01*
X147219905Y-53572556D01*
X147219899Y-53572564D01*
X147127885Y-53731937D01*
X147127883Y-53731940D01*
X147127883Y-53731941D01*
X147071012Y-53906971D01*
X147051775Y-54090000D01*
X146812419Y-54090000D01*
X146793182Y-53906971D01*
X146736311Y-53731941D01*
X146644292Y-53572560D01*
X146615382Y-53540453D01*
X146521151Y-53435796D01*
X146521148Y-53435794D01*
X146372259Y-53327620D01*
X146372258Y-53327619D01*
X146204131Y-53252764D01*
X146204128Y-53252763D01*
X146204124Y-53252762D01*
X146024116Y-53214500D01*
X145840078Y-53214500D01*
X145660069Y-53252762D01*
X145660060Y-53252765D01*
X145491934Y-53327620D01*
X145343045Y-53435794D01*
X145343042Y-53435796D01*
X145219905Y-53572556D01*
X145219899Y-53572564D01*
X145127885Y-53731937D01*
X145127883Y-53731940D01*
X145127883Y-53731941D01*
X145071012Y-53906971D01*
X145051775Y-54090000D01*
X144812419Y-54090000D01*
X144793182Y-53906971D01*
X144736311Y-53731941D01*
X144644292Y-53572560D01*
X144615382Y-53540453D01*
X144521151Y-53435796D01*
X144521148Y-53435794D01*
X144372259Y-53327620D01*
X144372258Y-53327619D01*
X144204131Y-53252764D01*
X144204128Y-53252763D01*
X144204124Y-53252762D01*
X144024116Y-53214500D01*
X143840078Y-53214500D01*
X143660069Y-53252762D01*
X143660060Y-53252765D01*
X143491934Y-53327620D01*
X143343045Y-53435794D01*
X143343042Y-53435796D01*
X143219905Y-53572556D01*
X143219899Y-53572564D01*
X143127885Y-53731937D01*
X143127883Y-53731940D01*
X143127883Y-53731941D01*
X143071012Y-53906971D01*
X143051775Y-54090000D01*
X142812419Y-54090000D01*
X142793182Y-53906971D01*
X142736311Y-53731941D01*
X142644292Y-53572560D01*
X142615382Y-53540453D01*
X142521151Y-53435796D01*
X142521148Y-53435794D01*
X142372259Y-53327620D01*
X142372258Y-53327619D01*
X142204131Y-53252764D01*
X142204128Y-53252763D01*
X142204124Y-53252762D01*
X142024116Y-53214500D01*
X141840078Y-53214500D01*
X141660069Y-53252762D01*
X141660060Y-53252765D01*
X141491934Y-53327620D01*
X141343045Y-53435794D01*
X141343042Y-53435796D01*
X141219905Y-53572556D01*
X141219899Y-53572564D01*
X141127885Y-53731937D01*
X141127883Y-53731940D01*
X141127883Y-53731941D01*
X141071012Y-53906971D01*
X141051775Y-54090000D01*
X140812419Y-54090000D01*
X140793182Y-53906971D01*
X140736311Y-53731941D01*
X140644292Y-53572560D01*
X140615382Y-53540453D01*
X140521151Y-53435796D01*
X140521148Y-53435794D01*
X140372259Y-53327620D01*
X140372258Y-53327619D01*
X140204131Y-53252764D01*
X140204128Y-53252763D01*
X140204124Y-53252762D01*
X140024116Y-53214500D01*
X139840078Y-53214500D01*
X139660069Y-53252762D01*
X139660060Y-53252765D01*
X139491934Y-53327620D01*
X139343045Y-53435794D01*
X139343042Y-53435796D01*
X139219905Y-53572556D01*
X139219899Y-53572564D01*
X139127885Y-53731937D01*
X139127883Y-53731940D01*
X139127883Y-53731941D01*
X139071012Y-53906971D01*
X139051775Y-54090000D01*
X138812419Y-54090000D01*
X138793182Y-53906971D01*
X138736311Y-53731941D01*
X138644292Y-53572560D01*
X138615382Y-53540453D01*
X138521151Y-53435796D01*
X138521148Y-53435794D01*
X138372259Y-53327620D01*
X138372258Y-53327619D01*
X138204131Y-53252764D01*
X138204128Y-53252763D01*
X138204124Y-53252762D01*
X138024116Y-53214500D01*
X137840078Y-53214500D01*
X137660069Y-53252762D01*
X137660060Y-53252765D01*
X137491934Y-53327620D01*
X137343045Y-53435794D01*
X137343042Y-53435796D01*
X137219905Y-53572556D01*
X137219899Y-53572564D01*
X137127885Y-53731937D01*
X137127883Y-53731940D01*
X137127883Y-53731941D01*
X137071012Y-53906971D01*
X137051775Y-54090000D01*
X88950597Y-54090000D01*
X88950597Y-52090000D01*
X137051775Y-52090000D01*
X137071012Y-52273029D01*
X137127883Y-52448059D01*
X137219902Y-52607440D01*
X137219905Y-52607443D01*
X137343042Y-52744203D01*
X137343045Y-52744205D01*
X137343047Y-52744207D01*
X137491936Y-52852381D01*
X137660063Y-52927236D01*
X137840078Y-52965500D01*
X138024116Y-52965500D01*
X138204131Y-52927236D01*
X138372258Y-52852381D01*
X138521147Y-52744207D01*
X138644292Y-52607440D01*
X138736311Y-52448059D01*
X138793182Y-52273029D01*
X138812419Y-52090000D01*
X139051775Y-52090000D01*
X139071012Y-52273029D01*
X139127883Y-52448059D01*
X139219902Y-52607440D01*
X139219905Y-52607443D01*
X139343042Y-52744203D01*
X139343045Y-52744205D01*
X139343047Y-52744207D01*
X139491936Y-52852381D01*
X139660063Y-52927236D01*
X139840078Y-52965500D01*
X140024116Y-52965500D01*
X140204131Y-52927236D01*
X140372258Y-52852381D01*
X140521147Y-52744207D01*
X140644292Y-52607440D01*
X140736311Y-52448059D01*
X140793182Y-52273029D01*
X140812419Y-52090000D01*
X141051775Y-52090000D01*
X141071012Y-52273029D01*
X141127883Y-52448059D01*
X141219902Y-52607440D01*
X141219905Y-52607443D01*
X141343042Y-52744203D01*
X141343045Y-52744205D01*
X141343047Y-52744207D01*
X141491936Y-52852381D01*
X141660063Y-52927236D01*
X141840078Y-52965500D01*
X142024116Y-52965500D01*
X142204131Y-52927236D01*
X142372258Y-52852381D01*
X142521147Y-52744207D01*
X142644292Y-52607440D01*
X142736311Y-52448059D01*
X142793182Y-52273029D01*
X142812419Y-52090000D01*
X143051775Y-52090000D01*
X143071012Y-52273029D01*
X143127883Y-52448059D01*
X143219902Y-52607440D01*
X143219905Y-52607443D01*
X143343042Y-52744203D01*
X143343045Y-52744205D01*
X143343047Y-52744207D01*
X143491936Y-52852381D01*
X143660063Y-52927236D01*
X143840078Y-52965500D01*
X144024116Y-52965500D01*
X144204131Y-52927236D01*
X144372258Y-52852381D01*
X144521147Y-52744207D01*
X144644292Y-52607440D01*
X144736311Y-52448059D01*
X144793182Y-52273029D01*
X144812419Y-52090000D01*
X145051775Y-52090000D01*
X145071012Y-52273029D01*
X145127883Y-52448059D01*
X145219902Y-52607440D01*
X145219905Y-52607443D01*
X145343042Y-52744203D01*
X145343045Y-52744205D01*
X145343047Y-52744207D01*
X145491936Y-52852381D01*
X145660063Y-52927236D01*
X145840078Y-52965500D01*
X146024116Y-52965500D01*
X146204131Y-52927236D01*
X146372258Y-52852381D01*
X146521147Y-52744207D01*
X146644292Y-52607440D01*
X146736311Y-52448059D01*
X146793182Y-52273029D01*
X146812419Y-52090000D01*
X147051775Y-52090000D01*
X147071012Y-52273029D01*
X147127883Y-52448059D01*
X147219902Y-52607440D01*
X147219905Y-52607443D01*
X147343042Y-52744203D01*
X147343045Y-52744205D01*
X147343047Y-52744207D01*
X147491936Y-52852381D01*
X147660063Y-52927236D01*
X147840078Y-52965500D01*
X148024116Y-52965500D01*
X148204131Y-52927236D01*
X148372258Y-52852381D01*
X148521147Y-52744207D01*
X148644292Y-52607440D01*
X148736311Y-52448059D01*
X148793182Y-52273029D01*
X148812419Y-52090000D01*
X149051775Y-52090000D01*
X149071012Y-52273029D01*
X149127883Y-52448059D01*
X149219902Y-52607440D01*
X149219905Y-52607443D01*
X149343042Y-52744203D01*
X149343045Y-52744205D01*
X149343047Y-52744207D01*
X149491936Y-52852381D01*
X149660063Y-52927236D01*
X149840078Y-52965500D01*
X150024116Y-52965500D01*
X150204131Y-52927236D01*
X150372258Y-52852381D01*
X150521147Y-52744207D01*
X150644292Y-52607440D01*
X150736311Y-52448059D01*
X150793182Y-52273029D01*
X150812419Y-52090000D01*
X150793182Y-51906971D01*
X150736311Y-51731941D01*
X150644292Y-51572560D01*
X150615382Y-51540453D01*
X150521151Y-51435796D01*
X150521148Y-51435794D01*
X150372259Y-51327620D01*
X150372258Y-51327619D01*
X150204131Y-51252764D01*
X150204128Y-51252763D01*
X150204124Y-51252762D01*
X150024116Y-51214500D01*
X149840078Y-51214500D01*
X149660069Y-51252762D01*
X149660060Y-51252765D01*
X149491934Y-51327620D01*
X149343045Y-51435794D01*
X149343042Y-51435796D01*
X149219905Y-51572556D01*
X149219899Y-51572564D01*
X149127885Y-51731937D01*
X149127883Y-51731940D01*
X149127883Y-51731941D01*
X149071012Y-51906971D01*
X149051775Y-52090000D01*
X148812419Y-52090000D01*
X148793182Y-51906971D01*
X148736311Y-51731941D01*
X148644292Y-51572560D01*
X148615382Y-51540453D01*
X148521151Y-51435796D01*
X148521148Y-51435794D01*
X148372259Y-51327620D01*
X148372258Y-51327619D01*
X148204131Y-51252764D01*
X148204128Y-51252763D01*
X148204124Y-51252762D01*
X148024116Y-51214500D01*
X147840078Y-51214500D01*
X147660069Y-51252762D01*
X147660060Y-51252765D01*
X147491934Y-51327620D01*
X147343045Y-51435794D01*
X147343042Y-51435796D01*
X147219905Y-51572556D01*
X147219899Y-51572564D01*
X147127885Y-51731937D01*
X147127883Y-51731940D01*
X147127883Y-51731941D01*
X147071012Y-51906971D01*
X147051775Y-52090000D01*
X146812419Y-52090000D01*
X146793182Y-51906971D01*
X146736311Y-51731941D01*
X146644292Y-51572560D01*
X146615382Y-51540453D01*
X146521151Y-51435796D01*
X146521148Y-51435794D01*
X146372259Y-51327620D01*
X146372258Y-51327619D01*
X146204131Y-51252764D01*
X146204128Y-51252763D01*
X146204124Y-51252762D01*
X146024116Y-51214500D01*
X145840078Y-51214500D01*
X145660069Y-51252762D01*
X145660060Y-51252765D01*
X145491934Y-51327620D01*
X145343045Y-51435794D01*
X145343042Y-51435796D01*
X145219905Y-51572556D01*
X145219899Y-51572564D01*
X145127885Y-51731937D01*
X145127883Y-51731940D01*
X145127883Y-51731941D01*
X145071012Y-51906971D01*
X145051775Y-52090000D01*
X144812419Y-52090000D01*
X144793182Y-51906971D01*
X144736311Y-51731941D01*
X144644292Y-51572560D01*
X144615382Y-51540453D01*
X144521151Y-51435796D01*
X144521148Y-51435794D01*
X144372259Y-51327620D01*
X144372258Y-51327619D01*
X144204131Y-51252764D01*
X144204128Y-51252763D01*
X144204124Y-51252762D01*
X144024116Y-51214500D01*
X143840078Y-51214500D01*
X143660069Y-51252762D01*
X143660060Y-51252765D01*
X143491934Y-51327620D01*
X143343045Y-51435794D01*
X143343042Y-51435796D01*
X143219905Y-51572556D01*
X143219899Y-51572564D01*
X143127885Y-51731937D01*
X143127883Y-51731940D01*
X143127883Y-51731941D01*
X143071012Y-51906971D01*
X143051775Y-52090000D01*
X142812419Y-52090000D01*
X142793182Y-51906971D01*
X142736311Y-51731941D01*
X142644292Y-51572560D01*
X142615382Y-51540453D01*
X142521151Y-51435796D01*
X142521148Y-51435794D01*
X142372259Y-51327620D01*
X142372258Y-51327619D01*
X142204131Y-51252764D01*
X142204128Y-51252763D01*
X142204124Y-51252762D01*
X142024116Y-51214500D01*
X141840078Y-51214500D01*
X141660069Y-51252762D01*
X141660060Y-51252765D01*
X141491934Y-51327620D01*
X141343045Y-51435794D01*
X141343042Y-51435796D01*
X141219905Y-51572556D01*
X141219899Y-51572564D01*
X141127885Y-51731937D01*
X141127883Y-51731940D01*
X141127883Y-51731941D01*
X141071012Y-51906971D01*
X141051775Y-52090000D01*
X140812419Y-52090000D01*
X140793182Y-51906971D01*
X140736311Y-51731941D01*
X140644292Y-51572560D01*
X140615382Y-51540453D01*
X140521151Y-51435796D01*
X140521148Y-51435794D01*
X140372259Y-51327620D01*
X140372258Y-51327619D01*
X140204131Y-51252764D01*
X140204128Y-51252763D01*
X140204124Y-51252762D01*
X140024116Y-51214500D01*
X139840078Y-51214500D01*
X139660069Y-51252762D01*
X139660060Y-51252765D01*
X139491934Y-51327620D01*
X139343045Y-51435794D01*
X139343042Y-51435796D01*
X139219905Y-51572556D01*
X139219899Y-51572564D01*
X139127885Y-51731937D01*
X139127883Y-51731940D01*
X139127883Y-51731941D01*
X139071012Y-51906971D01*
X139051775Y-52090000D01*
X138812419Y-52090000D01*
X138793182Y-51906971D01*
X138736311Y-51731941D01*
X138644292Y-51572560D01*
X138615382Y-51540453D01*
X138521151Y-51435796D01*
X138521148Y-51435794D01*
X138372259Y-51327620D01*
X138372258Y-51327619D01*
X138204131Y-51252764D01*
X138204128Y-51252763D01*
X138204124Y-51252762D01*
X138024116Y-51214500D01*
X137840078Y-51214500D01*
X137660069Y-51252762D01*
X137660060Y-51252765D01*
X137491934Y-51327620D01*
X137343045Y-51435794D01*
X137343042Y-51435796D01*
X137219905Y-51572556D01*
X137219899Y-51572564D01*
X137127885Y-51731937D01*
X137127883Y-51731940D01*
X137127883Y-51731941D01*
X137071012Y-51906971D01*
X137051775Y-52090000D01*
X88950597Y-52090000D01*
X88950597Y-50983303D01*
X88950599Y-50983274D01*
X88950598Y-50978318D01*
X88950600Y-50978316D01*
X88950597Y-50946860D01*
X88950597Y-50918458D01*
X88950597Y-50913503D01*
X88950593Y-50913473D01*
X88950519Y-50127802D01*
X88964868Y-50093152D01*
X88999514Y-50078797D01*
X155270596Y-50078797D01*
X155305244Y-50093149D01*
G37*
G04 #@! TD.AperFunction*
M02*
