G04 #@! TF.GenerationSoftware,KiCad,Pcbnew,8.0.0-rc1*
G04 #@! TF.CreationDate,2025-03-14T12:06:18+03:00*
G04 #@! TF.ProjectId,Movita_IO_Expansion_Board_V2.0,4d6f7669-7461-45f4-994f-5f457870616e,REV1*
G04 #@! TF.SameCoordinates,Original*
G04 #@! TF.FileFunction,Paste,Top*
G04 #@! TF.FilePolarity,Positive*
%FSLAX46Y46*%
G04 Gerber Fmt 4.6, Leading zero omitted, Abs format (unit mm)*
G04 Created by KiCad (PCBNEW 8.0.0-rc1) date 2025-03-14 12:06:18*
%MOMM*%
%LPD*%
G01*
G04 APERTURE LIST*
G04 Aperture macros list*
%AMRoundRect*
0 Rectangle with rounded corners*
0 $1 Rounding radius*
0 $2 $3 $4 $5 $6 $7 $8 $9 X,Y pos of 4 corners*
0 Add a 4 corners polygon primitive as box body*
4,1,4,$2,$3,$4,$5,$6,$7,$8,$9,$2,$3,0*
0 Add four circle primitives for the rounded corners*
1,1,$1+$1,$2,$3*
1,1,$1+$1,$4,$5*
1,1,$1+$1,$6,$7*
1,1,$1+$1,$8,$9*
0 Add four rect primitives between the rounded corners*
20,1,$1+$1,$2,$3,$4,$5,0*
20,1,$1+$1,$4,$5,$6,$7,0*
20,1,$1+$1,$6,$7,$8,$9,0*
20,1,$1+$1,$8,$9,$2,$3,0*%
G04 Aperture macros list end*
%ADD10R,0.200000X1.000000*%
%ADD11R,1.000000X0.200000*%
%ADD12RoundRect,0.000000X2.650000X2.650000X-2.650000X2.650000X-2.650000X-2.650000X2.650000X-2.650000X0*%
%ADD13RoundRect,0.140000X0.140000X0.170000X-0.140000X0.170000X-0.140000X-0.170000X0.140000X-0.170000X0*%
%ADD14RoundRect,0.250000X-1.000000X-0.650000X1.000000X-0.650000X1.000000X0.650000X-1.000000X0.650000X0*%
%ADD15RoundRect,0.200000X0.200000X0.275000X-0.200000X0.275000X-0.200000X-0.275000X0.200000X-0.275000X0*%
%ADD16RoundRect,0.200000X-0.200000X-0.275000X0.200000X-0.275000X0.200000X0.275000X-0.200000X0.275000X0*%
%ADD17RoundRect,0.250000X1.000000X0.650000X-1.000000X0.650000X-1.000000X-0.650000X1.000000X-0.650000X0*%
%ADD18RoundRect,0.140000X-0.170000X0.140000X-0.170000X-0.140000X0.170000X-0.140000X0.170000X0.140000X0*%
%ADD19RoundRect,0.218750X0.218750X0.256250X-0.218750X0.256250X-0.218750X-0.256250X0.218750X-0.256250X0*%
%ADD20RoundRect,0.135000X-0.185000X0.135000X-0.185000X-0.135000X0.185000X-0.135000X0.185000X0.135000X0*%
%ADD21RoundRect,0.147500X-0.147500X-0.172500X0.147500X-0.172500X0.147500X0.172500X-0.147500X0.172500X0*%
%ADD22R,0.650000X1.125000*%
%ADD23RoundRect,0.225000X0.250000X-0.225000X0.250000X0.225000X-0.250000X0.225000X-0.250000X-0.225000X0*%
%ADD24RoundRect,0.200000X0.275000X-0.200000X0.275000X0.200000X-0.275000X0.200000X-0.275000X-0.200000X0*%
%ADD25RoundRect,0.200000X-0.275000X0.200000X-0.275000X-0.200000X0.275000X-0.200000X0.275000X0.200000X0*%
%ADD26RoundRect,0.140000X-0.140000X-0.170000X0.140000X-0.170000X0.140000X0.170000X-0.140000X0.170000X0*%
%ADD27R,1.200000X1.400000*%
%ADD28RoundRect,0.147500X0.147500X0.172500X-0.147500X0.172500X-0.147500X-0.172500X0.147500X-0.172500X0*%
%ADD29RoundRect,0.225000X-0.225000X-0.250000X0.225000X-0.250000X0.225000X0.250000X-0.225000X0.250000X0*%
%ADD30RoundRect,0.218750X0.218750X0.381250X-0.218750X0.381250X-0.218750X-0.381250X0.218750X-0.381250X0*%
%ADD31RoundRect,0.225000X-0.250000X0.225000X-0.250000X-0.225000X0.250000X-0.225000X0.250000X0.225000X0*%
%ADD32RoundRect,0.218750X0.381250X-0.218750X0.381250X0.218750X-0.381250X0.218750X-0.381250X-0.218750X0*%
%ADD33RoundRect,0.250000X-0.475000X0.250000X-0.475000X-0.250000X0.475000X-0.250000X0.475000X0.250000X0*%
%ADD34RoundRect,0.135000X0.185000X-0.135000X0.185000X0.135000X-0.185000X0.135000X-0.185000X-0.135000X0*%
%ADD35RoundRect,0.150000X0.150000X-0.512500X0.150000X0.512500X-0.150000X0.512500X-0.150000X-0.512500X0*%
G04 APERTURE END LIST*
D10*
X115440100Y-75279990D03*
X115839890Y-75279990D03*
X116239940Y-75279990D03*
X116639990Y-75279990D03*
X117040040Y-75279990D03*
X117440090Y-75279990D03*
X117839890Y-75279990D03*
X118239940Y-75279990D03*
X118639990Y-75279990D03*
X119040040Y-75279990D03*
X119440090Y-75279990D03*
X119839880Y-75279990D03*
X120239930Y-75279990D03*
X120639980Y-75279990D03*
X121040030Y-75279990D03*
X121440080Y-75279990D03*
X121839880Y-75279990D03*
X122239930Y-75279990D03*
X122639980Y-75279990D03*
X123040030Y-75279990D03*
X123440080Y-75279990D03*
X123839880Y-75279990D03*
D11*
X124639990Y-74479880D03*
X124639990Y-74080080D03*
X124639990Y-73680030D03*
X124639990Y-73279980D03*
X124639990Y-72879930D03*
X124639990Y-72479880D03*
X124639990Y-72080080D03*
X124639990Y-71680030D03*
X124639990Y-71279980D03*
X124639990Y-70879930D03*
X124639990Y-70479880D03*
X124639990Y-70080090D03*
X124639990Y-69680040D03*
X124639990Y-69279990D03*
X124639990Y-68879940D03*
X124639990Y-68479890D03*
X124639990Y-68080090D03*
X124639990Y-67680040D03*
X124639990Y-67279990D03*
X124639990Y-66879940D03*
X124639990Y-66479890D03*
X124639990Y-66080100D03*
D10*
X123839880Y-65279980D03*
X123440080Y-65279980D03*
X123040030Y-65279980D03*
X122639980Y-65279980D03*
X122239930Y-65279980D03*
X121839880Y-65279980D03*
X121440080Y-65279980D03*
X121040030Y-65279980D03*
X120639980Y-65279980D03*
X120239930Y-65279980D03*
X119839880Y-65279980D03*
X119440090Y-65279980D03*
X119040040Y-65279980D03*
X118639990Y-65279980D03*
X118239940Y-65279980D03*
X117839890Y-65279980D03*
X117440090Y-65279980D03*
X117040040Y-65279980D03*
X116639990Y-65279980D03*
X116239940Y-65279980D03*
X115839890Y-65279980D03*
X115440100Y-65279980D03*
D11*
X114639990Y-66080100D03*
X114639990Y-66479890D03*
X114639990Y-66879940D03*
X114639990Y-67279990D03*
X114639990Y-67680040D03*
X114639990Y-68080090D03*
X114639990Y-68479890D03*
X114639990Y-68879940D03*
X114639990Y-69279990D03*
X114639990Y-69680040D03*
X114639990Y-70080090D03*
X114639990Y-70479880D03*
X114639990Y-70879930D03*
X114639990Y-71279980D03*
X114639990Y-71680030D03*
X114639990Y-72080080D03*
X114639990Y-72479880D03*
X114639990Y-72879930D03*
X114639990Y-73279980D03*
X114639990Y-73680030D03*
X114639990Y-74080080D03*
X114639990Y-74479880D03*
D12*
X119639990Y-70279990D03*
D13*
X127579990Y-64799990D03*
X126619990Y-64799990D03*
D14*
X121812500Y-85530000D03*
X125812500Y-85530000D03*
D15*
X133815000Y-65300000D03*
X132165000Y-65300000D03*
D16*
X110395000Y-60980000D03*
X112045000Y-60980000D03*
D17*
X117810000Y-85520000D03*
X113810000Y-85520000D03*
D18*
X117180000Y-77470000D03*
X117180000Y-78430000D03*
D19*
X129367490Y-71399990D03*
X127792490Y-71399990D03*
D15*
X122670000Y-82850000D03*
X121020000Y-82850000D03*
D20*
X115259990Y-58929990D03*
X115259990Y-59949990D03*
D15*
X126755000Y-81330000D03*
X125105000Y-81330000D03*
D21*
X122862500Y-81340000D03*
X123832500Y-81340000D03*
D22*
X106485000Y-59821000D03*
X105535000Y-59821000D03*
X104585000Y-59821000D03*
X104585000Y-62445000D03*
X105535000Y-62445000D03*
X106485000Y-62445000D03*
D20*
X117849990Y-58909990D03*
X117849990Y-59929990D03*
D18*
X124310000Y-77420000D03*
X124310000Y-78380000D03*
D15*
X112050000Y-62510000D03*
X110400000Y-62510000D03*
D18*
X128059990Y-72629990D03*
X128059990Y-73589990D03*
D16*
X124030000Y-82850000D03*
X125680000Y-82850000D03*
D23*
X102860000Y-59530000D03*
X102860000Y-57980000D03*
D24*
X108175000Y-59600000D03*
X108175000Y-57950000D03*
D25*
X110010000Y-73420000D03*
X110010000Y-75070000D03*
D18*
X112680000Y-65280000D03*
X112680000Y-66240000D03*
D20*
X114229990Y-58929990D03*
X114229990Y-59949990D03*
D24*
X111530000Y-75070000D03*
X111530000Y-73420000D03*
D26*
X141190000Y-64020000D03*
X142150000Y-64020000D03*
D18*
X141103927Y-69165884D03*
X141103927Y-70125884D03*
X119560000Y-77450000D03*
X119560000Y-78410000D03*
D27*
X101180000Y-62305000D03*
X101180000Y-60105000D03*
X99480000Y-60105000D03*
X99480000Y-62305000D03*
D21*
X118100000Y-81360000D03*
X119070000Y-81360000D03*
D25*
X111530000Y-70390000D03*
X111530000Y-72040000D03*
D15*
X136855000Y-65290000D03*
X135205000Y-65290000D03*
D28*
X116670000Y-81360000D03*
X115700000Y-81360000D03*
D23*
X130230000Y-69885000D03*
X130230000Y-68335000D03*
D16*
X116820000Y-82880000D03*
X118470000Y-82880000D03*
D15*
X119085000Y-79810000D03*
X117435000Y-79810000D03*
D14*
X106660000Y-85520000D03*
X110660000Y-85520000D03*
D25*
X128209990Y-59229990D03*
X128209990Y-60879990D03*
D15*
X133825000Y-66830000D03*
X132175000Y-66830000D03*
D20*
X121749990Y-58959990D03*
X121749990Y-59979990D03*
D18*
X121950000Y-77440000D03*
X121950000Y-78400000D03*
D16*
X127095000Y-82860000D03*
X128745000Y-82860000D03*
D15*
X122120000Y-79810000D03*
X120470000Y-79810000D03*
D29*
X105865000Y-64110000D03*
X107415000Y-64110000D03*
D25*
X129749990Y-59209990D03*
X129749990Y-60859990D03*
D30*
X131402490Y-73069990D03*
X129277490Y-73069990D03*
D13*
X130990000Y-65940000D03*
X130030000Y-65940000D03*
D31*
X102870000Y-61035000D03*
X102870000Y-62585000D03*
D15*
X116055000Y-79810000D03*
X114405000Y-79810000D03*
D24*
X108165000Y-62620000D03*
X108165000Y-60970000D03*
D32*
X111310000Y-67667500D03*
X111310000Y-65542500D03*
D16*
X102785000Y-64110000D03*
X104435000Y-64110000D03*
D15*
X136865000Y-66830000D03*
X135215000Y-66830000D03*
D24*
X131770000Y-69925000D03*
X131770000Y-68275000D03*
D20*
X116849990Y-58909990D03*
X116849990Y-59929990D03*
D26*
X110870000Y-69210000D03*
X111830000Y-69210000D03*
D20*
X125579990Y-58969990D03*
X125579990Y-59989990D03*
D18*
X116200000Y-77470000D03*
X116200000Y-78430000D03*
D15*
X125140000Y-79810000D03*
X123490000Y-79810000D03*
X115440000Y-82880000D03*
X113790000Y-82880000D03*
D31*
X133439990Y-71194990D03*
X133439990Y-72744990D03*
D18*
X144380000Y-65460000D03*
X144380000Y-66420000D03*
X127039990Y-72639990D03*
X127039990Y-73599990D03*
D20*
X119269990Y-58924990D03*
X119269990Y-59944990D03*
D18*
X118580000Y-77450000D03*
X118580000Y-78410000D03*
D33*
X139353927Y-65285884D03*
X139353927Y-67185884D03*
D34*
X123300000Y-78420000D03*
X123300000Y-77400000D03*
D26*
X110009990Y-76259990D03*
X110969990Y-76259990D03*
D16*
X112875000Y-81350000D03*
X114525000Y-81350000D03*
D24*
X127849990Y-69944990D03*
X127849990Y-68294990D03*
D20*
X120269990Y-58919990D03*
X120269990Y-59939990D03*
D35*
X141163927Y-67739634D03*
X142113927Y-67739634D03*
X143063927Y-67739634D03*
X143063927Y-65464634D03*
X141163927Y-65464634D03*
D17*
X132910000Y-85530000D03*
X128910000Y-85530000D03*
D20*
X122749990Y-58959990D03*
X122749990Y-59979990D03*
X124579990Y-58969990D03*
X124579990Y-59989990D03*
D18*
X120960000Y-77440000D03*
X120960000Y-78400000D03*
D15*
X112400000Y-82880000D03*
X110750000Y-82880000D03*
D24*
X110000000Y-72040000D03*
X110000000Y-70390000D03*
D28*
X121427500Y-81340000D03*
X120457500Y-81340000D03*
D18*
X126549990Y-70319990D03*
X126549990Y-71279990D03*
M02*
