G04 #@! TF.GenerationSoftware,KiCad,Pcbnew,8.0.0-rc1*
G04 #@! TF.CreationDate,2025-03-14T12:06:18+03:00*
G04 #@! TF.ProjectId,Movita_IO_Expansion_Board_V2.0,4d6f7669-7461-45f4-994f-5f457870616e,REV1*
G04 #@! TF.SameCoordinates,Original*
G04 #@! TF.FileFunction,Paste,Bot*
G04 #@! TF.FilePolarity,Positive*
%FSLAX46Y46*%
G04 Gerber Fmt 4.6, Leading zero omitted, Abs format (unit mm)*
G04 Created by KiCad (PCBNEW 8.0.0-rc1) date 2025-03-14 12:06:18*
%MOMM*%
%LPD*%
G01*
G04 APERTURE LIST*
G04 Aperture macros list*
%AMRoundRect*
0 Rectangle with rounded corners*
0 $1 Rounding radius*
0 $2 $3 $4 $5 $6 $7 $8 $9 X,Y pos of 4 corners*
0 Add a 4 corners polygon primitive as box body*
4,1,4,$2,$3,$4,$5,$6,$7,$8,$9,$2,$3,0*
0 Add four circle primitives for the rounded corners*
1,1,$1+$1,$2,$3*
1,1,$1+$1,$4,$5*
1,1,$1+$1,$6,$7*
1,1,$1+$1,$8,$9*
0 Add four rect primitives between the rounded corners*
20,1,$1+$1,$2,$3,$4,$5,0*
20,1,$1+$1,$4,$5,$6,$7,0*
20,1,$1+$1,$6,$7,$8,$9,0*
20,1,$1+$1,$8,$9,$2,$3,0*%
G04 Aperture macros list end*
%ADD10RoundRect,0.200000X0.200000X0.275000X-0.200000X0.275000X-0.200000X-0.275000X0.200000X-0.275000X0*%
%ADD11RoundRect,0.140000X-0.170000X0.140000X-0.170000X-0.140000X0.170000X-0.140000X0.170000X0.140000X0*%
%ADD12RoundRect,0.140000X0.170000X-0.140000X0.170000X0.140000X-0.170000X0.140000X-0.170000X-0.140000X0*%
%ADD13RoundRect,0.218750X0.218750X0.256250X-0.218750X0.256250X-0.218750X-0.256250X0.218750X-0.256250X0*%
%ADD14RoundRect,0.135000X0.185000X-0.135000X0.185000X0.135000X-0.185000X0.135000X-0.185000X-0.135000X0*%
%ADD15RoundRect,0.140000X0.140000X0.170000X-0.140000X0.170000X-0.140000X-0.170000X0.140000X-0.170000X0*%
%ADD16RoundRect,0.140000X-0.140000X-0.170000X0.140000X-0.170000X0.140000X0.170000X-0.140000X0.170000X0*%
%ADD17RoundRect,0.200000X-0.200000X-0.275000X0.200000X-0.275000X0.200000X0.275000X-0.200000X0.275000X0*%
%ADD18RoundRect,0.225000X-0.225000X-0.250000X0.225000X-0.250000X0.225000X0.250000X-0.225000X0.250000X0*%
%ADD19RoundRect,0.150000X0.512500X0.150000X-0.512500X0.150000X-0.512500X-0.150000X0.512500X-0.150000X0*%
%ADD20R,1.500000X2.500000*%
%ADD21RoundRect,0.225000X0.225000X0.250000X-0.225000X0.250000X-0.225000X-0.250000X0.225000X-0.250000X0*%
%ADD22RoundRect,0.200000X0.275000X-0.200000X0.275000X0.200000X-0.275000X0.200000X-0.275000X-0.200000X0*%
%ADD23RoundRect,0.218750X-0.381250X0.218750X-0.381250X-0.218750X0.381250X-0.218750X0.381250X0.218750X0*%
G04 APERTURE END LIST*
D10*
X131624990Y-79699990D03*
X129974990Y-79699990D03*
D11*
X124520000Y-77410000D03*
X124520000Y-78370000D03*
D12*
X118752500Y-73620000D03*
X118752500Y-72660000D03*
D11*
X123290000Y-77410000D03*
X123290000Y-78370000D03*
D12*
X117772500Y-73620000D03*
X117772500Y-72660000D03*
D11*
X122050000Y-66920000D03*
X122050000Y-67880000D03*
D13*
X125460000Y-73330000D03*
X123885000Y-73330000D03*
D14*
X118590000Y-78460000D03*
X118590000Y-77440000D03*
D15*
X122619990Y-68839990D03*
X121659990Y-68839990D03*
D16*
X117030000Y-67920000D03*
X117990000Y-67920000D03*
D12*
X116792500Y-73630000D03*
X116792500Y-72670000D03*
D17*
X129595000Y-67190000D03*
X131245000Y-67190000D03*
D16*
X115429990Y-65750000D03*
X116389990Y-65750000D03*
D11*
X129700000Y-73500000D03*
X129700000Y-74460000D03*
D18*
X130045000Y-78150000D03*
X131595000Y-78150000D03*
D19*
X135187500Y-67810000D03*
X135187500Y-68760000D03*
X135187500Y-69710000D03*
X132912500Y-69710000D03*
X132912500Y-67810000D03*
D12*
X129700000Y-72570000D03*
X129700000Y-71610000D03*
D16*
X117030000Y-68940000D03*
X117990000Y-68940000D03*
D13*
X125997490Y-69719990D03*
X124422490Y-69719990D03*
D12*
X121692500Y-73620000D03*
X121692500Y-72660000D03*
D14*
X120970000Y-78460000D03*
X120970000Y-77440000D03*
D11*
X121050000Y-66920000D03*
X121050000Y-67880000D03*
D18*
X130045000Y-76615000D03*
X131595000Y-76615000D03*
D14*
X123330000Y-76400000D03*
X123330000Y-75380000D03*
X116210000Y-78480000D03*
X116210000Y-77460000D03*
D17*
X129625000Y-69720000D03*
X131275000Y-69720000D03*
D14*
X118580000Y-76370000D03*
X118580000Y-75350000D03*
D16*
X124510000Y-75370000D03*
X125470000Y-75370000D03*
D15*
X131490000Y-68450000D03*
X130530000Y-68450000D03*
D20*
X135096736Y-73080000D03*
X131396736Y-73080000D03*
D16*
X117040000Y-69950000D03*
X118000000Y-69950000D03*
D12*
X119732500Y-73620000D03*
X119732500Y-72660000D03*
D16*
X117020000Y-70970000D03*
X117980000Y-70970000D03*
D11*
X119020000Y-66920000D03*
X119020000Y-67880000D03*
D15*
X122619990Y-69839990D03*
X121659990Y-69839990D03*
D21*
X128290000Y-76120000D03*
X126740000Y-76120000D03*
D11*
X127710000Y-73500000D03*
X127710000Y-74460000D03*
D16*
X124500000Y-76350000D03*
X125460000Y-76350000D03*
D22*
X136929990Y-69444990D03*
X136929990Y-67794990D03*
D11*
X123080000Y-66920000D03*
X123080000Y-67880000D03*
D12*
X122672500Y-73620000D03*
X122672500Y-72660000D03*
X120712500Y-73620000D03*
X120712500Y-72660000D03*
D14*
X120970000Y-76300000D03*
X120970000Y-75280000D03*
D19*
X128307500Y-77727500D03*
X128307500Y-78677500D03*
X128307500Y-79627500D03*
X126032500Y-79627500D03*
X126032500Y-77727500D03*
D14*
X116220000Y-76300000D03*
X116220000Y-75280000D03*
D11*
X126700000Y-73500000D03*
X126700000Y-74460000D03*
X128700000Y-73500000D03*
X128700000Y-74460000D03*
X120040000Y-66910000D03*
X120040000Y-67870000D03*
D23*
X121230000Y-63597500D03*
X121230000Y-65722500D03*
M02*
