G04 #@! TF.GenerationSoftware,KiCad,Pcbnew,8.0.0-rc1*
G04 #@! TF.CreationDate,2025-03-14T12:06:18+03:00*
G04 #@! TF.ProjectId,Movita_IO_Expansion_Board_V2.0,4d6f7669-7461-45f4-994f-5f457870616e,REV1*
G04 #@! TF.SameCoordinates,Original*
G04 #@! TF.FileFunction,Other,User*
%FSLAX46Y46*%
G04 Gerber Fmt 4.6, Leading zero omitted, Abs format (unit mm)*
G04 Created by KiCad (PCBNEW 8.0.0-rc1) date 2025-03-14 12:06:18*
%MOMM*%
%LPD*%
G01*
G04 APERTURE LIST*
%ADD10C,0.050000*%
G04 APERTURE END LIST*
D10*
X126189990Y-64339990D02*
X128009990Y-64339990D01*
X126189990Y-65259990D02*
X126189990Y-64339990D01*
X128009990Y-64339990D02*
X128009990Y-65259990D01*
X128009990Y-65259990D02*
X126189990Y-65259990D01*
X120312500Y-83780000D02*
X127312500Y-83780000D01*
X120312500Y-87280000D02*
X120312500Y-83780000D01*
X127312500Y-83780000D02*
X127312500Y-87280000D01*
X127312500Y-87280000D02*
X120312500Y-87280000D01*
X131510000Y-64570000D02*
X134470000Y-64570000D01*
X131510000Y-66030000D02*
X131510000Y-64570000D01*
X134470000Y-64570000D02*
X134470000Y-66030000D01*
X134470000Y-66030000D02*
X131510000Y-66030000D01*
X109740000Y-60250000D02*
X112700000Y-60250000D01*
X109740000Y-61710000D02*
X109740000Y-60250000D01*
X112700000Y-60250000D02*
X112700000Y-61710000D01*
X112700000Y-61710000D02*
X109740000Y-61710000D01*
X112310000Y-83770000D02*
X119310000Y-83770000D01*
X112310000Y-87270000D02*
X112310000Y-83770000D01*
X119310000Y-83770000D02*
X119310000Y-87270000D01*
X119310000Y-87270000D02*
X112310000Y-87270000D01*
X116720000Y-77040000D02*
X117640000Y-77040000D01*
X116720000Y-78860000D02*
X116720000Y-77040000D01*
X117640000Y-77040000D02*
X117640000Y-78860000D01*
X117640000Y-78860000D02*
X116720000Y-78860000D01*
X127099990Y-70669990D02*
X130059990Y-70669990D01*
X127099990Y-72129990D02*
X127099990Y-70669990D01*
X130059990Y-70669990D02*
X130059990Y-72129990D01*
X130059990Y-72129990D02*
X127099990Y-72129990D01*
X120365000Y-82120000D02*
X123325000Y-82120000D01*
X120365000Y-83580000D02*
X120365000Y-82120000D01*
X123325000Y-82120000D02*
X123325000Y-83580000D01*
X123325000Y-83580000D02*
X120365000Y-83580000D01*
X114789990Y-58509990D02*
X115729990Y-58509990D01*
X114789990Y-60369990D02*
X114789990Y-58509990D01*
X115729990Y-58509990D02*
X115729990Y-60369990D01*
X115729990Y-60369990D02*
X114789990Y-60369990D01*
X124450000Y-80600000D02*
X127410000Y-80600000D01*
X124450000Y-82060000D02*
X124450000Y-80600000D01*
X127410000Y-80600000D02*
X127410000Y-82060000D01*
X127410000Y-82060000D02*
X124450000Y-82060000D01*
X122417500Y-80870000D02*
X124277500Y-80870000D01*
X122417500Y-81810000D02*
X122417500Y-80870000D01*
X124277500Y-80870000D02*
X124277500Y-81810000D01*
X124277500Y-81810000D02*
X122417500Y-81810000D01*
X103735000Y-59008000D02*
X107335000Y-59008000D01*
X103735000Y-63258000D02*
X103735000Y-59008000D01*
X107335000Y-59008000D02*
X107335000Y-63258000D01*
X107335000Y-63258000D02*
X103735000Y-63258000D01*
X117379990Y-58489990D02*
X118319990Y-58489990D01*
X117379990Y-60349990D02*
X117379990Y-58489990D01*
X118319990Y-58489990D02*
X118319990Y-60349990D01*
X118319990Y-60349990D02*
X117379990Y-60349990D01*
X123850000Y-76990000D02*
X124770000Y-76990000D01*
X123850000Y-78810000D02*
X123850000Y-76990000D01*
X124770000Y-76990000D02*
X124770000Y-78810000D01*
X124770000Y-78810000D02*
X123850000Y-78810000D01*
X109745000Y-61780000D02*
X112705000Y-61780000D01*
X109745000Y-63240000D02*
X109745000Y-61780000D01*
X112705000Y-61780000D02*
X112705000Y-63240000D01*
X112705000Y-63240000D02*
X109745000Y-63240000D01*
X127599990Y-72199990D02*
X128519990Y-72199990D01*
X127599990Y-74019990D02*
X127599990Y-72199990D01*
X128519990Y-72199990D02*
X128519990Y-74019990D01*
X128519990Y-74019990D02*
X127599990Y-74019990D01*
X123375000Y-82120000D02*
X126335000Y-82120000D01*
X123375000Y-83580000D02*
X123375000Y-82120000D01*
X126335000Y-82120000D02*
X126335000Y-83580000D01*
X126335000Y-83580000D02*
X123375000Y-83580000D01*
X102130000Y-57275000D02*
X103590000Y-57275000D01*
X102130000Y-60235000D02*
X102130000Y-57275000D01*
X103590000Y-57275000D02*
X103590000Y-60235000D01*
X103590000Y-60235000D02*
X102130000Y-60235000D01*
X130129990Y-78699990D02*
X130129990Y-80699990D01*
X130129990Y-78699990D02*
X132129990Y-78699990D01*
X132129990Y-80699990D02*
X130129990Y-80699990D01*
X132129990Y-80699990D02*
X132129990Y-78699990D01*
X107445000Y-57295000D02*
X108905000Y-57295000D01*
X107445000Y-60255000D02*
X107445000Y-57295000D01*
X108905000Y-57295000D02*
X108905000Y-60255000D01*
X108905000Y-60255000D02*
X107445000Y-60255000D01*
X109280000Y-72765000D02*
X110740000Y-72765000D01*
X109280000Y-75725000D02*
X109280000Y-72765000D01*
X110740000Y-72765000D02*
X110740000Y-75725000D01*
X110740000Y-75725000D02*
X109280000Y-75725000D01*
X112220000Y-64850000D02*
X113140000Y-64850000D01*
X112220000Y-66670000D02*
X112220000Y-64850000D01*
X113140000Y-64850000D02*
X113140000Y-66670000D01*
X113140000Y-66670000D02*
X112220000Y-66670000D01*
X113759990Y-58509990D02*
X114699990Y-58509990D01*
X113759990Y-60369990D02*
X113759990Y-58509990D01*
X114699990Y-58509990D02*
X114699990Y-60369990D01*
X114699990Y-60369990D02*
X113759990Y-60369990D01*
X110800000Y-72765000D02*
X112260000Y-72765000D01*
X110800000Y-75725000D02*
X110800000Y-72765000D01*
X112260000Y-72765000D02*
X112260000Y-75725000D01*
X112260000Y-75725000D02*
X110800000Y-75725000D01*
X108360000Y-64600000D02*
X108360000Y-66600000D01*
X108360000Y-64600000D02*
X110360000Y-64600000D01*
X110360000Y-66600000D02*
X108360000Y-66600000D01*
X110360000Y-66600000D02*
X110360000Y-64600000D01*
X140760000Y-63560000D02*
X142580000Y-63560000D01*
X140760000Y-64480000D02*
X140760000Y-63560000D01*
X142580000Y-63560000D02*
X142580000Y-64480000D01*
X142580000Y-64480000D02*
X140760000Y-64480000D01*
X140643927Y-68735884D02*
X141563927Y-68735884D01*
X140643927Y-70555884D02*
X140643927Y-68735884D01*
X141563927Y-68735884D02*
X141563927Y-70555884D01*
X141563927Y-70555884D02*
X140643927Y-70555884D01*
X119100000Y-77020000D02*
X120020000Y-77020000D01*
X119100000Y-78840000D02*
X119100000Y-77020000D01*
X120020000Y-77020000D02*
X120020000Y-78840000D01*
X120020000Y-78840000D02*
X119100000Y-78840000D01*
X98630000Y-59105000D02*
X98630000Y-63305000D01*
X98630000Y-63305000D02*
X102030000Y-63305000D01*
X102030000Y-59105000D02*
X98630000Y-59105000D01*
X102030000Y-63305000D02*
X102030000Y-59105000D01*
X117655000Y-80890000D02*
X119515000Y-80890000D01*
X117655000Y-81830000D02*
X117655000Y-80890000D01*
X119515000Y-80890000D02*
X119515000Y-81830000D01*
X119515000Y-81830000D02*
X117655000Y-81830000D01*
X110800000Y-69735000D02*
X112260000Y-69735000D01*
X110800000Y-72695000D02*
X110800000Y-69735000D01*
X112260000Y-69735000D02*
X112260000Y-72695000D01*
X112260000Y-72695000D02*
X110800000Y-72695000D01*
X134550000Y-64560000D02*
X137510000Y-64560000D01*
X134550000Y-66020000D02*
X134550000Y-64560000D01*
X137510000Y-64560000D02*
X137510000Y-66020000D01*
X137510000Y-66020000D02*
X134550000Y-66020000D01*
X115255000Y-80890000D02*
X117115000Y-80890000D01*
X115255000Y-81830000D02*
X115255000Y-80890000D01*
X117115000Y-80890000D02*
X117115000Y-81830000D01*
X117115000Y-81830000D02*
X115255000Y-81830000D01*
X129500000Y-67630000D02*
X130960000Y-67630000D01*
X129500000Y-70590000D02*
X129500000Y-67630000D01*
X130960000Y-67630000D02*
X130960000Y-70590000D01*
X130960000Y-70590000D02*
X129500000Y-70590000D01*
X116165000Y-82150000D02*
X119125000Y-82150000D01*
X116165000Y-83610000D02*
X116165000Y-82150000D01*
X119125000Y-82150000D02*
X119125000Y-83610000D01*
X119125000Y-83610000D02*
X116165000Y-83610000D01*
X116780000Y-79080000D02*
X119740000Y-79080000D01*
X116780000Y-80540000D02*
X116780000Y-79080000D01*
X119740000Y-79080000D02*
X119740000Y-80540000D01*
X119740000Y-80540000D02*
X116780000Y-80540000D01*
X105160000Y-83770000D02*
X112160000Y-83770000D01*
X105160000Y-87270000D02*
X105160000Y-83770000D01*
X112160000Y-83770000D02*
X112160000Y-87270000D01*
X112160000Y-87270000D02*
X105160000Y-87270000D01*
X125973927Y-64755884D02*
G75*
G02*
X124473927Y-64755884I-750000J0D01*
G01*
X124473927Y-64755884D02*
G75*
G02*
X125973927Y-64755884I750000J0D01*
G01*
X127479990Y-58574990D02*
X128939990Y-58574990D01*
X127479990Y-61534990D02*
X127479990Y-58574990D01*
X128939990Y-58574990D02*
X128939990Y-61534990D01*
X128939990Y-61534990D02*
X127479990Y-61534990D01*
X131520000Y-66100000D02*
X134480000Y-66100000D01*
X131520000Y-67560000D02*
X131520000Y-66100000D01*
X134480000Y-66100000D02*
X134480000Y-67560000D01*
X134480000Y-67560000D02*
X131520000Y-67560000D01*
X121279990Y-58539990D02*
X122219990Y-58539990D01*
X121279990Y-60399990D02*
X121279990Y-58539990D01*
X122219990Y-58539990D02*
X122219990Y-60399990D01*
X122219990Y-60399990D02*
X121279990Y-60399990D01*
X121490000Y-77010000D02*
X122410000Y-77010000D01*
X121490000Y-78830000D02*
X121490000Y-77010000D01*
X122410000Y-77010000D02*
X122410000Y-78830000D01*
X122410000Y-78830000D02*
X121490000Y-78830000D01*
X126440000Y-82130000D02*
X129400000Y-82130000D01*
X126440000Y-83590000D02*
X126440000Y-82130000D01*
X129400000Y-82130000D02*
X129400000Y-83590000D01*
X129400000Y-83590000D02*
X126440000Y-83590000D01*
X119815000Y-79080000D02*
X122775000Y-79080000D01*
X119815000Y-80540000D02*
X119815000Y-79080000D01*
X122775000Y-79080000D02*
X122775000Y-80540000D01*
X122775000Y-80540000D02*
X119815000Y-80540000D01*
X105160000Y-63380000D02*
X108120000Y-63380000D01*
X105160000Y-64840000D02*
X105160000Y-63380000D01*
X108120000Y-63380000D02*
X108120000Y-64840000D01*
X108120000Y-64840000D02*
X105160000Y-64840000D01*
X129019990Y-58554990D02*
X130479990Y-58554990D01*
X129019990Y-61514990D02*
X129019990Y-58554990D01*
X130479990Y-58554990D02*
X130479990Y-61514990D01*
X130479990Y-61514990D02*
X129019990Y-61514990D01*
X128589990Y-72219990D02*
X132089990Y-72219990D01*
X128589990Y-73919990D02*
X128589990Y-72219990D01*
X132089990Y-72219990D02*
X132089990Y-73919990D01*
X132089990Y-73919990D02*
X128589990Y-73919990D01*
X129600000Y-65480000D02*
X131420000Y-65480000D01*
X129600000Y-66400000D02*
X129600000Y-65480000D01*
X131420000Y-65480000D02*
X131420000Y-66400000D01*
X131420000Y-66400000D02*
X129600000Y-66400000D01*
X102140000Y-60330000D02*
X103600000Y-60330000D01*
X102140000Y-63290000D02*
X102140000Y-60330000D01*
X103600000Y-60330000D02*
X103600000Y-63290000D01*
X103600000Y-63290000D02*
X102140000Y-63290000D01*
X113750000Y-79080000D02*
X116710000Y-79080000D01*
X113750000Y-80540000D02*
X113750000Y-79080000D01*
X116710000Y-79080000D02*
X116710000Y-80540000D01*
X116710000Y-80540000D02*
X113750000Y-80540000D01*
X107435000Y-60315000D02*
X108895000Y-60315000D01*
X107435000Y-63275000D02*
X107435000Y-60315000D01*
X108895000Y-60315000D02*
X108895000Y-63275000D01*
X108895000Y-63275000D02*
X107435000Y-63275000D01*
X110460000Y-64855000D02*
X112160000Y-64855000D01*
X110460000Y-68355000D02*
X110460000Y-64855000D01*
X112160000Y-64855000D02*
X112160000Y-68355000D01*
X112160000Y-68355000D02*
X110460000Y-68355000D01*
X102130000Y-63380000D02*
X105090000Y-63380000D01*
X102130000Y-64840000D02*
X102130000Y-63380000D01*
X105090000Y-63380000D02*
X105090000Y-64840000D01*
X105090000Y-64840000D02*
X102130000Y-64840000D01*
X134560000Y-66100000D02*
X137520000Y-66100000D01*
X134560000Y-67560000D02*
X134560000Y-66100000D01*
X137520000Y-66100000D02*
X137520000Y-67560000D01*
X137520000Y-67560000D02*
X134560000Y-67560000D01*
X131040000Y-67620000D02*
X132500000Y-67620000D01*
X131040000Y-70580000D02*
X131040000Y-67620000D01*
X132500000Y-67620000D02*
X132500000Y-70580000D01*
X132500000Y-70580000D02*
X131040000Y-70580000D01*
X116379990Y-58489990D02*
X117319990Y-58489990D01*
X116379990Y-60349990D02*
X116379990Y-58489990D01*
X117319990Y-58489990D02*
X117319990Y-60349990D01*
X117319990Y-60349990D02*
X116379990Y-60349990D01*
X110440000Y-68750000D02*
X112260000Y-68750000D01*
X110440000Y-69670000D02*
X110440000Y-68750000D01*
X112260000Y-68750000D02*
X112260000Y-69670000D01*
X112260000Y-69670000D02*
X110440000Y-69670000D01*
X125109990Y-58549990D02*
X126049990Y-58549990D01*
X125109990Y-60409990D02*
X125109990Y-58549990D01*
X126049990Y-58549990D02*
X126049990Y-60409990D01*
X126049990Y-60409990D02*
X125109990Y-60409990D01*
X115740000Y-77040000D02*
X116660000Y-77040000D01*
X115740000Y-78860000D02*
X115740000Y-77040000D01*
X116660000Y-77040000D02*
X116660000Y-78860000D01*
X116660000Y-78860000D02*
X115740000Y-78860000D01*
X122835000Y-79080000D02*
X125795000Y-79080000D01*
X122835000Y-80540000D02*
X122835000Y-79080000D01*
X125795000Y-79080000D02*
X125795000Y-80540000D01*
X125795000Y-80540000D02*
X122835000Y-80540000D01*
X113135000Y-82150000D02*
X116095000Y-82150000D01*
X113135000Y-83610000D02*
X113135000Y-82150000D01*
X116095000Y-82150000D02*
X116095000Y-83610000D01*
X116095000Y-83610000D02*
X113135000Y-83610000D01*
X132709990Y-70489990D02*
X134169990Y-70489990D01*
X132709990Y-73449990D02*
X132709990Y-70489990D01*
X134169990Y-70489990D02*
X134169990Y-73449990D01*
X134169990Y-73449990D02*
X132709990Y-73449990D01*
X143920000Y-65030000D02*
X144840000Y-65030000D01*
X143920000Y-66850000D02*
X143920000Y-65030000D01*
X144840000Y-65030000D02*
X144840000Y-66850000D01*
X144840000Y-66850000D02*
X143920000Y-66850000D01*
X108360000Y-68670000D02*
X108360000Y-66670000D01*
X108360000Y-68670000D02*
X110360000Y-68670000D01*
X110360000Y-66670000D02*
X108360000Y-66670000D01*
X110360000Y-66670000D02*
X110360000Y-68670000D01*
X126579990Y-72209990D02*
X127499990Y-72209990D01*
X126579990Y-74029990D02*
X126579990Y-72209990D01*
X127499990Y-72209990D02*
X127499990Y-74029990D01*
X127499990Y-74029990D02*
X126579990Y-74029990D01*
X118799990Y-58504990D02*
X119739990Y-58504990D01*
X118799990Y-60364990D02*
X118799990Y-58504990D01*
X119739990Y-58504990D02*
X119739990Y-60364990D01*
X119739990Y-60364990D02*
X118799990Y-60364990D01*
X104860000Y-64910000D02*
X104860000Y-66910000D01*
X104860000Y-64910000D02*
X106860000Y-64910000D01*
X106860000Y-66910000D02*
X104860000Y-66910000D01*
X106860000Y-66910000D02*
X106860000Y-64910000D01*
X118120000Y-77020000D02*
X119040000Y-77020000D01*
X118120000Y-78840000D02*
X118120000Y-77020000D01*
X119040000Y-77020000D02*
X119040000Y-78840000D01*
X119040000Y-78840000D02*
X118120000Y-78840000D01*
X138373927Y-64535884D02*
X140333927Y-64535884D01*
X138373927Y-67935884D02*
X138373927Y-64535884D01*
X140333927Y-64535884D02*
X140333927Y-67935884D01*
X140333927Y-67935884D02*
X138373927Y-67935884D01*
X122830000Y-76980000D02*
X123770000Y-76980000D01*
X122830000Y-78840000D02*
X122830000Y-76980000D01*
X123770000Y-76980000D02*
X123770000Y-78840000D01*
X123770000Y-78840000D02*
X122830000Y-78840000D01*
X109579990Y-75799990D02*
X111399990Y-75799990D01*
X109579990Y-76719990D02*
X109579990Y-75799990D01*
X111399990Y-75799990D02*
X111399990Y-76719990D01*
X111399990Y-76719990D02*
X109579990Y-76719990D01*
X112220000Y-80620000D02*
X115180000Y-80620000D01*
X112220000Y-82080000D02*
X112220000Y-80620000D01*
X115180000Y-80620000D02*
X115180000Y-82080000D01*
X115180000Y-82080000D02*
X112220000Y-82080000D01*
X127119990Y-67639990D02*
X128579990Y-67639990D01*
X127119990Y-70599990D02*
X127119990Y-67639990D01*
X128579990Y-67639990D02*
X128579990Y-70599990D01*
X128579990Y-70599990D02*
X127119990Y-70599990D01*
X119799990Y-58499990D02*
X120739990Y-58499990D01*
X119799990Y-60359990D02*
X119799990Y-58499990D01*
X120739990Y-58499990D02*
X120739990Y-60359990D01*
X120739990Y-60359990D02*
X119799990Y-60359990D01*
X140413927Y-64552134D02*
X140413927Y-68652134D01*
X140413927Y-68652134D02*
X143813927Y-68652134D01*
X143813927Y-64552134D02*
X140413927Y-64552134D01*
X143813927Y-68652134D02*
X143813927Y-64552134D01*
X127410000Y-83780000D02*
X134410000Y-83780000D01*
X127410000Y-87280000D02*
X127410000Y-83780000D01*
X134410000Y-83780000D02*
X134410000Y-87280000D01*
X134410000Y-87280000D02*
X127410000Y-87280000D01*
X122279990Y-58539990D02*
X123219990Y-58539990D01*
X122279990Y-60399990D02*
X122279990Y-58539990D01*
X123219990Y-58539990D02*
X123219990Y-60399990D01*
X123219990Y-60399990D02*
X122279990Y-60399990D01*
X124109990Y-58549990D02*
X125049990Y-58549990D01*
X124109990Y-60409990D02*
X124109990Y-58549990D01*
X125049990Y-58549990D02*
X125049990Y-60409990D01*
X125049990Y-60409990D02*
X124109990Y-60409990D01*
X120500000Y-77010000D02*
X121420000Y-77010000D01*
X120500000Y-78830000D02*
X120500000Y-77010000D01*
X121420000Y-77010000D02*
X121420000Y-78830000D01*
X121420000Y-78830000D02*
X120500000Y-78830000D01*
X114923927Y-75805884D02*
G75*
G02*
X113423927Y-75805884I-750000J0D01*
G01*
X113423927Y-75805884D02*
G75*
G02*
X114923927Y-75805884I750000J0D01*
G01*
X110095000Y-82150000D02*
X113055000Y-82150000D01*
X110095000Y-83610000D02*
X110095000Y-82150000D01*
X113055000Y-82150000D02*
X113055000Y-83610000D01*
X113055000Y-83610000D02*
X110095000Y-83610000D01*
X109270000Y-69735000D02*
X110730000Y-69735000D01*
X109270000Y-72695000D02*
X109270000Y-69735000D01*
X110730000Y-69735000D02*
X110730000Y-72695000D01*
X110730000Y-72695000D02*
X109270000Y-72695000D01*
X120012500Y-80870000D02*
X121872500Y-80870000D01*
X120012500Y-81810000D02*
X120012500Y-80870000D01*
X121872500Y-80870000D02*
X121872500Y-81810000D01*
X121872500Y-81810000D02*
X120012500Y-81810000D01*
X126089990Y-69889990D02*
X127009990Y-69889990D01*
X126089990Y-71709990D02*
X126089990Y-69889990D01*
X127009990Y-69889990D02*
X127009990Y-71709990D01*
X127009990Y-71709990D02*
X126089990Y-71709990D01*
M02*
