G04 #@! TF.GenerationSoftware,KiCad,Pcbnew,7.99.0-1900-g89780d353a*
G04 #@! TF.CreationDate,2023-08-02T11:36:18+03:00*
G04 #@! TF.ProjectId,RP2040_minimal,52503230-3430-45f6-9d69-6e696d616c2e,REV1*
G04 #@! TF.SameCoordinates,Original*
G04 #@! TF.FileFunction,Copper,L2,Bot*
G04 #@! TF.FilePolarity,Positive*
%FSLAX46Y46*%
G04 Gerber Fmt 4.6, Leading zero omitted, Abs format (unit mm)*
G04 Created by KiCad (PCBNEW 7.99.0-1900-g89780d353a) date 2023-08-02 11:36:18*
%MOMM*%
%LPD*%
G01*
G04 APERTURE LIST*
G04 Aperture macros list*
%AMRoundRect*
0 Rectangle with rounded corners*
0 $1 Rounding radius*
0 $2 $3 $4 $5 $6 $7 $8 $9 X,Y pos of 4 corners*
0 Add a 4 corners polygon primitive as box body*
4,1,4,$2,$3,$4,$5,$6,$7,$8,$9,$2,$3,0*
0 Add four circle primitives for the rounded corners*
1,1,$1+$1,$2,$3*
1,1,$1+$1,$4,$5*
1,1,$1+$1,$6,$7*
1,1,$1+$1,$8,$9*
0 Add four rect primitives between the rounded corners*
20,1,$1+$1,$2,$3,$4,$5,0*
20,1,$1+$1,$4,$5,$6,$7,0*
20,1,$1+$1,$6,$7,$8,$9,0*
20,1,$1+$1,$8,$9,$2,$3,0*%
G04 Aperture macros list end*
G04 #@! TA.AperFunction,ComponentPad*
%ADD10RoundRect,0.300480X-0.949520X-1.499520X0.949520X-1.499520X0.949520X1.499520X-0.949520X1.499520X0*%
G04 #@! TD*
G04 #@! TA.AperFunction,ComponentPad*
%ADD11O,2.500000X3.600000*%
G04 #@! TD*
G04 #@! TA.AperFunction,ComponentPad*
%ADD12RoundRect,0.250000X0.600000X0.725000X-0.600000X0.725000X-0.600000X-0.725000X0.600000X-0.725000X0*%
G04 #@! TD*
G04 #@! TA.AperFunction,ComponentPad*
%ADD13O,1.700000X1.950000*%
G04 #@! TD*
G04 #@! TA.AperFunction,ComponentPad*
%ADD14R,1.980000X1.980000*%
G04 #@! TD*
G04 #@! TA.AperFunction,ComponentPad*
%ADD15C,1.980000*%
G04 #@! TD*
G04 #@! TA.AperFunction,ComponentPad*
%ADD16C,1.935000*%
G04 #@! TD*
G04 #@! TA.AperFunction,ComponentPad*
%ADD17RoundRect,0.300480X0.949520X1.499520X-0.949520X1.499520X-0.949520X-1.499520X0.949520X-1.499520X0*%
G04 #@! TD*
G04 #@! TA.AperFunction,ComponentPad*
%ADD18R,1.500000X1.500000*%
G04 #@! TD*
G04 #@! TA.AperFunction,ComponentPad*
%ADD19C,1.500000*%
G04 #@! TD*
G04 #@! TA.AperFunction,ComponentPad*
%ADD20R,0.850000X0.850000*%
G04 #@! TD*
G04 #@! TA.AperFunction,ViaPad*
%ADD21C,0.600000*%
G04 #@! TD*
G04 #@! TA.AperFunction,Conductor*
%ADD22C,1.000000*%
G04 #@! TD*
G04 #@! TA.AperFunction,Conductor*
%ADD23C,0.400000*%
G04 #@! TD*
G04 #@! TA.AperFunction,Conductor*
%ADD24C,0.300000*%
G04 #@! TD*
G04 APERTURE END LIST*
D10*
X152196000Y-105928400D03*
D11*
X157276000Y-105928400D03*
X162356000Y-105928400D03*
D12*
X189436000Y-76568400D03*
D13*
X186936000Y-76568400D03*
X184436000Y-76568400D03*
X181936000Y-76568400D03*
X179436000Y-76568400D03*
X176936000Y-76568400D03*
X174436000Y-76568400D03*
X171936000Y-76568400D03*
D14*
X189613500Y-94348400D03*
D15*
X189613500Y-82348400D03*
D16*
X191613500Y-88348400D03*
D15*
X177413500Y-94348400D03*
X177413500Y-82348400D03*
D17*
X162356000Y-76725900D03*
D11*
X157276000Y-76725900D03*
X152196000Y-76725900D03*
D18*
X173383500Y-101572400D03*
D19*
X174653500Y-99032400D03*
X175923500Y-101572400D03*
X177193500Y-99032400D03*
X178463500Y-101572400D03*
X179733500Y-99032400D03*
X181003500Y-101572400D03*
X182273500Y-99032400D03*
D14*
X146016000Y-82728400D03*
D15*
X146016000Y-94728400D03*
D16*
X144016000Y-88728400D03*
D15*
X158216000Y-82728400D03*
X158216000Y-94728400D03*
D20*
X193606000Y-78158400D03*
D21*
X167446000Y-75828400D03*
X169486000Y-80258400D03*
X148876000Y-100098400D03*
X193566000Y-79478400D03*
X198986000Y-88658400D03*
X136846000Y-78638400D03*
X166606000Y-75688400D03*
X184266000Y-101848400D03*
X140646000Y-76738400D03*
X141606000Y-94928400D03*
X136226000Y-85618400D03*
X190936000Y-100348400D03*
X193136000Y-73618400D03*
X184736000Y-98058400D03*
X194246000Y-86598400D03*
X164846000Y-75258400D03*
X197726000Y-81378400D03*
X192966000Y-76368400D03*
X193826000Y-81018400D03*
X139756000Y-84318400D03*
X194126000Y-85238400D03*
X194836000Y-108458400D03*
X162306000Y-101508400D03*
X139936000Y-78498400D03*
X198926000Y-103988400D03*
X158676000Y-98828400D03*
X141306000Y-87998400D03*
X169346000Y-90318400D03*
X195996000Y-105318400D03*
X136186000Y-89078400D03*
X197236000Y-108088400D03*
X145426000Y-106958400D03*
X140246000Y-97028400D03*
X136136000Y-96648400D03*
X149786000Y-79618400D03*
X162256000Y-108598400D03*
X188976000Y-98228400D03*
X187606000Y-99758400D03*
X153226000Y-109258400D03*
X159056000Y-108648400D03*
X138096000Y-78568400D03*
X164996000Y-77728400D03*
X188086000Y-74828400D03*
X154506000Y-75628400D03*
X168896000Y-85338400D03*
X143726000Y-104648400D03*
X194186000Y-90398400D03*
X198986000Y-87928400D03*
X136856000Y-100688400D03*
X138966000Y-81938400D03*
X160006000Y-76518400D03*
X142866000Y-100518400D03*
X164496000Y-93628400D03*
X191326000Y-76168400D03*
X146476000Y-78708400D03*
X197296000Y-78628400D03*
X184586000Y-100318400D03*
X194726000Y-78928400D03*
X195996000Y-98038400D03*
X198966000Y-83308400D03*
X141416000Y-92468400D03*
X169976000Y-86378400D03*
X159816000Y-77948400D03*
X135756000Y-94318400D03*
X149856000Y-99248400D03*
X177586000Y-108128400D03*
X168346000Y-76538400D03*
X149996000Y-76808400D03*
X198986000Y-85778400D03*
X173696000Y-75128400D03*
X153096000Y-100098400D03*
X141026000Y-82658400D03*
X172476000Y-78548400D03*
X182626000Y-78618900D03*
X170676000Y-78598400D03*
X177876000Y-79598400D03*
X164676000Y-82018400D03*
X171687000Y-85028400D03*
X171586000Y-89438400D03*
X172286500Y-83618400D03*
X172886000Y-85518400D03*
D22*
X163616000Y-104668400D02*
X175367500Y-104668400D01*
X190026000Y-79568400D02*
X180986000Y-79568400D01*
X192166000Y-87795900D02*
X192166000Y-81708400D01*
X181419500Y-104528400D02*
X193056000Y-104528400D01*
X144016000Y-88728400D02*
X141026000Y-85738400D01*
X193056000Y-89790900D02*
X191613500Y-88348400D01*
X141026000Y-82148400D02*
X141056000Y-82118400D01*
X162356000Y-105928400D02*
X163616000Y-104668400D01*
X141026000Y-85738400D02*
X141026000Y-82658400D01*
X141056000Y-82115439D02*
X149463039Y-73708400D01*
X141056000Y-82118400D02*
X141056000Y-82115439D01*
X178463500Y-101572400D02*
X181419500Y-104528400D01*
X176576000Y-73708400D02*
X179436000Y-76568400D01*
X141026000Y-82658400D02*
X141026000Y-82148400D01*
X149463039Y-73708400D02*
X176576000Y-73708400D01*
X191613500Y-88348400D02*
X192166000Y-87795900D01*
X175367500Y-104668400D02*
X178463500Y-101572400D01*
D23*
X177456000Y-78548400D02*
X179436000Y-76568400D01*
D22*
X192166000Y-81708400D02*
X190026000Y-79568400D01*
X180986000Y-79568400D02*
X180656000Y-79238400D01*
X180656000Y-77788400D02*
X179436000Y-76568400D01*
D23*
X172476000Y-78548400D02*
X177456000Y-78548400D01*
D22*
X180656000Y-79238400D02*
X180656000Y-77788400D01*
X193056000Y-104528400D02*
X193056000Y-89790900D01*
D24*
X187385500Y-78618900D02*
X182626000Y-78618900D01*
D22*
X161666000Y-99778400D02*
X166006000Y-95438400D01*
X152196000Y-105928400D02*
X158346000Y-99778400D01*
D24*
X189436000Y-76568400D02*
X187385500Y-78618900D01*
D22*
X158346000Y-99778400D02*
X161666000Y-99778400D01*
D24*
X177876000Y-79598400D02*
X171676000Y-79598400D01*
D22*
X166006000Y-95438400D02*
X166006000Y-83348400D01*
D24*
X171676000Y-79598400D02*
X170676000Y-78598400D01*
D22*
X166006000Y-83348400D02*
X164676000Y-82018400D01*
D23*
X171586000Y-85129400D02*
X171687000Y-85028400D01*
X171586000Y-89438400D02*
X171586000Y-85129400D01*
D22*
X165052346Y-80768400D02*
X156238500Y-80768400D01*
X156238500Y-80768400D02*
X152196000Y-76725900D01*
X152196000Y-76725900D02*
X152356000Y-76725900D01*
X166732346Y-82448400D02*
X165052346Y-80768400D01*
X177413500Y-82348400D02*
X177313500Y-82448400D01*
X177313500Y-82448400D02*
X166732346Y-82448400D01*
D24*
X172286500Y-96665400D02*
X172286500Y-83618400D01*
X174653500Y-99032400D02*
X172286500Y-96665400D01*
X172836000Y-85568400D02*
X172836000Y-95729975D01*
X175923500Y-98817475D02*
X175923500Y-101572400D01*
X172886000Y-85518400D02*
X172836000Y-85568400D01*
X172836000Y-95729975D02*
X175923500Y-98817475D01*
G04 #@! TA.AperFunction,Conductor*
G36*
X192246284Y-95947567D02*
G01*
X192293447Y-96000635D01*
X192305500Y-96054412D01*
X192305500Y-103651900D01*
X192285498Y-103720021D01*
X192231842Y-103766514D01*
X192179500Y-103777900D01*
X181782558Y-103777900D01*
X181714437Y-103757898D01*
X181693463Y-103740995D01*
X180727506Y-102775038D01*
X180693480Y-102712726D01*
X180698545Y-102641911D01*
X180741092Y-102585075D01*
X180807612Y-102560264D01*
X180828951Y-102560550D01*
X181003497Y-102577741D01*
X181003500Y-102577741D01*
X181003503Y-102577741D01*
X181199624Y-102558425D01*
X181199626Y-102558425D01*
X181199627Y-102558424D01*
X181199632Y-102558424D01*
X181388227Y-102501214D01*
X181562038Y-102408310D01*
X181714383Y-102283283D01*
X181839410Y-102130938D01*
X181932314Y-101957127D01*
X181989524Y-101768532D01*
X182008841Y-101572400D01*
X181998301Y-101465386D01*
X181989525Y-101376275D01*
X181989525Y-101376273D01*
X181989524Y-101376270D01*
X181989524Y-101376268D01*
X181932314Y-101187673D01*
X181839410Y-101013862D01*
X181714383Y-100861517D01*
X181562038Y-100736490D01*
X181539906Y-100724660D01*
X181388228Y-100643586D01*
X181199823Y-100586434D01*
X181199632Y-100586376D01*
X181199631Y-100586375D01*
X181199625Y-100586374D01*
X181003503Y-100567059D01*
X181003497Y-100567059D01*
X180807375Y-100586374D01*
X180807373Y-100586374D01*
X180618771Y-100643586D01*
X180444961Y-100736490D01*
X180292617Y-100861517D01*
X180167590Y-101013861D01*
X180074686Y-101187671D01*
X180017474Y-101376273D01*
X180017474Y-101376275D01*
X179998159Y-101572396D01*
X179998158Y-101572404D01*
X180015349Y-101746949D01*
X180002120Y-101816702D01*
X179953280Y-101868230D01*
X179884334Y-101885173D01*
X179817174Y-101862151D01*
X179800861Y-101848393D01*
X179494599Y-101542131D01*
X179460573Y-101479819D01*
X179458301Y-101465385D01*
X179449525Y-101376276D01*
X179449525Y-101376273D01*
X179449524Y-101376270D01*
X179449524Y-101376268D01*
X179392314Y-101187673D01*
X179299410Y-101013862D01*
X179174383Y-100861517D01*
X179022038Y-100736490D01*
X178999906Y-100724660D01*
X178848228Y-100643586D01*
X178659823Y-100586434D01*
X178659632Y-100586376D01*
X178659631Y-100586375D01*
X178659625Y-100586374D01*
X178463503Y-100567059D01*
X178463497Y-100567059D01*
X178267375Y-100586374D01*
X178267373Y-100586374D01*
X178078771Y-100643586D01*
X177904961Y-100736490D01*
X177752617Y-100861517D01*
X177627590Y-101013861D01*
X177534686Y-101187671D01*
X177477475Y-101376270D01*
X177468698Y-101465386D01*
X177442115Y-101531218D01*
X177432400Y-101542130D01*
X177126138Y-101848392D01*
X177063826Y-101882418D01*
X176993011Y-101877353D01*
X176936175Y-101834806D01*
X176911364Y-101768286D01*
X176911650Y-101746947D01*
X176928841Y-101572403D01*
X176928841Y-101572396D01*
X176909525Y-101376275D01*
X176909525Y-101376273D01*
X176909524Y-101376270D01*
X176909524Y-101376268D01*
X176852314Y-101187673D01*
X176759410Y-101013862D01*
X176634383Y-100861517D01*
X176548868Y-100791336D01*
X176482040Y-100736491D01*
X176390602Y-100687616D01*
X176339954Y-100637863D01*
X176323999Y-100576494D01*
X176323999Y-100126015D01*
X176323999Y-99879511D01*
X176344001Y-99811393D01*
X176397657Y-99764900D01*
X176467931Y-99754796D01*
X176529933Y-99782115D01*
X176569096Y-99814255D01*
X176634962Y-99868310D01*
X176808773Y-99961214D01*
X176997368Y-100018424D01*
X176997372Y-100018424D01*
X176997374Y-100018425D01*
X177193497Y-100037741D01*
X177193500Y-100037741D01*
X177193503Y-100037741D01*
X177389624Y-100018425D01*
X177389626Y-100018425D01*
X177389627Y-100018424D01*
X177389632Y-100018424D01*
X177578227Y-99961214D01*
X177752038Y-99868310D01*
X177904383Y-99743283D01*
X178029410Y-99590938D01*
X178122314Y-99417127D01*
X178179524Y-99228532D01*
X178179525Y-99228524D01*
X178198841Y-99032403D01*
X178728159Y-99032403D01*
X178747474Y-99228524D01*
X178747474Y-99228526D01*
X178804686Y-99417128D01*
X178880184Y-99558374D01*
X178897590Y-99590938D01*
X179022617Y-99743283D01*
X179174962Y-99868310D01*
X179348773Y-99961214D01*
X179537368Y-100018424D01*
X179537372Y-100018424D01*
X179537374Y-100018425D01*
X179733497Y-100037741D01*
X179733500Y-100037741D01*
X179733503Y-100037741D01*
X179929624Y-100018425D01*
X179929626Y-100018425D01*
X179929627Y-100018424D01*
X179929632Y-100018424D01*
X180118227Y-99961214D01*
X180292038Y-99868310D01*
X180444383Y-99743283D01*
X180569410Y-99590938D01*
X180662314Y-99417127D01*
X180719524Y-99228532D01*
X180719525Y-99228524D01*
X180738841Y-99032403D01*
X180738841Y-99032400D01*
X181010695Y-99032400D01*
X181029880Y-99251687D01*
X181086850Y-99464303D01*
X181086852Y-99464307D01*
X181179878Y-99663802D01*
X181222300Y-99724386D01*
X181222302Y-99724386D01*
X181747296Y-99199393D01*
X181809608Y-99165367D01*
X181880423Y-99170432D01*
X181937259Y-99212979D01*
X181941874Y-99219573D01*
X181990056Y-99293322D01*
X181990057Y-99293323D01*
X181990058Y-99293324D01*
X181990059Y-99293325D01*
X182090139Y-99371221D01*
X182090142Y-99371222D01*
X182092118Y-99372760D01*
X182133589Y-99430385D01*
X182137323Y-99501283D01*
X182103822Y-99561287D01*
X181581512Y-100083596D01*
X181581512Y-100083597D01*
X181642100Y-100126022D01*
X181841592Y-100219047D01*
X181841596Y-100219049D01*
X182054212Y-100276019D01*
X182273500Y-100295204D01*
X182492787Y-100276019D01*
X182705403Y-100219049D01*
X182705412Y-100219045D01*
X182904905Y-100126019D01*
X182904912Y-100126015D01*
X182965486Y-100083598D01*
X182965486Y-100083597D01*
X182440264Y-99558374D01*
X182406239Y-99496062D01*
X182411304Y-99425246D01*
X182453851Y-99368411D01*
X182469387Y-99358467D01*
X182510128Y-99336420D01*
X182596022Y-99243114D01*
X182597373Y-99240033D01*
X182600342Y-99236499D01*
X182601731Y-99234375D01*
X182601987Y-99234542D01*
X182643048Y-99185685D01*
X182710859Y-99164656D01*
X182779274Y-99183627D01*
X182801857Y-99201547D01*
X183324696Y-99724386D01*
X183324698Y-99724386D01*
X183367115Y-99663812D01*
X183367119Y-99663805D01*
X183460145Y-99464312D01*
X183460149Y-99464303D01*
X183517119Y-99251687D01*
X183536304Y-99032400D01*
X183517119Y-98813112D01*
X183460149Y-98600496D01*
X183460147Y-98600492D01*
X183367121Y-98400998D01*
X183324698Y-98340412D01*
X183324697Y-98340412D01*
X182799703Y-98865406D01*
X182737391Y-98899431D01*
X182666575Y-98894366D01*
X182609740Y-98851819D01*
X182605125Y-98845225D01*
X182556943Y-98771477D01*
X182556939Y-98771472D01*
X182454882Y-98692038D01*
X182413411Y-98634413D01*
X182409678Y-98563515D01*
X182443177Y-98503512D01*
X182965486Y-97981201D01*
X182965486Y-97981200D01*
X182904901Y-97938778D01*
X182904902Y-97938778D01*
X182705407Y-97845752D01*
X182705403Y-97845750D01*
X182492787Y-97788780D01*
X182273500Y-97769595D01*
X182054212Y-97788780D01*
X181841596Y-97845750D01*
X181841592Y-97845752D01*
X181642098Y-97938778D01*
X181581512Y-97981201D01*
X182106735Y-98506425D01*
X182140760Y-98568737D01*
X182135695Y-98639553D01*
X182093148Y-98696388D01*
X182077609Y-98706334D01*
X182036872Y-98728379D01*
X181950979Y-98821684D01*
X181950976Y-98821688D01*
X181949623Y-98824774D01*
X181946650Y-98828310D01*
X181945269Y-98830425D01*
X181945013Y-98830257D01*
X181903941Y-98879121D01*
X181836128Y-98900143D01*
X181767714Y-98881165D01*
X181745142Y-98863252D01*
X181222301Y-98340411D01*
X181179878Y-98400998D01*
X181086852Y-98600492D01*
X181086850Y-98600496D01*
X181029880Y-98813112D01*
X181010695Y-99032400D01*
X180738841Y-99032400D01*
X180738841Y-99032396D01*
X180719525Y-98836275D01*
X180719525Y-98836273D01*
X180719524Y-98836270D01*
X180719524Y-98836268D01*
X180662314Y-98647673D01*
X180569410Y-98473862D01*
X180444383Y-98321517D01*
X180292038Y-98196490D01*
X180118228Y-98103586D01*
X179929625Y-98046374D01*
X179733503Y-98027059D01*
X179733497Y-98027059D01*
X179537375Y-98046374D01*
X179537373Y-98046374D01*
X179348771Y-98103586D01*
X179174961Y-98196490D01*
X179022617Y-98321517D01*
X178897590Y-98473861D01*
X178804686Y-98647671D01*
X178747474Y-98836273D01*
X178747474Y-98836275D01*
X178728159Y-99032396D01*
X178728159Y-99032403D01*
X178198841Y-99032403D01*
X178198841Y-99032396D01*
X178179525Y-98836275D01*
X178179525Y-98836273D01*
X178179524Y-98836270D01*
X178179524Y-98836268D01*
X178122314Y-98647673D01*
X178029410Y-98473862D01*
X177904383Y-98321517D01*
X177752038Y-98196490D01*
X177578228Y-98103586D01*
X177389625Y-98046374D01*
X177193503Y-98027059D01*
X177193497Y-98027059D01*
X176997375Y-98046374D01*
X176997373Y-98046374D01*
X176808771Y-98103586D01*
X176634961Y-98196490D01*
X176482617Y-98321517D01*
X176353663Y-98478647D01*
X176352496Y-98477689D01*
X176303750Y-98518413D01*
X176233306Y-98527249D01*
X176169267Y-98496597D01*
X176164387Y-98491970D01*
X175442012Y-97769595D01*
X174042584Y-96370166D01*
X174008559Y-96307856D01*
X174013624Y-96237041D01*
X174056171Y-96180205D01*
X174122691Y-96155394D01*
X174130090Y-96155083D01*
X192177918Y-95928422D01*
X192246284Y-95947567D01*
G37*
G04 #@! TD.AperFunction*
G04 #@! TA.AperFunction,Conductor*
G36*
X156333231Y-74478902D02*
G01*
X156379724Y-74532558D01*
X156389828Y-74602832D01*
X156360334Y-74667412D01*
X156336088Y-74689006D01*
X156176837Y-74797581D01*
X156176832Y-74797585D01*
X155983682Y-74976802D01*
X155819396Y-75182809D01*
X155687653Y-75410995D01*
X155687651Y-75410999D01*
X155591393Y-75656263D01*
X155591392Y-75656265D01*
X155532760Y-75913146D01*
X155518000Y-76110109D01*
X155518000Y-76471900D01*
X156358563Y-76471900D01*
X156426684Y-76491902D01*
X156473177Y-76545558D01*
X156483770Y-76612007D01*
X156470938Y-76725900D01*
X156478343Y-76791624D01*
X156483771Y-76839792D01*
X156471522Y-76909724D01*
X156423409Y-76961932D01*
X156358563Y-76979900D01*
X155518000Y-76979900D01*
X155518000Y-77341691D01*
X155532760Y-77538653D01*
X155591392Y-77795534D01*
X155591393Y-77795536D01*
X155687651Y-78040800D01*
X155687653Y-78040804D01*
X155819396Y-78268990D01*
X155983682Y-78474997D01*
X156176832Y-78654214D01*
X156176837Y-78654218D01*
X156394525Y-78802636D01*
X156394532Y-78802640D01*
X156631923Y-78916962D01*
X156883704Y-78994628D01*
X156883712Y-78994629D01*
X157022000Y-79015472D01*
X157022000Y-77643336D01*
X157042002Y-77575215D01*
X157095658Y-77528722D01*
X157162108Y-77518129D01*
X157184386Y-77520639D01*
X157231066Y-77525900D01*
X157231074Y-77525900D01*
X157320934Y-77525900D01*
X157367613Y-77520639D01*
X157389891Y-77518129D01*
X157459822Y-77530376D01*
X157512031Y-77578488D01*
X157530000Y-77643336D01*
X157530000Y-79015472D01*
X157668287Y-78994629D01*
X157668295Y-78994628D01*
X157920076Y-78916962D01*
X158157467Y-78802640D01*
X158157474Y-78802636D01*
X158375162Y-78654218D01*
X158375167Y-78654214D01*
X158568317Y-78474997D01*
X158732603Y-78268990D01*
X158864346Y-78040804D01*
X158864348Y-78040800D01*
X158960606Y-77795536D01*
X158960607Y-77795534D01*
X159019239Y-77538653D01*
X159034000Y-77341691D01*
X159034000Y-76979900D01*
X158193437Y-76979900D01*
X158125316Y-76959898D01*
X158078823Y-76906242D01*
X158068229Y-76839792D01*
X158072884Y-76798480D01*
X158081062Y-76725900D01*
X158068229Y-76612007D01*
X158080478Y-76542076D01*
X158128591Y-76489868D01*
X158193437Y-76471900D01*
X159034000Y-76471900D01*
X159034000Y-76110109D01*
X159019239Y-75913146D01*
X158960607Y-75656265D01*
X158960606Y-75656263D01*
X158864348Y-75410999D01*
X158864346Y-75410995D01*
X158732603Y-75182809D01*
X158568317Y-74976802D01*
X158375167Y-74797585D01*
X158375162Y-74797581D01*
X158215912Y-74689006D01*
X158170895Y-74634106D01*
X158162706Y-74563583D01*
X158193945Y-74499828D01*
X158254693Y-74463083D01*
X158286890Y-74458900D01*
X161187796Y-74458900D01*
X161255917Y-74478902D01*
X161302410Y-74532558D01*
X161312514Y-74602832D01*
X161283020Y-74667412D01*
X161234020Y-74702115D01*
X161133901Y-74741596D01*
X161133898Y-74741598D01*
X161013214Y-74833114D01*
X160921698Y-74953798D01*
X160921696Y-74953801D01*
X160866133Y-75094698D01*
X160866132Y-75094704D01*
X160855500Y-75183241D01*
X160855500Y-78268549D01*
X160855501Y-78268560D01*
X160866132Y-78357098D01*
X160921696Y-78497998D01*
X160921698Y-78498001D01*
X161013214Y-78618685D01*
X161060067Y-78654214D01*
X161133900Y-78710203D01*
X161214808Y-78742109D01*
X161270322Y-78764001D01*
X161274801Y-78765767D01*
X161363345Y-78776400D01*
X163348654Y-78776399D01*
X163437199Y-78765767D01*
X163578100Y-78710203D01*
X163698785Y-78618685D01*
X163790303Y-78498000D01*
X163845867Y-78357099D01*
X163856500Y-78268555D01*
X163856499Y-75183246D01*
X163845867Y-75094701D01*
X163790303Y-74953800D01*
X163754675Y-74906818D01*
X163698785Y-74833114D01*
X163600439Y-74758537D01*
X163578100Y-74741597D01*
X163578098Y-74741596D01*
X163495901Y-74709182D01*
X163477979Y-74702114D01*
X163421947Y-74658517D01*
X163398379Y-74591546D01*
X163414760Y-74522465D01*
X163465889Y-74473207D01*
X163524204Y-74458900D01*
X176212942Y-74458900D01*
X176281063Y-74478902D01*
X176302037Y-74495805D01*
X176936849Y-75130617D01*
X176970875Y-75192929D01*
X176965810Y-75263744D01*
X176923263Y-75320580D01*
X176856743Y-75345391D01*
X176853749Y-75345569D01*
X176778680Y-75349144D01*
X176778667Y-75349146D01*
X176574427Y-75398695D01*
X176574416Y-75398698D01*
X176383251Y-75486002D01*
X176383247Y-75486004D01*
X176212048Y-75607914D01*
X176212044Y-75607917D01*
X176067014Y-75760021D01*
X175953387Y-75936827D01*
X175875274Y-76131945D01*
X175835500Y-76338310D01*
X175835500Y-76745823D01*
X175835501Y-76745844D01*
X175850470Y-76902607D01*
X175850473Y-76902622D01*
X175909683Y-77104272D01*
X175909687Y-77104283D01*
X176005986Y-77291078D01*
X176005988Y-77291081D01*
X176005989Y-77291082D01*
X176135908Y-77456286D01*
X176135911Y-77456288D01*
X176135914Y-77456292D01*
X176294738Y-77593914D01*
X176294744Y-77593919D01*
X176476756Y-77699004D01*
X176476757Y-77699004D01*
X176476760Y-77699006D01*
X176621140Y-77748975D01*
X176675367Y-77767744D01*
X176675374Y-77767745D01*
X176883396Y-77797654D01*
X176883397Y-77797653D01*
X176883398Y-77797654D01*
X176927904Y-77795534D01*
X177093319Y-77787655D01*
X177093323Y-77787654D01*
X177093330Y-77787654D01*
X177297576Y-77738104D01*
X177297580Y-77738102D01*
X177299254Y-77737696D01*
X177370170Y-77741074D01*
X177428002Y-77782255D01*
X177454389Y-77848166D01*
X177440954Y-77917880D01*
X177418056Y-77949239D01*
X177306302Y-78060995D01*
X177243990Y-78095020D01*
X177217206Y-78097900D01*
X172835963Y-78097900D01*
X172767842Y-78077898D01*
X172759263Y-78071865D01*
X172753625Y-78067539D01*
X172753624Y-78067538D01*
X172753622Y-78067537D01*
X172706920Y-78048193D01*
X172651639Y-78003646D01*
X172629217Y-77936283D01*
X172646774Y-77867491D01*
X172689075Y-77824491D01*
X172746433Y-77789174D01*
X172919961Y-77636448D01*
X172919964Y-77636445D01*
X173065180Y-77456599D01*
X173177919Y-77254787D01*
X173206563Y-77173719D01*
X173248117Y-77116153D01*
X173314196Y-77090191D01*
X173383822Y-77104075D01*
X173434888Y-77153398D01*
X173437359Y-77157958D01*
X173502682Y-77284667D01*
X173505989Y-77291082D01*
X173635908Y-77456286D01*
X173635911Y-77456288D01*
X173635914Y-77456292D01*
X173794738Y-77593914D01*
X173794744Y-77593919D01*
X173976756Y-77699004D01*
X173976757Y-77699004D01*
X173976760Y-77699006D01*
X174121140Y-77748975D01*
X174175367Y-77767744D01*
X174175374Y-77767745D01*
X174383396Y-77797654D01*
X174383397Y-77797653D01*
X174383398Y-77797654D01*
X174427904Y-77795534D01*
X174593319Y-77787655D01*
X174593323Y-77787654D01*
X174593330Y-77787654D01*
X174797576Y-77738104D01*
X174798470Y-77737696D01*
X174822999Y-77726493D01*
X174988753Y-77650796D01*
X175159952Y-77528886D01*
X175304986Y-77376778D01*
X175418613Y-77199972D01*
X175496725Y-77004857D01*
X175536500Y-76798485D01*
X175536500Y-76390975D01*
X175521528Y-76234182D01*
X175462316Y-76032525D01*
X175462313Y-76032520D01*
X175462312Y-76032516D01*
X175366013Y-75845721D01*
X175366011Y-75845718D01*
X175326530Y-75795514D01*
X175236092Y-75680514D01*
X175236088Y-75680510D01*
X175236085Y-75680507D01*
X175077261Y-75542885D01*
X175077253Y-75542879D01*
X174895244Y-75437796D01*
X174895239Y-75437793D01*
X174696640Y-75369058D01*
X174696634Y-75369056D01*
X174696633Y-75369056D01*
X174696631Y-75369055D01*
X174696625Y-75369054D01*
X174488603Y-75339145D01*
X174278680Y-75349144D01*
X174278667Y-75349146D01*
X174074427Y-75398695D01*
X174074416Y-75398698D01*
X173883251Y-75486002D01*
X173883247Y-75486004D01*
X173712048Y-75607914D01*
X173712044Y-75607917D01*
X173567014Y-75760021D01*
X173453386Y-75936828D01*
X173443055Y-75962634D01*
X173399167Y-76018441D01*
X173332074Y-76041660D01*
X173263079Y-76024921D01*
X173214087Y-75973538D01*
X173211266Y-75967702D01*
X173125842Y-75778721D01*
X173125839Y-75778715D01*
X172996393Y-75587194D01*
X172996387Y-75587186D01*
X172836443Y-75420303D01*
X172836435Y-75420297D01*
X172650586Y-75282843D01*
X172444165Y-75178769D01*
X172223137Y-75111080D01*
X172190000Y-75106835D01*
X172190000Y-75979623D01*
X172169998Y-76047744D01*
X172116342Y-76094237D01*
X172046069Y-76104340D01*
X172046068Y-76104340D01*
X171969981Y-76093400D01*
X171969975Y-76093400D01*
X171902025Y-76093400D01*
X171902018Y-76093400D01*
X171825932Y-76104340D01*
X171755658Y-76094237D01*
X171702002Y-76047744D01*
X171682000Y-75979623D01*
X171682000Y-75108961D01*
X171536906Y-75140231D01*
X171322412Y-75226422D01*
X171125564Y-75347627D01*
X170952038Y-75500351D01*
X170952035Y-75500354D01*
X170806819Y-75680200D01*
X170694077Y-75882017D01*
X170617068Y-76099969D01*
X170617068Y-76099970D01*
X170580301Y-76314400D01*
X171347212Y-76314400D01*
X171415333Y-76334402D01*
X171461826Y-76388058D01*
X171471930Y-76458332D01*
X171468109Y-76475891D01*
X171461000Y-76500105D01*
X171461000Y-76636695D01*
X171468108Y-76660902D01*
X171468108Y-76731898D01*
X171429725Y-76791624D01*
X171365144Y-76821117D01*
X171347212Y-76822400D01*
X170584069Y-76822400D01*
X170592694Y-76923733D01*
X170592695Y-76923739D01*
X170650940Y-77147433D01*
X170746157Y-77358078D01*
X170746160Y-77358084D01*
X170875602Y-77549600D01*
X170875612Y-77549613D01*
X171035556Y-77716496D01*
X171035564Y-77716502D01*
X171221413Y-77853956D01*
X171427834Y-77958030D01*
X171427833Y-77958030D01*
X171648864Y-78025720D01*
X171682000Y-78029962D01*
X171682000Y-77157176D01*
X171702002Y-77089055D01*
X171755658Y-77042562D01*
X171825927Y-77032458D01*
X171902022Y-77043399D01*
X171902023Y-77043400D01*
X171902025Y-77043400D01*
X171969977Y-77043400D01*
X171969977Y-77043399D01*
X172046068Y-77032459D01*
X172116341Y-77042562D01*
X172169997Y-77089054D01*
X172190000Y-77157174D01*
X172190000Y-78011829D01*
X172169998Y-78079950D01*
X172140704Y-78111791D01*
X172083378Y-78155778D01*
X171995137Y-78270775D01*
X171939670Y-78404690D01*
X171920750Y-78548399D01*
X171920750Y-78548400D01*
X171939670Y-78692109D01*
X171995137Y-78826024D01*
X172083378Y-78941021D01*
X172123670Y-78971938D01*
X172165537Y-79029276D01*
X172169759Y-79100147D01*
X172134995Y-79162049D01*
X172072282Y-79195331D01*
X172046966Y-79197900D01*
X171894083Y-79197900D01*
X171825962Y-79177898D01*
X171804988Y-79160995D01*
X171259804Y-78615811D01*
X171225778Y-78553499D01*
X171223977Y-78543162D01*
X171212330Y-78454691D01*
X171191619Y-78404690D01*
X171156862Y-78320775D01*
X171068621Y-78205778D01*
X170953624Y-78117537D01*
X170819709Y-78062070D01*
X170676000Y-78043150D01*
X170532290Y-78062070D01*
X170398375Y-78117537D01*
X170283378Y-78205778D01*
X170195137Y-78320775D01*
X170139670Y-78454690D01*
X170120750Y-78598399D01*
X170120750Y-78598400D01*
X170139670Y-78742109D01*
X170195137Y-78876024D01*
X170283378Y-78991021D01*
X170398375Y-79079262D01*
X170482821Y-79114239D01*
X170532291Y-79134730D01*
X170620763Y-79146377D01*
X170685689Y-79175099D01*
X170693399Y-79182192D01*
X171068933Y-79557726D01*
X171417017Y-79905810D01*
X171417027Y-79905819D01*
X171437658Y-79926450D01*
X171457249Y-79936432D01*
X171474106Y-79946760D01*
X171491911Y-79959697D01*
X171512831Y-79966494D01*
X171531095Y-79974059D01*
X171550696Y-79984046D01*
X171556472Y-79984960D01*
X171572425Y-79987488D01*
X171591642Y-79992101D01*
X171612567Y-79998900D01*
X171644481Y-79998900D01*
X177450876Y-79998900D01*
X177518997Y-80018902D01*
X177527580Y-80024938D01*
X177598375Y-80079262D01*
X177682821Y-80114239D01*
X177732291Y-80134730D01*
X177857079Y-80151158D01*
X177875999Y-80153650D01*
X177875999Y-80153649D01*
X177876000Y-80153650D01*
X178019709Y-80134730D01*
X178120881Y-80092824D01*
X178153624Y-80079262D01*
X178268621Y-79991021D01*
X178356862Y-79876024D01*
X178377351Y-79826555D01*
X178412330Y-79742109D01*
X178431250Y-79598400D01*
X178412330Y-79454691D01*
X178386029Y-79391194D01*
X178356862Y-79320775D01*
X178268621Y-79205778D01*
X178153624Y-79117537D01*
X178019709Y-79062070D01*
X177886993Y-79044597D01*
X177822066Y-79015874D01*
X177782975Y-78956609D01*
X177782130Y-78885617D01*
X177808852Y-78841872D01*
X177806304Y-78839841D01*
X177818081Y-78825072D01*
X177818762Y-78825615D01*
X177828219Y-78813283D01*
X178895537Y-77745965D01*
X178957847Y-77711941D01*
X179025839Y-77715991D01*
X179175367Y-77767744D01*
X179383398Y-77797654D01*
X179515423Y-77791365D01*
X179538185Y-77790281D01*
X179607180Y-77807019D01*
X179633275Y-77827043D01*
X179868594Y-78062362D01*
X179902620Y-78124674D01*
X179905499Y-78151457D01*
X179905499Y-79174547D01*
X179904170Y-79192802D01*
X179900711Y-79216421D01*
X179900711Y-79216425D01*
X179905260Y-79268427D01*
X179905500Y-79273920D01*
X179905500Y-79282112D01*
X179909306Y-79314675D01*
X179916000Y-79391194D01*
X179917484Y-79398380D01*
X179917408Y-79398395D01*
X179918990Y-79405535D01*
X179919067Y-79405517D01*
X179920760Y-79412661D01*
X179947025Y-79484823D01*
X179971182Y-79557726D01*
X179974285Y-79564379D01*
X179974214Y-79564411D01*
X179977403Y-79570997D01*
X179977471Y-79570963D01*
X179980761Y-79577515D01*
X180022965Y-79641683D01*
X180063286Y-79707054D01*
X180067841Y-79712814D01*
X180067779Y-79712862D01*
X180072395Y-79718527D01*
X180072455Y-79718477D01*
X180077166Y-79724091D01*
X180077167Y-79724092D01*
X180077170Y-79724096D01*
X180096263Y-79742109D01*
X180133020Y-79776788D01*
X180410167Y-80053934D01*
X180422140Y-80067789D01*
X180436386Y-80086926D01*
X180436388Y-80086928D01*
X180436390Y-80086930D01*
X180459654Y-80106451D01*
X180476380Y-80120486D01*
X180480434Y-80124201D01*
X180486221Y-80129988D01*
X180486224Y-80129992D01*
X180511939Y-80150323D01*
X180570788Y-80199704D01*
X180576922Y-80203738D01*
X180576878Y-80203803D01*
X180583034Y-80207725D01*
X180583077Y-80207657D01*
X180589319Y-80211507D01*
X180589323Y-80211510D01*
X180631720Y-80231280D01*
X180685004Y-80278196D01*
X180704465Y-80346474D01*
X180683923Y-80414434D01*
X180629900Y-80460499D01*
X180578600Y-80471474D01*
X173896000Y-80478400D01*
X173893958Y-81546098D01*
X173893908Y-81572141D01*
X173873775Y-81640223D01*
X173820031Y-81686614D01*
X173767908Y-81697900D01*
X167095403Y-81697900D01*
X167027282Y-81677898D01*
X167006308Y-81660995D01*
X165628180Y-80282866D01*
X165616209Y-80269015D01*
X165601956Y-80249870D01*
X165579800Y-80231279D01*
X165561960Y-80216309D01*
X165557939Y-80212625D01*
X165552123Y-80206809D01*
X165526386Y-80186459D01*
X165483321Y-80150323D01*
X165467562Y-80137099D01*
X165461430Y-80133066D01*
X165461473Y-80133000D01*
X165455307Y-80129072D01*
X165455266Y-80129139D01*
X165449028Y-80125291D01*
X165379403Y-80092824D01*
X165310781Y-80058361D01*
X165310780Y-80058360D01*
X165310779Y-80058360D01*
X165310776Y-80058359D01*
X165303887Y-80055852D01*
X165303913Y-80055778D01*
X165297002Y-80053375D01*
X165296978Y-80053450D01*
X165290021Y-80051144D01*
X165290019Y-80051143D01*
X165290016Y-80051142D01*
X165290012Y-80051141D01*
X165214780Y-80035607D01*
X165140065Y-80017899D01*
X165132777Y-80017048D01*
X165132786Y-80016969D01*
X165125522Y-80016227D01*
X165125516Y-80016306D01*
X165118203Y-80015666D01*
X165118202Y-80015666D01*
X165041429Y-80017900D01*
X156601558Y-80017900D01*
X156533437Y-79997898D01*
X156512463Y-79980995D01*
X153733405Y-77201936D01*
X153699379Y-77139624D01*
X153696500Y-77112841D01*
X153696500Y-76113831D01*
X153694802Y-76093346D01*
X153681108Y-75928079D01*
X153677326Y-75913146D01*
X153620064Y-75687022D01*
X153620061Y-75687015D01*
X153617209Y-75680514D01*
X153520173Y-75459293D01*
X153488621Y-75410999D01*
X153384164Y-75251114D01*
X153215750Y-75068167D01*
X153019509Y-74915426D01*
X153019508Y-74915425D01*
X152800809Y-74797071D01*
X152800807Y-74797070D01*
X152565618Y-74716330D01*
X152565609Y-74716328D01*
X152548639Y-74713496D01*
X152522781Y-74709181D01*
X152458882Y-74678240D01*
X152421854Y-74617664D01*
X152423455Y-74546686D01*
X152463175Y-74487840D01*
X152528404Y-74459810D01*
X152543520Y-74458900D01*
X156265110Y-74458900D01*
X156333231Y-74478902D01*
G37*
G04 #@! TD.AperFunction*
G04 #@! TA.AperFunction,Conductor*
G36*
X151916601Y-74478902D02*
G01*
X151963094Y-74532558D01*
X151973198Y-74602832D01*
X151943704Y-74667412D01*
X151883978Y-74705796D01*
X151869222Y-74709181D01*
X151850736Y-74712265D01*
X151826390Y-74716328D01*
X151826381Y-74716330D01*
X151591192Y-74797070D01*
X151591190Y-74797071D01*
X151372491Y-74915425D01*
X151372490Y-74915426D01*
X151176249Y-75068167D01*
X151007835Y-75251114D01*
X150871826Y-75459293D01*
X150771938Y-75687015D01*
X150771935Y-75687022D01*
X150710893Y-75928071D01*
X150710892Y-75928077D01*
X150710892Y-75928079D01*
X150702238Y-76032516D01*
X150695500Y-76113831D01*
X150695500Y-77337969D01*
X150696938Y-77355323D01*
X150710713Y-77521562D01*
X150710893Y-77523728D01*
X150771935Y-77764777D01*
X150771938Y-77764784D01*
X150871826Y-77992506D01*
X151007835Y-78200685D01*
X151176249Y-78383632D01*
X151176254Y-78383636D01*
X151176256Y-78383638D01*
X151372490Y-78536373D01*
X151372491Y-78536374D01*
X151591190Y-78654728D01*
X151591192Y-78654729D01*
X151668125Y-78681140D01*
X151826386Y-78735471D01*
X152071665Y-78776400D01*
X152071669Y-78776400D01*
X152320331Y-78776400D01*
X152320335Y-78776400D01*
X152565614Y-78735471D01*
X152800810Y-78654728D01*
X152888602Y-78607216D01*
X152958032Y-78592386D01*
X153024459Y-78617446D01*
X153037667Y-78628935D01*
X154050415Y-79641683D01*
X155006352Y-80597619D01*
X155040377Y-80659931D01*
X155035313Y-80730746D01*
X154992766Y-80787582D01*
X154926246Y-80812393D01*
X154917388Y-80812714D01*
X143712800Y-80824326D01*
X143644658Y-80804394D01*
X143598110Y-80750787D01*
X143587933Y-80680524D01*
X143617359Y-80615912D01*
X143623560Y-80609245D01*
X149737001Y-74495805D01*
X149799313Y-74461779D01*
X149826096Y-74458900D01*
X151848480Y-74458900D01*
X151916601Y-74478902D01*
G37*
G04 #@! TD.AperFunction*
G04 #@! TA.AperFunction,Conductor*
G36*
X194649860Y-72460469D02*
G01*
X194696353Y-72514125D01*
X194706457Y-72584399D01*
X194683142Y-72641256D01*
X194573753Y-72789572D01*
X194573752Y-72789573D01*
X194392583Y-73098617D01*
X194244886Y-73424981D01*
X194132296Y-73765042D01*
X194056048Y-74115076D01*
X194016998Y-74471160D01*
X194015575Y-74829397D01*
X194051789Y-75185766D01*
X194051792Y-75185787D01*
X194125247Y-75536390D01*
X194125250Y-75536401D01*
X194171696Y-75680514D01*
X194226747Y-75851331D01*
X194235136Y-75877359D01*
X194261481Y-75936827D01*
X194375427Y-76194038D01*
X194380233Y-76204885D01*
X194406350Y-76250260D01*
X194558934Y-76515353D01*
X194558938Y-76515358D01*
X194558940Y-76515362D01*
X194769264Y-76805331D01*
X194769265Y-76805332D01*
X195008896Y-77071611D01*
X195275174Y-77311241D01*
X195275177Y-77311243D01*
X195275178Y-77311244D01*
X195565142Y-77521562D01*
X195565145Y-77521563D01*
X195565155Y-77521571D01*
X195875626Y-77700273D01*
X196203154Y-77845369D01*
X196544112Y-77955253D01*
X196894727Y-78028710D01*
X197251120Y-78064926D01*
X197605280Y-78063516D01*
X197609348Y-78063500D01*
X197828187Y-78039500D01*
X197965437Y-78024449D01*
X198315457Y-77948204D01*
X198655530Y-77835609D01*
X198981892Y-77687911D01*
X199290932Y-77506744D01*
X199439208Y-77397383D01*
X199505902Y-77373047D01*
X199575167Y-77388632D01*
X199625010Y-77439190D01*
X199639996Y-77498787D01*
X199639996Y-109635651D01*
X199639995Y-109635669D01*
X199639995Y-109684401D01*
X199639692Y-109690578D01*
X199627773Y-109811604D01*
X199622955Y-109835831D01*
X199590354Y-109943304D01*
X199580901Y-109966124D01*
X199527960Y-110065171D01*
X199514238Y-110085709D01*
X199442992Y-110172524D01*
X199425526Y-110189990D01*
X199338713Y-110261236D01*
X199318174Y-110274960D01*
X199219126Y-110327901D01*
X199196308Y-110337352D01*
X199088840Y-110369953D01*
X199064613Y-110374772D01*
X198943654Y-110386685D01*
X198937475Y-110386989D01*
X139251798Y-110386989D01*
X139183677Y-110366987D01*
X139137184Y-110313331D01*
X139127080Y-110243057D01*
X139150392Y-110186204D01*
X139160481Y-110172524D01*
X139259736Y-110037938D01*
X139440888Y-109728898D01*
X139588572Y-109402537D01*
X139701154Y-109062468D01*
X139777388Y-108712453D01*
X139812555Y-108391710D01*
X139816430Y-108356370D01*
X139816452Y-108350745D01*
X139817847Y-107998149D01*
X139781625Y-107641765D01*
X139708165Y-107291158D01*
X139598278Y-106950208D01*
X139453181Y-106622689D01*
X139452091Y-106620796D01*
X139340065Y-106426166D01*
X139274481Y-106312224D01*
X139153638Y-106145620D01*
X139064150Y-106022245D01*
X138824528Y-105755977D01*
X138558262Y-105516357D01*
X138558250Y-105516347D01*
X138268286Y-105306026D01*
X138268278Y-105306021D01*
X137957824Y-105127325D01*
X137957814Y-105127320D01*
X137729603Y-105026218D01*
X137630301Y-104982225D01*
X137630299Y-104982224D01*
X137630296Y-104982223D01*
X137630293Y-104982222D01*
X137289359Y-104872340D01*
X137289336Y-104872334D01*
X136938747Y-104798876D01*
X136938736Y-104798874D01*
X136634470Y-104767949D01*
X136582360Y-104762653D01*
X136582358Y-104762653D01*
X136224137Y-104764069D01*
X135868063Y-104803109D01*
X135868049Y-104803112D01*
X135518039Y-104879343D01*
X135177972Y-104991923D01*
X134851618Y-105139604D01*
X134851615Y-105139605D01*
X134851610Y-105139608D01*
X134730464Y-105210620D01*
X134542575Y-105320755D01*
X134542568Y-105320760D01*
X134394260Y-105430134D01*
X134327563Y-105454468D01*
X134258299Y-105438880D01*
X134208458Y-105388320D01*
X134193475Y-105328728D01*
X134193475Y-85716425D01*
X140270711Y-85716425D01*
X140275260Y-85768427D01*
X140275500Y-85773920D01*
X140275500Y-85782112D01*
X140279306Y-85814675D01*
X140286000Y-85891194D01*
X140287484Y-85898380D01*
X140287408Y-85898395D01*
X140288990Y-85905535D01*
X140289067Y-85905517D01*
X140290760Y-85912661D01*
X140317025Y-85984823D01*
X140341182Y-86057726D01*
X140344285Y-86064379D01*
X140344214Y-86064411D01*
X140347403Y-86070997D01*
X140347471Y-86070963D01*
X140350761Y-86077515D01*
X140392965Y-86141683D01*
X140433286Y-86207054D01*
X140437841Y-86212814D01*
X140437779Y-86212862D01*
X140442395Y-86218527D01*
X140442455Y-86218477D01*
X140447166Y-86224091D01*
X140447167Y-86224092D01*
X140447170Y-86224096D01*
X140503018Y-86276786D01*
X142548475Y-88322243D01*
X142582500Y-88384555D01*
X142585380Y-88411579D01*
X142569895Y-96505479D01*
X142569896Y-96505478D01*
X142569896Y-96505480D01*
X161679896Y-96265480D01*
X161700117Y-85905517D01*
X161708434Y-81644654D01*
X161728569Y-81576572D01*
X161782316Y-81530184D01*
X161834434Y-81518900D01*
X163881248Y-81518900D01*
X163949369Y-81538902D01*
X163995862Y-81592558D01*
X164005966Y-81662832D01*
X163998347Y-81691414D01*
X163946797Y-81821175D01*
X163946138Y-81822833D01*
X163920711Y-81996423D01*
X163936001Y-82171201D01*
X163991185Y-82337734D01*
X164083288Y-82487056D01*
X164083293Y-82487062D01*
X165218595Y-83622363D01*
X165252620Y-83684675D01*
X165255500Y-83711458D01*
X165255500Y-95075341D01*
X165235498Y-95143462D01*
X165218595Y-95164436D01*
X161392037Y-98990995D01*
X161329725Y-99025021D01*
X161302942Y-99027900D01*
X158409852Y-99027900D01*
X158391593Y-99026570D01*
X158367978Y-99023111D01*
X158367977Y-99023111D01*
X158361625Y-99023666D01*
X158315975Y-99027660D01*
X158310482Y-99027900D01*
X158302287Y-99027900D01*
X158269707Y-99031708D01*
X158193204Y-99038401D01*
X158186019Y-99039885D01*
X158186003Y-99039809D01*
X158178865Y-99041391D01*
X158178883Y-99041467D01*
X158171746Y-99043158D01*
X158099573Y-99069426D01*
X158026672Y-99093582D01*
X158020022Y-99096684D01*
X158019989Y-99096614D01*
X158013405Y-99099801D01*
X158013440Y-99099870D01*
X158006879Y-99103165D01*
X157970679Y-99126974D01*
X157942709Y-99145370D01*
X157877344Y-99185689D01*
X157877342Y-99185690D01*
X157877340Y-99185692D01*
X157871587Y-99190241D01*
X157871538Y-99190180D01*
X157865877Y-99194791D01*
X157865927Y-99194851D01*
X157860306Y-99199567D01*
X157807597Y-99255435D01*
X153222036Y-103840995D01*
X153159724Y-103875021D01*
X153132941Y-103877900D01*
X151203350Y-103877900D01*
X151203339Y-103877901D01*
X151114801Y-103888532D01*
X150973901Y-103944096D01*
X150973898Y-103944098D01*
X150853214Y-104035614D01*
X150761698Y-104156298D01*
X150761696Y-104156301D01*
X150706133Y-104297198D01*
X150706132Y-104297204D01*
X150695500Y-104385741D01*
X150695500Y-107471049D01*
X150695501Y-107471060D01*
X150706132Y-107559598D01*
X150761696Y-107700498D01*
X150761698Y-107700501D01*
X150853214Y-107821185D01*
X150900067Y-107856714D01*
X150973900Y-107912703D01*
X151114801Y-107968267D01*
X151203345Y-107978900D01*
X153188654Y-107978899D01*
X153277199Y-107968267D01*
X153418100Y-107912703D01*
X153538785Y-107821185D01*
X153630303Y-107700500D01*
X153685867Y-107559599D01*
X153696500Y-107471055D01*
X153696500Y-106544191D01*
X155518000Y-106544191D01*
X155532760Y-106741153D01*
X155591392Y-106998034D01*
X155591393Y-106998036D01*
X155687651Y-107243300D01*
X155687653Y-107243304D01*
X155819396Y-107471490D01*
X155983682Y-107677497D01*
X156176832Y-107856714D01*
X156176837Y-107856718D01*
X156394525Y-108005136D01*
X156394532Y-108005140D01*
X156631923Y-108119462D01*
X156883704Y-108197128D01*
X156883712Y-108197129D01*
X157022000Y-108217972D01*
X157022000Y-106845836D01*
X157042002Y-106777715D01*
X157095658Y-106731222D01*
X157162108Y-106720629D01*
X157184386Y-106723139D01*
X157231066Y-106728400D01*
X157231074Y-106728400D01*
X157320934Y-106728400D01*
X157367613Y-106723139D01*
X157389891Y-106720629D01*
X157459822Y-106732876D01*
X157512031Y-106780988D01*
X157530000Y-106845836D01*
X157530000Y-108217972D01*
X157668287Y-108197129D01*
X157668295Y-108197128D01*
X157920076Y-108119462D01*
X158157467Y-108005140D01*
X158157474Y-108005136D01*
X158179432Y-107990165D01*
X170259288Y-107990165D01*
X170288912Y-108259414D01*
X170357428Y-108521490D01*
X170463369Y-108770789D01*
X170463370Y-108770790D01*
X170604482Y-109002010D01*
X170777755Y-109210220D01*
X170979498Y-109390982D01*
X171205410Y-109540444D01*
X171450676Y-109655420D01*
X171710069Y-109733460D01*
X171710072Y-109733460D01*
X171710074Y-109733461D01*
X171978057Y-109772900D01*
X171978061Y-109772900D01*
X172181133Y-109772900D01*
X172215863Y-109770357D01*
X172383656Y-109758077D01*
X172383660Y-109758076D01*
X172383661Y-109758076D01*
X172494165Y-109733460D01*
X172648053Y-109699180D01*
X172901058Y-109602414D01*
X173137277Y-109469841D01*
X173351677Y-109304288D01*
X173539686Y-109109281D01*
X173697299Y-108888979D01*
X173701744Y-108880335D01*
X173821156Y-108648075D01*
X173821157Y-108648072D01*
X173864342Y-108521488D01*
X173908618Y-108391705D01*
X173950727Y-108163728D01*
X173957818Y-108125341D01*
X173957819Y-108125330D01*
X173962759Y-107990165D01*
X181689288Y-107990165D01*
X181718912Y-108259414D01*
X181787428Y-108521490D01*
X181893369Y-108770789D01*
X181893370Y-108770790D01*
X182034482Y-109002010D01*
X182207755Y-109210220D01*
X182409498Y-109390982D01*
X182635410Y-109540444D01*
X182880676Y-109655420D01*
X183140069Y-109733460D01*
X183140072Y-109733460D01*
X183140074Y-109733461D01*
X183408057Y-109772900D01*
X183408061Y-109772900D01*
X183611133Y-109772900D01*
X183645863Y-109770357D01*
X183813656Y-109758077D01*
X183813660Y-109758076D01*
X183813661Y-109758076D01*
X183924165Y-109733460D01*
X184078053Y-109699180D01*
X184331058Y-109602414D01*
X184567277Y-109469841D01*
X184781677Y-109304288D01*
X184969686Y-109109281D01*
X185127299Y-108888979D01*
X185131744Y-108880335D01*
X185251156Y-108648075D01*
X185251157Y-108648072D01*
X185294342Y-108521488D01*
X185338618Y-108391705D01*
X185380727Y-108163728D01*
X186661092Y-108163728D01*
X186677054Y-108356367D01*
X186681628Y-108411556D01*
X186742670Y-108652605D01*
X186742673Y-108652612D01*
X186842561Y-108880334D01*
X186978570Y-109088513D01*
X187146984Y-109271460D01*
X187146989Y-109271464D01*
X187146991Y-109271466D01*
X187315387Y-109402534D01*
X187343225Y-109424201D01*
X187343226Y-109424202D01*
X187561925Y-109542556D01*
X187561927Y-109542557D01*
X187685412Y-109584949D01*
X187797121Y-109623299D01*
X188042400Y-109664228D01*
X188042404Y-109664228D01*
X188291066Y-109664228D01*
X188291070Y-109664228D01*
X188536349Y-109623299D01*
X188771545Y-109542556D01*
X188990244Y-109424202D01*
X189186479Y-109271466D01*
X189242857Y-109210224D01*
X189354899Y-109088513D01*
X189450151Y-108942718D01*
X189490908Y-108880335D01*
X189590798Y-108652609D01*
X189651843Y-108411549D01*
X189672378Y-108163728D01*
X189651843Y-107915907D01*
X189602098Y-107719469D01*
X189590799Y-107674850D01*
X189590796Y-107674843D01*
X189576288Y-107641769D01*
X189490908Y-107447121D01*
X189410018Y-107323309D01*
X189354899Y-107238942D01*
X189186485Y-107055995D01*
X189084017Y-106976241D01*
X188990244Y-106903254D01*
X188990243Y-106903253D01*
X188771544Y-106784899D01*
X188771542Y-106784898D01*
X188536353Y-106704158D01*
X188536344Y-106704156D01*
X188459575Y-106691346D01*
X188291070Y-106663228D01*
X188042400Y-106663228D01*
X187878687Y-106690546D01*
X187797125Y-106704156D01*
X187797116Y-106704158D01*
X187561927Y-106784898D01*
X187561925Y-106784899D01*
X187343226Y-106903253D01*
X187343225Y-106903254D01*
X187146984Y-107055995D01*
X186978570Y-107238942D01*
X186842561Y-107447121D01*
X186742673Y-107674843D01*
X186742670Y-107674850D01*
X186681628Y-107915899D01*
X186681627Y-107915905D01*
X186681627Y-107915907D01*
X186661092Y-108163728D01*
X185380727Y-108163728D01*
X185387818Y-108125341D01*
X185387819Y-108125330D01*
X185397712Y-107854635D01*
X185380753Y-107700501D01*
X185368087Y-107585385D01*
X185331940Y-107447121D01*
X185299572Y-107323312D01*
X185285905Y-107291152D01*
X185193630Y-107074010D01*
X185193629Y-107074010D01*
X185052518Y-106842790D01*
X184879245Y-106634580D01*
X184879241Y-106634577D01*
X184879240Y-106634575D01*
X184677512Y-106453827D01*
X184677502Y-106453818D01*
X184451590Y-106304356D01*
X184206324Y-106189380D01*
X184048892Y-106142015D01*
X183946925Y-106111338D01*
X183678942Y-106071900D01*
X183678939Y-106071900D01*
X183475869Y-106071900D01*
X183475867Y-106071900D01*
X183273339Y-106086723D01*
X183273338Y-106086723D01*
X183008956Y-106145617D01*
X183008941Y-106145622D01*
X182755941Y-106242386D01*
X182519729Y-106374955D01*
X182519725Y-106374957D01*
X182391478Y-106473986D01*
X182315943Y-106532312D01*
X182305318Y-106540516D01*
X182117315Y-106735517D01*
X182117310Y-106735523D01*
X181959703Y-106955817D01*
X181959696Y-106955827D01*
X181835843Y-107196724D01*
X181835842Y-107196727D01*
X181748383Y-107453089D01*
X181748380Y-107453102D01*
X181699181Y-107719458D01*
X181699180Y-107719469D01*
X181689288Y-107990165D01*
X173962759Y-107990165D01*
X173967712Y-107854635D01*
X173950753Y-107700501D01*
X173938087Y-107585385D01*
X173901940Y-107447121D01*
X173869572Y-107323312D01*
X173855905Y-107291152D01*
X173763630Y-107074010D01*
X173763629Y-107074010D01*
X173622518Y-106842790D01*
X173449245Y-106634580D01*
X173449241Y-106634577D01*
X173449240Y-106634575D01*
X173247512Y-106453827D01*
X173247502Y-106453818D01*
X173021590Y-106304356D01*
X172776324Y-106189380D01*
X172618892Y-106142015D01*
X172516925Y-106111338D01*
X172248942Y-106071900D01*
X172248939Y-106071900D01*
X172045869Y-106071900D01*
X172045867Y-106071900D01*
X171843339Y-106086723D01*
X171843338Y-106086723D01*
X171578956Y-106145617D01*
X171578941Y-106145622D01*
X171325941Y-106242386D01*
X171089729Y-106374955D01*
X171089725Y-106374957D01*
X170961478Y-106473986D01*
X170885943Y-106532312D01*
X170875318Y-106540516D01*
X170687315Y-106735517D01*
X170687310Y-106735523D01*
X170529703Y-106955817D01*
X170529696Y-106955827D01*
X170405843Y-107196724D01*
X170405842Y-107196727D01*
X170318383Y-107453089D01*
X170318380Y-107453102D01*
X170269181Y-107719458D01*
X170269180Y-107719469D01*
X170259288Y-107990165D01*
X158179432Y-107990165D01*
X158375162Y-107856718D01*
X158375167Y-107856714D01*
X158568317Y-107677497D01*
X158732603Y-107471490D01*
X158864346Y-107243304D01*
X158864348Y-107243300D01*
X158960606Y-106998036D01*
X158960607Y-106998034D01*
X159019239Y-106741153D01*
X159034000Y-106544191D01*
X159034000Y-106182400D01*
X158193437Y-106182400D01*
X158125316Y-106162398D01*
X158078823Y-106108742D01*
X158068229Y-106042292D01*
X158070488Y-106022245D01*
X158081062Y-105928400D01*
X158068229Y-105814507D01*
X158080478Y-105744576D01*
X158128591Y-105692368D01*
X158193437Y-105674400D01*
X159034000Y-105674400D01*
X159034000Y-105312609D01*
X159019239Y-105115646D01*
X158960607Y-104858765D01*
X158960606Y-104858763D01*
X158864348Y-104613499D01*
X158864346Y-104613495D01*
X158732603Y-104385309D01*
X158568317Y-104179302D01*
X158375167Y-104000085D01*
X158375162Y-104000081D01*
X158157474Y-103851663D01*
X158157467Y-103851659D01*
X157920076Y-103737337D01*
X157668291Y-103659670D01*
X157530000Y-103638826D01*
X157530000Y-105010963D01*
X157509998Y-105079084D01*
X157456342Y-105125577D01*
X157389892Y-105136170D01*
X157320926Y-105128400D01*
X157231074Y-105128400D01*
X157162107Y-105136170D01*
X157092176Y-105123922D01*
X157039968Y-105075810D01*
X157022000Y-105010963D01*
X157022000Y-103638826D01*
X156883708Y-103659670D01*
X156631923Y-103737337D01*
X156394532Y-103851659D01*
X156394525Y-103851663D01*
X156176837Y-104000081D01*
X156176832Y-104000085D01*
X155983682Y-104179302D01*
X155819396Y-104385309D01*
X155687653Y-104613495D01*
X155687651Y-104613499D01*
X155591393Y-104858763D01*
X155591392Y-104858765D01*
X155532760Y-105115646D01*
X155518000Y-105312609D01*
X155518000Y-105674400D01*
X156358563Y-105674400D01*
X156426684Y-105694402D01*
X156473177Y-105748058D01*
X156483771Y-105814508D01*
X156470938Y-105928399D01*
X156483771Y-106042292D01*
X156471522Y-106112224D01*
X156423409Y-106164432D01*
X156358563Y-106182400D01*
X155518000Y-106182400D01*
X155518000Y-106544191D01*
X153696500Y-106544191D01*
X153696499Y-105541456D01*
X153716501Y-105473336D01*
X153733399Y-105452367D01*
X156838689Y-102347077D01*
X172383000Y-102347077D01*
X172397533Y-102420139D01*
X172397534Y-102420140D01*
X172452899Y-102503001D01*
X172535760Y-102558366D01*
X172608826Y-102572900D01*
X174158174Y-102572900D01*
X174231240Y-102558366D01*
X174314101Y-102503001D01*
X174369466Y-102420140D01*
X174384000Y-102347074D01*
X174384000Y-100797726D01*
X174369466Y-100724660D01*
X174314101Y-100641799D01*
X174231240Y-100586434D01*
X174231239Y-100586433D01*
X174158177Y-100571900D01*
X174158174Y-100571900D01*
X172608826Y-100571900D01*
X172608822Y-100571900D01*
X172535760Y-100586433D01*
X172452899Y-100641799D01*
X172397533Y-100724660D01*
X172383000Y-100797722D01*
X172383000Y-102347077D01*
X156838689Y-102347077D01*
X158619962Y-100565804D01*
X158682274Y-100531779D01*
X158709057Y-100528900D01*
X161602148Y-100528900D01*
X161620407Y-100530230D01*
X161625909Y-100531035D01*
X161644023Y-100533689D01*
X161678467Y-100530675D01*
X161696027Y-100529140D01*
X161701520Y-100528900D01*
X161709710Y-100528900D01*
X161742275Y-100525093D01*
X161818797Y-100518399D01*
X161818800Y-100518397D01*
X161825983Y-100516915D01*
X161825999Y-100516992D01*
X161833131Y-100515411D01*
X161833113Y-100515334D01*
X161840251Y-100513641D01*
X161840255Y-100513641D01*
X161912423Y-100487374D01*
X161985334Y-100463214D01*
X161985341Y-100463209D01*
X161991984Y-100460113D01*
X161992017Y-100460184D01*
X161998590Y-100457002D01*
X161998556Y-100456933D01*
X162005110Y-100453641D01*
X162005114Y-100453637D01*
X162005117Y-100453637D01*
X162029275Y-100437747D01*
X162069283Y-100411435D01*
X162101969Y-100391272D01*
X162134656Y-100371112D01*
X162134660Y-100371107D01*
X162140420Y-100366555D01*
X162140469Y-100366617D01*
X162146120Y-100362014D01*
X162146068Y-100361952D01*
X162151687Y-100357235D01*
X162151696Y-100357230D01*
X162204385Y-100301382D01*
X166491539Y-96014227D01*
X166505378Y-96002267D01*
X166524530Y-95988010D01*
X166558088Y-95948015D01*
X166561787Y-95943979D01*
X166567591Y-95938177D01*
X166587940Y-95912440D01*
X166637302Y-95853614D01*
X166637303Y-95853611D01*
X166641335Y-95847483D01*
X166641401Y-95847527D01*
X166645324Y-95841370D01*
X166645256Y-95841328D01*
X166649107Y-95835084D01*
X166649109Y-95835079D01*
X166649111Y-95835077D01*
X166681575Y-95765457D01*
X166716040Y-95696833D01*
X166716040Y-95696832D01*
X166716041Y-95696831D01*
X166718551Y-95689935D01*
X166718627Y-95689962D01*
X166721024Y-95683064D01*
X166720948Y-95683039D01*
X166723253Y-95676080D01*
X166723257Y-95676073D01*
X166738792Y-95600834D01*
X166756500Y-95526121D01*
X166756500Y-95526114D01*
X166757352Y-95518833D01*
X166757430Y-95518842D01*
X166758172Y-95511576D01*
X166758094Y-95511570D01*
X166758732Y-95504263D01*
X166758734Y-95504256D01*
X166756500Y-95427482D01*
X166756500Y-83412251D01*
X166757830Y-83393992D01*
X166758305Y-83390742D01*
X166761289Y-83370377D01*
X166758271Y-83335879D01*
X166772261Y-83266275D01*
X166821661Y-83215283D01*
X166883792Y-83198900D01*
X171675833Y-83198900D01*
X171743954Y-83218902D01*
X171790447Y-83272558D01*
X171800551Y-83342832D01*
X171792242Y-83373117D01*
X171750170Y-83474690D01*
X171731250Y-83618399D01*
X171731250Y-83618400D01*
X171750170Y-83762109D01*
X171805636Y-83896021D01*
X171805638Y-83896024D01*
X171805639Y-83896025D01*
X171859962Y-83966820D01*
X171885563Y-84033038D01*
X171886000Y-84043523D01*
X171886000Y-84355673D01*
X171865998Y-84423794D01*
X171812342Y-84470287D01*
X171743554Y-84480595D01*
X171687002Y-84473150D01*
X171687000Y-84473150D01*
X171543290Y-84492070D01*
X171409375Y-84547537D01*
X171294378Y-84635778D01*
X171206137Y-84750775D01*
X171150670Y-84884690D01*
X171134835Y-85004971D01*
X171131750Y-85028400D01*
X171134961Y-85052800D01*
X171135500Y-85061018D01*
X171135500Y-85120974D01*
X171133276Y-85180411D01*
X171134333Y-85189790D01*
X171133470Y-85189887D01*
X171135500Y-85205296D01*
X171135500Y-89078436D01*
X171115498Y-89146557D01*
X171109463Y-89155139D01*
X171105142Y-89160769D01*
X171105136Y-89160779D01*
X171049670Y-89294690D01*
X171030750Y-89438399D01*
X171030750Y-89438400D01*
X171049670Y-89582109D01*
X171105137Y-89716024D01*
X171193378Y-89831021D01*
X171308375Y-89919262D01*
X171392821Y-89954239D01*
X171442291Y-89974730D01*
X171586000Y-89993650D01*
X171729709Y-89974730D01*
X171729709Y-89974729D01*
X171737896Y-89973652D01*
X171738153Y-89975608D01*
X171798361Y-89977040D01*
X171857158Y-90016832D01*
X171885108Y-90082095D01*
X171886000Y-90097058D01*
X171886000Y-96728834D01*
X171892798Y-96749758D01*
X171897412Y-96768977D01*
X171900853Y-96790700D01*
X171900855Y-96790706D01*
X171910841Y-96810306D01*
X171918406Y-96828569D01*
X171925203Y-96849489D01*
X171925204Y-96849491D01*
X171938131Y-96867283D01*
X171948460Y-96884138D01*
X171958448Y-96903740D01*
X171958449Y-96903741D01*
X171958450Y-96903742D01*
X171979442Y-96924734D01*
X171979469Y-96924763D01*
X173666091Y-98611384D01*
X173700116Y-98673696D01*
X173697571Y-98737053D01*
X173667474Y-98836272D01*
X173648159Y-99032396D01*
X173648159Y-99032403D01*
X173667474Y-99228524D01*
X173667474Y-99228526D01*
X173724686Y-99417128D01*
X173800184Y-99558374D01*
X173817590Y-99590938D01*
X173942617Y-99743283D01*
X174094962Y-99868310D01*
X174268773Y-99961214D01*
X174457368Y-100018424D01*
X174457372Y-100018424D01*
X174457374Y-100018425D01*
X174653497Y-100037741D01*
X174653500Y-100037741D01*
X174653503Y-100037741D01*
X174849624Y-100018425D01*
X174849626Y-100018425D01*
X174849627Y-100018424D01*
X174849632Y-100018424D01*
X175038227Y-99961214D01*
X175212038Y-99868310D01*
X175317066Y-99782114D01*
X175382413Y-99754361D01*
X175452391Y-99766343D01*
X175504783Y-99814255D01*
X175523000Y-99879514D01*
X175523000Y-100576494D01*
X175502998Y-100644615D01*
X175456397Y-100687616D01*
X175364961Y-100736490D01*
X175212617Y-100861517D01*
X175087590Y-101013861D01*
X174994686Y-101187671D01*
X174937474Y-101376273D01*
X174937474Y-101376275D01*
X174918159Y-101572396D01*
X174918159Y-101572403D01*
X174937474Y-101768524D01*
X174937474Y-101768526D01*
X174994686Y-101957128D01*
X175087590Y-102130938D01*
X175212617Y-102283283D01*
X175364962Y-102408310D01*
X175538773Y-102501214D01*
X175727368Y-102558424D01*
X175727372Y-102558424D01*
X175727374Y-102558425D01*
X175923497Y-102577741D01*
X175923500Y-102577741D01*
X175923503Y-102577741D01*
X176098048Y-102560550D01*
X176167801Y-102573779D01*
X176219329Y-102622619D01*
X176236273Y-102691564D01*
X176213251Y-102758725D01*
X176199493Y-102775038D01*
X175093537Y-103880995D01*
X175031225Y-103915020D01*
X175004442Y-103917900D01*
X163679852Y-103917900D01*
X163661593Y-103916570D01*
X163637978Y-103913111D01*
X163637977Y-103913111D01*
X163631625Y-103913666D01*
X163585975Y-103917660D01*
X163580482Y-103917900D01*
X163572286Y-103917900D01*
X163539705Y-103921708D01*
X163463209Y-103928400D01*
X163456022Y-103929885D01*
X163456006Y-103929808D01*
X163448863Y-103931391D01*
X163448882Y-103931468D01*
X163441741Y-103933160D01*
X163369563Y-103959430D01*
X163296667Y-103983585D01*
X163290014Y-103986687D01*
X163289981Y-103986617D01*
X163283401Y-103989803D01*
X163283436Y-103989872D01*
X163276883Y-103993163D01*
X163212714Y-104035366D01*
X163187922Y-104050657D01*
X163119442Y-104069393D01*
X163061808Y-104054229D01*
X163026950Y-104035365D01*
X162960810Y-103999572D01*
X162960808Y-103999571D01*
X162960807Y-103999570D01*
X162725618Y-103918830D01*
X162725609Y-103918828D01*
X162676836Y-103910689D01*
X162480335Y-103877900D01*
X162231665Y-103877900D01*
X162067953Y-103905218D01*
X161986390Y-103918828D01*
X161986381Y-103918830D01*
X161751192Y-103999570D01*
X161751190Y-103999571D01*
X161532491Y-104117925D01*
X161532490Y-104117926D01*
X161336249Y-104270667D01*
X161167835Y-104453614D01*
X161031826Y-104661793D01*
X160931938Y-104889515D01*
X160931935Y-104889522D01*
X160870893Y-105130571D01*
X160870892Y-105130577D01*
X160870892Y-105130579D01*
X160861356Y-105245656D01*
X160855500Y-105316331D01*
X160855500Y-106540469D01*
X160856514Y-106552703D01*
X160869819Y-106713277D01*
X160870893Y-106726228D01*
X160931935Y-106967277D01*
X160931938Y-106967284D01*
X161031826Y-107195006D01*
X161167835Y-107403185D01*
X161336249Y-107586132D01*
X161336254Y-107586136D01*
X161336256Y-107586138D01*
X161532490Y-107738873D01*
X161532491Y-107738874D01*
X161751190Y-107857228D01*
X161751192Y-107857229D01*
X161874677Y-107899621D01*
X161986386Y-107937971D01*
X162231665Y-107978900D01*
X162231669Y-107978900D01*
X162480331Y-107978900D01*
X162480335Y-107978900D01*
X162725614Y-107937971D01*
X162960810Y-107857228D01*
X163179509Y-107738874D01*
X163375744Y-107586138D01*
X163376438Y-107585385D01*
X163544164Y-107403185D01*
X163606186Y-107308253D01*
X163680173Y-107195007D01*
X163780063Y-106967281D01*
X163841108Y-106726221D01*
X163855486Y-106552703D01*
X163856500Y-106540469D01*
X163856500Y-105544900D01*
X163876502Y-105476779D01*
X163930158Y-105430286D01*
X163982500Y-105418900D01*
X175303648Y-105418900D01*
X175321907Y-105420230D01*
X175327409Y-105421035D01*
X175345523Y-105423689D01*
X175379967Y-105420675D01*
X175397527Y-105419140D01*
X175403020Y-105418900D01*
X175411210Y-105418900D01*
X175443775Y-105415093D01*
X175443774Y-105415092D01*
X175520297Y-105408399D01*
X175520300Y-105408397D01*
X175527483Y-105406915D01*
X175527499Y-105406992D01*
X175534631Y-105405411D01*
X175534613Y-105405334D01*
X175541751Y-105403641D01*
X175541755Y-105403641D01*
X175613923Y-105377374D01*
X175686834Y-105353214D01*
X175686841Y-105353209D01*
X175693484Y-105350113D01*
X175693517Y-105350184D01*
X175700090Y-105347002D01*
X175700056Y-105346933D01*
X175706610Y-105343641D01*
X175706614Y-105343637D01*
X175706617Y-105343637D01*
X175730775Y-105327747D01*
X175770783Y-105301435D01*
X175819142Y-105271606D01*
X175836156Y-105261112D01*
X175836160Y-105261107D01*
X175841920Y-105256555D01*
X175841969Y-105256617D01*
X175847620Y-105252014D01*
X175847568Y-105251952D01*
X175853187Y-105247235D01*
X175853196Y-105247230D01*
X175905886Y-105191381D01*
X178374404Y-102722861D01*
X178436716Y-102688837D01*
X178507531Y-102693901D01*
X178552594Y-102722862D01*
X180843661Y-105013928D01*
X180855633Y-105027780D01*
X180869890Y-105046930D01*
X180909892Y-105080495D01*
X180913911Y-105084178D01*
X180919723Y-105089990D01*
X180919727Y-105089993D01*
X180919729Y-105089995D01*
X180945444Y-105110327D01*
X181004284Y-105159701D01*
X181010423Y-105163739D01*
X181010380Y-105163804D01*
X181016534Y-105167724D01*
X181016576Y-105167658D01*
X181022825Y-105171512D01*
X181092430Y-105203969D01*
X181161064Y-105238439D01*
X181167961Y-105240949D01*
X181167933Y-105241023D01*
X181174839Y-105243423D01*
X181174865Y-105243348D01*
X181181817Y-105245651D01*
X181181827Y-105245656D01*
X181257032Y-105261184D01*
X181331779Y-105278900D01*
X181331785Y-105278900D01*
X181339067Y-105279752D01*
X181339057Y-105279829D01*
X181346325Y-105280572D01*
X181346332Y-105280493D01*
X181353635Y-105281131D01*
X181353644Y-105281133D01*
X181430398Y-105278900D01*
X193032323Y-105278900D01*
X193035987Y-105279007D01*
X193099931Y-105282731D01*
X193099931Y-105282730D01*
X193099935Y-105282731D01*
X193163053Y-105271600D01*
X193166633Y-105271076D01*
X193230255Y-105263641D01*
X193240627Y-105259865D01*
X193261843Y-105254181D01*
X193263832Y-105253830D01*
X193272711Y-105252265D01*
X193331542Y-105226887D01*
X193334898Y-105225553D01*
X193395117Y-105203637D01*
X193404342Y-105197569D01*
X193423672Y-105187146D01*
X193433804Y-105182777D01*
X193485188Y-105144521D01*
X193488173Y-105142431D01*
X193541696Y-105107230D01*
X193549270Y-105099201D01*
X193565679Y-105084599D01*
X193574530Y-105078010D01*
X193615716Y-105028924D01*
X193618126Y-105026218D01*
X193662092Y-104979618D01*
X193667613Y-104970054D01*
X193680212Y-104952063D01*
X193687300Y-104943616D01*
X193687299Y-104943616D01*
X193687302Y-104943614D01*
X193714467Y-104889522D01*
X193716048Y-104886375D01*
X193717788Y-104883148D01*
X193731866Y-104858763D01*
X193749812Y-104827681D01*
X193752978Y-104817102D01*
X193761083Y-104796702D01*
X193766040Y-104786833D01*
X193780814Y-104724492D01*
X193781749Y-104721001D01*
X193800130Y-104659610D01*
X193800771Y-104648596D01*
X193803955Y-104626853D01*
X193806500Y-104616121D01*
X193806500Y-104552075D01*
X193806607Y-104548412D01*
X193810331Y-104484465D01*
X193810330Y-104484460D01*
X193808414Y-104473591D01*
X193806500Y-104451714D01*
X193806500Y-89854752D01*
X193807830Y-89836492D01*
X193808631Y-89831021D01*
X193811289Y-89812877D01*
X193808880Y-89785349D01*
X193806740Y-89760870D01*
X193806500Y-89755378D01*
X193806500Y-89747189D01*
X193802693Y-89714624D01*
X193802693Y-89714623D01*
X193795999Y-89638103D01*
X193795998Y-89638100D01*
X193795998Y-89638098D01*
X193794515Y-89630915D01*
X193794591Y-89630899D01*
X193793011Y-89623769D01*
X193792934Y-89623788D01*
X193791242Y-89616650D01*
X193791241Y-89616648D01*
X193791241Y-89616645D01*
X193764974Y-89544476D01*
X193740814Y-89471566D01*
X193737716Y-89464923D01*
X193737787Y-89464889D01*
X193734597Y-89458300D01*
X193734527Y-89458336D01*
X193731233Y-89451776D01*
X193689034Y-89387616D01*
X193648712Y-89322244D01*
X193648708Y-89322240D01*
X193644159Y-89316486D01*
X193644220Y-89316437D01*
X193639604Y-89310771D01*
X193639544Y-89310822D01*
X193634827Y-89305200D01*
X193578983Y-89252515D01*
X193404904Y-89078436D01*
X193027165Y-88700697D01*
X192993142Y-88638387D01*
X192990262Y-88611358D01*
X192994819Y-86276786D01*
X193005844Y-80627961D01*
X193025979Y-80559883D01*
X193077903Y-80514340D01*
X193196000Y-80458400D01*
X193195998Y-80458400D01*
X192030894Y-80459606D01*
X191962753Y-80439674D01*
X191941669Y-80422701D01*
X190601834Y-79082866D01*
X190589863Y-79069015D01*
X190575610Y-79049870D01*
X190567601Y-79043150D01*
X190535614Y-79016309D01*
X190531593Y-79012625D01*
X190525777Y-79006809D01*
X190500040Y-78986459D01*
X190482735Y-78971938D01*
X190441216Y-78937099D01*
X190435084Y-78933066D01*
X190435127Y-78933000D01*
X190428961Y-78929072D01*
X190428920Y-78929139D01*
X190422682Y-78925291D01*
X190353057Y-78892824D01*
X190284435Y-78858361D01*
X190284434Y-78858360D01*
X190284433Y-78858360D01*
X190284430Y-78858359D01*
X190277541Y-78855852D01*
X190277567Y-78855778D01*
X190270656Y-78853375D01*
X190270632Y-78853450D01*
X190263675Y-78851144D01*
X190263673Y-78851143D01*
X190263670Y-78851142D01*
X190263666Y-78851141D01*
X190188434Y-78835607D01*
X190113719Y-78817899D01*
X190106431Y-78817048D01*
X190106440Y-78816969D01*
X190099176Y-78816227D01*
X190099170Y-78816306D01*
X190091857Y-78815666D01*
X190091856Y-78815666D01*
X190015083Y-78817900D01*
X188057083Y-78817900D01*
X187988962Y-78797898D01*
X187942469Y-78744242D01*
X187932365Y-78673968D01*
X187961859Y-78609388D01*
X187963079Y-78608077D01*
X192930500Y-78608077D01*
X192945033Y-78681139D01*
X192945034Y-78681140D01*
X193000399Y-78764001D01*
X193083260Y-78819366D01*
X193156326Y-78833900D01*
X194055674Y-78833900D01*
X194128740Y-78819366D01*
X194211601Y-78764001D01*
X194266966Y-78681140D01*
X194281500Y-78608074D01*
X194281500Y-77708726D01*
X194266966Y-77635660D01*
X194211601Y-77552799D01*
X194128740Y-77497434D01*
X194128739Y-77497433D01*
X194055677Y-77482900D01*
X194055674Y-77482900D01*
X193156326Y-77482900D01*
X193156322Y-77482900D01*
X193083260Y-77497433D01*
X193000399Y-77552799D01*
X192945033Y-77635660D01*
X192930500Y-77708722D01*
X192930500Y-78608077D01*
X187963079Y-78608077D01*
X187967976Y-78602816D01*
X188739990Y-77830801D01*
X188802299Y-77796779D01*
X188829072Y-77793899D01*
X190083872Y-77793899D01*
X190143483Y-77787491D01*
X190275905Y-77738101D01*
X190278326Y-77737198D01*
X190278326Y-77737197D01*
X190278331Y-77737196D01*
X190393546Y-77650946D01*
X190479796Y-77535731D01*
X190484276Y-77523721D01*
X190509310Y-77456599D01*
X190530091Y-77400883D01*
X190536500Y-77341273D01*
X190536499Y-75795528D01*
X190530091Y-75735917D01*
X190500382Y-75656263D01*
X190479798Y-75601073D01*
X190479796Y-75601070D01*
X190479796Y-75601069D01*
X190404401Y-75500354D01*
X190393546Y-75485853D01*
X190305973Y-75420297D01*
X190278331Y-75399604D01*
X190278329Y-75399603D01*
X190278326Y-75399601D01*
X190143483Y-75349309D01*
X190143486Y-75349309D01*
X190083873Y-75342900D01*
X188788135Y-75342900D01*
X188788114Y-75342902D01*
X188728519Y-75349308D01*
X188728518Y-75349308D01*
X188593673Y-75399601D01*
X188593670Y-75399603D01*
X188478453Y-75485853D01*
X188392203Y-75601070D01*
X188392201Y-75601073D01*
X188341909Y-75735915D01*
X188335500Y-75795521D01*
X188335500Y-77050316D01*
X188315498Y-77118437D01*
X188298599Y-77139407D01*
X188210158Y-77227848D01*
X188139752Y-77298254D01*
X188077440Y-77332279D01*
X188006624Y-77327214D01*
X187949789Y-77284667D01*
X187924978Y-77218146D01*
X187933683Y-77162329D01*
X187958545Y-77100227D01*
X187996725Y-77004857D01*
X188036500Y-76798485D01*
X188036500Y-76390975D01*
X188021528Y-76234182D01*
X187962316Y-76032525D01*
X187962313Y-76032520D01*
X187962312Y-76032516D01*
X187866013Y-75845721D01*
X187866011Y-75845718D01*
X187826530Y-75795514D01*
X187736092Y-75680514D01*
X187736088Y-75680510D01*
X187736085Y-75680507D01*
X187577261Y-75542885D01*
X187577253Y-75542879D01*
X187395244Y-75437796D01*
X187395239Y-75437793D01*
X187196640Y-75369058D01*
X187196634Y-75369056D01*
X187196633Y-75369056D01*
X187196631Y-75369055D01*
X187196625Y-75369054D01*
X186988603Y-75339145D01*
X186778680Y-75349144D01*
X186778667Y-75349146D01*
X186574427Y-75398695D01*
X186574416Y-75398698D01*
X186383251Y-75486002D01*
X186383247Y-75486004D01*
X186212048Y-75607914D01*
X186212044Y-75607917D01*
X186067014Y-75760021D01*
X185953387Y-75936827D01*
X185875274Y-76131945D01*
X185835500Y-76338310D01*
X185835500Y-76745823D01*
X185835501Y-76745844D01*
X185850470Y-76902607D01*
X185850473Y-76902622D01*
X185909683Y-77104272D01*
X185909687Y-77104283D01*
X186005986Y-77291078D01*
X186005988Y-77291081D01*
X186005989Y-77291082D01*
X186135908Y-77456286D01*
X186135911Y-77456288D01*
X186135914Y-77456292D01*
X186294738Y-77593914D01*
X186294744Y-77593919D01*
X186476756Y-77699004D01*
X186476757Y-77699004D01*
X186476760Y-77699006D01*
X186621140Y-77748975D01*
X186675367Y-77767744D01*
X186675374Y-77767745D01*
X186883396Y-77797654D01*
X186883397Y-77797653D01*
X186883398Y-77797654D01*
X186927904Y-77795534D01*
X187093319Y-77787655D01*
X187093323Y-77787654D01*
X187093330Y-77787654D01*
X187297576Y-77738104D01*
X187402822Y-77690039D01*
X187473092Y-77679935D01*
X187537673Y-77709428D01*
X187576058Y-77769153D01*
X187576059Y-77840150D01*
X187544258Y-77893748D01*
X187445501Y-77992506D01*
X187256510Y-78181496D01*
X187194201Y-78215520D01*
X187167417Y-78218400D01*
X183051124Y-78218400D01*
X182983003Y-78198398D01*
X182974420Y-78192362D01*
X182903624Y-78138037D01*
X182769709Y-78082570D01*
X182626000Y-78063650D01*
X182482290Y-78082570D01*
X182348375Y-78138037D01*
X182233378Y-78226278D01*
X182145137Y-78341275D01*
X182098161Y-78454691D01*
X182089670Y-78475191D01*
X182070750Y-78618900D01*
X182078195Y-78675454D01*
X182067257Y-78745601D01*
X182020130Y-78798700D01*
X181953274Y-78817900D01*
X181532500Y-78817900D01*
X181464379Y-78797898D01*
X181417886Y-78744242D01*
X181406500Y-78691900D01*
X181406500Y-77852252D01*
X181407809Y-77834138D01*
X181407895Y-77833546D01*
X181437482Y-77769008D01*
X181497264Y-77730712D01*
X181568261Y-77730816D01*
X181573787Y-77732586D01*
X181675367Y-77767744D01*
X181675374Y-77767745D01*
X181883396Y-77797654D01*
X181883397Y-77797653D01*
X181883398Y-77797654D01*
X181927904Y-77795534D01*
X182093319Y-77787655D01*
X182093323Y-77787654D01*
X182093330Y-77787654D01*
X182297576Y-77738104D01*
X182298470Y-77737696D01*
X182322999Y-77726493D01*
X182488753Y-77650796D01*
X182659952Y-77528886D01*
X182804986Y-77376778D01*
X182918613Y-77199972D01*
X182996725Y-77004857D01*
X183036500Y-76798485D01*
X183036500Y-76745823D01*
X183335500Y-76745823D01*
X183335501Y-76745844D01*
X183350470Y-76902607D01*
X183350473Y-76902622D01*
X183409683Y-77104272D01*
X183409687Y-77104283D01*
X183505986Y-77291078D01*
X183505988Y-77291081D01*
X183505989Y-77291082D01*
X183635908Y-77456286D01*
X183635911Y-77456288D01*
X183635914Y-77456292D01*
X183794738Y-77593914D01*
X183794744Y-77593919D01*
X183976756Y-77699004D01*
X183976757Y-77699004D01*
X183976760Y-77699006D01*
X184121140Y-77748975D01*
X184175367Y-77767744D01*
X184175374Y-77767745D01*
X184383396Y-77797654D01*
X184383397Y-77797653D01*
X184383398Y-77797654D01*
X184427904Y-77795534D01*
X184593319Y-77787655D01*
X184593323Y-77787654D01*
X184593330Y-77787654D01*
X184797576Y-77738104D01*
X184798470Y-77737696D01*
X184822999Y-77726493D01*
X184988753Y-77650796D01*
X185159952Y-77528886D01*
X185304986Y-77376778D01*
X185418613Y-77199972D01*
X185496725Y-77004857D01*
X185536500Y-76798485D01*
X185536500Y-76390975D01*
X185521528Y-76234182D01*
X185462316Y-76032525D01*
X185462313Y-76032520D01*
X185462312Y-76032516D01*
X185366013Y-75845721D01*
X185366011Y-75845718D01*
X185326530Y-75795514D01*
X185236092Y-75680514D01*
X185236088Y-75680510D01*
X185236085Y-75680507D01*
X185077261Y-75542885D01*
X185077253Y-75542879D01*
X184895244Y-75437796D01*
X184895239Y-75437793D01*
X184696640Y-75369058D01*
X184696634Y-75369056D01*
X184696633Y-75369056D01*
X184696631Y-75369055D01*
X184696625Y-75369054D01*
X184488603Y-75339145D01*
X184278680Y-75349144D01*
X184278667Y-75349146D01*
X184074427Y-75398695D01*
X184074416Y-75398698D01*
X183883251Y-75486002D01*
X183883247Y-75486004D01*
X183712048Y-75607914D01*
X183712044Y-75607917D01*
X183567014Y-75760021D01*
X183453387Y-75936827D01*
X183375274Y-76131945D01*
X183335500Y-76338310D01*
X183335500Y-76745823D01*
X183036500Y-76745823D01*
X183036500Y-76390975D01*
X183021528Y-76234182D01*
X182962316Y-76032525D01*
X182962313Y-76032520D01*
X182962312Y-76032516D01*
X182866013Y-75845721D01*
X182866011Y-75845718D01*
X182826530Y-75795514D01*
X182736092Y-75680514D01*
X182736088Y-75680510D01*
X182736085Y-75680507D01*
X182577261Y-75542885D01*
X182577253Y-75542879D01*
X182395244Y-75437796D01*
X182395239Y-75437793D01*
X182196640Y-75369058D01*
X182196634Y-75369056D01*
X182196633Y-75369056D01*
X182196631Y-75369055D01*
X182196625Y-75369054D01*
X181988603Y-75339145D01*
X181778680Y-75349144D01*
X181778667Y-75349146D01*
X181574427Y-75398695D01*
X181574416Y-75398698D01*
X181383251Y-75486002D01*
X181383247Y-75486004D01*
X181212048Y-75607914D01*
X181212044Y-75607917D01*
X181067014Y-75760021D01*
X180953387Y-75936827D01*
X180875274Y-76131945D01*
X180835500Y-76338310D01*
X180835500Y-76602341D01*
X180815498Y-76670462D01*
X180761842Y-76716955D01*
X180691568Y-76727059D01*
X180626988Y-76697565D01*
X180620405Y-76691436D01*
X180573405Y-76644436D01*
X180539379Y-76582124D01*
X180536500Y-76555341D01*
X180536500Y-76390976D01*
X180536498Y-76390955D01*
X180521529Y-76234192D01*
X180521528Y-76234191D01*
X180521528Y-76234182D01*
X180462316Y-76032525D01*
X180462313Y-76032520D01*
X180462312Y-76032516D01*
X180366013Y-75845721D01*
X180366011Y-75845718D01*
X180326530Y-75795514D01*
X180236092Y-75680514D01*
X180236088Y-75680510D01*
X180236085Y-75680507D01*
X180077261Y-75542885D01*
X180077253Y-75542879D01*
X179895244Y-75437796D01*
X179895239Y-75437793D01*
X179696640Y-75369058D01*
X179696634Y-75369056D01*
X179696633Y-75369056D01*
X179696631Y-75369055D01*
X179696625Y-75369054D01*
X179488603Y-75339145D01*
X179333812Y-75346518D01*
X179264817Y-75329780D01*
X179238723Y-75309756D01*
X178199894Y-74270927D01*
X177151834Y-73222866D01*
X177139863Y-73209015D01*
X177125610Y-73189870D01*
X177122855Y-73187558D01*
X177085614Y-73156309D01*
X177081593Y-73152625D01*
X177075777Y-73146809D01*
X177050040Y-73126459D01*
X177037201Y-73115686D01*
X176991216Y-73077099D01*
X176985084Y-73073066D01*
X176985127Y-73073000D01*
X176978961Y-73069072D01*
X176978920Y-73069139D01*
X176972682Y-73065291D01*
X176903057Y-73032824D01*
X176834435Y-72998361D01*
X176834434Y-72998360D01*
X176834433Y-72998360D01*
X176834430Y-72998359D01*
X176827541Y-72995852D01*
X176827567Y-72995778D01*
X176820656Y-72993375D01*
X176820632Y-72993450D01*
X176813675Y-72991144D01*
X176813673Y-72991143D01*
X176813670Y-72991142D01*
X176813666Y-72991141D01*
X176738434Y-72975607D01*
X176663719Y-72957899D01*
X176656431Y-72957048D01*
X176656440Y-72956969D01*
X176649176Y-72956227D01*
X176649170Y-72956306D01*
X176641857Y-72955666D01*
X176641856Y-72955666D01*
X176565083Y-72957900D01*
X149526891Y-72957900D01*
X149508632Y-72956570D01*
X149485016Y-72953111D01*
X149433012Y-72957660D01*
X149427519Y-72957900D01*
X149419326Y-72957900D01*
X149386763Y-72961706D01*
X149310248Y-72968400D01*
X149310244Y-72968400D01*
X149310242Y-72968401D01*
X149310240Y-72968401D01*
X149303055Y-72969885D01*
X149303039Y-72969809D01*
X149295897Y-72971393D01*
X149295915Y-72971469D01*
X149288782Y-72973159D01*
X149240671Y-72990669D01*
X149216615Y-72999425D01*
X149167017Y-73015861D01*
X149143699Y-73023588D01*
X149137056Y-73026686D01*
X149137023Y-73026616D01*
X149130441Y-73029803D01*
X149130476Y-73029871D01*
X149123923Y-73033161D01*
X149059747Y-73075371D01*
X148994385Y-73115686D01*
X148988632Y-73120236D01*
X148988583Y-73120175D01*
X148982916Y-73124791D01*
X148982966Y-73124851D01*
X148977345Y-73129567D01*
X148924636Y-73185435D01*
X147385558Y-74724511D01*
X147323246Y-74758537D01*
X147252430Y-74753472D01*
X147195595Y-74710925D01*
X147170894Y-74645824D01*
X147151843Y-74415907D01*
X147090798Y-74174847D01*
X146990908Y-73947121D01*
X146950151Y-73884738D01*
X146854899Y-73738942D01*
X146686485Y-73555995D01*
X146490244Y-73403254D01*
X146490243Y-73403253D01*
X146271544Y-73284899D01*
X146271542Y-73284898D01*
X146036353Y-73204158D01*
X146036344Y-73204156D01*
X145987571Y-73196017D01*
X145791070Y-73163228D01*
X145542400Y-73163228D01*
X145382740Y-73189870D01*
X145297125Y-73204156D01*
X145297116Y-73204158D01*
X145061927Y-73284898D01*
X145061925Y-73284899D01*
X144843226Y-73403253D01*
X144843225Y-73403254D01*
X144646984Y-73555995D01*
X144478570Y-73738942D01*
X144342561Y-73947121D01*
X144242673Y-74174843D01*
X144242670Y-74174850D01*
X144181628Y-74415899D01*
X144181627Y-74415905D01*
X144181627Y-74415907D01*
X144161092Y-74663728D01*
X144172183Y-74797581D01*
X144181628Y-74911556D01*
X144242670Y-75152605D01*
X144242673Y-75152612D01*
X144342561Y-75380334D01*
X144478570Y-75588513D01*
X144646984Y-75771460D01*
X144646989Y-75771464D01*
X144646991Y-75771466D01*
X144843225Y-75924201D01*
X144843226Y-75924202D01*
X145061925Y-76042556D01*
X145061927Y-76042557D01*
X145185412Y-76084949D01*
X145297121Y-76123299D01*
X145542400Y-76164228D01*
X145542404Y-76164228D01*
X145641653Y-76164228D01*
X145709774Y-76184230D01*
X145756267Y-76237886D01*
X145766371Y-76308160D01*
X145736877Y-76372740D01*
X145730748Y-76379323D01*
X140570464Y-81539605D01*
X140556615Y-81551574D01*
X140537476Y-81565823D01*
X140537467Y-81565831D01*
X140523174Y-81582865D01*
X140512261Y-81593171D01*
X140512809Y-81593752D01*
X140507469Y-81598790D01*
X140473922Y-81638769D01*
X140470215Y-81642814D01*
X140464414Y-81648616D01*
X140454626Y-81660995D01*
X140444059Y-81674359D01*
X140433776Y-81686614D01*
X140394697Y-81733187D01*
X140390664Y-81739319D01*
X140390600Y-81739277D01*
X140386676Y-81745437D01*
X140386741Y-81745477D01*
X140382888Y-81751723D01*
X140350424Y-81821342D01*
X140315960Y-81889965D01*
X140313450Y-81896863D01*
X140313377Y-81896836D01*
X140310978Y-81903736D01*
X140311051Y-81903760D01*
X140308743Y-81910723D01*
X140293207Y-81985965D01*
X140275499Y-82060681D01*
X140274648Y-82067969D01*
X140274569Y-82067959D01*
X140273827Y-82075226D01*
X140273906Y-82075233D01*
X140273266Y-82082544D01*
X140275500Y-82159316D01*
X140275500Y-85674547D01*
X140274170Y-85692806D01*
X140270711Y-85716419D01*
X140270711Y-85716425D01*
X134193475Y-85716425D01*
X134193475Y-73143076D01*
X134193779Y-73136895D01*
X134200833Y-73065291D01*
X134205703Y-73015857D01*
X134210522Y-72991637D01*
X134210672Y-72991143D01*
X134243128Y-72884157D01*
X134252572Y-72861356D01*
X134305526Y-72762291D01*
X134319239Y-72741770D01*
X134390495Y-72654945D01*
X134407956Y-72637486D01*
X134494771Y-72566239D01*
X134515302Y-72552519D01*
X134614359Y-72499572D01*
X134637162Y-72490126D01*
X134744649Y-72457519D01*
X134768859Y-72452703D01*
X134841483Y-72445548D01*
X134889982Y-72440771D01*
X134896162Y-72440467D01*
X194581739Y-72440467D01*
X194649860Y-72460469D01*
G37*
G04 #@! TD.AperFunction*
M02*
