%TF.GenerationSoftware,KiCad,Pcbnew,7.99.0-1900-g89780d353a*%
%TF.CreationDate,2023-08-02T11:36:21+03:00*%
%TF.ProjectId,RP2040_minimal,52503230-3430-45f6-9d69-6e696d616c2e,REV1*%
%TF.SameCoordinates,Original*%
%TF.FileFunction,Drillmap*%
%TF.FilePolarity,Positive*%
%FSLAX45Y45*%
G04 Gerber Fmt 4.5, Leading zero omitted, Abs format (unit mm)*
G04 Created by KiCad (PCBNEW 7.99.0-1900-g89780d353a) date 2023-08-02 11:36:21*
%MOMM*%
%LPD*%
G01*
G04 APERTURE LIST*
%ADD10C,0.150000*%
%ADD11C,0.200000*%
%ADD12C,0.035000*%
%ADD13C,0.050000*%
%ADD14C,0.076000*%
%ADD15C,0.095000*%
%ADD16C,0.129000*%
%ADD17C,0.132000*%
%ADD18C,0.160000*%
G04 APERTURE END LIST*
D10*
X19894050Y-11068750D02*
G75*
G03*
X19994050Y-10968749I0J100000D01*
G01*
X19994050Y-7646390D02*
X19994050Y-10968749D01*
X14686673Y-7466373D02*
G75*
G03*
X14686673Y-7466373I-120000J0D01*
G01*
X18936674Y-10816373D02*
G75*
G03*
X18936674Y-10816373I-120000J0D01*
G01*
X19561659Y-7214001D02*
G75*
G03*
X19994050Y-7646390I180011J-252379D01*
G01*
X13489297Y-7213997D02*
X19561656Y-7213997D01*
X13821694Y-11068753D02*
G75*
G03*
X13389297Y-10636355I-180024J252373D01*
G01*
X19894050Y-11068749D02*
X13821691Y-11068749D01*
X13489297Y-7213997D02*
G75*
G03*
X13389297Y-7313997I3J-100003D01*
G01*
X13389297Y-10636355D02*
X13389297Y-7313997D01*
D11*
D12*
X13558100Y-9414340D02*
X13593100Y-9449340D01*
X13593100Y-9414340D02*
X13558100Y-9449340D01*
X13596100Y-9647340D02*
X13631100Y-9682340D01*
X13631100Y-9647340D02*
X13596100Y-9682340D01*
X13601100Y-8890340D02*
X13636100Y-8925340D01*
X13636100Y-8890340D02*
X13601100Y-8925340D01*
X13605100Y-8544340D02*
X13640100Y-8579340D01*
X13640100Y-8544340D02*
X13605100Y-8579340D01*
X13667100Y-7846340D02*
X13702100Y-7881340D01*
X13702100Y-7846340D02*
X13667100Y-7881340D01*
X13668100Y-10051340D02*
X13703100Y-10086340D01*
X13703100Y-10051340D02*
X13668100Y-10086340D01*
X13792100Y-7839340D02*
X13827100Y-7874340D01*
X13827100Y-7839340D02*
X13792100Y-7874340D01*
X13879100Y-8176340D02*
X13914100Y-8211340D01*
X13914100Y-8176340D02*
X13879100Y-8211340D01*
X13958100Y-8414340D02*
X13993100Y-8449340D01*
X13993100Y-8414340D02*
X13958100Y-8449340D01*
X13976100Y-7832340D02*
X14011100Y-7867340D01*
X14011100Y-7832340D02*
X13976100Y-7867340D01*
X14007100Y-9685340D02*
X14042100Y-9720340D01*
X14042100Y-9685340D02*
X14007100Y-9720340D01*
X14047100Y-7656340D02*
X14082100Y-7691340D01*
X14082100Y-7656340D02*
X14047100Y-7691340D01*
X14085100Y-8248340D02*
X14120100Y-8283340D01*
X14120100Y-8248340D02*
X14085100Y-8283340D01*
X14113100Y-8782340D02*
X14148100Y-8817340D01*
X14148100Y-8782340D02*
X14113100Y-8817340D01*
X14124100Y-9229340D02*
X14159100Y-9264340D01*
X14159100Y-9229340D02*
X14124100Y-9264340D01*
X14143100Y-9475340D02*
X14178100Y-9510340D01*
X14178100Y-9475340D02*
X14143100Y-9510340D01*
X14269100Y-10034340D02*
X14304100Y-10069340D01*
X14304100Y-10034340D02*
X14269100Y-10069340D01*
X14355100Y-10447340D02*
X14390100Y-10482340D01*
X14390100Y-10447340D02*
X14355100Y-10482340D01*
X14525100Y-10678340D02*
X14560100Y-10713340D01*
X14560100Y-10678340D02*
X14525100Y-10713340D01*
X14630100Y-7853340D02*
X14665100Y-7888340D01*
X14665100Y-7853340D02*
X14630100Y-7888340D01*
X14870100Y-9992340D02*
X14905100Y-10027340D01*
X14905100Y-9992340D02*
X14870100Y-10027340D01*
X14961100Y-7944340D02*
X14996100Y-7979340D01*
X14996100Y-7944340D02*
X14961100Y-7979340D01*
X14968100Y-9907340D02*
X15003100Y-9942340D01*
X15003100Y-9907340D02*
X14968100Y-9942340D01*
X14982100Y-7663340D02*
X15017100Y-7698340D01*
X15017100Y-7663340D02*
X14982100Y-7698340D01*
X15292100Y-9992340D02*
X15327100Y-10027340D01*
X15327100Y-9992340D02*
X15292100Y-10027340D01*
X15305100Y-10908340D02*
X15340100Y-10943340D01*
X15340100Y-10908340D02*
X15305100Y-10943340D01*
X15433100Y-7545340D02*
X15468100Y-7580340D01*
X15468100Y-7545340D02*
X15433100Y-7580340D01*
X15850100Y-9865340D02*
X15885100Y-9900340D01*
X15885100Y-9865340D02*
X15850100Y-9900340D01*
X15888100Y-10847340D02*
X15923100Y-10882340D01*
X15923100Y-10847340D02*
X15888100Y-10882340D01*
X15964100Y-7777340D02*
X15999100Y-7812340D01*
X15999100Y-7777340D02*
X15964100Y-7812340D01*
X15983100Y-7634340D02*
X16018100Y-7669340D01*
X16018100Y-7634340D02*
X15983100Y-7669340D01*
X16208100Y-10842340D02*
X16243100Y-10877340D01*
X16243100Y-10842340D02*
X16208100Y-10877340D01*
X16213100Y-10133340D02*
X16248100Y-10168340D01*
X16248100Y-10133340D02*
X16213100Y-10168340D01*
X16432100Y-9345340D02*
X16467100Y-9380340D01*
X16467100Y-9345340D02*
X16432100Y-9380340D01*
X16450100Y-8184340D02*
X16485100Y-8219340D01*
X16485100Y-8184340D02*
X16450100Y-8219340D01*
X16467100Y-7508340D02*
X16502100Y-7543340D01*
X16502100Y-7508340D02*
X16467100Y-7543340D01*
X16482100Y-7755340D02*
X16517100Y-7790340D01*
X16517100Y-7755340D02*
X16482100Y-7790340D01*
X16643100Y-7551340D02*
X16678100Y-7586340D01*
X16678100Y-7551340D02*
X16643100Y-7586340D01*
X16727100Y-7565340D02*
X16762100Y-7600340D01*
X16762100Y-7565340D02*
X16727100Y-7600340D01*
X16817100Y-7636340D02*
X16852100Y-7671340D01*
X16852100Y-7636340D02*
X16817100Y-7671340D01*
X16872100Y-8516340D02*
X16907100Y-8551340D01*
X16907100Y-8516340D02*
X16872100Y-8551340D01*
X16917100Y-9014340D02*
X16952100Y-9049340D01*
X16952100Y-9014340D02*
X16917100Y-9049340D01*
X16931100Y-8008340D02*
X16966100Y-8043340D01*
X16966100Y-8008340D02*
X16931100Y-8043340D01*
X16980100Y-8620340D02*
X17015100Y-8655340D01*
X17015100Y-8620340D02*
X16980100Y-8655340D01*
X17050100Y-7842340D02*
X17085100Y-7877340D01*
X17085100Y-7842340D02*
X17050100Y-7877340D01*
X17141100Y-8926340D02*
X17176100Y-8961340D01*
X17176100Y-8926340D02*
X17141100Y-8961340D01*
X17151200Y-8485340D02*
X17186200Y-8520340D01*
X17186200Y-8485340D02*
X17151200Y-8520340D01*
X17211150Y-8344340D02*
X17246150Y-8379340D01*
X17246150Y-8344340D02*
X17211150Y-8379340D01*
X17230100Y-7837340D02*
X17265100Y-7872340D01*
X17265100Y-7837340D02*
X17230100Y-7872340D01*
X17271100Y-8534340D02*
X17306100Y-8569340D01*
X17306100Y-8534340D02*
X17271100Y-8569340D01*
X17352100Y-7495340D02*
X17387100Y-7530340D01*
X17387100Y-7495340D02*
X17352100Y-7530340D01*
X17741100Y-10795340D02*
X17776100Y-10830340D01*
X17776100Y-10795340D02*
X17741100Y-10830340D01*
X17770100Y-7942340D02*
X17805100Y-7977340D01*
X17805100Y-7942340D02*
X17770100Y-7977340D01*
X18245100Y-7844390D02*
X18280100Y-7879390D01*
X18280100Y-7844390D02*
X18245100Y-7879390D01*
X18409100Y-10167340D02*
X18444100Y-10202340D01*
X18444100Y-10167340D02*
X18409100Y-10202340D01*
X18441100Y-10014340D02*
X18476100Y-10049340D01*
X18476100Y-10014340D02*
X18441100Y-10049340D01*
X18456100Y-9788340D02*
X18491100Y-9823340D01*
X18491100Y-9788340D02*
X18456100Y-9823340D01*
X18743100Y-9958340D02*
X18778100Y-9993340D01*
X18778100Y-9958340D02*
X18743100Y-9993340D01*
X18791100Y-7465340D02*
X18826100Y-7500340D01*
X18826100Y-7465340D02*
X18791100Y-7500340D01*
X18880100Y-9805340D02*
X18915100Y-9840340D01*
X18915100Y-9805340D02*
X18880100Y-9840340D01*
X19076100Y-10017340D02*
X19111100Y-10052340D01*
X19111100Y-10017340D02*
X19076100Y-10052340D01*
X19115100Y-7599340D02*
X19150100Y-7634340D01*
X19150100Y-7599340D02*
X19115100Y-7634340D01*
X19279100Y-7619340D02*
X19314100Y-7654340D01*
X19314100Y-7619340D02*
X19279100Y-7654340D01*
X19296100Y-7344340D02*
X19331100Y-7379340D01*
X19331100Y-7344340D02*
X19296100Y-7379340D01*
X19339100Y-7930340D02*
X19374100Y-7965340D01*
X19374100Y-7930340D02*
X19339100Y-7965340D01*
X19365100Y-8084340D02*
X19400100Y-8119340D01*
X19400100Y-8084340D02*
X19365100Y-8119340D01*
X19395100Y-8506340D02*
X19430100Y-8541340D01*
X19430100Y-8506340D02*
X19395100Y-8541340D01*
X19401100Y-9022340D02*
X19436100Y-9057340D01*
X19436100Y-9022340D02*
X19401100Y-9057340D01*
X19407100Y-8642340D02*
X19442100Y-8677340D01*
X19442100Y-8642340D02*
X19407100Y-8677340D01*
X19455100Y-7875340D02*
X19490100Y-7910340D01*
X19490100Y-7875340D02*
X19455100Y-7910340D01*
X19466100Y-10828340D02*
X19501100Y-10863340D01*
X19501100Y-10828340D02*
X19466100Y-10863340D01*
X19582100Y-9786340D02*
X19617100Y-9821340D01*
X19617100Y-9786340D02*
X19582100Y-9821340D01*
X19582100Y-10514340D02*
X19617100Y-10549340D01*
X19617100Y-10514340D02*
X19582100Y-10549340D01*
X19706100Y-10791340D02*
X19741100Y-10826340D01*
X19741100Y-10791340D02*
X19706100Y-10826340D01*
X19712100Y-7845340D02*
X19747100Y-7880340D01*
X19747100Y-7845340D02*
X19712100Y-7880340D01*
X19755100Y-8120340D02*
X19790100Y-8155340D01*
X19790100Y-8120340D02*
X19755100Y-8155340D01*
X19875100Y-10381340D02*
X19910100Y-10416340D01*
X19910100Y-10381340D02*
X19875100Y-10416340D01*
X19879100Y-8313340D02*
X19914100Y-8348340D01*
X19914100Y-8313340D02*
X19879100Y-8348340D01*
X19881100Y-8560340D02*
X19916100Y-8595340D01*
X19916100Y-8560340D02*
X19881100Y-8595340D01*
X19881100Y-8775340D02*
X19916100Y-8810340D01*
X19916100Y-8775340D02*
X19881100Y-8810340D01*
X19881100Y-8848340D02*
X19916100Y-8883340D01*
X19916100Y-8848340D02*
X19881100Y-8883340D01*
D13*
X19385600Y-7815840D02*
G75*
G03*
X19385600Y-7815840I-25000J0D01*
G01*
D14*
X17338350Y-10119240D02*
X17338350Y-10195240D01*
X17300350Y-10157240D02*
X17376350Y-10157240D01*
X17465350Y-9865240D02*
X17465350Y-9941240D01*
X17427350Y-9903240D02*
X17503350Y-9903240D01*
X17592350Y-10119240D02*
X17592350Y-10195240D01*
X17554350Y-10157240D02*
X17630350Y-10157240D01*
X17719350Y-9865240D02*
X17719350Y-9941240D01*
X17681350Y-9903240D02*
X17757350Y-9903240D01*
X17846350Y-10119240D02*
X17846350Y-10195240D01*
X17808350Y-10157240D02*
X17884350Y-10157240D01*
X17973350Y-9865240D02*
X17973350Y-9941240D01*
X17935350Y-9903240D02*
X18011350Y-9903240D01*
X18100350Y-10119240D02*
X18100350Y-10195240D01*
X18062350Y-10157240D02*
X18138350Y-10157240D01*
X18227350Y-9865240D02*
X18227350Y-9941240D01*
X18189350Y-9903240D02*
X18265350Y-9903240D01*
D15*
X17227188Y-7690428D02*
X17227188Y-7623252D01*
X17160012Y-7623252D01*
X17160012Y-7690428D01*
X17227188Y-7690428D01*
X17477188Y-7690428D02*
X17477188Y-7623252D01*
X17410012Y-7623252D01*
X17410012Y-7690428D01*
X17477188Y-7690428D01*
X17727188Y-7690428D02*
X17727188Y-7623252D01*
X17660012Y-7623252D01*
X17660012Y-7690428D01*
X17727188Y-7690428D01*
X17977188Y-7690428D02*
X17977188Y-7623252D01*
X17910012Y-7623252D01*
X17910012Y-7690428D01*
X17977188Y-7690428D01*
X18227188Y-7690428D02*
X18227188Y-7623252D01*
X18160012Y-7623252D01*
X18160012Y-7690428D01*
X18227188Y-7690428D01*
X18477188Y-7690428D02*
X18477188Y-7623252D01*
X18410012Y-7623252D01*
X18410012Y-7690428D01*
X18477188Y-7690428D01*
X18727188Y-7690428D02*
X18727188Y-7623252D01*
X18660012Y-7623252D01*
X18660012Y-7690428D01*
X18727188Y-7690428D01*
X18977188Y-7690428D02*
X18977188Y-7623252D01*
X18910012Y-7623252D01*
X18910012Y-7690428D01*
X18977188Y-7690428D01*
D16*
X14401600Y-8937340D02*
X14466100Y-8872840D01*
X14401600Y-8808340D01*
X14337100Y-8872840D01*
X14401600Y-8937340D01*
X19161350Y-8899340D02*
X19225850Y-8834840D01*
X19161350Y-8770340D01*
X19096850Y-8834840D01*
X19161350Y-8899340D01*
D17*
X14535600Y-8206840D02*
X14667600Y-8338840D01*
X14667600Y-8206840D02*
X14535600Y-8338840D01*
X14667600Y-8272840D02*
G75*
G03*
X14667600Y-8272840I-66000J0D01*
G01*
X14535600Y-9406840D02*
X14667600Y-9538840D01*
X14667600Y-9406840D02*
X14535600Y-9538840D01*
X14667600Y-9472840D02*
G75*
G03*
X14667600Y-9472840I-66000J0D01*
G01*
X15755600Y-8206840D02*
X15887600Y-8338840D01*
X15887600Y-8206840D02*
X15755600Y-8338840D01*
X15887600Y-8272840D02*
G75*
G03*
X15887600Y-8272840I-66000J0D01*
G01*
X15755600Y-9406840D02*
X15887600Y-9538840D01*
X15887600Y-9406840D02*
X15755600Y-9538840D01*
X15887600Y-9472840D02*
G75*
G03*
X15887600Y-9472840I-66000J0D01*
G01*
X17675350Y-8168840D02*
X17807350Y-8300840D01*
X17807350Y-8168840D02*
X17675350Y-8300840D01*
X17807350Y-8234840D02*
G75*
G03*
X17807350Y-8234840I-66000J0D01*
G01*
X17675350Y-9368840D02*
X17807350Y-9500840D01*
X17807350Y-9368840D02*
X17675350Y-9500840D01*
X17807350Y-9434840D02*
G75*
G03*
X17807350Y-9434840I-66000J0D01*
G01*
X18895350Y-8168840D02*
X19027350Y-8300840D01*
X19027350Y-8168840D02*
X18895350Y-8300840D01*
X19027350Y-8234840D02*
G75*
G03*
X19027350Y-8234840I-66000J0D01*
G01*
X18895350Y-9368840D02*
X19027350Y-9500840D01*
X19027350Y-9368840D02*
X18895350Y-9500840D01*
X19027350Y-9434840D02*
G75*
G03*
X19027350Y-9434840I-66000J0D01*
G01*
D18*
X15139600Y-7592590D02*
X15299600Y-7752590D01*
X15299600Y-7592590D02*
X15139600Y-7752590D01*
X15219600Y-7592590D02*
X15219600Y-7752590D01*
X15139600Y-7672590D02*
X15299600Y-7672590D01*
X15139600Y-10512840D02*
X15299600Y-10672840D01*
X15299600Y-10512840D02*
X15139600Y-10672840D01*
X15219600Y-10512840D02*
X15219600Y-10672840D01*
X15139600Y-10592840D02*
X15299600Y-10592840D01*
X15647600Y-7592590D02*
X15807600Y-7752590D01*
X15807600Y-7592590D02*
X15647600Y-7752590D01*
X15727600Y-7592590D02*
X15727600Y-7752590D01*
X15647600Y-7672590D02*
X15807600Y-7672590D01*
X15647600Y-10512840D02*
X15807600Y-10672840D01*
X15807600Y-10512840D02*
X15647600Y-10672840D01*
X15727600Y-10512840D02*
X15727600Y-10672840D01*
X15647600Y-10592840D02*
X15807600Y-10592840D01*
X16155600Y-7592590D02*
X16315600Y-7752590D01*
X16315600Y-7592590D02*
X16155600Y-7752590D01*
X16235600Y-7592590D02*
X16235600Y-7752590D01*
X16155600Y-7672590D02*
X16315600Y-7672590D01*
X16155600Y-10512840D02*
X16315600Y-10672840D01*
X16315600Y-10512840D02*
X16155600Y-10672840D01*
X16235600Y-10512840D02*
X16235600Y-10672840D01*
X16155600Y-10592840D02*
X16315600Y-10592840D01*
D11*
X13642574Y-11387733D02*
X13642574Y-11187733D01*
X13642574Y-11187733D02*
X13690193Y-11187733D01*
X13690193Y-11187733D02*
X13718765Y-11197257D01*
X13718765Y-11197257D02*
X13737812Y-11216305D01*
X13737812Y-11216305D02*
X13747336Y-11235352D01*
X13747336Y-11235352D02*
X13756860Y-11273448D01*
X13756860Y-11273448D02*
X13756860Y-11302019D01*
X13756860Y-11302019D02*
X13747336Y-11340114D01*
X13747336Y-11340114D02*
X13737812Y-11359162D01*
X13737812Y-11359162D02*
X13718765Y-11378210D01*
X13718765Y-11378210D02*
X13690193Y-11387733D01*
X13690193Y-11387733D02*
X13642574Y-11387733D01*
X13842574Y-11387733D02*
X13842574Y-11254400D01*
X13842574Y-11292495D02*
X13852098Y-11273448D01*
X13852098Y-11273448D02*
X13861622Y-11263924D01*
X13861622Y-11263924D02*
X13880669Y-11254400D01*
X13880669Y-11254400D02*
X13899717Y-11254400D01*
X13966384Y-11387733D02*
X13966384Y-11254400D01*
X13966384Y-11187733D02*
X13956860Y-11197257D01*
X13956860Y-11197257D02*
X13966384Y-11206781D01*
X13966384Y-11206781D02*
X13975908Y-11197257D01*
X13975908Y-11197257D02*
X13966384Y-11187733D01*
X13966384Y-11187733D02*
X13966384Y-11206781D01*
X14090193Y-11387733D02*
X14071146Y-11378210D01*
X14071146Y-11378210D02*
X14061622Y-11359162D01*
X14061622Y-11359162D02*
X14061622Y-11187733D01*
X14194955Y-11387733D02*
X14175908Y-11378210D01*
X14175908Y-11378210D02*
X14166384Y-11359162D01*
X14166384Y-11359162D02*
X14166384Y-11187733D01*
X14423527Y-11387733D02*
X14423527Y-11187733D01*
X14423527Y-11187733D02*
X14490193Y-11330590D01*
X14490193Y-11330590D02*
X14556860Y-11187733D01*
X14556860Y-11187733D02*
X14556860Y-11387733D01*
X14737812Y-11387733D02*
X14737812Y-11282971D01*
X14737812Y-11282971D02*
X14728289Y-11263924D01*
X14728289Y-11263924D02*
X14709241Y-11254400D01*
X14709241Y-11254400D02*
X14671146Y-11254400D01*
X14671146Y-11254400D02*
X14652098Y-11263924D01*
X14737812Y-11378210D02*
X14718765Y-11387733D01*
X14718765Y-11387733D02*
X14671146Y-11387733D01*
X14671146Y-11387733D02*
X14652098Y-11378210D01*
X14652098Y-11378210D02*
X14642574Y-11359162D01*
X14642574Y-11359162D02*
X14642574Y-11340114D01*
X14642574Y-11340114D02*
X14652098Y-11321067D01*
X14652098Y-11321067D02*
X14671146Y-11311543D01*
X14671146Y-11311543D02*
X14718765Y-11311543D01*
X14718765Y-11311543D02*
X14737812Y-11302019D01*
X14833050Y-11254400D02*
X14833050Y-11454400D01*
X14833050Y-11263924D02*
X14852098Y-11254400D01*
X14852098Y-11254400D02*
X14890193Y-11254400D01*
X14890193Y-11254400D02*
X14909241Y-11263924D01*
X14909241Y-11263924D02*
X14918765Y-11273448D01*
X14918765Y-11273448D02*
X14928289Y-11292495D01*
X14928289Y-11292495D02*
X14928289Y-11349638D01*
X14928289Y-11349638D02*
X14918765Y-11368686D01*
X14918765Y-11368686D02*
X14909241Y-11378210D01*
X14909241Y-11378210D02*
X14890193Y-11387733D01*
X14890193Y-11387733D02*
X14852098Y-11387733D01*
X14852098Y-11387733D02*
X14833050Y-11378210D01*
X15014003Y-11368686D02*
X15023527Y-11378210D01*
X15023527Y-11378210D02*
X15014003Y-11387733D01*
X15014003Y-11387733D02*
X15004479Y-11378210D01*
X15004479Y-11378210D02*
X15014003Y-11368686D01*
X15014003Y-11368686D02*
X15014003Y-11387733D01*
X15014003Y-11263924D02*
X15023527Y-11273448D01*
X15023527Y-11273448D02*
X15014003Y-11282971D01*
X15014003Y-11282971D02*
X15004479Y-11273448D01*
X15004479Y-11273448D02*
X15014003Y-11263924D01*
X15014003Y-11263924D02*
X15014003Y-11282971D01*
D12*
X13346797Y-11698750D02*
X13381797Y-11733750D01*
X13381797Y-11698750D02*
X13346797Y-11733750D01*
D11*
X13680669Y-11607733D02*
X13699717Y-11607733D01*
X13699717Y-11607733D02*
X13718765Y-11617257D01*
X13718765Y-11617257D02*
X13728289Y-11626781D01*
X13728289Y-11626781D02*
X13737812Y-11645829D01*
X13737812Y-11645829D02*
X13747336Y-11683924D01*
X13747336Y-11683924D02*
X13747336Y-11731543D01*
X13747336Y-11731543D02*
X13737812Y-11769638D01*
X13737812Y-11769638D02*
X13728289Y-11788686D01*
X13728289Y-11788686D02*
X13718765Y-11798210D01*
X13718765Y-11798210D02*
X13699717Y-11807733D01*
X13699717Y-11807733D02*
X13680669Y-11807733D01*
X13680669Y-11807733D02*
X13661622Y-11798210D01*
X13661622Y-11798210D02*
X13652098Y-11788686D01*
X13652098Y-11788686D02*
X13642574Y-11769638D01*
X13642574Y-11769638D02*
X13633050Y-11731543D01*
X13633050Y-11731543D02*
X13633050Y-11683924D01*
X13633050Y-11683924D02*
X13642574Y-11645829D01*
X13642574Y-11645829D02*
X13652098Y-11626781D01*
X13652098Y-11626781D02*
X13661622Y-11617257D01*
X13661622Y-11617257D02*
X13680669Y-11607733D01*
X13833050Y-11788686D02*
X13842574Y-11798210D01*
X13842574Y-11798210D02*
X13833050Y-11807733D01*
X13833050Y-11807733D02*
X13823527Y-11798210D01*
X13823527Y-11798210D02*
X13833050Y-11788686D01*
X13833050Y-11788686D02*
X13833050Y-11807733D01*
X13909241Y-11607733D02*
X14033050Y-11607733D01*
X14033050Y-11607733D02*
X13966384Y-11683924D01*
X13966384Y-11683924D02*
X13994955Y-11683924D01*
X13994955Y-11683924D02*
X14014003Y-11693448D01*
X14014003Y-11693448D02*
X14023527Y-11702971D01*
X14023527Y-11702971D02*
X14033050Y-11722019D01*
X14033050Y-11722019D02*
X14033050Y-11769638D01*
X14033050Y-11769638D02*
X14023527Y-11788686D01*
X14023527Y-11788686D02*
X14014003Y-11798210D01*
X14014003Y-11798210D02*
X13994955Y-11807733D01*
X13994955Y-11807733D02*
X13937812Y-11807733D01*
X13937812Y-11807733D02*
X13918765Y-11798210D01*
X13918765Y-11798210D02*
X13909241Y-11788686D01*
X14214003Y-11607733D02*
X14118765Y-11607733D01*
X14118765Y-11607733D02*
X14109241Y-11702971D01*
X14109241Y-11702971D02*
X14118765Y-11693448D01*
X14118765Y-11693448D02*
X14137812Y-11683924D01*
X14137812Y-11683924D02*
X14185431Y-11683924D01*
X14185431Y-11683924D02*
X14204479Y-11693448D01*
X14204479Y-11693448D02*
X14214003Y-11702971D01*
X14214003Y-11702971D02*
X14223527Y-11722019D01*
X14223527Y-11722019D02*
X14223527Y-11769638D01*
X14223527Y-11769638D02*
X14214003Y-11788686D01*
X14214003Y-11788686D02*
X14204479Y-11798210D01*
X14204479Y-11798210D02*
X14185431Y-11807733D01*
X14185431Y-11807733D02*
X14137812Y-11807733D01*
X14137812Y-11807733D02*
X14118765Y-11798210D01*
X14118765Y-11798210D02*
X14109241Y-11788686D01*
X14347336Y-11607733D02*
X14366384Y-11607733D01*
X14366384Y-11607733D02*
X14385431Y-11617257D01*
X14385431Y-11617257D02*
X14394955Y-11626781D01*
X14394955Y-11626781D02*
X14404479Y-11645829D01*
X14404479Y-11645829D02*
X14414003Y-11683924D01*
X14414003Y-11683924D02*
X14414003Y-11731543D01*
X14414003Y-11731543D02*
X14404479Y-11769638D01*
X14404479Y-11769638D02*
X14394955Y-11788686D01*
X14394955Y-11788686D02*
X14385431Y-11798210D01*
X14385431Y-11798210D02*
X14366384Y-11807733D01*
X14366384Y-11807733D02*
X14347336Y-11807733D01*
X14347336Y-11807733D02*
X14328289Y-11798210D01*
X14328289Y-11798210D02*
X14318765Y-11788686D01*
X14318765Y-11788686D02*
X14309241Y-11769638D01*
X14309241Y-11769638D02*
X14299717Y-11731543D01*
X14299717Y-11731543D02*
X14299717Y-11683924D01*
X14299717Y-11683924D02*
X14309241Y-11645829D01*
X14309241Y-11645829D02*
X14318765Y-11626781D01*
X14318765Y-11626781D02*
X14328289Y-11617257D01*
X14328289Y-11617257D02*
X14347336Y-11607733D01*
X14499717Y-11807733D02*
X14499717Y-11674400D01*
X14499717Y-11693448D02*
X14509241Y-11683924D01*
X14509241Y-11683924D02*
X14528289Y-11674400D01*
X14528289Y-11674400D02*
X14556860Y-11674400D01*
X14556860Y-11674400D02*
X14575908Y-11683924D01*
X14575908Y-11683924D02*
X14585431Y-11702971D01*
X14585431Y-11702971D02*
X14585431Y-11807733D01*
X14585431Y-11702971D02*
X14594955Y-11683924D01*
X14594955Y-11683924D02*
X14614003Y-11674400D01*
X14614003Y-11674400D02*
X14642574Y-11674400D01*
X14642574Y-11674400D02*
X14661622Y-11683924D01*
X14661622Y-11683924D02*
X14671146Y-11702971D01*
X14671146Y-11702971D02*
X14671146Y-11807733D01*
X14766384Y-11807733D02*
X14766384Y-11674400D01*
X14766384Y-11693448D02*
X14775908Y-11683924D01*
X14775908Y-11683924D02*
X14794955Y-11674400D01*
X14794955Y-11674400D02*
X14823527Y-11674400D01*
X14823527Y-11674400D02*
X14842574Y-11683924D01*
X14842574Y-11683924D02*
X14852098Y-11702971D01*
X14852098Y-11702971D02*
X14852098Y-11807733D01*
X14852098Y-11702971D02*
X14861622Y-11683924D01*
X14861622Y-11683924D02*
X14880670Y-11674400D01*
X14880670Y-11674400D02*
X14909241Y-11674400D01*
X14909241Y-11674400D02*
X14928289Y-11683924D01*
X14928289Y-11683924D02*
X14937812Y-11702971D01*
X14937812Y-11702971D02*
X14937812Y-11807733D01*
X15328289Y-11598210D02*
X15156860Y-11855352D01*
X15585432Y-11607733D02*
X15604479Y-11607733D01*
X15604479Y-11607733D02*
X15623527Y-11617257D01*
X15623527Y-11617257D02*
X15633051Y-11626781D01*
X15633051Y-11626781D02*
X15642574Y-11645829D01*
X15642574Y-11645829D02*
X15652098Y-11683924D01*
X15652098Y-11683924D02*
X15652098Y-11731543D01*
X15652098Y-11731543D02*
X15642574Y-11769638D01*
X15642574Y-11769638D02*
X15633051Y-11788686D01*
X15633051Y-11788686D02*
X15623527Y-11798210D01*
X15623527Y-11798210D02*
X15604479Y-11807733D01*
X15604479Y-11807733D02*
X15585432Y-11807733D01*
X15585432Y-11807733D02*
X15566384Y-11798210D01*
X15566384Y-11798210D02*
X15556860Y-11788686D01*
X15556860Y-11788686D02*
X15547336Y-11769638D01*
X15547336Y-11769638D02*
X15537813Y-11731543D01*
X15537813Y-11731543D02*
X15537813Y-11683924D01*
X15537813Y-11683924D02*
X15547336Y-11645829D01*
X15547336Y-11645829D02*
X15556860Y-11626781D01*
X15556860Y-11626781D02*
X15566384Y-11617257D01*
X15566384Y-11617257D02*
X15585432Y-11607733D01*
X15737813Y-11788686D02*
X15747336Y-11798210D01*
X15747336Y-11798210D02*
X15737813Y-11807733D01*
X15737813Y-11807733D02*
X15728289Y-11798210D01*
X15728289Y-11798210D02*
X15737813Y-11788686D01*
X15737813Y-11788686D02*
X15737813Y-11807733D01*
X15871146Y-11607733D02*
X15890194Y-11607733D01*
X15890194Y-11607733D02*
X15909241Y-11617257D01*
X15909241Y-11617257D02*
X15918765Y-11626781D01*
X15918765Y-11626781D02*
X15928289Y-11645829D01*
X15928289Y-11645829D02*
X15937813Y-11683924D01*
X15937813Y-11683924D02*
X15937813Y-11731543D01*
X15937813Y-11731543D02*
X15928289Y-11769638D01*
X15928289Y-11769638D02*
X15918765Y-11788686D01*
X15918765Y-11788686D02*
X15909241Y-11798210D01*
X15909241Y-11798210D02*
X15890194Y-11807733D01*
X15890194Y-11807733D02*
X15871146Y-11807733D01*
X15871146Y-11807733D02*
X15852098Y-11798210D01*
X15852098Y-11798210D02*
X15842574Y-11788686D01*
X15842574Y-11788686D02*
X15833051Y-11769638D01*
X15833051Y-11769638D02*
X15823527Y-11731543D01*
X15823527Y-11731543D02*
X15823527Y-11683924D01*
X15823527Y-11683924D02*
X15833051Y-11645829D01*
X15833051Y-11645829D02*
X15842574Y-11626781D01*
X15842574Y-11626781D02*
X15852098Y-11617257D01*
X15852098Y-11617257D02*
X15871146Y-11607733D01*
X16128289Y-11807733D02*
X16014003Y-11807733D01*
X16071146Y-11807733D02*
X16071146Y-11607733D01*
X16071146Y-11607733D02*
X16052098Y-11636305D01*
X16052098Y-11636305D02*
X16033051Y-11655352D01*
X16033051Y-11655352D02*
X16014003Y-11664876D01*
X16194955Y-11607733D02*
X16318765Y-11607733D01*
X16318765Y-11607733D02*
X16252098Y-11683924D01*
X16252098Y-11683924D02*
X16280670Y-11683924D01*
X16280670Y-11683924D02*
X16299717Y-11693448D01*
X16299717Y-11693448D02*
X16309241Y-11702971D01*
X16309241Y-11702971D02*
X16318765Y-11722019D01*
X16318765Y-11722019D02*
X16318765Y-11769638D01*
X16318765Y-11769638D02*
X16309241Y-11788686D01*
X16309241Y-11788686D02*
X16299717Y-11798210D01*
X16299717Y-11798210D02*
X16280670Y-11807733D01*
X16280670Y-11807733D02*
X16223527Y-11807733D01*
X16223527Y-11807733D02*
X16204479Y-11798210D01*
X16204479Y-11798210D02*
X16194955Y-11788686D01*
X16433051Y-11693448D02*
X16414003Y-11683924D01*
X16414003Y-11683924D02*
X16404479Y-11674400D01*
X16404479Y-11674400D02*
X16394955Y-11655352D01*
X16394955Y-11655352D02*
X16394955Y-11645829D01*
X16394955Y-11645829D02*
X16404479Y-11626781D01*
X16404479Y-11626781D02*
X16414003Y-11617257D01*
X16414003Y-11617257D02*
X16433051Y-11607733D01*
X16433051Y-11607733D02*
X16471146Y-11607733D01*
X16471146Y-11607733D02*
X16490194Y-11617257D01*
X16490194Y-11617257D02*
X16499717Y-11626781D01*
X16499717Y-11626781D02*
X16509241Y-11645829D01*
X16509241Y-11645829D02*
X16509241Y-11655352D01*
X16509241Y-11655352D02*
X16499717Y-11674400D01*
X16499717Y-11674400D02*
X16490194Y-11683924D01*
X16490194Y-11683924D02*
X16471146Y-11693448D01*
X16471146Y-11693448D02*
X16433051Y-11693448D01*
X16433051Y-11693448D02*
X16414003Y-11702971D01*
X16414003Y-11702971D02*
X16404479Y-11712495D01*
X16404479Y-11712495D02*
X16394955Y-11731543D01*
X16394955Y-11731543D02*
X16394955Y-11769638D01*
X16394955Y-11769638D02*
X16404479Y-11788686D01*
X16404479Y-11788686D02*
X16414003Y-11798210D01*
X16414003Y-11798210D02*
X16433051Y-11807733D01*
X16433051Y-11807733D02*
X16471146Y-11807733D01*
X16471146Y-11807733D02*
X16490194Y-11798210D01*
X16490194Y-11798210D02*
X16499717Y-11788686D01*
X16499717Y-11788686D02*
X16509241Y-11769638D01*
X16509241Y-11769638D02*
X16509241Y-11731543D01*
X16509241Y-11731543D02*
X16499717Y-11712495D01*
X16499717Y-11712495D02*
X16490194Y-11702971D01*
X16490194Y-11702971D02*
X16471146Y-11693448D01*
X16585432Y-11607733D02*
X16585432Y-11645829D01*
X16661622Y-11607733D02*
X16661622Y-11645829D01*
X16956860Y-11883924D02*
X16947337Y-11874400D01*
X16947337Y-11874400D02*
X16928289Y-11845829D01*
X16928289Y-11845829D02*
X16918765Y-11826781D01*
X16918765Y-11826781D02*
X16909241Y-11798210D01*
X16909241Y-11798210D02*
X16899718Y-11750590D01*
X16899718Y-11750590D02*
X16899718Y-11712495D01*
X16899718Y-11712495D02*
X16909241Y-11664876D01*
X16909241Y-11664876D02*
X16918765Y-11636305D01*
X16918765Y-11636305D02*
X16928289Y-11617257D01*
X16928289Y-11617257D02*
X16947337Y-11588686D01*
X16947337Y-11588686D02*
X16956860Y-11579162D01*
X17061622Y-11693448D02*
X17042575Y-11683924D01*
X17042575Y-11683924D02*
X17033051Y-11674400D01*
X17033051Y-11674400D02*
X17023527Y-11655352D01*
X17023527Y-11655352D02*
X17023527Y-11645829D01*
X17023527Y-11645829D02*
X17033051Y-11626781D01*
X17033051Y-11626781D02*
X17042575Y-11617257D01*
X17042575Y-11617257D02*
X17061622Y-11607733D01*
X17061622Y-11607733D02*
X17099718Y-11607733D01*
X17099718Y-11607733D02*
X17118765Y-11617257D01*
X17118765Y-11617257D02*
X17128289Y-11626781D01*
X17128289Y-11626781D02*
X17137813Y-11645829D01*
X17137813Y-11645829D02*
X17137813Y-11655352D01*
X17137813Y-11655352D02*
X17128289Y-11674400D01*
X17128289Y-11674400D02*
X17118765Y-11683924D01*
X17118765Y-11683924D02*
X17099718Y-11693448D01*
X17099718Y-11693448D02*
X17061622Y-11693448D01*
X17061622Y-11693448D02*
X17042575Y-11702971D01*
X17042575Y-11702971D02*
X17033051Y-11712495D01*
X17033051Y-11712495D02*
X17023527Y-11731543D01*
X17023527Y-11731543D02*
X17023527Y-11769638D01*
X17023527Y-11769638D02*
X17033051Y-11788686D01*
X17033051Y-11788686D02*
X17042575Y-11798210D01*
X17042575Y-11798210D02*
X17061622Y-11807733D01*
X17061622Y-11807733D02*
X17099718Y-11807733D01*
X17099718Y-11807733D02*
X17118765Y-11798210D01*
X17118765Y-11798210D02*
X17128289Y-11788686D01*
X17128289Y-11788686D02*
X17137813Y-11769638D01*
X17137813Y-11769638D02*
X17137813Y-11731543D01*
X17137813Y-11731543D02*
X17128289Y-11712495D01*
X17128289Y-11712495D02*
X17118765Y-11702971D01*
X17118765Y-11702971D02*
X17099718Y-11693448D01*
X17328289Y-11807733D02*
X17214003Y-11807733D01*
X17271146Y-11807733D02*
X17271146Y-11607733D01*
X17271146Y-11607733D02*
X17252098Y-11636305D01*
X17252098Y-11636305D02*
X17233051Y-11655352D01*
X17233051Y-11655352D02*
X17214003Y-11664876D01*
X17566384Y-11807733D02*
X17566384Y-11607733D01*
X17652099Y-11807733D02*
X17652099Y-11702971D01*
X17652099Y-11702971D02*
X17642575Y-11683924D01*
X17642575Y-11683924D02*
X17623527Y-11674400D01*
X17623527Y-11674400D02*
X17594956Y-11674400D01*
X17594956Y-11674400D02*
X17575908Y-11683924D01*
X17575908Y-11683924D02*
X17566384Y-11693448D01*
X17775908Y-11807733D02*
X17756860Y-11798210D01*
X17756860Y-11798210D02*
X17747337Y-11788686D01*
X17747337Y-11788686D02*
X17737813Y-11769638D01*
X17737813Y-11769638D02*
X17737813Y-11712495D01*
X17737813Y-11712495D02*
X17747337Y-11693448D01*
X17747337Y-11693448D02*
X17756860Y-11683924D01*
X17756860Y-11683924D02*
X17775908Y-11674400D01*
X17775908Y-11674400D02*
X17804480Y-11674400D01*
X17804480Y-11674400D02*
X17823527Y-11683924D01*
X17823527Y-11683924D02*
X17833051Y-11693448D01*
X17833051Y-11693448D02*
X17842575Y-11712495D01*
X17842575Y-11712495D02*
X17842575Y-11769638D01*
X17842575Y-11769638D02*
X17833051Y-11788686D01*
X17833051Y-11788686D02*
X17823527Y-11798210D01*
X17823527Y-11798210D02*
X17804480Y-11807733D01*
X17804480Y-11807733D02*
X17775908Y-11807733D01*
X17956860Y-11807733D02*
X17937813Y-11798210D01*
X17937813Y-11798210D02*
X17928289Y-11779162D01*
X17928289Y-11779162D02*
X17928289Y-11607733D01*
X18109241Y-11798210D02*
X18090194Y-11807733D01*
X18090194Y-11807733D02*
X18052099Y-11807733D01*
X18052099Y-11807733D02*
X18033051Y-11798210D01*
X18033051Y-11798210D02*
X18023527Y-11779162D01*
X18023527Y-11779162D02*
X18023527Y-11702971D01*
X18023527Y-11702971D02*
X18033051Y-11683924D01*
X18033051Y-11683924D02*
X18052099Y-11674400D01*
X18052099Y-11674400D02*
X18090194Y-11674400D01*
X18090194Y-11674400D02*
X18109241Y-11683924D01*
X18109241Y-11683924D02*
X18118765Y-11702971D01*
X18118765Y-11702971D02*
X18118765Y-11722019D01*
X18118765Y-11722019D02*
X18023527Y-11741067D01*
X18194956Y-11798210D02*
X18214003Y-11807733D01*
X18214003Y-11807733D02*
X18252099Y-11807733D01*
X18252099Y-11807733D02*
X18271146Y-11798210D01*
X18271146Y-11798210D02*
X18280670Y-11779162D01*
X18280670Y-11779162D02*
X18280670Y-11769638D01*
X18280670Y-11769638D02*
X18271146Y-11750590D01*
X18271146Y-11750590D02*
X18252099Y-11741067D01*
X18252099Y-11741067D02*
X18223527Y-11741067D01*
X18223527Y-11741067D02*
X18204480Y-11731543D01*
X18204480Y-11731543D02*
X18194956Y-11712495D01*
X18194956Y-11712495D02*
X18194956Y-11702971D01*
X18194956Y-11702971D02*
X18204480Y-11683924D01*
X18204480Y-11683924D02*
X18223527Y-11674400D01*
X18223527Y-11674400D02*
X18252099Y-11674400D01*
X18252099Y-11674400D02*
X18271146Y-11683924D01*
X18347337Y-11883924D02*
X18356861Y-11874400D01*
X18356861Y-11874400D02*
X18375908Y-11845829D01*
X18375908Y-11845829D02*
X18385432Y-11826781D01*
X18385432Y-11826781D02*
X18394956Y-11798210D01*
X18394956Y-11798210D02*
X18404480Y-11750590D01*
X18404480Y-11750590D02*
X18404480Y-11712495D01*
X18404480Y-11712495D02*
X18394956Y-11664876D01*
X18394956Y-11664876D02*
X18385432Y-11636305D01*
X18385432Y-11636305D02*
X18375908Y-11617257D01*
X18375908Y-11617257D02*
X18356861Y-11588686D01*
X18356861Y-11588686D02*
X18347337Y-11579162D01*
D13*
X13381797Y-11980250D02*
G75*
G03*
X13381797Y-11980250I-25000J0D01*
G01*
D11*
X13680669Y-11871733D02*
X13699717Y-11871733D01*
X13699717Y-11871733D02*
X13718765Y-11881257D01*
X13718765Y-11881257D02*
X13728289Y-11890781D01*
X13728289Y-11890781D02*
X13737812Y-11909829D01*
X13737812Y-11909829D02*
X13747336Y-11947924D01*
X13747336Y-11947924D02*
X13747336Y-11995543D01*
X13747336Y-11995543D02*
X13737812Y-12033638D01*
X13737812Y-12033638D02*
X13728289Y-12052686D01*
X13728289Y-12052686D02*
X13718765Y-12062210D01*
X13718765Y-12062210D02*
X13699717Y-12071733D01*
X13699717Y-12071733D02*
X13680669Y-12071733D01*
X13680669Y-12071733D02*
X13661622Y-12062210D01*
X13661622Y-12062210D02*
X13652098Y-12052686D01*
X13652098Y-12052686D02*
X13642574Y-12033638D01*
X13642574Y-12033638D02*
X13633050Y-11995543D01*
X13633050Y-11995543D02*
X13633050Y-11947924D01*
X13633050Y-11947924D02*
X13642574Y-11909829D01*
X13642574Y-11909829D02*
X13652098Y-11890781D01*
X13652098Y-11890781D02*
X13661622Y-11881257D01*
X13661622Y-11881257D02*
X13680669Y-11871733D01*
X13833050Y-12052686D02*
X13842574Y-12062210D01*
X13842574Y-12062210D02*
X13833050Y-12071733D01*
X13833050Y-12071733D02*
X13823527Y-12062210D01*
X13823527Y-12062210D02*
X13833050Y-12052686D01*
X13833050Y-12052686D02*
X13833050Y-12071733D01*
X14023527Y-11871733D02*
X13928289Y-11871733D01*
X13928289Y-11871733D02*
X13918765Y-11966971D01*
X13918765Y-11966971D02*
X13928289Y-11957448D01*
X13928289Y-11957448D02*
X13947336Y-11947924D01*
X13947336Y-11947924D02*
X13994955Y-11947924D01*
X13994955Y-11947924D02*
X14014003Y-11957448D01*
X14014003Y-11957448D02*
X14023527Y-11966971D01*
X14023527Y-11966971D02*
X14033050Y-11986019D01*
X14033050Y-11986019D02*
X14033050Y-12033638D01*
X14033050Y-12033638D02*
X14023527Y-12052686D01*
X14023527Y-12052686D02*
X14014003Y-12062210D01*
X14014003Y-12062210D02*
X13994955Y-12071733D01*
X13994955Y-12071733D02*
X13947336Y-12071733D01*
X13947336Y-12071733D02*
X13928289Y-12062210D01*
X13928289Y-12062210D02*
X13918765Y-12052686D01*
X14156860Y-11871733D02*
X14175908Y-11871733D01*
X14175908Y-11871733D02*
X14194955Y-11881257D01*
X14194955Y-11881257D02*
X14204479Y-11890781D01*
X14204479Y-11890781D02*
X14214003Y-11909829D01*
X14214003Y-11909829D02*
X14223527Y-11947924D01*
X14223527Y-11947924D02*
X14223527Y-11995543D01*
X14223527Y-11995543D02*
X14214003Y-12033638D01*
X14214003Y-12033638D02*
X14204479Y-12052686D01*
X14204479Y-12052686D02*
X14194955Y-12062210D01*
X14194955Y-12062210D02*
X14175908Y-12071733D01*
X14175908Y-12071733D02*
X14156860Y-12071733D01*
X14156860Y-12071733D02*
X14137812Y-12062210D01*
X14137812Y-12062210D02*
X14128289Y-12052686D01*
X14128289Y-12052686D02*
X14118765Y-12033638D01*
X14118765Y-12033638D02*
X14109241Y-11995543D01*
X14109241Y-11995543D02*
X14109241Y-11947924D01*
X14109241Y-11947924D02*
X14118765Y-11909829D01*
X14118765Y-11909829D02*
X14128289Y-11890781D01*
X14128289Y-11890781D02*
X14137812Y-11881257D01*
X14137812Y-11881257D02*
X14156860Y-11871733D01*
X14347336Y-11871733D02*
X14366384Y-11871733D01*
X14366384Y-11871733D02*
X14385431Y-11881257D01*
X14385431Y-11881257D02*
X14394955Y-11890781D01*
X14394955Y-11890781D02*
X14404479Y-11909829D01*
X14404479Y-11909829D02*
X14414003Y-11947924D01*
X14414003Y-11947924D02*
X14414003Y-11995543D01*
X14414003Y-11995543D02*
X14404479Y-12033638D01*
X14404479Y-12033638D02*
X14394955Y-12052686D01*
X14394955Y-12052686D02*
X14385431Y-12062210D01*
X14385431Y-12062210D02*
X14366384Y-12071733D01*
X14366384Y-12071733D02*
X14347336Y-12071733D01*
X14347336Y-12071733D02*
X14328289Y-12062210D01*
X14328289Y-12062210D02*
X14318765Y-12052686D01*
X14318765Y-12052686D02*
X14309241Y-12033638D01*
X14309241Y-12033638D02*
X14299717Y-11995543D01*
X14299717Y-11995543D02*
X14299717Y-11947924D01*
X14299717Y-11947924D02*
X14309241Y-11909829D01*
X14309241Y-11909829D02*
X14318765Y-11890781D01*
X14318765Y-11890781D02*
X14328289Y-11881257D01*
X14328289Y-11881257D02*
X14347336Y-11871733D01*
X14499717Y-12071733D02*
X14499717Y-11938400D01*
X14499717Y-11957448D02*
X14509241Y-11947924D01*
X14509241Y-11947924D02*
X14528289Y-11938400D01*
X14528289Y-11938400D02*
X14556860Y-11938400D01*
X14556860Y-11938400D02*
X14575908Y-11947924D01*
X14575908Y-11947924D02*
X14585431Y-11966971D01*
X14585431Y-11966971D02*
X14585431Y-12071733D01*
X14585431Y-11966971D02*
X14594955Y-11947924D01*
X14594955Y-11947924D02*
X14614003Y-11938400D01*
X14614003Y-11938400D02*
X14642574Y-11938400D01*
X14642574Y-11938400D02*
X14661622Y-11947924D01*
X14661622Y-11947924D02*
X14671146Y-11966971D01*
X14671146Y-11966971D02*
X14671146Y-12071733D01*
X14766384Y-12071733D02*
X14766384Y-11938400D01*
X14766384Y-11957448D02*
X14775908Y-11947924D01*
X14775908Y-11947924D02*
X14794955Y-11938400D01*
X14794955Y-11938400D02*
X14823527Y-11938400D01*
X14823527Y-11938400D02*
X14842574Y-11947924D01*
X14842574Y-11947924D02*
X14852098Y-11966971D01*
X14852098Y-11966971D02*
X14852098Y-12071733D01*
X14852098Y-11966971D02*
X14861622Y-11947924D01*
X14861622Y-11947924D02*
X14880670Y-11938400D01*
X14880670Y-11938400D02*
X14909241Y-11938400D01*
X14909241Y-11938400D02*
X14928289Y-11947924D01*
X14928289Y-11947924D02*
X14937812Y-11966971D01*
X14937812Y-11966971D02*
X14937812Y-12071733D01*
X15328289Y-11862210D02*
X15156860Y-12119352D01*
X15585432Y-11871733D02*
X15604479Y-11871733D01*
X15604479Y-11871733D02*
X15623527Y-11881257D01*
X15623527Y-11881257D02*
X15633051Y-11890781D01*
X15633051Y-11890781D02*
X15642574Y-11909829D01*
X15642574Y-11909829D02*
X15652098Y-11947924D01*
X15652098Y-11947924D02*
X15652098Y-11995543D01*
X15652098Y-11995543D02*
X15642574Y-12033638D01*
X15642574Y-12033638D02*
X15633051Y-12052686D01*
X15633051Y-12052686D02*
X15623527Y-12062210D01*
X15623527Y-12062210D02*
X15604479Y-12071733D01*
X15604479Y-12071733D02*
X15585432Y-12071733D01*
X15585432Y-12071733D02*
X15566384Y-12062210D01*
X15566384Y-12062210D02*
X15556860Y-12052686D01*
X15556860Y-12052686D02*
X15547336Y-12033638D01*
X15547336Y-12033638D02*
X15537813Y-11995543D01*
X15537813Y-11995543D02*
X15537813Y-11947924D01*
X15537813Y-11947924D02*
X15547336Y-11909829D01*
X15547336Y-11909829D02*
X15556860Y-11890781D01*
X15556860Y-11890781D02*
X15566384Y-11881257D01*
X15566384Y-11881257D02*
X15585432Y-11871733D01*
X15737813Y-12052686D02*
X15747336Y-12062210D01*
X15747336Y-12062210D02*
X15737813Y-12071733D01*
X15737813Y-12071733D02*
X15728289Y-12062210D01*
X15728289Y-12062210D02*
X15737813Y-12052686D01*
X15737813Y-12052686D02*
X15737813Y-12071733D01*
X15871146Y-11871733D02*
X15890194Y-11871733D01*
X15890194Y-11871733D02*
X15909241Y-11881257D01*
X15909241Y-11881257D02*
X15918765Y-11890781D01*
X15918765Y-11890781D02*
X15928289Y-11909829D01*
X15928289Y-11909829D02*
X15937813Y-11947924D01*
X15937813Y-11947924D02*
X15937813Y-11995543D01*
X15937813Y-11995543D02*
X15928289Y-12033638D01*
X15928289Y-12033638D02*
X15918765Y-12052686D01*
X15918765Y-12052686D02*
X15909241Y-12062210D01*
X15909241Y-12062210D02*
X15890194Y-12071733D01*
X15890194Y-12071733D02*
X15871146Y-12071733D01*
X15871146Y-12071733D02*
X15852098Y-12062210D01*
X15852098Y-12062210D02*
X15842574Y-12052686D01*
X15842574Y-12052686D02*
X15833051Y-12033638D01*
X15833051Y-12033638D02*
X15823527Y-11995543D01*
X15823527Y-11995543D02*
X15823527Y-11947924D01*
X15823527Y-11947924D02*
X15833051Y-11909829D01*
X15833051Y-11909829D02*
X15842574Y-11890781D01*
X15842574Y-11890781D02*
X15852098Y-11881257D01*
X15852098Y-11881257D02*
X15871146Y-11871733D01*
X16128289Y-12071733D02*
X16014003Y-12071733D01*
X16071146Y-12071733D02*
X16071146Y-11871733D01*
X16071146Y-11871733D02*
X16052098Y-11900305D01*
X16052098Y-11900305D02*
X16033051Y-11919352D01*
X16033051Y-11919352D02*
X16014003Y-11928876D01*
X16223527Y-12071733D02*
X16261622Y-12071733D01*
X16261622Y-12071733D02*
X16280670Y-12062210D01*
X16280670Y-12062210D02*
X16290194Y-12052686D01*
X16290194Y-12052686D02*
X16309241Y-12024114D01*
X16309241Y-12024114D02*
X16318765Y-11986019D01*
X16318765Y-11986019D02*
X16318765Y-11909829D01*
X16318765Y-11909829D02*
X16309241Y-11890781D01*
X16309241Y-11890781D02*
X16299717Y-11881257D01*
X16299717Y-11881257D02*
X16280670Y-11871733D01*
X16280670Y-11871733D02*
X16242574Y-11871733D01*
X16242574Y-11871733D02*
X16223527Y-11881257D01*
X16223527Y-11881257D02*
X16214003Y-11890781D01*
X16214003Y-11890781D02*
X16204479Y-11909829D01*
X16204479Y-11909829D02*
X16204479Y-11957448D01*
X16204479Y-11957448D02*
X16214003Y-11976495D01*
X16214003Y-11976495D02*
X16223527Y-11986019D01*
X16223527Y-11986019D02*
X16242574Y-11995543D01*
X16242574Y-11995543D02*
X16280670Y-11995543D01*
X16280670Y-11995543D02*
X16299717Y-11986019D01*
X16299717Y-11986019D02*
X16309241Y-11976495D01*
X16309241Y-11976495D02*
X16318765Y-11957448D01*
X16385432Y-11871733D02*
X16518765Y-11871733D01*
X16518765Y-11871733D02*
X16433051Y-12071733D01*
X16585432Y-11871733D02*
X16585432Y-11909829D01*
X16661622Y-11871733D02*
X16661622Y-11909829D01*
X16956860Y-12147924D02*
X16947337Y-12138400D01*
X16947337Y-12138400D02*
X16928289Y-12109829D01*
X16928289Y-12109829D02*
X16918765Y-12090781D01*
X16918765Y-12090781D02*
X16909241Y-12062210D01*
X16909241Y-12062210D02*
X16899718Y-12014590D01*
X16899718Y-12014590D02*
X16899718Y-11976495D01*
X16899718Y-11976495D02*
X16909241Y-11928876D01*
X16909241Y-11928876D02*
X16918765Y-11900305D01*
X16918765Y-11900305D02*
X16928289Y-11881257D01*
X16928289Y-11881257D02*
X16947337Y-11852686D01*
X16947337Y-11852686D02*
X16956860Y-11843162D01*
X17137813Y-12071733D02*
X17023527Y-12071733D01*
X17080670Y-12071733D02*
X17080670Y-11871733D01*
X17080670Y-11871733D02*
X17061622Y-11900305D01*
X17061622Y-11900305D02*
X17042575Y-11919352D01*
X17042575Y-11919352D02*
X17023527Y-11928876D01*
X17375908Y-12071733D02*
X17375908Y-11871733D01*
X17461622Y-12071733D02*
X17461622Y-11966971D01*
X17461622Y-11966971D02*
X17452099Y-11947924D01*
X17452099Y-11947924D02*
X17433051Y-11938400D01*
X17433051Y-11938400D02*
X17404479Y-11938400D01*
X17404479Y-11938400D02*
X17385432Y-11947924D01*
X17385432Y-11947924D02*
X17375908Y-11957448D01*
X17585432Y-12071733D02*
X17566384Y-12062210D01*
X17566384Y-12062210D02*
X17556860Y-12052686D01*
X17556860Y-12052686D02*
X17547337Y-12033638D01*
X17547337Y-12033638D02*
X17547337Y-11976495D01*
X17547337Y-11976495D02*
X17556860Y-11957448D01*
X17556860Y-11957448D02*
X17566384Y-11947924D01*
X17566384Y-11947924D02*
X17585432Y-11938400D01*
X17585432Y-11938400D02*
X17614003Y-11938400D01*
X17614003Y-11938400D02*
X17633051Y-11947924D01*
X17633051Y-11947924D02*
X17642575Y-11957448D01*
X17642575Y-11957448D02*
X17652099Y-11976495D01*
X17652099Y-11976495D02*
X17652099Y-12033638D01*
X17652099Y-12033638D02*
X17642575Y-12052686D01*
X17642575Y-12052686D02*
X17633051Y-12062210D01*
X17633051Y-12062210D02*
X17614003Y-12071733D01*
X17614003Y-12071733D02*
X17585432Y-12071733D01*
X17766384Y-12071733D02*
X17747337Y-12062210D01*
X17747337Y-12062210D02*
X17737813Y-12043162D01*
X17737813Y-12043162D02*
X17737813Y-11871733D01*
X17918765Y-12062210D02*
X17899718Y-12071733D01*
X17899718Y-12071733D02*
X17861622Y-12071733D01*
X17861622Y-12071733D02*
X17842575Y-12062210D01*
X17842575Y-12062210D02*
X17833051Y-12043162D01*
X17833051Y-12043162D02*
X17833051Y-11966971D01*
X17833051Y-11966971D02*
X17842575Y-11947924D01*
X17842575Y-11947924D02*
X17861622Y-11938400D01*
X17861622Y-11938400D02*
X17899718Y-11938400D01*
X17899718Y-11938400D02*
X17918765Y-11947924D01*
X17918765Y-11947924D02*
X17928289Y-11966971D01*
X17928289Y-11966971D02*
X17928289Y-11986019D01*
X17928289Y-11986019D02*
X17833051Y-12005067D01*
X17994956Y-12147924D02*
X18004480Y-12138400D01*
X18004480Y-12138400D02*
X18023527Y-12109829D01*
X18023527Y-12109829D02*
X18033051Y-12090781D01*
X18033051Y-12090781D02*
X18042575Y-12062210D01*
X18042575Y-12062210D02*
X18052099Y-12014590D01*
X18052099Y-12014590D02*
X18052099Y-11976495D01*
X18052099Y-11976495D02*
X18042575Y-11928876D01*
X18042575Y-11928876D02*
X18033051Y-11900305D01*
X18033051Y-11900305D02*
X18023527Y-11881257D01*
X18023527Y-11881257D02*
X18004480Y-11852686D01*
X18004480Y-11852686D02*
X17994956Y-11843162D01*
D14*
X13343797Y-12206250D02*
X13343797Y-12282250D01*
X13305797Y-12244250D02*
X13381797Y-12244250D01*
D11*
X13680669Y-12135733D02*
X13699717Y-12135733D01*
X13699717Y-12135733D02*
X13718765Y-12145257D01*
X13718765Y-12145257D02*
X13728289Y-12154781D01*
X13728289Y-12154781D02*
X13737812Y-12173829D01*
X13737812Y-12173829D02*
X13747336Y-12211924D01*
X13747336Y-12211924D02*
X13747336Y-12259543D01*
X13747336Y-12259543D02*
X13737812Y-12297638D01*
X13737812Y-12297638D02*
X13728289Y-12316686D01*
X13728289Y-12316686D02*
X13718765Y-12326210D01*
X13718765Y-12326210D02*
X13699717Y-12335733D01*
X13699717Y-12335733D02*
X13680669Y-12335733D01*
X13680669Y-12335733D02*
X13661622Y-12326210D01*
X13661622Y-12326210D02*
X13652098Y-12316686D01*
X13652098Y-12316686D02*
X13642574Y-12297638D01*
X13642574Y-12297638D02*
X13633050Y-12259543D01*
X13633050Y-12259543D02*
X13633050Y-12211924D01*
X13633050Y-12211924D02*
X13642574Y-12173829D01*
X13642574Y-12173829D02*
X13652098Y-12154781D01*
X13652098Y-12154781D02*
X13661622Y-12145257D01*
X13661622Y-12145257D02*
X13680669Y-12135733D01*
X13833050Y-12316686D02*
X13842574Y-12326210D01*
X13842574Y-12326210D02*
X13833050Y-12335733D01*
X13833050Y-12335733D02*
X13823527Y-12326210D01*
X13823527Y-12326210D02*
X13833050Y-12316686D01*
X13833050Y-12316686D02*
X13833050Y-12335733D01*
X13909241Y-12135733D02*
X14042574Y-12135733D01*
X14042574Y-12135733D02*
X13956860Y-12335733D01*
X14204479Y-12135733D02*
X14166384Y-12135733D01*
X14166384Y-12135733D02*
X14147336Y-12145257D01*
X14147336Y-12145257D02*
X14137812Y-12154781D01*
X14137812Y-12154781D02*
X14118765Y-12183352D01*
X14118765Y-12183352D02*
X14109241Y-12221448D01*
X14109241Y-12221448D02*
X14109241Y-12297638D01*
X14109241Y-12297638D02*
X14118765Y-12316686D01*
X14118765Y-12316686D02*
X14128289Y-12326210D01*
X14128289Y-12326210D02*
X14147336Y-12335733D01*
X14147336Y-12335733D02*
X14185431Y-12335733D01*
X14185431Y-12335733D02*
X14204479Y-12326210D01*
X14204479Y-12326210D02*
X14214003Y-12316686D01*
X14214003Y-12316686D02*
X14223527Y-12297638D01*
X14223527Y-12297638D02*
X14223527Y-12250019D01*
X14223527Y-12250019D02*
X14214003Y-12230971D01*
X14214003Y-12230971D02*
X14204479Y-12221448D01*
X14204479Y-12221448D02*
X14185431Y-12211924D01*
X14185431Y-12211924D02*
X14147336Y-12211924D01*
X14147336Y-12211924D02*
X14128289Y-12221448D01*
X14128289Y-12221448D02*
X14118765Y-12230971D01*
X14118765Y-12230971D02*
X14109241Y-12250019D01*
X14347336Y-12135733D02*
X14366384Y-12135733D01*
X14366384Y-12135733D02*
X14385431Y-12145257D01*
X14385431Y-12145257D02*
X14394955Y-12154781D01*
X14394955Y-12154781D02*
X14404479Y-12173829D01*
X14404479Y-12173829D02*
X14414003Y-12211924D01*
X14414003Y-12211924D02*
X14414003Y-12259543D01*
X14414003Y-12259543D02*
X14404479Y-12297638D01*
X14404479Y-12297638D02*
X14394955Y-12316686D01*
X14394955Y-12316686D02*
X14385431Y-12326210D01*
X14385431Y-12326210D02*
X14366384Y-12335733D01*
X14366384Y-12335733D02*
X14347336Y-12335733D01*
X14347336Y-12335733D02*
X14328289Y-12326210D01*
X14328289Y-12326210D02*
X14318765Y-12316686D01*
X14318765Y-12316686D02*
X14309241Y-12297638D01*
X14309241Y-12297638D02*
X14299717Y-12259543D01*
X14299717Y-12259543D02*
X14299717Y-12211924D01*
X14299717Y-12211924D02*
X14309241Y-12173829D01*
X14309241Y-12173829D02*
X14318765Y-12154781D01*
X14318765Y-12154781D02*
X14328289Y-12145257D01*
X14328289Y-12145257D02*
X14347336Y-12135733D01*
X14499717Y-12335733D02*
X14499717Y-12202400D01*
X14499717Y-12221448D02*
X14509241Y-12211924D01*
X14509241Y-12211924D02*
X14528289Y-12202400D01*
X14528289Y-12202400D02*
X14556860Y-12202400D01*
X14556860Y-12202400D02*
X14575908Y-12211924D01*
X14575908Y-12211924D02*
X14585431Y-12230971D01*
X14585431Y-12230971D02*
X14585431Y-12335733D01*
X14585431Y-12230971D02*
X14594955Y-12211924D01*
X14594955Y-12211924D02*
X14614003Y-12202400D01*
X14614003Y-12202400D02*
X14642574Y-12202400D01*
X14642574Y-12202400D02*
X14661622Y-12211924D01*
X14661622Y-12211924D02*
X14671146Y-12230971D01*
X14671146Y-12230971D02*
X14671146Y-12335733D01*
X14766384Y-12335733D02*
X14766384Y-12202400D01*
X14766384Y-12221448D02*
X14775908Y-12211924D01*
X14775908Y-12211924D02*
X14794955Y-12202400D01*
X14794955Y-12202400D02*
X14823527Y-12202400D01*
X14823527Y-12202400D02*
X14842574Y-12211924D01*
X14842574Y-12211924D02*
X14852098Y-12230971D01*
X14852098Y-12230971D02*
X14852098Y-12335733D01*
X14852098Y-12230971D02*
X14861622Y-12211924D01*
X14861622Y-12211924D02*
X14880670Y-12202400D01*
X14880670Y-12202400D02*
X14909241Y-12202400D01*
X14909241Y-12202400D02*
X14928289Y-12211924D01*
X14928289Y-12211924D02*
X14937812Y-12230971D01*
X14937812Y-12230971D02*
X14937812Y-12335733D01*
X15328289Y-12126210D02*
X15156860Y-12383352D01*
X15585432Y-12135733D02*
X15604479Y-12135733D01*
X15604479Y-12135733D02*
X15623527Y-12145257D01*
X15623527Y-12145257D02*
X15633051Y-12154781D01*
X15633051Y-12154781D02*
X15642574Y-12173829D01*
X15642574Y-12173829D02*
X15652098Y-12211924D01*
X15652098Y-12211924D02*
X15652098Y-12259543D01*
X15652098Y-12259543D02*
X15642574Y-12297638D01*
X15642574Y-12297638D02*
X15633051Y-12316686D01*
X15633051Y-12316686D02*
X15623527Y-12326210D01*
X15623527Y-12326210D02*
X15604479Y-12335733D01*
X15604479Y-12335733D02*
X15585432Y-12335733D01*
X15585432Y-12335733D02*
X15566384Y-12326210D01*
X15566384Y-12326210D02*
X15556860Y-12316686D01*
X15556860Y-12316686D02*
X15547336Y-12297638D01*
X15547336Y-12297638D02*
X15537813Y-12259543D01*
X15537813Y-12259543D02*
X15537813Y-12211924D01*
X15537813Y-12211924D02*
X15547336Y-12173829D01*
X15547336Y-12173829D02*
X15556860Y-12154781D01*
X15556860Y-12154781D02*
X15566384Y-12145257D01*
X15566384Y-12145257D02*
X15585432Y-12135733D01*
X15737813Y-12316686D02*
X15747336Y-12326210D01*
X15747336Y-12326210D02*
X15737813Y-12335733D01*
X15737813Y-12335733D02*
X15728289Y-12326210D01*
X15728289Y-12326210D02*
X15737813Y-12316686D01*
X15737813Y-12316686D02*
X15737813Y-12335733D01*
X15871146Y-12135733D02*
X15890194Y-12135733D01*
X15890194Y-12135733D02*
X15909241Y-12145257D01*
X15909241Y-12145257D02*
X15918765Y-12154781D01*
X15918765Y-12154781D02*
X15928289Y-12173829D01*
X15928289Y-12173829D02*
X15937813Y-12211924D01*
X15937813Y-12211924D02*
X15937813Y-12259543D01*
X15937813Y-12259543D02*
X15928289Y-12297638D01*
X15928289Y-12297638D02*
X15918765Y-12316686D01*
X15918765Y-12316686D02*
X15909241Y-12326210D01*
X15909241Y-12326210D02*
X15890194Y-12335733D01*
X15890194Y-12335733D02*
X15871146Y-12335733D01*
X15871146Y-12335733D02*
X15852098Y-12326210D01*
X15852098Y-12326210D02*
X15842574Y-12316686D01*
X15842574Y-12316686D02*
X15833051Y-12297638D01*
X15833051Y-12297638D02*
X15823527Y-12259543D01*
X15823527Y-12259543D02*
X15823527Y-12211924D01*
X15823527Y-12211924D02*
X15833051Y-12173829D01*
X15833051Y-12173829D02*
X15842574Y-12154781D01*
X15842574Y-12154781D02*
X15852098Y-12145257D01*
X15852098Y-12145257D02*
X15871146Y-12135733D01*
X16014003Y-12154781D02*
X16023527Y-12145257D01*
X16023527Y-12145257D02*
X16042574Y-12135733D01*
X16042574Y-12135733D02*
X16090194Y-12135733D01*
X16090194Y-12135733D02*
X16109241Y-12145257D01*
X16109241Y-12145257D02*
X16118765Y-12154781D01*
X16118765Y-12154781D02*
X16128289Y-12173829D01*
X16128289Y-12173829D02*
X16128289Y-12192876D01*
X16128289Y-12192876D02*
X16118765Y-12221448D01*
X16118765Y-12221448D02*
X16004479Y-12335733D01*
X16004479Y-12335733D02*
X16128289Y-12335733D01*
X16223527Y-12335733D02*
X16261622Y-12335733D01*
X16261622Y-12335733D02*
X16280670Y-12326210D01*
X16280670Y-12326210D02*
X16290194Y-12316686D01*
X16290194Y-12316686D02*
X16309241Y-12288114D01*
X16309241Y-12288114D02*
X16318765Y-12250019D01*
X16318765Y-12250019D02*
X16318765Y-12173829D01*
X16318765Y-12173829D02*
X16309241Y-12154781D01*
X16309241Y-12154781D02*
X16299717Y-12145257D01*
X16299717Y-12145257D02*
X16280670Y-12135733D01*
X16280670Y-12135733D02*
X16242574Y-12135733D01*
X16242574Y-12135733D02*
X16223527Y-12145257D01*
X16223527Y-12145257D02*
X16214003Y-12154781D01*
X16214003Y-12154781D02*
X16204479Y-12173829D01*
X16204479Y-12173829D02*
X16204479Y-12221448D01*
X16204479Y-12221448D02*
X16214003Y-12240495D01*
X16214003Y-12240495D02*
X16223527Y-12250019D01*
X16223527Y-12250019D02*
X16242574Y-12259543D01*
X16242574Y-12259543D02*
X16280670Y-12259543D01*
X16280670Y-12259543D02*
X16299717Y-12250019D01*
X16299717Y-12250019D02*
X16309241Y-12240495D01*
X16309241Y-12240495D02*
X16318765Y-12221448D01*
X16414003Y-12335733D02*
X16452098Y-12335733D01*
X16452098Y-12335733D02*
X16471146Y-12326210D01*
X16471146Y-12326210D02*
X16480670Y-12316686D01*
X16480670Y-12316686D02*
X16499717Y-12288114D01*
X16499717Y-12288114D02*
X16509241Y-12250019D01*
X16509241Y-12250019D02*
X16509241Y-12173829D01*
X16509241Y-12173829D02*
X16499717Y-12154781D01*
X16499717Y-12154781D02*
X16490194Y-12145257D01*
X16490194Y-12145257D02*
X16471146Y-12135733D01*
X16471146Y-12135733D02*
X16433051Y-12135733D01*
X16433051Y-12135733D02*
X16414003Y-12145257D01*
X16414003Y-12145257D02*
X16404479Y-12154781D01*
X16404479Y-12154781D02*
X16394955Y-12173829D01*
X16394955Y-12173829D02*
X16394955Y-12221448D01*
X16394955Y-12221448D02*
X16404479Y-12240495D01*
X16404479Y-12240495D02*
X16414003Y-12250019D01*
X16414003Y-12250019D02*
X16433051Y-12259543D01*
X16433051Y-12259543D02*
X16471146Y-12259543D01*
X16471146Y-12259543D02*
X16490194Y-12250019D01*
X16490194Y-12250019D02*
X16499717Y-12240495D01*
X16499717Y-12240495D02*
X16509241Y-12221448D01*
X16585432Y-12135733D02*
X16585432Y-12173829D01*
X16661622Y-12135733D02*
X16661622Y-12173829D01*
X16956860Y-12411924D02*
X16947337Y-12402400D01*
X16947337Y-12402400D02*
X16928289Y-12373829D01*
X16928289Y-12373829D02*
X16918765Y-12354781D01*
X16918765Y-12354781D02*
X16909241Y-12326210D01*
X16909241Y-12326210D02*
X16899718Y-12278590D01*
X16899718Y-12278590D02*
X16899718Y-12240495D01*
X16899718Y-12240495D02*
X16909241Y-12192876D01*
X16909241Y-12192876D02*
X16918765Y-12164305D01*
X16918765Y-12164305D02*
X16928289Y-12145257D01*
X16928289Y-12145257D02*
X16947337Y-12116686D01*
X16947337Y-12116686D02*
X16956860Y-12107162D01*
X17061622Y-12221448D02*
X17042575Y-12211924D01*
X17042575Y-12211924D02*
X17033051Y-12202400D01*
X17033051Y-12202400D02*
X17023527Y-12183352D01*
X17023527Y-12183352D02*
X17023527Y-12173829D01*
X17023527Y-12173829D02*
X17033051Y-12154781D01*
X17033051Y-12154781D02*
X17042575Y-12145257D01*
X17042575Y-12145257D02*
X17061622Y-12135733D01*
X17061622Y-12135733D02*
X17099718Y-12135733D01*
X17099718Y-12135733D02*
X17118765Y-12145257D01*
X17118765Y-12145257D02*
X17128289Y-12154781D01*
X17128289Y-12154781D02*
X17137813Y-12173829D01*
X17137813Y-12173829D02*
X17137813Y-12183352D01*
X17137813Y-12183352D02*
X17128289Y-12202400D01*
X17128289Y-12202400D02*
X17118765Y-12211924D01*
X17118765Y-12211924D02*
X17099718Y-12221448D01*
X17099718Y-12221448D02*
X17061622Y-12221448D01*
X17061622Y-12221448D02*
X17042575Y-12230971D01*
X17042575Y-12230971D02*
X17033051Y-12240495D01*
X17033051Y-12240495D02*
X17023527Y-12259543D01*
X17023527Y-12259543D02*
X17023527Y-12297638D01*
X17023527Y-12297638D02*
X17033051Y-12316686D01*
X17033051Y-12316686D02*
X17042575Y-12326210D01*
X17042575Y-12326210D02*
X17061622Y-12335733D01*
X17061622Y-12335733D02*
X17099718Y-12335733D01*
X17099718Y-12335733D02*
X17118765Y-12326210D01*
X17118765Y-12326210D02*
X17128289Y-12316686D01*
X17128289Y-12316686D02*
X17137813Y-12297638D01*
X17137813Y-12297638D02*
X17137813Y-12259543D01*
X17137813Y-12259543D02*
X17128289Y-12240495D01*
X17128289Y-12240495D02*
X17118765Y-12230971D01*
X17118765Y-12230971D02*
X17099718Y-12221448D01*
X17375908Y-12335733D02*
X17375908Y-12135733D01*
X17461622Y-12335733D02*
X17461622Y-12230971D01*
X17461622Y-12230971D02*
X17452099Y-12211924D01*
X17452099Y-12211924D02*
X17433051Y-12202400D01*
X17433051Y-12202400D02*
X17404479Y-12202400D01*
X17404479Y-12202400D02*
X17385432Y-12211924D01*
X17385432Y-12211924D02*
X17375908Y-12221448D01*
X17585432Y-12335733D02*
X17566384Y-12326210D01*
X17566384Y-12326210D02*
X17556860Y-12316686D01*
X17556860Y-12316686D02*
X17547337Y-12297638D01*
X17547337Y-12297638D02*
X17547337Y-12240495D01*
X17547337Y-12240495D02*
X17556860Y-12221448D01*
X17556860Y-12221448D02*
X17566384Y-12211924D01*
X17566384Y-12211924D02*
X17585432Y-12202400D01*
X17585432Y-12202400D02*
X17614003Y-12202400D01*
X17614003Y-12202400D02*
X17633051Y-12211924D01*
X17633051Y-12211924D02*
X17642575Y-12221448D01*
X17642575Y-12221448D02*
X17652099Y-12240495D01*
X17652099Y-12240495D02*
X17652099Y-12297638D01*
X17652099Y-12297638D02*
X17642575Y-12316686D01*
X17642575Y-12316686D02*
X17633051Y-12326210D01*
X17633051Y-12326210D02*
X17614003Y-12335733D01*
X17614003Y-12335733D02*
X17585432Y-12335733D01*
X17766384Y-12335733D02*
X17747337Y-12326210D01*
X17747337Y-12326210D02*
X17737813Y-12307162D01*
X17737813Y-12307162D02*
X17737813Y-12135733D01*
X17918765Y-12326210D02*
X17899718Y-12335733D01*
X17899718Y-12335733D02*
X17861622Y-12335733D01*
X17861622Y-12335733D02*
X17842575Y-12326210D01*
X17842575Y-12326210D02*
X17833051Y-12307162D01*
X17833051Y-12307162D02*
X17833051Y-12230971D01*
X17833051Y-12230971D02*
X17842575Y-12211924D01*
X17842575Y-12211924D02*
X17861622Y-12202400D01*
X17861622Y-12202400D02*
X17899718Y-12202400D01*
X17899718Y-12202400D02*
X17918765Y-12211924D01*
X17918765Y-12211924D02*
X17928289Y-12230971D01*
X17928289Y-12230971D02*
X17928289Y-12250019D01*
X17928289Y-12250019D02*
X17833051Y-12269067D01*
X18004480Y-12326210D02*
X18023527Y-12335733D01*
X18023527Y-12335733D02*
X18061622Y-12335733D01*
X18061622Y-12335733D02*
X18080670Y-12326210D01*
X18080670Y-12326210D02*
X18090194Y-12307162D01*
X18090194Y-12307162D02*
X18090194Y-12297638D01*
X18090194Y-12297638D02*
X18080670Y-12278590D01*
X18080670Y-12278590D02*
X18061622Y-12269067D01*
X18061622Y-12269067D02*
X18033051Y-12269067D01*
X18033051Y-12269067D02*
X18014003Y-12259543D01*
X18014003Y-12259543D02*
X18004480Y-12240495D01*
X18004480Y-12240495D02*
X18004480Y-12230971D01*
X18004480Y-12230971D02*
X18014003Y-12211924D01*
X18014003Y-12211924D02*
X18033051Y-12202400D01*
X18033051Y-12202400D02*
X18061622Y-12202400D01*
X18061622Y-12202400D02*
X18080670Y-12211924D01*
X18156861Y-12411924D02*
X18166384Y-12402400D01*
X18166384Y-12402400D02*
X18185432Y-12373829D01*
X18185432Y-12373829D02*
X18194956Y-12354781D01*
X18194956Y-12354781D02*
X18204480Y-12326210D01*
X18204480Y-12326210D02*
X18214003Y-12278590D01*
X18214003Y-12278590D02*
X18214003Y-12240495D01*
X18214003Y-12240495D02*
X18204480Y-12192876D01*
X18204480Y-12192876D02*
X18194956Y-12164305D01*
X18194956Y-12164305D02*
X18185432Y-12145257D01*
X18185432Y-12145257D02*
X18166384Y-12116686D01*
X18166384Y-12116686D02*
X18156861Y-12107162D01*
D15*
X13367885Y-12541837D02*
X13367885Y-12474662D01*
X13300710Y-12474662D01*
X13300710Y-12541837D01*
X13367885Y-12541837D01*
D11*
X13680669Y-12399733D02*
X13699717Y-12399733D01*
X13699717Y-12399733D02*
X13718765Y-12409257D01*
X13718765Y-12409257D02*
X13728289Y-12418781D01*
X13728289Y-12418781D02*
X13737812Y-12437829D01*
X13737812Y-12437829D02*
X13747336Y-12475924D01*
X13747336Y-12475924D02*
X13747336Y-12523543D01*
X13747336Y-12523543D02*
X13737812Y-12561638D01*
X13737812Y-12561638D02*
X13728289Y-12580686D01*
X13728289Y-12580686D02*
X13718765Y-12590210D01*
X13718765Y-12590210D02*
X13699717Y-12599733D01*
X13699717Y-12599733D02*
X13680669Y-12599733D01*
X13680669Y-12599733D02*
X13661622Y-12590210D01*
X13661622Y-12590210D02*
X13652098Y-12580686D01*
X13652098Y-12580686D02*
X13642574Y-12561638D01*
X13642574Y-12561638D02*
X13633050Y-12523543D01*
X13633050Y-12523543D02*
X13633050Y-12475924D01*
X13633050Y-12475924D02*
X13642574Y-12437829D01*
X13642574Y-12437829D02*
X13652098Y-12418781D01*
X13652098Y-12418781D02*
X13661622Y-12409257D01*
X13661622Y-12409257D02*
X13680669Y-12399733D01*
X13833050Y-12580686D02*
X13842574Y-12590210D01*
X13842574Y-12590210D02*
X13833050Y-12599733D01*
X13833050Y-12599733D02*
X13823527Y-12590210D01*
X13823527Y-12590210D02*
X13833050Y-12580686D01*
X13833050Y-12580686D02*
X13833050Y-12599733D01*
X13937812Y-12599733D02*
X13975908Y-12599733D01*
X13975908Y-12599733D02*
X13994955Y-12590210D01*
X13994955Y-12590210D02*
X14004479Y-12580686D01*
X14004479Y-12580686D02*
X14023527Y-12552114D01*
X14023527Y-12552114D02*
X14033050Y-12514019D01*
X14033050Y-12514019D02*
X14033050Y-12437829D01*
X14033050Y-12437829D02*
X14023527Y-12418781D01*
X14023527Y-12418781D02*
X14014003Y-12409257D01*
X14014003Y-12409257D02*
X13994955Y-12399733D01*
X13994955Y-12399733D02*
X13956860Y-12399733D01*
X13956860Y-12399733D02*
X13937812Y-12409257D01*
X13937812Y-12409257D02*
X13928289Y-12418781D01*
X13928289Y-12418781D02*
X13918765Y-12437829D01*
X13918765Y-12437829D02*
X13918765Y-12485448D01*
X13918765Y-12485448D02*
X13928289Y-12504495D01*
X13928289Y-12504495D02*
X13937812Y-12514019D01*
X13937812Y-12514019D02*
X13956860Y-12523543D01*
X13956860Y-12523543D02*
X13994955Y-12523543D01*
X13994955Y-12523543D02*
X14014003Y-12514019D01*
X14014003Y-12514019D02*
X14023527Y-12504495D01*
X14023527Y-12504495D02*
X14033050Y-12485448D01*
X14214003Y-12399733D02*
X14118765Y-12399733D01*
X14118765Y-12399733D02*
X14109241Y-12494971D01*
X14109241Y-12494971D02*
X14118765Y-12485448D01*
X14118765Y-12485448D02*
X14137812Y-12475924D01*
X14137812Y-12475924D02*
X14185431Y-12475924D01*
X14185431Y-12475924D02*
X14204479Y-12485448D01*
X14204479Y-12485448D02*
X14214003Y-12494971D01*
X14214003Y-12494971D02*
X14223527Y-12514019D01*
X14223527Y-12514019D02*
X14223527Y-12561638D01*
X14223527Y-12561638D02*
X14214003Y-12580686D01*
X14214003Y-12580686D02*
X14204479Y-12590210D01*
X14204479Y-12590210D02*
X14185431Y-12599733D01*
X14185431Y-12599733D02*
X14137812Y-12599733D01*
X14137812Y-12599733D02*
X14118765Y-12590210D01*
X14118765Y-12590210D02*
X14109241Y-12580686D01*
X14347336Y-12399733D02*
X14366384Y-12399733D01*
X14366384Y-12399733D02*
X14385431Y-12409257D01*
X14385431Y-12409257D02*
X14394955Y-12418781D01*
X14394955Y-12418781D02*
X14404479Y-12437829D01*
X14404479Y-12437829D02*
X14414003Y-12475924D01*
X14414003Y-12475924D02*
X14414003Y-12523543D01*
X14414003Y-12523543D02*
X14404479Y-12561638D01*
X14404479Y-12561638D02*
X14394955Y-12580686D01*
X14394955Y-12580686D02*
X14385431Y-12590210D01*
X14385431Y-12590210D02*
X14366384Y-12599733D01*
X14366384Y-12599733D02*
X14347336Y-12599733D01*
X14347336Y-12599733D02*
X14328289Y-12590210D01*
X14328289Y-12590210D02*
X14318765Y-12580686D01*
X14318765Y-12580686D02*
X14309241Y-12561638D01*
X14309241Y-12561638D02*
X14299717Y-12523543D01*
X14299717Y-12523543D02*
X14299717Y-12475924D01*
X14299717Y-12475924D02*
X14309241Y-12437829D01*
X14309241Y-12437829D02*
X14318765Y-12418781D01*
X14318765Y-12418781D02*
X14328289Y-12409257D01*
X14328289Y-12409257D02*
X14347336Y-12399733D01*
X14499717Y-12599733D02*
X14499717Y-12466400D01*
X14499717Y-12485448D02*
X14509241Y-12475924D01*
X14509241Y-12475924D02*
X14528289Y-12466400D01*
X14528289Y-12466400D02*
X14556860Y-12466400D01*
X14556860Y-12466400D02*
X14575908Y-12475924D01*
X14575908Y-12475924D02*
X14585431Y-12494971D01*
X14585431Y-12494971D02*
X14585431Y-12599733D01*
X14585431Y-12494971D02*
X14594955Y-12475924D01*
X14594955Y-12475924D02*
X14614003Y-12466400D01*
X14614003Y-12466400D02*
X14642574Y-12466400D01*
X14642574Y-12466400D02*
X14661622Y-12475924D01*
X14661622Y-12475924D02*
X14671146Y-12494971D01*
X14671146Y-12494971D02*
X14671146Y-12599733D01*
X14766384Y-12599733D02*
X14766384Y-12466400D01*
X14766384Y-12485448D02*
X14775908Y-12475924D01*
X14775908Y-12475924D02*
X14794955Y-12466400D01*
X14794955Y-12466400D02*
X14823527Y-12466400D01*
X14823527Y-12466400D02*
X14842574Y-12475924D01*
X14842574Y-12475924D02*
X14852098Y-12494971D01*
X14852098Y-12494971D02*
X14852098Y-12599733D01*
X14852098Y-12494971D02*
X14861622Y-12475924D01*
X14861622Y-12475924D02*
X14880670Y-12466400D01*
X14880670Y-12466400D02*
X14909241Y-12466400D01*
X14909241Y-12466400D02*
X14928289Y-12475924D01*
X14928289Y-12475924D02*
X14937812Y-12494971D01*
X14937812Y-12494971D02*
X14937812Y-12599733D01*
X15328289Y-12390210D02*
X15156860Y-12647352D01*
X15585432Y-12399733D02*
X15604479Y-12399733D01*
X15604479Y-12399733D02*
X15623527Y-12409257D01*
X15623527Y-12409257D02*
X15633051Y-12418781D01*
X15633051Y-12418781D02*
X15642574Y-12437829D01*
X15642574Y-12437829D02*
X15652098Y-12475924D01*
X15652098Y-12475924D02*
X15652098Y-12523543D01*
X15652098Y-12523543D02*
X15642574Y-12561638D01*
X15642574Y-12561638D02*
X15633051Y-12580686D01*
X15633051Y-12580686D02*
X15623527Y-12590210D01*
X15623527Y-12590210D02*
X15604479Y-12599733D01*
X15604479Y-12599733D02*
X15585432Y-12599733D01*
X15585432Y-12599733D02*
X15566384Y-12590210D01*
X15566384Y-12590210D02*
X15556860Y-12580686D01*
X15556860Y-12580686D02*
X15547336Y-12561638D01*
X15547336Y-12561638D02*
X15537813Y-12523543D01*
X15537813Y-12523543D02*
X15537813Y-12475924D01*
X15537813Y-12475924D02*
X15547336Y-12437829D01*
X15547336Y-12437829D02*
X15556860Y-12418781D01*
X15556860Y-12418781D02*
X15566384Y-12409257D01*
X15566384Y-12409257D02*
X15585432Y-12399733D01*
X15737813Y-12580686D02*
X15747336Y-12590210D01*
X15747336Y-12590210D02*
X15737813Y-12599733D01*
X15737813Y-12599733D02*
X15728289Y-12590210D01*
X15728289Y-12590210D02*
X15737813Y-12580686D01*
X15737813Y-12580686D02*
X15737813Y-12599733D01*
X15871146Y-12399733D02*
X15890194Y-12399733D01*
X15890194Y-12399733D02*
X15909241Y-12409257D01*
X15909241Y-12409257D02*
X15918765Y-12418781D01*
X15918765Y-12418781D02*
X15928289Y-12437829D01*
X15928289Y-12437829D02*
X15937813Y-12475924D01*
X15937813Y-12475924D02*
X15937813Y-12523543D01*
X15937813Y-12523543D02*
X15928289Y-12561638D01*
X15928289Y-12561638D02*
X15918765Y-12580686D01*
X15918765Y-12580686D02*
X15909241Y-12590210D01*
X15909241Y-12590210D02*
X15890194Y-12599733D01*
X15890194Y-12599733D02*
X15871146Y-12599733D01*
X15871146Y-12599733D02*
X15852098Y-12590210D01*
X15852098Y-12590210D02*
X15842574Y-12580686D01*
X15842574Y-12580686D02*
X15833051Y-12561638D01*
X15833051Y-12561638D02*
X15823527Y-12523543D01*
X15823527Y-12523543D02*
X15823527Y-12475924D01*
X15823527Y-12475924D02*
X15833051Y-12437829D01*
X15833051Y-12437829D02*
X15842574Y-12418781D01*
X15842574Y-12418781D02*
X15852098Y-12409257D01*
X15852098Y-12409257D02*
X15871146Y-12399733D01*
X16004479Y-12399733D02*
X16128289Y-12399733D01*
X16128289Y-12399733D02*
X16061622Y-12475924D01*
X16061622Y-12475924D02*
X16090194Y-12475924D01*
X16090194Y-12475924D02*
X16109241Y-12485448D01*
X16109241Y-12485448D02*
X16118765Y-12494971D01*
X16118765Y-12494971D02*
X16128289Y-12514019D01*
X16128289Y-12514019D02*
X16128289Y-12561638D01*
X16128289Y-12561638D02*
X16118765Y-12580686D01*
X16118765Y-12580686D02*
X16109241Y-12590210D01*
X16109241Y-12590210D02*
X16090194Y-12599733D01*
X16090194Y-12599733D02*
X16033051Y-12599733D01*
X16033051Y-12599733D02*
X16014003Y-12590210D01*
X16014003Y-12590210D02*
X16004479Y-12580686D01*
X16194955Y-12399733D02*
X16328289Y-12399733D01*
X16328289Y-12399733D02*
X16242574Y-12599733D01*
X16490194Y-12466400D02*
X16490194Y-12599733D01*
X16442574Y-12390210D02*
X16394955Y-12533067D01*
X16394955Y-12533067D02*
X16518765Y-12533067D01*
X16585432Y-12399733D02*
X16585432Y-12437829D01*
X16661622Y-12399733D02*
X16661622Y-12437829D01*
X16956860Y-12675924D02*
X16947337Y-12666400D01*
X16947337Y-12666400D02*
X16928289Y-12637829D01*
X16928289Y-12637829D02*
X16918765Y-12618781D01*
X16918765Y-12618781D02*
X16909241Y-12590210D01*
X16909241Y-12590210D02*
X16899718Y-12542590D01*
X16899718Y-12542590D02*
X16899718Y-12504495D01*
X16899718Y-12504495D02*
X16909241Y-12456876D01*
X16909241Y-12456876D02*
X16918765Y-12428305D01*
X16918765Y-12428305D02*
X16928289Y-12409257D01*
X16928289Y-12409257D02*
X16947337Y-12380686D01*
X16947337Y-12380686D02*
X16956860Y-12371162D01*
X17061622Y-12485448D02*
X17042575Y-12475924D01*
X17042575Y-12475924D02*
X17033051Y-12466400D01*
X17033051Y-12466400D02*
X17023527Y-12447352D01*
X17023527Y-12447352D02*
X17023527Y-12437829D01*
X17023527Y-12437829D02*
X17033051Y-12418781D01*
X17033051Y-12418781D02*
X17042575Y-12409257D01*
X17042575Y-12409257D02*
X17061622Y-12399733D01*
X17061622Y-12399733D02*
X17099718Y-12399733D01*
X17099718Y-12399733D02*
X17118765Y-12409257D01*
X17118765Y-12409257D02*
X17128289Y-12418781D01*
X17128289Y-12418781D02*
X17137813Y-12437829D01*
X17137813Y-12437829D02*
X17137813Y-12447352D01*
X17137813Y-12447352D02*
X17128289Y-12466400D01*
X17128289Y-12466400D02*
X17118765Y-12475924D01*
X17118765Y-12475924D02*
X17099718Y-12485448D01*
X17099718Y-12485448D02*
X17061622Y-12485448D01*
X17061622Y-12485448D02*
X17042575Y-12494971D01*
X17042575Y-12494971D02*
X17033051Y-12504495D01*
X17033051Y-12504495D02*
X17023527Y-12523543D01*
X17023527Y-12523543D02*
X17023527Y-12561638D01*
X17023527Y-12561638D02*
X17033051Y-12580686D01*
X17033051Y-12580686D02*
X17042575Y-12590210D01*
X17042575Y-12590210D02*
X17061622Y-12599733D01*
X17061622Y-12599733D02*
X17099718Y-12599733D01*
X17099718Y-12599733D02*
X17118765Y-12590210D01*
X17118765Y-12590210D02*
X17128289Y-12580686D01*
X17128289Y-12580686D02*
X17137813Y-12561638D01*
X17137813Y-12561638D02*
X17137813Y-12523543D01*
X17137813Y-12523543D02*
X17128289Y-12504495D01*
X17128289Y-12504495D02*
X17118765Y-12494971D01*
X17118765Y-12494971D02*
X17099718Y-12485448D01*
X17375908Y-12599733D02*
X17375908Y-12399733D01*
X17461622Y-12599733D02*
X17461622Y-12494971D01*
X17461622Y-12494971D02*
X17452099Y-12475924D01*
X17452099Y-12475924D02*
X17433051Y-12466400D01*
X17433051Y-12466400D02*
X17404479Y-12466400D01*
X17404479Y-12466400D02*
X17385432Y-12475924D01*
X17385432Y-12475924D02*
X17375908Y-12485448D01*
X17585432Y-12599733D02*
X17566384Y-12590210D01*
X17566384Y-12590210D02*
X17556860Y-12580686D01*
X17556860Y-12580686D02*
X17547337Y-12561638D01*
X17547337Y-12561638D02*
X17547337Y-12504495D01*
X17547337Y-12504495D02*
X17556860Y-12485448D01*
X17556860Y-12485448D02*
X17566384Y-12475924D01*
X17566384Y-12475924D02*
X17585432Y-12466400D01*
X17585432Y-12466400D02*
X17614003Y-12466400D01*
X17614003Y-12466400D02*
X17633051Y-12475924D01*
X17633051Y-12475924D02*
X17642575Y-12485448D01*
X17642575Y-12485448D02*
X17652099Y-12504495D01*
X17652099Y-12504495D02*
X17652099Y-12561638D01*
X17652099Y-12561638D02*
X17642575Y-12580686D01*
X17642575Y-12580686D02*
X17633051Y-12590210D01*
X17633051Y-12590210D02*
X17614003Y-12599733D01*
X17614003Y-12599733D02*
X17585432Y-12599733D01*
X17766384Y-12599733D02*
X17747337Y-12590210D01*
X17747337Y-12590210D02*
X17737813Y-12571162D01*
X17737813Y-12571162D02*
X17737813Y-12399733D01*
X17918765Y-12590210D02*
X17899718Y-12599733D01*
X17899718Y-12599733D02*
X17861622Y-12599733D01*
X17861622Y-12599733D02*
X17842575Y-12590210D01*
X17842575Y-12590210D02*
X17833051Y-12571162D01*
X17833051Y-12571162D02*
X17833051Y-12494971D01*
X17833051Y-12494971D02*
X17842575Y-12475924D01*
X17842575Y-12475924D02*
X17861622Y-12466400D01*
X17861622Y-12466400D02*
X17899718Y-12466400D01*
X17899718Y-12466400D02*
X17918765Y-12475924D01*
X17918765Y-12475924D02*
X17928289Y-12494971D01*
X17928289Y-12494971D02*
X17928289Y-12514019D01*
X17928289Y-12514019D02*
X17833051Y-12533067D01*
X18004480Y-12590210D02*
X18023527Y-12599733D01*
X18023527Y-12599733D02*
X18061622Y-12599733D01*
X18061622Y-12599733D02*
X18080670Y-12590210D01*
X18080670Y-12590210D02*
X18090194Y-12571162D01*
X18090194Y-12571162D02*
X18090194Y-12561638D01*
X18090194Y-12561638D02*
X18080670Y-12542590D01*
X18080670Y-12542590D02*
X18061622Y-12533067D01*
X18061622Y-12533067D02*
X18033051Y-12533067D01*
X18033051Y-12533067D02*
X18014003Y-12523543D01*
X18014003Y-12523543D02*
X18004480Y-12504495D01*
X18004480Y-12504495D02*
X18004480Y-12494971D01*
X18004480Y-12494971D02*
X18014003Y-12475924D01*
X18014003Y-12475924D02*
X18033051Y-12466400D01*
X18033051Y-12466400D02*
X18061622Y-12466400D01*
X18061622Y-12466400D02*
X18080670Y-12475924D01*
X18156861Y-12675924D02*
X18166384Y-12666400D01*
X18166384Y-12666400D02*
X18185432Y-12637829D01*
X18185432Y-12637829D02*
X18194956Y-12618781D01*
X18194956Y-12618781D02*
X18204480Y-12590210D01*
X18204480Y-12590210D02*
X18214003Y-12542590D01*
X18214003Y-12542590D02*
X18214003Y-12504495D01*
X18214003Y-12504495D02*
X18204480Y-12456876D01*
X18204480Y-12456876D02*
X18194956Y-12428305D01*
X18194956Y-12428305D02*
X18185432Y-12409257D01*
X18185432Y-12409257D02*
X18166384Y-12380686D01*
X18166384Y-12380686D02*
X18156861Y-12371162D01*
D16*
X13317297Y-12836750D02*
X13381797Y-12772250D01*
X13317297Y-12707750D01*
X13252797Y-12772250D01*
X13317297Y-12836750D01*
D11*
X13747336Y-12863733D02*
X13633050Y-12863733D01*
X13690193Y-12863733D02*
X13690193Y-12663733D01*
X13690193Y-12663733D02*
X13671146Y-12692305D01*
X13671146Y-12692305D02*
X13652098Y-12711352D01*
X13652098Y-12711352D02*
X13633050Y-12720876D01*
X13833050Y-12844686D02*
X13842574Y-12854210D01*
X13842574Y-12854210D02*
X13833050Y-12863733D01*
X13833050Y-12863733D02*
X13823527Y-12854210D01*
X13823527Y-12854210D02*
X13833050Y-12844686D01*
X13833050Y-12844686D02*
X13833050Y-12863733D01*
X13918765Y-12682781D02*
X13928289Y-12673257D01*
X13928289Y-12673257D02*
X13947336Y-12663733D01*
X13947336Y-12663733D02*
X13994955Y-12663733D01*
X13994955Y-12663733D02*
X14014003Y-12673257D01*
X14014003Y-12673257D02*
X14023527Y-12682781D01*
X14023527Y-12682781D02*
X14033050Y-12701829D01*
X14033050Y-12701829D02*
X14033050Y-12720876D01*
X14033050Y-12720876D02*
X14023527Y-12749448D01*
X14023527Y-12749448D02*
X13909241Y-12863733D01*
X13909241Y-12863733D02*
X14033050Y-12863733D01*
X14128289Y-12863733D02*
X14166384Y-12863733D01*
X14166384Y-12863733D02*
X14185431Y-12854210D01*
X14185431Y-12854210D02*
X14194955Y-12844686D01*
X14194955Y-12844686D02*
X14214003Y-12816114D01*
X14214003Y-12816114D02*
X14223527Y-12778019D01*
X14223527Y-12778019D02*
X14223527Y-12701829D01*
X14223527Y-12701829D02*
X14214003Y-12682781D01*
X14214003Y-12682781D02*
X14204479Y-12673257D01*
X14204479Y-12673257D02*
X14185431Y-12663733D01*
X14185431Y-12663733D02*
X14147336Y-12663733D01*
X14147336Y-12663733D02*
X14128289Y-12673257D01*
X14128289Y-12673257D02*
X14118765Y-12682781D01*
X14118765Y-12682781D02*
X14109241Y-12701829D01*
X14109241Y-12701829D02*
X14109241Y-12749448D01*
X14109241Y-12749448D02*
X14118765Y-12768495D01*
X14118765Y-12768495D02*
X14128289Y-12778019D01*
X14128289Y-12778019D02*
X14147336Y-12787543D01*
X14147336Y-12787543D02*
X14185431Y-12787543D01*
X14185431Y-12787543D02*
X14204479Y-12778019D01*
X14204479Y-12778019D02*
X14214003Y-12768495D01*
X14214003Y-12768495D02*
X14223527Y-12749448D01*
X14347336Y-12663733D02*
X14366384Y-12663733D01*
X14366384Y-12663733D02*
X14385431Y-12673257D01*
X14385431Y-12673257D02*
X14394955Y-12682781D01*
X14394955Y-12682781D02*
X14404479Y-12701829D01*
X14404479Y-12701829D02*
X14414003Y-12739924D01*
X14414003Y-12739924D02*
X14414003Y-12787543D01*
X14414003Y-12787543D02*
X14404479Y-12825638D01*
X14404479Y-12825638D02*
X14394955Y-12844686D01*
X14394955Y-12844686D02*
X14385431Y-12854210D01*
X14385431Y-12854210D02*
X14366384Y-12863733D01*
X14366384Y-12863733D02*
X14347336Y-12863733D01*
X14347336Y-12863733D02*
X14328289Y-12854210D01*
X14328289Y-12854210D02*
X14318765Y-12844686D01*
X14318765Y-12844686D02*
X14309241Y-12825638D01*
X14309241Y-12825638D02*
X14299717Y-12787543D01*
X14299717Y-12787543D02*
X14299717Y-12739924D01*
X14299717Y-12739924D02*
X14309241Y-12701829D01*
X14309241Y-12701829D02*
X14318765Y-12682781D01*
X14318765Y-12682781D02*
X14328289Y-12673257D01*
X14328289Y-12673257D02*
X14347336Y-12663733D01*
X14499717Y-12863733D02*
X14499717Y-12730400D01*
X14499717Y-12749448D02*
X14509241Y-12739924D01*
X14509241Y-12739924D02*
X14528289Y-12730400D01*
X14528289Y-12730400D02*
X14556860Y-12730400D01*
X14556860Y-12730400D02*
X14575908Y-12739924D01*
X14575908Y-12739924D02*
X14585431Y-12758971D01*
X14585431Y-12758971D02*
X14585431Y-12863733D01*
X14585431Y-12758971D02*
X14594955Y-12739924D01*
X14594955Y-12739924D02*
X14614003Y-12730400D01*
X14614003Y-12730400D02*
X14642574Y-12730400D01*
X14642574Y-12730400D02*
X14661622Y-12739924D01*
X14661622Y-12739924D02*
X14671146Y-12758971D01*
X14671146Y-12758971D02*
X14671146Y-12863733D01*
X14766384Y-12863733D02*
X14766384Y-12730400D01*
X14766384Y-12749448D02*
X14775908Y-12739924D01*
X14775908Y-12739924D02*
X14794955Y-12730400D01*
X14794955Y-12730400D02*
X14823527Y-12730400D01*
X14823527Y-12730400D02*
X14842574Y-12739924D01*
X14842574Y-12739924D02*
X14852098Y-12758971D01*
X14852098Y-12758971D02*
X14852098Y-12863733D01*
X14852098Y-12758971D02*
X14861622Y-12739924D01*
X14861622Y-12739924D02*
X14880670Y-12730400D01*
X14880670Y-12730400D02*
X14909241Y-12730400D01*
X14909241Y-12730400D02*
X14928289Y-12739924D01*
X14928289Y-12739924D02*
X14937812Y-12758971D01*
X14937812Y-12758971D02*
X14937812Y-12863733D01*
X15328289Y-12654210D02*
X15156860Y-12911352D01*
X15585432Y-12663733D02*
X15604479Y-12663733D01*
X15604479Y-12663733D02*
X15623527Y-12673257D01*
X15623527Y-12673257D02*
X15633051Y-12682781D01*
X15633051Y-12682781D02*
X15642574Y-12701829D01*
X15642574Y-12701829D02*
X15652098Y-12739924D01*
X15652098Y-12739924D02*
X15652098Y-12787543D01*
X15652098Y-12787543D02*
X15642574Y-12825638D01*
X15642574Y-12825638D02*
X15633051Y-12844686D01*
X15633051Y-12844686D02*
X15623527Y-12854210D01*
X15623527Y-12854210D02*
X15604479Y-12863733D01*
X15604479Y-12863733D02*
X15585432Y-12863733D01*
X15585432Y-12863733D02*
X15566384Y-12854210D01*
X15566384Y-12854210D02*
X15556860Y-12844686D01*
X15556860Y-12844686D02*
X15547336Y-12825638D01*
X15547336Y-12825638D02*
X15537813Y-12787543D01*
X15537813Y-12787543D02*
X15537813Y-12739924D01*
X15537813Y-12739924D02*
X15547336Y-12701829D01*
X15547336Y-12701829D02*
X15556860Y-12682781D01*
X15556860Y-12682781D02*
X15566384Y-12673257D01*
X15566384Y-12673257D02*
X15585432Y-12663733D01*
X15737813Y-12844686D02*
X15747336Y-12854210D01*
X15747336Y-12854210D02*
X15737813Y-12863733D01*
X15737813Y-12863733D02*
X15728289Y-12854210D01*
X15728289Y-12854210D02*
X15737813Y-12844686D01*
X15737813Y-12844686D02*
X15737813Y-12863733D01*
X15871146Y-12663733D02*
X15890194Y-12663733D01*
X15890194Y-12663733D02*
X15909241Y-12673257D01*
X15909241Y-12673257D02*
X15918765Y-12682781D01*
X15918765Y-12682781D02*
X15928289Y-12701829D01*
X15928289Y-12701829D02*
X15937813Y-12739924D01*
X15937813Y-12739924D02*
X15937813Y-12787543D01*
X15937813Y-12787543D02*
X15928289Y-12825638D01*
X15928289Y-12825638D02*
X15918765Y-12844686D01*
X15918765Y-12844686D02*
X15909241Y-12854210D01*
X15909241Y-12854210D02*
X15890194Y-12863733D01*
X15890194Y-12863733D02*
X15871146Y-12863733D01*
X15871146Y-12863733D02*
X15852098Y-12854210D01*
X15852098Y-12854210D02*
X15842574Y-12844686D01*
X15842574Y-12844686D02*
X15833051Y-12825638D01*
X15833051Y-12825638D02*
X15823527Y-12787543D01*
X15823527Y-12787543D02*
X15823527Y-12739924D01*
X15823527Y-12739924D02*
X15833051Y-12701829D01*
X15833051Y-12701829D02*
X15842574Y-12682781D01*
X15842574Y-12682781D02*
X15852098Y-12673257D01*
X15852098Y-12673257D02*
X15871146Y-12663733D01*
X16118765Y-12663733D02*
X16023527Y-12663733D01*
X16023527Y-12663733D02*
X16014003Y-12758971D01*
X16014003Y-12758971D02*
X16023527Y-12749448D01*
X16023527Y-12749448D02*
X16042574Y-12739924D01*
X16042574Y-12739924D02*
X16090194Y-12739924D01*
X16090194Y-12739924D02*
X16109241Y-12749448D01*
X16109241Y-12749448D02*
X16118765Y-12758971D01*
X16118765Y-12758971D02*
X16128289Y-12778019D01*
X16128289Y-12778019D02*
X16128289Y-12825638D01*
X16128289Y-12825638D02*
X16118765Y-12844686D01*
X16118765Y-12844686D02*
X16109241Y-12854210D01*
X16109241Y-12854210D02*
X16090194Y-12863733D01*
X16090194Y-12863733D02*
X16042574Y-12863733D01*
X16042574Y-12863733D02*
X16023527Y-12854210D01*
X16023527Y-12854210D02*
X16014003Y-12844686D01*
X16252098Y-12663733D02*
X16271146Y-12663733D01*
X16271146Y-12663733D02*
X16290194Y-12673257D01*
X16290194Y-12673257D02*
X16299717Y-12682781D01*
X16299717Y-12682781D02*
X16309241Y-12701829D01*
X16309241Y-12701829D02*
X16318765Y-12739924D01*
X16318765Y-12739924D02*
X16318765Y-12787543D01*
X16318765Y-12787543D02*
X16309241Y-12825638D01*
X16309241Y-12825638D02*
X16299717Y-12844686D01*
X16299717Y-12844686D02*
X16290194Y-12854210D01*
X16290194Y-12854210D02*
X16271146Y-12863733D01*
X16271146Y-12863733D02*
X16252098Y-12863733D01*
X16252098Y-12863733D02*
X16233051Y-12854210D01*
X16233051Y-12854210D02*
X16223527Y-12844686D01*
X16223527Y-12844686D02*
X16214003Y-12825638D01*
X16214003Y-12825638D02*
X16204479Y-12787543D01*
X16204479Y-12787543D02*
X16204479Y-12739924D01*
X16204479Y-12739924D02*
X16214003Y-12701829D01*
X16214003Y-12701829D02*
X16223527Y-12682781D01*
X16223527Y-12682781D02*
X16233051Y-12673257D01*
X16233051Y-12673257D02*
X16252098Y-12663733D01*
X16433051Y-12749448D02*
X16414003Y-12739924D01*
X16414003Y-12739924D02*
X16404479Y-12730400D01*
X16404479Y-12730400D02*
X16394955Y-12711352D01*
X16394955Y-12711352D02*
X16394955Y-12701829D01*
X16394955Y-12701829D02*
X16404479Y-12682781D01*
X16404479Y-12682781D02*
X16414003Y-12673257D01*
X16414003Y-12673257D02*
X16433051Y-12663733D01*
X16433051Y-12663733D02*
X16471146Y-12663733D01*
X16471146Y-12663733D02*
X16490194Y-12673257D01*
X16490194Y-12673257D02*
X16499717Y-12682781D01*
X16499717Y-12682781D02*
X16509241Y-12701829D01*
X16509241Y-12701829D02*
X16509241Y-12711352D01*
X16509241Y-12711352D02*
X16499717Y-12730400D01*
X16499717Y-12730400D02*
X16490194Y-12739924D01*
X16490194Y-12739924D02*
X16471146Y-12749448D01*
X16471146Y-12749448D02*
X16433051Y-12749448D01*
X16433051Y-12749448D02*
X16414003Y-12758971D01*
X16414003Y-12758971D02*
X16404479Y-12768495D01*
X16404479Y-12768495D02*
X16394955Y-12787543D01*
X16394955Y-12787543D02*
X16394955Y-12825638D01*
X16394955Y-12825638D02*
X16404479Y-12844686D01*
X16404479Y-12844686D02*
X16414003Y-12854210D01*
X16414003Y-12854210D02*
X16433051Y-12863733D01*
X16433051Y-12863733D02*
X16471146Y-12863733D01*
X16471146Y-12863733D02*
X16490194Y-12854210D01*
X16490194Y-12854210D02*
X16499717Y-12844686D01*
X16499717Y-12844686D02*
X16509241Y-12825638D01*
X16509241Y-12825638D02*
X16509241Y-12787543D01*
X16509241Y-12787543D02*
X16499717Y-12768495D01*
X16499717Y-12768495D02*
X16490194Y-12758971D01*
X16490194Y-12758971D02*
X16471146Y-12749448D01*
X16585432Y-12663733D02*
X16585432Y-12701829D01*
X16661622Y-12663733D02*
X16661622Y-12701829D01*
X16956860Y-12939924D02*
X16947337Y-12930400D01*
X16947337Y-12930400D02*
X16928289Y-12901829D01*
X16928289Y-12901829D02*
X16918765Y-12882781D01*
X16918765Y-12882781D02*
X16909241Y-12854210D01*
X16909241Y-12854210D02*
X16899718Y-12806590D01*
X16899718Y-12806590D02*
X16899718Y-12768495D01*
X16899718Y-12768495D02*
X16909241Y-12720876D01*
X16909241Y-12720876D02*
X16918765Y-12692305D01*
X16918765Y-12692305D02*
X16928289Y-12673257D01*
X16928289Y-12673257D02*
X16947337Y-12644686D01*
X16947337Y-12644686D02*
X16956860Y-12635162D01*
X17023527Y-12682781D02*
X17033051Y-12673257D01*
X17033051Y-12673257D02*
X17052098Y-12663733D01*
X17052098Y-12663733D02*
X17099718Y-12663733D01*
X17099718Y-12663733D02*
X17118765Y-12673257D01*
X17118765Y-12673257D02*
X17128289Y-12682781D01*
X17128289Y-12682781D02*
X17137813Y-12701829D01*
X17137813Y-12701829D02*
X17137813Y-12720876D01*
X17137813Y-12720876D02*
X17128289Y-12749448D01*
X17128289Y-12749448D02*
X17014003Y-12863733D01*
X17014003Y-12863733D02*
X17137813Y-12863733D01*
X17375908Y-12863733D02*
X17375908Y-12663733D01*
X17461622Y-12863733D02*
X17461622Y-12758971D01*
X17461622Y-12758971D02*
X17452099Y-12739924D01*
X17452099Y-12739924D02*
X17433051Y-12730400D01*
X17433051Y-12730400D02*
X17404479Y-12730400D01*
X17404479Y-12730400D02*
X17385432Y-12739924D01*
X17385432Y-12739924D02*
X17375908Y-12749448D01*
X17585432Y-12863733D02*
X17566384Y-12854210D01*
X17566384Y-12854210D02*
X17556860Y-12844686D01*
X17556860Y-12844686D02*
X17547337Y-12825638D01*
X17547337Y-12825638D02*
X17547337Y-12768495D01*
X17547337Y-12768495D02*
X17556860Y-12749448D01*
X17556860Y-12749448D02*
X17566384Y-12739924D01*
X17566384Y-12739924D02*
X17585432Y-12730400D01*
X17585432Y-12730400D02*
X17614003Y-12730400D01*
X17614003Y-12730400D02*
X17633051Y-12739924D01*
X17633051Y-12739924D02*
X17642575Y-12749448D01*
X17642575Y-12749448D02*
X17652099Y-12768495D01*
X17652099Y-12768495D02*
X17652099Y-12825638D01*
X17652099Y-12825638D02*
X17642575Y-12844686D01*
X17642575Y-12844686D02*
X17633051Y-12854210D01*
X17633051Y-12854210D02*
X17614003Y-12863733D01*
X17614003Y-12863733D02*
X17585432Y-12863733D01*
X17766384Y-12863733D02*
X17747337Y-12854210D01*
X17747337Y-12854210D02*
X17737813Y-12835162D01*
X17737813Y-12835162D02*
X17737813Y-12663733D01*
X17918765Y-12854210D02*
X17899718Y-12863733D01*
X17899718Y-12863733D02*
X17861622Y-12863733D01*
X17861622Y-12863733D02*
X17842575Y-12854210D01*
X17842575Y-12854210D02*
X17833051Y-12835162D01*
X17833051Y-12835162D02*
X17833051Y-12758971D01*
X17833051Y-12758971D02*
X17842575Y-12739924D01*
X17842575Y-12739924D02*
X17861622Y-12730400D01*
X17861622Y-12730400D02*
X17899718Y-12730400D01*
X17899718Y-12730400D02*
X17918765Y-12739924D01*
X17918765Y-12739924D02*
X17928289Y-12758971D01*
X17928289Y-12758971D02*
X17928289Y-12778019D01*
X17928289Y-12778019D02*
X17833051Y-12797067D01*
X18004480Y-12854210D02*
X18023527Y-12863733D01*
X18023527Y-12863733D02*
X18061622Y-12863733D01*
X18061622Y-12863733D02*
X18080670Y-12854210D01*
X18080670Y-12854210D02*
X18090194Y-12835162D01*
X18090194Y-12835162D02*
X18090194Y-12825638D01*
X18090194Y-12825638D02*
X18080670Y-12806590D01*
X18080670Y-12806590D02*
X18061622Y-12797067D01*
X18061622Y-12797067D02*
X18033051Y-12797067D01*
X18033051Y-12797067D02*
X18014003Y-12787543D01*
X18014003Y-12787543D02*
X18004480Y-12768495D01*
X18004480Y-12768495D02*
X18004480Y-12758971D01*
X18004480Y-12758971D02*
X18014003Y-12739924D01*
X18014003Y-12739924D02*
X18033051Y-12730400D01*
X18033051Y-12730400D02*
X18061622Y-12730400D01*
X18061622Y-12730400D02*
X18080670Y-12739924D01*
X18156861Y-12939924D02*
X18166384Y-12930400D01*
X18166384Y-12930400D02*
X18185432Y-12901829D01*
X18185432Y-12901829D02*
X18194956Y-12882781D01*
X18194956Y-12882781D02*
X18204480Y-12854210D01*
X18204480Y-12854210D02*
X18214003Y-12806590D01*
X18214003Y-12806590D02*
X18214003Y-12768495D01*
X18214003Y-12768495D02*
X18204480Y-12720876D01*
X18204480Y-12720876D02*
X18194956Y-12692305D01*
X18194956Y-12692305D02*
X18185432Y-12673257D01*
X18185432Y-12673257D02*
X18166384Y-12644686D01*
X18166384Y-12644686D02*
X18156861Y-12635162D01*
D17*
X13249797Y-12970250D02*
X13381797Y-13102250D01*
X13381797Y-12970250D02*
X13249797Y-13102250D01*
X13381797Y-13036250D02*
G75*
G03*
X13381797Y-13036250I-66000J0D01*
G01*
D11*
X13747336Y-13127733D02*
X13633050Y-13127733D01*
X13690193Y-13127733D02*
X13690193Y-12927733D01*
X13690193Y-12927733D02*
X13671146Y-12956305D01*
X13671146Y-12956305D02*
X13652098Y-12975352D01*
X13652098Y-12975352D02*
X13633050Y-12984876D01*
X13833050Y-13108686D02*
X13842574Y-13118210D01*
X13842574Y-13118210D02*
X13833050Y-13127733D01*
X13833050Y-13127733D02*
X13823527Y-13118210D01*
X13823527Y-13118210D02*
X13833050Y-13108686D01*
X13833050Y-13108686D02*
X13833050Y-13127733D01*
X13909241Y-12927733D02*
X14033050Y-12927733D01*
X14033050Y-12927733D02*
X13966384Y-13003924D01*
X13966384Y-13003924D02*
X13994955Y-13003924D01*
X13994955Y-13003924D02*
X14014003Y-13013448D01*
X14014003Y-13013448D02*
X14023527Y-13022971D01*
X14023527Y-13022971D02*
X14033050Y-13042019D01*
X14033050Y-13042019D02*
X14033050Y-13089638D01*
X14033050Y-13089638D02*
X14023527Y-13108686D01*
X14023527Y-13108686D02*
X14014003Y-13118210D01*
X14014003Y-13118210D02*
X13994955Y-13127733D01*
X13994955Y-13127733D02*
X13937812Y-13127733D01*
X13937812Y-13127733D02*
X13918765Y-13118210D01*
X13918765Y-13118210D02*
X13909241Y-13108686D01*
X14109241Y-12946781D02*
X14118765Y-12937257D01*
X14118765Y-12937257D02*
X14137812Y-12927733D01*
X14137812Y-12927733D02*
X14185431Y-12927733D01*
X14185431Y-12927733D02*
X14204479Y-12937257D01*
X14204479Y-12937257D02*
X14214003Y-12946781D01*
X14214003Y-12946781D02*
X14223527Y-12965829D01*
X14223527Y-12965829D02*
X14223527Y-12984876D01*
X14223527Y-12984876D02*
X14214003Y-13013448D01*
X14214003Y-13013448D02*
X14099717Y-13127733D01*
X14099717Y-13127733D02*
X14223527Y-13127733D01*
X14347336Y-12927733D02*
X14366384Y-12927733D01*
X14366384Y-12927733D02*
X14385431Y-12937257D01*
X14385431Y-12937257D02*
X14394955Y-12946781D01*
X14394955Y-12946781D02*
X14404479Y-12965829D01*
X14404479Y-12965829D02*
X14414003Y-13003924D01*
X14414003Y-13003924D02*
X14414003Y-13051543D01*
X14414003Y-13051543D02*
X14404479Y-13089638D01*
X14404479Y-13089638D02*
X14394955Y-13108686D01*
X14394955Y-13108686D02*
X14385431Y-13118210D01*
X14385431Y-13118210D02*
X14366384Y-13127733D01*
X14366384Y-13127733D02*
X14347336Y-13127733D01*
X14347336Y-13127733D02*
X14328289Y-13118210D01*
X14328289Y-13118210D02*
X14318765Y-13108686D01*
X14318765Y-13108686D02*
X14309241Y-13089638D01*
X14309241Y-13089638D02*
X14299717Y-13051543D01*
X14299717Y-13051543D02*
X14299717Y-13003924D01*
X14299717Y-13003924D02*
X14309241Y-12965829D01*
X14309241Y-12965829D02*
X14318765Y-12946781D01*
X14318765Y-12946781D02*
X14328289Y-12937257D01*
X14328289Y-12937257D02*
X14347336Y-12927733D01*
X14499717Y-13127733D02*
X14499717Y-12994400D01*
X14499717Y-13013448D02*
X14509241Y-13003924D01*
X14509241Y-13003924D02*
X14528289Y-12994400D01*
X14528289Y-12994400D02*
X14556860Y-12994400D01*
X14556860Y-12994400D02*
X14575908Y-13003924D01*
X14575908Y-13003924D02*
X14585431Y-13022971D01*
X14585431Y-13022971D02*
X14585431Y-13127733D01*
X14585431Y-13022971D02*
X14594955Y-13003924D01*
X14594955Y-13003924D02*
X14614003Y-12994400D01*
X14614003Y-12994400D02*
X14642574Y-12994400D01*
X14642574Y-12994400D02*
X14661622Y-13003924D01*
X14661622Y-13003924D02*
X14671146Y-13022971D01*
X14671146Y-13022971D02*
X14671146Y-13127733D01*
X14766384Y-13127733D02*
X14766384Y-12994400D01*
X14766384Y-13013448D02*
X14775908Y-13003924D01*
X14775908Y-13003924D02*
X14794955Y-12994400D01*
X14794955Y-12994400D02*
X14823527Y-12994400D01*
X14823527Y-12994400D02*
X14842574Y-13003924D01*
X14842574Y-13003924D02*
X14852098Y-13022971D01*
X14852098Y-13022971D02*
X14852098Y-13127733D01*
X14852098Y-13022971D02*
X14861622Y-13003924D01*
X14861622Y-13003924D02*
X14880670Y-12994400D01*
X14880670Y-12994400D02*
X14909241Y-12994400D01*
X14909241Y-12994400D02*
X14928289Y-13003924D01*
X14928289Y-13003924D02*
X14937812Y-13022971D01*
X14937812Y-13022971D02*
X14937812Y-13127733D01*
X15328289Y-12918210D02*
X15156860Y-13175352D01*
X15585432Y-12927733D02*
X15604479Y-12927733D01*
X15604479Y-12927733D02*
X15623527Y-12937257D01*
X15623527Y-12937257D02*
X15633051Y-12946781D01*
X15633051Y-12946781D02*
X15642574Y-12965829D01*
X15642574Y-12965829D02*
X15652098Y-13003924D01*
X15652098Y-13003924D02*
X15652098Y-13051543D01*
X15652098Y-13051543D02*
X15642574Y-13089638D01*
X15642574Y-13089638D02*
X15633051Y-13108686D01*
X15633051Y-13108686D02*
X15623527Y-13118210D01*
X15623527Y-13118210D02*
X15604479Y-13127733D01*
X15604479Y-13127733D02*
X15585432Y-13127733D01*
X15585432Y-13127733D02*
X15566384Y-13118210D01*
X15566384Y-13118210D02*
X15556860Y-13108686D01*
X15556860Y-13108686D02*
X15547336Y-13089638D01*
X15547336Y-13089638D02*
X15537813Y-13051543D01*
X15537813Y-13051543D02*
X15537813Y-13003924D01*
X15537813Y-13003924D02*
X15547336Y-12965829D01*
X15547336Y-12965829D02*
X15556860Y-12946781D01*
X15556860Y-12946781D02*
X15566384Y-12937257D01*
X15566384Y-12937257D02*
X15585432Y-12927733D01*
X15737813Y-13108686D02*
X15747336Y-13118210D01*
X15747336Y-13118210D02*
X15737813Y-13127733D01*
X15737813Y-13127733D02*
X15728289Y-13118210D01*
X15728289Y-13118210D02*
X15737813Y-13108686D01*
X15737813Y-13108686D02*
X15737813Y-13127733D01*
X15871146Y-12927733D02*
X15890194Y-12927733D01*
X15890194Y-12927733D02*
X15909241Y-12937257D01*
X15909241Y-12937257D02*
X15918765Y-12946781D01*
X15918765Y-12946781D02*
X15928289Y-12965829D01*
X15928289Y-12965829D02*
X15937813Y-13003924D01*
X15937813Y-13003924D02*
X15937813Y-13051543D01*
X15937813Y-13051543D02*
X15928289Y-13089638D01*
X15928289Y-13089638D02*
X15918765Y-13108686D01*
X15918765Y-13108686D02*
X15909241Y-13118210D01*
X15909241Y-13118210D02*
X15890194Y-13127733D01*
X15890194Y-13127733D02*
X15871146Y-13127733D01*
X15871146Y-13127733D02*
X15852098Y-13118210D01*
X15852098Y-13118210D02*
X15842574Y-13108686D01*
X15842574Y-13108686D02*
X15833051Y-13089638D01*
X15833051Y-13089638D02*
X15823527Y-13051543D01*
X15823527Y-13051543D02*
X15823527Y-13003924D01*
X15823527Y-13003924D02*
X15833051Y-12965829D01*
X15833051Y-12965829D02*
X15842574Y-12946781D01*
X15842574Y-12946781D02*
X15852098Y-12937257D01*
X15852098Y-12937257D02*
X15871146Y-12927733D01*
X16118765Y-12927733D02*
X16023527Y-12927733D01*
X16023527Y-12927733D02*
X16014003Y-13022971D01*
X16014003Y-13022971D02*
X16023527Y-13013448D01*
X16023527Y-13013448D02*
X16042574Y-13003924D01*
X16042574Y-13003924D02*
X16090194Y-13003924D01*
X16090194Y-13003924D02*
X16109241Y-13013448D01*
X16109241Y-13013448D02*
X16118765Y-13022971D01*
X16118765Y-13022971D02*
X16128289Y-13042019D01*
X16128289Y-13042019D02*
X16128289Y-13089638D01*
X16128289Y-13089638D02*
X16118765Y-13108686D01*
X16118765Y-13108686D02*
X16109241Y-13118210D01*
X16109241Y-13118210D02*
X16090194Y-13127733D01*
X16090194Y-13127733D02*
X16042574Y-13127733D01*
X16042574Y-13127733D02*
X16023527Y-13118210D01*
X16023527Y-13118210D02*
X16014003Y-13108686D01*
X16204479Y-12946781D02*
X16214003Y-12937257D01*
X16214003Y-12937257D02*
X16233051Y-12927733D01*
X16233051Y-12927733D02*
X16280670Y-12927733D01*
X16280670Y-12927733D02*
X16299717Y-12937257D01*
X16299717Y-12937257D02*
X16309241Y-12946781D01*
X16309241Y-12946781D02*
X16318765Y-12965829D01*
X16318765Y-12965829D02*
X16318765Y-12984876D01*
X16318765Y-12984876D02*
X16309241Y-13013448D01*
X16309241Y-13013448D02*
X16194955Y-13127733D01*
X16194955Y-13127733D02*
X16318765Y-13127733D01*
X16442574Y-12927733D02*
X16461622Y-12927733D01*
X16461622Y-12927733D02*
X16480670Y-12937257D01*
X16480670Y-12937257D02*
X16490194Y-12946781D01*
X16490194Y-12946781D02*
X16499717Y-12965829D01*
X16499717Y-12965829D02*
X16509241Y-13003924D01*
X16509241Y-13003924D02*
X16509241Y-13051543D01*
X16509241Y-13051543D02*
X16499717Y-13089638D01*
X16499717Y-13089638D02*
X16490194Y-13108686D01*
X16490194Y-13108686D02*
X16480670Y-13118210D01*
X16480670Y-13118210D02*
X16461622Y-13127733D01*
X16461622Y-13127733D02*
X16442574Y-13127733D01*
X16442574Y-13127733D02*
X16423527Y-13118210D01*
X16423527Y-13118210D02*
X16414003Y-13108686D01*
X16414003Y-13108686D02*
X16404479Y-13089638D01*
X16404479Y-13089638D02*
X16394955Y-13051543D01*
X16394955Y-13051543D02*
X16394955Y-13003924D01*
X16394955Y-13003924D02*
X16404479Y-12965829D01*
X16404479Y-12965829D02*
X16414003Y-12946781D01*
X16414003Y-12946781D02*
X16423527Y-12937257D01*
X16423527Y-12937257D02*
X16442574Y-12927733D01*
X16585432Y-12927733D02*
X16585432Y-12965829D01*
X16661622Y-12927733D02*
X16661622Y-12965829D01*
X16956860Y-13203924D02*
X16947337Y-13194400D01*
X16947337Y-13194400D02*
X16928289Y-13165829D01*
X16928289Y-13165829D02*
X16918765Y-13146781D01*
X16918765Y-13146781D02*
X16909241Y-13118210D01*
X16909241Y-13118210D02*
X16899718Y-13070590D01*
X16899718Y-13070590D02*
X16899718Y-13032495D01*
X16899718Y-13032495D02*
X16909241Y-12984876D01*
X16909241Y-12984876D02*
X16918765Y-12956305D01*
X16918765Y-12956305D02*
X16928289Y-12937257D01*
X16928289Y-12937257D02*
X16947337Y-12908686D01*
X16947337Y-12908686D02*
X16956860Y-12899162D01*
X17061622Y-13013448D02*
X17042575Y-13003924D01*
X17042575Y-13003924D02*
X17033051Y-12994400D01*
X17033051Y-12994400D02*
X17023527Y-12975352D01*
X17023527Y-12975352D02*
X17023527Y-12965829D01*
X17023527Y-12965829D02*
X17033051Y-12946781D01*
X17033051Y-12946781D02*
X17042575Y-12937257D01*
X17042575Y-12937257D02*
X17061622Y-12927733D01*
X17061622Y-12927733D02*
X17099718Y-12927733D01*
X17099718Y-12927733D02*
X17118765Y-12937257D01*
X17118765Y-12937257D02*
X17128289Y-12946781D01*
X17128289Y-12946781D02*
X17137813Y-12965829D01*
X17137813Y-12965829D02*
X17137813Y-12975352D01*
X17137813Y-12975352D02*
X17128289Y-12994400D01*
X17128289Y-12994400D02*
X17118765Y-13003924D01*
X17118765Y-13003924D02*
X17099718Y-13013448D01*
X17099718Y-13013448D02*
X17061622Y-13013448D01*
X17061622Y-13013448D02*
X17042575Y-13022971D01*
X17042575Y-13022971D02*
X17033051Y-13032495D01*
X17033051Y-13032495D02*
X17023527Y-13051543D01*
X17023527Y-13051543D02*
X17023527Y-13089638D01*
X17023527Y-13089638D02*
X17033051Y-13108686D01*
X17033051Y-13108686D02*
X17042575Y-13118210D01*
X17042575Y-13118210D02*
X17061622Y-13127733D01*
X17061622Y-13127733D02*
X17099718Y-13127733D01*
X17099718Y-13127733D02*
X17118765Y-13118210D01*
X17118765Y-13118210D02*
X17128289Y-13108686D01*
X17128289Y-13108686D02*
X17137813Y-13089638D01*
X17137813Y-13089638D02*
X17137813Y-13051543D01*
X17137813Y-13051543D02*
X17128289Y-13032495D01*
X17128289Y-13032495D02*
X17118765Y-13022971D01*
X17118765Y-13022971D02*
X17099718Y-13013448D01*
X17375908Y-13127733D02*
X17375908Y-12927733D01*
X17461622Y-13127733D02*
X17461622Y-13022971D01*
X17461622Y-13022971D02*
X17452099Y-13003924D01*
X17452099Y-13003924D02*
X17433051Y-12994400D01*
X17433051Y-12994400D02*
X17404479Y-12994400D01*
X17404479Y-12994400D02*
X17385432Y-13003924D01*
X17385432Y-13003924D02*
X17375908Y-13013448D01*
X17585432Y-13127733D02*
X17566384Y-13118210D01*
X17566384Y-13118210D02*
X17556860Y-13108686D01*
X17556860Y-13108686D02*
X17547337Y-13089638D01*
X17547337Y-13089638D02*
X17547337Y-13032495D01*
X17547337Y-13032495D02*
X17556860Y-13013448D01*
X17556860Y-13013448D02*
X17566384Y-13003924D01*
X17566384Y-13003924D02*
X17585432Y-12994400D01*
X17585432Y-12994400D02*
X17614003Y-12994400D01*
X17614003Y-12994400D02*
X17633051Y-13003924D01*
X17633051Y-13003924D02*
X17642575Y-13013448D01*
X17642575Y-13013448D02*
X17652099Y-13032495D01*
X17652099Y-13032495D02*
X17652099Y-13089638D01*
X17652099Y-13089638D02*
X17642575Y-13108686D01*
X17642575Y-13108686D02*
X17633051Y-13118210D01*
X17633051Y-13118210D02*
X17614003Y-13127733D01*
X17614003Y-13127733D02*
X17585432Y-13127733D01*
X17766384Y-13127733D02*
X17747337Y-13118210D01*
X17747337Y-13118210D02*
X17737813Y-13099162D01*
X17737813Y-13099162D02*
X17737813Y-12927733D01*
X17918765Y-13118210D02*
X17899718Y-13127733D01*
X17899718Y-13127733D02*
X17861622Y-13127733D01*
X17861622Y-13127733D02*
X17842575Y-13118210D01*
X17842575Y-13118210D02*
X17833051Y-13099162D01*
X17833051Y-13099162D02*
X17833051Y-13022971D01*
X17833051Y-13022971D02*
X17842575Y-13003924D01*
X17842575Y-13003924D02*
X17861622Y-12994400D01*
X17861622Y-12994400D02*
X17899718Y-12994400D01*
X17899718Y-12994400D02*
X17918765Y-13003924D01*
X17918765Y-13003924D02*
X17928289Y-13022971D01*
X17928289Y-13022971D02*
X17928289Y-13042019D01*
X17928289Y-13042019D02*
X17833051Y-13061067D01*
X18004480Y-13118210D02*
X18023527Y-13127733D01*
X18023527Y-13127733D02*
X18061622Y-13127733D01*
X18061622Y-13127733D02*
X18080670Y-13118210D01*
X18080670Y-13118210D02*
X18090194Y-13099162D01*
X18090194Y-13099162D02*
X18090194Y-13089638D01*
X18090194Y-13089638D02*
X18080670Y-13070590D01*
X18080670Y-13070590D02*
X18061622Y-13061067D01*
X18061622Y-13061067D02*
X18033051Y-13061067D01*
X18033051Y-13061067D02*
X18014003Y-13051543D01*
X18014003Y-13051543D02*
X18004480Y-13032495D01*
X18004480Y-13032495D02*
X18004480Y-13022971D01*
X18004480Y-13022971D02*
X18014003Y-13003924D01*
X18014003Y-13003924D02*
X18033051Y-12994400D01*
X18033051Y-12994400D02*
X18061622Y-12994400D01*
X18061622Y-12994400D02*
X18080670Y-13003924D01*
X18156861Y-13203924D02*
X18166384Y-13194400D01*
X18166384Y-13194400D02*
X18185432Y-13165829D01*
X18185432Y-13165829D02*
X18194956Y-13146781D01*
X18194956Y-13146781D02*
X18204480Y-13118210D01*
X18204480Y-13118210D02*
X18214003Y-13070590D01*
X18214003Y-13070590D02*
X18214003Y-13032495D01*
X18214003Y-13032495D02*
X18204480Y-12984876D01*
X18204480Y-12984876D02*
X18194956Y-12956305D01*
X18194956Y-12956305D02*
X18185432Y-12937257D01*
X18185432Y-12937257D02*
X18166384Y-12908686D01*
X18166384Y-12908686D02*
X18156861Y-12899162D01*
D18*
X13221797Y-13220250D02*
X13381797Y-13380250D01*
X13381797Y-13220250D02*
X13221797Y-13380250D01*
X13301797Y-13220250D02*
X13301797Y-13380250D01*
X13221797Y-13300250D02*
X13381797Y-13300250D01*
D11*
X13747336Y-13391733D02*
X13633050Y-13391733D01*
X13690193Y-13391733D02*
X13690193Y-13191733D01*
X13690193Y-13191733D02*
X13671146Y-13220305D01*
X13671146Y-13220305D02*
X13652098Y-13239352D01*
X13652098Y-13239352D02*
X13633050Y-13248876D01*
X13833050Y-13372686D02*
X13842574Y-13382210D01*
X13842574Y-13382210D02*
X13833050Y-13391733D01*
X13833050Y-13391733D02*
X13823527Y-13382210D01*
X13823527Y-13382210D02*
X13833050Y-13372686D01*
X13833050Y-13372686D02*
X13833050Y-13391733D01*
X14014003Y-13191733D02*
X13975908Y-13191733D01*
X13975908Y-13191733D02*
X13956860Y-13201257D01*
X13956860Y-13201257D02*
X13947336Y-13210781D01*
X13947336Y-13210781D02*
X13928289Y-13239352D01*
X13928289Y-13239352D02*
X13918765Y-13277448D01*
X13918765Y-13277448D02*
X13918765Y-13353638D01*
X13918765Y-13353638D02*
X13928289Y-13372686D01*
X13928289Y-13372686D02*
X13937812Y-13382210D01*
X13937812Y-13382210D02*
X13956860Y-13391733D01*
X13956860Y-13391733D02*
X13994955Y-13391733D01*
X13994955Y-13391733D02*
X14014003Y-13382210D01*
X14014003Y-13382210D02*
X14023527Y-13372686D01*
X14023527Y-13372686D02*
X14033050Y-13353638D01*
X14033050Y-13353638D02*
X14033050Y-13306019D01*
X14033050Y-13306019D02*
X14023527Y-13286971D01*
X14023527Y-13286971D02*
X14014003Y-13277448D01*
X14014003Y-13277448D02*
X13994955Y-13267924D01*
X13994955Y-13267924D02*
X13956860Y-13267924D01*
X13956860Y-13267924D02*
X13937812Y-13277448D01*
X13937812Y-13277448D02*
X13928289Y-13286971D01*
X13928289Y-13286971D02*
X13918765Y-13306019D01*
X14156860Y-13191733D02*
X14175908Y-13191733D01*
X14175908Y-13191733D02*
X14194955Y-13201257D01*
X14194955Y-13201257D02*
X14204479Y-13210781D01*
X14204479Y-13210781D02*
X14214003Y-13229829D01*
X14214003Y-13229829D02*
X14223527Y-13267924D01*
X14223527Y-13267924D02*
X14223527Y-13315543D01*
X14223527Y-13315543D02*
X14214003Y-13353638D01*
X14214003Y-13353638D02*
X14204479Y-13372686D01*
X14204479Y-13372686D02*
X14194955Y-13382210D01*
X14194955Y-13382210D02*
X14175908Y-13391733D01*
X14175908Y-13391733D02*
X14156860Y-13391733D01*
X14156860Y-13391733D02*
X14137812Y-13382210D01*
X14137812Y-13382210D02*
X14128289Y-13372686D01*
X14128289Y-13372686D02*
X14118765Y-13353638D01*
X14118765Y-13353638D02*
X14109241Y-13315543D01*
X14109241Y-13315543D02*
X14109241Y-13267924D01*
X14109241Y-13267924D02*
X14118765Y-13229829D01*
X14118765Y-13229829D02*
X14128289Y-13210781D01*
X14128289Y-13210781D02*
X14137812Y-13201257D01*
X14137812Y-13201257D02*
X14156860Y-13191733D01*
X14347336Y-13191733D02*
X14366384Y-13191733D01*
X14366384Y-13191733D02*
X14385431Y-13201257D01*
X14385431Y-13201257D02*
X14394955Y-13210781D01*
X14394955Y-13210781D02*
X14404479Y-13229829D01*
X14404479Y-13229829D02*
X14414003Y-13267924D01*
X14414003Y-13267924D02*
X14414003Y-13315543D01*
X14414003Y-13315543D02*
X14404479Y-13353638D01*
X14404479Y-13353638D02*
X14394955Y-13372686D01*
X14394955Y-13372686D02*
X14385431Y-13382210D01*
X14385431Y-13382210D02*
X14366384Y-13391733D01*
X14366384Y-13391733D02*
X14347336Y-13391733D01*
X14347336Y-13391733D02*
X14328289Y-13382210D01*
X14328289Y-13382210D02*
X14318765Y-13372686D01*
X14318765Y-13372686D02*
X14309241Y-13353638D01*
X14309241Y-13353638D02*
X14299717Y-13315543D01*
X14299717Y-13315543D02*
X14299717Y-13267924D01*
X14299717Y-13267924D02*
X14309241Y-13229829D01*
X14309241Y-13229829D02*
X14318765Y-13210781D01*
X14318765Y-13210781D02*
X14328289Y-13201257D01*
X14328289Y-13201257D02*
X14347336Y-13191733D01*
X14499717Y-13391733D02*
X14499717Y-13258400D01*
X14499717Y-13277448D02*
X14509241Y-13267924D01*
X14509241Y-13267924D02*
X14528289Y-13258400D01*
X14528289Y-13258400D02*
X14556860Y-13258400D01*
X14556860Y-13258400D02*
X14575908Y-13267924D01*
X14575908Y-13267924D02*
X14585431Y-13286971D01*
X14585431Y-13286971D02*
X14585431Y-13391733D01*
X14585431Y-13286971D02*
X14594955Y-13267924D01*
X14594955Y-13267924D02*
X14614003Y-13258400D01*
X14614003Y-13258400D02*
X14642574Y-13258400D01*
X14642574Y-13258400D02*
X14661622Y-13267924D01*
X14661622Y-13267924D02*
X14671146Y-13286971D01*
X14671146Y-13286971D02*
X14671146Y-13391733D01*
X14766384Y-13391733D02*
X14766384Y-13258400D01*
X14766384Y-13277448D02*
X14775908Y-13267924D01*
X14775908Y-13267924D02*
X14794955Y-13258400D01*
X14794955Y-13258400D02*
X14823527Y-13258400D01*
X14823527Y-13258400D02*
X14842574Y-13267924D01*
X14842574Y-13267924D02*
X14852098Y-13286971D01*
X14852098Y-13286971D02*
X14852098Y-13391733D01*
X14852098Y-13286971D02*
X14861622Y-13267924D01*
X14861622Y-13267924D02*
X14880670Y-13258400D01*
X14880670Y-13258400D02*
X14909241Y-13258400D01*
X14909241Y-13258400D02*
X14928289Y-13267924D01*
X14928289Y-13267924D02*
X14937812Y-13286971D01*
X14937812Y-13286971D02*
X14937812Y-13391733D01*
X15328289Y-13182210D02*
X15156860Y-13439352D01*
X15585432Y-13191733D02*
X15604479Y-13191733D01*
X15604479Y-13191733D02*
X15623527Y-13201257D01*
X15623527Y-13201257D02*
X15633051Y-13210781D01*
X15633051Y-13210781D02*
X15642574Y-13229829D01*
X15642574Y-13229829D02*
X15652098Y-13267924D01*
X15652098Y-13267924D02*
X15652098Y-13315543D01*
X15652098Y-13315543D02*
X15642574Y-13353638D01*
X15642574Y-13353638D02*
X15633051Y-13372686D01*
X15633051Y-13372686D02*
X15623527Y-13382210D01*
X15623527Y-13382210D02*
X15604479Y-13391733D01*
X15604479Y-13391733D02*
X15585432Y-13391733D01*
X15585432Y-13391733D02*
X15566384Y-13382210D01*
X15566384Y-13382210D02*
X15556860Y-13372686D01*
X15556860Y-13372686D02*
X15547336Y-13353638D01*
X15547336Y-13353638D02*
X15537813Y-13315543D01*
X15537813Y-13315543D02*
X15537813Y-13267924D01*
X15537813Y-13267924D02*
X15547336Y-13229829D01*
X15547336Y-13229829D02*
X15556860Y-13210781D01*
X15556860Y-13210781D02*
X15566384Y-13201257D01*
X15566384Y-13201257D02*
X15585432Y-13191733D01*
X15737813Y-13372686D02*
X15747336Y-13382210D01*
X15747336Y-13382210D02*
X15737813Y-13391733D01*
X15737813Y-13391733D02*
X15728289Y-13382210D01*
X15728289Y-13382210D02*
X15737813Y-13372686D01*
X15737813Y-13372686D02*
X15737813Y-13391733D01*
X15871146Y-13191733D02*
X15890194Y-13191733D01*
X15890194Y-13191733D02*
X15909241Y-13201257D01*
X15909241Y-13201257D02*
X15918765Y-13210781D01*
X15918765Y-13210781D02*
X15928289Y-13229829D01*
X15928289Y-13229829D02*
X15937813Y-13267924D01*
X15937813Y-13267924D02*
X15937813Y-13315543D01*
X15937813Y-13315543D02*
X15928289Y-13353638D01*
X15928289Y-13353638D02*
X15918765Y-13372686D01*
X15918765Y-13372686D02*
X15909241Y-13382210D01*
X15909241Y-13382210D02*
X15890194Y-13391733D01*
X15890194Y-13391733D02*
X15871146Y-13391733D01*
X15871146Y-13391733D02*
X15852098Y-13382210D01*
X15852098Y-13382210D02*
X15842574Y-13372686D01*
X15842574Y-13372686D02*
X15833051Y-13353638D01*
X15833051Y-13353638D02*
X15823527Y-13315543D01*
X15823527Y-13315543D02*
X15823527Y-13267924D01*
X15823527Y-13267924D02*
X15833051Y-13229829D01*
X15833051Y-13229829D02*
X15842574Y-13210781D01*
X15842574Y-13210781D02*
X15852098Y-13201257D01*
X15852098Y-13201257D02*
X15871146Y-13191733D01*
X16109241Y-13191733D02*
X16071146Y-13191733D01*
X16071146Y-13191733D02*
X16052098Y-13201257D01*
X16052098Y-13201257D02*
X16042574Y-13210781D01*
X16042574Y-13210781D02*
X16023527Y-13239352D01*
X16023527Y-13239352D02*
X16014003Y-13277448D01*
X16014003Y-13277448D02*
X16014003Y-13353638D01*
X16014003Y-13353638D02*
X16023527Y-13372686D01*
X16023527Y-13372686D02*
X16033051Y-13382210D01*
X16033051Y-13382210D02*
X16052098Y-13391733D01*
X16052098Y-13391733D02*
X16090194Y-13391733D01*
X16090194Y-13391733D02*
X16109241Y-13382210D01*
X16109241Y-13382210D02*
X16118765Y-13372686D01*
X16118765Y-13372686D02*
X16128289Y-13353638D01*
X16128289Y-13353638D02*
X16128289Y-13306019D01*
X16128289Y-13306019D02*
X16118765Y-13286971D01*
X16118765Y-13286971D02*
X16109241Y-13277448D01*
X16109241Y-13277448D02*
X16090194Y-13267924D01*
X16090194Y-13267924D02*
X16052098Y-13267924D01*
X16052098Y-13267924D02*
X16033051Y-13277448D01*
X16033051Y-13277448D02*
X16023527Y-13286971D01*
X16023527Y-13286971D02*
X16014003Y-13306019D01*
X16194955Y-13191733D02*
X16318765Y-13191733D01*
X16318765Y-13191733D02*
X16252098Y-13267924D01*
X16252098Y-13267924D02*
X16280670Y-13267924D01*
X16280670Y-13267924D02*
X16299717Y-13277448D01*
X16299717Y-13277448D02*
X16309241Y-13286971D01*
X16309241Y-13286971D02*
X16318765Y-13306019D01*
X16318765Y-13306019D02*
X16318765Y-13353638D01*
X16318765Y-13353638D02*
X16309241Y-13372686D01*
X16309241Y-13372686D02*
X16299717Y-13382210D01*
X16299717Y-13382210D02*
X16280670Y-13391733D01*
X16280670Y-13391733D02*
X16223527Y-13391733D01*
X16223527Y-13391733D02*
X16204479Y-13382210D01*
X16204479Y-13382210D02*
X16194955Y-13372686D01*
X16442574Y-13191733D02*
X16461622Y-13191733D01*
X16461622Y-13191733D02*
X16480670Y-13201257D01*
X16480670Y-13201257D02*
X16490194Y-13210781D01*
X16490194Y-13210781D02*
X16499717Y-13229829D01*
X16499717Y-13229829D02*
X16509241Y-13267924D01*
X16509241Y-13267924D02*
X16509241Y-13315543D01*
X16509241Y-13315543D02*
X16499717Y-13353638D01*
X16499717Y-13353638D02*
X16490194Y-13372686D01*
X16490194Y-13372686D02*
X16480670Y-13382210D01*
X16480670Y-13382210D02*
X16461622Y-13391733D01*
X16461622Y-13391733D02*
X16442574Y-13391733D01*
X16442574Y-13391733D02*
X16423527Y-13382210D01*
X16423527Y-13382210D02*
X16414003Y-13372686D01*
X16414003Y-13372686D02*
X16404479Y-13353638D01*
X16404479Y-13353638D02*
X16394955Y-13315543D01*
X16394955Y-13315543D02*
X16394955Y-13267924D01*
X16394955Y-13267924D02*
X16404479Y-13229829D01*
X16404479Y-13229829D02*
X16414003Y-13210781D01*
X16414003Y-13210781D02*
X16423527Y-13201257D01*
X16423527Y-13201257D02*
X16442574Y-13191733D01*
X16585432Y-13191733D02*
X16585432Y-13229829D01*
X16661622Y-13191733D02*
X16661622Y-13229829D01*
X16956860Y-13467924D02*
X16947337Y-13458400D01*
X16947337Y-13458400D02*
X16928289Y-13429829D01*
X16928289Y-13429829D02*
X16918765Y-13410781D01*
X16918765Y-13410781D02*
X16909241Y-13382210D01*
X16909241Y-13382210D02*
X16899718Y-13334590D01*
X16899718Y-13334590D02*
X16899718Y-13296495D01*
X16899718Y-13296495D02*
X16909241Y-13248876D01*
X16909241Y-13248876D02*
X16918765Y-13220305D01*
X16918765Y-13220305D02*
X16928289Y-13201257D01*
X16928289Y-13201257D02*
X16947337Y-13172686D01*
X16947337Y-13172686D02*
X16956860Y-13163162D01*
X17118765Y-13191733D02*
X17080670Y-13191733D01*
X17080670Y-13191733D02*
X17061622Y-13201257D01*
X17061622Y-13201257D02*
X17052098Y-13210781D01*
X17052098Y-13210781D02*
X17033051Y-13239352D01*
X17033051Y-13239352D02*
X17023527Y-13277448D01*
X17023527Y-13277448D02*
X17023527Y-13353638D01*
X17023527Y-13353638D02*
X17033051Y-13372686D01*
X17033051Y-13372686D02*
X17042575Y-13382210D01*
X17042575Y-13382210D02*
X17061622Y-13391733D01*
X17061622Y-13391733D02*
X17099718Y-13391733D01*
X17099718Y-13391733D02*
X17118765Y-13382210D01*
X17118765Y-13382210D02*
X17128289Y-13372686D01*
X17128289Y-13372686D02*
X17137813Y-13353638D01*
X17137813Y-13353638D02*
X17137813Y-13306019D01*
X17137813Y-13306019D02*
X17128289Y-13286971D01*
X17128289Y-13286971D02*
X17118765Y-13277448D01*
X17118765Y-13277448D02*
X17099718Y-13267924D01*
X17099718Y-13267924D02*
X17061622Y-13267924D01*
X17061622Y-13267924D02*
X17042575Y-13277448D01*
X17042575Y-13277448D02*
X17033051Y-13286971D01*
X17033051Y-13286971D02*
X17023527Y-13306019D01*
X17375908Y-13391733D02*
X17375908Y-13191733D01*
X17461622Y-13391733D02*
X17461622Y-13286971D01*
X17461622Y-13286971D02*
X17452099Y-13267924D01*
X17452099Y-13267924D02*
X17433051Y-13258400D01*
X17433051Y-13258400D02*
X17404479Y-13258400D01*
X17404479Y-13258400D02*
X17385432Y-13267924D01*
X17385432Y-13267924D02*
X17375908Y-13277448D01*
X17585432Y-13391733D02*
X17566384Y-13382210D01*
X17566384Y-13382210D02*
X17556860Y-13372686D01*
X17556860Y-13372686D02*
X17547337Y-13353638D01*
X17547337Y-13353638D02*
X17547337Y-13296495D01*
X17547337Y-13296495D02*
X17556860Y-13277448D01*
X17556860Y-13277448D02*
X17566384Y-13267924D01*
X17566384Y-13267924D02*
X17585432Y-13258400D01*
X17585432Y-13258400D02*
X17614003Y-13258400D01*
X17614003Y-13258400D02*
X17633051Y-13267924D01*
X17633051Y-13267924D02*
X17642575Y-13277448D01*
X17642575Y-13277448D02*
X17652099Y-13296495D01*
X17652099Y-13296495D02*
X17652099Y-13353638D01*
X17652099Y-13353638D02*
X17642575Y-13372686D01*
X17642575Y-13372686D02*
X17633051Y-13382210D01*
X17633051Y-13382210D02*
X17614003Y-13391733D01*
X17614003Y-13391733D02*
X17585432Y-13391733D01*
X17766384Y-13391733D02*
X17747337Y-13382210D01*
X17747337Y-13382210D02*
X17737813Y-13363162D01*
X17737813Y-13363162D02*
X17737813Y-13191733D01*
X17918765Y-13382210D02*
X17899718Y-13391733D01*
X17899718Y-13391733D02*
X17861622Y-13391733D01*
X17861622Y-13391733D02*
X17842575Y-13382210D01*
X17842575Y-13382210D02*
X17833051Y-13363162D01*
X17833051Y-13363162D02*
X17833051Y-13286971D01*
X17833051Y-13286971D02*
X17842575Y-13267924D01*
X17842575Y-13267924D02*
X17861622Y-13258400D01*
X17861622Y-13258400D02*
X17899718Y-13258400D01*
X17899718Y-13258400D02*
X17918765Y-13267924D01*
X17918765Y-13267924D02*
X17928289Y-13286971D01*
X17928289Y-13286971D02*
X17928289Y-13306019D01*
X17928289Y-13306019D02*
X17833051Y-13325067D01*
X18004480Y-13382210D02*
X18023527Y-13391733D01*
X18023527Y-13391733D02*
X18061622Y-13391733D01*
X18061622Y-13391733D02*
X18080670Y-13382210D01*
X18080670Y-13382210D02*
X18090194Y-13363162D01*
X18090194Y-13363162D02*
X18090194Y-13353638D01*
X18090194Y-13353638D02*
X18080670Y-13334590D01*
X18080670Y-13334590D02*
X18061622Y-13325067D01*
X18061622Y-13325067D02*
X18033051Y-13325067D01*
X18033051Y-13325067D02*
X18014003Y-13315543D01*
X18014003Y-13315543D02*
X18004480Y-13296495D01*
X18004480Y-13296495D02*
X18004480Y-13286971D01*
X18004480Y-13286971D02*
X18014003Y-13267924D01*
X18014003Y-13267924D02*
X18033051Y-13258400D01*
X18033051Y-13258400D02*
X18061622Y-13258400D01*
X18061622Y-13258400D02*
X18080670Y-13267924D01*
X18156861Y-13467924D02*
X18166384Y-13458400D01*
X18166384Y-13458400D02*
X18185432Y-13429829D01*
X18185432Y-13429829D02*
X18194956Y-13410781D01*
X18194956Y-13410781D02*
X18204480Y-13382210D01*
X18204480Y-13382210D02*
X18214003Y-13334590D01*
X18214003Y-13334590D02*
X18214003Y-13296495D01*
X18214003Y-13296495D02*
X18204480Y-13248876D01*
X18204480Y-13248876D02*
X18194956Y-13220305D01*
X18194956Y-13220305D02*
X18185432Y-13201257D01*
X18185432Y-13201257D02*
X18166384Y-13172686D01*
X18166384Y-13172686D02*
X18156861Y-13163162D01*
M02*
