G04 #@! TF.GenerationSoftware,KiCad,Pcbnew,7.99.0-1900-g89780d353a*
G04 #@! TF.CreationDate,2023-08-02T11:36:18+03:00*
G04 #@! TF.ProjectId,RP2040_minimal,52503230-3430-45f6-9d69-6e696d616c2e,REV1*
G04 #@! TF.SameCoordinates,Original*
G04 #@! TF.FileFunction,Soldermask,Top*
G04 #@! TF.FilePolarity,Negative*
%FSLAX46Y46*%
G04 Gerber Fmt 4.6, Leading zero omitted, Abs format (unit mm)*
G04 Created by KiCad (PCBNEW 7.99.0-1900-g89780d353a) date 2023-08-02 11:36:18*
%MOMM*%
%LPD*%
G01*
G04 APERTURE LIST*
G04 APERTURE END LIST*
G36*
X172173751Y-106276142D02*
G01*
X172236872Y-106276142D01*
X172305850Y-106286538D01*
X172371773Y-106291727D01*
X172424906Y-106304483D01*
X172480849Y-106312915D01*
X172553947Y-106335463D01*
X172623687Y-106352206D01*
X172668784Y-106370885D01*
X172716632Y-106385645D01*
X172791748Y-106421819D01*
X172863038Y-106451348D01*
X172899631Y-106473772D01*
X172938937Y-106492701D01*
X173013700Y-106543674D01*
X173083933Y-106586713D01*
X173112057Y-106610733D01*
X173142802Y-106631695D01*
X173214589Y-106698304D01*
X173280933Y-106754967D01*
X173301079Y-106778555D01*
X173323676Y-106799522D01*
X173389741Y-106882365D01*
X173449187Y-106951967D01*
X173462260Y-106973301D01*
X173477517Y-106992432D01*
X173535050Y-107092083D01*
X173584552Y-107172862D01*
X173591823Y-107190416D01*
X173600885Y-107206112D01*
X173647115Y-107323904D01*
X173683694Y-107412213D01*
X173686717Y-107424808D01*
X173691029Y-107435793D01*
X173723315Y-107577250D01*
X173744173Y-107664127D01*
X173744714Y-107671001D01*
X173745935Y-107676351D01*
X173761846Y-107888688D01*
X173764500Y-107922400D01*
X173761846Y-107956114D01*
X173745935Y-108168448D01*
X173744714Y-108173796D01*
X173744173Y-108180673D01*
X173723311Y-108267568D01*
X173691029Y-108409006D01*
X173686718Y-108419988D01*
X173683694Y-108432587D01*
X173647108Y-108520913D01*
X173600885Y-108638687D01*
X173591824Y-108654379D01*
X173584552Y-108671938D01*
X173535040Y-108752733D01*
X173477517Y-108852367D01*
X173462263Y-108871494D01*
X173449187Y-108892833D01*
X173389729Y-108962448D01*
X173323676Y-109045277D01*
X173301083Y-109066239D01*
X173280933Y-109089833D01*
X173214576Y-109146507D01*
X173142802Y-109213104D01*
X173112063Y-109234061D01*
X173083933Y-109258087D01*
X173013686Y-109301134D01*
X172938937Y-109352098D01*
X172899638Y-109371022D01*
X172863038Y-109393452D01*
X172791733Y-109422987D01*
X172716632Y-109459154D01*
X172668793Y-109473910D01*
X172623687Y-109492594D01*
X172553932Y-109509340D01*
X172480849Y-109531884D01*
X172424914Y-109540314D01*
X172371773Y-109553073D01*
X172305846Y-109558261D01*
X172236872Y-109568658D01*
X172173751Y-109568658D01*
X172113500Y-109573400D01*
X172053249Y-109568658D01*
X171990128Y-109568658D01*
X171921152Y-109558261D01*
X171855227Y-109553073D01*
X171802086Y-109540315D01*
X171746150Y-109531884D01*
X171673062Y-109509339D01*
X171603313Y-109492594D01*
X171558209Y-109473911D01*
X171510367Y-109459154D01*
X171435261Y-109422985D01*
X171363962Y-109393452D01*
X171327361Y-109371023D01*
X171288063Y-109352098D01*
X171213310Y-109301132D01*
X171143067Y-109258087D01*
X171114940Y-109234064D01*
X171084197Y-109213104D01*
X171012411Y-109146496D01*
X170946067Y-109089833D01*
X170925920Y-109066244D01*
X170903323Y-109045277D01*
X170837255Y-108962430D01*
X170777813Y-108892833D01*
X170764740Y-108871499D01*
X170749482Y-108852367D01*
X170691942Y-108752704D01*
X170642448Y-108671938D01*
X170635177Y-108654385D01*
X170626114Y-108638687D01*
X170579872Y-108520867D01*
X170543306Y-108432587D01*
X170540282Y-108419995D01*
X170535970Y-108409006D01*
X170503668Y-108267483D01*
X170482827Y-108180673D01*
X170482286Y-108173803D01*
X170481064Y-108168448D01*
X170465133Y-107955866D01*
X170462500Y-107922400D01*
X170465130Y-107888971D01*
X170481064Y-107676351D01*
X170482286Y-107670995D01*
X170482827Y-107664127D01*
X170503663Y-107577335D01*
X170535970Y-107435793D01*
X170540283Y-107424802D01*
X170543306Y-107412213D01*
X170579865Y-107323950D01*
X170626114Y-107206112D01*
X170635179Y-107190410D01*
X170642448Y-107172862D01*
X170691932Y-107092111D01*
X170749482Y-106992432D01*
X170764742Y-106973295D01*
X170777813Y-106951967D01*
X170837243Y-106882383D01*
X170903323Y-106799522D01*
X170925924Y-106778550D01*
X170946067Y-106754967D01*
X171012397Y-106698315D01*
X171084197Y-106631695D01*
X171114946Y-106610730D01*
X171143067Y-106586713D01*
X171213295Y-106543676D01*
X171288063Y-106492701D01*
X171327369Y-106473772D01*
X171363962Y-106451348D01*
X171435246Y-106421821D01*
X171510367Y-106385645D01*
X171558218Y-106370884D01*
X171603313Y-106352206D01*
X171673047Y-106335464D01*
X171746150Y-106312915D01*
X171802094Y-106304482D01*
X171855227Y-106291727D01*
X171921148Y-106286538D01*
X171990128Y-106276142D01*
X172053249Y-106276142D01*
X172113500Y-106271400D01*
X172173751Y-106276142D01*
G37*
G36*
X183603751Y-106276142D02*
G01*
X183666872Y-106276142D01*
X183735850Y-106286538D01*
X183801773Y-106291727D01*
X183854906Y-106304483D01*
X183910849Y-106312915D01*
X183983947Y-106335463D01*
X184053687Y-106352206D01*
X184098784Y-106370885D01*
X184146632Y-106385645D01*
X184221748Y-106421819D01*
X184293038Y-106451348D01*
X184329631Y-106473772D01*
X184368937Y-106492701D01*
X184443700Y-106543674D01*
X184513933Y-106586713D01*
X184542057Y-106610733D01*
X184572802Y-106631695D01*
X184644589Y-106698304D01*
X184710933Y-106754967D01*
X184731079Y-106778555D01*
X184753676Y-106799522D01*
X184819741Y-106882365D01*
X184879187Y-106951967D01*
X184892260Y-106973301D01*
X184907517Y-106992432D01*
X184965050Y-107092083D01*
X185014552Y-107172862D01*
X185021823Y-107190416D01*
X185030885Y-107206112D01*
X185077115Y-107323904D01*
X185113694Y-107412213D01*
X185116717Y-107424808D01*
X185121029Y-107435793D01*
X185153315Y-107577250D01*
X185174173Y-107664127D01*
X185174714Y-107671001D01*
X185175935Y-107676351D01*
X185191848Y-107888705D01*
X185194500Y-107922400D01*
X185191845Y-107956131D01*
X185175935Y-108168448D01*
X185174714Y-108173796D01*
X185174173Y-108180673D01*
X185153311Y-108267568D01*
X185121029Y-108409006D01*
X185116718Y-108419988D01*
X185113694Y-108432587D01*
X185077108Y-108520913D01*
X185030885Y-108638687D01*
X185021824Y-108654379D01*
X185014552Y-108671938D01*
X184965040Y-108752733D01*
X184907517Y-108852367D01*
X184892263Y-108871494D01*
X184879187Y-108892833D01*
X184819729Y-108962448D01*
X184753676Y-109045277D01*
X184731083Y-109066239D01*
X184710933Y-109089833D01*
X184644576Y-109146507D01*
X184572802Y-109213104D01*
X184542063Y-109234061D01*
X184513933Y-109258087D01*
X184443686Y-109301134D01*
X184368937Y-109352098D01*
X184329638Y-109371022D01*
X184293038Y-109393452D01*
X184221733Y-109422987D01*
X184146632Y-109459154D01*
X184098793Y-109473910D01*
X184053687Y-109492594D01*
X183983932Y-109509340D01*
X183910849Y-109531884D01*
X183854914Y-109540314D01*
X183801773Y-109553073D01*
X183735846Y-109558261D01*
X183666872Y-109568658D01*
X183603751Y-109568658D01*
X183543500Y-109573400D01*
X183483249Y-109568658D01*
X183420128Y-109568658D01*
X183351152Y-109558261D01*
X183285227Y-109553073D01*
X183232086Y-109540315D01*
X183176150Y-109531884D01*
X183103062Y-109509339D01*
X183033313Y-109492594D01*
X182988209Y-109473911D01*
X182940367Y-109459154D01*
X182865261Y-109422985D01*
X182793962Y-109393452D01*
X182757361Y-109371023D01*
X182718063Y-109352098D01*
X182643310Y-109301132D01*
X182573067Y-109258087D01*
X182544940Y-109234064D01*
X182514197Y-109213104D01*
X182442411Y-109146496D01*
X182376067Y-109089833D01*
X182355920Y-109066244D01*
X182333323Y-109045277D01*
X182267255Y-108962430D01*
X182207813Y-108892833D01*
X182194740Y-108871499D01*
X182179482Y-108852367D01*
X182121942Y-108752704D01*
X182072448Y-108671938D01*
X182065177Y-108654385D01*
X182056114Y-108638687D01*
X182009872Y-108520867D01*
X181973306Y-108432587D01*
X181970282Y-108419995D01*
X181965970Y-108409006D01*
X181933668Y-108267483D01*
X181912827Y-108180673D01*
X181912286Y-108173803D01*
X181911064Y-108168448D01*
X181895133Y-107955866D01*
X181892500Y-107922400D01*
X181895130Y-107888971D01*
X181911064Y-107676351D01*
X181912286Y-107670995D01*
X181912827Y-107664127D01*
X181933663Y-107577335D01*
X181965970Y-107435793D01*
X181970283Y-107424802D01*
X181973306Y-107412213D01*
X182009865Y-107323950D01*
X182056114Y-107206112D01*
X182065179Y-107190410D01*
X182072448Y-107172862D01*
X182121932Y-107092111D01*
X182179482Y-106992432D01*
X182194742Y-106973295D01*
X182207813Y-106951967D01*
X182267243Y-106882383D01*
X182333323Y-106799522D01*
X182355924Y-106778550D01*
X182376067Y-106754967D01*
X182442397Y-106698315D01*
X182514197Y-106631695D01*
X182544946Y-106610730D01*
X182573067Y-106586713D01*
X182643295Y-106543676D01*
X182718063Y-106492701D01*
X182757369Y-106473772D01*
X182793962Y-106451348D01*
X182865246Y-106421821D01*
X182940367Y-106385645D01*
X182988218Y-106370884D01*
X183033313Y-106352206D01*
X183103047Y-106335464D01*
X183176150Y-106312915D01*
X183232094Y-106304482D01*
X183285227Y-106291727D01*
X183351148Y-106286538D01*
X183420128Y-106276142D01*
X183483249Y-106276142D01*
X183543500Y-106271400D01*
X183603751Y-106276142D01*
G37*
G36*
X153245810Y-104092012D02*
G01*
X153251356Y-104094723D01*
X153253961Y-104095136D01*
X153295627Y-104116365D01*
X153349757Y-104142828D01*
X153431572Y-104224643D01*
X153458045Y-104278796D01*
X153479263Y-104320438D01*
X153479675Y-104323040D01*
X153482388Y-104328590D01*
X153497000Y-104428880D01*
X153497000Y-107427920D01*
X153482388Y-107528210D01*
X153479675Y-107533759D01*
X153479263Y-107536361D01*
X153458057Y-107577978D01*
X153431572Y-107632157D01*
X153349757Y-107713972D01*
X153295578Y-107740457D01*
X153253961Y-107761663D01*
X153251359Y-107762075D01*
X153245810Y-107764788D01*
X153145520Y-107779400D01*
X151246480Y-107779400D01*
X151146190Y-107764788D01*
X151140640Y-107762075D01*
X151138038Y-107761663D01*
X151096396Y-107740445D01*
X151042243Y-107713972D01*
X150960428Y-107632157D01*
X150933965Y-107578027D01*
X150912736Y-107536361D01*
X150912323Y-107533756D01*
X150909612Y-107528210D01*
X150895000Y-107427920D01*
X150895000Y-104428880D01*
X150909612Y-104328590D01*
X150912323Y-104323043D01*
X150912736Y-104320438D01*
X150933977Y-104278747D01*
X150960428Y-104224643D01*
X151042243Y-104142828D01*
X151096347Y-104116377D01*
X151138038Y-104095136D01*
X151140643Y-104094723D01*
X151146190Y-104092012D01*
X151246480Y-104077400D01*
X153145520Y-104077400D01*
X153245810Y-104092012D01*
G37*
G36*
X157501916Y-104097165D02*
G01*
X157720968Y-104155860D01*
X157926500Y-104251701D01*
X158112267Y-104381776D01*
X158272624Y-104542133D01*
X158402699Y-104727900D01*
X158498540Y-104933432D01*
X158557235Y-105152484D01*
X158577000Y-105378400D01*
X158577000Y-106478400D01*
X158557235Y-106704316D01*
X158498540Y-106923368D01*
X158402699Y-107128900D01*
X158272624Y-107314667D01*
X158112267Y-107475024D01*
X157926500Y-107605099D01*
X157720968Y-107700940D01*
X157501916Y-107759635D01*
X157276000Y-107779400D01*
X157050084Y-107759635D01*
X156831032Y-107700940D01*
X156625500Y-107605099D01*
X156439733Y-107475024D01*
X156279376Y-107314667D01*
X156149301Y-107128900D01*
X156053460Y-106923368D01*
X155994765Y-106704316D01*
X155975000Y-106478400D01*
X155975000Y-105378400D01*
X155994765Y-105152484D01*
X156053460Y-104933432D01*
X156149301Y-104727900D01*
X156279376Y-104542133D01*
X156439733Y-104381776D01*
X156625500Y-104251701D01*
X156831032Y-104155860D01*
X157050084Y-104097165D01*
X157276000Y-104077400D01*
X157501916Y-104097165D01*
G37*
G36*
X162581916Y-104097165D02*
G01*
X162800968Y-104155860D01*
X163006500Y-104251701D01*
X163192267Y-104381776D01*
X163352624Y-104542133D01*
X163482699Y-104727900D01*
X163578540Y-104933432D01*
X163637235Y-105152484D01*
X163657000Y-105378400D01*
X163657000Y-106478400D01*
X163637235Y-106704316D01*
X163578540Y-106923368D01*
X163482699Y-107128900D01*
X163352624Y-107314667D01*
X163192267Y-107475024D01*
X163006500Y-107605099D01*
X162800968Y-107700940D01*
X162581916Y-107759635D01*
X162356000Y-107779400D01*
X162130084Y-107759635D01*
X161911032Y-107700940D01*
X161705500Y-107605099D01*
X161519733Y-107475024D01*
X161359376Y-107314667D01*
X161229301Y-107128900D01*
X161133460Y-106923368D01*
X161074765Y-106704316D01*
X161055000Y-106478400D01*
X161055000Y-105378400D01*
X161074765Y-105152484D01*
X161133460Y-104933432D01*
X161229301Y-104727900D01*
X161359376Y-104542133D01*
X161519733Y-104381776D01*
X161705500Y-104251701D01*
X161911032Y-104155860D01*
X162130084Y-104097165D01*
X162356000Y-104077400D01*
X162581916Y-104097165D01*
G37*
G36*
X174153017Y-100775282D02*
G01*
X174169562Y-100786338D01*
X174180618Y-100802883D01*
X174184500Y-100822400D01*
X174184500Y-102322400D01*
X174180618Y-102341917D01*
X174169562Y-102358462D01*
X174153017Y-102369518D01*
X174133500Y-102373400D01*
X172633500Y-102373400D01*
X172613983Y-102369518D01*
X172597438Y-102358462D01*
X172586382Y-102341917D01*
X172582500Y-102322400D01*
X172582500Y-100822400D01*
X172586382Y-100802883D01*
X172597438Y-100786338D01*
X172613983Y-100775282D01*
X172633500Y-100771400D01*
X174133500Y-100771400D01*
X174153017Y-100775282D01*
G37*
G36*
X175964627Y-100776034D02*
G01*
X176007200Y-100776034D01*
X176055225Y-100786242D01*
X176101739Y-100791483D01*
X176135562Y-100803318D01*
X176170945Y-100810839D01*
X176221937Y-100833541D01*
X176271041Y-100850724D01*
X176296598Y-100866783D01*
X176323877Y-100878928D01*
X176374742Y-100915883D01*
X176422915Y-100946153D01*
X176440215Y-100963453D01*
X176459308Y-100977325D01*
X176506510Y-101029748D01*
X176549747Y-101072985D01*
X176559692Y-101088812D01*
X176571324Y-101101731D01*
X176611114Y-101170650D01*
X176645176Y-101224859D01*
X176649429Y-101237013D01*
X176655022Y-101246701D01*
X176683660Y-101334842D01*
X176704417Y-101394161D01*
X176705204Y-101401146D01*
X176706754Y-101405917D01*
X176720809Y-101539642D01*
X176724500Y-101572400D01*
X176720808Y-101605160D01*
X176706754Y-101738882D01*
X176705204Y-101743651D01*
X176704417Y-101750639D01*
X176683656Y-101809970D01*
X176655022Y-101898098D01*
X176649430Y-101907783D01*
X176645176Y-101919941D01*
X176611107Y-101974160D01*
X176571324Y-102043068D01*
X176559694Y-102055984D01*
X176549747Y-102071815D01*
X176506501Y-102115060D01*
X176459308Y-102167474D01*
X176440218Y-102181343D01*
X176422915Y-102198647D01*
X176374731Y-102228922D01*
X176323877Y-102265871D01*
X176296604Y-102278013D01*
X176271041Y-102294076D01*
X176221926Y-102311261D01*
X176170945Y-102333960D01*
X176135567Y-102341479D01*
X176101739Y-102353317D01*
X176055222Y-102358558D01*
X176007200Y-102368766D01*
X175964627Y-102368766D01*
X175923500Y-102373400D01*
X175882373Y-102368766D01*
X175839800Y-102368766D01*
X175791776Y-102358558D01*
X175745261Y-102353317D01*
X175711433Y-102341480D01*
X175676054Y-102333960D01*
X175625068Y-102311260D01*
X175575959Y-102294076D01*
X175550398Y-102278014D01*
X175523122Y-102265871D01*
X175472260Y-102228917D01*
X175424085Y-102198647D01*
X175406783Y-102181345D01*
X175387691Y-102167474D01*
X175340488Y-102115050D01*
X175297253Y-102071815D01*
X175287308Y-102055987D01*
X175275675Y-102043068D01*
X175235880Y-101974140D01*
X175201824Y-101919941D01*
X175197571Y-101907788D01*
X175191977Y-101898098D01*
X175163329Y-101809930D01*
X175142583Y-101750639D01*
X175141796Y-101743656D01*
X175140245Y-101738882D01*
X175126176Y-101605028D01*
X175122500Y-101572400D01*
X175126176Y-101539774D01*
X175140245Y-101405917D01*
X175141796Y-101401142D01*
X175142583Y-101394161D01*
X175163325Y-101334882D01*
X175191977Y-101246701D01*
X175197572Y-101237009D01*
X175201824Y-101224859D01*
X175235873Y-101170670D01*
X175275675Y-101101731D01*
X175287310Y-101088808D01*
X175297253Y-101072985D01*
X175340479Y-101029758D01*
X175387691Y-100977325D01*
X175406787Y-100963450D01*
X175424085Y-100946153D01*
X175472255Y-100915885D01*
X175523123Y-100878928D01*
X175550401Y-100866782D01*
X175575959Y-100850724D01*
X175625059Y-100833542D01*
X175676054Y-100810839D01*
X175711439Y-100803317D01*
X175745261Y-100791483D01*
X175791773Y-100786242D01*
X175839800Y-100776034D01*
X175882373Y-100776034D01*
X175923500Y-100771400D01*
X175964627Y-100776034D01*
G37*
G36*
X178504627Y-100776034D02*
G01*
X178547200Y-100776034D01*
X178595225Y-100786242D01*
X178641739Y-100791483D01*
X178675562Y-100803318D01*
X178710945Y-100810839D01*
X178761937Y-100833541D01*
X178811041Y-100850724D01*
X178836598Y-100866783D01*
X178863877Y-100878928D01*
X178914742Y-100915883D01*
X178962915Y-100946153D01*
X178980215Y-100963453D01*
X178999308Y-100977325D01*
X179046510Y-101029748D01*
X179089747Y-101072985D01*
X179099692Y-101088812D01*
X179111324Y-101101731D01*
X179151114Y-101170650D01*
X179185176Y-101224859D01*
X179189429Y-101237013D01*
X179195022Y-101246701D01*
X179223660Y-101334842D01*
X179244417Y-101394161D01*
X179245204Y-101401146D01*
X179246754Y-101405917D01*
X179260810Y-101539653D01*
X179264500Y-101572400D01*
X179260807Y-101605171D01*
X179246754Y-101738882D01*
X179245204Y-101743651D01*
X179244417Y-101750639D01*
X179223656Y-101809970D01*
X179195022Y-101898098D01*
X179189430Y-101907783D01*
X179185176Y-101919941D01*
X179151107Y-101974160D01*
X179111324Y-102043068D01*
X179099694Y-102055984D01*
X179089747Y-102071815D01*
X179046501Y-102115060D01*
X178999308Y-102167474D01*
X178980218Y-102181343D01*
X178962915Y-102198647D01*
X178914731Y-102228922D01*
X178863877Y-102265871D01*
X178836604Y-102278013D01*
X178811041Y-102294076D01*
X178761926Y-102311261D01*
X178710945Y-102333960D01*
X178675567Y-102341479D01*
X178641739Y-102353317D01*
X178595222Y-102358558D01*
X178547200Y-102368766D01*
X178504627Y-102368766D01*
X178463500Y-102373400D01*
X178422373Y-102368766D01*
X178379800Y-102368766D01*
X178331776Y-102358558D01*
X178285261Y-102353317D01*
X178251433Y-102341480D01*
X178216054Y-102333960D01*
X178165068Y-102311260D01*
X178115959Y-102294076D01*
X178090398Y-102278014D01*
X178063122Y-102265871D01*
X178012260Y-102228917D01*
X177964085Y-102198647D01*
X177946783Y-102181345D01*
X177927691Y-102167474D01*
X177880488Y-102115050D01*
X177837253Y-102071815D01*
X177827308Y-102055987D01*
X177815675Y-102043068D01*
X177775880Y-101974140D01*
X177741824Y-101919941D01*
X177737571Y-101907788D01*
X177731977Y-101898098D01*
X177703329Y-101809930D01*
X177682583Y-101750639D01*
X177681796Y-101743656D01*
X177680245Y-101738882D01*
X177666177Y-101605039D01*
X177662500Y-101572400D01*
X177666174Y-101539785D01*
X177680245Y-101405917D01*
X177681796Y-101401142D01*
X177682583Y-101394161D01*
X177703325Y-101334882D01*
X177731977Y-101246701D01*
X177737572Y-101237009D01*
X177741824Y-101224859D01*
X177775873Y-101170670D01*
X177815675Y-101101731D01*
X177827310Y-101088808D01*
X177837253Y-101072985D01*
X177880479Y-101029758D01*
X177927691Y-100977325D01*
X177946787Y-100963450D01*
X177964085Y-100946153D01*
X178012255Y-100915885D01*
X178063123Y-100878928D01*
X178090401Y-100866782D01*
X178115959Y-100850724D01*
X178165059Y-100833542D01*
X178216054Y-100810839D01*
X178251439Y-100803317D01*
X178285261Y-100791483D01*
X178331773Y-100786242D01*
X178379800Y-100776034D01*
X178422373Y-100776034D01*
X178463500Y-100771400D01*
X178504627Y-100776034D01*
G37*
G36*
X181044627Y-100776034D02*
G01*
X181087200Y-100776034D01*
X181135225Y-100786242D01*
X181181739Y-100791483D01*
X181215562Y-100803318D01*
X181250945Y-100810839D01*
X181301937Y-100833541D01*
X181351041Y-100850724D01*
X181376598Y-100866783D01*
X181403877Y-100878928D01*
X181454742Y-100915883D01*
X181502915Y-100946153D01*
X181520215Y-100963453D01*
X181539308Y-100977325D01*
X181586510Y-101029748D01*
X181629747Y-101072985D01*
X181639692Y-101088812D01*
X181651324Y-101101731D01*
X181691114Y-101170650D01*
X181725176Y-101224859D01*
X181729429Y-101237013D01*
X181735022Y-101246701D01*
X181763660Y-101334842D01*
X181784417Y-101394161D01*
X181785204Y-101401146D01*
X181786754Y-101405917D01*
X181800809Y-101539642D01*
X181804500Y-101572400D01*
X181800808Y-101605160D01*
X181786754Y-101738882D01*
X181785204Y-101743651D01*
X181784417Y-101750639D01*
X181763656Y-101809970D01*
X181735022Y-101898098D01*
X181729430Y-101907783D01*
X181725176Y-101919941D01*
X181691107Y-101974160D01*
X181651324Y-102043068D01*
X181639694Y-102055984D01*
X181629747Y-102071815D01*
X181586501Y-102115060D01*
X181539308Y-102167474D01*
X181520218Y-102181343D01*
X181502915Y-102198647D01*
X181454731Y-102228922D01*
X181403877Y-102265871D01*
X181376604Y-102278013D01*
X181351041Y-102294076D01*
X181301926Y-102311261D01*
X181250945Y-102333960D01*
X181215567Y-102341479D01*
X181181739Y-102353317D01*
X181135222Y-102358558D01*
X181087200Y-102368766D01*
X181044627Y-102368766D01*
X181003500Y-102373400D01*
X180962373Y-102368766D01*
X180919800Y-102368766D01*
X180871776Y-102358558D01*
X180825261Y-102353317D01*
X180791433Y-102341480D01*
X180756054Y-102333960D01*
X180705068Y-102311260D01*
X180655959Y-102294076D01*
X180630398Y-102278014D01*
X180603122Y-102265871D01*
X180552260Y-102228917D01*
X180504085Y-102198647D01*
X180486783Y-102181345D01*
X180467691Y-102167474D01*
X180420488Y-102115050D01*
X180377253Y-102071815D01*
X180367308Y-102055987D01*
X180355675Y-102043068D01*
X180315880Y-101974140D01*
X180281824Y-101919941D01*
X180277571Y-101907788D01*
X180271977Y-101898098D01*
X180243329Y-101809930D01*
X180222583Y-101750639D01*
X180221796Y-101743656D01*
X180220245Y-101738882D01*
X180206176Y-101605028D01*
X180202500Y-101572400D01*
X180206176Y-101539774D01*
X180220245Y-101405917D01*
X180221796Y-101401142D01*
X180222583Y-101394161D01*
X180243325Y-101334882D01*
X180271977Y-101246701D01*
X180277572Y-101237009D01*
X180281824Y-101224859D01*
X180315873Y-101170670D01*
X180355675Y-101101731D01*
X180367310Y-101088808D01*
X180377253Y-101072985D01*
X180420479Y-101029758D01*
X180467691Y-100977325D01*
X180486787Y-100963450D01*
X180504085Y-100946153D01*
X180552255Y-100915885D01*
X180603123Y-100878928D01*
X180630401Y-100866782D01*
X180655959Y-100850724D01*
X180705059Y-100833542D01*
X180756054Y-100810839D01*
X180791439Y-100803317D01*
X180825261Y-100791483D01*
X180871773Y-100786242D01*
X180919800Y-100776034D01*
X180962373Y-100776034D01*
X181003500Y-100771400D01*
X181044627Y-100776034D01*
G37*
G36*
X138869638Y-99593123D02*
G01*
X138921819Y-99599177D01*
X138939647Y-99607049D01*
X138962054Y-99611506D01*
X138986042Y-99627534D01*
X139007409Y-99636969D01*
X139022002Y-99651562D01*
X139043484Y-99665916D01*
X139057837Y-99687397D01*
X139072430Y-99701990D01*
X139081863Y-99723354D01*
X139097894Y-99747346D01*
X139102351Y-99769754D01*
X139110222Y-99787580D01*
X139116274Y-99839751D01*
X139117000Y-99843400D01*
X139117000Y-100393400D01*
X139116273Y-100397051D01*
X139110222Y-100449219D01*
X139102351Y-100467043D01*
X139097894Y-100489454D01*
X139081862Y-100513447D01*
X139072430Y-100534809D01*
X139057839Y-100549399D01*
X139043484Y-100570884D01*
X139021999Y-100585239D01*
X139007409Y-100599830D01*
X138986047Y-100609262D01*
X138962054Y-100625294D01*
X138939643Y-100629751D01*
X138921819Y-100637622D01*
X138869650Y-100643673D01*
X138866000Y-100644400D01*
X138466000Y-100644400D01*
X138462351Y-100643674D01*
X138410180Y-100637622D01*
X138392354Y-100629751D01*
X138369946Y-100625294D01*
X138345954Y-100609263D01*
X138324590Y-100599830D01*
X138309997Y-100585237D01*
X138288516Y-100570884D01*
X138274162Y-100549402D01*
X138259569Y-100534809D01*
X138250134Y-100513442D01*
X138234106Y-100489454D01*
X138229649Y-100467047D01*
X138221777Y-100449219D01*
X138215723Y-100397038D01*
X138215000Y-100393400D01*
X138215000Y-99843400D01*
X138215723Y-99839761D01*
X138221777Y-99787580D01*
X138229649Y-99769750D01*
X138234106Y-99747346D01*
X138250133Y-99723359D01*
X138259569Y-99701990D01*
X138274164Y-99687394D01*
X138288516Y-99665916D01*
X138309994Y-99651564D01*
X138324590Y-99636969D01*
X138345959Y-99627533D01*
X138369946Y-99611506D01*
X138392350Y-99607049D01*
X138410180Y-99599177D01*
X138462363Y-99593123D01*
X138466000Y-99592400D01*
X138866000Y-99592400D01*
X138869638Y-99593123D01*
G37*
G36*
X140519638Y-99593123D02*
G01*
X140571819Y-99599177D01*
X140589647Y-99607049D01*
X140612054Y-99611506D01*
X140636042Y-99627534D01*
X140657409Y-99636969D01*
X140672002Y-99651562D01*
X140693484Y-99665916D01*
X140707837Y-99687397D01*
X140722430Y-99701990D01*
X140731863Y-99723354D01*
X140747894Y-99747346D01*
X140752351Y-99769754D01*
X140760222Y-99787580D01*
X140766274Y-99839751D01*
X140767000Y-99843400D01*
X140767000Y-100393400D01*
X140766273Y-100397051D01*
X140760222Y-100449219D01*
X140752351Y-100467043D01*
X140747894Y-100489454D01*
X140731862Y-100513447D01*
X140722430Y-100534809D01*
X140707839Y-100549399D01*
X140693484Y-100570884D01*
X140671999Y-100585239D01*
X140657409Y-100599830D01*
X140636047Y-100609262D01*
X140612054Y-100625294D01*
X140589643Y-100629751D01*
X140571819Y-100637622D01*
X140519650Y-100643673D01*
X140516000Y-100644400D01*
X140116000Y-100644400D01*
X140112351Y-100643674D01*
X140060180Y-100637622D01*
X140042354Y-100629751D01*
X140019946Y-100625294D01*
X139995954Y-100609263D01*
X139974590Y-100599830D01*
X139959997Y-100585237D01*
X139938516Y-100570884D01*
X139924162Y-100549402D01*
X139909569Y-100534809D01*
X139900134Y-100513442D01*
X139884106Y-100489454D01*
X139879649Y-100467047D01*
X139871777Y-100449219D01*
X139865723Y-100397038D01*
X139865000Y-100393400D01*
X139865000Y-99843400D01*
X139865723Y-99839761D01*
X139871777Y-99787580D01*
X139879649Y-99769750D01*
X139884106Y-99747346D01*
X139900133Y-99723359D01*
X139909569Y-99701990D01*
X139924164Y-99687394D01*
X139938516Y-99665916D01*
X139959994Y-99651564D01*
X139974590Y-99636969D01*
X139995959Y-99627533D01*
X140019946Y-99611506D01*
X140042350Y-99607049D01*
X140060180Y-99599177D01*
X140112363Y-99593123D01*
X140116000Y-99592400D01*
X140516000Y-99592400D01*
X140519638Y-99593123D01*
G37*
G36*
X174694627Y-98236034D02*
G01*
X174737200Y-98236034D01*
X174785225Y-98246242D01*
X174831739Y-98251483D01*
X174865562Y-98263318D01*
X174900945Y-98270839D01*
X174951937Y-98293541D01*
X175001041Y-98310724D01*
X175026598Y-98326783D01*
X175053877Y-98338928D01*
X175104742Y-98375883D01*
X175152915Y-98406153D01*
X175170215Y-98423453D01*
X175189308Y-98437325D01*
X175236510Y-98489748D01*
X175279747Y-98532985D01*
X175289692Y-98548812D01*
X175301324Y-98561731D01*
X175341114Y-98630650D01*
X175375176Y-98684859D01*
X175379429Y-98697013D01*
X175385022Y-98706701D01*
X175413660Y-98794842D01*
X175434417Y-98854161D01*
X175435204Y-98861146D01*
X175436754Y-98865917D01*
X175450809Y-98999642D01*
X175454500Y-99032400D01*
X175450808Y-99065160D01*
X175436754Y-99198882D01*
X175435204Y-99203651D01*
X175434417Y-99210639D01*
X175413656Y-99269970D01*
X175385022Y-99358098D01*
X175379430Y-99367783D01*
X175375176Y-99379941D01*
X175341107Y-99434160D01*
X175301324Y-99503068D01*
X175289694Y-99515984D01*
X175279747Y-99531815D01*
X175236501Y-99575060D01*
X175189308Y-99627474D01*
X175170218Y-99641343D01*
X175152915Y-99658647D01*
X175104731Y-99688922D01*
X175053877Y-99725871D01*
X175026604Y-99738013D01*
X175001041Y-99754076D01*
X174951926Y-99771261D01*
X174900945Y-99793960D01*
X174865567Y-99801479D01*
X174831739Y-99813317D01*
X174785222Y-99818558D01*
X174737200Y-99828766D01*
X174694627Y-99828766D01*
X174653500Y-99833400D01*
X174612373Y-99828766D01*
X174569800Y-99828766D01*
X174521776Y-99818558D01*
X174475261Y-99813317D01*
X174441433Y-99801480D01*
X174406054Y-99793960D01*
X174355068Y-99771260D01*
X174305959Y-99754076D01*
X174280398Y-99738014D01*
X174253122Y-99725871D01*
X174202260Y-99688917D01*
X174154085Y-99658647D01*
X174136783Y-99641345D01*
X174117691Y-99627474D01*
X174070488Y-99575050D01*
X174027253Y-99531815D01*
X174017308Y-99515987D01*
X174005675Y-99503068D01*
X173965880Y-99434140D01*
X173931824Y-99379941D01*
X173927571Y-99367788D01*
X173921977Y-99358098D01*
X173893329Y-99269930D01*
X173872583Y-99210639D01*
X173871796Y-99203656D01*
X173870245Y-99198882D01*
X173856176Y-99065028D01*
X173852500Y-99032400D01*
X173856176Y-98999774D01*
X173870245Y-98865917D01*
X173871796Y-98861142D01*
X173872583Y-98854161D01*
X173893325Y-98794882D01*
X173921977Y-98706701D01*
X173927572Y-98697009D01*
X173931824Y-98684859D01*
X173965873Y-98630670D01*
X174005675Y-98561731D01*
X174017310Y-98548808D01*
X174027253Y-98532985D01*
X174070479Y-98489758D01*
X174117691Y-98437325D01*
X174136787Y-98423450D01*
X174154085Y-98406153D01*
X174202255Y-98375885D01*
X174253123Y-98338928D01*
X174280401Y-98326782D01*
X174305959Y-98310724D01*
X174355059Y-98293542D01*
X174406054Y-98270839D01*
X174441439Y-98263317D01*
X174475261Y-98251483D01*
X174521773Y-98246242D01*
X174569800Y-98236034D01*
X174612373Y-98236034D01*
X174653500Y-98231400D01*
X174694627Y-98236034D01*
G37*
G36*
X177234627Y-98236034D02*
G01*
X177277200Y-98236034D01*
X177325225Y-98246242D01*
X177371739Y-98251483D01*
X177405562Y-98263318D01*
X177440945Y-98270839D01*
X177491937Y-98293541D01*
X177541041Y-98310724D01*
X177566598Y-98326783D01*
X177593877Y-98338928D01*
X177644742Y-98375883D01*
X177692915Y-98406153D01*
X177710215Y-98423453D01*
X177729308Y-98437325D01*
X177776510Y-98489748D01*
X177819747Y-98532985D01*
X177829692Y-98548812D01*
X177841324Y-98561731D01*
X177881114Y-98630650D01*
X177915176Y-98684859D01*
X177919429Y-98697013D01*
X177925022Y-98706701D01*
X177953660Y-98794842D01*
X177974417Y-98854161D01*
X177975204Y-98861146D01*
X177976754Y-98865917D01*
X177990809Y-98999642D01*
X177994500Y-99032400D01*
X177990808Y-99065160D01*
X177976754Y-99198882D01*
X177975204Y-99203651D01*
X177974417Y-99210639D01*
X177953656Y-99269970D01*
X177925022Y-99358098D01*
X177919430Y-99367783D01*
X177915176Y-99379941D01*
X177881107Y-99434160D01*
X177841324Y-99503068D01*
X177829694Y-99515984D01*
X177819747Y-99531815D01*
X177776501Y-99575060D01*
X177729308Y-99627474D01*
X177710218Y-99641343D01*
X177692915Y-99658647D01*
X177644731Y-99688922D01*
X177593877Y-99725871D01*
X177566604Y-99738013D01*
X177541041Y-99754076D01*
X177491926Y-99771261D01*
X177440945Y-99793960D01*
X177405567Y-99801479D01*
X177371739Y-99813317D01*
X177325222Y-99818558D01*
X177277200Y-99828766D01*
X177234627Y-99828766D01*
X177193500Y-99833400D01*
X177152373Y-99828766D01*
X177109800Y-99828766D01*
X177061776Y-99818558D01*
X177015261Y-99813317D01*
X176981433Y-99801480D01*
X176946054Y-99793960D01*
X176895068Y-99771260D01*
X176845959Y-99754076D01*
X176820398Y-99738014D01*
X176793122Y-99725871D01*
X176742260Y-99688917D01*
X176694085Y-99658647D01*
X176676783Y-99641345D01*
X176657691Y-99627474D01*
X176610488Y-99575050D01*
X176567253Y-99531815D01*
X176557308Y-99515987D01*
X176545675Y-99503068D01*
X176505880Y-99434140D01*
X176471824Y-99379941D01*
X176467571Y-99367788D01*
X176461977Y-99358098D01*
X176433329Y-99269930D01*
X176412583Y-99210639D01*
X176411796Y-99203656D01*
X176410245Y-99198882D01*
X176396176Y-99065028D01*
X176392500Y-99032400D01*
X176396176Y-98999774D01*
X176410245Y-98865917D01*
X176411796Y-98861142D01*
X176412583Y-98854161D01*
X176433325Y-98794882D01*
X176461977Y-98706701D01*
X176467572Y-98697009D01*
X176471824Y-98684859D01*
X176505873Y-98630670D01*
X176545675Y-98561731D01*
X176557310Y-98548808D01*
X176567253Y-98532985D01*
X176610479Y-98489758D01*
X176657691Y-98437325D01*
X176676787Y-98423450D01*
X176694085Y-98406153D01*
X176742255Y-98375885D01*
X176793123Y-98338928D01*
X176820401Y-98326782D01*
X176845959Y-98310724D01*
X176895059Y-98293542D01*
X176946054Y-98270839D01*
X176981439Y-98263317D01*
X177015261Y-98251483D01*
X177061773Y-98246242D01*
X177109800Y-98236034D01*
X177152373Y-98236034D01*
X177193500Y-98231400D01*
X177234627Y-98236034D01*
G37*
G36*
X179774627Y-98236034D02*
G01*
X179817200Y-98236034D01*
X179865225Y-98246242D01*
X179911739Y-98251483D01*
X179945562Y-98263318D01*
X179980945Y-98270839D01*
X180031937Y-98293541D01*
X180081041Y-98310724D01*
X180106598Y-98326783D01*
X180133877Y-98338928D01*
X180184742Y-98375883D01*
X180232915Y-98406153D01*
X180250215Y-98423453D01*
X180269308Y-98437325D01*
X180316510Y-98489748D01*
X180359747Y-98532985D01*
X180369692Y-98548812D01*
X180381324Y-98561731D01*
X180421114Y-98630650D01*
X180455176Y-98684859D01*
X180459429Y-98697013D01*
X180465022Y-98706701D01*
X180493660Y-98794842D01*
X180514417Y-98854161D01*
X180515204Y-98861146D01*
X180516754Y-98865917D01*
X180530809Y-98999642D01*
X180534500Y-99032400D01*
X180530808Y-99065160D01*
X180516754Y-99198882D01*
X180515204Y-99203651D01*
X180514417Y-99210639D01*
X180493656Y-99269970D01*
X180465022Y-99358098D01*
X180459430Y-99367783D01*
X180455176Y-99379941D01*
X180421107Y-99434160D01*
X180381324Y-99503068D01*
X180369694Y-99515984D01*
X180359747Y-99531815D01*
X180316501Y-99575060D01*
X180269308Y-99627474D01*
X180250218Y-99641343D01*
X180232915Y-99658647D01*
X180184731Y-99688922D01*
X180133877Y-99725871D01*
X180106604Y-99738013D01*
X180081041Y-99754076D01*
X180031926Y-99771261D01*
X179980945Y-99793960D01*
X179945567Y-99801479D01*
X179911739Y-99813317D01*
X179865222Y-99818558D01*
X179817200Y-99828766D01*
X179774627Y-99828766D01*
X179733500Y-99833400D01*
X179692373Y-99828766D01*
X179649800Y-99828766D01*
X179601776Y-99818558D01*
X179555261Y-99813317D01*
X179521433Y-99801480D01*
X179486054Y-99793960D01*
X179435068Y-99771260D01*
X179385959Y-99754076D01*
X179360398Y-99738014D01*
X179333122Y-99725871D01*
X179282260Y-99688917D01*
X179234085Y-99658647D01*
X179216783Y-99641345D01*
X179197691Y-99627474D01*
X179150488Y-99575050D01*
X179107253Y-99531815D01*
X179097308Y-99515987D01*
X179085675Y-99503068D01*
X179045880Y-99434140D01*
X179011824Y-99379941D01*
X179007571Y-99367788D01*
X179001977Y-99358098D01*
X178973329Y-99269930D01*
X178952583Y-99210639D01*
X178951796Y-99203656D01*
X178950245Y-99198882D01*
X178936176Y-99065028D01*
X178932500Y-99032400D01*
X178936176Y-98999774D01*
X178950245Y-98865917D01*
X178951796Y-98861142D01*
X178952583Y-98854161D01*
X178973325Y-98794882D01*
X179001977Y-98706701D01*
X179007572Y-98697009D01*
X179011824Y-98684859D01*
X179045873Y-98630670D01*
X179085675Y-98561731D01*
X179097310Y-98548808D01*
X179107253Y-98532985D01*
X179150479Y-98489758D01*
X179197691Y-98437325D01*
X179216787Y-98423450D01*
X179234085Y-98406153D01*
X179282255Y-98375885D01*
X179333123Y-98338928D01*
X179360401Y-98326782D01*
X179385959Y-98310724D01*
X179435059Y-98293542D01*
X179486054Y-98270839D01*
X179521439Y-98263317D01*
X179555261Y-98251483D01*
X179601773Y-98246242D01*
X179649800Y-98236034D01*
X179692373Y-98236034D01*
X179733500Y-98231400D01*
X179774627Y-98236034D01*
G37*
G36*
X182314627Y-98236034D02*
G01*
X182357200Y-98236034D01*
X182405225Y-98246242D01*
X182451739Y-98251483D01*
X182485562Y-98263318D01*
X182520945Y-98270839D01*
X182571937Y-98293541D01*
X182621041Y-98310724D01*
X182646598Y-98326783D01*
X182673877Y-98338928D01*
X182724742Y-98375883D01*
X182772915Y-98406153D01*
X182790215Y-98423453D01*
X182809308Y-98437325D01*
X182856510Y-98489748D01*
X182899747Y-98532985D01*
X182909692Y-98548812D01*
X182921324Y-98561731D01*
X182961114Y-98630650D01*
X182995176Y-98684859D01*
X182999429Y-98697013D01*
X183005022Y-98706701D01*
X183033660Y-98794842D01*
X183054417Y-98854161D01*
X183055204Y-98861146D01*
X183056754Y-98865917D01*
X183070809Y-98999642D01*
X183074500Y-99032400D01*
X183070808Y-99065160D01*
X183056754Y-99198882D01*
X183055204Y-99203651D01*
X183054417Y-99210639D01*
X183033656Y-99269970D01*
X183005022Y-99358098D01*
X182999430Y-99367783D01*
X182995176Y-99379941D01*
X182961107Y-99434160D01*
X182921324Y-99503068D01*
X182909694Y-99515984D01*
X182899747Y-99531815D01*
X182856501Y-99575060D01*
X182809308Y-99627474D01*
X182790218Y-99641343D01*
X182772915Y-99658647D01*
X182724731Y-99688922D01*
X182673877Y-99725871D01*
X182646604Y-99738013D01*
X182621041Y-99754076D01*
X182571926Y-99771261D01*
X182520945Y-99793960D01*
X182485567Y-99801479D01*
X182451739Y-99813317D01*
X182405222Y-99818558D01*
X182357200Y-99828766D01*
X182314627Y-99828766D01*
X182273500Y-99833400D01*
X182232373Y-99828766D01*
X182189800Y-99828766D01*
X182141776Y-99818558D01*
X182095261Y-99813317D01*
X182061433Y-99801480D01*
X182026054Y-99793960D01*
X181975068Y-99771260D01*
X181925959Y-99754076D01*
X181900398Y-99738014D01*
X181873122Y-99725871D01*
X181822260Y-99688917D01*
X181774085Y-99658647D01*
X181756783Y-99641345D01*
X181737691Y-99627474D01*
X181690488Y-99575050D01*
X181647253Y-99531815D01*
X181637308Y-99515987D01*
X181625675Y-99503068D01*
X181585880Y-99434140D01*
X181551824Y-99379941D01*
X181547571Y-99367788D01*
X181541977Y-99358098D01*
X181513329Y-99269930D01*
X181492583Y-99210639D01*
X181491796Y-99203656D01*
X181490245Y-99198882D01*
X181476176Y-99065028D01*
X181472500Y-99032400D01*
X181476176Y-98999774D01*
X181490245Y-98865917D01*
X181491796Y-98861142D01*
X181492583Y-98854161D01*
X181513325Y-98794882D01*
X181541977Y-98706701D01*
X181547572Y-98697009D01*
X181551824Y-98684859D01*
X181585873Y-98630670D01*
X181625675Y-98561731D01*
X181637310Y-98548808D01*
X181647253Y-98532985D01*
X181690479Y-98489758D01*
X181737691Y-98437325D01*
X181756787Y-98423450D01*
X181774085Y-98406153D01*
X181822255Y-98375885D01*
X181873123Y-98338928D01*
X181900401Y-98326782D01*
X181925959Y-98310724D01*
X181975059Y-98293542D01*
X182026054Y-98270839D01*
X182061439Y-98263317D01*
X182095261Y-98251483D01*
X182141773Y-98246242D01*
X182189800Y-98236034D01*
X182232373Y-98236034D01*
X182273500Y-98231400D01*
X182314627Y-98236034D01*
G37*
G36*
X142144639Y-98668123D02*
G01*
X142196819Y-98674177D01*
X142214647Y-98682049D01*
X142237054Y-98686506D01*
X142261042Y-98702534D01*
X142282409Y-98711969D01*
X142297002Y-98726562D01*
X142318484Y-98740916D01*
X142332837Y-98762397D01*
X142347430Y-98776990D01*
X142356863Y-98798354D01*
X142372894Y-98822346D01*
X142377351Y-98844754D01*
X142385222Y-98862580D01*
X142391274Y-98914751D01*
X142392000Y-98918400D01*
X142392000Y-99318400D01*
X142391273Y-99322050D01*
X142385222Y-99374219D01*
X142377351Y-99392043D01*
X142372894Y-99414454D01*
X142356862Y-99438447D01*
X142347430Y-99459809D01*
X142332839Y-99474399D01*
X142318484Y-99495884D01*
X142296999Y-99510239D01*
X142282409Y-99524830D01*
X142261047Y-99534262D01*
X142237054Y-99550294D01*
X142214643Y-99554751D01*
X142196819Y-99562622D01*
X142144650Y-99568673D01*
X142141000Y-99569400D01*
X141591000Y-99569400D01*
X141587349Y-99568673D01*
X141535180Y-99562622D01*
X141517354Y-99554751D01*
X141494946Y-99550294D01*
X141470954Y-99534263D01*
X141449590Y-99524830D01*
X141434997Y-99510237D01*
X141413516Y-99495884D01*
X141399162Y-99474402D01*
X141384569Y-99459809D01*
X141375134Y-99438442D01*
X141359106Y-99414454D01*
X141354649Y-99392047D01*
X141346777Y-99374219D01*
X141340723Y-99322038D01*
X141340000Y-99318400D01*
X141340000Y-98918400D01*
X141340723Y-98914763D01*
X141346777Y-98862580D01*
X141354649Y-98844750D01*
X141359106Y-98822346D01*
X141375133Y-98798359D01*
X141384569Y-98776990D01*
X141399164Y-98762394D01*
X141413516Y-98740916D01*
X141434994Y-98726564D01*
X141449590Y-98711969D01*
X141470959Y-98702533D01*
X141494946Y-98686506D01*
X141517350Y-98682049D01*
X141535180Y-98674177D01*
X141587363Y-98668123D01*
X141591000Y-98667400D01*
X142141000Y-98667400D01*
X142144639Y-98668123D01*
G37*
G36*
X142144639Y-97018123D02*
G01*
X142196819Y-97024177D01*
X142214647Y-97032049D01*
X142237054Y-97036506D01*
X142261042Y-97052534D01*
X142282409Y-97061969D01*
X142297002Y-97076562D01*
X142318484Y-97090916D01*
X142332837Y-97112397D01*
X142347430Y-97126990D01*
X142356863Y-97148354D01*
X142372894Y-97172346D01*
X142377351Y-97194754D01*
X142385222Y-97212580D01*
X142391274Y-97264751D01*
X142392000Y-97268400D01*
X142392000Y-97668400D01*
X142391273Y-97672050D01*
X142385222Y-97724219D01*
X142377351Y-97742043D01*
X142372894Y-97764454D01*
X142356862Y-97788447D01*
X142347430Y-97809809D01*
X142332839Y-97824399D01*
X142318484Y-97845884D01*
X142296999Y-97860239D01*
X142282409Y-97874830D01*
X142261047Y-97884262D01*
X142237054Y-97900294D01*
X142214643Y-97904751D01*
X142196819Y-97912622D01*
X142144650Y-97918673D01*
X142141000Y-97919400D01*
X141591000Y-97919400D01*
X141587349Y-97918673D01*
X141535180Y-97912622D01*
X141517354Y-97904751D01*
X141494946Y-97900294D01*
X141470954Y-97884263D01*
X141449590Y-97874830D01*
X141434997Y-97860237D01*
X141413516Y-97845884D01*
X141399162Y-97824402D01*
X141384569Y-97809809D01*
X141375134Y-97788442D01*
X141359106Y-97764454D01*
X141354649Y-97742047D01*
X141346777Y-97724219D01*
X141340723Y-97672038D01*
X141340000Y-97668400D01*
X141340000Y-97268400D01*
X141340723Y-97264763D01*
X141346777Y-97212580D01*
X141354649Y-97194750D01*
X141359106Y-97172346D01*
X141375133Y-97148359D01*
X141384569Y-97126990D01*
X141399164Y-97112394D01*
X141413516Y-97090916D01*
X141434994Y-97076564D01*
X141449590Y-97061969D01*
X141470959Y-97052533D01*
X141494946Y-97036506D01*
X141517350Y-97032049D01*
X141535180Y-97024177D01*
X141587363Y-97018123D01*
X141591000Y-97017400D01*
X142141000Y-97017400D01*
X142144639Y-97018123D01*
G37*
G36*
X140630517Y-95376282D02*
G01*
X140647062Y-95387338D01*
X140658118Y-95403883D01*
X140662000Y-95423400D01*
X140662000Y-96023400D01*
X140658118Y-96042917D01*
X140647062Y-96059462D01*
X140630517Y-96070518D01*
X140611000Y-96074400D01*
X139361000Y-96074400D01*
X139341483Y-96070518D01*
X139324938Y-96059462D01*
X139313882Y-96042917D01*
X139310000Y-96023400D01*
X139310000Y-95423400D01*
X139313882Y-95403883D01*
X139324938Y-95387338D01*
X139341483Y-95376282D01*
X139361000Y-95372400D01*
X140611000Y-95372400D01*
X140630517Y-95376282D01*
G37*
G36*
X146063039Y-93692033D02*
G01*
X146112033Y-93692033D01*
X146166602Y-93702233D01*
X146219089Y-93707403D01*
X146258957Y-93719496D01*
X146300831Y-93727324D01*
X146358819Y-93749789D01*
X146414373Y-93766641D01*
X146446121Y-93783610D01*
X146479926Y-93796707D01*
X146538667Y-93833077D01*
X146594349Y-93862840D01*
X146617739Y-93882036D01*
X146643225Y-93897816D01*
X146699697Y-93949297D01*
X146752098Y-93992302D01*
X146767627Y-94011224D01*
X146785167Y-94027214D01*
X146836082Y-94094636D01*
X146881560Y-94150051D01*
X146890354Y-94166504D01*
X146900913Y-94180486D01*
X146942918Y-94264845D01*
X146977759Y-94330027D01*
X146981475Y-94342277D01*
X146986523Y-94352415D01*
X147016350Y-94457249D01*
X147036997Y-94525311D01*
X147037675Y-94532195D01*
X147039085Y-94537151D01*
X147053738Y-94695290D01*
X147057000Y-94728400D01*
X147053738Y-94761511D01*
X147039085Y-94919648D01*
X147037675Y-94924602D01*
X147036997Y-94931489D01*
X147016346Y-94999565D01*
X146986523Y-95104384D01*
X146981475Y-95114520D01*
X146977759Y-95126773D01*
X146942911Y-95191968D01*
X146900913Y-95276313D01*
X146890356Y-95290292D01*
X146881560Y-95306749D01*
X146836073Y-95362174D01*
X146785167Y-95429585D01*
X146767630Y-95445571D01*
X146752098Y-95464498D01*
X146699686Y-95507511D01*
X146643225Y-95558983D01*
X146617744Y-95574759D01*
X146594349Y-95593960D01*
X146538655Y-95623728D01*
X146479926Y-95660092D01*
X146446127Y-95673185D01*
X146414373Y-95690159D01*
X146358807Y-95707014D01*
X146300831Y-95729475D01*
X146258964Y-95737301D01*
X146219089Y-95749397D01*
X146166599Y-95754566D01*
X146112033Y-95764767D01*
X146063039Y-95764767D01*
X146016000Y-95769400D01*
X145968961Y-95764767D01*
X145919967Y-95764767D01*
X145865399Y-95754566D01*
X145812911Y-95749397D01*
X145773037Y-95737301D01*
X145731168Y-95729475D01*
X145673187Y-95707013D01*
X145617627Y-95690159D01*
X145585874Y-95673187D01*
X145552073Y-95660092D01*
X145493336Y-95623724D01*
X145437651Y-95593960D01*
X145414258Y-95574761D01*
X145388774Y-95558983D01*
X145332303Y-95507503D01*
X145279902Y-95464498D01*
X145264372Y-95445575D01*
X145246832Y-95429585D01*
X145195914Y-95362159D01*
X145150440Y-95306749D01*
X145141646Y-95290296D01*
X145131086Y-95276313D01*
X145089074Y-95191941D01*
X145054241Y-95126773D01*
X145050525Y-95114525D01*
X145045476Y-95104384D01*
X145015637Y-94999512D01*
X144995003Y-94931489D01*
X144994325Y-94924608D01*
X144992914Y-94919648D01*
X144978244Y-94761340D01*
X144975000Y-94728400D01*
X144978244Y-94695462D01*
X144992914Y-94537151D01*
X144994325Y-94532190D01*
X144995003Y-94525311D01*
X145015632Y-94457302D01*
X145045476Y-94352415D01*
X145050526Y-94342272D01*
X145054241Y-94330027D01*
X145089066Y-94264872D01*
X145131086Y-94180486D01*
X145141648Y-94166499D01*
X145150440Y-94150051D01*
X145195904Y-94094652D01*
X145246832Y-94027214D01*
X145264375Y-94011220D01*
X145279902Y-93992302D01*
X145332292Y-93949305D01*
X145388774Y-93897816D01*
X145414263Y-93882033D01*
X145437651Y-93862840D01*
X145493325Y-93833081D01*
X145552073Y-93796707D01*
X145585881Y-93783609D01*
X145617627Y-93766641D01*
X145673176Y-93749790D01*
X145731168Y-93727324D01*
X145773043Y-93719496D01*
X145812911Y-93707403D01*
X145865396Y-93702233D01*
X145919967Y-93692033D01*
X145968961Y-93692033D01*
X146016000Y-93687400D01*
X146063039Y-93692033D01*
G37*
G36*
X158263039Y-93692033D02*
G01*
X158312033Y-93692033D01*
X158366602Y-93702233D01*
X158419089Y-93707403D01*
X158458957Y-93719496D01*
X158500831Y-93727324D01*
X158558819Y-93749789D01*
X158614373Y-93766641D01*
X158646121Y-93783610D01*
X158679926Y-93796707D01*
X158738667Y-93833077D01*
X158794349Y-93862840D01*
X158817739Y-93882036D01*
X158843225Y-93897816D01*
X158899697Y-93949297D01*
X158952098Y-93992302D01*
X158967627Y-94011224D01*
X158985167Y-94027214D01*
X159036082Y-94094636D01*
X159081560Y-94150051D01*
X159090354Y-94166504D01*
X159100913Y-94180486D01*
X159142918Y-94264845D01*
X159177759Y-94330027D01*
X159181475Y-94342277D01*
X159186523Y-94352415D01*
X159216350Y-94457249D01*
X159236997Y-94525311D01*
X159237675Y-94532195D01*
X159239085Y-94537151D01*
X159253738Y-94695290D01*
X159257000Y-94728400D01*
X159253738Y-94761511D01*
X159239085Y-94919648D01*
X159237675Y-94924602D01*
X159236997Y-94931489D01*
X159216346Y-94999565D01*
X159186523Y-95104384D01*
X159181475Y-95114520D01*
X159177759Y-95126773D01*
X159142911Y-95191968D01*
X159100913Y-95276313D01*
X159090356Y-95290292D01*
X159081560Y-95306749D01*
X159036073Y-95362174D01*
X158985167Y-95429585D01*
X158967630Y-95445571D01*
X158952098Y-95464498D01*
X158899686Y-95507511D01*
X158843225Y-95558983D01*
X158817744Y-95574759D01*
X158794349Y-95593960D01*
X158738655Y-95623728D01*
X158679926Y-95660092D01*
X158646127Y-95673185D01*
X158614373Y-95690159D01*
X158558807Y-95707014D01*
X158500831Y-95729475D01*
X158458964Y-95737301D01*
X158419089Y-95749397D01*
X158366599Y-95754566D01*
X158312033Y-95764767D01*
X158263039Y-95764767D01*
X158216000Y-95769400D01*
X158168961Y-95764767D01*
X158119967Y-95764767D01*
X158065399Y-95754566D01*
X158012911Y-95749397D01*
X157973037Y-95737301D01*
X157931168Y-95729475D01*
X157873187Y-95707013D01*
X157817627Y-95690159D01*
X157785874Y-95673187D01*
X157752073Y-95660092D01*
X157693336Y-95623724D01*
X157637651Y-95593960D01*
X157614258Y-95574761D01*
X157588774Y-95558983D01*
X157532303Y-95507503D01*
X157479902Y-95464498D01*
X157464372Y-95445575D01*
X157446832Y-95429585D01*
X157395914Y-95362159D01*
X157350440Y-95306749D01*
X157341646Y-95290296D01*
X157331086Y-95276313D01*
X157289074Y-95191941D01*
X157254241Y-95126773D01*
X157250525Y-95114525D01*
X157245476Y-95104384D01*
X157215637Y-94999512D01*
X157195003Y-94931489D01*
X157194325Y-94924608D01*
X157192914Y-94919648D01*
X157178244Y-94761340D01*
X157175000Y-94728400D01*
X157178244Y-94695462D01*
X157192914Y-94537151D01*
X157194325Y-94532190D01*
X157195003Y-94525311D01*
X157215632Y-94457302D01*
X157245476Y-94352415D01*
X157250526Y-94342272D01*
X157254241Y-94330027D01*
X157289066Y-94264872D01*
X157331086Y-94180486D01*
X157341648Y-94166499D01*
X157350440Y-94150051D01*
X157395904Y-94094652D01*
X157446832Y-94027214D01*
X157464375Y-94011220D01*
X157479902Y-93992302D01*
X157532292Y-93949305D01*
X157588774Y-93897816D01*
X157614263Y-93882033D01*
X157637651Y-93862840D01*
X157693325Y-93833081D01*
X157752073Y-93796707D01*
X157785881Y-93783609D01*
X157817627Y-93766641D01*
X157873176Y-93749790D01*
X157931168Y-93727324D01*
X157973043Y-93719496D01*
X158012911Y-93707403D01*
X158065396Y-93702233D01*
X158119967Y-93692033D01*
X158168961Y-93692033D01*
X158216000Y-93687400D01*
X158263039Y-93692033D01*
G37*
G36*
X177460539Y-93312033D02*
G01*
X177509533Y-93312033D01*
X177564102Y-93322233D01*
X177616589Y-93327403D01*
X177656457Y-93339496D01*
X177698331Y-93347324D01*
X177756319Y-93369789D01*
X177811873Y-93386641D01*
X177843621Y-93403610D01*
X177877426Y-93416707D01*
X177936167Y-93453077D01*
X177991849Y-93482840D01*
X178015239Y-93502036D01*
X178040725Y-93517816D01*
X178097197Y-93569297D01*
X178149598Y-93612302D01*
X178165127Y-93631224D01*
X178182667Y-93647214D01*
X178233582Y-93714636D01*
X178279060Y-93770051D01*
X178287854Y-93786504D01*
X178298413Y-93800486D01*
X178340418Y-93884845D01*
X178375259Y-93950027D01*
X178378975Y-93962277D01*
X178384023Y-93972415D01*
X178413850Y-94077249D01*
X178434497Y-94145311D01*
X178435175Y-94152195D01*
X178436585Y-94157151D01*
X178451238Y-94315290D01*
X178454500Y-94348400D01*
X178451238Y-94381511D01*
X178436585Y-94539648D01*
X178435175Y-94544602D01*
X178434497Y-94551489D01*
X178413846Y-94619565D01*
X178384023Y-94724384D01*
X178378975Y-94734520D01*
X178375259Y-94746773D01*
X178340411Y-94811968D01*
X178298413Y-94896313D01*
X178287856Y-94910292D01*
X178279060Y-94926749D01*
X178233573Y-94982174D01*
X178182667Y-95049585D01*
X178165130Y-95065571D01*
X178149598Y-95084498D01*
X178097186Y-95127511D01*
X178040725Y-95178983D01*
X178015244Y-95194759D01*
X177991849Y-95213960D01*
X177936155Y-95243728D01*
X177877426Y-95280092D01*
X177843627Y-95293185D01*
X177811873Y-95310159D01*
X177756307Y-95327014D01*
X177698331Y-95349475D01*
X177656464Y-95357301D01*
X177616589Y-95369397D01*
X177564099Y-95374566D01*
X177509533Y-95384767D01*
X177460539Y-95384767D01*
X177413500Y-95389400D01*
X177366461Y-95384767D01*
X177317467Y-95384767D01*
X177262899Y-95374566D01*
X177210411Y-95369397D01*
X177170537Y-95357301D01*
X177128668Y-95349475D01*
X177070687Y-95327013D01*
X177015127Y-95310159D01*
X176983374Y-95293187D01*
X176949573Y-95280092D01*
X176890836Y-95243724D01*
X176835151Y-95213960D01*
X176811758Y-95194761D01*
X176786274Y-95178983D01*
X176729803Y-95127503D01*
X176677402Y-95084498D01*
X176661872Y-95065575D01*
X176644332Y-95049585D01*
X176593414Y-94982159D01*
X176547940Y-94926749D01*
X176539146Y-94910296D01*
X176528586Y-94896313D01*
X176486574Y-94811941D01*
X176451741Y-94746773D01*
X176448025Y-94734525D01*
X176442976Y-94724384D01*
X176413137Y-94619512D01*
X176392503Y-94551489D01*
X176391825Y-94544608D01*
X176390414Y-94539648D01*
X176375744Y-94381340D01*
X176372500Y-94348400D01*
X176375744Y-94315462D01*
X176390414Y-94157151D01*
X176391825Y-94152190D01*
X176392503Y-94145311D01*
X176413132Y-94077302D01*
X176442976Y-93972415D01*
X176448026Y-93962272D01*
X176451741Y-93950027D01*
X176486566Y-93884872D01*
X176528586Y-93800486D01*
X176539148Y-93786499D01*
X176547940Y-93770051D01*
X176593404Y-93714652D01*
X176644332Y-93647214D01*
X176661875Y-93631220D01*
X176677402Y-93612302D01*
X176729792Y-93569305D01*
X176786274Y-93517816D01*
X176811763Y-93502033D01*
X176835151Y-93482840D01*
X176890825Y-93453081D01*
X176949573Y-93416707D01*
X176983381Y-93403609D01*
X177015127Y-93386641D01*
X177070676Y-93369790D01*
X177128668Y-93347324D01*
X177170543Y-93339496D01*
X177210411Y-93327403D01*
X177262896Y-93322233D01*
X177317467Y-93312033D01*
X177366461Y-93312033D01*
X177413500Y-93307400D01*
X177460539Y-93312033D01*
G37*
G36*
X190623017Y-93311282D02*
G01*
X190639562Y-93322338D01*
X190650618Y-93338883D01*
X190654500Y-93358400D01*
X190654500Y-95338400D01*
X190650618Y-95357917D01*
X190639562Y-95374462D01*
X190623017Y-95385518D01*
X190603500Y-95389400D01*
X188623500Y-95389400D01*
X188603983Y-95385518D01*
X188587438Y-95374462D01*
X188576382Y-95357917D01*
X188572500Y-95338400D01*
X188572500Y-93358400D01*
X188576382Y-93338883D01*
X188587438Y-93322338D01*
X188603983Y-93311282D01*
X188623500Y-93307400D01*
X190603500Y-93307400D01*
X190623017Y-93311282D01*
G37*
G36*
X138530517Y-94421282D02*
G01*
X138547062Y-94432338D01*
X138558118Y-94448883D01*
X138562000Y-94468400D01*
X138562000Y-95068400D01*
X138558118Y-95087917D01*
X138547062Y-95104462D01*
X138530517Y-95115518D01*
X138511000Y-95119400D01*
X137261000Y-95119400D01*
X137241483Y-95115518D01*
X137224938Y-95104462D01*
X137213882Y-95087917D01*
X137210000Y-95068400D01*
X137210000Y-94468400D01*
X137213882Y-94448883D01*
X137224938Y-94432338D01*
X137241483Y-94421282D01*
X137261000Y-94417400D01*
X138511000Y-94417400D01*
X138530517Y-94421282D01*
G37*
G36*
X195304638Y-93523123D02*
G01*
X195356819Y-93529177D01*
X195374647Y-93537049D01*
X195397054Y-93541506D01*
X195421042Y-93557534D01*
X195442409Y-93566969D01*
X195457002Y-93581562D01*
X195478484Y-93595916D01*
X195492837Y-93617397D01*
X195507430Y-93631990D01*
X195516863Y-93653354D01*
X195532894Y-93677346D01*
X195537351Y-93699754D01*
X195545222Y-93717580D01*
X195551274Y-93769751D01*
X195552000Y-93773400D01*
X195552000Y-94323400D01*
X195551273Y-94327051D01*
X195545222Y-94379219D01*
X195537351Y-94397043D01*
X195532894Y-94419454D01*
X195516862Y-94443447D01*
X195507430Y-94464809D01*
X195492839Y-94479399D01*
X195478484Y-94500884D01*
X195456999Y-94515239D01*
X195442409Y-94529830D01*
X195421047Y-94539262D01*
X195397054Y-94555294D01*
X195374643Y-94559751D01*
X195356819Y-94567622D01*
X195304650Y-94573673D01*
X195301000Y-94574400D01*
X194901000Y-94574400D01*
X194897351Y-94573674D01*
X194845180Y-94567622D01*
X194827354Y-94559751D01*
X194804946Y-94555294D01*
X194780954Y-94539263D01*
X194759590Y-94529830D01*
X194744997Y-94515237D01*
X194723516Y-94500884D01*
X194709162Y-94479402D01*
X194694569Y-94464809D01*
X194685134Y-94443442D01*
X194669106Y-94419454D01*
X194664649Y-94397047D01*
X194656777Y-94379219D01*
X194650723Y-94327038D01*
X194650000Y-94323400D01*
X194650000Y-93773400D01*
X194650723Y-93769761D01*
X194656777Y-93717580D01*
X194664649Y-93699750D01*
X194669106Y-93677346D01*
X194685133Y-93653359D01*
X194694569Y-93631990D01*
X194709164Y-93617394D01*
X194723516Y-93595916D01*
X194744994Y-93581564D01*
X194759590Y-93566969D01*
X194780959Y-93557533D01*
X194804946Y-93541506D01*
X194827350Y-93537049D01*
X194845180Y-93529177D01*
X194897363Y-93523123D01*
X194901000Y-93522400D01*
X195301000Y-93522400D01*
X195304638Y-93523123D01*
G37*
G36*
X196954638Y-93523123D02*
G01*
X197006819Y-93529177D01*
X197024647Y-93537049D01*
X197047054Y-93541506D01*
X197071042Y-93557534D01*
X197092409Y-93566969D01*
X197107002Y-93581562D01*
X197128484Y-93595916D01*
X197142837Y-93617397D01*
X197157430Y-93631990D01*
X197166863Y-93653354D01*
X197182894Y-93677346D01*
X197187351Y-93699754D01*
X197195222Y-93717580D01*
X197201274Y-93769751D01*
X197202000Y-93773400D01*
X197202000Y-94323400D01*
X197201273Y-94327051D01*
X197195222Y-94379219D01*
X197187351Y-94397043D01*
X197182894Y-94419454D01*
X197166862Y-94443447D01*
X197157430Y-94464809D01*
X197142839Y-94479399D01*
X197128484Y-94500884D01*
X197106999Y-94515239D01*
X197092409Y-94529830D01*
X197071047Y-94539262D01*
X197047054Y-94555294D01*
X197024643Y-94559751D01*
X197006819Y-94567622D01*
X196954650Y-94573673D01*
X196951000Y-94574400D01*
X196551000Y-94574400D01*
X196547351Y-94573674D01*
X196495180Y-94567622D01*
X196477354Y-94559751D01*
X196454946Y-94555294D01*
X196430954Y-94539263D01*
X196409590Y-94529830D01*
X196394997Y-94515237D01*
X196373516Y-94500884D01*
X196359162Y-94479402D01*
X196344569Y-94464809D01*
X196335134Y-94443442D01*
X196319106Y-94419454D01*
X196314649Y-94397047D01*
X196306777Y-94379219D01*
X196300723Y-94327038D01*
X196300000Y-94323400D01*
X196300000Y-93773400D01*
X196300723Y-93769761D01*
X196306777Y-93717580D01*
X196314649Y-93699750D01*
X196319106Y-93677346D01*
X196335133Y-93653359D01*
X196344569Y-93631990D01*
X196359164Y-93617394D01*
X196373516Y-93595916D01*
X196394994Y-93581564D01*
X196409590Y-93566969D01*
X196430959Y-93557533D01*
X196454946Y-93541506D01*
X196477350Y-93537049D01*
X196495180Y-93529177D01*
X196547363Y-93523123D01*
X196551000Y-93522400D01*
X196951000Y-93522400D01*
X196954638Y-93523123D01*
G37*
G36*
X140630517Y-93466282D02*
G01*
X140647062Y-93477338D01*
X140658118Y-93493883D01*
X140662000Y-93513400D01*
X140662000Y-94113400D01*
X140658118Y-94132917D01*
X140647062Y-94149462D01*
X140630517Y-94160518D01*
X140611000Y-94164400D01*
X139361000Y-94164400D01*
X139341483Y-94160518D01*
X139324938Y-94149462D01*
X139313882Y-94132917D01*
X139310000Y-94113400D01*
X139310000Y-93513400D01*
X139313882Y-93493883D01*
X139324938Y-93477338D01*
X139341483Y-93466282D01*
X139361000Y-93462400D01*
X140611000Y-93462400D01*
X140630517Y-93466282D01*
G37*
G36*
X139724914Y-89825395D02*
G01*
X139729645Y-89827484D01*
X139732811Y-89827901D01*
X139772442Y-89846381D01*
X139826106Y-89870076D01*
X139904324Y-89948294D01*
X139928028Y-90001979D01*
X139946498Y-90041588D01*
X139946914Y-90044751D01*
X139949005Y-90049486D01*
X139957000Y-90118400D01*
X139957000Y-92118400D01*
X139949005Y-92187314D01*
X139946914Y-92192048D01*
X139946498Y-92195211D01*
X139928036Y-92234802D01*
X139904324Y-92288506D01*
X139826106Y-92366724D01*
X139772402Y-92390436D01*
X139732811Y-92408898D01*
X139729648Y-92409314D01*
X139724914Y-92411405D01*
X139656000Y-92419400D01*
X138356000Y-92419400D01*
X138287086Y-92411405D01*
X138282351Y-92409314D01*
X138279188Y-92408898D01*
X138239579Y-92390428D01*
X138185894Y-92366724D01*
X138107676Y-92288506D01*
X138083981Y-92234842D01*
X138065501Y-92195211D01*
X138065084Y-92192045D01*
X138062995Y-92187314D01*
X138055000Y-92118400D01*
X138055000Y-90118400D01*
X138062995Y-90049486D01*
X138065084Y-90044754D01*
X138065501Y-90041588D01*
X138083989Y-90001938D01*
X138107676Y-89948294D01*
X138185894Y-89870076D01*
X138239538Y-89846389D01*
X138279188Y-89827901D01*
X138282354Y-89827484D01*
X138287086Y-89825395D01*
X138356000Y-89817400D01*
X139656000Y-89817400D01*
X139724914Y-89825395D01*
G37*
G36*
X197024914Y-89395395D02*
G01*
X197029645Y-89397484D01*
X197032811Y-89397901D01*
X197072442Y-89416381D01*
X197126106Y-89440076D01*
X197204324Y-89518294D01*
X197228028Y-89571979D01*
X197246498Y-89611588D01*
X197246914Y-89614751D01*
X197249005Y-89619486D01*
X197257000Y-89688400D01*
X197257000Y-91688400D01*
X197249005Y-91757314D01*
X197246914Y-91762048D01*
X197246498Y-91765211D01*
X197228036Y-91804802D01*
X197204324Y-91858506D01*
X197126106Y-91936724D01*
X197072402Y-91960436D01*
X197032811Y-91978898D01*
X197029648Y-91979314D01*
X197024914Y-91981405D01*
X196956000Y-91989400D01*
X195656000Y-91989400D01*
X195587086Y-91981405D01*
X195582351Y-91979314D01*
X195579188Y-91978898D01*
X195539579Y-91960428D01*
X195485894Y-91936724D01*
X195407676Y-91858506D01*
X195383981Y-91804842D01*
X195365501Y-91765211D01*
X195365084Y-91762045D01*
X195362995Y-91757314D01*
X195355000Y-91688400D01*
X195355000Y-89688400D01*
X195362995Y-89619486D01*
X195365084Y-89614754D01*
X195365501Y-89611588D01*
X195383989Y-89571938D01*
X195407676Y-89518294D01*
X195485894Y-89440076D01*
X195539538Y-89416389D01*
X195579188Y-89397901D01*
X195582354Y-89397484D01*
X195587086Y-89395395D01*
X195656000Y-89387400D01*
X196956000Y-89387400D01*
X197024914Y-89395395D01*
G37*
G36*
X144214699Y-87729470D02*
G01*
X144405763Y-87787429D01*
X144581848Y-87881548D01*
X144736188Y-88008212D01*
X144862852Y-88162552D01*
X144956971Y-88338637D01*
X145014930Y-88529701D01*
X145034500Y-88728400D01*
X145014930Y-88927099D01*
X144956971Y-89118163D01*
X144862852Y-89294248D01*
X144736188Y-89448588D01*
X144581848Y-89575252D01*
X144405763Y-89669371D01*
X144214699Y-89727330D01*
X144016000Y-89746900D01*
X143817301Y-89727330D01*
X143626237Y-89669371D01*
X143450152Y-89575252D01*
X143295812Y-89448588D01*
X143169148Y-89294248D01*
X143075029Y-89118163D01*
X143017070Y-88927099D01*
X142997500Y-88728400D01*
X143017070Y-88529701D01*
X143075029Y-88338637D01*
X143169148Y-88162552D01*
X143295812Y-88008212D01*
X143450152Y-87881548D01*
X143626237Y-87787429D01*
X143817301Y-87729470D01*
X144016000Y-87709900D01*
X144214699Y-87729470D01*
G37*
G36*
X191812199Y-87349470D02*
G01*
X192003263Y-87407429D01*
X192179348Y-87501548D01*
X192333688Y-87628212D01*
X192460352Y-87782552D01*
X192554471Y-87958637D01*
X192612430Y-88149701D01*
X192632000Y-88348400D01*
X192612430Y-88547099D01*
X192554471Y-88738163D01*
X192460352Y-88914248D01*
X192333688Y-89068588D01*
X192179348Y-89195252D01*
X192003263Y-89289371D01*
X191812199Y-89347330D01*
X191613500Y-89366900D01*
X191414801Y-89347330D01*
X191223737Y-89289371D01*
X191047652Y-89195252D01*
X190893312Y-89068588D01*
X190766648Y-88914248D01*
X190672529Y-88738163D01*
X190614570Y-88547099D01*
X190595000Y-88348400D01*
X190614570Y-88149701D01*
X190672529Y-87958637D01*
X190766648Y-87782552D01*
X190893312Y-87628212D01*
X191047652Y-87501548D01*
X191223737Y-87407429D01*
X191414801Y-87349470D01*
X191613500Y-87329900D01*
X191812199Y-87349470D01*
G37*
G36*
X139724914Y-85825395D02*
G01*
X139729645Y-85827484D01*
X139732811Y-85827901D01*
X139772442Y-85846381D01*
X139826106Y-85870076D01*
X139904324Y-85948294D01*
X139928028Y-86001979D01*
X139946498Y-86041588D01*
X139946914Y-86044751D01*
X139949005Y-86049486D01*
X139957000Y-86118400D01*
X139957000Y-88118400D01*
X139949005Y-88187314D01*
X139946914Y-88192048D01*
X139946498Y-88195211D01*
X139928036Y-88234802D01*
X139904324Y-88288506D01*
X139826106Y-88366724D01*
X139772402Y-88390436D01*
X139732811Y-88408898D01*
X139729648Y-88409314D01*
X139724914Y-88411405D01*
X139656000Y-88419400D01*
X138356000Y-88419400D01*
X138287086Y-88411405D01*
X138282351Y-88409314D01*
X138279188Y-88408898D01*
X138239579Y-88390428D01*
X138185894Y-88366724D01*
X138107676Y-88288506D01*
X138083981Y-88234842D01*
X138065501Y-88195211D01*
X138065084Y-88192045D01*
X138062995Y-88187314D01*
X138055000Y-88118400D01*
X138055000Y-86118400D01*
X138062995Y-86049486D01*
X138065084Y-86044754D01*
X138065501Y-86041588D01*
X138083989Y-86001938D01*
X138107676Y-85948294D01*
X138185894Y-85870076D01*
X138239538Y-85846389D01*
X138279188Y-85827901D01*
X138282354Y-85827484D01*
X138287086Y-85825395D01*
X138356000Y-85817400D01*
X139656000Y-85817400D01*
X139724914Y-85825395D01*
G37*
G36*
X197024914Y-85395395D02*
G01*
X197029645Y-85397484D01*
X197032811Y-85397901D01*
X197072442Y-85416381D01*
X197126106Y-85440076D01*
X197204324Y-85518294D01*
X197228028Y-85571979D01*
X197246498Y-85611588D01*
X197246914Y-85614751D01*
X197249005Y-85619486D01*
X197257000Y-85688400D01*
X197257000Y-87688400D01*
X197249005Y-87757314D01*
X197246914Y-87762048D01*
X197246498Y-87765211D01*
X197228036Y-87804802D01*
X197204324Y-87858506D01*
X197126106Y-87936724D01*
X197072402Y-87960436D01*
X197032811Y-87978898D01*
X197029648Y-87979314D01*
X197024914Y-87981405D01*
X196956000Y-87989400D01*
X195656000Y-87989400D01*
X195587086Y-87981405D01*
X195582351Y-87979314D01*
X195579188Y-87978898D01*
X195539579Y-87960428D01*
X195485894Y-87936724D01*
X195407676Y-87858506D01*
X195383981Y-87804842D01*
X195365501Y-87765211D01*
X195365084Y-87762045D01*
X195362995Y-87757314D01*
X195355000Y-87688400D01*
X195355000Y-85688400D01*
X195362995Y-85619486D01*
X195365084Y-85614754D01*
X195365501Y-85611588D01*
X195383989Y-85571938D01*
X195407676Y-85518294D01*
X195485894Y-85440076D01*
X195539538Y-85416389D01*
X195579188Y-85397901D01*
X195582354Y-85397484D01*
X195587086Y-85395395D01*
X195656000Y-85387400D01*
X196956000Y-85387400D01*
X197024914Y-85395395D01*
G37*
G36*
X195830517Y-83366282D02*
G01*
X195847062Y-83377338D01*
X195858118Y-83393883D01*
X195862000Y-83413400D01*
X195862000Y-84013400D01*
X195858118Y-84032917D01*
X195847062Y-84049462D01*
X195830517Y-84060518D01*
X195811000Y-84064400D01*
X194561000Y-84064400D01*
X194541483Y-84060518D01*
X194524938Y-84049462D01*
X194513882Y-84032917D01*
X194510000Y-84013400D01*
X194510000Y-83413400D01*
X194513882Y-83393883D01*
X194524938Y-83377338D01*
X194541483Y-83366282D01*
X194561000Y-83362400D01*
X195811000Y-83362400D01*
X195830517Y-83366282D01*
G37*
G36*
X147025517Y-81691282D02*
G01*
X147042062Y-81702338D01*
X147053118Y-81718883D01*
X147057000Y-81738400D01*
X147057000Y-83718400D01*
X147053118Y-83737917D01*
X147042062Y-83754462D01*
X147025517Y-83765518D01*
X147006000Y-83769400D01*
X145026000Y-83769400D01*
X145006483Y-83765518D01*
X144989938Y-83754462D01*
X144978882Y-83737917D01*
X144975000Y-83718400D01*
X144975000Y-81738400D01*
X144978882Y-81718883D01*
X144989938Y-81702338D01*
X145006483Y-81691282D01*
X145026000Y-81687400D01*
X147006000Y-81687400D01*
X147025517Y-81691282D01*
G37*
G36*
X158263039Y-81692033D02*
G01*
X158312033Y-81692033D01*
X158366602Y-81702233D01*
X158419089Y-81707403D01*
X158458957Y-81719496D01*
X158500831Y-81727324D01*
X158558819Y-81749789D01*
X158614373Y-81766641D01*
X158646121Y-81783610D01*
X158679926Y-81796707D01*
X158738667Y-81833077D01*
X158794349Y-81862840D01*
X158817739Y-81882036D01*
X158843225Y-81897816D01*
X158899697Y-81949297D01*
X158952098Y-81992302D01*
X158967627Y-82011224D01*
X158985167Y-82027214D01*
X159036082Y-82094636D01*
X159081560Y-82150051D01*
X159090354Y-82166504D01*
X159100913Y-82180486D01*
X159142918Y-82264845D01*
X159177759Y-82330027D01*
X159181475Y-82342277D01*
X159186523Y-82352415D01*
X159216350Y-82457249D01*
X159236997Y-82525311D01*
X159237675Y-82532195D01*
X159239085Y-82537151D01*
X159253738Y-82695290D01*
X159257000Y-82728400D01*
X159253738Y-82761511D01*
X159239085Y-82919648D01*
X159237675Y-82924602D01*
X159236997Y-82931489D01*
X159216346Y-82999565D01*
X159186523Y-83104384D01*
X159181475Y-83114520D01*
X159177759Y-83126773D01*
X159142911Y-83191968D01*
X159100913Y-83276313D01*
X159090356Y-83290292D01*
X159081560Y-83306749D01*
X159036073Y-83362174D01*
X158985167Y-83429585D01*
X158967630Y-83445571D01*
X158952098Y-83464498D01*
X158899686Y-83507511D01*
X158843225Y-83558983D01*
X158817744Y-83574759D01*
X158794349Y-83593960D01*
X158738655Y-83623728D01*
X158679926Y-83660092D01*
X158646127Y-83673185D01*
X158614373Y-83690159D01*
X158558807Y-83707014D01*
X158500831Y-83729475D01*
X158458964Y-83737301D01*
X158419089Y-83749397D01*
X158366599Y-83754566D01*
X158312033Y-83764767D01*
X158263039Y-83764767D01*
X158216000Y-83769400D01*
X158168961Y-83764767D01*
X158119967Y-83764767D01*
X158065399Y-83754566D01*
X158012911Y-83749397D01*
X157973037Y-83737301D01*
X157931168Y-83729475D01*
X157873187Y-83707013D01*
X157817627Y-83690159D01*
X157785874Y-83673187D01*
X157752073Y-83660092D01*
X157693336Y-83623724D01*
X157637651Y-83593960D01*
X157614258Y-83574761D01*
X157588774Y-83558983D01*
X157532303Y-83507503D01*
X157479902Y-83464498D01*
X157464372Y-83445575D01*
X157446832Y-83429585D01*
X157395914Y-83362159D01*
X157350440Y-83306749D01*
X157341646Y-83290296D01*
X157331086Y-83276313D01*
X157289074Y-83191941D01*
X157254241Y-83126773D01*
X157250525Y-83114525D01*
X157245476Y-83104384D01*
X157215637Y-82999512D01*
X157195003Y-82931489D01*
X157194325Y-82924608D01*
X157192914Y-82919648D01*
X157178244Y-82761340D01*
X157175000Y-82728400D01*
X157178244Y-82695462D01*
X157192914Y-82537151D01*
X157194325Y-82532190D01*
X157195003Y-82525311D01*
X157215632Y-82457302D01*
X157245476Y-82352415D01*
X157250526Y-82342272D01*
X157254241Y-82330027D01*
X157289066Y-82264872D01*
X157331086Y-82180486D01*
X157341648Y-82166499D01*
X157350440Y-82150051D01*
X157395904Y-82094652D01*
X157446832Y-82027214D01*
X157464375Y-82011220D01*
X157479902Y-81992302D01*
X157532292Y-81949305D01*
X157588774Y-81897816D01*
X157614263Y-81882033D01*
X157637651Y-81862840D01*
X157693325Y-81833081D01*
X157752073Y-81796707D01*
X157785881Y-81783609D01*
X157817627Y-81766641D01*
X157873176Y-81749790D01*
X157931168Y-81727324D01*
X157973043Y-81719496D01*
X158012911Y-81707403D01*
X158065396Y-81702233D01*
X158119967Y-81692033D01*
X158168961Y-81692033D01*
X158216000Y-81687400D01*
X158263039Y-81692033D01*
G37*
G36*
X137634638Y-82533123D02*
G01*
X137686819Y-82539177D01*
X137704647Y-82547049D01*
X137727054Y-82551506D01*
X137751042Y-82567534D01*
X137772409Y-82576969D01*
X137787002Y-82591562D01*
X137808484Y-82605916D01*
X137822837Y-82627397D01*
X137837430Y-82641990D01*
X137846863Y-82663354D01*
X137862894Y-82687346D01*
X137867351Y-82709754D01*
X137875222Y-82727580D01*
X137881274Y-82779751D01*
X137882000Y-82783400D01*
X137882000Y-83333400D01*
X137881273Y-83337051D01*
X137875222Y-83389219D01*
X137867351Y-83407043D01*
X137862894Y-83429454D01*
X137846862Y-83453447D01*
X137837430Y-83474809D01*
X137822839Y-83489399D01*
X137808484Y-83510884D01*
X137786999Y-83525239D01*
X137772409Y-83539830D01*
X137751047Y-83549262D01*
X137727054Y-83565294D01*
X137704643Y-83569751D01*
X137686819Y-83577622D01*
X137634650Y-83583673D01*
X137631000Y-83584400D01*
X137231000Y-83584400D01*
X137227351Y-83583674D01*
X137175180Y-83577622D01*
X137157354Y-83569751D01*
X137134946Y-83565294D01*
X137110954Y-83549263D01*
X137089590Y-83539830D01*
X137074997Y-83525237D01*
X137053516Y-83510884D01*
X137039162Y-83489402D01*
X137024569Y-83474809D01*
X137015134Y-83453442D01*
X136999106Y-83429454D01*
X136994649Y-83407047D01*
X136986777Y-83389219D01*
X136980723Y-83337038D01*
X136980000Y-83333400D01*
X136980000Y-82783400D01*
X136980723Y-82779761D01*
X136986777Y-82727580D01*
X136994649Y-82709750D01*
X136999106Y-82687346D01*
X137015133Y-82663359D01*
X137024569Y-82641990D01*
X137039164Y-82627394D01*
X137053516Y-82605916D01*
X137074994Y-82591564D01*
X137089590Y-82576969D01*
X137110959Y-82567533D01*
X137134946Y-82551506D01*
X137157350Y-82547049D01*
X137175180Y-82539177D01*
X137227363Y-82533123D01*
X137231000Y-82532400D01*
X137631000Y-82532400D01*
X137634638Y-82533123D01*
G37*
G36*
X139284638Y-82533123D02*
G01*
X139336819Y-82539177D01*
X139354647Y-82547049D01*
X139377054Y-82551506D01*
X139401042Y-82567534D01*
X139422409Y-82576969D01*
X139437002Y-82591562D01*
X139458484Y-82605916D01*
X139472837Y-82627397D01*
X139487430Y-82641990D01*
X139496863Y-82663354D01*
X139512894Y-82687346D01*
X139517351Y-82709754D01*
X139525222Y-82727580D01*
X139531274Y-82779751D01*
X139532000Y-82783400D01*
X139532000Y-83333400D01*
X139531273Y-83337051D01*
X139525222Y-83389219D01*
X139517351Y-83407043D01*
X139512894Y-83429454D01*
X139496862Y-83453447D01*
X139487430Y-83474809D01*
X139472839Y-83489399D01*
X139458484Y-83510884D01*
X139436999Y-83525239D01*
X139422409Y-83539830D01*
X139401047Y-83549262D01*
X139377054Y-83565294D01*
X139354643Y-83569751D01*
X139336819Y-83577622D01*
X139284650Y-83583673D01*
X139281000Y-83584400D01*
X138881000Y-83584400D01*
X138877351Y-83583674D01*
X138825180Y-83577622D01*
X138807354Y-83569751D01*
X138784946Y-83565294D01*
X138760954Y-83549263D01*
X138739590Y-83539830D01*
X138724997Y-83525237D01*
X138703516Y-83510884D01*
X138689162Y-83489402D01*
X138674569Y-83474809D01*
X138665134Y-83453442D01*
X138649106Y-83429454D01*
X138644649Y-83407047D01*
X138636777Y-83389219D01*
X138630723Y-83337038D01*
X138630000Y-83333400D01*
X138630000Y-82783400D01*
X138630723Y-82779761D01*
X138636777Y-82727580D01*
X138644649Y-82709750D01*
X138649106Y-82687346D01*
X138665133Y-82663359D01*
X138674569Y-82641990D01*
X138689164Y-82627394D01*
X138703516Y-82605916D01*
X138724994Y-82591564D01*
X138739590Y-82576969D01*
X138760959Y-82567533D01*
X138784946Y-82551506D01*
X138807350Y-82547049D01*
X138825180Y-82539177D01*
X138877363Y-82533123D01*
X138881000Y-82532400D01*
X139281000Y-82532400D01*
X139284638Y-82533123D01*
G37*
G36*
X177460539Y-81312033D02*
G01*
X177509533Y-81312033D01*
X177564102Y-81322233D01*
X177616589Y-81327403D01*
X177656457Y-81339496D01*
X177698331Y-81347324D01*
X177756319Y-81369789D01*
X177811873Y-81386641D01*
X177843621Y-81403610D01*
X177877426Y-81416707D01*
X177936167Y-81453077D01*
X177991849Y-81482840D01*
X178015239Y-81502036D01*
X178040725Y-81517816D01*
X178097197Y-81569297D01*
X178149598Y-81612302D01*
X178165127Y-81631224D01*
X178182667Y-81647214D01*
X178233582Y-81714636D01*
X178279060Y-81770051D01*
X178287854Y-81786504D01*
X178298413Y-81800486D01*
X178340418Y-81884845D01*
X178375259Y-81950027D01*
X178378975Y-81962277D01*
X178384023Y-81972415D01*
X178413850Y-82077249D01*
X178434497Y-82145311D01*
X178435175Y-82152195D01*
X178436585Y-82157151D01*
X178451238Y-82315290D01*
X178454500Y-82348400D01*
X178451238Y-82381511D01*
X178436585Y-82539648D01*
X178435175Y-82544602D01*
X178434497Y-82551489D01*
X178413846Y-82619565D01*
X178384023Y-82724384D01*
X178378975Y-82734520D01*
X178375259Y-82746773D01*
X178340411Y-82811968D01*
X178298413Y-82896313D01*
X178287856Y-82910292D01*
X178279060Y-82926749D01*
X178233573Y-82982174D01*
X178182667Y-83049585D01*
X178165130Y-83065571D01*
X178149598Y-83084498D01*
X178097186Y-83127511D01*
X178040725Y-83178983D01*
X178015244Y-83194759D01*
X177991849Y-83213960D01*
X177936155Y-83243728D01*
X177877426Y-83280092D01*
X177843627Y-83293185D01*
X177811873Y-83310159D01*
X177756307Y-83327014D01*
X177698331Y-83349475D01*
X177656464Y-83357301D01*
X177616589Y-83369397D01*
X177564099Y-83374566D01*
X177509533Y-83384767D01*
X177460539Y-83384767D01*
X177413500Y-83389400D01*
X177366461Y-83384767D01*
X177317467Y-83384767D01*
X177262899Y-83374566D01*
X177210411Y-83369397D01*
X177170537Y-83357301D01*
X177128668Y-83349475D01*
X177070687Y-83327013D01*
X177015127Y-83310159D01*
X176983374Y-83293187D01*
X176949573Y-83280092D01*
X176890836Y-83243724D01*
X176835151Y-83213960D01*
X176811758Y-83194761D01*
X176786274Y-83178983D01*
X176729803Y-83127503D01*
X176677402Y-83084498D01*
X176661872Y-83065575D01*
X176644332Y-83049585D01*
X176593414Y-82982159D01*
X176547940Y-82926749D01*
X176539146Y-82910296D01*
X176528586Y-82896313D01*
X176486574Y-82811941D01*
X176451741Y-82746773D01*
X176448025Y-82734525D01*
X176442976Y-82724384D01*
X176413137Y-82619512D01*
X176392503Y-82551489D01*
X176391825Y-82544608D01*
X176390414Y-82539648D01*
X176375744Y-82381340D01*
X176372500Y-82348400D01*
X176375744Y-82315462D01*
X176390414Y-82157151D01*
X176391825Y-82152190D01*
X176392503Y-82145311D01*
X176413132Y-82077302D01*
X176442976Y-81972415D01*
X176448026Y-81962272D01*
X176451741Y-81950027D01*
X176486566Y-81884872D01*
X176528586Y-81800486D01*
X176539148Y-81786499D01*
X176547940Y-81770051D01*
X176593404Y-81714652D01*
X176644332Y-81647214D01*
X176661875Y-81631220D01*
X176677402Y-81612302D01*
X176729792Y-81569305D01*
X176786274Y-81517816D01*
X176811763Y-81502033D01*
X176835151Y-81482840D01*
X176890825Y-81453081D01*
X176949573Y-81416707D01*
X176983381Y-81403609D01*
X177015127Y-81386641D01*
X177070676Y-81369790D01*
X177128668Y-81347324D01*
X177170543Y-81339496D01*
X177210411Y-81327403D01*
X177262896Y-81322233D01*
X177317467Y-81312033D01*
X177366461Y-81312033D01*
X177413500Y-81307400D01*
X177460539Y-81312033D01*
G37*
G36*
X189660539Y-81312033D02*
G01*
X189709533Y-81312033D01*
X189764102Y-81322233D01*
X189816589Y-81327403D01*
X189856457Y-81339496D01*
X189898331Y-81347324D01*
X189956319Y-81369789D01*
X190011873Y-81386641D01*
X190043621Y-81403610D01*
X190077426Y-81416707D01*
X190136167Y-81453077D01*
X190191849Y-81482840D01*
X190215239Y-81502036D01*
X190240725Y-81517816D01*
X190297197Y-81569297D01*
X190349598Y-81612302D01*
X190365127Y-81631224D01*
X190382667Y-81647214D01*
X190433582Y-81714636D01*
X190479060Y-81770051D01*
X190487854Y-81786504D01*
X190498413Y-81800486D01*
X190540418Y-81884845D01*
X190575259Y-81950027D01*
X190578975Y-81962277D01*
X190584023Y-81972415D01*
X190613850Y-82077249D01*
X190634497Y-82145311D01*
X190635175Y-82152195D01*
X190636585Y-82157151D01*
X190651238Y-82315290D01*
X190654500Y-82348400D01*
X190651238Y-82381511D01*
X190636585Y-82539648D01*
X190635175Y-82544602D01*
X190634497Y-82551489D01*
X190613846Y-82619565D01*
X190584023Y-82724384D01*
X190578975Y-82734520D01*
X190575259Y-82746773D01*
X190540411Y-82811968D01*
X190498413Y-82896313D01*
X190487856Y-82910292D01*
X190479060Y-82926749D01*
X190433573Y-82982174D01*
X190382667Y-83049585D01*
X190365130Y-83065571D01*
X190349598Y-83084498D01*
X190297186Y-83127511D01*
X190240725Y-83178983D01*
X190215244Y-83194759D01*
X190191849Y-83213960D01*
X190136155Y-83243728D01*
X190077426Y-83280092D01*
X190043627Y-83293185D01*
X190011873Y-83310159D01*
X189956307Y-83327014D01*
X189898331Y-83349475D01*
X189856464Y-83357301D01*
X189816589Y-83369397D01*
X189764099Y-83374566D01*
X189709533Y-83384767D01*
X189660539Y-83384767D01*
X189613500Y-83389400D01*
X189566461Y-83384767D01*
X189517467Y-83384767D01*
X189462899Y-83374566D01*
X189410411Y-83369397D01*
X189370537Y-83357301D01*
X189328668Y-83349475D01*
X189270687Y-83327013D01*
X189215127Y-83310159D01*
X189183374Y-83293187D01*
X189149573Y-83280092D01*
X189090836Y-83243724D01*
X189035151Y-83213960D01*
X189011758Y-83194761D01*
X188986274Y-83178983D01*
X188929803Y-83127503D01*
X188877402Y-83084498D01*
X188861872Y-83065575D01*
X188844332Y-83049585D01*
X188793414Y-82982159D01*
X188747940Y-82926749D01*
X188739146Y-82910296D01*
X188728586Y-82896313D01*
X188686574Y-82811941D01*
X188651741Y-82746773D01*
X188648025Y-82734525D01*
X188642976Y-82724384D01*
X188613137Y-82619512D01*
X188592503Y-82551489D01*
X188591825Y-82544608D01*
X188590414Y-82539648D01*
X188575744Y-82381340D01*
X188572500Y-82348400D01*
X188575744Y-82315462D01*
X188590414Y-82157151D01*
X188591825Y-82152190D01*
X188592503Y-82145311D01*
X188613132Y-82077302D01*
X188642976Y-81972415D01*
X188648026Y-81962272D01*
X188651741Y-81950027D01*
X188686566Y-81884872D01*
X188728586Y-81800486D01*
X188739148Y-81786499D01*
X188747940Y-81770051D01*
X188793404Y-81714652D01*
X188844332Y-81647214D01*
X188861875Y-81631220D01*
X188877402Y-81612302D01*
X188929792Y-81569305D01*
X188986274Y-81517816D01*
X189011763Y-81502033D01*
X189035151Y-81482840D01*
X189090825Y-81453081D01*
X189149573Y-81416707D01*
X189183381Y-81403609D01*
X189215127Y-81386641D01*
X189270676Y-81369790D01*
X189328668Y-81347324D01*
X189370543Y-81339496D01*
X189410411Y-81327403D01*
X189462896Y-81322233D01*
X189517467Y-81312033D01*
X189566461Y-81312033D01*
X189613500Y-81307400D01*
X189660539Y-81312033D01*
G37*
G36*
X197930517Y-82411282D02*
G01*
X197947062Y-82422338D01*
X197958118Y-82438883D01*
X197962000Y-82458400D01*
X197962000Y-83058400D01*
X197958118Y-83077917D01*
X197947062Y-83094462D01*
X197930517Y-83105518D01*
X197911000Y-83109400D01*
X196661000Y-83109400D01*
X196641483Y-83105518D01*
X196624938Y-83094462D01*
X196613882Y-83077917D01*
X196610000Y-83058400D01*
X196610000Y-82458400D01*
X196613882Y-82438883D01*
X196624938Y-82422338D01*
X196641483Y-82411282D01*
X196661000Y-82407400D01*
X197911000Y-82407400D01*
X197930517Y-82411282D01*
G37*
G36*
X168179733Y-81495229D02*
G01*
X168184392Y-81497286D01*
X168187444Y-81497688D01*
X168225639Y-81515498D01*
X168278824Y-81538982D01*
X168355418Y-81615576D01*
X168378915Y-81668793D01*
X168396711Y-81706956D01*
X168397112Y-81710004D01*
X168399171Y-81714667D01*
X168407000Y-81782150D01*
X168407000Y-82269650D01*
X168399171Y-82337133D01*
X168397112Y-82341795D01*
X168396711Y-82344844D01*
X168378919Y-82382998D01*
X168355418Y-82436224D01*
X168278824Y-82512818D01*
X168225587Y-82536324D01*
X168187443Y-82554111D01*
X168184395Y-82554512D01*
X168179733Y-82556571D01*
X168112250Y-82564400D01*
X167199750Y-82564400D01*
X167132267Y-82556571D01*
X167127605Y-82554512D01*
X167124555Y-82554111D01*
X167086382Y-82536310D01*
X167033176Y-82512818D01*
X166956582Y-82436224D01*
X166933093Y-82383028D01*
X166915288Y-82344843D01*
X166914886Y-82341792D01*
X166912829Y-82337133D01*
X166905000Y-82269650D01*
X166905000Y-81782150D01*
X166912829Y-81714667D01*
X166914886Y-81710008D01*
X166915288Y-81706955D01*
X166933106Y-81668741D01*
X166956582Y-81615576D01*
X167033176Y-81538982D01*
X167086352Y-81515502D01*
X167124556Y-81497688D01*
X167127607Y-81497286D01*
X167132267Y-81495229D01*
X167199750Y-81487400D01*
X168112250Y-81487400D01*
X168179733Y-81495229D01*
G37*
G36*
X169784638Y-81203123D02*
G01*
X169836819Y-81209177D01*
X169854647Y-81217049D01*
X169877054Y-81221506D01*
X169901042Y-81237534D01*
X169922409Y-81246969D01*
X169937002Y-81261562D01*
X169958484Y-81275916D01*
X169972837Y-81297397D01*
X169987430Y-81311990D01*
X169996863Y-81333354D01*
X170012894Y-81357346D01*
X170017351Y-81379754D01*
X170025222Y-81397580D01*
X170031274Y-81449751D01*
X170032000Y-81453400D01*
X170032000Y-82003400D01*
X170031273Y-82007051D01*
X170025222Y-82059219D01*
X170017351Y-82077043D01*
X170012894Y-82099454D01*
X169996862Y-82123447D01*
X169987430Y-82144809D01*
X169972839Y-82159399D01*
X169958484Y-82180884D01*
X169936999Y-82195239D01*
X169922409Y-82209830D01*
X169901047Y-82219262D01*
X169877054Y-82235294D01*
X169854643Y-82239751D01*
X169836819Y-82247622D01*
X169784650Y-82253673D01*
X169781000Y-82254400D01*
X169381000Y-82254400D01*
X169377351Y-82253674D01*
X169325180Y-82247622D01*
X169307354Y-82239751D01*
X169284946Y-82235294D01*
X169260954Y-82219263D01*
X169239590Y-82209830D01*
X169224997Y-82195237D01*
X169203516Y-82180884D01*
X169189162Y-82159402D01*
X169174569Y-82144809D01*
X169165134Y-82123442D01*
X169149106Y-82099454D01*
X169144649Y-82077047D01*
X169136777Y-82059219D01*
X169130723Y-82007038D01*
X169130000Y-82003400D01*
X169130000Y-81453400D01*
X169130723Y-81449761D01*
X169136777Y-81397580D01*
X169144649Y-81379750D01*
X169149106Y-81357346D01*
X169165133Y-81333359D01*
X169174569Y-81311990D01*
X169189164Y-81297394D01*
X169203516Y-81275916D01*
X169224994Y-81261564D01*
X169239590Y-81246969D01*
X169260959Y-81237533D01*
X169284946Y-81221506D01*
X169307350Y-81217049D01*
X169325180Y-81209177D01*
X169377363Y-81203123D01*
X169381000Y-81202400D01*
X169781000Y-81202400D01*
X169784638Y-81203123D01*
G37*
G36*
X171434638Y-81203123D02*
G01*
X171486819Y-81209177D01*
X171504647Y-81217049D01*
X171527054Y-81221506D01*
X171551042Y-81237534D01*
X171572409Y-81246969D01*
X171587002Y-81261562D01*
X171608484Y-81275916D01*
X171622837Y-81297397D01*
X171637430Y-81311990D01*
X171646863Y-81333354D01*
X171662894Y-81357346D01*
X171667351Y-81379754D01*
X171675222Y-81397580D01*
X171681274Y-81449751D01*
X171682000Y-81453400D01*
X171682000Y-82003400D01*
X171681273Y-82007051D01*
X171675222Y-82059219D01*
X171667351Y-82077043D01*
X171662894Y-82099454D01*
X171646862Y-82123447D01*
X171637430Y-82144809D01*
X171622839Y-82159399D01*
X171608484Y-82180884D01*
X171586999Y-82195239D01*
X171572409Y-82209830D01*
X171551047Y-82219262D01*
X171527054Y-82235294D01*
X171504643Y-82239751D01*
X171486819Y-82247622D01*
X171434650Y-82253673D01*
X171431000Y-82254400D01*
X171031000Y-82254400D01*
X171027351Y-82253674D01*
X170975180Y-82247622D01*
X170957354Y-82239751D01*
X170934946Y-82235294D01*
X170910954Y-82219263D01*
X170889590Y-82209830D01*
X170874997Y-82195237D01*
X170853516Y-82180884D01*
X170839162Y-82159402D01*
X170824569Y-82144809D01*
X170815134Y-82123442D01*
X170799106Y-82099454D01*
X170794649Y-82077047D01*
X170786777Y-82059219D01*
X170780723Y-82007038D01*
X170780000Y-82003400D01*
X170780000Y-81453400D01*
X170780723Y-81449761D01*
X170786777Y-81397580D01*
X170794649Y-81379750D01*
X170799106Y-81357346D01*
X170815133Y-81333359D01*
X170824569Y-81311990D01*
X170839164Y-81297394D01*
X170853516Y-81275916D01*
X170874994Y-81261564D01*
X170889590Y-81246969D01*
X170910959Y-81237533D01*
X170934946Y-81221506D01*
X170957350Y-81217049D01*
X170975180Y-81209177D01*
X171027363Y-81203123D01*
X171031000Y-81202400D01*
X171431000Y-81202400D01*
X171434638Y-81203123D01*
G37*
G36*
X195830517Y-81456282D02*
G01*
X195847062Y-81467338D01*
X195858118Y-81483883D01*
X195862000Y-81503400D01*
X195862000Y-82103400D01*
X195858118Y-82122917D01*
X195847062Y-82139462D01*
X195830517Y-82150518D01*
X195811000Y-82154400D01*
X194561000Y-82154400D01*
X194541483Y-82150518D01*
X194524938Y-82139462D01*
X194513882Y-82122917D01*
X194510000Y-82103400D01*
X194510000Y-81503400D01*
X194513882Y-81483883D01*
X194524938Y-81467338D01*
X194541483Y-81456282D01*
X194561000Y-81452400D01*
X195811000Y-81452400D01*
X195830517Y-81456282D01*
G37*
G36*
X199144639Y-79828123D02*
G01*
X199196819Y-79834177D01*
X199214647Y-79842049D01*
X199237054Y-79846506D01*
X199261042Y-79862534D01*
X199282409Y-79871969D01*
X199297002Y-79886562D01*
X199318484Y-79900916D01*
X199332837Y-79922397D01*
X199347430Y-79936990D01*
X199356863Y-79958354D01*
X199372894Y-79982346D01*
X199377351Y-80004754D01*
X199385222Y-80022580D01*
X199391274Y-80074751D01*
X199392000Y-80078400D01*
X199392000Y-80478400D01*
X199391273Y-80482050D01*
X199385222Y-80534219D01*
X199377351Y-80552043D01*
X199372894Y-80574454D01*
X199356862Y-80598447D01*
X199347430Y-80619809D01*
X199332839Y-80634399D01*
X199318484Y-80655884D01*
X199296999Y-80670239D01*
X199282409Y-80684830D01*
X199261047Y-80694262D01*
X199237054Y-80710294D01*
X199214643Y-80714751D01*
X199196819Y-80722622D01*
X199144650Y-80728673D01*
X199141000Y-80729400D01*
X198591000Y-80729400D01*
X198587349Y-80728673D01*
X198535180Y-80722622D01*
X198517354Y-80714751D01*
X198494946Y-80710294D01*
X198470954Y-80694263D01*
X198449590Y-80684830D01*
X198434997Y-80670237D01*
X198413516Y-80655884D01*
X198399162Y-80634402D01*
X198384569Y-80619809D01*
X198375134Y-80598442D01*
X198359106Y-80574454D01*
X198354649Y-80552047D01*
X198346777Y-80534219D01*
X198340723Y-80482038D01*
X198340000Y-80478400D01*
X198340000Y-80078400D01*
X198340723Y-80074763D01*
X198346777Y-80022580D01*
X198354649Y-80004750D01*
X198359106Y-79982346D01*
X198375133Y-79958359D01*
X198384569Y-79936990D01*
X198399164Y-79922394D01*
X198413516Y-79900916D01*
X198434994Y-79886564D01*
X198449590Y-79871969D01*
X198470959Y-79862533D01*
X198494946Y-79846506D01*
X198517350Y-79842049D01*
X198535180Y-79834177D01*
X198587363Y-79828123D01*
X198591000Y-79827400D01*
X199141000Y-79827400D01*
X199144639Y-79828123D01*
G37*
G36*
X195174638Y-79663123D02*
G01*
X195226819Y-79669177D01*
X195244647Y-79677049D01*
X195267054Y-79681506D01*
X195291042Y-79697534D01*
X195312409Y-79706969D01*
X195327002Y-79721562D01*
X195348484Y-79735916D01*
X195362837Y-79757397D01*
X195377430Y-79771990D01*
X195386863Y-79793354D01*
X195402894Y-79817346D01*
X195407351Y-79839754D01*
X195415222Y-79857580D01*
X195421274Y-79909751D01*
X195422000Y-79913400D01*
X195422000Y-80463400D01*
X195421273Y-80467051D01*
X195415222Y-80519219D01*
X195407351Y-80537043D01*
X195402894Y-80559454D01*
X195386862Y-80583447D01*
X195377430Y-80604809D01*
X195362839Y-80619399D01*
X195348484Y-80640884D01*
X195326999Y-80655239D01*
X195312409Y-80669830D01*
X195291047Y-80679262D01*
X195267054Y-80695294D01*
X195244643Y-80699751D01*
X195226819Y-80707622D01*
X195174650Y-80713673D01*
X195171000Y-80714400D01*
X194771000Y-80714400D01*
X194767351Y-80713674D01*
X194715180Y-80707622D01*
X194697354Y-80699751D01*
X194674946Y-80695294D01*
X194650954Y-80679263D01*
X194629590Y-80669830D01*
X194614997Y-80655237D01*
X194593516Y-80640884D01*
X194579162Y-80619402D01*
X194564569Y-80604809D01*
X194555134Y-80583442D01*
X194539106Y-80559454D01*
X194534649Y-80537047D01*
X194526777Y-80519219D01*
X194520723Y-80467038D01*
X194520000Y-80463400D01*
X194520000Y-79913400D01*
X194520723Y-79909761D01*
X194526777Y-79857580D01*
X194534649Y-79839750D01*
X194539106Y-79817346D01*
X194555133Y-79793359D01*
X194564569Y-79771990D01*
X194579164Y-79757394D01*
X194593516Y-79735916D01*
X194614994Y-79721564D01*
X194629590Y-79706969D01*
X194650959Y-79697533D01*
X194674946Y-79681506D01*
X194697350Y-79677049D01*
X194715180Y-79669177D01*
X194767363Y-79663123D01*
X194771000Y-79662400D01*
X195171000Y-79662400D01*
X195174638Y-79663123D01*
G37*
G36*
X196824638Y-79663123D02*
G01*
X196876819Y-79669177D01*
X196894647Y-79677049D01*
X196917054Y-79681506D01*
X196941042Y-79697534D01*
X196962409Y-79706969D01*
X196977002Y-79721562D01*
X196998484Y-79735916D01*
X197012837Y-79757397D01*
X197027430Y-79771990D01*
X197036863Y-79793354D01*
X197052894Y-79817346D01*
X197057351Y-79839754D01*
X197065222Y-79857580D01*
X197071274Y-79909751D01*
X197072000Y-79913400D01*
X197072000Y-80463400D01*
X197071273Y-80467051D01*
X197065222Y-80519219D01*
X197057351Y-80537043D01*
X197052894Y-80559454D01*
X197036862Y-80583447D01*
X197027430Y-80604809D01*
X197012839Y-80619399D01*
X196998484Y-80640884D01*
X196976999Y-80655239D01*
X196962409Y-80669830D01*
X196941047Y-80679262D01*
X196917054Y-80695294D01*
X196894643Y-80699751D01*
X196876819Y-80707622D01*
X196824650Y-80713673D01*
X196821000Y-80714400D01*
X196421000Y-80714400D01*
X196417351Y-80713674D01*
X196365180Y-80707622D01*
X196347354Y-80699751D01*
X196324946Y-80695294D01*
X196300954Y-80679263D01*
X196279590Y-80669830D01*
X196264997Y-80655237D01*
X196243516Y-80640884D01*
X196229162Y-80619402D01*
X196214569Y-80604809D01*
X196205134Y-80583442D01*
X196189106Y-80559454D01*
X196184649Y-80537047D01*
X196176777Y-80519219D01*
X196170723Y-80467038D01*
X196170000Y-80463400D01*
X196170000Y-79913400D01*
X196170723Y-79909761D01*
X196176777Y-79857580D01*
X196184649Y-79839750D01*
X196189106Y-79817346D01*
X196205133Y-79793359D01*
X196214569Y-79771990D01*
X196229164Y-79757394D01*
X196243516Y-79735916D01*
X196264994Y-79721564D01*
X196279590Y-79706969D01*
X196300959Y-79697533D01*
X196324946Y-79681506D01*
X196347350Y-79677049D01*
X196365180Y-79669177D01*
X196417363Y-79663123D01*
X196421000Y-79662400D01*
X196821000Y-79662400D01*
X196824638Y-79663123D01*
G37*
G36*
X168179733Y-79620229D02*
G01*
X168184392Y-79622286D01*
X168187444Y-79622688D01*
X168225639Y-79640498D01*
X168278824Y-79663982D01*
X168355418Y-79740576D01*
X168378915Y-79793793D01*
X168396711Y-79831956D01*
X168397112Y-79835004D01*
X168399171Y-79839667D01*
X168407000Y-79907150D01*
X168407000Y-80394650D01*
X168399171Y-80462133D01*
X168397112Y-80466795D01*
X168396711Y-80469844D01*
X168378919Y-80507998D01*
X168355418Y-80561224D01*
X168278824Y-80637818D01*
X168225587Y-80661324D01*
X168187443Y-80679111D01*
X168184395Y-80679512D01*
X168179733Y-80681571D01*
X168112250Y-80689400D01*
X167199750Y-80689400D01*
X167132267Y-80681571D01*
X167127605Y-80679512D01*
X167124555Y-80679111D01*
X167086382Y-80661310D01*
X167033176Y-80637818D01*
X166956582Y-80561224D01*
X166933093Y-80508028D01*
X166915288Y-80469843D01*
X166914886Y-80466792D01*
X166912829Y-80462133D01*
X166905000Y-80394650D01*
X166905000Y-79907150D01*
X166912829Y-79839667D01*
X166914886Y-79835008D01*
X166915288Y-79831955D01*
X166933106Y-79793741D01*
X166956582Y-79740576D01*
X167033176Y-79663982D01*
X167086352Y-79640502D01*
X167124556Y-79622688D01*
X167127607Y-79622286D01*
X167132267Y-79620229D01*
X167199750Y-79612400D01*
X168112250Y-79612400D01*
X168179733Y-79620229D01*
G37*
G36*
X199144639Y-78178123D02*
G01*
X199196819Y-78184177D01*
X199214647Y-78192049D01*
X199237054Y-78196506D01*
X199261042Y-78212534D01*
X199282409Y-78221969D01*
X199297002Y-78236562D01*
X199318484Y-78250916D01*
X199332837Y-78272397D01*
X199347430Y-78286990D01*
X199356863Y-78308354D01*
X199372894Y-78332346D01*
X199377351Y-78354754D01*
X199385222Y-78372580D01*
X199391274Y-78424751D01*
X199392000Y-78428400D01*
X199392000Y-78828400D01*
X199391273Y-78832050D01*
X199385222Y-78884219D01*
X199377351Y-78902043D01*
X199372894Y-78924454D01*
X199356862Y-78948447D01*
X199347430Y-78969809D01*
X199332839Y-78984399D01*
X199318484Y-79005884D01*
X199296999Y-79020239D01*
X199282409Y-79034830D01*
X199261047Y-79044262D01*
X199237054Y-79060294D01*
X199214643Y-79064751D01*
X199196819Y-79072622D01*
X199144650Y-79078673D01*
X199141000Y-79079400D01*
X198591000Y-79079400D01*
X198587349Y-79078673D01*
X198535180Y-79072622D01*
X198517354Y-79064751D01*
X198494946Y-79060294D01*
X198470954Y-79044263D01*
X198449590Y-79034830D01*
X198434997Y-79020237D01*
X198413516Y-79005884D01*
X198399162Y-78984402D01*
X198384569Y-78969809D01*
X198375134Y-78948442D01*
X198359106Y-78924454D01*
X198354649Y-78902047D01*
X198346777Y-78884219D01*
X198340723Y-78832038D01*
X198340000Y-78828400D01*
X198340000Y-78428400D01*
X198340723Y-78424763D01*
X198346777Y-78372580D01*
X198354649Y-78354750D01*
X198359106Y-78332346D01*
X198375133Y-78308359D01*
X198384569Y-78286990D01*
X198399164Y-78272394D01*
X198413516Y-78250916D01*
X198434994Y-78236564D01*
X198449590Y-78221969D01*
X198470959Y-78212533D01*
X198494946Y-78196506D01*
X198517350Y-78192049D01*
X198535180Y-78184177D01*
X198587363Y-78178123D01*
X198591000Y-78177400D01*
X199141000Y-78177400D01*
X199144639Y-78178123D01*
G37*
G36*
X194050517Y-77686282D02*
G01*
X194067062Y-77697338D01*
X194078118Y-77713883D01*
X194082000Y-77733400D01*
X194082000Y-78583400D01*
X194078118Y-78602917D01*
X194067062Y-78619462D01*
X194050517Y-78630518D01*
X194031000Y-78634400D01*
X193181000Y-78634400D01*
X193161483Y-78630518D01*
X193144938Y-78619462D01*
X193133882Y-78602917D01*
X193130000Y-78583400D01*
X193130000Y-77733400D01*
X193133882Y-77713883D01*
X193144938Y-77697338D01*
X193161483Y-77686282D01*
X193181000Y-77682400D01*
X194031000Y-77682400D01*
X194050517Y-77686282D01*
G37*
G36*
X152421916Y-74894665D02*
G01*
X152640968Y-74953360D01*
X152846500Y-75049201D01*
X153032267Y-75179276D01*
X153192624Y-75339633D01*
X153322699Y-75525400D01*
X153418540Y-75730932D01*
X153477235Y-75949984D01*
X153497000Y-76175900D01*
X153497000Y-77275900D01*
X153477235Y-77501816D01*
X153418540Y-77720868D01*
X153322699Y-77926400D01*
X153192624Y-78112167D01*
X153032267Y-78272524D01*
X152846500Y-78402599D01*
X152640968Y-78498440D01*
X152421916Y-78557135D01*
X152196000Y-78576900D01*
X151970084Y-78557135D01*
X151751032Y-78498440D01*
X151545500Y-78402599D01*
X151359733Y-78272524D01*
X151199376Y-78112167D01*
X151069301Y-77926400D01*
X150973460Y-77720868D01*
X150914765Y-77501816D01*
X150895000Y-77275900D01*
X150895000Y-76175900D01*
X150914765Y-75949984D01*
X150973460Y-75730932D01*
X151069301Y-75525400D01*
X151199376Y-75339633D01*
X151359733Y-75179276D01*
X151545500Y-75049201D01*
X151751032Y-74953360D01*
X151970084Y-74894665D01*
X152196000Y-74874900D01*
X152421916Y-74894665D01*
G37*
G36*
X157501916Y-74894665D02*
G01*
X157720968Y-74953360D01*
X157926500Y-75049201D01*
X158112267Y-75179276D01*
X158272624Y-75339633D01*
X158402699Y-75525400D01*
X158498540Y-75730932D01*
X158557235Y-75949984D01*
X158577000Y-76175900D01*
X158577000Y-77275900D01*
X158557235Y-77501816D01*
X158498540Y-77720868D01*
X158402699Y-77926400D01*
X158272624Y-78112167D01*
X158112267Y-78272524D01*
X157926500Y-78402599D01*
X157720968Y-78498440D01*
X157501916Y-78557135D01*
X157276000Y-78576900D01*
X157050084Y-78557135D01*
X156831032Y-78498440D01*
X156625500Y-78402599D01*
X156439733Y-78272524D01*
X156279376Y-78112167D01*
X156149301Y-77926400D01*
X156053460Y-77720868D01*
X155994765Y-77501816D01*
X155975000Y-77275900D01*
X155975000Y-76175900D01*
X155994765Y-75949984D01*
X156053460Y-75730932D01*
X156149301Y-75525400D01*
X156279376Y-75339633D01*
X156439733Y-75179276D01*
X156625500Y-75049201D01*
X156831032Y-74953360D01*
X157050084Y-74894665D01*
X157276000Y-74874900D01*
X157501916Y-74894665D01*
G37*
G36*
X163405810Y-74889512D02*
G01*
X163411356Y-74892223D01*
X163413961Y-74892636D01*
X163455627Y-74913865D01*
X163509757Y-74940328D01*
X163591572Y-75022143D01*
X163618045Y-75076296D01*
X163639263Y-75117938D01*
X163639675Y-75120540D01*
X163642388Y-75126090D01*
X163657000Y-75226380D01*
X163657000Y-78225420D01*
X163642388Y-78325710D01*
X163639675Y-78331259D01*
X163639263Y-78333861D01*
X163618057Y-78375478D01*
X163591572Y-78429657D01*
X163509757Y-78511472D01*
X163455578Y-78537957D01*
X163413961Y-78559163D01*
X163411359Y-78559575D01*
X163405810Y-78562288D01*
X163305520Y-78576900D01*
X161406480Y-78576900D01*
X161306190Y-78562288D01*
X161300640Y-78559575D01*
X161298038Y-78559163D01*
X161256396Y-78537945D01*
X161202243Y-78511472D01*
X161120428Y-78429657D01*
X161093965Y-78375527D01*
X161072736Y-78333861D01*
X161072323Y-78331256D01*
X161069612Y-78325710D01*
X161055000Y-78225420D01*
X161055000Y-75226380D01*
X161069612Y-75126090D01*
X161072323Y-75120543D01*
X161072736Y-75117938D01*
X161093977Y-75076247D01*
X161120428Y-75022143D01*
X161202243Y-74940328D01*
X161256347Y-74913877D01*
X161298038Y-74892636D01*
X161300643Y-74892223D01*
X161306190Y-74889512D01*
X161406480Y-74874900D01*
X163305520Y-74874900D01*
X163405810Y-74889512D01*
G37*
G36*
X190104914Y-75550395D02*
G01*
X190109645Y-75552484D01*
X190112811Y-75552901D01*
X190152442Y-75571381D01*
X190206106Y-75595076D01*
X190284324Y-75673294D01*
X190308028Y-75726979D01*
X190326498Y-75766588D01*
X190326914Y-75769751D01*
X190329005Y-75774486D01*
X190337000Y-75843400D01*
X190337000Y-77293400D01*
X190329005Y-77362314D01*
X190326914Y-77367048D01*
X190326498Y-77370211D01*
X190308036Y-77409802D01*
X190284324Y-77463506D01*
X190206106Y-77541724D01*
X190152402Y-77565436D01*
X190112811Y-77583898D01*
X190109648Y-77584314D01*
X190104914Y-77586405D01*
X190036000Y-77594400D01*
X188836000Y-77594400D01*
X188767086Y-77586405D01*
X188762351Y-77584314D01*
X188759188Y-77583898D01*
X188719579Y-77565428D01*
X188665894Y-77541724D01*
X188587676Y-77463506D01*
X188563981Y-77409842D01*
X188545501Y-77370211D01*
X188545084Y-77367045D01*
X188542995Y-77362314D01*
X188535000Y-77293400D01*
X188535000Y-75843400D01*
X188542995Y-75774486D01*
X188545084Y-75769754D01*
X188545501Y-75766588D01*
X188563989Y-75726938D01*
X188587676Y-75673294D01*
X188665894Y-75595076D01*
X188719544Y-75571387D01*
X188759188Y-75552901D01*
X188762354Y-75552484D01*
X188767086Y-75550395D01*
X188836000Y-75542400D01*
X190036000Y-75542400D01*
X190104914Y-75550395D01*
G37*
G36*
X171960350Y-75547336D02*
G01*
X172030180Y-75547336D01*
X172052064Y-75551987D01*
X172072398Y-75553019D01*
X172143376Y-75571396D01*
X172214424Y-75586498D01*
X172232103Y-75594369D01*
X172248845Y-75598704D01*
X172317706Y-75632482D01*
X172386500Y-75663111D01*
X172399702Y-75672703D01*
X172412472Y-75678967D01*
X172475900Y-75728064D01*
X172538887Y-75773827D01*
X172547779Y-75783703D01*
X172556599Y-75790530D01*
X172611315Y-75854267D01*
X172664924Y-75913805D01*
X172670050Y-75922685D01*
X172675315Y-75928817D01*
X172718213Y-76006104D01*
X172759104Y-76076930D01*
X172761334Y-76083794D01*
X172763768Y-76088179D01*
X172792107Y-76178504D01*
X172817311Y-76256072D01*
X172817747Y-76260224D01*
X172818328Y-76262075D01*
X172829850Y-76375378D01*
X172837000Y-76443400D01*
X172837000Y-76693400D01*
X172836888Y-76694459D01*
X172832377Y-76783401D01*
X172822477Y-76831575D01*
X172817311Y-76880728D01*
X172803884Y-76922049D01*
X172795458Y-76963056D01*
X172775292Y-77010045D01*
X172759104Y-77059870D01*
X172738877Y-77094904D01*
X172723584Y-77130541D01*
X172692605Y-77175048D01*
X172664924Y-77222995D01*
X172639857Y-77250834D01*
X172619462Y-77280137D01*
X172577901Y-77319642D01*
X172538887Y-77362973D01*
X172511014Y-77383223D01*
X172487364Y-77405705D01*
X172436043Y-77437693D01*
X172386500Y-77473689D01*
X172357777Y-77486477D01*
X172332692Y-77502113D01*
X172273025Y-77524210D01*
X172214424Y-77550302D01*
X172186620Y-77556211D01*
X172161779Y-77565412D01*
X172095735Y-77575529D01*
X172030180Y-77589464D01*
X172004781Y-77589464D01*
X171981622Y-77593012D01*
X171911669Y-77589464D01*
X171841820Y-77589464D01*
X171819929Y-77584811D01*
X171799601Y-77583780D01*
X171728639Y-77565406D01*
X171657576Y-77550302D01*
X171639892Y-77542428D01*
X171623154Y-77538095D01*
X171554304Y-77504322D01*
X171485500Y-77473689D01*
X171472295Y-77464095D01*
X171459527Y-77457832D01*
X171396104Y-77408739D01*
X171333113Y-77362973D01*
X171324219Y-77353095D01*
X171315400Y-77346269D01*
X171260681Y-77282529D01*
X171207076Y-77222995D01*
X171201949Y-77214115D01*
X171196684Y-77207982D01*
X171153775Y-77130675D01*
X171112896Y-77059870D01*
X171110666Y-77053007D01*
X171108231Y-77048620D01*
X171079872Y-76958233D01*
X171054689Y-76880728D01*
X171054252Y-76876578D01*
X171053671Y-76874724D01*
X171042144Y-76761375D01*
X171035000Y-76693400D01*
X171035000Y-76443400D01*
X171035111Y-76442341D01*
X171039622Y-76353398D01*
X171049524Y-76305212D01*
X171054689Y-76256072D01*
X171068111Y-76214760D01*
X171076541Y-76173743D01*
X171096711Y-76126740D01*
X171112896Y-76076930D01*
X171133117Y-76041905D01*
X171148415Y-76006258D01*
X171179402Y-75961737D01*
X171207076Y-75913805D01*
X171232135Y-75885973D01*
X171252537Y-75856662D01*
X171294110Y-75817143D01*
X171333113Y-75773827D01*
X171360976Y-75753582D01*
X171384635Y-75731094D01*
X171435971Y-75699095D01*
X171485500Y-75663111D01*
X171514213Y-75650327D01*
X171539307Y-75634686D01*
X171598992Y-75612580D01*
X171657576Y-75586498D01*
X171685370Y-75580590D01*
X171710220Y-75571387D01*
X171776283Y-75561266D01*
X171841820Y-75547336D01*
X171867211Y-75547336D01*
X171890377Y-75543787D01*
X171960350Y-75547336D01*
G37*
G36*
X174460350Y-75547336D02*
G01*
X174530180Y-75547336D01*
X174552064Y-75551987D01*
X174572398Y-75553019D01*
X174643376Y-75571396D01*
X174714424Y-75586498D01*
X174732103Y-75594369D01*
X174748845Y-75598704D01*
X174817706Y-75632482D01*
X174886500Y-75663111D01*
X174899702Y-75672703D01*
X174912472Y-75678967D01*
X174975900Y-75728064D01*
X175038887Y-75773827D01*
X175047779Y-75783703D01*
X175056599Y-75790530D01*
X175111315Y-75854267D01*
X175164924Y-75913805D01*
X175170050Y-75922685D01*
X175175315Y-75928817D01*
X175218213Y-76006104D01*
X175259104Y-76076930D01*
X175261334Y-76083794D01*
X175263768Y-76088179D01*
X175292107Y-76178504D01*
X175317311Y-76256072D01*
X175317747Y-76260224D01*
X175318328Y-76262075D01*
X175329850Y-76375378D01*
X175337000Y-76443400D01*
X175337000Y-76693400D01*
X175336888Y-76694459D01*
X175332377Y-76783401D01*
X175322477Y-76831575D01*
X175317311Y-76880728D01*
X175303884Y-76922049D01*
X175295458Y-76963056D01*
X175275292Y-77010045D01*
X175259104Y-77059870D01*
X175238877Y-77094904D01*
X175223584Y-77130541D01*
X175192605Y-77175048D01*
X175164924Y-77222995D01*
X175139857Y-77250834D01*
X175119462Y-77280137D01*
X175077901Y-77319642D01*
X175038887Y-77362973D01*
X175011014Y-77383223D01*
X174987364Y-77405705D01*
X174936043Y-77437693D01*
X174886500Y-77473689D01*
X174857777Y-77486477D01*
X174832692Y-77502113D01*
X174773025Y-77524210D01*
X174714424Y-77550302D01*
X174686620Y-77556211D01*
X174661779Y-77565412D01*
X174595735Y-77575529D01*
X174530180Y-77589464D01*
X174504781Y-77589464D01*
X174481622Y-77593012D01*
X174411669Y-77589464D01*
X174341820Y-77589464D01*
X174319929Y-77584811D01*
X174299601Y-77583780D01*
X174228639Y-77565406D01*
X174157576Y-77550302D01*
X174139892Y-77542428D01*
X174123154Y-77538095D01*
X174054304Y-77504322D01*
X173985500Y-77473689D01*
X173972295Y-77464095D01*
X173959527Y-77457832D01*
X173896104Y-77408739D01*
X173833113Y-77362973D01*
X173824219Y-77353095D01*
X173815400Y-77346269D01*
X173760681Y-77282529D01*
X173707076Y-77222995D01*
X173701949Y-77214115D01*
X173696684Y-77207982D01*
X173653775Y-77130675D01*
X173612896Y-77059870D01*
X173610666Y-77053007D01*
X173608231Y-77048620D01*
X173579872Y-76958233D01*
X173554689Y-76880728D01*
X173554252Y-76876578D01*
X173553671Y-76874724D01*
X173542144Y-76761375D01*
X173535000Y-76693400D01*
X173535000Y-76443400D01*
X173535111Y-76442341D01*
X173539622Y-76353398D01*
X173549524Y-76305212D01*
X173554689Y-76256072D01*
X173568111Y-76214760D01*
X173576541Y-76173743D01*
X173596711Y-76126740D01*
X173612896Y-76076930D01*
X173633117Y-76041905D01*
X173648415Y-76006258D01*
X173679402Y-75961737D01*
X173707076Y-75913805D01*
X173732135Y-75885973D01*
X173752537Y-75856662D01*
X173794110Y-75817143D01*
X173833113Y-75773827D01*
X173860976Y-75753582D01*
X173884635Y-75731094D01*
X173935971Y-75699095D01*
X173985500Y-75663111D01*
X174014213Y-75650327D01*
X174039307Y-75634686D01*
X174098992Y-75612580D01*
X174157576Y-75586498D01*
X174185370Y-75580590D01*
X174210220Y-75571387D01*
X174276283Y-75561266D01*
X174341820Y-75547336D01*
X174367211Y-75547336D01*
X174390377Y-75543787D01*
X174460350Y-75547336D01*
G37*
G36*
X176960350Y-75547336D02*
G01*
X177030180Y-75547336D01*
X177052064Y-75551987D01*
X177072398Y-75553019D01*
X177143376Y-75571396D01*
X177214424Y-75586498D01*
X177232103Y-75594369D01*
X177248845Y-75598704D01*
X177317706Y-75632482D01*
X177386500Y-75663111D01*
X177399702Y-75672703D01*
X177412472Y-75678967D01*
X177475900Y-75728064D01*
X177538887Y-75773827D01*
X177547779Y-75783703D01*
X177556599Y-75790530D01*
X177611315Y-75854267D01*
X177664924Y-75913805D01*
X177670050Y-75922685D01*
X177675315Y-75928817D01*
X177718213Y-76006104D01*
X177759104Y-76076930D01*
X177761334Y-76083794D01*
X177763768Y-76088179D01*
X177792107Y-76178504D01*
X177817311Y-76256072D01*
X177817747Y-76260224D01*
X177818328Y-76262075D01*
X177829850Y-76375378D01*
X177837000Y-76443400D01*
X177837000Y-76693400D01*
X177836888Y-76694459D01*
X177832377Y-76783401D01*
X177822477Y-76831575D01*
X177817311Y-76880728D01*
X177803884Y-76922049D01*
X177795458Y-76963056D01*
X177775292Y-77010045D01*
X177759104Y-77059870D01*
X177738877Y-77094904D01*
X177723584Y-77130541D01*
X177692605Y-77175048D01*
X177664924Y-77222995D01*
X177639857Y-77250834D01*
X177619462Y-77280137D01*
X177577901Y-77319642D01*
X177538887Y-77362973D01*
X177511014Y-77383223D01*
X177487364Y-77405705D01*
X177436043Y-77437693D01*
X177386500Y-77473689D01*
X177357777Y-77486477D01*
X177332692Y-77502113D01*
X177273025Y-77524210D01*
X177214424Y-77550302D01*
X177186620Y-77556211D01*
X177161779Y-77565412D01*
X177095735Y-77575529D01*
X177030180Y-77589464D01*
X177004781Y-77589464D01*
X176981622Y-77593012D01*
X176911669Y-77589464D01*
X176841820Y-77589464D01*
X176819929Y-77584811D01*
X176799601Y-77583780D01*
X176728639Y-77565406D01*
X176657576Y-77550302D01*
X176639892Y-77542428D01*
X176623154Y-77538095D01*
X176554304Y-77504322D01*
X176485500Y-77473689D01*
X176472295Y-77464095D01*
X176459527Y-77457832D01*
X176396104Y-77408739D01*
X176333113Y-77362973D01*
X176324219Y-77353095D01*
X176315400Y-77346269D01*
X176260681Y-77282529D01*
X176207076Y-77222995D01*
X176201949Y-77214115D01*
X176196684Y-77207982D01*
X176153775Y-77130675D01*
X176112896Y-77059870D01*
X176110666Y-77053007D01*
X176108231Y-77048620D01*
X176079872Y-76958233D01*
X176054689Y-76880728D01*
X176054252Y-76876578D01*
X176053671Y-76874724D01*
X176042144Y-76761375D01*
X176035000Y-76693400D01*
X176035000Y-76443400D01*
X176035111Y-76442341D01*
X176039622Y-76353398D01*
X176049524Y-76305212D01*
X176054689Y-76256072D01*
X176068111Y-76214760D01*
X176076541Y-76173743D01*
X176096711Y-76126740D01*
X176112896Y-76076930D01*
X176133117Y-76041905D01*
X176148415Y-76006258D01*
X176179402Y-75961737D01*
X176207076Y-75913805D01*
X176232135Y-75885973D01*
X176252537Y-75856662D01*
X176294110Y-75817143D01*
X176333113Y-75773827D01*
X176360976Y-75753582D01*
X176384635Y-75731094D01*
X176435971Y-75699095D01*
X176485500Y-75663111D01*
X176514213Y-75650327D01*
X176539307Y-75634686D01*
X176598992Y-75612580D01*
X176657576Y-75586498D01*
X176685370Y-75580590D01*
X176710220Y-75571387D01*
X176776283Y-75561266D01*
X176841820Y-75547336D01*
X176867211Y-75547336D01*
X176890377Y-75543787D01*
X176960350Y-75547336D01*
G37*
G36*
X179460350Y-75547336D02*
G01*
X179530180Y-75547336D01*
X179552064Y-75551987D01*
X179572398Y-75553019D01*
X179643376Y-75571396D01*
X179714424Y-75586498D01*
X179732103Y-75594369D01*
X179748845Y-75598704D01*
X179817706Y-75632482D01*
X179886500Y-75663111D01*
X179899702Y-75672703D01*
X179912472Y-75678967D01*
X179975900Y-75728064D01*
X180038887Y-75773827D01*
X180047779Y-75783703D01*
X180056599Y-75790530D01*
X180111315Y-75854267D01*
X180164924Y-75913805D01*
X180170050Y-75922685D01*
X180175315Y-75928817D01*
X180218213Y-76006104D01*
X180259104Y-76076930D01*
X180261334Y-76083794D01*
X180263768Y-76088179D01*
X180292107Y-76178504D01*
X180317311Y-76256072D01*
X180317747Y-76260224D01*
X180318328Y-76262075D01*
X180329850Y-76375378D01*
X180337000Y-76443400D01*
X180337000Y-76693400D01*
X180336888Y-76694459D01*
X180332377Y-76783401D01*
X180322477Y-76831575D01*
X180317311Y-76880728D01*
X180303884Y-76922049D01*
X180295458Y-76963056D01*
X180275292Y-77010045D01*
X180259104Y-77059870D01*
X180238877Y-77094904D01*
X180223584Y-77130541D01*
X180192605Y-77175048D01*
X180164924Y-77222995D01*
X180139857Y-77250834D01*
X180119462Y-77280137D01*
X180077901Y-77319642D01*
X180038887Y-77362973D01*
X180011014Y-77383223D01*
X179987364Y-77405705D01*
X179936043Y-77437693D01*
X179886500Y-77473689D01*
X179857777Y-77486477D01*
X179832692Y-77502113D01*
X179773025Y-77524210D01*
X179714424Y-77550302D01*
X179686620Y-77556211D01*
X179661779Y-77565412D01*
X179595735Y-77575529D01*
X179530180Y-77589464D01*
X179504781Y-77589464D01*
X179481622Y-77593012D01*
X179411669Y-77589464D01*
X179341820Y-77589464D01*
X179319929Y-77584811D01*
X179299601Y-77583780D01*
X179228639Y-77565406D01*
X179157576Y-77550302D01*
X179139892Y-77542428D01*
X179123154Y-77538095D01*
X179054304Y-77504322D01*
X178985500Y-77473689D01*
X178972295Y-77464095D01*
X178959527Y-77457832D01*
X178896104Y-77408739D01*
X178833113Y-77362973D01*
X178824219Y-77353095D01*
X178815400Y-77346269D01*
X178760681Y-77282529D01*
X178707076Y-77222995D01*
X178701949Y-77214115D01*
X178696684Y-77207982D01*
X178653775Y-77130675D01*
X178612896Y-77059870D01*
X178610666Y-77053007D01*
X178608231Y-77048620D01*
X178579872Y-76958233D01*
X178554689Y-76880728D01*
X178554252Y-76876578D01*
X178553671Y-76874724D01*
X178542144Y-76761375D01*
X178535000Y-76693400D01*
X178535000Y-76443400D01*
X178535111Y-76442341D01*
X178539622Y-76353398D01*
X178549524Y-76305212D01*
X178554689Y-76256072D01*
X178568111Y-76214760D01*
X178576541Y-76173743D01*
X178596711Y-76126740D01*
X178612896Y-76076930D01*
X178633117Y-76041905D01*
X178648415Y-76006258D01*
X178679402Y-75961737D01*
X178707076Y-75913805D01*
X178732135Y-75885973D01*
X178752537Y-75856662D01*
X178794110Y-75817143D01*
X178833113Y-75773827D01*
X178860976Y-75753582D01*
X178884635Y-75731094D01*
X178935971Y-75699095D01*
X178985500Y-75663111D01*
X179014213Y-75650327D01*
X179039307Y-75634686D01*
X179098992Y-75612580D01*
X179157576Y-75586498D01*
X179185370Y-75580590D01*
X179210220Y-75571387D01*
X179276283Y-75561266D01*
X179341820Y-75547336D01*
X179367211Y-75547336D01*
X179390377Y-75543787D01*
X179460350Y-75547336D01*
G37*
G36*
X181960350Y-75547336D02*
G01*
X182030180Y-75547336D01*
X182052064Y-75551987D01*
X182072398Y-75553019D01*
X182143376Y-75571396D01*
X182214424Y-75586498D01*
X182232103Y-75594369D01*
X182248845Y-75598704D01*
X182317706Y-75632482D01*
X182386500Y-75663111D01*
X182399702Y-75672703D01*
X182412472Y-75678967D01*
X182475900Y-75728064D01*
X182538887Y-75773827D01*
X182547779Y-75783703D01*
X182556599Y-75790530D01*
X182611315Y-75854267D01*
X182664924Y-75913805D01*
X182670050Y-75922685D01*
X182675315Y-75928817D01*
X182718213Y-76006104D01*
X182759104Y-76076930D01*
X182761334Y-76083794D01*
X182763768Y-76088179D01*
X182792107Y-76178504D01*
X182817311Y-76256072D01*
X182817747Y-76260224D01*
X182818328Y-76262075D01*
X182829850Y-76375378D01*
X182837000Y-76443400D01*
X182837000Y-76693400D01*
X182836888Y-76694459D01*
X182832377Y-76783401D01*
X182822477Y-76831575D01*
X182817311Y-76880728D01*
X182803884Y-76922049D01*
X182795458Y-76963056D01*
X182775292Y-77010045D01*
X182759104Y-77059870D01*
X182738877Y-77094904D01*
X182723584Y-77130541D01*
X182692605Y-77175048D01*
X182664924Y-77222995D01*
X182639857Y-77250834D01*
X182619462Y-77280137D01*
X182577901Y-77319642D01*
X182538887Y-77362973D01*
X182511014Y-77383223D01*
X182487364Y-77405705D01*
X182436043Y-77437693D01*
X182386500Y-77473689D01*
X182357777Y-77486477D01*
X182332692Y-77502113D01*
X182273025Y-77524210D01*
X182214424Y-77550302D01*
X182186620Y-77556211D01*
X182161779Y-77565412D01*
X182095735Y-77575529D01*
X182030180Y-77589464D01*
X182004781Y-77589464D01*
X181981622Y-77593012D01*
X181911669Y-77589464D01*
X181841820Y-77589464D01*
X181819929Y-77584811D01*
X181799601Y-77583780D01*
X181728639Y-77565406D01*
X181657576Y-77550302D01*
X181639892Y-77542428D01*
X181623154Y-77538095D01*
X181554304Y-77504322D01*
X181485500Y-77473689D01*
X181472295Y-77464095D01*
X181459527Y-77457832D01*
X181396104Y-77408739D01*
X181333113Y-77362973D01*
X181324219Y-77353095D01*
X181315400Y-77346269D01*
X181260681Y-77282529D01*
X181207076Y-77222995D01*
X181201949Y-77214115D01*
X181196684Y-77207982D01*
X181153775Y-77130675D01*
X181112896Y-77059870D01*
X181110666Y-77053007D01*
X181108231Y-77048620D01*
X181079872Y-76958233D01*
X181054689Y-76880728D01*
X181054252Y-76876578D01*
X181053671Y-76874724D01*
X181042144Y-76761375D01*
X181035000Y-76693400D01*
X181035000Y-76443400D01*
X181035111Y-76442341D01*
X181039622Y-76353398D01*
X181049524Y-76305212D01*
X181054689Y-76256072D01*
X181068111Y-76214760D01*
X181076541Y-76173743D01*
X181096711Y-76126740D01*
X181112896Y-76076930D01*
X181133117Y-76041905D01*
X181148415Y-76006258D01*
X181179402Y-75961737D01*
X181207076Y-75913805D01*
X181232135Y-75885973D01*
X181252537Y-75856662D01*
X181294110Y-75817143D01*
X181333113Y-75773827D01*
X181360976Y-75753582D01*
X181384635Y-75731094D01*
X181435971Y-75699095D01*
X181485500Y-75663111D01*
X181514213Y-75650327D01*
X181539307Y-75634686D01*
X181598992Y-75612580D01*
X181657576Y-75586498D01*
X181685370Y-75580590D01*
X181710220Y-75571387D01*
X181776283Y-75561266D01*
X181841820Y-75547336D01*
X181867211Y-75547336D01*
X181890377Y-75543787D01*
X181960350Y-75547336D01*
G37*
G36*
X184460350Y-75547336D02*
G01*
X184530180Y-75547336D01*
X184552064Y-75551987D01*
X184572398Y-75553019D01*
X184643376Y-75571396D01*
X184714424Y-75586498D01*
X184732103Y-75594369D01*
X184748845Y-75598704D01*
X184817706Y-75632482D01*
X184886500Y-75663111D01*
X184899702Y-75672703D01*
X184912472Y-75678967D01*
X184975900Y-75728064D01*
X185038887Y-75773827D01*
X185047779Y-75783703D01*
X185056599Y-75790530D01*
X185111315Y-75854267D01*
X185164924Y-75913805D01*
X185170050Y-75922685D01*
X185175315Y-75928817D01*
X185218213Y-76006104D01*
X185259104Y-76076930D01*
X185261334Y-76083794D01*
X185263768Y-76088179D01*
X185292107Y-76178504D01*
X185317311Y-76256072D01*
X185317747Y-76260224D01*
X185318328Y-76262075D01*
X185329850Y-76375378D01*
X185337000Y-76443400D01*
X185337000Y-76693400D01*
X185336888Y-76694459D01*
X185332377Y-76783401D01*
X185322477Y-76831575D01*
X185317311Y-76880728D01*
X185303884Y-76922049D01*
X185295458Y-76963056D01*
X185275292Y-77010045D01*
X185259104Y-77059870D01*
X185238877Y-77094904D01*
X185223584Y-77130541D01*
X185192605Y-77175048D01*
X185164924Y-77222995D01*
X185139857Y-77250834D01*
X185119462Y-77280137D01*
X185077901Y-77319642D01*
X185038887Y-77362973D01*
X185011014Y-77383223D01*
X184987364Y-77405705D01*
X184936043Y-77437693D01*
X184886500Y-77473689D01*
X184857777Y-77486477D01*
X184832692Y-77502113D01*
X184773025Y-77524210D01*
X184714424Y-77550302D01*
X184686620Y-77556211D01*
X184661779Y-77565412D01*
X184595735Y-77575529D01*
X184530180Y-77589464D01*
X184504781Y-77589464D01*
X184481622Y-77593012D01*
X184411669Y-77589464D01*
X184341820Y-77589464D01*
X184319929Y-77584811D01*
X184299601Y-77583780D01*
X184228639Y-77565406D01*
X184157576Y-77550302D01*
X184139892Y-77542428D01*
X184123154Y-77538095D01*
X184054304Y-77504322D01*
X183985500Y-77473689D01*
X183972295Y-77464095D01*
X183959527Y-77457832D01*
X183896104Y-77408739D01*
X183833113Y-77362973D01*
X183824219Y-77353095D01*
X183815400Y-77346269D01*
X183760681Y-77282529D01*
X183707076Y-77222995D01*
X183701949Y-77214115D01*
X183696684Y-77207982D01*
X183653775Y-77130675D01*
X183612896Y-77059870D01*
X183610666Y-77053007D01*
X183608231Y-77048620D01*
X183579872Y-76958233D01*
X183554689Y-76880728D01*
X183554252Y-76876578D01*
X183553671Y-76874724D01*
X183542144Y-76761375D01*
X183535000Y-76693400D01*
X183535000Y-76443400D01*
X183535111Y-76442341D01*
X183539622Y-76353398D01*
X183549524Y-76305212D01*
X183554689Y-76256072D01*
X183568111Y-76214760D01*
X183576541Y-76173743D01*
X183596711Y-76126740D01*
X183612896Y-76076930D01*
X183633117Y-76041905D01*
X183648415Y-76006258D01*
X183679402Y-75961737D01*
X183707076Y-75913805D01*
X183732135Y-75885973D01*
X183752537Y-75856662D01*
X183794110Y-75817143D01*
X183833113Y-75773827D01*
X183860976Y-75753582D01*
X183884635Y-75731094D01*
X183935971Y-75699095D01*
X183985500Y-75663111D01*
X184014213Y-75650327D01*
X184039307Y-75634686D01*
X184098992Y-75612580D01*
X184157576Y-75586498D01*
X184185370Y-75580590D01*
X184210220Y-75571387D01*
X184276283Y-75561266D01*
X184341820Y-75547336D01*
X184367211Y-75547336D01*
X184390377Y-75543787D01*
X184460350Y-75547336D01*
G37*
G36*
X186960350Y-75547336D02*
G01*
X187030180Y-75547336D01*
X187052064Y-75551987D01*
X187072398Y-75553019D01*
X187143376Y-75571396D01*
X187214424Y-75586498D01*
X187232103Y-75594369D01*
X187248845Y-75598704D01*
X187317706Y-75632482D01*
X187386500Y-75663111D01*
X187399702Y-75672703D01*
X187412472Y-75678967D01*
X187475900Y-75728064D01*
X187538887Y-75773827D01*
X187547779Y-75783703D01*
X187556599Y-75790530D01*
X187611315Y-75854267D01*
X187664924Y-75913805D01*
X187670050Y-75922685D01*
X187675315Y-75928817D01*
X187718213Y-76006104D01*
X187759104Y-76076930D01*
X187761334Y-76083794D01*
X187763768Y-76088179D01*
X187792107Y-76178504D01*
X187817311Y-76256072D01*
X187817747Y-76260224D01*
X187818328Y-76262075D01*
X187829850Y-76375378D01*
X187837000Y-76443400D01*
X187837000Y-76693400D01*
X187836888Y-76694459D01*
X187832377Y-76783401D01*
X187822477Y-76831575D01*
X187817311Y-76880728D01*
X187803884Y-76922049D01*
X187795458Y-76963056D01*
X187775292Y-77010045D01*
X187759104Y-77059870D01*
X187738877Y-77094904D01*
X187723584Y-77130541D01*
X187692605Y-77175048D01*
X187664924Y-77222995D01*
X187639857Y-77250834D01*
X187619462Y-77280137D01*
X187577901Y-77319642D01*
X187538887Y-77362973D01*
X187511014Y-77383223D01*
X187487364Y-77405705D01*
X187436043Y-77437693D01*
X187386500Y-77473689D01*
X187357777Y-77486477D01*
X187332692Y-77502113D01*
X187273025Y-77524210D01*
X187214424Y-77550302D01*
X187186620Y-77556211D01*
X187161779Y-77565412D01*
X187095735Y-77575529D01*
X187030180Y-77589464D01*
X187004781Y-77589464D01*
X186981622Y-77593012D01*
X186911669Y-77589464D01*
X186841820Y-77589464D01*
X186819929Y-77584811D01*
X186799601Y-77583780D01*
X186728639Y-77565406D01*
X186657576Y-77550302D01*
X186639892Y-77542428D01*
X186623154Y-77538095D01*
X186554304Y-77504322D01*
X186485500Y-77473689D01*
X186472295Y-77464095D01*
X186459527Y-77457832D01*
X186396104Y-77408739D01*
X186333113Y-77362973D01*
X186324219Y-77353095D01*
X186315400Y-77346269D01*
X186260681Y-77282529D01*
X186207076Y-77222995D01*
X186201949Y-77214115D01*
X186196684Y-77207982D01*
X186153775Y-77130675D01*
X186112896Y-77059870D01*
X186110666Y-77053007D01*
X186108231Y-77048620D01*
X186079872Y-76958233D01*
X186054689Y-76880728D01*
X186054252Y-76876578D01*
X186053671Y-76874724D01*
X186042144Y-76761375D01*
X186035000Y-76693400D01*
X186035000Y-76443400D01*
X186035111Y-76442341D01*
X186039622Y-76353398D01*
X186049524Y-76305212D01*
X186054689Y-76256072D01*
X186068111Y-76214760D01*
X186076541Y-76173743D01*
X186096711Y-76126740D01*
X186112896Y-76076930D01*
X186133117Y-76041905D01*
X186148415Y-76006258D01*
X186179402Y-75961737D01*
X186207076Y-75913805D01*
X186232135Y-75885973D01*
X186252537Y-75856662D01*
X186294110Y-75817143D01*
X186333113Y-75773827D01*
X186360976Y-75753582D01*
X186384635Y-75731094D01*
X186435971Y-75699095D01*
X186485500Y-75663111D01*
X186514213Y-75650327D01*
X186539307Y-75634686D01*
X186598992Y-75612580D01*
X186657576Y-75586498D01*
X186685370Y-75580590D01*
X186710220Y-75571387D01*
X186776283Y-75561266D01*
X186841820Y-75547336D01*
X186867211Y-75547336D01*
X186890377Y-75543787D01*
X186960350Y-75547336D01*
G37*
M02*
