M48
; DRILL file {KiCad 7.99.0-1900-g89780d353a} date 2023-08-02T11:36:21+0300
; FORMAT={-:-/ absolute / inch / decimal}
; #@! TF.CreationDate,2023-08-02T11:36:21+03:00
; #@! TF.GenerationSoftware,Kicad,Pcbnew,7.99.0-1900-g89780d353a
; #@! TF.FileFunction,Plated,1,2,PTH
FMAT,2
INCH
; #@! TA.AperFunction,Plated,PTH,ViaDrill
T1C0.0138
; #@! TA.AperFunction,Plated,PTH,ComponentDrill
T2C0.0197
; #@! TA.AperFunction,Plated,PTH,ComponentDrill
T3C0.0299
; #@! TA.AperFunction,Plated,PTH,ComponentDrill
T4C0.0374
; #@! TA.AperFunction,Plated,PTH,ComponentDrill
T5C0.0508
; #@! TA.AperFunction,Plated,PTH,ComponentDrill
T6C0.0520
; #@! TA.AperFunction,Plated,PTH,ComponentDrill
T7C0.0630
%
G90
G05
T1
X5.3447Y-3.7133
X5.3597Y-3.8051
X5.3617Y-3.507
X5.3632Y-3.3708
X5.3876Y-3.096
X5.388Y-3.9641
X5.4369Y-3.0932
X5.4711Y-3.2259
X5.5022Y-3.3196
X5.5093Y-3.0905
X5.5215Y-3.82
X5.5372Y-3.0212
X5.5522Y-3.2543
X5.5632Y-3.4645
X5.5676Y-3.6405
X5.575Y-3.7373
X5.6246Y-3.9574
X5.6585Y-4.12
X5.7254Y-4.211
X5.7668Y-3.0988
X5.8613Y-3.9409
X5.8971Y-3.1346
X5.8998Y-3.9074
X5.9054Y-3.024
X6.0274Y-3.9409
X6.0325Y-4.3015
X6.0829Y-2.9775
X6.2471Y-3.8909
X6.262Y-4.2775
X6.292Y-3.0688
X6.2994Y-3.0125
X6.388Y-4.2755
X6.39Y-3.9964
X6.4762Y-3.6862
X6.4833Y-3.2291
X6.49Y-2.9629
X6.4959Y-3.0602
X6.5593Y-2.9799
X6.5924Y-2.9854
X6.6278Y-3.0133
X6.6494Y-3.3598
X6.6672Y-3.5558
X6.6727Y-3.1598
X6.692Y-3.4007
X6.7195Y-3.0944
X6.7554Y-3.5212
X6.7593Y-3.3476
X6.7829Y-3.2921
X6.7904Y-3.0925
X6.8065Y-3.3669
X6.8384Y-2.9578
X6.9916Y-4.257
X7.003Y-3.1338
X7.19Y-3.0952
X7.2546Y-4.0098
X7.2672Y-3.9495
X7.2731Y-3.8606
X7.3861Y-3.9275
X7.405Y-2.946
X7.44Y-3.8673
X7.5172Y-3.9507
X7.5325Y-2.9988
X7.5971Y-3.0066
X7.6038Y-2.8984
X7.6207Y-3.1291
X7.6309Y-3.1897
X7.6428Y-3.3558
X7.6451Y-3.559
X7.6475Y-3.4094
X7.6664Y-3.1074
X7.6707Y-4.27
X7.7164Y-3.8598
X7.7164Y-4.1464
X7.7652Y-4.2554
X7.7676Y-3.0956
X7.7845Y-3.2039
X7.8317Y-4.094
X7.8333Y-3.2799
X7.8341Y-3.3771
X7.8341Y-3.4617
X7.8341Y-3.4905
T2
X7.6223Y-3.0771
T3
X6.8261Y-3.9989
X6.8761Y-3.8989
X6.9261Y-3.9989
X6.9761Y-3.8989
X7.0261Y-3.9989
X7.0761Y-3.8989
X7.1261Y-3.9989
X7.1761Y-3.8989
T4
X6.7691Y-3.0145
X6.8676Y-3.0145
X6.966Y-3.0145
X7.0644Y-3.0145
X7.1628Y-3.0145
X7.2613Y-3.0145
X7.3597Y-3.0145
X7.4581Y-3.0145
T5
X5.6699Y-3.4932
X7.5438Y-3.4783
T6
X5.7487Y-3.257
X5.7487Y-3.7295
X6.229Y-3.257
X6.229Y-3.7295
X6.9848Y-3.2421
X6.9848Y-3.7145
X7.4651Y-3.2421
X7.4651Y-3.7145
T7
X5.992Y-3.0207
X5.992Y-4.1704
X6.192Y-3.0207
X6.192Y-4.1704
X6.392Y-3.0207
X6.392Y-4.1704
T0
M30
