G04 #@! TF.GenerationSoftware,KiCad,Pcbnew,7.99.0-1900-g89780d353a*
G04 #@! TF.CreationDate,2023-07-18T18:24:49+03:00*
G04 #@! TF.ProjectId,RP2040_minimal,52503230-3430-45f6-9d69-6e696d616c2e,REV1*
G04 #@! TF.SameCoordinates,Original*
G04 #@! TF.FileFunction,Copper,L2,Bot*
G04 #@! TF.FilePolarity,Positive*
%FSLAX46Y46*%
G04 Gerber Fmt 4.6, Leading zero omitted, Abs format (unit mm)*
G04 Created by KiCad (PCBNEW 7.99.0-1900-g89780d353a) date 2023-07-18 18:24:49*
%MOMM*%
%LPD*%
G01*
G04 APERTURE LIST*
G04 Aperture macros list*
%AMRoundRect*
0 Rectangle with rounded corners*
0 $1 Rounding radius*
0 $2 $3 $4 $5 $6 $7 $8 $9 X,Y pos of 4 corners*
0 Add a 4 corners polygon primitive as box body*
4,1,4,$2,$3,$4,$5,$6,$7,$8,$9,$2,$3,0*
0 Add four circle primitives for the rounded corners*
1,1,$1+$1,$2,$3*
1,1,$1+$1,$4,$5*
1,1,$1+$1,$6,$7*
1,1,$1+$1,$8,$9*
0 Add four rect primitives between the rounded corners*
20,1,$1+$1,$2,$3,$4,$5,0*
20,1,$1+$1,$4,$5,$6,$7,0*
20,1,$1+$1,$6,$7,$8,$9,0*
20,1,$1+$1,$8,$9,$2,$3,0*%
G04 Aperture macros list end*
G04 #@! TA.AperFunction,ComponentPad*
%ADD10C,0.600000*%
G04 #@! TD*
G04 #@! TA.AperFunction,ComponentPad*
%ADD11R,1.350000X1.350000*%
G04 #@! TD*
G04 #@! TA.AperFunction,ComponentPad*
%ADD12O,1.350000X1.350000*%
G04 #@! TD*
G04 #@! TA.AperFunction,ComponentPad*
%ADD13R,0.500000X0.700000*%
G04 #@! TD*
G04 #@! TA.AperFunction,ComponentPad*
%ADD14O,0.500000X0.500000*%
G04 #@! TD*
G04 #@! TA.AperFunction,ComponentPad*
%ADD15RoundRect,0.250000X-0.980000X-1.150000X0.980000X-1.150000X0.980000X1.150000X-0.980000X1.150000X0*%
G04 #@! TD*
G04 #@! TA.AperFunction,ComponentPad*
%ADD16O,2.460000X2.800000*%
G04 #@! TD*
G04 #@! TA.AperFunction,ComponentPad*
%ADD17R,1.500000X1.500000*%
G04 #@! TD*
G04 #@! TA.AperFunction,ComponentPad*
%ADD18C,1.500000*%
G04 #@! TD*
G04 #@! TA.AperFunction,ViaPad*
%ADD19C,0.600000*%
G04 #@! TD*
G04 #@! TA.AperFunction,ViaPad*
%ADD20C,2.000000*%
G04 #@! TD*
G04 #@! TA.AperFunction,Conductor*
%ADD21C,0.400000*%
G04 #@! TD*
G04 #@! TA.AperFunction,Conductor*
%ADD22C,1.000000*%
G04 #@! TD*
G04 #@! TA.AperFunction,Conductor*
%ADD23C,0.200000*%
G04 #@! TD*
G04 #@! TA.AperFunction,Conductor*
%ADD24C,0.600000*%
G04 #@! TD*
G04 #@! TA.AperFunction,Conductor*
%ADD25C,0.150000*%
G04 #@! TD*
G04 #@! TA.AperFunction,Conductor*
%ADD26C,0.300000*%
G04 #@! TD*
G04 APERTURE END LIST*
D10*
X173909000Y-61295000D03*
X173909000Y-62570000D03*
X173909000Y-63845000D03*
X175184000Y-61295000D03*
X175184000Y-62570000D03*
X175184000Y-63845000D03*
X176459000Y-61295000D03*
X176459000Y-62570000D03*
X176459000Y-63845000D03*
D11*
X130236000Y-70858400D03*
D12*
X130236000Y-68858400D03*
X130236000Y-66858400D03*
X130236000Y-64858400D03*
D13*
X167292600Y-46481200D03*
D14*
X168292600Y-46481200D03*
D15*
X172898000Y-51090000D03*
D16*
X176858000Y-51090000D03*
D11*
X184302600Y-71612400D03*
D15*
X158751400Y-51115400D03*
D16*
X162711400Y-51115400D03*
D11*
X184328000Y-52220000D03*
D12*
X184328000Y-54220000D03*
X184328000Y-56220000D03*
X184328000Y-58220000D03*
X184328000Y-60220000D03*
D17*
X148935700Y-53179300D03*
D18*
X147665700Y-55719300D03*
X146395700Y-53179300D03*
X145125700Y-55719300D03*
X143855700Y-53179300D03*
X142585700Y-55719300D03*
X141315700Y-53179300D03*
X140045700Y-55719300D03*
D17*
X140142100Y-64666900D03*
D18*
X141412100Y-62126900D03*
X142682100Y-64666900D03*
X143952100Y-62126900D03*
X145222100Y-64666900D03*
X146492100Y-62126900D03*
X147762100Y-64666900D03*
X149032100Y-62126900D03*
D19*
X182042000Y-50632000D03*
X175946000Y-53172000D03*
X177292200Y-61884200D03*
X158928000Y-67269000D03*
X169037200Y-61223800D03*
X173152000Y-45806000D03*
X182296000Y-53934000D03*
X135687000Y-72349000D03*
X138354000Y-62062000D03*
X132766000Y-70190000D03*
X127330400Y-59928400D03*
X176200000Y-45806000D03*
X126695400Y-65211600D03*
X144323000Y-67523000D03*
X178994000Y-45806000D03*
X161722000Y-53934000D03*
X135052000Y-65110000D03*
X172009000Y-68183400D03*
X174472800Y-56093000D03*
X134137600Y-57718600D03*
X179756000Y-62062000D03*
X170231000Y-65719600D03*
X154102000Y-63332000D03*
X172999600Y-54746800D03*
X162230000Y-60792000D03*
X123876000Y-66634000D03*
X165735200Y-65211600D03*
X153467000Y-71206000D03*
X171831200Y-59369600D03*
X177266800Y-63128800D03*
X128702000Y-72730000D03*
X163246000Y-69047000D03*
X177470000Y-45806000D03*
X172517000Y-72526800D03*
X171424800Y-65719500D03*
X174472800Y-60055400D03*
X161264800Y-64017800D03*
X178486000Y-54696000D03*
X162331600Y-54873800D03*
X164262000Y-53172000D03*
X162230000Y-53172000D03*
X124384000Y-50124000D03*
X132766000Y-57490000D03*
X176860400Y-71510800D03*
X174803000Y-49438200D03*
X172237600Y-48879400D03*
X162839600Y-60080800D03*
X181026000Y-54188000D03*
X159436000Y-69047000D03*
X182981800Y-70545600D03*
X169379063Y-68183389D03*
X151054000Y-53172000D03*
X123622000Y-46060000D03*
X142672000Y-46568000D03*
X173025000Y-62900200D03*
X156642000Y-67142000D03*
X133274000Y-64856000D03*
X172999600Y-63611400D03*
X134290000Y-72476000D03*
X137947600Y-55432600D03*
X163093600Y-64017800D03*
X180772000Y-52664000D03*
X170358000Y-63840000D03*
X160452000Y-54442000D03*
X162179200Y-57083600D03*
X178486000Y-53172000D03*
X182931000Y-72222000D03*
X141656000Y-69936000D03*
X173431400Y-72857000D03*
X145974000Y-67523000D03*
X147371000Y-67523000D03*
X154610000Y-67142000D03*
X164770000Y-68666000D03*
X162738000Y-46060000D03*
X173442212Y-60095989D03*
X132639000Y-71333000D03*
X135560000Y-68412000D03*
X183312000Y-61935000D03*
X164516000Y-63967000D03*
X163754000Y-54188000D03*
X173406000Y-53680000D03*
X146482000Y-46568000D03*
X131750000Y-45044000D03*
X128702000Y-50124000D03*
X160706000Y-57744000D03*
X179984600Y-51876600D03*
X158674000Y-46060000D03*
X128586000Y-71198400D03*
X161214000Y-60665000D03*
X157658000Y-69428000D03*
X132385000Y-68158000D03*
X172390000Y-45806000D03*
X175641200Y-72755400D03*
X138862000Y-59776000D03*
X129718000Y-46568000D03*
X135737800Y-62265200D03*
X135306000Y-63586000D03*
X147498000Y-71460000D03*
X135306000Y-70698000D03*
X161036200Y-59979200D03*
X169723000Y-64094000D03*
X163246000Y-57236000D03*
X135890200Y-58455200D03*
X177825600Y-67091200D03*
X163449200Y-58455200D03*
X158801000Y-54162600D03*
X162230000Y-58252000D03*
X161214000Y-56728000D03*
X137769800Y-59979200D03*
X170866000Y-45806000D03*
X173025000Y-61757200D03*
X174523600Y-53400600D03*
X179756000Y-66786400D03*
X143942000Y-63586000D03*
X138150800Y-63535200D03*
X143434000Y-47584000D03*
X134163000Y-59979200D03*
D20*
X150622200Y-49895400D03*
X175920600Y-48168200D03*
D19*
X170358000Y-59903000D03*
D20*
X123545800Y-64449600D03*
D19*
X180924400Y-58912400D03*
X175384000Y-56782000D03*
D20*
X181713174Y-71246774D03*
D19*
X159817000Y-72552200D03*
X179705200Y-63052600D03*
X154406800Y-65287800D03*
X165966000Y-69738400D03*
X136486000Y-65178400D03*
X167970400Y-53451400D03*
X167919600Y-66287300D03*
X167189589Y-66117481D03*
X167843400Y-52511600D03*
X166640089Y-65414800D03*
X166878200Y-52181400D03*
X166392142Y-64706268D03*
X166319400Y-52689400D03*
X168824147Y-60269044D03*
X168884800Y-59522000D03*
X143002200Y-59750600D03*
X179730600Y-61249200D03*
X160299600Y-64027100D03*
X169875400Y-63027200D03*
X165963800Y-66354600D03*
X179095600Y-65973600D03*
X170764400Y-58175800D03*
X175717400Y-54594400D03*
X154203600Y-55813600D03*
X160706000Y-68208800D03*
X163754000Y-67929400D03*
X178562200Y-67415793D03*
X162585600Y-68132600D03*
X176860400Y-67074700D03*
X128168600Y-54797600D03*
X147726600Y-51673400D03*
X129210000Y-54975400D03*
X146329600Y-51470200D03*
X131826000Y-62198400D03*
X152222400Y-57388400D03*
X133976000Y-62138400D03*
X158242200Y-62776420D03*
X152236234Y-58179345D03*
X159055000Y-63128800D03*
X182372200Y-60106200D03*
X149606200Y-67370600D03*
X150622200Y-64635500D03*
X184480400Y-62011200D03*
X178181200Y-57998000D03*
X168807528Y-64544972D03*
X151638200Y-59090200D03*
X133711000Y-63583400D03*
X179756000Y-64576600D03*
X128206000Y-63586011D03*
X159740800Y-63437540D03*
D21*
X156311489Y-48066911D02*
X175209089Y-48066911D01*
X150622200Y-49895400D02*
X154483000Y-49895400D01*
X175209089Y-48066911D02*
X175514200Y-47761800D01*
X154483000Y-49895400D02*
X156311489Y-48066911D01*
X175514200Y-47761800D02*
X175920600Y-48168200D01*
X180924400Y-61833400D02*
X180924400Y-58912400D01*
D22*
X166446400Y-71841000D02*
X165735200Y-72552200D01*
X148590200Y-68539000D02*
X152755800Y-68539000D01*
D21*
X176835000Y-58912400D02*
X175384000Y-57461400D01*
D22*
X180776093Y-68365293D02*
X173173307Y-68365293D01*
D23*
X175384000Y-56782000D02*
X173479000Y-56782000D01*
D22*
X137726726Y-66692500D02*
X125788700Y-66692500D01*
D23*
X151832498Y-68539000D02*
X154406800Y-65964698D01*
D24*
X181610200Y-59598200D02*
X180924400Y-58912400D01*
D22*
X181686400Y-71206000D02*
X181686400Y-69275600D01*
X152755800Y-68539000D02*
X156769000Y-72552200D01*
X173009311Y-68525901D02*
X169694212Y-71841000D01*
D21*
X175384000Y-57461400D02*
X175384000Y-56782000D01*
D23*
X173479000Y-56782000D02*
X170358000Y-59903000D01*
D22*
X125788700Y-66692500D02*
X123545800Y-64449600D01*
D23*
X148590200Y-68539000D02*
X151832498Y-68539000D01*
D22*
X156769000Y-72552200D02*
X159817000Y-72552200D01*
X148590200Y-68539000D02*
X139573226Y-68539000D01*
X139573226Y-68539000D02*
X137726726Y-66692500D01*
X181686400Y-69275600D02*
X180776093Y-68365293D01*
X165735200Y-72552200D02*
X159817000Y-72552200D01*
D23*
X154406800Y-65964698D02*
X154406800Y-65287800D01*
D24*
X181610200Y-71129800D02*
X181610200Y-59598200D01*
D22*
X169694212Y-71841000D02*
X166446400Y-71841000D01*
D24*
X181686400Y-71206000D02*
X181610200Y-71129800D01*
D21*
X180924400Y-58912400D02*
X176835000Y-58912400D01*
X179705200Y-63052600D02*
X180924400Y-61833400D01*
D25*
X143986000Y-64358400D02*
X143738111Y-64110511D01*
X154931311Y-66183711D02*
X154931311Y-65070539D01*
X142756000Y-61328400D02*
X142086000Y-60658400D01*
X143724739Y-64110511D02*
X143417489Y-63803261D01*
X143417489Y-63803261D02*
X143417489Y-63789889D01*
X136486000Y-63188228D02*
X136486000Y-65178400D01*
X143738111Y-64110511D02*
X143724739Y-64110511D01*
X143986000Y-65288400D02*
X143986000Y-64358400D01*
X154624061Y-64763289D02*
X153301963Y-64763289D01*
X143417489Y-63789889D02*
X142756000Y-63128400D01*
X139015828Y-60658400D02*
X136486000Y-63188228D01*
X142756000Y-63128400D02*
X142756000Y-61328400D01*
X165966000Y-69738400D02*
X160869172Y-69738400D01*
X145266000Y-66568400D02*
X143986000Y-65288400D01*
X153301963Y-64763289D02*
X151496852Y-66568400D01*
X154931311Y-65070539D02*
X154624061Y-64763289D01*
X160869172Y-69738400D02*
X158924283Y-67793511D01*
X156541111Y-67793511D02*
X154931311Y-66183711D01*
X142086000Y-60658400D02*
X139015828Y-60658400D01*
X158924283Y-67793511D02*
X156541111Y-67793511D01*
X151496852Y-66568400D02*
X145266000Y-66568400D01*
D23*
X168258002Y-53739002D02*
X167970400Y-53451400D01*
D25*
X167897814Y-66265514D02*
X167897814Y-65388156D01*
X167919600Y-66287300D02*
X167897814Y-66265514D01*
D23*
X167931925Y-65389400D02*
X168258002Y-65063323D01*
X167919600Y-65389400D02*
X167931925Y-65389400D01*
X168258002Y-65063323D02*
X168258002Y-53739002D01*
X167420889Y-64215162D02*
X167420889Y-52934111D01*
X167554711Y-64348984D02*
X167420889Y-64215162D01*
X167189589Y-66117481D02*
X167189589Y-65169338D01*
X167554711Y-64804216D02*
X167554711Y-64348984D01*
X167189589Y-65169338D02*
X167554711Y-64804216D01*
X167420889Y-52934111D02*
X167843400Y-52511600D01*
X167005200Y-52308400D02*
X167005200Y-64859432D01*
X167005200Y-64859432D02*
X166840069Y-65024563D01*
X166878200Y-52181400D02*
X167005200Y-52308400D01*
X166840069Y-65214820D02*
X166640089Y-65414800D01*
X166840069Y-65024563D02*
X166840069Y-65214820D01*
X166319400Y-52689400D02*
X166319400Y-64633526D01*
X166319400Y-64633526D02*
X166392142Y-64706268D01*
X169021680Y-60071511D02*
X169112416Y-60071511D01*
X168824147Y-60269044D02*
X169021680Y-60071511D01*
X169570600Y-54417400D02*
X172898000Y-51090000D01*
X169570600Y-59613327D02*
X169570600Y-54417400D01*
X169112416Y-60071511D02*
X169570600Y-59613327D01*
X167868800Y-51444800D02*
X163040800Y-51444800D01*
X168656200Y-59293400D02*
X168656200Y-52232200D01*
X168656200Y-52232200D02*
X167868800Y-51444800D01*
X163040800Y-51444800D02*
X162686000Y-51090000D01*
X168884800Y-59522000D02*
X168656200Y-59293400D01*
X145661689Y-61296489D02*
X146517500Y-62152300D01*
D26*
X172207111Y-60695489D02*
X169875400Y-63027200D01*
D23*
X143002200Y-59750600D02*
X144548089Y-61296489D01*
X144548089Y-61296489D02*
X145661689Y-61296489D01*
D26*
X179730600Y-61249200D02*
X179176889Y-60695489D01*
D23*
X142585700Y-59334100D02*
X142585700Y-55719300D01*
D26*
X153238400Y-64297200D02*
X151384200Y-66151400D01*
D23*
X143002200Y-59750600D02*
X142585700Y-59334100D01*
D26*
X147294800Y-66151400D02*
X146492100Y-65348700D01*
X146492100Y-62321400D02*
X146517500Y-62296000D01*
D23*
X146517500Y-62152300D02*
X146517500Y-62296000D01*
D26*
X160112500Y-64027100D02*
X159842400Y-64297200D01*
X151384200Y-66151400D02*
X147294800Y-66151400D01*
X160299600Y-64027100D02*
X160112500Y-64027100D01*
X179176889Y-60695489D02*
X172207111Y-60695489D01*
X146492100Y-65348700D02*
X146492100Y-62321400D01*
X159842400Y-64297200D02*
X153238400Y-64297200D01*
D25*
X177026861Y-66490489D02*
X176592339Y-66490489D01*
X177043372Y-66507000D02*
X177026861Y-66490489D01*
X166421000Y-66811800D02*
X165963800Y-66354600D01*
X171074272Y-66811800D02*
X166421000Y-66811800D01*
X179095600Y-65973600D02*
X178562200Y-66507000D01*
X175897650Y-65795800D02*
X172090272Y-65795800D01*
X178562200Y-66507000D02*
X177043372Y-66507000D01*
X176592339Y-66490489D02*
X175897650Y-65795800D01*
X172090272Y-65795800D02*
X171074272Y-66811800D01*
D23*
X174345800Y-54594400D02*
X170764400Y-58175800D01*
X175717400Y-54594400D02*
X174345800Y-54594400D01*
X161925200Y-62722400D02*
X155016400Y-55813600D01*
X160706000Y-68208800D02*
X161925200Y-66989600D01*
X155016400Y-55813600D02*
X154203600Y-55813600D01*
X161925200Y-66989600D02*
X161925200Y-62722400D01*
D25*
X164042627Y-67640773D02*
X178337220Y-67640773D01*
X178337220Y-67640773D02*
X178562200Y-67415793D01*
X163754000Y-67929400D02*
X164042627Y-67640773D01*
X176800700Y-67074700D02*
X176534147Y-67341253D01*
X176534147Y-67341253D02*
X163376947Y-67341253D01*
X163376947Y-67341253D02*
X162585600Y-68132600D01*
X176860400Y-67074700D02*
X176800700Y-67074700D01*
D23*
X139817911Y-48761689D02*
X134366200Y-54213400D01*
X128752800Y-54213400D02*
X128168600Y-54797600D01*
X147726600Y-51673400D02*
X147726600Y-50185073D01*
X134366200Y-54213400D02*
X128752800Y-54213400D01*
X147726600Y-50185073D02*
X146303216Y-48761689D01*
X146303216Y-48761689D02*
X139817911Y-48761689D01*
X144170600Y-49311200D02*
X140030400Y-49311200D01*
X146329600Y-51470200D02*
X144170600Y-49311200D01*
X140030400Y-49311200D02*
X134366200Y-54975400D01*
X134366200Y-54975400D02*
X129210000Y-54975400D01*
X158242200Y-62776420D02*
X156569020Y-62776420D01*
D25*
X133976000Y-62138400D02*
X131886000Y-62138400D01*
D23*
X156569020Y-62776420D02*
X152908200Y-59115600D01*
D25*
X131886000Y-62138400D02*
X131826000Y-62198400D01*
D23*
X152908200Y-59115600D02*
X152908200Y-58074200D01*
X152908200Y-58074200D02*
X152222400Y-57388400D01*
X152236234Y-58951634D02*
X152236234Y-58179345D01*
X159055000Y-63128800D02*
X158851800Y-63332000D01*
X158851800Y-63332000D02*
X157962800Y-63332000D01*
X157962800Y-63332000D02*
X157956720Y-63325920D01*
X156610520Y-63325920D02*
X152236234Y-58951634D01*
X157956720Y-63325920D02*
X156610520Y-63325920D01*
X182219800Y-67370600D02*
X184302600Y-69453400D01*
X182219800Y-60258600D02*
X182219800Y-67370600D01*
X182372200Y-60106200D02*
X182219800Y-60258600D01*
X184302600Y-69453400D02*
X184302600Y-71612400D01*
X149606200Y-67524592D02*
X149045808Y-66964200D01*
X139039800Y-66151400D02*
X139039800Y-63633040D01*
X149606200Y-67370600D02*
X149606200Y-67524592D01*
X140545940Y-62126900D02*
X141412100Y-62126900D01*
X139852600Y-66964200D02*
X139039800Y-66151400D01*
X139039800Y-63633040D02*
X140545940Y-62126900D01*
X149045808Y-66964200D02*
X139852600Y-66964200D01*
X150673000Y-64584700D02*
X150673000Y-54916600D01*
X150622200Y-64635500D02*
X150673000Y-64584700D01*
X150673000Y-54916600D02*
X148935700Y-53179300D01*
X183403489Y-60985089D02*
X183403489Y-59994489D01*
X183464400Y-61046000D02*
X183403489Y-60985089D01*
X181771881Y-58362881D02*
X178546081Y-58362881D01*
X183403489Y-59994489D02*
X181771881Y-58362881D01*
X184480400Y-62011200D02*
X183515200Y-61046000D01*
X183515200Y-61046000D02*
X183464400Y-61046000D01*
X178546081Y-58362881D02*
X178181200Y-57998000D01*
X128206000Y-64788400D02*
X129200511Y-65782911D01*
X156229520Y-63681520D02*
X151638200Y-59090200D01*
X169160067Y-64897511D02*
X170001416Y-64897511D01*
X159740800Y-63437540D02*
X159496820Y-63681520D01*
X170474727Y-64424200D02*
X172298673Y-64424200D01*
X129200511Y-65782911D02*
X131521489Y-65782911D01*
X179739889Y-64592711D02*
X179756000Y-64576600D01*
X168807528Y-64544972D02*
X169160067Y-64897511D01*
X128206000Y-63586011D02*
X128206000Y-64788400D01*
X172298673Y-64424200D02*
X172467184Y-64592711D01*
X170001416Y-64897511D02*
X170474727Y-64424200D01*
X159496820Y-63681520D02*
X156229520Y-63681520D01*
X131521489Y-65782911D02*
X133746000Y-63558400D01*
X172467184Y-64592711D02*
X179739889Y-64592711D01*
G04 #@! TA.AperFunction,Conductor*
G36*
X122480148Y-65008464D02*
G01*
X122489361Y-65021269D01*
X122496972Y-65036553D01*
X122520740Y-65084286D01*
X122520741Y-65084288D01*
X122520742Y-65084289D01*
X122527271Y-65092935D01*
X122654816Y-65261833D01*
X122654819Y-65261836D01*
X122819233Y-65411720D01*
X122819234Y-65411721D01*
X122819238Y-65411724D01*
X123008399Y-65528847D01*
X123215860Y-65609218D01*
X123434557Y-65650100D01*
X123434559Y-65650100D01*
X123657040Y-65650100D01*
X123657043Y-65650100D01*
X123714727Y-65639316D01*
X123751420Y-65647057D01*
X123758377Y-65652834D01*
X125277889Y-67172345D01*
X125278888Y-67173407D01*
X125320767Y-67220680D01*
X125320770Y-67220682D01*
X125320771Y-67220683D01*
X125372758Y-67256567D01*
X125373935Y-67257433D01*
X125423644Y-67296378D01*
X125439094Y-67303331D01*
X125446814Y-67307685D01*
X125460770Y-67317318D01*
X125476401Y-67323246D01*
X125519807Y-67339708D01*
X125521175Y-67340274D01*
X125578766Y-67366194D01*
X125578767Y-67366194D01*
X125578769Y-67366195D01*
X125595447Y-67369251D01*
X125603983Y-67371630D01*
X125619828Y-67377640D01*
X125682534Y-67385253D01*
X125683940Y-67385467D01*
X125746094Y-67396858D01*
X125809137Y-67393045D01*
X125810617Y-67393000D01*
X129517440Y-67393000D01*
X129552088Y-67407352D01*
X129553854Y-67409213D01*
X129646945Y-67512603D01*
X129646948Y-67512605D01*
X129646950Y-67512607D01*
X129795839Y-67620781D01*
X129963966Y-67695636D01*
X130143981Y-67733900D01*
X130328019Y-67733900D01*
X130508034Y-67695636D01*
X130676161Y-67620781D01*
X130825050Y-67512607D01*
X130861281Y-67472369D01*
X130918146Y-67409213D01*
X130951995Y-67393067D01*
X130954560Y-67393000D01*
X137416273Y-67393000D01*
X137450921Y-67407352D01*
X139062422Y-69018853D01*
X139063421Y-69019915D01*
X139105293Y-69067180D01*
X139105298Y-69067184D01*
X139141485Y-69092162D01*
X139161847Y-69123655D01*
X139153976Y-69160323D01*
X139122483Y-69180685D01*
X139106516Y-69180966D01*
X139007544Y-69166400D01*
X139007539Y-69166400D01*
X138804469Y-69166400D01*
X138804464Y-69166400D01*
X138601955Y-69181221D01*
X138601947Y-69181222D01*
X138469923Y-69210632D01*
X138337547Y-69240120D01*
X138337545Y-69240120D01*
X138337539Y-69240122D01*
X138084539Y-69336887D01*
X137848323Y-69469458D01*
X137848315Y-69469464D01*
X137633924Y-69635009D01*
X137633923Y-69635011D01*
X137445919Y-69830013D01*
X137445908Y-69830026D01*
X137288304Y-70050316D01*
X137288303Y-70050317D01*
X137164444Y-70291224D01*
X137164442Y-70291228D01*
X137076982Y-70547591D01*
X137027781Y-70813964D01*
X137027780Y-70813978D01*
X137017887Y-71084662D01*
X137047514Y-71353918D01*
X137116027Y-71615987D01*
X137221970Y-71865290D01*
X137363078Y-72096505D01*
X137363081Y-72096509D01*
X137363082Y-72096510D01*
X137536355Y-72304720D01*
X137738098Y-72485482D01*
X137964010Y-72634944D01*
X138209276Y-72749920D01*
X138468669Y-72827960D01*
X138736661Y-72867400D01*
X138736662Y-72867400D01*
X138939736Y-72867400D01*
X139142244Y-72852578D01*
X139142246Y-72852577D01*
X139142256Y-72852577D01*
X139406653Y-72793680D01*
X139659658Y-72696914D01*
X139895877Y-72564341D01*
X140039215Y-72453660D01*
X140110275Y-72398790D01*
X140110275Y-72398789D01*
X140110277Y-72398788D01*
X140298286Y-72203781D01*
X140455899Y-71983479D01*
X140579756Y-71742575D01*
X140667218Y-71486205D01*
X140716419Y-71219833D01*
X140726312Y-70949135D01*
X140696686Y-70679882D01*
X140628172Y-70417812D01*
X140522230Y-70168510D01*
X140438194Y-70030812D01*
X140381121Y-69937294D01*
X140381118Y-69937290D01*
X140207845Y-69729080D01*
X140006102Y-69548318D01*
X139780190Y-69398856D01*
X139780188Y-69398855D01*
X139780185Y-69398853D01*
X139639423Y-69332867D01*
X139614142Y-69305166D01*
X139615854Y-69267702D01*
X139643555Y-69242421D01*
X139660221Y-69239500D01*
X148547828Y-69239500D01*
X149503886Y-69239500D01*
X149538534Y-69253852D01*
X149552886Y-69288500D01*
X149538534Y-69323148D01*
X149521390Y-69334267D01*
X149514539Y-69336887D01*
X149278323Y-69469458D01*
X149278315Y-69469464D01*
X149063924Y-69635009D01*
X149063923Y-69635011D01*
X148875919Y-69830013D01*
X148875908Y-69830026D01*
X148718304Y-70050316D01*
X148718303Y-70050317D01*
X148594444Y-70291224D01*
X148594442Y-70291228D01*
X148506982Y-70547591D01*
X148457781Y-70813964D01*
X148457780Y-70813978D01*
X148447887Y-71084662D01*
X148477514Y-71353918D01*
X148546027Y-71615987D01*
X148651970Y-71865290D01*
X148793078Y-72096505D01*
X148793081Y-72096509D01*
X148793082Y-72096510D01*
X148966355Y-72304720D01*
X149168098Y-72485482D01*
X149394010Y-72634944D01*
X149639276Y-72749920D01*
X149898669Y-72827960D01*
X150166661Y-72867400D01*
X150166662Y-72867400D01*
X150369736Y-72867400D01*
X150572244Y-72852578D01*
X150572246Y-72852577D01*
X150572256Y-72852577D01*
X150836653Y-72793680D01*
X151089658Y-72696914D01*
X151325877Y-72564341D01*
X151469215Y-72453660D01*
X151540275Y-72398790D01*
X151540275Y-72398789D01*
X151540277Y-72398788D01*
X151728286Y-72203781D01*
X151885899Y-71983479D01*
X152009756Y-71742575D01*
X152097218Y-71486205D01*
X152146419Y-71219833D01*
X152156312Y-70949135D01*
X152126686Y-70679882D01*
X152058172Y-70417812D01*
X151952230Y-70168510D01*
X151868194Y-70030812D01*
X151811121Y-69937294D01*
X151811118Y-69937290D01*
X151637845Y-69729080D01*
X151436102Y-69548318D01*
X151210190Y-69398856D01*
X151210188Y-69398855D01*
X151210185Y-69398853D01*
X151069423Y-69332867D01*
X151044142Y-69305166D01*
X151045854Y-69267702D01*
X151073555Y-69242421D01*
X151090221Y-69239500D01*
X152445347Y-69239500D01*
X152479995Y-69253852D01*
X156258196Y-73032053D01*
X156259195Y-73033115D01*
X156301069Y-73080382D01*
X156332640Y-73102174D01*
X156353002Y-73133668D01*
X156345131Y-73170335D01*
X156313637Y-73190697D01*
X156304805Y-73191500D01*
X127945500Y-73191500D01*
X127910852Y-73177148D01*
X127896500Y-73142500D01*
X127896500Y-71553148D01*
X129360500Y-71553148D01*
X129372133Y-71611631D01*
X129388188Y-71635658D01*
X129416447Y-71677952D01*
X129443012Y-71695701D01*
X129482769Y-71722267D01*
X129541252Y-71733900D01*
X129541255Y-71733900D01*
X130930745Y-71733900D01*
X130930748Y-71733900D01*
X130989231Y-71722267D01*
X131055552Y-71677952D01*
X131099867Y-71611631D01*
X131111500Y-71553148D01*
X131111500Y-70163652D01*
X131099867Y-70105169D01*
X131073301Y-70065412D01*
X131055552Y-70038847D01*
X131015032Y-70011773D01*
X130989231Y-69994533D01*
X130930748Y-69982900D01*
X129541252Y-69982900D01*
X129482768Y-69994533D01*
X129482769Y-69994533D01*
X129416447Y-70038847D01*
X129372132Y-70105169D01*
X129372133Y-70105169D01*
X129360500Y-70163652D01*
X129360500Y-71553148D01*
X127896500Y-71553148D01*
X127896499Y-68858400D01*
X129355678Y-68858400D01*
X129374915Y-69041429D01*
X129431786Y-69216459D01*
X129523805Y-69375840D01*
X129530619Y-69383408D01*
X129646945Y-69512603D01*
X129646948Y-69512605D01*
X129646950Y-69512607D01*
X129795839Y-69620781D01*
X129963966Y-69695636D01*
X130143981Y-69733900D01*
X130328019Y-69733900D01*
X130508034Y-69695636D01*
X130676161Y-69620781D01*
X130825050Y-69512607D01*
X130827029Y-69510410D01*
X130867893Y-69465025D01*
X130948195Y-69375840D01*
X131040214Y-69216459D01*
X131097085Y-69041429D01*
X131116322Y-68858400D01*
X131097085Y-68675371D01*
X131040214Y-68500341D01*
X130948195Y-68340960D01*
X130888856Y-68275057D01*
X130825054Y-68204196D01*
X130825051Y-68204194D01*
X130823100Y-68202776D01*
X130676161Y-68096019D01*
X130508034Y-68021164D01*
X130508031Y-68021163D01*
X130508027Y-68021162D01*
X130328019Y-67982900D01*
X130143981Y-67982900D01*
X129963972Y-68021162D01*
X129963963Y-68021165D01*
X129795837Y-68096020D01*
X129646948Y-68204194D01*
X129646945Y-68204196D01*
X129523808Y-68340956D01*
X129523802Y-68340964D01*
X129431788Y-68500337D01*
X129431786Y-68500340D01*
X129374915Y-68675370D01*
X129369847Y-68723594D01*
X129355678Y-68858400D01*
X127896499Y-68858400D01*
X127896499Y-68040753D01*
X127898370Y-68027342D01*
X127900401Y-68020207D01*
X127896605Y-67979236D01*
X127896500Y-67976974D01*
X127896500Y-67964155D01*
X127896499Y-67964153D01*
X127895405Y-67958300D01*
X127894140Y-67951537D01*
X127893833Y-67949329D01*
X127890035Y-67908340D01*
X127886725Y-67901693D01*
X127882424Y-67888862D01*
X127881061Y-67881567D01*
X127859398Y-67846581D01*
X127858306Y-67844621D01*
X127839958Y-67807772D01*
X127834474Y-67802772D01*
X127825824Y-67792356D01*
X127821919Y-67786048D01*
X127821916Y-67786045D01*
X127789080Y-67761249D01*
X127787344Y-67759808D01*
X127756933Y-67732084D01*
X127756932Y-67732083D01*
X127750008Y-67729401D01*
X127738186Y-67722816D01*
X127732264Y-67718344D01*
X127732262Y-67718343D01*
X127708825Y-67711675D01*
X127692686Y-67707083D01*
X127690545Y-67706365D01*
X127652173Y-67691500D01*
X127644754Y-67691500D01*
X127631346Y-67689630D01*
X127624207Y-67687599D01*
X127624205Y-67687598D01*
X127583236Y-67691395D01*
X127580974Y-67691500D01*
X122445500Y-67691500D01*
X122410852Y-67677148D01*
X122396500Y-67642500D01*
X122396500Y-65043112D01*
X122410852Y-65008464D01*
X122445500Y-64994112D01*
X122480148Y-65008464D01*
G37*
G04 #@! TD.AperFunction*
G04 #@! TA.AperFunction,Conductor*
G36*
X180381148Y-44706852D02*
G01*
X180395500Y-44741500D01*
X180395500Y-49843246D01*
X180393630Y-49856654D01*
X180391599Y-49863792D01*
X180391599Y-49863793D01*
X180395395Y-49904762D01*
X180395500Y-49907024D01*
X180395500Y-49919844D01*
X180395568Y-49920207D01*
X180397854Y-49932444D01*
X180398166Y-49934684D01*
X180401964Y-49975658D01*
X180401965Y-49975660D01*
X180405275Y-49982308D01*
X180409574Y-49995136D01*
X180410938Y-50002430D01*
X180410938Y-50002432D01*
X180410939Y-50002433D01*
X180432605Y-50037426D01*
X180433696Y-50039384D01*
X180443654Y-50059383D01*
X180452041Y-50076227D01*
X180452044Y-50076231D01*
X180457522Y-50081224D01*
X180466173Y-50091641D01*
X180470080Y-50097951D01*
X180502918Y-50122749D01*
X180504652Y-50124188D01*
X180535067Y-50151916D01*
X180535068Y-50151916D01*
X180535069Y-50151917D01*
X180535379Y-50152037D01*
X180541984Y-50154595D01*
X180553814Y-50161184D01*
X180559736Y-50165656D01*
X180599313Y-50176916D01*
X180601459Y-50177635D01*
X180639827Y-50192500D01*
X180647246Y-50192500D01*
X180660654Y-50194370D01*
X180661960Y-50194741D01*
X180667793Y-50196401D01*
X180667793Y-50196400D01*
X180667794Y-50196401D01*
X180708764Y-50192605D01*
X180711026Y-50192500D01*
X185846500Y-50192500D01*
X185881148Y-50206852D01*
X185895500Y-50241500D01*
X185895500Y-73142500D01*
X185881148Y-73177148D01*
X185846500Y-73191500D01*
X166199394Y-73191500D01*
X166164746Y-73177148D01*
X166150394Y-73142500D01*
X166164746Y-73107852D01*
X166171552Y-73102178D01*
X166203129Y-73080383D01*
X166245016Y-73033100D01*
X166245985Y-73032070D01*
X166722204Y-72555852D01*
X166756853Y-72541500D01*
X169672295Y-72541500D01*
X169673775Y-72541545D01*
X169736817Y-72545358D01*
X169736817Y-72545357D01*
X169736818Y-72545358D01*
X169798971Y-72533967D01*
X169800377Y-72533753D01*
X169863084Y-72526140D01*
X169878930Y-72520129D01*
X169887460Y-72517751D01*
X169904144Y-72514695D01*
X169961752Y-72488766D01*
X169963109Y-72488206D01*
X169981014Y-72481415D01*
X170022142Y-72465818D01*
X170036090Y-72456189D01*
X170043818Y-72451831D01*
X170059269Y-72444878D01*
X170109001Y-72405914D01*
X170110141Y-72405075D01*
X170162141Y-72369183D01*
X170204028Y-72321900D01*
X170204997Y-72320870D01*
X172664634Y-69861234D01*
X172699281Y-69846883D01*
X172733929Y-69861235D01*
X172748281Y-69895883D01*
X172741061Y-69921485D01*
X172715534Y-69963141D01*
X172619126Y-70195890D01*
X172560317Y-70440848D01*
X172540551Y-70691999D01*
X172560317Y-70943151D01*
X172619126Y-71188109D01*
X172630754Y-71216181D01*
X172715534Y-71420859D01*
X172847164Y-71635659D01*
X173010775Y-71827224D01*
X173174386Y-71966961D01*
X173202341Y-71990836D01*
X173417141Y-72122466D01*
X173649889Y-72218873D01*
X173894852Y-72277683D01*
X174146000Y-72297449D01*
X174397148Y-72277683D01*
X174642111Y-72218873D01*
X174874859Y-72122466D01*
X175089659Y-71990836D01*
X175281224Y-71827224D01*
X175444836Y-71635659D01*
X175576466Y-71420859D01*
X175672873Y-71188111D01*
X175731683Y-70943148D01*
X175751449Y-70692000D01*
X175731683Y-70440852D01*
X175672873Y-70195889D01*
X175576466Y-69963141D01*
X175444836Y-69748341D01*
X175348043Y-69635011D01*
X175281224Y-69556775D01*
X175089659Y-69393164D01*
X175073735Y-69383406D01*
X174874859Y-69261534D01*
X174693650Y-69186475D01*
X174642107Y-69165125D01*
X174630917Y-69162439D01*
X174600576Y-69140396D01*
X174594709Y-69103355D01*
X174616752Y-69073014D01*
X174642355Y-69065793D01*
X180465640Y-69065793D01*
X180500288Y-69080145D01*
X180971548Y-69551404D01*
X180985900Y-69586052D01*
X180985900Y-70263663D01*
X180971548Y-70298311D01*
X180969911Y-70299874D01*
X180822193Y-70434537D01*
X180822190Y-70434540D01*
X180688117Y-70612083D01*
X180688114Y-70612087D01*
X180588947Y-70811240D01*
X180588944Y-70811247D01*
X180528059Y-71025235D01*
X180528058Y-71025241D01*
X180507531Y-71246773D01*
X180528058Y-71468306D01*
X180528059Y-71468312D01*
X180588944Y-71682300D01*
X180588947Y-71682307D01*
X180688114Y-71881460D01*
X180688117Y-71881464D01*
X180822190Y-72059007D01*
X180822193Y-72059010D01*
X180986607Y-72208894D01*
X180986608Y-72208895D01*
X180986612Y-72208898D01*
X181175773Y-72326021D01*
X181383234Y-72406392D01*
X181601931Y-72447274D01*
X181601933Y-72447274D01*
X181824415Y-72447274D01*
X181824417Y-72447274D01*
X182043114Y-72406392D01*
X182250575Y-72326021D01*
X182439736Y-72208898D01*
X182604155Y-72059010D01*
X182738232Y-71881463D01*
X182837403Y-71682302D01*
X182898289Y-71468310D01*
X182918817Y-71246774D01*
X182898289Y-71025238D01*
X182837403Y-70811246D01*
X182738232Y-70612085D01*
X182651329Y-70497007D01*
X182604157Y-70434540D01*
X182604154Y-70434537D01*
X182439739Y-70284652D01*
X182410104Y-70266302D01*
X182388201Y-70235860D01*
X182386900Y-70224642D01*
X182386900Y-69297515D01*
X182386945Y-69296035D01*
X182388658Y-69267702D01*
X182390758Y-69232994D01*
X182379367Y-69170840D01*
X182379153Y-69169434D01*
X182371540Y-69106728D01*
X182365530Y-69090883D01*
X182363151Y-69082347D01*
X182360095Y-69065669D01*
X182360094Y-69065666D01*
X182334174Y-69008075D01*
X182333608Y-69006707D01*
X182311218Y-68947671D01*
X182311218Y-68947670D01*
X182301585Y-68933714D01*
X182297231Y-68925994D01*
X182290278Y-68910544D01*
X182251333Y-68860835D01*
X182250467Y-68859658D01*
X182214583Y-68807671D01*
X182214582Y-68807670D01*
X182214580Y-68807667D01*
X182167316Y-68765796D01*
X182166238Y-68764781D01*
X182125051Y-68723594D01*
X182110700Y-68688946D01*
X182110700Y-67804766D01*
X182125052Y-67770118D01*
X182159700Y-67755766D01*
X182194346Y-67770117D01*
X183057329Y-68633099D01*
X183987748Y-69563518D01*
X184002100Y-69598166D01*
X184002100Y-70687900D01*
X183987748Y-70722548D01*
X183953100Y-70736900D01*
X183607852Y-70736900D01*
X183549369Y-70748532D01*
X183549369Y-70748533D01*
X183483047Y-70792847D01*
X183438732Y-70859168D01*
X183438733Y-70859169D01*
X183427100Y-70917652D01*
X183427100Y-72307148D01*
X183438733Y-72365631D01*
X183456482Y-72392195D01*
X183483047Y-72431952D01*
X183509612Y-72449701D01*
X183549369Y-72476267D01*
X183607852Y-72487900D01*
X183607855Y-72487900D01*
X184997345Y-72487900D01*
X184997348Y-72487900D01*
X185055831Y-72476267D01*
X185122152Y-72431952D01*
X185166467Y-72365631D01*
X185178100Y-72307148D01*
X185178100Y-70917652D01*
X185166467Y-70859169D01*
X185136271Y-70813978D01*
X185122152Y-70792847D01*
X185082395Y-70766282D01*
X185055831Y-70748533D01*
X184997348Y-70736900D01*
X184997345Y-70736900D01*
X184652100Y-70736900D01*
X184617452Y-70722548D01*
X184603100Y-70687900D01*
X184603100Y-69510410D01*
X184604775Y-69500141D01*
X184604745Y-69500137D01*
X184605371Y-69495639D01*
X184605373Y-69495635D01*
X184603126Y-69447024D01*
X184603100Y-69445893D01*
X184603100Y-69425557D01*
X184603100Y-69425556D01*
X184602126Y-69420353D01*
X184601736Y-69416984D01*
X184600185Y-69383408D01*
X184596845Y-69375843D01*
X184593872Y-69369110D01*
X184590532Y-69358327D01*
X184587661Y-69342967D01*
X184569967Y-69314389D01*
X184568383Y-69311384D01*
X184565637Y-69305166D01*
X184554806Y-69280635D01*
X184554805Y-69280634D01*
X184554805Y-69280633D01*
X184543758Y-69269586D01*
X184536746Y-69260734D01*
X184528520Y-69247450D01*
X184528519Y-69247448D01*
X184528517Y-69247446D01*
X184528516Y-69247445D01*
X184501693Y-69227190D01*
X184499130Y-69224959D01*
X183526087Y-68251916D01*
X182534650Y-67260478D01*
X182520300Y-67225834D01*
X182520300Y-60621021D01*
X182534651Y-60586376D01*
X182555492Y-60574010D01*
X182582253Y-60566153D01*
X182703328Y-60488343D01*
X182797577Y-60379573D01*
X182857365Y-60248657D01*
X182857365Y-60248655D01*
X182857366Y-60248654D01*
X182877847Y-60106202D01*
X182877847Y-60106200D01*
X182863135Y-60003876D01*
X182872409Y-59967539D01*
X182904662Y-59948402D01*
X182941000Y-59957676D01*
X182946284Y-59962255D01*
X183088636Y-60104607D01*
X183102988Y-60139255D01*
X183102988Y-60928079D01*
X183101313Y-60938350D01*
X183101343Y-60938355D01*
X183100716Y-60942848D01*
X183102963Y-60991463D01*
X183102989Y-60992594D01*
X183102989Y-61012932D01*
X183103960Y-61018127D01*
X183104351Y-61021501D01*
X183105904Y-61055079D01*
X183105904Y-61055083D01*
X183112217Y-61069380D01*
X183115556Y-61080164D01*
X183118216Y-61094389D01*
X183118428Y-61095522D01*
X183136120Y-61124097D01*
X183137701Y-61127095D01*
X183151282Y-61157853D01*
X183151282Y-61157854D01*
X183162331Y-61168902D01*
X183169341Y-61177751D01*
X183177020Y-61190153D01*
X183177570Y-61191041D01*
X183204394Y-61211298D01*
X183206957Y-61213528D01*
X183211600Y-61218171D01*
X183217681Y-61226621D01*
X183217705Y-61226604D01*
X183220440Y-61230225D01*
X183220442Y-61230228D01*
X183256426Y-61263032D01*
X183257199Y-61263770D01*
X183264410Y-61270981D01*
X183271599Y-61278171D01*
X183271602Y-61278173D01*
X183271603Y-61278174D01*
X183275962Y-61281160D01*
X183278621Y-61283267D01*
X183299483Y-61302284D01*
X183303467Y-61305916D01*
X183318046Y-61311563D01*
X183328030Y-61316827D01*
X183340919Y-61325656D01*
X183365222Y-61331372D01*
X183388651Y-61344422D01*
X183967550Y-61923321D01*
X183981902Y-61957969D01*
X183981403Y-61964942D01*
X183974752Y-62011198D01*
X183974753Y-62011202D01*
X183995233Y-62153654D01*
X184024256Y-62217204D01*
X184055023Y-62284573D01*
X184055024Y-62284574D01*
X184055025Y-62284576D01*
X184082658Y-62316466D01*
X184149272Y-62393343D01*
X184270347Y-62471153D01*
X184342712Y-62492401D01*
X184408434Y-62511699D01*
X184408437Y-62511699D01*
X184408439Y-62511700D01*
X184408440Y-62511700D01*
X184552360Y-62511700D01*
X184552361Y-62511700D01*
X184552363Y-62511699D01*
X184552365Y-62511699D01*
X184581831Y-62503047D01*
X184690453Y-62471153D01*
X184811528Y-62393343D01*
X184905777Y-62284573D01*
X184965565Y-62153657D01*
X184965565Y-62153655D01*
X184965566Y-62153654D01*
X184986047Y-62011202D01*
X184986047Y-62011197D01*
X184965566Y-61868745D01*
X184953278Y-61841838D01*
X184905777Y-61737827D01*
X184902064Y-61733542D01*
X184811528Y-61629057D01*
X184761629Y-61596989D01*
X184690453Y-61551247D01*
X184690450Y-61551246D01*
X184552365Y-61510700D01*
X184552361Y-61510700D01*
X184425167Y-61510700D01*
X184390519Y-61496348D01*
X184040153Y-61145982D01*
X184025801Y-61111334D01*
X184040153Y-61076686D01*
X184074801Y-61062334D01*
X184084987Y-61063404D01*
X184235981Y-61095500D01*
X184420019Y-61095500D01*
X184600034Y-61057236D01*
X184768161Y-60982381D01*
X184917050Y-60874207D01*
X185040195Y-60737440D01*
X185132214Y-60578059D01*
X185189085Y-60403029D01*
X185208322Y-60220000D01*
X185189085Y-60036971D01*
X185132214Y-59861941D01*
X185040195Y-59702560D01*
X184994682Y-59652012D01*
X184917054Y-59565796D01*
X184917051Y-59565794D01*
X184916106Y-59565107D01*
X184768161Y-59457619D01*
X184600034Y-59382764D01*
X184600031Y-59382763D01*
X184600027Y-59382762D01*
X184420019Y-59344500D01*
X184235981Y-59344500D01*
X184055972Y-59382762D01*
X184055963Y-59382765D01*
X184000767Y-59407340D01*
X183920571Y-59443046D01*
X183887837Y-59457620D01*
X183738948Y-59565794D01*
X183738945Y-59565796D01*
X183614087Y-59704468D01*
X183613341Y-59703796D01*
X183584181Y-59721657D01*
X183547716Y-59712895D01*
X183541878Y-59707907D01*
X182053971Y-58220000D01*
X183447678Y-58220000D01*
X183466915Y-58403029D01*
X183523786Y-58578059D01*
X183615805Y-58737440D01*
X183615808Y-58737443D01*
X183738945Y-58874203D01*
X183738948Y-58874205D01*
X183738950Y-58874207D01*
X183887839Y-58982381D01*
X184055966Y-59057236D01*
X184235981Y-59095500D01*
X184420019Y-59095500D01*
X184600034Y-59057236D01*
X184768161Y-58982381D01*
X184917050Y-58874207D01*
X185040195Y-58737440D01*
X185132214Y-58578059D01*
X185189085Y-58403029D01*
X185208322Y-58220000D01*
X185189085Y-58036971D01*
X185132214Y-57861941D01*
X185040195Y-57702560D01*
X184988809Y-57645490D01*
X184917054Y-57565796D01*
X184917051Y-57565794D01*
X184897397Y-57551514D01*
X184768161Y-57457619D01*
X184600034Y-57382764D01*
X184600031Y-57382763D01*
X184600027Y-57382762D01*
X184420019Y-57344500D01*
X184235981Y-57344500D01*
X184055972Y-57382762D01*
X184055963Y-57382765D01*
X183887837Y-57457620D01*
X183738948Y-57565794D01*
X183738945Y-57565796D01*
X183615808Y-57702556D01*
X183615802Y-57702564D01*
X183523788Y-57861937D01*
X183523786Y-57861940D01*
X183466915Y-58036970D01*
X183450757Y-58190709D01*
X183447678Y-58220000D01*
X182053971Y-58220000D01*
X182024680Y-58190709D01*
X182018599Y-58182258D01*
X182018575Y-58182277D01*
X182015840Y-58178655D01*
X182015839Y-58178653D01*
X182012709Y-58175800D01*
X182007917Y-58171431D01*
X181979854Y-58145848D01*
X181979079Y-58145108D01*
X181971869Y-58137898D01*
X181964681Y-58130709D01*
X181964675Y-58130704D01*
X181961520Y-58128543D01*
X181960318Y-58127720D01*
X181957659Y-58125614D01*
X181932814Y-58102965D01*
X181932812Y-58102964D01*
X181918236Y-58097317D01*
X181908247Y-58092051D01*
X181895363Y-58083225D01*
X181895357Y-58083223D01*
X181862648Y-58075529D01*
X181859404Y-58074525D01*
X181836987Y-58065841D01*
X181828054Y-58062381D01*
X181828053Y-58062381D01*
X181812427Y-58062381D01*
X181801208Y-58061079D01*
X181786000Y-58057502D01*
X181752708Y-58062146D01*
X181749322Y-58062381D01*
X178734139Y-58062381D01*
X178699491Y-58048029D01*
X178685139Y-58013381D01*
X178685638Y-58006406D01*
X178685955Y-58004207D01*
X178686847Y-57998000D01*
X178685684Y-57989911D01*
X178666366Y-57855545D01*
X178661897Y-57845759D01*
X178606577Y-57724627D01*
X178604568Y-57722309D01*
X178512328Y-57615857D01*
X178511209Y-57615138D01*
X178391253Y-57538047D01*
X178391250Y-57538046D01*
X178253165Y-57497500D01*
X178253161Y-57497500D01*
X178109239Y-57497500D01*
X178109234Y-57497500D01*
X177971149Y-57538046D01*
X177850071Y-57615857D01*
X177755825Y-57724623D01*
X177755824Y-57724625D01*
X177696033Y-57855545D01*
X177675553Y-57997997D01*
X177675553Y-57998002D01*
X177696033Y-58140454D01*
X177728135Y-58210746D01*
X177755823Y-58271373D01*
X177755824Y-58271374D01*
X177755825Y-58271376D01*
X177850071Y-58380142D01*
X177850072Y-58380143D01*
X177914702Y-58421678D01*
X177936091Y-58452484D01*
X177929433Y-58489391D01*
X177898627Y-58510780D01*
X177888211Y-58511900D01*
X177021189Y-58511900D01*
X176986541Y-58497548D01*
X175798852Y-57309859D01*
X175784500Y-57275211D01*
X175784500Y-57102358D01*
X175796468Y-57070270D01*
X175809377Y-57055373D01*
X175869165Y-56924457D01*
X175869165Y-56924455D01*
X175869166Y-56924454D01*
X175889647Y-56782002D01*
X175889647Y-56781997D01*
X175869166Y-56639545D01*
X175856067Y-56610862D01*
X175809377Y-56508627D01*
X175799249Y-56496939D01*
X175715128Y-56399857D01*
X175707035Y-56394656D01*
X175594053Y-56322047D01*
X175594050Y-56322046D01*
X175455965Y-56281500D01*
X175455961Y-56281500D01*
X175312039Y-56281500D01*
X175312034Y-56281500D01*
X175173949Y-56322046D01*
X175052871Y-56399857D01*
X174996782Y-56464588D01*
X174963246Y-56481375D01*
X174959750Y-56481500D01*
X173536014Y-56481500D01*
X173525739Y-56479823D01*
X173525735Y-56479853D01*
X173521240Y-56479226D01*
X173521236Y-56479226D01*
X173495056Y-56480436D01*
X173472604Y-56481474D01*
X173471473Y-56481500D01*
X173451156Y-56481500D01*
X173451145Y-56481501D01*
X173445960Y-56482469D01*
X173442593Y-56482859D01*
X173409009Y-56484414D01*
X173409008Y-56484414D01*
X173394708Y-56490728D01*
X173383924Y-56494067D01*
X173368566Y-56496938D01*
X173339996Y-56514628D01*
X173336993Y-56516211D01*
X173306239Y-56529791D01*
X173306234Y-56529795D01*
X173295185Y-56540843D01*
X173286338Y-56547850D01*
X173273048Y-56556080D01*
X173252790Y-56582904D01*
X173250561Y-56585466D01*
X170447880Y-59388148D01*
X170413232Y-59402500D01*
X170286034Y-59402500D01*
X170147949Y-59443046D01*
X170147947Y-59443046D01*
X170147947Y-59443047D01*
X170125271Y-59457620D01*
X170026871Y-59520857D01*
X169957132Y-59601341D01*
X169923596Y-59618128D01*
X169888012Y-59606285D01*
X169871225Y-59572749D01*
X169871100Y-59569253D01*
X169871100Y-58175802D01*
X170258753Y-58175802D01*
X170279233Y-58318254D01*
X170307497Y-58380142D01*
X170339023Y-58449173D01*
X170339024Y-58449174D01*
X170339025Y-58449176D01*
X170426375Y-58549983D01*
X170433272Y-58557943D01*
X170554347Y-58635753D01*
X170631185Y-58658314D01*
X170692434Y-58676299D01*
X170692437Y-58676299D01*
X170692439Y-58676300D01*
X170692440Y-58676300D01*
X170836360Y-58676300D01*
X170836361Y-58676300D01*
X170836363Y-58676299D01*
X170836365Y-58676299D01*
X170859195Y-58669595D01*
X170974453Y-58635753D01*
X171095528Y-58557943D01*
X171189777Y-58449173D01*
X171249565Y-58318257D01*
X171249565Y-58318255D01*
X171249566Y-58318254D01*
X171270047Y-58175801D01*
X171270047Y-58175800D01*
X171265688Y-58145487D01*
X171263395Y-58129541D01*
X171272669Y-58093206D01*
X171277241Y-58087928D01*
X174455918Y-54909252D01*
X174490567Y-54894900D01*
X175293150Y-54894900D01*
X175327798Y-54909252D01*
X175330182Y-54911812D01*
X175386271Y-54976542D01*
X175386272Y-54976543D01*
X175507347Y-55054353D01*
X175584185Y-55076914D01*
X175645434Y-55094899D01*
X175645437Y-55094899D01*
X175645439Y-55094900D01*
X175645440Y-55094900D01*
X175789360Y-55094900D01*
X175789361Y-55094900D01*
X175789363Y-55094899D01*
X175789365Y-55094899D01*
X175813218Y-55087895D01*
X175927453Y-55054353D01*
X176048528Y-54976543D01*
X176142777Y-54867773D01*
X176202565Y-54736857D01*
X176202565Y-54736855D01*
X176202566Y-54736854D01*
X176223047Y-54594402D01*
X176223047Y-54594397D01*
X176205737Y-54474000D01*
X183170316Y-54474000D01*
X183220158Y-54649177D01*
X183317882Y-54845434D01*
X183317885Y-54845438D01*
X183450004Y-55020393D01*
X183450007Y-55020396D01*
X183612024Y-55168095D01*
X183798436Y-55283516D01*
X183945512Y-55340494D01*
X183972636Y-55366393D01*
X183973502Y-55403886D01*
X183947741Y-55430949D01*
X183887837Y-55457620D01*
X183738948Y-55565794D01*
X183738945Y-55565796D01*
X183615808Y-55702556D01*
X183615802Y-55702564D01*
X183523788Y-55861937D01*
X183523786Y-55861940D01*
X183466915Y-56036970D01*
X183450228Y-56195742D01*
X183447678Y-56220000D01*
X183466915Y-56403029D01*
X183523786Y-56578059D01*
X183615805Y-56737440D01*
X183615808Y-56737443D01*
X183738945Y-56874203D01*
X183738948Y-56874205D01*
X183738950Y-56874207D01*
X183887839Y-56982381D01*
X184055966Y-57057236D01*
X184235981Y-57095500D01*
X184420019Y-57095500D01*
X184600034Y-57057236D01*
X184768161Y-56982381D01*
X184917050Y-56874207D01*
X185040195Y-56737440D01*
X185132214Y-56578059D01*
X185189085Y-56403029D01*
X185208322Y-56220000D01*
X185189085Y-56036971D01*
X185132214Y-55861941D01*
X185040195Y-55702560D01*
X185011285Y-55670453D01*
X184917054Y-55565796D01*
X184917051Y-55565794D01*
X184892610Y-55548036D01*
X184768161Y-55457619D01*
X184708257Y-55430948D01*
X184682443Y-55403745D01*
X184683424Y-55366255D01*
X184710487Y-55340494D01*
X184857563Y-55283516D01*
X185043975Y-55168095D01*
X185205992Y-55020396D01*
X185205995Y-55020393D01*
X185338114Y-54845438D01*
X185338117Y-54845434D01*
X185435841Y-54649177D01*
X185485683Y-54474000D01*
X184727472Y-54474000D01*
X184692824Y-54459648D01*
X184678472Y-54425000D01*
X184683813Y-54402754D01*
X184702565Y-54365951D01*
X184713165Y-54345148D01*
X184732986Y-54220000D01*
X184713165Y-54094852D01*
X184683812Y-54037245D01*
X184680870Y-53999858D01*
X184705226Y-53971341D01*
X184727472Y-53966000D01*
X185485683Y-53966000D01*
X185485683Y-53965999D01*
X185435841Y-53790822D01*
X185338117Y-53594565D01*
X185338114Y-53594561D01*
X185205995Y-53419606D01*
X185205992Y-53419603D01*
X185043975Y-53271904D01*
X184905495Y-53186161D01*
X184883592Y-53155719D01*
X184889629Y-53118705D01*
X184920071Y-53096802D01*
X184931290Y-53095500D01*
X185022745Y-53095500D01*
X185022748Y-53095500D01*
X185081231Y-53083867D01*
X185147552Y-53039552D01*
X185191867Y-52973231D01*
X185203500Y-52914748D01*
X185203500Y-51525252D01*
X185191867Y-51466769D01*
X185165301Y-51427012D01*
X185147552Y-51400447D01*
X185099483Y-51368329D01*
X185081231Y-51356133D01*
X185022748Y-51344500D01*
X183633252Y-51344500D01*
X183580224Y-51355048D01*
X183574769Y-51356133D01*
X183508447Y-51400447D01*
X183464132Y-51466769D01*
X183464133Y-51466769D01*
X183452500Y-51525252D01*
X183452500Y-52914748D01*
X183464133Y-52973231D01*
X183477321Y-52992968D01*
X183508447Y-53039552D01*
X183532399Y-53055556D01*
X183574769Y-53083867D01*
X183633252Y-53095500D01*
X183633255Y-53095500D01*
X183724710Y-53095500D01*
X183759358Y-53109852D01*
X183773710Y-53144500D01*
X183759358Y-53179148D01*
X183750505Y-53186161D01*
X183612024Y-53271904D01*
X183450007Y-53419603D01*
X183450004Y-53419606D01*
X183317885Y-53594561D01*
X183317882Y-53594565D01*
X183220158Y-53790822D01*
X183170316Y-53965999D01*
X183170317Y-53966000D01*
X183928528Y-53966000D01*
X183963176Y-53980352D01*
X183977528Y-54015000D01*
X183972187Y-54037246D01*
X183942835Y-54094850D01*
X183923014Y-54220000D01*
X183942835Y-54345149D01*
X183972187Y-54402754D01*
X183975130Y-54440142D01*
X183950774Y-54468659D01*
X183928528Y-54474000D01*
X183170316Y-54474000D01*
X176205737Y-54474000D01*
X176202566Y-54451945D01*
X176189310Y-54422919D01*
X176142777Y-54321027D01*
X176132649Y-54309339D01*
X176048528Y-54212257D01*
X176044103Y-54209413D01*
X175927453Y-54134447D01*
X175927290Y-54134399D01*
X175789365Y-54093900D01*
X175789361Y-54093900D01*
X175645439Y-54093900D01*
X175645434Y-54093900D01*
X175507349Y-54134446D01*
X175507347Y-54134446D01*
X175507347Y-54134447D01*
X175492246Y-54144152D01*
X175386271Y-54212257D01*
X175330182Y-54276988D01*
X175296646Y-54293775D01*
X175293150Y-54293900D01*
X174402810Y-54293900D01*
X174392538Y-54292224D01*
X174392534Y-54292254D01*
X174388039Y-54291627D01*
X174388035Y-54291627D01*
X174361892Y-54292835D01*
X174339424Y-54293874D01*
X174338293Y-54293900D01*
X174317956Y-54293900D01*
X174312755Y-54294871D01*
X174309386Y-54295261D01*
X174275808Y-54296815D01*
X174261505Y-54303129D01*
X174250724Y-54306467D01*
X174235370Y-54309338D01*
X174235365Y-54309339D01*
X174206792Y-54327030D01*
X174203788Y-54328614D01*
X174178003Y-54340000D01*
X174173034Y-54342194D01*
X174173032Y-54342195D01*
X174173033Y-54342195D01*
X174161981Y-54353246D01*
X174153133Y-54360254D01*
X174139847Y-54368481D01*
X174119593Y-54395300D01*
X174117364Y-54397862D01*
X170854280Y-57660948D01*
X170819632Y-57675300D01*
X170692434Y-57675300D01*
X170554349Y-57715846D01*
X170554347Y-57715846D01*
X170554347Y-57715847D01*
X170540688Y-57724625D01*
X170433271Y-57793657D01*
X170339025Y-57902423D01*
X170339024Y-57902425D01*
X170279233Y-58033345D01*
X170258753Y-58175797D01*
X170258753Y-58175802D01*
X169871100Y-58175802D01*
X169871100Y-54562166D01*
X169885452Y-54527518D01*
X170075324Y-54337646D01*
X170275020Y-54137949D01*
X170309667Y-54123598D01*
X170344315Y-54137950D01*
X170358667Y-54172598D01*
X170358431Y-54177401D01*
X170342417Y-54339999D01*
X170342417Y-54340000D01*
X170362700Y-54545934D01*
X170362700Y-54545935D01*
X170370405Y-54571334D01*
X170422768Y-54743954D01*
X170520315Y-54926450D01*
X170651590Y-55086410D01*
X170811550Y-55217685D01*
X170994046Y-55315232D01*
X171192066Y-55375300D01*
X171331191Y-55389002D01*
X171346391Y-55390500D01*
X171346392Y-55390500D01*
X171449609Y-55390500D01*
X171463446Y-55389137D01*
X171603934Y-55375300D01*
X171801954Y-55315232D01*
X171984450Y-55217685D01*
X172144410Y-55086410D01*
X172275685Y-54926450D01*
X172373232Y-54743954D01*
X172433300Y-54545934D01*
X172453583Y-54340000D01*
X172433300Y-54134066D01*
X172373232Y-53936046D01*
X172275685Y-53753550D01*
X172144410Y-53593590D01*
X171984450Y-53462315D01*
X171825524Y-53377366D01*
X171801956Y-53364769D01*
X171801955Y-53364768D01*
X171801954Y-53364768D01*
X171603934Y-53304700D01*
X171560591Y-53300431D01*
X171449609Y-53289500D01*
X171449608Y-53289500D01*
X171346392Y-53289500D01*
X171346391Y-53289500D01*
X171235401Y-53300431D01*
X171199513Y-53289544D01*
X171181834Y-53256470D01*
X171192721Y-53220582D01*
X171195940Y-53217029D01*
X171731543Y-52681426D01*
X171766190Y-52667075D01*
X171782369Y-52669824D01*
X171833301Y-52687646D01*
X171863734Y-52690500D01*
X171863744Y-52690500D01*
X173932256Y-52690500D01*
X173932266Y-52690500D01*
X173962699Y-52687646D01*
X174090882Y-52642793D01*
X174115902Y-52624328D01*
X174200150Y-52562150D01*
X174280791Y-52452885D01*
X174280791Y-52452884D01*
X174280793Y-52452882D01*
X174325646Y-52324699D01*
X174328500Y-52294266D01*
X174328500Y-49885734D01*
X174325646Y-49855301D01*
X174323945Y-49850441D01*
X174280795Y-49727123D01*
X174280791Y-49727114D01*
X174200150Y-49617849D01*
X174090885Y-49537208D01*
X174090876Y-49537204D01*
X173962698Y-49492353D01*
X173932275Y-49489500D01*
X173932266Y-49489500D01*
X171863734Y-49489500D01*
X171863724Y-49489500D01*
X171833301Y-49492353D01*
X171833300Y-49492353D01*
X171705123Y-49537204D01*
X171705114Y-49537208D01*
X171595849Y-49617849D01*
X171515208Y-49727114D01*
X171515204Y-49727123D01*
X171470353Y-49855300D01*
X171470353Y-49855301D01*
X171467500Y-49885724D01*
X171467500Y-52075231D01*
X171453148Y-52109879D01*
X169398425Y-54164602D01*
X169389974Y-54170684D01*
X169389993Y-54170708D01*
X169386368Y-54173445D01*
X169353577Y-54209413D01*
X169352797Y-54210230D01*
X169338433Y-54224594D01*
X169338423Y-54224606D01*
X169335432Y-54228970D01*
X169333328Y-54231626D01*
X169310685Y-54256465D01*
X169310683Y-54256468D01*
X169305036Y-54271044D01*
X169299772Y-54281030D01*
X169290943Y-54293919D01*
X169290943Y-54293920D01*
X169283247Y-54326636D01*
X169282243Y-54329879D01*
X169270100Y-54361228D01*
X169270100Y-54376853D01*
X169268798Y-54388072D01*
X169265221Y-54403276D01*
X169265221Y-54403281D01*
X169267960Y-54422919D01*
X169269865Y-54436569D01*
X169270100Y-54439957D01*
X169270100Y-59084934D01*
X169255748Y-59119582D01*
X169221100Y-59133934D01*
X169194609Y-59126156D01*
X169181374Y-59117651D01*
X169094853Y-59062047D01*
X169094850Y-59062046D01*
X168991895Y-59031815D01*
X168962694Y-59008283D01*
X168956700Y-58984800D01*
X168956700Y-52289211D01*
X168958375Y-52278942D01*
X168958345Y-52278938D01*
X168958971Y-52274440D01*
X168958973Y-52274436D01*
X168956726Y-52225825D01*
X168956700Y-52224694D01*
X168956700Y-52204357D01*
X168956700Y-52204356D01*
X168955726Y-52199153D01*
X168955336Y-52195784D01*
X168954968Y-52187822D01*
X168953785Y-52162209D01*
X168951822Y-52157763D01*
X168947472Y-52147911D01*
X168944131Y-52137121D01*
X168941261Y-52121767D01*
X168941260Y-52121764D01*
X168928393Y-52100985D01*
X168923564Y-52093185D01*
X168921986Y-52090191D01*
X168908406Y-52059435D01*
X168908404Y-52059433D01*
X168908402Y-52059430D01*
X168897358Y-52048386D01*
X168890346Y-52039534D01*
X168882120Y-52026250D01*
X168882119Y-52026248D01*
X168882117Y-52026246D01*
X168882116Y-52026245D01*
X168855293Y-52005990D01*
X168852730Y-52003759D01*
X168121599Y-51272628D01*
X168115518Y-51264177D01*
X168115494Y-51264196D01*
X168112759Y-51260574D01*
X168112758Y-51260572D01*
X168076773Y-51227767D01*
X168075998Y-51227027D01*
X168068788Y-51219817D01*
X168061600Y-51212628D01*
X168061594Y-51212623D01*
X168057755Y-51209994D01*
X168057237Y-51209639D01*
X168054578Y-51207533D01*
X168029733Y-51184884D01*
X168029731Y-51184883D01*
X168015155Y-51179236D01*
X168005166Y-51173970D01*
X167992282Y-51165144D01*
X167992276Y-51165142D01*
X167959567Y-51157448D01*
X167956323Y-51156444D01*
X167933906Y-51147760D01*
X167924973Y-51144300D01*
X167924972Y-51144300D01*
X167909346Y-51144300D01*
X167898127Y-51142998D01*
X167882919Y-51139421D01*
X167849627Y-51144065D01*
X167846241Y-51144300D01*
X164190900Y-51144300D01*
X164156252Y-51129948D01*
X164141900Y-51095300D01*
X164141900Y-50886232D01*
X164141798Y-50885000D01*
X164127226Y-50709140D01*
X164069029Y-50479325D01*
X163982054Y-50281044D01*
X163973800Y-50262226D01*
X163973793Y-50262214D01*
X163844136Y-50063758D01*
X163683572Y-49889340D01*
X163496495Y-49743732D01*
X163496494Y-49743731D01*
X163496491Y-49743729D01*
X163496486Y-49743726D01*
X163496481Y-49743723D01*
X163288002Y-49630899D01*
X163287996Y-49630896D01*
X163287995Y-49630896D01*
X163217730Y-49606774D01*
X163063772Y-49553920D01*
X163005312Y-49544165D01*
X162829935Y-49514900D01*
X162592865Y-49514900D01*
X162452563Y-49538311D01*
X162359027Y-49553920D01*
X162134807Y-49630895D01*
X162134797Y-49630899D01*
X161926318Y-49743723D01*
X161926304Y-49743732D01*
X161739227Y-49889340D01*
X161739226Y-49889340D01*
X161578663Y-50063758D01*
X161449006Y-50262214D01*
X161448999Y-50262226D01*
X161353772Y-50479322D01*
X161295956Y-50707633D01*
X161295574Y-50709140D01*
X161280900Y-50886229D01*
X161280900Y-51344571D01*
X161295574Y-51521660D01*
X161353056Y-51748652D01*
X161353772Y-51751477D01*
X161448999Y-51968573D01*
X161449006Y-51968585D01*
X161578663Y-52167041D01*
X161648177Y-52242553D01*
X161739228Y-52341460D01*
X161926309Y-52487071D01*
X161926316Y-52487075D01*
X161926318Y-52487076D01*
X162134797Y-52599900D01*
X162134799Y-52599900D01*
X162134805Y-52599904D01*
X162359029Y-52676880D01*
X162592865Y-52715900D01*
X162592868Y-52715900D01*
X162829932Y-52715900D01*
X162829935Y-52715900D01*
X163063771Y-52676880D01*
X163287995Y-52599904D01*
X163496491Y-52487071D01*
X163683572Y-52341460D01*
X163844135Y-52167043D01*
X163973799Y-51968576D01*
X164058877Y-51774617D01*
X164085939Y-51748652D01*
X164103751Y-51745300D01*
X166486531Y-51745300D01*
X166521179Y-51759652D01*
X166535531Y-51794300D01*
X166523563Y-51826388D01*
X166452825Y-51908023D01*
X166452824Y-51908025D01*
X166393033Y-52038945D01*
X166377517Y-52146873D01*
X166358381Y-52179126D01*
X166329016Y-52188900D01*
X166247434Y-52188900D01*
X166109349Y-52229446D01*
X166109347Y-52229446D01*
X166109347Y-52229447D01*
X166088954Y-52242553D01*
X165988271Y-52307257D01*
X165894025Y-52416023D01*
X165894024Y-52416025D01*
X165834233Y-52546945D01*
X165813753Y-52689397D01*
X165813753Y-52689402D01*
X165834233Y-52831854D01*
X165848930Y-52864035D01*
X165894023Y-52962773D01*
X165894024Y-52962774D01*
X165894025Y-52962776D01*
X165968723Y-53048982D01*
X165988272Y-53071543D01*
X165996391Y-53076761D01*
X166017780Y-53107565D01*
X166018900Y-53117982D01*
X166018900Y-64354451D01*
X166006932Y-64386539D01*
X165966766Y-64432894D01*
X165966765Y-64432894D01*
X165906975Y-64563813D01*
X165886495Y-64706265D01*
X165886495Y-64706270D01*
X165906975Y-64848722D01*
X165933848Y-64907563D01*
X165966765Y-64979641D01*
X165966766Y-64979642D01*
X165966767Y-64979644D01*
X166055230Y-65081736D01*
X166061014Y-65088411D01*
X166162837Y-65153848D01*
X166184225Y-65184653D01*
X166180917Y-65215424D01*
X166154922Y-65272344D01*
X166134442Y-65414797D01*
X166134442Y-65414802D01*
X166154922Y-65557254D01*
X166178654Y-65609218D01*
X166214712Y-65688173D01*
X166214713Y-65688174D01*
X166214714Y-65688176D01*
X166299954Y-65786548D01*
X166308961Y-65796943D01*
X166430036Y-65874753D01*
X166497786Y-65894646D01*
X166568123Y-65915299D01*
X166568126Y-65915299D01*
X166568128Y-65915300D01*
X166568129Y-65915300D01*
X166656504Y-65915300D01*
X166691152Y-65929652D01*
X166705504Y-65964300D01*
X166704467Y-65971489D01*
X166704922Y-65971555D01*
X166683942Y-66117478D01*
X166683942Y-66117483D01*
X166704422Y-66259935D01*
X166718704Y-66291207D01*
X166764212Y-66390854D01*
X166764213Y-66390855D01*
X166764214Y-66390857D01*
X166819978Y-66455212D01*
X166831821Y-66490796D01*
X166815034Y-66524332D01*
X166782946Y-66536300D01*
X166555412Y-66536300D01*
X166520764Y-66521948D01*
X166472204Y-66473388D01*
X166457852Y-66438740D01*
X166458350Y-66431778D01*
X166469447Y-66354600D01*
X166466660Y-66335213D01*
X166448966Y-66212145D01*
X166433940Y-66179243D01*
X166389177Y-66081227D01*
X166387974Y-66079839D01*
X166294928Y-65972457D01*
X166276688Y-65960735D01*
X166173853Y-65894647D01*
X166173850Y-65894646D01*
X166035765Y-65854100D01*
X166035761Y-65854100D01*
X165891839Y-65854100D01*
X165891834Y-65854100D01*
X165753749Y-65894646D01*
X165632671Y-65972457D01*
X165538425Y-66081223D01*
X165538424Y-66081225D01*
X165478633Y-66212145D01*
X165458153Y-66354597D01*
X165458153Y-66354602D01*
X165478633Y-66497054D01*
X165496557Y-66536300D01*
X165538423Y-66627973D01*
X165538424Y-66627974D01*
X165538425Y-66627976D01*
X165632671Y-66736742D01*
X165632672Y-66736743D01*
X165753747Y-66814553D01*
X165830585Y-66837114D01*
X165891834Y-66855099D01*
X165891837Y-66855099D01*
X165891839Y-66855100D01*
X165891840Y-66855100D01*
X166035758Y-66855100D01*
X166035761Y-66855100D01*
X166037946Y-66854458D01*
X166075233Y-66858459D01*
X166086406Y-66866822D01*
X166201689Y-66982105D01*
X166216041Y-67016753D01*
X166201689Y-67051401D01*
X166167041Y-67065753D01*
X163408909Y-67065753D01*
X163399351Y-67064812D01*
X163376947Y-67060356D01*
X163269451Y-67081737D01*
X163202609Y-67126398D01*
X163202601Y-67126406D01*
X163178322Y-67142629D01*
X163178321Y-67142630D01*
X163165633Y-67161618D01*
X163159541Y-67169041D01*
X162708206Y-67620376D01*
X162673558Y-67634728D01*
X162659754Y-67632743D01*
X162657567Y-67632100D01*
X162657561Y-67632100D01*
X162513639Y-67632100D01*
X162513634Y-67632100D01*
X162375549Y-67672646D01*
X162375547Y-67672646D01*
X162375547Y-67672647D01*
X162346211Y-67691500D01*
X162254471Y-67750457D01*
X162160225Y-67859223D01*
X162160224Y-67859225D01*
X162100433Y-67990145D01*
X162079953Y-68132597D01*
X162079953Y-68132602D01*
X162100433Y-68275054D01*
X162130530Y-68340956D01*
X162160223Y-68405973D01*
X162160224Y-68405974D01*
X162160225Y-68405976D01*
X162254471Y-68514742D01*
X162254472Y-68514743D01*
X162375547Y-68592553D01*
X162452385Y-68615114D01*
X162513634Y-68633099D01*
X162513637Y-68633099D01*
X162513639Y-68633100D01*
X162513640Y-68633100D01*
X162657560Y-68633100D01*
X162657561Y-68633100D01*
X162657563Y-68633099D01*
X162657565Y-68633099D01*
X162680395Y-68626395D01*
X162795653Y-68592553D01*
X162916728Y-68514743D01*
X163010977Y-68405973D01*
X163070765Y-68275057D01*
X163070765Y-68275055D01*
X163070766Y-68275054D01*
X163091247Y-68132601D01*
X163091247Y-68132598D01*
X163088059Y-68110428D01*
X163080151Y-68055430D01*
X163089425Y-68019094D01*
X163093997Y-68013817D01*
X163170344Y-67937470D01*
X163204991Y-67923119D01*
X163239639Y-67937471D01*
X163253492Y-67965146D01*
X163268833Y-68071854D01*
X163296574Y-68132597D01*
X163328623Y-68202773D01*
X163328624Y-68202774D01*
X163328625Y-68202776D01*
X163406371Y-68292500D01*
X163422872Y-68311543D01*
X163543947Y-68389353D01*
X163620785Y-68411914D01*
X163682034Y-68429899D01*
X163682037Y-68429899D01*
X163682039Y-68429900D01*
X163682040Y-68429900D01*
X163825960Y-68429900D01*
X163825961Y-68429900D01*
X163825963Y-68429899D01*
X163825965Y-68429899D01*
X163848795Y-68423195D01*
X163964053Y-68389353D01*
X164085128Y-68311543D01*
X164179377Y-68202773D01*
X164239165Y-68071857D01*
X164239165Y-68071855D01*
X164239166Y-68071854D01*
X164255492Y-67958300D01*
X164274628Y-67926047D01*
X164303993Y-67916273D01*
X172509986Y-67916273D01*
X172544634Y-67930625D01*
X172558986Y-67965273D01*
X172544634Y-67999921D01*
X169418407Y-71126148D01*
X169383759Y-71140500D01*
X166468317Y-71140500D01*
X166466837Y-71140455D01*
X166403794Y-71136642D01*
X166341678Y-71148024D01*
X166340216Y-71148246D01*
X166277527Y-71155860D01*
X166277528Y-71155860D01*
X166261679Y-71161869D01*
X166253146Y-71164248D01*
X166236471Y-71167304D01*
X166236468Y-71167305D01*
X166178887Y-71193220D01*
X166177520Y-71193786D01*
X166118471Y-71216181D01*
X166104516Y-71225813D01*
X166096795Y-71230167D01*
X166081347Y-71237119D01*
X166081341Y-71237124D01*
X166031639Y-71276061D01*
X166030448Y-71276937D01*
X165978470Y-71312817D01*
X165936595Y-71360084D01*
X165935580Y-71361161D01*
X165459395Y-71837348D01*
X165424747Y-71851700D01*
X157079453Y-71851700D01*
X157044805Y-71837348D01*
X155158497Y-69951040D01*
X153266601Y-68059144D01*
X153265603Y-68058083D01*
X153223729Y-68010817D01*
X153171752Y-67974938D01*
X153170560Y-67974061D01*
X153120856Y-67935121D01*
X153105404Y-67928167D01*
X153097679Y-67923810D01*
X153083731Y-67914182D01*
X153083732Y-67914182D01*
X153024683Y-67891788D01*
X153023334Y-67891229D01*
X153015220Y-67887577D01*
X153006624Y-67883708D01*
X152980920Y-67856399D01*
X152982055Y-67818913D01*
X152992086Y-67804381D01*
X154578972Y-66217495D01*
X154591832Y-66208255D01*
X154592241Y-66208052D01*
X154629658Y-66205503D01*
X154657917Y-66230158D01*
X154662084Y-66242384D01*
X154671794Y-66291202D01*
X154671796Y-66291207D01*
X154683268Y-66308376D01*
X154683269Y-66308376D01*
X154715993Y-66357352D01*
X154732687Y-66382335D01*
X154751675Y-66395022D01*
X154759100Y-66401116D01*
X156323701Y-67965717D01*
X156329793Y-67973140D01*
X156342485Y-67992133D01*
X156342487Y-67992135D01*
X156364885Y-68007101D01*
X156364903Y-68007114D01*
X156391644Y-68024982D01*
X156405017Y-68033917D01*
X156433616Y-68053026D01*
X156513978Y-68069011D01*
X156513979Y-68069011D01*
X156541111Y-68074408D01*
X156541112Y-68074408D01*
X156563508Y-68069953D01*
X156573068Y-68069011D01*
X158789871Y-68069011D01*
X158824519Y-68083363D01*
X160651765Y-69910609D01*
X160657859Y-69918034D01*
X160670547Y-69937024D01*
X160691524Y-69951040D01*
X160691527Y-69951042D01*
X160761676Y-69997915D01*
X160763995Y-69998618D01*
X160766411Y-69998856D01*
X160842039Y-70013900D01*
X160842042Y-70013900D01*
X160844390Y-70014367D01*
X160844395Y-70014367D01*
X160869172Y-70019296D01*
X160887905Y-70015569D01*
X160891571Y-70014841D01*
X160901129Y-70013900D01*
X165520088Y-70013900D01*
X165554736Y-70028252D01*
X165557120Y-70030812D01*
X165564083Y-70038848D01*
X165634872Y-70120543D01*
X165755947Y-70198353D01*
X165832785Y-70220914D01*
X165894034Y-70238899D01*
X165894037Y-70238899D01*
X165894039Y-70238900D01*
X165894040Y-70238900D01*
X166037960Y-70238900D01*
X166037961Y-70238900D01*
X166037963Y-70238899D01*
X166037965Y-70238899D01*
X166060795Y-70232195D01*
X166176053Y-70198353D01*
X166297128Y-70120543D01*
X166391377Y-70011773D01*
X166451165Y-69880857D01*
X166451165Y-69880855D01*
X166451166Y-69880854D01*
X166471647Y-69738402D01*
X166471647Y-69738397D01*
X166451166Y-69595945D01*
X166413104Y-69512603D01*
X166391377Y-69465027D01*
X166375777Y-69447024D01*
X166297128Y-69356257D01*
X166276447Y-69342966D01*
X166176053Y-69278447D01*
X166176050Y-69278446D01*
X166037965Y-69237900D01*
X166037961Y-69237900D01*
X165894039Y-69237900D01*
X165894034Y-69237900D01*
X165755949Y-69278446D01*
X165755947Y-69278446D01*
X165755947Y-69278447D01*
X165727439Y-69296768D01*
X165634871Y-69356257D01*
X165557120Y-69445988D01*
X165523584Y-69462775D01*
X165520088Y-69462900D01*
X161003584Y-69462900D01*
X160968936Y-69448548D01*
X159141689Y-67621301D01*
X159135595Y-67613875D01*
X159122909Y-67594888D01*
X159101907Y-67580855D01*
X159101907Y-67580854D01*
X159059375Y-67552436D01*
X159031778Y-67533996D01*
X159010435Y-67529750D01*
X158949051Y-67517540D01*
X158924283Y-67512614D01*
X158924282Y-67512614D01*
X158924281Y-67512614D01*
X158901886Y-67517069D01*
X158892326Y-67518011D01*
X156675523Y-67518011D01*
X156640875Y-67503659D01*
X155221163Y-66083947D01*
X155206811Y-66049299D01*
X155206811Y-65102495D01*
X155207753Y-65092935D01*
X155212208Y-65070540D01*
X155212208Y-65070539D01*
X155206149Y-65040077D01*
X155202408Y-65021271D01*
X155190826Y-64963044D01*
X155158256Y-64914300D01*
X155145305Y-64894917D01*
X155145304Y-64894916D01*
X155143968Y-64892916D01*
X155143967Y-64892916D01*
X155129936Y-64871915D01*
X155110945Y-64859226D01*
X155103520Y-64853132D01*
X154981736Y-64731348D01*
X154967384Y-64696700D01*
X154981736Y-64662052D01*
X155016384Y-64647700D01*
X159800967Y-64647700D01*
X159811022Y-64648743D01*
X159814966Y-64649569D01*
X159827715Y-64652243D01*
X159862650Y-64647888D01*
X159865684Y-64647700D01*
X159871437Y-64647700D01*
X159871440Y-64647700D01*
X159892940Y-64644112D01*
X159943793Y-64637773D01*
X159944040Y-64637652D01*
X159957505Y-64633337D01*
X159957781Y-64633292D01*
X160002844Y-64608904D01*
X160048884Y-64586398D01*
X160049080Y-64586201D01*
X160060414Y-64577749D01*
X160060658Y-64577618D01*
X160087913Y-64548011D01*
X160095357Y-64539925D01*
X160114350Y-64520931D01*
X160148998Y-64506578D01*
X160162804Y-64508563D01*
X160227634Y-64527599D01*
X160227637Y-64527599D01*
X160227639Y-64527600D01*
X160227640Y-64527600D01*
X160371560Y-64527600D01*
X160371561Y-64527600D01*
X160371563Y-64527599D01*
X160371565Y-64527599D01*
X160394395Y-64520895D01*
X160509653Y-64487053D01*
X160630728Y-64409243D01*
X160724977Y-64300473D01*
X160784765Y-64169557D01*
X160784765Y-64169555D01*
X160784766Y-64169554D01*
X160805247Y-64027100D01*
X160805247Y-64027097D01*
X160784766Y-63884645D01*
X160776136Y-63865748D01*
X160724977Y-63753727D01*
X160704550Y-63730153D01*
X160630728Y-63644957D01*
X160629567Y-63644211D01*
X160509653Y-63567147D01*
X160508165Y-63566710D01*
X160371565Y-63526600D01*
X160371561Y-63526600D01*
X160290191Y-63526600D01*
X160255543Y-63512248D01*
X160241191Y-63477600D01*
X160241690Y-63470626D01*
X160246447Y-63437541D01*
X160246447Y-63437538D01*
X160225966Y-63295085D01*
X160185966Y-63207499D01*
X160166177Y-63164167D01*
X160130892Y-63123446D01*
X160071928Y-63055397D01*
X160058369Y-63046683D01*
X159950853Y-62977587D01*
X159948561Y-62976914D01*
X159812765Y-62937040D01*
X159812761Y-62937040D01*
X159668839Y-62937040D01*
X159668832Y-62937040D01*
X159576263Y-62964221D01*
X159538975Y-62960212D01*
X159517887Y-62937562D01*
X159514073Y-62929210D01*
X159480377Y-62855427D01*
X159472963Y-62846871D01*
X159386128Y-62746657D01*
X159383548Y-62744999D01*
X159265053Y-62668847D01*
X159265050Y-62668846D01*
X159126965Y-62628300D01*
X159126961Y-62628300D01*
X158983039Y-62628300D01*
X158983034Y-62628300D01*
X158844946Y-62668846D01*
X158806042Y-62693848D01*
X158769135Y-62700506D01*
X158738330Y-62679116D01*
X158731051Y-62659598D01*
X158727366Y-62633965D01*
X158711102Y-62598353D01*
X158667577Y-62503047D01*
X158661635Y-62496190D01*
X158573328Y-62394277D01*
X158565212Y-62389061D01*
X158452253Y-62316467D01*
X158452250Y-62316466D01*
X158314165Y-62275920D01*
X158314161Y-62275920D01*
X158170239Y-62275920D01*
X158170234Y-62275920D01*
X158032149Y-62316466D01*
X157911071Y-62394277D01*
X157854982Y-62459008D01*
X157821446Y-62475795D01*
X157817950Y-62475920D01*
X156713787Y-62475920D01*
X156679139Y-62461568D01*
X153223052Y-59005481D01*
X153208700Y-58970833D01*
X153208700Y-58131211D01*
X153210375Y-58120942D01*
X153210345Y-58120938D01*
X153210971Y-58116440D01*
X153210973Y-58116436D01*
X153208726Y-58067825D01*
X153208700Y-58066694D01*
X153208700Y-58046357D01*
X153208700Y-58046356D01*
X153207726Y-58041153D01*
X153207336Y-58037784D01*
X153205785Y-58004209D01*
X153199472Y-57989911D01*
X153196131Y-57979121D01*
X153193261Y-57963767D01*
X153193260Y-57963764D01*
X153175566Y-57935189D01*
X153173986Y-57932191D01*
X153160406Y-57901435D01*
X153160404Y-57901433D01*
X153160402Y-57901430D01*
X153149358Y-57890386D01*
X153142346Y-57881534D01*
X153134120Y-57868250D01*
X153134119Y-57868248D01*
X153134117Y-57868246D01*
X153134116Y-57868245D01*
X153107293Y-57847990D01*
X153104730Y-57845759D01*
X152735248Y-57476277D01*
X152720896Y-57441629D01*
X152721393Y-57434670D01*
X152728047Y-57388400D01*
X152727237Y-57382764D01*
X152707566Y-57245945D01*
X152703151Y-57236279D01*
X152647777Y-57115027D01*
X152636799Y-57102358D01*
X152553528Y-57006257D01*
X152515945Y-56982104D01*
X152432453Y-56928447D01*
X152432450Y-56928446D01*
X152294365Y-56887900D01*
X152294361Y-56887900D01*
X152150439Y-56887900D01*
X152150434Y-56887900D01*
X152012349Y-56928446D01*
X151891271Y-57006257D01*
X151797025Y-57115023D01*
X151797024Y-57115025D01*
X151737233Y-57245945D01*
X151716753Y-57388397D01*
X151716753Y-57388402D01*
X151737233Y-57530854D01*
X151753190Y-57565793D01*
X151797023Y-57661773D01*
X151797024Y-57661774D01*
X151797025Y-57661776D01*
X151881934Y-57759767D01*
X151893777Y-57795351D01*
X151881934Y-57823943D01*
X151810859Y-57905968D01*
X151810858Y-57905970D01*
X151751067Y-58036890D01*
X151730587Y-58179342D01*
X151730587Y-58179347D01*
X151751067Y-58321799D01*
X151777712Y-58380142D01*
X151810857Y-58452718D01*
X151810858Y-58452719D01*
X151810859Y-58452721D01*
X151895136Y-58549983D01*
X151906979Y-58585567D01*
X151890192Y-58619103D01*
X151854608Y-58630946D01*
X151844299Y-58629086D01*
X151710165Y-58589700D01*
X151710161Y-58589700D01*
X151566239Y-58589700D01*
X151566234Y-58589700D01*
X151428149Y-58630246D01*
X151428147Y-58630246D01*
X151428147Y-58630247D01*
X151390921Y-58654169D01*
X151307071Y-58708057D01*
X151212825Y-58816823D01*
X151212824Y-58816825D01*
X151153033Y-58947745D01*
X151132553Y-59090197D01*
X151132553Y-59090202D01*
X151153033Y-59232654D01*
X151176977Y-59285083D01*
X151212823Y-59363573D01*
X151212824Y-59363574D01*
X151212825Y-59363576D01*
X151303736Y-59468493D01*
X151307072Y-59472343D01*
X151428147Y-59550153D01*
X151504985Y-59572714D01*
X151566234Y-59590699D01*
X151566237Y-59590699D01*
X151566239Y-59590700D01*
X151566240Y-59590700D01*
X151693433Y-59590700D01*
X151728081Y-59605052D01*
X155976720Y-63853691D01*
X155982801Y-63862141D01*
X155982825Y-63862124D01*
X155987391Y-63868170D01*
X155996819Y-63904468D01*
X155977819Y-63936802D01*
X155948289Y-63946700D01*
X153279833Y-63946700D01*
X153269778Y-63945657D01*
X153253085Y-63942157D01*
X153218149Y-63946512D01*
X153215116Y-63946700D01*
X153209360Y-63946700D01*
X153187859Y-63950287D01*
X153137007Y-63956627D01*
X153137005Y-63956627D01*
X153137004Y-63956628D01*
X153136745Y-63956755D01*
X153123306Y-63961060D01*
X153123023Y-63961107D01*
X153123015Y-63961109D01*
X153077955Y-63985495D01*
X153031916Y-64008002D01*
X153031914Y-64008003D01*
X153031705Y-64008213D01*
X153020400Y-64016642D01*
X153020141Y-64016782D01*
X152985442Y-64054475D01*
X152112516Y-64927402D01*
X151253370Y-65786548D01*
X151218722Y-65800900D01*
X147460278Y-65800900D01*
X147425630Y-65786548D01*
X147182860Y-65543778D01*
X147168508Y-65509130D01*
X147182860Y-65474482D01*
X147217508Y-65460130D01*
X147240603Y-65465915D01*
X147396599Y-65549296D01*
X147575769Y-65603647D01*
X147743591Y-65620176D01*
X147762099Y-65621999D01*
X147762099Y-65621998D01*
X147762100Y-65621999D01*
X147948431Y-65603647D01*
X148127601Y-65549296D01*
X148292725Y-65461036D01*
X148437457Y-65342257D01*
X148556236Y-65197525D01*
X148644496Y-65032401D01*
X148698847Y-64853231D01*
X148717199Y-64666900D01*
X148698847Y-64480569D01*
X148644496Y-64301399D01*
X148599459Y-64217141D01*
X148556236Y-64136275D01*
X148556230Y-64136267D01*
X148492002Y-64058006D01*
X148437457Y-63991543D01*
X148347409Y-63917642D01*
X148292731Y-63872768D01*
X148292724Y-63872763D01*
X148127602Y-63784504D01*
X147948431Y-63730153D01*
X147762100Y-63711801D01*
X147575768Y-63730153D01*
X147575767Y-63730153D01*
X147396597Y-63784504D01*
X147231475Y-63872763D01*
X147231468Y-63872768D01*
X147086743Y-63991543D01*
X146967970Y-64136267D01*
X146967966Y-64136271D01*
X146967963Y-64136275D01*
X146967964Y-64136275D01*
X146934823Y-64198279D01*
X146934814Y-64198295D01*
X146905824Y-64222086D01*
X146868501Y-64218410D01*
X146844710Y-64189420D01*
X146842600Y-64175196D01*
X146842600Y-63046683D01*
X146856952Y-63012035D01*
X146868500Y-63003470D01*
X147022725Y-62921036D01*
X147167457Y-62802257D01*
X147286236Y-62657525D01*
X147374496Y-62492401D01*
X147428847Y-62313231D01*
X147447199Y-62126900D01*
X148077001Y-62126900D01*
X148095353Y-62313231D01*
X148095353Y-62313232D01*
X148149704Y-62492402D01*
X148237963Y-62657524D01*
X148237968Y-62657531D01*
X148285515Y-62715466D01*
X148356743Y-62802257D01*
X148411105Y-62846871D01*
X148501468Y-62921031D01*
X148501475Y-62921036D01*
X148604648Y-62976183D01*
X148666599Y-63009296D01*
X148845769Y-63063647D01*
X149013747Y-63080191D01*
X149032099Y-63081999D01*
X149032099Y-63081998D01*
X149032100Y-63081999D01*
X149218431Y-63063647D01*
X149397601Y-63009296D01*
X149562725Y-62921036D01*
X149707457Y-62802257D01*
X149826236Y-62657525D01*
X149914496Y-62492401D01*
X149968847Y-62313231D01*
X149987199Y-62126900D01*
X149968847Y-61940569D01*
X149914496Y-61761399D01*
X149902227Y-61738446D01*
X149826236Y-61596275D01*
X149826231Y-61596268D01*
X149775530Y-61534490D01*
X149707457Y-61451543D01*
X149594588Y-61358913D01*
X149562731Y-61332768D01*
X149562724Y-61332763D01*
X149397602Y-61244504D01*
X149218431Y-61190153D01*
X149032100Y-61171801D01*
X148845768Y-61190153D01*
X148845767Y-61190153D01*
X148666597Y-61244504D01*
X148501475Y-61332763D01*
X148501468Y-61332768D01*
X148356743Y-61451543D01*
X148237968Y-61596268D01*
X148237963Y-61596275D01*
X148149704Y-61761397D01*
X148095353Y-61940567D01*
X148095353Y-61940568D01*
X148077001Y-62126899D01*
X148077001Y-62126900D01*
X147447199Y-62126900D01*
X147428847Y-61940569D01*
X147374496Y-61761399D01*
X147362227Y-61738446D01*
X147286236Y-61596275D01*
X147286231Y-61596268D01*
X147235530Y-61534490D01*
X147167457Y-61451543D01*
X147054588Y-61358913D01*
X147022731Y-61332768D01*
X147022724Y-61332763D01*
X146857602Y-61244504D01*
X146678431Y-61190153D01*
X146492100Y-61171801D01*
X146305768Y-61190153D01*
X146305767Y-61190153D01*
X146126602Y-61244503D01*
X146126593Y-61244506D01*
X146098742Y-61259393D01*
X146061420Y-61263068D01*
X146040997Y-61250826D01*
X145914488Y-61124317D01*
X145908407Y-61115866D01*
X145908383Y-61115885D01*
X145905648Y-61112263D01*
X145905647Y-61112261D01*
X145904452Y-61111172D01*
X145887261Y-61095500D01*
X145869662Y-61079456D01*
X145868887Y-61078716D01*
X145859551Y-61069380D01*
X145854489Y-61064317D01*
X145854483Y-61064312D01*
X145851328Y-61062151D01*
X145850126Y-61061328D01*
X145847467Y-61059222D01*
X145845288Y-61057236D01*
X145822622Y-61036573D01*
X145822620Y-61036572D01*
X145808044Y-61030925D01*
X145798055Y-61025659D01*
X145785171Y-61016833D01*
X145785165Y-61016831D01*
X145752456Y-61009137D01*
X145749212Y-61008133D01*
X145726795Y-60999449D01*
X145717862Y-60995989D01*
X145717861Y-60995989D01*
X145702235Y-60995989D01*
X145691016Y-60994687D01*
X145675808Y-60991110D01*
X145642516Y-60995754D01*
X145639130Y-60995989D01*
X144692856Y-60995989D01*
X144658208Y-60981637D01*
X143515048Y-59838477D01*
X143500696Y-59803829D01*
X143501193Y-59796870D01*
X143507847Y-59750600D01*
X143501709Y-59707907D01*
X143487366Y-59608145D01*
X143479399Y-59590700D01*
X143427577Y-59477227D01*
X143424530Y-59473711D01*
X143333328Y-59368457D01*
X143325728Y-59363573D01*
X143212253Y-59290647D01*
X143212250Y-59290646D01*
X143074165Y-59250100D01*
X143074161Y-59250100D01*
X142946968Y-59250100D01*
X142912320Y-59235748D01*
X142912318Y-59235747D01*
X142900550Y-59223978D01*
X142886200Y-59189331D01*
X142886200Y-56657753D01*
X142900552Y-56623105D01*
X142920972Y-56610865D01*
X142951201Y-56601696D01*
X143116325Y-56513436D01*
X143261057Y-56394657D01*
X143379836Y-56249925D01*
X143468096Y-56084801D01*
X143522447Y-55905631D01*
X143540799Y-55719300D01*
X144170601Y-55719300D01*
X144188953Y-55905631D01*
X144188953Y-55905632D01*
X144243304Y-56084802D01*
X144331563Y-56249924D01*
X144331568Y-56249931D01*
X144357477Y-56281500D01*
X144450343Y-56394657D01*
X144533290Y-56462730D01*
X144595068Y-56513431D01*
X144595075Y-56513436D01*
X144729834Y-56585466D01*
X144760199Y-56601696D01*
X144939369Y-56656047D01*
X145125700Y-56674399D01*
X145312031Y-56656047D01*
X145491201Y-56601696D01*
X145656325Y-56513436D01*
X145801057Y-56394657D01*
X145919836Y-56249925D01*
X146008096Y-56084801D01*
X146062447Y-55905631D01*
X146080799Y-55719300D01*
X146710601Y-55719300D01*
X146728953Y-55905631D01*
X146728953Y-55905632D01*
X146783304Y-56084802D01*
X146871563Y-56249924D01*
X146871568Y-56249931D01*
X146897477Y-56281500D01*
X146990343Y-56394657D01*
X147073290Y-56462730D01*
X147135068Y-56513431D01*
X147135075Y-56513436D01*
X147269834Y-56585466D01*
X147300199Y-56601696D01*
X147479369Y-56656047D01*
X147665700Y-56674399D01*
X147852031Y-56656047D01*
X148031201Y-56601696D01*
X148196325Y-56513436D01*
X148341057Y-56394657D01*
X148459836Y-56249925D01*
X148548096Y-56084801D01*
X148602447Y-55905631D01*
X148620799Y-55719300D01*
X148602447Y-55532969D01*
X148548096Y-55353799D01*
X148518324Y-55298100D01*
X148459836Y-55188675D01*
X148459831Y-55188668D01*
X148396753Y-55111809D01*
X148341057Y-55043943D01*
X148258929Y-54976542D01*
X148196331Y-54925168D01*
X148196324Y-54925163D01*
X148031202Y-54836904D01*
X147852031Y-54782553D01*
X147665700Y-54764201D01*
X147479368Y-54782553D01*
X147479367Y-54782553D01*
X147300197Y-54836904D01*
X147135075Y-54925163D01*
X147135068Y-54925168D01*
X146990343Y-55043943D01*
X146871568Y-55188668D01*
X146871563Y-55188675D01*
X146783304Y-55353797D01*
X146728953Y-55532967D01*
X146728953Y-55532968D01*
X146710601Y-55719299D01*
X146710601Y-55719300D01*
X146080799Y-55719300D01*
X146062447Y-55532969D01*
X146008096Y-55353799D01*
X145978324Y-55298100D01*
X145919836Y-55188675D01*
X145919831Y-55188668D01*
X145856753Y-55111809D01*
X145801057Y-55043943D01*
X145718929Y-54976542D01*
X145656331Y-54925168D01*
X145656324Y-54925163D01*
X145491202Y-54836904D01*
X145312031Y-54782553D01*
X145125700Y-54764201D01*
X144939368Y-54782553D01*
X144939367Y-54782553D01*
X144760197Y-54836904D01*
X144595075Y-54925163D01*
X144595068Y-54925168D01*
X144450343Y-55043943D01*
X144331568Y-55188668D01*
X144331563Y-55188675D01*
X144243304Y-55353797D01*
X144188953Y-55532967D01*
X144188953Y-55532968D01*
X144170601Y-55719299D01*
X144170601Y-55719300D01*
X143540799Y-55719300D01*
X143522447Y-55532969D01*
X143468096Y-55353799D01*
X143438324Y-55298100D01*
X143379836Y-55188675D01*
X143379831Y-55188668D01*
X143316753Y-55111809D01*
X143261057Y-55043943D01*
X143178929Y-54976542D01*
X143116331Y-54925168D01*
X143116324Y-54925163D01*
X142951202Y-54836904D01*
X142772031Y-54782553D01*
X142585700Y-54764201D01*
X142399368Y-54782553D01*
X142399367Y-54782553D01*
X142220197Y-54836904D01*
X142055075Y-54925163D01*
X142055068Y-54925168D01*
X141910343Y-55043943D01*
X141791568Y-55188668D01*
X141791563Y-55188675D01*
X141703304Y-55353797D01*
X141648953Y-55532967D01*
X141648953Y-55532968D01*
X141630601Y-55719299D01*
X141630601Y-55719300D01*
X141648953Y-55905631D01*
X141648953Y-55905632D01*
X141703304Y-56084802D01*
X141791563Y-56249924D01*
X141791568Y-56249931D01*
X141817477Y-56281500D01*
X141910343Y-56394657D01*
X141993290Y-56462730D01*
X142055068Y-56513431D01*
X142055075Y-56513436D01*
X142220199Y-56601696D01*
X142250425Y-56610864D01*
X142279413Y-56634653D01*
X142285200Y-56657753D01*
X142285200Y-59277090D01*
X142283524Y-59287361D01*
X142283554Y-59287366D01*
X142282927Y-59291859D01*
X142282927Y-59291864D01*
X142282927Y-59291865D01*
X142284451Y-59324823D01*
X142285174Y-59340474D01*
X142285200Y-59341605D01*
X142285200Y-59361943D01*
X142286171Y-59367138D01*
X142286562Y-59370512D01*
X142288115Y-59404090D01*
X142288115Y-59404094D01*
X142294428Y-59418391D01*
X142297767Y-59429175D01*
X142300361Y-59443046D01*
X142300639Y-59444533D01*
X142318331Y-59473108D01*
X142319912Y-59476106D01*
X142333493Y-59506864D01*
X142333493Y-59506865D01*
X142344542Y-59517913D01*
X142351552Y-59526762D01*
X142359781Y-59540052D01*
X142386605Y-59560309D01*
X142389168Y-59562539D01*
X142489350Y-59662721D01*
X142503702Y-59697369D01*
X142503203Y-59704342D01*
X142496553Y-59750598D01*
X142496553Y-59750602D01*
X142517033Y-59893054D01*
X142542310Y-59948402D01*
X142576823Y-60023973D01*
X142576824Y-60023974D01*
X142576825Y-60023976D01*
X142648074Y-60106202D01*
X142671072Y-60132743D01*
X142792147Y-60210553D01*
X142868985Y-60233114D01*
X142930234Y-60251099D01*
X142930237Y-60251099D01*
X142930239Y-60251100D01*
X142930240Y-60251100D01*
X143057433Y-60251100D01*
X143092081Y-60265452D01*
X143921018Y-61094389D01*
X143935370Y-61129037D01*
X143921018Y-61163685D01*
X143891173Y-61177801D01*
X143765769Y-61190153D01*
X143765767Y-61190153D01*
X143586597Y-61244504D01*
X143421475Y-61332763D01*
X143421468Y-61332768D01*
X143276743Y-61451543D01*
X143157968Y-61596268D01*
X143157966Y-61596271D01*
X143123714Y-61660353D01*
X143094724Y-61684144D01*
X143057401Y-61680468D01*
X143033610Y-61651478D01*
X143031500Y-61637254D01*
X143031500Y-61360356D01*
X143032442Y-61350796D01*
X143036897Y-61328401D01*
X143036897Y-61328398D01*
X143027095Y-61279124D01*
X143020209Y-61244506D01*
X143015515Y-61220905D01*
X142996612Y-61192614D01*
X142987471Y-61178933D01*
X142969605Y-61152194D01*
X142969590Y-61152175D01*
X142954624Y-61129776D01*
X142953518Y-61129037D01*
X142935634Y-61117087D01*
X142928209Y-61110993D01*
X142303406Y-60486190D01*
X142297312Y-60478764D01*
X142284626Y-60459777D01*
X142263624Y-60445744D01*
X142263624Y-60445743D01*
X142229006Y-60422613D01*
X142193495Y-60398885D01*
X142172152Y-60394639D01*
X142110768Y-60382429D01*
X142086000Y-60377503D01*
X142085999Y-60377503D01*
X142085998Y-60377503D01*
X142063603Y-60381958D01*
X142054043Y-60382900D01*
X139047785Y-60382900D01*
X139038225Y-60381958D01*
X139015829Y-60377503D01*
X139015828Y-60377503D01*
X139008003Y-60379059D01*
X138992565Y-60382130D01*
X138992563Y-60382130D01*
X138988696Y-60382900D01*
X138988695Y-60382900D01*
X138936626Y-60393257D01*
X138908332Y-60398885D01*
X138872821Y-60422613D01*
X138841484Y-60443551D01*
X138841482Y-60443553D01*
X138817203Y-60459776D01*
X138817202Y-60459777D01*
X138804514Y-60478765D01*
X138798422Y-60486188D01*
X136313788Y-62970822D01*
X136306365Y-62976914D01*
X136287377Y-62989602D01*
X136287376Y-62989603D01*
X136272005Y-63012607D01*
X136259382Y-63031499D01*
X136226485Y-63080733D01*
X136213150Y-63147772D01*
X136205103Y-63188226D01*
X136205103Y-63188229D01*
X136209558Y-63210624D01*
X136210500Y-63220184D01*
X136210500Y-64733751D01*
X136196148Y-64768399D01*
X136187992Y-64774971D01*
X136177590Y-64781657D01*
X136154871Y-64796257D01*
X136060625Y-64905023D01*
X136060624Y-64905025D01*
X136000833Y-65035945D01*
X135980353Y-65178397D01*
X135980353Y-65178402D01*
X136000833Y-65320854D01*
X136026813Y-65377740D01*
X136060623Y-65451773D01*
X136060624Y-65451774D01*
X136060625Y-65451776D01*
X136145126Y-65549296D01*
X136154872Y-65560543D01*
X136275947Y-65638353D01*
X136352785Y-65660914D01*
X136414034Y-65678899D01*
X136414037Y-65678899D01*
X136414039Y-65678900D01*
X136414040Y-65678900D01*
X136557960Y-65678900D01*
X136557961Y-65678900D01*
X136557963Y-65678899D01*
X136557965Y-65678899D01*
X136588473Y-65669941D01*
X136696053Y-65638353D01*
X136817128Y-65560543D01*
X136911377Y-65451773D01*
X136971165Y-65320857D01*
X136971165Y-65320855D01*
X136971166Y-65320854D01*
X136991647Y-65178402D01*
X136991647Y-65178397D01*
X136971166Y-65035945D01*
X136964464Y-65021271D01*
X136911377Y-64905027D01*
X136906006Y-64898829D01*
X136817128Y-64796257D01*
X136794410Y-64781657D01*
X136784008Y-64774972D01*
X136762620Y-64744167D01*
X136761500Y-64733751D01*
X136761500Y-63322640D01*
X136775852Y-63287992D01*
X139115592Y-60948252D01*
X139150240Y-60933900D01*
X141951588Y-60933900D01*
X141986236Y-60948252D01*
X142466148Y-61428163D01*
X142480500Y-61462811D01*
X142480500Y-63096439D01*
X142479559Y-63105998D01*
X142476069Y-63123546D01*
X142475103Y-63128400D01*
X142480500Y-63155532D01*
X142480500Y-63155533D01*
X142496485Y-63235895D01*
X142520113Y-63271257D01*
X142539701Y-63300573D01*
X142547762Y-63312636D01*
X142557375Y-63327023D01*
X142576364Y-63339711D01*
X142583789Y-63345805D01*
X142882195Y-63644211D01*
X142896547Y-63678859D01*
X142882195Y-63713507D01*
X142847547Y-63727859D01*
X142842744Y-63727623D01*
X142682100Y-63711801D01*
X142495768Y-63730153D01*
X142495767Y-63730153D01*
X142316597Y-63784504D01*
X142151475Y-63872763D01*
X142151468Y-63872768D01*
X142006743Y-63991543D01*
X141887970Y-64136267D01*
X141887963Y-64136275D01*
X141799704Y-64301397D01*
X141745353Y-64480567D01*
X141745353Y-64480568D01*
X141727001Y-64666899D01*
X141727001Y-64666900D01*
X141745353Y-64853231D01*
X141745353Y-64853232D01*
X141799704Y-65032402D01*
X141887963Y-65197524D01*
X141887968Y-65197531D01*
X141947852Y-65270498D01*
X142006743Y-65342257D01*
X142072100Y-65395894D01*
X142151468Y-65461031D01*
X142151475Y-65461036D01*
X142260588Y-65519358D01*
X142316599Y-65549296D01*
X142495769Y-65603647D01*
X142663591Y-65620176D01*
X142682099Y-65621999D01*
X142682099Y-65621998D01*
X142682100Y-65621999D01*
X142868431Y-65603647D01*
X143047601Y-65549296D01*
X143212725Y-65461036D01*
X143357457Y-65342257D01*
X143476236Y-65197525D01*
X143564496Y-65032401D01*
X143614610Y-64867197D01*
X143638402Y-64838208D01*
X143675724Y-64834532D01*
X143704714Y-64858324D01*
X143710500Y-64881422D01*
X143710500Y-65256439D01*
X143709559Y-65265997D01*
X143705103Y-65288400D01*
X143710500Y-65315532D01*
X143710500Y-65315533D01*
X143726485Y-65395895D01*
X143754603Y-65437976D01*
X143787376Y-65487025D01*
X143806364Y-65499712D01*
X143813790Y-65505806D01*
X144888036Y-66580052D01*
X144902388Y-66614700D01*
X144888036Y-66649348D01*
X144853388Y-66663700D01*
X139997367Y-66663700D01*
X139962719Y-66649348D01*
X139354652Y-66041281D01*
X139340300Y-66006633D01*
X139340300Y-65666400D01*
X139354652Y-65631752D01*
X139389300Y-65617400D01*
X140911845Y-65617400D01*
X140911848Y-65617400D01*
X140970331Y-65605767D01*
X141036652Y-65561452D01*
X141080967Y-65495131D01*
X141092600Y-65436648D01*
X141092600Y-63897152D01*
X141080967Y-63838669D01*
X141044775Y-63784504D01*
X141036652Y-63772347D01*
X140996895Y-63745782D01*
X140970331Y-63728033D01*
X140911848Y-63716400D01*
X140911845Y-63716400D01*
X139499707Y-63716400D01*
X139465059Y-63702048D01*
X139450707Y-63667400D01*
X139465059Y-63632752D01*
X139985798Y-63112013D01*
X140509357Y-62588453D01*
X140544004Y-62574102D01*
X140578652Y-62588454D01*
X140587217Y-62600002D01*
X140617963Y-62657524D01*
X140617966Y-62657528D01*
X140617968Y-62657531D01*
X140665515Y-62715466D01*
X140736743Y-62802257D01*
X140791105Y-62846871D01*
X140881468Y-62921031D01*
X140881475Y-62921036D01*
X140984648Y-62976183D01*
X141046599Y-63009296D01*
X141225769Y-63063647D01*
X141393746Y-63080191D01*
X141412099Y-63081999D01*
X141412099Y-63081998D01*
X141412100Y-63081999D01*
X141598431Y-63063647D01*
X141777601Y-63009296D01*
X141942725Y-62921036D01*
X142087457Y-62802257D01*
X142206236Y-62657525D01*
X142294496Y-62492401D01*
X142348847Y-62313231D01*
X142367199Y-62126900D01*
X142348847Y-61940569D01*
X142294496Y-61761399D01*
X142282227Y-61738446D01*
X142206236Y-61596275D01*
X142206231Y-61596268D01*
X142155530Y-61534490D01*
X142087457Y-61451543D01*
X141974588Y-61358913D01*
X141942731Y-61332768D01*
X141942724Y-61332763D01*
X141777602Y-61244504D01*
X141598431Y-61190153D01*
X141412100Y-61171801D01*
X141225768Y-61190153D01*
X141225767Y-61190153D01*
X141046597Y-61244504D01*
X140881475Y-61332763D01*
X140881468Y-61332768D01*
X140736743Y-61451543D01*
X140617968Y-61596268D01*
X140617963Y-61596275D01*
X140529705Y-61761396D01*
X140519621Y-61794636D01*
X140495828Y-61823626D01*
X140480282Y-61827904D01*
X140480370Y-61828275D01*
X140475948Y-61829315D01*
X140461644Y-61835629D01*
X140450864Y-61838967D01*
X140435510Y-61841838D01*
X140435508Y-61841838D01*
X140406934Y-61859529D01*
X140403931Y-61861112D01*
X140373179Y-61874691D01*
X140373174Y-61874695D01*
X140362125Y-61885743D01*
X140353278Y-61892750D01*
X140339988Y-61900980D01*
X140319730Y-61927804D01*
X140317501Y-61930366D01*
X138867625Y-63380242D01*
X138859174Y-63386324D01*
X138859193Y-63386348D01*
X138855568Y-63389085D01*
X138822777Y-63425053D01*
X138821997Y-63425870D01*
X138807633Y-63440234D01*
X138807623Y-63440246D01*
X138804632Y-63444610D01*
X138802528Y-63447266D01*
X138779885Y-63472105D01*
X138779883Y-63472108D01*
X138774236Y-63486684D01*
X138768972Y-63496670D01*
X138760143Y-63509559D01*
X138760143Y-63509560D01*
X138752447Y-63542276D01*
X138751443Y-63545519D01*
X138748507Y-63553099D01*
X138739677Y-63575896D01*
X138739300Y-63576868D01*
X138739300Y-63592493D01*
X138737998Y-63603712D01*
X138734421Y-63618916D01*
X138734421Y-63618921D01*
X138736350Y-63632752D01*
X138739065Y-63652209D01*
X138739300Y-63655597D01*
X138739300Y-66094390D01*
X138737624Y-66104661D01*
X138737654Y-66104666D01*
X138737027Y-66109159D01*
X138737027Y-66109164D01*
X138737027Y-66109165D01*
X138737899Y-66128023D01*
X138739274Y-66157774D01*
X138739300Y-66158905D01*
X138739300Y-66179243D01*
X138740271Y-66184438D01*
X138740662Y-66187812D01*
X138742215Y-66221390D01*
X138742215Y-66221394D01*
X138748528Y-66235691D01*
X138751867Y-66246475D01*
X138754738Y-66261829D01*
X138754739Y-66261833D01*
X138772431Y-66290408D01*
X138774012Y-66293406D01*
X138787593Y-66324164D01*
X138787593Y-66324165D01*
X138798642Y-66335213D01*
X138805652Y-66344062D01*
X138812175Y-66354597D01*
X138813881Y-66357352D01*
X138840705Y-66377609D01*
X138843268Y-66379839D01*
X139599800Y-67136371D01*
X139605881Y-67144821D01*
X139605905Y-67144804D01*
X139608640Y-67148425D01*
X139608642Y-67148428D01*
X139644626Y-67181232D01*
X139645399Y-67181970D01*
X139652610Y-67189181D01*
X139659799Y-67196371D01*
X139659802Y-67196373D01*
X139659803Y-67196374D01*
X139664162Y-67199360D01*
X139666821Y-67201467D01*
X139691667Y-67224116D01*
X139706236Y-67229760D01*
X139716227Y-67235026D01*
X139729116Y-67243855D01*
X139729118Y-67243855D01*
X139729120Y-67243857D01*
X139761849Y-67251555D01*
X139765066Y-67252551D01*
X139796427Y-67264700D01*
X139812053Y-67264700D01*
X139823272Y-67266002D01*
X139838476Y-67269578D01*
X139838477Y-67269578D01*
X139838481Y-67269579D01*
X139871772Y-67264934D01*
X139875159Y-67264700D01*
X148901041Y-67264700D01*
X148935689Y-67279052D01*
X149101332Y-67444695D01*
X149115185Y-67472369D01*
X149121035Y-67513057D01*
X149121035Y-67513058D01*
X149139019Y-67552436D01*
X149180823Y-67643973D01*
X149180824Y-67643974D01*
X149180825Y-67643976D01*
X149277367Y-67755392D01*
X149276565Y-67756086D01*
X149291541Y-67786006D01*
X149279696Y-67821590D01*
X149246160Y-67838375D01*
X149242666Y-67838500D01*
X139883679Y-67838500D01*
X139849031Y-67824148D01*
X139043808Y-67018925D01*
X138237527Y-66212644D01*
X138236529Y-66211583D01*
X138194655Y-66164317D01*
X138142678Y-66128438D01*
X138141486Y-66127561D01*
X138091782Y-66088621D01*
X138076330Y-66081667D01*
X138068605Y-66077310D01*
X138054657Y-66067682D01*
X138054658Y-66067682D01*
X137995610Y-66045288D01*
X137994265Y-66044731D01*
X137954709Y-66026929D01*
X137936659Y-66018805D01*
X137919981Y-66015748D01*
X137911441Y-66013368D01*
X137895599Y-66007360D01*
X137832909Y-65999746D01*
X137831447Y-65999524D01*
X137769338Y-65988142D01*
X137769331Y-65988141D01*
X137706289Y-65991955D01*
X137704809Y-65992000D01*
X131855666Y-65992000D01*
X131821018Y-65977648D01*
X131806666Y-65943000D01*
X131821018Y-65908352D01*
X132223565Y-65505806D01*
X133631119Y-64098252D01*
X133665768Y-64083900D01*
X133782960Y-64083900D01*
X133782961Y-64083900D01*
X133782963Y-64083899D01*
X133782965Y-64083899D01*
X133828955Y-64070395D01*
X133921053Y-64043353D01*
X134042128Y-63965543D01*
X134136377Y-63856773D01*
X134196165Y-63725857D01*
X134196165Y-63725855D01*
X134196166Y-63725854D01*
X134206992Y-63650552D01*
X134216647Y-63583400D01*
X134204177Y-63496670D01*
X134196166Y-63440945D01*
X134188908Y-63425053D01*
X134136377Y-63310027D01*
X134128185Y-63300573D01*
X134042128Y-63201257D01*
X134042128Y-63201256D01*
X133921053Y-63123447D01*
X133921050Y-63123446D01*
X133782965Y-63082900D01*
X133782961Y-63082900D01*
X133639039Y-63082900D01*
X133639034Y-63082900D01*
X133500949Y-63123446D01*
X133500947Y-63123446D01*
X133500947Y-63123447D01*
X133493242Y-63128399D01*
X133379871Y-63201257D01*
X133285625Y-63310023D01*
X133285624Y-63310025D01*
X133285623Y-63310026D01*
X133285623Y-63310027D01*
X133284431Y-63312638D01*
X133225833Y-63440945D01*
X133205353Y-63583397D01*
X133205353Y-63583401D01*
X133213260Y-63638399D01*
X133203985Y-63674737D01*
X133199407Y-63680020D01*
X131411370Y-65468059D01*
X131376722Y-65482411D01*
X131325964Y-65482411D01*
X131291316Y-65468059D01*
X131276964Y-65433411D01*
X131282101Y-65411570D01*
X131343841Y-65287577D01*
X131393683Y-65112400D01*
X130635472Y-65112400D01*
X130600824Y-65098048D01*
X130586472Y-65063400D01*
X130591813Y-65041154D01*
X130593018Y-65038789D01*
X130621165Y-64983548D01*
X130640986Y-64858400D01*
X130621165Y-64733252D01*
X130591812Y-64675645D01*
X130588870Y-64638258D01*
X130613226Y-64609741D01*
X130635472Y-64604400D01*
X131393683Y-64604400D01*
X131393683Y-64604399D01*
X131343841Y-64429222D01*
X131246117Y-64232965D01*
X131246114Y-64232961D01*
X131113995Y-64058006D01*
X131113992Y-64058003D01*
X130951975Y-63910304D01*
X130765563Y-63794883D01*
X130561134Y-63715688D01*
X130561126Y-63715686D01*
X130490000Y-63702389D01*
X130490000Y-64458927D01*
X130475648Y-64493575D01*
X130441000Y-64507927D01*
X130418755Y-64502587D01*
X130361148Y-64473235D01*
X130356608Y-64472516D01*
X130267481Y-64458400D01*
X130204519Y-64458400D01*
X130201192Y-64458927D01*
X130110851Y-64473235D01*
X130053245Y-64502587D01*
X130015858Y-64505529D01*
X129987340Y-64481172D01*
X129982000Y-64458927D01*
X129982000Y-63702389D01*
X129910873Y-63715686D01*
X129910865Y-63715688D01*
X129706436Y-63794883D01*
X129520024Y-63910304D01*
X129358007Y-64058003D01*
X129358004Y-64058006D01*
X129225885Y-64232961D01*
X129225882Y-64232965D01*
X129128158Y-64429222D01*
X129078316Y-64604399D01*
X129078317Y-64604400D01*
X129836528Y-64604400D01*
X129871176Y-64618752D01*
X129885528Y-64653400D01*
X129880187Y-64675646D01*
X129850835Y-64733250D01*
X129831015Y-64858392D01*
X129831014Y-64858400D01*
X129838399Y-64905027D01*
X129850835Y-64983549D01*
X129865725Y-65012771D01*
X129877842Y-65036553D01*
X129880187Y-65041154D01*
X129883130Y-65078542D01*
X129858774Y-65107059D01*
X129836528Y-65112400D01*
X129078317Y-65112400D01*
X129074023Y-65118085D01*
X129071413Y-65140583D01*
X129042015Y-65163869D01*
X129004762Y-65159546D01*
X128993958Y-65151387D01*
X128520852Y-64678281D01*
X128506500Y-64643633D01*
X128506500Y-64014593D01*
X128520852Y-63979945D01*
X128529005Y-63973374D01*
X128537128Y-63968154D01*
X128631377Y-63859384D01*
X128691165Y-63728468D01*
X128691165Y-63728466D01*
X128691166Y-63728465D01*
X128701642Y-63655597D01*
X128711647Y-63586011D01*
X128702555Y-63522775D01*
X128691166Y-63443556D01*
X128683089Y-63425870D01*
X128631377Y-63312638D01*
X128629111Y-63310023D01*
X128537128Y-63203868D01*
X128512793Y-63188229D01*
X128416053Y-63126058D01*
X128407161Y-63123447D01*
X128277965Y-63085511D01*
X128277961Y-63085511D01*
X128134039Y-63085511D01*
X128134034Y-63085511D01*
X127995949Y-63126057D01*
X127995947Y-63126057D01*
X127995947Y-63126058D01*
X127992303Y-63128400D01*
X127874871Y-63203868D01*
X127780625Y-63312634D01*
X127780624Y-63312636D01*
X127720833Y-63443556D01*
X127700353Y-63586008D01*
X127700353Y-63586013D01*
X127720833Y-63728465D01*
X127746426Y-63784504D01*
X127780623Y-63859384D01*
X127780624Y-63859385D01*
X127780625Y-63859387D01*
X127873693Y-63966793D01*
X127874872Y-63968154D01*
X127882990Y-63973371D01*
X127904379Y-64004176D01*
X127905499Y-64014593D01*
X127905499Y-64731390D01*
X127903824Y-64741661D01*
X127903854Y-64741666D01*
X127903227Y-64746159D01*
X127905474Y-64794774D01*
X127905500Y-64795905D01*
X127905500Y-64816244D01*
X127905891Y-64818335D01*
X127906471Y-64821438D01*
X127906862Y-64824812D01*
X127907266Y-64833541D01*
X127908409Y-64858272D01*
X127908415Y-64858390D01*
X127908415Y-64858394D01*
X127914728Y-64872691D01*
X127918067Y-64883475D01*
X127920800Y-64898089D01*
X127920939Y-64898833D01*
X127938631Y-64927408D01*
X127940212Y-64930406D01*
X127953793Y-64961164D01*
X127953793Y-64961165D01*
X127964842Y-64972213D01*
X127971852Y-64981062D01*
X127978160Y-64991249D01*
X127980081Y-64994352D01*
X128006905Y-65014609D01*
X128009468Y-65016839D01*
X128900981Y-65908352D01*
X128915333Y-65943000D01*
X128900981Y-65977648D01*
X128866333Y-65992000D01*
X126099152Y-65992000D01*
X126064504Y-65977648D01*
X124749476Y-64662619D01*
X124735124Y-64627971D01*
X124735333Y-64623450D01*
X124735620Y-64620355D01*
X124751443Y-64449600D01*
X124730915Y-64228064D01*
X124670029Y-64014072D01*
X124570858Y-63814911D01*
X124473062Y-63685408D01*
X124436783Y-63637366D01*
X124436780Y-63637363D01*
X124272366Y-63487479D01*
X124272363Y-63487477D01*
X124272362Y-63487476D01*
X124083201Y-63370353D01*
X124083198Y-63370352D01*
X124083197Y-63370351D01*
X123960040Y-63322640D01*
X123875740Y-63289982D01*
X123657043Y-63249100D01*
X123434557Y-63249100D01*
X123215860Y-63289982D01*
X123215854Y-63289984D01*
X123215855Y-63289984D01*
X123008402Y-63370351D01*
X122819233Y-63487479D01*
X122654819Y-63637363D01*
X122654816Y-63637366D01*
X122520743Y-63814909D01*
X122520740Y-63814913D01*
X122489363Y-63877928D01*
X122461072Y-63902547D01*
X122423659Y-63899950D01*
X122399040Y-63871659D01*
X122396500Y-63856087D01*
X122396500Y-62198402D01*
X131320353Y-62198402D01*
X131340833Y-62340854D01*
X131372598Y-62410407D01*
X131400623Y-62471773D01*
X131400624Y-62471774D01*
X131400625Y-62471776D01*
X131489291Y-62574102D01*
X131494872Y-62580543D01*
X131615947Y-62658353D01*
X131663740Y-62672386D01*
X131754034Y-62698899D01*
X131754037Y-62698899D01*
X131754039Y-62698900D01*
X131754040Y-62698900D01*
X131897960Y-62698900D01*
X131897961Y-62698900D01*
X131897963Y-62698899D01*
X131897965Y-62698899D01*
X131930441Y-62689363D01*
X132036053Y-62658353D01*
X132157128Y-62580543D01*
X132251377Y-62471773D01*
X132264725Y-62442544D01*
X132292173Y-62416989D01*
X132309297Y-62413900D01*
X133530088Y-62413900D01*
X133564736Y-62428252D01*
X133567120Y-62430812D01*
X133637771Y-62512348D01*
X133644872Y-62520543D01*
X133765947Y-62598353D01*
X133812313Y-62611967D01*
X133904034Y-62638899D01*
X133904037Y-62638899D01*
X133904039Y-62638900D01*
X133904040Y-62638900D01*
X134047960Y-62638900D01*
X134047961Y-62638900D01*
X134047963Y-62638899D01*
X134047965Y-62638899D01*
X134070795Y-62632195D01*
X134186053Y-62598353D01*
X134307128Y-62520543D01*
X134401377Y-62411773D01*
X134461165Y-62280857D01*
X134461165Y-62280855D01*
X134461166Y-62280854D01*
X134481647Y-62138402D01*
X134481647Y-62138397D01*
X134461166Y-61995945D01*
X134447007Y-61964942D01*
X134401377Y-61865027D01*
X134377891Y-61837923D01*
X134307128Y-61756257D01*
X134296925Y-61749700D01*
X134186053Y-61678447D01*
X134177028Y-61675797D01*
X134047965Y-61637900D01*
X134047961Y-61637900D01*
X133904039Y-61637900D01*
X133904034Y-61637900D01*
X133765949Y-61678446D01*
X133765947Y-61678446D01*
X133765947Y-61678447D01*
X133730085Y-61701494D01*
X133644871Y-61756257D01*
X133567120Y-61845988D01*
X133533584Y-61862775D01*
X133530088Y-61862900D01*
X132219922Y-61862900D01*
X132185274Y-61848548D01*
X132182890Y-61845988D01*
X132157128Y-61816257D01*
X132123485Y-61794636D01*
X132036053Y-61738447D01*
X132036050Y-61738446D01*
X131897965Y-61697900D01*
X131897961Y-61697900D01*
X131754039Y-61697900D01*
X131754034Y-61697900D01*
X131615949Y-61738446D01*
X131494871Y-61816257D01*
X131400625Y-61925023D01*
X131400624Y-61925025D01*
X131340833Y-62055945D01*
X131320353Y-62198397D01*
X131320353Y-62198402D01*
X122396500Y-62198402D01*
X122396500Y-55719299D01*
X138782895Y-55719299D01*
X138802080Y-55938586D01*
X138802081Y-55938592D01*
X138859048Y-56151197D01*
X138859049Y-56151202D01*
X138952075Y-56350694D01*
X138952080Y-56350704D01*
X138994501Y-56411286D01*
X138994502Y-56411286D01*
X139599351Y-55806437D01*
X139633999Y-55792085D01*
X139668647Y-55806437D01*
X139681499Y-55829054D01*
X139692895Y-55874055D01*
X139762259Y-55980225D01*
X139762260Y-55980226D01*
X139762261Y-55980227D01*
X139862338Y-56058120D01*
X139862341Y-56058122D01*
X139890710Y-56067860D01*
X139939775Y-56084704D01*
X139967885Y-56109528D01*
X139970209Y-56146959D01*
X139958512Y-56165697D01*
X139353712Y-56770496D01*
X139353712Y-56770497D01*
X139414295Y-56812919D01*
X139414305Y-56812924D01*
X139613797Y-56905950D01*
X139613802Y-56905951D01*
X139826407Y-56962918D01*
X139826413Y-56962919D01*
X140045700Y-56982104D01*
X140264986Y-56962919D01*
X140264992Y-56962918D01*
X140477597Y-56905951D01*
X140477602Y-56905949D01*
X140677094Y-56812925D01*
X140677101Y-56812921D01*
X140737686Y-56770497D01*
X140737686Y-56770496D01*
X140135330Y-56168140D01*
X140120978Y-56133492D01*
X140135330Y-56098844D01*
X140161912Y-56085161D01*
X140170792Y-56083680D01*
X140282328Y-56023320D01*
X140368222Y-55930014D01*
X140414846Y-55823719D01*
X140441906Y-55797755D01*
X140479400Y-55798530D01*
X140494366Y-55808755D01*
X141096896Y-56411286D01*
X141096897Y-56411286D01*
X141139321Y-56350701D01*
X141139325Y-56350694D01*
X141232349Y-56151202D01*
X141232351Y-56151197D01*
X141289318Y-55938592D01*
X141289319Y-55938586D01*
X141308504Y-55719299D01*
X141289319Y-55500013D01*
X141289318Y-55500007D01*
X141232351Y-55287402D01*
X141232350Y-55287397D01*
X141139324Y-55087906D01*
X141139320Y-55087898D01*
X141096897Y-55027312D01*
X140492048Y-55632160D01*
X140457400Y-55646512D01*
X140422752Y-55632160D01*
X140409900Y-55609542D01*
X140398505Y-55564545D01*
X140329141Y-55458375D01*
X140329138Y-55458373D01*
X140329138Y-55458372D01*
X140229061Y-55380479D01*
X140229058Y-55380477D01*
X140151625Y-55353895D01*
X140123514Y-55329071D01*
X140121190Y-55291640D01*
X140132887Y-55272902D01*
X140737686Y-54668102D01*
X140737686Y-54668099D01*
X140677110Y-54625684D01*
X140677094Y-54625675D01*
X140477602Y-54532649D01*
X140477597Y-54532648D01*
X140264992Y-54475681D01*
X140264986Y-54475680D01*
X140045700Y-54456495D01*
X139826413Y-54475680D01*
X139826407Y-54475681D01*
X139613802Y-54532648D01*
X139613797Y-54532649D01*
X139414299Y-54625677D01*
X139414295Y-54625680D01*
X139353712Y-54668100D01*
X139353712Y-54668101D01*
X139956069Y-55270459D01*
X139970421Y-55305107D01*
X139956069Y-55339755D01*
X139929488Y-55353438D01*
X139920608Y-55354920D01*
X139920607Y-55354920D01*
X139920604Y-55354921D01*
X139809073Y-55415278D01*
X139809070Y-55415281D01*
X139723177Y-55508587D01*
X139676554Y-55614879D01*
X139649493Y-55640844D01*
X139611998Y-55640069D01*
X139597033Y-55629844D01*
X138994501Y-55027312D01*
X138994500Y-55027312D01*
X138952080Y-55087895D01*
X138952077Y-55087899D01*
X138859049Y-55287397D01*
X138859048Y-55287402D01*
X138802081Y-55500007D01*
X138802080Y-55500013D01*
X138782895Y-55719299D01*
X122396500Y-55719299D01*
X122396500Y-54797602D01*
X127662953Y-54797602D01*
X127683433Y-54940054D01*
X127706478Y-54990514D01*
X127743223Y-55070973D01*
X127743224Y-55070974D01*
X127743225Y-55070976D01*
X127827379Y-55168095D01*
X127837472Y-55179743D01*
X127958547Y-55257553D01*
X128028770Y-55278172D01*
X128096634Y-55298099D01*
X128096637Y-55298099D01*
X128096639Y-55298100D01*
X128096640Y-55298100D01*
X128240560Y-55298100D01*
X128240561Y-55298100D01*
X128240563Y-55298099D01*
X128240565Y-55298099D01*
X128277012Y-55287397D01*
X128378653Y-55257553D01*
X128499728Y-55179743D01*
X128593977Y-55070973D01*
X128619051Y-55016067D01*
X128646498Y-54990514D01*
X128683977Y-54991852D01*
X128709532Y-55019300D01*
X128712123Y-55029450D01*
X128724834Y-55117855D01*
X128724835Y-55117857D01*
X128784623Y-55248773D01*
X128784624Y-55248774D01*
X128784625Y-55248776D01*
X128867570Y-55344500D01*
X128878872Y-55357543D01*
X128999947Y-55435353D01*
X129075779Y-55457619D01*
X129138034Y-55475899D01*
X129138037Y-55475899D01*
X129138039Y-55475900D01*
X129138040Y-55475900D01*
X129281960Y-55475900D01*
X129281961Y-55475900D01*
X129281963Y-55475899D01*
X129281965Y-55475899D01*
X129304795Y-55469195D01*
X129420053Y-55435353D01*
X129541128Y-55357543D01*
X129592636Y-55298100D01*
X129597218Y-55292812D01*
X129630754Y-55276025D01*
X129634250Y-55275900D01*
X134309190Y-55275900D01*
X134319461Y-55277575D01*
X134319466Y-55277546D01*
X134323960Y-55278172D01*
X134323961Y-55278171D01*
X134323965Y-55278173D01*
X134367018Y-55276182D01*
X134372576Y-55275926D01*
X134373707Y-55275900D01*
X134394042Y-55275900D01*
X134394044Y-55275900D01*
X134399240Y-55274927D01*
X134402610Y-55274537D01*
X134412010Y-55274102D01*
X134436192Y-55272985D01*
X134450493Y-55266669D01*
X134461271Y-55263332D01*
X134476633Y-55260461D01*
X134505224Y-55242758D01*
X134508206Y-55241186D01*
X134538965Y-55227606D01*
X134550019Y-55216550D01*
X134558862Y-55209546D01*
X134572152Y-55201319D01*
X134592415Y-55174485D01*
X134594625Y-55171944D01*
X136587269Y-53179300D01*
X140052895Y-53179300D01*
X140072080Y-53398586D01*
X140072081Y-53398592D01*
X140129048Y-53611197D01*
X140129049Y-53611202D01*
X140222075Y-53810694D01*
X140222080Y-53810704D01*
X140264501Y-53871286D01*
X140264502Y-53871286D01*
X140869351Y-53266437D01*
X140903999Y-53252085D01*
X140938647Y-53266437D01*
X140951499Y-53289054D01*
X140962895Y-53334055D01*
X141032259Y-53440225D01*
X141032260Y-53440226D01*
X141032261Y-53440227D01*
X141132338Y-53518120D01*
X141132341Y-53518122D01*
X141160710Y-53527860D01*
X141209775Y-53544704D01*
X141237885Y-53569528D01*
X141240209Y-53606959D01*
X141228512Y-53625697D01*
X140623712Y-54230496D01*
X140623712Y-54230497D01*
X140684295Y-54272919D01*
X140684305Y-54272924D01*
X140883797Y-54365950D01*
X140883802Y-54365951D01*
X141096407Y-54422918D01*
X141096413Y-54422919D01*
X141315699Y-54442104D01*
X141534986Y-54422919D01*
X141534992Y-54422918D01*
X141747597Y-54365951D01*
X141747602Y-54365949D01*
X141947094Y-54272925D01*
X141947101Y-54272921D01*
X142007686Y-54230497D01*
X142007686Y-54230496D01*
X141405330Y-53628140D01*
X141390978Y-53593492D01*
X141405330Y-53558844D01*
X141431912Y-53545161D01*
X141440792Y-53543680D01*
X141552328Y-53483320D01*
X141638222Y-53390014D01*
X141684846Y-53283719D01*
X141711906Y-53257755D01*
X141749400Y-53258530D01*
X141764366Y-53268755D01*
X142366896Y-53871286D01*
X142366897Y-53871286D01*
X142409321Y-53810701D01*
X142409325Y-53810694D01*
X142502349Y-53611202D01*
X142502351Y-53611197D01*
X142559318Y-53398592D01*
X142559319Y-53398586D01*
X142578504Y-53179300D01*
X142900601Y-53179300D01*
X142918953Y-53365631D01*
X142918953Y-53365632D01*
X142973304Y-53544802D01*
X143061563Y-53709924D01*
X143061568Y-53709931D01*
X143097366Y-53753550D01*
X143180343Y-53854657D01*
X143249427Y-53911353D01*
X143325068Y-53973431D01*
X143325075Y-53973436D01*
X143490199Y-54061696D01*
X143669369Y-54116047D01*
X143837347Y-54132591D01*
X143855699Y-54134399D01*
X143855699Y-54134398D01*
X143855700Y-54134399D01*
X144042031Y-54116047D01*
X144221201Y-54061696D01*
X144386325Y-53973436D01*
X144531057Y-53854657D01*
X144649836Y-53709925D01*
X144738096Y-53544801D01*
X144792447Y-53365631D01*
X144810799Y-53179300D01*
X145440601Y-53179300D01*
X145458953Y-53365631D01*
X145458953Y-53365632D01*
X145513304Y-53544802D01*
X145601563Y-53709924D01*
X145601568Y-53709931D01*
X145637366Y-53753550D01*
X145720343Y-53854657D01*
X145789427Y-53911353D01*
X145865068Y-53973431D01*
X145865075Y-53973436D01*
X146030199Y-54061696D01*
X146209369Y-54116047D01*
X146377346Y-54132591D01*
X146395699Y-54134399D01*
X146395699Y-54134398D01*
X146395700Y-54134399D01*
X146582031Y-54116047D01*
X146761201Y-54061696D01*
X146926325Y-53973436D01*
X146956042Y-53949048D01*
X147985200Y-53949048D01*
X147996833Y-54007531D01*
X148003071Y-54016866D01*
X148041147Y-54073852D01*
X148067712Y-54091601D01*
X148107469Y-54118167D01*
X148165952Y-54129800D01*
X149440933Y-54129800D01*
X149475581Y-54144152D01*
X150358148Y-55026719D01*
X150372500Y-55061366D01*
X150372500Y-64174269D01*
X150358148Y-64208917D01*
X150349992Y-64215490D01*
X150291072Y-64253356D01*
X150196825Y-64362123D01*
X150196824Y-64362125D01*
X150137033Y-64493045D01*
X150116553Y-64635497D01*
X150116553Y-64635502D01*
X150137033Y-64777954D01*
X150158467Y-64824886D01*
X150196823Y-64908873D01*
X150196824Y-64908874D01*
X150196825Y-64908876D01*
X150270682Y-64994112D01*
X150291072Y-65017643D01*
X150412147Y-65095453D01*
X150478392Y-65114904D01*
X150550234Y-65135999D01*
X150550237Y-65135999D01*
X150550239Y-65136000D01*
X150550240Y-65136000D01*
X150694160Y-65136000D01*
X150694161Y-65136000D01*
X150694163Y-65135999D01*
X150694165Y-65135999D01*
X150716995Y-65129295D01*
X150832253Y-65095453D01*
X150953328Y-65017643D01*
X151047577Y-64908873D01*
X151107365Y-64777957D01*
X151107365Y-64777955D01*
X151107366Y-64777954D01*
X151127847Y-64635502D01*
X151127847Y-64635497D01*
X151107366Y-64493045D01*
X151097991Y-64472516D01*
X151047577Y-64362127D01*
X150994155Y-64300474D01*
X150985468Y-64290448D01*
X150973500Y-64258360D01*
X150973500Y-55813602D01*
X153697953Y-55813602D01*
X153718433Y-55956054D01*
X153729472Y-55980225D01*
X153778223Y-56086973D01*
X153778224Y-56086974D01*
X153778225Y-56086976D01*
X153833873Y-56151197D01*
X153872472Y-56195743D01*
X153993547Y-56273553D01*
X154070385Y-56296114D01*
X154131634Y-56314099D01*
X154131637Y-56314099D01*
X154131639Y-56314100D01*
X154131640Y-56314100D01*
X154275560Y-56314100D01*
X154275561Y-56314100D01*
X154275563Y-56314099D01*
X154275565Y-56314099D01*
X154298395Y-56307395D01*
X154413653Y-56273553D01*
X154534728Y-56195743D01*
X154590817Y-56131012D01*
X154624354Y-56114225D01*
X154627850Y-56114100D01*
X154871633Y-56114100D01*
X154906281Y-56128452D01*
X161610348Y-62832519D01*
X161624700Y-62867167D01*
X161624700Y-66844832D01*
X161610348Y-66879480D01*
X160795880Y-67693948D01*
X160761232Y-67708300D01*
X160634034Y-67708300D01*
X160495949Y-67748846D01*
X160374871Y-67826657D01*
X160280625Y-67935423D01*
X160280624Y-67935425D01*
X160220833Y-68066345D01*
X160200353Y-68208797D01*
X160200353Y-68208802D01*
X160220833Y-68351254D01*
X160252935Y-68421546D01*
X160280623Y-68482173D01*
X160280624Y-68482174D01*
X160280625Y-68482176D01*
X160374871Y-68590942D01*
X160374872Y-68590943D01*
X160495947Y-68668753D01*
X160564719Y-68688946D01*
X160634034Y-68709299D01*
X160634037Y-68709299D01*
X160634039Y-68709300D01*
X160634040Y-68709300D01*
X160777960Y-68709300D01*
X160777961Y-68709300D01*
X160777963Y-68709299D01*
X160777965Y-68709299D01*
X160800795Y-68702595D01*
X160916053Y-68668753D01*
X161037128Y-68590943D01*
X161131377Y-68482173D01*
X161191165Y-68351257D01*
X161191165Y-68351255D01*
X161191166Y-68351254D01*
X161211647Y-68208801D01*
X161211647Y-68208800D01*
X161210985Y-68204194D01*
X161204995Y-68162541D01*
X161214269Y-68126206D01*
X161218841Y-68120928D01*
X162097372Y-67242397D01*
X162105821Y-67236320D01*
X162105803Y-67236296D01*
X162109424Y-67233561D01*
X162109425Y-67233559D01*
X162109428Y-67233558D01*
X162142222Y-67197583D01*
X162142982Y-67196787D01*
X162157374Y-67182397D01*
X162160364Y-67178031D01*
X162162468Y-67175376D01*
X162168243Y-67169041D01*
X162185116Y-67150533D01*
X162190763Y-67135956D01*
X162196025Y-67125971D01*
X162204856Y-67113081D01*
X162212551Y-67080360D01*
X162213556Y-67077119D01*
X162220050Y-67060356D01*
X162225700Y-67045773D01*
X162225700Y-67030144D01*
X162227002Y-67018925D01*
X162227513Y-67016753D01*
X162230579Y-67003719D01*
X162225934Y-66970426D01*
X162225700Y-66967040D01*
X162225700Y-62779411D01*
X162227375Y-62769142D01*
X162227345Y-62769138D01*
X162227971Y-62764640D01*
X162227973Y-62764636D01*
X162225726Y-62716025D01*
X162225700Y-62714894D01*
X162225700Y-62694557D01*
X162225700Y-62694556D01*
X162224726Y-62689353D01*
X162224336Y-62685984D01*
X162224019Y-62679116D01*
X162222785Y-62652409D01*
X162216472Y-62638111D01*
X162213131Y-62627321D01*
X162210261Y-62611967D01*
X162210260Y-62611964D01*
X162192566Y-62583389D01*
X162190986Y-62580391D01*
X162177406Y-62549635D01*
X162177404Y-62549633D01*
X162177402Y-62549630D01*
X162166358Y-62538586D01*
X162159346Y-62529734D01*
X162151120Y-62516450D01*
X162151119Y-62516448D01*
X162151117Y-62516446D01*
X162151116Y-62516445D01*
X162124293Y-62496190D01*
X162121730Y-62493959D01*
X155269199Y-55641428D01*
X155263118Y-55632977D01*
X155263094Y-55632996D01*
X155260359Y-55629374D01*
X155260358Y-55629372D01*
X155224373Y-55596567D01*
X155223598Y-55595827D01*
X155216388Y-55588617D01*
X155209200Y-55581428D01*
X155209194Y-55581423D01*
X155206039Y-55579262D01*
X155204837Y-55578439D01*
X155202178Y-55576333D01*
X155177333Y-55553684D01*
X155177331Y-55553683D01*
X155162755Y-55548036D01*
X155152766Y-55542770D01*
X155139882Y-55533944D01*
X155139876Y-55533942D01*
X155107167Y-55526248D01*
X155103923Y-55525244D01*
X155081506Y-55516560D01*
X155072573Y-55513100D01*
X155072572Y-55513100D01*
X155056946Y-55513100D01*
X155045727Y-55511798D01*
X155030519Y-55508221D01*
X154997227Y-55512865D01*
X154993841Y-55513100D01*
X154627850Y-55513100D01*
X154593202Y-55498748D01*
X154590818Y-55496188D01*
X154534728Y-55431457D01*
X154533938Y-55430949D01*
X154413653Y-55353647D01*
X154412945Y-55353439D01*
X154275565Y-55313100D01*
X154275561Y-55313100D01*
X154131639Y-55313100D01*
X154131634Y-55313100D01*
X153993549Y-55353646D01*
X153993547Y-55353646D01*
X153993547Y-55353647D01*
X153987485Y-55357543D01*
X153872471Y-55431457D01*
X153778225Y-55540223D01*
X153778224Y-55540225D01*
X153718433Y-55671145D01*
X153697953Y-55813597D01*
X153697953Y-55813602D01*
X150973500Y-55813602D01*
X150973500Y-54973610D01*
X150975175Y-54963341D01*
X150975145Y-54963337D01*
X150975771Y-54958839D01*
X150975773Y-54958835D01*
X150973526Y-54910224D01*
X150973500Y-54909093D01*
X150973500Y-54888757D01*
X150973500Y-54888756D01*
X150972526Y-54883553D01*
X150972136Y-54880184D01*
X150970585Y-54846608D01*
X150970583Y-54846603D01*
X150964272Y-54832310D01*
X150960932Y-54821527D01*
X150958061Y-54806167D01*
X150940367Y-54777589D01*
X150938783Y-54774584D01*
X150934198Y-54764201D01*
X150925206Y-54743835D01*
X150925205Y-54743834D01*
X150925205Y-54743833D01*
X150914158Y-54732786D01*
X150907146Y-54723934D01*
X150898920Y-54710650D01*
X150898919Y-54710648D01*
X150898917Y-54710646D01*
X150898916Y-54710645D01*
X150872093Y-54690390D01*
X150869530Y-54688159D01*
X150546771Y-54365400D01*
X156195817Y-54365400D01*
X156211857Y-54528252D01*
X156216100Y-54571334D01*
X156216100Y-54571335D01*
X156232585Y-54625680D01*
X156268426Y-54743833D01*
X156276169Y-54769356D01*
X156279797Y-54776144D01*
X156373715Y-54951850D01*
X156504990Y-55111810D01*
X156664950Y-55243085D01*
X156847446Y-55340632D01*
X157045466Y-55400700D01*
X157184590Y-55414402D01*
X157199791Y-55415900D01*
X157199792Y-55415900D01*
X157303009Y-55415900D01*
X157316846Y-55414537D01*
X157457334Y-55400700D01*
X157655354Y-55340632D01*
X157837850Y-55243085D01*
X157997810Y-55111810D01*
X158129085Y-54951850D01*
X158226632Y-54769354D01*
X158286700Y-54571334D01*
X158306983Y-54365400D01*
X158306476Y-54360254D01*
X158297874Y-54272919D01*
X158286700Y-54159466D01*
X158226632Y-53961446D01*
X158129085Y-53778950D01*
X157997810Y-53618990D01*
X157837850Y-53487715D01*
X157655354Y-53390168D01*
X157457334Y-53330100D01*
X157457333Y-53330100D01*
X157303009Y-53314900D01*
X157303008Y-53314900D01*
X157199792Y-53314900D01*
X157199791Y-53314900D01*
X157045465Y-53330100D01*
X157045464Y-53330100D01*
X156928331Y-53365632D01*
X156847961Y-53390012D01*
X156847443Y-53390169D01*
X156664948Y-53487716D01*
X156504990Y-53618990D01*
X156373716Y-53778948D01*
X156276169Y-53961443D01*
X156216100Y-54159464D01*
X156216100Y-54159465D01*
X156196324Y-54360254D01*
X156195817Y-54365400D01*
X150546771Y-54365400D01*
X149900552Y-53719181D01*
X149886200Y-53684533D01*
X149886200Y-52409555D01*
X149886200Y-52409552D01*
X149874567Y-52351069D01*
X149851074Y-52315910D01*
X157013400Y-52315910D01*
X157024005Y-52419721D01*
X157079742Y-52587925D01*
X157172764Y-52738738D01*
X157298061Y-52864035D01*
X157448874Y-52957057D01*
X157617078Y-53012794D01*
X157720890Y-53023400D01*
X158497400Y-53023400D01*
X158497400Y-52046628D01*
X158511752Y-52011980D01*
X158546400Y-51997628D01*
X158561543Y-52000027D01*
X158563249Y-52000582D01*
X158704236Y-52015400D01*
X158704237Y-52015400D01*
X158798563Y-52015400D01*
X158798564Y-52015400D01*
X158939551Y-52000582D01*
X158941252Y-52000029D01*
X158941908Y-52000080D01*
X158942062Y-52000048D01*
X158942071Y-52000093D01*
X158978637Y-52002964D01*
X159002999Y-52031477D01*
X159005400Y-52046628D01*
X159005400Y-53023400D01*
X159781910Y-53023400D01*
X159885721Y-53012794D01*
X160053925Y-52957057D01*
X160204738Y-52864035D01*
X160330035Y-52738738D01*
X160423057Y-52587925D01*
X160478794Y-52419721D01*
X160489400Y-52315910D01*
X160489400Y-51369400D01*
X159678027Y-51369400D01*
X159643379Y-51355048D01*
X159629027Y-51320400D01*
X159630098Y-51310212D01*
X159651400Y-51209994D01*
X159651400Y-51020805D01*
X159630098Y-50920588D01*
X159636932Y-50883713D01*
X159667839Y-50862471D01*
X159678027Y-50861400D01*
X160489400Y-50861400D01*
X160489400Y-49914889D01*
X160478794Y-49811078D01*
X160423057Y-49642874D01*
X160330035Y-49492061D01*
X160204738Y-49366764D01*
X160053925Y-49273742D01*
X159885721Y-49218005D01*
X159781910Y-49207400D01*
X159005400Y-49207400D01*
X159005400Y-50184171D01*
X158991048Y-50218819D01*
X158956400Y-50233171D01*
X158941262Y-50230774D01*
X158939555Y-50230219D01*
X158939553Y-50230218D01*
X158939551Y-50230218D01*
X158798564Y-50215400D01*
X158704236Y-50215400D01*
X158563249Y-50230218D01*
X158563247Y-50230218D01*
X158563244Y-50230219D01*
X158561538Y-50230774D01*
X158560881Y-50230722D01*
X158560741Y-50230752D01*
X158560732Y-50230710D01*
X158524150Y-50227828D01*
X158499797Y-50199309D01*
X158497400Y-50184171D01*
X158497400Y-49207400D01*
X157720890Y-49207400D01*
X157617078Y-49218005D01*
X157448874Y-49273742D01*
X157298061Y-49366764D01*
X157172764Y-49492061D01*
X157079742Y-49642874D01*
X157024005Y-49811078D01*
X157013400Y-49914889D01*
X157013400Y-50861400D01*
X157824773Y-50861400D01*
X157859421Y-50875752D01*
X157873773Y-50910400D01*
X157872702Y-50920588D01*
X157851400Y-51020805D01*
X157851400Y-51209994D01*
X157872702Y-51310212D01*
X157865868Y-51347087D01*
X157834961Y-51368329D01*
X157824773Y-51369400D01*
X157013400Y-51369400D01*
X157013400Y-52315910D01*
X149851074Y-52315910D01*
X149836612Y-52294266D01*
X149830252Y-52284747D01*
X149790495Y-52258182D01*
X149763931Y-52240433D01*
X149705448Y-52228800D01*
X148165952Y-52228800D01*
X148107469Y-52240432D01*
X148107469Y-52240433D01*
X148041147Y-52284747D01*
X147996833Y-52351069D01*
X147985200Y-52409552D01*
X147985200Y-53949048D01*
X146956042Y-53949048D01*
X147071057Y-53854657D01*
X147189836Y-53709925D01*
X147278096Y-53544801D01*
X147332447Y-53365631D01*
X147350799Y-53179300D01*
X147332447Y-52992969D01*
X147278096Y-52813799D01*
X147277421Y-52812537D01*
X147189836Y-52648675D01*
X147189831Y-52648668D01*
X147118826Y-52562150D01*
X147071057Y-52503943D01*
X146963932Y-52416027D01*
X146926331Y-52385168D01*
X146926324Y-52385163D01*
X146761202Y-52296904D01*
X146582031Y-52242553D01*
X146395700Y-52224201D01*
X146209368Y-52242553D01*
X146209367Y-52242553D01*
X146030197Y-52296904D01*
X145865075Y-52385163D01*
X145865068Y-52385168D01*
X145720343Y-52503943D01*
X145601568Y-52648668D01*
X145601563Y-52648675D01*
X145513304Y-52813797D01*
X145458953Y-52992967D01*
X145458953Y-52992968D01*
X145440601Y-53179299D01*
X145440601Y-53179300D01*
X144810799Y-53179300D01*
X144792447Y-52992969D01*
X144738096Y-52813799D01*
X144737421Y-52812537D01*
X144649836Y-52648675D01*
X144649831Y-52648668D01*
X144578826Y-52562150D01*
X144531057Y-52503943D01*
X144423932Y-52416027D01*
X144386331Y-52385168D01*
X144386324Y-52385163D01*
X144221202Y-52296904D01*
X144042031Y-52242553D01*
X143855700Y-52224201D01*
X143669368Y-52242553D01*
X143669367Y-52242553D01*
X143490197Y-52296904D01*
X143325075Y-52385163D01*
X143325068Y-52385168D01*
X143180343Y-52503943D01*
X143061568Y-52648668D01*
X143061563Y-52648675D01*
X142973304Y-52813797D01*
X142918953Y-52992967D01*
X142918953Y-52992968D01*
X142900601Y-53179299D01*
X142900601Y-53179300D01*
X142578504Y-53179300D01*
X142578504Y-53179299D01*
X142559319Y-52960013D01*
X142559318Y-52960007D01*
X142502351Y-52747402D01*
X142502350Y-52747397D01*
X142409324Y-52547906D01*
X142409320Y-52547898D01*
X142366897Y-52487312D01*
X141762048Y-53092160D01*
X141727400Y-53106512D01*
X141692752Y-53092160D01*
X141679900Y-53069542D01*
X141668505Y-53024545D01*
X141599141Y-52918375D01*
X141599138Y-52918373D01*
X141599138Y-52918372D01*
X141499061Y-52840479D01*
X141499058Y-52840477D01*
X141421625Y-52813895D01*
X141393514Y-52789071D01*
X141391190Y-52751640D01*
X141402887Y-52732902D01*
X142007686Y-52128102D01*
X142007686Y-52128099D01*
X141947110Y-52085684D01*
X141947094Y-52085675D01*
X141747602Y-51992649D01*
X141747597Y-51992648D01*
X141534992Y-51935681D01*
X141534986Y-51935680D01*
X141315700Y-51916495D01*
X141096413Y-51935680D01*
X141096407Y-51935681D01*
X140883802Y-51992648D01*
X140883797Y-51992649D01*
X140684299Y-52085677D01*
X140684295Y-52085680D01*
X140623712Y-52128100D01*
X140623712Y-52128101D01*
X141226069Y-52730459D01*
X141240421Y-52765107D01*
X141226069Y-52799755D01*
X141199488Y-52813438D01*
X141190608Y-52814920D01*
X141190607Y-52814920D01*
X141190604Y-52814921D01*
X141079073Y-52875278D01*
X141079070Y-52875281D01*
X140993177Y-52968587D01*
X140946554Y-53074879D01*
X140919493Y-53100844D01*
X140881998Y-53100069D01*
X140867033Y-53089844D01*
X140264501Y-52487312D01*
X140264500Y-52487312D01*
X140222080Y-52547895D01*
X140222077Y-52547899D01*
X140129049Y-52747397D01*
X140129048Y-52747402D01*
X140072081Y-52960007D01*
X140072080Y-52960013D01*
X140052895Y-53179300D01*
X136587269Y-53179300D01*
X140140518Y-49626052D01*
X140175167Y-49611700D01*
X144025833Y-49611700D01*
X144060481Y-49626052D01*
X145816750Y-51382321D01*
X145831102Y-51416969D01*
X145830603Y-51423942D01*
X145823953Y-51470198D01*
X145823953Y-51470202D01*
X145844433Y-51612654D01*
X145872174Y-51673397D01*
X145904223Y-51743573D01*
X145904224Y-51743574D01*
X145904225Y-51743576D01*
X145952473Y-51799257D01*
X145998472Y-51852343D01*
X146119547Y-51930153D01*
X146196385Y-51952714D01*
X146257634Y-51970699D01*
X146257637Y-51970699D01*
X146257639Y-51970700D01*
X146257640Y-51970700D01*
X146401560Y-51970700D01*
X146401561Y-51970700D01*
X146401563Y-51970699D01*
X146401565Y-51970699D01*
X146430850Y-51962100D01*
X146539653Y-51930153D01*
X146660728Y-51852343D01*
X146754977Y-51743573D01*
X146814765Y-51612657D01*
X146814765Y-51612655D01*
X146814766Y-51612654D01*
X146835247Y-51470202D01*
X146835247Y-51470197D01*
X146814766Y-51327745D01*
X146806759Y-51310212D01*
X146754977Y-51196827D01*
X146744628Y-51184884D01*
X146660728Y-51088057D01*
X146609318Y-51055018D01*
X146539653Y-51010247D01*
X146539650Y-51010246D01*
X146401565Y-50969700D01*
X146401561Y-50969700D01*
X146274367Y-50969700D01*
X146239719Y-50955348D01*
X144430208Y-49145837D01*
X144415856Y-49111189D01*
X144430208Y-49076541D01*
X144464856Y-49062189D01*
X146158449Y-49062189D01*
X146193097Y-49076541D01*
X147411748Y-50295192D01*
X147426100Y-50329839D01*
X147426100Y-51244817D01*
X147411748Y-51279465D01*
X147403594Y-51286037D01*
X147395472Y-51291257D01*
X147395468Y-51291260D01*
X147301225Y-51400023D01*
X147301224Y-51400025D01*
X147241433Y-51530945D01*
X147220953Y-51673397D01*
X147220953Y-51673402D01*
X147241433Y-51815854D01*
X147273535Y-51886146D01*
X147301223Y-51946773D01*
X147301224Y-51946774D01*
X147301225Y-51946776D01*
X147374619Y-52031477D01*
X147395472Y-52055543D01*
X147516547Y-52133353D01*
X147593385Y-52155914D01*
X147654634Y-52173899D01*
X147654637Y-52173899D01*
X147654639Y-52173900D01*
X147654640Y-52173900D01*
X147798560Y-52173900D01*
X147798561Y-52173900D01*
X147798563Y-52173899D01*
X147798565Y-52173899D01*
X147838384Y-52162207D01*
X147936653Y-52133353D01*
X148057728Y-52055543D01*
X148151977Y-51946773D01*
X148211765Y-51815857D01*
X148211765Y-51815855D01*
X148211766Y-51815854D01*
X148232247Y-51673402D01*
X148232247Y-51673397D01*
X148211766Y-51530945D01*
X148184023Y-51470198D01*
X148151977Y-51400027D01*
X148151663Y-51399665D01*
X148057731Y-51291260D01*
X148057729Y-51291259D01*
X148057728Y-51291257D01*
X148049606Y-51286037D01*
X148028219Y-51255230D01*
X148027100Y-51244817D01*
X148027100Y-50242084D01*
X148028775Y-50231815D01*
X148028745Y-50231811D01*
X148029371Y-50227313D01*
X148029373Y-50227309D01*
X148027125Y-50178696D01*
X148027099Y-50177563D01*
X148027099Y-50173909D01*
X148027100Y-50157229D01*
X148026126Y-50152024D01*
X148025736Y-50148656D01*
X148024185Y-50115081D01*
X148017872Y-50100783D01*
X148014532Y-50090000D01*
X148011661Y-50074640D01*
X147993967Y-50046062D01*
X147992383Y-50043057D01*
X147978805Y-50012306D01*
X147967758Y-50001259D01*
X147960746Y-49992407D01*
X147952520Y-49979123D01*
X147952519Y-49979121D01*
X147952517Y-49979119D01*
X147952516Y-49979118D01*
X147925693Y-49958863D01*
X147923130Y-49956632D01*
X146556015Y-48589517D01*
X146549934Y-48581066D01*
X146549910Y-48581085D01*
X146547175Y-48577463D01*
X146547174Y-48577461D01*
X146511189Y-48544656D01*
X146510414Y-48543916D01*
X146502268Y-48535770D01*
X146496016Y-48529517D01*
X146496010Y-48529512D01*
X146492855Y-48527351D01*
X146491653Y-48526528D01*
X146488994Y-48524422D01*
X146464149Y-48501773D01*
X146464147Y-48501772D01*
X146449571Y-48496125D01*
X146439582Y-48490859D01*
X146426698Y-48482033D01*
X146426692Y-48482031D01*
X146393983Y-48474337D01*
X146390739Y-48473333D01*
X146368322Y-48464649D01*
X146359389Y-48461189D01*
X146359388Y-48461189D01*
X146343762Y-48461189D01*
X146332543Y-48459887D01*
X146317335Y-48456310D01*
X146284043Y-48460954D01*
X146280657Y-48461189D01*
X139874922Y-48461189D01*
X139864650Y-48459513D01*
X139864646Y-48459543D01*
X139860150Y-48458916D01*
X139860147Y-48458916D01*
X139856641Y-48459078D01*
X139837525Y-48459961D01*
X139802252Y-48447223D01*
X139786317Y-48413273D01*
X139799055Y-48378000D01*
X139805306Y-48372239D01*
X140013877Y-48211188D01*
X140201886Y-48016181D01*
X140359499Y-47795879D01*
X140483356Y-47554975D01*
X140570818Y-47298605D01*
X140620019Y-47032233D01*
X140624959Y-46897062D01*
X148351487Y-46897062D01*
X148381114Y-47166318D01*
X148449627Y-47428387D01*
X148555570Y-47677690D01*
X148696678Y-47908905D01*
X148696681Y-47908909D01*
X148696682Y-47908910D01*
X148869955Y-48117120D01*
X149071698Y-48297882D01*
X149297610Y-48447344D01*
X149542876Y-48562320D01*
X149802269Y-48640360D01*
X150070261Y-48679800D01*
X150070262Y-48679800D01*
X150174640Y-48679800D01*
X150209288Y-48694152D01*
X150223640Y-48728800D01*
X150209288Y-48763448D01*
X150192341Y-48774491D01*
X150084802Y-48816151D01*
X149895633Y-48933279D01*
X149731219Y-49083163D01*
X149731216Y-49083166D01*
X149597143Y-49260709D01*
X149597140Y-49260713D01*
X149497973Y-49459866D01*
X149497970Y-49459873D01*
X149437085Y-49673861D01*
X149437084Y-49673867D01*
X149416557Y-49895400D01*
X149437084Y-50116932D01*
X149437085Y-50116938D01*
X149497970Y-50330926D01*
X149497973Y-50330933D01*
X149597140Y-50530086D01*
X149597143Y-50530090D01*
X149731216Y-50707633D01*
X149731219Y-50707636D01*
X149895633Y-50857520D01*
X149895634Y-50857521D01*
X149895638Y-50857524D01*
X150084799Y-50974647D01*
X150292260Y-51055018D01*
X150510957Y-51095900D01*
X150510959Y-51095900D01*
X150733441Y-51095900D01*
X150733443Y-51095900D01*
X150952140Y-51055018D01*
X151159601Y-50974647D01*
X151348762Y-50857524D01*
X151513181Y-50707636D01*
X151647258Y-50530089D01*
X151746429Y-50330928D01*
X151746430Y-50330922D01*
X151747249Y-50328813D01*
X151748120Y-50329150D01*
X151769560Y-50302090D01*
X151793399Y-50295900D01*
X154546433Y-50295900D01*
X154573117Y-50287229D01*
X154580583Y-50285436D01*
X154608304Y-50281046D01*
X154633306Y-50268305D01*
X154640392Y-50265369D01*
X154667090Y-50256696D01*
X154689793Y-50240200D01*
X154696344Y-50236186D01*
X154721342Y-50223450D01*
X154741117Y-50203673D01*
X154741122Y-50203670D01*
X154743907Y-50200884D01*
X154743909Y-50200884D01*
X156463030Y-48481762D01*
X156497678Y-48467411D01*
X174720582Y-48467411D01*
X174755230Y-48481763D01*
X174767711Y-48503001D01*
X174796369Y-48603723D01*
X174796373Y-48603733D01*
X174895540Y-48802886D01*
X174895541Y-48802888D01*
X174895542Y-48802889D01*
X174929061Y-48847275D01*
X175029616Y-48980433D01*
X175029619Y-48980436D01*
X175194033Y-49130320D01*
X175194034Y-49130321D01*
X175194038Y-49130324D01*
X175383199Y-49247447D01*
X175590660Y-49327818D01*
X175809357Y-49368700D01*
X175809359Y-49368700D01*
X175881084Y-49368700D01*
X175915732Y-49383052D01*
X175930084Y-49417700D01*
X175915732Y-49452348D01*
X175910789Y-49456669D01*
X175698268Y-49618665D01*
X175698259Y-49618673D01*
X175513211Y-49810949D01*
X175513210Y-49810951D01*
X175359667Y-50029242D01*
X175241256Y-50268394D01*
X175160738Y-50522818D01*
X175160737Y-50522820D01*
X175120000Y-50786569D01*
X175120000Y-50836000D01*
X175931373Y-50836000D01*
X175966021Y-50850352D01*
X175980373Y-50885000D01*
X175979302Y-50895188D01*
X175958000Y-50995405D01*
X175958000Y-51184594D01*
X175979302Y-51284812D01*
X175972468Y-51321687D01*
X175941561Y-51342929D01*
X175931373Y-51344000D01*
X175121334Y-51344000D01*
X175135314Y-51526086D01*
X175196119Y-51785933D01*
X175295879Y-52033453D01*
X175432256Y-52262848D01*
X175432257Y-52262849D01*
X175602046Y-52468730D01*
X175602046Y-52468731D01*
X175801275Y-52646284D01*
X176025277Y-52791346D01*
X176268803Y-52900517D01*
X176526119Y-52971228D01*
X176604000Y-52980219D01*
X176604000Y-52021228D01*
X176618352Y-51986580D01*
X176653000Y-51972228D01*
X176668143Y-51974627D01*
X176669849Y-51975182D01*
X176810836Y-51990000D01*
X176810837Y-51990000D01*
X176905163Y-51990000D01*
X176905164Y-51990000D01*
X177046151Y-51975182D01*
X177047852Y-51974629D01*
X177048508Y-51974680D01*
X177048662Y-51974648D01*
X177048671Y-51974693D01*
X177085237Y-51977564D01*
X177109599Y-52006077D01*
X177112000Y-52021228D01*
X177112000Y-52981121D01*
X177319892Y-52940804D01*
X177319897Y-52940803D01*
X177571054Y-52850598D01*
X177805498Y-52723111D01*
X177805502Y-52723109D01*
X178017731Y-52561334D01*
X178017740Y-52561326D01*
X178202788Y-52369050D01*
X178202789Y-52369048D01*
X178356332Y-52150757D01*
X178474743Y-51911605D01*
X178555261Y-51657181D01*
X178555262Y-51657179D01*
X178595999Y-51393430D01*
X178596000Y-51393429D01*
X178596000Y-51344000D01*
X177784627Y-51344000D01*
X177749979Y-51329648D01*
X177735627Y-51295000D01*
X177736698Y-51284812D01*
X177758000Y-51184594D01*
X177758000Y-50995405D01*
X177736698Y-50895188D01*
X177743532Y-50858313D01*
X177774439Y-50837071D01*
X177784627Y-50836000D01*
X178594666Y-50836000D01*
X178594666Y-50835999D01*
X178580685Y-50653913D01*
X178519880Y-50394066D01*
X178420120Y-50146546D01*
X178283743Y-49917151D01*
X178283742Y-49917150D01*
X178113953Y-49711269D01*
X178113953Y-49711268D01*
X177914724Y-49533715D01*
X177690722Y-49388653D01*
X177447196Y-49279482D01*
X177189883Y-49208772D01*
X177189875Y-49208770D01*
X177112000Y-49199779D01*
X177112000Y-50158771D01*
X177097648Y-50193419D01*
X177063000Y-50207771D01*
X177047862Y-50205374D01*
X177046155Y-50204819D01*
X177046153Y-50204818D01*
X177046151Y-50204818D01*
X176905164Y-50190000D01*
X176810836Y-50190000D01*
X176669849Y-50204818D01*
X176669847Y-50204818D01*
X176669844Y-50204819D01*
X176668138Y-50205374D01*
X176667481Y-50205322D01*
X176667341Y-50205352D01*
X176667332Y-50205310D01*
X176630750Y-50202428D01*
X176606397Y-50173909D01*
X176604000Y-50158771D01*
X176604000Y-49184341D01*
X176618352Y-49149693D01*
X176627200Y-49142683D01*
X176647162Y-49130324D01*
X176811581Y-48980436D01*
X176945658Y-48802889D01*
X177044829Y-48603728D01*
X177105715Y-48389736D01*
X177126243Y-48168200D01*
X177105715Y-47946664D01*
X177044829Y-47732672D01*
X176945658Y-47533511D01*
X176811581Y-47355964D01*
X176748665Y-47298608D01*
X176647166Y-47206079D01*
X176647163Y-47206077D01*
X176647162Y-47206076D01*
X176458001Y-47088953D01*
X176457998Y-47088952D01*
X176457997Y-47088951D01*
X176310214Y-47031700D01*
X176250540Y-47008582D01*
X176031843Y-46967700D01*
X175809357Y-46967700D01*
X175590660Y-47008582D01*
X175590654Y-47008584D01*
X175590655Y-47008584D01*
X175383202Y-47088951D01*
X175194033Y-47206079D01*
X175029619Y-47355963D01*
X175029616Y-47355966D01*
X174895543Y-47533509D01*
X174895540Y-47533513D01*
X174842889Y-47639252D01*
X174814598Y-47663871D01*
X174799026Y-47666411D01*
X156248054Y-47666411D01*
X156221374Y-47675079D01*
X156213902Y-47676873D01*
X156186189Y-47681264D01*
X156186184Y-47681265D01*
X156161182Y-47694003D01*
X156154084Y-47696943D01*
X156127398Y-47705615D01*
X156104697Y-47722107D01*
X156098147Y-47726121D01*
X156073148Y-47738860D01*
X156073146Y-47738862D01*
X156050582Y-47761425D01*
X154331459Y-49480548D01*
X154296811Y-49494900D01*
X151793399Y-49494900D01*
X151758751Y-49480548D01*
X151747731Y-49461800D01*
X151747249Y-49461987D01*
X151746430Y-49459875D01*
X151725429Y-49417700D01*
X151647258Y-49260711D01*
X151563421Y-49149693D01*
X151513183Y-49083166D01*
X151513180Y-49083163D01*
X151348766Y-48933279D01*
X151348763Y-48933277D01*
X151348762Y-48933276D01*
X151159601Y-48816153D01*
X151159598Y-48816152D01*
X151159597Y-48816151D01*
X151023554Y-48763448D01*
X150952140Y-48735782D01*
X150752705Y-48698500D01*
X150721285Y-48678026D01*
X150713544Y-48641331D01*
X150734019Y-48609910D01*
X150744206Y-48604568D01*
X150746389Y-48603733D01*
X150993258Y-48509314D01*
X151229477Y-48376741D01*
X151350879Y-48282997D01*
X151443875Y-48211190D01*
X151443875Y-48211189D01*
X151443877Y-48211188D01*
X151631886Y-48016181D01*
X151789499Y-47795879D01*
X151913356Y-47554975D01*
X152000818Y-47298605D01*
X152050019Y-47032233D01*
X152056644Y-46850948D01*
X166842100Y-46850948D01*
X166853733Y-46909431D01*
X166868612Y-46931699D01*
X166898047Y-46975752D01*
X166924612Y-46993501D01*
X166964369Y-47020067D01*
X167022852Y-47031700D01*
X167022855Y-47031700D01*
X167562345Y-47031700D01*
X167562348Y-47031700D01*
X167620831Y-47020067D01*
X167687152Y-46975752D01*
X167731467Y-46909431D01*
X167743100Y-46850948D01*
X167743100Y-46509970D01*
X167754397Y-46482695D01*
X167752872Y-46481790D01*
X167752060Y-46479350D01*
X167828762Y-46479350D01*
X167840600Y-46502999D01*
X167855902Y-46609424D01*
X167909718Y-46727263D01*
X167980982Y-46809508D01*
X167994551Y-46825167D01*
X168103531Y-46895204D01*
X168151985Y-46909431D01*
X168227823Y-46931699D01*
X168227828Y-46931700D01*
X168357372Y-46931700D01*
X168357376Y-46931699D01*
X168377924Y-46925665D01*
X168481669Y-46895204D01*
X168590649Y-46825167D01*
X168675482Y-46727263D01*
X168729297Y-46609426D01*
X168729297Y-46609424D01*
X168729298Y-46609423D01*
X168747733Y-46481202D01*
X168747733Y-46481197D01*
X168729298Y-46352976D01*
X168681512Y-46248341D01*
X168675482Y-46235137D01*
X168590649Y-46137233D01*
X168481669Y-46067196D01*
X168481666Y-46067195D01*
X168357376Y-46030700D01*
X168357372Y-46030700D01*
X168227828Y-46030700D01*
X168227823Y-46030700D01*
X168103533Y-46067195D01*
X167994550Y-46137233D01*
X167919710Y-46223604D01*
X167913986Y-46230212D01*
X167909719Y-46235136D01*
X167909718Y-46235136D01*
X167855902Y-46352975D01*
X167840600Y-46459400D01*
X167828762Y-46479350D01*
X167752060Y-46479350D01*
X167743100Y-46452429D01*
X167743100Y-46111452D01*
X167731467Y-46052969D01*
X167704901Y-46013212D01*
X167687152Y-45986647D01*
X167647395Y-45960082D01*
X167620831Y-45942333D01*
X167562348Y-45930700D01*
X167022852Y-45930700D01*
X166964369Y-45942333D01*
X166898047Y-45986647D01*
X166853732Y-46052968D01*
X166853733Y-46052969D01*
X166842100Y-46111452D01*
X166842100Y-46850948D01*
X152056644Y-46850948D01*
X152059912Y-46761535D01*
X152030286Y-46492282D01*
X151961772Y-46230212D01*
X151855830Y-45980910D01*
X151721947Y-45761535D01*
X151714721Y-45749694D01*
X151644344Y-45665127D01*
X151541445Y-45541480D01*
X151339702Y-45360718D01*
X151113790Y-45211256D01*
X151113788Y-45211255D01*
X151113785Y-45211253D01*
X150868524Y-45096280D01*
X150609133Y-45018240D01*
X150341142Y-44978800D01*
X150341139Y-44978800D01*
X150138069Y-44978800D01*
X150138064Y-44978800D01*
X149935555Y-44993621D01*
X149935547Y-44993622D01*
X149775971Y-45029169D01*
X149671147Y-45052520D01*
X149671145Y-45052520D01*
X149671139Y-45052522D01*
X149418139Y-45149287D01*
X149181923Y-45281858D01*
X149181915Y-45281864D01*
X148967524Y-45447409D01*
X148967523Y-45447411D01*
X148779519Y-45642413D01*
X148779508Y-45642426D01*
X148621904Y-45862716D01*
X148621903Y-45862717D01*
X148498044Y-46103624D01*
X148498042Y-46103628D01*
X148410582Y-46359991D01*
X148361381Y-46626364D01*
X148361380Y-46626378D01*
X148351487Y-46897062D01*
X140624959Y-46897062D01*
X140629912Y-46761535D01*
X140600286Y-46492282D01*
X140531772Y-46230212D01*
X140425830Y-45980910D01*
X140291947Y-45761535D01*
X140284721Y-45749694D01*
X140214344Y-45665127D01*
X140111445Y-45541480D01*
X139909702Y-45360718D01*
X139683790Y-45211256D01*
X139683788Y-45211255D01*
X139683785Y-45211253D01*
X139438524Y-45096280D01*
X139179133Y-45018240D01*
X138911142Y-44978800D01*
X138911139Y-44978800D01*
X138708069Y-44978800D01*
X138708064Y-44978800D01*
X138505555Y-44993621D01*
X138505547Y-44993622D01*
X138345971Y-45029169D01*
X138241147Y-45052520D01*
X138241145Y-45052520D01*
X138241139Y-45052522D01*
X137988139Y-45149287D01*
X137751923Y-45281858D01*
X137751915Y-45281864D01*
X137537524Y-45447409D01*
X137537523Y-45447411D01*
X137349519Y-45642413D01*
X137349508Y-45642426D01*
X137191904Y-45862716D01*
X137191903Y-45862717D01*
X137068044Y-46103624D01*
X137068042Y-46103628D01*
X136980582Y-46359991D01*
X136931381Y-46626364D01*
X136931380Y-46626378D01*
X136921487Y-46897062D01*
X136951114Y-47166318D01*
X137019627Y-47428387D01*
X137125570Y-47677690D01*
X137266678Y-47908905D01*
X137266681Y-47908909D01*
X137266682Y-47908910D01*
X137439955Y-48117120D01*
X137641698Y-48297882D01*
X137867610Y-48447344D01*
X138112876Y-48562320D01*
X138372269Y-48640360D01*
X138640261Y-48679800D01*
X138640262Y-48679800D01*
X138843336Y-48679800D01*
X139045844Y-48664978D01*
X139045846Y-48664977D01*
X139045856Y-48664977D01*
X139310253Y-48606080D01*
X139481465Y-48540597D01*
X139518951Y-48541624D01*
X139544734Y-48568859D01*
X139543707Y-48606348D01*
X139533615Y-48621012D01*
X134256081Y-53898548D01*
X134221433Y-53912900D01*
X128809814Y-53912900D01*
X128799540Y-53911224D01*
X128799536Y-53911254D01*
X128795036Y-53910626D01*
X128746413Y-53912874D01*
X128745282Y-53912900D01*
X128724950Y-53912900D01*
X128719752Y-53913871D01*
X128716388Y-53914260D01*
X128682808Y-53915815D01*
X128668507Y-53922129D01*
X128657729Y-53925466D01*
X128642366Y-53928339D01*
X128642367Y-53928339D01*
X128613794Y-53946029D01*
X128610791Y-53947612D01*
X128580039Y-53961191D01*
X128580034Y-53961195D01*
X128568985Y-53972243D01*
X128560138Y-53979250D01*
X128546848Y-53987480D01*
X128526590Y-54014304D01*
X128524361Y-54016866D01*
X128258480Y-54282748D01*
X128223832Y-54297100D01*
X128096634Y-54297100D01*
X127958549Y-54337646D01*
X127958547Y-54337646D01*
X127958547Y-54337647D01*
X127928022Y-54357264D01*
X127837471Y-54415457D01*
X127743225Y-54524223D01*
X127743224Y-54524225D01*
X127683433Y-54655145D01*
X127662953Y-54797597D01*
X127662953Y-54797602D01*
X122396500Y-54797602D01*
X122396500Y-47192000D01*
X132540551Y-47192000D01*
X132560317Y-47443151D01*
X132619126Y-47688109D01*
X132634147Y-47724373D01*
X132715534Y-47920859D01*
X132847164Y-48135659D01*
X133010775Y-48327224D01*
X133083963Y-48389732D01*
X133202341Y-48490836D01*
X133417141Y-48622466D01*
X133649889Y-48718873D01*
X133894852Y-48777683D01*
X134146000Y-48797449D01*
X134397148Y-48777683D01*
X134642111Y-48718873D01*
X134874859Y-48622466D01*
X135089659Y-48490836D01*
X135281224Y-48327224D01*
X135444836Y-48135659D01*
X135576466Y-47920859D01*
X135672873Y-47688111D01*
X135731683Y-47443148D01*
X135751449Y-47192000D01*
X135731683Y-46940852D01*
X135672873Y-46695889D01*
X135576466Y-46463141D01*
X135444836Y-46248341D01*
X135349941Y-46137233D01*
X135281224Y-46056775D01*
X135089659Y-45893164D01*
X135039974Y-45862717D01*
X134874859Y-45761534D01*
X134642111Y-45665127D01*
X134642109Y-45665126D01*
X134397151Y-45606317D01*
X134208786Y-45591492D01*
X134146000Y-45586551D01*
X134145999Y-45586551D01*
X133894848Y-45606317D01*
X133649890Y-45665126D01*
X133469867Y-45739694D01*
X133445726Y-45749694D01*
X133417139Y-45761535D01*
X133202341Y-45893164D01*
X133202340Y-45893164D01*
X133010775Y-46056775D01*
X132847164Y-46248340D01*
X132847164Y-46248341D01*
X132778745Y-46359991D01*
X132715534Y-46463141D01*
X132699024Y-46502999D01*
X132619126Y-46695890D01*
X132560317Y-46940848D01*
X132540551Y-47192000D01*
X122396500Y-47192000D01*
X122396500Y-44741500D01*
X122410852Y-44706852D01*
X122445500Y-44692500D01*
X180346500Y-44692500D01*
X180381148Y-44706852D01*
G37*
G04 #@! TD.AperFunction*
G04 #@! TA.AperFunction,Conductor*
G36*
X174969148Y-57096852D02*
G01*
X174983500Y-57131500D01*
X174983500Y-57524833D01*
X174992169Y-57551514D01*
X174993963Y-57558989D01*
X174998353Y-57586703D01*
X175011090Y-57611700D01*
X175014032Y-57618803D01*
X175022703Y-57645490D01*
X175039195Y-57668189D01*
X175043212Y-57674743D01*
X175055951Y-57699743D01*
X175077890Y-57721682D01*
X175077917Y-57721711D01*
X176574838Y-59218631D01*
X176574848Y-59218640D01*
X176596658Y-59240450D01*
X176596660Y-59240451D01*
X176621654Y-59253186D01*
X176628209Y-59257203D01*
X176650908Y-59273695D01*
X176650909Y-59273695D01*
X176650910Y-59273696D01*
X176674068Y-59281220D01*
X176677592Y-59282365D01*
X176684699Y-59285308D01*
X176709696Y-59298046D01*
X176737411Y-59302435D01*
X176744879Y-59304228D01*
X176771567Y-59312900D01*
X176803481Y-59312900D01*
X180474900Y-59312900D01*
X180509548Y-59327252D01*
X180523900Y-59361900D01*
X180523900Y-61647211D01*
X180509548Y-61681859D01*
X179650673Y-62540733D01*
X179629830Y-62553100D01*
X179495149Y-62592646D01*
X179495147Y-62592646D01*
X179495147Y-62592647D01*
X179457961Y-62616545D01*
X179374071Y-62670457D01*
X179279825Y-62779223D01*
X179279824Y-62779225D01*
X179220033Y-62910145D01*
X179199553Y-63052597D01*
X179199553Y-63052602D01*
X179220033Y-63195054D01*
X179225717Y-63207499D01*
X179279823Y-63325973D01*
X179279824Y-63325974D01*
X179279825Y-63325976D01*
X179374071Y-63434742D01*
X179374072Y-63434743D01*
X179495147Y-63512553D01*
X179546734Y-63527700D01*
X179633234Y-63553099D01*
X179633237Y-63553099D01*
X179633239Y-63553100D01*
X179633240Y-63553100D01*
X179777160Y-63553100D01*
X179777161Y-63553100D01*
X179777163Y-63553099D01*
X179777165Y-63553099D01*
X179808388Y-63543931D01*
X179915253Y-63512553D01*
X180036328Y-63434743D01*
X180130577Y-63325973D01*
X180190365Y-63195057D01*
X180190365Y-63195055D01*
X180190366Y-63195054D01*
X180198325Y-63139689D01*
X180212176Y-63112015D01*
X181026053Y-62298138D01*
X181060700Y-62283787D01*
X181095348Y-62298139D01*
X181109700Y-62332787D01*
X181109700Y-67671472D01*
X181095348Y-67706120D01*
X181060700Y-67720472D01*
X181040590Y-67716155D01*
X180986026Y-67691598D01*
X180969348Y-67688541D01*
X180960808Y-67686161D01*
X180944966Y-67680153D01*
X180882276Y-67672539D01*
X180880814Y-67672317D01*
X180818705Y-67660935D01*
X180818698Y-67660934D01*
X180755656Y-67664748D01*
X180754176Y-67664793D01*
X179074954Y-67664793D01*
X179040306Y-67650441D01*
X179025954Y-67615793D01*
X179030382Y-67595437D01*
X179030633Y-67594887D01*
X179047365Y-67558250D01*
X179047365Y-67558248D01*
X179047366Y-67558247D01*
X179067847Y-67415795D01*
X179067847Y-67415790D01*
X179047366Y-67273338D01*
X179037875Y-67252556D01*
X178987577Y-67142420D01*
X178977385Y-67130658D01*
X178893328Y-67033650D01*
X178870415Y-67018925D01*
X178772253Y-66955840D01*
X178772250Y-66955839D01*
X178634165Y-66915293D01*
X178634161Y-66915293D01*
X178490239Y-66915293D01*
X178490234Y-66915293D01*
X178352149Y-66955839D01*
X178352147Y-66955839D01*
X178352147Y-66955840D01*
X178329446Y-66970429D01*
X178231071Y-67033650D01*
X178136825Y-67142416D01*
X178136824Y-67142418D01*
X178136823Y-67142419D01*
X178136823Y-67142420D01*
X178134081Y-67148425D01*
X178077033Y-67273338D01*
X178069859Y-67323246D01*
X178050723Y-67355499D01*
X178021358Y-67365273D01*
X177354168Y-67365273D01*
X177319520Y-67350921D01*
X177305168Y-67316273D01*
X177309596Y-67295917D01*
X177319908Y-67273338D01*
X177345565Y-67217157D01*
X177345565Y-67217155D01*
X177345566Y-67217154D01*
X177366047Y-67074702D01*
X177366047Y-67074697D01*
X177345566Y-66932245D01*
X177308853Y-66851856D01*
X177307514Y-66814377D01*
X177333069Y-66786928D01*
X177353425Y-66782500D01*
X178530243Y-66782500D01*
X178539803Y-66783442D01*
X178562199Y-66787897D01*
X178562200Y-66787897D01*
X178589332Y-66782500D01*
X178589333Y-66782500D01*
X178669695Y-66766515D01*
X178716052Y-66735540D01*
X178737822Y-66720994D01*
X178737822Y-66720993D01*
X178743126Y-66717450D01*
X178743129Y-66717446D01*
X178760824Y-66705624D01*
X178773516Y-66686626D01*
X178779601Y-66679213D01*
X178972993Y-66485821D01*
X179007640Y-66471470D01*
X179021444Y-66473455D01*
X179023639Y-66474100D01*
X179023644Y-66474100D01*
X179167560Y-66474100D01*
X179167561Y-66474100D01*
X179167563Y-66474099D01*
X179167565Y-66474099D01*
X179191932Y-66466944D01*
X179305653Y-66433553D01*
X179426728Y-66355743D01*
X179520977Y-66246973D01*
X179580765Y-66116057D01*
X179580765Y-66116055D01*
X179580766Y-66116054D01*
X179601247Y-65973602D01*
X179601247Y-65973597D01*
X179580766Y-65831145D01*
X179552938Y-65770212D01*
X179520977Y-65700227D01*
X179520183Y-65699311D01*
X179426728Y-65591457D01*
X179388608Y-65566959D01*
X179305653Y-65513647D01*
X179296107Y-65510844D01*
X179167565Y-65473100D01*
X179167561Y-65473100D01*
X179023639Y-65473100D01*
X179023634Y-65473100D01*
X178885549Y-65513646D01*
X178885547Y-65513646D01*
X178885547Y-65513647D01*
X178875928Y-65519829D01*
X178764471Y-65591457D01*
X178670225Y-65700223D01*
X178670224Y-65700225D01*
X178610433Y-65831145D01*
X178589953Y-65973597D01*
X178589953Y-65973601D01*
X178601047Y-66050767D01*
X178591772Y-66087105D01*
X178587194Y-66092388D01*
X178462435Y-66217148D01*
X178427788Y-66231500D01*
X177141828Y-66231500D01*
X177132270Y-66230559D01*
X177117317Y-66227584D01*
X177051629Y-66214518D01*
X177026861Y-66209592D01*
X177026860Y-66209592D01*
X177026859Y-66209592D01*
X177004464Y-66214047D01*
X176994904Y-66214989D01*
X176726751Y-66214989D01*
X176692103Y-66200637D01*
X176115056Y-65623590D01*
X176108962Y-65616164D01*
X176096276Y-65597177D01*
X176075274Y-65583144D01*
X176075274Y-65583143D01*
X176041449Y-65560543D01*
X176024615Y-65549295D01*
X176005145Y-65536285D01*
X175967752Y-65528847D01*
X175922418Y-65519829D01*
X175897650Y-65514903D01*
X175897649Y-65514903D01*
X175897648Y-65514903D01*
X175875253Y-65519358D01*
X175865693Y-65520300D01*
X172122229Y-65520300D01*
X172112669Y-65519358D01*
X172090273Y-65514903D01*
X172090272Y-65514903D01*
X172082447Y-65516459D01*
X172067009Y-65519530D01*
X172067007Y-65519530D01*
X172063140Y-65520300D01*
X172063139Y-65520300D01*
X171982777Y-65536285D01*
X171946473Y-65560543D01*
X171915925Y-65580954D01*
X171891647Y-65597176D01*
X171891646Y-65597177D01*
X171878958Y-65616165D01*
X171872866Y-65623588D01*
X170974508Y-66521948D01*
X170939860Y-66536300D01*
X168432354Y-66536300D01*
X168397706Y-66521948D01*
X168383354Y-66487300D01*
X168387782Y-66466944D01*
X168388549Y-66465265D01*
X168404765Y-66429757D01*
X168404765Y-66429755D01*
X168404766Y-66429754D01*
X168425247Y-66287302D01*
X168425247Y-66287297D01*
X168404766Y-66144845D01*
X168388468Y-66109159D01*
X168344977Y-66013927D01*
X168332689Y-65999746D01*
X168250728Y-65905157D01*
X168234374Y-65894647D01*
X168195822Y-65869871D01*
X168174434Y-65839066D01*
X168173314Y-65828650D01*
X168173314Y-65593278D01*
X168187666Y-65558630D01*
X168308320Y-65437976D01*
X168430176Y-65316119D01*
X168438623Y-65310043D01*
X168438605Y-65310019D01*
X168442225Y-65307284D01*
X168442225Y-65307283D01*
X168442230Y-65307281D01*
X168475034Y-65271295D01*
X168475753Y-65270542D01*
X168490177Y-65256120D01*
X168493173Y-65251744D01*
X168495261Y-65249107D01*
X168517918Y-65224256D01*
X168523562Y-65209682D01*
X168528830Y-65199690D01*
X168528853Y-65199657D01*
X168537659Y-65186803D01*
X168545355Y-65154075D01*
X168546358Y-65150840D01*
X168546794Y-65149716D01*
X168558502Y-65119496D01*
X168558502Y-65103868D01*
X168559804Y-65092648D01*
X168563381Y-65077441D01*
X168561862Y-65066554D01*
X168571289Y-65030257D01*
X168603622Y-65011256D01*
X168624196Y-65012770D01*
X168633944Y-65015633D01*
X168735562Y-65045471D01*
X168735565Y-65045471D01*
X168735567Y-65045472D01*
X168735568Y-65045472D01*
X168862761Y-65045472D01*
X168897409Y-65059824D01*
X168907267Y-65069682D01*
X168913348Y-65078132D01*
X168913372Y-65078115D01*
X168916107Y-65081736D01*
X168916109Y-65081739D01*
X168952093Y-65114543D01*
X168952866Y-65115281D01*
X168957081Y-65119496D01*
X168967266Y-65129682D01*
X168967269Y-65129684D01*
X168967270Y-65129685D01*
X168971629Y-65132671D01*
X168974288Y-65134778D01*
X168990675Y-65149716D01*
X168999134Y-65157427D01*
X169013713Y-65163074D01*
X169023697Y-65168338D01*
X169036586Y-65177167D01*
X169069313Y-65184864D01*
X169072531Y-65185860D01*
X169103894Y-65198011D01*
X169119521Y-65198011D01*
X169130739Y-65199312D01*
X169145948Y-65202890D01*
X169179239Y-65198245D01*
X169182626Y-65198011D01*
X169944406Y-65198011D01*
X169954677Y-65199686D01*
X169954682Y-65199657D01*
X169959176Y-65200283D01*
X169959177Y-65200282D01*
X169959181Y-65200284D01*
X170002234Y-65198293D01*
X170007792Y-65198037D01*
X170008923Y-65198011D01*
X170029258Y-65198011D01*
X170029260Y-65198011D01*
X170034456Y-65197038D01*
X170037826Y-65196648D01*
X170047226Y-65196213D01*
X170071408Y-65195096D01*
X170085709Y-65188780D01*
X170096487Y-65185443D01*
X170111849Y-65182572D01*
X170140440Y-65164869D01*
X170143422Y-65163297D01*
X170174181Y-65149717D01*
X170185235Y-65138661D01*
X170194078Y-65131657D01*
X170207368Y-65123430D01*
X170227631Y-65096596D01*
X170229849Y-65094047D01*
X170584845Y-64739052D01*
X170619494Y-64724700D01*
X172153904Y-64724700D01*
X172188552Y-64739051D01*
X172214386Y-64764884D01*
X172220465Y-64773333D01*
X172220490Y-64773315D01*
X172223225Y-64776937D01*
X172223226Y-64776939D01*
X172259200Y-64809734D01*
X172259973Y-64810472D01*
X172265744Y-64816243D01*
X172274383Y-64824883D01*
X172274386Y-64824885D01*
X172274387Y-64824886D01*
X172278751Y-64827875D01*
X172281412Y-64829983D01*
X172306251Y-64852627D01*
X172306252Y-64852627D01*
X172306253Y-64852628D01*
X172320823Y-64858272D01*
X172330811Y-64863535D01*
X172343704Y-64872368D01*
X172376425Y-64880063D01*
X172379663Y-64881066D01*
X172411011Y-64893211D01*
X172426638Y-64893211D01*
X172437857Y-64894513D01*
X172453061Y-64898089D01*
X172453062Y-64898089D01*
X172453066Y-64898090D01*
X172486360Y-64893445D01*
X172489745Y-64893211D01*
X179345711Y-64893211D01*
X179380359Y-64907563D01*
X179382743Y-64910123D01*
X179420071Y-64953203D01*
X179424872Y-64958743D01*
X179545947Y-65036553D01*
X179621074Y-65058612D01*
X179684034Y-65077099D01*
X179684037Y-65077099D01*
X179684039Y-65077100D01*
X179684040Y-65077100D01*
X179827960Y-65077100D01*
X179827961Y-65077100D01*
X179827963Y-65077099D01*
X179827965Y-65077099D01*
X179874619Y-65063400D01*
X179966053Y-65036553D01*
X180087128Y-64958743D01*
X180181377Y-64849973D01*
X180241165Y-64719057D01*
X180241165Y-64719055D01*
X180241166Y-64719054D01*
X180261647Y-64576600D01*
X180261647Y-64576597D01*
X180241166Y-64434145D01*
X180223620Y-64395726D01*
X180181377Y-64303227D01*
X180179791Y-64301397D01*
X180087128Y-64194457D01*
X180083341Y-64192023D01*
X179966053Y-64116647D01*
X179943637Y-64110065D01*
X179827965Y-64076100D01*
X179827961Y-64076100D01*
X179684039Y-64076100D01*
X179684034Y-64076100D01*
X179545949Y-64116646D01*
X179545947Y-64116646D01*
X179545947Y-64116647D01*
X179520612Y-64132929D01*
X179424871Y-64194457D01*
X179354822Y-64275299D01*
X179321286Y-64292086D01*
X179317790Y-64292211D01*
X177220924Y-64292211D01*
X177186276Y-64277859D01*
X177171924Y-64243211D01*
X177179435Y-64217141D01*
X177191587Y-64197801D01*
X177251725Y-64025938D01*
X177251727Y-64025929D01*
X177272112Y-63844999D01*
X177251727Y-63664070D01*
X177251725Y-63664061D01*
X177191589Y-63492205D01*
X177191586Y-63492198D01*
X177183647Y-63479562D01*
X176702456Y-63960753D01*
X176667808Y-63975105D01*
X176633160Y-63960753D01*
X176618808Y-63926105D01*
X176621993Y-63908728D01*
X176625322Y-63899950D01*
X176637923Y-63866725D01*
X176627525Y-63781087D01*
X176578519Y-63710091D01*
X176578518Y-63710090D01*
X176502134Y-63670000D01*
X176437753Y-63670000D01*
X176375242Y-63685407D01*
X176375238Y-63685409D01*
X176310668Y-63742613D01*
X176280077Y-63823274D01*
X176290879Y-63912244D01*
X176280808Y-63948370D01*
X176248142Y-63966793D01*
X176212016Y-63956722D01*
X176207588Y-63952798D01*
X175821500Y-63566710D01*
X175427456Y-63960753D01*
X175392808Y-63975105D01*
X175358160Y-63960753D01*
X175343808Y-63926105D01*
X175346993Y-63908728D01*
X175350322Y-63899950D01*
X175362923Y-63866725D01*
X175352525Y-63781087D01*
X175303519Y-63710091D01*
X175303518Y-63710090D01*
X175227134Y-63670000D01*
X175162753Y-63670000D01*
X175100242Y-63685407D01*
X175100238Y-63685409D01*
X175035668Y-63742613D01*
X175005077Y-63823274D01*
X175015879Y-63912244D01*
X175005808Y-63948370D01*
X174973142Y-63966793D01*
X174937016Y-63956722D01*
X174932588Y-63952798D01*
X174546500Y-63566710D01*
X174152456Y-63960753D01*
X174117808Y-63975105D01*
X174083160Y-63960753D01*
X174068808Y-63926105D01*
X174071993Y-63908728D01*
X174075322Y-63899950D01*
X174087923Y-63866725D01*
X174077525Y-63781087D01*
X174028519Y-63710091D01*
X174028518Y-63710090D01*
X173952134Y-63670000D01*
X173887753Y-63670000D01*
X173825242Y-63685407D01*
X173825238Y-63685409D01*
X173760668Y-63742613D01*
X173730077Y-63823274D01*
X173740879Y-63912244D01*
X173730808Y-63948370D01*
X173698142Y-63966793D01*
X173662016Y-63956722D01*
X173657588Y-63952798D01*
X173184352Y-63479562D01*
X173176409Y-63492204D01*
X173116274Y-63664061D01*
X173116272Y-63664070D01*
X173095887Y-63844999D01*
X173116272Y-64025929D01*
X173116274Y-64025938D01*
X173176412Y-64197801D01*
X173188565Y-64217141D01*
X173194848Y-64254114D01*
X173173146Y-64284700D01*
X173147076Y-64292211D01*
X172611951Y-64292211D01*
X172577303Y-64277859D01*
X172551472Y-64252028D01*
X172545391Y-64243577D01*
X172545367Y-64243596D01*
X172542632Y-64239974D01*
X172542631Y-64239972D01*
X172506646Y-64207167D01*
X172505871Y-64206427D01*
X172497245Y-64197801D01*
X172491473Y-64192028D01*
X172491467Y-64192023D01*
X172487666Y-64189420D01*
X172487110Y-64189039D01*
X172484451Y-64186933D01*
X172459606Y-64164284D01*
X172459604Y-64164283D01*
X172445028Y-64158636D01*
X172435039Y-64153370D01*
X172422155Y-64144544D01*
X172422149Y-64144542D01*
X172389440Y-64136848D01*
X172386196Y-64135844D01*
X172363779Y-64127160D01*
X172354846Y-64123700D01*
X172354845Y-64123700D01*
X172339219Y-64123700D01*
X172328000Y-64122398D01*
X172312792Y-64118821D01*
X172279500Y-64123465D01*
X172276114Y-64123700D01*
X170531738Y-64123700D01*
X170521466Y-64122024D01*
X170521462Y-64122054D01*
X170516967Y-64121427D01*
X170516963Y-64121427D01*
X170490820Y-64122635D01*
X170468352Y-64123674D01*
X170467221Y-64123700D01*
X170446883Y-64123700D01*
X170441682Y-64124671D01*
X170438314Y-64125061D01*
X170404735Y-64126615D01*
X170390431Y-64132929D01*
X170379651Y-64136267D01*
X170364297Y-64139138D01*
X170364295Y-64139138D01*
X170335721Y-64156829D01*
X170332718Y-64158412D01*
X170301966Y-64171991D01*
X170301961Y-64171995D01*
X170290912Y-64183043D01*
X170282065Y-64190050D01*
X170268775Y-64198279D01*
X170248518Y-64225104D01*
X170246288Y-64227666D01*
X169891297Y-64582659D01*
X169856649Y-64597011D01*
X169362175Y-64597011D01*
X169327527Y-64582659D01*
X169313175Y-64548011D01*
X169313175Y-64544970D01*
X169292694Y-64402517D01*
X169274248Y-64362127D01*
X169232905Y-64271599D01*
X169221433Y-64258360D01*
X169138656Y-64162829D01*
X169133905Y-64159776D01*
X169017581Y-64085019D01*
X169013767Y-64083899D01*
X168879493Y-64044472D01*
X168879489Y-64044472D01*
X168735567Y-64044472D01*
X168735562Y-64044472D01*
X168621307Y-64078021D01*
X168584019Y-64074012D01*
X168560487Y-64044811D01*
X168558502Y-64031006D01*
X168558502Y-63027202D01*
X169369753Y-63027202D01*
X169390233Y-63169654D01*
X169407517Y-63207499D01*
X169445186Y-63289982D01*
X169450023Y-63300572D01*
X169450025Y-63300576D01*
X169524326Y-63386324D01*
X169544272Y-63409343D01*
X169665347Y-63487153D01*
X169741656Y-63509559D01*
X169803434Y-63527699D01*
X169803437Y-63527699D01*
X169803439Y-63527700D01*
X169803440Y-63527700D01*
X169947360Y-63527700D01*
X169947361Y-63527700D01*
X169947363Y-63527699D01*
X169947365Y-63527699D01*
X169970195Y-63520995D01*
X170085453Y-63487153D01*
X170206528Y-63409343D01*
X170300777Y-63300573D01*
X170343283Y-63207499D01*
X173630710Y-63207499D01*
X173909000Y-63485789D01*
X173909001Y-63485789D01*
X174187289Y-63207499D01*
X174905710Y-63207499D01*
X175184000Y-63485789D01*
X175184001Y-63485789D01*
X175462289Y-63207499D01*
X176180710Y-63207499D01*
X176459000Y-63485789D01*
X176459001Y-63485789D01*
X176737289Y-63207499D01*
X176737289Y-63207498D01*
X176459000Y-62929210D01*
X176180710Y-63207498D01*
X176180710Y-63207499D01*
X175462289Y-63207499D01*
X175462289Y-63207498D01*
X175184000Y-62929210D01*
X174905710Y-63207498D01*
X174905710Y-63207499D01*
X174187289Y-63207499D01*
X174187289Y-63207498D01*
X173909000Y-62929210D01*
X173630710Y-63207498D01*
X173630710Y-63207499D01*
X170343283Y-63207499D01*
X170360565Y-63169657D01*
X170360565Y-63169655D01*
X170360566Y-63169654D01*
X170372663Y-63085511D01*
X170380399Y-63031701D01*
X170394250Y-63004030D01*
X170828281Y-62569999D01*
X173095887Y-62569999D01*
X173116272Y-62750929D01*
X173116274Y-62750938D01*
X173176407Y-62922790D01*
X173176411Y-62922798D01*
X173184351Y-62935435D01*
X173184352Y-62935435D01*
X173549789Y-62570000D01*
X173549789Y-62569999D01*
X173528065Y-62548275D01*
X173730077Y-62548275D01*
X173730663Y-62553100D01*
X173740474Y-62633912D01*
X173785333Y-62698900D01*
X173789481Y-62704909D01*
X173865866Y-62745000D01*
X173930247Y-62745000D01*
X173992760Y-62729592D01*
X174057332Y-62672386D01*
X174087923Y-62591725D01*
X174085285Y-62570000D01*
X174268210Y-62570000D01*
X174546499Y-62848289D01*
X174824789Y-62570000D01*
X174824789Y-62569999D01*
X174803065Y-62548275D01*
X175005077Y-62548275D01*
X175005663Y-62553100D01*
X175015474Y-62633912D01*
X175060333Y-62698900D01*
X175064481Y-62704909D01*
X175140866Y-62745000D01*
X175205247Y-62745000D01*
X175267760Y-62729592D01*
X175332332Y-62672386D01*
X175362923Y-62591725D01*
X175360285Y-62570000D01*
X175543210Y-62570000D01*
X175821499Y-62848289D01*
X176099789Y-62570000D01*
X176099789Y-62569999D01*
X176078065Y-62548275D01*
X176280077Y-62548275D01*
X176280663Y-62553100D01*
X176290474Y-62633912D01*
X176335333Y-62698900D01*
X176339481Y-62704909D01*
X176415866Y-62745000D01*
X176480247Y-62745000D01*
X176542760Y-62729592D01*
X176607332Y-62672386D01*
X176637923Y-62591725D01*
X176635285Y-62570000D01*
X176818210Y-62570000D01*
X177183646Y-62935436D01*
X177183646Y-62935435D01*
X177191588Y-62922798D01*
X177191588Y-62922796D01*
X177251725Y-62750938D01*
X177251727Y-62750929D01*
X177272112Y-62569999D01*
X177251727Y-62389070D01*
X177251725Y-62389061D01*
X177191589Y-62217205D01*
X177191586Y-62217198D01*
X177183647Y-62204562D01*
X176818210Y-62569999D01*
X176818210Y-62570000D01*
X176635285Y-62570000D01*
X176627525Y-62506087D01*
X176578519Y-62435091D01*
X176578518Y-62435090D01*
X176502134Y-62395000D01*
X176437753Y-62395000D01*
X176375242Y-62410407D01*
X176375238Y-62410409D01*
X176310668Y-62467613D01*
X176282557Y-62541737D01*
X176280077Y-62548275D01*
X176078065Y-62548275D01*
X175821501Y-62291710D01*
X175821500Y-62291710D01*
X175543210Y-62570000D01*
X175360285Y-62570000D01*
X175352525Y-62506087D01*
X175303519Y-62435091D01*
X175303518Y-62435090D01*
X175227134Y-62395000D01*
X175162753Y-62395000D01*
X175100242Y-62410407D01*
X175100238Y-62410409D01*
X175035668Y-62467613D01*
X175007557Y-62541737D01*
X175005077Y-62548275D01*
X174803065Y-62548275D01*
X174546501Y-62291710D01*
X174546500Y-62291710D01*
X174268210Y-62570000D01*
X174085285Y-62570000D01*
X174077525Y-62506087D01*
X174028519Y-62435091D01*
X174028518Y-62435090D01*
X173952134Y-62395000D01*
X173887753Y-62395000D01*
X173825242Y-62410407D01*
X173825238Y-62410409D01*
X173760668Y-62467613D01*
X173732557Y-62541737D01*
X173730077Y-62548275D01*
X173528065Y-62548275D01*
X173184352Y-62204562D01*
X173176409Y-62217204D01*
X173116274Y-62389061D01*
X173116272Y-62389070D01*
X173095887Y-62569999D01*
X170828281Y-62569999D01*
X171465780Y-61932500D01*
X173630710Y-61932500D01*
X173908999Y-62210789D01*
X174187289Y-61932500D01*
X174905710Y-61932500D01*
X175183999Y-62210789D01*
X175462289Y-61932500D01*
X176180710Y-61932500D01*
X176458999Y-62210789D01*
X176737289Y-61932500D01*
X176737289Y-61932499D01*
X176459001Y-61654210D01*
X176459000Y-61654210D01*
X176180710Y-61932500D01*
X175462289Y-61932500D01*
X175462289Y-61932499D01*
X175184001Y-61654210D01*
X175184000Y-61654210D01*
X174905710Y-61932500D01*
X174187289Y-61932500D01*
X174187289Y-61932499D01*
X173909001Y-61654210D01*
X173909000Y-61654210D01*
X173630710Y-61932499D01*
X173630710Y-61932500D01*
X171465780Y-61932500D01*
X172337940Y-61060341D01*
X172372589Y-61045989D01*
X173071035Y-61045989D01*
X173105683Y-61060341D01*
X173120035Y-61094989D01*
X173117285Y-61111172D01*
X173116275Y-61114058D01*
X173116272Y-61114070D01*
X173095887Y-61295000D01*
X173116272Y-61475929D01*
X173116274Y-61475938D01*
X173176407Y-61647790D01*
X173176411Y-61647798D01*
X173184351Y-61660435D01*
X173184352Y-61660435D01*
X173665543Y-61179246D01*
X173700191Y-61164894D01*
X173734839Y-61179246D01*
X173749191Y-61213894D01*
X173746007Y-61231270D01*
X173730076Y-61273274D01*
X173740474Y-61358912D01*
X173788276Y-61428163D01*
X173789481Y-61429909D01*
X173865866Y-61470000D01*
X173930247Y-61470000D01*
X173992760Y-61454592D01*
X174057332Y-61397386D01*
X174087923Y-61316725D01*
X174077525Y-61231087D01*
X174077524Y-61231086D01*
X174077120Y-61227755D01*
X174087191Y-61191630D01*
X174119857Y-61173206D01*
X174155982Y-61183277D01*
X174160411Y-61187201D01*
X174546499Y-61573289D01*
X174940543Y-61179246D01*
X174975191Y-61164894D01*
X175009839Y-61179246D01*
X175024191Y-61213894D01*
X175021007Y-61231270D01*
X175005076Y-61273274D01*
X175015474Y-61358912D01*
X175063276Y-61428163D01*
X175064481Y-61429909D01*
X175140866Y-61470000D01*
X175205247Y-61470000D01*
X175267760Y-61454592D01*
X175332332Y-61397386D01*
X175362923Y-61316725D01*
X175352525Y-61231087D01*
X175352524Y-61231086D01*
X175352120Y-61227755D01*
X175362191Y-61191630D01*
X175394857Y-61173206D01*
X175430982Y-61183277D01*
X175435411Y-61187201D01*
X175821499Y-61573289D01*
X176215543Y-61179246D01*
X176250191Y-61164894D01*
X176284839Y-61179246D01*
X176299191Y-61213894D01*
X176296007Y-61231270D01*
X176280076Y-61273274D01*
X176290474Y-61358912D01*
X176338276Y-61428163D01*
X176339481Y-61429909D01*
X176415866Y-61470000D01*
X176480247Y-61470000D01*
X176542760Y-61454592D01*
X176607332Y-61397386D01*
X176637923Y-61316725D01*
X176627525Y-61231087D01*
X176627524Y-61231086D01*
X176627120Y-61227755D01*
X176637191Y-61191630D01*
X176669857Y-61173206D01*
X176705982Y-61183277D01*
X176710411Y-61187201D01*
X177183646Y-61660436D01*
X177183646Y-61660435D01*
X177191588Y-61647798D01*
X177191588Y-61647796D01*
X177251725Y-61475938D01*
X177251727Y-61475929D01*
X177272112Y-61295000D01*
X177251727Y-61114070D01*
X177251724Y-61114058D01*
X177250715Y-61111172D01*
X177252818Y-61073728D01*
X177280782Y-61048739D01*
X177296965Y-61045989D01*
X179011411Y-61045989D01*
X179046059Y-61060341D01*
X179211747Y-61226029D01*
X179225600Y-61253704D01*
X179245433Y-61391654D01*
X179248051Y-61397386D01*
X179305223Y-61522573D01*
X179305224Y-61522574D01*
X179305225Y-61522576D01*
X179369704Y-61596989D01*
X179399472Y-61631343D01*
X179520547Y-61709153D01*
X179597385Y-61731714D01*
X179658634Y-61749699D01*
X179658637Y-61749699D01*
X179658639Y-61749700D01*
X179658640Y-61749700D01*
X179802560Y-61749700D01*
X179802561Y-61749700D01*
X179802563Y-61749699D01*
X179802565Y-61749699D01*
X179825395Y-61742995D01*
X179940653Y-61709153D01*
X180061728Y-61631343D01*
X180155977Y-61522573D01*
X180215765Y-61391657D01*
X180215765Y-61391655D01*
X180215766Y-61391654D01*
X180236247Y-61249202D01*
X180236247Y-61249197D01*
X180215766Y-61106745D01*
X180210123Y-61094389D01*
X180155977Y-60975827D01*
X180135671Y-60952393D01*
X180061728Y-60867057D01*
X179940653Y-60789247D01*
X179940650Y-60789246D01*
X179802565Y-60748700D01*
X179802561Y-60748700D01*
X179746077Y-60748700D01*
X179711429Y-60734348D01*
X179454025Y-60476943D01*
X179447651Y-60469094D01*
X179441564Y-60459777D01*
X179438326Y-60454820D01*
X179438324Y-60454818D01*
X179438322Y-60454816D01*
X179410546Y-60433198D01*
X179408275Y-60431193D01*
X179404196Y-60427114D01*
X179386450Y-60414444D01*
X179346015Y-60382972D01*
X179346013Y-60382971D01*
X179345741Y-60382878D01*
X179333191Y-60376417D01*
X179332958Y-60376250D01*
X179332956Y-60376249D01*
X179283843Y-60361627D01*
X179264294Y-60354916D01*
X179235377Y-60344989D01*
X179235376Y-60344989D01*
X179235094Y-60344989D01*
X179221110Y-60342951D01*
X179220843Y-60342871D01*
X179169658Y-60344989D01*
X172248539Y-60344989D01*
X172238484Y-60343946D01*
X172221796Y-60340447D01*
X172186865Y-60344801D01*
X172183834Y-60344989D01*
X172178071Y-60344989D01*
X172156560Y-60348578D01*
X172112054Y-60354126D01*
X172105717Y-60354916D01*
X172105713Y-60354917D01*
X172105454Y-60355044D01*
X172092019Y-60359348D01*
X172091738Y-60359394D01*
X172091726Y-60359398D01*
X172046666Y-60383784D01*
X172000627Y-60406291D01*
X172000625Y-60406292D01*
X172000416Y-60406502D01*
X171989111Y-60414931D01*
X171988852Y-60415071D01*
X171954153Y-60452764D01*
X169894570Y-62512348D01*
X169859922Y-62526700D01*
X169803434Y-62526700D01*
X169665349Y-62567246D01*
X169665347Y-62567246D01*
X169665347Y-62567247D01*
X169644660Y-62580542D01*
X169544271Y-62645057D01*
X169450025Y-62753823D01*
X169450024Y-62753825D01*
X169390233Y-62884745D01*
X169369753Y-63027197D01*
X169369753Y-63027202D01*
X168558502Y-63027202D01*
X168558502Y-60778130D01*
X168572854Y-60743482D01*
X168607502Y-60729130D01*
X168621307Y-60731115D01*
X168752181Y-60769543D01*
X168752184Y-60769543D01*
X168752186Y-60769544D01*
X168752187Y-60769544D01*
X168896107Y-60769544D01*
X168896108Y-60769544D01*
X168896110Y-60769543D01*
X168896112Y-60769543D01*
X168918942Y-60762839D01*
X169034200Y-60728997D01*
X169155275Y-60651187D01*
X169249524Y-60542417D01*
X169309312Y-60411501D01*
X169309312Y-60411499D01*
X169309313Y-60411498D01*
X169325643Y-60297905D01*
X169335041Y-60275348D01*
X169338631Y-60270595D01*
X169340839Y-60268057D01*
X169742772Y-59866124D01*
X169751221Y-59860047D01*
X169751203Y-59860023D01*
X169754825Y-59857287D01*
X169754825Y-59857286D01*
X169754828Y-59857285D01*
X169771017Y-59839525D01*
X169804963Y-59823588D01*
X169840237Y-59836323D01*
X169856176Y-59870271D01*
X169855730Y-59879507D01*
X169852353Y-59903001D01*
X169852353Y-59903002D01*
X169872833Y-60045454D01*
X169899848Y-60104607D01*
X169932623Y-60176373D01*
X169932624Y-60176374D01*
X169932625Y-60176376D01*
X169995254Y-60248654D01*
X170026872Y-60285143D01*
X170147947Y-60362953D01*
X170215806Y-60382878D01*
X170286034Y-60403499D01*
X170286037Y-60403499D01*
X170286039Y-60403500D01*
X170286040Y-60403500D01*
X170429960Y-60403500D01*
X170429961Y-60403500D01*
X170429963Y-60403499D01*
X170429965Y-60403499D01*
X170452795Y-60396795D01*
X170568053Y-60362953D01*
X170689128Y-60285143D01*
X170783377Y-60176373D01*
X170843165Y-60045457D01*
X170843165Y-60045455D01*
X170843166Y-60045454D01*
X170863647Y-59903001D01*
X170863647Y-59903000D01*
X170860269Y-59879507D01*
X170856995Y-59856741D01*
X170866269Y-59820406D01*
X170870841Y-59815128D01*
X173589119Y-57096852D01*
X173623768Y-57082500D01*
X174934500Y-57082500D01*
X174969148Y-57096852D01*
G37*
G04 #@! TD.AperFunction*
G04 #@! TA.AperFunction,Conductor*
G36*
X145551570Y-61611341D02*
G01*
X145616026Y-61675797D01*
X145630378Y-61710445D01*
X145624593Y-61733542D01*
X145609706Y-61761393D01*
X145609703Y-61761402D01*
X145555353Y-61940567D01*
X145555353Y-61940568D01*
X145537001Y-62126899D01*
X145537001Y-62126900D01*
X145555353Y-62313231D01*
X145555353Y-62313232D01*
X145609704Y-62492402D01*
X145697963Y-62657524D01*
X145697968Y-62657531D01*
X145745515Y-62715466D01*
X145816743Y-62802257D01*
X145871105Y-62846871D01*
X145961468Y-62921031D01*
X145961475Y-62921036D01*
X146115698Y-63003469D01*
X146139490Y-63032459D01*
X146141600Y-63046683D01*
X146141600Y-64175196D01*
X146127248Y-64209844D01*
X146092600Y-64224196D01*
X146057952Y-64209844D01*
X146049386Y-64198295D01*
X146049379Y-64198281D01*
X146016236Y-64136275D01*
X146016233Y-64136271D01*
X146016230Y-64136267D01*
X145952002Y-64058006D01*
X145897457Y-63991543D01*
X145807409Y-63917642D01*
X145752731Y-63872768D01*
X145752724Y-63872763D01*
X145587602Y-63784504D01*
X145408431Y-63730153D01*
X145222100Y-63711801D01*
X145035768Y-63730153D01*
X145035767Y-63730153D01*
X144856597Y-63784504D01*
X144691475Y-63872763D01*
X144691468Y-63872768D01*
X144546743Y-63991543D01*
X144427970Y-64136267D01*
X144427966Y-64136271D01*
X144342935Y-64295353D01*
X144313945Y-64319144D01*
X144276622Y-64315468D01*
X144252831Y-64286478D01*
X144251666Y-64281832D01*
X144245515Y-64250905D01*
X144213928Y-64203632D01*
X144199994Y-64182778D01*
X144198657Y-64180777D01*
X144198656Y-64180777D01*
X144184625Y-64159776D01*
X144165634Y-64147087D01*
X144158209Y-64140993D01*
X143955517Y-63938301D01*
X143949423Y-63930875D01*
X143936736Y-63911887D01*
X143913734Y-63896518D01*
X143887576Y-63879039D01*
X143877444Y-63872269D01*
X143870019Y-63866175D01*
X143661822Y-63657978D01*
X143655728Y-63650552D01*
X143641718Y-63629585D01*
X143630146Y-63612266D01*
X143630145Y-63612266D01*
X143616114Y-63591265D01*
X143597123Y-63578576D01*
X143589698Y-63572482D01*
X143045852Y-63028635D01*
X143031500Y-62993987D01*
X143031500Y-62616545D01*
X143045852Y-62581897D01*
X143080500Y-62567545D01*
X143115148Y-62581897D01*
X143123714Y-62593447D01*
X143157963Y-62657524D01*
X143157968Y-62657531D01*
X143205515Y-62715466D01*
X143276743Y-62802257D01*
X143331105Y-62846871D01*
X143421468Y-62921031D01*
X143421475Y-62921036D01*
X143524648Y-62976183D01*
X143586599Y-63009296D01*
X143765769Y-63063647D01*
X143933747Y-63080191D01*
X143952099Y-63081999D01*
X143952099Y-63081998D01*
X143952100Y-63081999D01*
X144138431Y-63063647D01*
X144317601Y-63009296D01*
X144482725Y-62921036D01*
X144627457Y-62802257D01*
X144746236Y-62657525D01*
X144834496Y-62492401D01*
X144888847Y-62313231D01*
X144907199Y-62126900D01*
X144888847Y-61940569D01*
X144834496Y-61761399D01*
X144806570Y-61709153D01*
X144785155Y-61669087D01*
X144781479Y-61631765D01*
X144805271Y-61602775D01*
X144828369Y-61596989D01*
X145516922Y-61596989D01*
X145551570Y-61611341D01*
G37*
G04 #@! TD.AperFunction*
G04 #@! TA.AperFunction,Conductor*
G36*
X175129036Y-64013791D02*
G01*
X175140866Y-64020000D01*
X175205245Y-64020000D01*
X175205247Y-64020000D01*
X175250852Y-64008759D01*
X175287927Y-64014402D01*
X175310154Y-64044608D01*
X175304511Y-64081684D01*
X175297226Y-64090983D01*
X175218648Y-64169562D01*
X175184000Y-64183914D01*
X175149352Y-64169562D01*
X175071616Y-64091826D01*
X175057264Y-64057178D01*
X175071616Y-64022530D01*
X175106264Y-64008178D01*
X175129036Y-64013791D01*
G37*
G04 #@! TD.AperFunction*
G04 #@! TA.AperFunction,Conductor*
G36*
X176404036Y-64013791D02*
G01*
X176415866Y-64020000D01*
X176480245Y-64020000D01*
X176480247Y-64020000D01*
X176525852Y-64008759D01*
X176562927Y-64014402D01*
X176585154Y-64044608D01*
X176579511Y-64081684D01*
X176572226Y-64090983D01*
X176493647Y-64169562D01*
X176458999Y-64183914D01*
X176424351Y-64169562D01*
X176346616Y-64091826D01*
X176332264Y-64057178D01*
X176346616Y-64022530D01*
X176381264Y-64008178D01*
X176404036Y-64013791D01*
G37*
G04 #@! TD.AperFunction*
G04 #@! TA.AperFunction,Conductor*
G36*
X173854036Y-64013791D02*
G01*
X173865866Y-64020000D01*
X173930245Y-64020000D01*
X173930247Y-64020000D01*
X173975852Y-64008759D01*
X174012927Y-64014402D01*
X174035154Y-64044608D01*
X174029511Y-64081684D01*
X174022226Y-64090983D01*
X173943647Y-64169561D01*
X173908999Y-64183913D01*
X173874351Y-64169561D01*
X173796616Y-64091826D01*
X173782264Y-64057178D01*
X173796616Y-64022530D01*
X173831264Y-64008178D01*
X173854036Y-64013791D01*
G37*
G04 #@! TD.AperFunction*
M02*
