G04 #@! TF.GenerationSoftware,KiCad,Pcbnew,7.99.0-1900-g89780d353a*
G04 #@! TF.CreationDate,2023-07-18T18:24:49+03:00*
G04 #@! TF.ProjectId,RP2040_minimal,52503230-3430-45f6-9d69-6e696d616c2e,REV1*
G04 #@! TF.SameCoordinates,Original*
G04 #@! TF.FileFunction,Soldermask,Top*
G04 #@! TF.FilePolarity,Negative*
%FSLAX46Y46*%
G04 Gerber Fmt 4.6, Leading zero omitted, Abs format (unit mm)*
G04 Created by KiCad (PCBNEW 7.99.0-1900-g89780d353a) date 2023-07-18 18:24:49*
%MOMM*%
%LPD*%
G01*
G04 APERTURE LIST*
G04 APERTURE END LIST*
G36*
X170141893Y-72459739D02*
G01*
X170203857Y-72501143D01*
X170245261Y-72563107D01*
X170259800Y-72636200D01*
X170259800Y-72976200D01*
X170245261Y-73049293D01*
X170203857Y-73111257D01*
X170141893Y-73152661D01*
X170068800Y-73167200D01*
X169788800Y-73167200D01*
X169715707Y-73152661D01*
X169653743Y-73111257D01*
X169612339Y-73049293D01*
X169597800Y-72976200D01*
X169597800Y-72636200D01*
X169612339Y-72563107D01*
X169653743Y-72501143D01*
X169715707Y-72459739D01*
X169788800Y-72445200D01*
X170068800Y-72445200D01*
X170141893Y-72459739D01*
G37*
G36*
X171101893Y-72459739D02*
G01*
X171163857Y-72501143D01*
X171205261Y-72563107D01*
X171219800Y-72636200D01*
X171219800Y-72976200D01*
X171205261Y-73049293D01*
X171163857Y-73111257D01*
X171101893Y-73152661D01*
X171028800Y-73167200D01*
X170748800Y-73167200D01*
X170675707Y-73152661D01*
X170613743Y-73111257D01*
X170572339Y-73049293D01*
X170557800Y-72976200D01*
X170557800Y-72636200D01*
X170572339Y-72563107D01*
X170613743Y-72501143D01*
X170675707Y-72459739D01*
X170748800Y-72445200D01*
X171028800Y-72445200D01*
X171101893Y-72459739D01*
G37*
G36*
X178064714Y-71841595D02*
G01*
X178069445Y-71843684D01*
X178072611Y-71844101D01*
X178112242Y-71862581D01*
X178165906Y-71886276D01*
X178244124Y-71964494D01*
X178267828Y-72018179D01*
X178286298Y-72057788D01*
X178286714Y-72060951D01*
X178288805Y-72065686D01*
X178296800Y-72134600D01*
X178296800Y-72634600D01*
X178288805Y-72703514D01*
X178286714Y-72708248D01*
X178286298Y-72711411D01*
X178267836Y-72751002D01*
X178244124Y-72804706D01*
X178165906Y-72882924D01*
X178112202Y-72906636D01*
X178072611Y-72925098D01*
X178069448Y-72925514D01*
X178064714Y-72927605D01*
X177995800Y-72935600D01*
X177045800Y-72935600D01*
X176976886Y-72927605D01*
X176972151Y-72925514D01*
X176968988Y-72925098D01*
X176929379Y-72906628D01*
X176875694Y-72882924D01*
X176797476Y-72804706D01*
X176773781Y-72751042D01*
X176755301Y-72711411D01*
X176754884Y-72708245D01*
X176752795Y-72703514D01*
X176744800Y-72634600D01*
X176744800Y-72134600D01*
X176752795Y-72065686D01*
X176754884Y-72060954D01*
X176755301Y-72057788D01*
X176773789Y-72018138D01*
X176797476Y-71964494D01*
X176875694Y-71886276D01*
X176929338Y-71862589D01*
X176968988Y-71844101D01*
X176972154Y-71843684D01*
X176976886Y-71841595D01*
X177045800Y-71833600D01*
X177995800Y-71833600D01*
X178064714Y-71841595D01*
G37*
G36*
X180096714Y-71841595D02*
G01*
X180101445Y-71843684D01*
X180104611Y-71844101D01*
X180144242Y-71862581D01*
X180197906Y-71886276D01*
X180276124Y-71964494D01*
X180299828Y-72018179D01*
X180318298Y-72057788D01*
X180318714Y-72060951D01*
X180320805Y-72065686D01*
X180328800Y-72134600D01*
X180328800Y-72634600D01*
X180320805Y-72703514D01*
X180318714Y-72708248D01*
X180318298Y-72711411D01*
X180299836Y-72751002D01*
X180276124Y-72804706D01*
X180197906Y-72882924D01*
X180144202Y-72906636D01*
X180104611Y-72925098D01*
X180101448Y-72925514D01*
X180096714Y-72927605D01*
X180027800Y-72935600D01*
X179077800Y-72935600D01*
X179008886Y-72927605D01*
X179004151Y-72925514D01*
X179000988Y-72925098D01*
X178961379Y-72906628D01*
X178907694Y-72882924D01*
X178829476Y-72804706D01*
X178805781Y-72751042D01*
X178787301Y-72711411D01*
X178786884Y-72708245D01*
X178784795Y-72703514D01*
X178776800Y-72634600D01*
X178776800Y-72134600D01*
X178784795Y-72065686D01*
X178786884Y-72060954D01*
X178787301Y-72057788D01*
X178805789Y-72018138D01*
X178829476Y-71964494D01*
X178907694Y-71886276D01*
X178961338Y-71862589D01*
X179000988Y-71844101D01*
X179004154Y-71843684D01*
X179008886Y-71841595D01*
X179077800Y-71833600D01*
X180027800Y-71833600D01*
X180096714Y-71841595D01*
G37*
G36*
X138932351Y-69370642D02*
G01*
X138995472Y-69370642D01*
X139064450Y-69381038D01*
X139130373Y-69386227D01*
X139183506Y-69398983D01*
X139239449Y-69407415D01*
X139312547Y-69429963D01*
X139382287Y-69446706D01*
X139427384Y-69465385D01*
X139475232Y-69480145D01*
X139550348Y-69516319D01*
X139621638Y-69545848D01*
X139658231Y-69568272D01*
X139697537Y-69587201D01*
X139772300Y-69638174D01*
X139842533Y-69681213D01*
X139870657Y-69705233D01*
X139901402Y-69726195D01*
X139973189Y-69792804D01*
X140039533Y-69849467D01*
X140059679Y-69873055D01*
X140082276Y-69894022D01*
X140148341Y-69976865D01*
X140207787Y-70046467D01*
X140220860Y-70067801D01*
X140236117Y-70086932D01*
X140293650Y-70186583D01*
X140343152Y-70267362D01*
X140350423Y-70284916D01*
X140359485Y-70300612D01*
X140405715Y-70418404D01*
X140442294Y-70506713D01*
X140445317Y-70519308D01*
X140449629Y-70530293D01*
X140481915Y-70671750D01*
X140502773Y-70758627D01*
X140503314Y-70765501D01*
X140504535Y-70770851D01*
X140520446Y-70983188D01*
X140523100Y-71016900D01*
X140520446Y-71050614D01*
X140504535Y-71262948D01*
X140503314Y-71268296D01*
X140502773Y-71275173D01*
X140481911Y-71362068D01*
X140449629Y-71503506D01*
X140445318Y-71514488D01*
X140442294Y-71527087D01*
X140405708Y-71615413D01*
X140359485Y-71733187D01*
X140350424Y-71748879D01*
X140343152Y-71766438D01*
X140293640Y-71847233D01*
X140236117Y-71946867D01*
X140220863Y-71965994D01*
X140207787Y-71987333D01*
X140148329Y-72056948D01*
X140082276Y-72139777D01*
X140059683Y-72160739D01*
X140039533Y-72184333D01*
X139973176Y-72241007D01*
X139901402Y-72307604D01*
X139870663Y-72328561D01*
X139842533Y-72352587D01*
X139772286Y-72395634D01*
X139697537Y-72446598D01*
X139658238Y-72465522D01*
X139621638Y-72487952D01*
X139550333Y-72517487D01*
X139475232Y-72553654D01*
X139427393Y-72568410D01*
X139382287Y-72587094D01*
X139312532Y-72603840D01*
X139239449Y-72626384D01*
X139183514Y-72634814D01*
X139130373Y-72647573D01*
X139064446Y-72652761D01*
X138995472Y-72663158D01*
X138932351Y-72663158D01*
X138872100Y-72667900D01*
X138811849Y-72663158D01*
X138748728Y-72663158D01*
X138679752Y-72652761D01*
X138613827Y-72647573D01*
X138560686Y-72634815D01*
X138504750Y-72626384D01*
X138431662Y-72603839D01*
X138361913Y-72587094D01*
X138316809Y-72568411D01*
X138268967Y-72553654D01*
X138193861Y-72517485D01*
X138122562Y-72487952D01*
X138085961Y-72465523D01*
X138046663Y-72446598D01*
X137971910Y-72395632D01*
X137901667Y-72352587D01*
X137873540Y-72328564D01*
X137842797Y-72307604D01*
X137771011Y-72240996D01*
X137704667Y-72184333D01*
X137684520Y-72160744D01*
X137661923Y-72139777D01*
X137595855Y-72056930D01*
X137536413Y-71987333D01*
X137523340Y-71965999D01*
X137508082Y-71946867D01*
X137450542Y-71847204D01*
X137401048Y-71766438D01*
X137393777Y-71748885D01*
X137384714Y-71733187D01*
X137338472Y-71615367D01*
X137301906Y-71527087D01*
X137298882Y-71514495D01*
X137294570Y-71503506D01*
X137262268Y-71361983D01*
X137241427Y-71275173D01*
X137240886Y-71268303D01*
X137239664Y-71262948D01*
X137223733Y-71050366D01*
X137221100Y-71016900D01*
X137223730Y-70983471D01*
X137239664Y-70770851D01*
X137240886Y-70765495D01*
X137241427Y-70758627D01*
X137262263Y-70671835D01*
X137294570Y-70530293D01*
X137298883Y-70519302D01*
X137301906Y-70506713D01*
X137338465Y-70418450D01*
X137384714Y-70300612D01*
X137393779Y-70284910D01*
X137401048Y-70267362D01*
X137450532Y-70186611D01*
X137508082Y-70086932D01*
X137523342Y-70067795D01*
X137536413Y-70046467D01*
X137595843Y-69976883D01*
X137661923Y-69894022D01*
X137684524Y-69873050D01*
X137704667Y-69849467D01*
X137770997Y-69792815D01*
X137842797Y-69726195D01*
X137873546Y-69705230D01*
X137901667Y-69681213D01*
X137971895Y-69638176D01*
X138046663Y-69587201D01*
X138085969Y-69568272D01*
X138122562Y-69545848D01*
X138193846Y-69516321D01*
X138268967Y-69480145D01*
X138316818Y-69465384D01*
X138361913Y-69446706D01*
X138431647Y-69429964D01*
X138504750Y-69407415D01*
X138560694Y-69398982D01*
X138613827Y-69386227D01*
X138679748Y-69381038D01*
X138748728Y-69370642D01*
X138811849Y-69370642D01*
X138872100Y-69365900D01*
X138932351Y-69370642D01*
G37*
G36*
X150362351Y-69370642D02*
G01*
X150425472Y-69370642D01*
X150494450Y-69381038D01*
X150560373Y-69386227D01*
X150613506Y-69398983D01*
X150669449Y-69407415D01*
X150742547Y-69429963D01*
X150812287Y-69446706D01*
X150857384Y-69465385D01*
X150905232Y-69480145D01*
X150980348Y-69516319D01*
X151051638Y-69545848D01*
X151088231Y-69568272D01*
X151127537Y-69587201D01*
X151202300Y-69638174D01*
X151272533Y-69681213D01*
X151300657Y-69705233D01*
X151331402Y-69726195D01*
X151403189Y-69792804D01*
X151469533Y-69849467D01*
X151489679Y-69873055D01*
X151512276Y-69894022D01*
X151578341Y-69976865D01*
X151637787Y-70046467D01*
X151650860Y-70067801D01*
X151666117Y-70086932D01*
X151723650Y-70186583D01*
X151773152Y-70267362D01*
X151780423Y-70284916D01*
X151789485Y-70300612D01*
X151835715Y-70418404D01*
X151872294Y-70506713D01*
X151875317Y-70519308D01*
X151879629Y-70530293D01*
X151911915Y-70671750D01*
X151932773Y-70758627D01*
X151933314Y-70765501D01*
X151934535Y-70770851D01*
X151950448Y-70983205D01*
X151953100Y-71016900D01*
X151950445Y-71050631D01*
X151934535Y-71262948D01*
X151933314Y-71268296D01*
X151932773Y-71275173D01*
X151911911Y-71362068D01*
X151879629Y-71503506D01*
X151875318Y-71514488D01*
X151872294Y-71527087D01*
X151835708Y-71615413D01*
X151789485Y-71733187D01*
X151780424Y-71748879D01*
X151773152Y-71766438D01*
X151723640Y-71847233D01*
X151666117Y-71946867D01*
X151650863Y-71965994D01*
X151637787Y-71987333D01*
X151578329Y-72056948D01*
X151512276Y-72139777D01*
X151489683Y-72160739D01*
X151469533Y-72184333D01*
X151403176Y-72241007D01*
X151331402Y-72307604D01*
X151300663Y-72328561D01*
X151272533Y-72352587D01*
X151202286Y-72395634D01*
X151127537Y-72446598D01*
X151088238Y-72465522D01*
X151051638Y-72487952D01*
X150980333Y-72517487D01*
X150905232Y-72553654D01*
X150857393Y-72568410D01*
X150812287Y-72587094D01*
X150742532Y-72603840D01*
X150669449Y-72626384D01*
X150613514Y-72634814D01*
X150560373Y-72647573D01*
X150494446Y-72652761D01*
X150425472Y-72663158D01*
X150362351Y-72663158D01*
X150302100Y-72667900D01*
X150241849Y-72663158D01*
X150178728Y-72663158D01*
X150109752Y-72652761D01*
X150043827Y-72647573D01*
X149990686Y-72634815D01*
X149934750Y-72626384D01*
X149861662Y-72603839D01*
X149791913Y-72587094D01*
X149746809Y-72568411D01*
X149698967Y-72553654D01*
X149623861Y-72517485D01*
X149552562Y-72487952D01*
X149515961Y-72465523D01*
X149476663Y-72446598D01*
X149401910Y-72395632D01*
X149331667Y-72352587D01*
X149303540Y-72328564D01*
X149272797Y-72307604D01*
X149201011Y-72240996D01*
X149134667Y-72184333D01*
X149114520Y-72160744D01*
X149091923Y-72139777D01*
X149025855Y-72056930D01*
X148966413Y-71987333D01*
X148953340Y-71965999D01*
X148938082Y-71946867D01*
X148880542Y-71847204D01*
X148831048Y-71766438D01*
X148823777Y-71748885D01*
X148814714Y-71733187D01*
X148768472Y-71615367D01*
X148731906Y-71527087D01*
X148728882Y-71514495D01*
X148724570Y-71503506D01*
X148692268Y-71361983D01*
X148671427Y-71275173D01*
X148670886Y-71268303D01*
X148669664Y-71262948D01*
X148653733Y-71050366D01*
X148651100Y-71016900D01*
X148653730Y-70983471D01*
X148669664Y-70770851D01*
X148670886Y-70765495D01*
X148671427Y-70758627D01*
X148692263Y-70671835D01*
X148724570Y-70530293D01*
X148728883Y-70519302D01*
X148731906Y-70506713D01*
X148768465Y-70418450D01*
X148814714Y-70300612D01*
X148823779Y-70284910D01*
X148831048Y-70267362D01*
X148880532Y-70186611D01*
X148938082Y-70086932D01*
X148953342Y-70067795D01*
X148966413Y-70046467D01*
X149025843Y-69976883D01*
X149091923Y-69894022D01*
X149114524Y-69873050D01*
X149134667Y-69849467D01*
X149200997Y-69792815D01*
X149272797Y-69726195D01*
X149303546Y-69705230D01*
X149331667Y-69681213D01*
X149401895Y-69638176D01*
X149476663Y-69587201D01*
X149515969Y-69568272D01*
X149552562Y-69545848D01*
X149623846Y-69516321D01*
X149698967Y-69480145D01*
X149746818Y-69465384D01*
X149791913Y-69446706D01*
X149861647Y-69429964D01*
X149934750Y-69407415D01*
X149990694Y-69398982D01*
X150043827Y-69386227D01*
X150109748Y-69381038D01*
X150178728Y-69370642D01*
X150241849Y-69370642D01*
X150302100Y-69365900D01*
X150362351Y-69370642D01*
G37*
G36*
X184997117Y-70890282D02*
G01*
X185013662Y-70901338D01*
X185024718Y-70917883D01*
X185028600Y-70937400D01*
X185028600Y-72287400D01*
X185024718Y-72306917D01*
X185013662Y-72323462D01*
X184997117Y-72334518D01*
X184977600Y-72338400D01*
X183627600Y-72338400D01*
X183608083Y-72334518D01*
X183591538Y-72323462D01*
X183580482Y-72306917D01*
X183576600Y-72287400D01*
X183576600Y-70937400D01*
X183580482Y-70917883D01*
X183591538Y-70901338D01*
X183608083Y-70890282D01*
X183627600Y-70886400D01*
X184977600Y-70886400D01*
X184997117Y-70890282D01*
G37*
G36*
X167172093Y-71496539D02*
G01*
X167234057Y-71537943D01*
X167275461Y-71599907D01*
X167290000Y-71673000D01*
X167290000Y-71953000D01*
X167275461Y-72026093D01*
X167234057Y-72088057D01*
X167172093Y-72129461D01*
X167099000Y-72144000D01*
X166759000Y-72144000D01*
X166685907Y-72129461D01*
X166623943Y-72088057D01*
X166582539Y-72026093D01*
X166568000Y-71953000D01*
X166568000Y-71673000D01*
X166582539Y-71599907D01*
X166623943Y-71537943D01*
X166685907Y-71496539D01*
X166759000Y-71482000D01*
X167099000Y-71482000D01*
X167172093Y-71496539D01*
G37*
G36*
X169299517Y-70734882D02*
G01*
X169316062Y-70745938D01*
X169327118Y-70762483D01*
X169331000Y-70782000D01*
X169331000Y-71982000D01*
X169327118Y-72001517D01*
X169316062Y-72018062D01*
X169299517Y-72029118D01*
X169280000Y-72033000D01*
X167880000Y-72033000D01*
X167860483Y-72029118D01*
X167843938Y-72018062D01*
X167832882Y-72001517D01*
X167829000Y-71982000D01*
X167829000Y-70782000D01*
X167832882Y-70762483D01*
X167843938Y-70745938D01*
X167860483Y-70734882D01*
X167880000Y-70731000D01*
X169280000Y-70731000D01*
X169299517Y-70734882D01*
G37*
G36*
X171499517Y-70734882D02*
G01*
X171516062Y-70745938D01*
X171527118Y-70762483D01*
X171531000Y-70782000D01*
X171531000Y-71982000D01*
X171527118Y-72001517D01*
X171516062Y-72018062D01*
X171499517Y-72029118D01*
X171480000Y-72033000D01*
X170080000Y-72033000D01*
X170060483Y-72029118D01*
X170043938Y-72018062D01*
X170032882Y-72001517D01*
X170029000Y-71982000D01*
X170029000Y-70782000D01*
X170032882Y-70762483D01*
X170043938Y-70745938D01*
X170060483Y-70734882D01*
X170080000Y-70731000D01*
X171480000Y-70731000D01*
X171499517Y-70734882D01*
G37*
G36*
X156293217Y-70104782D02*
G01*
X156309762Y-70115838D01*
X156320818Y-70132383D01*
X156324700Y-70151900D01*
X156324700Y-71853700D01*
X156320818Y-71873217D01*
X156309762Y-71889762D01*
X156293217Y-71900818D01*
X156273700Y-71904700D01*
X155740300Y-71904700D01*
X155720783Y-71900818D01*
X155704238Y-71889762D01*
X155693182Y-71873217D01*
X155689300Y-71853700D01*
X155689300Y-70151900D01*
X155693182Y-70132383D01*
X155704238Y-70115838D01*
X155720783Y-70104782D01*
X155740300Y-70100900D01*
X156273700Y-70100900D01*
X156293217Y-70104782D01*
G37*
G36*
X157563217Y-70104782D02*
G01*
X157579762Y-70115838D01*
X157590818Y-70132383D01*
X157594700Y-70151900D01*
X157594700Y-71853700D01*
X157590818Y-71873217D01*
X157579762Y-71889762D01*
X157563217Y-71900818D01*
X157543700Y-71904700D01*
X157010300Y-71904700D01*
X156990783Y-71900818D01*
X156974238Y-71889762D01*
X156963182Y-71873217D01*
X156959300Y-71853700D01*
X156959300Y-70151900D01*
X156963182Y-70132383D01*
X156974238Y-70115838D01*
X156990783Y-70104782D01*
X157010300Y-70100900D01*
X157543700Y-70100900D01*
X157563217Y-70104782D01*
G37*
G36*
X158833217Y-70104782D02*
G01*
X158849762Y-70115838D01*
X158860818Y-70132383D01*
X158864700Y-70151900D01*
X158864700Y-71853700D01*
X158860818Y-71873217D01*
X158849762Y-71889762D01*
X158833217Y-71900818D01*
X158813700Y-71904700D01*
X158280300Y-71904700D01*
X158260783Y-71900818D01*
X158244238Y-71889762D01*
X158233182Y-71873217D01*
X158229300Y-71853700D01*
X158229300Y-70151900D01*
X158233182Y-70132383D01*
X158244238Y-70115838D01*
X158260783Y-70104782D01*
X158280300Y-70100900D01*
X158813700Y-70100900D01*
X158833217Y-70104782D01*
G37*
G36*
X160103217Y-70104782D02*
G01*
X160119762Y-70115838D01*
X160130818Y-70132383D01*
X160134700Y-70151900D01*
X160134700Y-71853700D01*
X160130818Y-71873217D01*
X160119762Y-71889762D01*
X160103217Y-71900818D01*
X160083700Y-71904700D01*
X159550300Y-71904700D01*
X159530783Y-71900818D01*
X159514238Y-71889762D01*
X159503182Y-71873217D01*
X159499300Y-71853700D01*
X159499300Y-70151900D01*
X159503182Y-70132383D01*
X159514238Y-70115838D01*
X159530783Y-70104782D01*
X159550300Y-70100900D01*
X160083700Y-70100900D01*
X160103217Y-70104782D01*
G37*
G36*
X161373217Y-70104782D02*
G01*
X161389762Y-70115838D01*
X161400818Y-70132383D01*
X161404700Y-70151900D01*
X161404700Y-71853700D01*
X161400818Y-71873217D01*
X161389762Y-71889762D01*
X161373217Y-71900818D01*
X161353700Y-71904700D01*
X160820300Y-71904700D01*
X160800783Y-71900818D01*
X160784238Y-71889762D01*
X160773182Y-71873217D01*
X160769300Y-71853700D01*
X160769300Y-70151900D01*
X160773182Y-70132383D01*
X160784238Y-70115838D01*
X160800783Y-70104782D01*
X160820300Y-70100900D01*
X161353700Y-70100900D01*
X161373217Y-70104782D01*
G37*
G36*
X162643217Y-70104782D02*
G01*
X162659762Y-70115838D01*
X162670818Y-70132383D01*
X162674700Y-70151900D01*
X162674700Y-71853700D01*
X162670818Y-71873217D01*
X162659762Y-71889762D01*
X162643217Y-71900818D01*
X162623700Y-71904700D01*
X162090300Y-71904700D01*
X162070783Y-71900818D01*
X162054238Y-71889762D01*
X162043182Y-71873217D01*
X162039300Y-71853700D01*
X162039300Y-70151900D01*
X162043182Y-70132383D01*
X162054238Y-70115838D01*
X162070783Y-70104782D01*
X162090300Y-70100900D01*
X162623700Y-70100900D01*
X162643217Y-70104782D01*
G37*
G36*
X163913217Y-70104782D02*
G01*
X163929762Y-70115838D01*
X163940818Y-70132383D01*
X163944700Y-70151900D01*
X163944700Y-71853700D01*
X163940818Y-71873217D01*
X163929762Y-71889762D01*
X163913217Y-71900818D01*
X163893700Y-71904700D01*
X163360300Y-71904700D01*
X163340783Y-71900818D01*
X163324238Y-71889762D01*
X163313182Y-71873217D01*
X163309300Y-71853700D01*
X163309300Y-70151900D01*
X163313182Y-70132383D01*
X163324238Y-70115838D01*
X163340783Y-70104782D01*
X163360300Y-70100900D01*
X163893700Y-70100900D01*
X163913217Y-70104782D01*
G37*
G36*
X165183217Y-70104782D02*
G01*
X165199762Y-70115838D01*
X165210818Y-70132383D01*
X165214700Y-70151900D01*
X165214700Y-71853700D01*
X165210818Y-71873217D01*
X165199762Y-71889762D01*
X165183217Y-71900818D01*
X165163700Y-71904700D01*
X164630300Y-71904700D01*
X164610783Y-71900818D01*
X164594238Y-71889762D01*
X164583182Y-71873217D01*
X164579300Y-71853700D01*
X164579300Y-70151900D01*
X164583182Y-70132383D01*
X164594238Y-70115838D01*
X164610783Y-70104782D01*
X164630300Y-70100900D01*
X165163700Y-70100900D01*
X165183217Y-70104782D01*
G37*
G36*
X130930517Y-70136282D02*
G01*
X130947062Y-70147338D01*
X130958118Y-70163883D01*
X130962000Y-70183400D01*
X130962000Y-71533400D01*
X130958118Y-71552917D01*
X130947062Y-71569462D01*
X130930517Y-71580518D01*
X130911000Y-71584400D01*
X129561000Y-71584400D01*
X129541483Y-71580518D01*
X129524938Y-71569462D01*
X129513882Y-71552917D01*
X129510000Y-71533400D01*
X129510000Y-70183400D01*
X129513882Y-70163883D01*
X129524938Y-70147338D01*
X129541483Y-70136282D01*
X129561000Y-70132400D01*
X130911000Y-70132400D01*
X130930517Y-70136282D01*
G37*
G36*
X167172093Y-70536539D02*
G01*
X167234057Y-70577943D01*
X167275461Y-70639907D01*
X167290000Y-70713000D01*
X167290000Y-70993000D01*
X167275461Y-71066093D01*
X167234057Y-71128057D01*
X167172093Y-71169461D01*
X167099000Y-71184000D01*
X166759000Y-71184000D01*
X166685907Y-71169461D01*
X166623943Y-71128057D01*
X166582539Y-71066093D01*
X166568000Y-70993000D01*
X166568000Y-70713000D01*
X166582539Y-70639907D01*
X166623943Y-70577943D01*
X166685907Y-70536539D01*
X166759000Y-70522000D01*
X167099000Y-70522000D01*
X167172093Y-70536539D01*
G37*
G36*
X178064714Y-69941595D02*
G01*
X178069445Y-69943684D01*
X178072611Y-69944101D01*
X178112242Y-69962581D01*
X178165906Y-69986276D01*
X178244124Y-70064494D01*
X178267828Y-70118179D01*
X178286298Y-70157788D01*
X178286714Y-70160951D01*
X178288805Y-70165686D01*
X178296800Y-70234600D01*
X178296800Y-70734600D01*
X178288805Y-70803514D01*
X178286714Y-70808248D01*
X178286298Y-70811411D01*
X178267836Y-70851002D01*
X178244124Y-70904706D01*
X178165906Y-70982924D01*
X178112202Y-71006636D01*
X178072611Y-71025098D01*
X178069448Y-71025514D01*
X178064714Y-71027605D01*
X177995800Y-71035600D01*
X177045800Y-71035600D01*
X176976886Y-71027605D01*
X176972151Y-71025514D01*
X176968988Y-71025098D01*
X176929379Y-71006628D01*
X176875694Y-70982924D01*
X176797476Y-70904706D01*
X176773781Y-70851042D01*
X176755301Y-70811411D01*
X176754884Y-70808245D01*
X176752795Y-70803514D01*
X176744800Y-70734600D01*
X176744800Y-70234600D01*
X176752795Y-70165686D01*
X176754884Y-70160954D01*
X176755301Y-70157788D01*
X176773789Y-70118138D01*
X176797476Y-70064494D01*
X176875694Y-69986276D01*
X176929338Y-69962589D01*
X176968988Y-69944101D01*
X176972154Y-69943684D01*
X176976886Y-69941595D01*
X177045800Y-69933600D01*
X177995800Y-69933600D01*
X178064714Y-69941595D01*
G37*
G36*
X180096714Y-69941595D02*
G01*
X180101445Y-69943684D01*
X180104611Y-69944101D01*
X180144242Y-69962581D01*
X180197906Y-69986276D01*
X180276124Y-70064494D01*
X180299828Y-70118179D01*
X180318298Y-70157788D01*
X180318714Y-70160951D01*
X180320805Y-70165686D01*
X180328800Y-70234600D01*
X180328800Y-70734600D01*
X180320805Y-70803514D01*
X180318714Y-70808248D01*
X180318298Y-70811411D01*
X180299836Y-70851002D01*
X180276124Y-70904706D01*
X180197906Y-70982924D01*
X180144202Y-71006636D01*
X180104611Y-71025098D01*
X180101448Y-71025514D01*
X180096714Y-71027605D01*
X180027800Y-71035600D01*
X179077800Y-71035600D01*
X179008886Y-71027605D01*
X179004151Y-71025514D01*
X179000988Y-71025098D01*
X178961379Y-71006628D01*
X178907694Y-70982924D01*
X178829476Y-70904706D01*
X178805781Y-70851042D01*
X178787301Y-70811411D01*
X178786884Y-70808245D01*
X178784795Y-70803514D01*
X178776800Y-70734600D01*
X178776800Y-70234600D01*
X178784795Y-70165686D01*
X178786884Y-70160954D01*
X178787301Y-70157788D01*
X178805789Y-70118138D01*
X178829476Y-70064494D01*
X178907694Y-69986276D01*
X178961338Y-69962589D01*
X179000988Y-69944101D01*
X179004154Y-69943684D01*
X179008886Y-69941595D01*
X179077800Y-69933600D01*
X180027800Y-69933600D01*
X180096714Y-69941595D01*
G37*
G36*
X169299517Y-69034882D02*
G01*
X169316062Y-69045938D01*
X169327118Y-69062483D01*
X169331000Y-69082000D01*
X169331000Y-70282000D01*
X169327118Y-70301517D01*
X169316062Y-70318062D01*
X169299517Y-70329118D01*
X169280000Y-70333000D01*
X167880000Y-70333000D01*
X167860483Y-70329118D01*
X167843938Y-70318062D01*
X167832882Y-70301517D01*
X167829000Y-70282000D01*
X167829000Y-69082000D01*
X167832882Y-69062483D01*
X167843938Y-69045938D01*
X167860483Y-69034882D01*
X167880000Y-69031000D01*
X169280000Y-69031000D01*
X169299517Y-69034882D01*
G37*
G36*
X171499517Y-69034882D02*
G01*
X171516062Y-69045938D01*
X171527118Y-69062483D01*
X171531000Y-69082000D01*
X171531000Y-70282000D01*
X171527118Y-70301517D01*
X171516062Y-70318062D01*
X171499517Y-70329118D01*
X171480000Y-70333000D01*
X170080000Y-70333000D01*
X170060483Y-70329118D01*
X170043938Y-70318062D01*
X170032882Y-70301517D01*
X170029000Y-70282000D01*
X170029000Y-69082000D01*
X170032882Y-69062483D01*
X170043938Y-69045938D01*
X170060483Y-69034882D01*
X170080000Y-69031000D01*
X171480000Y-69031000D01*
X171499517Y-69034882D01*
G37*
G36*
X167146693Y-68984539D02*
G01*
X167208657Y-69025943D01*
X167250061Y-69087907D01*
X167264600Y-69161000D01*
X167264600Y-69441000D01*
X167250061Y-69514093D01*
X167208657Y-69576057D01*
X167146693Y-69617461D01*
X167073600Y-69632000D01*
X166733600Y-69632000D01*
X166660507Y-69617461D01*
X166598543Y-69576057D01*
X166557139Y-69514093D01*
X166542600Y-69441000D01*
X166542600Y-69161000D01*
X166557139Y-69087907D01*
X166598543Y-69025943D01*
X166660507Y-68984539D01*
X166733600Y-68970000D01*
X167073600Y-68970000D01*
X167146693Y-68984539D01*
G37*
G36*
X130397550Y-68150602D02*
G01*
X130551000Y-68204297D01*
X130688654Y-68290790D01*
X130803610Y-68405746D01*
X130890103Y-68543400D01*
X130943798Y-68696850D01*
X130962000Y-68858400D01*
X130943798Y-69019950D01*
X130890103Y-69173400D01*
X130803610Y-69311054D01*
X130688654Y-69426010D01*
X130551000Y-69512503D01*
X130397550Y-69566198D01*
X130236000Y-69584400D01*
X130074450Y-69566198D01*
X129921000Y-69512503D01*
X129783346Y-69426010D01*
X129668390Y-69311054D01*
X129581897Y-69173400D01*
X129528202Y-69019950D01*
X129510000Y-68858400D01*
X129528202Y-68696850D01*
X129581897Y-68543400D01*
X129668390Y-68405746D01*
X129783346Y-68290790D01*
X129921000Y-68204297D01*
X130074450Y-68150602D01*
X130236000Y-68132400D01*
X130397550Y-68150602D01*
G37*
G36*
X176519293Y-68905739D02*
G01*
X176581257Y-68947143D01*
X176622661Y-69009107D01*
X176637200Y-69082200D01*
X176637200Y-69362200D01*
X176622661Y-69435293D01*
X176581257Y-69497257D01*
X176519293Y-69538661D01*
X176446200Y-69553200D01*
X176106200Y-69553200D01*
X176033107Y-69538661D01*
X175971143Y-69497257D01*
X175929739Y-69435293D01*
X175915200Y-69362200D01*
X175915200Y-69082200D01*
X175929739Y-69009107D01*
X175971143Y-68947143D01*
X176033107Y-68905739D01*
X176106200Y-68891200D01*
X176446200Y-68891200D01*
X176519293Y-68905739D01*
G37*
G36*
X177509893Y-68905739D02*
G01*
X177571857Y-68947143D01*
X177613261Y-69009107D01*
X177627800Y-69082200D01*
X177627800Y-69362200D01*
X177613261Y-69435293D01*
X177571857Y-69497257D01*
X177509893Y-69538661D01*
X177436800Y-69553200D01*
X177096800Y-69553200D01*
X177023707Y-69538661D01*
X176961743Y-69497257D01*
X176920339Y-69435293D01*
X176905800Y-69362200D01*
X176905800Y-69082200D01*
X176920339Y-69009107D01*
X176961743Y-68947143D01*
X177023707Y-68905739D01*
X177096800Y-68891200D01*
X177436800Y-68891200D01*
X177509893Y-68905739D01*
G37*
G36*
X178500493Y-68905739D02*
G01*
X178562457Y-68947143D01*
X178603861Y-69009107D01*
X178618400Y-69082200D01*
X178618400Y-69362200D01*
X178603861Y-69435293D01*
X178562457Y-69497257D01*
X178500493Y-69538661D01*
X178427400Y-69553200D01*
X178087400Y-69553200D01*
X178014307Y-69538661D01*
X177952343Y-69497257D01*
X177910939Y-69435293D01*
X177896400Y-69362200D01*
X177896400Y-69082200D01*
X177910939Y-69009107D01*
X177952343Y-68947143D01*
X178014307Y-68905739D01*
X178087400Y-68891200D01*
X178427400Y-68891200D01*
X178500493Y-68905739D01*
G37*
G36*
X180809893Y-68548139D02*
G01*
X180871857Y-68589543D01*
X180913261Y-68651507D01*
X180927800Y-68724600D01*
X180927800Y-69064600D01*
X180913261Y-69137693D01*
X180871857Y-69199657D01*
X180809893Y-69241061D01*
X180736800Y-69255600D01*
X180456800Y-69255600D01*
X180383707Y-69241061D01*
X180321743Y-69199657D01*
X180280339Y-69137693D01*
X180265800Y-69064600D01*
X180265800Y-68724600D01*
X180280339Y-68651507D01*
X180321743Y-68589543D01*
X180383707Y-68548139D01*
X180456800Y-68533600D01*
X180736800Y-68533600D01*
X180809893Y-68548139D01*
G37*
G36*
X181769893Y-68548139D02*
G01*
X181831857Y-68589543D01*
X181873261Y-68651507D01*
X181887800Y-68724600D01*
X181887800Y-69064600D01*
X181873261Y-69137693D01*
X181831857Y-69199657D01*
X181769893Y-69241061D01*
X181696800Y-69255600D01*
X181416800Y-69255600D01*
X181343707Y-69241061D01*
X181281743Y-69199657D01*
X181240339Y-69137693D01*
X181225800Y-69064600D01*
X181225800Y-68724600D01*
X181240339Y-68651507D01*
X181281743Y-68589543D01*
X181343707Y-68548139D01*
X181416800Y-68533600D01*
X181696800Y-68533600D01*
X181769893Y-68548139D01*
G37*
G36*
X182714893Y-68548139D02*
G01*
X182776857Y-68589543D01*
X182818261Y-68651507D01*
X182832800Y-68724600D01*
X182832800Y-69064600D01*
X182818261Y-69137693D01*
X182776857Y-69199657D01*
X182714893Y-69241061D01*
X182641800Y-69255600D01*
X182361800Y-69255600D01*
X182288707Y-69241061D01*
X182226743Y-69199657D01*
X182185339Y-69137693D01*
X182170800Y-69064600D01*
X182170800Y-68724600D01*
X182185339Y-68651507D01*
X182226743Y-68589543D01*
X182288707Y-68548139D01*
X182361800Y-68533600D01*
X182641800Y-68533600D01*
X182714893Y-68548139D01*
G37*
G36*
X183674893Y-68548139D02*
G01*
X183736857Y-68589543D01*
X183778261Y-68651507D01*
X183792800Y-68724600D01*
X183792800Y-69064600D01*
X183778261Y-69137693D01*
X183736857Y-69199657D01*
X183674893Y-69241061D01*
X183601800Y-69255600D01*
X183321800Y-69255600D01*
X183248707Y-69241061D01*
X183186743Y-69199657D01*
X183145339Y-69137693D01*
X183130800Y-69064600D01*
X183130800Y-68724600D01*
X183145339Y-68651507D01*
X183186743Y-68589543D01*
X183248707Y-68548139D01*
X183321800Y-68533600D01*
X183601800Y-68533600D01*
X183674893Y-68548139D01*
G37*
G36*
X184594493Y-68548139D02*
G01*
X184656457Y-68589543D01*
X184697861Y-68651507D01*
X184712400Y-68724600D01*
X184712400Y-69064600D01*
X184697861Y-69137693D01*
X184656457Y-69199657D01*
X184594493Y-69241061D01*
X184521400Y-69255600D01*
X184241400Y-69255600D01*
X184168307Y-69241061D01*
X184106343Y-69199657D01*
X184064939Y-69137693D01*
X184050400Y-69064600D01*
X184050400Y-68724600D01*
X184064939Y-68651507D01*
X184106343Y-68589543D01*
X184168307Y-68548139D01*
X184241400Y-68533600D01*
X184521400Y-68533600D01*
X184594493Y-68548139D01*
G37*
G36*
X185554493Y-68548139D02*
G01*
X185616457Y-68589543D01*
X185657861Y-68651507D01*
X185672400Y-68724600D01*
X185672400Y-69064600D01*
X185657861Y-69137693D01*
X185616457Y-69199657D01*
X185554493Y-69241061D01*
X185481400Y-69255600D01*
X185201400Y-69255600D01*
X185128307Y-69241061D01*
X185066343Y-69199657D01*
X185024939Y-69137693D01*
X185010400Y-69064600D01*
X185010400Y-68724600D01*
X185024939Y-68651507D01*
X185066343Y-68589543D01*
X185128307Y-68548139D01*
X185201400Y-68533600D01*
X185481400Y-68533600D01*
X185554493Y-68548139D01*
G37*
G36*
X179872093Y-68550139D02*
G01*
X179934057Y-68591543D01*
X179975461Y-68653507D01*
X179990000Y-68726600D01*
X179990000Y-69006600D01*
X179975461Y-69079693D01*
X179934057Y-69141657D01*
X179872093Y-69183061D01*
X179799000Y-69197600D01*
X179459000Y-69197600D01*
X179385907Y-69183061D01*
X179323943Y-69141657D01*
X179282539Y-69079693D01*
X179268000Y-69006600D01*
X179268000Y-68726600D01*
X179282539Y-68653507D01*
X179323943Y-68591543D01*
X179385907Y-68550139D01*
X179459000Y-68535600D01*
X179799000Y-68535600D01*
X179872093Y-68550139D01*
G37*
G36*
X167146693Y-68024539D02*
G01*
X167208657Y-68065943D01*
X167250061Y-68127907D01*
X167264600Y-68201000D01*
X167264600Y-68481000D01*
X167250061Y-68554093D01*
X167208657Y-68616057D01*
X167146693Y-68657461D01*
X167073600Y-68672000D01*
X166733600Y-68672000D01*
X166660507Y-68657461D01*
X166598543Y-68616057D01*
X166557139Y-68554093D01*
X166542600Y-68481000D01*
X166542600Y-68201000D01*
X166557139Y-68127907D01*
X166598543Y-68065943D01*
X166660507Y-68024539D01*
X166733600Y-68010000D01*
X167073600Y-68010000D01*
X167146693Y-68024539D01*
G37*
G36*
X170599093Y-67913139D02*
G01*
X170661057Y-67954543D01*
X170702461Y-68016507D01*
X170717000Y-68089600D01*
X170717000Y-68429600D01*
X170702461Y-68502693D01*
X170661057Y-68564657D01*
X170599093Y-68606061D01*
X170526000Y-68620600D01*
X170246000Y-68620600D01*
X170172907Y-68606061D01*
X170110943Y-68564657D01*
X170069539Y-68502693D01*
X170055000Y-68429600D01*
X170055000Y-68089600D01*
X170069539Y-68016507D01*
X170110943Y-67954543D01*
X170172907Y-67913139D01*
X170246000Y-67898600D01*
X170526000Y-67898600D01*
X170599093Y-67913139D01*
G37*
G36*
X171559093Y-67913139D02*
G01*
X171621057Y-67954543D01*
X171662461Y-68016507D01*
X171677000Y-68089600D01*
X171677000Y-68429600D01*
X171662461Y-68502693D01*
X171621057Y-68564657D01*
X171559093Y-68606061D01*
X171486000Y-68620600D01*
X171206000Y-68620600D01*
X171132907Y-68606061D01*
X171070943Y-68564657D01*
X171029539Y-68502693D01*
X171015000Y-68429600D01*
X171015000Y-68089600D01*
X171029539Y-68016507D01*
X171070943Y-67954543D01*
X171132907Y-67913139D01*
X171206000Y-67898600D01*
X171486000Y-67898600D01*
X171559093Y-67913139D01*
G37*
G36*
X176519293Y-67945739D02*
G01*
X176581257Y-67987143D01*
X176622661Y-68049107D01*
X176637200Y-68122200D01*
X176637200Y-68402200D01*
X176622661Y-68475293D01*
X176581257Y-68537257D01*
X176519293Y-68578661D01*
X176446200Y-68593200D01*
X176106200Y-68593200D01*
X176033107Y-68578661D01*
X175971143Y-68537257D01*
X175929739Y-68475293D01*
X175915200Y-68402200D01*
X175915200Y-68122200D01*
X175929739Y-68049107D01*
X175971143Y-67987143D01*
X176033107Y-67945739D01*
X176106200Y-67931200D01*
X176446200Y-67931200D01*
X176519293Y-67945739D01*
G37*
G36*
X177509893Y-67945739D02*
G01*
X177571857Y-67987143D01*
X177613261Y-68049107D01*
X177627800Y-68122200D01*
X177627800Y-68402200D01*
X177613261Y-68475293D01*
X177571857Y-68537257D01*
X177509893Y-68578661D01*
X177436800Y-68593200D01*
X177096800Y-68593200D01*
X177023707Y-68578661D01*
X176961743Y-68537257D01*
X176920339Y-68475293D01*
X176905800Y-68402200D01*
X176905800Y-68122200D01*
X176920339Y-68049107D01*
X176961743Y-67987143D01*
X177023707Y-67945739D01*
X177096800Y-67931200D01*
X177436800Y-67931200D01*
X177509893Y-67945739D01*
G37*
G36*
X178500493Y-67945739D02*
G01*
X178562457Y-67987143D01*
X178603861Y-68049107D01*
X178618400Y-68122200D01*
X178618400Y-68402200D01*
X178603861Y-68475293D01*
X178562457Y-68537257D01*
X178500493Y-68578661D01*
X178427400Y-68593200D01*
X178087400Y-68593200D01*
X178014307Y-68578661D01*
X177952343Y-68537257D01*
X177910939Y-68475293D01*
X177896400Y-68402200D01*
X177896400Y-68122200D01*
X177910939Y-68049107D01*
X177952343Y-67987143D01*
X178014307Y-67945739D01*
X178087400Y-67931200D01*
X178427400Y-67931200D01*
X178500493Y-67945739D01*
G37*
G36*
X180809893Y-67557539D02*
G01*
X180871857Y-67598943D01*
X180913261Y-67660907D01*
X180927800Y-67734000D01*
X180927800Y-68074000D01*
X180913261Y-68147093D01*
X180871857Y-68209057D01*
X180809893Y-68250461D01*
X180736800Y-68265000D01*
X180456800Y-68265000D01*
X180383707Y-68250461D01*
X180321743Y-68209057D01*
X180280339Y-68147093D01*
X180265800Y-68074000D01*
X180265800Y-67734000D01*
X180280339Y-67660907D01*
X180321743Y-67598943D01*
X180383707Y-67557539D01*
X180456800Y-67543000D01*
X180736800Y-67543000D01*
X180809893Y-67557539D01*
G37*
G36*
X181769893Y-67557539D02*
G01*
X181831857Y-67598943D01*
X181873261Y-67660907D01*
X181887800Y-67734000D01*
X181887800Y-68074000D01*
X181873261Y-68147093D01*
X181831857Y-68209057D01*
X181769893Y-68250461D01*
X181696800Y-68265000D01*
X181416800Y-68265000D01*
X181343707Y-68250461D01*
X181281743Y-68209057D01*
X181240339Y-68147093D01*
X181225800Y-68074000D01*
X181225800Y-67734000D01*
X181240339Y-67660907D01*
X181281743Y-67598943D01*
X181343707Y-67557539D01*
X181416800Y-67543000D01*
X181696800Y-67543000D01*
X181769893Y-67557539D01*
G37*
G36*
X182714893Y-67557539D02*
G01*
X182776857Y-67598943D01*
X182818261Y-67660907D01*
X182832800Y-67734000D01*
X182832800Y-68074000D01*
X182818261Y-68147093D01*
X182776857Y-68209057D01*
X182714893Y-68250461D01*
X182641800Y-68265000D01*
X182361800Y-68265000D01*
X182288707Y-68250461D01*
X182226743Y-68209057D01*
X182185339Y-68147093D01*
X182170800Y-68074000D01*
X182170800Y-67734000D01*
X182185339Y-67660907D01*
X182226743Y-67598943D01*
X182288707Y-67557539D01*
X182361800Y-67543000D01*
X182641800Y-67543000D01*
X182714893Y-67557539D01*
G37*
G36*
X183674893Y-67557539D02*
G01*
X183736857Y-67598943D01*
X183778261Y-67660907D01*
X183792800Y-67734000D01*
X183792800Y-68074000D01*
X183778261Y-68147093D01*
X183736857Y-68209057D01*
X183674893Y-68250461D01*
X183601800Y-68265000D01*
X183321800Y-68265000D01*
X183248707Y-68250461D01*
X183186743Y-68209057D01*
X183145339Y-68147093D01*
X183130800Y-68074000D01*
X183130800Y-67734000D01*
X183145339Y-67660907D01*
X183186743Y-67598943D01*
X183248707Y-67557539D01*
X183321800Y-67543000D01*
X183601800Y-67543000D01*
X183674893Y-67557539D01*
G37*
G36*
X184594493Y-67557539D02*
G01*
X184656457Y-67598943D01*
X184697861Y-67660907D01*
X184712400Y-67734000D01*
X184712400Y-68074000D01*
X184697861Y-68147093D01*
X184656457Y-68209057D01*
X184594493Y-68250461D01*
X184521400Y-68265000D01*
X184241400Y-68265000D01*
X184168307Y-68250461D01*
X184106343Y-68209057D01*
X184064939Y-68147093D01*
X184050400Y-68074000D01*
X184050400Y-67734000D01*
X184064939Y-67660907D01*
X184106343Y-67598943D01*
X184168307Y-67557539D01*
X184241400Y-67543000D01*
X184521400Y-67543000D01*
X184594493Y-67557539D01*
G37*
G36*
X185554493Y-67557539D02*
G01*
X185616457Y-67598943D01*
X185657861Y-67660907D01*
X185672400Y-67734000D01*
X185672400Y-68074000D01*
X185657861Y-68147093D01*
X185616457Y-68209057D01*
X185554493Y-68250461D01*
X185481400Y-68265000D01*
X185201400Y-68265000D01*
X185128307Y-68250461D01*
X185066343Y-68209057D01*
X185024939Y-68147093D01*
X185010400Y-68074000D01*
X185010400Y-67734000D01*
X185024939Y-67660907D01*
X185066343Y-67598943D01*
X185128307Y-67557539D01*
X185201400Y-67543000D01*
X185481400Y-67543000D01*
X185554493Y-67557539D01*
G37*
G36*
X179872093Y-67590139D02*
G01*
X179934057Y-67631543D01*
X179975461Y-67693507D01*
X179990000Y-67766600D01*
X179990000Y-68046600D01*
X179975461Y-68119693D01*
X179934057Y-68181657D01*
X179872093Y-68223061D01*
X179799000Y-68237600D01*
X179459000Y-68237600D01*
X179385907Y-68223061D01*
X179323943Y-68181657D01*
X179282539Y-68119693D01*
X179268000Y-68046600D01*
X179268000Y-67766600D01*
X179282539Y-67693507D01*
X179323943Y-67631543D01*
X179385907Y-67590139D01*
X179459000Y-67575600D01*
X179799000Y-67575600D01*
X179872093Y-67590139D01*
G37*
G36*
X130397550Y-66150602D02*
G01*
X130551000Y-66204297D01*
X130688654Y-66290790D01*
X130803610Y-66405746D01*
X130890103Y-66543400D01*
X130943798Y-66696850D01*
X130962000Y-66858400D01*
X130943798Y-67019950D01*
X130890103Y-67173400D01*
X130803610Y-67311054D01*
X130688654Y-67426010D01*
X130551000Y-67512503D01*
X130397550Y-67566198D01*
X130236000Y-67584400D01*
X130074450Y-67566198D01*
X129921000Y-67512503D01*
X129783346Y-67426010D01*
X129668390Y-67311054D01*
X129581897Y-67173400D01*
X129528202Y-67019950D01*
X129510000Y-66858400D01*
X129528202Y-66696850D01*
X129581897Y-66543400D01*
X129668390Y-66405746D01*
X129783346Y-66290790D01*
X129921000Y-66204297D01*
X130074450Y-66150602D01*
X130236000Y-66132400D01*
X130397550Y-66150602D01*
G37*
G36*
X180809893Y-66566939D02*
G01*
X180871857Y-66608343D01*
X180913261Y-66670307D01*
X180927800Y-66743400D01*
X180927800Y-67083400D01*
X180913261Y-67156493D01*
X180871857Y-67218457D01*
X180809893Y-67259861D01*
X180736800Y-67274400D01*
X180456800Y-67274400D01*
X180383707Y-67259861D01*
X180321743Y-67218457D01*
X180280339Y-67156493D01*
X180265800Y-67083400D01*
X180265800Y-66743400D01*
X180280339Y-66670307D01*
X180321743Y-66608343D01*
X180383707Y-66566939D01*
X180456800Y-66552400D01*
X180736800Y-66552400D01*
X180809893Y-66566939D01*
G37*
G36*
X181769893Y-66566939D02*
G01*
X181831857Y-66608343D01*
X181873261Y-66670307D01*
X181887800Y-66743400D01*
X181887800Y-67083400D01*
X181873261Y-67156493D01*
X181831857Y-67218457D01*
X181769893Y-67259861D01*
X181696800Y-67274400D01*
X181416800Y-67274400D01*
X181343707Y-67259861D01*
X181281743Y-67218457D01*
X181240339Y-67156493D01*
X181225800Y-67083400D01*
X181225800Y-66743400D01*
X181240339Y-66670307D01*
X181281743Y-66608343D01*
X181343707Y-66566939D01*
X181416800Y-66552400D01*
X181696800Y-66552400D01*
X181769893Y-66566939D01*
G37*
G36*
X182714893Y-66566939D02*
G01*
X182776857Y-66608343D01*
X182818261Y-66670307D01*
X182832800Y-66743400D01*
X182832800Y-67083400D01*
X182818261Y-67156493D01*
X182776857Y-67218457D01*
X182714893Y-67259861D01*
X182641800Y-67274400D01*
X182361800Y-67274400D01*
X182288707Y-67259861D01*
X182226743Y-67218457D01*
X182185339Y-67156493D01*
X182170800Y-67083400D01*
X182170800Y-66743400D01*
X182185339Y-66670307D01*
X182226743Y-66608343D01*
X182288707Y-66566939D01*
X182361800Y-66552400D01*
X182641800Y-66552400D01*
X182714893Y-66566939D01*
G37*
G36*
X183674893Y-66566939D02*
G01*
X183736857Y-66608343D01*
X183778261Y-66670307D01*
X183792800Y-66743400D01*
X183792800Y-67083400D01*
X183778261Y-67156493D01*
X183736857Y-67218457D01*
X183674893Y-67259861D01*
X183601800Y-67274400D01*
X183321800Y-67274400D01*
X183248707Y-67259861D01*
X183186743Y-67218457D01*
X183145339Y-67156493D01*
X183130800Y-67083400D01*
X183130800Y-66743400D01*
X183145339Y-66670307D01*
X183186743Y-66608343D01*
X183248707Y-66566939D01*
X183321800Y-66552400D01*
X183601800Y-66552400D01*
X183674893Y-66566939D01*
G37*
G36*
X132489093Y-66311939D02*
G01*
X132551057Y-66353343D01*
X132592461Y-66415307D01*
X132607000Y-66488400D01*
X132607000Y-66828400D01*
X132592461Y-66901493D01*
X132551057Y-66963457D01*
X132489093Y-67004861D01*
X132416000Y-67019400D01*
X132136000Y-67019400D01*
X132062907Y-67004861D01*
X132000943Y-66963457D01*
X131959539Y-66901493D01*
X131945000Y-66828400D01*
X131945000Y-66488400D01*
X131959539Y-66415307D01*
X132000943Y-66353343D01*
X132062907Y-66311939D01*
X132136000Y-66297400D01*
X132416000Y-66297400D01*
X132489093Y-66311939D01*
G37*
G36*
X133449093Y-66311939D02*
G01*
X133511057Y-66353343D01*
X133552461Y-66415307D01*
X133567000Y-66488400D01*
X133567000Y-66828400D01*
X133552461Y-66901493D01*
X133511057Y-66963457D01*
X133449093Y-67004861D01*
X133376000Y-67019400D01*
X133096000Y-67019400D01*
X133022907Y-67004861D01*
X132960943Y-66963457D01*
X132919539Y-66901493D01*
X132905000Y-66828400D01*
X132905000Y-66488400D01*
X132919539Y-66415307D01*
X132960943Y-66353343D01*
X133022907Y-66311939D01*
X133096000Y-66297400D01*
X133376000Y-66297400D01*
X133449093Y-66311939D01*
G37*
G36*
X156293217Y-64923182D02*
G01*
X156309762Y-64934238D01*
X156320818Y-64950783D01*
X156324700Y-64970300D01*
X156324700Y-66672100D01*
X156320818Y-66691617D01*
X156309762Y-66708162D01*
X156293217Y-66719218D01*
X156273700Y-66723100D01*
X155740300Y-66723100D01*
X155720783Y-66719218D01*
X155704238Y-66708162D01*
X155693182Y-66691617D01*
X155689300Y-66672100D01*
X155689300Y-64970300D01*
X155693182Y-64950783D01*
X155704238Y-64934238D01*
X155720783Y-64923182D01*
X155740300Y-64919300D01*
X156273700Y-64919300D01*
X156293217Y-64923182D01*
G37*
G36*
X157563217Y-64923182D02*
G01*
X157579762Y-64934238D01*
X157590818Y-64950783D01*
X157594700Y-64970300D01*
X157594700Y-66672100D01*
X157590818Y-66691617D01*
X157579762Y-66708162D01*
X157563217Y-66719218D01*
X157543700Y-66723100D01*
X157010300Y-66723100D01*
X156990783Y-66719218D01*
X156974238Y-66708162D01*
X156963182Y-66691617D01*
X156959300Y-66672100D01*
X156959300Y-64970300D01*
X156963182Y-64950783D01*
X156974238Y-64934238D01*
X156990783Y-64923182D01*
X157010300Y-64919300D01*
X157543700Y-64919300D01*
X157563217Y-64923182D01*
G37*
G36*
X158833217Y-64923182D02*
G01*
X158849762Y-64934238D01*
X158860818Y-64950783D01*
X158864700Y-64970300D01*
X158864700Y-66672100D01*
X158860818Y-66691617D01*
X158849762Y-66708162D01*
X158833217Y-66719218D01*
X158813700Y-66723100D01*
X158280300Y-66723100D01*
X158260783Y-66719218D01*
X158244238Y-66708162D01*
X158233182Y-66691617D01*
X158229300Y-66672100D01*
X158229300Y-64970300D01*
X158233182Y-64950783D01*
X158244238Y-64934238D01*
X158260783Y-64923182D01*
X158280300Y-64919300D01*
X158813700Y-64919300D01*
X158833217Y-64923182D01*
G37*
G36*
X160103217Y-64923182D02*
G01*
X160119762Y-64934238D01*
X160130818Y-64950783D01*
X160134700Y-64970300D01*
X160134700Y-66672100D01*
X160130818Y-66691617D01*
X160119762Y-66708162D01*
X160103217Y-66719218D01*
X160083700Y-66723100D01*
X159550300Y-66723100D01*
X159530783Y-66719218D01*
X159514238Y-66708162D01*
X159503182Y-66691617D01*
X159499300Y-66672100D01*
X159499300Y-64970300D01*
X159503182Y-64950783D01*
X159514238Y-64934238D01*
X159530783Y-64923182D01*
X159550300Y-64919300D01*
X160083700Y-64919300D01*
X160103217Y-64923182D01*
G37*
G36*
X161373217Y-64923182D02*
G01*
X161389762Y-64934238D01*
X161400818Y-64950783D01*
X161404700Y-64970300D01*
X161404700Y-66672100D01*
X161400818Y-66691617D01*
X161389762Y-66708162D01*
X161373217Y-66719218D01*
X161353700Y-66723100D01*
X160820300Y-66723100D01*
X160800783Y-66719218D01*
X160784238Y-66708162D01*
X160773182Y-66691617D01*
X160769300Y-66672100D01*
X160769300Y-64970300D01*
X160773182Y-64950783D01*
X160784238Y-64934238D01*
X160800783Y-64923182D01*
X160820300Y-64919300D01*
X161353700Y-64919300D01*
X161373217Y-64923182D01*
G37*
G36*
X162643217Y-64923182D02*
G01*
X162659762Y-64934238D01*
X162670818Y-64950783D01*
X162674700Y-64970300D01*
X162674700Y-66672100D01*
X162670818Y-66691617D01*
X162659762Y-66708162D01*
X162643217Y-66719218D01*
X162623700Y-66723100D01*
X162090300Y-66723100D01*
X162070783Y-66719218D01*
X162054238Y-66708162D01*
X162043182Y-66691617D01*
X162039300Y-66672100D01*
X162039300Y-64970300D01*
X162043182Y-64950783D01*
X162054238Y-64934238D01*
X162070783Y-64923182D01*
X162090300Y-64919300D01*
X162623700Y-64919300D01*
X162643217Y-64923182D01*
G37*
G36*
X163913217Y-64923182D02*
G01*
X163929762Y-64934238D01*
X163940818Y-64950783D01*
X163944700Y-64970300D01*
X163944700Y-66672100D01*
X163940818Y-66691617D01*
X163929762Y-66708162D01*
X163913217Y-66719218D01*
X163893700Y-66723100D01*
X163360300Y-66723100D01*
X163340783Y-66719218D01*
X163324238Y-66708162D01*
X163313182Y-66691617D01*
X163309300Y-66672100D01*
X163309300Y-64970300D01*
X163313182Y-64950783D01*
X163324238Y-64934238D01*
X163340783Y-64923182D01*
X163360300Y-64919300D01*
X163893700Y-64919300D01*
X163913217Y-64923182D01*
G37*
G36*
X165183217Y-64923182D02*
G01*
X165199762Y-64934238D01*
X165210818Y-64950783D01*
X165214700Y-64970300D01*
X165214700Y-66672100D01*
X165210818Y-66691617D01*
X165199762Y-66708162D01*
X165183217Y-66719218D01*
X165163700Y-66723100D01*
X164630300Y-66723100D01*
X164610783Y-66719218D01*
X164594238Y-66708162D01*
X164583182Y-66691617D01*
X164579300Y-66672100D01*
X164579300Y-64970300D01*
X164583182Y-64950783D01*
X164594238Y-64934238D01*
X164610783Y-64923182D01*
X164630300Y-64919300D01*
X165163700Y-64919300D01*
X165183217Y-64923182D01*
G37*
G36*
X172672651Y-65526688D02*
G01*
X172705418Y-65548582D01*
X172727312Y-65581349D01*
X172735000Y-65620000D01*
X172735000Y-66395000D01*
X172727312Y-66433651D01*
X172705418Y-66466418D01*
X172672651Y-66488312D01*
X172634000Y-66496000D01*
X172534000Y-66496000D01*
X172495349Y-66488312D01*
X172462582Y-66466418D01*
X172440688Y-66433651D01*
X172433000Y-66395000D01*
X172433000Y-65620000D01*
X172440688Y-65581349D01*
X172462582Y-65548582D01*
X172495349Y-65526688D01*
X172534000Y-65519000D01*
X172634000Y-65519000D01*
X172672651Y-65526688D01*
G37*
G36*
X173072651Y-65526688D02*
G01*
X173105418Y-65548582D01*
X173127312Y-65581349D01*
X173135000Y-65620000D01*
X173135000Y-66395000D01*
X173127312Y-66433651D01*
X173105418Y-66466418D01*
X173072651Y-66488312D01*
X173034000Y-66496000D01*
X172934000Y-66496000D01*
X172895349Y-66488312D01*
X172862582Y-66466418D01*
X172840688Y-66433651D01*
X172833000Y-66395000D01*
X172833000Y-65620000D01*
X172840688Y-65581349D01*
X172862582Y-65548582D01*
X172895349Y-65526688D01*
X172934000Y-65519000D01*
X173034000Y-65519000D01*
X173072651Y-65526688D01*
G37*
G36*
X173472651Y-65526688D02*
G01*
X173505418Y-65548582D01*
X173527312Y-65581349D01*
X173535000Y-65620000D01*
X173535000Y-66395000D01*
X173527312Y-66433651D01*
X173505418Y-66466418D01*
X173472651Y-66488312D01*
X173434000Y-66496000D01*
X173334000Y-66496000D01*
X173295349Y-66488312D01*
X173262582Y-66466418D01*
X173240688Y-66433651D01*
X173233000Y-66395000D01*
X173233000Y-65620000D01*
X173240688Y-65581349D01*
X173262582Y-65548582D01*
X173295349Y-65526688D01*
X173334000Y-65519000D01*
X173434000Y-65519000D01*
X173472651Y-65526688D01*
G37*
G36*
X173872651Y-65526688D02*
G01*
X173905418Y-65548582D01*
X173927312Y-65581349D01*
X173935000Y-65620000D01*
X173935000Y-66395000D01*
X173927312Y-66433651D01*
X173905418Y-66466418D01*
X173872651Y-66488312D01*
X173834000Y-66496000D01*
X173734000Y-66496000D01*
X173695349Y-66488312D01*
X173662582Y-66466418D01*
X173640688Y-66433651D01*
X173633000Y-66395000D01*
X173633000Y-65620000D01*
X173640688Y-65581349D01*
X173662582Y-65548582D01*
X173695349Y-65526688D01*
X173734000Y-65519000D01*
X173834000Y-65519000D01*
X173872651Y-65526688D01*
G37*
G36*
X174272651Y-65526688D02*
G01*
X174305418Y-65548582D01*
X174327312Y-65581349D01*
X174335000Y-65620000D01*
X174335000Y-66395000D01*
X174327312Y-66433651D01*
X174305418Y-66466418D01*
X174272651Y-66488312D01*
X174234000Y-66496000D01*
X174134000Y-66496000D01*
X174095349Y-66488312D01*
X174062582Y-66466418D01*
X174040688Y-66433651D01*
X174033000Y-66395000D01*
X174033000Y-65620000D01*
X174040688Y-65581349D01*
X174062582Y-65548582D01*
X174095349Y-65526688D01*
X174134000Y-65519000D01*
X174234000Y-65519000D01*
X174272651Y-65526688D01*
G37*
G36*
X174672651Y-65526688D02*
G01*
X174705418Y-65548582D01*
X174727312Y-65581349D01*
X174735000Y-65620000D01*
X174735000Y-66395000D01*
X174727312Y-66433651D01*
X174705418Y-66466418D01*
X174672651Y-66488312D01*
X174634000Y-66496000D01*
X174534000Y-66496000D01*
X174495349Y-66488312D01*
X174462582Y-66466418D01*
X174440688Y-66433651D01*
X174433000Y-66395000D01*
X174433000Y-65620000D01*
X174440688Y-65581349D01*
X174462582Y-65548582D01*
X174495349Y-65526688D01*
X174534000Y-65519000D01*
X174634000Y-65519000D01*
X174672651Y-65526688D01*
G37*
G36*
X175072651Y-65526688D02*
G01*
X175105418Y-65548582D01*
X175127312Y-65581349D01*
X175135000Y-65620000D01*
X175135000Y-66395000D01*
X175127312Y-66433651D01*
X175105418Y-66466418D01*
X175072651Y-66488312D01*
X175034000Y-66496000D01*
X174934000Y-66496000D01*
X174895349Y-66488312D01*
X174862582Y-66466418D01*
X174840688Y-66433651D01*
X174833000Y-66395000D01*
X174833000Y-65620000D01*
X174840688Y-65581349D01*
X174862582Y-65548582D01*
X174895349Y-65526688D01*
X174934000Y-65519000D01*
X175034000Y-65519000D01*
X175072651Y-65526688D01*
G37*
G36*
X175472651Y-65526688D02*
G01*
X175505418Y-65548582D01*
X175527312Y-65581349D01*
X175535000Y-65620000D01*
X175535000Y-66395000D01*
X175527312Y-66433651D01*
X175505418Y-66466418D01*
X175472651Y-66488312D01*
X175434000Y-66496000D01*
X175334000Y-66496000D01*
X175295349Y-66488312D01*
X175262582Y-66466418D01*
X175240688Y-66433651D01*
X175233000Y-66395000D01*
X175233000Y-65620000D01*
X175240688Y-65581349D01*
X175262582Y-65548582D01*
X175295349Y-65526688D01*
X175334000Y-65519000D01*
X175434000Y-65519000D01*
X175472651Y-65526688D01*
G37*
G36*
X175872651Y-65526688D02*
G01*
X175905418Y-65548582D01*
X175927312Y-65581349D01*
X175935000Y-65620000D01*
X175935000Y-66395000D01*
X175927312Y-66433651D01*
X175905418Y-66466418D01*
X175872651Y-66488312D01*
X175834000Y-66496000D01*
X175734000Y-66496000D01*
X175695349Y-66488312D01*
X175662582Y-66466418D01*
X175640688Y-66433651D01*
X175633000Y-66395000D01*
X175633000Y-65620000D01*
X175640688Y-65581349D01*
X175662582Y-65548582D01*
X175695349Y-65526688D01*
X175734000Y-65519000D01*
X175834000Y-65519000D01*
X175872651Y-65526688D01*
G37*
G36*
X176272651Y-65526688D02*
G01*
X176305418Y-65548582D01*
X176327312Y-65581349D01*
X176335000Y-65620000D01*
X176335000Y-66395000D01*
X176327312Y-66433651D01*
X176305418Y-66466418D01*
X176272651Y-66488312D01*
X176234000Y-66496000D01*
X176134000Y-66496000D01*
X176095349Y-66488312D01*
X176062582Y-66466418D01*
X176040688Y-66433651D01*
X176033000Y-66395000D01*
X176033000Y-65620000D01*
X176040688Y-65581349D01*
X176062582Y-65548582D01*
X176095349Y-65526688D01*
X176134000Y-65519000D01*
X176234000Y-65519000D01*
X176272651Y-65526688D01*
G37*
G36*
X176672651Y-65526688D02*
G01*
X176705418Y-65548582D01*
X176727312Y-65581349D01*
X176735000Y-65620000D01*
X176735000Y-66395000D01*
X176727312Y-66433651D01*
X176705418Y-66466418D01*
X176672651Y-66488312D01*
X176634000Y-66496000D01*
X176534000Y-66496000D01*
X176495349Y-66488312D01*
X176462582Y-66466418D01*
X176440688Y-66433651D01*
X176433000Y-66395000D01*
X176433000Y-65620000D01*
X176440688Y-65581349D01*
X176462582Y-65548582D01*
X176495349Y-65526688D01*
X176534000Y-65519000D01*
X176634000Y-65519000D01*
X176672651Y-65526688D01*
G37*
G36*
X177072651Y-65526688D02*
G01*
X177105418Y-65548582D01*
X177127312Y-65581349D01*
X177135000Y-65620000D01*
X177135000Y-66395000D01*
X177127312Y-66433651D01*
X177105418Y-66466418D01*
X177072651Y-66488312D01*
X177034000Y-66496000D01*
X176934000Y-66496000D01*
X176895349Y-66488312D01*
X176862582Y-66466418D01*
X176840688Y-66433651D01*
X176833000Y-66395000D01*
X176833000Y-65620000D01*
X176840688Y-65581349D01*
X176862582Y-65548582D01*
X176895349Y-65526688D01*
X176934000Y-65519000D01*
X177034000Y-65519000D01*
X177072651Y-65526688D01*
G37*
G36*
X177472651Y-65526688D02*
G01*
X177505418Y-65548582D01*
X177527312Y-65581349D01*
X177535000Y-65620000D01*
X177535000Y-66395000D01*
X177527312Y-66433651D01*
X177505418Y-66466418D01*
X177472651Y-66488312D01*
X177434000Y-66496000D01*
X177334000Y-66496000D01*
X177295349Y-66488312D01*
X177262582Y-66466418D01*
X177240688Y-66433651D01*
X177233000Y-66395000D01*
X177233000Y-65620000D01*
X177240688Y-65581349D01*
X177262582Y-65548582D01*
X177295349Y-65526688D01*
X177334000Y-65519000D01*
X177434000Y-65519000D01*
X177472651Y-65526688D01*
G37*
G36*
X177872651Y-65526688D02*
G01*
X177905418Y-65548582D01*
X177927312Y-65581349D01*
X177935000Y-65620000D01*
X177935000Y-66395000D01*
X177927312Y-66433651D01*
X177905418Y-66466418D01*
X177872651Y-66488312D01*
X177834000Y-66496000D01*
X177734000Y-66496000D01*
X177695349Y-66488312D01*
X177662582Y-66466418D01*
X177640688Y-66433651D01*
X177633000Y-66395000D01*
X177633000Y-65620000D01*
X177640688Y-65581349D01*
X177662582Y-65548582D01*
X177695349Y-65526688D01*
X177734000Y-65519000D01*
X177834000Y-65519000D01*
X177872651Y-65526688D01*
G37*
G36*
X180809893Y-65576339D02*
G01*
X180871857Y-65617743D01*
X180913261Y-65679707D01*
X180927800Y-65752800D01*
X180927800Y-66092800D01*
X180913261Y-66165893D01*
X180871857Y-66227857D01*
X180809893Y-66269261D01*
X180736800Y-66283800D01*
X180456800Y-66283800D01*
X180383707Y-66269261D01*
X180321743Y-66227857D01*
X180280339Y-66165893D01*
X180265800Y-66092800D01*
X180265800Y-65752800D01*
X180280339Y-65679707D01*
X180321743Y-65617743D01*
X180383707Y-65576339D01*
X180456800Y-65561800D01*
X180736800Y-65561800D01*
X180809893Y-65576339D01*
G37*
G36*
X181769893Y-65576339D02*
G01*
X181831857Y-65617743D01*
X181873261Y-65679707D01*
X181887800Y-65752800D01*
X181887800Y-66092800D01*
X181873261Y-66165893D01*
X181831857Y-66227857D01*
X181769893Y-66269261D01*
X181696800Y-66283800D01*
X181416800Y-66283800D01*
X181343707Y-66269261D01*
X181281743Y-66227857D01*
X181240339Y-66165893D01*
X181225800Y-66092800D01*
X181225800Y-65752800D01*
X181240339Y-65679707D01*
X181281743Y-65617743D01*
X181343707Y-65576339D01*
X181416800Y-65561800D01*
X181696800Y-65561800D01*
X181769893Y-65576339D01*
G37*
G36*
X182714893Y-65576339D02*
G01*
X182776857Y-65617743D01*
X182818261Y-65679707D01*
X182832800Y-65752800D01*
X182832800Y-66092800D01*
X182818261Y-66165893D01*
X182776857Y-66227857D01*
X182714893Y-66269261D01*
X182641800Y-66283800D01*
X182361800Y-66283800D01*
X182288707Y-66269261D01*
X182226743Y-66227857D01*
X182185339Y-66165893D01*
X182170800Y-66092800D01*
X182170800Y-65752800D01*
X182185339Y-65679707D01*
X182226743Y-65617743D01*
X182288707Y-65576339D01*
X182361800Y-65561800D01*
X182641800Y-65561800D01*
X182714893Y-65576339D01*
G37*
G36*
X183674893Y-65576339D02*
G01*
X183736857Y-65617743D01*
X183778261Y-65679707D01*
X183792800Y-65752800D01*
X183792800Y-66092800D01*
X183778261Y-66165893D01*
X183736857Y-66227857D01*
X183674893Y-66269261D01*
X183601800Y-66283800D01*
X183321800Y-66283800D01*
X183248707Y-66269261D01*
X183186743Y-66227857D01*
X183145339Y-66165893D01*
X183130800Y-66092800D01*
X183130800Y-65752800D01*
X183145339Y-65679707D01*
X183186743Y-65617743D01*
X183248707Y-65576339D01*
X183321800Y-65561800D01*
X183601800Y-65561800D01*
X183674893Y-65576339D01*
G37*
G36*
X132479093Y-65331939D02*
G01*
X132541057Y-65373343D01*
X132582461Y-65435307D01*
X132597000Y-65508400D01*
X132597000Y-65848400D01*
X132582461Y-65921493D01*
X132541057Y-65983457D01*
X132479093Y-66024861D01*
X132406000Y-66039400D01*
X132126000Y-66039400D01*
X132052907Y-66024861D01*
X131990943Y-65983457D01*
X131949539Y-65921493D01*
X131935000Y-65848400D01*
X131935000Y-65508400D01*
X131949539Y-65435307D01*
X131990943Y-65373343D01*
X132052907Y-65331939D01*
X132126000Y-65317400D01*
X132406000Y-65317400D01*
X132479093Y-65331939D01*
G37*
G36*
X133439093Y-65331939D02*
G01*
X133501057Y-65373343D01*
X133542461Y-65435307D01*
X133557000Y-65508400D01*
X133557000Y-65848400D01*
X133542461Y-65921493D01*
X133501057Y-65983457D01*
X133439093Y-66024861D01*
X133366000Y-66039400D01*
X133086000Y-66039400D01*
X133012907Y-66024861D01*
X132950943Y-65983457D01*
X132909539Y-65921493D01*
X132895000Y-65848400D01*
X132895000Y-65508400D01*
X132909539Y-65435307D01*
X132950943Y-65373343D01*
X133012907Y-65331939D01*
X133086000Y-65317400D01*
X133366000Y-65317400D01*
X133439093Y-65331939D01*
G37*
G36*
X130397550Y-64150602D02*
G01*
X130551000Y-64204297D01*
X130688654Y-64290790D01*
X130803610Y-64405746D01*
X130890103Y-64543400D01*
X130943798Y-64696850D01*
X130962000Y-64858400D01*
X130943798Y-65019950D01*
X130890103Y-65173400D01*
X130803610Y-65311054D01*
X130688654Y-65426010D01*
X130551000Y-65512503D01*
X130397550Y-65566198D01*
X130236000Y-65584400D01*
X130074450Y-65566198D01*
X129921000Y-65512503D01*
X129783346Y-65426010D01*
X129668390Y-65311054D01*
X129581897Y-65173400D01*
X129528202Y-65019950D01*
X129510000Y-64858400D01*
X129528202Y-64696850D01*
X129581897Y-64543400D01*
X129668390Y-64405746D01*
X129783346Y-64290790D01*
X129921000Y-64204297D01*
X130074450Y-64150602D01*
X130236000Y-64132400D01*
X130397550Y-64150602D01*
G37*
G36*
X140911617Y-63869782D02*
G01*
X140928162Y-63880838D01*
X140939218Y-63897383D01*
X140943100Y-63916900D01*
X140943100Y-65416900D01*
X140939218Y-65436417D01*
X140928162Y-65452962D01*
X140911617Y-65464018D01*
X140892100Y-65467900D01*
X139392100Y-65467900D01*
X139372583Y-65464018D01*
X139356038Y-65452962D01*
X139344982Y-65436417D01*
X139341100Y-65416900D01*
X139341100Y-63916900D01*
X139344982Y-63897383D01*
X139356038Y-63880838D01*
X139372583Y-63869782D01*
X139392100Y-63865900D01*
X140892100Y-63865900D01*
X140911617Y-63869782D01*
G37*
G36*
X142723227Y-63870534D02*
G01*
X142765800Y-63870534D01*
X142813825Y-63880742D01*
X142860339Y-63885983D01*
X142894162Y-63897818D01*
X142929545Y-63905339D01*
X142980537Y-63928041D01*
X143029641Y-63945224D01*
X143055198Y-63961283D01*
X143082477Y-63973428D01*
X143133342Y-64010383D01*
X143181515Y-64040653D01*
X143198815Y-64057953D01*
X143217908Y-64071825D01*
X143265110Y-64124248D01*
X143308347Y-64167485D01*
X143318292Y-64183312D01*
X143329924Y-64196231D01*
X143369714Y-64265150D01*
X143403776Y-64319359D01*
X143408029Y-64331513D01*
X143413622Y-64341201D01*
X143442260Y-64429342D01*
X143463017Y-64488661D01*
X143463804Y-64495646D01*
X143465354Y-64500417D01*
X143479410Y-64634153D01*
X143483100Y-64666900D01*
X143479407Y-64699671D01*
X143465354Y-64833382D01*
X143463804Y-64838151D01*
X143463017Y-64845139D01*
X143442256Y-64904470D01*
X143413622Y-64992598D01*
X143408030Y-65002283D01*
X143403776Y-65014441D01*
X143369707Y-65068660D01*
X143329924Y-65137568D01*
X143318294Y-65150484D01*
X143308347Y-65166315D01*
X143265101Y-65209560D01*
X143217908Y-65261974D01*
X143198818Y-65275843D01*
X143181515Y-65293147D01*
X143133331Y-65323422D01*
X143082477Y-65360371D01*
X143055204Y-65372513D01*
X143029641Y-65388576D01*
X142980526Y-65405761D01*
X142929545Y-65428460D01*
X142894167Y-65435979D01*
X142860339Y-65447817D01*
X142813822Y-65453058D01*
X142765800Y-65463266D01*
X142723227Y-65463266D01*
X142682100Y-65467900D01*
X142640973Y-65463266D01*
X142598400Y-65463266D01*
X142550376Y-65453058D01*
X142503861Y-65447817D01*
X142470033Y-65435980D01*
X142434654Y-65428460D01*
X142383668Y-65405760D01*
X142334559Y-65388576D01*
X142308998Y-65372514D01*
X142281722Y-65360371D01*
X142230860Y-65323417D01*
X142182685Y-65293147D01*
X142165383Y-65275845D01*
X142146291Y-65261974D01*
X142099088Y-65209550D01*
X142055853Y-65166315D01*
X142045908Y-65150487D01*
X142034275Y-65137568D01*
X141994480Y-65068640D01*
X141960424Y-65014441D01*
X141956171Y-65002288D01*
X141950577Y-64992598D01*
X141921929Y-64904430D01*
X141901183Y-64845139D01*
X141900396Y-64838156D01*
X141898845Y-64833382D01*
X141884777Y-64699539D01*
X141881100Y-64666900D01*
X141884774Y-64634285D01*
X141898845Y-64500417D01*
X141900396Y-64495642D01*
X141901183Y-64488661D01*
X141921925Y-64429382D01*
X141950577Y-64341201D01*
X141956172Y-64331509D01*
X141960424Y-64319359D01*
X141994473Y-64265170D01*
X142034275Y-64196231D01*
X142045910Y-64183308D01*
X142055853Y-64167485D01*
X142099079Y-64124258D01*
X142146291Y-64071825D01*
X142165387Y-64057950D01*
X142182685Y-64040653D01*
X142230855Y-64010385D01*
X142281723Y-63973428D01*
X142309001Y-63961282D01*
X142334559Y-63945224D01*
X142383659Y-63928042D01*
X142434654Y-63905339D01*
X142470039Y-63897817D01*
X142503861Y-63885983D01*
X142550373Y-63880742D01*
X142598400Y-63870534D01*
X142640973Y-63870534D01*
X142682100Y-63865900D01*
X142723227Y-63870534D01*
G37*
G36*
X145263227Y-63870534D02*
G01*
X145305800Y-63870534D01*
X145353825Y-63880742D01*
X145400339Y-63885983D01*
X145434162Y-63897818D01*
X145469545Y-63905339D01*
X145520537Y-63928041D01*
X145569641Y-63945224D01*
X145595198Y-63961283D01*
X145622477Y-63973428D01*
X145673342Y-64010383D01*
X145721515Y-64040653D01*
X145738815Y-64057953D01*
X145757908Y-64071825D01*
X145805110Y-64124248D01*
X145848347Y-64167485D01*
X145858292Y-64183312D01*
X145869924Y-64196231D01*
X145909714Y-64265150D01*
X145943776Y-64319359D01*
X145948029Y-64331513D01*
X145953622Y-64341201D01*
X145982260Y-64429342D01*
X146003017Y-64488661D01*
X146003804Y-64495646D01*
X146005354Y-64500417D01*
X146019409Y-64634142D01*
X146023100Y-64666900D01*
X146019408Y-64699660D01*
X146005354Y-64833382D01*
X146003804Y-64838151D01*
X146003017Y-64845139D01*
X145982256Y-64904470D01*
X145953622Y-64992598D01*
X145948030Y-65002283D01*
X145943776Y-65014441D01*
X145909707Y-65068660D01*
X145869924Y-65137568D01*
X145858294Y-65150484D01*
X145848347Y-65166315D01*
X145805101Y-65209560D01*
X145757908Y-65261974D01*
X145738818Y-65275843D01*
X145721515Y-65293147D01*
X145673331Y-65323422D01*
X145622477Y-65360371D01*
X145595204Y-65372513D01*
X145569641Y-65388576D01*
X145520526Y-65405761D01*
X145469545Y-65428460D01*
X145434167Y-65435979D01*
X145400339Y-65447817D01*
X145353822Y-65453058D01*
X145305800Y-65463266D01*
X145263227Y-65463266D01*
X145222100Y-65467900D01*
X145180973Y-65463266D01*
X145138400Y-65463266D01*
X145090376Y-65453058D01*
X145043861Y-65447817D01*
X145010033Y-65435980D01*
X144974654Y-65428460D01*
X144923668Y-65405760D01*
X144874559Y-65388576D01*
X144848998Y-65372514D01*
X144821722Y-65360371D01*
X144770860Y-65323417D01*
X144722685Y-65293147D01*
X144705383Y-65275845D01*
X144686291Y-65261974D01*
X144639088Y-65209550D01*
X144595853Y-65166315D01*
X144585908Y-65150487D01*
X144574275Y-65137568D01*
X144534480Y-65068640D01*
X144500424Y-65014441D01*
X144496171Y-65002288D01*
X144490577Y-64992598D01*
X144461929Y-64904430D01*
X144441183Y-64845139D01*
X144440396Y-64838156D01*
X144438845Y-64833382D01*
X144424776Y-64699528D01*
X144421100Y-64666900D01*
X144424776Y-64634274D01*
X144438845Y-64500417D01*
X144440396Y-64495642D01*
X144441183Y-64488661D01*
X144461925Y-64429382D01*
X144490577Y-64341201D01*
X144496172Y-64331509D01*
X144500424Y-64319359D01*
X144534473Y-64265170D01*
X144574275Y-64196231D01*
X144585910Y-64183308D01*
X144595853Y-64167485D01*
X144639079Y-64124258D01*
X144686291Y-64071825D01*
X144705387Y-64057950D01*
X144722685Y-64040653D01*
X144770855Y-64010385D01*
X144821723Y-63973428D01*
X144849001Y-63961282D01*
X144874559Y-63945224D01*
X144923659Y-63928042D01*
X144974654Y-63905339D01*
X145010039Y-63897817D01*
X145043861Y-63885983D01*
X145090373Y-63880742D01*
X145138400Y-63870534D01*
X145180973Y-63870534D01*
X145222100Y-63865900D01*
X145263227Y-63870534D01*
G37*
G36*
X147803227Y-63870534D02*
G01*
X147845800Y-63870534D01*
X147893825Y-63880742D01*
X147940339Y-63885983D01*
X147974162Y-63897818D01*
X148009545Y-63905339D01*
X148060537Y-63928041D01*
X148109641Y-63945224D01*
X148135198Y-63961283D01*
X148162477Y-63973428D01*
X148213342Y-64010383D01*
X148261515Y-64040653D01*
X148278815Y-64057953D01*
X148297908Y-64071825D01*
X148345110Y-64124248D01*
X148388347Y-64167485D01*
X148398292Y-64183312D01*
X148409924Y-64196231D01*
X148449714Y-64265150D01*
X148483776Y-64319359D01*
X148488029Y-64331513D01*
X148493622Y-64341201D01*
X148522260Y-64429342D01*
X148543017Y-64488661D01*
X148543804Y-64495646D01*
X148545354Y-64500417D01*
X148559409Y-64634142D01*
X148563100Y-64666900D01*
X148559408Y-64699660D01*
X148545354Y-64833382D01*
X148543804Y-64838151D01*
X148543017Y-64845139D01*
X148522256Y-64904470D01*
X148493622Y-64992598D01*
X148488030Y-65002283D01*
X148483776Y-65014441D01*
X148449707Y-65068660D01*
X148409924Y-65137568D01*
X148398294Y-65150484D01*
X148388347Y-65166315D01*
X148345101Y-65209560D01*
X148297908Y-65261974D01*
X148278818Y-65275843D01*
X148261515Y-65293147D01*
X148213331Y-65323422D01*
X148162477Y-65360371D01*
X148135204Y-65372513D01*
X148109641Y-65388576D01*
X148060526Y-65405761D01*
X148009545Y-65428460D01*
X147974167Y-65435979D01*
X147940339Y-65447817D01*
X147893822Y-65453058D01*
X147845800Y-65463266D01*
X147803227Y-65463266D01*
X147762100Y-65467900D01*
X147720973Y-65463266D01*
X147678400Y-65463266D01*
X147630376Y-65453058D01*
X147583861Y-65447817D01*
X147550033Y-65435980D01*
X147514654Y-65428460D01*
X147463668Y-65405760D01*
X147414559Y-65388576D01*
X147388998Y-65372514D01*
X147361722Y-65360371D01*
X147310860Y-65323417D01*
X147262685Y-65293147D01*
X147245383Y-65275845D01*
X147226291Y-65261974D01*
X147179088Y-65209550D01*
X147135853Y-65166315D01*
X147125908Y-65150487D01*
X147114275Y-65137568D01*
X147074480Y-65068640D01*
X147040424Y-65014441D01*
X147036171Y-65002288D01*
X147030577Y-64992598D01*
X147001929Y-64904430D01*
X146981183Y-64845139D01*
X146980396Y-64838156D01*
X146978845Y-64833382D01*
X146964776Y-64699528D01*
X146961100Y-64666900D01*
X146964776Y-64634274D01*
X146978845Y-64500417D01*
X146980396Y-64495642D01*
X146981183Y-64488661D01*
X147001925Y-64429382D01*
X147030577Y-64341201D01*
X147036172Y-64331509D01*
X147040424Y-64319359D01*
X147074473Y-64265170D01*
X147114275Y-64196231D01*
X147125910Y-64183308D01*
X147135853Y-64167485D01*
X147179079Y-64124258D01*
X147226291Y-64071825D01*
X147245387Y-64057950D01*
X147262685Y-64040653D01*
X147310855Y-64010385D01*
X147361723Y-63973428D01*
X147389001Y-63961282D01*
X147414559Y-63945224D01*
X147463659Y-63928042D01*
X147514654Y-63905339D01*
X147550039Y-63897817D01*
X147583861Y-63885983D01*
X147630373Y-63880742D01*
X147678400Y-63870534D01*
X147720973Y-63870534D01*
X147762100Y-63865900D01*
X147803227Y-63870534D01*
G37*
G36*
X172172651Y-65026688D02*
G01*
X172205418Y-65048582D01*
X172227312Y-65081349D01*
X172235000Y-65120000D01*
X172235000Y-65220000D01*
X172227312Y-65258651D01*
X172205418Y-65291418D01*
X172172651Y-65313312D01*
X172134000Y-65321000D01*
X171359000Y-65321000D01*
X171320349Y-65313312D01*
X171287582Y-65291418D01*
X171265688Y-65258651D01*
X171258000Y-65220000D01*
X171258000Y-65120000D01*
X171265688Y-65081349D01*
X171287582Y-65048582D01*
X171320349Y-65026688D01*
X171359000Y-65019000D01*
X172134000Y-65019000D01*
X172172651Y-65026688D01*
G37*
G36*
X179047651Y-65026688D02*
G01*
X179080418Y-65048582D01*
X179102312Y-65081349D01*
X179110000Y-65120000D01*
X179110000Y-65220000D01*
X179102312Y-65258651D01*
X179080418Y-65291418D01*
X179047651Y-65313312D01*
X179009000Y-65321000D01*
X178234000Y-65321000D01*
X178195349Y-65313312D01*
X178162582Y-65291418D01*
X178140688Y-65258651D01*
X178133000Y-65220000D01*
X178133000Y-65120000D01*
X178140688Y-65081349D01*
X178162582Y-65048582D01*
X178195349Y-65026688D01*
X178234000Y-65019000D01*
X179009000Y-65019000D01*
X179047651Y-65026688D01*
G37*
G36*
X180809893Y-64585739D02*
G01*
X180871857Y-64627143D01*
X180913261Y-64689107D01*
X180927800Y-64762200D01*
X180927800Y-65102200D01*
X180913261Y-65175293D01*
X180871857Y-65237257D01*
X180809893Y-65278661D01*
X180736800Y-65293200D01*
X180456800Y-65293200D01*
X180383707Y-65278661D01*
X180321743Y-65237257D01*
X180280339Y-65175293D01*
X180265800Y-65102200D01*
X180265800Y-64762200D01*
X180280339Y-64689107D01*
X180321743Y-64627143D01*
X180383707Y-64585739D01*
X180456800Y-64571200D01*
X180736800Y-64571200D01*
X180809893Y-64585739D01*
G37*
G36*
X181769893Y-64585739D02*
G01*
X181831857Y-64627143D01*
X181873261Y-64689107D01*
X181887800Y-64762200D01*
X181887800Y-65102200D01*
X181873261Y-65175293D01*
X181831857Y-65237257D01*
X181769893Y-65278661D01*
X181696800Y-65293200D01*
X181416800Y-65293200D01*
X181343707Y-65278661D01*
X181281743Y-65237257D01*
X181240339Y-65175293D01*
X181225800Y-65102200D01*
X181225800Y-64762200D01*
X181240339Y-64689107D01*
X181281743Y-64627143D01*
X181343707Y-64585739D01*
X181416800Y-64571200D01*
X181696800Y-64571200D01*
X181769893Y-64585739D01*
G37*
G36*
X182714893Y-64585739D02*
G01*
X182776857Y-64627143D01*
X182818261Y-64689107D01*
X182832800Y-64762200D01*
X182832800Y-65102200D01*
X182818261Y-65175293D01*
X182776857Y-65237257D01*
X182714893Y-65278661D01*
X182641800Y-65293200D01*
X182361800Y-65293200D01*
X182288707Y-65278661D01*
X182226743Y-65237257D01*
X182185339Y-65175293D01*
X182170800Y-65102200D01*
X182170800Y-64762200D01*
X182185339Y-64689107D01*
X182226743Y-64627143D01*
X182288707Y-64585739D01*
X182361800Y-64571200D01*
X182641800Y-64571200D01*
X182714893Y-64585739D01*
G37*
G36*
X183674893Y-64585739D02*
G01*
X183736857Y-64627143D01*
X183778261Y-64689107D01*
X183792800Y-64762200D01*
X183792800Y-65102200D01*
X183778261Y-65175293D01*
X183736857Y-65237257D01*
X183674893Y-65278661D01*
X183601800Y-65293200D01*
X183321800Y-65293200D01*
X183248707Y-65278661D01*
X183186743Y-65237257D01*
X183145339Y-65175293D01*
X183130800Y-65102200D01*
X183130800Y-64762200D01*
X183145339Y-64689107D01*
X183186743Y-64627143D01*
X183248707Y-64585739D01*
X183321800Y-64571200D01*
X183601800Y-64571200D01*
X183674893Y-64585739D01*
G37*
G36*
X172172651Y-64626688D02*
G01*
X172205418Y-64648582D01*
X172227312Y-64681349D01*
X172235000Y-64720000D01*
X172235000Y-64820000D01*
X172227312Y-64858651D01*
X172205418Y-64891418D01*
X172172651Y-64913312D01*
X172134000Y-64921000D01*
X171359000Y-64921000D01*
X171320349Y-64913312D01*
X171287582Y-64891418D01*
X171265688Y-64858651D01*
X171258000Y-64820000D01*
X171258000Y-64720000D01*
X171265688Y-64681349D01*
X171287582Y-64648582D01*
X171320349Y-64626688D01*
X171359000Y-64619000D01*
X172134000Y-64619000D01*
X172172651Y-64626688D01*
G37*
G36*
X179047651Y-64626688D02*
G01*
X179080418Y-64648582D01*
X179102312Y-64681349D01*
X179110000Y-64720000D01*
X179110000Y-64820000D01*
X179102312Y-64858651D01*
X179080418Y-64891418D01*
X179047651Y-64913312D01*
X179009000Y-64921000D01*
X178234000Y-64921000D01*
X178195349Y-64913312D01*
X178162582Y-64891418D01*
X178140688Y-64858651D01*
X178133000Y-64820000D01*
X178133000Y-64720000D01*
X178140688Y-64681349D01*
X178162582Y-64648582D01*
X178195349Y-64626688D01*
X178234000Y-64619000D01*
X179009000Y-64619000D01*
X179047651Y-64626688D01*
G37*
G36*
X172172651Y-64226688D02*
G01*
X172205418Y-64248582D01*
X172227312Y-64281349D01*
X172235000Y-64320000D01*
X172235000Y-64420000D01*
X172227312Y-64458651D01*
X172205418Y-64491418D01*
X172172651Y-64513312D01*
X172134000Y-64521000D01*
X171359000Y-64521000D01*
X171320349Y-64513312D01*
X171287582Y-64491418D01*
X171265688Y-64458651D01*
X171258000Y-64420000D01*
X171258000Y-64320000D01*
X171265688Y-64281349D01*
X171287582Y-64248582D01*
X171320349Y-64226688D01*
X171359000Y-64219000D01*
X172134000Y-64219000D01*
X172172651Y-64226688D01*
G37*
G36*
X179047651Y-64226688D02*
G01*
X179080418Y-64248582D01*
X179102312Y-64281349D01*
X179110000Y-64320000D01*
X179110000Y-64420000D01*
X179102312Y-64458651D01*
X179080418Y-64491418D01*
X179047651Y-64513312D01*
X179009000Y-64521000D01*
X178234000Y-64521000D01*
X178195349Y-64513312D01*
X178162582Y-64491418D01*
X178140688Y-64458651D01*
X178133000Y-64420000D01*
X178133000Y-64320000D01*
X178140688Y-64281349D01*
X178162582Y-64248582D01*
X178195349Y-64226688D01*
X178234000Y-64219000D01*
X179009000Y-64219000D01*
X179047651Y-64226688D01*
G37*
G36*
X180809893Y-63595139D02*
G01*
X180871857Y-63636543D01*
X180913261Y-63698507D01*
X180927800Y-63771600D01*
X180927800Y-64111600D01*
X180913261Y-64184693D01*
X180871857Y-64246657D01*
X180809893Y-64288061D01*
X180736800Y-64302600D01*
X180456800Y-64302600D01*
X180383707Y-64288061D01*
X180321743Y-64246657D01*
X180280339Y-64184693D01*
X180265800Y-64111600D01*
X180265800Y-63771600D01*
X180280339Y-63698507D01*
X180321743Y-63636543D01*
X180383707Y-63595139D01*
X180456800Y-63580600D01*
X180736800Y-63580600D01*
X180809893Y-63595139D01*
G37*
G36*
X181769893Y-63595139D02*
G01*
X181831857Y-63636543D01*
X181873261Y-63698507D01*
X181887800Y-63771600D01*
X181887800Y-64111600D01*
X181873261Y-64184693D01*
X181831857Y-64246657D01*
X181769893Y-64288061D01*
X181696800Y-64302600D01*
X181416800Y-64302600D01*
X181343707Y-64288061D01*
X181281743Y-64246657D01*
X181240339Y-64184693D01*
X181225800Y-64111600D01*
X181225800Y-63771600D01*
X181240339Y-63698507D01*
X181281743Y-63636543D01*
X181343707Y-63595139D01*
X181416800Y-63580600D01*
X181696800Y-63580600D01*
X181769893Y-63595139D01*
G37*
G36*
X182714893Y-63595139D02*
G01*
X182776857Y-63636543D01*
X182818261Y-63698507D01*
X182832800Y-63771600D01*
X182832800Y-64111600D01*
X182818261Y-64184693D01*
X182776857Y-64246657D01*
X182714893Y-64288061D01*
X182641800Y-64302600D01*
X182361800Y-64302600D01*
X182288707Y-64288061D01*
X182226743Y-64246657D01*
X182185339Y-64184693D01*
X182170800Y-64111600D01*
X182170800Y-63771600D01*
X182185339Y-63698507D01*
X182226743Y-63636543D01*
X182288707Y-63595139D01*
X182361800Y-63580600D01*
X182641800Y-63580600D01*
X182714893Y-63595139D01*
G37*
G36*
X183674893Y-63595139D02*
G01*
X183736857Y-63636543D01*
X183778261Y-63698507D01*
X183792800Y-63771600D01*
X183792800Y-64111600D01*
X183778261Y-64184693D01*
X183736857Y-64246657D01*
X183674893Y-64288061D01*
X183601800Y-64302600D01*
X183321800Y-64302600D01*
X183248707Y-64288061D01*
X183186743Y-64246657D01*
X183145339Y-64184693D01*
X183130800Y-64111600D01*
X183130800Y-63771600D01*
X183145339Y-63698507D01*
X183186743Y-63636543D01*
X183248707Y-63595139D01*
X183321800Y-63580600D01*
X183601800Y-63580600D01*
X183674893Y-63595139D01*
G37*
G36*
X176714623Y-60933843D02*
G01*
X176777886Y-60976114D01*
X176820157Y-61039377D01*
X176835000Y-61114000D01*
X176835000Y-64026000D01*
X176820157Y-64100623D01*
X176777886Y-64163886D01*
X176714623Y-64206157D01*
X176640000Y-64221000D01*
X173728000Y-64221000D01*
X173653377Y-64206157D01*
X173590114Y-64163886D01*
X173547843Y-64100623D01*
X173533000Y-64026000D01*
X173533000Y-61114000D01*
X173547843Y-61039377D01*
X173590114Y-60976114D01*
X173653377Y-60933843D01*
X173728000Y-60919000D01*
X176640000Y-60919000D01*
X176714623Y-60933843D01*
G37*
G36*
X172172651Y-63826688D02*
G01*
X172205418Y-63848582D01*
X172227312Y-63881349D01*
X172235000Y-63920000D01*
X172235000Y-64020000D01*
X172227312Y-64058651D01*
X172205418Y-64091418D01*
X172172651Y-64113312D01*
X172134000Y-64121000D01*
X171359000Y-64121000D01*
X171320349Y-64113312D01*
X171287582Y-64091418D01*
X171265688Y-64058651D01*
X171258000Y-64020000D01*
X171258000Y-63920000D01*
X171265688Y-63881349D01*
X171287582Y-63848582D01*
X171320349Y-63826688D01*
X171359000Y-63819000D01*
X172134000Y-63819000D01*
X172172651Y-63826688D01*
G37*
G36*
X179047651Y-63826688D02*
G01*
X179080418Y-63848582D01*
X179102312Y-63881349D01*
X179110000Y-63920000D01*
X179110000Y-64020000D01*
X179102312Y-64058651D01*
X179080418Y-64091418D01*
X179047651Y-64113312D01*
X179009000Y-64121000D01*
X178234000Y-64121000D01*
X178195349Y-64113312D01*
X178162582Y-64091418D01*
X178140688Y-64058651D01*
X178133000Y-64020000D01*
X178133000Y-63920000D01*
X178140688Y-63881349D01*
X178162582Y-63848582D01*
X178195349Y-63826688D01*
X178234000Y-63819000D01*
X179009000Y-63819000D01*
X179047651Y-63826688D01*
G37*
G36*
X172172651Y-63426688D02*
G01*
X172205418Y-63448582D01*
X172227312Y-63481349D01*
X172235000Y-63520000D01*
X172235000Y-63620000D01*
X172227312Y-63658651D01*
X172205418Y-63691418D01*
X172172651Y-63713312D01*
X172134000Y-63721000D01*
X171359000Y-63721000D01*
X171320349Y-63713312D01*
X171287582Y-63691418D01*
X171265688Y-63658651D01*
X171258000Y-63620000D01*
X171258000Y-63520000D01*
X171265688Y-63481349D01*
X171287582Y-63448582D01*
X171320349Y-63426688D01*
X171359000Y-63419000D01*
X172134000Y-63419000D01*
X172172651Y-63426688D01*
G37*
G36*
X179047651Y-63426688D02*
G01*
X179080418Y-63448582D01*
X179102312Y-63481349D01*
X179110000Y-63520000D01*
X179110000Y-63620000D01*
X179102312Y-63658651D01*
X179080418Y-63691418D01*
X179047651Y-63713312D01*
X179009000Y-63721000D01*
X178234000Y-63721000D01*
X178195349Y-63713312D01*
X178162582Y-63691418D01*
X178140688Y-63658651D01*
X178133000Y-63620000D01*
X178133000Y-63520000D01*
X178140688Y-63481349D01*
X178162582Y-63448582D01*
X178195349Y-63426688D01*
X178234000Y-63419000D01*
X179009000Y-63419000D01*
X179047651Y-63426688D01*
G37*
G36*
X172172651Y-63026688D02*
G01*
X172205418Y-63048582D01*
X172227312Y-63081349D01*
X172235000Y-63120000D01*
X172235000Y-63220000D01*
X172227312Y-63258651D01*
X172205418Y-63291418D01*
X172172651Y-63313312D01*
X172134000Y-63321000D01*
X171359000Y-63321000D01*
X171320349Y-63313312D01*
X171287582Y-63291418D01*
X171265688Y-63258651D01*
X171258000Y-63220000D01*
X171258000Y-63120000D01*
X171265688Y-63081349D01*
X171287582Y-63048582D01*
X171320349Y-63026688D01*
X171359000Y-63019000D01*
X172134000Y-63019000D01*
X172172651Y-63026688D01*
G37*
G36*
X179047651Y-63026688D02*
G01*
X179080418Y-63048582D01*
X179102312Y-63081349D01*
X179110000Y-63120000D01*
X179110000Y-63220000D01*
X179102312Y-63258651D01*
X179080418Y-63291418D01*
X179047651Y-63313312D01*
X179009000Y-63321000D01*
X178234000Y-63321000D01*
X178195349Y-63313312D01*
X178162582Y-63291418D01*
X178140688Y-63258651D01*
X178133000Y-63220000D01*
X178133000Y-63120000D01*
X178140688Y-63081349D01*
X178162582Y-63048582D01*
X178195349Y-63026688D01*
X178234000Y-63019000D01*
X179009000Y-63019000D01*
X179047651Y-63026688D01*
G37*
G36*
X180805093Y-62604539D02*
G01*
X180867057Y-62645943D01*
X180908461Y-62707907D01*
X180923000Y-62781000D01*
X180923000Y-63121000D01*
X180908461Y-63194093D01*
X180867057Y-63256057D01*
X180805093Y-63297461D01*
X180732000Y-63312000D01*
X180452000Y-63312000D01*
X180378907Y-63297461D01*
X180316943Y-63256057D01*
X180275539Y-63194093D01*
X180261000Y-63121000D01*
X180261000Y-62781000D01*
X180275539Y-62707907D01*
X180316943Y-62645943D01*
X180378907Y-62604539D01*
X180452000Y-62590000D01*
X180732000Y-62590000D01*
X180805093Y-62604539D01*
G37*
G36*
X181765093Y-62604539D02*
G01*
X181827057Y-62645943D01*
X181868461Y-62707907D01*
X181883000Y-62781000D01*
X181883000Y-63121000D01*
X181868461Y-63194093D01*
X181827057Y-63256057D01*
X181765093Y-63297461D01*
X181692000Y-63312000D01*
X181412000Y-63312000D01*
X181338907Y-63297461D01*
X181276943Y-63256057D01*
X181235539Y-63194093D01*
X181221000Y-63121000D01*
X181221000Y-62781000D01*
X181235539Y-62707907D01*
X181276943Y-62645943D01*
X181338907Y-62604539D01*
X181412000Y-62590000D01*
X181692000Y-62590000D01*
X181765093Y-62604539D01*
G37*
G36*
X182714893Y-62604539D02*
G01*
X182776857Y-62645943D01*
X182818261Y-62707907D01*
X182832800Y-62781000D01*
X182832800Y-63121000D01*
X182818261Y-63194093D01*
X182776857Y-63256057D01*
X182714893Y-63297461D01*
X182641800Y-63312000D01*
X182361800Y-63312000D01*
X182288707Y-63297461D01*
X182226743Y-63256057D01*
X182185339Y-63194093D01*
X182170800Y-63121000D01*
X182170800Y-62781000D01*
X182185339Y-62707907D01*
X182226743Y-62645943D01*
X182288707Y-62604539D01*
X182361800Y-62590000D01*
X182641800Y-62590000D01*
X182714893Y-62604539D01*
G37*
G36*
X183674893Y-62604539D02*
G01*
X183736857Y-62645943D01*
X183778261Y-62707907D01*
X183792800Y-62781000D01*
X183792800Y-63121000D01*
X183778261Y-63194093D01*
X183736857Y-63256057D01*
X183674893Y-63297461D01*
X183601800Y-63312000D01*
X183321800Y-63312000D01*
X183248707Y-63297461D01*
X183186743Y-63256057D01*
X183145339Y-63194093D01*
X183130800Y-63121000D01*
X183130800Y-62781000D01*
X183145339Y-62707907D01*
X183186743Y-62645943D01*
X183248707Y-62604539D01*
X183321800Y-62590000D01*
X183601800Y-62590000D01*
X183674893Y-62604539D01*
G37*
G36*
X126959022Y-60903026D02*
G01*
X126988966Y-60923034D01*
X127008974Y-60952978D01*
X127016000Y-60988300D01*
X127016000Y-62875700D01*
X127008974Y-62911022D01*
X126988966Y-62940966D01*
X126959022Y-62960974D01*
X126923700Y-62968000D01*
X126416300Y-62968000D01*
X126380978Y-62960974D01*
X126351034Y-62940966D01*
X126331026Y-62911022D01*
X126324000Y-62875700D01*
X126324000Y-60988300D01*
X126331026Y-60952978D01*
X126351034Y-60923034D01*
X126380978Y-60903026D01*
X126416300Y-60896000D01*
X126923700Y-60896000D01*
X126959022Y-60903026D01*
G37*
G36*
X128229022Y-60903026D02*
G01*
X128258966Y-60923034D01*
X128278974Y-60952978D01*
X128286000Y-60988300D01*
X128286000Y-62875700D01*
X128278974Y-62911022D01*
X128258966Y-62940966D01*
X128229022Y-62960974D01*
X128193700Y-62968000D01*
X127686300Y-62968000D01*
X127650978Y-62960974D01*
X127621034Y-62940966D01*
X127601026Y-62911022D01*
X127594000Y-62875700D01*
X127594000Y-60988300D01*
X127601026Y-60952978D01*
X127621034Y-60923034D01*
X127650978Y-60903026D01*
X127686300Y-60896000D01*
X128193700Y-60896000D01*
X128229022Y-60903026D01*
G37*
G36*
X129499022Y-60903026D02*
G01*
X129528966Y-60923034D01*
X129548974Y-60952978D01*
X129556000Y-60988300D01*
X129556000Y-62875700D01*
X129548974Y-62911022D01*
X129528966Y-62940966D01*
X129499022Y-62960974D01*
X129463700Y-62968000D01*
X128956300Y-62968000D01*
X128920978Y-62960974D01*
X128891034Y-62940966D01*
X128871026Y-62911022D01*
X128864000Y-62875700D01*
X128864000Y-60988300D01*
X128871026Y-60952978D01*
X128891034Y-60923034D01*
X128920978Y-60903026D01*
X128956300Y-60896000D01*
X129463700Y-60896000D01*
X129499022Y-60903026D01*
G37*
G36*
X130769022Y-60903026D02*
G01*
X130798966Y-60923034D01*
X130818974Y-60952978D01*
X130826000Y-60988300D01*
X130826000Y-62875700D01*
X130818974Y-62911022D01*
X130798966Y-62940966D01*
X130769022Y-62960974D01*
X130733700Y-62968000D01*
X130226300Y-62968000D01*
X130190978Y-62960974D01*
X130161034Y-62940966D01*
X130141026Y-62911022D01*
X130134000Y-62875700D01*
X130134000Y-60988300D01*
X130141026Y-60952978D01*
X130161034Y-60923034D01*
X130190978Y-60903026D01*
X130226300Y-60896000D01*
X130733700Y-60896000D01*
X130769022Y-60903026D01*
G37*
G36*
X141453227Y-61330534D02*
G01*
X141495800Y-61330534D01*
X141543825Y-61340742D01*
X141590339Y-61345983D01*
X141624162Y-61357818D01*
X141659545Y-61365339D01*
X141710537Y-61388041D01*
X141759641Y-61405224D01*
X141785198Y-61421283D01*
X141812477Y-61433428D01*
X141863342Y-61470383D01*
X141911515Y-61500653D01*
X141928815Y-61517953D01*
X141947908Y-61531825D01*
X141995110Y-61584248D01*
X142038347Y-61627485D01*
X142048292Y-61643312D01*
X142059924Y-61656231D01*
X142099714Y-61725150D01*
X142133776Y-61779359D01*
X142138029Y-61791513D01*
X142143622Y-61801201D01*
X142172260Y-61889342D01*
X142193017Y-61948661D01*
X142193804Y-61955646D01*
X142195354Y-61960417D01*
X142209409Y-62094142D01*
X142213100Y-62126900D01*
X142209408Y-62159660D01*
X142195354Y-62293382D01*
X142193804Y-62298151D01*
X142193017Y-62305139D01*
X142172256Y-62364470D01*
X142143622Y-62452598D01*
X142138030Y-62462283D01*
X142133776Y-62474441D01*
X142099707Y-62528660D01*
X142059924Y-62597568D01*
X142048294Y-62610484D01*
X142038347Y-62626315D01*
X141995101Y-62669560D01*
X141947908Y-62721974D01*
X141928818Y-62735843D01*
X141911515Y-62753147D01*
X141863331Y-62783422D01*
X141812477Y-62820371D01*
X141785204Y-62832513D01*
X141759641Y-62848576D01*
X141710526Y-62865761D01*
X141659545Y-62888460D01*
X141624167Y-62895979D01*
X141590339Y-62907817D01*
X141543822Y-62913058D01*
X141495800Y-62923266D01*
X141453227Y-62923266D01*
X141412100Y-62927900D01*
X141370973Y-62923266D01*
X141328400Y-62923266D01*
X141280376Y-62913058D01*
X141233861Y-62907817D01*
X141200033Y-62895980D01*
X141164654Y-62888460D01*
X141113668Y-62865760D01*
X141064559Y-62848576D01*
X141038998Y-62832514D01*
X141011722Y-62820371D01*
X140960860Y-62783417D01*
X140912685Y-62753147D01*
X140895383Y-62735845D01*
X140876291Y-62721974D01*
X140829088Y-62669550D01*
X140785853Y-62626315D01*
X140775908Y-62610487D01*
X140764275Y-62597568D01*
X140724480Y-62528640D01*
X140690424Y-62474441D01*
X140686171Y-62462288D01*
X140680577Y-62452598D01*
X140651929Y-62364430D01*
X140631183Y-62305139D01*
X140630396Y-62298156D01*
X140628845Y-62293382D01*
X140614776Y-62159528D01*
X140611100Y-62126900D01*
X140614776Y-62094274D01*
X140628845Y-61960417D01*
X140630396Y-61955642D01*
X140631183Y-61948661D01*
X140651925Y-61889382D01*
X140680577Y-61801201D01*
X140686172Y-61791509D01*
X140690424Y-61779359D01*
X140724473Y-61725170D01*
X140764275Y-61656231D01*
X140775910Y-61643308D01*
X140785853Y-61627485D01*
X140829079Y-61584258D01*
X140876291Y-61531825D01*
X140895387Y-61517950D01*
X140912685Y-61500653D01*
X140960855Y-61470385D01*
X141011723Y-61433428D01*
X141039001Y-61421282D01*
X141064559Y-61405224D01*
X141113659Y-61388042D01*
X141164654Y-61365339D01*
X141200039Y-61357817D01*
X141233861Y-61345983D01*
X141280373Y-61340742D01*
X141328400Y-61330534D01*
X141370973Y-61330534D01*
X141412100Y-61325900D01*
X141453227Y-61330534D01*
G37*
G36*
X143993227Y-61330534D02*
G01*
X144035800Y-61330534D01*
X144083825Y-61340742D01*
X144130339Y-61345983D01*
X144164162Y-61357818D01*
X144199545Y-61365339D01*
X144250537Y-61388041D01*
X144299641Y-61405224D01*
X144325198Y-61421283D01*
X144352477Y-61433428D01*
X144403342Y-61470383D01*
X144451515Y-61500653D01*
X144468815Y-61517953D01*
X144487908Y-61531825D01*
X144535110Y-61584248D01*
X144578347Y-61627485D01*
X144588292Y-61643312D01*
X144599924Y-61656231D01*
X144639714Y-61725150D01*
X144673776Y-61779359D01*
X144678029Y-61791513D01*
X144683622Y-61801201D01*
X144712260Y-61889342D01*
X144733017Y-61948661D01*
X144733804Y-61955646D01*
X144735354Y-61960417D01*
X144749410Y-62094153D01*
X144753100Y-62126900D01*
X144749407Y-62159671D01*
X144735354Y-62293382D01*
X144733804Y-62298151D01*
X144733017Y-62305139D01*
X144712256Y-62364470D01*
X144683622Y-62452598D01*
X144678030Y-62462283D01*
X144673776Y-62474441D01*
X144639707Y-62528660D01*
X144599924Y-62597568D01*
X144588294Y-62610484D01*
X144578347Y-62626315D01*
X144535101Y-62669560D01*
X144487908Y-62721974D01*
X144468818Y-62735843D01*
X144451515Y-62753147D01*
X144403331Y-62783422D01*
X144352477Y-62820371D01*
X144325204Y-62832513D01*
X144299641Y-62848576D01*
X144250526Y-62865761D01*
X144199545Y-62888460D01*
X144164167Y-62895979D01*
X144130339Y-62907817D01*
X144083822Y-62913058D01*
X144035800Y-62923266D01*
X143993227Y-62923266D01*
X143952100Y-62927900D01*
X143910973Y-62923266D01*
X143868400Y-62923266D01*
X143820376Y-62913058D01*
X143773861Y-62907817D01*
X143740033Y-62895980D01*
X143704654Y-62888460D01*
X143653668Y-62865760D01*
X143604559Y-62848576D01*
X143578998Y-62832514D01*
X143551722Y-62820371D01*
X143500860Y-62783417D01*
X143452685Y-62753147D01*
X143435383Y-62735845D01*
X143416291Y-62721974D01*
X143369088Y-62669550D01*
X143325853Y-62626315D01*
X143315908Y-62610487D01*
X143304275Y-62597568D01*
X143264480Y-62528640D01*
X143230424Y-62474441D01*
X143226171Y-62462288D01*
X143220577Y-62452598D01*
X143191929Y-62364430D01*
X143171183Y-62305139D01*
X143170396Y-62298156D01*
X143168845Y-62293382D01*
X143154777Y-62159539D01*
X143151100Y-62126900D01*
X143154774Y-62094285D01*
X143168845Y-61960417D01*
X143170396Y-61955642D01*
X143171183Y-61948661D01*
X143191925Y-61889382D01*
X143220577Y-61801201D01*
X143226172Y-61791509D01*
X143230424Y-61779359D01*
X143264473Y-61725170D01*
X143304275Y-61656231D01*
X143315910Y-61643308D01*
X143325853Y-61627485D01*
X143369079Y-61584258D01*
X143416291Y-61531825D01*
X143435387Y-61517950D01*
X143452685Y-61500653D01*
X143500855Y-61470385D01*
X143551723Y-61433428D01*
X143579001Y-61421282D01*
X143604559Y-61405224D01*
X143653659Y-61388042D01*
X143704654Y-61365339D01*
X143740039Y-61357817D01*
X143773861Y-61345983D01*
X143820373Y-61340742D01*
X143868400Y-61330534D01*
X143910973Y-61330534D01*
X143952100Y-61325900D01*
X143993227Y-61330534D01*
G37*
G36*
X146533227Y-61330534D02*
G01*
X146575800Y-61330534D01*
X146623825Y-61340742D01*
X146670339Y-61345983D01*
X146704162Y-61357818D01*
X146739545Y-61365339D01*
X146790537Y-61388041D01*
X146839641Y-61405224D01*
X146865198Y-61421283D01*
X146892477Y-61433428D01*
X146943342Y-61470383D01*
X146991515Y-61500653D01*
X147008815Y-61517953D01*
X147027908Y-61531825D01*
X147075110Y-61584248D01*
X147118347Y-61627485D01*
X147128292Y-61643312D01*
X147139924Y-61656231D01*
X147179714Y-61725150D01*
X147213776Y-61779359D01*
X147218029Y-61791513D01*
X147223622Y-61801201D01*
X147252260Y-61889342D01*
X147273017Y-61948661D01*
X147273804Y-61955646D01*
X147275354Y-61960417D01*
X147289409Y-62094142D01*
X147293100Y-62126900D01*
X147289408Y-62159660D01*
X147275354Y-62293382D01*
X147273804Y-62298151D01*
X147273017Y-62305139D01*
X147252256Y-62364470D01*
X147223622Y-62452598D01*
X147218030Y-62462283D01*
X147213776Y-62474441D01*
X147179707Y-62528660D01*
X147139924Y-62597568D01*
X147128294Y-62610484D01*
X147118347Y-62626315D01*
X147075101Y-62669560D01*
X147027908Y-62721974D01*
X147008818Y-62735843D01*
X146991515Y-62753147D01*
X146943331Y-62783422D01*
X146892477Y-62820371D01*
X146865204Y-62832513D01*
X146839641Y-62848576D01*
X146790526Y-62865761D01*
X146739545Y-62888460D01*
X146704167Y-62895979D01*
X146670339Y-62907817D01*
X146623822Y-62913058D01*
X146575800Y-62923266D01*
X146533227Y-62923266D01*
X146492100Y-62927900D01*
X146450973Y-62923266D01*
X146408400Y-62923266D01*
X146360376Y-62913058D01*
X146313861Y-62907817D01*
X146280033Y-62895980D01*
X146244654Y-62888460D01*
X146193668Y-62865760D01*
X146144559Y-62848576D01*
X146118998Y-62832514D01*
X146091722Y-62820371D01*
X146040860Y-62783417D01*
X145992685Y-62753147D01*
X145975383Y-62735845D01*
X145956291Y-62721974D01*
X145909088Y-62669550D01*
X145865853Y-62626315D01*
X145855908Y-62610487D01*
X145844275Y-62597568D01*
X145804480Y-62528640D01*
X145770424Y-62474441D01*
X145766171Y-62462288D01*
X145760577Y-62452598D01*
X145731929Y-62364430D01*
X145711183Y-62305139D01*
X145710396Y-62298156D01*
X145708845Y-62293382D01*
X145694776Y-62159528D01*
X145691100Y-62126900D01*
X145694776Y-62094274D01*
X145708845Y-61960417D01*
X145710396Y-61955642D01*
X145711183Y-61948661D01*
X145731925Y-61889382D01*
X145760577Y-61801201D01*
X145766172Y-61791509D01*
X145770424Y-61779359D01*
X145804473Y-61725170D01*
X145844275Y-61656231D01*
X145855910Y-61643308D01*
X145865853Y-61627485D01*
X145909079Y-61584258D01*
X145956291Y-61531825D01*
X145975387Y-61517950D01*
X145992685Y-61500653D01*
X146040855Y-61470385D01*
X146091723Y-61433428D01*
X146119001Y-61421282D01*
X146144559Y-61405224D01*
X146193659Y-61388042D01*
X146244654Y-61365339D01*
X146280039Y-61357817D01*
X146313861Y-61345983D01*
X146360373Y-61340742D01*
X146408400Y-61330534D01*
X146450973Y-61330534D01*
X146492100Y-61325900D01*
X146533227Y-61330534D01*
G37*
G36*
X149073227Y-61330534D02*
G01*
X149115800Y-61330534D01*
X149163825Y-61340742D01*
X149210339Y-61345983D01*
X149244162Y-61357818D01*
X149279545Y-61365339D01*
X149330537Y-61388041D01*
X149379641Y-61405224D01*
X149405198Y-61421283D01*
X149432477Y-61433428D01*
X149483342Y-61470383D01*
X149531515Y-61500653D01*
X149548815Y-61517953D01*
X149567908Y-61531825D01*
X149615110Y-61584248D01*
X149658347Y-61627485D01*
X149668292Y-61643312D01*
X149679924Y-61656231D01*
X149719714Y-61725150D01*
X149753776Y-61779359D01*
X149758029Y-61791513D01*
X149763622Y-61801201D01*
X149792260Y-61889342D01*
X149813017Y-61948661D01*
X149813804Y-61955646D01*
X149815354Y-61960417D01*
X149829409Y-62094142D01*
X149833100Y-62126900D01*
X149829408Y-62159660D01*
X149815354Y-62293382D01*
X149813804Y-62298151D01*
X149813017Y-62305139D01*
X149792256Y-62364470D01*
X149763622Y-62452598D01*
X149758030Y-62462283D01*
X149753776Y-62474441D01*
X149719707Y-62528660D01*
X149679924Y-62597568D01*
X149668294Y-62610484D01*
X149658347Y-62626315D01*
X149615101Y-62669560D01*
X149567908Y-62721974D01*
X149548818Y-62735843D01*
X149531515Y-62753147D01*
X149483331Y-62783422D01*
X149432477Y-62820371D01*
X149405204Y-62832513D01*
X149379641Y-62848576D01*
X149330526Y-62865761D01*
X149279545Y-62888460D01*
X149244167Y-62895979D01*
X149210339Y-62907817D01*
X149163822Y-62913058D01*
X149115800Y-62923266D01*
X149073227Y-62923266D01*
X149032100Y-62927900D01*
X148990973Y-62923266D01*
X148948400Y-62923266D01*
X148900376Y-62913058D01*
X148853861Y-62907817D01*
X148820033Y-62895980D01*
X148784654Y-62888460D01*
X148733668Y-62865760D01*
X148684559Y-62848576D01*
X148658998Y-62832514D01*
X148631722Y-62820371D01*
X148580860Y-62783417D01*
X148532685Y-62753147D01*
X148515383Y-62735845D01*
X148496291Y-62721974D01*
X148449088Y-62669550D01*
X148405853Y-62626315D01*
X148395908Y-62610487D01*
X148384275Y-62597568D01*
X148344480Y-62528640D01*
X148310424Y-62474441D01*
X148306171Y-62462288D01*
X148300577Y-62452598D01*
X148271929Y-62364430D01*
X148251183Y-62305139D01*
X148250396Y-62298156D01*
X148248845Y-62293382D01*
X148234776Y-62159528D01*
X148231100Y-62126900D01*
X148234776Y-62094274D01*
X148248845Y-61960417D01*
X148250396Y-61955642D01*
X148251183Y-61948661D01*
X148271925Y-61889382D01*
X148300577Y-61801201D01*
X148306172Y-61791509D01*
X148310424Y-61779359D01*
X148344473Y-61725170D01*
X148384275Y-61656231D01*
X148395910Y-61643308D01*
X148405853Y-61627485D01*
X148449079Y-61584258D01*
X148496291Y-61531825D01*
X148515387Y-61517950D01*
X148532685Y-61500653D01*
X148580855Y-61470385D01*
X148631723Y-61433428D01*
X148659001Y-61421282D01*
X148684559Y-61405224D01*
X148733659Y-61388042D01*
X148784654Y-61365339D01*
X148820039Y-61357817D01*
X148853861Y-61345983D01*
X148900373Y-61340742D01*
X148948400Y-61330534D01*
X148990973Y-61330534D01*
X149032100Y-61325900D01*
X149073227Y-61330534D01*
G37*
G36*
X172172651Y-62626688D02*
G01*
X172205418Y-62648582D01*
X172227312Y-62681349D01*
X172235000Y-62720000D01*
X172235000Y-62820000D01*
X172227312Y-62858651D01*
X172205418Y-62891418D01*
X172172651Y-62913312D01*
X172134000Y-62921000D01*
X171359000Y-62921000D01*
X171320349Y-62913312D01*
X171287582Y-62891418D01*
X171265688Y-62858651D01*
X171258000Y-62820000D01*
X171258000Y-62720000D01*
X171265688Y-62681349D01*
X171287582Y-62648582D01*
X171320349Y-62626688D01*
X171359000Y-62619000D01*
X172134000Y-62619000D01*
X172172651Y-62626688D01*
G37*
G36*
X179047651Y-62626688D02*
G01*
X179080418Y-62648582D01*
X179102312Y-62681349D01*
X179110000Y-62720000D01*
X179110000Y-62820000D01*
X179102312Y-62858651D01*
X179080418Y-62891418D01*
X179047651Y-62913312D01*
X179009000Y-62921000D01*
X178234000Y-62921000D01*
X178195349Y-62913312D01*
X178162582Y-62891418D01*
X178140688Y-62858651D01*
X178133000Y-62820000D01*
X178133000Y-62720000D01*
X178140688Y-62681349D01*
X178162582Y-62648582D01*
X178195349Y-62626688D01*
X178234000Y-62619000D01*
X179009000Y-62619000D01*
X179047651Y-62626688D01*
G37*
G36*
X172172651Y-62226688D02*
G01*
X172205418Y-62248582D01*
X172227312Y-62281349D01*
X172235000Y-62320000D01*
X172235000Y-62420000D01*
X172227312Y-62458651D01*
X172205418Y-62491418D01*
X172172651Y-62513312D01*
X172134000Y-62521000D01*
X171359000Y-62521000D01*
X171320349Y-62513312D01*
X171287582Y-62491418D01*
X171265688Y-62458651D01*
X171258000Y-62420000D01*
X171258000Y-62320000D01*
X171265688Y-62281349D01*
X171287582Y-62248582D01*
X171320349Y-62226688D01*
X171359000Y-62219000D01*
X172134000Y-62219000D01*
X172172651Y-62226688D01*
G37*
G36*
X179047651Y-62226688D02*
G01*
X179080418Y-62248582D01*
X179102312Y-62281349D01*
X179110000Y-62320000D01*
X179110000Y-62420000D01*
X179102312Y-62458651D01*
X179080418Y-62491418D01*
X179047651Y-62513312D01*
X179009000Y-62521000D01*
X178234000Y-62521000D01*
X178195349Y-62513312D01*
X178162582Y-62491418D01*
X178140688Y-62458651D01*
X178133000Y-62420000D01*
X178133000Y-62320000D01*
X178140688Y-62281349D01*
X178162582Y-62248582D01*
X178195349Y-62226688D01*
X178234000Y-62219000D01*
X179009000Y-62219000D01*
X179047651Y-62226688D01*
G37*
G36*
X180809893Y-61613939D02*
G01*
X180871857Y-61655343D01*
X180913261Y-61717307D01*
X180927800Y-61790400D01*
X180927800Y-62130400D01*
X180913261Y-62203493D01*
X180871857Y-62265457D01*
X180809893Y-62306861D01*
X180736800Y-62321400D01*
X180456800Y-62321400D01*
X180383707Y-62306861D01*
X180321743Y-62265457D01*
X180280339Y-62203493D01*
X180265800Y-62130400D01*
X180265800Y-61790400D01*
X180280339Y-61717307D01*
X180321743Y-61655343D01*
X180383707Y-61613939D01*
X180456800Y-61599400D01*
X180736800Y-61599400D01*
X180809893Y-61613939D01*
G37*
G36*
X181769893Y-61613939D02*
G01*
X181831857Y-61655343D01*
X181873261Y-61717307D01*
X181887800Y-61790400D01*
X181887800Y-62130400D01*
X181873261Y-62203493D01*
X181831857Y-62265457D01*
X181769893Y-62306861D01*
X181696800Y-62321400D01*
X181416800Y-62321400D01*
X181343707Y-62306861D01*
X181281743Y-62265457D01*
X181240339Y-62203493D01*
X181225800Y-62130400D01*
X181225800Y-61790400D01*
X181240339Y-61717307D01*
X181281743Y-61655343D01*
X181343707Y-61613939D01*
X181416800Y-61599400D01*
X181696800Y-61599400D01*
X181769893Y-61613939D01*
G37*
G36*
X172172651Y-61826688D02*
G01*
X172205418Y-61848582D01*
X172227312Y-61881349D01*
X172235000Y-61920000D01*
X172235000Y-62020000D01*
X172227312Y-62058651D01*
X172205418Y-62091418D01*
X172172651Y-62113312D01*
X172134000Y-62121000D01*
X171359000Y-62121000D01*
X171320349Y-62113312D01*
X171287582Y-62091418D01*
X171265688Y-62058651D01*
X171258000Y-62020000D01*
X171258000Y-61920000D01*
X171265688Y-61881349D01*
X171287582Y-61848582D01*
X171320349Y-61826688D01*
X171359000Y-61819000D01*
X172134000Y-61819000D01*
X172172651Y-61826688D01*
G37*
G36*
X179047651Y-61826688D02*
G01*
X179080418Y-61848582D01*
X179102312Y-61881349D01*
X179110000Y-61920000D01*
X179110000Y-62020000D01*
X179102312Y-62058651D01*
X179080418Y-62091418D01*
X179047651Y-62113312D01*
X179009000Y-62121000D01*
X178234000Y-62121000D01*
X178195349Y-62113312D01*
X178162582Y-62091418D01*
X178140688Y-62058651D01*
X178133000Y-62020000D01*
X178133000Y-61920000D01*
X178140688Y-61881349D01*
X178162582Y-61848582D01*
X178195349Y-61826688D01*
X178234000Y-61819000D01*
X179009000Y-61819000D01*
X179047651Y-61826688D01*
G37*
G36*
X172172651Y-61426688D02*
G01*
X172205418Y-61448582D01*
X172227312Y-61481349D01*
X172235000Y-61520000D01*
X172235000Y-61620000D01*
X172227312Y-61658651D01*
X172205418Y-61691418D01*
X172172651Y-61713312D01*
X172134000Y-61721000D01*
X171359000Y-61721000D01*
X171320349Y-61713312D01*
X171287582Y-61691418D01*
X171265688Y-61658651D01*
X171258000Y-61620000D01*
X171258000Y-61520000D01*
X171265688Y-61481349D01*
X171287582Y-61448582D01*
X171320349Y-61426688D01*
X171359000Y-61419000D01*
X172134000Y-61419000D01*
X172172651Y-61426688D01*
G37*
G36*
X179047651Y-61426688D02*
G01*
X179080418Y-61448582D01*
X179102312Y-61481349D01*
X179110000Y-61520000D01*
X179110000Y-61620000D01*
X179102312Y-61658651D01*
X179080418Y-61691418D01*
X179047651Y-61713312D01*
X179009000Y-61721000D01*
X178234000Y-61721000D01*
X178195349Y-61713312D01*
X178162582Y-61691418D01*
X178140688Y-61658651D01*
X178133000Y-61620000D01*
X178133000Y-61520000D01*
X178140688Y-61481349D01*
X178162582Y-61448582D01*
X178195349Y-61426688D01*
X178234000Y-61419000D01*
X179009000Y-61419000D01*
X179047651Y-61426688D01*
G37*
G36*
X132120093Y-61057139D02*
G01*
X132182057Y-61098543D01*
X132223461Y-61160507D01*
X132238000Y-61233600D01*
X132238000Y-61513600D01*
X132223461Y-61586693D01*
X132182057Y-61648657D01*
X132120093Y-61690061D01*
X132047000Y-61704600D01*
X131707000Y-61704600D01*
X131633907Y-61690061D01*
X131571943Y-61648657D01*
X131530539Y-61586693D01*
X131516000Y-61513600D01*
X131516000Y-61233600D01*
X131530539Y-61160507D01*
X131571943Y-61098543D01*
X131633907Y-61057139D01*
X131707000Y-61042600D01*
X132047000Y-61042600D01*
X132120093Y-61057139D01*
G37*
G36*
X156206517Y-60840482D02*
G01*
X156223062Y-60851538D01*
X156234118Y-60868083D01*
X156238000Y-60887600D01*
X156238000Y-61437600D01*
X156234118Y-61457117D01*
X156223062Y-61473662D01*
X156206517Y-61484718D01*
X156187000Y-61488600D01*
X155187000Y-61488600D01*
X155167483Y-61484718D01*
X155150938Y-61473662D01*
X155139882Y-61457117D01*
X155136000Y-61437600D01*
X155136000Y-60887600D01*
X155139882Y-60868083D01*
X155150938Y-60851538D01*
X155167483Y-60840482D01*
X155187000Y-60836600D01*
X156187000Y-60836600D01*
X156206517Y-60840482D01*
G37*
G36*
X180809893Y-60623339D02*
G01*
X180871857Y-60664743D01*
X180913261Y-60726707D01*
X180927800Y-60799800D01*
X180927800Y-61139800D01*
X180913261Y-61212893D01*
X180871857Y-61274857D01*
X180809893Y-61316261D01*
X180736800Y-61330800D01*
X180456800Y-61330800D01*
X180383707Y-61316261D01*
X180321743Y-61274857D01*
X180280339Y-61212893D01*
X180265800Y-61139800D01*
X180265800Y-60799800D01*
X180280339Y-60726707D01*
X180321743Y-60664743D01*
X180383707Y-60623339D01*
X180456800Y-60608800D01*
X180736800Y-60608800D01*
X180809893Y-60623339D01*
G37*
G36*
X181769893Y-60623339D02*
G01*
X181831857Y-60664743D01*
X181873261Y-60726707D01*
X181887800Y-60799800D01*
X181887800Y-61139800D01*
X181873261Y-61212893D01*
X181831857Y-61274857D01*
X181769893Y-61316261D01*
X181696800Y-61330800D01*
X181416800Y-61330800D01*
X181343707Y-61316261D01*
X181281743Y-61274857D01*
X181240339Y-61212893D01*
X181225800Y-61139800D01*
X181225800Y-60799800D01*
X181240339Y-60726707D01*
X181281743Y-60664743D01*
X181343707Y-60623339D01*
X181416800Y-60608800D01*
X181696800Y-60608800D01*
X181769893Y-60623339D01*
G37*
G36*
X172172651Y-61026688D02*
G01*
X172205418Y-61048582D01*
X172227312Y-61081349D01*
X172235000Y-61120000D01*
X172235000Y-61220000D01*
X172227312Y-61258651D01*
X172205418Y-61291418D01*
X172172651Y-61313312D01*
X172134000Y-61321000D01*
X171359000Y-61321000D01*
X171320349Y-61313312D01*
X171287582Y-61291418D01*
X171265688Y-61258651D01*
X171258000Y-61220000D01*
X171258000Y-61120000D01*
X171265688Y-61081349D01*
X171287582Y-61048582D01*
X171320349Y-61026688D01*
X171359000Y-61019000D01*
X172134000Y-61019000D01*
X172172651Y-61026688D01*
G37*
G36*
X179047651Y-61026688D02*
G01*
X179080418Y-61048582D01*
X179102312Y-61081349D01*
X179110000Y-61120000D01*
X179110000Y-61220000D01*
X179102312Y-61258651D01*
X179080418Y-61291418D01*
X179047651Y-61313312D01*
X179009000Y-61321000D01*
X178234000Y-61321000D01*
X178195349Y-61313312D01*
X178162582Y-61291418D01*
X178140688Y-61258651D01*
X178133000Y-61220000D01*
X178133000Y-61120000D01*
X178140688Y-61081349D01*
X178162582Y-61048582D01*
X178195349Y-61026688D01*
X178234000Y-61019000D01*
X179009000Y-61019000D01*
X179047651Y-61026688D01*
G37*
G36*
X184489550Y-59512202D02*
G01*
X184643000Y-59565897D01*
X184780654Y-59652390D01*
X184895610Y-59767346D01*
X184982103Y-59905000D01*
X185035798Y-60058450D01*
X185054000Y-60220000D01*
X185035798Y-60381550D01*
X184982103Y-60535000D01*
X184895610Y-60672654D01*
X184780654Y-60787610D01*
X184643000Y-60874103D01*
X184489550Y-60927798D01*
X184328000Y-60946000D01*
X184166450Y-60927798D01*
X184013000Y-60874103D01*
X183875346Y-60787610D01*
X183760390Y-60672654D01*
X183673897Y-60535000D01*
X183620202Y-60381550D01*
X183602000Y-60220000D01*
X183620202Y-60058450D01*
X183673897Y-59905000D01*
X183760390Y-59767346D01*
X183875346Y-59652390D01*
X184013000Y-59565897D01*
X184166450Y-59512202D01*
X184328000Y-59494000D01*
X184489550Y-59512202D01*
G37*
G36*
X158975919Y-60253100D02*
G01*
X159041128Y-60296672D01*
X159084700Y-60361881D01*
X159100000Y-60438800D01*
X159100000Y-60738800D01*
X159084700Y-60815719D01*
X159041128Y-60880928D01*
X158975919Y-60924500D01*
X158899000Y-60939800D01*
X157599000Y-60939800D01*
X157522081Y-60924500D01*
X157456872Y-60880928D01*
X157413300Y-60815719D01*
X157398000Y-60738800D01*
X157398000Y-60438800D01*
X157413300Y-60361881D01*
X157456872Y-60296672D01*
X157522081Y-60253100D01*
X157599000Y-60237800D01*
X158899000Y-60237800D01*
X158975919Y-60253100D01*
G37*
G36*
X166175919Y-60253100D02*
G01*
X166241128Y-60296672D01*
X166284700Y-60361881D01*
X166300000Y-60438800D01*
X166300000Y-60738800D01*
X166284700Y-60815719D01*
X166241128Y-60880928D01*
X166175919Y-60924500D01*
X166099000Y-60939800D01*
X164799000Y-60939800D01*
X164722081Y-60924500D01*
X164656872Y-60880928D01*
X164613300Y-60815719D01*
X164598000Y-60738800D01*
X164598000Y-60438800D01*
X164613300Y-60361881D01*
X164656872Y-60296672D01*
X164722081Y-60253100D01*
X164799000Y-60237800D01*
X166099000Y-60237800D01*
X166175919Y-60253100D01*
G37*
G36*
X172172651Y-60626688D02*
G01*
X172205418Y-60648582D01*
X172227312Y-60681349D01*
X172235000Y-60720000D01*
X172235000Y-60820000D01*
X172227312Y-60858651D01*
X172205418Y-60891418D01*
X172172651Y-60913312D01*
X172134000Y-60921000D01*
X171359000Y-60921000D01*
X171320349Y-60913312D01*
X171287582Y-60891418D01*
X171265688Y-60858651D01*
X171258000Y-60820000D01*
X171258000Y-60720000D01*
X171265688Y-60681349D01*
X171287582Y-60648582D01*
X171320349Y-60626688D01*
X171359000Y-60619000D01*
X172134000Y-60619000D01*
X172172651Y-60626688D01*
G37*
G36*
X179047651Y-60626688D02*
G01*
X179080418Y-60648582D01*
X179102312Y-60681349D01*
X179110000Y-60720000D01*
X179110000Y-60820000D01*
X179102312Y-60858651D01*
X179080418Y-60891418D01*
X179047651Y-60913312D01*
X179009000Y-60921000D01*
X178234000Y-60921000D01*
X178195349Y-60913312D01*
X178162582Y-60891418D01*
X178140688Y-60858651D01*
X178133000Y-60820000D01*
X178133000Y-60720000D01*
X178140688Y-60681349D01*
X178162582Y-60648582D01*
X178195349Y-60626688D01*
X178234000Y-60619000D01*
X179009000Y-60619000D01*
X179047651Y-60626688D01*
G37*
G36*
X154306517Y-60190482D02*
G01*
X154323062Y-60201538D01*
X154334118Y-60218083D01*
X154338000Y-60237600D01*
X154338000Y-60787600D01*
X154334118Y-60807117D01*
X154323062Y-60823662D01*
X154306517Y-60834718D01*
X154287000Y-60838600D01*
X153287000Y-60838600D01*
X153267483Y-60834718D01*
X153250938Y-60823662D01*
X153239882Y-60807117D01*
X153236000Y-60787600D01*
X153236000Y-60237600D01*
X153239882Y-60218083D01*
X153250938Y-60201538D01*
X153267483Y-60190482D01*
X153287000Y-60186600D01*
X154287000Y-60186600D01*
X154306517Y-60190482D01*
G37*
G36*
X132120093Y-60097139D02*
G01*
X132182057Y-60138543D01*
X132223461Y-60200507D01*
X132238000Y-60273600D01*
X132238000Y-60553600D01*
X132223461Y-60626693D01*
X132182057Y-60688657D01*
X132120093Y-60730061D01*
X132047000Y-60744600D01*
X131707000Y-60744600D01*
X131633907Y-60730061D01*
X131571943Y-60688657D01*
X131530539Y-60626693D01*
X131516000Y-60553600D01*
X131516000Y-60273600D01*
X131530539Y-60200507D01*
X131571943Y-60138543D01*
X131633907Y-60097139D01*
X131707000Y-60082600D01*
X132047000Y-60082600D01*
X132120093Y-60097139D01*
G37*
G36*
X172172651Y-60226688D02*
G01*
X172205418Y-60248582D01*
X172227312Y-60281349D01*
X172235000Y-60320000D01*
X172235000Y-60420000D01*
X172227312Y-60458651D01*
X172205418Y-60491418D01*
X172172651Y-60513312D01*
X172134000Y-60521000D01*
X171359000Y-60521000D01*
X171320349Y-60513312D01*
X171287582Y-60491418D01*
X171265688Y-60458651D01*
X171258000Y-60420000D01*
X171258000Y-60320000D01*
X171265688Y-60281349D01*
X171287582Y-60248582D01*
X171320349Y-60226688D01*
X171359000Y-60219000D01*
X172134000Y-60219000D01*
X172172651Y-60226688D01*
G37*
G36*
X179047651Y-60226688D02*
G01*
X179080418Y-60248582D01*
X179102312Y-60281349D01*
X179110000Y-60320000D01*
X179110000Y-60420000D01*
X179102312Y-60458651D01*
X179080418Y-60491418D01*
X179047651Y-60513312D01*
X179009000Y-60521000D01*
X178234000Y-60521000D01*
X178195349Y-60513312D01*
X178162582Y-60491418D01*
X178140688Y-60458651D01*
X178133000Y-60420000D01*
X178133000Y-60320000D01*
X178140688Y-60281349D01*
X178162582Y-60248582D01*
X178195349Y-60226688D01*
X178234000Y-60219000D01*
X179009000Y-60219000D01*
X179047651Y-60226688D01*
G37*
G36*
X180809893Y-59632739D02*
G01*
X180871857Y-59674143D01*
X180913261Y-59736107D01*
X180927800Y-59809200D01*
X180927800Y-60149200D01*
X180913261Y-60222293D01*
X180871857Y-60284257D01*
X180809893Y-60325661D01*
X180736800Y-60340200D01*
X180456800Y-60340200D01*
X180383707Y-60325661D01*
X180321743Y-60284257D01*
X180280339Y-60222293D01*
X180265800Y-60149200D01*
X180265800Y-59809200D01*
X180280339Y-59736107D01*
X180321743Y-59674143D01*
X180383707Y-59632739D01*
X180456800Y-59618200D01*
X180736800Y-59618200D01*
X180809893Y-59632739D01*
G37*
G36*
X181769893Y-59632739D02*
G01*
X181831857Y-59674143D01*
X181873261Y-59736107D01*
X181887800Y-59809200D01*
X181887800Y-60149200D01*
X181873261Y-60222293D01*
X181831857Y-60284257D01*
X181769893Y-60325661D01*
X181696800Y-60340200D01*
X181416800Y-60340200D01*
X181343707Y-60325661D01*
X181281743Y-60284257D01*
X181240339Y-60222293D01*
X181225800Y-60149200D01*
X181225800Y-59809200D01*
X181240339Y-59736107D01*
X181281743Y-59674143D01*
X181343707Y-59632739D01*
X181416800Y-59618200D01*
X181696800Y-59618200D01*
X181769893Y-59632739D01*
G37*
G36*
X156206517Y-59540482D02*
G01*
X156223062Y-59551538D01*
X156234118Y-59568083D01*
X156238000Y-59587600D01*
X156238000Y-60137600D01*
X156234118Y-60157117D01*
X156223062Y-60173662D01*
X156206517Y-60184718D01*
X156187000Y-60188600D01*
X155187000Y-60188600D01*
X155167483Y-60184718D01*
X155150938Y-60173662D01*
X155139882Y-60157117D01*
X155136000Y-60137600D01*
X155136000Y-59587600D01*
X155139882Y-59568083D01*
X155150938Y-59551538D01*
X155167483Y-59540482D01*
X155187000Y-59536600D01*
X156187000Y-59536600D01*
X156206517Y-59540482D01*
G37*
G36*
X144411693Y-59429539D02*
G01*
X144473657Y-59470943D01*
X144515061Y-59532907D01*
X144529600Y-59606000D01*
X144529600Y-59946000D01*
X144515061Y-60019093D01*
X144473657Y-60081057D01*
X144411693Y-60122461D01*
X144338600Y-60137000D01*
X144058600Y-60137000D01*
X143985507Y-60122461D01*
X143923543Y-60081057D01*
X143882139Y-60019093D01*
X143867600Y-59946000D01*
X143867600Y-59606000D01*
X143882139Y-59532907D01*
X143923543Y-59470943D01*
X143985507Y-59429539D01*
X144058600Y-59415000D01*
X144338600Y-59415000D01*
X144411693Y-59429539D01*
G37*
G36*
X145371693Y-59429539D02*
G01*
X145433657Y-59470943D01*
X145475061Y-59532907D01*
X145489600Y-59606000D01*
X145489600Y-59946000D01*
X145475061Y-60019093D01*
X145433657Y-60081057D01*
X145371693Y-60122461D01*
X145298600Y-60137000D01*
X145018600Y-60137000D01*
X144945507Y-60122461D01*
X144883543Y-60081057D01*
X144842139Y-60019093D01*
X144827600Y-59946000D01*
X144827600Y-59606000D01*
X144842139Y-59532907D01*
X144883543Y-59470943D01*
X144945507Y-59429539D01*
X145018600Y-59415000D01*
X145298600Y-59415000D01*
X145371693Y-59429539D01*
G37*
G36*
X172172651Y-59826688D02*
G01*
X172205418Y-59848582D01*
X172227312Y-59881349D01*
X172235000Y-59920000D01*
X172235000Y-60020000D01*
X172227312Y-60058651D01*
X172205418Y-60091418D01*
X172172651Y-60113312D01*
X172134000Y-60121000D01*
X171359000Y-60121000D01*
X171320349Y-60113312D01*
X171287582Y-60091418D01*
X171265688Y-60058651D01*
X171258000Y-60020000D01*
X171258000Y-59920000D01*
X171265688Y-59881349D01*
X171287582Y-59848582D01*
X171320349Y-59826688D01*
X171359000Y-59819000D01*
X172134000Y-59819000D01*
X172172651Y-59826688D01*
G37*
G36*
X179047651Y-59826688D02*
G01*
X179080418Y-59848582D01*
X179102312Y-59881349D01*
X179110000Y-59920000D01*
X179110000Y-60020000D01*
X179102312Y-60058651D01*
X179080418Y-60091418D01*
X179047651Y-60113312D01*
X179009000Y-60121000D01*
X178234000Y-60121000D01*
X178195349Y-60113312D01*
X178162582Y-60091418D01*
X178140688Y-60058651D01*
X178133000Y-60020000D01*
X178133000Y-59920000D01*
X178140688Y-59881349D01*
X178162582Y-59848582D01*
X178195349Y-59826688D01*
X178234000Y-59819000D01*
X179009000Y-59819000D01*
X179047651Y-59826688D01*
G37*
G36*
X158975919Y-58983100D02*
G01*
X159041128Y-59026672D01*
X159084700Y-59091881D01*
X159100000Y-59168800D01*
X159100000Y-59468800D01*
X159084700Y-59545719D01*
X159041128Y-59610928D01*
X158975919Y-59654500D01*
X158899000Y-59669800D01*
X157599000Y-59669800D01*
X157522081Y-59654500D01*
X157456872Y-59610928D01*
X157413300Y-59545719D01*
X157398000Y-59468800D01*
X157398000Y-59168800D01*
X157413300Y-59091881D01*
X157456872Y-59026672D01*
X157522081Y-58983100D01*
X157599000Y-58967800D01*
X158899000Y-58967800D01*
X158975919Y-58983100D01*
G37*
G36*
X166175919Y-58983100D02*
G01*
X166241128Y-59026672D01*
X166284700Y-59091881D01*
X166300000Y-59168800D01*
X166300000Y-59468800D01*
X166284700Y-59545719D01*
X166241128Y-59610928D01*
X166175919Y-59654500D01*
X166099000Y-59669800D01*
X164799000Y-59669800D01*
X164722081Y-59654500D01*
X164656872Y-59610928D01*
X164613300Y-59545719D01*
X164598000Y-59468800D01*
X164598000Y-59168800D01*
X164613300Y-59091881D01*
X164656872Y-59026672D01*
X164722081Y-58983100D01*
X164799000Y-58967800D01*
X166099000Y-58967800D01*
X166175919Y-58983100D01*
G37*
G36*
X172672651Y-58651688D02*
G01*
X172705418Y-58673582D01*
X172727312Y-58706349D01*
X172735000Y-58745000D01*
X172735000Y-59520000D01*
X172727312Y-59558651D01*
X172705418Y-59591418D01*
X172672651Y-59613312D01*
X172634000Y-59621000D01*
X172534000Y-59621000D01*
X172495349Y-59613312D01*
X172462582Y-59591418D01*
X172440688Y-59558651D01*
X172433000Y-59520000D01*
X172433000Y-58745000D01*
X172440688Y-58706349D01*
X172462582Y-58673582D01*
X172495349Y-58651688D01*
X172534000Y-58644000D01*
X172634000Y-58644000D01*
X172672651Y-58651688D01*
G37*
G36*
X173072651Y-58651688D02*
G01*
X173105418Y-58673582D01*
X173127312Y-58706349D01*
X173135000Y-58745000D01*
X173135000Y-59520000D01*
X173127312Y-59558651D01*
X173105418Y-59591418D01*
X173072651Y-59613312D01*
X173034000Y-59621000D01*
X172934000Y-59621000D01*
X172895349Y-59613312D01*
X172862582Y-59591418D01*
X172840688Y-59558651D01*
X172833000Y-59520000D01*
X172833000Y-58745000D01*
X172840688Y-58706349D01*
X172862582Y-58673582D01*
X172895349Y-58651688D01*
X172934000Y-58644000D01*
X173034000Y-58644000D01*
X173072651Y-58651688D01*
G37*
G36*
X173472651Y-58651688D02*
G01*
X173505418Y-58673582D01*
X173527312Y-58706349D01*
X173535000Y-58745000D01*
X173535000Y-59520000D01*
X173527312Y-59558651D01*
X173505418Y-59591418D01*
X173472651Y-59613312D01*
X173434000Y-59621000D01*
X173334000Y-59621000D01*
X173295349Y-59613312D01*
X173262582Y-59591418D01*
X173240688Y-59558651D01*
X173233000Y-59520000D01*
X173233000Y-58745000D01*
X173240688Y-58706349D01*
X173262582Y-58673582D01*
X173295349Y-58651688D01*
X173334000Y-58644000D01*
X173434000Y-58644000D01*
X173472651Y-58651688D01*
G37*
G36*
X173872651Y-58651688D02*
G01*
X173905418Y-58673582D01*
X173927312Y-58706349D01*
X173935000Y-58745000D01*
X173935000Y-59520000D01*
X173927312Y-59558651D01*
X173905418Y-59591418D01*
X173872651Y-59613312D01*
X173834000Y-59621000D01*
X173734000Y-59621000D01*
X173695349Y-59613312D01*
X173662582Y-59591418D01*
X173640688Y-59558651D01*
X173633000Y-59520000D01*
X173633000Y-58745000D01*
X173640688Y-58706349D01*
X173662582Y-58673582D01*
X173695349Y-58651688D01*
X173734000Y-58644000D01*
X173834000Y-58644000D01*
X173872651Y-58651688D01*
G37*
G36*
X174272651Y-58651688D02*
G01*
X174305418Y-58673582D01*
X174327312Y-58706349D01*
X174335000Y-58745000D01*
X174335000Y-59520000D01*
X174327312Y-59558651D01*
X174305418Y-59591418D01*
X174272651Y-59613312D01*
X174234000Y-59621000D01*
X174134000Y-59621000D01*
X174095349Y-59613312D01*
X174062582Y-59591418D01*
X174040688Y-59558651D01*
X174033000Y-59520000D01*
X174033000Y-58745000D01*
X174040688Y-58706349D01*
X174062582Y-58673582D01*
X174095349Y-58651688D01*
X174134000Y-58644000D01*
X174234000Y-58644000D01*
X174272651Y-58651688D01*
G37*
G36*
X174672651Y-58651688D02*
G01*
X174705418Y-58673582D01*
X174727312Y-58706349D01*
X174735000Y-58745000D01*
X174735000Y-59520000D01*
X174727312Y-59558651D01*
X174705418Y-59591418D01*
X174672651Y-59613312D01*
X174634000Y-59621000D01*
X174534000Y-59621000D01*
X174495349Y-59613312D01*
X174462582Y-59591418D01*
X174440688Y-59558651D01*
X174433000Y-59520000D01*
X174433000Y-58745000D01*
X174440688Y-58706349D01*
X174462582Y-58673582D01*
X174495349Y-58651688D01*
X174534000Y-58644000D01*
X174634000Y-58644000D01*
X174672651Y-58651688D01*
G37*
G36*
X175072651Y-58651688D02*
G01*
X175105418Y-58673582D01*
X175127312Y-58706349D01*
X175135000Y-58745000D01*
X175135000Y-59520000D01*
X175127312Y-59558651D01*
X175105418Y-59591418D01*
X175072651Y-59613312D01*
X175034000Y-59621000D01*
X174934000Y-59621000D01*
X174895349Y-59613312D01*
X174862582Y-59591418D01*
X174840688Y-59558651D01*
X174833000Y-59520000D01*
X174833000Y-58745000D01*
X174840688Y-58706349D01*
X174862582Y-58673582D01*
X174895349Y-58651688D01*
X174934000Y-58644000D01*
X175034000Y-58644000D01*
X175072651Y-58651688D01*
G37*
G36*
X175472651Y-58651688D02*
G01*
X175505418Y-58673582D01*
X175527312Y-58706349D01*
X175535000Y-58745000D01*
X175535000Y-59520000D01*
X175527312Y-59558651D01*
X175505418Y-59591418D01*
X175472651Y-59613312D01*
X175434000Y-59621000D01*
X175334000Y-59621000D01*
X175295349Y-59613312D01*
X175262582Y-59591418D01*
X175240688Y-59558651D01*
X175233000Y-59520000D01*
X175233000Y-58745000D01*
X175240688Y-58706349D01*
X175262582Y-58673582D01*
X175295349Y-58651688D01*
X175334000Y-58644000D01*
X175434000Y-58644000D01*
X175472651Y-58651688D01*
G37*
G36*
X175872651Y-58651688D02*
G01*
X175905418Y-58673582D01*
X175927312Y-58706349D01*
X175935000Y-58745000D01*
X175935000Y-59520000D01*
X175927312Y-59558651D01*
X175905418Y-59591418D01*
X175872651Y-59613312D01*
X175834000Y-59621000D01*
X175734000Y-59621000D01*
X175695349Y-59613312D01*
X175662582Y-59591418D01*
X175640688Y-59558651D01*
X175633000Y-59520000D01*
X175633000Y-58745000D01*
X175640688Y-58706349D01*
X175662582Y-58673582D01*
X175695349Y-58651688D01*
X175734000Y-58644000D01*
X175834000Y-58644000D01*
X175872651Y-58651688D01*
G37*
G36*
X176272651Y-58651688D02*
G01*
X176305418Y-58673582D01*
X176327312Y-58706349D01*
X176335000Y-58745000D01*
X176335000Y-59520000D01*
X176327312Y-59558651D01*
X176305418Y-59591418D01*
X176272651Y-59613312D01*
X176234000Y-59621000D01*
X176134000Y-59621000D01*
X176095349Y-59613312D01*
X176062582Y-59591418D01*
X176040688Y-59558651D01*
X176033000Y-59520000D01*
X176033000Y-58745000D01*
X176040688Y-58706349D01*
X176062582Y-58673582D01*
X176095349Y-58651688D01*
X176134000Y-58644000D01*
X176234000Y-58644000D01*
X176272651Y-58651688D01*
G37*
G36*
X176672651Y-58651688D02*
G01*
X176705418Y-58673582D01*
X176727312Y-58706349D01*
X176735000Y-58745000D01*
X176735000Y-59520000D01*
X176727312Y-59558651D01*
X176705418Y-59591418D01*
X176672651Y-59613312D01*
X176634000Y-59621000D01*
X176534000Y-59621000D01*
X176495349Y-59613312D01*
X176462582Y-59591418D01*
X176440688Y-59558651D01*
X176433000Y-59520000D01*
X176433000Y-58745000D01*
X176440688Y-58706349D01*
X176462582Y-58673582D01*
X176495349Y-58651688D01*
X176534000Y-58644000D01*
X176634000Y-58644000D01*
X176672651Y-58651688D01*
G37*
G36*
X177072651Y-58651688D02*
G01*
X177105418Y-58673582D01*
X177127312Y-58706349D01*
X177135000Y-58745000D01*
X177135000Y-59520000D01*
X177127312Y-59558651D01*
X177105418Y-59591418D01*
X177072651Y-59613312D01*
X177034000Y-59621000D01*
X176934000Y-59621000D01*
X176895349Y-59613312D01*
X176862582Y-59591418D01*
X176840688Y-59558651D01*
X176833000Y-59520000D01*
X176833000Y-58745000D01*
X176840688Y-58706349D01*
X176862582Y-58673582D01*
X176895349Y-58651688D01*
X176934000Y-58644000D01*
X177034000Y-58644000D01*
X177072651Y-58651688D01*
G37*
G36*
X177472651Y-58651688D02*
G01*
X177505418Y-58673582D01*
X177527312Y-58706349D01*
X177535000Y-58745000D01*
X177535000Y-59520000D01*
X177527312Y-59558651D01*
X177505418Y-59591418D01*
X177472651Y-59613312D01*
X177434000Y-59621000D01*
X177334000Y-59621000D01*
X177295349Y-59613312D01*
X177262582Y-59591418D01*
X177240688Y-59558651D01*
X177233000Y-59520000D01*
X177233000Y-58745000D01*
X177240688Y-58706349D01*
X177262582Y-58673582D01*
X177295349Y-58651688D01*
X177334000Y-58644000D01*
X177434000Y-58644000D01*
X177472651Y-58651688D01*
G37*
G36*
X177872651Y-58651688D02*
G01*
X177905418Y-58673582D01*
X177927312Y-58706349D01*
X177935000Y-58745000D01*
X177935000Y-59520000D01*
X177927312Y-59558651D01*
X177905418Y-59591418D01*
X177872651Y-59613312D01*
X177834000Y-59621000D01*
X177734000Y-59621000D01*
X177695349Y-59613312D01*
X177662582Y-59591418D01*
X177640688Y-59558651D01*
X177633000Y-59520000D01*
X177633000Y-58745000D01*
X177640688Y-58706349D01*
X177662582Y-58673582D01*
X177695349Y-58651688D01*
X177734000Y-58644000D01*
X177834000Y-58644000D01*
X177872651Y-58651688D01*
G37*
G36*
X132120093Y-58821939D02*
G01*
X132182057Y-58863343D01*
X132223461Y-58925307D01*
X132238000Y-58998400D01*
X132238000Y-59278400D01*
X132223461Y-59351493D01*
X132182057Y-59413457D01*
X132120093Y-59454861D01*
X132047000Y-59469400D01*
X131707000Y-59469400D01*
X131633907Y-59454861D01*
X131571943Y-59413457D01*
X131530539Y-59351493D01*
X131516000Y-59278400D01*
X131516000Y-58998400D01*
X131530539Y-58925307D01*
X131571943Y-58863343D01*
X131633907Y-58821939D01*
X131707000Y-58807400D01*
X132047000Y-58807400D01*
X132120093Y-58821939D01*
G37*
G36*
X184489550Y-57512202D02*
G01*
X184643000Y-57565897D01*
X184780654Y-57652390D01*
X184895610Y-57767346D01*
X184982103Y-57905000D01*
X185035798Y-58058450D01*
X185054000Y-58220000D01*
X185035798Y-58381550D01*
X184982103Y-58535000D01*
X184895610Y-58672654D01*
X184780654Y-58787610D01*
X184643000Y-58874103D01*
X184489550Y-58927798D01*
X184328000Y-58946000D01*
X184166450Y-58927798D01*
X184013000Y-58874103D01*
X183875346Y-58787610D01*
X183760390Y-58672654D01*
X183673897Y-58535000D01*
X183620202Y-58381550D01*
X183602000Y-58220000D01*
X183620202Y-58058450D01*
X183673897Y-57905000D01*
X183760390Y-57767346D01*
X183875346Y-57652390D01*
X184013000Y-57565897D01*
X184166450Y-57512202D01*
X184328000Y-57494000D01*
X184489550Y-57512202D01*
G37*
G36*
X156206517Y-58046482D02*
G01*
X156223062Y-58057538D01*
X156234118Y-58074083D01*
X156238000Y-58093600D01*
X156238000Y-58643600D01*
X156234118Y-58663117D01*
X156223062Y-58679662D01*
X156206517Y-58690718D01*
X156187000Y-58694600D01*
X155187000Y-58694600D01*
X155167483Y-58690718D01*
X155150938Y-58679662D01*
X155139882Y-58663117D01*
X155136000Y-58643600D01*
X155136000Y-58093600D01*
X155139882Y-58074083D01*
X155150938Y-58057538D01*
X155167483Y-58046482D01*
X155187000Y-58042600D01*
X156187000Y-58042600D01*
X156206517Y-58046482D01*
G37*
G36*
X132120093Y-57861939D02*
G01*
X132182057Y-57903343D01*
X132223461Y-57965307D01*
X132238000Y-58038400D01*
X132238000Y-58318400D01*
X132223461Y-58391493D01*
X132182057Y-58453457D01*
X132120093Y-58494861D01*
X132047000Y-58509400D01*
X131707000Y-58509400D01*
X131633907Y-58494861D01*
X131571943Y-58453457D01*
X131530539Y-58391493D01*
X131516000Y-58318400D01*
X131516000Y-58038400D01*
X131530539Y-57965307D01*
X131571943Y-57903343D01*
X131633907Y-57861939D01*
X131707000Y-57847400D01*
X132047000Y-57847400D01*
X132120093Y-57861939D01*
G37*
G36*
X158975919Y-57713100D02*
G01*
X159041128Y-57756672D01*
X159084700Y-57821881D01*
X159100000Y-57898800D01*
X159100000Y-58198800D01*
X159084700Y-58275719D01*
X159041128Y-58340928D01*
X158975919Y-58384500D01*
X158899000Y-58399800D01*
X157599000Y-58399800D01*
X157522081Y-58384500D01*
X157456872Y-58340928D01*
X157413300Y-58275719D01*
X157398000Y-58198800D01*
X157398000Y-57898800D01*
X157413300Y-57821881D01*
X157456872Y-57756672D01*
X157522081Y-57713100D01*
X157599000Y-57697800D01*
X158899000Y-57697800D01*
X158975919Y-57713100D01*
G37*
G36*
X166175919Y-57713100D02*
G01*
X166241128Y-57756672D01*
X166284700Y-57821881D01*
X166300000Y-57898800D01*
X166300000Y-58198800D01*
X166284700Y-58275719D01*
X166241128Y-58340928D01*
X166175919Y-58384500D01*
X166099000Y-58399800D01*
X164799000Y-58399800D01*
X164722081Y-58384500D01*
X164656872Y-58340928D01*
X164613300Y-58275719D01*
X164598000Y-58198800D01*
X164598000Y-57898800D01*
X164613300Y-57821881D01*
X164656872Y-57756672D01*
X164722081Y-57713100D01*
X164799000Y-57697800D01*
X166099000Y-57697800D01*
X166175919Y-57713100D01*
G37*
G36*
X154306517Y-57396482D02*
G01*
X154323062Y-57407538D01*
X154334118Y-57424083D01*
X154338000Y-57443600D01*
X154338000Y-57993600D01*
X154334118Y-58013117D01*
X154323062Y-58029662D01*
X154306517Y-58040718D01*
X154287000Y-58044600D01*
X153287000Y-58044600D01*
X153267483Y-58040718D01*
X153250938Y-58029662D01*
X153239882Y-58013117D01*
X153236000Y-57993600D01*
X153236000Y-57443600D01*
X153239882Y-57424083D01*
X153250938Y-57407538D01*
X153267483Y-57396482D01*
X153287000Y-57392600D01*
X154287000Y-57392600D01*
X154306517Y-57396482D01*
G37*
G36*
X126959022Y-55953026D02*
G01*
X126988966Y-55973034D01*
X127008974Y-56002978D01*
X127016000Y-56038300D01*
X127016000Y-57925700D01*
X127008974Y-57961022D01*
X126988966Y-57990966D01*
X126959022Y-58010974D01*
X126923700Y-58018000D01*
X126416300Y-58018000D01*
X126380978Y-58010974D01*
X126351034Y-57990966D01*
X126331026Y-57961022D01*
X126324000Y-57925700D01*
X126324000Y-56038300D01*
X126331026Y-56002978D01*
X126351034Y-55973034D01*
X126380978Y-55953026D01*
X126416300Y-55946000D01*
X126923700Y-55946000D01*
X126959022Y-55953026D01*
G37*
G36*
X128229022Y-55953026D02*
G01*
X128258966Y-55973034D01*
X128278974Y-56002978D01*
X128286000Y-56038300D01*
X128286000Y-57925700D01*
X128278974Y-57961022D01*
X128258966Y-57990966D01*
X128229022Y-58010974D01*
X128193700Y-58018000D01*
X127686300Y-58018000D01*
X127650978Y-58010974D01*
X127621034Y-57990966D01*
X127601026Y-57961022D01*
X127594000Y-57925700D01*
X127594000Y-56038300D01*
X127601026Y-56002978D01*
X127621034Y-55973034D01*
X127650978Y-55953026D01*
X127686300Y-55946000D01*
X128193700Y-55946000D01*
X128229022Y-55953026D01*
G37*
G36*
X129499022Y-55953026D02*
G01*
X129528966Y-55973034D01*
X129548974Y-56002978D01*
X129556000Y-56038300D01*
X129556000Y-57925700D01*
X129548974Y-57961022D01*
X129528966Y-57990966D01*
X129499022Y-58010974D01*
X129463700Y-58018000D01*
X128956300Y-58018000D01*
X128920978Y-58010974D01*
X128891034Y-57990966D01*
X128871026Y-57961022D01*
X128864000Y-57925700D01*
X128864000Y-56038300D01*
X128871026Y-56002978D01*
X128891034Y-55973034D01*
X128920978Y-55953026D01*
X128956300Y-55946000D01*
X129463700Y-55946000D01*
X129499022Y-55953026D01*
G37*
G36*
X130769022Y-55953026D02*
G01*
X130798966Y-55973034D01*
X130818974Y-56002978D01*
X130826000Y-56038300D01*
X130826000Y-57925700D01*
X130818974Y-57961022D01*
X130798966Y-57990966D01*
X130769022Y-58010974D01*
X130733700Y-58018000D01*
X130226300Y-58018000D01*
X130190978Y-58010974D01*
X130161034Y-57990966D01*
X130141026Y-57961022D01*
X130134000Y-57925700D01*
X130134000Y-56038300D01*
X130141026Y-56002978D01*
X130161034Y-55973034D01*
X130190978Y-55953026D01*
X130226300Y-55946000D01*
X130733700Y-55946000D01*
X130769022Y-55953026D01*
G37*
G36*
X181190893Y-57067339D02*
G01*
X181252857Y-57108743D01*
X181294261Y-57170707D01*
X181308800Y-57243800D01*
X181308800Y-57583800D01*
X181294261Y-57656893D01*
X181252857Y-57718857D01*
X181190893Y-57760261D01*
X181117800Y-57774800D01*
X180837800Y-57774800D01*
X180764707Y-57760261D01*
X180702743Y-57718857D01*
X180661339Y-57656893D01*
X180646800Y-57583800D01*
X180646800Y-57243800D01*
X180661339Y-57170707D01*
X180702743Y-57108743D01*
X180764707Y-57067339D01*
X180837800Y-57052800D01*
X181117800Y-57052800D01*
X181190893Y-57067339D01*
G37*
G36*
X182150893Y-57067339D02*
G01*
X182212857Y-57108743D01*
X182254261Y-57170707D01*
X182268800Y-57243800D01*
X182268800Y-57583800D01*
X182254261Y-57656893D01*
X182212857Y-57718857D01*
X182150893Y-57760261D01*
X182077800Y-57774800D01*
X181797800Y-57774800D01*
X181724707Y-57760261D01*
X181662743Y-57718857D01*
X181621339Y-57656893D01*
X181606800Y-57583800D01*
X181606800Y-57243800D01*
X181621339Y-57170707D01*
X181662743Y-57108743D01*
X181724707Y-57067339D01*
X181797800Y-57052800D01*
X182077800Y-57052800D01*
X182150893Y-57067339D01*
G37*
G36*
X125516093Y-56815339D02*
G01*
X125578057Y-56856743D01*
X125619461Y-56918707D01*
X125634000Y-56991800D01*
X125634000Y-57271800D01*
X125619461Y-57344893D01*
X125578057Y-57406857D01*
X125516093Y-57448261D01*
X125443000Y-57462800D01*
X125103000Y-57462800D01*
X125029907Y-57448261D01*
X124967943Y-57406857D01*
X124926539Y-57344893D01*
X124912000Y-57271800D01*
X124912000Y-56991800D01*
X124926539Y-56918707D01*
X124967943Y-56856743D01*
X125029907Y-56815339D01*
X125103000Y-56800800D01*
X125443000Y-56800800D01*
X125516093Y-56815339D01*
G37*
G36*
X156206517Y-56746482D02*
G01*
X156223062Y-56757538D01*
X156234118Y-56774083D01*
X156238000Y-56793600D01*
X156238000Y-57343600D01*
X156234118Y-57363117D01*
X156223062Y-57379662D01*
X156206517Y-57390718D01*
X156187000Y-57394600D01*
X155187000Y-57394600D01*
X155167483Y-57390718D01*
X155150938Y-57379662D01*
X155139882Y-57363117D01*
X155136000Y-57343600D01*
X155136000Y-56793600D01*
X155139882Y-56774083D01*
X155150938Y-56757538D01*
X155167483Y-56746482D01*
X155187000Y-56742600D01*
X156187000Y-56742600D01*
X156206517Y-56746482D01*
G37*
G36*
X158975919Y-56443100D02*
G01*
X159041128Y-56486672D01*
X159084700Y-56551881D01*
X159100000Y-56628800D01*
X159100000Y-56928800D01*
X159084700Y-57005719D01*
X159041128Y-57070928D01*
X158975919Y-57114500D01*
X158899000Y-57129800D01*
X157599000Y-57129800D01*
X157522081Y-57114500D01*
X157456872Y-57070928D01*
X157413300Y-57005719D01*
X157398000Y-56928800D01*
X157398000Y-56628800D01*
X157413300Y-56551881D01*
X157456872Y-56486672D01*
X157522081Y-56443100D01*
X157599000Y-56427800D01*
X158899000Y-56427800D01*
X158975919Y-56443100D01*
G37*
G36*
X166175919Y-56443100D02*
G01*
X166241128Y-56486672D01*
X166284700Y-56551881D01*
X166300000Y-56628800D01*
X166300000Y-56928800D01*
X166284700Y-57005719D01*
X166241128Y-57070928D01*
X166175919Y-57114500D01*
X166099000Y-57129800D01*
X164799000Y-57129800D01*
X164722081Y-57114500D01*
X164656872Y-57070928D01*
X164613300Y-57005719D01*
X164598000Y-56928800D01*
X164598000Y-56628800D01*
X164613300Y-56551881D01*
X164656872Y-56486672D01*
X164722081Y-56443100D01*
X164799000Y-56427800D01*
X166099000Y-56427800D01*
X166175919Y-56443100D01*
G37*
G36*
X135595914Y-55930995D02*
G01*
X135600645Y-55933084D01*
X135603811Y-55933501D01*
X135643442Y-55951981D01*
X135697106Y-55975676D01*
X135775324Y-56053894D01*
X135799028Y-56107579D01*
X135817498Y-56147188D01*
X135817914Y-56150351D01*
X135820005Y-56155086D01*
X135828000Y-56224000D01*
X135828000Y-56724000D01*
X135820005Y-56792914D01*
X135817914Y-56797648D01*
X135817498Y-56800811D01*
X135799036Y-56840402D01*
X135775324Y-56894106D01*
X135697106Y-56972324D01*
X135643402Y-56996036D01*
X135603811Y-57014498D01*
X135600648Y-57014914D01*
X135595914Y-57017005D01*
X135527000Y-57025000D01*
X134577000Y-57025000D01*
X134508086Y-57017005D01*
X134503351Y-57014914D01*
X134500188Y-57014498D01*
X134460579Y-56996028D01*
X134406894Y-56972324D01*
X134328676Y-56894106D01*
X134304981Y-56840442D01*
X134286501Y-56800811D01*
X134286084Y-56797645D01*
X134283995Y-56792914D01*
X134276000Y-56724000D01*
X134276000Y-56224000D01*
X134283995Y-56155086D01*
X134286084Y-56150354D01*
X134286501Y-56147188D01*
X134304989Y-56107538D01*
X134328676Y-56053894D01*
X134406894Y-55975676D01*
X134460538Y-55951989D01*
X134500188Y-55933501D01*
X134503354Y-55933084D01*
X134508086Y-55930995D01*
X134577000Y-55923000D01*
X135527000Y-55923000D01*
X135595914Y-55930995D01*
G37*
G36*
X184489550Y-55512202D02*
G01*
X184643000Y-55565897D01*
X184780654Y-55652390D01*
X184895610Y-55767346D01*
X184982103Y-55905000D01*
X185035798Y-56058450D01*
X185054000Y-56220000D01*
X185035798Y-56381550D01*
X184982103Y-56535000D01*
X184895610Y-56672654D01*
X184780654Y-56787610D01*
X184643000Y-56874103D01*
X184489550Y-56927798D01*
X184328000Y-56946000D01*
X184166450Y-56927798D01*
X184013000Y-56874103D01*
X183875346Y-56787610D01*
X183760390Y-56672654D01*
X183673897Y-56535000D01*
X183620202Y-56381550D01*
X183602000Y-56220000D01*
X183620202Y-56058450D01*
X183673897Y-55905000D01*
X183760390Y-55767346D01*
X183875346Y-55652390D01*
X184013000Y-55565897D01*
X184166450Y-55512202D01*
X184328000Y-55494000D01*
X184489550Y-55512202D01*
G37*
G36*
X181190893Y-56076739D02*
G01*
X181252857Y-56118143D01*
X181294261Y-56180107D01*
X181308800Y-56253200D01*
X181308800Y-56593200D01*
X181294261Y-56666293D01*
X181252857Y-56728257D01*
X181190893Y-56769661D01*
X181117800Y-56784200D01*
X180837800Y-56784200D01*
X180764707Y-56769661D01*
X180702743Y-56728257D01*
X180661339Y-56666293D01*
X180646800Y-56593200D01*
X180646800Y-56253200D01*
X180661339Y-56180107D01*
X180702743Y-56118143D01*
X180764707Y-56076739D01*
X180837800Y-56062200D01*
X181117800Y-56062200D01*
X181190893Y-56076739D01*
G37*
G36*
X182150893Y-56076739D02*
G01*
X182212857Y-56118143D01*
X182254261Y-56180107D01*
X182268800Y-56253200D01*
X182268800Y-56593200D01*
X182254261Y-56666293D01*
X182212857Y-56728257D01*
X182150893Y-56769661D01*
X182077800Y-56784200D01*
X181797800Y-56784200D01*
X181724707Y-56769661D01*
X181662743Y-56728257D01*
X181621339Y-56666293D01*
X181606800Y-56593200D01*
X181606800Y-56253200D01*
X181621339Y-56180107D01*
X181662743Y-56118143D01*
X181724707Y-56076739D01*
X181797800Y-56062200D01*
X182077800Y-56062200D01*
X182150893Y-56076739D01*
G37*
G36*
X176441093Y-55873539D02*
G01*
X176503057Y-55914943D01*
X176544461Y-55976907D01*
X176559000Y-56050000D01*
X176559000Y-56390000D01*
X176544461Y-56463093D01*
X176503057Y-56525057D01*
X176441093Y-56566461D01*
X176368000Y-56581000D01*
X176088000Y-56581000D01*
X176014907Y-56566461D01*
X175952943Y-56525057D01*
X175911539Y-56463093D01*
X175897000Y-56390000D01*
X175897000Y-56050000D01*
X175911539Y-55976907D01*
X175952943Y-55914943D01*
X176014907Y-55873539D01*
X176088000Y-55859000D01*
X176368000Y-55859000D01*
X176441093Y-55873539D01*
G37*
G36*
X177401093Y-55873539D02*
G01*
X177463057Y-55914943D01*
X177504461Y-55976907D01*
X177519000Y-56050000D01*
X177519000Y-56390000D01*
X177504461Y-56463093D01*
X177463057Y-56525057D01*
X177401093Y-56566461D01*
X177328000Y-56581000D01*
X177048000Y-56581000D01*
X176974907Y-56566461D01*
X176912943Y-56525057D01*
X176871539Y-56463093D01*
X176857000Y-56390000D01*
X176857000Y-56050000D01*
X176871539Y-55976907D01*
X176912943Y-55914943D01*
X176974907Y-55873539D01*
X177048000Y-55859000D01*
X177328000Y-55859000D01*
X177401093Y-55873539D01*
G37*
G36*
X140086827Y-54922934D02*
G01*
X140129400Y-54922934D01*
X140177425Y-54933142D01*
X140223939Y-54938383D01*
X140257762Y-54950218D01*
X140293145Y-54957739D01*
X140344137Y-54980441D01*
X140393241Y-54997624D01*
X140418798Y-55013683D01*
X140446077Y-55025828D01*
X140496942Y-55062783D01*
X140545115Y-55093053D01*
X140562415Y-55110353D01*
X140581508Y-55124225D01*
X140628710Y-55176648D01*
X140671947Y-55219885D01*
X140681892Y-55235712D01*
X140693524Y-55248631D01*
X140733314Y-55317550D01*
X140767376Y-55371759D01*
X140771629Y-55383913D01*
X140777222Y-55393601D01*
X140805860Y-55481742D01*
X140826617Y-55541061D01*
X140827404Y-55548046D01*
X140828954Y-55552817D01*
X140843010Y-55686553D01*
X140846700Y-55719300D01*
X140843007Y-55752071D01*
X140828954Y-55885782D01*
X140827404Y-55890551D01*
X140826617Y-55897539D01*
X140805856Y-55956870D01*
X140777222Y-56044998D01*
X140771630Y-56054683D01*
X140767376Y-56066841D01*
X140733307Y-56121060D01*
X140693524Y-56189968D01*
X140681894Y-56202884D01*
X140671947Y-56218715D01*
X140628701Y-56261960D01*
X140581508Y-56314374D01*
X140562418Y-56328243D01*
X140545115Y-56345547D01*
X140496931Y-56375822D01*
X140446077Y-56412771D01*
X140418804Y-56424913D01*
X140393241Y-56440976D01*
X140344126Y-56458161D01*
X140293145Y-56480860D01*
X140257767Y-56488379D01*
X140223939Y-56500217D01*
X140177422Y-56505458D01*
X140129400Y-56515666D01*
X140086827Y-56515666D01*
X140045700Y-56520300D01*
X140004573Y-56515666D01*
X139962000Y-56515666D01*
X139913976Y-56505458D01*
X139867461Y-56500217D01*
X139833633Y-56488380D01*
X139798254Y-56480860D01*
X139747268Y-56458160D01*
X139698159Y-56440976D01*
X139672598Y-56424914D01*
X139645322Y-56412771D01*
X139594460Y-56375817D01*
X139546285Y-56345547D01*
X139528983Y-56328245D01*
X139509891Y-56314374D01*
X139462688Y-56261950D01*
X139419453Y-56218715D01*
X139409508Y-56202887D01*
X139397875Y-56189968D01*
X139358080Y-56121040D01*
X139324024Y-56066841D01*
X139319771Y-56054688D01*
X139314177Y-56044998D01*
X139285529Y-55956830D01*
X139264783Y-55897539D01*
X139263996Y-55890556D01*
X139262445Y-55885782D01*
X139248377Y-55751939D01*
X139244700Y-55719300D01*
X139248374Y-55686685D01*
X139262445Y-55552817D01*
X139263996Y-55548042D01*
X139264783Y-55541061D01*
X139285525Y-55481782D01*
X139314177Y-55393601D01*
X139319772Y-55383909D01*
X139324024Y-55371759D01*
X139358073Y-55317570D01*
X139397875Y-55248631D01*
X139409510Y-55235708D01*
X139419453Y-55219885D01*
X139462679Y-55176658D01*
X139509891Y-55124225D01*
X139528987Y-55110350D01*
X139546285Y-55093053D01*
X139594455Y-55062785D01*
X139645323Y-55025828D01*
X139672601Y-55013682D01*
X139698159Y-54997624D01*
X139747259Y-54980442D01*
X139798254Y-54957739D01*
X139833639Y-54950217D01*
X139867461Y-54938383D01*
X139913973Y-54933142D01*
X139962000Y-54922934D01*
X140004573Y-54922934D01*
X140045700Y-54918300D01*
X140086827Y-54922934D01*
G37*
G36*
X142626827Y-54922934D02*
G01*
X142669400Y-54922934D01*
X142717425Y-54933142D01*
X142763939Y-54938383D01*
X142797762Y-54950218D01*
X142833145Y-54957739D01*
X142884137Y-54980441D01*
X142933241Y-54997624D01*
X142958798Y-55013683D01*
X142986077Y-55025828D01*
X143036942Y-55062783D01*
X143085115Y-55093053D01*
X143102415Y-55110353D01*
X143121508Y-55124225D01*
X143168710Y-55176648D01*
X143211947Y-55219885D01*
X143221892Y-55235712D01*
X143233524Y-55248631D01*
X143273314Y-55317550D01*
X143307376Y-55371759D01*
X143311629Y-55383913D01*
X143317222Y-55393601D01*
X143345860Y-55481742D01*
X143366617Y-55541061D01*
X143367404Y-55548046D01*
X143368954Y-55552817D01*
X143383010Y-55686553D01*
X143386700Y-55719300D01*
X143383007Y-55752071D01*
X143368954Y-55885782D01*
X143367404Y-55890551D01*
X143366617Y-55897539D01*
X143345856Y-55956870D01*
X143317222Y-56044998D01*
X143311630Y-56054683D01*
X143307376Y-56066841D01*
X143273307Y-56121060D01*
X143233524Y-56189968D01*
X143221894Y-56202884D01*
X143211947Y-56218715D01*
X143168701Y-56261960D01*
X143121508Y-56314374D01*
X143102418Y-56328243D01*
X143085115Y-56345547D01*
X143036931Y-56375822D01*
X142986077Y-56412771D01*
X142958804Y-56424913D01*
X142933241Y-56440976D01*
X142884126Y-56458161D01*
X142833145Y-56480860D01*
X142797767Y-56488379D01*
X142763939Y-56500217D01*
X142717422Y-56505458D01*
X142669400Y-56515666D01*
X142626827Y-56515666D01*
X142585700Y-56520300D01*
X142544573Y-56515666D01*
X142502000Y-56515666D01*
X142453976Y-56505458D01*
X142407461Y-56500217D01*
X142373633Y-56488380D01*
X142338254Y-56480860D01*
X142287268Y-56458160D01*
X142238159Y-56440976D01*
X142212598Y-56424914D01*
X142185322Y-56412771D01*
X142134460Y-56375817D01*
X142086285Y-56345547D01*
X142068983Y-56328245D01*
X142049891Y-56314374D01*
X142002688Y-56261950D01*
X141959453Y-56218715D01*
X141949508Y-56202887D01*
X141937875Y-56189968D01*
X141898080Y-56121040D01*
X141864024Y-56066841D01*
X141859771Y-56054688D01*
X141854177Y-56044998D01*
X141825529Y-55956830D01*
X141804783Y-55897539D01*
X141803996Y-55890556D01*
X141802445Y-55885782D01*
X141788376Y-55751928D01*
X141784700Y-55719300D01*
X141788376Y-55686674D01*
X141802445Y-55552817D01*
X141803996Y-55548042D01*
X141804783Y-55541061D01*
X141825525Y-55481782D01*
X141854177Y-55393601D01*
X141859772Y-55383909D01*
X141864024Y-55371759D01*
X141898073Y-55317570D01*
X141937875Y-55248631D01*
X141949510Y-55235708D01*
X141959453Y-55219885D01*
X142002679Y-55176658D01*
X142049891Y-55124225D01*
X142068987Y-55110350D01*
X142086285Y-55093053D01*
X142134455Y-55062785D01*
X142185323Y-55025828D01*
X142212601Y-55013682D01*
X142238159Y-54997624D01*
X142287259Y-54980442D01*
X142338254Y-54957739D01*
X142373639Y-54950217D01*
X142407461Y-54938383D01*
X142453973Y-54933142D01*
X142502000Y-54922934D01*
X142544573Y-54922934D01*
X142585700Y-54918300D01*
X142626827Y-54922934D01*
G37*
G36*
X145166827Y-54922934D02*
G01*
X145209400Y-54922934D01*
X145257425Y-54933142D01*
X145303939Y-54938383D01*
X145337762Y-54950218D01*
X145373145Y-54957739D01*
X145424137Y-54980441D01*
X145473241Y-54997624D01*
X145498798Y-55013683D01*
X145526077Y-55025828D01*
X145576942Y-55062783D01*
X145625115Y-55093053D01*
X145642415Y-55110353D01*
X145661508Y-55124225D01*
X145708710Y-55176648D01*
X145751947Y-55219885D01*
X145761892Y-55235712D01*
X145773524Y-55248631D01*
X145813314Y-55317550D01*
X145847376Y-55371759D01*
X145851629Y-55383913D01*
X145857222Y-55393601D01*
X145885860Y-55481742D01*
X145906617Y-55541061D01*
X145907404Y-55548046D01*
X145908954Y-55552817D01*
X145923010Y-55686553D01*
X145926700Y-55719300D01*
X145923007Y-55752071D01*
X145908954Y-55885782D01*
X145907404Y-55890551D01*
X145906617Y-55897539D01*
X145885856Y-55956870D01*
X145857222Y-56044998D01*
X145851630Y-56054683D01*
X145847376Y-56066841D01*
X145813307Y-56121060D01*
X145773524Y-56189968D01*
X145761894Y-56202884D01*
X145751947Y-56218715D01*
X145708701Y-56261960D01*
X145661508Y-56314374D01*
X145642418Y-56328243D01*
X145625115Y-56345547D01*
X145576931Y-56375822D01*
X145526077Y-56412771D01*
X145498804Y-56424913D01*
X145473241Y-56440976D01*
X145424126Y-56458161D01*
X145373145Y-56480860D01*
X145337767Y-56488379D01*
X145303939Y-56500217D01*
X145257422Y-56505458D01*
X145209400Y-56515666D01*
X145166827Y-56515666D01*
X145125700Y-56520300D01*
X145084573Y-56515666D01*
X145042000Y-56515666D01*
X144993976Y-56505458D01*
X144947461Y-56500217D01*
X144913633Y-56488380D01*
X144878254Y-56480860D01*
X144827268Y-56458160D01*
X144778159Y-56440976D01*
X144752598Y-56424914D01*
X144725322Y-56412771D01*
X144674460Y-56375817D01*
X144626285Y-56345547D01*
X144608983Y-56328245D01*
X144589891Y-56314374D01*
X144542688Y-56261950D01*
X144499453Y-56218715D01*
X144489508Y-56202887D01*
X144477875Y-56189968D01*
X144438080Y-56121040D01*
X144404024Y-56066841D01*
X144399771Y-56054688D01*
X144394177Y-56044998D01*
X144365529Y-55956830D01*
X144344783Y-55897539D01*
X144343996Y-55890556D01*
X144342445Y-55885782D01*
X144328377Y-55751939D01*
X144324700Y-55719300D01*
X144328374Y-55686685D01*
X144342445Y-55552817D01*
X144343996Y-55548042D01*
X144344783Y-55541061D01*
X144365525Y-55481782D01*
X144394177Y-55393601D01*
X144399772Y-55383909D01*
X144404024Y-55371759D01*
X144438073Y-55317570D01*
X144477875Y-55248631D01*
X144489510Y-55235708D01*
X144499453Y-55219885D01*
X144542679Y-55176658D01*
X144589891Y-55124225D01*
X144608987Y-55110350D01*
X144626285Y-55093053D01*
X144674455Y-55062785D01*
X144725323Y-55025828D01*
X144752601Y-55013682D01*
X144778159Y-54997624D01*
X144827259Y-54980442D01*
X144878254Y-54957739D01*
X144913639Y-54950217D01*
X144947461Y-54938383D01*
X144993973Y-54933142D01*
X145042000Y-54922934D01*
X145084573Y-54922934D01*
X145125700Y-54918300D01*
X145166827Y-54922934D01*
G37*
G36*
X147706827Y-54922934D02*
G01*
X147749400Y-54922934D01*
X147797425Y-54933142D01*
X147843939Y-54938383D01*
X147877762Y-54950218D01*
X147913145Y-54957739D01*
X147964137Y-54980441D01*
X148013241Y-54997624D01*
X148038798Y-55013683D01*
X148066077Y-55025828D01*
X148116942Y-55062783D01*
X148165115Y-55093053D01*
X148182415Y-55110353D01*
X148201508Y-55124225D01*
X148248710Y-55176648D01*
X148291947Y-55219885D01*
X148301892Y-55235712D01*
X148313524Y-55248631D01*
X148353314Y-55317550D01*
X148387376Y-55371759D01*
X148391629Y-55383913D01*
X148397222Y-55393601D01*
X148425860Y-55481742D01*
X148446617Y-55541061D01*
X148447404Y-55548046D01*
X148448954Y-55552817D01*
X148463009Y-55686542D01*
X148466700Y-55719300D01*
X148463008Y-55752060D01*
X148448954Y-55885782D01*
X148447404Y-55890551D01*
X148446617Y-55897539D01*
X148425856Y-55956870D01*
X148397222Y-56044998D01*
X148391630Y-56054683D01*
X148387376Y-56066841D01*
X148353307Y-56121060D01*
X148313524Y-56189968D01*
X148301894Y-56202884D01*
X148291947Y-56218715D01*
X148248701Y-56261960D01*
X148201508Y-56314374D01*
X148182418Y-56328243D01*
X148165115Y-56345547D01*
X148116931Y-56375822D01*
X148066077Y-56412771D01*
X148038804Y-56424913D01*
X148013241Y-56440976D01*
X147964126Y-56458161D01*
X147913145Y-56480860D01*
X147877767Y-56488379D01*
X147843939Y-56500217D01*
X147797422Y-56505458D01*
X147749400Y-56515666D01*
X147706827Y-56515666D01*
X147665700Y-56520300D01*
X147624573Y-56515666D01*
X147582000Y-56515666D01*
X147533976Y-56505458D01*
X147487461Y-56500217D01*
X147453633Y-56488380D01*
X147418254Y-56480860D01*
X147367268Y-56458160D01*
X147318159Y-56440976D01*
X147292598Y-56424914D01*
X147265322Y-56412771D01*
X147214460Y-56375817D01*
X147166285Y-56345547D01*
X147148983Y-56328245D01*
X147129891Y-56314374D01*
X147082688Y-56261950D01*
X147039453Y-56218715D01*
X147029508Y-56202887D01*
X147017875Y-56189968D01*
X146978080Y-56121040D01*
X146944024Y-56066841D01*
X146939771Y-56054688D01*
X146934177Y-56044998D01*
X146905529Y-55956830D01*
X146884783Y-55897539D01*
X146883996Y-55890556D01*
X146882445Y-55885782D01*
X146868376Y-55751928D01*
X146864700Y-55719300D01*
X146868376Y-55686674D01*
X146882445Y-55552817D01*
X146883996Y-55548042D01*
X146884783Y-55541061D01*
X146905525Y-55481782D01*
X146934177Y-55393601D01*
X146939772Y-55383909D01*
X146944024Y-55371759D01*
X146978073Y-55317570D01*
X147017875Y-55248631D01*
X147029510Y-55235708D01*
X147039453Y-55219885D01*
X147082679Y-55176658D01*
X147129891Y-55124225D01*
X147148987Y-55110350D01*
X147166285Y-55093053D01*
X147214455Y-55062785D01*
X147265323Y-55025828D01*
X147292601Y-55013682D01*
X147318159Y-54997624D01*
X147367259Y-54980442D01*
X147418254Y-54957739D01*
X147453639Y-54950217D01*
X147487461Y-54938383D01*
X147533973Y-54933142D01*
X147582000Y-54922934D01*
X147624573Y-54922934D01*
X147665700Y-54918300D01*
X147706827Y-54922934D01*
G37*
G36*
X125516093Y-55855339D02*
G01*
X125578057Y-55896743D01*
X125619461Y-55958707D01*
X125634000Y-56031800D01*
X125634000Y-56311800D01*
X125619461Y-56384893D01*
X125578057Y-56446857D01*
X125516093Y-56488261D01*
X125443000Y-56502800D01*
X125103000Y-56502800D01*
X125029907Y-56488261D01*
X124967943Y-56446857D01*
X124926539Y-56384893D01*
X124912000Y-56311800D01*
X124912000Y-56031800D01*
X124926539Y-55958707D01*
X124967943Y-55896743D01*
X125029907Y-55855339D01*
X125103000Y-55840800D01*
X125443000Y-55840800D01*
X125516093Y-55855339D01*
G37*
G36*
X181216293Y-55035339D02*
G01*
X181278257Y-55076743D01*
X181319661Y-55138707D01*
X181334200Y-55211800D01*
X181334200Y-55551800D01*
X181319661Y-55624893D01*
X181278257Y-55686857D01*
X181216293Y-55728261D01*
X181143200Y-55742800D01*
X180863200Y-55742800D01*
X180790107Y-55728261D01*
X180728143Y-55686857D01*
X180686739Y-55624893D01*
X180672200Y-55551800D01*
X180672200Y-55211800D01*
X180686739Y-55138707D01*
X180728143Y-55076743D01*
X180790107Y-55035339D01*
X180863200Y-55020800D01*
X181143200Y-55020800D01*
X181216293Y-55035339D01*
G37*
G36*
X182176293Y-55035339D02*
G01*
X182238257Y-55076743D01*
X182279661Y-55138707D01*
X182294200Y-55211800D01*
X182294200Y-55551800D01*
X182279661Y-55624893D01*
X182238257Y-55686857D01*
X182176293Y-55728261D01*
X182103200Y-55742800D01*
X181823200Y-55742800D01*
X181750107Y-55728261D01*
X181688143Y-55686857D01*
X181646739Y-55624893D01*
X181632200Y-55551800D01*
X181632200Y-55211800D01*
X181646739Y-55138707D01*
X181688143Y-55076743D01*
X181750107Y-55035339D01*
X181823200Y-55020800D01*
X182103200Y-55020800D01*
X182176293Y-55035339D01*
G37*
G36*
X157514373Y-53556051D02*
G01*
X157676900Y-53628412D01*
X157820830Y-53732984D01*
X157939873Y-53865195D01*
X158028827Y-54019267D01*
X158083804Y-54188467D01*
X158102400Y-54365400D01*
X158083804Y-54542333D01*
X158028827Y-54711533D01*
X157939873Y-54865605D01*
X157820830Y-54997816D01*
X157676900Y-55102388D01*
X157514373Y-55174749D01*
X157340354Y-55211738D01*
X157162446Y-55211738D01*
X156988427Y-55174749D01*
X156825900Y-55102388D01*
X156681970Y-54997816D01*
X156562927Y-54865605D01*
X156473973Y-54711533D01*
X156418996Y-54542333D01*
X156400400Y-54365400D01*
X156418996Y-54188467D01*
X156473973Y-54019267D01*
X156562927Y-53865195D01*
X156681970Y-53732984D01*
X156825900Y-53628412D01*
X156988427Y-53556051D01*
X157162446Y-53519062D01*
X157340354Y-53519062D01*
X157514373Y-53556051D01*
G37*
G36*
X171660973Y-53530651D02*
G01*
X171823500Y-53603012D01*
X171967430Y-53707584D01*
X172086473Y-53839795D01*
X172175427Y-53993867D01*
X172230404Y-54163067D01*
X172249000Y-54340000D01*
X172230404Y-54516933D01*
X172175427Y-54686133D01*
X172086473Y-54840205D01*
X171967430Y-54972416D01*
X171823500Y-55076988D01*
X171660973Y-55149349D01*
X171486954Y-55186338D01*
X171309046Y-55186338D01*
X171135027Y-55149349D01*
X170972500Y-55076988D01*
X170828570Y-54972416D01*
X170709527Y-54840205D01*
X170620573Y-54686133D01*
X170565596Y-54516933D01*
X170547000Y-54340000D01*
X170565596Y-54163067D01*
X170620573Y-53993867D01*
X170709527Y-53839795D01*
X170828570Y-53707584D01*
X170972500Y-53603012D01*
X171135027Y-53530651D01*
X171309046Y-53493662D01*
X171486954Y-53493662D01*
X171660973Y-53530651D01*
G37*
G36*
X135595914Y-54030995D02*
G01*
X135600645Y-54033084D01*
X135603811Y-54033501D01*
X135643442Y-54051981D01*
X135697106Y-54075676D01*
X135775324Y-54153894D01*
X135799028Y-54207579D01*
X135817498Y-54247188D01*
X135817914Y-54250351D01*
X135820005Y-54255086D01*
X135828000Y-54324000D01*
X135828000Y-54824000D01*
X135820005Y-54892914D01*
X135817914Y-54897648D01*
X135817498Y-54900811D01*
X135799036Y-54940402D01*
X135775324Y-54994106D01*
X135697106Y-55072324D01*
X135643402Y-55096036D01*
X135603811Y-55114498D01*
X135600648Y-55114914D01*
X135595914Y-55117005D01*
X135527000Y-55125000D01*
X134577000Y-55125000D01*
X134508086Y-55117005D01*
X134503351Y-55114914D01*
X134500188Y-55114498D01*
X134460579Y-55096028D01*
X134406894Y-55072324D01*
X134328676Y-54994106D01*
X134304981Y-54940442D01*
X134286501Y-54900811D01*
X134286084Y-54897645D01*
X134283995Y-54892914D01*
X134276000Y-54824000D01*
X134276000Y-54324000D01*
X134283995Y-54255086D01*
X134286084Y-54250354D01*
X134286501Y-54247188D01*
X134304989Y-54207538D01*
X134328676Y-54153894D01*
X134406894Y-54075676D01*
X134460538Y-54051989D01*
X134500188Y-54033501D01*
X134503354Y-54033084D01*
X134508086Y-54030995D01*
X134577000Y-54023000D01*
X135527000Y-54023000D01*
X135595914Y-54030995D01*
G37*
G36*
X184489550Y-53512202D02*
G01*
X184643000Y-53565897D01*
X184780654Y-53652390D01*
X184895610Y-53767346D01*
X184982103Y-53905000D01*
X185035798Y-54058450D01*
X185054000Y-54220000D01*
X185035798Y-54381550D01*
X184982103Y-54535000D01*
X184895610Y-54672654D01*
X184780654Y-54787610D01*
X184643000Y-54874103D01*
X184489550Y-54927798D01*
X184328000Y-54946000D01*
X184166450Y-54927798D01*
X184013000Y-54874103D01*
X183875346Y-54787610D01*
X183760390Y-54672654D01*
X183673897Y-54535000D01*
X183620202Y-54381550D01*
X183602000Y-54220000D01*
X183620202Y-54058450D01*
X183673897Y-53905000D01*
X183760390Y-53767346D01*
X183875346Y-53652390D01*
X184013000Y-53565897D01*
X184166450Y-53512202D01*
X184328000Y-53494000D01*
X184489550Y-53512202D01*
G37*
G36*
X141356827Y-52382934D02*
G01*
X141399400Y-52382934D01*
X141447425Y-52393142D01*
X141493939Y-52398383D01*
X141527762Y-52410218D01*
X141563145Y-52417739D01*
X141614137Y-52440441D01*
X141663241Y-52457624D01*
X141688798Y-52473683D01*
X141716077Y-52485828D01*
X141766942Y-52522783D01*
X141815115Y-52553053D01*
X141832415Y-52570353D01*
X141851508Y-52584225D01*
X141898710Y-52636648D01*
X141941947Y-52679885D01*
X141951892Y-52695712D01*
X141963524Y-52708631D01*
X142003314Y-52777550D01*
X142037376Y-52831759D01*
X142041629Y-52843913D01*
X142047222Y-52853601D01*
X142075860Y-52941742D01*
X142096617Y-53001061D01*
X142097404Y-53008046D01*
X142098954Y-53012817D01*
X142113009Y-53146542D01*
X142116700Y-53179300D01*
X142113008Y-53212060D01*
X142098954Y-53345782D01*
X142097404Y-53350551D01*
X142096617Y-53357539D01*
X142075856Y-53416870D01*
X142047222Y-53504998D01*
X142041630Y-53514683D01*
X142037376Y-53526841D01*
X142003307Y-53581060D01*
X141963524Y-53649968D01*
X141951894Y-53662884D01*
X141941947Y-53678715D01*
X141898701Y-53721960D01*
X141851508Y-53774374D01*
X141832418Y-53788243D01*
X141815115Y-53805547D01*
X141766931Y-53835822D01*
X141716077Y-53872771D01*
X141688804Y-53884913D01*
X141663241Y-53900976D01*
X141614126Y-53918161D01*
X141563145Y-53940860D01*
X141527767Y-53948379D01*
X141493939Y-53960217D01*
X141447422Y-53965458D01*
X141399400Y-53975666D01*
X141356827Y-53975666D01*
X141315700Y-53980300D01*
X141274573Y-53975666D01*
X141232000Y-53975666D01*
X141183976Y-53965458D01*
X141137461Y-53960217D01*
X141103633Y-53948380D01*
X141068254Y-53940860D01*
X141017268Y-53918160D01*
X140968159Y-53900976D01*
X140942598Y-53884914D01*
X140915322Y-53872771D01*
X140864460Y-53835817D01*
X140816285Y-53805547D01*
X140798983Y-53788245D01*
X140779891Y-53774374D01*
X140732688Y-53721950D01*
X140689453Y-53678715D01*
X140679508Y-53662887D01*
X140667875Y-53649968D01*
X140628080Y-53581040D01*
X140594024Y-53526841D01*
X140589771Y-53514688D01*
X140584177Y-53504998D01*
X140555529Y-53416830D01*
X140534783Y-53357539D01*
X140533996Y-53350556D01*
X140532445Y-53345782D01*
X140518376Y-53211928D01*
X140514700Y-53179300D01*
X140518376Y-53146674D01*
X140532445Y-53012817D01*
X140533996Y-53008042D01*
X140534783Y-53001061D01*
X140555525Y-52941782D01*
X140584177Y-52853601D01*
X140589772Y-52843909D01*
X140594024Y-52831759D01*
X140628073Y-52777570D01*
X140667875Y-52708631D01*
X140679510Y-52695708D01*
X140689453Y-52679885D01*
X140732679Y-52636658D01*
X140779891Y-52584225D01*
X140798987Y-52570350D01*
X140816285Y-52553053D01*
X140864455Y-52522785D01*
X140915323Y-52485828D01*
X140942601Y-52473682D01*
X140968159Y-52457624D01*
X141017259Y-52440442D01*
X141068254Y-52417739D01*
X141103639Y-52410217D01*
X141137461Y-52398383D01*
X141183973Y-52393142D01*
X141232000Y-52382934D01*
X141274573Y-52382934D01*
X141315700Y-52378300D01*
X141356827Y-52382934D01*
G37*
G36*
X143896827Y-52382934D02*
G01*
X143939400Y-52382934D01*
X143987425Y-52393142D01*
X144033939Y-52398383D01*
X144067762Y-52410218D01*
X144103145Y-52417739D01*
X144154137Y-52440441D01*
X144203241Y-52457624D01*
X144228798Y-52473683D01*
X144256077Y-52485828D01*
X144306942Y-52522783D01*
X144355115Y-52553053D01*
X144372415Y-52570353D01*
X144391508Y-52584225D01*
X144438710Y-52636648D01*
X144481947Y-52679885D01*
X144491892Y-52695712D01*
X144503524Y-52708631D01*
X144543314Y-52777550D01*
X144577376Y-52831759D01*
X144581629Y-52843913D01*
X144587222Y-52853601D01*
X144615860Y-52941742D01*
X144636617Y-53001061D01*
X144637404Y-53008046D01*
X144638954Y-53012817D01*
X144653010Y-53146553D01*
X144656700Y-53179300D01*
X144653007Y-53212071D01*
X144638954Y-53345782D01*
X144637404Y-53350551D01*
X144636617Y-53357539D01*
X144615856Y-53416870D01*
X144587222Y-53504998D01*
X144581630Y-53514683D01*
X144577376Y-53526841D01*
X144543307Y-53581060D01*
X144503524Y-53649968D01*
X144491894Y-53662884D01*
X144481947Y-53678715D01*
X144438701Y-53721960D01*
X144391508Y-53774374D01*
X144372418Y-53788243D01*
X144355115Y-53805547D01*
X144306931Y-53835822D01*
X144256077Y-53872771D01*
X144228804Y-53884913D01*
X144203241Y-53900976D01*
X144154126Y-53918161D01*
X144103145Y-53940860D01*
X144067767Y-53948379D01*
X144033939Y-53960217D01*
X143987422Y-53965458D01*
X143939400Y-53975666D01*
X143896827Y-53975666D01*
X143855700Y-53980300D01*
X143814573Y-53975666D01*
X143772000Y-53975666D01*
X143723976Y-53965458D01*
X143677461Y-53960217D01*
X143643633Y-53948380D01*
X143608254Y-53940860D01*
X143557268Y-53918160D01*
X143508159Y-53900976D01*
X143482598Y-53884914D01*
X143455322Y-53872771D01*
X143404460Y-53835817D01*
X143356285Y-53805547D01*
X143338983Y-53788245D01*
X143319891Y-53774374D01*
X143272688Y-53721950D01*
X143229453Y-53678715D01*
X143219508Y-53662887D01*
X143207875Y-53649968D01*
X143168080Y-53581040D01*
X143134024Y-53526841D01*
X143129771Y-53514688D01*
X143124177Y-53504998D01*
X143095529Y-53416830D01*
X143074783Y-53357539D01*
X143073996Y-53350556D01*
X143072445Y-53345782D01*
X143058376Y-53211928D01*
X143054700Y-53179300D01*
X143058376Y-53146674D01*
X143072445Y-53012817D01*
X143073996Y-53008042D01*
X143074783Y-53001061D01*
X143095525Y-52941782D01*
X143124177Y-52853601D01*
X143129772Y-52843909D01*
X143134024Y-52831759D01*
X143168073Y-52777570D01*
X143207875Y-52708631D01*
X143219510Y-52695708D01*
X143229453Y-52679885D01*
X143272679Y-52636658D01*
X143319891Y-52584225D01*
X143338987Y-52570350D01*
X143356285Y-52553053D01*
X143404455Y-52522785D01*
X143455323Y-52485828D01*
X143482601Y-52473682D01*
X143508159Y-52457624D01*
X143557259Y-52440442D01*
X143608254Y-52417739D01*
X143643639Y-52410217D01*
X143677461Y-52398383D01*
X143723973Y-52393142D01*
X143772000Y-52382934D01*
X143814573Y-52382934D01*
X143855700Y-52378300D01*
X143896827Y-52382934D01*
G37*
G36*
X146436827Y-52382934D02*
G01*
X146479400Y-52382934D01*
X146527425Y-52393142D01*
X146573939Y-52398383D01*
X146607762Y-52410218D01*
X146643145Y-52417739D01*
X146694137Y-52440441D01*
X146743241Y-52457624D01*
X146768798Y-52473683D01*
X146796077Y-52485828D01*
X146846942Y-52522783D01*
X146895115Y-52553053D01*
X146912415Y-52570353D01*
X146931508Y-52584225D01*
X146978710Y-52636648D01*
X147021947Y-52679885D01*
X147031892Y-52695712D01*
X147043524Y-52708631D01*
X147083314Y-52777550D01*
X147117376Y-52831759D01*
X147121629Y-52843913D01*
X147127222Y-52853601D01*
X147155860Y-52941742D01*
X147176617Y-53001061D01*
X147177404Y-53008046D01*
X147178954Y-53012817D01*
X147193009Y-53146542D01*
X147196700Y-53179300D01*
X147193008Y-53212060D01*
X147178954Y-53345782D01*
X147177404Y-53350551D01*
X147176617Y-53357539D01*
X147155856Y-53416870D01*
X147127222Y-53504998D01*
X147121630Y-53514683D01*
X147117376Y-53526841D01*
X147083307Y-53581060D01*
X147043524Y-53649968D01*
X147031894Y-53662884D01*
X147021947Y-53678715D01*
X146978701Y-53721960D01*
X146931508Y-53774374D01*
X146912418Y-53788243D01*
X146895115Y-53805547D01*
X146846931Y-53835822D01*
X146796077Y-53872771D01*
X146768804Y-53884913D01*
X146743241Y-53900976D01*
X146694126Y-53918161D01*
X146643145Y-53940860D01*
X146607767Y-53948379D01*
X146573939Y-53960217D01*
X146527422Y-53965458D01*
X146479400Y-53975666D01*
X146436827Y-53975666D01*
X146395700Y-53980300D01*
X146354573Y-53975666D01*
X146312000Y-53975666D01*
X146263976Y-53965458D01*
X146217461Y-53960217D01*
X146183633Y-53948380D01*
X146148254Y-53940860D01*
X146097268Y-53918160D01*
X146048159Y-53900976D01*
X146022598Y-53884914D01*
X145995322Y-53872771D01*
X145944460Y-53835817D01*
X145896285Y-53805547D01*
X145878983Y-53788245D01*
X145859891Y-53774374D01*
X145812688Y-53721950D01*
X145769453Y-53678715D01*
X145759508Y-53662887D01*
X145747875Y-53649968D01*
X145708080Y-53581040D01*
X145674024Y-53526841D01*
X145669771Y-53514688D01*
X145664177Y-53504998D01*
X145635529Y-53416830D01*
X145614783Y-53357539D01*
X145613996Y-53350556D01*
X145612445Y-53345782D01*
X145598376Y-53211928D01*
X145594700Y-53179300D01*
X145598376Y-53146674D01*
X145612445Y-53012817D01*
X145613996Y-53008042D01*
X145614783Y-53001061D01*
X145635525Y-52941782D01*
X145664177Y-52853601D01*
X145669772Y-52843909D01*
X145674024Y-52831759D01*
X145708073Y-52777570D01*
X145747875Y-52708631D01*
X145759510Y-52695708D01*
X145769453Y-52679885D01*
X145812679Y-52636658D01*
X145859891Y-52584225D01*
X145878987Y-52570350D01*
X145896285Y-52553053D01*
X145944455Y-52522785D01*
X145995323Y-52485828D01*
X146022601Y-52473682D01*
X146048159Y-52457624D01*
X146097259Y-52440442D01*
X146148254Y-52417739D01*
X146183639Y-52410217D01*
X146217461Y-52398383D01*
X146263973Y-52393142D01*
X146312000Y-52382934D01*
X146354573Y-52382934D01*
X146395700Y-52378300D01*
X146436827Y-52382934D01*
G37*
G36*
X149705217Y-52382182D02*
G01*
X149721762Y-52393238D01*
X149732818Y-52409783D01*
X149736700Y-52429300D01*
X149736700Y-53929300D01*
X149732818Y-53948817D01*
X149721762Y-53965362D01*
X149705217Y-53976418D01*
X149685700Y-53980300D01*
X148185700Y-53980300D01*
X148166183Y-53976418D01*
X148149638Y-53965362D01*
X148138582Y-53948817D01*
X148134700Y-53929300D01*
X148134700Y-52429300D01*
X148138582Y-52409783D01*
X148149638Y-52393238D01*
X148166183Y-52382182D01*
X148185700Y-52378300D01*
X149685700Y-52378300D01*
X149705217Y-52382182D01*
G37*
G36*
X125139517Y-51718882D02*
G01*
X125156062Y-51729938D01*
X125167118Y-51746483D01*
X125171000Y-51766000D01*
X125171000Y-53766000D01*
X125167118Y-53785517D01*
X125156062Y-53802062D01*
X125139517Y-53813118D01*
X125120000Y-53817000D01*
X123620000Y-53817000D01*
X123600483Y-53813118D01*
X123583938Y-53802062D01*
X123572882Y-53785517D01*
X123569000Y-53766000D01*
X123569000Y-51766000D01*
X123572882Y-51746483D01*
X123583938Y-51729938D01*
X123600483Y-51718882D01*
X123620000Y-51715000D01*
X125120000Y-51715000D01*
X125139517Y-51718882D01*
G37*
G36*
X127439517Y-51718882D02*
G01*
X127456062Y-51729938D01*
X127467118Y-51746483D01*
X127471000Y-51766000D01*
X127471000Y-53766000D01*
X127467118Y-53785517D01*
X127456062Y-53802062D01*
X127439517Y-53813118D01*
X127420000Y-53817000D01*
X125920000Y-53817000D01*
X125900483Y-53813118D01*
X125883938Y-53802062D01*
X125872882Y-53785517D01*
X125869000Y-53766000D01*
X125869000Y-51766000D01*
X125872882Y-51746483D01*
X125883938Y-51729938D01*
X125900483Y-51718882D01*
X125920000Y-51715000D01*
X127420000Y-51715000D01*
X127439517Y-51718882D01*
G37*
G36*
X129739517Y-51718882D02*
G01*
X129756062Y-51729938D01*
X129767118Y-51746483D01*
X129771000Y-51766000D01*
X129771000Y-53766000D01*
X129767118Y-53785517D01*
X129756062Y-53802062D01*
X129739517Y-53813118D01*
X129720000Y-53817000D01*
X128220000Y-53817000D01*
X128200483Y-53813118D01*
X128183938Y-53802062D01*
X128172882Y-53785517D01*
X128169000Y-53766000D01*
X128169000Y-51766000D01*
X128172882Y-51746483D01*
X128183938Y-51729938D01*
X128200483Y-51718882D01*
X128220000Y-51715000D01*
X129720000Y-51715000D01*
X129739517Y-51718882D01*
G37*
G36*
X133513114Y-52359795D02*
G01*
X133517845Y-52361884D01*
X133521011Y-52362301D01*
X133560642Y-52380781D01*
X133614306Y-52404476D01*
X133692524Y-52482694D01*
X133716228Y-52536379D01*
X133734698Y-52575988D01*
X133735114Y-52579151D01*
X133737205Y-52583886D01*
X133745200Y-52652800D01*
X133745200Y-53152800D01*
X133737205Y-53221714D01*
X133735114Y-53226448D01*
X133734698Y-53229611D01*
X133716236Y-53269202D01*
X133692524Y-53322906D01*
X133614306Y-53401124D01*
X133560602Y-53424836D01*
X133521011Y-53443298D01*
X133517848Y-53443714D01*
X133513114Y-53445805D01*
X133444200Y-53453800D01*
X132494200Y-53453800D01*
X132425286Y-53445805D01*
X132420551Y-53443714D01*
X132417388Y-53443298D01*
X132377779Y-53424828D01*
X132324094Y-53401124D01*
X132245876Y-53322906D01*
X132222181Y-53269242D01*
X132203701Y-53229611D01*
X132203284Y-53226445D01*
X132201195Y-53221714D01*
X132193200Y-53152800D01*
X132193200Y-52652800D01*
X132201195Y-52583886D01*
X132203284Y-52579154D01*
X132203701Y-52575988D01*
X132222189Y-52536338D01*
X132245876Y-52482694D01*
X132324094Y-52404476D01*
X132377738Y-52380789D01*
X132417388Y-52362301D01*
X132420554Y-52361884D01*
X132425286Y-52359795D01*
X132494200Y-52351800D01*
X133444200Y-52351800D01*
X133513114Y-52359795D01*
G37*
G36*
X135595914Y-52359795D02*
G01*
X135600645Y-52361884D01*
X135603811Y-52362301D01*
X135643442Y-52380781D01*
X135697106Y-52404476D01*
X135775324Y-52482694D01*
X135799028Y-52536379D01*
X135817498Y-52575988D01*
X135817914Y-52579151D01*
X135820005Y-52583886D01*
X135828000Y-52652800D01*
X135828000Y-53152800D01*
X135820005Y-53221714D01*
X135817914Y-53226448D01*
X135817498Y-53229611D01*
X135799036Y-53269202D01*
X135775324Y-53322906D01*
X135697106Y-53401124D01*
X135643402Y-53424836D01*
X135603811Y-53443298D01*
X135600648Y-53443714D01*
X135595914Y-53445805D01*
X135527000Y-53453800D01*
X134577000Y-53453800D01*
X134508086Y-53445805D01*
X134503351Y-53443714D01*
X134500188Y-53443298D01*
X134460579Y-53424828D01*
X134406894Y-53401124D01*
X134328676Y-53322906D01*
X134304981Y-53269242D01*
X134286501Y-53229611D01*
X134286084Y-53226445D01*
X134283995Y-53221714D01*
X134276000Y-53152800D01*
X134276000Y-52652800D01*
X134283995Y-52583886D01*
X134286084Y-52579154D01*
X134286501Y-52575988D01*
X134304989Y-52536338D01*
X134328676Y-52482694D01*
X134406894Y-52404476D01*
X134460538Y-52380789D01*
X134500188Y-52362301D01*
X134503354Y-52361884D01*
X134508086Y-52359795D01*
X134577000Y-52351800D01*
X135527000Y-52351800D01*
X135595914Y-52359795D01*
G37*
G36*
X185022517Y-51497882D02*
G01*
X185039062Y-51508938D01*
X185050118Y-51525483D01*
X185054000Y-51545000D01*
X185054000Y-52895000D01*
X185050118Y-52914517D01*
X185039062Y-52931062D01*
X185022517Y-52942118D01*
X185003000Y-52946000D01*
X183653000Y-52946000D01*
X183633483Y-52942118D01*
X183616938Y-52931062D01*
X183605882Y-52914517D01*
X183602000Y-52895000D01*
X183602000Y-51545000D01*
X183605882Y-51525483D01*
X183616938Y-51508938D01*
X183633483Y-51497882D01*
X183653000Y-51494000D01*
X185003000Y-51494000D01*
X185022517Y-51497882D01*
G37*
G36*
X159800314Y-49672395D02*
G01*
X159805045Y-49674484D01*
X159808211Y-49674901D01*
X159847842Y-49693381D01*
X159901506Y-49717076D01*
X159979724Y-49795294D01*
X160003428Y-49848979D01*
X160021898Y-49888588D01*
X160022314Y-49891751D01*
X160024405Y-49896486D01*
X160032400Y-49965400D01*
X160032400Y-52265400D01*
X160024405Y-52334314D01*
X160022314Y-52339048D01*
X160021898Y-52342211D01*
X160003436Y-52381802D01*
X159979724Y-52435506D01*
X159901506Y-52513724D01*
X159847802Y-52537436D01*
X159808211Y-52555898D01*
X159805048Y-52556314D01*
X159800314Y-52558405D01*
X159731400Y-52566400D01*
X157771400Y-52566400D01*
X157702486Y-52558405D01*
X157697751Y-52556314D01*
X157694588Y-52555898D01*
X157654979Y-52537428D01*
X157601294Y-52513724D01*
X157523076Y-52435506D01*
X157499381Y-52381842D01*
X157480901Y-52342211D01*
X157480484Y-52339045D01*
X157478395Y-52334314D01*
X157470400Y-52265400D01*
X157470400Y-49965400D01*
X157478395Y-49896486D01*
X157480484Y-49891754D01*
X157480901Y-49888588D01*
X157499389Y-49848938D01*
X157523076Y-49795294D01*
X157601294Y-49717076D01*
X157654938Y-49693389D01*
X157694588Y-49674901D01*
X157697754Y-49674484D01*
X157702486Y-49672395D01*
X157771400Y-49664400D01*
X159731400Y-49664400D01*
X159800314Y-49672395D01*
G37*
G36*
X162933843Y-49683861D02*
G01*
X163149528Y-49741654D01*
X163351900Y-49836021D01*
X163534811Y-49964097D01*
X163692703Y-50121989D01*
X163820779Y-50304900D01*
X163915146Y-50507272D01*
X163972939Y-50722957D01*
X163992400Y-50945400D01*
X163992400Y-51285400D01*
X163972939Y-51507843D01*
X163915146Y-51723528D01*
X163820779Y-51925900D01*
X163692703Y-52108811D01*
X163534811Y-52266703D01*
X163351900Y-52394779D01*
X163149528Y-52489146D01*
X162933843Y-52546939D01*
X162711400Y-52566400D01*
X162488957Y-52546939D01*
X162273272Y-52489146D01*
X162070900Y-52394779D01*
X161887989Y-52266703D01*
X161730097Y-52108811D01*
X161602021Y-51925900D01*
X161507654Y-51723528D01*
X161449861Y-51507843D01*
X161430400Y-51285400D01*
X161430400Y-50945400D01*
X161449861Y-50722957D01*
X161507654Y-50507272D01*
X161602021Y-50304900D01*
X161730097Y-50121989D01*
X161887989Y-49964097D01*
X162070900Y-49836021D01*
X162273272Y-49741654D01*
X162488957Y-49683861D01*
X162711400Y-49664400D01*
X162933843Y-49683861D01*
G37*
G36*
X173946914Y-49646995D02*
G01*
X173951645Y-49649084D01*
X173954811Y-49649501D01*
X173994442Y-49667981D01*
X174048106Y-49691676D01*
X174126324Y-49769894D01*
X174150028Y-49823579D01*
X174168498Y-49863188D01*
X174168914Y-49866351D01*
X174171005Y-49871086D01*
X174179000Y-49940000D01*
X174179000Y-52240000D01*
X174171005Y-52308914D01*
X174168914Y-52313648D01*
X174168498Y-52316811D01*
X174150036Y-52356402D01*
X174126324Y-52410106D01*
X174048106Y-52488324D01*
X173994402Y-52512036D01*
X173954811Y-52530498D01*
X173951648Y-52530914D01*
X173946914Y-52533005D01*
X173878000Y-52541000D01*
X171918000Y-52541000D01*
X171849086Y-52533005D01*
X171844351Y-52530914D01*
X171841188Y-52530498D01*
X171801579Y-52512028D01*
X171747894Y-52488324D01*
X171669676Y-52410106D01*
X171645981Y-52356442D01*
X171627501Y-52316811D01*
X171627084Y-52313645D01*
X171624995Y-52308914D01*
X171617000Y-52240000D01*
X171617000Y-49940000D01*
X171624995Y-49871086D01*
X171627084Y-49866354D01*
X171627501Y-49863188D01*
X171645989Y-49823538D01*
X171669676Y-49769894D01*
X171747894Y-49691676D01*
X171801538Y-49667989D01*
X171841188Y-49649501D01*
X171844354Y-49649084D01*
X171849086Y-49646995D01*
X171918000Y-49639000D01*
X173878000Y-49639000D01*
X173946914Y-49646995D01*
G37*
G36*
X177080443Y-49658461D02*
G01*
X177296128Y-49716254D01*
X177498500Y-49810621D01*
X177681411Y-49938697D01*
X177839303Y-50096589D01*
X177967379Y-50279500D01*
X178061746Y-50481872D01*
X178119539Y-50697557D01*
X178139000Y-50920000D01*
X178139000Y-51260000D01*
X178119539Y-51482443D01*
X178061746Y-51698128D01*
X177967379Y-51900500D01*
X177839303Y-52083411D01*
X177681411Y-52241303D01*
X177498500Y-52369379D01*
X177296128Y-52463746D01*
X177080443Y-52521539D01*
X176858000Y-52541000D01*
X176635557Y-52521539D01*
X176419872Y-52463746D01*
X176217500Y-52369379D01*
X176034589Y-52241303D01*
X175876697Y-52083411D01*
X175748621Y-51900500D01*
X175654254Y-51698128D01*
X175596461Y-51482443D01*
X175577000Y-51260000D01*
X175577000Y-50920000D01*
X175596461Y-50697557D01*
X175654254Y-50481872D01*
X175748621Y-50279500D01*
X175876697Y-50096589D01*
X176034589Y-49938697D01*
X176217500Y-49810621D01*
X176419872Y-49716254D01*
X176635557Y-49658461D01*
X176858000Y-49639000D01*
X177080443Y-49658461D01*
G37*
G36*
X133513114Y-50459795D02*
G01*
X133517845Y-50461884D01*
X133521011Y-50462301D01*
X133560642Y-50480781D01*
X133614306Y-50504476D01*
X133692524Y-50582694D01*
X133716228Y-50636379D01*
X133734698Y-50675988D01*
X133735114Y-50679151D01*
X133737205Y-50683886D01*
X133745200Y-50752800D01*
X133745200Y-51252800D01*
X133737205Y-51321714D01*
X133735114Y-51326448D01*
X133734698Y-51329611D01*
X133716236Y-51369202D01*
X133692524Y-51422906D01*
X133614306Y-51501124D01*
X133560602Y-51524836D01*
X133521011Y-51543298D01*
X133517848Y-51543714D01*
X133513114Y-51545805D01*
X133444200Y-51553800D01*
X132494200Y-51553800D01*
X132425286Y-51545805D01*
X132420551Y-51543714D01*
X132417388Y-51543298D01*
X132377779Y-51524828D01*
X132324094Y-51501124D01*
X132245876Y-51422906D01*
X132222181Y-51369242D01*
X132203701Y-51329611D01*
X132203284Y-51326445D01*
X132201195Y-51321714D01*
X132193200Y-51252800D01*
X132193200Y-50752800D01*
X132201195Y-50683886D01*
X132203284Y-50679154D01*
X132203701Y-50675988D01*
X132222189Y-50636338D01*
X132245876Y-50582694D01*
X132324094Y-50504476D01*
X132377738Y-50480789D01*
X132417388Y-50462301D01*
X132420554Y-50461884D01*
X132425286Y-50459795D01*
X132494200Y-50451800D01*
X133444200Y-50451800D01*
X133513114Y-50459795D01*
G37*
G36*
X135595914Y-50459795D02*
G01*
X135600645Y-50461884D01*
X135603811Y-50462301D01*
X135643442Y-50480781D01*
X135697106Y-50504476D01*
X135775324Y-50582694D01*
X135799028Y-50636379D01*
X135817498Y-50675988D01*
X135817914Y-50679151D01*
X135820005Y-50683886D01*
X135828000Y-50752800D01*
X135828000Y-51252800D01*
X135820005Y-51321714D01*
X135817914Y-51326448D01*
X135817498Y-51329611D01*
X135799036Y-51369202D01*
X135775324Y-51422906D01*
X135697106Y-51501124D01*
X135643402Y-51524836D01*
X135603811Y-51543298D01*
X135600648Y-51543714D01*
X135595914Y-51545805D01*
X135527000Y-51553800D01*
X134577000Y-51553800D01*
X134508086Y-51545805D01*
X134503351Y-51543714D01*
X134500188Y-51543298D01*
X134460579Y-51524828D01*
X134406894Y-51501124D01*
X134328676Y-51422906D01*
X134304981Y-51369242D01*
X134286501Y-51329611D01*
X134286084Y-51326445D01*
X134283995Y-51321714D01*
X134276000Y-51252800D01*
X134276000Y-50752800D01*
X134283995Y-50683886D01*
X134286084Y-50679154D01*
X134286501Y-50675988D01*
X134304989Y-50636338D01*
X134328676Y-50582694D01*
X134406894Y-50504476D01*
X134460538Y-50480789D01*
X134500188Y-50462301D01*
X134503354Y-50461884D01*
X134508086Y-50459795D01*
X134577000Y-50451800D01*
X135527000Y-50451800D01*
X135595914Y-50459795D01*
G37*
G36*
X166562493Y-49906539D02*
G01*
X166624457Y-49947943D01*
X166665861Y-50009907D01*
X166680400Y-50083000D01*
X166680400Y-50363000D01*
X166665861Y-50436093D01*
X166624457Y-50498057D01*
X166562493Y-50539461D01*
X166489400Y-50554000D01*
X166149400Y-50554000D01*
X166076307Y-50539461D01*
X166014343Y-50498057D01*
X165972939Y-50436093D01*
X165958400Y-50363000D01*
X165958400Y-50083000D01*
X165972939Y-50009907D01*
X166014343Y-49947943D01*
X166076307Y-49906539D01*
X166149400Y-49892000D01*
X166489400Y-49892000D01*
X166562493Y-49906539D01*
G37*
G36*
X167578493Y-49906539D02*
G01*
X167640457Y-49947943D01*
X167681861Y-50009907D01*
X167696400Y-50083000D01*
X167696400Y-50363000D01*
X167681861Y-50436093D01*
X167640457Y-50498057D01*
X167578493Y-50539461D01*
X167505400Y-50554000D01*
X167165400Y-50554000D01*
X167092307Y-50539461D01*
X167030343Y-50498057D01*
X166988939Y-50436093D01*
X166974400Y-50363000D01*
X166974400Y-50083000D01*
X166988939Y-50009907D01*
X167030343Y-49947943D01*
X167092307Y-49906539D01*
X167165400Y-49892000D01*
X167505400Y-49892000D01*
X167578493Y-49906539D01*
G37*
G36*
X168594493Y-49906539D02*
G01*
X168656457Y-49947943D01*
X168697861Y-50009907D01*
X168712400Y-50083000D01*
X168712400Y-50363000D01*
X168697861Y-50436093D01*
X168656457Y-50498057D01*
X168594493Y-50539461D01*
X168521400Y-50554000D01*
X168181400Y-50554000D01*
X168108307Y-50539461D01*
X168046343Y-50498057D01*
X168004939Y-50436093D01*
X167990400Y-50363000D01*
X167990400Y-50083000D01*
X168004939Y-50009907D01*
X168046343Y-49947943D01*
X168108307Y-49906539D01*
X168181400Y-49892000D01*
X168521400Y-49892000D01*
X168594493Y-49906539D01*
G37*
G36*
X169585093Y-49906539D02*
G01*
X169647057Y-49947943D01*
X169688461Y-50009907D01*
X169703000Y-50083000D01*
X169703000Y-50363000D01*
X169688461Y-50436093D01*
X169647057Y-50498057D01*
X169585093Y-50539461D01*
X169512000Y-50554000D01*
X169172000Y-50554000D01*
X169098907Y-50539461D01*
X169036943Y-50498057D01*
X168995539Y-50436093D01*
X168981000Y-50363000D01*
X168981000Y-50083000D01*
X168995539Y-50009907D01*
X169036943Y-49947943D01*
X169098907Y-49906539D01*
X169172000Y-49892000D01*
X169512000Y-49892000D01*
X169585093Y-49906539D01*
G37*
G36*
X166562493Y-48946539D02*
G01*
X166624457Y-48987943D01*
X166665861Y-49049907D01*
X166680400Y-49123000D01*
X166680400Y-49403000D01*
X166665861Y-49476093D01*
X166624457Y-49538057D01*
X166562493Y-49579461D01*
X166489400Y-49594000D01*
X166149400Y-49594000D01*
X166076307Y-49579461D01*
X166014343Y-49538057D01*
X165972939Y-49476093D01*
X165958400Y-49403000D01*
X165958400Y-49123000D01*
X165972939Y-49049907D01*
X166014343Y-48987943D01*
X166076307Y-48946539D01*
X166149400Y-48932000D01*
X166489400Y-48932000D01*
X166562493Y-48946539D01*
G37*
G36*
X167578493Y-48946539D02*
G01*
X167640457Y-48987943D01*
X167681861Y-49049907D01*
X167696400Y-49123000D01*
X167696400Y-49403000D01*
X167681861Y-49476093D01*
X167640457Y-49538057D01*
X167578493Y-49579461D01*
X167505400Y-49594000D01*
X167165400Y-49594000D01*
X167092307Y-49579461D01*
X167030343Y-49538057D01*
X166988939Y-49476093D01*
X166974400Y-49403000D01*
X166974400Y-49123000D01*
X166988939Y-49049907D01*
X167030343Y-48987943D01*
X167092307Y-48946539D01*
X167165400Y-48932000D01*
X167505400Y-48932000D01*
X167578493Y-48946539D01*
G37*
G36*
X168594493Y-48946539D02*
G01*
X168656457Y-48987943D01*
X168697861Y-49049907D01*
X168712400Y-49123000D01*
X168712400Y-49403000D01*
X168697861Y-49476093D01*
X168656457Y-49538057D01*
X168594493Y-49579461D01*
X168521400Y-49594000D01*
X168181400Y-49594000D01*
X168108307Y-49579461D01*
X168046343Y-49538057D01*
X168004939Y-49476093D01*
X167990400Y-49403000D01*
X167990400Y-49123000D01*
X168004939Y-49049907D01*
X168046343Y-48987943D01*
X168108307Y-48946539D01*
X168181400Y-48932000D01*
X168521400Y-48932000D01*
X168594493Y-48946539D01*
G37*
G36*
X169585093Y-48946539D02*
G01*
X169647057Y-48987943D01*
X169688461Y-49049907D01*
X169703000Y-49123000D01*
X169703000Y-49403000D01*
X169688461Y-49476093D01*
X169647057Y-49538057D01*
X169585093Y-49579461D01*
X169512000Y-49594000D01*
X169172000Y-49594000D01*
X169098907Y-49579461D01*
X169036943Y-49538057D01*
X168995539Y-49476093D01*
X168981000Y-49403000D01*
X168981000Y-49123000D01*
X168995539Y-49049907D01*
X169036943Y-48987943D01*
X169098907Y-48946539D01*
X169172000Y-48932000D01*
X169512000Y-48932000D01*
X169585093Y-48946539D01*
G37*
G36*
X153682693Y-48634539D02*
G01*
X153744657Y-48675943D01*
X153786061Y-48737907D01*
X153800600Y-48811000D01*
X153800600Y-49151000D01*
X153786061Y-49224093D01*
X153744657Y-49286057D01*
X153682693Y-49327461D01*
X153609600Y-49342000D01*
X153329600Y-49342000D01*
X153256507Y-49327461D01*
X153194543Y-49286057D01*
X153153139Y-49224093D01*
X153138600Y-49151000D01*
X153138600Y-48811000D01*
X153153139Y-48737907D01*
X153194543Y-48675943D01*
X153256507Y-48634539D01*
X153329600Y-48620000D01*
X153609600Y-48620000D01*
X153682693Y-48634539D01*
G37*
G36*
X154642693Y-48634539D02*
G01*
X154704657Y-48675943D01*
X154746061Y-48737907D01*
X154760600Y-48811000D01*
X154760600Y-49151000D01*
X154746061Y-49224093D01*
X154704657Y-49286057D01*
X154642693Y-49327461D01*
X154569600Y-49342000D01*
X154289600Y-49342000D01*
X154216507Y-49327461D01*
X154154543Y-49286057D01*
X154113139Y-49224093D01*
X154098600Y-49151000D01*
X154098600Y-48811000D01*
X154113139Y-48737907D01*
X154154543Y-48675943D01*
X154216507Y-48634539D01*
X154289600Y-48620000D01*
X154569600Y-48620000D01*
X154642693Y-48634539D01*
G37*
G36*
X138835951Y-45183042D02*
G01*
X138899072Y-45183042D01*
X138968050Y-45193438D01*
X139033973Y-45198627D01*
X139087106Y-45211383D01*
X139143049Y-45219815D01*
X139216147Y-45242363D01*
X139285887Y-45259106D01*
X139330984Y-45277785D01*
X139378832Y-45292545D01*
X139453948Y-45328719D01*
X139525238Y-45358248D01*
X139561831Y-45380672D01*
X139601137Y-45399601D01*
X139675900Y-45450574D01*
X139746133Y-45493613D01*
X139774257Y-45517633D01*
X139805002Y-45538595D01*
X139876789Y-45605204D01*
X139943133Y-45661867D01*
X139963279Y-45685455D01*
X139985876Y-45706422D01*
X140051941Y-45789265D01*
X140111387Y-45858867D01*
X140124460Y-45880201D01*
X140139717Y-45899332D01*
X140197250Y-45998983D01*
X140246752Y-46079762D01*
X140254023Y-46097316D01*
X140263085Y-46113012D01*
X140309315Y-46230804D01*
X140345894Y-46319113D01*
X140348917Y-46331708D01*
X140353229Y-46342693D01*
X140385515Y-46484150D01*
X140406373Y-46571027D01*
X140406914Y-46577901D01*
X140408135Y-46583251D01*
X140424046Y-46795588D01*
X140426700Y-46829300D01*
X140424046Y-46863014D01*
X140408135Y-47075348D01*
X140406914Y-47080696D01*
X140406373Y-47087573D01*
X140385511Y-47174468D01*
X140353229Y-47315906D01*
X140348918Y-47326888D01*
X140345894Y-47339487D01*
X140309308Y-47427813D01*
X140263085Y-47545587D01*
X140254024Y-47561279D01*
X140246752Y-47578838D01*
X140197240Y-47659633D01*
X140139717Y-47759267D01*
X140124463Y-47778394D01*
X140111387Y-47799733D01*
X140051929Y-47869348D01*
X139985876Y-47952177D01*
X139963283Y-47973139D01*
X139943133Y-47996733D01*
X139876776Y-48053407D01*
X139805002Y-48120004D01*
X139774263Y-48140961D01*
X139746133Y-48164987D01*
X139675886Y-48208034D01*
X139601137Y-48258998D01*
X139561838Y-48277922D01*
X139525238Y-48300352D01*
X139453933Y-48329887D01*
X139378832Y-48366054D01*
X139330993Y-48380810D01*
X139285887Y-48399494D01*
X139216132Y-48416240D01*
X139143049Y-48438784D01*
X139087114Y-48447214D01*
X139033973Y-48459973D01*
X138968046Y-48465161D01*
X138899072Y-48475558D01*
X138835951Y-48475558D01*
X138775700Y-48480300D01*
X138715449Y-48475558D01*
X138652328Y-48475558D01*
X138583352Y-48465161D01*
X138517427Y-48459973D01*
X138464286Y-48447215D01*
X138408350Y-48438784D01*
X138335262Y-48416239D01*
X138265513Y-48399494D01*
X138220409Y-48380811D01*
X138172567Y-48366054D01*
X138097461Y-48329885D01*
X138026162Y-48300352D01*
X137989561Y-48277923D01*
X137950263Y-48258998D01*
X137875510Y-48208032D01*
X137805267Y-48164987D01*
X137777140Y-48140964D01*
X137746397Y-48120004D01*
X137674611Y-48053396D01*
X137608267Y-47996733D01*
X137588120Y-47973144D01*
X137565523Y-47952177D01*
X137499455Y-47869330D01*
X137440013Y-47799733D01*
X137426940Y-47778399D01*
X137411682Y-47759267D01*
X137354142Y-47659604D01*
X137304648Y-47578838D01*
X137297377Y-47561285D01*
X137288314Y-47545587D01*
X137242072Y-47427767D01*
X137205506Y-47339487D01*
X137202482Y-47326895D01*
X137198170Y-47315906D01*
X137165868Y-47174383D01*
X137145027Y-47087573D01*
X137144486Y-47080703D01*
X137143264Y-47075348D01*
X137127333Y-46862766D01*
X137124700Y-46829300D01*
X137127330Y-46795871D01*
X137143264Y-46583251D01*
X137144486Y-46577895D01*
X137145027Y-46571027D01*
X137165863Y-46484235D01*
X137198170Y-46342693D01*
X137202483Y-46331702D01*
X137205506Y-46319113D01*
X137242065Y-46230850D01*
X137288314Y-46113012D01*
X137297379Y-46097310D01*
X137304648Y-46079762D01*
X137354132Y-45999011D01*
X137411682Y-45899332D01*
X137426942Y-45880195D01*
X137440013Y-45858867D01*
X137499443Y-45789283D01*
X137565523Y-45706422D01*
X137588124Y-45685450D01*
X137608267Y-45661867D01*
X137674597Y-45605215D01*
X137746397Y-45538595D01*
X137777146Y-45517630D01*
X137805267Y-45493613D01*
X137875495Y-45450576D01*
X137950263Y-45399601D01*
X137989569Y-45380672D01*
X138026162Y-45358248D01*
X138097446Y-45328721D01*
X138172567Y-45292545D01*
X138220418Y-45277784D01*
X138265513Y-45259106D01*
X138335247Y-45242364D01*
X138408350Y-45219815D01*
X138464294Y-45211382D01*
X138517427Y-45198627D01*
X138583348Y-45193438D01*
X138652328Y-45183042D01*
X138715449Y-45183042D01*
X138775700Y-45178300D01*
X138835951Y-45183042D01*
G37*
G36*
X150265951Y-45183042D02*
G01*
X150329072Y-45183042D01*
X150398050Y-45193438D01*
X150463973Y-45198627D01*
X150517106Y-45211383D01*
X150573049Y-45219815D01*
X150646147Y-45242363D01*
X150715887Y-45259106D01*
X150760984Y-45277785D01*
X150808832Y-45292545D01*
X150883948Y-45328719D01*
X150955238Y-45358248D01*
X150991831Y-45380672D01*
X151031137Y-45399601D01*
X151105900Y-45450574D01*
X151176133Y-45493613D01*
X151204257Y-45517633D01*
X151235002Y-45538595D01*
X151306789Y-45605204D01*
X151373133Y-45661867D01*
X151393279Y-45685455D01*
X151415876Y-45706422D01*
X151481941Y-45789265D01*
X151541387Y-45858867D01*
X151554460Y-45880201D01*
X151569717Y-45899332D01*
X151627250Y-45998983D01*
X151676752Y-46079762D01*
X151684023Y-46097316D01*
X151693085Y-46113012D01*
X151739315Y-46230804D01*
X151775894Y-46319113D01*
X151778917Y-46331708D01*
X151783229Y-46342693D01*
X151815515Y-46484150D01*
X151836373Y-46571027D01*
X151836914Y-46577901D01*
X151838135Y-46583251D01*
X151854048Y-46795605D01*
X151856700Y-46829300D01*
X151854045Y-46863031D01*
X151838135Y-47075348D01*
X151836914Y-47080696D01*
X151836373Y-47087573D01*
X151815511Y-47174468D01*
X151783229Y-47315906D01*
X151778918Y-47326888D01*
X151775894Y-47339487D01*
X151739308Y-47427813D01*
X151693085Y-47545587D01*
X151684024Y-47561279D01*
X151676752Y-47578838D01*
X151627240Y-47659633D01*
X151569717Y-47759267D01*
X151554463Y-47778394D01*
X151541387Y-47799733D01*
X151481929Y-47869348D01*
X151415876Y-47952177D01*
X151393283Y-47973139D01*
X151373133Y-47996733D01*
X151306776Y-48053407D01*
X151235002Y-48120004D01*
X151204263Y-48140961D01*
X151176133Y-48164987D01*
X151105886Y-48208034D01*
X151031137Y-48258998D01*
X150991838Y-48277922D01*
X150955238Y-48300352D01*
X150883933Y-48329887D01*
X150808832Y-48366054D01*
X150760993Y-48380810D01*
X150715887Y-48399494D01*
X150646132Y-48416240D01*
X150573049Y-48438784D01*
X150517114Y-48447214D01*
X150463973Y-48459973D01*
X150398046Y-48465161D01*
X150329072Y-48475558D01*
X150265951Y-48475558D01*
X150205700Y-48480300D01*
X150145449Y-48475558D01*
X150082328Y-48475558D01*
X150013352Y-48465161D01*
X149947427Y-48459973D01*
X149894286Y-48447215D01*
X149838350Y-48438784D01*
X149765262Y-48416239D01*
X149695513Y-48399494D01*
X149650409Y-48380811D01*
X149602567Y-48366054D01*
X149527461Y-48329885D01*
X149456162Y-48300352D01*
X149419561Y-48277923D01*
X149380263Y-48258998D01*
X149305510Y-48208032D01*
X149235267Y-48164987D01*
X149207140Y-48140964D01*
X149176397Y-48120004D01*
X149104611Y-48053396D01*
X149038267Y-47996733D01*
X149018120Y-47973144D01*
X148995523Y-47952177D01*
X148929455Y-47869330D01*
X148870013Y-47799733D01*
X148856940Y-47778399D01*
X148841682Y-47759267D01*
X148784142Y-47659604D01*
X148734648Y-47578838D01*
X148727377Y-47561285D01*
X148718314Y-47545587D01*
X148672072Y-47427767D01*
X148635506Y-47339487D01*
X148632482Y-47326895D01*
X148628170Y-47315906D01*
X148595868Y-47174383D01*
X148575027Y-47087573D01*
X148574486Y-47080703D01*
X148573264Y-47075348D01*
X148557333Y-46862766D01*
X148554700Y-46829300D01*
X148557330Y-46795871D01*
X148573264Y-46583251D01*
X148574486Y-46577895D01*
X148575027Y-46571027D01*
X148595863Y-46484235D01*
X148628170Y-46342693D01*
X148632483Y-46331702D01*
X148635506Y-46319113D01*
X148672065Y-46230850D01*
X148718314Y-46113012D01*
X148727379Y-46097310D01*
X148734648Y-46079762D01*
X148784132Y-45999011D01*
X148841682Y-45899332D01*
X148856942Y-45880195D01*
X148870013Y-45858867D01*
X148929443Y-45789283D01*
X148995523Y-45706422D01*
X149018124Y-45685450D01*
X149038267Y-45661867D01*
X149104597Y-45605215D01*
X149176397Y-45538595D01*
X149207146Y-45517630D01*
X149235267Y-45493613D01*
X149305495Y-45450576D01*
X149380263Y-45399601D01*
X149419569Y-45380672D01*
X149456162Y-45358248D01*
X149527446Y-45328721D01*
X149602567Y-45292545D01*
X149650418Y-45277784D01*
X149695513Y-45259106D01*
X149765247Y-45242364D01*
X149838350Y-45219815D01*
X149894294Y-45211382D01*
X149947427Y-45198627D01*
X150013348Y-45193438D01*
X150082328Y-45183042D01*
X150145449Y-45183042D01*
X150205700Y-45178300D01*
X150265951Y-45183042D01*
G37*
G36*
X154821517Y-46995482D02*
G01*
X154838062Y-47006538D01*
X154849118Y-47023083D01*
X154853000Y-47042600D01*
X154853000Y-47942600D01*
X154849118Y-47962117D01*
X154838062Y-47978662D01*
X154821517Y-47989718D01*
X154802000Y-47993600D01*
X153402000Y-47993600D01*
X153382483Y-47989718D01*
X153365938Y-47978662D01*
X153354882Y-47962117D01*
X153351000Y-47942600D01*
X153351000Y-47042600D01*
X153354882Y-47023083D01*
X153365938Y-47006538D01*
X153382483Y-46995482D01*
X153402000Y-46991600D01*
X154802000Y-46991600D01*
X154821517Y-46995482D01*
G37*
G36*
X128589517Y-45418882D02*
G01*
X128606062Y-45429938D01*
X128617118Y-45446483D01*
X128621000Y-45466000D01*
X128621000Y-47466000D01*
X128617118Y-47485517D01*
X128606062Y-47502062D01*
X128589517Y-47513118D01*
X128570000Y-47517000D01*
X124770000Y-47517000D01*
X124750483Y-47513118D01*
X124733938Y-47502062D01*
X124722882Y-47485517D01*
X124719000Y-47466000D01*
X124719000Y-45466000D01*
X124722882Y-45446483D01*
X124733938Y-45429938D01*
X124750483Y-45418882D01*
X124770000Y-45415000D01*
X128570000Y-45415000D01*
X128589517Y-45418882D01*
G37*
G36*
X167562117Y-46084082D02*
G01*
X167578662Y-46095138D01*
X167589718Y-46111683D01*
X167593600Y-46131200D01*
X167593600Y-46831200D01*
X167589718Y-46850717D01*
X167578662Y-46867262D01*
X167562117Y-46878318D01*
X167542600Y-46882200D01*
X167042600Y-46882200D01*
X167023083Y-46878318D01*
X167006538Y-46867262D01*
X166995482Y-46850717D01*
X166991600Y-46831200D01*
X166991600Y-46131200D01*
X166995482Y-46111683D01*
X167006538Y-46095138D01*
X167023083Y-46084082D01*
X167042600Y-46080200D01*
X167542600Y-46080200D01*
X167562117Y-46084082D01*
G37*
G36*
X168443100Y-46220526D02*
G01*
X168523179Y-46287721D01*
X168575447Y-46378252D01*
X168593600Y-46481200D01*
X168575447Y-46584148D01*
X168523179Y-46674679D01*
X168443100Y-46741874D01*
X168344868Y-46777627D01*
X168240332Y-46777627D01*
X168142100Y-46741874D01*
X168062021Y-46674679D01*
X168009753Y-46584148D01*
X167991600Y-46481200D01*
X168009753Y-46378252D01*
X168062021Y-46287721D01*
X168142100Y-46220526D01*
X168240332Y-46184773D01*
X168344868Y-46184773D01*
X168443100Y-46220526D01*
G37*
G36*
X154821517Y-45095482D02*
G01*
X154838062Y-45106538D01*
X154849118Y-45123083D01*
X154853000Y-45142600D01*
X154853000Y-46042600D01*
X154849118Y-46062117D01*
X154838062Y-46078662D01*
X154821517Y-46089718D01*
X154802000Y-46093600D01*
X153402000Y-46093600D01*
X153382483Y-46089718D01*
X153365938Y-46078662D01*
X153354882Y-46062117D01*
X153351000Y-46042600D01*
X153351000Y-45142600D01*
X153354882Y-45123083D01*
X153365938Y-45106538D01*
X153382483Y-45095482D01*
X153402000Y-45091600D01*
X154802000Y-45091600D01*
X154821517Y-45095482D01*
G37*
M02*
