M48
; DRILL file {KiCad 7.99.0-1900-g89780d353a} date 2023-07-18T18:24:51+0300
; FORMAT={-:-/ absolute / inch / decimal}
; #@! TF.CreationDate,2023-07-18T18:24:51+03:00
; #@! TF.GenerationSoftware,Kicad,Pcbnew,7.99.0-1900-g89780d353a
; #@! TF.FileFunction,Plated,1,2,PTH
FMAT,2
INCH
; #@! TA.AperFunction,Plated,PTH,ViaDrill
T1C0.0138
; #@! TA.AperFunction,Plated,PTH,ComponentDrill
T2C0.0138
; #@! TA.AperFunction,Plated,PTH,ComponentDrill
T3C0.0299
; #@! TA.AperFunction,Plated,PTH,ComponentDrill
T4C0.0315
; #@! TA.AperFunction,Plated,PTH,ViaDrill
T5C0.0394
; #@! TA.AperFunction,Plated,PTH,ComponentDrill
T6C0.0709
%
G90
G05
T1
X4.867Y-1.8134
X4.877Y-2.6234
X4.897Y-1.9734
X4.988Y-2.5674
X5.013Y-2.3594
X5.046Y-2.1574
X5.0475Y-2.5034
X5.0624Y-2.8031
X5.067Y-1.9734
X5.067Y-2.8634
X5.087Y-2.1644
X5.107Y-1.8334
X5.187Y-1.7734
X5.19Y-2.4488
X5.212Y-2.6834
X5.222Y-2.8084
X5.227Y-2.2634
X5.227Y-2.7634
X5.247Y-2.5534
X5.2642Y-2.5033
X5.2746Y-2.4464
X5.281Y-2.2724
X5.282Y-2.3614
X5.287Y-2.8534
X5.317Y-2.5634
X5.327Y-2.5034
X5.327Y-2.7834
X5.337Y-2.6934
X5.342Y-2.8484
X5.344Y-2.4514
X5.35Y-2.3014
X5.3735Y-2.5661
X5.424Y-2.3614
X5.431Y-2.1824
X5.439Y-2.5014
X5.447Y-2.4434
X5.467Y-2.3534
X5.577Y-2.7534
X5.617Y-1.8334
X5.63Y-2.3524
X5.647Y-1.8734
X5.667Y-2.5034
X5.682Y-2.6584
X5.747Y-2.6584
X5.761Y-2.0264
X5.767Y-1.8334
X5.802Y-2.6584
X5.807Y-2.8134
X5.816Y-2.0344
X5.89Y-2.6524
X5.93Y-2.5447
X5.947Y-2.0934
X5.97Y-2.3264
X5.993Y-2.2594
X5.9936Y-2.2905
X6.042Y-2.8034
X6.067Y-2.4934
X6.071Y-2.1974
X6.079Y-2.5704
X6.087Y-2.6434
X6.167Y-2.6434
X6.207Y-2.7334
X6.23Y-2.4715
X6.247Y-1.8134
X6.252Y-2.1324
X6.257Y-2.6484
X6.262Y-2.4854
X6.277Y-2.7184
X6.289Y-2.4975
X6.292Y-2.8564
X6.311Y-2.5208
X6.317Y-2.1434
X6.327Y-2.2734
X6.327Y-2.6854
X6.34Y-2.3614
X6.347Y-2.2334
X6.347Y-2.3884
X6.349Y-2.5204
X6.367Y-2.1234
X6.385Y-2.2474
X6.387Y-2.0934
X6.387Y-2.2934
X6.387Y-2.3934
X6.391Y-2.1604
X6.401Y-2.6824
X6.407Y-1.8134
X6.411Y-2.3654
X6.421Y-2.5204
X6.427Y-2.2534
X6.427Y-2.7184
X6.435Y-2.3014
X6.447Y-2.1334
X6.447Y-2.6744
X6.467Y-2.0934
X6.477Y-2.5184
X6.487Y-2.7034
X6.525Y-2.5674
X6.534Y-2.6124
X6.5341Y-2.7456
X6.548Y-2.0744
X6.5509Y-2.5475
X6.5606Y-2.5754
X6.57Y-2.0544
X6.5823Y-2.6031
X6.608Y-2.0674
X6.611Y-2.6097
X6.613Y-2.1044
X6.646Y-2.5411
X6.6466Y-2.3728
X6.649Y-2.3434
X6.655Y-2.4104
X6.6685Y-2.6844
X6.682Y-2.5234
X6.688Y-2.4814
X6.702Y-2.5874
X6.707Y-2.3584
X6.707Y-2.5134
X6.723Y-2.2904
X6.727Y-1.8034
X6.749Y-2.5874
X6.765Y-2.3374
X6.772Y-2.6844
X6.781Y-1.9244
X6.787Y-1.8034
X6.792Y-2.8554
X6.811Y-2.1554
X6.811Y-2.5044
X6.812Y-2.4314
X6.812Y-2.4764
X6.817Y-1.8034
X6.827Y-2.1134
X6.828Y-2.8684
X6.8284Y-2.366
X6.869Y-2.2084
X6.869Y-2.3644
X6.871Y-2.1024
X6.882Y-1.9464
X6.9049Y-2.2355
X6.915Y-2.8644
X6.918Y-2.1494
X6.927Y-2.0934
X6.937Y-1.8034
X6.963Y-2.6407
X6.963Y-2.8154
X6.979Y-2.4854
X6.98Y-2.4364
X6.987Y-1.8034
X7.001Y-2.6414
X7.015Y-2.2834
X7.027Y-2.0934
X7.027Y-2.1534
X7.03Y-2.6542
X7.047Y-1.8034
X7.051Y-2.5974
X7.075Y-2.4824
X7.076Y-2.4114
X7.077Y-2.4434
X7.077Y-2.5424
X7.077Y-2.6294
X7.086Y-2.0424
X7.117Y-2.0734
X7.123Y-2.3194
X7.127Y-2.1334
X7.167Y-1.9934
X7.177Y-2.1234
X7.18Y-2.3664
X7.202Y-2.8434
X7.204Y-2.7774
X7.217Y-2.4384
X7.263Y-2.4414
T2
X6.5863Y-1.83
X6.6257Y-1.83
X6.8468Y-2.4132
X6.8468Y-2.4634
X6.8468Y-2.5136
X6.897Y-2.4132
X6.897Y-2.4634
X6.897Y-2.5136
X6.9472Y-2.4132
X6.9472Y-2.4634
X6.9472Y-2.5136
T3
X5.5136Y-2.1937
X5.5174Y-2.5459
X5.5636Y-2.0937
X5.5674Y-2.4459
X5.6136Y-2.1937
X5.6174Y-2.5459
X5.6636Y-2.0937
X5.6674Y-2.4459
X5.7136Y-2.1937
X5.7174Y-2.5459
X5.7636Y-2.0937
X5.7674Y-2.4459
X5.8136Y-2.1937
X5.8174Y-2.5459
X5.8636Y-2.0937
X5.8674Y-2.4459
T4
X5.1274Y-2.5535
X5.1274Y-2.6322
X5.1274Y-2.711
X5.1274Y-2.7897
X7.256Y-2.8194
X7.257Y-2.0559
X7.257Y-2.1346
X7.257Y-2.2134
X7.257Y-2.2921
X7.257Y-2.3709
T5
X4.864Y-2.5374
X5.93Y-1.9644
X6.926Y-1.8964
X7.1541Y-2.805
T6
X6.2501Y-2.0124
X6.406Y-2.0124
X6.807Y-2.0114
X6.9629Y-2.0114
T0
M30
