%TF.GenerationSoftware,KiCad,Pcbnew,7.99.0-1900-g89780d353a*%
%TF.CreationDate,2023-07-18T18:24:52+03:00*%
%TF.ProjectId,RP2040_minimal,52503230-3430-45f6-9d69-6e696d616c2e,REV1*%
%TF.SameCoordinates,Original*%
%TF.FileFunction,Drillmap*%
%TF.FilePolarity,Positive*%
%FSLAX45Y45*%
G04 Gerber Fmt 4.5, Leading zero omitted, Abs format (unit mm)*
G04 Created by KiCad (PCBNEW 7.99.0-1900-g89780d353a) date 2023-07-18 18:24:52*
%MOMM*%
%LPD*%
G01*
G04 APERTURE LIST*
%ADD10C,0.250000*%
%ADD11C,0.200000*%
%ADD12C,0.035000*%
%ADD13C,0.076000*%
%ADD14C,0.080000*%
%ADD15C,0.100000*%
%ADD16C,0.180000*%
G04 APERTURE END LIST*
D10*
X12759600Y-6799200D02*
X12759600Y-7349200D01*
X18619600Y-4989200D02*
X18619600Y-7349200D01*
X12209600Y-6799200D02*
X12759600Y-6799200D01*
X12209600Y-4439200D02*
X18069600Y-4439200D01*
X12209600Y-6799200D02*
X12209600Y-4439200D01*
X18619600Y-4989200D02*
X18069600Y-4989200D01*
X18619600Y-7349200D02*
X12759600Y-7349200D01*
X18069600Y-4989200D02*
X18069600Y-4439200D01*
X17544600Y-7069200D02*
G75*
G03*
X17544600Y-7069200I-130000J0D01*
G01*
X13544600Y-4719200D02*
G75*
G03*
X13544600Y-4719200I-130000J0D01*
G01*
D11*
D12*
X12344700Y-4588500D02*
X12379700Y-4623500D01*
X12379700Y-4588500D02*
X12344700Y-4623500D01*
X12370100Y-6645900D02*
X12405100Y-6680900D01*
X12405100Y-6645900D02*
X12370100Y-6680900D01*
X12420900Y-4994900D02*
X12455900Y-5029900D01*
X12455900Y-4994900D02*
X12420900Y-5029900D01*
X12652040Y-6503660D02*
X12687040Y-6538660D01*
X12687040Y-6503660D02*
X12652040Y-6538660D01*
X12715540Y-5975340D02*
X12750540Y-6010340D01*
X12750540Y-5975340D02*
X12715540Y-6010340D01*
X12799360Y-5462260D02*
X12834360Y-5497260D01*
X12834360Y-5462260D02*
X12799360Y-5497260D01*
X12803100Y-6341101D02*
X12838100Y-6376101D01*
X12838100Y-6341101D02*
X12803100Y-6376101D01*
X12841100Y-7102340D02*
X12876100Y-7137340D01*
X12876100Y-7102340D02*
X12841100Y-7137340D01*
X12852700Y-4994900D02*
X12887700Y-5029900D01*
X12887700Y-4994900D02*
X12852700Y-5029900D01*
X12852700Y-7255500D02*
X12887700Y-7290500D01*
X12887700Y-7255500D02*
X12852700Y-7290500D01*
X12903500Y-5480040D02*
X12938500Y-5515040D01*
X12938500Y-5480040D02*
X12903500Y-5515040D01*
X12954300Y-4639300D02*
X12989300Y-4674300D01*
X12989300Y-4639300D02*
X12954300Y-4674300D01*
X13157500Y-4486900D02*
X13192500Y-4521900D01*
X13192500Y-4486900D02*
X13157500Y-4521900D01*
X13165100Y-6202340D02*
X13200100Y-6237340D01*
X13200100Y-6202340D02*
X13165100Y-6237340D01*
X13221000Y-6798300D02*
X13256000Y-6833300D01*
X13256000Y-6798300D02*
X13221000Y-6833300D01*
X13246400Y-7115800D02*
X13281400Y-7150800D01*
X13281400Y-7115800D02*
X13246400Y-7150800D01*
X13259100Y-5731500D02*
X13294100Y-5766500D01*
X13294100Y-5731500D02*
X13259100Y-5766500D01*
X13259100Y-7001500D02*
X13294100Y-7036500D01*
X13294100Y-7001500D02*
X13259100Y-7036500D01*
X13309900Y-6468100D02*
X13344900Y-6503100D01*
X13344900Y-6468100D02*
X13309900Y-6503100D01*
X13353600Y-6340840D02*
X13388600Y-6375840D01*
X13388600Y-6340840D02*
X13353600Y-6375840D01*
X13380100Y-6196340D02*
X13415100Y-6231340D01*
X13415100Y-6196340D02*
X13380100Y-6231340D01*
X13396260Y-5754360D02*
X13431260Y-5789360D01*
X13431260Y-5754360D02*
X13396260Y-5789360D01*
X13398800Y-5980420D02*
X13433800Y-6015420D01*
X13433800Y-5980420D02*
X13398800Y-6015420D01*
X13411500Y-7230100D02*
X13446500Y-7265100D01*
X13446500Y-7230100D02*
X13411500Y-7265100D01*
X13487700Y-6493500D02*
X13522700Y-6528500D01*
X13522700Y-6493500D02*
X13487700Y-6528500D01*
X13513100Y-6341100D02*
X13548100Y-6376100D01*
X13548100Y-6341100D02*
X13513100Y-6376100D01*
X13513100Y-7052300D02*
X13548100Y-7087300D01*
X13548100Y-7052300D02*
X13513100Y-7087300D01*
X13538500Y-6823700D02*
X13573500Y-6858700D01*
X13573500Y-6823700D02*
X13538500Y-6858700D01*
X13551200Y-7217400D02*
X13586200Y-7252400D01*
X13586200Y-7217400D02*
X13551200Y-7252400D01*
X13556280Y-6209020D02*
X13591280Y-6244020D01*
X13591280Y-6209020D02*
X13556280Y-6244020D01*
X13571520Y-5828020D02*
X13606520Y-5863020D01*
X13606520Y-5828020D02*
X13571520Y-5863020D01*
X13631100Y-6500340D02*
X13666100Y-6535340D01*
X13666100Y-6500340D02*
X13631100Y-6535340D01*
X13759480Y-5980420D02*
X13794480Y-6015420D01*
X13794480Y-5980420D02*
X13759480Y-6015420D01*
X13777260Y-5525760D02*
X13812260Y-5560760D01*
X13812260Y-5525760D02*
X13777260Y-5560760D01*
X13797580Y-6336020D02*
X13832580Y-6371020D01*
X13832580Y-6336020D02*
X13797580Y-6371020D01*
X13817900Y-6188700D02*
X13852900Y-6223700D01*
X13852900Y-6188700D02*
X13817900Y-6223700D01*
X13868700Y-5960100D02*
X13903700Y-5995100D01*
X13903700Y-5960100D02*
X13868700Y-5995100D01*
X14148100Y-6976100D02*
X14183100Y-7011100D01*
X14183100Y-6976100D02*
X14148100Y-7011100D01*
X14249700Y-4639300D02*
X14284700Y-4674300D01*
X14284700Y-4639300D02*
X14249700Y-4674300D01*
X14282720Y-5957560D02*
X14317720Y-5992560D01*
X14317720Y-5957560D02*
X14282720Y-5992560D01*
X14325900Y-4740900D02*
X14360900Y-4775900D01*
X14360900Y-4740900D02*
X14325900Y-4775900D01*
X14376700Y-6341100D02*
X14411700Y-6376100D01*
X14411700Y-6341100D02*
X14376700Y-6376100D01*
X14414800Y-6734800D02*
X14449800Y-6769800D01*
X14449800Y-6734800D02*
X14414800Y-6769800D01*
X14579900Y-6734800D02*
X14614900Y-6769800D01*
X14614900Y-6734800D02*
X14579900Y-6769800D01*
X14615460Y-5129520D02*
X14650460Y-5164520D01*
X14650460Y-5129520D02*
X14615460Y-5164520D01*
X14630700Y-4639300D02*
X14665700Y-4674300D01*
X14665700Y-4639300D02*
X14630700Y-4674300D01*
X14719600Y-6734800D02*
X14754600Y-6769800D01*
X14754600Y-6734800D02*
X14719600Y-6769800D01*
X14732300Y-7128500D02*
X14767300Y-7163500D01*
X14767300Y-7128500D02*
X14732300Y-7163500D01*
X14755160Y-5149840D02*
X14790160Y-5184840D01*
X14790160Y-5149840D02*
X14755160Y-5184840D01*
X14943120Y-6719560D02*
X14978120Y-6754560D01*
X14978120Y-6719560D02*
X14943120Y-6754560D01*
X15044720Y-6446050D02*
X15079720Y-6481050D01*
X15079720Y-6446050D02*
X15044720Y-6481050D01*
X15087900Y-5299700D02*
X15122900Y-5334700D01*
X15122900Y-5299700D02*
X15087900Y-5334700D01*
X15146320Y-5891520D02*
X15181320Y-5926520D01*
X15181320Y-5891520D02*
X15146320Y-5926520D01*
X15204740Y-5721340D02*
X15239740Y-5756340D01*
X15239740Y-5721340D02*
X15204740Y-5756340D01*
X15206123Y-5800434D02*
X15241123Y-5835434D01*
X15241123Y-5800434D02*
X15206123Y-5835434D01*
X15329200Y-7103100D02*
X15364200Y-7138100D01*
X15364200Y-7103100D02*
X15329200Y-7138100D01*
X15392700Y-6315700D02*
X15427700Y-6350700D01*
X15427700Y-6315700D02*
X15392700Y-6350700D01*
X15402860Y-5563860D02*
X15437860Y-5598860D01*
X15437860Y-5563860D02*
X15402860Y-5598860D01*
X15423180Y-6511280D02*
X15458180Y-6546280D01*
X15458180Y-6511280D02*
X15423180Y-6546280D01*
X15443500Y-6696700D02*
X15478500Y-6731700D01*
X15478500Y-6696700D02*
X15443500Y-6731700D01*
X15646700Y-6696700D02*
X15681700Y-6731700D01*
X15681700Y-6696700D02*
X15646700Y-6731700D01*
X15748300Y-6925300D02*
X15783300Y-6960300D01*
X15783300Y-6925300D02*
X15748300Y-6960300D01*
X15806720Y-6260142D02*
X15841720Y-6295142D01*
X15841720Y-6260142D02*
X15806720Y-6295142D01*
X15849900Y-4588500D02*
X15884900Y-4623500D01*
X15884900Y-4588500D02*
X15849900Y-4623500D01*
X15862600Y-5398760D02*
X15897600Y-5433760D01*
X15897600Y-5398760D02*
X15862600Y-5433760D01*
X15875300Y-6709400D02*
X15910300Y-6744400D01*
X15910300Y-6709400D02*
X15875300Y-6744400D01*
X15888000Y-6295380D02*
X15923000Y-6330380D01*
X15923000Y-6295380D02*
X15888000Y-6330380D01*
X15926100Y-6887200D02*
X15961100Y-6922200D01*
X15961100Y-6887200D02*
X15926100Y-6922200D01*
X15956580Y-6326254D02*
X15991580Y-6361254D01*
X15991580Y-6326254D02*
X15956580Y-6361254D01*
X15964200Y-7237720D02*
X15999200Y-7272720D01*
X15999200Y-7237720D02*
X15964200Y-7272720D01*
X16012460Y-6385210D02*
X16047460Y-6420210D01*
X16047460Y-6385210D02*
X16012460Y-6420210D01*
X16027700Y-5426700D02*
X16062700Y-5461700D01*
X16062700Y-5426700D02*
X16027700Y-5461700D01*
X16053100Y-5756900D02*
X16088100Y-5791900D01*
X16088100Y-5756900D02*
X16053100Y-5791900D01*
X16053100Y-6803380D02*
X16088100Y-6838380D01*
X16088100Y-6803380D02*
X16053100Y-6838380D01*
X16086120Y-5980420D02*
X16121120Y-6015420D01*
X16121120Y-5980420D02*
X16086120Y-6015420D01*
X16103900Y-5655300D02*
X16138900Y-5690300D01*
X16138900Y-5655300D02*
X16103900Y-5690300D01*
X16103900Y-6049000D02*
X16138900Y-6084000D01*
X16138900Y-6049000D02*
X16103900Y-6084000D01*
X16108980Y-6384280D02*
X16143980Y-6419280D01*
X16143980Y-6384280D02*
X16108980Y-6419280D01*
X16154700Y-5375900D02*
X16189700Y-5410900D01*
X16189700Y-5375900D02*
X16154700Y-5410900D01*
X16200420Y-5690860D02*
X16235420Y-5725860D01*
X16235420Y-5690860D02*
X16200420Y-5725860D01*
X16205500Y-5299700D02*
X16240500Y-5334700D01*
X16240500Y-5299700D02*
X16205500Y-5334700D01*
X16205500Y-5807700D02*
X16240500Y-5842700D01*
X16240500Y-5807700D02*
X16205500Y-5842700D01*
X16205500Y-6061700D02*
X16240500Y-6096700D01*
X16240500Y-6061700D02*
X16205500Y-6096700D01*
X16215660Y-5469880D02*
X16250660Y-5504880D01*
X16250660Y-5469880D02*
X16215660Y-5504880D01*
X16241060Y-6795760D02*
X16276060Y-6830760D01*
X16276060Y-6795760D02*
X16241060Y-6830760D01*
X16256300Y-4588500D02*
X16291300Y-4623500D01*
X16291300Y-4588500D02*
X16256300Y-4623500D01*
X16266460Y-5990580D02*
X16301460Y-6025580D01*
X16301460Y-5990580D02*
X16266460Y-6025580D01*
X16291860Y-6384280D02*
X16326860Y-6419280D01*
X16326860Y-6384280D02*
X16291860Y-6419280D01*
X16307100Y-5706100D02*
X16342100Y-5741100D01*
X16342100Y-5706100D02*
X16307100Y-5741100D01*
X16307100Y-6887200D02*
X16342100Y-6922200D01*
X16342100Y-6887200D02*
X16307100Y-6922200D01*
X16327420Y-5828020D02*
X16362420Y-5863020D01*
X16362420Y-5828020D02*
X16327420Y-5863020D01*
X16357900Y-5401300D02*
X16392900Y-5436300D01*
X16392900Y-5401300D02*
X16357900Y-5436300D01*
X16357900Y-6775440D02*
X16392900Y-6810440D01*
X16392900Y-6775440D02*
X16357900Y-6810440D01*
X16408700Y-5299700D02*
X16443700Y-5334700D01*
X16443700Y-5299700D02*
X16408700Y-5334700D01*
X16434100Y-6379200D02*
X16469100Y-6414200D01*
X16469100Y-6379200D02*
X16434100Y-6414200D01*
X16459500Y-6849100D02*
X16494500Y-6884100D01*
X16494500Y-6849100D02*
X16459500Y-6884100D01*
X16556020Y-6503660D02*
X16591020Y-6538660D01*
X16591020Y-6503660D02*
X16556020Y-6538660D01*
X16578880Y-6617960D02*
X16613880Y-6652960D01*
X16613880Y-6617960D02*
X16578880Y-6652960D01*
X16579100Y-6956340D02*
X16614100Y-6991340D01*
X16614100Y-6956340D02*
X16579100Y-6991340D01*
X16614440Y-5251440D02*
X16649440Y-5286440D01*
X16649440Y-5251440D02*
X16614440Y-5286440D01*
X16621714Y-6453127D02*
X16656714Y-6488127D01*
X16656714Y-6453127D02*
X16621714Y-6488127D01*
X16646509Y-6523980D02*
X16681509Y-6558980D01*
X16681509Y-6523980D02*
X16646509Y-6558980D01*
X16670320Y-5200640D02*
X16705320Y-5235640D01*
X16705320Y-5200640D02*
X16670320Y-5235640D01*
X16701459Y-6594248D02*
X16736459Y-6629248D01*
X16736459Y-6594248D02*
X16701459Y-6629248D01*
X16766840Y-5233660D02*
X16801840Y-5268660D01*
X16801840Y-5233660D02*
X16766840Y-5268660D01*
X16774460Y-6611230D02*
X16809460Y-6646230D01*
X16809460Y-6611230D02*
X16774460Y-6646230D01*
X16779540Y-5327640D02*
X16814540Y-5362640D01*
X16814540Y-5327640D02*
X16779540Y-5362640D01*
X16863253Y-6436997D02*
X16898253Y-6471997D01*
X16898253Y-6436997D02*
X16863253Y-6471997D01*
X16864915Y-6009404D02*
X16899915Y-6044404D01*
X16899915Y-6009404D02*
X16864915Y-6044404D01*
X16870980Y-5934700D02*
X16905980Y-5969700D01*
X16905980Y-5934700D02*
X16870980Y-5969700D01*
X16886220Y-6104880D02*
X16921220Y-6139880D01*
X16921220Y-6104880D02*
X16886220Y-6139880D01*
X16920406Y-6800839D02*
X16955406Y-6835839D01*
X16955406Y-6800839D02*
X16920406Y-6835839D01*
X16954800Y-6391900D02*
X16989800Y-6426900D01*
X16989800Y-6391900D02*
X16954800Y-6426900D01*
X16970040Y-6285220D02*
X17005040Y-6320220D01*
X17005040Y-6285220D02*
X16970040Y-6320220D01*
X17005600Y-6554460D02*
X17040600Y-6589460D01*
X17040600Y-6554460D02*
X17005600Y-6589460D01*
X17018300Y-5972800D02*
X17053300Y-6007800D01*
X17053300Y-5972800D02*
X17018300Y-6007800D01*
X17018300Y-6366500D02*
X17053300Y-6401500D01*
X17053300Y-6366500D02*
X17018300Y-6401500D01*
X17058940Y-5800080D02*
X17093940Y-5835080D01*
X17093940Y-5800080D02*
X17058940Y-5835080D01*
X17069100Y-4563100D02*
X17104100Y-4598100D01*
X17104100Y-4563100D02*
X17069100Y-4598100D01*
X17124980Y-6554450D02*
X17159980Y-6589450D01*
X17159980Y-6554450D02*
X17124980Y-6589450D01*
X17165620Y-5919460D02*
X17200620Y-5954460D01*
X17200620Y-5919460D02*
X17165620Y-5954460D01*
X17183400Y-6800840D02*
X17218400Y-6835840D01*
X17218400Y-6800840D02*
X17183400Y-6835840D01*
X17206260Y-4870440D02*
X17241260Y-4905440D01*
X17241260Y-4870440D02*
X17206260Y-4905440D01*
X17221500Y-4563100D02*
X17256500Y-4598100D01*
X17256500Y-4563100D02*
X17221500Y-4598100D01*
X17234200Y-7235180D02*
X17269200Y-7270180D01*
X17269200Y-7235180D02*
X17234200Y-7270180D01*
X17282460Y-5457180D02*
X17317460Y-5492180D01*
X17317460Y-5457180D02*
X17282460Y-5492180D01*
X17282460Y-6343640D02*
X17317460Y-6378640D01*
X17317460Y-6343640D02*
X17282460Y-6378640D01*
X17285000Y-6158220D02*
X17320000Y-6193220D01*
X17320000Y-6158220D02*
X17285000Y-6193220D01*
X17285000Y-6272520D02*
X17320000Y-6307520D01*
X17320000Y-6272520D02*
X17285000Y-6307520D01*
X17297700Y-4563100D02*
X17332700Y-4598100D01*
X17332700Y-4563100D02*
X17297700Y-4598100D01*
X17323100Y-5350500D02*
X17358100Y-5385500D01*
X17358100Y-5350500D02*
X17323100Y-5385500D01*
X17325640Y-7268200D02*
X17360640Y-7303200D01*
X17360640Y-7268200D02*
X17325640Y-7303200D01*
X17326721Y-5992099D02*
X17361721Y-6027099D01*
X17361721Y-5992099D02*
X17326721Y-6027099D01*
X17429780Y-5591800D02*
X17464780Y-5626800D01*
X17464780Y-5591800D02*
X17429780Y-5626800D01*
X17429780Y-5988040D02*
X17464780Y-6023040D01*
X17464780Y-5988040D02*
X17429780Y-6023040D01*
X17434860Y-5322560D02*
X17469860Y-5357560D01*
X17469860Y-5322560D02*
X17434860Y-5357560D01*
X17462800Y-4926320D02*
X17497800Y-4961320D01*
X17497800Y-4926320D02*
X17462800Y-4961320D01*
X17520900Y-5660700D02*
X17555900Y-5695700D01*
X17555900Y-5660700D02*
X17520900Y-5695700D01*
X17546620Y-7258040D02*
X17581620Y-7293040D01*
X17581620Y-7258040D02*
X17546620Y-7293040D01*
X17554240Y-5441940D02*
X17589240Y-5476940D01*
X17589240Y-5441940D02*
X17554240Y-5476940D01*
X17577100Y-5299700D02*
X17612100Y-5334700D01*
X17612100Y-5299700D02*
X17577100Y-5334700D01*
X17602500Y-4563100D02*
X17637500Y-4598100D01*
X17637500Y-4563100D02*
X17602500Y-4598100D01*
X17668540Y-6689970D02*
X17703540Y-6724970D01*
X17703540Y-6689970D02*
X17668540Y-6724970D01*
X17668540Y-7133580D02*
X17703540Y-7168580D01*
X17703540Y-7133580D02*
X17668540Y-7168580D01*
X17709180Y-6295380D02*
X17744180Y-6330380D01*
X17744180Y-6295380D02*
X17709180Y-6330380D01*
X17711720Y-6170920D02*
X17746720Y-6205920D01*
X17746720Y-6170920D02*
X17711720Y-6205920D01*
X17729500Y-4563100D02*
X17764500Y-4598100D01*
X17764500Y-4563100D02*
X17729500Y-4598100D01*
X17765060Y-6691620D02*
X17800060Y-6726620D01*
X17800060Y-6691620D02*
X17765060Y-6726620D01*
X17800620Y-5782300D02*
X17835620Y-5817300D01*
X17835620Y-5782300D02*
X17800620Y-5817300D01*
X17831100Y-5299700D02*
X17866100Y-5334700D01*
X17866100Y-5299700D02*
X17831100Y-5334700D01*
X17831100Y-5452100D02*
X17866100Y-5487100D01*
X17866100Y-5452100D02*
X17831100Y-5487100D01*
X17838720Y-6724079D02*
X17873720Y-6759079D01*
X17873720Y-6724079D02*
X17838720Y-6759079D01*
X17881900Y-4563100D02*
X17916900Y-4598100D01*
X17916900Y-4563100D02*
X17881900Y-4598100D01*
X17892060Y-6579860D02*
X17927060Y-6614860D01*
X17927060Y-6579860D02*
X17892060Y-6614860D01*
X17953020Y-6287760D02*
X17988020Y-6322760D01*
X17988020Y-6287760D02*
X17953020Y-6322760D01*
X17955560Y-6107420D02*
X17990560Y-6142420D01*
X17990560Y-6107420D02*
X17955560Y-6142420D01*
X17958100Y-6188700D02*
X17993100Y-6223700D01*
X17993100Y-6188700D02*
X17958100Y-6223700D01*
X17958100Y-6440160D02*
X17993100Y-6475160D01*
X17993100Y-6440160D02*
X17958100Y-6475160D01*
X17958100Y-6661140D02*
X17993100Y-6696140D01*
X17993100Y-6661140D02*
X17958100Y-6696140D01*
X17980960Y-5170160D02*
X18015960Y-5205160D01*
X18015960Y-5170160D02*
X17980960Y-5205160D01*
X18059700Y-5248900D02*
X18094700Y-5283900D01*
X18094700Y-5248900D02*
X18059700Y-5283900D01*
X18074940Y-5873740D02*
X18109940Y-5908740D01*
X18109940Y-5873740D02*
X18074940Y-5908740D01*
X18085100Y-5401300D02*
X18120100Y-5436300D01*
X18120100Y-5401300D02*
X18085100Y-5436300D01*
X18186700Y-5045700D02*
X18221700Y-5080700D01*
X18221700Y-5045700D02*
X18186700Y-5080700D01*
X18212100Y-5375900D02*
X18247100Y-5410900D01*
X18247100Y-5375900D02*
X18212100Y-5410900D01*
X18219720Y-5993120D02*
X18254720Y-6028120D01*
X18254720Y-5993120D02*
X18219720Y-6028120D01*
X18275600Y-7204700D02*
X18310600Y-7239700D01*
X18310600Y-7204700D02*
X18275600Y-7239700D01*
X18280680Y-7037060D02*
X18315680Y-7072060D01*
X18315680Y-7037060D02*
X18280680Y-7072060D01*
X18313700Y-6176000D02*
X18348700Y-6211000D01*
X18348700Y-6176000D02*
X18313700Y-6211000D01*
X18430540Y-6183620D02*
X18465540Y-6218620D01*
X18465540Y-6183620D02*
X18430540Y-6218620D01*
X16746760Y-4648120D02*
G75*
G03*
X16746760Y-4648120I-17500J0D01*
G01*
X16846760Y-4648120D02*
G75*
G03*
X16846760Y-4648120I-17500J0D01*
G01*
X17408400Y-6129500D02*
G75*
G03*
X17408400Y-6129500I-17500J0D01*
G01*
X17408400Y-6257000D02*
G75*
G03*
X17408400Y-6257000I-17500J0D01*
G01*
X17408400Y-6384500D02*
G75*
G03*
X17408400Y-6384500I-17500J0D01*
G01*
X17535900Y-6129500D02*
G75*
G03*
X17535900Y-6129500I-17500J0D01*
G01*
X17535900Y-6257000D02*
G75*
G03*
X17535900Y-6257000I-17500J0D01*
G01*
X17535900Y-6384500D02*
G75*
G03*
X17535900Y-6384500I-17500J0D01*
G01*
X17663400Y-6129500D02*
G75*
G03*
X17663400Y-6129500I-17500J0D01*
G01*
X17663400Y-6257000D02*
G75*
G03*
X17663400Y-6257000I-17500J0D01*
G01*
X17663400Y-6384500D02*
G75*
G03*
X17663400Y-6384500I-17500J0D01*
G01*
D13*
X14004570Y-5533930D02*
X14004570Y-5609930D01*
X13966570Y-5571930D02*
X14042570Y-5571930D01*
X14014210Y-6428690D02*
X14014210Y-6504690D01*
X13976210Y-6466690D02*
X14052210Y-6466690D01*
X14131570Y-5279930D02*
X14131570Y-5355930D01*
X14093570Y-5317930D02*
X14169570Y-5317930D01*
X14141210Y-6174690D02*
X14141210Y-6250690D01*
X14103210Y-6212690D02*
X14179210Y-6212690D01*
X14258570Y-5533930D02*
X14258570Y-5609930D01*
X14220570Y-5571930D02*
X14296570Y-5571930D01*
X14268210Y-6428690D02*
X14268210Y-6504690D01*
X14230210Y-6466690D02*
X14306210Y-6466690D01*
X14385570Y-5279930D02*
X14385570Y-5355930D01*
X14347570Y-5317930D02*
X14423570Y-5317930D01*
X14395210Y-6174690D02*
X14395210Y-6250690D01*
X14357210Y-6212690D02*
X14433210Y-6212690D01*
X14512570Y-5533930D02*
X14512570Y-5609930D01*
X14474570Y-5571930D02*
X14550570Y-5571930D01*
X14522210Y-6428690D02*
X14522210Y-6504690D01*
X14484210Y-6466690D02*
X14560210Y-6466690D01*
X14639570Y-5279930D02*
X14639570Y-5355930D01*
X14601570Y-5317930D02*
X14677570Y-5317930D01*
X14649210Y-6174690D02*
X14649210Y-6250690D01*
X14611210Y-6212690D02*
X14687210Y-6212690D01*
X14766570Y-5533930D02*
X14766570Y-5609930D01*
X14728570Y-5571930D02*
X14804570Y-5571930D01*
X14776210Y-6428690D02*
X14776210Y-6504690D01*
X14738210Y-6466690D02*
X14814210Y-6466690D01*
X14893570Y-5279930D02*
X14893570Y-5355930D01*
X14855570Y-5317930D02*
X14931570Y-5317930D01*
X14903210Y-6174690D02*
X14903210Y-6250690D01*
X14865210Y-6212690D02*
X14941210Y-6212690D01*
D14*
X13051884Y-6514124D02*
X13051884Y-6457555D01*
X12995315Y-6457555D01*
X12995315Y-6514124D01*
X13051884Y-6514124D01*
X13051884Y-6714124D02*
X13051884Y-6657555D01*
X12995315Y-6657555D01*
X12995315Y-6714124D01*
X13051884Y-6714124D01*
X13051884Y-6914124D02*
X13051884Y-6857555D01*
X12995315Y-6857555D01*
X12995315Y-6914124D01*
X13051884Y-6914124D01*
X13051884Y-7114124D02*
X13051884Y-7057555D01*
X12995315Y-7057555D01*
X12995315Y-7114124D01*
X13051884Y-7114124D01*
X18458545Y-7189524D02*
X18458545Y-7132955D01*
X18401976Y-7132955D01*
X18401976Y-7189524D01*
X18458545Y-7189524D01*
X18461085Y-5250285D02*
X18461085Y-5193716D01*
X18404516Y-5193716D01*
X18404516Y-5250285D01*
X18461085Y-5250285D01*
X18461085Y-5450285D02*
X18461085Y-5393716D01*
X18404516Y-5393716D01*
X18404516Y-5450285D01*
X18461085Y-5450285D01*
X18461085Y-5650284D02*
X18461085Y-5593715D01*
X18404516Y-5593715D01*
X18404516Y-5650284D01*
X18461085Y-5650284D01*
X18461085Y-5850284D02*
X18461085Y-5793715D01*
X18404516Y-5793715D01*
X18404516Y-5850284D01*
X18461085Y-5850284D01*
X18461085Y-6050284D02*
X18461085Y-5993715D01*
X18404516Y-5993715D01*
X18404516Y-6050284D01*
X18461085Y-6050284D01*
D15*
X12354580Y-6494960D02*
X12404580Y-6444960D01*
X12354580Y-6394960D01*
X12304580Y-6444960D01*
X12354580Y-6494960D01*
X15062220Y-5039540D02*
X15112220Y-4989540D01*
X15062220Y-4939540D01*
X15012220Y-4989540D01*
X15062220Y-5039540D01*
X17592060Y-4866820D02*
X17642060Y-4816820D01*
X17592060Y-4766820D01*
X17542060Y-4816820D01*
X17592060Y-4866820D01*
X18171317Y-7174677D02*
X18221317Y-7124677D01*
X18171317Y-7074677D01*
X18121317Y-7124677D01*
X18171317Y-7174677D01*
D16*
X15785140Y-5021540D02*
X15965140Y-5201540D01*
X15965140Y-5021540D02*
X15785140Y-5201540D01*
X15965140Y-5111540D02*
G75*
G03*
X15965140Y-5111540I-90000J0D01*
G01*
X16181140Y-5021540D02*
X16361140Y-5201540D01*
X16361140Y-5021540D02*
X16181140Y-5201540D01*
X16361140Y-5111540D02*
G75*
G03*
X16361140Y-5111540I-90000J0D01*
G01*
X17199800Y-5019000D02*
X17379800Y-5199000D01*
X17379800Y-5019000D02*
X17199800Y-5199000D01*
X17379800Y-5109000D02*
G75*
G03*
X17379800Y-5109000I-90000J0D01*
G01*
X17595800Y-5019000D02*
X17775800Y-5199000D01*
X17775800Y-5019000D02*
X17595800Y-5199000D01*
X17775800Y-5109000D02*
G75*
G03*
X17775800Y-5109000I-90000J0D01*
G01*
D11*
X12457877Y-7673184D02*
X12457877Y-7473184D01*
X12457877Y-7473184D02*
X12505496Y-7473184D01*
X12505496Y-7473184D02*
X12534067Y-7482708D01*
X12534067Y-7482708D02*
X12553115Y-7501755D01*
X12553115Y-7501755D02*
X12562639Y-7520803D01*
X12562639Y-7520803D02*
X12572162Y-7558898D01*
X12572162Y-7558898D02*
X12572162Y-7587469D01*
X12572162Y-7587469D02*
X12562639Y-7625565D01*
X12562639Y-7625565D02*
X12553115Y-7644612D01*
X12553115Y-7644612D02*
X12534067Y-7663660D01*
X12534067Y-7663660D02*
X12505496Y-7673184D01*
X12505496Y-7673184D02*
X12457877Y-7673184D01*
X12657877Y-7673184D02*
X12657877Y-7539850D01*
X12657877Y-7577946D02*
X12667401Y-7558898D01*
X12667401Y-7558898D02*
X12676924Y-7549374D01*
X12676924Y-7549374D02*
X12695972Y-7539850D01*
X12695972Y-7539850D02*
X12715020Y-7539850D01*
X12781686Y-7673184D02*
X12781686Y-7539850D01*
X12781686Y-7473184D02*
X12772162Y-7482708D01*
X12772162Y-7482708D02*
X12781686Y-7492231D01*
X12781686Y-7492231D02*
X12791210Y-7482708D01*
X12791210Y-7482708D02*
X12781686Y-7473184D01*
X12781686Y-7473184D02*
X12781686Y-7492231D01*
X12905496Y-7673184D02*
X12886448Y-7663660D01*
X12886448Y-7663660D02*
X12876924Y-7644612D01*
X12876924Y-7644612D02*
X12876924Y-7473184D01*
X13010258Y-7673184D02*
X12991210Y-7663660D01*
X12991210Y-7663660D02*
X12981686Y-7644612D01*
X12981686Y-7644612D02*
X12981686Y-7473184D01*
X13238829Y-7673184D02*
X13238829Y-7473184D01*
X13238829Y-7473184D02*
X13305496Y-7616041D01*
X13305496Y-7616041D02*
X13372162Y-7473184D01*
X13372162Y-7473184D02*
X13372162Y-7673184D01*
X13553115Y-7673184D02*
X13553115Y-7568422D01*
X13553115Y-7568422D02*
X13543591Y-7549374D01*
X13543591Y-7549374D02*
X13524543Y-7539850D01*
X13524543Y-7539850D02*
X13486448Y-7539850D01*
X13486448Y-7539850D02*
X13467401Y-7549374D01*
X13553115Y-7663660D02*
X13534067Y-7673184D01*
X13534067Y-7673184D02*
X13486448Y-7673184D01*
X13486448Y-7673184D02*
X13467401Y-7663660D01*
X13467401Y-7663660D02*
X13457877Y-7644612D01*
X13457877Y-7644612D02*
X13457877Y-7625565D01*
X13457877Y-7625565D02*
X13467401Y-7606517D01*
X13467401Y-7606517D02*
X13486448Y-7596993D01*
X13486448Y-7596993D02*
X13534067Y-7596993D01*
X13534067Y-7596993D02*
X13553115Y-7587469D01*
X13648353Y-7539850D02*
X13648353Y-7739850D01*
X13648353Y-7549374D02*
X13667401Y-7539850D01*
X13667401Y-7539850D02*
X13705496Y-7539850D01*
X13705496Y-7539850D02*
X13724543Y-7549374D01*
X13724543Y-7549374D02*
X13734067Y-7558898D01*
X13734067Y-7558898D02*
X13743591Y-7577946D01*
X13743591Y-7577946D02*
X13743591Y-7635088D01*
X13743591Y-7635088D02*
X13734067Y-7654136D01*
X13734067Y-7654136D02*
X13724543Y-7663660D01*
X13724543Y-7663660D02*
X13705496Y-7673184D01*
X13705496Y-7673184D02*
X13667401Y-7673184D01*
X13667401Y-7673184D02*
X13648353Y-7663660D01*
X13829305Y-7654136D02*
X13838829Y-7663660D01*
X13838829Y-7663660D02*
X13829305Y-7673184D01*
X13829305Y-7673184D02*
X13819782Y-7663660D01*
X13819782Y-7663660D02*
X13829305Y-7654136D01*
X13829305Y-7654136D02*
X13829305Y-7673184D01*
X13829305Y-7549374D02*
X13838829Y-7558898D01*
X13838829Y-7558898D02*
X13829305Y-7568422D01*
X13829305Y-7568422D02*
X13819782Y-7558898D01*
X13819782Y-7558898D02*
X13829305Y-7549374D01*
X13829305Y-7549374D02*
X13829305Y-7568422D01*
D12*
X12162100Y-7984200D02*
X12197100Y-8019200D01*
X12197100Y-7984200D02*
X12162100Y-8019200D01*
D11*
X12495972Y-7893184D02*
X12515020Y-7893184D01*
X12515020Y-7893184D02*
X12534067Y-7902708D01*
X12534067Y-7902708D02*
X12543591Y-7912231D01*
X12543591Y-7912231D02*
X12553115Y-7931279D01*
X12553115Y-7931279D02*
X12562639Y-7969374D01*
X12562639Y-7969374D02*
X12562639Y-8016993D01*
X12562639Y-8016993D02*
X12553115Y-8055088D01*
X12553115Y-8055088D02*
X12543591Y-8074136D01*
X12543591Y-8074136D02*
X12534067Y-8083660D01*
X12534067Y-8083660D02*
X12515020Y-8093184D01*
X12515020Y-8093184D02*
X12495972Y-8093184D01*
X12495972Y-8093184D02*
X12476924Y-8083660D01*
X12476924Y-8083660D02*
X12467401Y-8074136D01*
X12467401Y-8074136D02*
X12457877Y-8055088D01*
X12457877Y-8055088D02*
X12448353Y-8016993D01*
X12448353Y-8016993D02*
X12448353Y-7969374D01*
X12448353Y-7969374D02*
X12457877Y-7931279D01*
X12457877Y-7931279D02*
X12467401Y-7912231D01*
X12467401Y-7912231D02*
X12476924Y-7902708D01*
X12476924Y-7902708D02*
X12495972Y-7893184D01*
X12648353Y-8074136D02*
X12657877Y-8083660D01*
X12657877Y-8083660D02*
X12648353Y-8093184D01*
X12648353Y-8093184D02*
X12638829Y-8083660D01*
X12638829Y-8083660D02*
X12648353Y-8074136D01*
X12648353Y-8074136D02*
X12648353Y-8093184D01*
X12724543Y-7893184D02*
X12848353Y-7893184D01*
X12848353Y-7893184D02*
X12781686Y-7969374D01*
X12781686Y-7969374D02*
X12810258Y-7969374D01*
X12810258Y-7969374D02*
X12829305Y-7978898D01*
X12829305Y-7978898D02*
X12838829Y-7988422D01*
X12838829Y-7988422D02*
X12848353Y-8007469D01*
X12848353Y-8007469D02*
X12848353Y-8055088D01*
X12848353Y-8055088D02*
X12838829Y-8074136D01*
X12838829Y-8074136D02*
X12829305Y-8083660D01*
X12829305Y-8083660D02*
X12810258Y-8093184D01*
X12810258Y-8093184D02*
X12753115Y-8093184D01*
X12753115Y-8093184D02*
X12734067Y-8083660D01*
X12734067Y-8083660D02*
X12724543Y-8074136D01*
X13029305Y-7893184D02*
X12934067Y-7893184D01*
X12934067Y-7893184D02*
X12924543Y-7988422D01*
X12924543Y-7988422D02*
X12934067Y-7978898D01*
X12934067Y-7978898D02*
X12953115Y-7969374D01*
X12953115Y-7969374D02*
X13000734Y-7969374D01*
X13000734Y-7969374D02*
X13019782Y-7978898D01*
X13019782Y-7978898D02*
X13029305Y-7988422D01*
X13029305Y-7988422D02*
X13038829Y-8007469D01*
X13038829Y-8007469D02*
X13038829Y-8055088D01*
X13038829Y-8055088D02*
X13029305Y-8074136D01*
X13029305Y-8074136D02*
X13019782Y-8083660D01*
X13019782Y-8083660D02*
X13000734Y-8093184D01*
X13000734Y-8093184D02*
X12953115Y-8093184D01*
X12953115Y-8093184D02*
X12934067Y-8083660D01*
X12934067Y-8083660D02*
X12924543Y-8074136D01*
X13162639Y-7893184D02*
X13181686Y-7893184D01*
X13181686Y-7893184D02*
X13200734Y-7902708D01*
X13200734Y-7902708D02*
X13210258Y-7912231D01*
X13210258Y-7912231D02*
X13219782Y-7931279D01*
X13219782Y-7931279D02*
X13229305Y-7969374D01*
X13229305Y-7969374D02*
X13229305Y-8016993D01*
X13229305Y-8016993D02*
X13219782Y-8055088D01*
X13219782Y-8055088D02*
X13210258Y-8074136D01*
X13210258Y-8074136D02*
X13200734Y-8083660D01*
X13200734Y-8083660D02*
X13181686Y-8093184D01*
X13181686Y-8093184D02*
X13162639Y-8093184D01*
X13162639Y-8093184D02*
X13143591Y-8083660D01*
X13143591Y-8083660D02*
X13134067Y-8074136D01*
X13134067Y-8074136D02*
X13124543Y-8055088D01*
X13124543Y-8055088D02*
X13115020Y-8016993D01*
X13115020Y-8016993D02*
X13115020Y-7969374D01*
X13115020Y-7969374D02*
X13124543Y-7931279D01*
X13124543Y-7931279D02*
X13134067Y-7912231D01*
X13134067Y-7912231D02*
X13143591Y-7902708D01*
X13143591Y-7902708D02*
X13162639Y-7893184D01*
X13315020Y-8093184D02*
X13315020Y-7959850D01*
X13315020Y-7978898D02*
X13324543Y-7969374D01*
X13324543Y-7969374D02*
X13343591Y-7959850D01*
X13343591Y-7959850D02*
X13372163Y-7959850D01*
X13372163Y-7959850D02*
X13391210Y-7969374D01*
X13391210Y-7969374D02*
X13400734Y-7988422D01*
X13400734Y-7988422D02*
X13400734Y-8093184D01*
X13400734Y-7988422D02*
X13410258Y-7969374D01*
X13410258Y-7969374D02*
X13429305Y-7959850D01*
X13429305Y-7959850D02*
X13457877Y-7959850D01*
X13457877Y-7959850D02*
X13476924Y-7969374D01*
X13476924Y-7969374D02*
X13486448Y-7988422D01*
X13486448Y-7988422D02*
X13486448Y-8093184D01*
X13581686Y-8093184D02*
X13581686Y-7959850D01*
X13581686Y-7978898D02*
X13591210Y-7969374D01*
X13591210Y-7969374D02*
X13610258Y-7959850D01*
X13610258Y-7959850D02*
X13638829Y-7959850D01*
X13638829Y-7959850D02*
X13657877Y-7969374D01*
X13657877Y-7969374D02*
X13667401Y-7988422D01*
X13667401Y-7988422D02*
X13667401Y-8093184D01*
X13667401Y-7988422D02*
X13676924Y-7969374D01*
X13676924Y-7969374D02*
X13695972Y-7959850D01*
X13695972Y-7959850D02*
X13724543Y-7959850D01*
X13724543Y-7959850D02*
X13743591Y-7969374D01*
X13743591Y-7969374D02*
X13753115Y-7988422D01*
X13753115Y-7988422D02*
X13753115Y-8093184D01*
X14143591Y-7883660D02*
X13972163Y-8140803D01*
X14400734Y-7893184D02*
X14419782Y-7893184D01*
X14419782Y-7893184D02*
X14438829Y-7902708D01*
X14438829Y-7902708D02*
X14448353Y-7912231D01*
X14448353Y-7912231D02*
X14457877Y-7931279D01*
X14457877Y-7931279D02*
X14467401Y-7969374D01*
X14467401Y-7969374D02*
X14467401Y-8016993D01*
X14467401Y-8016993D02*
X14457877Y-8055088D01*
X14457877Y-8055088D02*
X14448353Y-8074136D01*
X14448353Y-8074136D02*
X14438829Y-8083660D01*
X14438829Y-8083660D02*
X14419782Y-8093184D01*
X14419782Y-8093184D02*
X14400734Y-8093184D01*
X14400734Y-8093184D02*
X14381686Y-8083660D01*
X14381686Y-8083660D02*
X14372163Y-8074136D01*
X14372163Y-8074136D02*
X14362639Y-8055088D01*
X14362639Y-8055088D02*
X14353115Y-8016993D01*
X14353115Y-8016993D02*
X14353115Y-7969374D01*
X14353115Y-7969374D02*
X14362639Y-7931279D01*
X14362639Y-7931279D02*
X14372163Y-7912231D01*
X14372163Y-7912231D02*
X14381686Y-7902708D01*
X14381686Y-7902708D02*
X14400734Y-7893184D01*
X14553115Y-8074136D02*
X14562639Y-8083660D01*
X14562639Y-8083660D02*
X14553115Y-8093184D01*
X14553115Y-8093184D02*
X14543591Y-8083660D01*
X14543591Y-8083660D02*
X14553115Y-8074136D01*
X14553115Y-8074136D02*
X14553115Y-8093184D01*
X14686448Y-7893184D02*
X14705496Y-7893184D01*
X14705496Y-7893184D02*
X14724544Y-7902708D01*
X14724544Y-7902708D02*
X14734067Y-7912231D01*
X14734067Y-7912231D02*
X14743591Y-7931279D01*
X14743591Y-7931279D02*
X14753115Y-7969374D01*
X14753115Y-7969374D02*
X14753115Y-8016993D01*
X14753115Y-8016993D02*
X14743591Y-8055088D01*
X14743591Y-8055088D02*
X14734067Y-8074136D01*
X14734067Y-8074136D02*
X14724544Y-8083660D01*
X14724544Y-8083660D02*
X14705496Y-8093184D01*
X14705496Y-8093184D02*
X14686448Y-8093184D01*
X14686448Y-8093184D02*
X14667401Y-8083660D01*
X14667401Y-8083660D02*
X14657877Y-8074136D01*
X14657877Y-8074136D02*
X14648353Y-8055088D01*
X14648353Y-8055088D02*
X14638829Y-8016993D01*
X14638829Y-8016993D02*
X14638829Y-7969374D01*
X14638829Y-7969374D02*
X14648353Y-7931279D01*
X14648353Y-7931279D02*
X14657877Y-7912231D01*
X14657877Y-7912231D02*
X14667401Y-7902708D01*
X14667401Y-7902708D02*
X14686448Y-7893184D01*
X14943591Y-8093184D02*
X14829306Y-8093184D01*
X14886448Y-8093184D02*
X14886448Y-7893184D01*
X14886448Y-7893184D02*
X14867401Y-7921755D01*
X14867401Y-7921755D02*
X14848353Y-7940803D01*
X14848353Y-7940803D02*
X14829306Y-7950327D01*
X15010258Y-7893184D02*
X15134067Y-7893184D01*
X15134067Y-7893184D02*
X15067401Y-7969374D01*
X15067401Y-7969374D02*
X15095972Y-7969374D01*
X15095972Y-7969374D02*
X15115020Y-7978898D01*
X15115020Y-7978898D02*
X15124544Y-7988422D01*
X15124544Y-7988422D02*
X15134067Y-8007469D01*
X15134067Y-8007469D02*
X15134067Y-8055088D01*
X15134067Y-8055088D02*
X15124544Y-8074136D01*
X15124544Y-8074136D02*
X15115020Y-8083660D01*
X15115020Y-8083660D02*
X15095972Y-8093184D01*
X15095972Y-8093184D02*
X15038829Y-8093184D01*
X15038829Y-8093184D02*
X15019782Y-8083660D01*
X15019782Y-8083660D02*
X15010258Y-8074136D01*
X15248353Y-7978898D02*
X15229306Y-7969374D01*
X15229306Y-7969374D02*
X15219782Y-7959850D01*
X15219782Y-7959850D02*
X15210258Y-7940803D01*
X15210258Y-7940803D02*
X15210258Y-7931279D01*
X15210258Y-7931279D02*
X15219782Y-7912231D01*
X15219782Y-7912231D02*
X15229306Y-7902708D01*
X15229306Y-7902708D02*
X15248353Y-7893184D01*
X15248353Y-7893184D02*
X15286448Y-7893184D01*
X15286448Y-7893184D02*
X15305496Y-7902708D01*
X15305496Y-7902708D02*
X15315020Y-7912231D01*
X15315020Y-7912231D02*
X15324544Y-7931279D01*
X15324544Y-7931279D02*
X15324544Y-7940803D01*
X15324544Y-7940803D02*
X15315020Y-7959850D01*
X15315020Y-7959850D02*
X15305496Y-7969374D01*
X15305496Y-7969374D02*
X15286448Y-7978898D01*
X15286448Y-7978898D02*
X15248353Y-7978898D01*
X15248353Y-7978898D02*
X15229306Y-7988422D01*
X15229306Y-7988422D02*
X15219782Y-7997946D01*
X15219782Y-7997946D02*
X15210258Y-8016993D01*
X15210258Y-8016993D02*
X15210258Y-8055088D01*
X15210258Y-8055088D02*
X15219782Y-8074136D01*
X15219782Y-8074136D02*
X15229306Y-8083660D01*
X15229306Y-8083660D02*
X15248353Y-8093184D01*
X15248353Y-8093184D02*
X15286448Y-8093184D01*
X15286448Y-8093184D02*
X15305496Y-8083660D01*
X15305496Y-8083660D02*
X15315020Y-8074136D01*
X15315020Y-8074136D02*
X15324544Y-8055088D01*
X15324544Y-8055088D02*
X15324544Y-8016993D01*
X15324544Y-8016993D02*
X15315020Y-7997946D01*
X15315020Y-7997946D02*
X15305496Y-7988422D01*
X15305496Y-7988422D02*
X15286448Y-7978898D01*
X15400734Y-7893184D02*
X15400734Y-7931279D01*
X15476925Y-7893184D02*
X15476925Y-7931279D01*
X15772163Y-8169374D02*
X15762639Y-8159850D01*
X15762639Y-8159850D02*
X15743591Y-8131279D01*
X15743591Y-8131279D02*
X15734068Y-8112231D01*
X15734068Y-8112231D02*
X15724544Y-8083660D01*
X15724544Y-8083660D02*
X15715020Y-8036041D01*
X15715020Y-8036041D02*
X15715020Y-7997946D01*
X15715020Y-7997946D02*
X15724544Y-7950327D01*
X15724544Y-7950327D02*
X15734068Y-7921755D01*
X15734068Y-7921755D02*
X15743591Y-7902708D01*
X15743591Y-7902708D02*
X15762639Y-7874136D01*
X15762639Y-7874136D02*
X15772163Y-7864612D01*
X15953115Y-8093184D02*
X15838829Y-8093184D01*
X15895972Y-8093184D02*
X15895972Y-7893184D01*
X15895972Y-7893184D02*
X15876925Y-7921755D01*
X15876925Y-7921755D02*
X15857877Y-7940803D01*
X15857877Y-7940803D02*
X15838829Y-7950327D01*
X16019782Y-7893184D02*
X16153115Y-7893184D01*
X16153115Y-7893184D02*
X16067401Y-8093184D01*
X16267401Y-7893184D02*
X16286449Y-7893184D01*
X16286449Y-7893184D02*
X16305496Y-7902708D01*
X16305496Y-7902708D02*
X16315020Y-7912231D01*
X16315020Y-7912231D02*
X16324544Y-7931279D01*
X16324544Y-7931279D02*
X16334068Y-7969374D01*
X16334068Y-7969374D02*
X16334068Y-8016993D01*
X16334068Y-8016993D02*
X16324544Y-8055088D01*
X16324544Y-8055088D02*
X16315020Y-8074136D01*
X16315020Y-8074136D02*
X16305496Y-8083660D01*
X16305496Y-8083660D02*
X16286449Y-8093184D01*
X16286449Y-8093184D02*
X16267401Y-8093184D01*
X16267401Y-8093184D02*
X16248353Y-8083660D01*
X16248353Y-8083660D02*
X16238829Y-8074136D01*
X16238829Y-8074136D02*
X16229306Y-8055088D01*
X16229306Y-8055088D02*
X16219782Y-8016993D01*
X16219782Y-8016993D02*
X16219782Y-7969374D01*
X16219782Y-7969374D02*
X16229306Y-7931279D01*
X16229306Y-7931279D02*
X16238829Y-7912231D01*
X16238829Y-7912231D02*
X16248353Y-7902708D01*
X16248353Y-7902708D02*
X16267401Y-7893184D01*
X16572163Y-8093184D02*
X16572163Y-7893184D01*
X16657877Y-8093184D02*
X16657877Y-7988422D01*
X16657877Y-7988422D02*
X16648353Y-7969374D01*
X16648353Y-7969374D02*
X16629306Y-7959850D01*
X16629306Y-7959850D02*
X16600734Y-7959850D01*
X16600734Y-7959850D02*
X16581687Y-7969374D01*
X16581687Y-7969374D02*
X16572163Y-7978898D01*
X16781687Y-8093184D02*
X16762639Y-8083660D01*
X16762639Y-8083660D02*
X16753115Y-8074136D01*
X16753115Y-8074136D02*
X16743591Y-8055088D01*
X16743591Y-8055088D02*
X16743591Y-7997946D01*
X16743591Y-7997946D02*
X16753115Y-7978898D01*
X16753115Y-7978898D02*
X16762639Y-7969374D01*
X16762639Y-7969374D02*
X16781687Y-7959850D01*
X16781687Y-7959850D02*
X16810258Y-7959850D01*
X16810258Y-7959850D02*
X16829306Y-7969374D01*
X16829306Y-7969374D02*
X16838830Y-7978898D01*
X16838830Y-7978898D02*
X16848353Y-7997946D01*
X16848353Y-7997946D02*
X16848353Y-8055088D01*
X16848353Y-8055088D02*
X16838830Y-8074136D01*
X16838830Y-8074136D02*
X16829306Y-8083660D01*
X16829306Y-8083660D02*
X16810258Y-8093184D01*
X16810258Y-8093184D02*
X16781687Y-8093184D01*
X16962639Y-8093184D02*
X16943592Y-8083660D01*
X16943592Y-8083660D02*
X16934068Y-8064612D01*
X16934068Y-8064612D02*
X16934068Y-7893184D01*
X17115020Y-8083660D02*
X17095973Y-8093184D01*
X17095973Y-8093184D02*
X17057877Y-8093184D01*
X17057877Y-8093184D02*
X17038830Y-8083660D01*
X17038830Y-8083660D02*
X17029306Y-8064612D01*
X17029306Y-8064612D02*
X17029306Y-7988422D01*
X17029306Y-7988422D02*
X17038830Y-7969374D01*
X17038830Y-7969374D02*
X17057877Y-7959850D01*
X17057877Y-7959850D02*
X17095973Y-7959850D01*
X17095973Y-7959850D02*
X17115020Y-7969374D01*
X17115020Y-7969374D02*
X17124544Y-7988422D01*
X17124544Y-7988422D02*
X17124544Y-8007469D01*
X17124544Y-8007469D02*
X17029306Y-8026517D01*
X17200734Y-8083660D02*
X17219782Y-8093184D01*
X17219782Y-8093184D02*
X17257877Y-8093184D01*
X17257877Y-8093184D02*
X17276925Y-8083660D01*
X17276925Y-8083660D02*
X17286449Y-8064612D01*
X17286449Y-8064612D02*
X17286449Y-8055088D01*
X17286449Y-8055088D02*
X17276925Y-8036041D01*
X17276925Y-8036041D02*
X17257877Y-8026517D01*
X17257877Y-8026517D02*
X17229306Y-8026517D01*
X17229306Y-8026517D02*
X17210258Y-8016993D01*
X17210258Y-8016993D02*
X17200734Y-7997946D01*
X17200734Y-7997946D02*
X17200734Y-7988422D01*
X17200734Y-7988422D02*
X17210258Y-7969374D01*
X17210258Y-7969374D02*
X17229306Y-7959850D01*
X17229306Y-7959850D02*
X17257877Y-7959850D01*
X17257877Y-7959850D02*
X17276925Y-7969374D01*
X17353115Y-8169374D02*
X17362639Y-8159850D01*
X17362639Y-8159850D02*
X17381687Y-8131279D01*
X17381687Y-8131279D02*
X17391211Y-8112231D01*
X17391211Y-8112231D02*
X17400734Y-8083660D01*
X17400734Y-8083660D02*
X17410258Y-8036041D01*
X17410258Y-8036041D02*
X17410258Y-7997946D01*
X17410258Y-7997946D02*
X17400734Y-7950327D01*
X17400734Y-7950327D02*
X17391211Y-7921755D01*
X17391211Y-7921755D02*
X17381687Y-7902708D01*
X17381687Y-7902708D02*
X17362639Y-7874136D01*
X17362639Y-7874136D02*
X17353115Y-7864612D01*
D12*
X12197100Y-8265700D02*
G75*
G03*
X12197100Y-8265700I-17500J0D01*
G01*
D11*
X12495972Y-8157184D02*
X12515020Y-8157184D01*
X12515020Y-8157184D02*
X12534067Y-8166708D01*
X12534067Y-8166708D02*
X12543591Y-8176231D01*
X12543591Y-8176231D02*
X12553115Y-8195279D01*
X12553115Y-8195279D02*
X12562639Y-8233374D01*
X12562639Y-8233374D02*
X12562639Y-8280993D01*
X12562639Y-8280993D02*
X12553115Y-8319088D01*
X12553115Y-8319088D02*
X12543591Y-8338136D01*
X12543591Y-8338136D02*
X12534067Y-8347660D01*
X12534067Y-8347660D02*
X12515020Y-8357184D01*
X12515020Y-8357184D02*
X12495972Y-8357184D01*
X12495972Y-8357184D02*
X12476924Y-8347660D01*
X12476924Y-8347660D02*
X12467401Y-8338136D01*
X12467401Y-8338136D02*
X12457877Y-8319088D01*
X12457877Y-8319088D02*
X12448353Y-8280993D01*
X12448353Y-8280993D02*
X12448353Y-8233374D01*
X12448353Y-8233374D02*
X12457877Y-8195279D01*
X12457877Y-8195279D02*
X12467401Y-8176231D01*
X12467401Y-8176231D02*
X12476924Y-8166708D01*
X12476924Y-8166708D02*
X12495972Y-8157184D01*
X12648353Y-8338136D02*
X12657877Y-8347660D01*
X12657877Y-8347660D02*
X12648353Y-8357184D01*
X12648353Y-8357184D02*
X12638829Y-8347660D01*
X12638829Y-8347660D02*
X12648353Y-8338136D01*
X12648353Y-8338136D02*
X12648353Y-8357184D01*
X12724543Y-8157184D02*
X12848353Y-8157184D01*
X12848353Y-8157184D02*
X12781686Y-8233374D01*
X12781686Y-8233374D02*
X12810258Y-8233374D01*
X12810258Y-8233374D02*
X12829305Y-8242898D01*
X12829305Y-8242898D02*
X12838829Y-8252422D01*
X12838829Y-8252422D02*
X12848353Y-8271469D01*
X12848353Y-8271469D02*
X12848353Y-8319088D01*
X12848353Y-8319088D02*
X12838829Y-8338136D01*
X12838829Y-8338136D02*
X12829305Y-8347660D01*
X12829305Y-8347660D02*
X12810258Y-8357184D01*
X12810258Y-8357184D02*
X12753115Y-8357184D01*
X12753115Y-8357184D02*
X12734067Y-8347660D01*
X12734067Y-8347660D02*
X12724543Y-8338136D01*
X13029305Y-8157184D02*
X12934067Y-8157184D01*
X12934067Y-8157184D02*
X12924543Y-8252422D01*
X12924543Y-8252422D02*
X12934067Y-8242898D01*
X12934067Y-8242898D02*
X12953115Y-8233374D01*
X12953115Y-8233374D02*
X13000734Y-8233374D01*
X13000734Y-8233374D02*
X13019782Y-8242898D01*
X13019782Y-8242898D02*
X13029305Y-8252422D01*
X13029305Y-8252422D02*
X13038829Y-8271469D01*
X13038829Y-8271469D02*
X13038829Y-8319088D01*
X13038829Y-8319088D02*
X13029305Y-8338136D01*
X13029305Y-8338136D02*
X13019782Y-8347660D01*
X13019782Y-8347660D02*
X13000734Y-8357184D01*
X13000734Y-8357184D02*
X12953115Y-8357184D01*
X12953115Y-8357184D02*
X12934067Y-8347660D01*
X12934067Y-8347660D02*
X12924543Y-8338136D01*
X13162639Y-8157184D02*
X13181686Y-8157184D01*
X13181686Y-8157184D02*
X13200734Y-8166708D01*
X13200734Y-8166708D02*
X13210258Y-8176231D01*
X13210258Y-8176231D02*
X13219782Y-8195279D01*
X13219782Y-8195279D02*
X13229305Y-8233374D01*
X13229305Y-8233374D02*
X13229305Y-8280993D01*
X13229305Y-8280993D02*
X13219782Y-8319088D01*
X13219782Y-8319088D02*
X13210258Y-8338136D01*
X13210258Y-8338136D02*
X13200734Y-8347660D01*
X13200734Y-8347660D02*
X13181686Y-8357184D01*
X13181686Y-8357184D02*
X13162639Y-8357184D01*
X13162639Y-8357184D02*
X13143591Y-8347660D01*
X13143591Y-8347660D02*
X13134067Y-8338136D01*
X13134067Y-8338136D02*
X13124543Y-8319088D01*
X13124543Y-8319088D02*
X13115020Y-8280993D01*
X13115020Y-8280993D02*
X13115020Y-8233374D01*
X13115020Y-8233374D02*
X13124543Y-8195279D01*
X13124543Y-8195279D02*
X13134067Y-8176231D01*
X13134067Y-8176231D02*
X13143591Y-8166708D01*
X13143591Y-8166708D02*
X13162639Y-8157184D01*
X13315020Y-8357184D02*
X13315020Y-8223850D01*
X13315020Y-8242898D02*
X13324543Y-8233374D01*
X13324543Y-8233374D02*
X13343591Y-8223850D01*
X13343591Y-8223850D02*
X13372163Y-8223850D01*
X13372163Y-8223850D02*
X13391210Y-8233374D01*
X13391210Y-8233374D02*
X13400734Y-8252422D01*
X13400734Y-8252422D02*
X13400734Y-8357184D01*
X13400734Y-8252422D02*
X13410258Y-8233374D01*
X13410258Y-8233374D02*
X13429305Y-8223850D01*
X13429305Y-8223850D02*
X13457877Y-8223850D01*
X13457877Y-8223850D02*
X13476924Y-8233374D01*
X13476924Y-8233374D02*
X13486448Y-8252422D01*
X13486448Y-8252422D02*
X13486448Y-8357184D01*
X13581686Y-8357184D02*
X13581686Y-8223850D01*
X13581686Y-8242898D02*
X13591210Y-8233374D01*
X13591210Y-8233374D02*
X13610258Y-8223850D01*
X13610258Y-8223850D02*
X13638829Y-8223850D01*
X13638829Y-8223850D02*
X13657877Y-8233374D01*
X13657877Y-8233374D02*
X13667401Y-8252422D01*
X13667401Y-8252422D02*
X13667401Y-8357184D01*
X13667401Y-8252422D02*
X13676924Y-8233374D01*
X13676924Y-8233374D02*
X13695972Y-8223850D01*
X13695972Y-8223850D02*
X13724543Y-8223850D01*
X13724543Y-8223850D02*
X13743591Y-8233374D01*
X13743591Y-8233374D02*
X13753115Y-8252422D01*
X13753115Y-8252422D02*
X13753115Y-8357184D01*
X14143591Y-8147660D02*
X13972163Y-8404803D01*
X14400734Y-8157184D02*
X14419782Y-8157184D01*
X14419782Y-8157184D02*
X14438829Y-8166708D01*
X14438829Y-8166708D02*
X14448353Y-8176231D01*
X14448353Y-8176231D02*
X14457877Y-8195279D01*
X14457877Y-8195279D02*
X14467401Y-8233374D01*
X14467401Y-8233374D02*
X14467401Y-8280993D01*
X14467401Y-8280993D02*
X14457877Y-8319088D01*
X14457877Y-8319088D02*
X14448353Y-8338136D01*
X14448353Y-8338136D02*
X14438829Y-8347660D01*
X14438829Y-8347660D02*
X14419782Y-8357184D01*
X14419782Y-8357184D02*
X14400734Y-8357184D01*
X14400734Y-8357184D02*
X14381686Y-8347660D01*
X14381686Y-8347660D02*
X14372163Y-8338136D01*
X14372163Y-8338136D02*
X14362639Y-8319088D01*
X14362639Y-8319088D02*
X14353115Y-8280993D01*
X14353115Y-8280993D02*
X14353115Y-8233374D01*
X14353115Y-8233374D02*
X14362639Y-8195279D01*
X14362639Y-8195279D02*
X14372163Y-8176231D01*
X14372163Y-8176231D02*
X14381686Y-8166708D01*
X14381686Y-8166708D02*
X14400734Y-8157184D01*
X14553115Y-8338136D02*
X14562639Y-8347660D01*
X14562639Y-8347660D02*
X14553115Y-8357184D01*
X14553115Y-8357184D02*
X14543591Y-8347660D01*
X14543591Y-8347660D02*
X14553115Y-8338136D01*
X14553115Y-8338136D02*
X14553115Y-8357184D01*
X14686448Y-8157184D02*
X14705496Y-8157184D01*
X14705496Y-8157184D02*
X14724544Y-8166708D01*
X14724544Y-8166708D02*
X14734067Y-8176231D01*
X14734067Y-8176231D02*
X14743591Y-8195279D01*
X14743591Y-8195279D02*
X14753115Y-8233374D01*
X14753115Y-8233374D02*
X14753115Y-8280993D01*
X14753115Y-8280993D02*
X14743591Y-8319088D01*
X14743591Y-8319088D02*
X14734067Y-8338136D01*
X14734067Y-8338136D02*
X14724544Y-8347660D01*
X14724544Y-8347660D02*
X14705496Y-8357184D01*
X14705496Y-8357184D02*
X14686448Y-8357184D01*
X14686448Y-8357184D02*
X14667401Y-8347660D01*
X14667401Y-8347660D02*
X14657877Y-8338136D01*
X14657877Y-8338136D02*
X14648353Y-8319088D01*
X14648353Y-8319088D02*
X14638829Y-8280993D01*
X14638829Y-8280993D02*
X14638829Y-8233374D01*
X14638829Y-8233374D02*
X14648353Y-8195279D01*
X14648353Y-8195279D02*
X14657877Y-8176231D01*
X14657877Y-8176231D02*
X14667401Y-8166708D01*
X14667401Y-8166708D02*
X14686448Y-8157184D01*
X14943591Y-8357184D02*
X14829306Y-8357184D01*
X14886448Y-8357184D02*
X14886448Y-8157184D01*
X14886448Y-8157184D02*
X14867401Y-8185755D01*
X14867401Y-8185755D02*
X14848353Y-8204803D01*
X14848353Y-8204803D02*
X14829306Y-8214327D01*
X15010258Y-8157184D02*
X15134067Y-8157184D01*
X15134067Y-8157184D02*
X15067401Y-8233374D01*
X15067401Y-8233374D02*
X15095972Y-8233374D01*
X15095972Y-8233374D02*
X15115020Y-8242898D01*
X15115020Y-8242898D02*
X15124544Y-8252422D01*
X15124544Y-8252422D02*
X15134067Y-8271469D01*
X15134067Y-8271469D02*
X15134067Y-8319088D01*
X15134067Y-8319088D02*
X15124544Y-8338136D01*
X15124544Y-8338136D02*
X15115020Y-8347660D01*
X15115020Y-8347660D02*
X15095972Y-8357184D01*
X15095972Y-8357184D02*
X15038829Y-8357184D01*
X15038829Y-8357184D02*
X15019782Y-8347660D01*
X15019782Y-8347660D02*
X15010258Y-8338136D01*
X15248353Y-8242898D02*
X15229306Y-8233374D01*
X15229306Y-8233374D02*
X15219782Y-8223850D01*
X15219782Y-8223850D02*
X15210258Y-8204803D01*
X15210258Y-8204803D02*
X15210258Y-8195279D01*
X15210258Y-8195279D02*
X15219782Y-8176231D01*
X15219782Y-8176231D02*
X15229306Y-8166708D01*
X15229306Y-8166708D02*
X15248353Y-8157184D01*
X15248353Y-8157184D02*
X15286448Y-8157184D01*
X15286448Y-8157184D02*
X15305496Y-8166708D01*
X15305496Y-8166708D02*
X15315020Y-8176231D01*
X15315020Y-8176231D02*
X15324544Y-8195279D01*
X15324544Y-8195279D02*
X15324544Y-8204803D01*
X15324544Y-8204803D02*
X15315020Y-8223850D01*
X15315020Y-8223850D02*
X15305496Y-8233374D01*
X15305496Y-8233374D02*
X15286448Y-8242898D01*
X15286448Y-8242898D02*
X15248353Y-8242898D01*
X15248353Y-8242898D02*
X15229306Y-8252422D01*
X15229306Y-8252422D02*
X15219782Y-8261946D01*
X15219782Y-8261946D02*
X15210258Y-8280993D01*
X15210258Y-8280993D02*
X15210258Y-8319088D01*
X15210258Y-8319088D02*
X15219782Y-8338136D01*
X15219782Y-8338136D02*
X15229306Y-8347660D01*
X15229306Y-8347660D02*
X15248353Y-8357184D01*
X15248353Y-8357184D02*
X15286448Y-8357184D01*
X15286448Y-8357184D02*
X15305496Y-8347660D01*
X15305496Y-8347660D02*
X15315020Y-8338136D01*
X15315020Y-8338136D02*
X15324544Y-8319088D01*
X15324544Y-8319088D02*
X15324544Y-8280993D01*
X15324544Y-8280993D02*
X15315020Y-8261946D01*
X15315020Y-8261946D02*
X15305496Y-8252422D01*
X15305496Y-8252422D02*
X15286448Y-8242898D01*
X15400734Y-8157184D02*
X15400734Y-8195279D01*
X15476925Y-8157184D02*
X15476925Y-8195279D01*
X15772163Y-8433374D02*
X15762639Y-8423850D01*
X15762639Y-8423850D02*
X15743591Y-8395279D01*
X15743591Y-8395279D02*
X15734068Y-8376231D01*
X15734068Y-8376231D02*
X15724544Y-8347660D01*
X15724544Y-8347660D02*
X15715020Y-8300041D01*
X15715020Y-8300041D02*
X15715020Y-8261946D01*
X15715020Y-8261946D02*
X15724544Y-8214327D01*
X15724544Y-8214327D02*
X15734068Y-8185755D01*
X15734068Y-8185755D02*
X15743591Y-8166708D01*
X15743591Y-8166708D02*
X15762639Y-8138136D01*
X15762639Y-8138136D02*
X15772163Y-8128612D01*
X15953115Y-8357184D02*
X15838829Y-8357184D01*
X15895972Y-8357184D02*
X15895972Y-8157184D01*
X15895972Y-8157184D02*
X15876925Y-8185755D01*
X15876925Y-8185755D02*
X15857877Y-8204803D01*
X15857877Y-8204803D02*
X15838829Y-8214327D01*
X16143591Y-8357184D02*
X16029306Y-8357184D01*
X16086448Y-8357184D02*
X16086448Y-8157184D01*
X16086448Y-8157184D02*
X16067401Y-8185755D01*
X16067401Y-8185755D02*
X16048353Y-8204803D01*
X16048353Y-8204803D02*
X16029306Y-8214327D01*
X16381687Y-8357184D02*
X16381687Y-8157184D01*
X16467401Y-8357184D02*
X16467401Y-8252422D01*
X16467401Y-8252422D02*
X16457877Y-8233374D01*
X16457877Y-8233374D02*
X16438830Y-8223850D01*
X16438830Y-8223850D02*
X16410258Y-8223850D01*
X16410258Y-8223850D02*
X16391210Y-8233374D01*
X16391210Y-8233374D02*
X16381687Y-8242898D01*
X16591210Y-8357184D02*
X16572163Y-8347660D01*
X16572163Y-8347660D02*
X16562639Y-8338136D01*
X16562639Y-8338136D02*
X16553115Y-8319088D01*
X16553115Y-8319088D02*
X16553115Y-8261946D01*
X16553115Y-8261946D02*
X16562639Y-8242898D01*
X16562639Y-8242898D02*
X16572163Y-8233374D01*
X16572163Y-8233374D02*
X16591210Y-8223850D01*
X16591210Y-8223850D02*
X16619782Y-8223850D01*
X16619782Y-8223850D02*
X16638830Y-8233374D01*
X16638830Y-8233374D02*
X16648353Y-8242898D01*
X16648353Y-8242898D02*
X16657877Y-8261946D01*
X16657877Y-8261946D02*
X16657877Y-8319088D01*
X16657877Y-8319088D02*
X16648353Y-8338136D01*
X16648353Y-8338136D02*
X16638830Y-8347660D01*
X16638830Y-8347660D02*
X16619782Y-8357184D01*
X16619782Y-8357184D02*
X16591210Y-8357184D01*
X16772163Y-8357184D02*
X16753115Y-8347660D01*
X16753115Y-8347660D02*
X16743591Y-8328612D01*
X16743591Y-8328612D02*
X16743591Y-8157184D01*
X16924544Y-8347660D02*
X16905496Y-8357184D01*
X16905496Y-8357184D02*
X16867401Y-8357184D01*
X16867401Y-8357184D02*
X16848353Y-8347660D01*
X16848353Y-8347660D02*
X16838830Y-8328612D01*
X16838830Y-8328612D02*
X16838830Y-8252422D01*
X16838830Y-8252422D02*
X16848353Y-8233374D01*
X16848353Y-8233374D02*
X16867401Y-8223850D01*
X16867401Y-8223850D02*
X16905496Y-8223850D01*
X16905496Y-8223850D02*
X16924544Y-8233374D01*
X16924544Y-8233374D02*
X16934068Y-8252422D01*
X16934068Y-8252422D02*
X16934068Y-8271469D01*
X16934068Y-8271469D02*
X16838830Y-8290517D01*
X17010258Y-8347660D02*
X17029306Y-8357184D01*
X17029306Y-8357184D02*
X17067401Y-8357184D01*
X17067401Y-8357184D02*
X17086449Y-8347660D01*
X17086449Y-8347660D02*
X17095973Y-8328612D01*
X17095973Y-8328612D02*
X17095973Y-8319088D01*
X17095973Y-8319088D02*
X17086449Y-8300041D01*
X17086449Y-8300041D02*
X17067401Y-8290517D01*
X17067401Y-8290517D02*
X17038830Y-8290517D01*
X17038830Y-8290517D02*
X17019782Y-8280993D01*
X17019782Y-8280993D02*
X17010258Y-8261946D01*
X17010258Y-8261946D02*
X17010258Y-8252422D01*
X17010258Y-8252422D02*
X17019782Y-8233374D01*
X17019782Y-8233374D02*
X17038830Y-8223850D01*
X17038830Y-8223850D02*
X17067401Y-8223850D01*
X17067401Y-8223850D02*
X17086449Y-8233374D01*
X17162639Y-8433374D02*
X17172163Y-8423850D01*
X17172163Y-8423850D02*
X17191211Y-8395279D01*
X17191211Y-8395279D02*
X17200734Y-8376231D01*
X17200734Y-8376231D02*
X17210258Y-8347660D01*
X17210258Y-8347660D02*
X17219782Y-8300041D01*
X17219782Y-8300041D02*
X17219782Y-8261946D01*
X17219782Y-8261946D02*
X17210258Y-8214327D01*
X17210258Y-8214327D02*
X17200734Y-8185755D01*
X17200734Y-8185755D02*
X17191211Y-8166708D01*
X17191211Y-8166708D02*
X17172163Y-8138136D01*
X17172163Y-8138136D02*
X17162639Y-8128612D01*
D13*
X12159100Y-8491700D02*
X12159100Y-8567700D01*
X12121100Y-8529700D02*
X12197100Y-8529700D01*
D11*
X12495972Y-8421184D02*
X12515020Y-8421184D01*
X12515020Y-8421184D02*
X12534067Y-8430708D01*
X12534067Y-8430708D02*
X12543591Y-8440231D01*
X12543591Y-8440231D02*
X12553115Y-8459279D01*
X12553115Y-8459279D02*
X12562639Y-8497374D01*
X12562639Y-8497374D02*
X12562639Y-8544993D01*
X12562639Y-8544993D02*
X12553115Y-8583089D01*
X12553115Y-8583089D02*
X12543591Y-8602136D01*
X12543591Y-8602136D02*
X12534067Y-8611660D01*
X12534067Y-8611660D02*
X12515020Y-8621184D01*
X12515020Y-8621184D02*
X12495972Y-8621184D01*
X12495972Y-8621184D02*
X12476924Y-8611660D01*
X12476924Y-8611660D02*
X12467401Y-8602136D01*
X12467401Y-8602136D02*
X12457877Y-8583089D01*
X12457877Y-8583089D02*
X12448353Y-8544993D01*
X12448353Y-8544993D02*
X12448353Y-8497374D01*
X12448353Y-8497374D02*
X12457877Y-8459279D01*
X12457877Y-8459279D02*
X12467401Y-8440231D01*
X12467401Y-8440231D02*
X12476924Y-8430708D01*
X12476924Y-8430708D02*
X12495972Y-8421184D01*
X12648353Y-8602136D02*
X12657877Y-8611660D01*
X12657877Y-8611660D02*
X12648353Y-8621184D01*
X12648353Y-8621184D02*
X12638829Y-8611660D01*
X12638829Y-8611660D02*
X12648353Y-8602136D01*
X12648353Y-8602136D02*
X12648353Y-8621184D01*
X12724543Y-8421184D02*
X12857877Y-8421184D01*
X12857877Y-8421184D02*
X12772162Y-8621184D01*
X13019782Y-8421184D02*
X12981686Y-8421184D01*
X12981686Y-8421184D02*
X12962639Y-8430708D01*
X12962639Y-8430708D02*
X12953115Y-8440231D01*
X12953115Y-8440231D02*
X12934067Y-8468803D01*
X12934067Y-8468803D02*
X12924543Y-8506898D01*
X12924543Y-8506898D02*
X12924543Y-8583089D01*
X12924543Y-8583089D02*
X12934067Y-8602136D01*
X12934067Y-8602136D02*
X12943591Y-8611660D01*
X12943591Y-8611660D02*
X12962639Y-8621184D01*
X12962639Y-8621184D02*
X13000734Y-8621184D01*
X13000734Y-8621184D02*
X13019782Y-8611660D01*
X13019782Y-8611660D02*
X13029305Y-8602136D01*
X13029305Y-8602136D02*
X13038829Y-8583089D01*
X13038829Y-8583089D02*
X13038829Y-8535470D01*
X13038829Y-8535470D02*
X13029305Y-8516422D01*
X13029305Y-8516422D02*
X13019782Y-8506898D01*
X13019782Y-8506898D02*
X13000734Y-8497374D01*
X13000734Y-8497374D02*
X12962639Y-8497374D01*
X12962639Y-8497374D02*
X12943591Y-8506898D01*
X12943591Y-8506898D02*
X12934067Y-8516422D01*
X12934067Y-8516422D02*
X12924543Y-8535470D01*
X13162639Y-8421184D02*
X13181686Y-8421184D01*
X13181686Y-8421184D02*
X13200734Y-8430708D01*
X13200734Y-8430708D02*
X13210258Y-8440231D01*
X13210258Y-8440231D02*
X13219782Y-8459279D01*
X13219782Y-8459279D02*
X13229305Y-8497374D01*
X13229305Y-8497374D02*
X13229305Y-8544993D01*
X13229305Y-8544993D02*
X13219782Y-8583089D01*
X13219782Y-8583089D02*
X13210258Y-8602136D01*
X13210258Y-8602136D02*
X13200734Y-8611660D01*
X13200734Y-8611660D02*
X13181686Y-8621184D01*
X13181686Y-8621184D02*
X13162639Y-8621184D01*
X13162639Y-8621184D02*
X13143591Y-8611660D01*
X13143591Y-8611660D02*
X13134067Y-8602136D01*
X13134067Y-8602136D02*
X13124543Y-8583089D01*
X13124543Y-8583089D02*
X13115020Y-8544993D01*
X13115020Y-8544993D02*
X13115020Y-8497374D01*
X13115020Y-8497374D02*
X13124543Y-8459279D01*
X13124543Y-8459279D02*
X13134067Y-8440231D01*
X13134067Y-8440231D02*
X13143591Y-8430708D01*
X13143591Y-8430708D02*
X13162639Y-8421184D01*
X13315020Y-8621184D02*
X13315020Y-8487850D01*
X13315020Y-8506898D02*
X13324543Y-8497374D01*
X13324543Y-8497374D02*
X13343591Y-8487850D01*
X13343591Y-8487850D02*
X13372163Y-8487850D01*
X13372163Y-8487850D02*
X13391210Y-8497374D01*
X13391210Y-8497374D02*
X13400734Y-8516422D01*
X13400734Y-8516422D02*
X13400734Y-8621184D01*
X13400734Y-8516422D02*
X13410258Y-8497374D01*
X13410258Y-8497374D02*
X13429305Y-8487850D01*
X13429305Y-8487850D02*
X13457877Y-8487850D01*
X13457877Y-8487850D02*
X13476924Y-8497374D01*
X13476924Y-8497374D02*
X13486448Y-8516422D01*
X13486448Y-8516422D02*
X13486448Y-8621184D01*
X13581686Y-8621184D02*
X13581686Y-8487850D01*
X13581686Y-8506898D02*
X13591210Y-8497374D01*
X13591210Y-8497374D02*
X13610258Y-8487850D01*
X13610258Y-8487850D02*
X13638829Y-8487850D01*
X13638829Y-8487850D02*
X13657877Y-8497374D01*
X13657877Y-8497374D02*
X13667401Y-8516422D01*
X13667401Y-8516422D02*
X13667401Y-8621184D01*
X13667401Y-8516422D02*
X13676924Y-8497374D01*
X13676924Y-8497374D02*
X13695972Y-8487850D01*
X13695972Y-8487850D02*
X13724543Y-8487850D01*
X13724543Y-8487850D02*
X13743591Y-8497374D01*
X13743591Y-8497374D02*
X13753115Y-8516422D01*
X13753115Y-8516422D02*
X13753115Y-8621184D01*
X14143591Y-8411660D02*
X13972163Y-8668803D01*
X14400734Y-8421184D02*
X14419782Y-8421184D01*
X14419782Y-8421184D02*
X14438829Y-8430708D01*
X14438829Y-8430708D02*
X14448353Y-8440231D01*
X14448353Y-8440231D02*
X14457877Y-8459279D01*
X14457877Y-8459279D02*
X14467401Y-8497374D01*
X14467401Y-8497374D02*
X14467401Y-8544993D01*
X14467401Y-8544993D02*
X14457877Y-8583089D01*
X14457877Y-8583089D02*
X14448353Y-8602136D01*
X14448353Y-8602136D02*
X14438829Y-8611660D01*
X14438829Y-8611660D02*
X14419782Y-8621184D01*
X14419782Y-8621184D02*
X14400734Y-8621184D01*
X14400734Y-8621184D02*
X14381686Y-8611660D01*
X14381686Y-8611660D02*
X14372163Y-8602136D01*
X14372163Y-8602136D02*
X14362639Y-8583089D01*
X14362639Y-8583089D02*
X14353115Y-8544993D01*
X14353115Y-8544993D02*
X14353115Y-8497374D01*
X14353115Y-8497374D02*
X14362639Y-8459279D01*
X14362639Y-8459279D02*
X14372163Y-8440231D01*
X14372163Y-8440231D02*
X14381686Y-8430708D01*
X14381686Y-8430708D02*
X14400734Y-8421184D01*
X14553115Y-8602136D02*
X14562639Y-8611660D01*
X14562639Y-8611660D02*
X14553115Y-8621184D01*
X14553115Y-8621184D02*
X14543591Y-8611660D01*
X14543591Y-8611660D02*
X14553115Y-8602136D01*
X14553115Y-8602136D02*
X14553115Y-8621184D01*
X14686448Y-8421184D02*
X14705496Y-8421184D01*
X14705496Y-8421184D02*
X14724544Y-8430708D01*
X14724544Y-8430708D02*
X14734067Y-8440231D01*
X14734067Y-8440231D02*
X14743591Y-8459279D01*
X14743591Y-8459279D02*
X14753115Y-8497374D01*
X14753115Y-8497374D02*
X14753115Y-8544993D01*
X14753115Y-8544993D02*
X14743591Y-8583089D01*
X14743591Y-8583089D02*
X14734067Y-8602136D01*
X14734067Y-8602136D02*
X14724544Y-8611660D01*
X14724544Y-8611660D02*
X14705496Y-8621184D01*
X14705496Y-8621184D02*
X14686448Y-8621184D01*
X14686448Y-8621184D02*
X14667401Y-8611660D01*
X14667401Y-8611660D02*
X14657877Y-8602136D01*
X14657877Y-8602136D02*
X14648353Y-8583089D01*
X14648353Y-8583089D02*
X14638829Y-8544993D01*
X14638829Y-8544993D02*
X14638829Y-8497374D01*
X14638829Y-8497374D02*
X14648353Y-8459279D01*
X14648353Y-8459279D02*
X14657877Y-8440231D01*
X14657877Y-8440231D02*
X14667401Y-8430708D01*
X14667401Y-8430708D02*
X14686448Y-8421184D01*
X14829306Y-8440231D02*
X14838829Y-8430708D01*
X14838829Y-8430708D02*
X14857877Y-8421184D01*
X14857877Y-8421184D02*
X14905496Y-8421184D01*
X14905496Y-8421184D02*
X14924544Y-8430708D01*
X14924544Y-8430708D02*
X14934067Y-8440231D01*
X14934067Y-8440231D02*
X14943591Y-8459279D01*
X14943591Y-8459279D02*
X14943591Y-8478327D01*
X14943591Y-8478327D02*
X14934067Y-8506898D01*
X14934067Y-8506898D02*
X14819782Y-8621184D01*
X14819782Y-8621184D02*
X14943591Y-8621184D01*
X15038829Y-8621184D02*
X15076925Y-8621184D01*
X15076925Y-8621184D02*
X15095972Y-8611660D01*
X15095972Y-8611660D02*
X15105496Y-8602136D01*
X15105496Y-8602136D02*
X15124544Y-8573565D01*
X15124544Y-8573565D02*
X15134067Y-8535470D01*
X15134067Y-8535470D02*
X15134067Y-8459279D01*
X15134067Y-8459279D02*
X15124544Y-8440231D01*
X15124544Y-8440231D02*
X15115020Y-8430708D01*
X15115020Y-8430708D02*
X15095972Y-8421184D01*
X15095972Y-8421184D02*
X15057877Y-8421184D01*
X15057877Y-8421184D02*
X15038829Y-8430708D01*
X15038829Y-8430708D02*
X15029306Y-8440231D01*
X15029306Y-8440231D02*
X15019782Y-8459279D01*
X15019782Y-8459279D02*
X15019782Y-8506898D01*
X15019782Y-8506898D02*
X15029306Y-8525946D01*
X15029306Y-8525946D02*
X15038829Y-8535470D01*
X15038829Y-8535470D02*
X15057877Y-8544993D01*
X15057877Y-8544993D02*
X15095972Y-8544993D01*
X15095972Y-8544993D02*
X15115020Y-8535470D01*
X15115020Y-8535470D02*
X15124544Y-8525946D01*
X15124544Y-8525946D02*
X15134067Y-8506898D01*
X15229306Y-8621184D02*
X15267401Y-8621184D01*
X15267401Y-8621184D02*
X15286448Y-8611660D01*
X15286448Y-8611660D02*
X15295972Y-8602136D01*
X15295972Y-8602136D02*
X15315020Y-8573565D01*
X15315020Y-8573565D02*
X15324544Y-8535470D01*
X15324544Y-8535470D02*
X15324544Y-8459279D01*
X15324544Y-8459279D02*
X15315020Y-8440231D01*
X15315020Y-8440231D02*
X15305496Y-8430708D01*
X15305496Y-8430708D02*
X15286448Y-8421184D01*
X15286448Y-8421184D02*
X15248353Y-8421184D01*
X15248353Y-8421184D02*
X15229306Y-8430708D01*
X15229306Y-8430708D02*
X15219782Y-8440231D01*
X15219782Y-8440231D02*
X15210258Y-8459279D01*
X15210258Y-8459279D02*
X15210258Y-8506898D01*
X15210258Y-8506898D02*
X15219782Y-8525946D01*
X15219782Y-8525946D02*
X15229306Y-8535470D01*
X15229306Y-8535470D02*
X15248353Y-8544993D01*
X15248353Y-8544993D02*
X15286448Y-8544993D01*
X15286448Y-8544993D02*
X15305496Y-8535470D01*
X15305496Y-8535470D02*
X15315020Y-8525946D01*
X15315020Y-8525946D02*
X15324544Y-8506898D01*
X15400734Y-8421184D02*
X15400734Y-8459279D01*
X15476925Y-8421184D02*
X15476925Y-8459279D01*
X15772163Y-8697374D02*
X15762639Y-8687850D01*
X15762639Y-8687850D02*
X15743591Y-8659279D01*
X15743591Y-8659279D02*
X15734068Y-8640231D01*
X15734068Y-8640231D02*
X15724544Y-8611660D01*
X15724544Y-8611660D02*
X15715020Y-8564041D01*
X15715020Y-8564041D02*
X15715020Y-8525946D01*
X15715020Y-8525946D02*
X15724544Y-8478327D01*
X15724544Y-8478327D02*
X15734068Y-8449755D01*
X15734068Y-8449755D02*
X15743591Y-8430708D01*
X15743591Y-8430708D02*
X15762639Y-8402136D01*
X15762639Y-8402136D02*
X15772163Y-8392612D01*
X15953115Y-8621184D02*
X15838829Y-8621184D01*
X15895972Y-8621184D02*
X15895972Y-8421184D01*
X15895972Y-8421184D02*
X15876925Y-8449755D01*
X15876925Y-8449755D02*
X15857877Y-8468803D01*
X15857877Y-8468803D02*
X15838829Y-8478327D01*
X16124544Y-8421184D02*
X16086448Y-8421184D01*
X16086448Y-8421184D02*
X16067401Y-8430708D01*
X16067401Y-8430708D02*
X16057877Y-8440231D01*
X16057877Y-8440231D02*
X16038829Y-8468803D01*
X16038829Y-8468803D02*
X16029306Y-8506898D01*
X16029306Y-8506898D02*
X16029306Y-8583089D01*
X16029306Y-8583089D02*
X16038829Y-8602136D01*
X16038829Y-8602136D02*
X16048353Y-8611660D01*
X16048353Y-8611660D02*
X16067401Y-8621184D01*
X16067401Y-8621184D02*
X16105496Y-8621184D01*
X16105496Y-8621184D02*
X16124544Y-8611660D01*
X16124544Y-8611660D02*
X16134068Y-8602136D01*
X16134068Y-8602136D02*
X16143591Y-8583089D01*
X16143591Y-8583089D02*
X16143591Y-8535470D01*
X16143591Y-8535470D02*
X16134068Y-8516422D01*
X16134068Y-8516422D02*
X16124544Y-8506898D01*
X16124544Y-8506898D02*
X16105496Y-8497374D01*
X16105496Y-8497374D02*
X16067401Y-8497374D01*
X16067401Y-8497374D02*
X16048353Y-8506898D01*
X16048353Y-8506898D02*
X16038829Y-8516422D01*
X16038829Y-8516422D02*
X16029306Y-8535470D01*
X16381687Y-8621184D02*
X16381687Y-8421184D01*
X16467401Y-8621184D02*
X16467401Y-8516422D01*
X16467401Y-8516422D02*
X16457877Y-8497374D01*
X16457877Y-8497374D02*
X16438830Y-8487850D01*
X16438830Y-8487850D02*
X16410258Y-8487850D01*
X16410258Y-8487850D02*
X16391210Y-8497374D01*
X16391210Y-8497374D02*
X16381687Y-8506898D01*
X16591210Y-8621184D02*
X16572163Y-8611660D01*
X16572163Y-8611660D02*
X16562639Y-8602136D01*
X16562639Y-8602136D02*
X16553115Y-8583089D01*
X16553115Y-8583089D02*
X16553115Y-8525946D01*
X16553115Y-8525946D02*
X16562639Y-8506898D01*
X16562639Y-8506898D02*
X16572163Y-8497374D01*
X16572163Y-8497374D02*
X16591210Y-8487850D01*
X16591210Y-8487850D02*
X16619782Y-8487850D01*
X16619782Y-8487850D02*
X16638830Y-8497374D01*
X16638830Y-8497374D02*
X16648353Y-8506898D01*
X16648353Y-8506898D02*
X16657877Y-8525946D01*
X16657877Y-8525946D02*
X16657877Y-8583089D01*
X16657877Y-8583089D02*
X16648353Y-8602136D01*
X16648353Y-8602136D02*
X16638830Y-8611660D01*
X16638830Y-8611660D02*
X16619782Y-8621184D01*
X16619782Y-8621184D02*
X16591210Y-8621184D01*
X16772163Y-8621184D02*
X16753115Y-8611660D01*
X16753115Y-8611660D02*
X16743591Y-8592612D01*
X16743591Y-8592612D02*
X16743591Y-8421184D01*
X16924544Y-8611660D02*
X16905496Y-8621184D01*
X16905496Y-8621184D02*
X16867401Y-8621184D01*
X16867401Y-8621184D02*
X16848353Y-8611660D01*
X16848353Y-8611660D02*
X16838830Y-8592612D01*
X16838830Y-8592612D02*
X16838830Y-8516422D01*
X16838830Y-8516422D02*
X16848353Y-8497374D01*
X16848353Y-8497374D02*
X16867401Y-8487850D01*
X16867401Y-8487850D02*
X16905496Y-8487850D01*
X16905496Y-8487850D02*
X16924544Y-8497374D01*
X16924544Y-8497374D02*
X16934068Y-8516422D01*
X16934068Y-8516422D02*
X16934068Y-8535470D01*
X16934068Y-8535470D02*
X16838830Y-8554517D01*
X17010258Y-8611660D02*
X17029306Y-8621184D01*
X17029306Y-8621184D02*
X17067401Y-8621184D01*
X17067401Y-8621184D02*
X17086449Y-8611660D01*
X17086449Y-8611660D02*
X17095973Y-8592612D01*
X17095973Y-8592612D02*
X17095973Y-8583089D01*
X17095973Y-8583089D02*
X17086449Y-8564041D01*
X17086449Y-8564041D02*
X17067401Y-8554517D01*
X17067401Y-8554517D02*
X17038830Y-8554517D01*
X17038830Y-8554517D02*
X17019782Y-8544993D01*
X17019782Y-8544993D02*
X17010258Y-8525946D01*
X17010258Y-8525946D02*
X17010258Y-8516422D01*
X17010258Y-8516422D02*
X17019782Y-8497374D01*
X17019782Y-8497374D02*
X17038830Y-8487850D01*
X17038830Y-8487850D02*
X17067401Y-8487850D01*
X17067401Y-8487850D02*
X17086449Y-8497374D01*
X17162639Y-8697374D02*
X17172163Y-8687850D01*
X17172163Y-8687850D02*
X17191211Y-8659279D01*
X17191211Y-8659279D02*
X17200734Y-8640231D01*
X17200734Y-8640231D02*
X17210258Y-8611660D01*
X17210258Y-8611660D02*
X17219782Y-8564041D01*
X17219782Y-8564041D02*
X17219782Y-8525946D01*
X17219782Y-8525946D02*
X17210258Y-8478327D01*
X17210258Y-8478327D02*
X17200734Y-8449755D01*
X17200734Y-8449755D02*
X17191211Y-8430708D01*
X17191211Y-8430708D02*
X17172163Y-8402136D01*
X17172163Y-8402136D02*
X17162639Y-8392612D01*
D14*
X12185384Y-8821985D02*
X12185384Y-8765416D01*
X12128815Y-8765416D01*
X12128815Y-8821985D01*
X12185384Y-8821985D01*
D11*
X12495972Y-8685184D02*
X12515020Y-8685184D01*
X12515020Y-8685184D02*
X12534067Y-8694708D01*
X12534067Y-8694708D02*
X12543591Y-8704231D01*
X12543591Y-8704231D02*
X12553115Y-8723279D01*
X12553115Y-8723279D02*
X12562639Y-8761374D01*
X12562639Y-8761374D02*
X12562639Y-8808993D01*
X12562639Y-8808993D02*
X12553115Y-8847089D01*
X12553115Y-8847089D02*
X12543591Y-8866136D01*
X12543591Y-8866136D02*
X12534067Y-8875660D01*
X12534067Y-8875660D02*
X12515020Y-8885184D01*
X12515020Y-8885184D02*
X12495972Y-8885184D01*
X12495972Y-8885184D02*
X12476924Y-8875660D01*
X12476924Y-8875660D02*
X12467401Y-8866136D01*
X12467401Y-8866136D02*
X12457877Y-8847089D01*
X12457877Y-8847089D02*
X12448353Y-8808993D01*
X12448353Y-8808993D02*
X12448353Y-8761374D01*
X12448353Y-8761374D02*
X12457877Y-8723279D01*
X12457877Y-8723279D02*
X12467401Y-8704231D01*
X12467401Y-8704231D02*
X12476924Y-8694708D01*
X12476924Y-8694708D02*
X12495972Y-8685184D01*
X12648353Y-8866136D02*
X12657877Y-8875660D01*
X12657877Y-8875660D02*
X12648353Y-8885184D01*
X12648353Y-8885184D02*
X12638829Y-8875660D01*
X12638829Y-8875660D02*
X12648353Y-8866136D01*
X12648353Y-8866136D02*
X12648353Y-8885184D01*
X12772162Y-8770898D02*
X12753115Y-8761374D01*
X12753115Y-8761374D02*
X12743591Y-8751850D01*
X12743591Y-8751850D02*
X12734067Y-8732803D01*
X12734067Y-8732803D02*
X12734067Y-8723279D01*
X12734067Y-8723279D02*
X12743591Y-8704231D01*
X12743591Y-8704231D02*
X12753115Y-8694708D01*
X12753115Y-8694708D02*
X12772162Y-8685184D01*
X12772162Y-8685184D02*
X12810258Y-8685184D01*
X12810258Y-8685184D02*
X12829305Y-8694708D01*
X12829305Y-8694708D02*
X12838829Y-8704231D01*
X12838829Y-8704231D02*
X12848353Y-8723279D01*
X12848353Y-8723279D02*
X12848353Y-8732803D01*
X12848353Y-8732803D02*
X12838829Y-8751850D01*
X12838829Y-8751850D02*
X12829305Y-8761374D01*
X12829305Y-8761374D02*
X12810258Y-8770898D01*
X12810258Y-8770898D02*
X12772162Y-8770898D01*
X12772162Y-8770898D02*
X12753115Y-8780422D01*
X12753115Y-8780422D02*
X12743591Y-8789946D01*
X12743591Y-8789946D02*
X12734067Y-8808993D01*
X12734067Y-8808993D02*
X12734067Y-8847089D01*
X12734067Y-8847089D02*
X12743591Y-8866136D01*
X12743591Y-8866136D02*
X12753115Y-8875660D01*
X12753115Y-8875660D02*
X12772162Y-8885184D01*
X12772162Y-8885184D02*
X12810258Y-8885184D01*
X12810258Y-8885184D02*
X12829305Y-8875660D01*
X12829305Y-8875660D02*
X12838829Y-8866136D01*
X12838829Y-8866136D02*
X12848353Y-8847089D01*
X12848353Y-8847089D02*
X12848353Y-8808993D01*
X12848353Y-8808993D02*
X12838829Y-8789946D01*
X12838829Y-8789946D02*
X12829305Y-8780422D01*
X12829305Y-8780422D02*
X12810258Y-8770898D01*
X12972162Y-8685184D02*
X12991210Y-8685184D01*
X12991210Y-8685184D02*
X13010258Y-8694708D01*
X13010258Y-8694708D02*
X13019782Y-8704231D01*
X13019782Y-8704231D02*
X13029305Y-8723279D01*
X13029305Y-8723279D02*
X13038829Y-8761374D01*
X13038829Y-8761374D02*
X13038829Y-8808993D01*
X13038829Y-8808993D02*
X13029305Y-8847089D01*
X13029305Y-8847089D02*
X13019782Y-8866136D01*
X13019782Y-8866136D02*
X13010258Y-8875660D01*
X13010258Y-8875660D02*
X12991210Y-8885184D01*
X12991210Y-8885184D02*
X12972162Y-8885184D01*
X12972162Y-8885184D02*
X12953115Y-8875660D01*
X12953115Y-8875660D02*
X12943591Y-8866136D01*
X12943591Y-8866136D02*
X12934067Y-8847089D01*
X12934067Y-8847089D02*
X12924543Y-8808993D01*
X12924543Y-8808993D02*
X12924543Y-8761374D01*
X12924543Y-8761374D02*
X12934067Y-8723279D01*
X12934067Y-8723279D02*
X12943591Y-8704231D01*
X12943591Y-8704231D02*
X12953115Y-8694708D01*
X12953115Y-8694708D02*
X12972162Y-8685184D01*
X13162639Y-8685184D02*
X13181686Y-8685184D01*
X13181686Y-8685184D02*
X13200734Y-8694708D01*
X13200734Y-8694708D02*
X13210258Y-8704231D01*
X13210258Y-8704231D02*
X13219782Y-8723279D01*
X13219782Y-8723279D02*
X13229305Y-8761374D01*
X13229305Y-8761374D02*
X13229305Y-8808993D01*
X13229305Y-8808993D02*
X13219782Y-8847089D01*
X13219782Y-8847089D02*
X13210258Y-8866136D01*
X13210258Y-8866136D02*
X13200734Y-8875660D01*
X13200734Y-8875660D02*
X13181686Y-8885184D01*
X13181686Y-8885184D02*
X13162639Y-8885184D01*
X13162639Y-8885184D02*
X13143591Y-8875660D01*
X13143591Y-8875660D02*
X13134067Y-8866136D01*
X13134067Y-8866136D02*
X13124543Y-8847089D01*
X13124543Y-8847089D02*
X13115020Y-8808993D01*
X13115020Y-8808993D02*
X13115020Y-8761374D01*
X13115020Y-8761374D02*
X13124543Y-8723279D01*
X13124543Y-8723279D02*
X13134067Y-8704231D01*
X13134067Y-8704231D02*
X13143591Y-8694708D01*
X13143591Y-8694708D02*
X13162639Y-8685184D01*
X13315020Y-8885184D02*
X13315020Y-8751850D01*
X13315020Y-8770898D02*
X13324543Y-8761374D01*
X13324543Y-8761374D02*
X13343591Y-8751850D01*
X13343591Y-8751850D02*
X13372163Y-8751850D01*
X13372163Y-8751850D02*
X13391210Y-8761374D01*
X13391210Y-8761374D02*
X13400734Y-8780422D01*
X13400734Y-8780422D02*
X13400734Y-8885184D01*
X13400734Y-8780422D02*
X13410258Y-8761374D01*
X13410258Y-8761374D02*
X13429305Y-8751850D01*
X13429305Y-8751850D02*
X13457877Y-8751850D01*
X13457877Y-8751850D02*
X13476924Y-8761374D01*
X13476924Y-8761374D02*
X13486448Y-8780422D01*
X13486448Y-8780422D02*
X13486448Y-8885184D01*
X13581686Y-8885184D02*
X13581686Y-8751850D01*
X13581686Y-8770898D02*
X13591210Y-8761374D01*
X13591210Y-8761374D02*
X13610258Y-8751850D01*
X13610258Y-8751850D02*
X13638829Y-8751850D01*
X13638829Y-8751850D02*
X13657877Y-8761374D01*
X13657877Y-8761374D02*
X13667401Y-8780422D01*
X13667401Y-8780422D02*
X13667401Y-8885184D01*
X13667401Y-8780422D02*
X13676924Y-8761374D01*
X13676924Y-8761374D02*
X13695972Y-8751850D01*
X13695972Y-8751850D02*
X13724543Y-8751850D01*
X13724543Y-8751850D02*
X13743591Y-8761374D01*
X13743591Y-8761374D02*
X13753115Y-8780422D01*
X13753115Y-8780422D02*
X13753115Y-8885184D01*
X14143591Y-8675660D02*
X13972163Y-8932803D01*
X14400734Y-8685184D02*
X14419782Y-8685184D01*
X14419782Y-8685184D02*
X14438829Y-8694708D01*
X14438829Y-8694708D02*
X14448353Y-8704231D01*
X14448353Y-8704231D02*
X14457877Y-8723279D01*
X14457877Y-8723279D02*
X14467401Y-8761374D01*
X14467401Y-8761374D02*
X14467401Y-8808993D01*
X14467401Y-8808993D02*
X14457877Y-8847089D01*
X14457877Y-8847089D02*
X14448353Y-8866136D01*
X14448353Y-8866136D02*
X14438829Y-8875660D01*
X14438829Y-8875660D02*
X14419782Y-8885184D01*
X14419782Y-8885184D02*
X14400734Y-8885184D01*
X14400734Y-8885184D02*
X14381686Y-8875660D01*
X14381686Y-8875660D02*
X14372163Y-8866136D01*
X14372163Y-8866136D02*
X14362639Y-8847089D01*
X14362639Y-8847089D02*
X14353115Y-8808993D01*
X14353115Y-8808993D02*
X14353115Y-8761374D01*
X14353115Y-8761374D02*
X14362639Y-8723279D01*
X14362639Y-8723279D02*
X14372163Y-8704231D01*
X14372163Y-8704231D02*
X14381686Y-8694708D01*
X14381686Y-8694708D02*
X14400734Y-8685184D01*
X14553115Y-8866136D02*
X14562639Y-8875660D01*
X14562639Y-8875660D02*
X14553115Y-8885184D01*
X14553115Y-8885184D02*
X14543591Y-8875660D01*
X14543591Y-8875660D02*
X14553115Y-8866136D01*
X14553115Y-8866136D02*
X14553115Y-8885184D01*
X14686448Y-8685184D02*
X14705496Y-8685184D01*
X14705496Y-8685184D02*
X14724544Y-8694708D01*
X14724544Y-8694708D02*
X14734067Y-8704231D01*
X14734067Y-8704231D02*
X14743591Y-8723279D01*
X14743591Y-8723279D02*
X14753115Y-8761374D01*
X14753115Y-8761374D02*
X14753115Y-8808993D01*
X14753115Y-8808993D02*
X14743591Y-8847089D01*
X14743591Y-8847089D02*
X14734067Y-8866136D01*
X14734067Y-8866136D02*
X14724544Y-8875660D01*
X14724544Y-8875660D02*
X14705496Y-8885184D01*
X14705496Y-8885184D02*
X14686448Y-8885184D01*
X14686448Y-8885184D02*
X14667401Y-8875660D01*
X14667401Y-8875660D02*
X14657877Y-8866136D01*
X14657877Y-8866136D02*
X14648353Y-8847089D01*
X14648353Y-8847089D02*
X14638829Y-8808993D01*
X14638829Y-8808993D02*
X14638829Y-8761374D01*
X14638829Y-8761374D02*
X14648353Y-8723279D01*
X14648353Y-8723279D02*
X14657877Y-8704231D01*
X14657877Y-8704231D02*
X14667401Y-8694708D01*
X14667401Y-8694708D02*
X14686448Y-8685184D01*
X14819782Y-8685184D02*
X14943591Y-8685184D01*
X14943591Y-8685184D02*
X14876925Y-8761374D01*
X14876925Y-8761374D02*
X14905496Y-8761374D01*
X14905496Y-8761374D02*
X14924544Y-8770898D01*
X14924544Y-8770898D02*
X14934067Y-8780422D01*
X14934067Y-8780422D02*
X14943591Y-8799470D01*
X14943591Y-8799470D02*
X14943591Y-8847089D01*
X14943591Y-8847089D02*
X14934067Y-8866136D01*
X14934067Y-8866136D02*
X14924544Y-8875660D01*
X14924544Y-8875660D02*
X14905496Y-8885184D01*
X14905496Y-8885184D02*
X14848353Y-8885184D01*
X14848353Y-8885184D02*
X14829306Y-8875660D01*
X14829306Y-8875660D02*
X14819782Y-8866136D01*
X15134067Y-8885184D02*
X15019782Y-8885184D01*
X15076925Y-8885184D02*
X15076925Y-8685184D01*
X15076925Y-8685184D02*
X15057877Y-8713755D01*
X15057877Y-8713755D02*
X15038829Y-8732803D01*
X15038829Y-8732803D02*
X15019782Y-8742327D01*
X15315020Y-8685184D02*
X15219782Y-8685184D01*
X15219782Y-8685184D02*
X15210258Y-8780422D01*
X15210258Y-8780422D02*
X15219782Y-8770898D01*
X15219782Y-8770898D02*
X15238829Y-8761374D01*
X15238829Y-8761374D02*
X15286448Y-8761374D01*
X15286448Y-8761374D02*
X15305496Y-8770898D01*
X15305496Y-8770898D02*
X15315020Y-8780422D01*
X15315020Y-8780422D02*
X15324544Y-8799470D01*
X15324544Y-8799470D02*
X15324544Y-8847089D01*
X15324544Y-8847089D02*
X15315020Y-8866136D01*
X15315020Y-8866136D02*
X15305496Y-8875660D01*
X15305496Y-8875660D02*
X15286448Y-8885184D01*
X15286448Y-8885184D02*
X15238829Y-8885184D01*
X15238829Y-8885184D02*
X15219782Y-8875660D01*
X15219782Y-8875660D02*
X15210258Y-8866136D01*
X15400734Y-8685184D02*
X15400734Y-8723279D01*
X15476925Y-8685184D02*
X15476925Y-8723279D01*
X15772163Y-8961374D02*
X15762639Y-8951850D01*
X15762639Y-8951850D02*
X15743591Y-8923279D01*
X15743591Y-8923279D02*
X15734068Y-8904231D01*
X15734068Y-8904231D02*
X15724544Y-8875660D01*
X15724544Y-8875660D02*
X15715020Y-8828041D01*
X15715020Y-8828041D02*
X15715020Y-8789946D01*
X15715020Y-8789946D02*
X15724544Y-8742327D01*
X15724544Y-8742327D02*
X15734068Y-8713755D01*
X15734068Y-8713755D02*
X15743591Y-8694708D01*
X15743591Y-8694708D02*
X15762639Y-8666136D01*
X15762639Y-8666136D02*
X15772163Y-8656612D01*
X15953115Y-8885184D02*
X15838829Y-8885184D01*
X15895972Y-8885184D02*
X15895972Y-8685184D01*
X15895972Y-8685184D02*
X15876925Y-8713755D01*
X15876925Y-8713755D02*
X15857877Y-8732803D01*
X15857877Y-8732803D02*
X15838829Y-8742327D01*
X16076925Y-8685184D02*
X16095972Y-8685184D01*
X16095972Y-8685184D02*
X16115020Y-8694708D01*
X16115020Y-8694708D02*
X16124544Y-8704231D01*
X16124544Y-8704231D02*
X16134068Y-8723279D01*
X16134068Y-8723279D02*
X16143591Y-8761374D01*
X16143591Y-8761374D02*
X16143591Y-8808993D01*
X16143591Y-8808993D02*
X16134068Y-8847089D01*
X16134068Y-8847089D02*
X16124544Y-8866136D01*
X16124544Y-8866136D02*
X16115020Y-8875660D01*
X16115020Y-8875660D02*
X16095972Y-8885184D01*
X16095972Y-8885184D02*
X16076925Y-8885184D01*
X16076925Y-8885184D02*
X16057877Y-8875660D01*
X16057877Y-8875660D02*
X16048353Y-8866136D01*
X16048353Y-8866136D02*
X16038829Y-8847089D01*
X16038829Y-8847089D02*
X16029306Y-8808993D01*
X16029306Y-8808993D02*
X16029306Y-8761374D01*
X16029306Y-8761374D02*
X16038829Y-8723279D01*
X16038829Y-8723279D02*
X16048353Y-8704231D01*
X16048353Y-8704231D02*
X16057877Y-8694708D01*
X16057877Y-8694708D02*
X16076925Y-8685184D01*
X16381687Y-8885184D02*
X16381687Y-8685184D01*
X16467401Y-8885184D02*
X16467401Y-8780422D01*
X16467401Y-8780422D02*
X16457877Y-8761374D01*
X16457877Y-8761374D02*
X16438830Y-8751850D01*
X16438830Y-8751850D02*
X16410258Y-8751850D01*
X16410258Y-8751850D02*
X16391210Y-8761374D01*
X16391210Y-8761374D02*
X16381687Y-8770898D01*
X16591210Y-8885184D02*
X16572163Y-8875660D01*
X16572163Y-8875660D02*
X16562639Y-8866136D01*
X16562639Y-8866136D02*
X16553115Y-8847089D01*
X16553115Y-8847089D02*
X16553115Y-8789946D01*
X16553115Y-8789946D02*
X16562639Y-8770898D01*
X16562639Y-8770898D02*
X16572163Y-8761374D01*
X16572163Y-8761374D02*
X16591210Y-8751850D01*
X16591210Y-8751850D02*
X16619782Y-8751850D01*
X16619782Y-8751850D02*
X16638830Y-8761374D01*
X16638830Y-8761374D02*
X16648353Y-8770898D01*
X16648353Y-8770898D02*
X16657877Y-8789946D01*
X16657877Y-8789946D02*
X16657877Y-8847089D01*
X16657877Y-8847089D02*
X16648353Y-8866136D01*
X16648353Y-8866136D02*
X16638830Y-8875660D01*
X16638830Y-8875660D02*
X16619782Y-8885184D01*
X16619782Y-8885184D02*
X16591210Y-8885184D01*
X16772163Y-8885184D02*
X16753115Y-8875660D01*
X16753115Y-8875660D02*
X16743591Y-8856612D01*
X16743591Y-8856612D02*
X16743591Y-8685184D01*
X16924544Y-8875660D02*
X16905496Y-8885184D01*
X16905496Y-8885184D02*
X16867401Y-8885184D01*
X16867401Y-8885184D02*
X16848353Y-8875660D01*
X16848353Y-8875660D02*
X16838830Y-8856612D01*
X16838830Y-8856612D02*
X16838830Y-8780422D01*
X16838830Y-8780422D02*
X16848353Y-8761374D01*
X16848353Y-8761374D02*
X16867401Y-8751850D01*
X16867401Y-8751850D02*
X16905496Y-8751850D01*
X16905496Y-8751850D02*
X16924544Y-8761374D01*
X16924544Y-8761374D02*
X16934068Y-8780422D01*
X16934068Y-8780422D02*
X16934068Y-8799470D01*
X16934068Y-8799470D02*
X16838830Y-8818517D01*
X17010258Y-8875660D02*
X17029306Y-8885184D01*
X17029306Y-8885184D02*
X17067401Y-8885184D01*
X17067401Y-8885184D02*
X17086449Y-8875660D01*
X17086449Y-8875660D02*
X17095973Y-8856612D01*
X17095973Y-8856612D02*
X17095973Y-8847089D01*
X17095973Y-8847089D02*
X17086449Y-8828041D01*
X17086449Y-8828041D02*
X17067401Y-8818517D01*
X17067401Y-8818517D02*
X17038830Y-8818517D01*
X17038830Y-8818517D02*
X17019782Y-8808993D01*
X17019782Y-8808993D02*
X17010258Y-8789946D01*
X17010258Y-8789946D02*
X17010258Y-8780422D01*
X17010258Y-8780422D02*
X17019782Y-8761374D01*
X17019782Y-8761374D02*
X17038830Y-8751850D01*
X17038830Y-8751850D02*
X17067401Y-8751850D01*
X17067401Y-8751850D02*
X17086449Y-8761374D01*
X17162639Y-8961374D02*
X17172163Y-8951850D01*
X17172163Y-8951850D02*
X17191211Y-8923279D01*
X17191211Y-8923279D02*
X17200734Y-8904231D01*
X17200734Y-8904231D02*
X17210258Y-8875660D01*
X17210258Y-8875660D02*
X17219782Y-8828041D01*
X17219782Y-8828041D02*
X17219782Y-8789946D01*
X17219782Y-8789946D02*
X17210258Y-8742327D01*
X17210258Y-8742327D02*
X17200734Y-8713755D01*
X17200734Y-8713755D02*
X17191211Y-8694708D01*
X17191211Y-8694708D02*
X17172163Y-8666136D01*
X17172163Y-8666136D02*
X17162639Y-8656612D01*
D15*
X12147100Y-9107700D02*
X12197100Y-9057700D01*
X12147100Y-9007700D01*
X12097100Y-9057700D01*
X12147100Y-9107700D01*
D11*
X12562639Y-9149184D02*
X12448353Y-9149184D01*
X12505496Y-9149184D02*
X12505496Y-8949184D01*
X12505496Y-8949184D02*
X12486448Y-8977755D01*
X12486448Y-8977755D02*
X12467401Y-8996803D01*
X12467401Y-8996803D02*
X12448353Y-9006327D01*
X12648353Y-9130136D02*
X12657877Y-9139660D01*
X12657877Y-9139660D02*
X12648353Y-9149184D01*
X12648353Y-9149184D02*
X12638829Y-9139660D01*
X12638829Y-9139660D02*
X12648353Y-9130136D01*
X12648353Y-9130136D02*
X12648353Y-9149184D01*
X12781686Y-8949184D02*
X12800734Y-8949184D01*
X12800734Y-8949184D02*
X12819782Y-8958708D01*
X12819782Y-8958708D02*
X12829305Y-8968231D01*
X12829305Y-8968231D02*
X12838829Y-8987279D01*
X12838829Y-8987279D02*
X12848353Y-9025374D01*
X12848353Y-9025374D02*
X12848353Y-9072993D01*
X12848353Y-9072993D02*
X12838829Y-9111089D01*
X12838829Y-9111089D02*
X12829305Y-9130136D01*
X12829305Y-9130136D02*
X12819782Y-9139660D01*
X12819782Y-9139660D02*
X12800734Y-9149184D01*
X12800734Y-9149184D02*
X12781686Y-9149184D01*
X12781686Y-9149184D02*
X12762639Y-9139660D01*
X12762639Y-9139660D02*
X12753115Y-9130136D01*
X12753115Y-9130136D02*
X12743591Y-9111089D01*
X12743591Y-9111089D02*
X12734067Y-9072993D01*
X12734067Y-9072993D02*
X12734067Y-9025374D01*
X12734067Y-9025374D02*
X12743591Y-8987279D01*
X12743591Y-8987279D02*
X12753115Y-8968231D01*
X12753115Y-8968231D02*
X12762639Y-8958708D01*
X12762639Y-8958708D02*
X12781686Y-8949184D01*
X12972162Y-8949184D02*
X12991210Y-8949184D01*
X12991210Y-8949184D02*
X13010258Y-8958708D01*
X13010258Y-8958708D02*
X13019782Y-8968231D01*
X13019782Y-8968231D02*
X13029305Y-8987279D01*
X13029305Y-8987279D02*
X13038829Y-9025374D01*
X13038829Y-9025374D02*
X13038829Y-9072993D01*
X13038829Y-9072993D02*
X13029305Y-9111089D01*
X13029305Y-9111089D02*
X13019782Y-9130136D01*
X13019782Y-9130136D02*
X13010258Y-9139660D01*
X13010258Y-9139660D02*
X12991210Y-9149184D01*
X12991210Y-9149184D02*
X12972162Y-9149184D01*
X12972162Y-9149184D02*
X12953115Y-9139660D01*
X12953115Y-9139660D02*
X12943591Y-9130136D01*
X12943591Y-9130136D02*
X12934067Y-9111089D01*
X12934067Y-9111089D02*
X12924543Y-9072993D01*
X12924543Y-9072993D02*
X12924543Y-9025374D01*
X12924543Y-9025374D02*
X12934067Y-8987279D01*
X12934067Y-8987279D02*
X12943591Y-8968231D01*
X12943591Y-8968231D02*
X12953115Y-8958708D01*
X12953115Y-8958708D02*
X12972162Y-8949184D01*
X13162639Y-8949184D02*
X13181686Y-8949184D01*
X13181686Y-8949184D02*
X13200734Y-8958708D01*
X13200734Y-8958708D02*
X13210258Y-8968231D01*
X13210258Y-8968231D02*
X13219782Y-8987279D01*
X13219782Y-8987279D02*
X13229305Y-9025374D01*
X13229305Y-9025374D02*
X13229305Y-9072993D01*
X13229305Y-9072993D02*
X13219782Y-9111089D01*
X13219782Y-9111089D02*
X13210258Y-9130136D01*
X13210258Y-9130136D02*
X13200734Y-9139660D01*
X13200734Y-9139660D02*
X13181686Y-9149184D01*
X13181686Y-9149184D02*
X13162639Y-9149184D01*
X13162639Y-9149184D02*
X13143591Y-9139660D01*
X13143591Y-9139660D02*
X13134067Y-9130136D01*
X13134067Y-9130136D02*
X13124543Y-9111089D01*
X13124543Y-9111089D02*
X13115020Y-9072993D01*
X13115020Y-9072993D02*
X13115020Y-9025374D01*
X13115020Y-9025374D02*
X13124543Y-8987279D01*
X13124543Y-8987279D02*
X13134067Y-8968231D01*
X13134067Y-8968231D02*
X13143591Y-8958708D01*
X13143591Y-8958708D02*
X13162639Y-8949184D01*
X13315020Y-9149184D02*
X13315020Y-9015850D01*
X13315020Y-9034898D02*
X13324543Y-9025374D01*
X13324543Y-9025374D02*
X13343591Y-9015850D01*
X13343591Y-9015850D02*
X13372163Y-9015850D01*
X13372163Y-9015850D02*
X13391210Y-9025374D01*
X13391210Y-9025374D02*
X13400734Y-9044422D01*
X13400734Y-9044422D02*
X13400734Y-9149184D01*
X13400734Y-9044422D02*
X13410258Y-9025374D01*
X13410258Y-9025374D02*
X13429305Y-9015850D01*
X13429305Y-9015850D02*
X13457877Y-9015850D01*
X13457877Y-9015850D02*
X13476924Y-9025374D01*
X13476924Y-9025374D02*
X13486448Y-9044422D01*
X13486448Y-9044422D02*
X13486448Y-9149184D01*
X13581686Y-9149184D02*
X13581686Y-9015850D01*
X13581686Y-9034898D02*
X13591210Y-9025374D01*
X13591210Y-9025374D02*
X13610258Y-9015850D01*
X13610258Y-9015850D02*
X13638829Y-9015850D01*
X13638829Y-9015850D02*
X13657877Y-9025374D01*
X13657877Y-9025374D02*
X13667401Y-9044422D01*
X13667401Y-9044422D02*
X13667401Y-9149184D01*
X13667401Y-9044422D02*
X13676924Y-9025374D01*
X13676924Y-9025374D02*
X13695972Y-9015850D01*
X13695972Y-9015850D02*
X13724543Y-9015850D01*
X13724543Y-9015850D02*
X13743591Y-9025374D01*
X13743591Y-9025374D02*
X13753115Y-9044422D01*
X13753115Y-9044422D02*
X13753115Y-9149184D01*
X14143591Y-8939660D02*
X13972163Y-9196803D01*
X14400734Y-8949184D02*
X14419782Y-8949184D01*
X14419782Y-8949184D02*
X14438829Y-8958708D01*
X14438829Y-8958708D02*
X14448353Y-8968231D01*
X14448353Y-8968231D02*
X14457877Y-8987279D01*
X14457877Y-8987279D02*
X14467401Y-9025374D01*
X14467401Y-9025374D02*
X14467401Y-9072993D01*
X14467401Y-9072993D02*
X14457877Y-9111089D01*
X14457877Y-9111089D02*
X14448353Y-9130136D01*
X14448353Y-9130136D02*
X14438829Y-9139660D01*
X14438829Y-9139660D02*
X14419782Y-9149184D01*
X14419782Y-9149184D02*
X14400734Y-9149184D01*
X14400734Y-9149184D02*
X14381686Y-9139660D01*
X14381686Y-9139660D02*
X14372163Y-9130136D01*
X14372163Y-9130136D02*
X14362639Y-9111089D01*
X14362639Y-9111089D02*
X14353115Y-9072993D01*
X14353115Y-9072993D02*
X14353115Y-9025374D01*
X14353115Y-9025374D02*
X14362639Y-8987279D01*
X14362639Y-8987279D02*
X14372163Y-8968231D01*
X14372163Y-8968231D02*
X14381686Y-8958708D01*
X14381686Y-8958708D02*
X14400734Y-8949184D01*
X14553115Y-9130136D02*
X14562639Y-9139660D01*
X14562639Y-9139660D02*
X14553115Y-9149184D01*
X14553115Y-9149184D02*
X14543591Y-9139660D01*
X14543591Y-9139660D02*
X14553115Y-9130136D01*
X14553115Y-9130136D02*
X14553115Y-9149184D01*
X14686448Y-8949184D02*
X14705496Y-8949184D01*
X14705496Y-8949184D02*
X14724544Y-8958708D01*
X14724544Y-8958708D02*
X14734067Y-8968231D01*
X14734067Y-8968231D02*
X14743591Y-8987279D01*
X14743591Y-8987279D02*
X14753115Y-9025374D01*
X14753115Y-9025374D02*
X14753115Y-9072993D01*
X14753115Y-9072993D02*
X14743591Y-9111089D01*
X14743591Y-9111089D02*
X14734067Y-9130136D01*
X14734067Y-9130136D02*
X14724544Y-9139660D01*
X14724544Y-9139660D02*
X14705496Y-9149184D01*
X14705496Y-9149184D02*
X14686448Y-9149184D01*
X14686448Y-9149184D02*
X14667401Y-9139660D01*
X14667401Y-9139660D02*
X14657877Y-9130136D01*
X14657877Y-9130136D02*
X14648353Y-9111089D01*
X14648353Y-9111089D02*
X14638829Y-9072993D01*
X14638829Y-9072993D02*
X14638829Y-9025374D01*
X14638829Y-9025374D02*
X14648353Y-8987279D01*
X14648353Y-8987279D02*
X14657877Y-8968231D01*
X14657877Y-8968231D02*
X14667401Y-8958708D01*
X14667401Y-8958708D02*
X14686448Y-8949184D01*
X14819782Y-8949184D02*
X14943591Y-8949184D01*
X14943591Y-8949184D02*
X14876925Y-9025374D01*
X14876925Y-9025374D02*
X14905496Y-9025374D01*
X14905496Y-9025374D02*
X14924544Y-9034898D01*
X14924544Y-9034898D02*
X14934067Y-9044422D01*
X14934067Y-9044422D02*
X14943591Y-9063470D01*
X14943591Y-9063470D02*
X14943591Y-9111089D01*
X14943591Y-9111089D02*
X14934067Y-9130136D01*
X14934067Y-9130136D02*
X14924544Y-9139660D01*
X14924544Y-9139660D02*
X14905496Y-9149184D01*
X14905496Y-9149184D02*
X14848353Y-9149184D01*
X14848353Y-9149184D02*
X14829306Y-9139660D01*
X14829306Y-9139660D02*
X14819782Y-9130136D01*
X15038829Y-9149184D02*
X15076925Y-9149184D01*
X15076925Y-9149184D02*
X15095972Y-9139660D01*
X15095972Y-9139660D02*
X15105496Y-9130136D01*
X15105496Y-9130136D02*
X15124544Y-9101565D01*
X15124544Y-9101565D02*
X15134067Y-9063470D01*
X15134067Y-9063470D02*
X15134067Y-8987279D01*
X15134067Y-8987279D02*
X15124544Y-8968231D01*
X15124544Y-8968231D02*
X15115020Y-8958708D01*
X15115020Y-8958708D02*
X15095972Y-8949184D01*
X15095972Y-8949184D02*
X15057877Y-8949184D01*
X15057877Y-8949184D02*
X15038829Y-8958708D01*
X15038829Y-8958708D02*
X15029306Y-8968231D01*
X15029306Y-8968231D02*
X15019782Y-8987279D01*
X15019782Y-8987279D02*
X15019782Y-9034898D01*
X15019782Y-9034898D02*
X15029306Y-9053946D01*
X15029306Y-9053946D02*
X15038829Y-9063470D01*
X15038829Y-9063470D02*
X15057877Y-9072993D01*
X15057877Y-9072993D02*
X15095972Y-9072993D01*
X15095972Y-9072993D02*
X15115020Y-9063470D01*
X15115020Y-9063470D02*
X15124544Y-9053946D01*
X15124544Y-9053946D02*
X15134067Y-9034898D01*
X15305496Y-9015850D02*
X15305496Y-9149184D01*
X15257877Y-8939660D02*
X15210258Y-9082517D01*
X15210258Y-9082517D02*
X15334067Y-9082517D01*
X15400734Y-8949184D02*
X15400734Y-8987279D01*
X15476925Y-8949184D02*
X15476925Y-8987279D01*
X15772163Y-9225374D02*
X15762639Y-9215850D01*
X15762639Y-9215850D02*
X15743591Y-9187279D01*
X15743591Y-9187279D02*
X15734068Y-9168231D01*
X15734068Y-9168231D02*
X15724544Y-9139660D01*
X15724544Y-9139660D02*
X15715020Y-9092041D01*
X15715020Y-9092041D02*
X15715020Y-9053946D01*
X15715020Y-9053946D02*
X15724544Y-9006327D01*
X15724544Y-9006327D02*
X15734068Y-8977755D01*
X15734068Y-8977755D02*
X15743591Y-8958708D01*
X15743591Y-8958708D02*
X15762639Y-8930136D01*
X15762639Y-8930136D02*
X15772163Y-8920612D01*
X15934068Y-9015850D02*
X15934068Y-9149184D01*
X15886448Y-8939660D02*
X15838829Y-9082517D01*
X15838829Y-9082517D02*
X15962639Y-9082517D01*
X16191210Y-9149184D02*
X16191210Y-8949184D01*
X16276925Y-9149184D02*
X16276925Y-9044422D01*
X16276925Y-9044422D02*
X16267401Y-9025374D01*
X16267401Y-9025374D02*
X16248353Y-9015850D01*
X16248353Y-9015850D02*
X16219782Y-9015850D01*
X16219782Y-9015850D02*
X16200734Y-9025374D01*
X16200734Y-9025374D02*
X16191210Y-9034898D01*
X16400734Y-9149184D02*
X16381687Y-9139660D01*
X16381687Y-9139660D02*
X16372163Y-9130136D01*
X16372163Y-9130136D02*
X16362639Y-9111089D01*
X16362639Y-9111089D02*
X16362639Y-9053946D01*
X16362639Y-9053946D02*
X16372163Y-9034898D01*
X16372163Y-9034898D02*
X16381687Y-9025374D01*
X16381687Y-9025374D02*
X16400734Y-9015850D01*
X16400734Y-9015850D02*
X16429306Y-9015850D01*
X16429306Y-9015850D02*
X16448353Y-9025374D01*
X16448353Y-9025374D02*
X16457877Y-9034898D01*
X16457877Y-9034898D02*
X16467401Y-9053946D01*
X16467401Y-9053946D02*
X16467401Y-9111089D01*
X16467401Y-9111089D02*
X16457877Y-9130136D01*
X16457877Y-9130136D02*
X16448353Y-9139660D01*
X16448353Y-9139660D02*
X16429306Y-9149184D01*
X16429306Y-9149184D02*
X16400734Y-9149184D01*
X16581687Y-9149184D02*
X16562639Y-9139660D01*
X16562639Y-9139660D02*
X16553115Y-9120612D01*
X16553115Y-9120612D02*
X16553115Y-8949184D01*
X16734068Y-9139660D02*
X16715020Y-9149184D01*
X16715020Y-9149184D02*
X16676925Y-9149184D01*
X16676925Y-9149184D02*
X16657877Y-9139660D01*
X16657877Y-9139660D02*
X16648353Y-9120612D01*
X16648353Y-9120612D02*
X16648353Y-9044422D01*
X16648353Y-9044422D02*
X16657877Y-9025374D01*
X16657877Y-9025374D02*
X16676925Y-9015850D01*
X16676925Y-9015850D02*
X16715020Y-9015850D01*
X16715020Y-9015850D02*
X16734068Y-9025374D01*
X16734068Y-9025374D02*
X16743591Y-9044422D01*
X16743591Y-9044422D02*
X16743591Y-9063470D01*
X16743591Y-9063470D02*
X16648353Y-9082517D01*
X16819782Y-9139660D02*
X16838830Y-9149184D01*
X16838830Y-9149184D02*
X16876925Y-9149184D01*
X16876925Y-9149184D02*
X16895973Y-9139660D01*
X16895973Y-9139660D02*
X16905496Y-9120612D01*
X16905496Y-9120612D02*
X16905496Y-9111089D01*
X16905496Y-9111089D02*
X16895973Y-9092041D01*
X16895973Y-9092041D02*
X16876925Y-9082517D01*
X16876925Y-9082517D02*
X16848353Y-9082517D01*
X16848353Y-9082517D02*
X16829306Y-9072993D01*
X16829306Y-9072993D02*
X16819782Y-9053946D01*
X16819782Y-9053946D02*
X16819782Y-9044422D01*
X16819782Y-9044422D02*
X16829306Y-9025374D01*
X16829306Y-9025374D02*
X16848353Y-9015850D01*
X16848353Y-9015850D02*
X16876925Y-9015850D01*
X16876925Y-9015850D02*
X16895973Y-9025374D01*
X16972163Y-9225374D02*
X16981687Y-9215850D01*
X16981687Y-9215850D02*
X17000734Y-9187279D01*
X17000734Y-9187279D02*
X17010258Y-9168231D01*
X17010258Y-9168231D02*
X17019782Y-9139660D01*
X17019782Y-9139660D02*
X17029306Y-9092041D01*
X17029306Y-9092041D02*
X17029306Y-9053946D01*
X17029306Y-9053946D02*
X17019782Y-9006327D01*
X17019782Y-9006327D02*
X17010258Y-8977755D01*
X17010258Y-8977755D02*
X17000734Y-8958708D01*
X17000734Y-8958708D02*
X16981687Y-8930136D01*
X16981687Y-8930136D02*
X16972163Y-8920612D01*
D16*
X12017100Y-9231700D02*
X12197100Y-9411700D01*
X12197100Y-9231700D02*
X12017100Y-9411700D01*
X12197100Y-9321700D02*
G75*
G03*
X12197100Y-9321700I-90000J0D01*
G01*
D11*
X12562639Y-9413184D02*
X12448353Y-9413184D01*
X12505496Y-9413184D02*
X12505496Y-9213184D01*
X12505496Y-9213184D02*
X12486448Y-9241755D01*
X12486448Y-9241755D02*
X12467401Y-9260803D01*
X12467401Y-9260803D02*
X12448353Y-9270327D01*
X12648353Y-9394136D02*
X12657877Y-9403660D01*
X12657877Y-9403660D02*
X12648353Y-9413184D01*
X12648353Y-9413184D02*
X12638829Y-9403660D01*
X12638829Y-9403660D02*
X12648353Y-9394136D01*
X12648353Y-9394136D02*
X12648353Y-9413184D01*
X12772162Y-9298898D02*
X12753115Y-9289374D01*
X12753115Y-9289374D02*
X12743591Y-9279850D01*
X12743591Y-9279850D02*
X12734067Y-9260803D01*
X12734067Y-9260803D02*
X12734067Y-9251279D01*
X12734067Y-9251279D02*
X12743591Y-9232231D01*
X12743591Y-9232231D02*
X12753115Y-9222708D01*
X12753115Y-9222708D02*
X12772162Y-9213184D01*
X12772162Y-9213184D02*
X12810258Y-9213184D01*
X12810258Y-9213184D02*
X12829305Y-9222708D01*
X12829305Y-9222708D02*
X12838829Y-9232231D01*
X12838829Y-9232231D02*
X12848353Y-9251279D01*
X12848353Y-9251279D02*
X12848353Y-9260803D01*
X12848353Y-9260803D02*
X12838829Y-9279850D01*
X12838829Y-9279850D02*
X12829305Y-9289374D01*
X12829305Y-9289374D02*
X12810258Y-9298898D01*
X12810258Y-9298898D02*
X12772162Y-9298898D01*
X12772162Y-9298898D02*
X12753115Y-9308422D01*
X12753115Y-9308422D02*
X12743591Y-9317946D01*
X12743591Y-9317946D02*
X12734067Y-9336993D01*
X12734067Y-9336993D02*
X12734067Y-9375089D01*
X12734067Y-9375089D02*
X12743591Y-9394136D01*
X12743591Y-9394136D02*
X12753115Y-9403660D01*
X12753115Y-9403660D02*
X12772162Y-9413184D01*
X12772162Y-9413184D02*
X12810258Y-9413184D01*
X12810258Y-9413184D02*
X12829305Y-9403660D01*
X12829305Y-9403660D02*
X12838829Y-9394136D01*
X12838829Y-9394136D02*
X12848353Y-9375089D01*
X12848353Y-9375089D02*
X12848353Y-9336993D01*
X12848353Y-9336993D02*
X12838829Y-9317946D01*
X12838829Y-9317946D02*
X12829305Y-9308422D01*
X12829305Y-9308422D02*
X12810258Y-9298898D01*
X12972162Y-9213184D02*
X12991210Y-9213184D01*
X12991210Y-9213184D02*
X13010258Y-9222708D01*
X13010258Y-9222708D02*
X13019782Y-9232231D01*
X13019782Y-9232231D02*
X13029305Y-9251279D01*
X13029305Y-9251279D02*
X13038829Y-9289374D01*
X13038829Y-9289374D02*
X13038829Y-9336993D01*
X13038829Y-9336993D02*
X13029305Y-9375089D01*
X13029305Y-9375089D02*
X13019782Y-9394136D01*
X13019782Y-9394136D02*
X13010258Y-9403660D01*
X13010258Y-9403660D02*
X12991210Y-9413184D01*
X12991210Y-9413184D02*
X12972162Y-9413184D01*
X12972162Y-9413184D02*
X12953115Y-9403660D01*
X12953115Y-9403660D02*
X12943591Y-9394136D01*
X12943591Y-9394136D02*
X12934067Y-9375089D01*
X12934067Y-9375089D02*
X12924543Y-9336993D01*
X12924543Y-9336993D02*
X12924543Y-9289374D01*
X12924543Y-9289374D02*
X12934067Y-9251279D01*
X12934067Y-9251279D02*
X12943591Y-9232231D01*
X12943591Y-9232231D02*
X12953115Y-9222708D01*
X12953115Y-9222708D02*
X12972162Y-9213184D01*
X13162639Y-9213184D02*
X13181686Y-9213184D01*
X13181686Y-9213184D02*
X13200734Y-9222708D01*
X13200734Y-9222708D02*
X13210258Y-9232231D01*
X13210258Y-9232231D02*
X13219782Y-9251279D01*
X13219782Y-9251279D02*
X13229305Y-9289374D01*
X13229305Y-9289374D02*
X13229305Y-9336993D01*
X13229305Y-9336993D02*
X13219782Y-9375089D01*
X13219782Y-9375089D02*
X13210258Y-9394136D01*
X13210258Y-9394136D02*
X13200734Y-9403660D01*
X13200734Y-9403660D02*
X13181686Y-9413184D01*
X13181686Y-9413184D02*
X13162639Y-9413184D01*
X13162639Y-9413184D02*
X13143591Y-9403660D01*
X13143591Y-9403660D02*
X13134067Y-9394136D01*
X13134067Y-9394136D02*
X13124543Y-9375089D01*
X13124543Y-9375089D02*
X13115020Y-9336993D01*
X13115020Y-9336993D02*
X13115020Y-9289374D01*
X13115020Y-9289374D02*
X13124543Y-9251279D01*
X13124543Y-9251279D02*
X13134067Y-9232231D01*
X13134067Y-9232231D02*
X13143591Y-9222708D01*
X13143591Y-9222708D02*
X13162639Y-9213184D01*
X13315020Y-9413184D02*
X13315020Y-9279850D01*
X13315020Y-9298898D02*
X13324543Y-9289374D01*
X13324543Y-9289374D02*
X13343591Y-9279850D01*
X13343591Y-9279850D02*
X13372163Y-9279850D01*
X13372163Y-9279850D02*
X13391210Y-9289374D01*
X13391210Y-9289374D02*
X13400734Y-9308422D01*
X13400734Y-9308422D02*
X13400734Y-9413184D01*
X13400734Y-9308422D02*
X13410258Y-9289374D01*
X13410258Y-9289374D02*
X13429305Y-9279850D01*
X13429305Y-9279850D02*
X13457877Y-9279850D01*
X13457877Y-9279850D02*
X13476924Y-9289374D01*
X13476924Y-9289374D02*
X13486448Y-9308422D01*
X13486448Y-9308422D02*
X13486448Y-9413184D01*
X13581686Y-9413184D02*
X13581686Y-9279850D01*
X13581686Y-9298898D02*
X13591210Y-9289374D01*
X13591210Y-9289374D02*
X13610258Y-9279850D01*
X13610258Y-9279850D02*
X13638829Y-9279850D01*
X13638829Y-9279850D02*
X13657877Y-9289374D01*
X13657877Y-9289374D02*
X13667401Y-9308422D01*
X13667401Y-9308422D02*
X13667401Y-9413184D01*
X13667401Y-9308422D02*
X13676924Y-9289374D01*
X13676924Y-9289374D02*
X13695972Y-9279850D01*
X13695972Y-9279850D02*
X13724543Y-9279850D01*
X13724543Y-9279850D02*
X13743591Y-9289374D01*
X13743591Y-9289374D02*
X13753115Y-9308422D01*
X13753115Y-9308422D02*
X13753115Y-9413184D01*
X14143591Y-9203660D02*
X13972163Y-9460803D01*
X14400734Y-9213184D02*
X14419782Y-9213184D01*
X14419782Y-9213184D02*
X14438829Y-9222708D01*
X14438829Y-9222708D02*
X14448353Y-9232231D01*
X14448353Y-9232231D02*
X14457877Y-9251279D01*
X14457877Y-9251279D02*
X14467401Y-9289374D01*
X14467401Y-9289374D02*
X14467401Y-9336993D01*
X14467401Y-9336993D02*
X14457877Y-9375089D01*
X14457877Y-9375089D02*
X14448353Y-9394136D01*
X14448353Y-9394136D02*
X14438829Y-9403660D01*
X14438829Y-9403660D02*
X14419782Y-9413184D01*
X14419782Y-9413184D02*
X14400734Y-9413184D01*
X14400734Y-9413184D02*
X14381686Y-9403660D01*
X14381686Y-9403660D02*
X14372163Y-9394136D01*
X14372163Y-9394136D02*
X14362639Y-9375089D01*
X14362639Y-9375089D02*
X14353115Y-9336993D01*
X14353115Y-9336993D02*
X14353115Y-9289374D01*
X14353115Y-9289374D02*
X14362639Y-9251279D01*
X14362639Y-9251279D02*
X14372163Y-9232231D01*
X14372163Y-9232231D02*
X14381686Y-9222708D01*
X14381686Y-9222708D02*
X14400734Y-9213184D01*
X14553115Y-9394136D02*
X14562639Y-9403660D01*
X14562639Y-9403660D02*
X14553115Y-9413184D01*
X14553115Y-9413184D02*
X14543591Y-9403660D01*
X14543591Y-9403660D02*
X14553115Y-9394136D01*
X14553115Y-9394136D02*
X14553115Y-9413184D01*
X14686448Y-9213184D02*
X14705496Y-9213184D01*
X14705496Y-9213184D02*
X14724544Y-9222708D01*
X14724544Y-9222708D02*
X14734067Y-9232231D01*
X14734067Y-9232231D02*
X14743591Y-9251279D01*
X14743591Y-9251279D02*
X14753115Y-9289374D01*
X14753115Y-9289374D02*
X14753115Y-9336993D01*
X14753115Y-9336993D02*
X14743591Y-9375089D01*
X14743591Y-9375089D02*
X14734067Y-9394136D01*
X14734067Y-9394136D02*
X14724544Y-9403660D01*
X14724544Y-9403660D02*
X14705496Y-9413184D01*
X14705496Y-9413184D02*
X14686448Y-9413184D01*
X14686448Y-9413184D02*
X14667401Y-9403660D01*
X14667401Y-9403660D02*
X14657877Y-9394136D01*
X14657877Y-9394136D02*
X14648353Y-9375089D01*
X14648353Y-9375089D02*
X14638829Y-9336993D01*
X14638829Y-9336993D02*
X14638829Y-9289374D01*
X14638829Y-9289374D02*
X14648353Y-9251279D01*
X14648353Y-9251279D02*
X14657877Y-9232231D01*
X14657877Y-9232231D02*
X14667401Y-9222708D01*
X14667401Y-9222708D02*
X14686448Y-9213184D01*
X14819782Y-9213184D02*
X14953115Y-9213184D01*
X14953115Y-9213184D02*
X14867401Y-9413184D01*
X15067401Y-9213184D02*
X15086448Y-9213184D01*
X15086448Y-9213184D02*
X15105496Y-9222708D01*
X15105496Y-9222708D02*
X15115020Y-9232231D01*
X15115020Y-9232231D02*
X15124544Y-9251279D01*
X15124544Y-9251279D02*
X15134067Y-9289374D01*
X15134067Y-9289374D02*
X15134067Y-9336993D01*
X15134067Y-9336993D02*
X15124544Y-9375089D01*
X15124544Y-9375089D02*
X15115020Y-9394136D01*
X15115020Y-9394136D02*
X15105496Y-9403660D01*
X15105496Y-9403660D02*
X15086448Y-9413184D01*
X15086448Y-9413184D02*
X15067401Y-9413184D01*
X15067401Y-9413184D02*
X15048353Y-9403660D01*
X15048353Y-9403660D02*
X15038829Y-9394136D01*
X15038829Y-9394136D02*
X15029306Y-9375089D01*
X15029306Y-9375089D02*
X15019782Y-9336993D01*
X15019782Y-9336993D02*
X15019782Y-9289374D01*
X15019782Y-9289374D02*
X15029306Y-9251279D01*
X15029306Y-9251279D02*
X15038829Y-9232231D01*
X15038829Y-9232231D02*
X15048353Y-9222708D01*
X15048353Y-9222708D02*
X15067401Y-9213184D01*
X15229306Y-9413184D02*
X15267401Y-9413184D01*
X15267401Y-9413184D02*
X15286448Y-9403660D01*
X15286448Y-9403660D02*
X15295972Y-9394136D01*
X15295972Y-9394136D02*
X15315020Y-9365565D01*
X15315020Y-9365565D02*
X15324544Y-9327470D01*
X15324544Y-9327470D02*
X15324544Y-9251279D01*
X15324544Y-9251279D02*
X15315020Y-9232231D01*
X15315020Y-9232231D02*
X15305496Y-9222708D01*
X15305496Y-9222708D02*
X15286448Y-9213184D01*
X15286448Y-9213184D02*
X15248353Y-9213184D01*
X15248353Y-9213184D02*
X15229306Y-9222708D01*
X15229306Y-9222708D02*
X15219782Y-9232231D01*
X15219782Y-9232231D02*
X15210258Y-9251279D01*
X15210258Y-9251279D02*
X15210258Y-9298898D01*
X15210258Y-9298898D02*
X15219782Y-9317946D01*
X15219782Y-9317946D02*
X15229306Y-9327470D01*
X15229306Y-9327470D02*
X15248353Y-9336993D01*
X15248353Y-9336993D02*
X15286448Y-9336993D01*
X15286448Y-9336993D02*
X15305496Y-9327470D01*
X15305496Y-9327470D02*
X15315020Y-9317946D01*
X15315020Y-9317946D02*
X15324544Y-9298898D01*
X15400734Y-9213184D02*
X15400734Y-9251279D01*
X15476925Y-9213184D02*
X15476925Y-9251279D01*
X15772163Y-9489374D02*
X15762639Y-9479850D01*
X15762639Y-9479850D02*
X15743591Y-9451279D01*
X15743591Y-9451279D02*
X15734068Y-9432231D01*
X15734068Y-9432231D02*
X15724544Y-9403660D01*
X15724544Y-9403660D02*
X15715020Y-9356041D01*
X15715020Y-9356041D02*
X15715020Y-9317946D01*
X15715020Y-9317946D02*
X15724544Y-9270327D01*
X15724544Y-9270327D02*
X15734068Y-9241755D01*
X15734068Y-9241755D02*
X15743591Y-9222708D01*
X15743591Y-9222708D02*
X15762639Y-9194136D01*
X15762639Y-9194136D02*
X15772163Y-9184612D01*
X15934068Y-9279850D02*
X15934068Y-9413184D01*
X15886448Y-9203660D02*
X15838829Y-9346517D01*
X15838829Y-9346517D02*
X15962639Y-9346517D01*
X16191210Y-9413184D02*
X16191210Y-9213184D01*
X16276925Y-9413184D02*
X16276925Y-9308422D01*
X16276925Y-9308422D02*
X16267401Y-9289374D01*
X16267401Y-9289374D02*
X16248353Y-9279850D01*
X16248353Y-9279850D02*
X16219782Y-9279850D01*
X16219782Y-9279850D02*
X16200734Y-9289374D01*
X16200734Y-9289374D02*
X16191210Y-9298898D01*
X16400734Y-9413184D02*
X16381687Y-9403660D01*
X16381687Y-9403660D02*
X16372163Y-9394136D01*
X16372163Y-9394136D02*
X16362639Y-9375089D01*
X16362639Y-9375089D02*
X16362639Y-9317946D01*
X16362639Y-9317946D02*
X16372163Y-9298898D01*
X16372163Y-9298898D02*
X16381687Y-9289374D01*
X16381687Y-9289374D02*
X16400734Y-9279850D01*
X16400734Y-9279850D02*
X16429306Y-9279850D01*
X16429306Y-9279850D02*
X16448353Y-9289374D01*
X16448353Y-9289374D02*
X16457877Y-9298898D01*
X16457877Y-9298898D02*
X16467401Y-9317946D01*
X16467401Y-9317946D02*
X16467401Y-9375089D01*
X16467401Y-9375089D02*
X16457877Y-9394136D01*
X16457877Y-9394136D02*
X16448353Y-9403660D01*
X16448353Y-9403660D02*
X16429306Y-9413184D01*
X16429306Y-9413184D02*
X16400734Y-9413184D01*
X16581687Y-9413184D02*
X16562639Y-9403660D01*
X16562639Y-9403660D02*
X16553115Y-9384612D01*
X16553115Y-9384612D02*
X16553115Y-9213184D01*
X16734068Y-9403660D02*
X16715020Y-9413184D01*
X16715020Y-9413184D02*
X16676925Y-9413184D01*
X16676925Y-9413184D02*
X16657877Y-9403660D01*
X16657877Y-9403660D02*
X16648353Y-9384612D01*
X16648353Y-9384612D02*
X16648353Y-9308422D01*
X16648353Y-9308422D02*
X16657877Y-9289374D01*
X16657877Y-9289374D02*
X16676925Y-9279850D01*
X16676925Y-9279850D02*
X16715020Y-9279850D01*
X16715020Y-9279850D02*
X16734068Y-9289374D01*
X16734068Y-9289374D02*
X16743591Y-9308422D01*
X16743591Y-9308422D02*
X16743591Y-9327470D01*
X16743591Y-9327470D02*
X16648353Y-9346517D01*
X16819782Y-9403660D02*
X16838830Y-9413184D01*
X16838830Y-9413184D02*
X16876925Y-9413184D01*
X16876925Y-9413184D02*
X16895973Y-9403660D01*
X16895973Y-9403660D02*
X16905496Y-9384612D01*
X16905496Y-9384612D02*
X16905496Y-9375089D01*
X16905496Y-9375089D02*
X16895973Y-9356041D01*
X16895973Y-9356041D02*
X16876925Y-9346517D01*
X16876925Y-9346517D02*
X16848353Y-9346517D01*
X16848353Y-9346517D02*
X16829306Y-9336993D01*
X16829306Y-9336993D02*
X16819782Y-9317946D01*
X16819782Y-9317946D02*
X16819782Y-9308422D01*
X16819782Y-9308422D02*
X16829306Y-9289374D01*
X16829306Y-9289374D02*
X16848353Y-9279850D01*
X16848353Y-9279850D02*
X16876925Y-9279850D01*
X16876925Y-9279850D02*
X16895973Y-9289374D01*
X16972163Y-9489374D02*
X16981687Y-9479850D01*
X16981687Y-9479850D02*
X17000734Y-9451279D01*
X17000734Y-9451279D02*
X17010258Y-9432231D01*
X17010258Y-9432231D02*
X17019782Y-9403660D01*
X17019782Y-9403660D02*
X17029306Y-9356041D01*
X17029306Y-9356041D02*
X17029306Y-9317946D01*
X17029306Y-9317946D02*
X17019782Y-9270327D01*
X17019782Y-9270327D02*
X17010258Y-9241755D01*
X17010258Y-9241755D02*
X17000734Y-9222708D01*
X17000734Y-9222708D02*
X16981687Y-9194136D01*
X16981687Y-9194136D02*
X16972163Y-9184612D01*
M02*
