M48
; DRILL file {KiCad 8.0.0-rc1} date 2025-03-14T10:19:52+0300
; FORMAT={-:-/ absolute / inch / decimal}
; #@! TF.CreationDate,2025-03-14T10:19:52+03:00
; #@! TF.GenerationSoftware,Kicad,Pcbnew,8.0.0-rc1
; #@! TF.FileFunction,Plated,1,6,PTH
FMAT,2
INCH
; #@! TA.AperFunction,Plated,PTH,ViaDrill
T1C0.0079
; #@! TA.AperFunction,Plated,PTH,ComponentDrill
T2C0.0177
%
G90
G05
T1
X4.5994Y-3.8393
X4.6497Y-3.819
X4.6498Y-3.7373
X4.6845Y-3.7275
X4.7272Y-3.6151
X4.8242Y-4.005
X4.8246Y-3.8908
X4.8707Y-3.8137
X4.8731Y-3.8554
X4.8737Y-3.7859
X4.8805Y-4.0593
X4.886Y-3.8004
X4.8877Y-3.8726
X4.8979Y-3.8403
X4.901Y-3.886
X4.9103Y-3.825
X4.9149Y-3.9278
X4.9189Y-4.0077
X4.9287Y-3.874
X4.9329Y-4.092
X4.9373Y-3.7826
X4.952Y-3.9278
X4.9551Y-3.878
X4.9582Y-3.5063
X4.9742Y-3.82
X4.978Y-3.7478
X4.978Y-3.784
X4.9869Y-4.0106
X4.9939Y-3.8412
X4.9961Y-3.8011
X4.9977Y-3.7676
X5.014Y-3.7845
X5.0142Y-3.8202
X5.0146Y-3.7473
X5.0217Y-3.6949
X5.0311Y-3.7999
X5.0317Y-3.7283
X5.0323Y-3.8745
X5.0345Y-3.7682
X5.036Y-3.8389
X5.0404Y-4.2102
X5.0471Y-3.6763
X5.0498Y-3.7834
X5.0504Y-3.8202
X5.0504Y-3.8564
X5.0504Y-3.8926
X5.0518Y-3.7094
X5.052Y-3.7485
X5.0549Y-4.1637
X5.0588Y-4.2401
X5.0685Y-3.8021
X5.0685Y-3.8383
X5.0685Y-3.8745
X5.0687Y-3.7633
X5.0714Y-3.4692
X5.0731Y-3.6444
X5.0741Y-3.9234
X5.0784Y-3.5588
X5.0866Y-3.784
X5.0866Y-3.8202
X5.087Y-3.856
X5.0884Y-3.505
X5.0945Y-3.5426
X5.1022Y-3.4436
X5.1045Y-3.7284
X5.1047Y-3.6212
X5.1047Y-3.6574
X5.1047Y-3.7659
X5.1047Y-3.8021
X5.1047Y-3.8383
X5.1047Y-3.9107
X5.1047Y-3.9469
X5.1053Y-3.4933
X5.1054Y-3.8749
X5.1142Y-3.5198
X5.116Y-4.2188
X5.1171Y-3.429
X5.1196Y-3.9625
X5.1215Y-3.4771
X5.1228Y-3.6393
X5.1228Y-3.6754
X5.1228Y-3.7478
X5.1228Y-3.784
X5.1228Y-3.9288
X5.1228Y-3.896
X5.1313Y-4.2377
X5.1367Y-3.5859
X5.1405Y-3.9821
X5.1409Y-3.6574
X5.1409Y-3.6935
X5.1409Y-3.7659
X5.1409Y-3.8383
X5.1409Y-3.8745
X5.151Y-4.2908
X5.151Y-4.3097
X5.1514Y-3.3802
X5.1567Y-3.4099
X5.1582Y-3.8209
X5.159Y-3.6031
X5.159Y-3.6754
X5.159Y-3.7116
X5.159Y-3.8926
X5.159Y-3.9288
X5.159Y-3.965
X5.1598Y-4.0004
X5.1679Y-3.3664
X5.175Y-3.9101
X5.1766Y-3.8389
X5.1771Y-3.5488
X5.1771Y-3.6212
X5.1771Y-3.6935
X5.1771Y-3.9469
X5.1771Y-3.9831
X5.1784Y-3.8031
X5.1943Y-3.5271
X5.1947Y-4.1393
X5.1951Y-3.5688
X5.1952Y-4.0374
X5.1952Y-3.6393
X5.1952Y-3.6754
X5.1952Y-3.8202
X5.1952Y-3.8926
X5.1952Y-3.9288
X5.1952Y-3.965
X5.1957Y-3.7839
X5.1961Y-4.0002
X5.2012Y-4.1138
X5.2085Y-4.1593
X5.2119Y-3.5474
X5.2124Y-3.8019
X5.2127Y-3.6579
X5.2127Y-3.7659
X5.2128Y-4.0563
X5.2128Y-3.5861
X5.2133Y-3.9469
X5.2133Y-3.8383
X5.2133Y-3.8745
X5.2133Y-3.9831
X5.2137Y-3.6939
X5.2137Y-3.7299
X5.2137Y-3.506
X5.2159Y-4.021
X5.2246Y-4.17
X5.2258Y-4.0373
X5.2277Y-4.3181
X5.2297Y-3.6046
X5.2307Y-3.7839
X5.2313Y-3.9964
X5.2314Y-3.965
X5.2314Y-3.5669
X5.2314Y-3.6393
X5.2314Y-3.6754
X5.2314Y-3.8564
X5.2314Y-3.8926
X5.2317Y-3.7479
X5.2329Y-3.5279
X5.2345Y-4.1887
X5.2416Y-4.3504
X5.2467Y-4.0949
X5.2472Y-4.2033
X5.2486Y-3.4775
X5.249Y-3.7649
X5.2491Y-3.9472
X5.2494Y-4.016
X5.2495Y-3.585
X5.2495Y-3.5488
X5.2495Y-3.6574
X5.2495Y-3.6935
X5.2495Y-3.8021
X5.2495Y-3.8383
X5.2495Y-3.8745
X5.2495Y-3.9107
X5.2497Y-4.0564
X5.2546Y-4.3839
X5.2667Y-3.4574
X5.2671Y-3.4975
X5.2675Y-3.8223
X5.2675Y-3.9251
X5.2675Y-3.966
X5.2676Y-3.8564
X5.2676Y-3.8926
X5.2676Y-3.6754
X5.2676Y-3.7116
X5.2677Y-4.1139
X5.2681Y-4.0748
X5.2682Y-4.0003
X5.2683Y-3.6038
X5.2687Y-3.7838
X5.269Y-4.0382
X5.2707Y-4.2515
X5.2716Y-4.1759
X5.279Y-4.1975
X5.2805Y-4.2176
X5.2806Y-4.3915
X5.2827Y-4.1009
X5.2839Y-3.5143
X5.2845Y-4.2653
X5.2853Y-3.4361
X5.2853Y-4.0206
X5.2857Y-3.8745
X5.2857Y-3.4764
X5.2857Y-3.6212
X5.2857Y-3.6574
X5.2857Y-3.6935
X5.2857Y-3.9107
X5.2857Y-3.946
X5.2864Y-3.803
X5.2873Y-3.5865
X5.2936Y-4.4366
X5.2979Y-4.4066
X5.2982Y-4.0873
X5.3018Y-3.3574
X5.3034Y-4.0015
X5.3038Y-3.4945
X5.3038Y-3.5669
X5.3038Y-3.6031
X5.3038Y-3.6754
X5.3038Y-3.7116
X5.3038Y-3.7478
X5.3038Y-3.8564
X5.3038Y-3.8926
X5.3038Y-3.8239
X5.3038Y-3.9247
X5.3039Y-3.4568
X5.3042Y-3.4169
X5.3042Y-3.9654
X5.3057Y-4.0382
X5.3069Y-3.531
X5.3075Y-4.4505
X5.3109Y-4.2679
X5.3215Y-3.5471
X5.3218Y-3.585
X5.3218Y-3.6212
X5.3218Y-3.6935
X5.3218Y-3.7297
X5.3218Y-3.7659
X5.3218Y-3.8021
X5.3218Y-3.8745
X5.3224Y-3.4752
X5.3231Y-3.4369
X5.3231Y-3.9456
X5.3237Y-3.9849
X5.3283Y-4.0562
X5.329Y-3.3265
X5.3317Y-3.244
X5.3368Y-4.2843
X5.3381Y-4.2637
X5.3395Y-3.9249
X5.3396Y-3.5353
X5.3396Y-3.6054
X5.3396Y-3.9625
X5.3397Y-3.6389
X5.3399Y-3.7116
X5.3399Y-3.7478
X5.3399Y-3.8564
X5.3399Y-3.8926
X5.34Y-4.003
X5.3407Y-3.7839
X5.3408Y-3.5688
X5.3413Y-3.4935
X5.3414Y-3.4568
X5.3459Y-3.2278
X5.3462Y-3.2562
X5.3464Y-4.0374
X5.3472Y-3.3451
X5.349Y-3.3065
X5.3514Y-4.3263
X5.3561Y-3.5507
X5.358Y-3.7297
X5.358Y-3.8021
X5.358Y-3.8745
X5.3581Y-3.5153
X5.3587Y-3.7669
X5.3587Y-3.9438
X5.3597Y-3.9816
X5.3612Y-3.4763
X5.3657Y-3.3634
X5.3659Y-4.0201
X5.3668Y-4.3082
X5.3703Y-3.2242
X5.3727Y-3.7839
X5.3731Y-3.2054
X5.3734Y-3.3361
X5.3755Y-3.295
X5.3757Y-3.7479
X5.3757Y-3.8199
X5.3761Y-3.5307
X5.3761Y-3.6031
X5.3761Y-3.6393
X5.3761Y-3.6754
X5.3761Y-3.8926
X5.3761Y-3.965
X5.3767Y-3.7109
X5.3797Y-3.8559
X5.3817Y-4.2964
X5.3828Y-3.3832
X5.3834Y-4.2752
X5.3846Y-4.0013
X5.389Y-4.383
X5.3923Y-3.355
X5.3942Y-3.5126
X5.3942Y-3.6935
X5.3942Y-3.8021
X5.3968Y-3.0518
X5.3969Y-3.2057
X5.3986Y-3.9853
X5.399Y-4.1897
X5.3995Y-3.4033
X5.4016Y-4.2241
X5.4042Y-4.4223
X5.4112Y-3.3735
X5.4123Y-3.8564
X5.4123Y-3.8926
X5.4123Y-3.9288
X5.4123Y-3.5669
X5.4123Y-3.6031
X5.4123Y-3.6754
X5.4123Y-3.7116
X5.4123Y-3.784
X5.4123Y-3.8202
X5.4128Y-3.6371
X5.4133Y-3.0426
X5.4167Y-3.7479
X5.4192Y-3.4212
X5.4195Y-4.4397
X5.4217Y-3.9499
X5.429Y-4.2152
X5.4291Y-4.3551
X5.4293Y-3.0326
X5.4293Y-3.5838
X5.4297Y-3.392
X5.4304Y-3.8383
X5.4304Y-3.8745
X5.4304Y-3.9107
X5.4304Y-3.6212
X5.4304Y-3.7297
X5.4304Y-3.7659
X5.4307Y-3.6929
X5.4327Y-3.5459
X5.4331Y-3.6613
X5.4373Y-3.44
X5.4376Y-4.459
X5.4416Y-3.3487
X5.4482Y-3.6042
X5.4485Y-3.8564
X5.4485Y-3.8926
X5.4487Y-3.7119
X5.4488Y-3.4111
X5.4514Y-4.1554
X5.4527Y-3.9299
X5.4534Y-4.1286
X5.4543Y-4.1001
X5.456Y-3.4612
X5.4565Y-4.4775
X5.4628Y-3.3479
X5.4664Y-4.0704
X5.4666Y-3.6212
X5.4666Y-3.6935
X5.4666Y-3.7297
X5.4666Y-3.8021
X5.4666Y-3.8383
X5.4666Y-3.8745
X5.4668Y-3.4315
X5.4671Y-3.6534
X5.4727Y-4.1731
X5.4728Y-3.587
X5.4731Y-4.5019
X5.4773Y-4.1153
X5.4796Y-4.0558
X5.4796Y-4.1424
X5.4797Y-4.088
X5.4801Y-3.475
X5.4807Y-3.5264
X5.4836Y-3.8989
X5.4847Y-3.6031
X5.4847Y-3.6393
X5.4847Y-3.7116
X5.4847Y-3.7478
X5.4847Y-3.8564
X5.4847Y-3.784
X5.486Y-3.4491
X5.487Y-4.4889
X5.4871Y-3.3415
X5.4933Y-3.5121
X5.4959Y-4.3908
X5.4994Y-4.218
X5.501Y-4.3279
X5.5016Y-3.0462
X5.5028Y-3.6574
X5.5028Y-3.6935
X5.5028Y-3.8383
X5.5028Y-3.8021
X5.5028Y-3.7659
X5.5062Y-3.4704
X5.5063Y-3.5708
X5.5066Y-4.4877
X5.5151Y-4.6822
X5.5168Y-3.4263
X5.5187Y-3.7809
X5.5201Y-3.6354
X5.5204Y-3.8621
X5.5209Y-3.6754
X5.5209Y-3.8202
X5.5209Y-3.7478
X5.5209Y-3.5488
X5.537Y-2.8606
X5.539Y-3.6935
X5.539Y-3.8021
X5.539Y-3.8383
X5.539Y-3.7659
X5.5394Y-3.6558
X5.5467Y-4.1908
X5.5564Y-3.8278
X5.5569Y-3.418
X5.5571Y-3.7116
X5.5571Y-3.7478
X5.5571Y-3.784
X5.5624Y-4.7042
X5.5654Y-2.8418
X5.5677Y-3.6809
X5.5734Y-4.7373
X5.5736Y-4.1374
X5.5752Y-3.7659
X5.5774Y-4.2771
X5.5827Y-3.3445
X5.5856Y-4.0954
X5.5869Y-3.7023
X5.5904Y-3.3845
X5.5919Y-4.618
X5.5927Y-4.2464
X5.5933Y-3.7478
X5.5981Y-4.1595
X5.605Y-3.343
X5.6056Y-4.2174
X5.6057Y-3.7789
X5.606Y-3.1911
X5.6103Y-3.424
X5.611Y-4.7572
X5.6158Y-3.3592
X5.6187Y-3.7319
X5.6202Y-4.1595
X5.6207Y-3.7639
X5.621Y-3.5456
X5.6264Y-2.8817
X5.6329Y-3.1642
X5.6336Y-4.0174
X5.6337Y-3.7476
X5.6439Y-2.8975
X5.6456Y-3.3886
X5.6476Y-4.0954
X5.6506Y-4.2656
X5.6621Y-3.5323
X5.6666Y-3.4664
X5.6679Y-4.5869
X5.6687Y-3.4247
X5.6742Y-4.1853
X5.6776Y-4.0614
X5.6797Y-3.5146
X5.681Y-3.381
X5.6813Y-4.2361
X5.6839Y-3.234
X5.6877Y-3.3379
X5.6922Y-3.8794
X5.6929Y-3.424
X5.6937Y-4.3119
X5.7014Y-3.7405
X5.7027Y-3.2678
X5.7043Y-3.5562
X5.7076Y-3.7134
X5.7097Y-2.9515
X5.7166Y-4.2224
X5.717Y-3.6033
X5.7185Y-3.3064
X5.7191Y-4.2669
X5.7196Y-3.6794
X5.7199Y-2.8046
X5.722Y-3.9713
X5.7241Y-3.5406
X5.7269Y-3.4346
X5.7276Y-3.7134
X5.7276Y-4.1114
X5.7325Y-4.0459
X5.7356Y-2.7912
X5.7375Y-3.381
X5.7377Y-3.3379
X5.7436Y-3.7414
X5.7437Y-4.3119
X5.7459Y-3.5406
X5.7476Y-4.1734
X5.7486Y-3.7214
X5.7616Y-3.9414
X5.7636Y-2.6345
X5.7694Y-3.5265
X5.7743Y-4.0533
X5.7746Y-2.7318
X5.7787Y-3.9136
X5.7805Y-3.2865
X5.7888Y-4.6223
X5.7898Y-3.9997
X5.7907Y-3.3379
X5.7931Y-4.1365
X5.7955Y-4.0674
X5.7956Y-3.9014
X5.7976Y-3.5194
X5.8017Y-4.3119
X5.8076Y-3.7994
X5.8076Y-3.8394
X5.8088Y-4.2222
X5.81Y-3.7562
X5.8117Y-4.0079
X5.8128Y-3.2794
X5.8164Y-4.605
X5.8171Y-2.9948
X5.8197Y-4.0269
X5.8255Y-3.5237
X5.8259Y-4.1049
X5.8259Y-3.381
X5.8259Y-3.424
X5.8262Y-4.4487
X5.8287Y-4.2669
X5.8293Y-3.2952
X5.8347Y-4.0119
X5.8356Y-4.1303
X5.8361Y-4.1802
X5.8364Y-4.57
X5.8379Y-3.7596
X5.8427Y-2.6637
X5.8444Y-3.8765
X5.845Y-4.2222
X5.8471Y-4.0639
X5.8507Y-3.3379
X5.8507Y-3.5088
X5.8538Y-2.955
X5.8591Y-3.6714
X5.8616Y-3.7234
X5.8648Y-3.4664
X5.8657Y-3.8949
X5.8677Y-3.9739
X5.8687Y-4.4995
X5.8704Y-4.107
X5.8711Y-4.0724
X5.8719Y-3.381
X5.8722Y-4.135
X5.8733Y-3.8341
X5.8754Y-4.0172
X5.8762Y-4.4487
X5.8767Y-4.3119
X5.879Y-3.424
X5.8803Y-4.1802
X5.8852Y-4.0865
X5.8874Y-3.5795
X5.8874Y-3.6007
X5.8874Y-4.2222
X5.8907Y-4.2669
X5.8909Y-4.0031
X5.8931Y-3.4664
X5.8937Y-3.6819
X5.8945Y-3.6361
X5.8947Y-3.8379
X5.8999Y-3.9244
X5.9038Y-4.3771
X5.9123Y-2.7369
X5.9147Y-3.3379
X5.9178Y-4.1219
X5.9179Y-3.381
X5.9214Y-3.424
X5.9214Y-3.4664
X5.9223Y-3.5927
X5.9239Y-3.927
X5.9249Y-3.6439
X5.9256Y-4.001
X5.9267Y-4.2669
X5.927Y-2.753
X5.9277Y-3.8419
X5.9291Y-3.7556
X5.9301Y-2.8767
X5.9311Y-4.4324
X5.9317Y-4.0849
X5.9429Y-4.4595
X5.9433Y-4.1261
X5.9467Y-4.3117
X5.9571Y-4.4719
X5.9581Y-3.564
X5.9587Y-3.7229
X5.9597Y-3.6949
X5.9597Y-3.9339
X5.9602Y-3.7514
X5.9607Y-4.0989
X5.9608Y-3.5938
X5.9608Y-3.6194
X5.9608Y-4.0032
X5.962Y-3.2779
X5.9627Y-3.8772
X5.9648Y-3.424
X5.9709Y-3.381
X5.9777Y-3.3379
X5.9801Y-4.2235
X5.9817Y-3.5069
X5.9821Y-2.8082
X5.9832Y-4.4632
X5.9864Y-3.5937
X5.9864Y-4.0032
X5.9882Y-3.6979
X5.9887Y-4.0339
X5.9888Y-3.7508
X5.9893Y-3.8964
X5.9897Y-3.5649
X5.9897Y-3.7199
X5.9897Y-3.8739
X5.9897Y-3.9549
X5.9902Y-3.6181
X5.9913Y-4.1322
X5.9915Y-2.9613
X5.9916Y-3.2952
X5.9917Y-3.8499
X5.9928Y-3.5435
X5.993Y-4.1739
X6.0005Y-4.0816
X6.0027Y-3.5109
X6.0077Y-4.2679
X6.0097Y-2.9857
X6.0127Y-4.2159
X6.0132Y-4.1311
X6.0156Y-3.8473
X6.0157Y-3.7519
X6.0187Y-3.8699
X6.0196Y-3.5944
X6.0199Y-4.3129
X6.0207Y-3.9299
X6.0209Y-3.7247
X6.021Y-3.6674
X6.0227Y-4.0089
X6.0228Y-3.9624
X6.0275Y-3.381
X6.0307Y-3.5079
X6.0328Y-4.1237
X6.0351Y-4.173
X6.0404Y-4.2349
X6.0467Y-4.0779
X6.0469Y-3.8522
X6.0477Y-3.3379
X6.0485Y-3.5435
X6.049Y-3.285
X6.0493Y-3.5689
X6.0498Y-3.5934
X6.0502Y-3.9072
X6.0536Y-3.9437
X6.0541Y-4.0563
X6.0544Y-4.0338
X6.0547Y-4.0069
X6.0565Y-4.1141
X6.0566Y-3.8297
X6.0577Y-3.7049
X6.0578Y-3.6311
X6.0592Y-3.2679
X6.0601Y-2.8869
X6.0639Y-3.4405
X6.0656Y-3.294
X6.0697Y-4.2679
X6.0699Y-3.381
X6.0712Y-3.6578
X6.0712Y-3.7492
X6.0717Y-3.9539
X6.0719Y-4.2003
X6.0736Y-3.0119
X6.0742Y-3.2535
X6.0748Y-3.8433
X6.0783Y-3.6997
X6.0864Y-3.2948
X6.0918Y-3.4813
X6.0967Y-4.2819
X6.0987Y-3.9459
X6.1017Y-3.6142
X6.1032Y-4.17
X6.1065Y-3.2975
X6.1085Y-4.2282
X6.1094Y-3.6652
X6.113Y-3.6364
X6.1137Y-3.6997
X6.1137Y-3.9713
X6.1144Y-3.897
X6.1148Y-2.9475
X6.1155Y-3.2777
X6.1168Y-3.0027
X6.1177Y-3.5889
X6.1193Y-4.0043
X6.1206Y-4.1101
X6.1207Y-3.4593
X6.1215Y-4.0568
X6.1219Y-3.3113
X6.1222Y-3.7973
X6.1327Y-3.5139
X6.1351Y-4.1369
X6.1407Y-3.6729
X6.1412Y-3.3034
X6.1421Y-3.5443
X6.1439Y-4.0288
X6.144Y-3.5937
X6.146Y-3.9286
X6.1474Y-3.9032
X6.1476Y-4.0027
X6.1483Y-3.4869
X6.1504Y-3.6955
X6.1513Y-3.7973
X6.153Y-3.5212
X6.1537Y-4.1839
X6.1556Y-3.3178
X6.1587Y-4.2619
X6.1589Y-4.1172
X6.1637Y-4.2133
X6.1652Y-4.0908
X6.1731Y-3.3379
X6.1748Y-3.8491
X6.1754Y-4.0032
X6.1759Y-3.3872
X6.1766Y-3.9833
X6.1767Y-3.9009
X6.1773Y-3.7997
X6.1773Y-4.025
X6.1778Y-3.0212
X6.178Y-3.6425
X6.1783Y-3.6932
X6.1787Y-3.5682
X6.1794Y-3.5944
X6.1795Y-3.9282
X6.1813Y-3.7217
X6.1814Y-3.4123
X6.1814Y-3.434
X6.1819Y-3.7467
X6.1821Y-4.0534
X6.1915Y-4.083
X6.1919Y-3.4806
X6.1936Y-3.5109
X6.1949Y-3.4558
X6.1968Y-3.1407
X6.2021Y-3.8023
X6.2057Y-3.6475
X6.2068Y-3.6193
X6.2069Y-3.5938
X6.2075Y-3.6842
X6.2077Y-3.9519
X6.2087Y-4.2109
X6.2097Y-3.9239
X6.2097Y-3.9809
X6.21Y-3.8725
X6.2104Y-4.0067
X6.2107Y-3.8476
X6.2107Y-3.7469
X6.2128Y-3.7217
X6.2162Y-3.8164
X6.2384Y-3.7217
X6.2389Y-3.8502
X6.2396Y-3.7563
X6.241Y-4.0024
X6.2416Y-3.4463
X6.2417Y-3.5944
X6.2436Y-3.6713
X6.244Y-3.9005
X6.2443Y-3.8753
X6.2622Y-3.8058
X6.2627Y-4.0859
X6.2691Y-3.6713
X6.2692Y-3.721
X6.2692Y-3.9271
X6.2696Y-4.0285
X6.2707Y-3.5937
X6.2707Y-3.7465
X6.2711Y-3.8996
X6.2724Y-3.8522
X6.2727Y-3.1385
X6.2727Y-3.6319
X6.2734Y-4.0067
X6.2735Y-3.5682
X6.2738Y-3.1641
X6.2742Y-4.1629
X6.2756Y-3.452
X6.2756Y-3.881
X6.2837Y-3.9769
X6.284Y-3.4718
X6.2869Y-3.4275
X6.2999Y-3.4909
X6.3127Y-3.4509
X6.3152Y-3.6357
X6.3217Y-3.9619
X6.3223Y-4.0676
X6.3367Y-3.5259
X6.3367Y-3.5689
X6.3367Y-3.6149
X6.3441Y-4.0289
X6.3455Y-3.2436
X6.3455Y-3.7851
X6.3519Y-4.0117
X6.3585Y-3.7582
X6.3716Y-3.7865
X6.3846Y-3.7605
X6.3853Y-4.0062
X6.3967Y-3.9369
X6.3976Y-3.7862
X6.4107Y-3.7607
X6.4237Y-3.7871
X6.4317Y-3.6629
X6.4356Y-3.559
X6.4367Y-3.5834
X6.4367Y-3.7605
X6.4627Y-3.7613
X6.4668Y-3.4097
X6.4758Y-3.7893
X6.4793Y-3.3964
X6.4892Y-3.7641
X6.5022Y-3.7885
X6.5262Y-3.3231
X6.5313Y-3.696
X6.5479Y-3.6834
X6.5612Y-3.7932
X6.6089Y-3.6097
X6.6364Y-3.5818
X6.662Y-3.5562
X6.6648Y-3.4869
T2
X4.5101Y-3.7734
X4.5254Y-3.8444
X4.5352Y-3.7484
X4.5505Y-3.8695
X4.5602Y-3.7233
X4.5755Y-3.8945
X4.5853Y-3.6983
X4.6006Y-3.9196
X4.6103Y-3.6732
X4.6256Y-3.9446
X4.6354Y-3.6482
X4.6507Y-3.9697
X4.6604Y-3.6231
X4.6757Y-3.9948
X4.6855Y-3.5981
X4.7008Y-4.0198
X4.7105Y-3.573
X4.7259Y-4.0449
X4.7356Y-3.5479
X4.7509Y-4.0699
X4.7607Y-3.5229
X4.776Y-4.095
X4.7857Y-3.4978
X4.801Y-4.12
X4.8108Y-3.4728
X4.8261Y-4.1451
X4.8358Y-3.4477
X4.8511Y-4.1701
X4.8609Y-3.4227
X4.8762Y-4.1952
X4.8859Y-3.3976
X4.9012Y-4.2203
X4.911Y-3.3726
X4.9263Y-4.2453
X4.936Y-3.3475
X4.9513Y-4.2704
X4.9611Y-3.3225
X4.9764Y-4.2954
X4.9861Y-3.2974
X5.0015Y-4.3205
X5.0112Y-3.2723
X5.0265Y-4.3455
X5.0363Y-3.2473
X5.0516Y-4.3706
X5.0613Y-3.2222
X5.0766Y-4.3956
X5.0864Y-3.1972
X5.1017Y-4.4207
X5.1114Y-3.1721
X5.1267Y-4.4457
X5.1365Y-3.1471
X5.1518Y-4.4708
X5.1615Y-3.122
X5.1768Y-4.4959
X5.1866Y-3.097
X5.2019Y-4.5209
X5.2116Y-3.0719
X5.227Y-4.546
X5.2367Y-3.0468
X5.252Y-4.571
X5.2618Y-3.0218
X5.2771Y-4.5961
X5.2868Y-2.9967
X5.3021Y-4.6211
X5.3119Y-2.9717
X5.3272Y-4.6462
X5.3369Y-2.9466
X5.3522Y-4.6712
X5.362Y-2.9216
X5.3773Y-4.6963
X5.387Y-2.8965
X5.4023Y-4.7214
X5.4121Y-2.8715
X5.4274Y-4.7464
X5.4371Y-2.8464
X5.4524Y-4.7715
X5.4622Y-2.8214
X5.4775Y-4.7965
X5.4872Y-2.7963
X5.5026Y-4.8216
X5.5123Y-2.7712
X5.5276Y-4.8466
X5.5374Y-2.7462
X5.5527Y-4.8717
X5.5624Y-2.7211
X5.5875Y-2.6961
X5.6125Y-2.671
X5.6237Y-4.887
X5.6376Y-2.646
X5.6487Y-4.8619
X5.6626Y-2.6209
X5.6738Y-4.8369
X5.6877Y-2.5959
X5.6988Y-4.8118
X5.7127Y-2.5708
X5.7239Y-4.7868
X5.7378Y-2.5457
X5.7489Y-4.7617
X5.7629Y-2.5207
X5.774Y-4.7367
X5.799Y-4.7116
X5.8241Y-4.6866
X5.8338Y-2.536
X5.8492Y-4.6615
X5.8589Y-2.5611
X5.8742Y-4.6364
X5.884Y-2.5861
X5.8993Y-4.6114
X5.909Y-2.6112
X5.9243Y-4.5863
X5.9341Y-2.6362
X5.9494Y-4.5613
X5.9591Y-2.6613
X5.9744Y-4.5362
X5.9842Y-2.6863
X5.9995Y-4.5112
X6.0092Y-2.7114
X6.0245Y-4.4861
X6.0343Y-2.7364
X6.0496Y-4.4611
X6.0593Y-2.7615
X6.0746Y-4.436
X6.0844Y-2.7866
X6.0997Y-4.4109
X6.1094Y-2.8116
X6.1248Y-4.3859
X6.1345Y-2.8367
X6.1498Y-4.3608
X6.1596Y-2.8617
X6.1749Y-4.3358
X6.1846Y-2.8868
X6.1999Y-4.3107
X6.2097Y-2.9118
X6.225Y-4.2857
X6.2347Y-2.9369
X6.25Y-4.2606
X6.2598Y-2.9619
X6.2751Y-4.2356
X6.2848Y-2.987
X6.3001Y-4.2105
X6.3099Y-3.012
X6.3252Y-4.1855
X6.3349Y-3.0371
X6.3503Y-4.1604
X6.36Y-3.0622
X6.3753Y-4.1353
X6.3851Y-3.0872
X6.4004Y-4.1103
X6.4101Y-3.1123
X6.4254Y-4.0852
X6.4352Y-3.1373
X6.4505Y-4.0602
X6.4602Y-3.1624
X6.4755Y-4.0351
X6.4853Y-3.1874
X6.5006Y-4.0101
X6.5103Y-3.2125
X6.5256Y-3.985
X6.5354Y-3.2375
X6.5507Y-3.96
X6.5604Y-3.2626
X6.5757Y-3.9349
X6.5855Y-3.2877
X6.6008Y-3.9099
X6.6105Y-3.3127
X6.6259Y-3.8848
X6.6356Y-3.3378
X6.6509Y-3.8597
X6.6607Y-3.3628
X6.676Y-3.8347
X6.6857Y-3.3879
X6.701Y-3.8096
X6.7108Y-3.4129
X6.7261Y-3.7846
X6.7358Y-3.438
X6.7511Y-3.7595
X6.7609Y-3.463
X6.7762Y-3.7345
X6.7859Y-3.4881
X6.8012Y-3.7094
X6.811Y-3.5131
X6.8263Y-3.6844
X6.836Y-3.5382
X6.8514Y-3.6593
X6.8611Y-3.5633
X6.8764Y-3.6342
M30
