%TF.GenerationSoftware,KiCad,Pcbnew,8.0.0-rc1*%
%TF.CreationDate,2025-03-14T10:19:53+03:00*%
%TF.ProjectId,SMX66_V1.0,534d5836-365f-4563-912e-302e6b696361,rev?*%
%TF.SameCoordinates,Original*%
%TF.FileFunction,Drillmap*%
%TF.FilePolarity,Positive*%
%FSLAX45Y45*%
G04 Gerber Fmt 4.5, Leading zero omitted, Abs format (unit mm)*
G04 Created by KiCad (PCBNEW 8.0.0-rc1) date 2025-03-14 10:19:53*
%MOMM*%
%LPD*%
G01*
G04 APERTURE LIST*
%ADD10C,0.100000*%
%ADD11C,0.200000*%
G04 APERTURE END LIST*
D10*
X17536782Y-9160274D02*
X14213380Y-12483676D01*
X11384953Y-9655249D01*
X14708354Y-6331847D01*
X17536782Y-9160274D01*
D11*
X11640729Y-12800160D02*
X11640729Y-12600160D01*
X11640729Y-12600160D02*
X11688348Y-12600160D01*
X11688348Y-12600160D02*
X11716920Y-12609684D01*
X11716920Y-12609684D02*
X11735967Y-12628731D01*
X11735967Y-12628731D02*
X11745491Y-12647779D01*
X11745491Y-12647779D02*
X11755015Y-12685874D01*
X11755015Y-12685874D02*
X11755015Y-12714446D01*
X11755015Y-12714446D02*
X11745491Y-12752541D01*
X11745491Y-12752541D02*
X11735967Y-12771588D01*
X11735967Y-12771588D02*
X11716920Y-12790636D01*
X11716920Y-12790636D02*
X11688348Y-12800160D01*
X11688348Y-12800160D02*
X11640729Y-12800160D01*
X11840729Y-12800160D02*
X11840729Y-12666827D01*
X11840729Y-12704922D02*
X11850253Y-12685874D01*
X11850253Y-12685874D02*
X11859777Y-12676350D01*
X11859777Y-12676350D02*
X11878825Y-12666827D01*
X11878825Y-12666827D02*
X11897872Y-12666827D01*
X11964539Y-12800160D02*
X11964539Y-12666827D01*
X11964539Y-12600160D02*
X11955015Y-12609684D01*
X11955015Y-12609684D02*
X11964539Y-12619208D01*
X11964539Y-12619208D02*
X11974063Y-12609684D01*
X11974063Y-12609684D02*
X11964539Y-12600160D01*
X11964539Y-12600160D02*
X11964539Y-12619208D01*
X12088348Y-12800160D02*
X12069301Y-12790636D01*
X12069301Y-12790636D02*
X12059777Y-12771588D01*
X12059777Y-12771588D02*
X12059777Y-12600160D01*
X12193110Y-12800160D02*
X12174063Y-12790636D01*
X12174063Y-12790636D02*
X12164539Y-12771588D01*
X12164539Y-12771588D02*
X12164539Y-12600160D01*
X12421682Y-12800160D02*
X12421682Y-12600160D01*
X12421682Y-12600160D02*
X12488348Y-12743017D01*
X12488348Y-12743017D02*
X12555015Y-12600160D01*
X12555015Y-12600160D02*
X12555015Y-12800160D01*
X12735967Y-12800160D02*
X12735967Y-12695398D01*
X12735967Y-12695398D02*
X12726444Y-12676350D01*
X12726444Y-12676350D02*
X12707396Y-12666827D01*
X12707396Y-12666827D02*
X12669301Y-12666827D01*
X12669301Y-12666827D02*
X12650253Y-12676350D01*
X12735967Y-12790636D02*
X12716920Y-12800160D01*
X12716920Y-12800160D02*
X12669301Y-12800160D01*
X12669301Y-12800160D02*
X12650253Y-12790636D01*
X12650253Y-12790636D02*
X12640729Y-12771588D01*
X12640729Y-12771588D02*
X12640729Y-12752541D01*
X12640729Y-12752541D02*
X12650253Y-12733493D01*
X12650253Y-12733493D02*
X12669301Y-12723969D01*
X12669301Y-12723969D02*
X12716920Y-12723969D01*
X12716920Y-12723969D02*
X12735967Y-12714446D01*
X12831206Y-12666827D02*
X12831206Y-12866827D01*
X12831206Y-12676350D02*
X12850253Y-12666827D01*
X12850253Y-12666827D02*
X12888348Y-12666827D01*
X12888348Y-12666827D02*
X12907396Y-12676350D01*
X12907396Y-12676350D02*
X12916920Y-12685874D01*
X12916920Y-12685874D02*
X12926444Y-12704922D01*
X12926444Y-12704922D02*
X12926444Y-12762065D01*
X12926444Y-12762065D02*
X12916920Y-12781112D01*
X12916920Y-12781112D02*
X12907396Y-12790636D01*
X12907396Y-12790636D02*
X12888348Y-12800160D01*
X12888348Y-12800160D02*
X12850253Y-12800160D01*
X12850253Y-12800160D02*
X12831206Y-12790636D01*
X13012158Y-12781112D02*
X13021682Y-12790636D01*
X13021682Y-12790636D02*
X13012158Y-12800160D01*
X13012158Y-12800160D02*
X13002634Y-12790636D01*
X13002634Y-12790636D02*
X13012158Y-12781112D01*
X13012158Y-12781112D02*
X13012158Y-12800160D01*
X13012158Y-12676350D02*
X13021682Y-12685874D01*
X13021682Y-12685874D02*
X13012158Y-12695398D01*
X13012158Y-12695398D02*
X13002634Y-12685874D01*
X13002634Y-12685874D02*
X13012158Y-12676350D01*
X13012158Y-12676350D02*
X13012158Y-12695398D01*
M02*
