%TF.GenerationSoftware,KiCad,Pcbnew,8.0.0-rc1*%
%TF.CreationDate,2025-03-14T10:19:50+03:00*%
%TF.ProjectId,SMX66_V1.0,534d5836-365f-4563-912e-302e6b696361,rev?*%
%TF.SameCoordinates,Original*%
%TF.FileFunction,Soldermask,Bot*%
%TF.FilePolarity,Negative*%
%FSLAX46Y46*%
G04 Gerber Fmt 4.6, Leading zero omitted, Abs format (unit mm)*
G04 Created by KiCad (PCBNEW 8.0.0-rc1) date 2025-03-14 10:19:50*
%MOMM*%
%LPD*%
G01*
G04 APERTURE LIST*
G04 Aperture macros list*
%AMRoundRect*
0 Rectangle with rounded corners*
0 $1 Rounding radius*
0 $2 $3 $4 $5 $6 $7 $8 $9 X,Y pos of 4 corners*
0 Add a 4 corners polygon primitive as box body*
4,1,4,$2,$3,$4,$5,$6,$7,$8,$9,$2,$3,0*
0 Add four circle primitives for the rounded corners*
1,1,$1+$1,$2,$3*
1,1,$1+$1,$4,$5*
1,1,$1+$1,$6,$7*
1,1,$1+$1,$8,$9*
0 Add four rect primitives between the rounded corners*
20,1,$1+$1,$2,$3,$4,$5,0*
20,1,$1+$1,$4,$5,$6,$7,0*
20,1,$1+$1,$6,$7,$8,$9,0*
20,1,$1+$1,$8,$9,$2,$3,0*%
G04 Aperture macros list end*
%ADD10RoundRect,0.040000X-0.707107X0.353553X0.353553X-0.707107X0.707107X-0.353553X-0.353553X0.707107X0*%
%ADD11RoundRect,0.040000X-0.353553X-0.707107X0.707107X0.353553X0.353553X0.707107X-0.707107X-0.353553X0*%
%ADD12RoundRect,0.050000X-0.194419X0.017713X0.017713X-0.194419X0.194419X-0.017713X-0.017713X0.194419X0*%
%ADD13RoundRect,0.050000X0.601041X-0.035355X-0.035355X0.601041X-0.601041X0.035355X0.035355X-0.601041X0*%
%ADD14RoundRect,0.050000X-0.388909X0.000000X0.000000X-0.388909X0.388909X0.000000X0.000000X0.388909X0*%
%ADD15RoundRect,0.050000X0.000000X0.388909X-0.388909X0.000000X0.000000X-0.388909X0.388909X0.000000X0*%
%ADD16RoundRect,0.050000X0.388909X0.000000X0.000000X0.388909X-0.388909X0.000000X0.000000X-0.388909X0*%
%ADD17RoundRect,0.050000X0.000000X-0.388909X0.388909X0.000000X0.000000X0.388909X-0.388909X0.000000X0*%
%ADD18RoundRect,0.050000X0.150000X0.124950X-0.150000X0.124950X-0.150000X-0.124950X0.150000X-0.124950X0*%
%ADD19RoundRect,0.050000X0.017713X0.194419X-0.194419X-0.017713X-0.017713X-0.194419X0.194419X0.017713X0*%
%ADD20RoundRect,0.050000X-0.601041X0.035355X0.035355X-0.601041X0.601041X-0.035355X-0.035355X0.601041X0*%
%ADD21RoundRect,0.050000X0.194419X-0.017713X-0.017713X0.194419X-0.194419X0.017713X0.017713X-0.194419X0*%
%ADD22RoundRect,0.050000X-0.124950X0.150000X-0.124950X-0.150000X0.124950X-0.150000X0.124950X0.150000X0*%
%ADD23RoundRect,0.050000X-0.035355X-0.601041X0.601041X0.035355X0.035355X0.601041X-0.601041X-0.035355X0*%
%ADD24RoundRect,0.050000X0.124950X-0.150000X0.124950X0.150000X-0.124950X0.150000X-0.124950X-0.150000X0*%
%ADD25C,0.290000*%
%ADD26RoundRect,0.050000X-0.150000X-0.124950X0.150000X-0.124950X0.150000X0.124950X-0.150000X0.124950X0*%
%ADD27RoundRect,0.050000X-0.017713X-0.194419X0.194419X0.017713X0.017713X0.194419X-0.194419X-0.017713X0*%
%ADD28RoundRect,0.050000X-0.275000X-0.275000X0.275000X-0.275000X0.275000X0.275000X-0.275000X0.275000X0*%
%ADD29RoundRect,0.101600X-0.954594X0.459619X0.459619X-0.954594X0.954594X-0.459619X-0.459619X0.954594X0*%
%ADD30RoundRect,0.050000X-0.450000X-0.400000X0.450000X-0.400000X0.450000X0.400000X-0.450000X0.400000X0*%
G04 APERTURE END LIST*
D10*
%TO.C,U1*%
X146376438Y-64025579D03*
X145740042Y-64661975D03*
X145103646Y-65298371D03*
X144467250Y-65934767D03*
X143830855Y-66571162D03*
X143194457Y-67207560D03*
X142558061Y-67843956D03*
X141921665Y-68480352D03*
X141285269Y-69116748D03*
X140648873Y-69753144D03*
X140012477Y-70389540D03*
X139376081Y-71025936D03*
X138739685Y-71662332D03*
X138103289Y-72298728D03*
X137466893Y-72935124D03*
X136830496Y-73571521D03*
X136194101Y-74207916D03*
X135557704Y-74844313D03*
X134921308Y-75480709D03*
X134284912Y-76117105D03*
X133648516Y-76753501D03*
X133012120Y-77389897D03*
X132375724Y-78026293D03*
X131739329Y-78662688D03*
X131102932Y-79299085D03*
X130466535Y-79935482D03*
X129830140Y-80571877D03*
X129193743Y-81208274D03*
X128557347Y-81844670D03*
X127920951Y-82481066D03*
X127284555Y-83117462D03*
X126648159Y-83753858D03*
X126011763Y-84390254D03*
X125375368Y-85026649D03*
X124738970Y-85663047D03*
X124102574Y-86299443D03*
X123466179Y-86935838D03*
X122829782Y-87572235D03*
X122193386Y-88208631D03*
X121556990Y-88845027D03*
X120920594Y-89481423D03*
X120284198Y-90117819D03*
X119647802Y-90754215D03*
X119011406Y-91390611D03*
X118375009Y-92027008D03*
X117738613Y-92663404D03*
X117102217Y-93299800D03*
X116465821Y-93936196D03*
X115829425Y-94572592D03*
X115193029Y-95208988D03*
X114556633Y-95845384D03*
D11*
X114945543Y-97648506D03*
X115581939Y-98284903D03*
X116218334Y-98921298D03*
X116854730Y-99557695D03*
X117491126Y-100194091D03*
X118127522Y-100830487D03*
X118763918Y-101466883D03*
X119400315Y-102103279D03*
X120036711Y-102739675D03*
X120673107Y-103376070D03*
X121309504Y-104012467D03*
X121945900Y-104648864D03*
X122582295Y-105285259D03*
X123218691Y-105921656D03*
X123855087Y-106558052D03*
X124491483Y-107194448D03*
X125127879Y-107830844D03*
X125764276Y-108467240D03*
X126400671Y-109103635D03*
X127037068Y-109740031D03*
X127673465Y-110376429D03*
X128309860Y-111012824D03*
X128946256Y-111649220D03*
X129582652Y-112285617D03*
X130219048Y-112922013D03*
X130855444Y-113558409D03*
X131491840Y-114194805D03*
X132128237Y-114831201D03*
X132764632Y-115467596D03*
X133401029Y-116103993D03*
X134037426Y-116740390D03*
X134673821Y-117376785D03*
X135310217Y-118013182D03*
X135946613Y-118649578D03*
X136583009Y-119285974D03*
X137219405Y-119922370D03*
X137855802Y-120558766D03*
X138492198Y-121195162D03*
X139128593Y-121831557D03*
X139764991Y-122467954D03*
X140401387Y-123104351D03*
X141037782Y-123740746D03*
D10*
X142840904Y-124129655D03*
X143477300Y-123493259D03*
X144113697Y-122856863D03*
X144750093Y-122220467D03*
X145386489Y-121584071D03*
X146022885Y-120947675D03*
X146659281Y-120311279D03*
X147295677Y-119674882D03*
X147932073Y-119038486D03*
X148568469Y-118402090D03*
X149204865Y-117765694D03*
X149841261Y-117129298D03*
X150477658Y-116492902D03*
X151114054Y-115856506D03*
X151750450Y-115220110D03*
X152386846Y-114583714D03*
X153023242Y-113947318D03*
X153659638Y-113310921D03*
X154296034Y-112674525D03*
X154932430Y-112038129D03*
X155568826Y-111401733D03*
X156205222Y-110765337D03*
X156841619Y-110128941D03*
X157478015Y-109492545D03*
X158114411Y-108856149D03*
X158750807Y-108219753D03*
X159387203Y-107583357D03*
X160023599Y-106946960D03*
X160659995Y-106310564D03*
X161296391Y-105674168D03*
X161932787Y-105037772D03*
X162569184Y-104401376D03*
X163205580Y-103764980D03*
X163841976Y-103128584D03*
X164478372Y-102492188D03*
X165114768Y-101855792D03*
X165751164Y-101219395D03*
X166387560Y-100582999D03*
X167023956Y-99946603D03*
X167660352Y-99310207D03*
X168296748Y-98673811D03*
X168933145Y-98037415D03*
X169569541Y-97401019D03*
X170205937Y-96764623D03*
X170842333Y-96128227D03*
X171478729Y-95491831D03*
X172115125Y-94855434D03*
X172751521Y-94219038D03*
X173387917Y-93582642D03*
X174024313Y-92946246D03*
X174660709Y-92309850D03*
D11*
X174271801Y-90506728D03*
X173635405Y-89870332D03*
X172999009Y-89233936D03*
X172362612Y-88597539D03*
X171726216Y-87961143D03*
X171089820Y-87324747D03*
X170453424Y-86688351D03*
X169817028Y-86051955D03*
X169180632Y-85415559D03*
X168544236Y-84779163D03*
X167907840Y-84142767D03*
X167271444Y-83506371D03*
X166635047Y-82869974D03*
X165998651Y-82233578D03*
X165362255Y-81597182D03*
X164725859Y-80960786D03*
X164089463Y-80324390D03*
X163453067Y-79687994D03*
X162816671Y-79051598D03*
X162180275Y-78415202D03*
X161543879Y-77778806D03*
X160907483Y-77142410D03*
X160271086Y-76506013D03*
X159634690Y-75869617D03*
X158998294Y-75233221D03*
X158361898Y-74596825D03*
X157725502Y-73960429D03*
X157089106Y-73324033D03*
X156452710Y-72687637D03*
X155816314Y-72051241D03*
X155179918Y-71414845D03*
X154543522Y-70778449D03*
X153907125Y-70142052D03*
X153270729Y-69505656D03*
X152634333Y-68869260D03*
X151997937Y-68232864D03*
X151361541Y-67596468D03*
X150725145Y-66960072D03*
X150088749Y-66323676D03*
X149452353Y-65687280D03*
X148815957Y-65050884D03*
X148179561Y-64414488D03*
%TD*%
D12*
%TO.C,C1301*%
X132890484Y-100433574D03*
X133279534Y-100044524D03*
%TD*%
D13*
%TO.C,C23*%
X144675435Y-72017515D03*
X143685485Y-73007465D03*
%TD*%
D14*
%TO.C,C3832*%
X168587641Y-91735943D03*
X169224181Y-92372473D03*
%TD*%
D15*
%TO.C,C1000*%
X135114615Y-99300965D03*
X134478085Y-99937505D03*
%TD*%
D14*
%TO.C,C10*%
X166745485Y-93997465D03*
X167382025Y-94633995D03*
%TD*%
%TO.C,C1409*%
X142398726Y-81741142D03*
X143035266Y-82377672D03*
%TD*%
%TO.C,C1703*%
X143750460Y-80339196D03*
X144387000Y-80975726D03*
%TD*%
%TO.C,C1702*%
X141868945Y-75960925D03*
X142505485Y-76597455D03*
%TD*%
D16*
%TO.C,R2250*%
X154953755Y-75815735D03*
X154317225Y-75179205D03*
%TD*%
D15*
%TO.C,C3*%
X140963755Y-117009195D03*
X140327225Y-117645735D03*
%TD*%
D17*
%TO.C,R29*%
X147288955Y-68773995D03*
X147925485Y-68137465D03*
%TD*%
D18*
%TO.C,C1704*%
X131510505Y-92419972D03*
X131510505Y-92970172D03*
%TD*%
D16*
%TO.C,C3818*%
X152845485Y-77867465D03*
X152208945Y-77230935D03*
%TD*%
D14*
%TO.C,R24*%
X150827215Y-73809195D03*
X151463745Y-74445725D03*
%TD*%
D12*
%TO.C,C1101*%
X139010965Y-93611985D03*
X139400015Y-93222935D03*
%TD*%
D15*
%TO.C,R4003*%
X138443760Y-110649200D03*
X137807230Y-111285730D03*
%TD*%
D19*
%TO.C,C1509*%
X135204165Y-100412945D03*
X135593215Y-100801995D03*
%TD*%
D15*
%TO.C,R4004*%
X141173755Y-113359195D03*
X140537225Y-113995725D03*
%TD*%
D16*
%TO.C,C40*%
X141812025Y-74514005D03*
X141175485Y-73877475D03*
%TD*%
D13*
%TO.C,C32*%
X147180460Y-74552490D03*
X146190510Y-75542440D03*
%TD*%
D19*
%TO.C,C1105*%
X138224785Y-95396145D03*
X138613835Y-95785195D03*
%TD*%
D20*
%TO.C,C2301*%
X140905535Y-111317473D03*
X141895485Y-110327523D03*
%TD*%
D12*
%TO.C,C1102*%
X138660965Y-93261985D03*
X139050015Y-92872935D03*
%TD*%
%TO.C,C1106*%
X137929225Y-94428955D03*
X138318275Y-94039905D03*
%TD*%
D21*
%TO.C,C1209*%
X137327665Y-93023915D03*
X136938615Y-93412965D03*
%TD*%
%TO.C,C1701*%
X132009603Y-94075183D03*
X131620553Y-94464233D03*
%TD*%
D17*
%TO.C,R4*%
X143038955Y-120413995D03*
X143675485Y-119777465D03*
%TD*%
D14*
%TO.C,C3815*%
X150317215Y-82129195D03*
X150953755Y-82765725D03*
%TD*%
D15*
%TO.C,C3821*%
X164962672Y-88287458D03*
X164326142Y-88923998D03*
%TD*%
D22*
%TO.C,C1205*%
X129441252Y-97028435D03*
X129991452Y-97028435D03*
%TD*%
D16*
%TO.C,C3805*%
X148173755Y-82715735D03*
X147537215Y-82079205D03*
%TD*%
D17*
%TO.C,C4000*%
X139145485Y-112667465D03*
X139782015Y-112030925D03*
%TD*%
D13*
%TO.C,C39*%
X143695435Y-71047515D03*
X142705485Y-72037465D03*
%TD*%
D17*
%TO.C,C3854*%
X166384402Y-88245726D03*
X167020932Y-87609186D03*
%TD*%
D23*
%TO.C,C1018*%
X132827520Y-97879010D03*
X131837570Y-96889060D03*
%TD*%
D15*
%TO.C,C1008*%
X133913555Y-95361595D03*
X133277025Y-95998135D03*
%TD*%
D14*
%TO.C,C2253*%
X152957215Y-79319195D03*
X153593755Y-79955725D03*
%TD*%
D24*
%TO.C,C1406*%
X137128838Y-92075435D03*
X136578638Y-92075435D03*
%TD*%
D25*
%TO.C,U2*%
X143302885Y-118047675D03*
X143585728Y-117764833D03*
X143868570Y-117481991D03*
X144151413Y-117199147D03*
X143020043Y-117764833D03*
X143302885Y-117481990D03*
X143585728Y-117199147D03*
X143868571Y-116916305D03*
X142737201Y-117481991D03*
X143020043Y-117199147D03*
X143302885Y-116916305D03*
X143585729Y-116633461D03*
X142454357Y-117199147D03*
X142737200Y-116916305D03*
X143020042Y-116633461D03*
X143302885Y-116350619D03*
X142171515Y-116916305D03*
X142454357Y-116633462D03*
X142737200Y-116350619D03*
X143020043Y-116067777D03*
%TD*%
D16*
%TO.C,C1208*%
X141665485Y-80967465D03*
X141028945Y-80330935D03*
%TD*%
D19*
%TO.C,R1713*%
X128660955Y-94772935D03*
X129050005Y-95161985D03*
%TD*%
D26*
%TO.C,C1721*%
X130097345Y-94357128D03*
X130097345Y-93806928D03*
%TD*%
D14*
%TO.C,C1204*%
X146517215Y-77619195D03*
X147153755Y-78255725D03*
%TD*%
D17*
%TO.C,C1400*%
X138977215Y-116275735D03*
X139613745Y-115639195D03*
%TD*%
D18*
%TO.C,C1207*%
X129201150Y-98172372D03*
X129201150Y-98722572D03*
%TD*%
D16*
%TO.C,C29*%
X145773753Y-76845517D03*
X145137213Y-76208987D03*
%TD*%
%TO.C,C41*%
X141142025Y-75194005D03*
X140505485Y-74557475D03*
%TD*%
D27*
%TO.C,C1604*%
X136616677Y-91050617D03*
X136227627Y-90661567D03*
%TD*%
D16*
%TO.C,C3803*%
X149535485Y-81367465D03*
X148898945Y-80730935D03*
%TD*%
D18*
%TO.C,C1508*%
X134738039Y-100902372D03*
X134738039Y-101452572D03*
%TD*%
D16*
%TO.C,C18*%
X145075485Y-77517465D03*
X144438945Y-76880935D03*
%TD*%
D14*
%TO.C,C20*%
X142555485Y-75287465D03*
X143192025Y-75923995D03*
%TD*%
D24*
%TO.C,C1402*%
X131744038Y-98704835D03*
X131193838Y-98704835D03*
%TD*%
D15*
%TO.C,R1206*%
X141625485Y-117697465D03*
X140988955Y-118333995D03*
%TD*%
D12*
%TO.C,C1717*%
X132468225Y-99915355D03*
X132857275Y-99526305D03*
%TD*%
D22*
%TO.C,C1203*%
X130650392Y-96107465D03*
X131200592Y-96107465D03*
%TD*%
D16*
%TO.C,R23*%
X150723755Y-72405735D03*
X150087225Y-71769205D03*
%TD*%
D14*
%TO.C,C3812*%
X151607215Y-80699195D03*
X152243755Y-81335725D03*
%TD*%
D17*
%TO.C,C3831*%
X165704615Y-87545943D03*
X166341145Y-86909403D03*
%TD*%
D16*
%TO.C,C1016*%
X148703755Y-74365735D03*
X148067215Y-73729205D03*
%TD*%
%TO.C,C3838*%
X169174616Y-89592686D03*
X168538076Y-88956156D03*
%TD*%
D15*
%TO.C,C37*%
X147253755Y-67459195D03*
X146617225Y-68095735D03*
%TD*%
D14*
%TO.C,R11*%
X145844620Y-114671145D03*
X146481150Y-115307675D03*
%TD*%
D15*
%TO.C,C4003*%
X137532015Y-113640925D03*
X136895485Y-114277465D03*
%TD*%
D17*
%TO.C,C3844*%
X167094828Y-88886160D03*
X167731358Y-88249620D03*
%TD*%
D15*
%TO.C,R4005*%
X140493755Y-112679195D03*
X139857225Y-113315725D03*
%TD*%
D14*
%TO.C,C31*%
X151508945Y-73120935D03*
X152145485Y-73757465D03*
%TD*%
%TO.C,C1720*%
X143080460Y-81039196D03*
X143717000Y-81675726D03*
%TD*%
D15*
%TO.C,R1205*%
X147891150Y-115329410D03*
X147254620Y-115965940D03*
%TD*%
D14*
%TO.C,R16*%
X163747857Y-93699401D03*
X164384387Y-94335931D03*
%TD*%
D24*
%TO.C,C1700*%
X131312238Y-93802635D03*
X130762038Y-93802635D03*
%TD*%
D15*
%TO.C,C1109*%
X137146615Y-96303765D03*
X136510085Y-96940305D03*
%TD*%
D16*
%TO.C,C1001*%
X147201374Y-113235724D03*
X146564834Y-112599194D03*
%TD*%
D14*
%TO.C,C1011*%
X146637215Y-70899195D03*
X147273755Y-71535725D03*
%TD*%
%TO.C,C35*%
X141188945Y-76640925D03*
X141825485Y-77277455D03*
%TD*%
%TO.C,C1214*%
X144458730Y-79657466D03*
X145095270Y-80293996D03*
%TD*%
D16*
%TO.C,R25*%
X152843755Y-73075735D03*
X152207225Y-72439205D03*
%TD*%
D22*
%TO.C,C1510*%
X133599592Y-101191665D03*
X134149792Y-101191665D03*
%TD*%
D16*
%TO.C,C3801*%
X150845485Y-79957465D03*
X150208945Y-79320935D03*
%TD*%
%TO.C,C3835*%
X168514398Y-90302270D03*
X167877858Y-89665740D03*
%TD*%
D14*
%TO.C,C1410*%
X143225485Y-74597465D03*
X143862025Y-75233995D03*
%TD*%
%TO.C,C30*%
X150777215Y-71079195D03*
X151413755Y-71715725D03*
%TD*%
D16*
%TO.C,C1211*%
X140465485Y-75857465D03*
X139828945Y-75220935D03*
%TD*%
D23*
%TO.C,C16*%
X149610460Y-73232440D03*
X148620510Y-72242490D03*
%TD*%
D14*
%TO.C,C3840*%
X169957215Y-90356152D03*
X170593755Y-90992682D03*
%TD*%
D17*
%TO.C,C2*%
X144447215Y-119065735D03*
X145083745Y-118429195D03*
%TD*%
D14*
%TO.C,C1006*%
X134928015Y-95793395D03*
X135564555Y-96429925D03*
%TD*%
D18*
%TO.C,C1718*%
X131799145Y-99725142D03*
X131799145Y-100275342D03*
%TD*%
D26*
%TO.C,C1210*%
X130138905Y-95916558D03*
X130138905Y-95366358D03*
%TD*%
D14*
%TO.C,C38*%
X147317215Y-70219195D03*
X147953755Y-70855725D03*
%TD*%
D16*
%TO.C,C3802*%
X151505485Y-79277465D03*
X150868945Y-78640935D03*
%TD*%
D13*
%TO.C,C33*%
X148140460Y-75522490D03*
X147150510Y-76512440D03*
%TD*%
D16*
%TO.C,C3817*%
X150195485Y-80667465D03*
X149558945Y-80030935D03*
%TD*%
D19*
%TO.C,C1100*%
X137954625Y-97773715D03*
X138343675Y-98162765D03*
%TD*%
D14*
%TO.C,C2252*%
X155025485Y-77277465D03*
X155662025Y-77913995D03*
%TD*%
D16*
%TO.C,C2250*%
X153565485Y-77167465D03*
X152928945Y-76530935D03*
%TD*%
D15*
%TO.C,C3837*%
X166331155Y-89659403D03*
X165694625Y-90295943D03*
%TD*%
D16*
%TO.C,C13*%
X166474615Y-92355943D03*
X165838075Y-91719413D03*
%TD*%
%TO.C,C3809*%
X148853755Y-82035735D03*
X148217215Y-81399205D03*
%TD*%
%TO.C,C1707*%
X143017215Y-79585737D03*
X142380675Y-78949207D03*
%TD*%
D20*
%TO.C,C6*%
X143965485Y-113467465D03*
X144955435Y-112477515D03*
%TD*%
D13*
%TO.C,C22*%
X149100460Y-76492490D03*
X148110510Y-77482440D03*
%TD*%
D14*
%TO.C,R2302*%
X139187215Y-109989195D03*
X139823745Y-110625725D03*
%TD*%
D17*
%TO.C,C7*%
X143015485Y-112777465D03*
X143652015Y-112140925D03*
%TD*%
%TO.C,R7*%
X142348955Y-119733995D03*
X142985485Y-119097465D03*
%TD*%
D14*
%TO.C,C1602*%
X140517215Y-77339195D03*
X141153755Y-77975725D03*
%TD*%
%TO.C,C1010*%
X145957215Y-71579195D03*
X146593755Y-72215725D03*
%TD*%
D17*
%TO.C,C3822*%
X164976352Y-86867670D03*
X165612882Y-86231130D03*
%TD*%
D14*
%TO.C,C3820*%
X152277215Y-80009195D03*
X152913755Y-80645725D03*
%TD*%
D19*
%TO.C,C1017*%
X133832575Y-98677235D03*
X134221625Y-99066285D03*
%TD*%
D14*
%TO.C,R1100*%
X139887215Y-93799195D03*
X140523745Y-94435725D03*
%TD*%
%TO.C,C1007*%
X135918615Y-94802795D03*
X136555155Y-95439325D03*
%TD*%
%TO.C,C1004*%
X147964399Y-113979405D03*
X148600939Y-114615935D03*
%TD*%
D12*
%TO.C,C1107*%
X137497425Y-93997155D03*
X137886475Y-93608105D03*
%TD*%
D24*
%TO.C,C1401*%
X131032838Y-100228831D03*
X130482638Y-100228831D03*
%TD*%
D15*
%TO.C,C3841*%
X164232452Y-87611132D03*
X163595922Y-88247672D03*
%TD*%
D14*
%TO.C,R30*%
X148007215Y-69549195D03*
X148643745Y-70185725D03*
%TD*%
%TO.C,R2251*%
X154317215Y-77949195D03*
X154953745Y-78585725D03*
%TD*%
D16*
%TO.C,R2252*%
X156332015Y-77223995D03*
X155695485Y-76587465D03*
%TD*%
D14*
%TO.C,C34*%
X145817215Y-78289195D03*
X146453755Y-78925725D03*
%TD*%
D22*
%TO.C,C1213*%
X130570337Y-96607710D03*
X131120537Y-96607710D03*
%TD*%
D16*
%TO.C,C3843*%
X167834398Y-90982270D03*
X167197858Y-90345740D03*
%TD*%
D17*
%TO.C,C1724*%
X129160235Y-93572135D03*
X129796765Y-92935595D03*
%TD*%
D15*
%TO.C,C4002*%
X138223755Y-114309195D03*
X137587225Y-114945735D03*
%TD*%
D14*
%TO.C,C3808*%
X149647215Y-82809195D03*
X150283755Y-83445725D03*
%TD*%
D17*
%TO.C,C4009*%
X135537215Y-112915735D03*
X136173745Y-112279195D03*
%TD*%
D13*
%TO.C,C15*%
X145700460Y-68982490D03*
X144710510Y-69972440D03*
%TD*%
D16*
%TO.C,C11*%
X166052025Y-96003995D03*
X165415485Y-95367465D03*
%TD*%
D28*
%TO.C,C1103*%
X138730985Y-96860659D03*
X139631182Y-96860652D03*
%TD*%
D26*
%TO.C,C1404*%
X138657145Y-91512328D03*
X138657145Y-90962128D03*
%TD*%
%TO.C,C1722*%
X130783090Y-95322571D03*
X130783090Y-94772371D03*
%TD*%
D16*
%TO.C,C3806*%
X152163755Y-78575735D03*
X151527215Y-77939205D03*
%TD*%
D12*
%TO.C,C1300*%
X136552405Y-100169225D03*
X136941455Y-99780175D03*
%TD*%
D14*
%TO.C,C25*%
X145142026Y-78977240D03*
X145778566Y-79613770D03*
%TD*%
D15*
%TO.C,C4*%
X140293755Y-116329195D03*
X139657225Y-116965735D03*
%TD*%
D14*
%TO.C,C1104*%
X139617215Y-94849195D03*
X140253755Y-95485725D03*
%TD*%
D16*
%TO.C,C1603*%
X143707000Y-78905736D03*
X143070460Y-78269206D03*
%TD*%
D26*
%TO.C,C1600*%
X132526450Y-92208401D03*
X132526450Y-91658201D03*
%TD*%
D16*
%TO.C,C1723*%
X142347000Y-80275736D03*
X141710460Y-79639206D03*
%TD*%
%TO.C,C9*%
X147151155Y-114625725D03*
X146514615Y-113989195D03*
%TD*%
%TO.C,C1706*%
X139055485Y-77217465D03*
X138418945Y-76580935D03*
%TD*%
D17*
%TO.C,R5*%
X141667215Y-119035735D03*
X142303745Y-118399205D03*
%TD*%
D26*
%TO.C,C1407*%
X131113290Y-98116571D03*
X131113290Y-97566371D03*
%TD*%
D14*
%TO.C,C1019*%
X150147215Y-74479195D03*
X150783755Y-75115725D03*
%TD*%
D17*
%TO.C,C8*%
X145164615Y-113919633D03*
X145801145Y-113283093D03*
%TD*%
D29*
%TO.C,L1*%
X141290511Y-115522439D03*
X142775485Y-114037465D03*
%TD*%
D26*
%TO.C,C1716*%
X127065485Y-94902558D03*
X127065485Y-94352358D03*
%TD*%
%TO.C,C1601*%
X133323090Y-92045971D03*
X133323090Y-91495771D03*
%TD*%
D14*
%TO.C,C2254*%
X153617215Y-78629195D03*
X154253755Y-79265725D03*
%TD*%
%TO.C,C3819*%
X148987215Y-83509195D03*
X149623755Y-84145725D03*
%TD*%
%TO.C,C3810*%
X150977215Y-81429195D03*
X151613755Y-82065725D03*
%TD*%
D16*
%TO.C,C1206*%
X139765485Y-76547465D03*
X139128945Y-75910935D03*
%TD*%
D15*
%TO.C,C1015*%
X150023537Y-77239193D03*
X149387007Y-77875733D03*
%TD*%
D27*
%TO.C,C1800*%
X134457465Y-91507955D03*
X134068415Y-91118905D03*
%TD*%
D15*
%TO.C,R9*%
X144451155Y-114699405D03*
X143814625Y-115335935D03*
%TD*%
D24*
%TO.C,C1408*%
X130524838Y-97917435D03*
X129974638Y-97917435D03*
%TD*%
D16*
%TO.C,C12*%
X165754397Y-92995941D03*
X165117857Y-92359411D03*
%TD*%
D14*
%TO.C,C3845*%
X167220161Y-93117673D03*
X167856701Y-93754203D03*
%TD*%
D16*
%TO.C,C1108*%
X137113955Y-94829735D03*
X136477415Y-94193205D03*
%TD*%
D14*
%TO.C,C1719*%
X139848945Y-78020925D03*
X140485485Y-78657455D03*
%TD*%
D13*
%TO.C,C42*%
X145620460Y-73002490D03*
X144630510Y-73992440D03*
%TD*%
D24*
%TO.C,C1403*%
X131025578Y-99337465D03*
X130475378Y-99337465D03*
%TD*%
D16*
%TO.C,C14*%
X167164615Y-91675943D03*
X166528075Y-91039413D03*
%TD*%
D12*
%TO.C,C1212*%
X138208625Y-92574755D03*
X138597675Y-92185705D03*
%TD*%
D16*
%TO.C,R31*%
X149302015Y-69483995D03*
X148665485Y-68847465D03*
%TD*%
D13*
%TO.C,C1014*%
X133097860Y-94322700D03*
X132107910Y-95312650D03*
%TD*%
D12*
%TO.C,C1900*%
X135686710Y-99989424D03*
X136075760Y-99600374D03*
%TD*%
D14*
%TO.C,R14*%
X166105485Y-94707465D03*
X166742015Y-95343995D03*
%TD*%
%TO.C,C1020*%
X149447215Y-75149195D03*
X150083755Y-75785725D03*
%TD*%
D15*
%TO.C,R6*%
X146511155Y-116749405D03*
X145874625Y-117385935D03*
%TD*%
D16*
%TO.C,R15*%
X165074397Y-93665941D03*
X164437867Y-93029411D03*
%TD*%
D15*
%TO.C,C4001*%
X138913755Y-114979195D03*
X138277225Y-115615735D03*
%TD*%
D17*
%TO.C,R4006*%
X138467215Y-111985735D03*
X139103745Y-111349205D03*
%TD*%
D26*
%TO.C,C1012*%
X134618545Y-92960128D03*
X134618545Y-92409928D03*
%TD*%
D20*
%TO.C,C4005*%
X141870520Y-112282440D03*
X142860470Y-111292490D03*
%TD*%
D15*
%TO.C,C4004*%
X136853755Y-112959195D03*
X136217225Y-113595735D03*
%TD*%
D26*
%TO.C,C1517*%
X133805690Y-93112771D03*
X133805690Y-92562571D03*
%TD*%
D15*
%TO.C,C3829*%
X165612885Y-88997675D03*
X164976355Y-89634215D03*
%TD*%
D14*
%TO.C,C3828*%
X167910377Y-92417673D03*
X168546917Y-93054203D03*
%TD*%
D26*
%TO.C,C1705*%
X132526505Y-93376558D03*
X132526505Y-92826358D03*
%TD*%
D15*
%TO.C,C5*%
X145111155Y-115389405D03*
X144474625Y-116025945D03*
%TD*%
D14*
%TO.C,C1013*%
X134318415Y-93837595D03*
X134954955Y-94474125D03*
%TD*%
D19*
%TO.C,C1005*%
X135610565Y-95485345D03*
X135999615Y-95874395D03*
%TD*%
D14*
%TO.C,C3839*%
X169287858Y-91045730D03*
X169924398Y-91682260D03*
%TD*%
D16*
%TO.C,C21*%
X144395485Y-78197465D03*
X143758945Y-77560935D03*
%TD*%
D17*
%TO.C,C1002*%
X136002075Y-98692905D03*
X136638605Y-98056365D03*
%TD*%
D15*
%TO.C,C2251*%
X153603758Y-74458978D03*
X152967228Y-75095518D03*
%TD*%
D23*
%TO.C,C1003*%
X135237860Y-97732650D03*
X134247910Y-96742700D03*
%TD*%
D27*
%TO.C,C1405*%
X137911865Y-91736555D03*
X137522815Y-91347505D03*
%TD*%
D16*
%TO.C,C36*%
X142482025Y-73834005D03*
X141845485Y-73197475D03*
%TD*%
D30*
%TO.C,C1009*%
X135609145Y-93207235D03*
X135609145Y-91807235D03*
%TD*%
D17*
%TO.C,R10*%
X145174615Y-116705945D03*
X145811145Y-116069415D03*
%TD*%
M02*
