G04 #@! TF.GenerationSoftware,KiCad,Pcbnew,9.0.0*
G04 #@! TF.CreationDate,2025-09-02T11:52:27+03:00*
G04 #@! TF.ProjectId,GSM_Adapter_Board_V1.0,47534d5f-4164-4617-9074-65725f426f61,rev?*
G04 #@! TF.SameCoordinates,Original*
G04 #@! TF.FileFunction,Other,User*
%FSLAX46Y46*%
G04 Gerber Fmt 4.6, Leading zero omitted, Abs format (unit mm)*
G04 Created by KiCad (PCBNEW 9.0.0) date 2025-09-02 11:52:27*
%MOMM*%
%LPD*%
G01*
G04 APERTURE LIST*
%ADD10C,0.050000*%
G04 APERTURE END LIST*
D10*
X129715000Y-116475000D02*
X129715000Y-114000000D01*
X129715000Y-116475000D02*
X142115000Y-116474746D01*
X142115000Y-113999746D02*
X129715000Y-114000000D01*
X142115000Y-116474746D02*
X142115000Y-113999746D01*
X118855000Y-78225254D02*
X118855000Y-80700254D01*
X118855000Y-80700254D02*
X131255000Y-80700000D01*
X131255000Y-78225000D02*
X118855000Y-78225254D01*
X131255000Y-78225000D02*
X131255000Y-80700000D01*
X109295254Y-110845000D02*
X111770254Y-110845000D01*
X109300000Y-95990000D02*
X109295254Y-110845000D01*
X109300000Y-95990000D02*
X111775000Y-95990000D01*
X111770254Y-110845000D02*
X111775000Y-95990000D01*
X109890000Y-78820000D02*
X149890000Y-78820000D01*
X109890000Y-115820000D02*
X109890000Y-78820000D01*
X149890000Y-78820000D02*
X149890000Y-115820000D01*
X149890000Y-115820000D02*
X109890000Y-115820000D01*
X148079746Y-86765000D02*
X148080000Y-99165000D01*
X150554746Y-86765000D02*
X148079746Y-86765000D01*
X150555000Y-99165000D02*
X148080000Y-99165000D01*
X150555000Y-99165000D02*
X150554746Y-86765000D01*
M02*
