G04 #@! TF.GenerationSoftware,KiCad,Pcbnew,9.0.0*
G04 #@! TF.CreationDate,2025-09-02T11:52:27+03:00*
G04 #@! TF.ProjectId,GSM_Adapter_Board_V1.0,47534d5f-4164-4617-9074-65725f426f61,rev?*
G04 #@! TF.SameCoordinates,Original*
G04 #@! TF.FileFunction,Copper,L2,Bot*
G04 #@! TF.FilePolarity,Positive*
%FSLAX46Y46*%
G04 Gerber Fmt 4.6, Leading zero omitted, Abs format (unit mm)*
G04 Created by KiCad (PCBNEW 9.0.0) date 2025-09-02 11:52:27*
%MOMM*%
%LPD*%
G01*
G04 APERTURE LIST*
G04 #@! TA.AperFunction,CastellatedPad*
%ADD10R,1.200000X1.250000*%
G04 #@! TD*
G04 #@! TA.AperFunction,CastellatedPad*
%ADD11R,1.250000X1.200000*%
G04 #@! TD*
G04 #@! TA.AperFunction,ViaPad*
%ADD12C,0.800000*%
G04 #@! TD*
G04 #@! TA.AperFunction,Conductor*
%ADD13C,0.250000*%
G04 #@! TD*
G04 #@! TA.AperFunction,Conductor*
%ADD14C,0.381000*%
G04 #@! TD*
G04 #@! TA.AperFunction,Conductor*
%ADD15C,0.508000*%
G04 #@! TD*
G04 APERTURE END LIST*
D10*
X130980000Y-115225000D03*
X133520000Y-115225000D03*
X136060000Y-115225000D03*
X138600000Y-115225000D03*
X141140000Y-115225000D03*
X129990000Y-79475000D03*
X127450000Y-79475000D03*
X124910000Y-79475000D03*
X122370000Y-79475000D03*
X119830000Y-79475000D03*
D11*
X110545000Y-97170000D03*
X110545000Y-99710000D03*
X110545000Y-102250000D03*
X110545000Y-104790000D03*
X110545000Y-107330000D03*
X110545000Y-109870000D03*
X149305000Y-97900000D03*
X149305000Y-95360000D03*
X149305000Y-92820000D03*
X149305000Y-90280000D03*
X149305000Y-87740000D03*
D12*
X148550000Y-101100000D03*
X148140000Y-82450000D03*
X142220000Y-102160000D03*
X145270000Y-80230000D03*
X111180000Y-85320000D03*
X145230000Y-113870000D03*
X111330000Y-88780000D03*
X111220000Y-112740000D03*
X148700000Y-111230000D03*
X141660000Y-105170000D03*
X141840000Y-96810000D03*
X142070000Y-99440000D03*
X116680000Y-80040000D03*
X117740000Y-114660000D03*
X148660000Y-103850000D03*
X148660000Y-107620000D03*
X122480000Y-114770000D03*
X141920000Y-107280000D03*
X111260000Y-114810000D03*
X114120000Y-114740000D03*
X126250000Y-79540000D03*
X126510000Y-114290000D03*
X141470000Y-86520000D03*
X141350000Y-91160000D03*
X113820000Y-112820000D03*
X147800000Y-80310000D03*
X111275000Y-94190000D03*
X141770000Y-94060000D03*
X137980000Y-80740000D03*
X139250000Y-80740000D03*
X136590000Y-80760000D03*
X129990000Y-80850000D03*
X121340000Y-81260000D03*
X125560000Y-85010000D03*
X126850000Y-84970000D03*
X112190000Y-92530000D03*
X130740000Y-85010000D03*
X112090000Y-91230000D03*
X129460000Y-85010000D03*
X111970000Y-102760000D03*
D13*
X125960000Y-86430000D02*
X125560000Y-86030000D01*
X146290000Y-89320000D02*
X127533604Y-89320000D01*
X149900000Y-90310000D02*
X149930000Y-90280000D01*
X146995000Y-90025000D02*
X146290000Y-89320000D01*
X127533604Y-89320000D02*
X125960000Y-87746396D01*
D14*
X146995000Y-90025000D02*
X147280000Y-90310000D01*
X147280000Y-90310000D02*
X149900000Y-90310000D01*
D13*
X125560000Y-86030000D02*
X125560000Y-85010000D01*
X125960000Y-87746396D02*
X125960000Y-86430000D01*
X126410000Y-86440000D02*
X126850000Y-86000000D01*
D14*
X147410000Y-87740000D02*
X147055000Y-88095000D01*
D13*
X127720000Y-88870000D02*
X126410000Y-87560000D01*
X126410000Y-87560000D02*
X126410000Y-86440000D01*
D14*
X149930000Y-87740000D02*
X147410000Y-87740000D01*
D13*
X126850000Y-86000000D02*
X126850000Y-84970000D01*
X147055000Y-88095000D02*
X146280000Y-88870000D01*
X146280000Y-88870000D02*
X127720000Y-88870000D01*
D15*
X112210000Y-92550000D02*
X112190000Y-92530000D01*
X111180000Y-99710000D02*
X112210000Y-98680000D01*
X112210000Y-98680000D02*
X112210000Y-92550000D01*
X109920000Y-99710000D02*
X111180000Y-99710000D01*
D13*
X128250000Y-85600000D02*
X128910000Y-86260000D01*
X134990000Y-101220000D02*
X123820000Y-90050000D01*
X130740000Y-85700000D02*
X130740000Y-85010000D01*
X128910000Y-86260000D02*
X130180000Y-86260000D01*
X135480000Y-113370000D02*
X134990000Y-112880000D01*
X127750000Y-83170000D02*
X128250000Y-83670000D01*
X125060000Y-83170000D02*
X127750000Y-83170000D01*
X128250000Y-83670000D02*
X128250000Y-85600000D01*
X134990000Y-112880000D02*
X134990000Y-101220000D01*
D14*
X135480000Y-113370000D02*
X136060000Y-113950000D01*
D13*
X123820000Y-84410000D02*
X125060000Y-83170000D01*
X130180000Y-86260000D02*
X130740000Y-85700000D01*
D14*
X136060000Y-113950000D02*
X136060000Y-115850000D01*
D13*
X123820000Y-90050000D02*
X123820000Y-84410000D01*
X110550000Y-91740000D02*
X111060000Y-91230000D01*
X109920000Y-97170000D02*
X110550000Y-96540000D01*
X111060000Y-91230000D02*
X112090000Y-91230000D01*
X110550000Y-96540000D02*
X110550000Y-91740000D01*
X129643010Y-96509406D02*
X129643009Y-96509405D01*
X133935000Y-113385000D02*
X134540000Y-112780000D01*
X130067273Y-97357933D02*
X129961206Y-97463999D01*
X129536942Y-97039735D02*
X129643010Y-96933670D01*
X128688414Y-96191207D02*
X128794482Y-96085142D01*
X128651598Y-95517994D02*
X123370000Y-90236396D01*
X134540000Y-101406396D02*
X130491537Y-97357933D01*
X128794482Y-95660878D02*
X128794481Y-95660877D01*
X123370000Y-90236396D02*
X123370000Y-84223604D01*
X129460000Y-83180000D02*
X129460000Y-85010000D01*
X128794481Y-95660877D02*
X128651598Y-95517994D01*
X124963604Y-82630000D02*
X128910000Y-82630000D01*
D14*
X133520000Y-113800000D02*
X133520000Y-115850000D01*
D13*
X128910000Y-82630000D02*
X129460000Y-83180000D01*
X123370000Y-84223604D02*
X124963604Y-82630000D01*
X129218745Y-96509405D02*
X129112678Y-96615471D01*
D14*
X133935000Y-113385000D02*
X133520000Y-113800000D01*
D13*
X134540000Y-112780000D02*
X134540000Y-101406396D01*
X129536942Y-97463999D02*
G75*
G02*
X129536975Y-97039768I212158J212099D01*
G01*
X129112678Y-96615471D02*
G75*
G02*
X128688414Y-96615471I-212132J212132D01*
G01*
X130491537Y-97357933D02*
G75*
G03*
X130067273Y-97357933I-212132J-212132D01*
G01*
X129961206Y-97463999D02*
G75*
G02*
X129536942Y-97463999I-212132J212132D01*
G01*
X128688414Y-96615471D02*
G75*
G02*
X128688375Y-96191168I212086J212171D01*
G01*
X129643010Y-96933670D02*
G75*
G03*
X129643048Y-96509368I-212110J212170D01*
G01*
X128794482Y-96085142D02*
G75*
G03*
X128794492Y-95660868I-212082J212142D01*
G01*
X129643009Y-96509405D02*
G75*
G03*
X129218745Y-96509405I-212132J-212132D01*
G01*
X130980000Y-105800000D02*
X130980000Y-112630000D01*
X112650000Y-103440000D02*
X128620000Y-103440000D01*
X111970000Y-102760000D02*
X112650000Y-103440000D01*
D14*
X130980000Y-115850000D02*
X130980000Y-112630000D01*
D13*
X128620000Y-103440000D02*
X130980000Y-105800000D01*
G04 #@! TA.AperFunction,Conductor*
G36*
X111391476Y-102967622D02*
G01*
X111409525Y-102989615D01*
X111410425Y-102991788D01*
X111489475Y-103128709D01*
X111489478Y-103128713D01*
X111489480Y-103128716D01*
X111601284Y-103240520D01*
X111601287Y-103240521D01*
X111601290Y-103240524D01*
X111738213Y-103319576D01*
X111738215Y-103319576D01*
X111738216Y-103319577D01*
X111842740Y-103347584D01*
X111890939Y-103360499D01*
X111890940Y-103360500D01*
X111890943Y-103360500D01*
X112049055Y-103360500D01*
X112049057Y-103360500D01*
X112069931Y-103354906D01*
X112107111Y-103359800D01*
X112117261Y-103367588D01*
X112450138Y-103700465D01*
X112524361Y-103743318D01*
X112589653Y-103760812D01*
X112607143Y-103765499D01*
X112607144Y-103765500D01*
X112607147Y-103765500D01*
X112692853Y-103765500D01*
X128464877Y-103765500D01*
X128499525Y-103779852D01*
X130640148Y-105920475D01*
X130654500Y-105955123D01*
X130654500Y-112398653D01*
X130647935Y-112423153D01*
X130615647Y-112479078D01*
X130615644Y-112479084D01*
X130589000Y-112578521D01*
X130589000Y-114350500D01*
X130574648Y-114385148D01*
X130540000Y-114399500D01*
X130360252Y-114399500D01*
X130301769Y-114411133D01*
X130235447Y-114455447D01*
X130210605Y-114492627D01*
X130191133Y-114521769D01*
X130179500Y-114580252D01*
X130179500Y-114580253D01*
X130179500Y-114580255D01*
X130179500Y-115550367D01*
X130175770Y-115569118D01*
X130162184Y-115601916D01*
X130162184Y-115601917D01*
X130162184Y-115601918D01*
X130129500Y-115766233D01*
X130129500Y-115766236D01*
X130129500Y-115800500D01*
X130115148Y-115835148D01*
X130080500Y-115849500D01*
X109969500Y-115849500D01*
X109934852Y-115835148D01*
X109920500Y-115800500D01*
X109920500Y-110769500D01*
X109934852Y-110734852D01*
X109969500Y-110720500D01*
X110003764Y-110720500D01*
X110003767Y-110720500D01*
X110168082Y-110687816D01*
X110175025Y-110684939D01*
X110200882Y-110674230D01*
X110219633Y-110670500D01*
X111189745Y-110670500D01*
X111189748Y-110670500D01*
X111248231Y-110658867D01*
X111314552Y-110614552D01*
X111358867Y-110548231D01*
X111370500Y-110489748D01*
X111370500Y-109250252D01*
X111358867Y-109191769D01*
X111332301Y-109152012D01*
X111314552Y-109125447D01*
X111274795Y-109098882D01*
X111248231Y-109081133D01*
X111189748Y-109069500D01*
X111189745Y-109069500D01*
X110219633Y-109069500D01*
X110200882Y-109065770D01*
X110168089Y-109052186D01*
X110168079Y-109052183D01*
X110101816Y-109039002D01*
X110003767Y-109019500D01*
X110003764Y-109019500D01*
X109969500Y-109019500D01*
X109934852Y-109005148D01*
X109920500Y-108970500D01*
X109920500Y-108229500D01*
X109934852Y-108194852D01*
X109969500Y-108180500D01*
X110003764Y-108180500D01*
X110003767Y-108180500D01*
X110168082Y-108147816D01*
X110175025Y-108144939D01*
X110200882Y-108134230D01*
X110219633Y-108130500D01*
X111189745Y-108130500D01*
X111189748Y-108130500D01*
X111248231Y-108118867D01*
X111314552Y-108074552D01*
X111358867Y-108008231D01*
X111370500Y-107949748D01*
X111370500Y-106710252D01*
X111358867Y-106651769D01*
X111332301Y-106612012D01*
X111314552Y-106585447D01*
X111274795Y-106558882D01*
X111248231Y-106541133D01*
X111189748Y-106529500D01*
X111189745Y-106529500D01*
X110219633Y-106529500D01*
X110200882Y-106525770D01*
X110168089Y-106512186D01*
X110168079Y-106512183D01*
X110101816Y-106499002D01*
X110003767Y-106479500D01*
X110003764Y-106479500D01*
X109969500Y-106479500D01*
X109934852Y-106465148D01*
X109920500Y-106430500D01*
X109920500Y-105689500D01*
X109934852Y-105654852D01*
X109969500Y-105640500D01*
X110003764Y-105640500D01*
X110003767Y-105640500D01*
X110168082Y-105607816D01*
X110175025Y-105604939D01*
X110200882Y-105594230D01*
X110219633Y-105590500D01*
X111189745Y-105590500D01*
X111189748Y-105590500D01*
X111248231Y-105578867D01*
X111314552Y-105534552D01*
X111358867Y-105468231D01*
X111370500Y-105409748D01*
X111370500Y-104170252D01*
X111358867Y-104111769D01*
X111332301Y-104072012D01*
X111314552Y-104045447D01*
X111274795Y-104018882D01*
X111248231Y-104001133D01*
X111189748Y-103989500D01*
X111189745Y-103989500D01*
X110219633Y-103989500D01*
X110200882Y-103985770D01*
X110168089Y-103972186D01*
X110168079Y-103972183D01*
X110101816Y-103959002D01*
X110003767Y-103939500D01*
X110003764Y-103939500D01*
X109969500Y-103939500D01*
X109934852Y-103925148D01*
X109920500Y-103890500D01*
X109920500Y-103149500D01*
X109934852Y-103114852D01*
X109969500Y-103100500D01*
X110003764Y-103100500D01*
X110003767Y-103100500D01*
X110168082Y-103067816D01*
X110175025Y-103064939D01*
X110200882Y-103054230D01*
X110219633Y-103050500D01*
X111189745Y-103050500D01*
X111189748Y-103050500D01*
X111248231Y-103038867D01*
X111314552Y-102994552D01*
X111323512Y-102981142D01*
X111354693Y-102960307D01*
X111391476Y-102967622D01*
G37*
G04 #@! TD.AperFunction*
G04 #@! TA.AperFunction,Conductor*
G36*
X118872503Y-78854979D02*
G01*
X118884166Y-78855959D01*
X118889172Y-78861883D01*
X118896338Y-78864852D01*
X118900817Y-78875665D01*
X118908371Y-78884605D01*
X118907721Y-78892333D01*
X118910690Y-78899500D01*
X118905751Y-78915781D01*
X118905231Y-78921976D01*
X118903964Y-78924429D01*
X118888302Y-78947870D01*
X118873950Y-78982518D01*
X118873949Y-78982520D01*
X118873930Y-78982611D01*
X118873929Y-78982615D01*
X118854500Y-79080290D01*
X118854500Y-80749709D01*
X118873947Y-80847475D01*
X118873950Y-80847484D01*
X118888299Y-80882124D01*
X118888299Y-80882125D01*
X118888301Y-80882128D01*
X118888302Y-80882130D01*
X118916365Y-80924129D01*
X118942945Y-80963910D01*
X118943686Y-80965018D01*
X120124982Y-82146314D01*
X120207870Y-82201698D01*
X120207875Y-82201700D01*
X120240917Y-82215387D01*
X120241922Y-82215845D01*
X120242507Y-82216045D01*
X120242518Y-82216050D01*
X120242520Y-82216051D01*
X120242527Y-82216052D01*
X120242529Y-82216053D01*
X120340290Y-82235499D01*
X120340296Y-82235500D01*
X124813027Y-82235500D01*
X124847675Y-82249852D01*
X124862027Y-82284500D01*
X124847675Y-82319148D01*
X124837527Y-82326935D01*
X124763741Y-82369535D01*
X124763741Y-82369536D01*
X123109536Y-84023741D01*
X123109535Y-84023741D01*
X123066682Y-84097963D01*
X123066681Y-84097965D01*
X123052864Y-84149535D01*
X123052864Y-84149536D01*
X123044500Y-84180749D01*
X123044500Y-90279252D01*
X123066681Y-90362033D01*
X123066682Y-90362036D01*
X123109535Y-90436258D01*
X128389417Y-95716139D01*
X128389422Y-95716145D01*
X128511638Y-95838361D01*
X128525990Y-95873009D01*
X128511638Y-95907657D01*
X128472646Y-95946649D01*
X128472514Y-95946703D01*
X128408373Y-96010842D01*
X128333376Y-96130204D01*
X128333373Y-96130209D01*
X128286820Y-96263270D01*
X128271047Y-96403357D01*
X128271047Y-96403362D01*
X128286845Y-96543437D01*
X128286845Y-96543439D01*
X128333423Y-96676496D01*
X128390399Y-96767137D01*
X128408446Y-96795848D01*
X128458251Y-96845634D01*
X128508086Y-96895468D01*
X128538963Y-96914869D01*
X128627430Y-96970458D01*
X128627434Y-96970459D01*
X128627435Y-96970460D01*
X128760479Y-97017014D01*
X128900546Y-97032796D01*
X129040613Y-97017014D01*
X129090425Y-96999584D01*
X129127868Y-97001686D01*
X129152858Y-97029650D01*
X129152858Y-97062020D01*
X129135437Y-97111797D01*
X129119647Y-97251853D01*
X129135413Y-97391900D01*
X129135414Y-97391905D01*
X129135414Y-97391907D01*
X129135415Y-97391908D01*
X129181952Y-97524945D01*
X129212053Y-97572863D01*
X129256923Y-97644293D01*
X129267508Y-97654881D01*
X129267509Y-97654881D01*
X129270315Y-97657688D01*
X129270325Y-97657708D01*
X129306747Y-97694130D01*
X129324774Y-97712162D01*
X129345781Y-97733175D01*
X129345860Y-97733243D01*
X129356616Y-97743998D01*
X129475958Y-97818986D01*
X129475962Y-97818987D01*
X129475963Y-97818988D01*
X129609007Y-97865542D01*
X129749074Y-97881324D01*
X129889141Y-97865542D01*
X130022185Y-97818988D01*
X130022187Y-97818986D01*
X130022189Y-97818986D01*
X130068720Y-97789748D01*
X130141534Y-97743996D01*
X130154171Y-97731357D01*
X130154175Y-97731355D01*
X130161065Y-97724465D01*
X130161066Y-97724465D01*
X130244756Y-97640775D01*
X130279404Y-97626423D01*
X130314052Y-97640775D01*
X134200148Y-101526871D01*
X134214500Y-101561519D01*
X134214500Y-112624876D01*
X134200148Y-112659524D01*
X133868423Y-112991248D01*
X133846458Y-113003930D01*
X133784081Y-113020645D01*
X133784077Y-113020646D01*
X133694920Y-113072122D01*
X133694919Y-113072123D01*
X133207122Y-113559919D01*
X133155646Y-113649076D01*
X133155645Y-113649080D01*
X133129000Y-113748520D01*
X133129000Y-114350500D01*
X133114648Y-114385148D01*
X133080000Y-114399500D01*
X132900252Y-114399500D01*
X132841769Y-114411133D01*
X132775447Y-114455447D01*
X132750605Y-114492627D01*
X132731133Y-114521769D01*
X132719500Y-114580252D01*
X132719500Y-114580253D01*
X132719500Y-114580255D01*
X132719500Y-115550367D01*
X132715770Y-115569118D01*
X132702184Y-115601916D01*
X132702184Y-115601917D01*
X132702184Y-115601918D01*
X132669500Y-115766233D01*
X132669500Y-115766236D01*
X132669500Y-115800500D01*
X132655148Y-115835148D01*
X132620500Y-115849500D01*
X131879500Y-115849500D01*
X131844852Y-115835148D01*
X131830500Y-115800500D01*
X131830500Y-115766236D01*
X131830500Y-115766233D01*
X131797816Y-115601918D01*
X131784230Y-115569118D01*
X131780500Y-115550367D01*
X131780500Y-114580255D01*
X131780500Y-114580253D01*
X131780500Y-114580252D01*
X131768867Y-114521769D01*
X131742301Y-114482012D01*
X131724552Y-114455447D01*
X131684795Y-114428882D01*
X131658231Y-114411133D01*
X131599748Y-114399500D01*
X131599745Y-114399500D01*
X131420000Y-114399500D01*
X131385352Y-114385148D01*
X131371000Y-114350500D01*
X131371000Y-112578521D01*
X131344355Y-112479084D01*
X131344354Y-112479080D01*
X131312065Y-112423153D01*
X131305500Y-112398653D01*
X131305500Y-105757144D01*
X131284988Y-105680594D01*
X131284987Y-105680590D01*
X131284987Y-105680591D01*
X131283318Y-105674362D01*
X131283318Y-105674361D01*
X131240465Y-105600138D01*
X128819862Y-103179535D01*
X128745640Y-103136682D01*
X128745637Y-103136681D01*
X128662856Y-103114500D01*
X128662853Y-103114500D01*
X112805123Y-103114500D01*
X112770475Y-103100148D01*
X112577588Y-102907261D01*
X112563236Y-102872613D01*
X112564905Y-102859936D01*
X112570500Y-102839057D01*
X112570500Y-102680943D01*
X112570500Y-102680940D01*
X112570499Y-102680939D01*
X112529577Y-102528217D01*
X112529576Y-102528213D01*
X112450524Y-102391290D01*
X112450521Y-102391287D01*
X112450520Y-102391284D01*
X112338716Y-102279480D01*
X112338713Y-102279478D01*
X112338709Y-102279475D01*
X112201786Y-102200423D01*
X112201782Y-102200422D01*
X112049060Y-102159500D01*
X112049057Y-102159500D01*
X111890943Y-102159500D01*
X111890940Y-102159500D01*
X111738217Y-102200422D01*
X111738213Y-102200423D01*
X111601290Y-102279475D01*
X111601281Y-102279482D01*
X111489482Y-102391281D01*
X111489475Y-102391290D01*
X111461935Y-102438992D01*
X111432182Y-102461822D01*
X111395000Y-102456927D01*
X111372170Y-102427174D01*
X111370500Y-102414492D01*
X111370500Y-101630255D01*
X111370500Y-101630252D01*
X111358867Y-101571769D01*
X111328867Y-101526871D01*
X111314552Y-101505447D01*
X111274795Y-101478882D01*
X111248231Y-101461133D01*
X111189748Y-101449500D01*
X111189745Y-101449500D01*
X110219633Y-101449500D01*
X110200882Y-101445770D01*
X110168089Y-101432186D01*
X110168079Y-101432183D01*
X110101816Y-101419002D01*
X110003767Y-101399500D01*
X110003764Y-101399500D01*
X109969500Y-101399500D01*
X109934852Y-101385148D01*
X109920500Y-101350500D01*
X109920500Y-100609500D01*
X109934852Y-100574852D01*
X109969500Y-100560500D01*
X110003764Y-100560500D01*
X110003767Y-100560500D01*
X110168082Y-100527816D01*
X110175025Y-100524939D01*
X110200882Y-100514230D01*
X110219633Y-100510500D01*
X111189745Y-100510500D01*
X111189748Y-100510500D01*
X111248231Y-100498867D01*
X111314552Y-100454552D01*
X111358867Y-100388231D01*
X111370500Y-100329748D01*
X111370500Y-100153116D01*
X111384852Y-100118468D01*
X111394997Y-100110682D01*
X111459070Y-100073691D01*
X111543691Y-99989070D01*
X111543691Y-99989068D01*
X111547720Y-99985040D01*
X111547724Y-99985035D01*
X112485035Y-99047724D01*
X112485040Y-99047720D01*
X112489068Y-99043691D01*
X112489070Y-99043691D01*
X112573691Y-98959070D01*
X112633527Y-98855431D01*
X112640072Y-98831002D01*
X112664501Y-98739836D01*
X112664501Y-98620164D01*
X112664501Y-98617168D01*
X112664500Y-98617150D01*
X112664500Y-92922273D01*
X112671065Y-92897773D01*
X112749576Y-92761786D01*
X112749576Y-92761785D01*
X112749577Y-92761784D01*
X112790499Y-92609060D01*
X112790500Y-92609060D01*
X112790500Y-92450940D01*
X112790499Y-92450939D01*
X112749577Y-92298217D01*
X112749576Y-92298213D01*
X112670524Y-92161290D01*
X112670521Y-92161287D01*
X112670520Y-92161284D01*
X112558716Y-92049480D01*
X112558713Y-92049478D01*
X112558709Y-92049475D01*
X112421786Y-91970423D01*
X112421782Y-91970422D01*
X112269060Y-91929500D01*
X112269057Y-91929500D01*
X112110943Y-91929500D01*
X112110940Y-91929500D01*
X111958217Y-91970422D01*
X111958213Y-91970423D01*
X111821290Y-92049475D01*
X111821281Y-92049482D01*
X111709482Y-92161281D01*
X111709475Y-92161290D01*
X111630423Y-92298213D01*
X111630422Y-92298217D01*
X111589500Y-92450939D01*
X111589500Y-92609060D01*
X111630422Y-92761782D01*
X111630423Y-92761786D01*
X111709475Y-92898709D01*
X111709482Y-92898718D01*
X111741148Y-92930384D01*
X111755500Y-92965032D01*
X111755500Y-98471443D01*
X111741148Y-98506091D01*
X111323348Y-98923890D01*
X111288700Y-98938242D01*
X111261476Y-98929983D01*
X111248232Y-98921133D01*
X111233610Y-98918224D01*
X111189748Y-98909500D01*
X111189745Y-98909500D01*
X110219633Y-98909500D01*
X110200882Y-98905770D01*
X110168089Y-98892186D01*
X110168079Y-98892183D01*
X110101816Y-98879002D01*
X110003767Y-98859500D01*
X110003764Y-98859500D01*
X109969500Y-98859500D01*
X109934852Y-98845148D01*
X109920500Y-98810500D01*
X109920500Y-98069500D01*
X109934852Y-98034852D01*
X109969500Y-98020500D01*
X110003764Y-98020500D01*
X110003767Y-98020500D01*
X110168082Y-97987816D01*
X110175025Y-97984939D01*
X110200882Y-97974230D01*
X110219633Y-97970500D01*
X111189745Y-97970500D01*
X111189748Y-97970500D01*
X111248231Y-97958867D01*
X111314552Y-97914552D01*
X111358867Y-97848231D01*
X111370500Y-97789748D01*
X111370500Y-96550252D01*
X111358867Y-96491769D01*
X111332301Y-96452012D01*
X111314552Y-96425447D01*
X111274795Y-96398882D01*
X111248231Y-96381133D01*
X111189748Y-96369500D01*
X111189745Y-96369500D01*
X110924500Y-96369500D01*
X110889852Y-96355148D01*
X110875500Y-96320500D01*
X110875500Y-91895123D01*
X110889852Y-91860475D01*
X111180475Y-91569852D01*
X111215123Y-91555500D01*
X111556239Y-91555500D01*
X111590887Y-91569852D01*
X111598672Y-91579997D01*
X111609480Y-91598716D01*
X111721284Y-91710520D01*
X111721287Y-91710521D01*
X111721290Y-91710524D01*
X111858213Y-91789576D01*
X111858215Y-91789576D01*
X111858216Y-91789577D01*
X111978665Y-91821851D01*
X112010939Y-91830499D01*
X112010940Y-91830500D01*
X112010943Y-91830500D01*
X112169060Y-91830500D01*
X112169060Y-91830499D01*
X112321784Y-91789577D01*
X112458716Y-91710520D01*
X112570520Y-91598716D01*
X112649577Y-91461784D01*
X112690499Y-91309060D01*
X112690500Y-91309060D01*
X112690500Y-91150940D01*
X112690499Y-91150939D01*
X112668508Y-91068867D01*
X112649577Y-90998216D01*
X112649576Y-90998215D01*
X112649576Y-90998213D01*
X112570524Y-90861290D01*
X112570521Y-90861287D01*
X112570520Y-90861284D01*
X112458716Y-90749480D01*
X112458713Y-90749478D01*
X112458709Y-90749475D01*
X112321786Y-90670423D01*
X112321782Y-90670422D01*
X112169060Y-90629500D01*
X112169057Y-90629500D01*
X112010943Y-90629500D01*
X112010940Y-90629500D01*
X111858217Y-90670422D01*
X111858213Y-90670423D01*
X111721290Y-90749475D01*
X111721281Y-90749482D01*
X111609482Y-90861281D01*
X111598674Y-90880001D01*
X111568920Y-90902831D01*
X111556239Y-90904500D01*
X111017144Y-90904500D01*
X110934362Y-90926681D01*
X110934359Y-90926682D01*
X110860137Y-90969535D01*
X110860137Y-90969536D01*
X110289536Y-91540137D01*
X110289535Y-91540137D01*
X110246682Y-91614359D01*
X110246681Y-91614362D01*
X110224500Y-91697143D01*
X110224500Y-96303699D01*
X110210148Y-96338347D01*
X110175500Y-96352699D01*
X110165941Y-96351758D01*
X110136502Y-96345902D01*
X110003767Y-96319500D01*
X110003764Y-96319500D01*
X109969500Y-96319500D01*
X109934852Y-96305148D01*
X109920500Y-96270500D01*
X109920500Y-80489999D01*
X110557422Y-80489999D01*
X110557422Y-80490000D01*
X110559249Y-80507967D01*
X110559500Y-80512923D01*
X110559500Y-80588541D01*
X110559501Y-80588544D01*
X110575292Y-80667931D01*
X110575748Y-80670225D01*
X110577944Y-80691818D01*
X110583679Y-80710097D01*
X110584195Y-80712690D01*
X110584194Y-80712692D01*
X110597946Y-80781827D01*
X110597948Y-80781833D01*
X110597949Y-80781835D01*
X110607210Y-80804193D01*
X110631086Y-80861838D01*
X110631922Y-80863856D01*
X110638673Y-80885373D01*
X110647192Y-80900721D01*
X110648261Y-80903302D01*
X110648264Y-80903309D01*
X110673366Y-80963910D01*
X110673368Y-80963914D01*
X110674106Y-80965018D01*
X110724802Y-81040891D01*
X110725926Y-81042573D01*
X110737120Y-81062741D01*
X110747411Y-81074728D01*
X110749047Y-81077177D01*
X110749053Y-81077185D01*
X110782861Y-81127782D01*
X110782863Y-81127784D01*
X110854189Y-81199110D01*
X110869257Y-81216662D01*
X110880250Y-81225171D01*
X110922218Y-81267139D01*
X111011785Y-81326986D01*
X111029672Y-81340832D01*
X111040333Y-81346061D01*
X111043050Y-81347877D01*
X111086084Y-81376631D01*
X111086086Y-81376632D01*
X111192580Y-81420743D01*
X111211799Y-81430170D01*
X111221241Y-81432614D01*
X111268165Y-81452051D01*
X111389617Y-81476209D01*
X111408182Y-81481017D01*
X111415696Y-81481397D01*
X111461459Y-81490500D01*
X111595164Y-81490500D01*
X111610780Y-81491292D01*
X111615950Y-81490500D01*
X111658541Y-81490500D01*
X111801270Y-81462109D01*
X111811299Y-81460573D01*
X111813971Y-81459582D01*
X111851835Y-81452051D01*
X111999845Y-81390743D01*
X112001530Y-81390120D01*
X112001884Y-81389898D01*
X112033914Y-81376632D01*
X112197782Y-81267139D01*
X112337139Y-81127782D01*
X112446632Y-80963914D01*
X112522051Y-80781835D01*
X112560500Y-80588541D01*
X112560500Y-80391459D01*
X112522051Y-80198165D01*
X112446632Y-80016086D01*
X112337139Y-79852218D01*
X112197782Y-79712861D01*
X112033914Y-79603368D01*
X112003944Y-79590954D01*
X112003944Y-79590953D01*
X112001881Y-79590099D01*
X112001530Y-79589880D01*
X111999842Y-79589254D01*
X111998968Y-79588893D01*
X111998967Y-79588892D01*
X111998966Y-79588892D01*
X111851835Y-79527949D01*
X111817786Y-79521176D01*
X111813972Y-79520417D01*
X111811299Y-79519427D01*
X111801293Y-79517894D01*
X111800202Y-79517677D01*
X111800176Y-79517673D01*
X111731758Y-79504064D01*
X111658541Y-79489500D01*
X111615950Y-79489500D01*
X111610780Y-79488708D01*
X111595164Y-79489500D01*
X111461459Y-79489500D01*
X111451762Y-79491428D01*
X111419203Y-79497904D01*
X111419202Y-79497903D01*
X111415686Y-79498602D01*
X111408182Y-79498983D01*
X111389629Y-79503786D01*
X111388235Y-79504064D01*
X111268172Y-79527946D01*
X111268170Y-79527947D01*
X111224398Y-79546077D01*
X111224397Y-79546076D01*
X111221228Y-79547388D01*
X111211799Y-79549830D01*
X111192604Y-79559245D01*
X111191157Y-79559845D01*
X111191146Y-79559850D01*
X111086085Y-79603368D01*
X111043052Y-79632121D01*
X111040328Y-79633940D01*
X111029672Y-79639168D01*
X111011791Y-79653008D01*
X111010357Y-79653967D01*
X110922215Y-79712862D01*
X110922214Y-79712863D01*
X110882445Y-79752630D01*
X110882446Y-79752631D01*
X110880242Y-79754834D01*
X110869257Y-79763338D01*
X110854195Y-79780882D01*
X110852873Y-79782205D01*
X110782858Y-79852221D01*
X110749053Y-79902810D01*
X110749054Y-79902811D01*
X110747406Y-79905276D01*
X110737120Y-79917259D01*
X110725935Y-79937409D01*
X110724808Y-79939097D01*
X110724805Y-79939103D01*
X110673365Y-80016090D01*
X110648262Y-80076693D01*
X110647187Y-80079285D01*
X110638673Y-80094627D01*
X110631925Y-80116131D01*
X110631091Y-80118147D01*
X110631087Y-80118159D01*
X110597947Y-80198170D01*
X110597946Y-80198172D01*
X110584193Y-80267312D01*
X110583674Y-80269917D01*
X110577944Y-80288182D01*
X110575751Y-80309741D01*
X110575294Y-80312042D01*
X110575293Y-80312055D01*
X110559500Y-80391460D01*
X110559500Y-80467075D01*
X110559249Y-80472031D01*
X110557422Y-80489999D01*
X109920500Y-80489999D01*
X109920500Y-78899500D01*
X109934852Y-78864852D01*
X109969500Y-78850500D01*
X118861690Y-78850500D01*
X118872503Y-78854979D01*
G37*
G04 #@! TD.AperFunction*
G04 #@! TA.AperFunction,Conductor*
G36*
X149915148Y-78864852D02*
G01*
X149929500Y-78899500D01*
X149929500Y-86840500D01*
X149915148Y-86875148D01*
X149880500Y-86889500D01*
X149846233Y-86889500D01*
X149764451Y-86905767D01*
X149681920Y-86922183D01*
X149681910Y-86922186D01*
X149649118Y-86935770D01*
X149630367Y-86939500D01*
X148660252Y-86939500D01*
X148601769Y-86951133D01*
X148535447Y-86995447D01*
X148491133Y-87061769D01*
X148479500Y-87120252D01*
X148479500Y-87120255D01*
X148479500Y-87300000D01*
X148465148Y-87334648D01*
X148430500Y-87349000D01*
X147358521Y-87349000D01*
X147259084Y-87375644D01*
X147259080Y-87375645D01*
X147259080Y-87375646D01*
X147238016Y-87387806D01*
X147169920Y-87427121D01*
X147169917Y-87427124D01*
X146742123Y-87854919D01*
X146742122Y-87854919D01*
X146690646Y-87944076D01*
X146690644Y-87944082D01*
X146673931Y-88006457D01*
X146661249Y-88028423D01*
X146159525Y-88530148D01*
X146124877Y-88544500D01*
X127875122Y-88544500D01*
X127840474Y-88530148D01*
X126749852Y-87439525D01*
X126735500Y-87404877D01*
X126735500Y-86595123D01*
X126749852Y-86560475D01*
X127110464Y-86199863D01*
X127110465Y-86199862D01*
X127153318Y-86125639D01*
X127175499Y-86042856D01*
X127175500Y-86042856D01*
X127175500Y-85503760D01*
X127189852Y-85469112D01*
X127200002Y-85461324D01*
X127218709Y-85450524D01*
X127218708Y-85450524D01*
X127218716Y-85450520D01*
X127330520Y-85338716D01*
X127409577Y-85201784D01*
X127450499Y-85049060D01*
X127450500Y-85049060D01*
X127450500Y-84890940D01*
X127450499Y-84890939D01*
X127409577Y-84738217D01*
X127409576Y-84738213D01*
X127330524Y-84601290D01*
X127330521Y-84601287D01*
X127330520Y-84601284D01*
X127218716Y-84489480D01*
X127218713Y-84489478D01*
X127218709Y-84489475D01*
X127081786Y-84410423D01*
X127081782Y-84410422D01*
X126929060Y-84369500D01*
X126929057Y-84369500D01*
X126770943Y-84369500D01*
X126770940Y-84369500D01*
X126618217Y-84410422D01*
X126618213Y-84410423D01*
X126481290Y-84489475D01*
X126481281Y-84489482D01*
X126369482Y-84601281D01*
X126369475Y-84601290D01*
X126290423Y-84738213D01*
X126290422Y-84738217D01*
X126249500Y-84890939D01*
X126249081Y-84894124D01*
X126248212Y-84894009D01*
X126235148Y-84925550D01*
X126200500Y-84939902D01*
X126165852Y-84925550D01*
X126153170Y-84903584D01*
X126119577Y-84778217D01*
X126119576Y-84778213D01*
X126040524Y-84641290D01*
X126040521Y-84641287D01*
X126040520Y-84641284D01*
X125928716Y-84529480D01*
X125928713Y-84529478D01*
X125928709Y-84529475D01*
X125791786Y-84450423D01*
X125791782Y-84450422D01*
X125639060Y-84409500D01*
X125639057Y-84409500D01*
X125480943Y-84409500D01*
X125480940Y-84409500D01*
X125328217Y-84450422D01*
X125328213Y-84450423D01*
X125191290Y-84529475D01*
X125191281Y-84529482D01*
X125079482Y-84641281D01*
X125079475Y-84641290D01*
X125000423Y-84778213D01*
X125000422Y-84778217D01*
X124959500Y-84930939D01*
X124959500Y-85089060D01*
X125000422Y-85241782D01*
X125000423Y-85241786D01*
X125079475Y-85378709D01*
X125079478Y-85378713D01*
X125079480Y-85378716D01*
X125191284Y-85490520D01*
X125191287Y-85490521D01*
X125191290Y-85490524D01*
X125209998Y-85501324D01*
X125232830Y-85531076D01*
X125234500Y-85543760D01*
X125234500Y-86072856D01*
X125256681Y-86155637D01*
X125256682Y-86155640D01*
X125299535Y-86229862D01*
X125620148Y-86550475D01*
X125634500Y-86585123D01*
X125634500Y-87789252D01*
X125656681Y-87872033D01*
X125656682Y-87872036D01*
X125698275Y-87944076D01*
X125699535Y-87946258D01*
X127333742Y-89580465D01*
X127407965Y-89623318D01*
X127472214Y-89640533D01*
X127490747Y-89645499D01*
X127490748Y-89645500D01*
X127490751Y-89645500D01*
X127576457Y-89645500D01*
X146134877Y-89645500D01*
X146169525Y-89659852D01*
X146601249Y-90091575D01*
X146613931Y-90113541D01*
X146630645Y-90175919D01*
X146630646Y-90175923D01*
X146682122Y-90265080D01*
X147039920Y-90622878D01*
X147051390Y-90629500D01*
X147129076Y-90674353D01*
X147129078Y-90674353D01*
X147129079Y-90674354D01*
X147207507Y-90695368D01*
X147228520Y-90700999D01*
X147228521Y-90701000D01*
X147228524Y-90701000D01*
X148430500Y-90701000D01*
X148465148Y-90715352D01*
X148479500Y-90750000D01*
X148479500Y-90899748D01*
X148491133Y-90958231D01*
X148498687Y-90969536D01*
X148535447Y-91024552D01*
X148549143Y-91033703D01*
X148601769Y-91068867D01*
X148660252Y-91080500D01*
X149630367Y-91080500D01*
X149649118Y-91084230D01*
X149681910Y-91097813D01*
X149681912Y-91097813D01*
X149681918Y-91097816D01*
X149846233Y-91130500D01*
X149880500Y-91130500D01*
X149915148Y-91144852D01*
X149929500Y-91179500D01*
X149929500Y-91920500D01*
X149915148Y-91955148D01*
X149880500Y-91969500D01*
X149846233Y-91969500D01*
X149764451Y-91985767D01*
X149681920Y-92002183D01*
X149681910Y-92002186D01*
X149649118Y-92015770D01*
X149630367Y-92019500D01*
X148660252Y-92019500D01*
X148601769Y-92031133D01*
X148535447Y-92075447D01*
X148491133Y-92141769D01*
X148479500Y-92200252D01*
X148479500Y-93439748D01*
X148491133Y-93498231D01*
X148508882Y-93524795D01*
X148535447Y-93564552D01*
X148549143Y-93573703D01*
X148601769Y-93608867D01*
X148660252Y-93620500D01*
X149630367Y-93620500D01*
X149649118Y-93624230D01*
X149681910Y-93637813D01*
X149681912Y-93637813D01*
X149681918Y-93637816D01*
X149846233Y-93670500D01*
X149880500Y-93670500D01*
X149915148Y-93684852D01*
X149929500Y-93719500D01*
X149929500Y-94460500D01*
X149915148Y-94495148D01*
X149880500Y-94509500D01*
X149846233Y-94509500D01*
X149764451Y-94525767D01*
X149681920Y-94542183D01*
X149681910Y-94542186D01*
X149649118Y-94555770D01*
X149630367Y-94559500D01*
X148660252Y-94559500D01*
X148601769Y-94571133D01*
X148535447Y-94615447D01*
X148491133Y-94681769D01*
X148479500Y-94740252D01*
X148479500Y-95979748D01*
X148491133Y-96038231D01*
X148508882Y-96064795D01*
X148535447Y-96104552D01*
X148549143Y-96113703D01*
X148601769Y-96148867D01*
X148660252Y-96160500D01*
X149630367Y-96160500D01*
X149649118Y-96164230D01*
X149681910Y-96177813D01*
X149681912Y-96177813D01*
X149681918Y-96177816D01*
X149846233Y-96210500D01*
X149880500Y-96210500D01*
X149915148Y-96224852D01*
X149929500Y-96259500D01*
X149929500Y-96751000D01*
X149915148Y-96785648D01*
X149880500Y-96800000D01*
X149555000Y-96800000D01*
X149555000Y-97426473D01*
X149449881Y-97531592D01*
X149370889Y-97668409D01*
X149330000Y-97821009D01*
X149330000Y-97978991D01*
X149370889Y-98131591D01*
X149449881Y-98268408D01*
X149555000Y-98373527D01*
X149555000Y-99000000D01*
X149880500Y-99000000D01*
X149915148Y-99014352D01*
X149929500Y-99049000D01*
X149929500Y-115800500D01*
X149915148Y-115835148D01*
X149880500Y-115849500D01*
X142039500Y-115849500D01*
X142004852Y-115835148D01*
X141990500Y-115800500D01*
X141990500Y-115766236D01*
X141990500Y-115766233D01*
X141957816Y-115601918D01*
X141944230Y-115569118D01*
X141940500Y-115550367D01*
X141940500Y-114580255D01*
X141940500Y-114580253D01*
X141940500Y-114580252D01*
X141928867Y-114521769D01*
X141902301Y-114482012D01*
X141884552Y-114455447D01*
X141844795Y-114428882D01*
X141818231Y-114411133D01*
X141759748Y-114399500D01*
X140520252Y-114399500D01*
X140461769Y-114411133D01*
X140395447Y-114455447D01*
X140370605Y-114492627D01*
X140351133Y-114521769D01*
X140339500Y-114580252D01*
X140339500Y-114580253D01*
X140339500Y-114580255D01*
X140339500Y-115550367D01*
X140335770Y-115569118D01*
X140322184Y-115601916D01*
X140322184Y-115601917D01*
X140322184Y-115601918D01*
X140289500Y-115766233D01*
X140289500Y-115766236D01*
X140289500Y-115800500D01*
X140275148Y-115835148D01*
X140240500Y-115849500D01*
X139749000Y-115849500D01*
X139714352Y-115835148D01*
X139700000Y-115800500D01*
X139700000Y-115475000D01*
X139073527Y-115475000D01*
X138968408Y-115369881D01*
X138831591Y-115290889D01*
X138678991Y-115250000D01*
X138521009Y-115250000D01*
X138368409Y-115290889D01*
X138231592Y-115369881D01*
X138126473Y-115475000D01*
X137500000Y-115475000D01*
X137500000Y-115800500D01*
X137485648Y-115835148D01*
X137451000Y-115849500D01*
X136959500Y-115849500D01*
X136924852Y-115835148D01*
X136910500Y-115800500D01*
X136910500Y-115766236D01*
X136910500Y-115766233D01*
X136877816Y-115601918D01*
X136864230Y-115569118D01*
X136860500Y-115550367D01*
X136860500Y-114580253D01*
X136860499Y-114580249D01*
X136856555Y-114560420D01*
X136854913Y-114552165D01*
X137500000Y-114552165D01*
X137500000Y-114975000D01*
X138350000Y-114975000D01*
X138850000Y-114975000D01*
X139700000Y-114975000D01*
X139700000Y-114552165D01*
X139693598Y-114492627D01*
X139693598Y-114492626D01*
X139643351Y-114357908D01*
X139557188Y-114242811D01*
X139442091Y-114156648D01*
X139307373Y-114106401D01*
X139247834Y-114100000D01*
X138850000Y-114100000D01*
X138850000Y-114975000D01*
X138350000Y-114975000D01*
X138350000Y-114100000D01*
X137952166Y-114100000D01*
X137892627Y-114106401D01*
X137892626Y-114106401D01*
X137757908Y-114156648D01*
X137642811Y-114242811D01*
X137556648Y-114357908D01*
X137506401Y-114492626D01*
X137506401Y-114492627D01*
X137500000Y-114552165D01*
X136854913Y-114552165D01*
X136848867Y-114521769D01*
X136829394Y-114492626D01*
X136804552Y-114455447D01*
X136764795Y-114428882D01*
X136738231Y-114411133D01*
X136679748Y-114399500D01*
X136679745Y-114399500D01*
X136500000Y-114399500D01*
X136465352Y-114385148D01*
X136451000Y-114350500D01*
X136451000Y-113898522D01*
X136441074Y-113861481D01*
X136441074Y-113861480D01*
X136424354Y-113799079D01*
X136424353Y-113799076D01*
X136391718Y-113742552D01*
X136372878Y-113709920D01*
X135720080Y-113057122D01*
X135656902Y-113020646D01*
X135655697Y-113019950D01*
X135630923Y-113005646D01*
X135630919Y-113005645D01*
X135568541Y-112988931D01*
X135553070Y-112979999D01*
X146372224Y-112979999D01*
X146374051Y-112997967D01*
X146374302Y-113002923D01*
X146374302Y-113078541D01*
X146390094Y-113157931D01*
X146390550Y-113160225D01*
X146392746Y-113181818D01*
X146398481Y-113200097D01*
X146398997Y-113202690D01*
X146398996Y-113202692D01*
X146412748Y-113271827D01*
X146412750Y-113271833D01*
X146412751Y-113271835D01*
X146422012Y-113294193D01*
X146445888Y-113351838D01*
X146446724Y-113353856D01*
X146453475Y-113375373D01*
X146461994Y-113390721D01*
X146463063Y-113393302D01*
X146463066Y-113393309D01*
X146487201Y-113451575D01*
X146488170Y-113453914D01*
X146522287Y-113504974D01*
X146539604Y-113530891D01*
X146540728Y-113532573D01*
X146551922Y-113552741D01*
X146562213Y-113564728D01*
X146563849Y-113567177D01*
X146563855Y-113567185D01*
X146597663Y-113617782D01*
X146597665Y-113617784D01*
X146668991Y-113689110D01*
X146684059Y-113706662D01*
X146695052Y-113715171D01*
X146737020Y-113757139D01*
X146826587Y-113816986D01*
X146844474Y-113830832D01*
X146855135Y-113836061D01*
X146857852Y-113837877D01*
X146900886Y-113866631D01*
X146900888Y-113866632D01*
X147007382Y-113910743D01*
X147026601Y-113920170D01*
X147036043Y-113922614D01*
X147082967Y-113942051D01*
X147204419Y-113966209D01*
X147222984Y-113971017D01*
X147230498Y-113971397D01*
X147276261Y-113980500D01*
X147409966Y-113980500D01*
X147425582Y-113981292D01*
X147430752Y-113980500D01*
X147473343Y-113980500D01*
X147616072Y-113952109D01*
X147626101Y-113950573D01*
X147628773Y-113949582D01*
X147666637Y-113942051D01*
X147814647Y-113880743D01*
X147816332Y-113880120D01*
X147816686Y-113879898D01*
X147848716Y-113866632D01*
X148012584Y-113757139D01*
X148151941Y-113617782D01*
X148261434Y-113453914D01*
X148336853Y-113271835D01*
X148375302Y-113078541D01*
X148375302Y-112881459D01*
X148336853Y-112688165D01*
X148261434Y-112506086D01*
X148151941Y-112342218D01*
X148012584Y-112202861D01*
X147848716Y-112093368D01*
X147818746Y-112080954D01*
X147818746Y-112080953D01*
X147816683Y-112080099D01*
X147816332Y-112079880D01*
X147814644Y-112079254D01*
X147813770Y-112078893D01*
X147813769Y-112078892D01*
X147813768Y-112078892D01*
X147666637Y-112017949D01*
X147632588Y-112011176D01*
X147628774Y-112010417D01*
X147626101Y-112009427D01*
X147616095Y-112007894D01*
X147615004Y-112007677D01*
X147614978Y-112007673D01*
X147546560Y-111994064D01*
X147473343Y-111979500D01*
X147430752Y-111979500D01*
X147425582Y-111978708D01*
X147409966Y-111979500D01*
X147276261Y-111979500D01*
X147266564Y-111981428D01*
X147234005Y-111987904D01*
X147234004Y-111987903D01*
X147230488Y-111988602D01*
X147222984Y-111988983D01*
X147204431Y-111993786D01*
X147203037Y-111994064D01*
X147082974Y-112017946D01*
X147082972Y-112017947D01*
X147039200Y-112036077D01*
X147039199Y-112036076D01*
X147036030Y-112037388D01*
X147026601Y-112039830D01*
X147007406Y-112049245D01*
X147005959Y-112049845D01*
X147005948Y-112049850D01*
X146900887Y-112093368D01*
X146857854Y-112122121D01*
X146855130Y-112123940D01*
X146844474Y-112129168D01*
X146826593Y-112143008D01*
X146825159Y-112143967D01*
X146737017Y-112202862D01*
X146737016Y-112202863D01*
X146697247Y-112242630D01*
X146697248Y-112242631D01*
X146695044Y-112244834D01*
X146684059Y-112253338D01*
X146668997Y-112270882D01*
X146667675Y-112272205D01*
X146597660Y-112342221D01*
X146563855Y-112392810D01*
X146563856Y-112392811D01*
X146562208Y-112395276D01*
X146551922Y-112407259D01*
X146540737Y-112427409D01*
X146539610Y-112429097D01*
X146539607Y-112429103D01*
X146488167Y-112506090D01*
X146463064Y-112566693D01*
X146461989Y-112569285D01*
X146453475Y-112584627D01*
X146446727Y-112606131D01*
X146445893Y-112608147D01*
X146445889Y-112608159D01*
X146412749Y-112688170D01*
X146412748Y-112688172D01*
X146398995Y-112757312D01*
X146398476Y-112759917D01*
X146392746Y-112778182D01*
X146390553Y-112799741D01*
X146390096Y-112802042D01*
X146390095Y-112802055D01*
X146374302Y-112881460D01*
X146374302Y-112957075D01*
X146374051Y-112962031D01*
X146372224Y-112979999D01*
X135553070Y-112979999D01*
X135546575Y-112976249D01*
X135329852Y-112759525D01*
X135315500Y-112724877D01*
X135315500Y-101177144D01*
X135315499Y-101177143D01*
X135293318Y-101094363D01*
X135293317Y-101094359D01*
X135250464Y-101020137D01*
X132778161Y-98547834D01*
X148180000Y-98547834D01*
X148186401Y-98607372D01*
X148186401Y-98607373D01*
X148236648Y-98742091D01*
X148322811Y-98857188D01*
X148437908Y-98943351D01*
X148572626Y-98993598D01*
X148632166Y-99000000D01*
X149055000Y-99000000D01*
X149055000Y-98150000D01*
X148180000Y-98150000D01*
X148180000Y-98547834D01*
X132778161Y-98547834D01*
X131482492Y-97252165D01*
X148180000Y-97252165D01*
X148180000Y-97650000D01*
X149055000Y-97650000D01*
X149055000Y-96800000D01*
X148632166Y-96800000D01*
X148572627Y-96806401D01*
X148572626Y-96806401D01*
X148437908Y-96856648D01*
X148322811Y-96942811D01*
X148236648Y-97057908D01*
X148186401Y-97192626D01*
X148186401Y-97192627D01*
X148180000Y-97252165D01*
X131482492Y-97252165D01*
X124159852Y-89929525D01*
X124145500Y-89894877D01*
X124145500Y-84565122D01*
X124159852Y-84530474D01*
X125180474Y-83509852D01*
X125215122Y-83495500D01*
X127594877Y-83495500D01*
X127629525Y-83509852D01*
X127910148Y-83790474D01*
X127924500Y-83825122D01*
X127924500Y-85642856D01*
X127946681Y-85725637D01*
X127946682Y-85725640D01*
X127972026Y-85769536D01*
X127989535Y-85799862D01*
X128710138Y-86520465D01*
X128784361Y-86563318D01*
X128827314Y-86574827D01*
X128867143Y-86585499D01*
X128867144Y-86585500D01*
X128867147Y-86585500D01*
X130222856Y-86585500D01*
X130222856Y-86585499D01*
X130305639Y-86563318D01*
X130379862Y-86520465D01*
X130935827Y-85964497D01*
X130935832Y-85964494D01*
X130939860Y-85960465D01*
X130939862Y-85960465D01*
X131000465Y-85899862D01*
X131043318Y-85825638D01*
X131058351Y-85769535D01*
X131065501Y-85742853D01*
X131065501Y-85657147D01*
X131065501Y-85654151D01*
X131065500Y-85654133D01*
X131065500Y-85543760D01*
X131079852Y-85509112D01*
X131090002Y-85501324D01*
X131108709Y-85490524D01*
X131108708Y-85490524D01*
X131108716Y-85490520D01*
X131220520Y-85378716D01*
X131299577Y-85241784D01*
X131340499Y-85089060D01*
X131340500Y-85089060D01*
X131340500Y-84930940D01*
X131340499Y-84930939D01*
X131299577Y-84778217D01*
X131299576Y-84778213D01*
X131220524Y-84641290D01*
X131220521Y-84641287D01*
X131220520Y-84641284D01*
X131108716Y-84529480D01*
X131108713Y-84529478D01*
X131108709Y-84529475D01*
X130971786Y-84450423D01*
X130971782Y-84450422D01*
X130819060Y-84409500D01*
X130819057Y-84409500D01*
X130660943Y-84409500D01*
X130660940Y-84409500D01*
X130508217Y-84450422D01*
X130508213Y-84450423D01*
X130371290Y-84529475D01*
X130371281Y-84529482D01*
X130259482Y-84641281D01*
X130259475Y-84641290D01*
X130180423Y-84778213D01*
X130180422Y-84778217D01*
X130147330Y-84901718D01*
X130124500Y-84931471D01*
X130087318Y-84936366D01*
X130057565Y-84913536D01*
X130052670Y-84901718D01*
X130019577Y-84778217D01*
X130019576Y-84778213D01*
X129940524Y-84641290D01*
X129940521Y-84641287D01*
X129940520Y-84641284D01*
X129828716Y-84529480D01*
X129809998Y-84518673D01*
X129787169Y-84488920D01*
X129785500Y-84476239D01*
X129785500Y-83137144D01*
X129785499Y-83137143D01*
X129763318Y-83054363D01*
X129763317Y-83054359D01*
X129720464Y-82980137D01*
X129109862Y-82369535D01*
X129036078Y-82326935D01*
X129013247Y-82297182D01*
X129018143Y-82260000D01*
X129047896Y-82237169D01*
X129060578Y-82235500D01*
X139489706Y-82235500D01*
X139528711Y-82227740D01*
X139587475Y-82216052D01*
X139587479Y-82216050D01*
X139587482Y-82216050D01*
X139622130Y-82201698D01*
X139705018Y-82146314D01*
X140176314Y-81675018D01*
X140231698Y-81592130D01*
X140245389Y-81559076D01*
X140245847Y-81558073D01*
X140246043Y-81557497D01*
X140246050Y-81557482D01*
X140246051Y-81557480D01*
X140265500Y-81459704D01*
X140265500Y-80310294D01*
X140256950Y-80267312D01*
X140246052Y-80212524D01*
X140246049Y-80212515D01*
X140234952Y-80185725D01*
X140231698Y-80177870D01*
X140176314Y-80094982D01*
X139925018Y-79843686D01*
X139842130Y-79788302D01*
X139842127Y-79788300D01*
X139842126Y-79788300D01*
X139809081Y-79774612D01*
X139808078Y-79774154D01*
X139807482Y-79773950D01*
X139807480Y-79773949D01*
X139807477Y-79773948D01*
X139807470Y-79773946D01*
X139709709Y-79754500D01*
X139709704Y-79754500D01*
X135540294Y-79754500D01*
X135540290Y-79754500D01*
X135442524Y-79773947D01*
X135442515Y-79773950D01*
X135407875Y-79788299D01*
X135407874Y-79788299D01*
X135324982Y-79843685D01*
X134788520Y-80380148D01*
X134753872Y-80394500D01*
X131516128Y-80394500D01*
X131481480Y-80380148D01*
X130999852Y-79898520D01*
X130985500Y-79863872D01*
X130985500Y-79210294D01*
X130985499Y-79210290D01*
X130966052Y-79112524D01*
X130966049Y-79112515D01*
X130951700Y-79077875D01*
X130951700Y-79077874D01*
X130951699Y-79077872D01*
X130951698Y-79077870D01*
X130896314Y-78994982D01*
X130854852Y-78953520D01*
X130840500Y-78918872D01*
X130840500Y-78899500D01*
X130854852Y-78864852D01*
X130889500Y-78850500D01*
X149880500Y-78850500D01*
X149915148Y-78864852D01*
G37*
G04 #@! TD.AperFunction*
G04 #@! TA.AperFunction,Conductor*
G36*
X121505148Y-78864852D02*
G01*
X121519500Y-78899500D01*
X121519500Y-78933767D01*
X121535165Y-79012520D01*
X121552183Y-79098079D01*
X121552185Y-79098085D01*
X121565770Y-79130880D01*
X121569500Y-79149632D01*
X121569500Y-80119748D01*
X121581133Y-80178231D01*
X121595585Y-80199860D01*
X121625447Y-80244552D01*
X121652012Y-80262301D01*
X121691769Y-80288867D01*
X121750252Y-80300500D01*
X121750255Y-80300500D01*
X122989745Y-80300500D01*
X122989748Y-80300500D01*
X123048231Y-80288867D01*
X123114552Y-80244552D01*
X123158867Y-80178231D01*
X123170500Y-80119748D01*
X123170500Y-79149632D01*
X123174230Y-79130880D01*
X123178615Y-79120294D01*
X123187816Y-79098082D01*
X123220500Y-78933767D01*
X123220500Y-78899500D01*
X123234852Y-78864852D01*
X123269500Y-78850500D01*
X124010500Y-78850500D01*
X124045148Y-78864852D01*
X124059500Y-78899500D01*
X124059500Y-78933767D01*
X124075165Y-79012520D01*
X124092183Y-79098079D01*
X124092185Y-79098085D01*
X124105770Y-79130880D01*
X124109500Y-79149632D01*
X124109500Y-80119748D01*
X124121133Y-80178231D01*
X124135585Y-80199860D01*
X124165447Y-80244552D01*
X124192012Y-80262301D01*
X124231769Y-80288867D01*
X124290252Y-80300500D01*
X124290255Y-80300500D01*
X125529745Y-80300500D01*
X125529748Y-80300500D01*
X125588231Y-80288867D01*
X125654552Y-80244552D01*
X125698867Y-80178231D01*
X125710500Y-80119748D01*
X125710500Y-79149632D01*
X125714230Y-79130880D01*
X125718615Y-79120294D01*
X125727816Y-79098082D01*
X125760500Y-78933767D01*
X125760500Y-78899500D01*
X125774852Y-78864852D01*
X125809500Y-78850500D01*
X126301000Y-78850500D01*
X126335648Y-78864852D01*
X126350000Y-78899500D01*
X126350000Y-79225000D01*
X126976473Y-79225000D01*
X127081592Y-79330119D01*
X127218409Y-79409111D01*
X127371009Y-79450000D01*
X127528991Y-79450000D01*
X127681591Y-79409111D01*
X127818408Y-79330119D01*
X127923527Y-79225000D01*
X128550000Y-79225000D01*
X128550000Y-78899500D01*
X128564352Y-78864852D01*
X128599000Y-78850500D01*
X129090500Y-78850500D01*
X129107273Y-78857447D01*
X129124233Y-78863960D01*
X129124501Y-78864584D01*
X129125148Y-78864852D01*
X129139483Y-78898223D01*
X129139500Y-78898875D01*
X129139500Y-78933767D01*
X129140546Y-78939030D01*
X129140656Y-78943213D01*
X129135322Y-78957103D01*
X129132417Y-78971711D01*
X129128300Y-78977871D01*
X129114612Y-79010918D01*
X129114154Y-79011920D01*
X129113946Y-79012529D01*
X129094500Y-79110290D01*
X129094500Y-79923872D01*
X129080148Y-79958520D01*
X128518520Y-80520148D01*
X128483872Y-80534500D01*
X128447204Y-80534500D01*
X128412556Y-80520148D01*
X128398204Y-80485500D01*
X128407978Y-80456135D01*
X128493351Y-80342091D01*
X128543598Y-80207373D01*
X128543598Y-80207372D01*
X128550000Y-80147834D01*
X128550000Y-79725000D01*
X126350000Y-79725000D01*
X126350000Y-80147834D01*
X126356401Y-80207372D01*
X126356401Y-80207373D01*
X126406648Y-80342091D01*
X126492022Y-80456135D01*
X126501297Y-80492473D01*
X126482161Y-80524726D01*
X126452796Y-80534500D01*
X121646128Y-80534500D01*
X121611480Y-80520148D01*
X120759852Y-79668520D01*
X120745500Y-79633872D01*
X120745500Y-79120294D01*
X120745499Y-79120290D01*
X120743952Y-79112515D01*
X120741082Y-79098085D01*
X120726052Y-79022524D01*
X120726049Y-79022515D01*
X120711699Y-78987872D01*
X120708186Y-78982615D01*
X120691140Y-78957103D01*
X120688758Y-78953538D01*
X120680500Y-78926315D01*
X120680500Y-78899500D01*
X120694852Y-78864852D01*
X120729500Y-78850500D01*
X121470500Y-78850500D01*
X121505148Y-78864852D01*
G37*
G04 #@! TD.AperFunction*
G04 #@! TA.AperFunction,Conductor*
G36*
X120274352Y-78884352D02*
G01*
X120475648Y-79085648D01*
X120490000Y-79120296D01*
X120490000Y-79760000D01*
X121520000Y-80790000D01*
X128609999Y-80790000D01*
X128610000Y-80790000D01*
X129350000Y-80050000D01*
X129350000Y-79110296D01*
X129364352Y-79075648D01*
X129545648Y-78894352D01*
X129580296Y-78880000D01*
X130399704Y-78880000D01*
X130434352Y-78894352D01*
X130715648Y-79175648D01*
X130730000Y-79210296D01*
X130730000Y-79990000D01*
X131390000Y-80650000D01*
X134879999Y-80650000D01*
X134880000Y-80650000D01*
X135505648Y-80024352D01*
X135540296Y-80010000D01*
X139709704Y-80010000D01*
X139744352Y-80024352D01*
X139995648Y-80275648D01*
X140010000Y-80310296D01*
X140010000Y-81459704D01*
X139995648Y-81494352D01*
X139524352Y-81965648D01*
X139489704Y-81980000D01*
X120340296Y-81980000D01*
X120305648Y-81965648D01*
X119124352Y-80784352D01*
X119110000Y-80749704D01*
X119110000Y-79080296D01*
X119124352Y-79045648D01*
X119285648Y-78884352D01*
X119320296Y-78870000D01*
X120239704Y-78870000D01*
X120274352Y-78884352D01*
G37*
G04 #@! TD.AperFunction*
G04 #@! TA.AperFunction,NonConductor*
G36*
X126713085Y-80249655D02*
G01*
X126715141Y-80251028D01*
X126771769Y-80288867D01*
X126830252Y-80300500D01*
X126830255Y-80300500D01*
X128069745Y-80300500D01*
X128069748Y-80300500D01*
X128128231Y-80288867D01*
X128186913Y-80249655D01*
X128223695Y-80242339D01*
X128254878Y-80263175D01*
X128262195Y-80299957D01*
X128253364Y-80319761D01*
X128243467Y-80332981D01*
X128223152Y-80371818D01*
X128212995Y-80391236D01*
X128212995Y-80391237D01*
X128212993Y-80391240D01*
X128203223Y-80420595D01*
X128203219Y-80420607D01*
X128193026Y-80473978D01*
X128193590Y-80477295D01*
X128185243Y-80513857D01*
X128153487Y-80533808D01*
X128145282Y-80534500D01*
X126750548Y-80534500D01*
X126715900Y-80520148D01*
X126701564Y-80486750D01*
X126700413Y-80441651D01*
X126691139Y-80405315D01*
X126691138Y-80405312D01*
X126684403Y-80391236D01*
X126656532Y-80332982D01*
X126656528Y-80332977D01*
X126656527Y-80332974D01*
X126646636Y-80319762D01*
X126637361Y-80283424D01*
X126656497Y-80251171D01*
X126692835Y-80241896D01*
X126713085Y-80249655D01*
G37*
G04 #@! TD.AperFunction*
M02*
