G04 #@! TF.GenerationSoftware,KiCad,Pcbnew,8.0.0-rc1*
G04 #@! TF.CreationDate,2024-11-04T15:19:59+03:00*
G04 #@! TF.ProjectId,Movita_CM4_CT_Router_V3.1,4d6f7669-7461-45f4-934d-345f43545f52,REV1*
G04 #@! TF.SameCoordinates,Original*
G04 #@! TF.FileFunction,Other,User*
%FSLAX46Y46*%
G04 Gerber Fmt 4.6, Leading zero omitted, Abs format (unit mm)*
G04 Created by KiCad (PCBNEW 8.0.0-rc1) date 2024-11-04 15:19:59*
%MOMM*%
%LPD*%
G01*
G04 APERTURE LIST*
%ADD10C,0.050000*%
%ADD11C,0.100000*%
G04 APERTURE END LIST*
D10*
X163473767Y-87674190D02*
X166433767Y-87674190D01*
X163473767Y-89134190D02*
X163473767Y-87674190D01*
X166433767Y-87674190D02*
X166433767Y-89134190D01*
X166433767Y-89134190D02*
X163473767Y-89134190D01*
X193833142Y-122892315D02*
X195693142Y-122892315D01*
X193833142Y-123832315D02*
X193833142Y-122892315D01*
X195693142Y-122892315D02*
X195693142Y-123832315D01*
X195693142Y-123832315D02*
X193833142Y-123832315D01*
X138548767Y-120784190D02*
X140508767Y-120784190D01*
X138548767Y-124184190D02*
X138548767Y-120784190D01*
X140508767Y-120784190D02*
X140508767Y-124184190D01*
X140508767Y-124184190D02*
X138548767Y-124184190D01*
X185221603Y-95864190D02*
X187041603Y-95864190D01*
X185221603Y-96784190D02*
X185221603Y-95864190D01*
X187041603Y-95864190D02*
X187041603Y-96784190D01*
X187041603Y-96784190D02*
X185221603Y-96784190D01*
X195588767Y-110989190D02*
X195588767Y-114049190D01*
X195588767Y-114049190D02*
X202613767Y-114049190D01*
X202613767Y-110989190D02*
X195588767Y-110989190D01*
X202613767Y-114049190D02*
X202613767Y-110989190D01*
X153398767Y-99674190D02*
X156358767Y-99674190D01*
X153398767Y-101134190D02*
X153398767Y-99674190D01*
X156358767Y-99674190D02*
X156358767Y-101134190D01*
X156358767Y-101134190D02*
X153398767Y-101134190D01*
X153388767Y-98124190D02*
X156348767Y-98124190D01*
X153388767Y-99584190D02*
X153388767Y-98124190D01*
X156348767Y-98124190D02*
X156348767Y-99584190D01*
X156348767Y-99584190D02*
X153388767Y-99584190D01*
X139051267Y-107986690D02*
X142011267Y-107986690D01*
X139051267Y-109446690D02*
X139051267Y-107986690D01*
X142011267Y-107986690D02*
X142011267Y-109446690D01*
X142011267Y-109446690D02*
X139051267Y-109446690D01*
X200513767Y-119754190D02*
X203473767Y-119754190D01*
X200513767Y-121214190D02*
X200513767Y-119754190D01*
X203473767Y-119754190D02*
X203473767Y-121214190D01*
X203473767Y-121214190D02*
X200513767Y-121214190D01*
X175186603Y-104586690D02*
X176646603Y-104586690D01*
X175186603Y-107546690D02*
X175186603Y-104586690D01*
X176646603Y-104586690D02*
X176646603Y-107546690D01*
X176646603Y-107546690D02*
X175186603Y-107546690D01*
X198933142Y-122902315D02*
X200393142Y-122902315D01*
X198933142Y-125862315D02*
X198933142Y-122902315D01*
X200393142Y-122902315D02*
X200393142Y-125862315D01*
X200393142Y-125862315D02*
X198933142Y-125862315D01*
X167533767Y-104579190D02*
X168453767Y-104579190D01*
X167533767Y-106399190D02*
X167533767Y-104579190D01*
X168453767Y-104579190D02*
X168453767Y-106399190D01*
X168453767Y-106399190D02*
X167533767Y-106399190D01*
X138796267Y-109694190D02*
X138796267Y-113094190D01*
X138796267Y-113094190D02*
X142636267Y-113094190D01*
X142636267Y-109694190D02*
X138796267Y-109694190D01*
X142636267Y-113094190D02*
X142636267Y-109694190D01*
X173646603Y-104576690D02*
X175106603Y-104576690D01*
X173646603Y-107536690D02*
X173646603Y-104576690D01*
X175106603Y-104576690D02*
X175106603Y-107536690D01*
X175106603Y-107536690D02*
X173646603Y-107536690D01*
X178256603Y-104581690D02*
X179716603Y-104581690D01*
X178256603Y-107541690D02*
X178256603Y-104581690D01*
X179716603Y-104581690D02*
X179716603Y-107541690D01*
X179716603Y-107541690D02*
X178256603Y-107541690D01*
X130763767Y-118144190D02*
X133723767Y-118144190D01*
X130763767Y-119604190D02*
X130763767Y-118144190D01*
X133723767Y-118144190D02*
X133723767Y-119604190D01*
X133723767Y-119604190D02*
X130763767Y-119604190D01*
X171503767Y-104559190D02*
X172423767Y-104559190D01*
X171503767Y-106379190D02*
X171503767Y-104559190D01*
X172423767Y-104559190D02*
X172423767Y-106379190D01*
X172423767Y-106379190D02*
X171503767Y-106379190D01*
X118198767Y-116784190D02*
X121158767Y-116784190D01*
X118198767Y-118244190D02*
X118198767Y-116784190D01*
X121158767Y-116784190D02*
X121158767Y-118244190D01*
X121158767Y-118244190D02*
X118198767Y-118244190D01*
X139063767Y-105904190D02*
X142023767Y-105904190D01*
X139063767Y-107364190D02*
X139063767Y-105904190D01*
X142023767Y-105904190D02*
X142023767Y-107364190D01*
X142023767Y-107364190D02*
X139063767Y-107364190D01*
X129243767Y-120354190D02*
X130703767Y-120354190D01*
X129243767Y-123314190D02*
X129243767Y-120354190D01*
X130703767Y-120354190D02*
X130703767Y-123314190D01*
X130703767Y-123314190D02*
X129243767Y-123314190D01*
X365678767Y69880810D02*
X368638767Y69880810D01*
X365678767Y68420810D02*
X365678767Y69880810D01*
X368638767Y69880810D02*
X368638767Y68420810D01*
X368638767Y68420810D02*
X365678767Y68420810D01*
D11*
X127223767Y-101734190D02*
X136523767Y-101734190D01*
X127223767Y-111734190D02*
X127223767Y-101734190D01*
X136523767Y-101734190D02*
X136523767Y-111734190D01*
X136523767Y-111734190D02*
X127223767Y-111734190D01*
D10*
X189103767Y-98064190D02*
X190023767Y-98064190D01*
X189103767Y-99884190D02*
X189103767Y-98064190D01*
X190023767Y-98064190D02*
X190023767Y-99884190D01*
X190023767Y-99884190D02*
X189103767Y-99884190D01*
X195813142Y-122902315D02*
X197273142Y-122902315D01*
X195813142Y-125862315D02*
X195813142Y-122902315D01*
X197273142Y-122902315D02*
X197273142Y-125862315D01*
X197273142Y-125862315D02*
X195813142Y-125862315D01*
X202783767Y-110984190D02*
X204243767Y-110984190D01*
X202783767Y-113944190D02*
X202783767Y-110984190D01*
X204243767Y-110984190D02*
X204243767Y-113944190D01*
X204243767Y-113944190D02*
X202783767Y-113944190D01*
X171523767Y-100459190D02*
X172443767Y-100459190D01*
X171523767Y-102279190D02*
X171523767Y-100459190D01*
X172443767Y-100459190D02*
X172443767Y-102279190D01*
X172443767Y-102279190D02*
X171523767Y-102279190D01*
X123953767Y-111954190D02*
X126913767Y-111954190D01*
X123953767Y-113414190D02*
X123953767Y-111954190D01*
X126913767Y-111954190D02*
X126913767Y-113414190D01*
X126913767Y-113414190D02*
X123953767Y-113414190D01*
X184651603Y-96904190D02*
X184651603Y-100304190D01*
X184651603Y-100304190D02*
X188851603Y-100304190D01*
X188851603Y-96904190D02*
X184651603Y-96904190D01*
X188851603Y-100304190D02*
X188851603Y-96904190D01*
X140661267Y-120794190D02*
X140661267Y-124194190D01*
X140661267Y-124194190D02*
X144761267Y-124194190D01*
X144761267Y-120794190D02*
X140661267Y-120794190D01*
X144761267Y-124194190D02*
X144761267Y-120794190D01*
X170523767Y-102531690D02*
X171443767Y-102531690D01*
X170523767Y-104351690D02*
X170523767Y-102531690D01*
X171443767Y-102531690D02*
X171443767Y-104351690D01*
X171443767Y-104351690D02*
X170523767Y-104351690D01*
X193833142Y-123922315D02*
X195693142Y-123922315D01*
X193833142Y-124862315D02*
X193833142Y-123922315D01*
X195693142Y-123922315D02*
X195693142Y-124862315D01*
X195693142Y-124862315D02*
X193833142Y-124862315D01*
X200253767Y-107279190D02*
X201713767Y-107279190D01*
X200253767Y-110239190D02*
X200253767Y-107279190D01*
X201713767Y-107279190D02*
X201713767Y-110239190D01*
X201713767Y-110239190D02*
X200253767Y-110239190D01*
X173816603Y-94969190D02*
X173816603Y-103209190D01*
X173816603Y-103209190D02*
X182056603Y-103209190D01*
X182056603Y-94969190D02*
X173816603Y-94969190D01*
X182056603Y-103209190D02*
X182056603Y-94969190D01*
X169533767Y-102531690D02*
X170453767Y-102531690D01*
X169533767Y-104351690D02*
X169533767Y-102531690D01*
X170453767Y-102531690D02*
X170453767Y-104351690D01*
X170453767Y-104351690D02*
X169533767Y-104351690D01*
X200501267Y-121354190D02*
X203461267Y-121354190D01*
X200501267Y-122814190D02*
X200501267Y-121354190D01*
X203461267Y-121354190D02*
X203461267Y-122814190D01*
X203461267Y-122814190D02*
X200501267Y-122814190D01*
X184641603Y-100384190D02*
X187601603Y-100384190D01*
X184641603Y-101844190D02*
X184641603Y-100384190D01*
X187601603Y-100384190D02*
X187601603Y-101844190D01*
X187601603Y-101844190D02*
X184641603Y-101844190D01*
X218389566Y-101944190D02*
G75*
G02*
X204897968Y-101944190I-6745799J0D01*
G01*
X204897968Y-101944190D02*
G75*
G02*
X218389566Y-101944190I6745799J0D01*
G01*
X138861267Y-102274190D02*
X138861267Y-105674190D01*
X138861267Y-105674190D02*
X142701267Y-105674190D01*
X142701267Y-102274190D02*
X138861267Y-102274190D01*
X142701267Y-105674190D02*
X142701267Y-102274190D01*
X203603767Y-121614190D02*
X205463767Y-121614190D01*
X203603767Y-122554190D02*
X203603767Y-121614190D01*
X205463767Y-121614190D02*
X205463767Y-122554190D01*
X205463767Y-122554190D02*
X203603767Y-122554190D01*
X168543767Y-104559190D02*
X169463767Y-104559190D01*
X168543767Y-106379190D02*
X168543767Y-104559190D01*
X169463767Y-104559190D02*
X169463767Y-106379190D01*
X169463767Y-106379190D02*
X168543767Y-106379190D01*
X130778767Y-115084190D02*
X133738767Y-115084190D01*
X130778767Y-116544190D02*
X130778767Y-115084190D01*
X133738767Y-115084190D02*
X133738767Y-116544190D01*
X133738767Y-116544190D02*
X130778767Y-116544190D01*
X127683767Y-120339190D02*
X129143767Y-120339190D01*
X127683767Y-123299190D02*
X127683767Y-120339190D01*
X129143767Y-120339190D02*
X129143767Y-123299190D01*
X129143767Y-123299190D02*
X127683767Y-123299190D01*
X198703767Y-107279190D02*
X200163767Y-107279190D01*
X198703767Y-110239190D02*
X198703767Y-107279190D01*
X200163767Y-107279190D02*
X200163767Y-110239190D01*
X200163767Y-110239190D02*
X198703767Y-110239190D01*
X163473767Y-89224190D02*
X166433767Y-89224190D01*
X163473767Y-90684190D02*
X163473767Y-89224190D01*
X166433767Y-89224190D02*
X166433767Y-90684190D01*
X166433767Y-90684190D02*
X163473767Y-90684190D01*
X171513767Y-102531690D02*
X172433767Y-102531690D01*
X171513767Y-104351690D02*
X171513767Y-102531690D01*
X172433767Y-102531690D02*
X172433767Y-104351690D01*
X172433767Y-104351690D02*
X171513767Y-104351690D01*
X197153767Y-107274190D02*
X198613767Y-107274190D01*
X197153767Y-110234190D02*
X197153767Y-107274190D01*
X198613767Y-107274190D02*
X198613767Y-110234190D01*
X198613767Y-110234190D02*
X197153767Y-110234190D01*
X203623767Y-120084190D02*
X205483767Y-120084190D01*
X203623767Y-121024190D02*
X203623767Y-120084190D01*
X205483767Y-120084190D02*
X205483767Y-121024190D01*
X205483767Y-121024190D02*
X203623767Y-121024190D01*
X201813767Y-107279190D02*
X203273767Y-107279190D01*
X201813767Y-110239190D02*
X201813767Y-107279190D01*
X203273767Y-107279190D02*
X203273767Y-110239190D01*
X203273767Y-110239190D02*
X201813767Y-110239190D01*
X146083767Y-121564190D02*
X147023767Y-121564190D01*
X146083767Y-123424190D02*
X146083767Y-121564190D01*
X147023767Y-121564190D02*
X147023767Y-123424190D01*
X147023767Y-123424190D02*
X146083767Y-123424190D01*
X121936767Y-113699190D02*
X129386767Y-113699190D01*
X121936767Y-119199190D02*
X121936767Y-113699190D01*
X129386767Y-113699190D02*
X129386767Y-119199190D01*
X129386767Y-119199190D02*
X121936767Y-119199190D01*
X222263767Y-83494190D02*
X222263767Y-96694190D01*
X222263767Y-96694190D02*
X232463767Y-96694190D01*
X232463767Y-83494190D02*
X222263767Y-83494190D01*
X232463767Y-96694190D02*
X232463767Y-83494190D01*
X169533767Y-100449190D02*
X170453767Y-100449190D01*
X169533767Y-102269190D02*
X169533767Y-100449190D01*
X170453767Y-100449190D02*
X170453767Y-102269190D01*
X170453767Y-102269190D02*
X169533767Y-102269190D01*
X198178767Y-97354190D02*
X201138767Y-97354190D01*
X198178767Y-98814190D02*
X198178767Y-97354190D01*
X201138767Y-97354190D02*
X201138767Y-98814190D01*
X201138767Y-98814190D02*
X198178767Y-98814190D01*
X196818767Y-99044190D02*
X196818767Y-106444190D01*
X196818767Y-106444190D02*
X202218767Y-106444190D01*
X202218767Y-99044190D02*
X196818767Y-99044190D01*
X202218767Y-106444190D02*
X202218767Y-99044190D01*
X139101267Y-113376690D02*
X142061267Y-113376690D01*
X139101267Y-114836690D02*
X139101267Y-113376690D01*
X142061267Y-113376690D02*
X142061267Y-114836690D01*
X142061267Y-114836690D02*
X139101267Y-114836690D01*
X139151267Y-100544190D02*
X142111267Y-100544190D01*
X139151267Y-102004190D02*
X139151267Y-100544190D01*
X142111267Y-100544190D02*
X142111267Y-102004190D01*
X142111267Y-102004190D02*
X139151267Y-102004190D01*
X195593767Y-107264190D02*
X197053767Y-107264190D01*
X195593767Y-110224190D02*
X195593767Y-107264190D01*
X197053767Y-107264190D02*
X197053767Y-110224190D01*
X197053767Y-110224190D02*
X195593767Y-110224190D01*
X118203767Y-115254190D02*
X121163767Y-115254190D01*
X118203767Y-116714190D02*
X118203767Y-115254190D01*
X121163767Y-115254190D02*
X121163767Y-116714190D01*
X121163767Y-116714190D02*
X118203767Y-116714190D01*
X157573767Y-90789190D02*
X157573767Y-96509190D01*
X157573767Y-96509190D02*
X167023767Y-96509190D01*
X167023767Y-90789190D02*
X157573767Y-90789190D01*
X167023767Y-96509190D02*
X167023767Y-90789190D01*
X130773767Y-116614190D02*
X133733767Y-116614190D01*
X130773767Y-118074190D02*
X130773767Y-116614190D01*
X133733767Y-116614190D02*
X133733767Y-118074190D01*
X133733767Y-118074190D02*
X130773767Y-118074190D01*
X170543767Y-100449190D02*
X171463767Y-100449190D01*
X170543767Y-102269190D02*
X170543767Y-100449190D01*
X171463767Y-100449190D02*
X171463767Y-102269190D01*
X171463767Y-102269190D02*
X170543767Y-102269190D01*
X170513767Y-104559190D02*
X171433767Y-104559190D01*
X170513767Y-106379190D02*
X170513767Y-104559190D01*
X171433767Y-104559190D02*
X171433767Y-106379190D01*
X171433767Y-106379190D02*
X170513767Y-106379190D01*
X169533767Y-104559190D02*
X170453767Y-104559190D01*
X169533767Y-106379190D02*
X169533767Y-104559190D01*
X170453767Y-104559190D02*
X170453767Y-106379190D01*
X170453767Y-106379190D02*
X169533767Y-106379190D01*
X184646603Y-101924190D02*
X187606603Y-101924190D01*
X184646603Y-103384190D02*
X184646603Y-101924190D01*
X187606603Y-101924190D02*
X187606603Y-103384190D01*
X187606603Y-103384190D02*
X184646603Y-103384190D01*
X197393142Y-122902315D02*
X198853142Y-122902315D01*
X197393142Y-125862315D02*
X197393142Y-122902315D01*
X198853142Y-122902315D02*
X198853142Y-125862315D01*
X198853142Y-125862315D02*
X197393142Y-125862315D01*
X193773767Y-90454190D02*
X193773767Y-95054190D01*
X193773767Y-95054190D02*
X208873767Y-95054190D01*
X208873767Y-90454190D02*
X193773767Y-90454190D01*
X208873767Y-95054190D02*
X208873767Y-90454190D01*
X130788767Y-112814190D02*
X135578767Y-112814190D01*
X130788767Y-115014190D02*
X130788767Y-112814190D01*
X135578767Y-112814190D02*
X135578767Y-115014190D01*
X135578767Y-115014190D02*
X130788767Y-115014190D01*
X147113767Y-122424190D02*
X150073767Y-122424190D01*
X147113767Y-123884190D02*
X147113767Y-122424190D01*
X150073767Y-122424190D02*
X150073767Y-123884190D01*
X150073767Y-123884190D02*
X147113767Y-123884190D01*
X147103767Y-120874190D02*
X150063767Y-120874190D01*
X147103767Y-122334190D02*
X147103767Y-120874190D01*
X150063767Y-120874190D02*
X150063767Y-122334190D01*
X150063767Y-122334190D02*
X147103767Y-122334190D01*
X200503767Y-122914190D02*
X200503767Y-125714190D01*
X200503767Y-122914190D02*
X203703767Y-122914190D01*
X200503767Y-125714190D02*
X203703767Y-125714190D01*
X203703767Y-125714190D02*
X203703767Y-122914190D01*
X176726603Y-104576690D02*
X178186603Y-104576690D01*
X176726603Y-107536690D02*
X176726603Y-104576690D01*
X178186603Y-104576690D02*
X178186603Y-107536690D01*
X178186603Y-107536690D02*
X176726603Y-107536690D01*
X119243767Y-101964190D02*
X127043767Y-101964190D01*
X119243767Y-111764190D02*
X119243767Y-101964190D01*
X127043767Y-101964190D02*
X127043767Y-111764190D01*
X127043767Y-111764190D02*
X119243767Y-111764190D01*
X118193767Y-113734190D02*
X121153767Y-113734190D01*
X118193767Y-115194190D02*
X118193767Y-113734190D01*
X121153767Y-113734190D02*
X121153767Y-115194190D01*
X121153767Y-115194190D02*
X118193767Y-115194190D01*
X168543767Y-102541690D02*
X169463767Y-102541690D01*
X168543767Y-104361690D02*
X168543767Y-102541690D01*
X169463767Y-102541690D02*
X169463767Y-104361690D01*
X169463767Y-104361690D02*
X168543767Y-104361690D01*
M02*
