G04 #@! TF.GenerationSoftware,KiCad,Pcbnew,9.0.0*
G04 #@! TF.CreationDate,2025-09-01T10:59:56+03:00*
G04 #@! TF.ProjectId,OV24-RV_V1.0,4f563234-2d52-4565-9f56-312e302e6b69,rev?*
G04 #@! TF.SameCoordinates,Original*
G04 #@! TF.FileFunction,Paste,Top*
G04 #@! TF.FilePolarity,Positive*
%FSLAX46Y46*%
G04 Gerber Fmt 4.6, Leading zero omitted, Abs format (unit mm)*
G04 Created by KiCad (PCBNEW 9.0.0) date 2025-09-01 10:59:56*
%MOMM*%
%LPD*%
G01*
G04 APERTURE LIST*
G04 Aperture macros list*
%AMRoundRect*
0 Rectangle with rounded corners*
0 $1 Rounding radius*
0 $2 $3 $4 $5 $6 $7 $8 $9 X,Y pos of 4 corners*
0 Add a 4 corners polygon primitive as box body*
4,1,4,$2,$3,$4,$5,$6,$7,$8,$9,$2,$3,0*
0 Add four circle primitives for the rounded corners*
1,1,$1+$1,$2,$3*
1,1,$1+$1,$4,$5*
1,1,$1+$1,$6,$7*
1,1,$1+$1,$8,$9*
0 Add four rect primitives between the rounded corners*
20,1,$1+$1,$2,$3,$4,$5,0*
20,1,$1+$1,$4,$5,$6,$7,0*
20,1,$1+$1,$6,$7,$8,$9,0*
20,1,$1+$1,$8,$9,$2,$3,0*%
G04 Aperture macros list end*
%ADD10R,2.100000X1.600000*%
%ADD11R,1.300000X0.350000*%
%ADD12R,0.300000X1.100000*%
%ADD13RoundRect,0.200000X-0.275000X0.200000X-0.275000X-0.200000X0.275000X-0.200000X0.275000X0.200000X0*%
%ADD14RoundRect,0.150000X-0.512500X-0.150000X0.512500X-0.150000X0.512500X0.150000X-0.512500X0.150000X0*%
%ADD15RoundRect,0.250000X0.250000X0.475000X-0.250000X0.475000X-0.250000X-0.475000X0.250000X-0.475000X0*%
%ADD16RoundRect,0.200000X0.275000X-0.200000X0.275000X0.200000X-0.275000X0.200000X-0.275000X-0.200000X0*%
G04 APERTURE END LIST*
D10*
X85793750Y-80866250D03*
D11*
X85393750Y-81841250D03*
X70193750Y-81841250D03*
D10*
X69793750Y-80866250D03*
D12*
X83543750Y-79916250D03*
X83043750Y-79916250D03*
X82543750Y-79916250D03*
X82043750Y-79916250D03*
X81543750Y-79916250D03*
X81043750Y-79916250D03*
X80543750Y-79916250D03*
X80043750Y-79916250D03*
X79543750Y-79916250D03*
X79043750Y-79916250D03*
X78543750Y-79916250D03*
X78043750Y-79916250D03*
X77543750Y-79916250D03*
X77043750Y-79916250D03*
X76543750Y-79916250D03*
X76043750Y-79916250D03*
X75543750Y-79916250D03*
X75043750Y-79916250D03*
X74543750Y-79916250D03*
X74043750Y-79916250D03*
X73543750Y-79916250D03*
X73043750Y-79916250D03*
X72543750Y-79916250D03*
X72043750Y-79916250D03*
X81553750Y-66399250D03*
X81053750Y-66399250D03*
X80553750Y-66399250D03*
X80053750Y-66399250D03*
X79553750Y-66399250D03*
X79053750Y-66399250D03*
X78553750Y-66399250D03*
X78053750Y-66399250D03*
X77553750Y-66399250D03*
X77053750Y-66399250D03*
X76553750Y-66399250D03*
X76053750Y-66399250D03*
X75553750Y-66399250D03*
X75053750Y-66399250D03*
X74553750Y-66399250D03*
X74053750Y-66399250D03*
X73553750Y-66399250D03*
X73053750Y-66399250D03*
X72553750Y-66399250D03*
X72053750Y-66399250D03*
D10*
X83803750Y-65449250D03*
D11*
X83403750Y-64474250D03*
X70203750Y-64474250D03*
D10*
X69803750Y-65449250D03*
D13*
X63513750Y-70241250D03*
X63513750Y-68591250D03*
X63513750Y-76491250D03*
X63513750Y-74841250D03*
D14*
X58786250Y-74601250D03*
X58786250Y-75551250D03*
X58786250Y-76501250D03*
X61061250Y-76501250D03*
X61061250Y-74601250D03*
D15*
X57103750Y-78401250D03*
X55203750Y-78401250D03*
D14*
X58736250Y-80711250D03*
X58736250Y-81661250D03*
X58736250Y-82611250D03*
X61011250Y-82611250D03*
X61011250Y-80711250D03*
D15*
X57092500Y-72446250D03*
X55192500Y-72446250D03*
X61503750Y-66541250D03*
X59603750Y-66541250D03*
D14*
X58772500Y-68636250D03*
X58772500Y-69586250D03*
X58772500Y-70536250D03*
X61047500Y-70536250D03*
X61047500Y-68636250D03*
D15*
X61412500Y-72446250D03*
X59512500Y-72446250D03*
D16*
X66053750Y-65716250D03*
X66053750Y-64066250D03*
D13*
X57013750Y-74846250D03*
X57013750Y-76496250D03*
X57057500Y-68881250D03*
X57057500Y-70531250D03*
X63483750Y-80558750D03*
X63483750Y-82208750D03*
X57003750Y-80966250D03*
X57003750Y-82616250D03*
D15*
X61443750Y-78411250D03*
X59543750Y-78411250D03*
X57103750Y-66601250D03*
X55203750Y-66601250D03*
M02*
