G04 #@! TF.GenerationSoftware,KiCad,Pcbnew,8.0.0-rc1*
G04 #@! TF.CreationDate,2025-03-26T09:49:13+03:00*
G04 #@! TF.ProjectId,Movita_3566_HXV_Router_V4.1,4d6f7669-7461-45f3-9335-36365f485856,REV1*
G04 #@! TF.SameCoordinates,Original*
G04 #@! TF.FileFunction,Paste,Bot*
G04 #@! TF.FilePolarity,Positive*
%FSLAX46Y46*%
G04 Gerber Fmt 4.6, Leading zero omitted, Abs format (unit mm)*
G04 Created by KiCad (PCBNEW 8.0.0-rc1) date 2025-03-26 09:49:13*
%MOMM*%
%LPD*%
G01*
G04 APERTURE LIST*
G04 Aperture macros list*
%AMRoundRect*
0 Rectangle with rounded corners*
0 $1 Rounding radius*
0 $2 $3 $4 $5 $6 $7 $8 $9 X,Y pos of 4 corners*
0 Add a 4 corners polygon primitive as box body*
4,1,4,$2,$3,$4,$5,$6,$7,$8,$9,$2,$3,0*
0 Add four circle primitives for the rounded corners*
1,1,$1+$1,$2,$3*
1,1,$1+$1,$4,$5*
1,1,$1+$1,$6,$7*
1,1,$1+$1,$8,$9*
0 Add four rect primitives between the rounded corners*
20,1,$1+$1,$2,$3,$4,$5,0*
20,1,$1+$1,$4,$5,$6,$7,0*
20,1,$1+$1,$6,$7,$8,$9,0*
20,1,$1+$1,$8,$9,$2,$3,0*%
G04 Aperture macros list end*
%ADD10RoundRect,0.140000X0.170000X-0.140000X0.170000X0.140000X-0.170000X0.140000X-0.170000X-0.140000X0*%
%ADD11RoundRect,0.135000X-0.135000X-0.185000X0.135000X-0.185000X0.135000X0.185000X-0.135000X0.185000X0*%
%ADD12RoundRect,0.200000X0.275000X-0.200000X0.275000X0.200000X-0.275000X0.200000X-0.275000X-0.200000X0*%
%ADD13RoundRect,0.140000X-0.170000X0.140000X-0.170000X-0.140000X0.170000X-0.140000X0.170000X0.140000X0*%
%ADD14RoundRect,0.135000X0.135000X0.185000X-0.135000X0.185000X-0.135000X-0.185000X0.135000X-0.185000X0*%
%ADD15RoundRect,0.200000X-0.275000X0.200000X-0.275000X-0.200000X0.275000X-0.200000X0.275000X0.200000X0*%
%ADD16RoundRect,0.250000X-0.315000X0.315000X-0.315000X-0.315000X0.315000X-0.315000X0.315000X0.315000X0*%
%ADD17RoundRect,0.062500X-0.062500X0.375000X-0.062500X-0.375000X0.062500X-0.375000X0.062500X0.375000X0*%
%ADD18RoundRect,0.062500X-0.375000X0.062500X-0.375000X-0.062500X0.375000X-0.062500X0.375000X0.062500X0*%
%ADD19RoundRect,0.225000X0.250000X-0.225000X0.250000X0.225000X-0.250000X0.225000X-0.250000X-0.225000X0*%
%ADD20RoundRect,0.225000X-0.225000X-0.250000X0.225000X-0.250000X0.225000X0.250000X-0.225000X0.250000X0*%
%ADD21RoundRect,0.135000X-0.185000X0.135000X-0.185000X-0.135000X0.185000X-0.135000X0.185000X0.135000X0*%
%ADD22R,1.120000X2.170000*%
%ADD23R,0.850000X0.850000*%
%ADD24RoundRect,0.225000X-0.250000X0.225000X-0.250000X-0.225000X0.250000X-0.225000X0.250000X0.225000X0*%
%ADD25RoundRect,0.200000X0.200000X0.275000X-0.200000X0.275000X-0.200000X-0.275000X0.200000X-0.275000X0*%
%ADD26RoundRect,0.140000X-0.140000X-0.170000X0.140000X-0.170000X0.140000X0.170000X-0.140000X0.170000X0*%
%ADD27R,0.600000X0.550000*%
%ADD28RoundRect,0.135000X0.185000X-0.135000X0.185000X0.135000X-0.185000X0.135000X-0.185000X-0.135000X0*%
%ADD29R,1.200000X1.800000*%
%ADD30RoundRect,0.225000X0.225000X0.250000X-0.225000X0.250000X-0.225000X-0.250000X0.225000X-0.250000X0*%
%ADD31R,1.550000X0.300000*%
%ADD32R,2.750000X1.200000*%
%ADD33RoundRect,0.125000X0.125000X0.175000X-0.125000X0.175000X-0.125000X-0.175000X0.125000X-0.175000X0*%
%ADD34RoundRect,0.200000X-0.200000X-0.275000X0.200000X-0.275000X0.200000X0.275000X-0.200000X0.275000X0*%
%ADD35R,2.400000X0.900000*%
%ADD36RoundRect,0.500000X-0.200000X-0.150000X0.200000X-0.150000X0.200000X0.150000X-0.200000X0.150000X0*%
%ADD37R,1.400000X1.200000*%
G04 APERTURE END LIST*
D10*
X73040000Y-73960000D03*
X73040000Y-73000000D03*
D11*
X140580000Y-136045000D03*
X141600000Y-136045000D03*
D10*
X70530000Y-74000000D03*
X70530000Y-73040000D03*
D12*
X79890000Y-73817500D03*
X79890000Y-72167500D03*
D13*
X124940000Y-145800000D03*
X124940000Y-146760000D03*
D10*
X122960000Y-146760000D03*
X122960000Y-145800000D03*
D14*
X155290000Y-139890000D03*
X154270000Y-139890000D03*
D12*
X81440000Y-73807500D03*
X81440000Y-72157500D03*
D15*
X187620000Y-54430000D03*
X187620000Y-56080000D03*
D16*
X150340000Y-138540000D03*
X148940000Y-138540000D03*
X147540000Y-138540000D03*
X146140000Y-138540000D03*
X150340000Y-139940000D03*
X148940000Y-139940000D03*
X147540000Y-139940000D03*
X146140000Y-139940000D03*
X150340000Y-141340000D03*
X148940000Y-141340000D03*
X147540000Y-141340000D03*
X146140000Y-141340000D03*
X150340000Y-142740000D03*
X148940000Y-142740000D03*
X147540000Y-142740000D03*
X146140000Y-142740000D03*
D17*
X145490000Y-137202500D03*
X145990000Y-137202500D03*
X146490000Y-137202500D03*
X146990000Y-137202500D03*
X147490000Y-137202500D03*
X147990000Y-137202500D03*
X148490000Y-137202500D03*
X148990000Y-137202500D03*
X149490000Y-137202500D03*
X149990000Y-137202500D03*
X150490000Y-137202500D03*
X150990000Y-137202500D03*
D18*
X151677500Y-137890000D03*
X151677500Y-138390000D03*
X151677500Y-138890000D03*
X151677500Y-139390000D03*
X151677500Y-139890000D03*
X151677500Y-140390000D03*
X151677500Y-140890000D03*
X151677500Y-141390000D03*
X151677500Y-141890000D03*
X151677500Y-142390000D03*
X151677500Y-142890000D03*
X151677500Y-143390000D03*
D17*
X150990000Y-144077500D03*
X150490000Y-144077500D03*
X149990000Y-144077500D03*
X149490000Y-144077500D03*
X148990000Y-144077500D03*
X148490000Y-144077500D03*
X147990000Y-144077500D03*
X147490000Y-144077500D03*
X146990000Y-144077500D03*
X146490000Y-144077500D03*
X145990000Y-144077500D03*
X145490000Y-144077500D03*
D18*
X144802500Y-143390000D03*
X144802500Y-142890000D03*
X144802500Y-142390000D03*
X144802500Y-141890000D03*
X144802500Y-141390000D03*
X144802500Y-140890000D03*
X144802500Y-140390000D03*
X144802500Y-139890000D03*
X144802500Y-139390000D03*
X144802500Y-138890000D03*
X144802500Y-138390000D03*
X144802500Y-137890000D03*
D14*
X64770000Y-64682500D03*
X63750000Y-64682500D03*
D12*
X196850000Y-56060000D03*
X196850000Y-54410000D03*
D19*
X71790000Y-73987500D03*
X71790000Y-72437500D03*
D20*
X158610000Y-135707500D03*
X160160000Y-135707500D03*
D21*
X122690000Y-136350000D03*
X122690000Y-137370000D03*
D22*
X148490000Y-30865000D03*
D23*
X148490000Y-33545000D03*
D21*
X123710000Y-136350000D03*
X123710000Y-137370000D03*
D24*
X150200000Y-149815000D03*
X150200000Y-151365000D03*
D21*
X126930000Y-145780000D03*
X126930000Y-146800000D03*
D20*
X158622500Y-138769998D03*
X160172500Y-138769998D03*
D15*
X164580000Y-54640000D03*
X164580000Y-56290000D03*
D19*
X78610000Y-99730000D03*
X78610000Y-98180000D03*
D11*
X61740000Y-63642500D03*
X62760000Y-63642500D03*
D15*
X129190000Y-55100000D03*
X129190000Y-56750000D03*
D25*
X63910000Y-80590000D03*
X62260000Y-80590000D03*
D13*
X193340000Y-61742500D03*
X193340000Y-62702500D03*
D12*
X170540000Y-63522500D03*
X170540000Y-61872500D03*
X76630000Y-69105000D03*
X76630000Y-67455000D03*
D15*
X192240000Y-54420000D03*
X192240000Y-56070000D03*
D26*
X120850000Y-145620000D03*
X121810000Y-145620000D03*
D13*
X75540000Y-80647500D03*
X75540000Y-81607500D03*
D27*
X144175000Y-150515000D03*
X144175000Y-149665000D03*
D15*
X193770000Y-54420000D03*
X193770000Y-56070000D03*
D19*
X78630000Y-121200000D03*
X78630000Y-119650000D03*
D13*
X126610000Y-140705000D03*
X126610000Y-141665000D03*
D12*
X148680000Y-151415000D03*
X148680000Y-149765000D03*
D28*
X120670000Y-137370000D03*
X120670000Y-136350000D03*
D13*
X125620000Y-140705000D03*
X125620000Y-141665000D03*
D26*
X120860000Y-144640000D03*
X121820000Y-144640000D03*
D11*
X61740000Y-64672500D03*
X62760000Y-64672500D03*
D12*
X175210000Y-63495000D03*
X175210000Y-61845000D03*
D24*
X151720000Y-149825000D03*
X151720000Y-151375000D03*
D12*
X178320000Y-63495000D03*
X178320000Y-61845000D03*
X168970000Y-63535000D03*
X168970000Y-61885000D03*
D15*
X68830000Y-80847500D03*
X68830000Y-82497500D03*
X191520000Y-123505000D03*
X191520000Y-125155000D03*
D26*
X120860000Y-142680000D03*
X121820000Y-142680000D03*
D22*
X139730000Y-35675000D03*
D23*
X139730000Y-38355000D03*
D24*
X153240000Y-149825000D03*
X153240000Y-151375000D03*
D29*
X108730000Y-58740000D03*
X111630000Y-58740000D03*
D15*
X123060000Y-55100000D03*
X123060000Y-56750000D03*
X163040000Y-54630000D03*
X163040000Y-56280000D03*
D13*
X150330000Y-60640000D03*
X150330000Y-61600000D03*
D24*
X147150000Y-149815000D03*
X147150000Y-151365000D03*
D20*
X154545000Y-137620000D03*
X156095000Y-137620000D03*
D15*
X165850000Y-61855000D03*
X165850000Y-63505000D03*
D13*
X163580000Y-61880000D03*
X163580000Y-62840000D03*
X194320000Y-61742500D03*
X194320000Y-62702500D03*
D28*
X127940000Y-146800000D03*
X127940000Y-145780000D03*
X125930000Y-146800000D03*
X125930000Y-145780000D03*
D22*
X164040000Y-30845000D03*
D23*
X164040000Y-33525000D03*
D26*
X75560000Y-78707500D03*
X76520000Y-78707500D03*
D13*
X193190000Y-118470000D03*
X193190000Y-119430000D03*
D30*
X156095000Y-145240000D03*
X154545000Y-145240000D03*
D13*
X72590000Y-80647500D03*
X72590000Y-81607500D03*
D20*
X154560000Y-142690000D03*
X156110000Y-142690000D03*
X158617500Y-137229998D03*
X160167500Y-137229998D03*
D31*
X198240000Y-155160000D03*
X190690000Y-154910000D03*
X198240000Y-154660000D03*
X190690000Y-154410000D03*
X198240000Y-154160000D03*
X190690000Y-153910000D03*
X198240000Y-153660000D03*
X190690000Y-153410000D03*
X198240000Y-153160000D03*
X190690000Y-152910000D03*
X198240000Y-152660000D03*
X190690000Y-152410000D03*
X198240000Y-152160000D03*
X190690000Y-151910000D03*
X198240000Y-151660000D03*
X190690000Y-151410000D03*
X198240000Y-151160000D03*
X190690000Y-150910000D03*
X198240000Y-150660000D03*
X190690000Y-150410000D03*
X198240000Y-150160000D03*
X190690000Y-149910000D03*
X198240000Y-149660000D03*
X190690000Y-149410000D03*
X198240000Y-149160000D03*
X190690000Y-148910000D03*
X198240000Y-148660000D03*
X190690000Y-148410000D03*
X198240000Y-148160000D03*
X190690000Y-147910000D03*
X198240000Y-147660000D03*
X190690000Y-147410000D03*
X198240000Y-147160000D03*
X190690000Y-146910000D03*
X198240000Y-146660000D03*
X190690000Y-146410000D03*
X198240000Y-146160000D03*
X190690000Y-145910000D03*
X198240000Y-145660000D03*
X190690000Y-145410000D03*
X198240000Y-145160000D03*
X190690000Y-144910000D03*
X198240000Y-144660000D03*
X190690000Y-144410000D03*
X198240000Y-144160000D03*
X190690000Y-143910000D03*
X198240000Y-143660000D03*
X190690000Y-143410000D03*
X198240000Y-143160000D03*
X190690000Y-142910000D03*
X198240000Y-142660000D03*
X190690000Y-142410000D03*
X198240000Y-142160000D03*
X190690000Y-141910000D03*
X198240000Y-141660000D03*
X190690000Y-141410000D03*
X198240000Y-141160000D03*
X190690000Y-140910000D03*
X198240000Y-138660000D03*
X190690000Y-138410000D03*
X198240000Y-138160000D03*
X190690000Y-137910000D03*
X198240000Y-137660000D03*
X190690000Y-137410000D03*
X198240000Y-137160000D03*
X190690000Y-136910000D03*
X198240000Y-136660000D03*
D32*
X197465000Y-156260000D03*
X197465000Y-135560000D03*
D15*
X199940000Y-54440000D03*
X199940000Y-56090000D03*
X195310000Y-54410000D03*
X195310000Y-56060000D03*
X167650000Y-54640000D03*
X167650000Y-56290000D03*
X155330000Y-54620000D03*
X155330000Y-56270000D03*
X166120000Y-54630000D03*
X166120000Y-56280000D03*
D11*
X156200000Y-138890000D03*
X157220000Y-138890000D03*
D15*
X161500000Y-54630000D03*
X161500000Y-56280000D03*
D25*
X141375000Y-143400000D03*
X139725000Y-143400000D03*
D15*
X121510000Y-55100000D03*
X121510000Y-56750000D03*
X189160000Y-54415000D03*
X189160000Y-56065000D03*
D28*
X121680000Y-137370000D03*
X121680000Y-136350000D03*
D15*
X127660000Y-55090000D03*
X127660000Y-56740000D03*
X135360000Y-55125000D03*
X135360000Y-56775000D03*
D26*
X75560000Y-79687500D03*
X76520000Y-79687500D03*
D15*
X126120000Y-55090000D03*
X126120000Y-56740000D03*
D33*
X63903489Y-79290000D03*
X63103489Y-79290000D03*
D15*
X149030000Y-60650000D03*
X149030000Y-62300000D03*
D12*
X179870000Y-63505000D03*
X179870000Y-61855000D03*
D26*
X75560000Y-77727500D03*
X76520000Y-77727500D03*
D12*
X173670000Y-63505000D03*
X173670000Y-61855000D03*
D24*
X192050000Y-60892500D03*
X192050000Y-62442500D03*
D15*
X124590000Y-55065000D03*
X124590000Y-56715000D03*
D14*
X155285000Y-134840000D03*
X154265000Y-134840000D03*
D21*
X125720000Y-136350000D03*
X125720000Y-137370000D03*
D15*
X133810000Y-55125000D03*
X133810000Y-56775000D03*
D10*
X123940000Y-146760000D03*
X123940000Y-145800000D03*
D13*
X74560000Y-80647500D03*
X74560000Y-81607500D03*
D30*
X156115000Y-146790000D03*
X154565000Y-146790000D03*
D15*
X130720000Y-55105000D03*
X130720000Y-56755000D03*
D34*
X71425000Y-153370000D03*
X73075000Y-153370000D03*
D15*
X167390000Y-61875000D03*
X167390000Y-63525000D03*
D13*
X164570000Y-61880000D03*
X164570000Y-62840000D03*
D35*
X198317580Y-96260000D03*
X198317580Y-94980000D03*
X198317580Y-93710000D03*
X197817580Y-92440000D03*
X198317580Y-91170000D03*
X198317580Y-89900000D03*
X198317580Y-88630000D03*
X198317580Y-87360000D03*
X198317580Y-86090000D03*
X198317580Y-84820000D03*
X198317580Y-83550000D03*
X197817580Y-82280000D03*
X198317580Y-81010000D03*
X198317580Y-79740000D03*
X198317580Y-78470000D03*
X198317580Y-110220000D03*
X198317580Y-108950000D03*
X198317580Y-107680000D03*
X198317580Y-106410000D03*
X198317580Y-105140000D03*
X198317580Y-103870000D03*
X198317580Y-102600000D03*
D22*
X102975000Y-35945000D03*
D23*
X102975000Y-38625000D03*
D24*
X124370000Y-139840000D03*
X124370000Y-141390000D03*
D26*
X120860000Y-143665000D03*
X121820000Y-143665000D03*
D14*
X155280000Y-138880000D03*
X154260000Y-138880000D03*
D22*
X187160000Y-35630000D03*
D23*
X187160000Y-38310000D03*
D15*
X119980000Y-55125000D03*
X119980000Y-56775000D03*
D25*
X141365000Y-141880000D03*
X139715000Y-141880000D03*
X156155000Y-136100000D03*
X154505000Y-136100000D03*
D12*
X172120000Y-63510000D03*
X172120000Y-61860000D03*
D19*
X145535000Y-151380000D03*
X145535000Y-149830000D03*
D13*
X194170000Y-118470000D03*
X194170000Y-119430000D03*
D21*
X124710000Y-136350000D03*
X124710000Y-137370000D03*
D15*
X156880000Y-54620000D03*
X156880000Y-56270000D03*
D22*
X118770000Y-35985000D03*
D23*
X118770000Y-38665000D03*
D14*
X64770000Y-63642500D03*
X63750000Y-63642500D03*
D20*
X154550000Y-141150000D03*
X156100000Y-141150000D03*
D15*
X159960000Y-54620000D03*
X159960000Y-56270000D03*
D11*
X154550000Y-143960000D03*
X155570000Y-143960000D03*
D13*
X195300000Y-61742500D03*
X195300000Y-62702500D03*
X73580000Y-80647500D03*
X73580000Y-81607500D03*
D15*
X198390000Y-54430000D03*
X198390000Y-56080000D03*
X190700000Y-54425000D03*
X190700000Y-56075000D03*
X158420000Y-54620000D03*
X158420000Y-56270000D03*
D12*
X176760000Y-63495000D03*
X176760000Y-61845000D03*
D36*
X53670000Y-155755000D03*
X53670000Y-152955000D03*
X53670000Y-149455000D03*
X53670000Y-146955000D03*
X65970000Y-146155000D03*
X65970000Y-148155000D03*
D24*
X122850000Y-139835000D03*
X122850000Y-141385000D03*
X181400000Y-61915000D03*
X181400000Y-63465000D03*
X70360000Y-80922500D03*
X70360000Y-82472500D03*
D25*
X141375000Y-137325000D03*
X139725000Y-137325000D03*
D10*
X120050000Y-141685000D03*
X120050000Y-140725000D03*
D25*
X141362500Y-138840000D03*
X139712500Y-138840000D03*
D15*
X153790000Y-54640000D03*
X153790000Y-56290000D03*
X132260000Y-55125000D03*
X132260000Y-56775000D03*
D24*
X121310000Y-139830000D03*
X121310000Y-141380000D03*
D34*
X139715000Y-140365000D03*
X141365000Y-140365000D03*
D37*
X72590000Y-67240000D03*
X74790000Y-67240000D03*
X74790000Y-68940000D03*
X72590000Y-68940000D03*
D13*
X71610000Y-80647500D03*
X71610000Y-81607500D03*
X196280000Y-61742500D03*
X196280000Y-62702500D03*
D12*
X78200000Y-69075000D03*
X78200000Y-67425000D03*
M02*
