M48
; DRILL file {KiCad 9.0.0} date 2025-09-01T12:56:56+0300
; FORMAT={-:-/ absolute / metric / decimal}
; #@! TF.CreationDate,2025-09-01T12:56:56+03:00
; #@! TF.GenerationSoftware,Kicad,Pcbnew,9.0.0
; #@! TF.FileFunction,Plated,1,2,PTH
FMAT,2
METRIC
; #@! TA.AperFunction,Plated,PTH,ViaDrill
T1C0.200
; #@! TA.AperFunction,Plated,PTH,ViaDrill
T2C0.254
; #@! TA.AperFunction,Plated,PTH,ViaDrill
T3C0.300
; #@! TA.AperFunction,Plated,PTH,ComponentDrill
T4C0.800
%
G90
G05
T1
X56.674Y-80.151
X56.792Y-74.076
X56.824Y-68.081
X57.274Y-80.121
X57.392Y-74.046
X57.424Y-68.051
X72.034Y-81.041
X72.534Y-78.911
X73.044Y-81.031
X73.334Y-64.411
X74.044Y-67.291
X74.544Y-81.031
X74.554Y-64.481
X75.03Y-77.723
X75.044Y-67.191
X75.532Y-74.4
X75.544Y-67.821
X75.557Y-77.723
X75.905Y-74.773
X76.054Y-64.471
X76.054Y-81.031
X76.53Y-72.231
X76.53Y-77.141
X77.057Y-72.231
X77.057Y-77.141
X77.534Y-64.491
X77.544Y-81.031
X78.554Y-81.031
X79.044Y-77.871
X79.054Y-64.391
X79.544Y-77.131
X80.044Y-77.891
X80.554Y-64.431
X80.554Y-80.961
X81.284Y-78.551
X81.564Y-64.441
X82.304Y-81.231
X83.254Y-78.481
T2
X63.484Y-83.654
X63.514Y-71.526
X63.514Y-77.711
T3
X58.462Y-72.446
X58.634Y-66.541
X58.834Y-78.411
X59.914Y-81.681
X59.924Y-75.551
X59.938Y-69.586
T4
X67.584Y-70.301
X67.584Y-72.301
X67.584Y-74.301
X67.584Y-76.301
X69.584Y-70.301
X69.584Y-72.301
X69.584Y-74.301
X69.584Y-76.301
M30
