G04*
G04 #@! TF.GenerationSoftware,Altium Limited,Altium Designer,22.2.1 (43)*
G04*
G04 Layer_Color=8421504*
%FSLAX25Y25*%
%MOIN*%
G70*
G04*
G04 #@! TF.SameCoordinates,176B9DA6-FD0B-44AF-BA7B-BFE41C1ADE4B*
G04*
G04*
G04 #@! TF.FilePolarity,Positive*
G04*
G01*
G75*
G04:AMPARAMS|DCode=15|XSize=98.43mil|YSize=28.35mil|CornerRadius=14.17mil|HoleSize=0mil|Usage=FLASHONLY|Rotation=180.000|XOffset=0mil|YOffset=0mil|HoleType=Round|Shape=RoundedRectangle|*
%AMROUNDEDRECTD15*
21,1,0.09843,0.00000,0,0,180.0*
21,1,0.07008,0.02835,0,0,180.0*
1,1,0.02835,-0.03504,0.00000*
1,1,0.02835,0.03504,0.00000*
1,1,0.02835,0.03504,0.00000*
1,1,0.02835,-0.03504,0.00000*
%
%ADD15ROUNDEDRECTD15*%
G04:AMPARAMS|DCode=16|XSize=98.43mil|YSize=28.35mil|CornerRadius=14.17mil|HoleSize=0mil|Usage=FLASHONLY|Rotation=270.000|XOffset=0mil|YOffset=0mil|HoleType=Round|Shape=RoundedRectangle|*
%AMROUNDEDRECTD16*
21,1,0.09843,0.00000,0,0,270.0*
21,1,0.07008,0.02835,0,0,270.0*
1,1,0.02835,0.00000,-0.03504*
1,1,0.02835,0.00000,0.03504*
1,1,0.02835,0.00000,0.03504*
1,1,0.02835,0.00000,-0.03504*
%
%ADD16ROUNDEDRECTD16*%
%ADD17R,0.07874X0.11811*%
%ADD18R,0.04331X0.04331*%
D15*
X140769Y23127D02*
D03*
Y28245D02*
D03*
Y33363D02*
D03*
Y38481D02*
D03*
Y43599D02*
D03*
Y48717D02*
D03*
Y53836D02*
D03*
Y71158D02*
D03*
Y76277D02*
D03*
Y81395D02*
D03*
Y86513D02*
D03*
Y91631D02*
D03*
Y96749D02*
D03*
Y101867D02*
D03*
Y106985D02*
D03*
Y112103D02*
D03*
Y117221D02*
D03*
Y122340D02*
D03*
X16753D02*
D03*
Y117221D02*
D03*
Y112103D02*
D03*
Y106985D02*
D03*
Y101867D02*
D03*
Y96749D02*
D03*
Y91631D02*
D03*
Y86513D02*
D03*
Y81395D02*
D03*
Y76277D02*
D03*
Y71158D02*
D03*
Y53836D02*
D03*
Y48717D02*
D03*
Y43599D02*
D03*
Y38481D02*
D03*
Y33363D02*
D03*
Y28245D02*
D03*
Y23127D02*
D03*
X140769Y60922D02*
D03*
Y66040D02*
D03*
X16753D02*
D03*
Y60922D02*
D03*
D16*
X116359Y128836D02*
D03*
X111241D02*
D03*
X106123D02*
D03*
X101005D02*
D03*
X95887D02*
D03*
X90769D02*
D03*
X85650D02*
D03*
X80532D02*
D03*
X75414D02*
D03*
X70296D02*
D03*
X65178D02*
D03*
X60060D02*
D03*
X54942D02*
D03*
X49824D02*
D03*
X44706D02*
D03*
X39588D02*
D03*
X34469D02*
D03*
X29351D02*
D03*
Y16631D02*
D03*
X34469D02*
D03*
X39588D02*
D03*
X44706D02*
D03*
X49824D02*
D03*
X54942D02*
D03*
X60060D02*
D03*
X65178D02*
D03*
X70296D02*
D03*
X75414D02*
D03*
X80532D02*
D03*
X85650D02*
D03*
X90769D02*
D03*
X95887D02*
D03*
X101005D02*
D03*
X106123D02*
D03*
X111241D02*
D03*
X116359D02*
D03*
X121477D02*
D03*
X126595D02*
D03*
X121477Y128836D02*
D03*
X126595D02*
D03*
D17*
X46477Y34938D02*
D03*
Y53836D02*
D03*
Y72733D02*
D03*
Y91631D02*
D03*
Y110529D02*
D03*
X59076Y34938D02*
D03*
Y53836D02*
D03*
Y72733D02*
D03*
Y91631D02*
D03*
Y110529D02*
D03*
X72462Y34938D02*
D03*
Y53836D02*
D03*
Y91631D02*
D03*
Y110529D02*
D03*
X85060Y34938D02*
D03*
Y53836D02*
D03*
Y91631D02*
D03*
Y110529D02*
D03*
X98446Y34938D02*
D03*
Y53836D02*
D03*
Y72733D02*
D03*
Y91631D02*
D03*
Y110529D02*
D03*
X111044Y34938D02*
D03*
Y53836D02*
D03*
Y72733D02*
D03*
Y91631D02*
D03*
Y110529D02*
D03*
D18*
X122068Y29426D02*
D03*
Y37300D02*
D03*
Y45174D02*
D03*
Y53048D02*
D03*
Y60922D02*
D03*
Y68796D02*
D03*
Y76670D02*
D03*
Y84544D02*
D03*
Y92418D02*
D03*
Y100292D02*
D03*
Y108166D02*
D03*
Y116040D02*
D03*
X129942Y29426D02*
D03*
Y37300D02*
D03*
Y45174D02*
D03*
Y53048D02*
D03*
Y60922D02*
D03*
Y68796D02*
D03*
Y76670D02*
D03*
Y84544D02*
D03*
Y92418D02*
D03*
Y100292D02*
D03*
Y108166D02*
D03*
Y116040D02*
D03*
M02*
